<svg width="106" height="153" viewBox="0 0 106 153" fill="none" xmlns="http://www.w3.org/2000/svg">
<g id="R-ICO-012790">
<g id="BOTTOM_bonds">
<path id="Vector" d="M82.6016 117.099C82.6724 120.527 82.5682 124.085 80.8419 127.605C80.3982 128.475 79.7853 129.319 78.9896 130.042C78.1978 130.78 77.169 131.305 76.0817 131.623C74.977 131.886 73.8386 131.896 72.7729 131.692C71.7275 131.466 70.7301 131.086 69.8714 130.567C68.126 129.545 66.7544 128.145 65.7129 126.602C64.6566 125.062 63.8965 123.393 63.314 121.703C62.7377 120.007 62.326 118.286 62.0507 116.554C61.7962 114.816 61.7439 113.072 61.7383 111.339C61.7366 110.805 62.1675 110.372 62.7008 110.37C63.2251 110.368 63.6531 110.785 63.669 111.306L63.67 111.339C63.7658 114.58 64.4233 117.818 65.8456 120.641C67.2512 123.446 69.4403 125.829 71.8089 127.104C74.2075 128.393 76.485 128.288 78.3435 126.013C79.2347 124.907 79.8627 123.441 80.249 121.905C80.6434 120.363 80.8251 118.733 80.9112 117.098L80.9126 117.071C80.9371 116.605 81.3349 116.247 81.8009 116.272C82.2455 116.296 82.5915 116.661 82.6016 117.099Z" fill="#685925"/>
<path id="Vector_2" d="M63.5251 126.498C64.7334 129.759 64.4625 133.163 63.7544 136.407C63.0304 139.667 61.7149 142.784 60.0682 145.704C59.2359 147.162 58.3442 148.596 57.1634 149.901C56.5406 150.533 55.8663 151.157 54.9345 151.583C54.6823 151.671 54.4465 151.775 54.1768 151.831C53.891 151.86 53.6187 151.933 53.3213 151.894C52.7335 151.854 52.1288 151.628 51.7142 151.275C50.8609 150.58 50.3925 149.713 50.1062 148.89C49.7881 148.057 49.6153 147.225 49.4692 146.397C49.1946 144.742 49.117 143.103 49.0506 141.468C49.0293 140.942 49.4383 140.498 49.9642 140.477C50.4901 140.456 50.9337 140.865 50.955 141.39C50.9557 141.408 50.9559 141.425 50.9557 141.443L50.9552 141.468C50.928 143.028 50.9815 144.595 51.2254 146.099C51.365 146.842 51.5308 147.581 51.794 148.24C52.0261 148.919 52.4107 149.494 52.8104 149.785C53.209 150.052 53.5767 150.058 54.1127 149.797C54.6312 149.53 55.1451 149.04 55.6127 148.512C56.537 147.402 57.2694 146.046 57.8214 144.627C58.9334 141.767 59.3891 138.683 59.8837 135.669C60.3666 132.627 60.6465 129.632 61.8837 126.497L61.8905 126.48C62.068 126.031 62.5762 125.81 63.0257 125.988C63.2655 126.082 63.4412 126.274 63.5251 126.498Z" fill="#685925"/>
<path id="Vector_3" d="M101.654 126.498C101.677 128.5 101.577 130.515 101.24 132.513C100.877 134.502 100.362 136.476 99.6484 138.4C98.2692 142.266 95.8935 145.858 92.6152 148.519C90.9853 149.855 89.121 150.941 87.0695 151.665C85.0302 152.373 82.7218 152.732 80.4224 152.115C79.8488 152.001 79.3078 151.709 78.7729 151.47C78.2757 151.138 77.7554 150.842 77.3544 150.406C76.4689 149.62 75.8822 148.62 75.4292 147.623C74.597 145.583 74.4461 143.488 74.4399 141.468C74.4383 140.935 74.8693 140.501 75.4026 140.499C75.9297 140.498 76.3595 140.919 76.371 141.443L76.3715 141.468C76.411 143.316 76.7221 145.16 77.4707 146.685C78.2239 148.199 79.4973 149.249 81.0322 149.422C82.5519 149.689 84.2254 149.17 85.7519 148.434C87.2951 147.686 88.7249 146.63 90.0668 145.477C91.4105 144.316 92.6407 143.007 93.7967 141.622C94.9495 140.235 96.0578 138.767 96.9586 137.158C97.8559 135.551 98.5968 133.834 99.1069 132.039C99.5762 130.236 99.8865 128.379 99.9633 126.498L99.9643 126.473C99.9833 126.007 100.377 125.644 100.843 125.664C101.294 125.682 101.648 126.052 101.654 126.498Z" fill="#685925"/>
<path id="Vector_4" d="M44.4974 117.099C44.6106 120.578 44.3093 124.099 43.4438 127.601C43.0034 129.347 42.4008 131.09 41.5022 132.723C40.6007 134.35 39.4077 135.86 37.9037 137.11C36.3936 138.327 34.5572 139.37 32.3857 139.58C31.3205 139.723 30.1706 139.546 29.1357 139.174C28.0746 138.81 27.1988 138.098 26.487 137.352C25.1093 135.78 24.4431 133.943 24.0616 132.169C23.6932 130.379 23.6378 128.601 23.6338 126.846C23.6326 126.313 24.0639 125.88 24.5972 125.879C25.1221 125.877 25.5502 126.295 25.5647 126.817L25.5655 126.846C25.6097 128.486 25.8098 130.115 26.2424 131.63C26.6606 133.137 27.3925 134.536 28.4132 135.396C30.4854 137.159 33.1966 135.995 35.3276 134.091C36.4131 133.138 37.3775 131.968 38.2614 130.709C39.149 129.45 39.9626 128.086 40.6453 126.628C42.0342 123.709 42.6352 120.404 42.8071 117.099L42.808 117.082C42.8323 116.616 43.23 116.258 43.6963 116.282C44.1374 116.305 44.482 116.665 44.4974 117.099Z" fill="#685925"/>
</g>
<g id="Group">
<path id="Vector_5" d="M19.8745 45.7987V126.846C19.8745 127.917 21.9903 128.784 24.6003 128.784C27.2103 128.784 29.3261 127.917 29.3261 126.846V45.7987H19.8745Z" fill="url(#paint0_linear_938_22992)"/>
<path id="Vector_6" d="M24.6003 47.7367C27.2103 47.7367 29.3261 46.869 29.3261 45.7987C29.3261 44.7284 27.2103 43.8607 24.6003 43.8607C21.9903 43.8607 19.8745 44.7284 19.8745 45.7987C19.8745 46.869 21.9903 47.7367 24.6003 47.7367Z" fill="url(#paint1_linear_938_22992)"/>
</g>
<g id="Group_2">
<path id="Vector_7" d="M96.083 45.7987V126.846C96.083 127.917 98.1988 128.784 100.809 128.784C103.419 128.784 105.535 127.917 105.535 126.846V45.7987H96.083Z" fill="url(#paint2_linear_938_22992)"/>
<path id="Vector_8" d="M100.809 47.7367C103.419 47.7367 105.535 46.869 105.535 45.7987C105.535 44.7284 103.419 43.8607 100.809 43.8607C98.1988 43.8607 96.083 44.7284 96.083 45.7987C96.083 46.869 98.1988 47.7367 100.809 47.7367Z" fill="url(#paint3_linear_938_22992)"/>
</g>
<g id="Group_3">
<path id="Vector_9" d="M57.979 30.2912V111.339C57.979 112.409 60.0948 113.277 62.7048 113.277C65.3148 113.277 67.4306 112.409 67.4306 111.339V30.2912H57.979Z" fill="url(#paint4_linear_938_22992)"/>
<path id="Vector_10" d="M62.7048 32.2292C65.3148 32.2292 67.4306 31.3615 67.4306 30.2912C67.4306 29.2209 65.3148 28.3532 62.7048 28.3532C60.0948 28.3532 57.979 29.2209 57.979 30.2912C57.979 31.3615 60.0948 32.2292 62.7048 32.2292Z" fill="url(#paint5_linear_938_22992)"/>
</g>
<g id="Group_4">
<path id="Vector_11" d="M38.9268 36.0511V117.099C38.9268 118.169 41.0426 119.037 43.6526 119.037C46.2626 119.037 48.3784 118.169 48.3784 117.099V36.0511H38.9268Z" fill="url(#paint6_linear_938_22992)"/>
<path id="Vector_12" d="M43.6526 37.9891C46.2625 37.9891 48.3784 37.1214 48.3784 36.0511C48.3784 34.9808 46.2625 34.1131 43.6526 34.1131C41.0426 34.1131 38.9268 34.9808 38.9268 36.0511C38.9268 37.1214 41.0426 37.9891 43.6526 37.9891Z" fill="url(#paint7_linear_938_22992)"/>
</g>
<g id="Group_5">
<path id="Vector_13" d="M77.0308 36.0511V117.099C77.0308 118.169 79.1466 119.037 81.7566 119.037C84.3666 119.037 86.4824 118.169 86.4824 117.099V36.0511H77.0308Z" fill="url(#paint8_linear_938_22992)"/>
<path id="Vector_14" d="M81.7566 37.9891C84.3665 37.9891 86.4824 37.1214 86.4824 36.0511C86.4824 34.9808 84.3665 34.1131 81.7566 34.1131C79.1466 34.1131 77.0308 34.9808 77.0308 36.0511C77.0308 37.1214 79.1466 37.9891 81.7566 37.9891Z" fill="url(#paint9_linear_938_22992)"/>
</g>
<g id="Group_6">
<path id="Vector_15" d="M45.2773 60.4202V141.468C45.2773 142.538 47.3931 143.406 50.0031 143.406C52.6131 143.406 54.7289 142.538 54.7289 141.468V60.4202H45.2773Z" fill="url(#paint10_linear_938_22992)"/>
<path id="Vector_16" d="M50.0031 62.3582C52.6131 62.3582 54.7289 61.4905 54.7289 60.4202C54.7289 59.3498 52.6131 58.4822 50.0031 58.4822C47.3932 58.4822 45.2773 59.3498 45.2773 60.4202C45.2773 61.4905 47.3932 62.3582 50.0031 62.3582Z" fill="url(#paint11_linear_938_22992)"/>
</g>
<g id="Group_7">
<path id="Vector_17" d="M70.6802 60.4202V141.468C70.6802 142.538 72.796 143.406 75.406 143.406C78.016 143.406 80.1318 142.538 80.1318 141.468V60.4202H70.6802Z" fill="url(#paint12_linear_938_22992)"/>
<path id="Vector_18" d="M75.406 62.3582C78.016 62.3582 80.1318 61.4905 80.1318 60.4202C80.1318 59.3498 78.016 58.4822 75.406 58.4822C72.796 58.4822 70.6802 59.3498 70.6802 60.4202C70.6802 61.4905 72.796 62.3582 75.406 62.3582Z" fill="url(#paint13_linear_938_22992)"/>
</g>
<g id="TOP_bonds">
<path id="Vector_19" d="M61.8594 30.2912C61.7733 28.6568 61.5916 27.0264 61.1972 25.4841C60.8109 23.949 60.1829 22.4831 59.2917 21.3768C57.4331 19.1015 55.1557 18.9969 52.7571 20.2852C50.3885 21.5601 48.1994 23.9433 46.7938 26.7487C45.3715 29.5716 44.714 32.81 44.6182 36.051L44.6173 36.0826C44.6015 36.6157 44.1567 37.035 43.6236 37.0193C43.0995 37.0038 42.6854 36.5721 42.6865 36.051C42.692 34.3177 42.7443 32.5734 42.9989 30.8357C43.2742 29.1036 43.6859 27.3822 44.2622 25.6871C44.8447 23.9962 45.6049 22.3272 46.6611 20.7881C47.7026 19.2446 49.0741 17.8443 50.8196 16.8223C51.6783 16.3043 52.6757 15.924 53.7211 15.6975C54.7867 15.4936 55.9252 15.5036 57.0299 15.7669C58.1171 16.0846 59.146 16.6096 59.9378 17.3475C60.7335 18.0708 61.3464 18.9151 61.7901 19.7843C63.5164 23.3051 63.6206 26.8628 63.5498 30.2911C63.5402 30.7577 63.1541 31.1282 62.6875 31.1186C62.2427 31.1094 61.8853 30.7582 61.8612 30.3212L61.8594 30.2912Z" fill="#685925"/>
<path id="Vector_20" d="M99.9639 45.7987C99.7919 42.4939 99.191 39.1886 97.8021 36.2692C97.1195 34.8117 96.3058 33.4474 95.4183 32.1885C94.5345 30.9296 93.5701 29.7599 92.4846 28.8062C90.3537 26.9022 87.6425 25.7389 85.5703 27.5017C84.5497 28.3619 83.8178 29.7602 83.3996 31.268C82.967 32.7822 82.7669 34.4116 82.7227 36.0511L82.7219 36.0793C82.7075 36.6124 82.2637 37.0329 81.7306 37.0186C81.2059 37.0045 80.7902 36.573 80.791 36.0511C80.795 34.2965 80.8504 32.5188 81.2188 30.7281C81.6003 28.9543 82.2664 27.1173 83.6441 25.5456C84.3558 24.7998 85.2317 24.0875 86.2927 23.723C87.3276 23.3515 88.4775 23.1743 89.5427 23.3178C91.7142 23.5276 93.5506 24.5704 95.0607 25.7878C96.5646 27.0376 97.7576 28.5476 98.6591 30.1744C99.5576 31.807 100.16 33.5506 100.601 35.2965C101.466 38.7978 101.767 42.3195 101.654 45.7986C101.639 46.2653 101.248 46.6313 100.782 46.6161C100.34 46.6017 99.9888 46.2514 99.965 45.8185L99.9639 45.7987Z" fill="#685925"/>
<path id="Vector_21" d="M74.5609 60.4202C74.4809 58.6293 74.1955 56.8633 73.6855 55.1988C73.1716 53.5358 72.3213 52.0132 71.2289 50.7877C70.1357 49.5595 68.8124 48.6378 67.3908 48.054C65.9756 47.4572 64.4631 47.1406 62.9198 47.1408C59.8533 47.1503 56.633 48.4012 54.3776 50.8861C52.1055 53.3676 51.0665 56.9038 50.9689 60.4201L50.9681 60.4479C50.9533 60.981 50.5092 61.4012 49.976 61.3864C49.452 61.3719 49.0371 60.941 49.0371 60.4201C49.0392 58.4899 49.2022 56.5331 49.7088 54.6192C50.2182 52.711 51.0505 50.8539 52.2239 49.1835C53.3992 47.5192 54.9253 46.0413 56.7482 44.9728C58.5623 43.9004 60.6698 43.2371 62.8318 43.1736C64.9877 43.1068 67.1908 43.5934 69.0933 44.6394C71.0067 45.675 72.5422 47.2753 73.6199 49.0386C74.7034 50.8087 75.3906 52.7253 75.799 54.6455C76.1995 56.5739 76.2703 58.511 76.2509 60.4201C76.2462 60.8867 75.8641 61.2611 75.3975 61.2564C74.9472 61.2518 74.5828 60.8959 74.5621 60.4517L74.5609 60.4202Z" fill="#685925"/>
<path id="Vector_22" d="M24.6003 45.7987C24.6003 29.5347 12.5085 33.5884 5.94727 24.9602" stroke="#685925" stroke-width="2" stroke-miterlimit="10" stroke-linecap="round" stroke-linejoin="round"/>
<path id="Vector_23" d="M7.4523 1.76815C5.5312 4.49595 4.2422 7.50185 3.8023 10.6462C3.5513 12.2117 3.5889 13.8063 3.73 15.3756C3.9157 16.9459 4.2917 18.4792 4.7702 20.0106C5.2764 21.5332 5.9809 23.016 6.878 24.4204C7.7861 25.8211 8.9948 27.0254 10.353 28.0355C11.7289 29.0299 13.3259 29.6869 14.9527 30.1188C16.5915 30.5498 18.3039 30.5521 19.9465 30.417C21.599 30.2118 23.1748 29.765 24.67 29.1963C26.1461 28.5695 27.5545 27.8457 28.8352 26.9268C30.0864 25.9717 31.2282 24.8942 32.2099 23.6832C33.1491 22.4402 33.9795 21.1245 34.6076 19.701C35.2163 18.2719 35.6372 16.7683 35.8744 15.2211C36.0545 13.6703 36.1244 12.083 35.8986 10.5144C35.4921 7.37696 34.2207 4.30865 32.1975 1.66305L32.1912 1.65475C31.8458 1.20305 31.9319 0.556955 32.3836 0.211555C32.7766 -0.0889454 33.3171 -0.0623454 33.6783 0.247055C36.5095 2.66925 38.5715 6.10705 39.4036 9.87815C39.6203 10.8185 39.7508 11.7791 39.8213 12.744C39.858 13.2271 39.8616 13.7108 39.8412 14.1955C39.8238 14.6796 39.8324 15.167 39.7886 15.6506C39.622 17.5928 39.1167 19.4952 38.4144 21.3202C37.6259 23.1098 36.6088 24.8 35.345 26.2889C34.0567 27.7575 32.5585 29.0233 30.9191 30.0556C29.2677 31.0716 27.4637 31.8155 25.6037 32.2679C23.7301 32.6936 21.8114 32.7385 19.9557 32.607C18.0963 32.3956 16.2946 32.0123 14.5687 31.4218C12.8565 30.8032 11.1997 30.064 9.6529 29.1061C8.1101 28.1542 6.6196 27.0713 5.2715 25.7786C3.9491 24.472 2.7321 22.9868 1.8391 21.2868C0.984503 19.58 0.349503 17.7225 0.151503 15.7991C0.063403 15.3237 0.080603 14.8389 0.042403 14.359C0.018403 13.8778 -0.016297 13.3968 0.008603 12.9153C0.040003 11.9528 0.156403 10.9929 0.341303 10.0484C1.0811 6.27395 3.0705 2.74625 5.9596 0.364655C6.3997 0.00185454 7.0505 0.0645545 7.4133 0.504655C7.7157 0.871455 7.7225 1.38465 7.4616 1.75545L7.4523 1.76815Z" fill="#685925"/>
</g>
</g>
<defs>
<linearGradient id="paint0_linear_938_22992" x1="19.8745" y1="87.2915" x2="29.3261" y2="87.2915" gradientUnits="userSpaceOnUse">
<stop stop-color="#695B24"/>
<stop offset="0.0273" stop-color="#7B6D37"/>
<stop offset="0.0778" stop-color="#968953"/>
<stop offset="0.1283" stop-color="#AA9D68"/>
<stop offset="0.1782" stop-color="#B6A974"/>
<stop offset="0.2271" stop-color="#BAAD78"/>
<stop offset="1" stop-color="#695815"/>
</linearGradient>
<linearGradient id="paint1_linear_938_22992" x1="21.3444" y1="41.0822" x2="26.7139" y2="48.8605" gradientUnits="userSpaceOnUse">
<stop stop-color="#695B24"/>
<stop offset="0.0273" stop-color="#7B6D37"/>
<stop offset="0.0778" stop-color="#968953"/>
<stop offset="0.1283" stop-color="#AA9D68"/>
<stop offset="0.1782" stop-color="#B6A974"/>
<stop offset="0.2271" stop-color="#BAAD78"/>
<stop offset="1" stop-color="#695815"/>
</linearGradient>
<linearGradient id="paint2_linear_938_22992" x1="96.083" y1="87.2915" x2="105.535" y2="87.2915" gradientUnits="userSpaceOnUse">
<stop stop-color="#695B24"/>
<stop offset="0.0273" stop-color="#7B6D37"/>
<stop offset="0.0778" stop-color="#968953"/>
<stop offset="0.1283" stop-color="#AA9D68"/>
<stop offset="0.1782" stop-color="#B6A974"/>
<stop offset="0.2271" stop-color="#BAAD78"/>
<stop offset="1" stop-color="#695815"/>
</linearGradient>
<linearGradient id="paint3_linear_938_22992" x1="97.5529" y1="41.0822" x2="102.922" y2="48.8605" gradientUnits="userSpaceOnUse">
<stop stop-color="#695B24"/>
<stop offset="0.0273" stop-color="#7B6D37"/>
<stop offset="0.0778" stop-color="#968953"/>
<stop offset="0.1283" stop-color="#AA9D68"/>
<stop offset="0.1782" stop-color="#B6A974"/>
<stop offset="0.2271" stop-color="#BAAD78"/>
<stop offset="1" stop-color="#695815"/>
</linearGradient>
<linearGradient id="paint4_linear_938_22992" x1="57.979" y1="71.784" x2="67.4307" y2="71.784" gradientUnits="userSpaceOnUse">
<stop stop-color="#695B24"/>
<stop offset="0.0273" stop-color="#7B6D37"/>
<stop offset="0.0778" stop-color="#968953"/>
<stop offset="0.1283" stop-color="#AA9D68"/>
<stop offset="0.1782" stop-color="#B6A974"/>
<stop offset="0.2271" stop-color="#BAAD78"/>
<stop offset="1" stop-color="#695815"/>
</linearGradient>
<linearGradient id="paint5_linear_938_22992" x1="59.4488" y1="25.5747" x2="64.8184" y2="33.3529" gradientUnits="userSpaceOnUse">
<stop stop-color="#695B24"/>
<stop offset="0.0273" stop-color="#7B6D37"/>
<stop offset="0.0778" stop-color="#968953"/>
<stop offset="0.1283" stop-color="#AA9D68"/>
<stop offset="0.1782" stop-color="#B6A974"/>
<stop offset="0.2271" stop-color="#BAAD78"/>
<stop offset="1" stop-color="#695815"/>
</linearGradient>
<linearGradient id="paint6_linear_938_22992" x1="38.9268" y1="77.5439" x2="48.3784" y2="77.5439" gradientUnits="userSpaceOnUse">
<stop stop-color="#695B24"/>
<stop offset="0.0273" stop-color="#7B6D37"/>
<stop offset="0.0778" stop-color="#968953"/>
<stop offset="0.1283" stop-color="#AA9D68"/>
<stop offset="0.1782" stop-color="#B6A974"/>
<stop offset="0.2271" stop-color="#BAAD78"/>
<stop offset="1" stop-color="#695815"/>
</linearGradient>
<linearGradient id="paint7_linear_938_22992" x1="40.3967" y1="31.3346" x2="45.7662" y2="39.1129" gradientUnits="userSpaceOnUse">
<stop stop-color="#695B24"/>
<stop offset="0.0273" stop-color="#7B6D37"/>
<stop offset="0.0778" stop-color="#968953"/>
<stop offset="0.1283" stop-color="#AA9D68"/>
<stop offset="0.1782" stop-color="#B6A974"/>
<stop offset="0.2271" stop-color="#BAAD78"/>
<stop offset="1" stop-color="#695815"/>
</linearGradient>
<linearGradient id="paint8_linear_938_22992" x1="77.0308" y1="77.5439" x2="86.4825" y2="77.5439" gradientUnits="userSpaceOnUse">
<stop stop-color="#695B24"/>
<stop offset="0.0273" stop-color="#7B6D37"/>
<stop offset="0.0778" stop-color="#968953"/>
<stop offset="0.1283" stop-color="#AA9D68"/>
<stop offset="0.1782" stop-color="#B6A974"/>
<stop offset="0.2271" stop-color="#BAAD78"/>
<stop offset="1" stop-color="#695815"/>
</linearGradient>
<linearGradient id="paint9_linear_938_22992" x1="78.5007" y1="31.3346" x2="83.8703" y2="39.1129" gradientUnits="userSpaceOnUse">
<stop stop-color="#695B24"/>
<stop offset="0.0273" stop-color="#7B6D37"/>
<stop offset="0.0778" stop-color="#968953"/>
<stop offset="0.1283" stop-color="#AA9D68"/>
<stop offset="0.1782" stop-color="#B6A974"/>
<stop offset="0.2271" stop-color="#BAAD78"/>
<stop offset="1" stop-color="#695815"/>
</linearGradient>
<linearGradient id="paint10_linear_938_22992" x1="45.2773" y1="101.913" x2="54.7289" y2="101.913" gradientUnits="userSpaceOnUse">
<stop stop-color="#695B24"/>
<stop offset="0.0273" stop-color="#7B6D37"/>
<stop offset="0.0778" stop-color="#968953"/>
<stop offset="0.1283" stop-color="#AA9D68"/>
<stop offset="0.1782" stop-color="#B6A974"/>
<stop offset="0.2271" stop-color="#BAAD78"/>
<stop offset="1" stop-color="#695815"/>
</linearGradient>
<linearGradient id="paint11_linear_938_22992" x1="46.7472" y1="55.7037" x2="52.1167" y2="63.482" gradientUnits="userSpaceOnUse">
<stop stop-color="#695B24"/>
<stop offset="0.0273" stop-color="#7B6D37"/>
<stop offset="0.0778" stop-color="#968953"/>
<stop offset="0.1283" stop-color="#AA9D68"/>
<stop offset="0.1782" stop-color="#B6A974"/>
<stop offset="0.2271" stop-color="#BAAD78"/>
<stop offset="1" stop-color="#695815"/>
</linearGradient>
<linearGradient id="paint12_linear_938_22992" x1="70.6802" y1="101.913" x2="80.1318" y2="101.913" gradientUnits="userSpaceOnUse">
<stop stop-color="#695B24"/>
<stop offset="0.0273" stop-color="#7B6D37"/>
<stop offset="0.0778" stop-color="#968953"/>
<stop offset="0.1283" stop-color="#AA9D68"/>
<stop offset="0.1782" stop-color="#B6A974"/>
<stop offset="0.2271" stop-color="#BAAD78"/>
<stop offset="1" stop-color="#695815"/>
</linearGradient>
<linearGradient id="paint13_linear_938_22992" x1="72.1501" y1="55.7037" x2="77.5196" y2="63.482" gradientUnits="userSpaceOnUse">
<stop stop-color="#695B24"/>
<stop offset="0.0273" stop-color="#7B6D37"/>
<stop offset="0.0778" stop-color="#968953"/>
<stop offset="0.1283" stop-color="#AA9D68"/>
<stop offset="0.1782" stop-color="#B6A974"/>
<stop offset="0.2271" stop-color="#BAAD78"/>
<stop offset="1" stop-color="#695815"/>
</linearGradient>
</defs>
</svg>
