<svg width="101" height="24" viewBox="0 0 101 24" fill="none" xmlns="http://www.w3.org/2000/svg">
<g id="R-ICO-013409">
<g id="CHEMICAL_HEX">
<g id="LEFT_CORNER">
<mask id="mask0_938_25037" style="mask-type:luminance" maskUnits="userSpaceOnUse" x="0" y="0" width="10" height="24">
<rect id="MASK" width="10" height="24" transform="matrix(-1 0 0 1 10 0)" fill="white"/>
</mask>
<g mask="url(#mask0_938_25037)">
<g id="CORNER">
<mask id="path-2-outside-1_938_25037" maskUnits="userSpaceOnUse" x="0" y="0" width="12" height="24" fill="black">
<rect fill="white" width="12" height="24"/>
<path d="M2 12C2 12 6.04738 5.90524 8 2H10V22H8C6.04738 18.0948 2 12 2 12Z"/>
</mask>
<path d="M2 12C2 12 6.04738 5.90524 8 2H10V22H8C6.04738 18.0948 2 12 2 12Z" fill="url(#paint0_linear_938_25037)"/>
<path d="M2 12C2 12 6.04738 5.90524 8 2H10V22H8C6.04738 18.0948 2 12 2 12Z" stroke="#6B032F" stroke-width="4" stroke-miterlimit="3.99933" stroke-linejoin="round" mask="url(#path-2-outside-1_938_25037)"/>
</g>
</g>
</g>
<g id="RIGHT CORNER">
<mask id="mask1_938_25037" style="mask-type:luminance" maskUnits="userSpaceOnUse" x="91" y="0" width="10" height="24">
<rect id="MASK_2" width="10" height="24" transform="matrix(1 -8.74228e-08 -8.74228e-08 -1 91 24)" fill="white"/>
</mask>
<g mask="url(#mask1_938_25037)">
<g id="CORNER_2">
<mask id="path-4-outside-2_938_25037" maskUnits="userSpaceOnUse" x="89" y="0" width="12" height="24" fill="black">
<rect fill="white" x="89" width="12" height="24"/>
<path d="M99 12C99 12 94.9526 5.90524 93 2H91V22H93C94.9526 18.0948 99 12 99 12Z"/>
</mask>
<path d="M99 12C99 12 94.9526 5.90524 93 2H91V22H93C94.9526 18.0948 99 12 99 12Z" fill="url(#paint1_linear_938_25037)"/>
<path d="M99 12C99 12 94.9526 5.90524 93 2H91V22H93C94.9526 18.0948 99 12 99 12Z" stroke="#6B032F" stroke-width="4" stroke-miterlimit="3.99933" stroke-linejoin="round" mask="url(#path-4-outside-2_938_25037)"/>
</g>
</g>
</g>
<g id="centre">
<g clip-path="url(#clip0_938_25037)">
<mask id="path-5-outside-3_938_25037" maskUnits="userSpaceOnUse" x="10" y="0" width="81" height="24" fill="black">
<rect fill="white" x="10" width="81" height="24"/>
<path d="M10 2H91V22H10V2Z"/>
</mask>
<path d="M10 2H91V22H10V2Z" fill="url(#paint2_linear_938_25037)"/>
<g id="Chemical">
<text fill="white" xml:space="preserve" style="white-space: pre" font-family="Arial" font-size="12" font-weight="bold" letter-spacing="0em"><tspan x="10.1172" y="16.1602">succinate CO</tspan></text>
<text fill="white" xml:space="preserve" style="white-space: pre" font-family="Arial" font-size="12" font-weight="bold" letter-spacing="0em"><tspan x="86.875" y="16.1602">&#x2082;</tspan></text>
</g>
</g>
<path d="M10 2V4H91V2V0H10V2ZM91 22V20H10V22V24H91V22Z" fill="#6B032F" mask="url(#path-5-outside-3_938_25037)"/>
</g>
</g>
</g>
<defs>
<linearGradient id="paint0_linear_938_25037" x1="6" y1="2" x2="6" y2="22" gradientUnits="userSpaceOnUse">
<stop stop-color="#6B032F"/>
<stop offset="1" stop-color="#DB8B5E"/>
</linearGradient>
<linearGradient id="paint1_linear_938_25037" x1="95" y1="2" x2="95" y2="22" gradientUnits="userSpaceOnUse">
<stop stop-color="#6B032F"/>
<stop offset="1" stop-color="#DB8B5E"/>
</linearGradient>
<linearGradient id="paint2_linear_938_25037" x1="50.5" y1="2" x2="50.5" y2="22" gradientUnits="userSpaceOnUse">
<stop stop-color="#6B032F"/>
<stop offset="1" stop-color="#DB8B5E"/>
</linearGradient>
<clipPath id="clip0_938_25037">
<path d="M10 2H91V22H10V2Z" fill="white"/>
</clipPath>
</defs>
</svg>
