<svg width="44" height="57" viewBox="0 0 44 57" fill="none" xmlns="http://www.w3.org/2000/svg">
<g id="R-ICO-013821">
<path id="Vector" d="M21.6826 53.1721C14.9029 53.1471 2.39691 56.3219 2.39691 56.3219C16.821 56.3751 16.9248 28.2319 16.9248 28.2319C16.9248 28.2319 17.0286 0.0848621 2.60451 0.0317621C2.60451 0.0317621 14.9013 3.27666 21.6458 3.30156C28.3902 3.26676 40.6822 0.00366211 40.6822 0.00366211C26.2582 0.0781621 26.4035 28.225 26.4035 28.225C26.4035 28.225 26.5489 56.368 40.9729 56.2935C40.9729 56.2935 28.4622 53.1371 21.6826 53.1721Z" fill="url(#paint0_linear_938_22855)"/>
<g id="Group">
<path id="Vector_2" d="M29.6912 28.2043C29.8041 50.0656 39.5358 47.171 40.9243 47.1639C42.3128 47.1567 43.2507 48.6418 43.2689 52.1707C43.2835 54.9894 42.7831 56.2806 40.9714 56.29C26.5474 56.3645 26.402 28.2214 26.402 28.2214C26.402 28.2214 26.2567 0.0745477 40.6807 4.77092e-05C42.4906 -0.00925229 43.2783 1.34105 43.2925 4.09015C43.3067 6.83925 42.1163 9.12235 40.7278 9.12955C39.3394 9.13675 29.5783 6.34305 29.6912 28.2043Z" fill="#A0630A"/>
<path id="Vector_3" d="M13.6371 28.2161C13.5565 50.0776 3.82049 47.1974 2.43199 47.1923C1.04349 47.1872 0.107794 48.6736 0.0947941 52.2024C0.0843941 55.0212 0.586694 56.3116 2.39829 56.3183C16.8224 56.3715 16.9262 28.2283 16.9262 28.2283C16.9262 28.2283 17.03 0.081301 2.60589 0.028101C0.795994 0.021401 0.0101941 1.373 9.41472e-05 4.1221C-0.0100059 6.8712 1.18369 9.1526 2.57219 9.1577C3.96069 9.1628 13.7177 6.3547 13.6371 28.2161Z" fill="#A0630A"/>
</g>
</g>
<defs>
<linearGradient id="paint0_linear_938_22855" x1="21.8869" y1="3.21778" x2="21.7021" y2="53.1579" gradientUnits="userSpaceOnUse">
<stop stop-color="#D28A95"/>
<stop offset="0.1239" stop-color="#DD7D8C"/>
<stop offset="0.3369" stop-color="#EB6D80"/>
<stop offset="0.5" stop-color="#F0677C"/>
<stop offset="0.6631" stop-color="#EB6D80"/>
<stop offset="0.8761" stop-color="#DD7D8C"/>
<stop offset="1" stop-color="#D28A95"/>
</linearGradient>
</defs>
</svg>
