<svg width="65" height="180" viewBox="0 0 65 180" fill="none" xmlns="http://www.w3.org/2000/svg">
<g id="R-ICO-013978">
<path id="C-Like" d="M34.7823 33.1083L34.7822 174.794C34.7822 177.669 37.1131 180 39.9884 180H39.9903C42.7951 180 45.1249 177.836 45.3319 175.039L51.9954 63.5972C52.3215 59.1919 53.9774 54.9753 56.8096 51.5854C61.0177 46.5489 63.7144 40.206 64.2028 33.2539C64.2897 32.0172 63.297 30.9658 62.0573 30.9658H36.9246C35.7415 30.9658 34.7823 31.9251 34.7823 33.1083Z" fill="url(#paint0_linear_938_23040)"/>
<path id="C-Like_2" d="M29.4259 33.1082L29.426 174.794C29.426 177.669 27.0951 180 24.2198 180H24.2179C21.4131 180 19.0833 177.836 18.8763 175.039L12.2128 63.5971C11.8867 59.1918 10.2308 54.9752 7.3986 51.5853C3.1905 46.5489 0.493702 40.206 0.00530218 33.2539C-0.0815978 32.0172 0.911002 30.9658 2.1508 30.9658H27.2835C28.4667 30.9657 29.4259 31.925 29.4259 33.1082Z" fill="url(#paint1_linear_938_23040)"/>
<path id="V-Like" d="M64.2023 28.6665C63.2553 15.2529 54.0872 4.10932 41.7061 0.243717C38.2708 -0.828783 34.7825 1.77522 34.7825 5.37402V28.8232C34.7825 30.0065 35.7417 30.9657 36.925 30.9657H62.0563C63.3002 30.9657 64.2899 29.9074 64.2023 28.6665Z" fill="url(#paint2_linear_938_23040)"/>
<path id="V-Like_2" d="M0.00613143 28.6665C0.953131 15.2529 10.1212 4.10932 22.5023 0.243717C25.9376 -0.828783 29.4259 1.77522 29.4259 5.37402V28.8232C29.4259 30.0065 28.4667 30.9657 27.2834 30.9657H2.15213C0.908232 30.9657 -0.0814686 29.9074 0.00613143 28.6665Z" fill="url(#paint3_linear_938_23040)"/>
</g>
<defs>
<linearGradient id="paint0_linear_938_23040" x1="49.4952" y1="176.422" x2="49.4952" y2="28.766" gradientUnits="userSpaceOnUse">
<stop stop-color="#722ECB"/>
<stop offset="1" stop-color="#E1C000"/>
</linearGradient>
<linearGradient id="paint1_linear_938_23040" x1="14.7132" y1="176.422" x2="14.7132" y2="28.7659" gradientUnits="userSpaceOnUse">
<stop stop-color="#722ECB"/>
<stop offset="1" stop-color="#E1C000"/>
</linearGradient>
<linearGradient id="paint2_linear_938_23040" x1="49.4952" y1="30.2224" x2="49.4952" y2="-0.457083" gradientUnits="userSpaceOnUse">
<stop stop-color="#722ECB"/>
<stop offset="1" stop-color="#E1C000"/>
</linearGradient>
<linearGradient id="paint3_linear_938_23040" x1="14.7134" y1="30.2224" x2="14.7134" y2="-0.457083" gradientUnits="userSpaceOnUse">
<stop stop-color="#722ECB"/>
<stop offset="1" stop-color="#E1C000"/>
</linearGradient>
</defs>
</svg>
