<svg width="144" height="20" viewBox="0 0 144 20" fill="none" xmlns="http://www.w3.org/2000/svg">
<g id="R-ICO-013974">
<g id="Group">
<path id="Vector" d="M66.4052 6.84782C67.1489 6.84782 67.7518 7.45071 67.7518 8.19442C67.7518 8.93812 67.1489 9.54102 66.4052 9.54102C65.6615 9.54102 65.0586 8.93812 65.0586 8.19442C65.0586 7.45071 65.6615 6.84782 66.4052 6.84782Z" fill="url(#paint0_radial_938_25735)"/>
<path id="Vector_2" d="M96.4052 6.84782C97.1489 6.84782 97.7518 7.45071 97.7518 8.19442C97.7518 8.93812 97.1489 9.54102 96.4052 9.54102C95.6615 9.54102 95.0586 8.93812 95.0586 8.19442C95.0586 7.45071 95.6615 6.84782 96.4052 6.84782Z" fill="url(#paint1_radial_938_25735)"/>
<path id="Vector_3" d="M121.405 7.84782C122.149 7.84782 122.752 8.45071 122.752 9.19442C122.752 9.93812 122.149 10.541 121.405 10.541C120.661 10.541 120.059 9.93812 120.059 9.19442C120.059 8.45071 120.661 7.84782 121.405 7.84782Z" fill="url(#paint2_radial_938_25735)"/>
<path id="Vector_4" d="M19.4052 7.84782C20.1489 7.84782 20.7518 8.45071 20.7518 9.19442C20.7518 9.93812 20.1489 10.541 19.4052 10.541C18.6615 10.541 18.0586 9.93812 18.0586 9.19442C18.0586 8.45071 18.6615 7.84782 19.4052 7.84782Z" fill="url(#paint3_radial_938_25735)"/>
<path id="Vector_5" d="M49.4052 7.84782C50.1489 7.84782 50.7518 8.45071 50.7518 9.19442C50.7518 9.93812 50.1489 10.541 49.4052 10.541C48.6615 10.541 48.0586 9.93812 48.0586 9.19442C48.0586 8.45071 48.6615 7.84782 49.4052 7.84782Z" fill="url(#paint4_radial_938_25735)"/>
<path id="Vector_6" d="M74.4052 8.84782C75.1489 8.84782 75.7518 9.45071 75.7518 10.1944C75.7518 10.9381 75.1489 11.541 74.4052 11.541C73.6615 11.541 73.0586 10.9381 73.0586 10.1944C73.0586 9.45071 73.6615 8.84782 74.4052 8.84782Z" fill="url(#paint5_radial_938_25735)"/>
<path id="Vector_7" d="M87.4051 14.5411C86.6614 14.5411 86.0585 13.9382 86.0585 13.1945C86.0585 12.4508 86.6614 11.8479 87.4051 11.8479C88.1488 11.8479 88.7517 12.4508 88.7517 13.1945C88.7517 13.9382 88.1488 14.5411 87.4051 14.5411Z" fill="url(#paint6_radial_938_25735)"/>
<path id="Vector_8" d="M57.4051 14.5411C56.6614 14.5411 56.0585 13.9382 56.0585 13.1945C56.0585 12.4508 56.6614 11.8479 57.4051 11.8479C58.1488 11.8479 58.7517 12.4508 58.7517 13.1945C58.7517 13.9382 58.1488 14.5411 57.4051 14.5411Z" fill="url(#paint7_radial_938_25735)"/>
<path id="Vector_9" d="M32.4051 13.5411C31.6614 13.5411 31.0585 12.9382 31.0585 12.1945C31.0585 11.4508 31.6614 10.8479 32.4051 10.8479C33.1488 10.8479 33.7517 11.4508 33.7517 12.1945C33.7517 12.9382 33.1488 13.5411 32.4051 13.5411Z" fill="url(#paint8_radial_938_25735)"/>
<path id="Vector_10" d="M134.405 13.5411C133.661 13.5411 133.059 12.9382 133.059 12.1945C133.059 11.4508 133.661 10.8479 134.405 10.8479C135.149 10.8479 135.752 11.4508 135.752 12.1945C135.752 12.9382 135.149 13.5411 134.405 13.5411Z" fill="url(#paint9_radial_938_25735)"/>
<path id="Vector_11" d="M102.405 13.5411C101.661 13.5411 101.059 12.9382 101.059 12.1945C101.059 11.4508 101.661 10.8479 102.405 10.8479C103.149 10.8479 103.752 11.4508 103.752 12.1945C103.752 12.9382 103.149 13.5411 102.405 13.5411Z" fill="url(#paint10_radial_938_25735)"/>
<path id="Vector_12" d="M79.4051 12.5411C78.6614 12.5411 78.0585 11.9382 78.0585 11.1945C78.0585 10.4508 78.6614 9.8479 79.4051 9.8479C80.1488 9.8479 80.7517 10.4508 80.7517 11.1945C80.7517 11.9382 80.1488 12.5411 79.4051 12.5411Z" fill="url(#paint11_radial_938_25735)"/>
</g>
<g id="Group_2">
<g id="Group_3">
<path id="Vector_13" d="M80.2877 6.18783C81.2686 6.18783 82.0639 6.98307 82.0639 7.96403C82.0639 8.945 81.2686 9.74023 80.2877 9.74023C79.3067 9.74023 78.5115 8.945 78.5115 7.96403C78.5115 6.98307 79.3067 6.18783 80.2877 6.18783Z" fill="url(#paint12_radial_938_25735)"/>
<path id="Vector_14" d="M76.1532 6.64902C77.1341 6.64902 77.9294 7.44425 77.9294 8.42522C77.9294 9.40618 77.1341 10.2014 76.1532 10.2014C75.1722 10.2014 74.377 9.40618 74.377 8.42522C74.377 7.44425 75.1722 6.64902 76.1532 6.64902Z" fill="url(#paint13_radial_938_25735)"/>
</g>
<g id="Group_4">
<path id="Vector_15" d="M59.1 9.09608C59.8268 9.7549 59.8819 10.8782 59.2231 11.605C58.5642 12.3318 57.441 12.3869 56.7142 11.7281C55.9874 11.0692 55.9323 9.94597 56.5911 9.21917C57.2499 8.49237 58.3732 8.43726 59.1 9.09608Z" fill="url(#paint14_radial_938_25735)"/>
<path id="Vector_16" d="M55.7269 6.66102C56.4537 7.31984 56.5088 8.4431 55.85 9.1699C55.1912 9.8967 54.0679 9.95181 53.3411 9.29299C52.6143 8.63418 52.5592 7.51091 53.218 6.78411C53.8769 6.05731 55.0001 6.0022 55.7269 6.66102Z" fill="url(#paint15_radial_938_25735)"/>
</g>
<g id="Group_5">
<path id="Vector_17" d="M29.1738 6.47593C30.0515 6.03783 31.1181 6.39417 31.5562 7.27184C31.9943 8.14951 31.638 9.21616 30.7603 9.65426C29.8826 10.0924 28.816 9.73602 28.3779 8.85834C27.9398 7.98067 28.2961 6.91403 29.1738 6.47593Z" fill="url(#paint16_radial_938_25735)"/>
<path id="Vector_18" d="M25.6806 8.73496C26.5583 8.29686 27.625 8.6532 28.0631 9.53088C28.5012 10.4085 28.1448 11.4752 27.2671 11.9133C26.3895 12.3514 25.3228 11.995 24.8847 11.1174C24.4466 10.2397 24.803 9.17306 25.6806 8.73496Z" fill="url(#paint17_radial_938_25735)"/>
</g>
<g id="Group_6">
<path id="Vector_19" d="M101.174 6.47593C102.051 6.03783 103.118 6.39417 103.556 7.27184C103.994 8.14951 103.638 9.21616 102.76 9.65426C101.883 10.0924 100.816 9.73602 100.378 8.85834C99.9398 7.98067 100.296 6.91403 101.174 6.47593Z" fill="url(#paint18_radial_938_25735)"/>
<path id="Vector_20" d="M97.6806 8.73496C98.5583 8.29686 99.625 8.6532 100.063 9.53088C100.501 10.4085 100.145 11.4752 99.2671 11.9133C98.3895 12.3514 97.3228 11.995 96.8847 11.1174C96.4466 10.2397 96.803 9.17306 97.6806 8.73496Z" fill="url(#paint19_radial_938_25735)"/>
</g>
<g id="Group_7">
<path id="Vector_21" d="M120.021 9.5191C120.866 10.0183 121.146 11.1075 120.646 11.952C120.147 12.7964 119.058 13.0762 118.214 12.577C117.369 12.0778 117.089 10.9886 117.588 10.1441C118.088 9.29973 119.177 9.01988 120.021 9.5191Z" fill="url(#paint20_radial_938_25735)"/>
<path id="Vector_22" d="M116.228 7.81207C117.072 8.31128 117.352 9.40051 116.853 10.2449C116.353 11.0893 115.264 11.3692 114.42 10.87C113.575 10.3708 113.296 9.28153 113.795 8.43711C114.294 7.59269 115.383 7.31285 116.228 7.81207Z" fill="url(#paint21_radial_938_25735)"/>
</g>
<g id="Group_8">
<path id="Vector_23" d="M139.764 6.3651C140.567 5.80261 141.675 5.99808 142.237 6.80169C142.8 7.6053 142.604 8.71274 141.801 9.27523C140.997 9.83772 139.889 9.64225 139.327 8.83864C138.764 8.03503 138.96 6.92759 139.764 6.3651Z" fill="url(#paint22_radial_938_25735)"/>
<path id="Vector_24" d="M136.641 9.11364C137.444 8.55115 138.552 8.74662 139.114 9.55023C139.677 10.3538 139.481 11.4613 138.678 12.0238C137.874 12.5863 136.767 12.3908 136.204 11.5872C135.642 10.7836 135.837 9.67612 136.641 9.11364Z" fill="url(#paint23_radial_938_25735)"/>
</g>
<g id="Group_9">
<path id="Vector_25" d="M68.9677 16.6806C67.9867 16.6806 67.1915 15.8853 67.1915 14.9044C67.1915 13.9234 67.9867 13.1282 68.9677 13.1282C69.9487 13.1282 70.7439 13.9234 70.7439 14.9044C70.7439 15.8853 69.9487 16.6806 68.9677 16.6806Z" fill="url(#paint24_radial_938_25735)"/>
<path id="Vector_26" d="M73.1025 16.2194C72.1215 16.2194 71.3263 15.4242 71.3263 14.4432C71.3263 13.4622 72.1215 12.667 73.1025 12.667C74.0834 12.667 74.8787 13.4622 74.8787 14.4432C74.8787 15.4242 74.0834 16.2194 73.1025 16.2194Z" fill="url(#paint25_radial_938_25735)"/>
</g>
<g id="Group_10">
<path id="Vector_27" d="M91.0816 16.3925C90.2039 16.8306 89.1372 16.4742 88.6991 15.5966C88.261 14.7189 88.6174 13.6522 89.4951 13.2141C90.3727 12.776 91.4394 13.1324 91.8775 14.0101C92.3156 14.8877 91.9592 15.9544 91.0816 16.3925Z" fill="url(#paint26_radial_938_25735)"/>
<path id="Vector_28" d="M94.5747 14.1334C93.6971 14.5715 92.6304 14.2152 92.1923 13.3375C91.7542 12.4599 92.1106 11.3932 92.9882 10.9551C93.8659 10.517 94.9325 10.8734 95.3706 11.751C95.8087 12.6287 95.4524 13.6953 94.5747 14.1334Z" fill="url(#paint27_radial_938_25735)"/>
</g>
<g id="Group_11">
<path id="Vector_29" d="M39.1935 13.1501C38.3864 12.5926 38.184 11.4863 38.7415 10.6792C39.299 9.87206 40.4052 9.66967 41.2124 10.2272C42.0195 10.7846 42.2219 11.8909 41.6644 12.698C41.1069 13.5052 40.0007 13.7076 39.1935 13.1501Z" fill="url(#paint28_radial_938_25735)"/>
<path id="Vector_30" d="M42.8576 15.1203C42.0505 14.5628 41.8481 13.4566 42.4056 12.6494C42.963 11.8423 44.0693 11.6399 44.8764 12.1974C45.6836 12.7549 45.886 13.8611 45.3285 14.6682C44.771 15.4754 43.6647 15.6778 42.8576 15.1203Z" fill="url(#paint29_radial_938_25735)"/>
</g>
<g id="Group_12">
<path id="Vector_31" d="M10.2343 13.3493C9.38986 12.8501 9.11002 11.7609 9.60923 10.9164C10.1084 10.072 11.1977 9.79219 12.0421 10.2914C12.8865 10.7906 13.1664 11.8798 12.6671 12.7243C12.1679 13.5687 11.0787 13.8485 10.2343 13.3493Z" fill="url(#paint30_radial_938_25735)"/>
<path id="Vector_32" d="M14.028 15.0563C13.1836 14.5571 12.9037 13.4679 13.4029 12.6235C13.9021 11.7791 14.9914 11.4992 15.8358 11.9984C16.6802 12.4977 16.9601 13.5869 16.4608 14.4313C15.9616 15.2757 14.8724 15.5556 14.028 15.0563Z" fill="url(#paint31_radial_938_25735)"/>
</g>
<g id="Group_13">
<path id="Vector_33" d="M3.49204 13.5031C2.68843 14.0655 1.58099 13.8701 1.0185 13.0665C0.456016 12.2629 0.651484 11.1554 1.45509 10.5929C2.2587 10.0304 3.36614 10.2259 3.92863 11.0295C4.49112 11.8331 4.29565 12.9406 3.49204 13.5031Z" fill="url(#paint32_radial_938_25735)"/>
<path id="Vector_34" d="M6.6146 10.7545C5.81099 11.317 4.70355 11.1215 4.14106 10.3179C3.57857 9.51433 3.77404 8.40689 4.57765 7.8444C5.38126 7.28191 6.4887 7.47738 7.05119 8.28099C7.61368 9.0846 7.41821 10.192 6.6146 10.7545Z" fill="url(#paint33_radial_938_25735)"/>
</g>
</g>
<g id="Group_14">
<g id="Group_15">
<path id="Vector_35" d="M45.545 7.21538C45.3995 7.25355 45.2671 7.31121 45.1486 7.38435C44.9946 7.47941 44.9178 7.4168 44.9509 7.24754C45.0562 6.70878 44.8441 6.13454 44.3637 5.80214C43.8833 5.46969 43.2711 5.47364 42.8041 5.76213C42.6573 5.85276 42.5722 5.79385 42.6053 5.62459C42.7107 5.0858 42.4986 4.51155 42.0182 4.17911C41.5378 3.84665 40.9256 3.85061 40.4585 4.13913C40.3118 4.22974 40.2262 4.18 40.2609 4.00239C40.2876 3.86577 40.2948 3.72146 40.2793 3.57194C40.2159 2.96193 39.7454 2.44982 39.1438 2.33086C38.2921 2.16247 37.5085 2.77264 37.4397 3.61266C37.3927 4.18654 37.6927 4.70785 38.1641 4.97193C38.3212 5.05995 38.3283 5.16829 38.1652 5.22425C37.6459 5.40241 37.2547 5.87318 37.207 6.45544C37.1593 7.03769 37.4688 7.56585 37.9521 7.82611C38.104 7.90787 38.0955 8.01109 37.9324 8.06706C37.4131 8.24522 37.0219 8.716 36.9742 9.29824C36.9265 9.88052 37.236 10.4087 37.7194 10.6689C37.8712 10.7507 37.8709 10.8498 37.6997 10.9085C37.5679 10.9538 37.4392 11.0197 37.3173 11.1081C36.8209 11.4682 36.6129 12.1317 36.8108 12.7121C37.091 13.5337 38.011 13.907 38.7728 13.5465C39.2673 13.3126 39.5644 12.8311 39.587 12.3202C39.5953 12.1327 39.7363 12.066 39.8865 12.1785C40.2958 12.485 40.8566 12.5607 41.3511 12.3267C41.8456 12.0927 42.1427 11.6112 42.1653 11.1003C42.1736 10.9128 42.3146 10.8461 42.4648 10.9586C42.8741 11.2652 43.4349 11.3408 43.9294 11.1069C44.4239 10.8729 44.7211 10.3914 44.7436 9.88049C44.7519 9.69301 44.8929 9.62628 45.0431 9.73875C45.4524 10.0453 46.0132 10.121 46.5077 9.88701C47.2696 9.52654 47.5644 8.57821 47.1066 7.84052C46.7832 7.31946 46.1382 7.05975 45.545 7.21538Z" fill="url(#paint34_radial_938_25735)"/>
<path id="Vector_36" d="M37.5532 10.9683C38.2652 10.6314 39.1154 10.9355 39.4523 11.6475C39.7891 12.3595 39.485 13.2097 38.773 13.5466C38.0611 13.8834 37.2108 13.5793 36.874 12.8673C36.5371 12.1554 36.8412 11.3051 37.5532 10.9683Z" fill="url(#paint35_radial_938_25735)"/>
<path id="Vector_37" d="M40.1316 9.74855C40.8435 9.4117 41.6938 9.7158 42.0306 10.4278C42.3675 11.1397 42.0634 11.99 41.3514 12.3268C40.6394 12.6637 39.7892 12.3596 39.4523 11.6476C39.1155 10.9356 39.4196 10.0854 40.1316 9.74855Z" fill="url(#paint36_radial_938_25735)"/>
<path id="Vector_38" d="M45.288 7.30885C46 6.972 46.8503 7.2761 47.1871 7.98807C47.524 8.70005 47.2199 9.55029 46.5079 9.88715C45.7959 10.224 44.9457 9.9199 44.6088 9.20792C44.272 8.49595 44.5761 7.64571 45.288 7.30885Z" fill="url(#paint37_radial_938_25735)"/>
<path id="Vector_39" d="M42.7097 8.52858C43.4217 8.19173 44.2719 8.49583 44.6087 9.2078C44.9456 9.91978 44.6415 10.77 43.9295 11.1069C43.2176 11.4437 42.3673 11.1396 42.0305 10.4277C41.6936 9.71568 41.9977 8.86543 42.7097 8.52858Z" fill="url(#paint38_radial_938_25735)"/>
<path id="Vector_40" d="M37.7858 8.1255C38.4978 7.78865 39.3481 8.09275 39.6849 8.80472C40.0218 9.5167 39.7177 10.3669 39.0057 10.7038C38.2937 11.0406 37.4435 10.7366 37.1066 10.0246C36.7698 9.3126 37.0739 8.46236 37.7858 8.1255Z" fill="url(#paint39_radial_938_25735)"/>
<path id="Vector_41" d="M38.2514 2.43996C38.9634 2.1031 39.8136 2.4072 40.1505 3.11918C40.4873 3.83115 40.1833 4.6814 39.4713 5.01825C38.7593 5.3551 37.9091 5.051 37.5722 4.33903C37.2354 3.62705 37.5394 2.77681 38.2514 2.43996Z" fill="url(#paint40_radial_938_25735)"/>
<path id="Vector_42" d="M38.0188 5.28273C38.7307 4.94588 39.581 5.24998 39.9178 5.96195C40.2547 6.67393 39.9506 7.52417 39.2386 7.86102C38.5266 8.19787 37.6764 7.89378 37.3395 7.1818C37.0027 6.46983 37.3068 5.61958 38.0188 5.28273Z" fill="url(#paint41_radial_938_25735)"/>
<path id="Vector_43" d="M40.3645 6.90553C41.0764 6.56868 41.9267 6.87278 42.2635 7.58475C42.6004 8.29673 42.2963 9.14697 41.5843 9.48382C40.8723 9.82068 40.0221 9.51658 39.6852 8.8046C39.3484 8.09263 39.6525 7.24239 40.3645 6.90553Z" fill="url(#paint42_radial_938_25735)"/>
<path id="Vector_44" d="M40.5969 4.06276C41.3089 3.72591 42.1591 4.03 42.496 4.74198C42.8328 5.45396 42.5287 6.3042 41.8167 6.64105C41.1048 6.9779 40.2545 6.67381 39.9177 5.96183C39.5808 5.24985 39.8849 4.39961 40.5969 4.06276Z" fill="url(#paint43_radial_938_25735)"/>
<path id="Vector_45" d="M42.9426 5.68581C43.6546 5.34895 44.5048 5.65305 44.8417 6.36503C45.1785 7.077 44.8744 7.92725 44.1624 8.2641C43.4505 8.60095 42.6002 8.29685 42.2634 7.58488C41.9265 6.8729 42.2306 6.02266 42.9426 5.68581Z" fill="url(#paint44_radial_938_25735)"/>
</g>
<g id="Group_16">
<path id="Vector_46" d="M90.4009 3.88588C90.3522 4.02809 90.3268 4.17031 90.3221 4.30944C90.316 4.49027 90.2213 4.51955 90.0987 4.39828C89.7085 4.01223 89.113 3.8708 88.5702 4.08668C88.0274 4.30255 87.6917 4.8144 87.6732 5.36301C87.6674 5.53534 87.5713 5.57357 87.4487 5.4523C87.0584 5.06623 86.4629 4.92477 85.9201 5.14064C85.3773 5.35654 85.0416 5.86841 85.0231 6.41704C85.0173 6.58935 84.9285 6.63303 84.7999 6.50582C84.7009 6.40794 84.5848 6.32199 84.4517 6.25213C83.9087 5.96712 83.2219 6.0752 82.7897 6.51021C82.1778 7.12605 82.2519 8.11626 82.9132 8.6387C83.3649 8.99562 83.965 9.03459 84.4459 8.78835C84.6062 8.70627 84.7003 8.76042 84.6566 8.9272C84.5174 9.45814 84.6926 10.0446 85.151 10.4067C85.6093 10.7688 86.2204 10.8037 86.7047 10.5454C86.8569 10.4642 86.9381 10.5284 86.8944 10.6952C86.7552 11.2262 86.9305 11.8126 87.3888 12.1747C87.8472 12.5369 88.4583 12.5717 88.9426 12.3134C89.0947 12.2323 89.177 12.2874 89.1312 12.4624C89.0959 12.5972 89.0795 12.7409 89.0856 12.8913C89.1105 13.504 89.5476 14.0446 90.1405 14.2012C90.9796 14.4229 91.7999 13.8637 91.9216 13.0299C92.0007 12.4886 91.7644 11.9746 91.3515 11.6729C91.2 11.5622 91.2226 11.4078 91.3994 11.3451C91.8813 11.1741 92.2548 10.7491 92.3338 10.2079C92.4129 9.6666 92.1765 9.15256 91.7637 8.85088C91.6122 8.74019 91.6348 8.58579 91.8116 8.52304C92.2935 8.35204 92.667 7.92708 92.7461 7.38583C92.8251 6.84458 92.5888 6.33055 92.1759 6.02886C92.0245 5.91815 92.047 5.76377 92.2238 5.70101C92.7057 5.53001 93.0792 5.10506 93.1583 4.56381C93.2801 3.7299 92.6538 2.95932 91.7861 2.93195C91.1732 2.91263 90.5998 3.30583 90.4009 3.88588Z" fill="url(#paint45_radial_938_25735)"/>
<path id="Vector_47" d="M89.0999 12.6177C89.2137 11.8384 89.9377 11.299 90.717 11.4128C91.4963 11.5266 92.0357 12.2506 91.9219 13.0299C91.8081 13.8092 91.0841 14.3486 90.3048 14.2348C89.5255 14.121 88.9861 13.397 89.0999 12.6177Z" fill="url(#paint46_radial_938_25735)"/>
<path id="Vector_48" d="M89.512 9.79569C89.6258 9.01641 90.3498 8.47695 91.1291 8.59078C91.9084 8.7046 92.4478 9.4286 92.334 10.2079C92.2202 10.9872 91.4962 11.5266 90.7169 11.4128C89.9376 11.299 89.3982 10.575 89.512 9.79569Z" fill="url(#paint47_radial_938_25735)"/>
<path id="Vector_49" d="M90.3365 4.15165C90.4503 3.37237 91.1743 2.83291 91.9536 2.94673C92.7329 3.06056 93.2723 3.78456 93.1585 4.56384C93.0447 5.34312 92.3207 5.88258 91.5414 5.76876C90.7621 5.65493 90.2226 4.93093 90.3365 4.15165Z" fill="url(#paint48_radial_938_25735)"/>
<path id="Vector_50" d="M89.9241 6.97367C90.0379 6.19439 90.7619 5.65493 91.5412 5.76876C92.3205 5.88258 92.86 6.60658 92.7461 7.38586C92.6323 8.16514 91.9083 8.7046 91.129 8.59078C90.3497 8.47696 89.8103 7.75295 89.9241 6.97367Z" fill="url(#paint49_radial_938_25735)"/>
<path id="Vector_51" d="M86.8619 10.8496C86.9757 10.0704 87.6997 9.53091 88.479 9.64473C89.2582 9.75856 89.7977 10.4826 89.6839 11.2618C89.5701 12.0411 88.8461 12.5806 88.0668 12.4668C87.2875 12.3529 86.748 11.6289 86.8619 10.8496Z" fill="url(#paint50_radial_938_25735)"/>
<path id="Vector_52" d="M82.3863 7.31351C82.5001 6.53423 83.2241 5.99478 84.0034 6.1086C84.7827 6.22242 85.3221 6.94643 85.2083 7.72571C85.0945 8.50499 84.3705 9.04445 83.5912 8.93062C82.8119 8.8168 82.2724 8.0928 82.3863 7.31351Z" fill="url(#paint51_radial_938_25735)"/>
<path id="Vector_53" d="M84.6241 9.08158C84.7379 8.3023 85.4619 7.76284 86.2412 7.87667C87.0205 7.99049 87.5599 8.71449 87.4461 9.49377C87.3323 10.2731 86.6083 10.8125 85.829 10.6987C85.0497 10.5849 84.5102 9.86086 84.6241 9.08158Z" fill="url(#paint52_radial_938_25735)"/>
<path id="Vector_54" d="M87.2742 8.02738C87.388 7.2481 88.112 6.70864 88.8913 6.82247C89.6706 6.93629 90.2101 7.66029 90.0962 8.43957C89.9824 9.21885 89.2584 9.75831 88.4791 9.64449C87.6998 9.53067 87.1604 8.80666 87.2742 8.02738Z" fill="url(#paint53_radial_938_25735)"/>
<path id="Vector_55" d="M85.0362 6.25956C85.15 5.48028 85.874 4.94082 86.6533 5.05464C87.4326 5.16847 87.972 5.89247 87.8582 6.67175C87.7444 7.45103 87.0204 7.99049 86.2411 7.87667C85.4618 7.76284 84.9223 7.03884 85.0362 6.25956Z" fill="url(#paint54_radial_938_25735)"/>
<path id="Vector_56" d="M87.6863 5.2056C87.8001 4.42632 88.5241 3.88687 89.3034 4.00069C90.0827 4.11451 90.6222 4.83852 90.5083 5.6178C90.3945 6.39708 89.6705 6.93654 88.8912 6.82271C88.112 6.70889 87.5725 5.98489 87.6863 5.2056Z" fill="url(#paint55_radial_938_25735)"/>
</g>
<g id="Group_17">
<path id="Vector_57" d="M113.325 9.54508C113.174 9.54395 113.032 9.56501 112.898 9.60467C112.725 9.65622 112.667 9.57571 112.743 9.42095C112.985 8.92836 112.931 8.3186 112.554 7.87222C112.177 7.42579 111.585 7.2697 111.058 7.42621C110.893 7.47538 110.826 7.39628 110.902 7.24152C111.145 6.7489 111.09 6.13913 110.713 5.69271C110.336 5.24626 109.744 5.09018 109.218 5.24671C109.053 5.29587 108.983 5.22551 109.063 5.0631C109.124 4.93817 109.169 4.80076 109.193 4.65235C109.291 4.04689 108.971 3.42962 108.421 3.15763C107.643 2.7726 106.727 3.15699 106.441 3.94998C106.246 4.49172 106.399 5.07333 106.785 5.4514C106.914 5.57743 106.893 5.68385 106.721 5.69527C106.173 5.73164 105.672 6.08393 105.474 6.63358C105.276 7.18322 105.437 7.77394 105.835 8.15144C105.96 8.27003 105.925 8.36747 105.753 8.3789C105.205 8.41527 104.705 8.76756 104.507 9.3172C104.309 9.86687 104.469 10.4576 104.868 10.8351C104.993 10.9537 104.967 11.0492 104.786 11.0612C104.647 11.0705 104.506 11.1006 104.365 11.1541C103.792 11.372 103.418 11.9582 103.457 12.5702C103.513 13.4365 104.304 14.0372 105.133 13.8883C105.672 13.7916 106.084 13.4043 106.24 12.917C106.297 12.7382 106.45 12.7106 106.566 12.8584C106.881 13.2613 107.403 13.4808 107.941 13.3841C108.48 13.2874 108.892 12.9001 109.047 12.4128C109.104 12.234 109.258 12.2064 109.374 12.3543C109.689 12.7571 110.21 12.9766 110.749 12.8799C111.287 12.7832 111.7 12.396 111.855 11.9086C111.912 11.7298 112.066 11.7022 112.181 11.85C112.496 12.2529 113.018 12.4724 113.556 12.3757C114.386 12.2267 114.918 11.3882 114.669 10.5565C114.493 9.96899 113.938 9.54978 113.325 9.54508Z" fill="url(#paint56_radial_938_25735)"/>
<path id="Vector_58" d="M104.629 11.0806C105.405 10.9414 106.146 11.457 106.285 12.2323C106.425 13.0077 105.909 13.7491 105.134 13.8883C104.358 14.0275 103.617 13.5119 103.478 12.7365C103.338 11.9612 103.854 11.2198 104.629 11.0806Z" fill="url(#paint57_radial_938_25735)"/>
<path id="Vector_59" d="M107.437 10.5765C108.212 10.4372 108.954 10.9529 109.093 11.7282C109.232 12.5035 108.717 13.2449 107.941 13.3841C107.166 13.5234 106.424 13.0077 106.285 12.2324C106.146 11.4571 106.662 10.7157 107.437 10.5765Z" fill="url(#paint58_radial_938_25735)"/>
<path id="Vector_60" d="M113.052 9.56815C113.828 9.42892 114.569 9.94458 114.708 10.7199C114.848 11.4952 114.332 12.2366 113.557 12.3758C112.781 12.5151 112.04 11.9994 111.901 11.2241C111.762 10.4488 112.277 9.70738 113.052 9.56815Z" fill="url(#paint59_radial_938_25735)"/>
<path id="Vector_61" d="M110.245 10.0723C111.02 9.93307 111.762 10.4487 111.901 11.224C112.04 11.9994 111.524 12.7408 110.749 12.88C109.974 13.0192 109.232 12.5036 109.093 11.7282C108.954 10.9529 109.47 10.2115 110.245 10.0723Z" fill="url(#paint60_radial_938_25735)"/>
<path id="Vector_62" d="M105.597 8.39701C106.372 8.25778 107.113 8.77343 107.253 9.54876C107.392 10.3241 106.876 11.0655 106.101 11.2047C105.326 11.3439 104.584 10.8283 104.445 10.0529C104.306 9.27762 104.821 8.53623 105.597 8.39701Z" fill="url(#paint61_radial_938_25735)"/>
<path id="Vector_63" d="M107.531 3.02982C108.307 2.89059 109.048 3.40625 109.187 4.18157C109.326 4.95689 108.811 5.69828 108.035 5.83751C107.26 5.97673 106.519 5.46108 106.379 4.68576C106.24 3.91044 106.756 3.16905 107.531 3.02982Z" fill="url(#paint62_radial_938_25735)"/>
<path id="Vector_64" d="M106.564 5.71341C107.339 5.57419 108.081 6.08984 108.22 6.86516C108.359 7.64048 107.843 8.38187 107.068 8.5211C106.293 8.66033 105.551 8.14467 105.412 7.36935C105.273 6.59403 105.789 5.85264 106.564 5.71341Z" fill="url(#paint63_radial_938_25735)"/>
<path id="Vector_65" d="M108.405 7.89286C109.18 7.75363 109.921 8.26928 110.06 9.0446C110.2 9.81993 109.684 10.5613 108.909 10.7005C108.133 10.8398 107.392 10.3241 107.253 9.54879C107.114 8.77347 107.629 8.03208 108.405 7.89286Z" fill="url(#paint64_radial_938_25735)"/>
<path id="Vector_66" d="M109.372 5.20902C110.147 5.06979 110.888 5.58545 111.028 6.36077C111.167 7.13609 110.651 7.87748 109.876 8.0167C109.1 8.15593 108.359 7.64028 108.22 6.86496C108.081 6.08963 108.596 5.34825 109.372 5.20902Z" fill="url(#paint65_radial_938_25735)"/>
<path id="Vector_67" d="M111.212 7.38871C111.987 7.24948 112.729 7.76513 112.868 8.54045C113.007 9.31578 112.492 10.0572 111.716 10.1964C110.941 10.3356 110.2 9.81996 110.06 9.04464C109.921 8.26932 110.437 7.52793 111.212 7.38871Z" fill="url(#paint66_radial_938_25735)"/>
</g>
<g id="Group_18">
<path id="Vector_68" d="M133.537 13.1144C133.415 13.0259 133.287 12.9597 133.155 12.9142C132.984 12.855 132.984 12.7559 133.136 12.6746C133.62 12.4156 133.931 11.8883 133.885 11.3061C133.839 10.7238 133.448 10.2522 132.93 10.0728C132.767 10.0164 132.759 9.91328 132.911 9.83191C133.395 9.57291 133.705 9.04564 133.659 8.46338C133.613 7.88109 133.223 7.40943 132.704 7.23005C132.541 7.17371 132.526 7.076 132.685 6.99057C132.808 6.92487 132.924 6.83927 133.03 6.7327C133.462 6.29797 133.562 5.60985 133.273 5.06867C132.865 4.30252 131.898 4.08138 131.203 4.55913C130.729 4.88551 130.515 5.44738 130.609 5.97945C130.64 6.15681 130.56 6.23073 130.414 6.13978C129.948 5.85024 129.336 5.8448 128.855 6.17595C128.373 6.50709 128.16 7.08067 128.264 7.61956C128.297 7.78886 128.211 7.84757 128.065 7.75661C127.599 7.46706 126.987 7.46162 126.506 7.79277C126.024 8.12394 125.811 8.69752 125.915 9.23642C125.948 9.40568 125.871 9.46808 125.717 9.37267C125.599 9.29918 125.466 9.24115 125.321 9.20267C124.728 9.04581 124.083 9.30407 123.758 9.82431C123.299 10.5607 123.591 11.5093 124.352 11.8714C124.846 12.1065 125.407 12.0323 125.817 11.7268C125.967 11.6147 126.108 11.6818 126.116 11.8692C126.137 12.38 126.433 12.8622 126.927 13.0973C127.421 13.3324 127.981 13.2581 128.391 12.9526C128.542 12.8405 128.683 12.9076 128.69 13.0951C128.712 13.6059 129.008 14.088 129.501 14.3231C129.995 14.5582 130.556 14.484 130.966 14.1785C131.117 14.0664 131.257 14.1334 131.265 14.3209C131.286 14.8317 131.582 15.3138 132.076 15.5489C132.837 15.9112 133.758 15.54 134.04 14.7191C134.239 14.1392 134.032 13.4754 133.537 13.1144Z" fill="url(#paint67_radial_938_25735)"/>
<path id="Vector_69" d="M125.578 9.29699C126.289 9.63549 126.591 10.4863 126.252 11.1973C125.914 11.9082 125.063 12.2102 124.352 11.8717C123.641 11.5332 123.339 10.6824 123.678 9.97143C124.016 9.26045 124.867 8.95849 125.578 9.29699Z" fill="url(#paint68_radial_938_25735)"/>
<path id="Vector_70" d="M128.153 10.5228C128.864 10.8613 129.166 11.7121 128.827 12.4231C128.489 13.1341 127.638 13.436 126.927 13.0975C126.216 12.759 125.914 11.9083 126.252 11.1973C126.591 10.4863 127.442 10.1843 128.153 10.5228Z" fill="url(#paint69_radial_938_25735)"/>
<path id="Vector_71" d="M133.302 12.9745C134.013 13.313 134.315 14.1638 133.976 14.8747C133.638 15.5857 132.787 15.8877 132.076 15.5492C131.365 15.2107 131.063 14.3599 131.402 13.6489C131.74 12.9379 132.591 12.636 133.302 12.9745Z" fill="url(#paint70_radial_938_25735)"/>
<path id="Vector_72" d="M130.727 11.7487C131.438 12.0872 131.74 12.9379 131.402 13.6489C131.063 14.3599 130.212 14.6619 129.501 14.3234C128.79 13.9849 128.489 13.1341 128.827 12.4231C129.166 11.7121 130.016 11.4102 130.727 11.7487Z" fill="url(#paint71_radial_938_25735)"/>
<path id="Vector_73" d="M127.927 7.68005C128.638 8.01855 128.94 8.86933 128.601 9.58032C128.263 10.2913 127.412 10.5933 126.701 10.2548C125.99 9.91626 125.688 9.06548 126.027 8.35449C126.365 7.64351 127.216 7.34155 127.927 7.68005Z" fill="url(#paint72_radial_938_25735)"/>
<path id="Vector_74" d="M132.625 4.44641C133.336 4.78491 133.638 5.63569 133.299 6.34667C132.961 7.05766 132.11 7.35962 131.399 7.02112C130.688 6.68261 130.386 5.83184 130.724 5.12085C131.063 4.40986 131.914 4.10791 132.625 4.44641Z" fill="url(#paint73_radial_938_25735)"/>
<path id="Vector_75" d="M130.276 6.06335C130.987 6.40185 131.289 7.25263 130.95 7.96362C130.612 8.6746 129.761 8.97656 129.05 8.63806C128.339 8.29956 128.037 7.44878 128.376 6.73779C128.714 6.02681 129.565 5.72485 130.276 6.06335Z" fill="url(#paint74_radial_938_25735)"/>
<path id="Vector_76" d="M130.502 8.90588C131.213 9.24438 131.515 10.0952 131.176 10.8061C130.838 11.5171 129.987 11.8191 129.276 11.4806C128.565 11.1421 128.263 10.2913 128.601 9.58032C128.94 8.86934 129.791 8.56738 130.502 8.90588Z" fill="url(#paint75_radial_938_25735)"/>
<path id="Vector_77" d="M132.851 7.28894C133.562 7.62744 133.864 8.47822 133.525 9.1892C133.187 9.90019 132.336 10.2021 131.625 9.86364C130.914 9.52514 130.612 8.67436 130.95 7.96338C131.289 7.25239 132.14 6.95043 132.851 7.28894Z" fill="url(#paint76_radial_938_25735)"/>
<path id="Vector_78" d="M133.076 10.1317C133.787 10.4702 134.089 11.321 133.751 12.032C133.412 12.743 132.562 13.0449 131.851 12.7064C131.14 12.3679 130.838 11.5171 131.176 10.8062C131.515 10.0952 132.365 9.79321 133.076 10.1317Z" fill="url(#paint77_radial_938_25735)"/>
</g>
<g id="Group_19">
<path id="Vector_79" d="M67.043 9.83388C66.9317 9.93495 66.8409 10.0473 66.7696 10.1669C66.677 10.3224 66.5799 10.3024 66.531 10.137C66.3754 9.61048 65.9219 9.19922 65.3422 9.12646C64.7624 9.05367 64.2213 9.34014 63.9404 9.81189C63.8522 9.96008 63.7495 9.94718 63.7006 9.78177C63.545 9.25522 63.0915 8.84393 62.5117 8.77115C61.932 8.69837 61.3908 8.98485 61.1099 9.45664C61.0217 9.60481 60.9228 9.60024 60.8715 9.4267C60.832 9.29319 60.7717 9.16185 60.6888 9.03642C60.3506 8.52471 59.6967 8.28798 59.1081 8.46056C58.2749 8.7049 57.862 9.60823 58.1893 10.385C58.4128 10.9157 58.9198 11.2394 59.46 11.2558C59.64 11.2612 59.6964 11.354 59.5776 11.4791C59.1994 11.8771 59.07 12.4754 59.2968 13.0139C59.5237 13.5523 60.0423 13.8777 60.5912 13.8851C60.7637 13.8874 60.8039 13.9829 60.6851 14.1079C60.307 14.5059 60.1775 15.1043 60.4044 15.6428C60.6313 16.1812 61.1499 16.5066 61.6988 16.514C61.8713 16.5163 61.9168 16.6043 61.7922 16.7355C61.6962 16.8366 61.6125 16.9546 61.5453 17.0893C61.2715 17.6381 61.3936 18.3227 61.8374 18.746C62.4657 19.3452 63.4542 19.251 63.9632 18.5792C64.2936 18.1432 64.3346 17.5788 64.1185 17.1152C64.0392 16.9451 64.1334 16.8207 64.3186 16.8511C64.8233 16.9338 65.3556 16.7417 65.6861 16.3056C66.0165 15.8695 66.0575 15.3051 65.8413 14.8416C65.762 14.6715 65.8563 14.5471 66.0415 14.5775C66.5462 14.6602 67.0785 14.468 67.4089 14.032C67.7394 13.5959 67.7803 13.0315 67.5642 12.568C67.4849 12.3979 67.5791 12.2735 67.7643 12.3038C68.269 12.3865 68.8013 12.1944 69.1318 11.7583C69.6409 11.0865 69.464 10.1091 68.717 9.66649C68.1893 9.35384 67.4972 9.42166 67.043 9.83388Z" fill="url(#paint78_radial_938_25735)"/>
<path id="Vector_80" d="M61.6896 16.8562C62.1654 16.2283 63.06 16.105 63.6878 16.5808C64.3157 17.0565 64.439 17.9512 63.9632 18.579C63.4875 19.2069 62.5928 19.3301 61.965 18.8544C61.3371 18.3786 61.2139 17.484 61.6896 16.8562Z" fill="url(#paint79_radial_938_25735)"/>
<path id="Vector_81" d="M63.4125 14.5827C63.8883 13.9549 64.7829 13.8316 65.4107 14.3073C66.0386 14.7831 66.1619 15.6777 65.6861 16.3056C65.2104 16.9334 64.3157 17.0567 63.6879 16.581C63.06 16.1052 62.9368 15.2106 63.4125 14.5827Z" fill="url(#paint80_radial_938_25735)"/>
<path id="Vector_82" d="M66.8583 10.0354C67.3341 9.40752 68.2287 9.28422 68.8565 9.75997C69.4844 10.2357 69.6077 11.1304 69.1319 11.7582C68.6562 12.3861 67.7615 12.5093 67.1337 12.0336C66.5058 11.5578 66.3826 10.6632 66.8583 10.0354Z" fill="url(#paint81_radial_938_25735)"/>
<path id="Vector_83" d="M65.1354 12.309C65.6112 11.6812 66.5058 11.5579 67.1336 12.0337C67.7615 12.5094 67.8848 13.404 67.409 14.0319C66.9333 14.6597 66.0386 14.783 65.4108 14.3073C64.7829 13.8315 64.6597 12.9369 65.1354 12.309Z" fill="url(#paint82_radial_938_25735)"/>
<path id="Vector_84" d="M60.5822 14.2275C61.0579 13.5997 61.9526 13.4764 62.5804 13.9521C63.2083 14.4279 63.3316 15.3225 62.8558 15.9503C62.3801 16.5782 61.4854 16.7015 60.8576 16.2257C60.2297 15.75 60.1064 14.8553 60.5822 14.2275Z" fill="url(#paint83_radial_938_25735)"/>
<path id="Vector_85" d="M58.3671 8.96969C58.8428 8.34184 59.7375 8.21855 60.3653 8.6943C60.9932 9.17005 61.1165 10.0647 60.6407 10.6925C60.165 11.3204 59.2703 11.4437 58.6425 10.9679C58.0146 10.4922 57.8913 9.59753 58.3671 8.96969Z" fill="url(#paint84_radial_938_25735)"/>
<path id="Vector_86" d="M59.4745 11.5986C59.9503 10.9707 60.8449 10.8475 61.4727 11.3232C62.1006 11.799 62.2239 12.6936 61.7481 13.3214C61.2724 13.9493 60.3777 14.0726 59.7499 13.5968C59.1221 13.1211 58.9988 12.2264 59.4745 11.5986Z" fill="url(#paint85_radial_938_25735)"/>
<path id="Vector_87" d="M62.3051 11.9536C62.7808 11.3257 63.6755 11.2024 64.3033 11.6782C64.9312 12.1539 65.0545 13.0486 64.5787 13.6764C64.103 14.3043 63.2083 14.4276 62.5805 13.9518C61.9526 13.4761 61.8293 12.5814 62.3051 11.9536Z" fill="url(#paint86_radial_938_25735)"/>
<path id="Vector_88" d="M61.1974 9.32491C61.6732 8.69707 62.5678 8.57377 63.1956 9.04952C63.8235 9.52527 63.9468 10.4199 63.471 11.0478C62.9953 11.6756 62.1007 11.7989 61.4728 11.3231C60.845 10.8474 60.7217 9.95276 61.1974 9.32491Z" fill="url(#paint87_radial_938_25735)"/>
<path id="Vector_89" d="M64.0277 9.68014C64.5035 9.05229 65.3981 8.92899 66.026 9.40474C66.6538 9.88049 66.7771 10.7751 66.3014 11.403C65.8256 12.0308 64.931 12.1541 64.3031 11.6784C63.6753 11.2026 63.552 10.308 64.0277 9.68014Z" fill="url(#paint88_radial_938_25735)"/>
</g>
<g id="Group_20">
<path id="Vector_90" d="M12.7375 13.1171C12.7146 12.9685 12.6711 12.8308 12.6107 12.7054C12.5321 12.5424 12.6024 12.4725 12.7673 12.523C13.292 12.6837 13.8851 12.5325 14.2656 12.0894C14.6461 11.6462 14.7058 11.037 14.4674 10.5426C14.3926 10.3873 14.46 10.3088 14.6249 10.3593C15.1497 10.52 15.7427 10.3688 16.1232 9.92566C16.5038 9.48246 16.5635 8.87328 16.3251 8.37884C16.2502 8.22354 16.3086 8.14364 16.4816 8.19656C16.6147 8.2373 16.7574 8.25952 16.9077 8.2596C17.5209 8.25994 18.079 7.84535 18.2598 7.25946C18.5158 6.43 17.9905 5.58746 17.1623 5.43175C16.5966 5.32538 16.047 5.56946 15.7354 6.01079C15.6316 6.1579 15.5231 6.15362 15.4844 5.98562C15.3612 5.45078 14.9337 5.01279 14.3597 4.90486C13.7857 4.79694 13.2283 5.04978 12.9193 5.50337C12.8222 5.64587 12.7204 5.62674 12.6817 5.45872C12.5585 4.92387 12.1311 4.48586 11.557 4.37796C10.983 4.27004 10.4256 4.52288 10.1166 4.97649C10.0195 5.11896 9.92103 5.10835 9.8804 4.93208C9.84909 4.79629 9.79688 4.6614 9.72166 4.53107C9.4152 4.00003 8.77707 3.72417 8.17933 3.86069C7.33325 4.05392 6.86643 4.92998 7.14565 5.72494C7.32691 6.24098 7.77484 6.5865 8.28052 6.66202C8.46608 6.68974 8.51778 6.83693 8.39031 6.9746C8.04293 7.34975 7.90945 7.89949 8.0907 8.41554C8.27197 8.93161 8.71993 9.27712 9.22561 9.35264C9.41116 9.38033 9.46282 9.52756 9.33535 9.66523C8.98797 10.0404 8.85449 10.5901 9.03574 11.1062C9.217 11.6222 9.66494 11.9677 10.1706 12.0433C10.3562 12.071 10.4079 12.2182 10.2804 12.3558C9.93305 12.731 9.79954 13.2807 9.9808 13.7968C10.2601 14.5918 11.1724 14.9835 11.9536 14.605C12.5053 14.3376 12.8306 13.7231 12.7375 13.1171Z" fill="url(#paint89_radial_938_25735)"/>
<path id="Vector_91" d="M9.83622 4.78013C10.0972 5.52312 9.70644 6.33699 8.96345 6.59795C8.22046 6.85892 7.40659 6.46817 7.14562 5.72518C6.88465 4.98219 7.27541 4.16832 8.0184 3.90736C8.76138 3.64639 9.57525 4.03714 9.83622 4.78013Z" fill="url(#paint90_radial_938_25735)"/>
<path id="Vector_92" d="M10.7813 7.4708C11.0423 8.21379 10.6515 9.02766 9.90852 9.28863C9.16553 9.5496 8.35166 9.15885 8.09069 8.41586C7.82972 7.67287 8.22048 6.859 8.96346 6.59803C9.70645 6.33706 10.5203 6.72781 10.7813 7.4708Z" fill="url(#paint91_radial_938_25735)"/>
<path id="Vector_93" d="M12.6714 12.8519C12.9324 13.5949 12.5416 14.4088 11.7987 14.6697C11.0557 14.9307 10.2418 14.5399 9.98083 13.797C9.71986 13.054 10.1106 12.2401 10.8536 11.9791C11.5966 11.7182 12.4105 12.1089 12.6714 12.8519Z" fill="url(#paint92_radial_938_25735)"/>
<path id="Vector_94" d="M11.7264 10.1612C11.9873 10.9042 11.5966 11.7181 10.8536 11.9791C10.1106 12.24 9.29673 11.8493 9.03576 11.1063C8.77479 10.3633 9.16554 9.54943 9.90853 9.28846C10.6515 9.02749 11.4654 9.41824 11.7264 10.1612Z" fill="url(#paint93_radial_938_25735)"/>
<path id="Vector_95" d="M12.639 5.30698C12.8999 6.04997 12.5092 6.86384 11.7662 7.12481C11.0232 7.38578 10.2093 6.99503 9.94836 6.25204C9.68739 5.50905 10.0781 4.69518 10.8211 4.43421C11.5641 4.17324 12.378 4.56399 12.639 5.30698Z" fill="url(#paint94_radial_938_25735)"/>
<path id="Vector_96" d="M18.2442 6.36069C18.5052 7.10368 18.1144 7.91755 17.3714 8.17852C16.6284 8.43949 15.8146 8.04874 15.5536 7.30575C15.2926 6.56276 15.6834 5.74889 16.4264 5.48792C17.1693 5.22695 17.9832 5.61771 18.2442 6.36069Z" fill="url(#paint95_radial_938_25735)"/>
<path id="Vector_97" d="M15.4414 5.83384C15.7024 6.57683 15.3117 7.3907 14.5687 7.65167C13.8257 7.91264 13.0118 7.52188 12.7508 6.77889C12.4899 6.0359 12.8806 5.22204 13.6236 4.96107C14.3666 4.7001 15.1805 5.09085 15.4414 5.83384Z" fill="url(#paint96_radial_938_25735)"/>
<path id="Vector_98" d="M13.584 7.99766C13.845 8.74065 13.4542 9.55451 12.7113 9.81548C11.9683 10.0765 11.1544 9.6857 10.8934 8.94271C10.6325 8.19972 11.0232 7.38585 11.7662 7.12488C12.5092 6.86391 13.3231 7.25467 13.584 7.99766Z" fill="url(#paint97_radial_938_25735)"/>
<path id="Vector_99" d="M16.3868 8.52451C16.6477 9.2675 16.257 10.0814 15.514 10.3423C14.771 10.6033 13.9571 10.2126 13.6962 9.46957C13.4352 8.72658 13.8259 7.91271 14.5689 7.65174C15.3119 7.39077 16.1258 7.78152 16.3868 8.52451Z" fill="url(#paint98_radial_938_25735)"/>
<path id="Vector_100" d="M14.5291 10.6881C14.7901 11.4311 14.3993 12.2449 13.6563 12.5059C12.9133 12.7669 12.0995 12.3761 11.8385 11.6331C11.5775 10.8902 11.9683 10.0763 12.7113 9.81531C13.4543 9.55434 14.2681 9.9451 14.5291 10.6881Z" fill="url(#paint99_radial_938_25735)"/>
</g>
</g>
</g>
<defs>
<radialGradient id="paint0_radial_938_25735" cx="0" cy="0" r="1" gradientUnits="userSpaceOnUse" gradientTransform="translate(66.4052 8.19442) scale(1.3466)">
<stop stop-color="#A8A144"/>
<stop offset="1" stop-color="#FFFB7B"/>
</radialGradient>
<radialGradient id="paint1_radial_938_25735" cx="0" cy="0" r="1" gradientUnits="userSpaceOnUse" gradientTransform="translate(96.4052 8.19442) scale(1.3466)">
<stop stop-color="#A8A144"/>
<stop offset="1" stop-color="#FFFB7B"/>
</radialGradient>
<radialGradient id="paint2_radial_938_25735" cx="0" cy="0" r="1" gradientUnits="userSpaceOnUse" gradientTransform="translate(121.405 9.19442) scale(1.3466)">
<stop stop-color="#A8A144"/>
<stop offset="1" stop-color="#FFFB7B"/>
</radialGradient>
<radialGradient id="paint3_radial_938_25735" cx="0" cy="0" r="1" gradientUnits="userSpaceOnUse" gradientTransform="translate(19.4052 9.19442) scale(1.3466)">
<stop stop-color="#A8A144"/>
<stop offset="1" stop-color="#FFFB7B"/>
</radialGradient>
<radialGradient id="paint4_radial_938_25735" cx="0" cy="0" r="1" gradientUnits="userSpaceOnUse" gradientTransform="translate(49.4052 9.19442) scale(1.3466)">
<stop stop-color="#A8A144"/>
<stop offset="1" stop-color="#FFFB7B"/>
</radialGradient>
<radialGradient id="paint5_radial_938_25735" cx="0" cy="0" r="1" gradientUnits="userSpaceOnUse" gradientTransform="translate(74.4052 10.1944) scale(1.3466)">
<stop stop-color="#A8A144"/>
<stop offset="1" stop-color="#FFFB7B"/>
</radialGradient>
<radialGradient id="paint6_radial_938_25735" cx="0" cy="0" r="1" gradientUnits="userSpaceOnUse" gradientTransform="translate(87.4051 13.1945) rotate(180) scale(1.3466)">
<stop stop-color="#A8A144"/>
<stop offset="1" stop-color="#FFFB7B"/>
</radialGradient>
<radialGradient id="paint7_radial_938_25735" cx="0" cy="0" r="1" gradientUnits="userSpaceOnUse" gradientTransform="translate(57.4051 13.1945) rotate(180) scale(1.3466)">
<stop stop-color="#A8A144"/>
<stop offset="1" stop-color="#FFFB7B"/>
</radialGradient>
<radialGradient id="paint8_radial_938_25735" cx="0" cy="0" r="1" gradientUnits="userSpaceOnUse" gradientTransform="translate(32.4051 12.1945) rotate(180) scale(1.3466)">
<stop stop-color="#A8A144"/>
<stop offset="1" stop-color="#FFFB7B"/>
</radialGradient>
<radialGradient id="paint9_radial_938_25735" cx="0" cy="0" r="1" gradientUnits="userSpaceOnUse" gradientTransform="translate(134.405 12.1945) rotate(180) scale(1.3466)">
<stop stop-color="#A8A144"/>
<stop offset="1" stop-color="#FFFB7B"/>
</radialGradient>
<radialGradient id="paint10_radial_938_25735" cx="0" cy="0" r="1" gradientUnits="userSpaceOnUse" gradientTransform="translate(102.405 12.1945) rotate(180) scale(1.3466)">
<stop stop-color="#A8A144"/>
<stop offset="1" stop-color="#FFFB7B"/>
</radialGradient>
<radialGradient id="paint11_radial_938_25735" cx="0" cy="0" r="1" gradientUnits="userSpaceOnUse" gradientTransform="translate(79.4051 11.1945) rotate(180) scale(1.3466)">
<stop stop-color="#A8A144"/>
<stop offset="1" stop-color="#FFFB7B"/>
</radialGradient>
<radialGradient id="paint12_radial_938_25735" cx="0" cy="0" r="1" gradientUnits="userSpaceOnUse" gradientTransform="translate(80.2877 7.96403) scale(1.7762)">
<stop stop-color="#F9601F"/>
<stop offset="1" stop-color="#FF9B71"/>
</radialGradient>
<radialGradient id="paint13_radial_938_25735" cx="0" cy="0" r="1" gradientUnits="userSpaceOnUse" gradientTransform="translate(76.1532 8.42522) scale(1.7762)">
<stop stop-color="#F9601F"/>
<stop offset="1" stop-color="#FF9B71"/>
</radialGradient>
<radialGradient id="paint14_radial_938_25735" cx="0" cy="0" r="1" gradientUnits="userSpaceOnUse" gradientTransform="translate(57.9071 10.4121) rotate(42.1912) scale(1.77618)">
<stop stop-color="#F9601F"/>
<stop offset="1" stop-color="#FF9B71"/>
</radialGradient>
<radialGradient id="paint15_radial_938_25735" cx="0" cy="0" r="1" gradientUnits="userSpaceOnUse" gradientTransform="translate(54.534 7.97701) rotate(42.1912) scale(1.77618)">
<stop stop-color="#F9601F"/>
<stop offset="1" stop-color="#FF9B71"/>
</radialGradient>
<radialGradient id="paint16_radial_938_25735" cx="0" cy="0" r="1" gradientUnits="userSpaceOnUse" gradientTransform="translate(29.9671 8.06509) rotate(-26.5266) scale(1.77615)">
<stop stop-color="#F9601F"/>
<stop offset="1" stop-color="#FF9B71"/>
</radialGradient>
<radialGradient id="paint17_radial_938_25735" cx="0" cy="0" r="1" gradientUnits="userSpaceOnUse" gradientTransform="translate(26.4739 10.3241) rotate(-26.5266) scale(1.77615)">
<stop stop-color="#F9601F"/>
<stop offset="1" stop-color="#FF9B71"/>
</radialGradient>
<radialGradient id="paint18_radial_938_25735" cx="0" cy="0" r="1" gradientUnits="userSpaceOnUse" gradientTransform="translate(101.967 8.06509) rotate(-26.5266) scale(1.77615)">
<stop stop-color="#F9601F"/>
<stop offset="1" stop-color="#FF9B71"/>
</radialGradient>
<radialGradient id="paint19_radial_938_25735" cx="0" cy="0" r="1" gradientUnits="userSpaceOnUse" gradientTransform="translate(98.4739 10.3241) rotate(-26.5266) scale(1.77615)">
<stop stop-color="#F9601F"/>
<stop offset="1" stop-color="#FF9B71"/>
</radialGradient>
<radialGradient id="paint20_radial_938_25735" cx="0" cy="0" r="1" gradientUnits="userSpaceOnUse" gradientTransform="translate(119.117 11.0481) rotate(30.5913) scale(1.77616)">
<stop stop-color="#F9601F"/>
<stop offset="1" stop-color="#FF9B71"/>
</radialGradient>
<radialGradient id="paint21_radial_938_25735" cx="0" cy="0" r="1" gradientUnits="userSpaceOnUse" gradientTransform="translate(115.324 9.34102) rotate(30.5913) scale(1.77616)">
<stop stop-color="#F9601F"/>
<stop offset="1" stop-color="#FF9B71"/>
</radialGradient>
<radialGradient id="paint22_radial_938_25735" cx="0" cy="0" r="1" gradientUnits="userSpaceOnUse" gradientTransform="translate(140.782 7.82017) rotate(-34.9901) scale(1.77609)">
<stop stop-color="#F9601F"/>
<stop offset="1" stop-color="#FF9B71"/>
</radialGradient>
<radialGradient id="paint23_radial_938_25735" cx="0" cy="0" r="1" gradientUnits="userSpaceOnUse" gradientTransform="translate(137.659 10.5687) rotate(-34.9901) scale(1.77609)">
<stop stop-color="#F9601F"/>
<stop offset="1" stop-color="#FF9B71"/>
</radialGradient>
<radialGradient id="paint24_radial_938_25735" cx="0" cy="0" r="1" gradientUnits="userSpaceOnUse" gradientTransform="translate(68.9677 14.9044) rotate(180) scale(1.7762)">
<stop stop-color="#F9601F"/>
<stop offset="1" stop-color="#FF9B71"/>
</radialGradient>
<radialGradient id="paint25_radial_938_25735" cx="0" cy="0" r="1" gradientUnits="userSpaceOnUse" gradientTransform="translate(73.1025 14.4432) rotate(180) scale(1.7762)">
<stop stop-color="#F9601F"/>
<stop offset="1" stop-color="#FF9B71"/>
</radialGradient>
<radialGradient id="paint26_radial_938_25735" cx="0" cy="0" r="1" gradientUnits="userSpaceOnUse" gradientTransform="translate(90.2883 14.8033) rotate(153.473) scale(1.77615)">
<stop stop-color="#F9601F"/>
<stop offset="1" stop-color="#FF9B71"/>
</radialGradient>
<radialGradient id="paint27_radial_938_25735" cx="0" cy="0" r="1" gradientUnits="userSpaceOnUse" gradientTransform="translate(93.7815 12.5443) rotate(153.473) scale(1.77615)">
<stop stop-color="#F9601F"/>
<stop offset="1" stop-color="#FF9B71"/>
</radialGradient>
<radialGradient id="paint28_radial_938_25735" cx="0" cy="0" r="1" gradientUnits="userSpaceOnUse" gradientTransform="translate(40.203 11.6886) rotate(-145.368) scale(1.77617)">
<stop stop-color="#F9601F"/>
<stop offset="1" stop-color="#FF9B71"/>
</radialGradient>
<radialGradient id="paint29_radial_938_25735" cx="0" cy="0" r="1" gradientUnits="userSpaceOnUse" gradientTransform="translate(43.867 13.6588) rotate(-145.368) scale(1.77617)">
<stop stop-color="#F9601F"/>
<stop offset="1" stop-color="#FF9B71"/>
</radialGradient>
<radialGradient id="paint30_radial_938_25735" cx="0" cy="0" r="1" gradientUnits="userSpaceOnUse" gradientTransform="translate(11.1382 11.8204) rotate(-149.409) scale(1.77616)">
<stop stop-color="#F9601F"/>
<stop offset="1" stop-color="#FF9B71"/>
</radialGradient>
<radialGradient id="paint31_radial_938_25735" cx="0" cy="0" r="1" gradientUnits="userSpaceOnUse" gradientTransform="translate(14.9319 13.5274) rotate(-149.409) scale(1.77616)">
<stop stop-color="#F9601F"/>
<stop offset="1" stop-color="#FF9B71"/>
</radialGradient>
<radialGradient id="paint32_radial_938_25735" cx="0" cy="0" r="1" gradientUnits="userSpaceOnUse" gradientTransform="translate(2.47357 12.048) rotate(145.01) scale(1.77609)">
<stop stop-color="#F9601F"/>
<stop offset="1" stop-color="#FF9B71"/>
</radialGradient>
<radialGradient id="paint33_radial_938_25735" cx="0" cy="0" r="1" gradientUnits="userSpaceOnUse" gradientTransform="translate(5.59613 9.29946) rotate(145.01) scale(1.77609)">
<stop stop-color="#F9601F"/>
<stop offset="1" stop-color="#FF9B71"/>
</radialGradient>
<radialGradient id="paint34_radial_938_25735" cx="0" cy="0" r="1" gradientUnits="userSpaceOnUse" gradientTransform="translate(40.4457 7.07827) rotate(-25.3199) scale(5.42562)">
<stop stop-color="#5384FF"/>
<stop offset="1" stop-color="#0D2560"/>
</radialGradient>
<radialGradient id="paint35_radial_938_25735" cx="0" cy="0" r="1" gradientUnits="userSpaceOnUse" gradientTransform="translate(38.2924 12.5306) rotate(-25.3199) scale(1.63688)">
<stop stop-color="#5384FF"/>
<stop offset="1" stop-color="#0D2560"/>
</radialGradient>
<radialGradient id="paint36_radial_938_25735" cx="0" cy="0" r="1" gradientUnits="userSpaceOnUse" gradientTransform="translate(40.8707 11.3109) rotate(-25.3199) scale(1.63688)">
<stop stop-color="#5384FF"/>
<stop offset="1" stop-color="#0D2560"/>
</radialGradient>
<radialGradient id="paint37_radial_938_25735" cx="0" cy="0" r="1" gradientUnits="userSpaceOnUse" gradientTransform="translate(46.0272 8.8712) rotate(-25.3199) scale(1.63688)">
<stop stop-color="#5384FF"/>
<stop offset="1" stop-color="#0D2560"/>
</radialGradient>
<radialGradient id="paint38_radial_938_25735" cx="0" cy="0" r="1" gradientUnits="userSpaceOnUse" gradientTransform="translate(43.4489 10.0909) rotate(-25.3199) scale(1.63688)">
<stop stop-color="#5384FF"/>
<stop offset="1" stop-color="#0D2560"/>
</radialGradient>
<radialGradient id="paint39_radial_938_25735" cx="0" cy="0" r="1" gradientUnits="userSpaceOnUse" gradientTransform="translate(38.7076 9.49881) rotate(-85.3192) scale(1.63685)">
<stop stop-color="#5384FF"/>
<stop offset="1" stop-color="#0D2560"/>
</radialGradient>
<radialGradient id="paint40_radial_938_25735" cx="0" cy="0" r="1" gradientUnits="userSpaceOnUse" gradientTransform="translate(39.1732 3.81332) rotate(-85.3192) scale(1.63685)">
<stop stop-color="#5384FF"/>
<stop offset="1" stop-color="#0D2560"/>
</radialGradient>
<radialGradient id="paint41_radial_938_25735" cx="0" cy="0" r="1" gradientUnits="userSpaceOnUse" gradientTransform="translate(38.9405 6.65619) rotate(-85.3192) scale(1.63685)">
<stop stop-color="#5384FF"/>
<stop offset="1" stop-color="#0D2560"/>
</radialGradient>
<radialGradient id="paint42_radial_938_25735" cx="0" cy="0" r="1" gradientUnits="userSpaceOnUse" gradientTransform="translate(40.9157 8.48434) rotate(34.6794) scale(1.63685)">
<stop stop-color="#5384FF"/>
<stop offset="1" stop-color="#0D2560"/>
</radialGradient>
<radialGradient id="paint43_radial_938_25735" cx="0" cy="0" r="1" gradientUnits="userSpaceOnUse" gradientTransform="translate(41.148 5.6416) rotate(34.6794) scale(1.63685)">
<stop stop-color="#5384FF"/>
<stop offset="1" stop-color="#0D2560"/>
</radialGradient>
<radialGradient id="paint44_radial_938_25735" cx="0" cy="0" r="1" gradientUnits="userSpaceOnUse" gradientTransform="translate(43.4937 7.26451) rotate(34.6794) scale(1.63685)">
<stop stop-color="#5384FF"/>
<stop offset="1" stop-color="#0D2560"/>
</radialGradient>
<radialGradient id="paint45_radial_938_25735" cx="0" cy="0" r="1" gradientUnits="userSpaceOnUse" gradientTransform="translate(87.463 8.05528) rotate(-81.69) scale(5.42498)">
<stop stop-color="#5384FF"/>
<stop offset="1" stop-color="#0D2560"/>
</radialGradient>
<radialGradient id="paint46_radial_938_25735" cx="0" cy="0" r="1" gradientUnits="userSpaceOnUse" gradientTransform="translate(90.8099 12.8675) rotate(-81.69) scale(1.63669)">
<stop stop-color="#5384FF"/>
<stop offset="1" stop-color="#0D2560"/>
</radialGradient>
<radialGradient id="paint47_radial_938_25735" cx="0" cy="0" r="1" gradientUnits="userSpaceOnUse" gradientTransform="translate(91.222 10.0455) rotate(-81.69) scale(1.63669)">
<stop stop-color="#5384FF"/>
<stop offset="1" stop-color="#0D2560"/>
</radialGradient>
<radialGradient id="paint48_radial_938_25735" cx="0" cy="0" r="1" gradientUnits="userSpaceOnUse" gradientTransform="translate(92.0465 4.40142) rotate(-81.69) scale(1.63669)">
<stop stop-color="#5384FF"/>
<stop offset="1" stop-color="#0D2560"/>
</radialGradient>
<radialGradient id="paint49_radial_938_25735" cx="0" cy="0" r="1" gradientUnits="userSpaceOnUse" gradientTransform="translate(91.6342 7.22344) rotate(-81.69) scale(1.63669)">
<stop stop-color="#5384FF"/>
<stop offset="1" stop-color="#0D2560"/>
</radialGradient>
<radialGradient id="paint50_radial_938_25735" cx="0" cy="0" r="1" gradientUnits="userSpaceOnUse" gradientTransform="translate(88.5156 10.8427) rotate(-141.689) scale(1.63665)">
<stop stop-color="#5384FF"/>
<stop offset="1" stop-color="#0D2560"/>
</radialGradient>
<radialGradient id="paint51_radial_938_25735" cx="0" cy="0" r="1" gradientUnits="userSpaceOnUse" gradientTransform="translate(84.0401 7.30666) rotate(-141.689) scale(1.63665)">
<stop stop-color="#5384FF"/>
<stop offset="1" stop-color="#0D2560"/>
</radialGradient>
<radialGradient id="paint52_radial_938_25735" cx="0" cy="0" r="1" gradientUnits="userSpaceOnUse" gradientTransform="translate(86.2779 9.07478) rotate(-141.689) scale(1.63665)">
<stop stop-color="#5384FF"/>
<stop offset="1" stop-color="#0D2560"/>
</radialGradient>
<radialGradient id="paint53_radial_938_25735" cx="0" cy="0" r="1" gradientUnits="userSpaceOnUse" gradientTransform="translate(88.8939 8.44273) rotate(-21.6907) scale(1.63665)">
<stop stop-color="#5384FF"/>
<stop offset="1" stop-color="#0D2560"/>
</radialGradient>
<radialGradient id="paint54_radial_938_25735" cx="0" cy="0" r="1" gradientUnits="userSpaceOnUse" gradientTransform="translate(86.6558 6.67501) rotate(-21.6907) scale(1.63665)">
<stop stop-color="#5384FF"/>
<stop offset="1" stop-color="#0D2560"/>
</radialGradient>
<radialGradient id="paint55_radial_938_25735" cx="0" cy="0" r="1" gradientUnits="userSpaceOnUse" gradientTransform="translate(89.3058 5.621) rotate(-21.6907) scale(1.63665)">
<stop stop-color="#5384FF"/>
<stop offset="1" stop-color="#0D2560"/>
</radialGradient>
<radialGradient id="paint56_radial_938_25735" cx="0" cy="0" r="1" gradientUnits="userSpaceOnUse" gradientTransform="translate(108.438 8.08079) rotate(-10.1804) scale(5.42618)">
<stop stop-color="#5384FF"/>
<stop offset="1" stop-color="#0D2560"/>
</radialGradient>
<radialGradient id="paint57_radial_938_25735" cx="0" cy="0" r="1" gradientUnits="userSpaceOnUse" gradientTransform="translate(104.935 12.782) rotate(-10.1804) scale(1.63705)">
<stop stop-color="#5384FF"/>
<stop offset="1" stop-color="#0D2560"/>
</radialGradient>
<radialGradient id="paint58_radial_938_25735" cx="0" cy="0" r="1" gradientUnits="userSpaceOnUse" gradientTransform="translate(107.743 12.2778) rotate(-10.1804) scale(1.63705)">
<stop stop-color="#5384FF"/>
<stop offset="1" stop-color="#0D2560"/>
</radialGradient>
<radialGradient id="paint59_radial_938_25735" cx="0" cy="0" r="1" gradientUnits="userSpaceOnUse" gradientTransform="translate(113.358 11.2695) rotate(-10.1804) scale(1.63705)">
<stop stop-color="#5384FF"/>
<stop offset="1" stop-color="#0D2560"/>
</radialGradient>
<radialGradient id="paint60_radial_938_25735" cx="0" cy="0" r="1" gradientUnits="userSpaceOnUse" gradientTransform="translate(110.55 11.7737) rotate(-10.1804) scale(1.63705)">
<stop stop-color="#5384FF"/>
<stop offset="1" stop-color="#0D2560"/>
</radialGradient>
<radialGradient id="paint61_radial_938_25735" cx="0" cy="0" r="1" gradientUnits="userSpaceOnUse" gradientTransform="translate(106.128 9.96354) rotate(-70.1796) scale(1.63701)">
<stop stop-color="#5384FF"/>
<stop offset="1" stop-color="#0D2560"/>
</radialGradient>
<radialGradient id="paint62_radial_938_25735" cx="0" cy="0" r="1" gradientUnits="userSpaceOnUse" gradientTransform="translate(108.062 4.59641) rotate(-70.1796) scale(1.63701)">
<stop stop-color="#5384FF"/>
<stop offset="1" stop-color="#0D2560"/>
</radialGradient>
<radialGradient id="paint63_radial_938_25735" cx="0" cy="0" r="1" gradientUnits="userSpaceOnUse" gradientTransform="translate(107.095 7.28009) rotate(-70.1796) scale(1.63701)">
<stop stop-color="#5384FF"/>
<stop offset="1" stop-color="#0D2560"/>
</radialGradient>
<radialGradient id="paint64_radial_938_25735" cx="0" cy="0" r="1" gradientUnits="userSpaceOnUse" gradientTransform="translate(108.524 9.56101) rotate(49.8189) scale(1.63701)">
<stop stop-color="#5384FF"/>
<stop offset="1" stop-color="#0D2560"/>
</radialGradient>
<radialGradient id="paint65_radial_938_25735" cx="0" cy="0" r="1" gradientUnits="userSpaceOnUse" gradientTransform="translate(109.491 6.87717) rotate(49.8189) scale(1.63701)">
<stop stop-color="#5384FF"/>
<stop offset="1" stop-color="#0D2560"/>
</radialGradient>
<radialGradient id="paint66_radial_938_25735" cx="0" cy="0" r="1" gradientUnits="userSpaceOnUse" gradientTransform="translate(111.332 9.05672) rotate(49.8189) scale(1.63701)">
<stop stop-color="#5384FF"/>
<stop offset="1" stop-color="#0D2560"/>
</radialGradient>
<radialGradient id="paint67_radial_938_25735" cx="0" cy="0" r="1" gradientUnits="userSpaceOnUse" gradientTransform="translate(130.419 9.07814) rotate(25.4592) scale(5.42433)">
<stop stop-color="#5384FF"/>
<stop offset="1" stop-color="#0D2560"/>
</radialGradient>
<radialGradient id="paint68_radial_938_25735" cx="0" cy="0" r="1" gradientUnits="userSpaceOnUse" gradientTransform="translate(124.835 10.8572) rotate(25.4592) scale(1.63649)">
<stop stop-color="#5384FF"/>
<stop offset="1" stop-color="#0D2560"/>
</radialGradient>
<radialGradient id="paint69_radial_938_25735" cx="0" cy="0" r="1" gradientUnits="userSpaceOnUse" gradientTransform="translate(127.41 12.083) rotate(25.4592) scale(1.63649)">
<stop stop-color="#5384FF"/>
<stop offset="1" stop-color="#0D2560"/>
</radialGradient>
<radialGradient id="paint70_radial_938_25735" cx="0" cy="0" r="1" gradientUnits="userSpaceOnUse" gradientTransform="translate(132.559 14.5347) rotate(25.4592) scale(1.63649)">
<stop stop-color="#5384FF"/>
<stop offset="1" stop-color="#0D2560"/>
</radialGradient>
<radialGradient id="paint71_radial_938_25735" cx="0" cy="0" r="1" gradientUnits="userSpaceOnUse" gradientTransform="translate(129.984 13.3088) rotate(25.4592) scale(1.63649)">
<stop stop-color="#5384FF"/>
<stop offset="1" stop-color="#0D2560"/>
</radialGradient>
<radialGradient id="paint72_radial_938_25735" cx="0" cy="0" r="1" gradientUnits="userSpaceOnUse" gradientTransform="translate(127.446 9.26212) rotate(-34.5401) scale(1.63646)">
<stop stop-color="#5384FF"/>
<stop offset="1" stop-color="#0D2560"/>
</radialGradient>
<radialGradient id="paint73_radial_938_25735" cx="0" cy="0" r="1" gradientUnits="userSpaceOnUse" gradientTransform="translate(132.144 6.0285) rotate(-34.5401) scale(1.63646)">
<stop stop-color="#5384FF"/>
<stop offset="1" stop-color="#0D2560"/>
</radialGradient>
<radialGradient id="paint74_radial_938_25735" cx="0" cy="0" r="1" gradientUnits="userSpaceOnUse" gradientTransform="translate(129.795 7.6455) rotate(-34.5401) scale(1.63646)">
<stop stop-color="#5384FF"/>
<stop offset="1" stop-color="#0D2560"/>
</radialGradient>
<radialGradient id="paint75_radial_938_25735" cx="0" cy="0" r="1" gradientUnits="userSpaceOnUse" gradientTransform="translate(129.627 10.3309) rotate(85.4585) scale(1.63646)">
<stop stop-color="#5384FF"/>
<stop offset="1" stop-color="#0D2560"/>
</radialGradient>
<radialGradient id="paint76_radial_938_25735" cx="0" cy="0" r="1" gradientUnits="userSpaceOnUse" gradientTransform="translate(131.976 8.71389) rotate(85.4585) scale(1.63646)">
<stop stop-color="#5384FF"/>
<stop offset="1" stop-color="#0D2560"/>
</radialGradient>
<radialGradient id="paint77_radial_938_25735" cx="0" cy="0" r="1" gradientUnits="userSpaceOnUse" gradientTransform="translate(132.202 11.5566) rotate(85.4585) scale(1.63646)">
<stop stop-color="#5384FF"/>
<stop offset="1" stop-color="#0D2560"/>
</radialGradient>
<radialGradient id="paint78_radial_938_25735" cx="0" cy="0" r="1" gradientUnits="userSpaceOnUse" gradientTransform="translate(62.4571 12.0693) rotate(-52.8469) scale(5.42627)">
<stop stop-color="#5384FF"/>
<stop offset="1" stop-color="#0D2560"/>
</radialGradient>
<radialGradient id="paint79_radial_938_25735" cx="0" cy="0" r="1" gradientUnits="userSpaceOnUse" gradientTransform="translate(63.0673 17.9001) rotate(-52.8469) scale(1.63708)">
<stop stop-color="#5384FF"/>
<stop offset="1" stop-color="#0D2560"/>
</radialGradient>
<radialGradient id="paint80_radial_938_25735" cx="0" cy="0" r="1" gradientUnits="userSpaceOnUse" gradientTransform="translate(64.7902 15.6267) rotate(-52.8469) scale(1.63708)">
<stop stop-color="#5384FF"/>
<stop offset="1" stop-color="#0D2560"/>
</radialGradient>
<radialGradient id="paint81_radial_938_25735" cx="0" cy="0" r="1" gradientUnits="userSpaceOnUse" gradientTransform="translate(68.236 11.0793) rotate(-52.8469) scale(1.63708)">
<stop stop-color="#5384FF"/>
<stop offset="1" stop-color="#0D2560"/>
</radialGradient>
<radialGradient id="paint82_radial_938_25735" cx="0" cy="0" r="1" gradientUnits="userSpaceOnUse" gradientTransform="translate(66.5131 13.353) rotate(-52.8469) scale(1.63708)">
<stop stop-color="#5384FF"/>
<stop offset="1" stop-color="#0D2560"/>
</radialGradient>
<radialGradient id="paint83_radial_938_25735" cx="0" cy="0" r="1" gradientUnits="userSpaceOnUse" gradientTransform="translate(62.0344 15.0194) rotate(-112.846) scale(1.63704)">
<stop stop-color="#5384FF"/>
<stop offset="1" stop-color="#0D2560"/>
</radialGradient>
<radialGradient id="paint84_radial_938_25735" cx="0" cy="0" r="1" gradientUnits="userSpaceOnUse" gradientTransform="translate(59.8194 9.76168) rotate(-112.846) scale(1.63704)">
<stop stop-color="#5384FF"/>
<stop offset="1" stop-color="#0D2560"/>
</radialGradient>
<radialGradient id="paint85_radial_938_25735" cx="0" cy="0" r="1" gradientUnits="userSpaceOnUse" gradientTransform="translate(60.9268 12.3907) rotate(-112.846) scale(1.63704)">
<stop stop-color="#5384FF"/>
<stop offset="1" stop-color="#0D2560"/>
</radialGradient>
<radialGradient id="paint86_radial_938_25735" cx="0" cy="0" r="1" gradientUnits="userSpaceOnUse" gradientTransform="translate(63.5237 13.099) rotate(7.15234) scale(1.63704)">
<stop stop-color="#5384FF"/>
<stop offset="1" stop-color="#0D2560"/>
</radialGradient>
<radialGradient id="paint87_radial_938_25735" cx="0" cy="0" r="1" gradientUnits="userSpaceOnUse" gradientTransform="translate(62.416 10.4704) rotate(7.15233) scale(1.63704)">
<stop stop-color="#5384FF"/>
<stop offset="1" stop-color="#0D2560"/>
</radialGradient>
<radialGradient id="paint88_radial_938_25735" cx="0" cy="0" r="1" gradientUnits="userSpaceOnUse" gradientTransform="translate(65.2462 10.8255) rotate(7.15234) scale(1.63704)">
<stop stop-color="#5384FF"/>
<stop offset="1" stop-color="#0D2560"/>
</radialGradient>
<radialGradient id="paint89_radial_938_25735" cx="0" cy="0" r="1" gradientUnits="userSpaceOnUse" gradientTransform="translate(13.4038 8.06065) rotate(70.6465) scale(5.42456)">
<stop stop-color="#5384FF"/>
<stop offset="1" stop-color="#0D2560"/>
</radialGradient>
<radialGradient id="paint90_radial_938_25735" cx="0" cy="0" r="1" gradientUnits="userSpaceOnUse" gradientTransform="translate(8.20582 5.3528) rotate(70.6465) scale(1.63656)">
<stop stop-color="#5384FF"/>
<stop offset="1" stop-color="#0D2560"/>
</radialGradient>
<radialGradient id="paint91_radial_938_25735" cx="0" cy="0" r="1" gradientUnits="userSpaceOnUse" gradientTransform="translate(9.15089 8.04347) rotate(70.6465) scale(1.63656)">
<stop stop-color="#5384FF"/>
<stop offset="1" stop-color="#0D2560"/>
</radialGradient>
<radialGradient id="paint92_radial_938_25735" cx="0" cy="0" r="1" gradientUnits="userSpaceOnUse" gradientTransform="translate(11.041 13.4246) rotate(70.6465) scale(1.63656)">
<stop stop-color="#5384FF"/>
<stop offset="1" stop-color="#0D2560"/>
</radialGradient>
<radialGradient id="paint93_radial_938_25735" cx="0" cy="0" r="1" gradientUnits="userSpaceOnUse" gradientTransform="translate(10.096 10.7339) rotate(70.6465) scale(1.63656)">
<stop stop-color="#5384FF"/>
<stop offset="1" stop-color="#0D2560"/>
</radialGradient>
<radialGradient id="paint94_radial_938_25735" cx="0" cy="0" r="1" gradientUnits="userSpaceOnUse" gradientTransform="translate(11.1776 6.08084) rotate(10.6472) scale(1.63653)">
<stop stop-color="#5384FF"/>
<stop offset="1" stop-color="#0D2560"/>
</radialGradient>
<radialGradient id="paint95_radial_938_25735" cx="0" cy="0" r="1" gradientUnits="userSpaceOnUse" gradientTransform="translate(16.7827 7.13453) rotate(10.6472) scale(1.63653)">
<stop stop-color="#5384FF"/>
<stop offset="1" stop-color="#0D2560"/>
</radialGradient>
<radialGradient id="paint96_radial_938_25735" cx="0" cy="0" r="1" gradientUnits="userSpaceOnUse" gradientTransform="translate(13.9799 6.60766) rotate(10.6472) scale(1.63653)">
<stop stop-color="#5384FF"/>
<stop offset="1" stop-color="#0D2560"/>
</radialGradient>
<radialGradient id="paint97_radial_938_25735" cx="0" cy="0" r="1" gradientUnits="userSpaceOnUse" gradientTransform="translate(11.9568 8.38174) rotate(130.646) scale(1.63653)">
<stop stop-color="#5384FF"/>
<stop offset="1" stop-color="#0D2560"/>
</radialGradient>
<radialGradient id="paint98_radial_938_25735" cx="0" cy="0" r="1" gradientUnits="userSpaceOnUse" gradientTransform="translate(14.7595 8.90848) rotate(130.646) scale(1.63653)">
<stop stop-color="#5384FF"/>
<stop offset="1" stop-color="#0D2560"/>
</radialGradient>
<radialGradient id="paint99_radial_938_25735" cx="0" cy="0" r="1" gradientUnits="userSpaceOnUse" gradientTransform="translate(12.902 11.072) rotate(130.646) scale(1.63653)">
<stop stop-color="#5384FF"/>
<stop offset="1" stop-color="#0D2560"/>
</radialGradient>
</defs>
</svg>
