<svg width="118" height="106" viewBox="0 0 118 106" fill="none" xmlns="http://www.w3.org/2000/svg">
<g id="R-ICO-014862">
<g id="R-ICO-012636">
<path id="Vector" d="M86.082 105.245C91.9185 105.245 87.5914 91.7114 96.3267 91.7114L97.7549 91.7212C92.2125 91.7212 95.894 105.245 87.7173 105.245L86.082 105.245Z" fill="url(#paint0_linear_938_25838)" stroke="#60112E" stroke-miterlimit="10" stroke-linecap="round" stroke-linejoin="round"/>
<path id="Vector_2" d="M96.1201 105.245C101.957 105.245 97.6295 91.7114 106.365 91.7114L107.793 91.7212C102.251 91.7212 105.932 105.245 97.7554 105.245L96.1201 105.245Z" fill="url(#paint1_linear_938_25838)" stroke="#0F4849" stroke-miterlimit="10"/>
<path id="Vector_3" d="M106.157 105.245C111.994 105.245 107.667 91.7114 116.402 91.7114L117.83 91.7212C112.288 91.7212 115.969 105.245 107.793 105.245L106.157 105.245Z" fill="url(#paint2_linear_938_25838)" stroke="#60112E" stroke-miterlimit="10"/>
<path id="Vector_4" d="M87.252 91.7192C81.4155 91.7192 85.7426 105.253 77.0073 105.253L75.5791 105.243C81.1215 105.243 77.44 91.7193 85.6167 91.7193L87.252 91.7192Z" fill="url(#paint3_linear_938_25838)" stroke="#0F4849" stroke-miterlimit="10" stroke-linecap="round" stroke-linejoin="round"/>
<path id="Vector_5" d="M67.0728 91.7192C61.2363 91.7192 65.5634 104.672 56.8281 104.672L55.5742 104.614C61.1166 104.614 57.2607 91.7192 65.4374 91.7192H67.0728Z" fill="url(#paint4_linear_938_25838)" stroke="#0F4849" stroke-miterlimit="10" stroke-linecap="round" stroke-linejoin="round"/>
<path id="Vector_6" d="M77.2149 91.7192C71.3784 91.7192 75.7055 105.253 66.9702 105.253L65.542 105.243C71.0844 105.243 67.4029 91.7193 75.5796 91.7193L77.2149 91.7192Z" fill="url(#paint5_linear_938_25838)" stroke="#60112E" stroke-miterlimit="10" stroke-linecap="round" stroke-linejoin="round"/>
<path id="Vector_7" d="M23.0908 99.5656C25.0151 99.6753 23.7385 96.8311 26.4991 96.5466L27.024 96.478C25.0392 96.6826 26.4991 99.8085 23.6148 99.644L23.0908 99.5656Z" fill="url(#paint6_linear_938_25838)" stroke="#0F4849" stroke-miterlimit="10" stroke-linecap="round" stroke-linejoin="round"/>
<path id="Vector_8" d="M30.4316 100.723C33.0089 100.869 31.5267 95.5306 35.2496 95.1469L36.0766 95.0381C33.3827 95.3158 35.0184 101.073 31.1302 100.851L30.4316 100.723Z" fill="url(#paint7_linear_938_25838)" stroke="#0F4849" stroke-miterlimit="10" stroke-linecap="round" stroke-linejoin="round"/>
<path id="Vector_9" d="M48.7575 93.0405C44.6623 93.4622 47.0003 102.844 41.6989 102.541L40.7129 102.383C44.1795 102.581 41.9838 93.8034 47.5582 93.2293L48.7575 93.0405Z" fill="url(#paint8_linear_938_25838)" stroke="#0F4849" stroke-miterlimit="10" stroke-linecap="round" stroke-linejoin="round"/>
<path id="Vector_10" d="M31.123 95.8188C28.7074 95.9565 30.4843 100.551 27.0239 100.194L26.499 100.111C28.5979 100.327 27.185 96.1118 30.4311 95.9267L31.123 95.8188Z" fill="url(#paint9_linear_938_25838)" stroke="#60112E" stroke-miterlimit="10" stroke-linecap="round" stroke-linejoin="round"/>
<path id="Vector_11" d="M35.249 101.51C38.3092 101.825 35.8883 94.583 40.7129 94.3076L41.6989 94.1523C38.4717 94.3362 40.5792 102.106 36.0761 101.642L35.249 101.51Z" fill="url(#paint10_linear_938_25838)" stroke="#60112E" stroke-miterlimit="10" stroke-linecap="round" stroke-linejoin="round"/>
<path id="Vector_12" d="M47.5586 103.478C52.0256 103.938 48.469 92.8102 55.5909 92.4036L57.0358 92.3003C52.2177 92.5748 55.4008 104.354 48.7579 103.67L47.5586 103.478Z" fill="url(#paint11_linear_938_25838)" stroke="#60112E" stroke-miterlimit="10" stroke-linecap="round" stroke-linejoin="round"/>
<path id="Vector_13" d="M97.7549 105.245C91.9184 105.245 95.7385 91.7114 87.7173 91.7114H86.082C91.6244 91.7114 87.7173 105.245 96.1196 105.245H97.7549Z" fill="url(#paint12_linear_938_25838)" stroke="#0F4849" stroke-miterlimit="10" stroke-linecap="round" stroke-linejoin="round"/>
<path id="Vector_14" d="M107.793 105.245C101.957 105.245 105.777 91.7114 97.7554 91.7114H96.1201C101.663 91.7114 97.7554 105.245 106.158 105.245H107.793Z" fill="url(#paint13_linear_938_25838)" stroke="#60112E" stroke-miterlimit="10"/>
<path id="Vector_15" d="M117.83 105.245C111.994 105.245 115.814 91.7114 107.793 91.7114H106.157C111.7 91.7114 107.793 105.245 116.195 105.245H117.83Z" fill="url(#paint14_linear_938_25838)" stroke="#0F4849" stroke-miterlimit="10"/>
<path id="Vector_16" d="M75.5791 91.7192C81.4156 91.7192 77.5955 105.253 85.6167 105.253H87.252C81.7096 105.253 85.6167 91.7192 77.2144 91.7192H75.5791Z" fill="url(#paint15_linear_938_25838)" stroke="#60112E" stroke-miterlimit="10" stroke-linecap="round" stroke-linejoin="round"/>
<path id="Vector_17" d="M55.5908 92.4036C61.4273 92.4036 57.4168 105.253 65.438 105.253H67.0733C61.5309 105.253 65.438 92.3003 57.0357 92.3003L55.5908 92.4036Z" fill="url(#paint16_linear_938_25838)" stroke="#60112E" stroke-miterlimit="10" stroke-linecap="round" stroke-linejoin="round"/>
<path id="Vector_18" d="M65.542 91.7192C71.3785 91.7192 67.5584 105.253 75.5796 105.253H77.2149C71.6725 105.253 75.5796 91.7192 67.1773 91.7192H65.542Z" fill="url(#paint17_linear_938_25838)" stroke="#0F4849" stroke-miterlimit="10"/>
<path id="Vector_19" d="M31.1297 100.851C28.7141 100.714 30.4843 96.1215 27.0239 96.4782L26.499 96.5468C28.5979 96.3307 27.185 100.538 30.4311 100.723L31.1297 100.851Z" fill="url(#paint18_linear_938_25838)" stroke="#0F4849" stroke-miterlimit="10"/>
<path id="Vector_20" d="M35.249 95.1469C38.3092 94.8318 35.8883 102.108 40.7129 102.383L41.6989 102.541C38.4717 102.357 40.5792 94.5743 36.0761 95.038L35.249 95.1469Z" fill="url(#paint19_linear_938_25838)" stroke="#0F4849" stroke-miterlimit="10"/>
<path id="Vector_21" d="M47.5586 93.2297C52.0256 92.7697 48.4529 104.207 55.5748 104.614L56.8287 104.672C52.0106 104.397 55.4008 92.3567 48.7579 93.0408L47.5586 93.2297Z" fill="url(#paint20_linear_938_25838)" stroke="#0F4849" stroke-miterlimit="10" stroke-linecap="round" stroke-linejoin="round"/>
<path id="Vector_22" d="M23.0908 97.0875C25.0151 96.9778 23.7385 99.826 26.4991 100.111L27.024 100.194C25.0392 99.9898 26.4991 96.8423 23.6148 97.0067L23.0908 97.0875Z" fill="url(#paint21_linear_938_25838)" stroke="#60112E" stroke-miterlimit="10" stroke-linecap="round" stroke-linejoin="round"/>
<path id="Vector_23" d="M30.4316 95.9274C33.0089 95.7805 31.5267 101.126 35.2496 101.51L36.0766 101.642C33.3827 101.364 35.0184 95.5957 31.1302 95.8173L30.4316 95.9274Z" fill="url(#paint22_linear_938_25838)" stroke="#60112E" stroke-miterlimit="10" stroke-linecap="round" stroke-linejoin="round"/>
<path id="Vector_24" d="M48.7575 103.67C44.6623 103.248 47.0003 93.85 41.6989 94.1527L40.7129 94.308C44.1795 94.1101 41.9838 102.904 47.5582 103.478L48.7575 103.67Z" fill="url(#paint23_linear_938_25838)" stroke="#60112E" stroke-miterlimit="10" stroke-linecap="round" stroke-linejoin="round"/>
</g>
<g id="Mask group">
<mask id="mask0_938_25838" style="mask-type:alpha" maskUnits="userSpaceOnUse" x="0" y="77" width="46" height="27">
<path id="MASK" d="M12.3177 77.291L12.4674 77.5573C12.4674 77.5573 -3.58404 79.4271 2.44986 90.3479C5.19806 95.3219 15.0211 98.3974 41.3916 93.7594C43.6733 93.3581 45.4999 95.2872 45.7467 97.7944C45.9294 99.6502 45.3038 103.769 40.7131 102.947C35.7262 102.054 17.3191 99.5151 10.7772 97.7944C3.26656 95.8189 0.842959 91.1846 0.454059 87.5719C-0.538441 78.3513 12.3177 77.291 12.3177 77.291Z" fill="url(#paint24_linear_938_25838)"/>
</mask>
<g mask="url(#mask0_938_25838)">
<g id="CURVED CONE">
<path id="Vector_25" d="M12.3177 77.291L12.4674 77.5573C12.4674 77.5573 -3.58404 79.4271 2.44986 90.3479C5.19806 95.3219 15.0211 98.3974 41.3916 93.7594C43.6733 93.3581 45.4999 95.2872 45.7467 97.7944C45.9294 99.6502 45.3038 103.769 40.7131 102.947C35.7262 102.054 17.3191 99.5151 10.7772 97.7944C3.26656 95.8189 0.842959 91.1846 0.454059 87.5719C-0.538441 78.3513 12.3177 77.291 12.3177 77.291Z" fill="url(#paint25_linear_938_25838)"/>
<path id="Vector_26" d="M12.3177 77.291L12.4674 77.5573C12.4674 77.5573 -3.58404 79.4271 2.44986 90.3479C5.19806 95.3219 15.0211 98.3974 41.3916 93.7594C43.6733 93.3581 45.4999 95.2872 45.7467 97.7944C45.9294 99.6502 45.3038 103.769 40.7131 102.947C35.7262 102.054 17.3191 99.5151 10.7772 97.7944C3.26656 95.8189 0.842959 91.1846 0.454059 87.5719C-0.538441 78.3513 12.3177 77.291 12.3177 77.291Z" fill="url(#paint26_radial_938_25838)"/>
<g id="Mask group_2">
<mask id="mask1_938_25838" style="mask-type:alpha" maskUnits="userSpaceOnUse" x="4" y="93" width="28" height="9">
<path id="MASK_2" d="M6.76274 94.012C10.7267 95.7999 17.3751 96.6107 28.0691 95.6087C31.9541 95.2447 33.5886 101.821 28.2647 100.986C21.6593 99.9503 14.3992 98.7467 10.7768 97.7939C9.53734 97.4679 8.43634 97.0694 7.46014 96.6151C2.52174 94.3165 4.59924 93.0362 6.76274 94.012Z" fill="url(#paint27_linear_938_25838)"/>
</mask>
<g mask="url(#mask1_938_25838)">
<path id="Vector_27" d="M6.76274 94.012C10.7267 95.7999 17.3751 96.6107 28.0691 95.6087C31.9541 95.2447 33.5886 101.821 28.2647 100.986C21.6593 99.9503 14.3992 98.7467 10.7768 97.7939C9.53734 97.4679 8.43634 97.0694 7.46014 96.6151C2.52174 94.3165 4.59924 93.0362 6.76274 94.012Z" fill="url(#paint28_radial_938_25838)"/>
</g>
</g>
</g>
</g>
</g>
<g id="R-ICO-012564">
<g id="BG">
<path id="BOTTOM" d="M45.7682 34.379C41.5254 30.1362 34.7697 30.2845 30.5268 34.5274L3.80115 61.2531C1.67641 63.3778 1.72516 66.7787 3.84984 68.9034C5.97452 71.0281 9.41994 71.0281 11.5447 68.9034L38.2238 42.2243C38.5577 42.5582 38.9326 42.8201 39.3225 43.0483C39.5506 43.4382 39.8125 43.813 40.1464 44.1469L13.4673 70.826C11.3426 72.9508 11.3426 76.3961 13.4673 78.5209C15.5921 80.6456 18.9931 80.6945 21.1178 78.5697L47.8435 51.844C52.0864 47.6012 52.2346 40.8454 47.9917 36.6025L45.7682 34.379Z" fill="#564BBC"/>
<path id="TOP" d="M47.8408 36.4521C52.0837 40.6949 58.9876 40.6949 63.2305 36.4521L78.5951 21.092C80.7197 18.9672 80.6455 15.5917 78.5207 13.467C76.396 11.3423 72.9506 11.3423 70.8259 13.467L55.5357 28.7572C55.2017 28.4233 54.8275 28.161 54.4384 27.9319C54.2094 27.5429 53.9469 27.1685 53.613 26.8346L68.9032 11.5443C71.028 9.41961 71.028 5.97424 68.9032 3.84951C66.7785 1.72482 63.4031 1.6506 61.2784 3.77534L45.9182 19.1397C41.6753 23.3826 41.6753 30.2865 45.9182 34.5294L47.8408 36.4521Z" fill="#564BBC"/>
</g>
<g id="BOTTOM ENDINGS">
<path id="Vector_28" opacity="0.75" d="M76.0405 23.6417L78.5946 21.0921C80.7193 18.9673 80.645 15.5918 78.5203 13.467C76.3955 11.3423 72.9502 11.3423 70.8254 13.467L68.3456 15.9469C68.3456 15.9469 67.376 16.9221 71.2221 20.7681C75.0681 24.6142 76.0405 23.6417 76.0405 23.6417Z" fill="url(#paint29_radial_938_25838)" fill-opacity="0.75"/>
<path id="Vector_29" opacity="0.75" d="M66.4213 14.0221L68.9755 11.4724C71.1001 9.34764 71.0259 5.97216 68.9011 3.84742C66.7764 1.72268 63.331 1.72268 61.2063 3.84742L58.7265 6.32722C58.7265 6.32722 57.7569 7.30244 61.6029 11.1485C65.449 14.9945 66.4213 14.0221 66.4213 14.0221Z" fill="url(#paint30_radial_938_25838)" fill-opacity="0.75"/>
<path id="Vector_30" opacity="0.75" d="M15.9485 68.3484L13.3944 70.8981C11.2697 73.0228 11.344 76.3983 13.4687 78.5231C15.5935 80.6478 19.0388 80.6478 21.1636 78.5231L23.6434 76.0433C23.6434 76.0433 22.4171 77.264 18.571 73.4179C14.725 69.5719 15.9485 68.3484 15.9485 68.3484Z" fill="url(#paint31_radial_938_25838)" fill-opacity="0.75"/>
<path id="Vector_31" opacity="0.75" d="M6.3294 58.7288L3.77527 61.2784C1.65053 63.4032 1.72486 66.7787 3.84959 68.9035C5.97433 71.0282 9.4197 71.0282 11.5444 68.9035L14.0242 66.4237C14.0242 66.4237 12.7979 67.6444 8.95188 63.7983C5.10583 59.9523 6.3294 58.7288 6.3294 58.7288Z" fill="url(#paint32_radial_938_25838)" fill-opacity="0.75"/>
</g>
<g id="ROUND BOTTOM SAHDE">
<mask id="mask2_938_25838" style="mask-type:alpha" maskUnits="userSpaceOnUse" x="2" y="31" width="50" height="50">
<path id="MASK_3" d="M45.7682 34.379C41.5254 30.1362 34.7697 30.2845 30.5268 34.5274L3.80115 61.2531C1.67641 63.3778 1.72516 66.7787 3.84984 68.9034C5.97452 71.0281 9.41994 71.0281 11.5447 68.9034L38.2238 42.2243C38.5577 42.5582 38.9326 42.8201 39.3225 43.0483C39.5506 43.4382 39.8125 43.813 40.1464 44.1469L13.4673 70.826C11.3426 72.9508 11.3426 76.3961 13.4673 78.5209C15.5921 80.6456 18.9931 80.6945 21.1178 78.5697L47.8435 51.844C52.0864 47.6012 52.2346 40.8454 47.9917 36.6025L45.7682 34.379Z" fill="url(#paint33_linear_938_25838)"/>
</mask>
<g mask="url(#mask2_938_25838)">
<path id="ROUND BOTTOM SAHDE_2" d="M45.7682 34.379C41.5254 30.1362 34.7697 30.2845 30.5268 34.5274L3.80115 61.2531C1.67641 63.3778 1.72516 66.7787 3.84984 68.9034C5.97452 71.0281 9.41994 71.0281 11.5447 68.9034L38.2238 42.2243C38.5577 42.5582 38.9326 42.8201 39.3225 43.0483C39.5506 43.4382 39.8125 43.813 40.1464 44.1469L13.4673 70.826C11.3426 72.9508 11.3426 76.3961 13.4673 78.5209C15.5921 80.6456 18.9931 80.6945 21.1178 78.5697L47.8435 51.844C52.0864 47.6012 52.2346 40.8454 47.9917 36.6025L45.7682 34.379Z" fill="url(#paint34_radial_938_25838)"/>
</g>
</g>
<g id="PARALLEL BOTTOM SHADE">
<mask id="mask3_938_25838" style="mask-type:alpha" maskUnits="userSpaceOnUse" x="2" y="31" width="50" height="50">
<path id="MASK_4" opacity="0.75" d="M45.7682 34.379C41.5254 30.1362 34.7697 30.2845 30.5268 34.5274L3.80115 61.2531C1.67641 63.3778 1.72516 66.7787 3.84984 68.9034C5.97452 71.0281 9.41994 71.0281 11.5447 68.9034L38.2238 42.2243C38.5577 42.5582 38.9326 42.8201 39.3225 43.0483C39.5506 43.4382 39.8125 43.813 40.1464 44.1469L13.4673 70.826C11.3426 72.9508 11.3426 76.3961 13.4673 78.5209C15.5921 80.6456 18.9931 80.6945 21.1178 78.5697L47.8435 51.844C52.0864 47.6012 52.2346 40.8454 47.9917 36.6025L45.7682 34.379Z" fill="url(#paint35_linear_938_25838)"/>
</mask>
<g mask="url(#mask3_938_25838)">
<path id="PARALLEL BOTTOM SHADE_2" opacity="0.75" d="M45.7682 34.379C41.5254 30.1362 34.7697 30.2845 30.5268 34.5274L3.80115 61.2531C1.67641 63.3778 1.72516 66.7787 3.84984 68.9034C5.97452 71.0281 9.41994 71.0281 11.5447 68.9034L38.2238 42.2243C38.5577 42.5582 38.9326 42.8201 39.3225 43.0483C39.5506 43.4382 39.8125 43.813 40.1464 44.1469L13.4673 70.826C11.3426 72.9508 11.3426 76.3961 13.4673 78.5209C15.5921 80.6456 18.9931 80.6945 21.1178 78.5697L47.8435 51.844C52.0864 47.6012 52.2346 40.8454 47.9917 36.6025L45.7682 34.379Z" fill="url(#paint36_linear_938_25838)"/>
</g>
</g>
<g id="ROUND TOP SHADOW">
<mask id="mask4_938_25838" style="mask-type:alpha" maskUnits="userSpaceOnUse" x="42" y="2" width="39" height="38">
<path id="MASK_5" d="M47.8408 36.4521C52.0837 40.6949 58.9876 40.6949 63.2305 36.4521L78.5951 21.092C80.7197 18.9672 80.6455 15.5917 78.5207 13.467C76.396 11.3423 72.9506 11.3423 70.8259 13.467L55.5357 28.7572C55.2017 28.4233 54.8275 28.161 54.4384 27.9319C54.2094 27.5429 53.9469 27.1685 53.613 26.8346L68.9032 11.5443C71.028 9.41961 71.028 5.97424 68.9032 3.84951C66.7785 1.72482 63.4031 1.6506 61.2784 3.77534L45.9182 19.1397C41.6753 23.3826 41.6753 30.2865 45.9182 34.5294L47.8408 36.4521Z" fill="url(#paint37_linear_938_25838)"/>
</mask>
<g mask="url(#mask4_938_25838)">
<path id="ROUND TOP SHADOW_2" d="M47.8408 36.4521C52.0837 40.6949 58.9876 40.6949 63.2305 36.4521L78.5951 21.092C80.7197 18.9672 80.6455 15.5917 78.5207 13.467C76.396 11.3423 72.9506 11.3423 70.8259 13.467L55.5357 28.7572C55.2017 28.4233 54.8275 28.161 54.4384 27.9319C54.2094 27.5429 53.9469 27.1685 53.613 26.8346L68.9032 11.5443C71.028 9.41961 71.028 5.97424 68.9032 3.84951C66.7785 1.72482 63.4031 1.6506 61.2784 3.77534L45.9182 19.1397C41.6753 23.3826 41.6753 30.2865 45.9182 34.5294L47.8408 36.4521Z" fill="url(#paint38_radial_938_25838)"/>
</g>
</g>
<g id="PARALLEL TOP SHADE">
<mask id="mask5_938_25838" style="mask-type:alpha" maskUnits="userSpaceOnUse" x="42" y="2" width="39" height="38">
<path id="MASK_6" opacity="0.75" d="M47.8408 36.4521C52.0837 40.6949 58.9876 40.6949 63.2305 36.4521L78.5951 21.092C80.7197 18.9672 80.6455 15.5917 78.5207 13.467C76.396 11.3423 72.9506 11.3423 70.8259 13.467L55.5357 28.7572C55.2017 28.4233 54.8275 28.161 54.4384 27.9319C54.2094 27.5429 53.9469 27.1685 53.613 26.8346L68.9032 11.5443C71.028 9.41961 71.028 5.97424 68.9032 3.84951C66.7785 1.72482 63.4031 1.6506 61.2784 3.77534L45.9182 19.1397C41.6753 23.3826 41.6753 30.2865 45.9182 34.5294L47.8408 36.4521Z" fill="url(#paint39_linear_938_25838)"/>
</mask>
<g mask="url(#mask5_938_25838)">
<path id="PARALLEL TOP SHADE_2" opacity="0.75" d="M47.8408 36.4521C52.0837 40.6949 58.9876 40.6949 63.2305 36.4521L78.5951 21.092C80.7197 18.9672 80.6455 15.5917 78.5207 13.467C76.396 11.3423 72.9506 11.3423 70.8259 13.467L55.5357 28.7572C55.2017 28.4233 54.8275 28.161 54.4384 27.9319C54.2094 27.5429 53.9469 27.1685 53.613 26.8346L68.9032 11.5443C71.028 9.41961 71.028 5.97424 68.9032 3.84951C66.7785 1.72482 63.4031 1.6506 61.2784 3.77534L45.9182 19.1397C41.6753 23.3826 41.6753 30.2865 45.9182 34.5294L47.8408 36.4521Z" fill="url(#paint40_linear_938_25838)"/>
</g>
</g>
<g id="DOWN SHINE">
<mask id="mask6_938_25838" style="mask-type:alpha" maskUnits="userSpaceOnUse" x="34" y="34" width="13" height="13">
<path id="MASK_7" d="M46.5106 40.9531C47.0641 43.0192 46.7833 45.1774 45.2165 46.716C44.8284 47.0971 44.2048 47.0915 43.8237 46.7035C43.4425 46.3149 43.448 45.6918 43.8363 45.3107C45.6212 43.558 44.7636 40.4265 42.9046 38.4117C41.9268 37.352 40.5966 36.7194 39.2549 36.6755C38.1647 36.6399 37.1774 36.9884 36.4746 37.6569C36.0803 38.0317 35.4571 38.016 35.0821 37.6221C34.7073 37.2275 34.7227 36.6044 35.117 36.2296C36.2052 35.1947 37.6975 34.6541 39.3193 34.7071C41.1846 34.7677 43.0191 35.6313 44.3521 37.0761C45.365 38.1738 46.1325 39.5422 46.5106 40.9531Z" fill="url(#paint41_linear_938_25838)"/>
</mask>
<g mask="url(#mask6_938_25838)">
<path id="DOWN SHINE_2" d="M46.5106 40.9531C47.0641 43.0192 46.7833 45.1774 45.2165 46.716C44.8284 47.0971 44.2048 47.0915 43.8237 46.7035C43.4425 46.3149 43.448 45.6918 43.8363 45.3107C45.6212 43.558 44.7636 40.4265 42.9046 38.4117C41.9268 37.352 40.5966 36.7194 39.2549 36.6755C38.1647 36.6399 37.1774 36.9884 36.4746 37.6569C36.0803 38.0317 35.4571 38.016 35.0821 37.6221C34.7073 37.2275 34.7227 36.6044 35.117 36.2296C36.2052 35.1947 37.6975 34.6541 39.3193 34.7071C41.1846 34.7677 43.0191 35.6313 44.3521 37.0761C45.365 38.1738 46.1325 39.5422 46.5106 40.9531Z" fill="url(#paint42_radial_938_25838)"/>
</g>
</g>
<g id="UP SHINE">
<mask id="mask7_938_25838" style="mask-type:alpha" maskUnits="userSpaceOnUse" x="47" y="22" width="13" height="13">
<path id="MASK_8" d="M47.6293 28.3887C47.0757 26.3227 47.3565 24.1645 48.9233 22.6258C49.3114 22.2448 49.935 22.2503 50.3161 22.6384C50.6973 23.0269 50.6918 23.65 50.3035 24.0312C48.5186 25.7839 49.3763 28.9154 51.2352 30.9301C52.213 31.9898 53.5432 32.6225 54.8849 32.6664C55.9751 32.7019 56.9625 32.3535 57.6652 31.6849C58.0595 31.3102 58.6827 31.3259 59.0577 31.7198C59.4325 32.1144 59.4171 32.7374 59.0228 33.1122C57.9346 34.1472 56.4423 34.6878 54.8205 34.6348C52.9552 34.5742 51.1207 33.7105 49.7878 32.2658C48.7748 31.1681 48.0073 29.7997 47.6293 28.3887Z" fill="url(#paint43_linear_938_25838)"/>
</mask>
<g mask="url(#mask7_938_25838)">
<path id="UP SHINE_2" d="M47.6293 28.3887C47.0757 26.3227 47.3565 24.1645 48.9233 22.6258C49.3114 22.2448 49.935 22.2503 50.3161 22.6384C50.6973 23.0269 50.6918 23.65 50.3035 24.0312C48.5186 25.7839 49.3763 28.9154 51.2352 30.9301C52.213 31.9898 53.5432 32.6225 54.8849 32.6664C55.9751 32.7019 56.9625 32.3535 57.6652 31.6849C58.0595 31.3102 58.6827 31.3259 59.0577 31.7198C59.4325 32.1144 59.4171 32.7374 59.0228 33.1122C57.9346 34.1472 56.4423 34.6878 54.8205 34.6348C52.9552 34.5742 51.1207 33.7105 49.7878 32.2658C48.7748 31.1681 48.0073 29.7997 47.6293 28.3887Z" fill="url(#paint44_radial_938_25838)"/>
</g>
</g>
</g>
<g id="TEXTURE">
<mask id="mask8_938_25838" style="mask-type:alpha" maskUnits="userSpaceOnUse" x="9" y="49" width="33" height="34">
<rect id="MASK_9" x="9.28906" y="74.3926" width="34.6768" height="11.5197" transform="rotate(-45 9.28906 74.3926)" fill="url(#paint45_linear_938_25838)"/>
</mask>
<g mask="url(#mask8_938_25838)">
<g id="TEXTURE_2" opacity="0.8">
<path id="Vector_32" d="M16.4814 80.0756C17.0086 78.9068 17.4163 78.1423 17.4061 75.0374C17.3933 71.1396 17.2462 67.0961 18.3991 65.8979C17.0829 67.2658 16.7306 70.8503 16.836 75.0473C16.9076 77.9001 16.9643 78.5675 16.4814 80.0756Z" fill="url(#paint46_linear_938_25838)"/>
<path id="Vector_33" d="M20.9611 63.3467C19.6448 64.7147 19.3326 68.1789 19.4059 72.3766C19.4698 76.044 18.9403 79.0626 17.9268 80.1159C19.1037 78.8927 20.0451 76.3239 19.9761 72.3667C19.908 68.4694 19.8081 64.545 20.9611 63.3467Z" fill="url(#paint47_linear_938_25838)"/>
<path id="Vector_34" d="M23.6331 60.6519C22.3168 62.0199 21.9025 65.5084 21.9757 69.7062C22.0396 73.3736 21.202 78.269 20.1885 79.3223C21.3653 78.0992 22.6149 73.6535 22.5458 69.6963C22.4779 65.7989 22.4801 61.8502 23.6331 60.6519Z" fill="url(#paint48_linear_938_25838)"/>
<path id="Vector_35" d="M26.2566 58.0312C24.9403 59.3993 24.4731 62.8372 24.5463 67.035C24.6103 70.7023 24.9208 74.7312 23.9072 75.7845C25.0841 74.5613 25.1854 70.9823 25.1165 67.025C25.0485 63.1277 25.1036 59.2296 26.2566 58.0312Z" fill="url(#paint49_linear_938_25838)"/>
<path id="Vector_36" d="M28.7995 55.4961C27.4832 56.8641 27.0426 60.1668 27.1158 64.3646C27.1799 68.0318 27.5389 72.1093 26.5254 73.1625C27.7021 71.9395 27.7549 68.3119 27.686 64.3546C27.6181 60.4573 27.6466 56.6944 28.7995 55.4961Z" fill="url(#paint50_linear_938_25838)"/>
<path id="Vector_37" d="M31.5084 52.7974L31.499 52.8016C30.1827 54.1696 29.6122 57.4961 29.6853 61.6939C29.7494 65.3611 30.161 69.491 29.1475 70.5442C30.3242 69.3212 30.3244 65.6412 30.2555 61.6839C30.1876 57.7866 30.3554 53.9957 31.5084 52.7974Z" fill="url(#paint51_linear_938_25838)"/>
<path id="Vector_38" d="M34.1269 50.1733L34.0073 50.2834C32.691 51.6514 32.1823 54.8253 32.2554 59.0231C32.3195 62.6903 32.785 66.8742 31.7715 67.9274C32.9482 66.7044 32.8945 62.9704 32.8256 59.0131C32.7577 55.1158 32.9739 51.3716 34.1269 50.1733Z" fill="url(#paint52_linear_938_25838)"/>
<path id="Vector_39" d="M28.8921 70.7812C27.7391 71.9796 23.3442 71.7756 19.4472 71.8577C15.4903 71.9411 13.0451 73.0863 11.8682 74.3094C12.8817 73.2561 15.7921 72.5051 19.4593 72.4278C23.6568 72.3393 27.5758 72.1493 28.8921 70.7812Z" fill="url(#paint53_linear_938_25838)"/>
<path id="Vector_40" d="M31.4826 68.2002C30.3296 69.3985 25.9138 69.1046 22.0167 69.1869C18.0598 69.2703 13.7657 70.7679 12.5889 71.991C13.6024 70.9377 18.3617 69.8343 22.0288 69.757C26.2264 69.6684 30.1663 69.5682 31.4826 68.2002Z" fill="url(#paint54_linear_938_25838)"/>
<path id="Vector_41" d="M34.105 65.5815C32.952 66.7798 28.4844 66.4342 24.5874 66.5163C20.6304 66.5998 17.2346 67.0127 16.0576 68.2357C17.0711 67.1824 20.9323 67.1637 24.5993 67.0865C28.7969 66.9979 32.7887 66.9495 34.105 65.5815Z" fill="url(#paint55_linear_938_25838)"/>
<path id="Vector_42" d="M36.7157 62.9512C35.5627 64.1495 31.0541 63.7634 27.1571 63.8455C23.2001 63.929 19.8584 64.3959 18.6816 65.6188C19.695 64.5656 23.5021 64.4928 27.169 64.4157C31.3666 64.3271 35.3994 64.3192 36.7157 62.9512Z" fill="url(#paint56_linear_938_25838)"/>
<path id="Vector_43" d="M39.329 60.3428C38.176 61.5411 33.6238 61.0923 29.7268 61.1744C25.7698 61.2579 22.4122 61.8365 21.2354 63.0594C22.2488 62.0062 26.0718 61.8217 29.7387 61.7446C33.9363 61.656 38.0127 61.7108 39.329 60.3428Z" fill="url(#paint57_linear_938_25838)"/>
<path id="Vector_44" d="M41.9229 57.7573C40.7699 58.9556 36.1937 58.4218 32.2966 58.5039C28.3396 58.5874 25.0967 59.1531 23.9199 60.376C24.9333 59.3228 28.6416 59.1512 32.3085 59.0741C36.5061 58.9857 40.6066 59.1253 41.9229 57.7573Z" fill="url(#paint58_linear_938_25838)"/>
<path id="Vector_45" d="M11.958 75.6735C13.1055 75.0112 14.9522 75.1393 16.8892 75.0985C21.0866 75.0101 24.9197 74.8034 26.2359 73.4355C25.083 74.6337 20.7717 74.369 16.8771 74.5284C12.8386 74.6936 12.2456 75.4845 11.958 75.6735Z" fill="url(#paint59_linear_938_25838)"/>
<path id="Vector_46" d="M12.4672 77.557C14.017 77.4033 16.2984 77.5736 16.8596 77.5734C21.0553 77.5719 22.357 77.3778 23.6733 76.0098C22.5204 77.208 14.7683 77.0386 12.3174 77.2908L12.3911 77.4261L12.4672 77.557Z" fill="url(#paint60_linear_938_25838)"/>
<path id="Vector_47" d="M14.7005 79.4521C14.6846 78.6092 14.3838 75.7316 14.3624 75.1708C14.2024 70.9782 14.5834 69.7694 15.8997 68.4014C14.7468 69.5996 14.7665 73.8093 14.8345 77.7066C14.8554 78.9036 14.785 78.9417 14.7005 79.4521Z" fill="url(#paint61_linear_938_25838)"/>
</g>
</g>
</g>
</g>
<defs>
<linearGradient id="paint0_linear_938_25838" x1="91.9184" y1="91.6923" x2="91.9184" y2="105.067" gradientUnits="userSpaceOnUse">
<stop stop-color="#24040E"/>
<stop offset="0.1131" stop-color="#A20E40"/>
<stop offset="0.273" stop-color="#A23E60"/>
<stop offset="0.6019" stop-color="#A20E40"/>
<stop offset="1" stop-color="#24040E"/>
</linearGradient>
<linearGradient id="paint1_linear_938_25838" x1="101.957" y1="91.6923" x2="101.957" y2="105.067" gradientUnits="userSpaceOnUse">
<stop stop-color="#042224"/>
<stop offset="0.0941" stop-color="#0E98A2"/>
<stop offset="0.119" stop-color="#1598A2"/>
<stop offset="0.1543" stop-color="#279AA2"/>
<stop offset="0.1959" stop-color="#469BA2"/>
<stop offset="0.2418" stop-color="#709EA2"/>
<stop offset="0.2725" stop-color="#90A0A2"/>
<stop offset="0.3113" stop-color="#8DA0A2"/>
<stop offset="0.3379" stop-color="#849FA2"/>
<stop offset="0.3608" stop-color="#759EA2"/>
<stop offset="0.3816" stop-color="#5F9DA2"/>
<stop offset="0.401" stop-color="#439BA2"/>
<stop offset="0.4191" stop-color="#2199A2"/>
<stop offset="0.4279" stop-color="#0E98A2"/>
<stop offset="1" stop-color="#042224"/>
</linearGradient>
<linearGradient id="paint2_linear_938_25838" x1="111.994" y1="91.6923" x2="111.994" y2="105.067" gradientUnits="userSpaceOnUse">
<stop stop-color="#24040E"/>
<stop offset="0.1131" stop-color="#A20E40"/>
<stop offset="0.273" stop-color="#A23E60"/>
<stop offset="0.6019" stop-color="#A20E40"/>
<stop offset="1" stop-color="#24040E"/>
</linearGradient>
<linearGradient id="paint3_linear_938_25838" x1="81.4155" y1="105.272" x2="81.4155" y2="91.8979" gradientUnits="userSpaceOnUse">
<stop stop-color="#042224"/>
<stop offset="0.0941" stop-color="#0E98A2"/>
<stop offset="0.119" stop-color="#1598A2"/>
<stop offset="0.1543" stop-color="#279AA2"/>
<stop offset="0.1959" stop-color="#469BA2"/>
<stop offset="0.2418" stop-color="#709EA2"/>
<stop offset="0.2725" stop-color="#90A0A2"/>
<stop offset="0.3113" stop-color="#8DA0A2"/>
<stop offset="0.3379" stop-color="#849FA2"/>
<stop offset="0.3608" stop-color="#759EA2"/>
<stop offset="0.3816" stop-color="#5F9DA2"/>
<stop offset="0.401" stop-color="#439BA2"/>
<stop offset="0.4191" stop-color="#2199A2"/>
<stop offset="0.4279" stop-color="#0E98A2"/>
<stop offset="1" stop-color="#042224"/>
</linearGradient>
<linearGradient id="paint4_linear_938_25838" x1="61.3234" y1="104.69" x2="61.3234" y2="91.8902" gradientUnits="userSpaceOnUse">
<stop stop-color="#042224"/>
<stop offset="0.0941" stop-color="#0E98A2"/>
<stop offset="0.119" stop-color="#1598A2"/>
<stop offset="0.1543" stop-color="#279AA2"/>
<stop offset="0.1959" stop-color="#469BA2"/>
<stop offset="0.2418" stop-color="#709EA2"/>
<stop offset="0.2725" stop-color="#90A0A2"/>
<stop offset="0.3113" stop-color="#8DA0A2"/>
<stop offset="0.3379" stop-color="#849FA2"/>
<stop offset="0.3608" stop-color="#759EA2"/>
<stop offset="0.3816" stop-color="#5F9DA2"/>
<stop offset="0.401" stop-color="#439BA2"/>
<stop offset="0.4191" stop-color="#2199A2"/>
<stop offset="0.4279" stop-color="#0E98A2"/>
<stop offset="1" stop-color="#042224"/>
</linearGradient>
<linearGradient id="paint5_linear_938_25838" x1="71.3784" y1="105.272" x2="71.3784" y2="91.8979" gradientUnits="userSpaceOnUse">
<stop stop-color="#24040E"/>
<stop offset="0.1131" stop-color="#A20E40"/>
<stop offset="0.273" stop-color="#A23E60"/>
<stop offset="0.6019" stop-color="#A20E40"/>
<stop offset="1" stop-color="#24040E"/>
</linearGradient>
<linearGradient id="paint6_linear_938_25838" x1="25.0574" y1="99.6214" x2="25.0574" y2="96.547" gradientUnits="userSpaceOnUse">
<stop stop-color="#042224"/>
<stop offset="0.0941" stop-color="#0E98A2"/>
<stop offset="0.119" stop-color="#1598A2"/>
<stop offset="0.1543" stop-color="#279AA2"/>
<stop offset="0.1959" stop-color="#469BA2"/>
<stop offset="0.2418" stop-color="#709EA2"/>
<stop offset="0.2725" stop-color="#90A0A2"/>
<stop offset="0.3113" stop-color="#8DA0A2"/>
<stop offset="0.3379" stop-color="#849FA2"/>
<stop offset="0.3608" stop-color="#759EA2"/>
<stop offset="0.3816" stop-color="#5F9DA2"/>
<stop offset="0.401" stop-color="#439BA2"/>
<stop offset="0.4191" stop-color="#2199A2"/>
<stop offset="0.4279" stop-color="#0E98A2"/>
<stop offset="1" stop-color="#042224"/>
</linearGradient>
<linearGradient id="paint7_linear_938_25838" x1="33.2541" y1="100.804" x2="33.2541" y2="95.0344" gradientUnits="userSpaceOnUse">
<stop stop-color="#042224"/>
<stop offset="0.0941" stop-color="#0E98A2"/>
<stop offset="0.119" stop-color="#1598A2"/>
<stop offset="0.1543" stop-color="#279AA2"/>
<stop offset="0.1959" stop-color="#469BA2"/>
<stop offset="0.2418" stop-color="#709EA2"/>
<stop offset="0.2725" stop-color="#90A0A2"/>
<stop offset="0.3113" stop-color="#8DA0A2"/>
<stop offset="0.3379" stop-color="#849FA2"/>
<stop offset="0.3608" stop-color="#759EA2"/>
<stop offset="0.3816" stop-color="#5F9DA2"/>
<stop offset="0.401" stop-color="#439BA2"/>
<stop offset="0.4191" stop-color="#2199A2"/>
<stop offset="0.4279" stop-color="#0E98A2"/>
<stop offset="1" stop-color="#042224"/>
</linearGradient>
<linearGradient id="paint8_linear_938_25838" x1="44.7353" y1="102.548" x2="44.7353" y2="93.1599" gradientUnits="userSpaceOnUse">
<stop stop-color="#042224"/>
<stop offset="0.0941" stop-color="#0E98A2"/>
<stop offset="0.119" stop-color="#1598A2"/>
<stop offset="0.1543" stop-color="#279AA2"/>
<stop offset="0.1959" stop-color="#469BA2"/>
<stop offset="0.2418" stop-color="#709EA2"/>
<stop offset="0.2725" stop-color="#90A0A2"/>
<stop offset="0.3113" stop-color="#8DA0A2"/>
<stop offset="0.3379" stop-color="#849FA2"/>
<stop offset="0.3608" stop-color="#759EA2"/>
<stop offset="0.3816" stop-color="#5F9DA2"/>
<stop offset="0.401" stop-color="#439BA2"/>
<stop offset="0.4191" stop-color="#2199A2"/>
<stop offset="0.4279" stop-color="#0E98A2"/>
<stop offset="1" stop-color="#042224"/>
</linearGradient>
<linearGradient id="paint9_linear_938_25838" x1="28.811" y1="100.234" x2="28.811" y2="95.8785" gradientUnits="userSpaceOnUse">
<stop stop-color="#24040E"/>
<stop offset="0.1131" stop-color="#A20E40"/>
<stop offset="0.273" stop-color="#A23E60"/>
<stop offset="0.6019" stop-color="#A20E40"/>
<stop offset="1" stop-color="#24040E"/>
</linearGradient>
<linearGradient id="paint10_linear_938_25838" x1="38.4739" y1="101.647" x2="38.4739" y2="94.2816" gradientUnits="userSpaceOnUse">
<stop stop-color="#24040E"/>
<stop offset="0.1131" stop-color="#A20E40"/>
<stop offset="0.273" stop-color="#A23E60"/>
<stop offset="0.6019" stop-color="#A20E40"/>
<stop offset="1" stop-color="#24040E"/>
</linearGradient>
<linearGradient id="paint11_linear_938_25838" x1="52.2972" y1="103.737" x2="52.2972" y2="92.4581" gradientUnits="userSpaceOnUse">
<stop stop-color="#24040E"/>
<stop offset="0.1131" stop-color="#A20E40"/>
<stop offset="0.273" stop-color="#A23E60"/>
<stop offset="0.6019" stop-color="#A20E40"/>
<stop offset="1" stop-color="#24040E"/>
</linearGradient>
<linearGradient id="paint12_linear_938_25838" x1="91.9183" y1="105.265" x2="91.9183" y2="91.7754" gradientUnits="userSpaceOnUse">
<stop stop-color="#0D6A71"/>
<stop offset="0.0919" stop-color="#1398A2"/>
<stop offset="0.2499" stop-color="#90A0A2"/>
<stop offset="0.5868" stop-color="#0E98A2"/>
<stop offset="0.6531" stop-color="#0C8189"/>
<stop offset="0.8143" stop-color="#084E53"/>
<stop offset="0.9347" stop-color="#052E31"/>
<stop offset="1" stop-color="#042224"/>
</linearGradient>
<linearGradient id="paint13_linear_938_25838" x1="101.956" y1="105.265" x2="101.956" y2="91.7754" gradientUnits="userSpaceOnUse">
<stop stop-color="#A21343"/>
<stop offset="0.2499" stop-color="#A2687B"/>
<stop offset="0.7688" stop-color="#A20E40"/>
</linearGradient>
<linearGradient id="paint14_linear_938_25838" x1="111.994" y1="105.265" x2="111.994" y2="91.7754" gradientUnits="userSpaceOnUse">
<stop stop-color="#0D6A71"/>
<stop offset="0.0919" stop-color="#1398A2"/>
<stop offset="0.2499" stop-color="#90A0A2"/>
<stop offset="0.5868" stop-color="#0E98A2"/>
<stop offset="0.6531" stop-color="#0C8189"/>
<stop offset="0.8143" stop-color="#084E53"/>
<stop offset="0.9347" stop-color="#052E31"/>
<stop offset="1" stop-color="#042224"/>
</linearGradient>
<linearGradient id="paint15_linear_938_25838" x1="81.4156" y1="91.7001" x2="81.4156" y2="105.189" gradientUnits="userSpaceOnUse">
<stop stop-color="#A21343"/>
<stop offset="0.2499" stop-color="#A2687B"/>
<stop offset="0.7688" stop-color="#A20E40"/>
</linearGradient>
<linearGradient id="paint16_linear_938_25838" x1="61.3321" y1="92.2819" x2="61.3321" y2="105.192" gradientUnits="userSpaceOnUse">
<stop stop-color="#A21343"/>
<stop offset="0.2499" stop-color="#A2687B"/>
<stop offset="0.7688" stop-color="#A20E40"/>
</linearGradient>
<linearGradient id="paint17_linear_938_25838" x1="71.3785" y1="91.7001" x2="71.3785" y2="105.189" gradientUnits="userSpaceOnUse">
<stop stop-color="#0D6A71"/>
<stop offset="0.0919" stop-color="#1398A2"/>
<stop offset="0.2499" stop-color="#90A0A2"/>
<stop offset="0.5868" stop-color="#0E98A2"/>
<stop offset="0.6531" stop-color="#0C8189"/>
<stop offset="0.8143" stop-color="#084E53"/>
<stop offset="0.9347" stop-color="#052E31"/>
<stop offset="1" stop-color="#042224"/>
</linearGradient>
<linearGradient id="paint18_linear_938_25838" x1="28.8144" y1="96.4384" x2="28.8144" y2="100.792" gradientUnits="userSpaceOnUse">
<stop stop-color="#0D6A71"/>
<stop offset="0.0919" stop-color="#1398A2"/>
<stop offset="0.2499" stop-color="#90A0A2"/>
<stop offset="0.5868" stop-color="#0E98A2"/>
<stop offset="0.6531" stop-color="#0C8189"/>
<stop offset="0.8143" stop-color="#084E53"/>
<stop offset="0.9347" stop-color="#052E31"/>
<stop offset="1" stop-color="#042224"/>
</linearGradient>
<linearGradient id="paint19_linear_938_25838" x1="38.4739" y1="95.0334" x2="38.4739" y2="102.411" gradientUnits="userSpaceOnUse">
<stop stop-color="#0D6A71"/>
<stop offset="0.0919" stop-color="#1398A2"/>
<stop offset="0.2499" stop-color="#90A0A2"/>
<stop offset="0.5868" stop-color="#0E98A2"/>
<stop offset="0.6531" stop-color="#0C8189"/>
<stop offset="0.8143" stop-color="#084E53"/>
<stop offset="0.9347" stop-color="#052E31"/>
<stop offset="1" stop-color="#042224"/>
</linearGradient>
<linearGradient id="paint20_linear_938_25838" x1="52.1936" y1="92.9728" x2="52.1936" y2="104.51" gradientUnits="userSpaceOnUse">
<stop stop-color="#0D6A71"/>
<stop offset="0.0919" stop-color="#1398A2"/>
<stop offset="0.2499" stop-color="#90A0A2"/>
<stop offset="0.5868" stop-color="#0E98A2"/>
<stop offset="0.6531" stop-color="#0C8189"/>
<stop offset="0.8143" stop-color="#084E53"/>
<stop offset="0.9347" stop-color="#052E31"/>
<stop offset="1" stop-color="#042224"/>
</linearGradient>
<linearGradient id="paint21_linear_938_25838" x1="25.0574" y1="97.0296" x2="25.0574" y2="100.125" gradientUnits="userSpaceOnUse">
<stop stop-color="#A21343"/>
<stop offset="0.2499" stop-color="#A2687B"/>
<stop offset="0.7688" stop-color="#A20E40"/>
</linearGradient>
<linearGradient id="paint22_linear_938_25838" x1="33.2541" y1="95.8642" x2="33.2541" y2="101.646" gradientUnits="userSpaceOnUse">
<stop stop-color="#A21343"/>
<stop offset="0.2499" stop-color="#A2687B"/>
<stop offset="0.7688" stop-color="#A20E40"/>
</linearGradient>
<linearGradient id="paint23_linear_938_25838" x1="44.7353" y1="94.1456" x2="44.7353" y2="103.551" gradientUnits="userSpaceOnUse">
<stop stop-color="#A21343"/>
<stop offset="0.2499" stop-color="#A2687B"/>
<stop offset="0.7688" stop-color="#A20E40"/>
</linearGradient>
<linearGradient id="paint24_linear_938_25838" x1="27.6209" y1="105.182" x2="14.5185" y2="69.2891" gradientUnits="userSpaceOnUse">
<stop stop-opacity="0"/>
<stop offset="0.192123" stop-color="white"/>
</linearGradient>
<linearGradient id="paint25_linear_938_25838" x1="26.4335" y1="102.025" x2="14.5185" y2="69.2891" gradientUnits="userSpaceOnUse">
<stop stop-color="#29032F"/>
<stop offset="0.0336" stop-color="#44144C"/>
<stop offset="0.0806" stop-color="#64296C"/>
<stop offset="0.1332" stop-color="#7F3A89"/>
<stop offset="0.1919" stop-color="#9548A0"/>
<stop offset="0.2592" stop-color="#A653B1"/>
<stop offset="0.3405" stop-color="#B25ABE"/>
<stop offset="0.4503" stop-color="#B95FC5"/>
<stop offset="0.7118" stop-color="#BB60C7"/>
<stop offset="0.7413" stop-color="#B45CBF"/>
<stop offset="0.7864" stop-color="#A052AA"/>
<stop offset="0.8416" stop-color="#7F4187"/>
<stop offset="0.9046" stop-color="#522A57"/>
<stop offset="0.9734" stop-color="#180C1A"/>
<stop offset="1"/>
</linearGradient>
<radialGradient id="paint26_radial_938_25838" cx="0" cy="0" r="1" gradientTransform="matrix(25.3707 2.54982 -1.4585 14.5212 25.2142 88.2353)" gradientUnits="userSpaceOnUse">
<stop stop-color="#BB60C7" stop-opacity="0"/>
<stop offset="0.8707" stop-color="#BB60C7" stop-opacity="0"/>
<stop offset="0.8898" stop-color="#B85EC3" stop-opacity="0.1763"/>
<stop offset="0.9074" stop-color="#AD57B8" stop-opacity="0.3382"/>
<stop offset="0.9243" stop-color="#9B4CA6" stop-opacity="0.4944"/>
<stop offset="0.9408" stop-color="#823C8B" stop-opacity="0.6471"/>
<stop offset="0.9571" stop-color="#61276A" stop-opacity="0.7973"/>
<stop offset="0.9729" stop-color="#3A0E41" stop-opacity="0.9438"/>
<stop offset="0.979" stop-color="#29032F"/>
</radialGradient>
<linearGradient id="paint27_linear_938_25838" x1="4.42383" y1="93.6816" x2="6.58724" y2="95.842" gradientUnits="userSpaceOnUse">
<stop stop-opacity="0"/>
<stop offset="1" stop-color="white"/>
</linearGradient>
<radialGradient id="paint28_radial_938_25838" cx="0" cy="0" r="1" gradientTransform="matrix(37.9509 5.44018 -2.4268 16.9301 23.2267 83.0049)" gradientUnits="userSpaceOnUse">
<stop stop-color="#BB60C7" stop-opacity="0"/>
<stop offset="0.8707" stop-color="#BB60C7" stop-opacity="0"/>
<stop offset="0.8898" stop-color="#B85EC3" stop-opacity="0.1763"/>
<stop offset="0.9074" stop-color="#AD57B8" stop-opacity="0.3382"/>
<stop offset="0.9243" stop-color="#9B4CA6" stop-opacity="0.4944"/>
<stop offset="0.9408" stop-color="#823C8B" stop-opacity="0.6471"/>
<stop offset="0.9571" stop-color="#61276A" stop-opacity="0.7973"/>
<stop offset="0.9729" stop-color="#3A0E41" stop-opacity="0.9438"/>
<stop offset="0.979" stop-color="#29032F"/>
</radialGradient>
<radialGradient id="paint29_radial_938_25838" cx="0" cy="0" r="1" gradientUnits="userSpaceOnUse" gradientTransform="translate(78.6013 13.341) rotate(30.0007) scale(9.95505 9.95505)">
<stop offset="0.2016" stop-color="#181636"/>
<stop offset="1" stop-color="#564BBC"/>
</radialGradient>
<radialGradient id="paint30_radial_938_25838" cx="0" cy="0" r="1" gradientUnits="userSpaceOnUse" gradientTransform="translate(68.9822 3.72133) rotate(30.0007) scale(9.95505)">
<stop offset="0.2016" stop-color="#181636"/>
<stop offset="1" stop-color="#564BBC"/>
</radialGradient>
<radialGradient id="paint31_radial_938_25838" cx="0" cy="0" r="1" gradientTransform="matrix(-5.75568 5.87079 -16.1457 -15.8283 18.6135 73.2908)" gradientUnits="userSpaceOnUse">
<stop offset="0.2" stop-color="#564BBC"/>
<stop offset="1" stop-color="#181636"/>
</radialGradient>
<radialGradient id="paint32_radial_938_25838" cx="0" cy="0" r="1" gradientTransform="matrix(-5.75568 5.87079 -16.1457 -15.8283 8.99436 63.6712)" gradientUnits="userSpaceOnUse">
<stop offset="0.2" stop-color="#564BBC"/>
<stop offset="1" stop-color="#181636"/>
</radialGradient>
<linearGradient id="paint33_linear_938_25838" x1="13.0603" y1="68.7989" x2="47.3007" y2="35.075" gradientUnits="userSpaceOnUse">
<stop stop-opacity="0"/>
<stop offset="1" stop-color="white"/>
</linearGradient>
<radialGradient id="paint34_radial_938_25838" cx="0" cy="0" r="1" gradientTransform="matrix(17.1202 -16.8619 11.5471 11.7238 30.1805 51.937)" gradientUnits="userSpaceOnUse">
<stop offset="0.1847" stop-color="#181636" stop-opacity="0"/>
<stop offset="1" stop-color="#181636"/>
</radialGradient>
<linearGradient id="paint35_linear_938_25838" x1="33.8587" y1="48.5122" x2="46.88" y2="35.4909" gradientUnits="userSpaceOnUse">
<stop stop-color="white"/>
<stop offset="1" stop-opacity="0"/>
</linearGradient>
<linearGradient id="paint36_linear_938_25838" x1="19.0249" y1="45.7183" x2="36.3439" y2="63.3909" gradientUnits="userSpaceOnUse">
<stop stop-color="#181636"/>
<stop offset="0.1721" stop-color="#181636" stop-opacity="0"/>
<stop offset="0.4061" stop-color="#181636" stop-opacity="0.8736"/>
<stop offset="0.44" stop-color="#181636"/>
<stop offset="0.5665" stop-color="#181636"/>
<stop offset="0.5795" stop-color="#181636" stop-opacity="0.9327"/>
<stop offset="0.7602" stop-color="#181636" stop-opacity="0"/>
<stop offset="1" stop-color="#181636"/>
</linearGradient>
<linearGradient id="paint37_linear_938_25838" x1="72.2392" y1="10.7794" x2="45.9339" y2="36.4813" gradientUnits="userSpaceOnUse">
<stop stop-opacity="0"/>
<stop offset="1" stop-color="white"/>
</linearGradient>
<radialGradient id="paint38_radial_938_25838" cx="0" cy="0" r="1" gradientTransform="matrix(-13.1526 12.851 -8.37919 -8.57684 59.0866 23.6303)" gradientUnits="userSpaceOnUse">
<stop stop-color="#181636" stop-opacity="0"/>
<stop offset="1" stop-color="#181636"/>
</radialGradient>
<linearGradient id="paint39_linear_938_25838" x1="104.894" y1="-22.5234" x2="39.141" y2="43.2294" gradientUnits="userSpaceOnUse">
<stop stop-opacity="0"/>
<stop offset="1" stop-color="white"/>
</linearGradient>
<linearGradient id="paint40_linear_938_25838" x1="51.5126" y1="13.2997" x2="68.865" y2="30.6368" gradientUnits="userSpaceOnUse">
<stop stop-color="#181636"/>
<stop offset="0.1631" stop-color="#181636" stop-opacity="0"/>
<stop offset="0.3928" stop-color="#181636" stop-opacity="0.8736"/>
<stop offset="0.426" stop-color="#181636"/>
<stop offset="0.5665" stop-color="#181636"/>
<stop offset="0.5939" stop-color="#181636" stop-opacity="0.8556"/>
<stop offset="0.7565" stop-color="#181636" stop-opacity="0"/>
<stop offset="0.9982" stop-color="#181636" stop-opacity="0.9926"/>
<stop offset="1" stop-color="#181636"/>
</linearGradient>
<linearGradient id="paint41_linear_938_25838" x1="39.4092" y1="41.6597" x2="42.7036" y2="38.3653" gradientUnits="userSpaceOnUse">
<stop stop-opacity="0"/>
<stop offset="1" stop-color="white"/>
</linearGradient>
<radialGradient id="paint42_radial_938_25838" cx="0" cy="0" r="1" gradientTransform="matrix(4.269 -4.58804 5.41889 5.04224 39.9366 41.5277)" gradientUnits="userSpaceOnUse">
<stop offset="0.7108" stop-color="white" stop-opacity="0"/>
<stop offset="0.8427" stop-color="white" stop-opacity="0.4"/>
<stop offset="0.9793" stop-color="white" stop-opacity="0"/>
</radialGradient>
<linearGradient id="paint43_linear_938_25838" x1="54.8137" y1="27.5272" x2="49.9271" y2="32.4015" gradientUnits="userSpaceOnUse">
<stop stop-opacity="0"/>
<stop offset="0.9793" stop-color="white"/>
</linearGradient>
<radialGradient id="paint44_radial_938_25838" cx="0" cy="0" r="1" gradientTransform="matrix(-4.269 4.58804 -5.41889 -5.04224 54.1961 27.8134)" gradientUnits="userSpaceOnUse">
<stop offset="0.7108" stop-color="white" stop-opacity="0"/>
<stop offset="0.8427" stop-color="white" stop-opacity="0.4"/>
<stop offset="0.9793" stop-color="white" stop-opacity="0"/>
</radialGradient>
<linearGradient id="paint45_linear_938_25838" x1="9.28906" y1="80.1525" x2="43.9659" y2="80.1525" gradientUnits="userSpaceOnUse">
<stop offset="0.396169" stop-color="white"/>
<stop offset="1" stop-opacity="0"/>
</linearGradient>
<linearGradient id="paint46_linear_938_25838" x1="14.1867" y1="69.9163" x2="20.5097" y2="76.0007" gradientUnits="userSpaceOnUse">
<stop stop-color="#29032F"/>
<stop offset="1" stop-color="#BB60C7"/>
</linearGradient>
<linearGradient id="paint47_linear_938_25838" x1="15.8037" y1="68.2344" x2="22.8691" y2="75.0331" gradientUnits="userSpaceOnUse">
<stop stop-color="#29032F"/>
<stop offset="1" stop-color="#BB60C7"/>
</linearGradient>
<linearGradient id="paint48_linear_938_25838" x1="17.8567" y1="66.1022" x2="25.7069" y2="73.6561" gradientUnits="userSpaceOnUse">
<stop stop-color="#29032F"/>
<stop offset="1" stop-color="#BB60C7"/>
</linearGradient>
<linearGradient id="paint49_linear_938_25838" x1="20.9443" y1="62.8936" x2="28.8894" y2="70.5387" gradientUnits="userSpaceOnUse">
<stop stop-color="#29032F"/>
<stop offset="1" stop-color="#BB60C7"/>
</linearGradient>
<linearGradient id="paint50_linear_938_25838" x1="23.4744" y1="60.2643" x2="31.4195" y2="67.9095" gradientUnits="userSpaceOnUse">
<stop stop-color="#29032F"/>
<stop offset="1" stop-color="#BB60C7"/>
</linearGradient>
<linearGradient id="paint51_linear_938_25838" x1="25.8784" y1="57.3549" x2="34.0312" y2="65.2" gradientUnits="userSpaceOnUse">
<stop stop-color="#29032F"/>
<stop offset="1" stop-color="#BB60C7"/>
</linearGradient>
<linearGradient id="paint52_linear_938_25838" x1="28.4486" y1="54.6839" x2="36.6014" y2="62.529" gradientUnits="userSpaceOnUse">
<stop stop-color="#29032F"/>
<stop offset="1" stop-color="#BB60C7"/>
</linearGradient>
<linearGradient id="paint53_linear_938_25838" x1="23.7621" y1="75.9382" x2="16.735" y2="69.1763" gradientUnits="userSpaceOnUse">
<stop stop-color="#29032F"/>
<stop offset="1" stop-color="#BB60C7"/>
</linearGradient>
<linearGradient id="paint54_linear_938_25838" x1="25.8172" y1="73.8065" x2="17.983" y2="66.2681" gradientUnits="userSpaceOnUse">
<stop stop-color="#29032F"/>
<stop offset="1" stop-color="#BB60C7"/>
</linearGradient>
<linearGradient id="paint55_linear_938_25838" x1="28.9025" y1="70.5978" x2="20.9576" y2="62.9527" gradientUnits="userSpaceOnUse">
<stop stop-color="#29032F"/>
<stop offset="1" stop-color="#BB60C7"/>
</linearGradient>
<linearGradient id="paint56_linear_938_25838" x1="31.4718" y1="67.9263" x2="23.5274" y2="60.2818" gradientUnits="userSpaceOnUse">
<stop stop-color="#29032F"/>
<stop offset="1" stop-color="#BB60C7"/>
</linearGradient>
<linearGradient id="paint57_linear_938_25838" x1="33.5503" y1="64.7808" x2="26.0972" y2="57.6091" gradientUnits="userSpaceOnUse">
<stop stop-color="#29032F"/>
<stop offset="1" stop-color="#BB60C7"/>
</linearGradient>
<linearGradient id="paint58_linear_938_25838" x1="34.4862" y1="60.538" x2="28.6673" y2="54.9387" gradientUnits="userSpaceOnUse">
<stop stop-color="#29032F"/>
<stop offset="1" stop-color="#BB60C7"/>
</linearGradient>
<linearGradient id="paint59_linear_938_25838" x1="22.1449" y1="77.6196" x2="15.8594" y2="71.5714" gradientUnits="userSpaceOnUse">
<stop stop-color="#29032F"/>
<stop offset="1" stop-color="#BB60C7"/>
</linearGradient>
<linearGradient id="paint60_linear_938_25838" x1="20.5904" y1="79.2361" x2="15.3667" y2="74.2096" gradientUnits="userSpaceOnUse">
<stop stop-color="#29032F"/>
<stop offset="1" stop-color="#BB60C7"/>
</linearGradient>
<linearGradient id="paint61_linear_938_25838" x1="12.6465" y1="71.5167" x2="17.7643" y2="76.4413" gradientUnits="userSpaceOnUse">
<stop stop-color="#29032F"/>
<stop offset="1" stop-color="#BB60C7"/>
</linearGradient>
</defs>
</svg>
