<svg width="71" height="37" viewBox="0 0 71 37" fill="none" xmlns="http://www.w3.org/2000/svg">
<g id="R-ICO-014479">
<g id="TARGET PROTEIN">
<path d="M1.19922 11.5012C1.19922 5.97837 5.67637 1.50122 11.1992 1.50122H59.1992C64.7221 1.50122 69.1992 5.97837 69.1992 11.5012V25.5012C69.1992 31.0241 64.7221 35.5012 59.1992 35.5012H11.1992C5.67637 35.5012 1.19922 31.0241 1.19922 25.5012V11.5012Z" fill="#468DD3"/>
<path d="M57.9075 2.99388C42.338 2.87565 26.7687 2.52405 11.1992 1.64123C11.1992 1.54786 11.1992 1.4545 11.1992 1.36113C26.7687 0.47831 42.338 0.126707 57.9075 0.00848174C58.3381 0.00639236 58.7686 0.00477707 59.1992 0.00360632C65.3368 -0.160606 70.8176 5.43215 70.5957 11.5012C70.5699 13.6194 70.542 15.7375 70.5157 17.8557C70.489 20.4042 70.4495 22.9527 70.3991 25.5012C70.4343 31.4854 64.9264 36.6057 59.1999 36.2671C59.1997 36.2671 59.1995 36.2671 59.1992 36.2671C51.4147 36.0233 43.6295 35.8479 35.8451 35.9542C28.0604 36.0572 20.275 36.4657 12.4903 36.666C12.0599 36.675 11.6296 36.6833 11.1992 36.6908C5.2238 36.9391 -0.224545 31.4684 0.00717008 25.5012C0.0357533 23.3833 0.0729475 21.2654 0.115008 19.1474C0.165989 16.5987 0.230918 14.05 0.312834 11.5012C0.344094 5.67392 5.80638 0.856149 11.1992 1.36113C11.1992 1.4545 11.1992 1.54786 11.1992 1.64123C5.9391 1.88709 1.79513 6.67507 2.08546 11.5012C2.16737 14.05 2.23232 16.5987 2.28335 19.1474C2.32541 21.2654 2.3626 23.3833 2.39119 25.5012C2.36387 30.1873 6.52135 34.3224 11.1992 34.3117C11.6296 34.3192 12.0599 34.3275 12.4903 34.3365C20.275 34.5368 28.0604 34.944 35.8451 35.047C43.6296 35.1533 51.4146 34.9792 59.1992 34.7355C59.1994 34.7355 59.1996 34.7355 59.1998 34.7354C64.1262 34.655 68.2232 30.1698 67.9994 25.5012C67.949 22.9527 67.9096 20.4042 67.8828 17.8557C67.8565 15.7376 67.8286 13.6194 67.8027 11.5012C67.8399 6.91695 63.7147 2.90407 59.1992 2.99879C58.7686 2.99761 58.3381 2.99598 57.9075 2.99388Z" fill="#0052AF"/>
<text id="TARGET PROTEIN_2" fill="white" xml:space="preserve" style="white-space: pre" font-family="Arial" font-size="12" font-weight="bold" letter-spacing="0em"><tspan x="10.9648" y="15.6614">TARGET&#10;</tspan><tspan x="8.51562" y="29.6614">PROTEIN</tspan></text>
</g>
</g>
</svg>
