<svg width="169" height="45" viewBox="0 0 169 45" fill="none" xmlns="http://www.w3.org/2000/svg">
<g id="R-ICO-013042">
<g id="BG">
<path id="Vector" d="M1.84155 33.5914L166.498 33.2055C168.759 33.2055 168.759 21.9545 166.498 21.9545H1.84575C3.81685 21.9545 3.81255 33.5914 1.84155 33.5914Z" fill="url(#paint0_linear_938_25699)"/>
<path id="Vector_2" d="M3.27271 24.9867C3.78431 24.9867 3.74081 27.7707 3.27271 27.771C56.3069 27.7363 150.421 27.771 168.209 27.771C168.455 26.8017 168.309 25.8157 168.022 24.9867C156.855 24.9867 59.4819 24.9848 3.27271 24.9867Z" fill="url(#paint1_linear_938_25699)"/>
<path id="Vector_3" d="M1.84155 21.9545C2.44015 21.9545 3.83895 24.9867 3.27275 24.9867C56.307 24.952 150.234 24.9867 168.022 24.9867C168.37 24.2266 167.453 21.9545 166.498 21.9545C155.33 21.9545 58.0508 21.9526 1.84155 21.9545Z" fill="url(#paint2_linear_938_25699)"/>
<path id="Vector_4" d="M3.27272 27.771C3.64022 27.771 3.61652 30.5553 3.24902 30.5553C56.2517 30.5207 150.2 30.485 167.974 30.485C168.428 29.9949 168.471 28.691 168.209 27.7711C157.046 27.771 59.466 27.7691 3.27272 27.771Z" fill="url(#paint3_linear_938_25699)"/>
<path id="Vector_5" d="M3.15805 30.5553C3.72425 30.5553 3.51155 33.5914 1.84155 33.5914C54.8443 33.5568 148.723 33.2055 166.498 33.2055C167.349 33.2055 168.236 31.4049 167.974 30.485C156.811 30.4849 59.3514 30.5534 3.15805 30.5553Z" fill="url(#paint4_linear_938_25699)"/>
<path id="Vector_6" d="M3.65922 29.1631C3.65922 28.3943 3.47832 27.771 3.25522 27.771C3.23932 27.771 3.22372 27.7614 3.20832 27.7458C3.23232 27.7592 3.25632 27.7709 3.27882 27.7709C3.50192 27.7709 3.68282 27.1476 3.68282 26.3788C3.68282 25.6099 3.50192 24.9867 3.27882 24.9867C3.61832 24.9859 3.45622 24.0816 3.04302 23.2526C2.43892 22.0407 2.06592 21.9535 1.84152 21.9561C1.61692 21.9587 1.39442 22.1369 1.30832 22.3452C1.22932 22.2446 0.751215 22.9168 0.560315 23.6115C0.367215 24.3142 0.367915 24.9274 0.551315 25.0405C0.274815 25.1697 0.253216 25.9486 0.196816 26.5457C0.154316 26.9955 0.257616 27.3246 0.399516 27.5451C0.390815 27.531 0.382715 27.5196 0.373816 27.5046C0.259616 27.3129 -0.0578845 28.2161 0.00921552 28.982C0.0700155 29.676 0.466916 30.4522 0.525416 30.3811C0.358116 30.5982 0.374716 31.2858 0.583816 32.0596C0.825516 32.9538 1.49692 33.646 1.66502 33.5871C1.71002 33.5713 1.73862 33.5086 1.75302 33.4106C1.74622 33.5315 1.76862 33.6044 1.83082 33.6057C2.40692 33.6175 2.74232 33.1562 3.12352 32.3138C3.49772 31.487 3.43452 30.6897 3.22262 30.5655C3.23412 30.5595 3.24512 30.5553 3.25502 30.5553C3.47832 30.5553 3.65922 29.932 3.65922 29.1631Z" fill="url(#paint5_linear_938_25699)"/>
<g id="Group">
<path id="Vector_7" d="M3.65908 29.1631C3.65908 29.932 3.47818 30.5552 3.25508 30.5552C3.03198 30.5552 2.67358 29.3215 2.67358 28.5526C2.67358 27.7837 3.03198 27.771 3.25508 27.771C3.47818 27.771 3.65908 28.3943 3.65908 29.1631Z" fill="#E6735C"/>
<path id="Vector_8" d="M2.45901 29.0416C2.56001 29.8666 2.94681 30.3918 2.77441 30.5334C2.60201 30.675 1.92791 30.5283 1.75151 30.2456C1.34451 29.5933 1.38071 29.0665 1.55311 28.9249C1.72551 28.7833 2.36561 28.2784 2.45901 29.0416Z" fill="#E6735C"/>
<path id="Vector_9" d="M2.67352 27.6074C2.48302 28.379 2.14612 28.3776 1.92302 28.3776C1.69992 28.3776 1.07322 29.1031 1.34492 28.1005C1.46822 27.6456 1.50432 26.3592 1.99672 27.0274C2.12912 27.2069 2.87232 26.8023 2.67352 27.6074Z" fill="#E6735C"/>
<path id="Vector_10" d="M2.38095 30.9075C2.49995 31.2525 1.96305 31.9679 1.84155 32.2123C1.74225 32.4121 1.75785 30.8425 1.01065 30.3083C0.486948 29.9339 1.17245 29.1965 1.54075 30.3713C1.60755 30.5842 2.32755 30.7527 2.38095 30.9075Z" fill="#E6735C"/>
<path id="Vector_11" d="M1.08792 28.7909C1.27052 29.862 0.561015 29.0621 0.533116 30.3337C0.528216 30.5567 0.0763155 29.7481 0.00921552 28.9821C-0.0578845 28.2162 0.259616 27.313 0.373816 27.5047C0.873416 28.3432 0.921816 27.8158 1.08792 28.7909Z" fill="#E6735C"/>
<path id="Vector_12" d="M1.25563 26.4947C1.25563 27.2636 1.07473 27.8868 0.851627 27.8868C0.628527 27.8868 0.109827 27.4646 0.196727 26.5456C0.269027 25.7802 0.282127 24.7106 0.851627 25.1025C1.03543 25.2291 1.25563 25.7259 1.25563 26.4947Z" fill="#E6735C"/>
<path id="Vector_13" d="M1.19888 23.967C1.23678 25.1282 0.796276 25.12 0.581176 25.0609C0.366076 25.0018 0.356776 24.3529 0.560476 23.6115C0.764176 22.8701 1.29508 22.1543 1.31878 22.3761C1.42368 23.3565 1.17988 23.3862 1.19888 23.967Z" fill="#E6735C"/>
<path id="Vector_14" d="M3.68273 26.3788C3.68273 27.1477 3.50183 27.7709 3.27873 27.7709C3.05563 27.7709 2.73163 27.0758 2.93283 26.4689C3.18213 25.7171 3.05563 24.9866 3.27873 24.9866C3.50183 24.9866 3.68273 25.61 3.68273 26.3788Z" fill="#E6735C"/>
<path id="Vector_15" d="M3.12358 32.3138C2.74238 33.1562 2.40698 33.6175 1.83088 33.6057C1.58768 33.6007 1.94588 32.5125 2.32718 31.6701C2.70838 30.8277 2.98988 30.4547 3.21148 30.555C3.43308 30.6554 3.50488 31.4714 3.12358 32.3138Z" fill="#E6735C"/>
<path id="Vector_16" d="M2.77552 25.0814C2.93672 26.0156 2.67352 26.8387 2.28702 26.7929C1.77102 26.7317 1.59632 26.3562 1.45152 25.4429C1.30672 24.5296 1.36892 23.8361 1.60922 23.798C1.84942 23.7598 2.63232 24.2515 2.77552 25.0814Z" fill="#E6735C"/>
<path id="Vector_17" d="M3.04299 23.2526C3.42629 24.0958 3.61829 24.9859 3.27879 24.9867C3.00999 24.9874 2.66859 23.8819 2.15689 23.6553C0.850388 23.0768 1.17519 22.0373 1.79999 21.9561C1.81099 21.9547 1.82649 21.9543 1.84149 21.9545C1.95219 21.956 2.68359 22.462 3.04299 23.2526Z" fill="#E6735C"/>
<path id="Vector_18" d="M0.583877 32.0597C0.342177 31.1655 0.356577 30.3838 0.616077 30.3137C0.875577 30.2436 1.10328 30.8679 1.34498 31.762C1.58668 32.6562 1.84758 33.5232 1.66518 33.5872C1.49698 33.646 0.825577 32.9538 0.583877 32.0597Z" fill="#E6735C"/>
</g>
</g>
<g id="R-ICO-013042_2">
<path id="Vector_19" d="M1.84131 33.5914L142.06 33.5951C144.63 33.5951 147.072 38.7962 150.856 41.3766C155.024 44.2195 160.319 46.2392 161.917 41.0908C164.758 31.9349 149.031 30.5553 142.109 30.5553C138.545 30.5553 54.5215 30.5061 3.15781 30.5553C3.78901 30.5553 3.09271 33.5914 1.84131 33.5914Z" fill="url(#paint6_linear_938_25699)"/>
<g id="HEAD">
<mask id="mask0_938_25699" style="mask-type:alpha" maskUnits="userSpaceOnUse" x="141" y="30" width="22" height="15">
<path id="MASK" d="M141.883 33.588C144.89 33.588 145.744 37.7605 150.855 41.3766C154.956 44.2776 160.318 46.244 161.917 41.0908C164.758 31.9349 149.031 30.5553 142.109 30.5553" fill="url(#paint7_linear_938_25699)"/>
</mask>
<g mask="url(#mask0_938_25699)">
<path id="Vector_20" d="M141.883 33.588C144.89 33.588 145.744 37.7605 150.855 41.3766C154.956 44.2776 160.318 46.244 161.917 41.0908C164.758 31.9349 149.031 30.5553 142.109 30.5553" fill="url(#paint8_radial_938_25699)"/>
</g>
</g>
</g>
<g id="R-ICO-013042_3">
<path id="Vector_21" d="M1.84155 33.593C24.2366 33.5942 83.2302 33.5951 84.7394 33.5951C87.31 33.5951 89.7513 38.7962 93.5351 41.3766C97.7038 44.2195 102.999 46.2392 104.597 41.0908C107.438 31.9349 91.7108 30.5553 84.789 30.5553C82.3464 30.5553 25.0961 30.5245 3.15795 30.5553C3.69175 30.5553 3.23865 33.593 1.84155 33.593Z" fill="url(#paint9_linear_938_25699)"/>
<g id="HEAD_2">
<mask id="mask1_938_25699" style="mask-type:alpha" maskUnits="userSpaceOnUse" x="84" y="30" width="21" height="15">
<path id="MASK_2" d="M84.563 33.588C87.5698 33.588 88.4236 37.7605 93.5351 41.3766C97.6357 44.2776 102.997 46.244 104.597 41.0908C107.438 31.9349 91.7108 30.5553 84.789 30.5553" fill="url(#paint10_linear_938_25699)"/>
</mask>
<g mask="url(#mask1_938_25699)">
<path id="Vector_22" d="M84.563 33.588C87.5698 33.588 88.4236 37.7605 93.5351 41.3766C97.6357 44.2776 102.997 46.244 104.597 41.0908C107.438 31.9349 91.7108 30.5553 84.789 30.5553" fill="url(#paint11_radial_938_25699)"/>
</g>
</g>
</g>
<g id="R-ICO-013042_4">
<path id="Vector_23" d="M1.91699 33.593C24.312 33.5942 18.7828 33.5951 20.2919 33.5951C22.8625 33.5951 25.3038 38.7962 29.0876 41.3766C33.2563 44.2195 38.5514 46.2392 40.1491 41.0908C42.9905 31.9349 27.2633 30.5553 20.3415 30.5553C17.8989 30.5553 25.1871 30.5245 3.24899 30.5553C3.78279 30.5553 3.27269 33.593 1.91699 33.593Z" fill="url(#paint12_linear_938_25699)"/>
<g id="HEAD_3">
<mask id="mask2_938_25699" style="mask-type:alpha" maskUnits="userSpaceOnUse" x="20" y="30" width="21" height="15">
<path id="MASK_3" d="M20.1155 33.588C23.1223 33.588 23.9761 37.7605 29.0876 41.3766C33.1882 44.2776 38.5499 46.244 40.1491 41.0908C42.9905 31.9349 27.2633 30.5553 20.3415 30.5553" fill="url(#paint13_linear_938_25699)"/>
</mask>
<g mask="url(#mask2_938_25699)">
<path id="Vector_24" d="M20.1155 33.588C23.1223 33.588 23.9761 37.7605 29.0876 41.3766C33.1882 44.2776 38.5499 46.244 40.1491 41.0908C42.9905 31.9349 27.2633 30.5553 20.3415 30.5553" fill="url(#paint14_radial_938_25699)"/>
</g>
</g>
</g>
<g id="R-ICO-013042_5">
<path id="Vector_25" d="M133.989 1.82855C131.16 -0.24045 128.071 -0.80705 125.401 1.46265C119.533 6.45155 129.19 21.9545 115.383 21.9473C113.484 21.9463 38.7625 21.9527 1.84155 21.9543C2.91825 21.9543 4.01775 24.9866 3.27275 24.9866C39.5322 24.9705 112.299 24.7334 115.383 24.6611C131.989 24.2717 140.947 6.91695 133.989 1.82855Z" fill="url(#paint15_linear_938_25699)"/>
<g id="HEAD_4">
<mask id="mask3_938_25699" style="mask-type:alpha" maskUnits="userSpaceOnUse" x="115" y="0" width="22" height="25">
<path id="MAS" d="M115.383 21.9473C129.19 21.9544 119.533 6.45158 125.401 1.46268C128.071 -0.807017 131.16 -0.240517 133.989 1.82858C140.947 6.91708 131.989 24.2717 115.383 24.6613" fill="url(#paint16_linear_938_25699)"/>
</mask>
<g mask="url(#mask3_938_25699)">
<path id="Vector_26" d="M115.383 21.9473C129.19 21.9544 119.533 6.45158 125.401 1.46268C128.071 -0.807017 131.16 -0.240517 133.989 1.82858C140.947 6.91708 131.989 24.2717 115.383 24.6613" fill="url(#paint17_radial_938_25699)"/>
</g>
</g>
</g>
<g id="R-ICO-013042_6">
<path id="Vector_27" d="M78.7714 14.4749C77.1737 9.32646 71.8786 11.3462 67.7099 14.1891C63.9261 16.7695 61.4847 21.9706 58.9142 21.9706C57.9498 21.9706 11.0121 21.954 1.84155 21.9546C2.52305 21.9546 3.91825 24.9868 3.27275 24.9868C3.27275 24.9868 57.4432 25.0104 58.9638 25.0104C65.8856 25.0104 81.6128 23.6308 78.7714 14.4749Z" fill="url(#paint18_linear_938_25699)"/>
<g id="HEAD_5">
<mask id="mask4_938_25699" style="mask-type:alpha" maskUnits="userSpaceOnUse" x="58" y="11" width="22" height="15">
<path id="MASK_4" d="M58.7378 21.9776C61.7446 21.9776 62.5984 17.8051 67.7099 14.189C71.8105 11.288 77.1722 9.32161 78.7714 14.4748C81.6128 23.6307 65.8856 25.0103 58.9638 25.0103" fill="url(#paint19_linear_938_25699)"/>
</mask>
<g mask="url(#mask4_938_25699)">
<path id="Vector_28" d="M58.7378 21.9776C61.7446 21.9776 62.5984 17.8051 67.7099 14.189C71.8105 11.288 77.1722 9.32161 78.7714 14.4748C81.6128 23.6307 65.8856 25.0103 58.9638 25.0103" fill="url(#paint20_radial_938_25699)"/>
</g>
</g>
</g>
</g>
<defs>
<linearGradient id="paint0_linear_938_25699" x1="85.0177" y1="33.8181" x2="85.0177" y2="21.724" gradientUnits="userSpaceOnUse">
<stop stop-color="#633228"/>
<stop offset="0.0164" stop-color="#67342A"/>
<stop offset="0.2514" stop-color="#9D4F3F"/>
<stop offset="0.4545" stop-color="#C5634F"/>
<stop offset="0.6155" stop-color="#DD6F58"/>
<stop offset="0.7143" stop-color="#E6735C"/>
<stop offset="0.7641" stop-color="#E2715A"/>
<stop offset="0.8141" stop-color="#D66B56"/>
<stop offset="0.8643" stop-color="#C2614E"/>
<stop offset="0.9146" stop-color="#A55342"/>
<stop offset="0.9645" stop-color="#814134"/>
<stop offset="1" stop-color="#633228"/>
</linearGradient>
<linearGradient id="paint1_linear_938_25699" x1="85.8035" y1="27.8907" x2="85.8035" y2="24.8799" gradientUnits="userSpaceOnUse">
<stop stop-color="#633228"/>
<stop offset="0.0164" stop-color="#67342A"/>
<stop offset="0.2514" stop-color="#9D4F3F"/>
<stop offset="0.4545" stop-color="#C5634F"/>
<stop offset="0.6155" stop-color="#DD6F58"/>
<stop offset="0.7143" stop-color="#E6735C"/>
<stop offset="0.7641" stop-color="#E2715A"/>
<stop offset="0.8141" stop-color="#D66B56"/>
<stop offset="0.8643" stop-color="#C2614E"/>
<stop offset="0.9146" stop-color="#A55342"/>
<stop offset="0.9645" stop-color="#814134"/>
<stop offset="1" stop-color="#633228"/>
</linearGradient>
<linearGradient id="paint2_linear_938_25699" x1="84.9697" y1="25.1171" x2="84.9697" y2="21.8383" gradientUnits="userSpaceOnUse">
<stop stop-color="#633228"/>
<stop offset="0.0164" stop-color="#67342A"/>
<stop offset="0.2514" stop-color="#9D4F3F"/>
<stop offset="0.4545" stop-color="#C5634F"/>
<stop offset="0.6155" stop-color="#DD6F58"/>
<stop offset="0.7143" stop-color="#E6735C"/>
<stop offset="0.7641" stop-color="#E2715A"/>
<stop offset="0.8141" stop-color="#D66B56"/>
<stop offset="0.8643" stop-color="#C2614E"/>
<stop offset="0.9146" stop-color="#A55342"/>
<stop offset="0.9645" stop-color="#814134"/>
<stop offset="1" stop-color="#633228"/>
</linearGradient>
<linearGradient id="paint3_linear_938_25699" x1="85.8097" y1="30.6751" x2="85.8097" y2="27.6643" gradientUnits="userSpaceOnUse">
<stop stop-color="#633228"/>
<stop offset="0.0164" stop-color="#67342A"/>
<stop offset="0.2514" stop-color="#9D4F3F"/>
<stop offset="0.4545" stop-color="#C5634F"/>
<stop offset="0.6155" stop-color="#DD6F58"/>
<stop offset="0.7143" stop-color="#E6735C"/>
<stop offset="0.7641" stop-color="#E2715A"/>
<stop offset="0.8141" stop-color="#D66B56"/>
<stop offset="0.8643" stop-color="#C2614E"/>
<stop offset="0.9146" stop-color="#A55342"/>
<stop offset="0.9645" stop-color="#814134"/>
<stop offset="1" stop-color="#633228"/>
</linearGradient>
<linearGradient id="paint4_linear_938_25699" x1="84.9313" y1="33.725" x2="84.9313" y2="30.3668" gradientUnits="userSpaceOnUse">
<stop stop-color="#633228"/>
<stop offset="0.0164" stop-color="#67342A"/>
<stop offset="0.2514" stop-color="#9D4F3F"/>
<stop offset="0.4545" stop-color="#C5634F"/>
<stop offset="0.6155" stop-color="#DD6F58"/>
<stop offset="0.7143" stop-color="#E6735C"/>
<stop offset="0.7641" stop-color="#E2715A"/>
<stop offset="0.8141" stop-color="#D66B56"/>
<stop offset="0.8643" stop-color="#C2614E"/>
<stop offset="0.9146" stop-color="#A55342"/>
<stop offset="0.9645" stop-color="#814134"/>
<stop offset="1" stop-color="#633228"/>
</linearGradient>
<linearGradient id="paint5_linear_938_25699" x1="1.84152" y1="33.5169" x2="1.84152" y2="21.908" gradientUnits="userSpaceOnUse">
<stop stop-color="#633228"/>
<stop offset="0.1486" stop-color="#753B2F"/>
<stop offset="0.5208" stop-color="#9C4E3E"/>
<stop offset="0.8176" stop-color="#B45A48"/>
<stop offset="1" stop-color="#BD5E4B"/>
</linearGradient>
<linearGradient id="paint6_linear_938_25699" x1="82.0489" y1="30.2659" x2="82.0489" y2="33.9039" gradientUnits="userSpaceOnUse">
<stop stop-color="#633228"/>
<stop offset="0.0164" stop-color="#67342A"/>
<stop offset="0.2514" stop-color="#9D4F3F"/>
<stop offset="0.4545" stop-color="#C5634F"/>
<stop offset="0.6155" stop-color="#DD6F58"/>
<stop offset="0.7143" stop-color="#E6735C"/>
<stop offset="0.7641" stop-color="#E2715A"/>
<stop offset="0.8141" stop-color="#D66B56"/>
<stop offset="0.8643" stop-color="#C2614E"/>
<stop offset="0.9146" stop-color="#A55342"/>
<stop offset="0.9645" stop-color="#814134"/>
<stop offset="1" stop-color="#633228"/>
</linearGradient>
<linearGradient id="paint7_linear_938_25699" x1="141.883" y1="33.0042" x2="146.752" y2="33.0042" gradientUnits="userSpaceOnUse">
<stop stop-opacity="0"/>
<stop offset="1" stop-color="white"/>
</linearGradient>
<radialGradient id="paint8_radial_938_25699" cx="0" cy="0" r="1" gradientTransform="matrix(7.58552 5.06127 3.09056 -4.63174 153.562 36.8421)" gradientUnits="userSpaceOnUse">
<stop stop-color="#E6735C"/>
<stop offset="0.1741" stop-color="#E2715A"/>
<stop offset="0.3492" stop-color="#D66B56"/>
<stop offset="0.5249" stop-color="#C2614E"/>
<stop offset="0.7009" stop-color="#A55342"/>
<stop offset="0.8756" stop-color="#814134"/>
<stop offset="1" stop-color="#633228"/>
</radialGradient>
<linearGradient id="paint9_linear_938_25699" x1="53.3889" y1="30.2742" x2="53.3889" y2="33.91" gradientUnits="userSpaceOnUse">
<stop stop-color="#633228"/>
<stop offset="0.0164" stop-color="#67342A"/>
<stop offset="0.2514" stop-color="#9D4F3F"/>
<stop offset="0.4545" stop-color="#C5634F"/>
<stop offset="0.6155" stop-color="#DD6F58"/>
<stop offset="0.7143" stop-color="#E6735C"/>
<stop offset="0.7641" stop-color="#E2715A"/>
<stop offset="0.8141" stop-color="#D66B56"/>
<stop offset="0.8643" stop-color="#C2614E"/>
<stop offset="0.9146" stop-color="#A55342"/>
<stop offset="0.9645" stop-color="#814134"/>
<stop offset="1" stop-color="#633228"/>
</linearGradient>
<linearGradient id="paint10_linear_938_25699" x1="84.563" y1="32.494" x2="89.4764" y2="32.494" gradientUnits="userSpaceOnUse">
<stop stop-opacity="0"/>
<stop offset="1" stop-color="white"/>
</linearGradient>
<radialGradient id="paint11_radial_938_25699" cx="0" cy="0" r="1" gradientTransform="matrix(7.58552 5.06127 3.09056 -4.63174 96.2442 36.8433)" gradientUnits="userSpaceOnUse">
<stop stop-color="#E6735C"/>
<stop offset="0.1741" stop-color="#E2715A"/>
<stop offset="0.3492" stop-color="#D66B56"/>
<stop offset="0.5249" stop-color="#C2614E"/>
<stop offset="0.7009" stop-color="#A55342"/>
<stop offset="0.8756" stop-color="#814134"/>
<stop offset="1" stop-color="#633228"/>
</radialGradient>
<linearGradient id="paint12_linear_938_25699" x1="21.2028" y1="30.2742" x2="21.2028" y2="33.91" gradientUnits="userSpaceOnUse">
<stop stop-color="#633228"/>
<stop offset="0.0164" stop-color="#67342A"/>
<stop offset="0.2514" stop-color="#9D4F3F"/>
<stop offset="0.4545" stop-color="#C5634F"/>
<stop offset="0.6155" stop-color="#DD6F58"/>
<stop offset="0.7143" stop-color="#E6735C"/>
<stop offset="0.7641" stop-color="#E2715A"/>
<stop offset="0.8141" stop-color="#D66B56"/>
<stop offset="0.8643" stop-color="#C2614E"/>
<stop offset="0.9146" stop-color="#A55342"/>
<stop offset="0.9645" stop-color="#814134"/>
<stop offset="1" stop-color="#633228"/>
</linearGradient>
<linearGradient id="paint13_linear_938_25699" x1="20.1155" y1="32.4302" x2="24.8658" y2="32.4302" gradientUnits="userSpaceOnUse">
<stop stop-opacity="0"/>
<stop offset="1" stop-color="white"/>
</linearGradient>
<radialGradient id="paint14_radial_938_25699" cx="0" cy="0" r="1" gradientTransform="matrix(7.58552 5.06127 3.09056 -4.63174 31.799 36.8447)" gradientUnits="userSpaceOnUse">
<stop stop-color="#E6735C"/>
<stop offset="0.1741" stop-color="#E2715A"/>
<stop offset="0.3492" stop-color="#D66B56"/>
<stop offset="0.5249" stop-color="#C2614E"/>
<stop offset="0.7009" stop-color="#A55342"/>
<stop offset="0.8756" stop-color="#814134"/>
<stop offset="1" stop-color="#633228"/>
</radialGradient>
<linearGradient id="paint15_linear_938_25699" x1="69.1032" y1="25.4872" x2="69.1032" y2="18.8637" gradientUnits="userSpaceOnUse">
<stop stop-color="#633228"/>
<stop offset="0.0164" stop-color="#67342A"/>
<stop offset="0.2514" stop-color="#9D4F3F"/>
<stop offset="0.4545" stop-color="#C5634F"/>
<stop offset="0.6155" stop-color="#DD6F58"/>
<stop offset="0.7143" stop-color="#E6735C"/>
<stop offset="0.7641" stop-color="#E2715A"/>
<stop offset="0.8141" stop-color="#D66B56"/>
<stop offset="0.8643" stop-color="#C2614E"/>
<stop offset="0.9146" stop-color="#A55342"/>
<stop offset="0.9645" stop-color="#814134"/>
<stop offset="1" stop-color="#633228"/>
</linearGradient>
<linearGradient id="paint16_linear_938_25699" x1="115.383" y1="22.2252" x2="123.281" y2="22.2252" gradientUnits="userSpaceOnUse">
<stop stop-color="white" stop-opacity="0"/>
<stop offset="1"/>
</linearGradient>
<radialGradient id="paint17_radial_938_25699" cx="0" cy="0" r="1" gradientTransform="matrix(3.21225 -10.9876 6.20127 1.81333 129.349 6.72412)" gradientUnits="userSpaceOnUse">
<stop stop-color="#E6735C"/>
<stop offset="0.1741" stop-color="#E2715A"/>
<stop offset="0.3492" stop-color="#D66B56"/>
<stop offset="0.5249" stop-color="#C2614E"/>
<stop offset="0.7009" stop-color="#A55342"/>
<stop offset="0.8756" stop-color="#814134"/>
<stop offset="1" stop-color="#633228"/>
</radialGradient>
<linearGradient id="paint18_linear_938_25699" x1="40.4763" y1="25.2775" x2="40.4763" y2="21.6454" gradientUnits="userSpaceOnUse">
<stop stop-color="#633228"/>
<stop offset="0.0164" stop-color="#67342A"/>
<stop offset="0.2514" stop-color="#9D4F3F"/>
<stop offset="0.4545" stop-color="#C5634F"/>
<stop offset="0.6155" stop-color="#DD6F58"/>
<stop offset="0.7143" stop-color="#E6735C"/>
<stop offset="0.7641" stop-color="#E2715A"/>
<stop offset="0.8141" stop-color="#D66B56"/>
<stop offset="0.8643" stop-color="#C2614E"/>
<stop offset="0.9146" stop-color="#A55342"/>
<stop offset="0.9645" stop-color="#814134"/>
<stop offset="1" stop-color="#633228"/>
</linearGradient>
<linearGradient id="paint19_linear_938_25699" x1="58.7378" y1="22.289" x2="63.4537" y2="22.289" gradientUnits="userSpaceOnUse">
<stop stop-opacity="0"/>
<stop offset="1" stop-color="white"/>
</linearGradient>
<radialGradient id="paint20_radial_938_25699" cx="0" cy="0" r="1" gradientTransform="matrix(7.58552 -5.06127 3.09056 4.63174 70.4005 18.7063)" gradientUnits="userSpaceOnUse">
<stop stop-color="#E6735C"/>
<stop offset="0.1741" stop-color="#E2715A"/>
<stop offset="0.3492" stop-color="#D66B56"/>
<stop offset="0.5249" stop-color="#C2614E"/>
<stop offset="0.7009" stop-color="#A55342"/>
<stop offset="0.8756" stop-color="#814134"/>
<stop offset="1" stop-color="#633228"/>
</radialGradient>
</defs>
</svg>
