<svg width="84" height="43" viewBox="0 0 84 43" fill="none" xmlns="http://www.w3.org/2000/svg">
<g id="R-ICO-014674">
<g id="Group">
<path id="Vector" d="M33.7853 14.9618C35.0905 10.317 38.7413 3.89478 54.027 0.113281C54.027 0.113281 56.1873 6.70488 51.8937 9.25918C47.3651 11.9533 42.6538 19.9679 47.4524 37.2672C48.0815 39.5353 44.1861 37.356 45.6929 39.8225L35.9702 23.9064C35.9702 23.9064 32.5214 19.46 33.7853 14.9618Z" fill="url(#paint0_linear_938_22844)"/>
<path id="Vector_2" d="M36.8429 22.7734L46.3864 38.5625L45.6924 39.8222L35.9697 23.9061L36.8429 22.7734Z" fill="#560202"/>
<path id="Vector_3" d="M36.8432 22.7736C36.8432 22.7736 32.6863 18.2303 34.6974 13.5268C35.9701 10.5502 38.5238 4.6838 54.0269 0.1132L53.9365 0C53.9365 0 37.2877 3.208 33.3861 13.9173C31.2576 19.7595 35.9701 23.9063 35.9701 23.9063L36.8432 22.7736Z" fill="url(#paint1_linear_938_22844)"/>
</g>
<g id="Group_2">
<path id="Vector_4" d="M43.0192 23.8102L39.4395 41.1372C39.5693 41.5789 72.4332 38.3657 83.1572 16.7446C83.1572 16.7446 79.7346 10.8428 78.0591 6.50146C78.0591 6.50146 64.878 20.0021 43.0192 23.8102Z" fill="url(#paint2_linear_938_22844)"/>
<path id="Vector_5" d="M78.3063 6.88258C78.0379 6.44358 77.6653 6.08538 77.202 5.86178L73.7852 4.21338C73.7852 4.21338 74.061 7.90568 76.6028 11.4611C78.1022 13.5584 79.7694 15.1921 81.4527 15.7684C82.635 16.1732 83.0612 17.9339 83.1989 17.5275C83.6668 16.1475 81.0129 11.3098 78.3063 6.88258Z" fill="url(#paint3_linear_938_22844)"/>
<path id="Vector_6" d="M73.7849 4.21338C73.7849 4.21338 76.1364 13.2041 81.6461 15.3921C87.1558 17.5801 76.8068 26.4953 69.2742 31.9828C61.7416 37.4703 45.337 41.6552 40.8174 41.8226L39.4395 41.1371C39.4395 41.1371 56.5675 38.715 67.5242 31.9829C78.4809 25.2508 82.5427 18.6976 82.2916 17.4422C82.0405 16.1868 82.0339 16.6525 79.9226 15.6369C77.8113 14.6213 74.2911 10.2925 73.2144 4.74908L73.7849 4.21338Z" fill="url(#paint4_linear_938_22844)"/>
</g>
<g id="Group_3">
<path id="Vector_7" d="M41.1784 41.8223C30.0064 41.8223 33.7014 25.8389 38.0123 19.3721C39.1056 17.7321 43.2513 17.7321 44.3446 19.3721C48.6554 25.839 52.3505 41.8223 41.1784 41.8223Z" fill="url(#paint5_radial_938_22844)"/>
<path id="Vector_8" d="M41.1784 41.8223C30.0064 41.8223 33.7014 25.8389 38.0123 19.3721C39.1056 17.7321 43.2513 17.7321 44.3446 19.3721C48.6554 25.839 52.3505 41.8223 41.1784 41.8223Z" fill="url(#paint6_radial_938_22844)"/>
<path id="Vector_9" d="M41.1786 20.3304C42.5382 20.3304 43.6404 19.9465 43.6404 19.4728C43.6404 18.9992 42.5382 18.6152 41.1786 18.6152C39.819 18.6152 38.7168 18.9992 38.7168 19.4728C38.7168 19.9465 39.819 20.3304 41.1786 20.3304Z" fill="url(#paint7_linear_938_22844)"/>
</g>
<g id="Group_4">
<path id="Vector_10" d="M43.7218 42.8227L43.7456 41.581L40.1421 24.5142V25.4957L43.7218 42.8227Z" fill="#3F0159"/>
<path id="Vector_11" d="M5.60032 7.37297L9.43822 6.43457C9.03132 7.93257 8.58292 9.67807 7.73262 11.5273C6.58252 14.0285 4.40732 9.48787 5.60032 7.37297Z" fill="#3F0159"/>
<path id="Vector_12" d="M40.1422 25.4957L43.7219 42.8227C43.7219 42.8227 12.1902 39.4095 0.40647 20.036C-0.16683 19.0934 -0.0773296 17.9815 0.32607 16.9545C1.30557 14.4607 2.81277 11.1179 4.68207 7.97705C4.68207 7.97705 18.2835 21.6876 40.1422 25.4957Z" fill="url(#paint8_linear_938_22844)"/>
<path id="Vector_13" d="M40.1424 25.4956V24.5142C40.1424 24.5142 19.7836 20.9935 6.1568 8.78083C5.1691 7.84383 9.4384 6.43463 9.4384 6.43463L8.8678 5.89893L5.0979 7.59973C4.5025 7.86833 4.3724 8.66763 4.8592 9.10333C15.3954 18.5334 28.1917 23.2837 40.1424 25.4956Z" fill="url(#paint9_linear_938_22844)"/>
</g>
</g>
<defs>
<linearGradient id="paint0_linear_938_22844" x1="37.4436" y1="28.6922" x2="58.3401" y2="5.92068" gradientUnits="userSpaceOnUse">
<stop offset="0.1" stop-color="#B32121"/>
<stop offset="0.2448" stop-color="#981818"/>
<stop offset="0.4374" stop-color="#7B0E0E"/>
<stop offset="0.6292" stop-color="#670808"/>
<stop offset="0.8179" stop-color="#5A0303"/>
<stop offset="1" stop-color="#560202"/>
</linearGradient>
<linearGradient id="paint1_linear_938_22844" x1="41.8299" y1="2.1885" x2="46.2451" y2="21.0453" gradientUnits="userSpaceOnUse">
<stop stop-color="#8A0000"/>
<stop offset="0.029" stop-color="#A11515"/>
<stop offset="0.0738" stop-color="#BE3030"/>
<stop offset="0.1185" stop-color="#D24343"/>
<stop offset="0.1624" stop-color="#DF4E4E"/>
<stop offset="0.2048" stop-color="#E35252"/>
<stop offset="0.3151" stop-color="#D34343"/>
<stop offset="0.6145" stop-color="#AB1F1F"/>
<stop offset="0.853" stop-color="#930808"/>
<stop offset="0.9993" stop-color="#8A0000"/>
</linearGradient>
<linearGradient id="paint2_linear_938_22844" x1="83.9485" y1="19.178" x2="44.734" y2="26.7626" gradientUnits="userSpaceOnUse">
<stop offset="0.0382" stop-color="#8A4900"/>
<stop offset="0.0472" stop-color="#925109"/>
<stop offset="0.0815" stop-color="#AD6D26"/>
<stop offset="0.1157" stop-color="#C0813A"/>
<stop offset="0.1493" stop-color="#CB8D47"/>
<stop offset="0.1818" stop-color="#CF914B"/>
<stop offset="0.8" stop-color="#804502"/>
<stop offset="1" stop-color="#562E02"/>
</linearGradient>
<linearGradient id="paint3_linear_938_22844" x1="76.7599" y1="11.7038" x2="79.1212" y2="10.5947" gradientUnits="userSpaceOnUse">
<stop stop-color="#8A4900"/>
<stop offset="1" stop-color="#562E02"/>
</linearGradient>
<linearGradient id="paint4_linear_938_22844" x1="54.8855" y1="10.6757" x2="64.8482" y2="39.1735" gradientUnits="userSpaceOnUse">
<stop stop-color="#8A4900"/>
<stop offset="0.1193" stop-color="#E39F52"/>
<stop offset="0.1674" stop-color="#D38F43"/>
<stop offset="0.2981" stop-color="#AB691F"/>
<stop offset="0.4022" stop-color="#935208"/>
<stop offset="0.4661" stop-color="#8A4900"/>
<stop offset="0.6118" stop-color="#864700"/>
<stop offset="0.7628" stop-color="#794001"/>
<stop offset="0.9156" stop-color="#653601"/>
<stop offset="1" stop-color="#562E02"/>
</linearGradient>
<radialGradient id="paint5_radial_938_22844" cx="0" cy="0" r="1" gradientUnits="userSpaceOnUse" gradientTransform="translate(39.2184 29.8207) scale(8.2018 12.2026)">
<stop offset="0.4794" stop-color="#E380AB"/>
<stop offset="0.5588" stop-color="#DF7DA7"/>
<stop offset="0.6412" stop-color="#D2739C"/>
<stop offset="0.7249" stop-color="#BE638A"/>
<stop offset="0.8095" stop-color="#A14C71"/>
<stop offset="0.8949" stop-color="#7B2F50"/>
<stop offset="0.9797" stop-color="#4E0B28"/>
<stop offset="1" stop-color="#42021E"/>
</radialGradient>
<radialGradient id="paint6_radial_938_22844" cx="0" cy="0" r="1" gradientTransform="matrix(8.01644 -1.73386 4.29118 19.8434 40.9588 35.0728)" gradientUnits="userSpaceOnUse">
<stop offset="0.2647" stop-color="#42021E"/>
<stop offset="0.56" stop-color="#61032C" stop-opacity="0.5983"/>
<stop offset="0.8244" stop-color="#760335" stop-opacity="0.2388"/>
<stop offset="1" stop-color="#7D0338" stop-opacity="0"/>
</radialGradient>
<linearGradient id="paint7_linear_938_22844" x1="38.7169" y1="19.4728" x2="43.6404" y2="19.4728" gradientUnits="userSpaceOnUse">
<stop stop-color="#42021E"/>
<stop offset="0.0962" stop-color="#631C3B"/>
<stop offset="0.2693" stop-color="#9A466A"/>
<stop offset="0.4188" stop-color="#C2658D"/>
<stop offset="0.5372" stop-color="#DA78A2"/>
<stop offset="0.6098" stop-color="#E37FAA"/>
<stop offset="0.6806" stop-color="#DF7CA6"/>
<stop offset="0.754" stop-color="#D2729C"/>
<stop offset="0.8285" stop-color="#BE628A"/>
<stop offset="0.9039" stop-color="#A14B70"/>
<stop offset="0.9792" stop-color="#7C2E50"/>
<stop offset="1" stop-color="#702546"/>
</linearGradient>
<linearGradient id="paint8_linear_938_22844" x1="0.15657" y1="21.0798" x2="45.7714" y2="29.3746" gradientUnits="userSpaceOnUse">
<stop stop-color="#65008A"/>
<stop offset="0.0283" stop-color="#7B15A1"/>
<stop offset="0.0721" stop-color="#9730BE"/>
<stop offset="0.1157" stop-color="#AB43D2"/>
<stop offset="0.1586" stop-color="#B74EDF"/>
<stop offset="0.2" stop-color="#BB52E3"/>
<stop offset="0.2694" stop-color="#AB43D3"/>
<stop offset="0.4578" stop-color="#851FAB"/>
<stop offset="0.6079" stop-color="#6E0893"/>
<stop offset="0.7" stop-color="#65008A"/>
<stop offset="0.882" stop-color="#610186"/>
<stop offset="1" stop-color="#5A0280"/>
</linearGradient>
<linearGradient id="paint9_linear_938_22844" x1="17.515" y1="2.71693" x2="28.458" y2="34.0188" gradientUnits="userSpaceOnUse">
<stop offset="0.0967" stop-color="#65008A"/>
<stop offset="0.1187" stop-color="#7B15A1"/>
<stop offset="0.1527" stop-color="#9830BE"/>
<stop offset="0.1865" stop-color="#AC43D2"/>
<stop offset="0.2198" stop-color="#B84EDF"/>
<stop offset="0.2519" stop-color="#BC52E3"/>
<stop offset="0.3557" stop-color="#AC43D3"/>
<stop offset="0.6376" stop-color="#861FAB"/>
<stop offset="0.8622" stop-color="#6E0893"/>
<stop offset="1" stop-color="#65008A"/>
</linearGradient>
</defs>
</svg>
