<svg width="121" height="23" viewBox="0 0 121 23" fill="none" xmlns="http://www.w3.org/2000/svg">
<g id="R-ICO-013224">
<g id="PREPROGHRELIN">
<path d="M0.738281 11.5C0.738281 5.97715 5.21543 1.5 10.7383 1.5H109.738C115.261 1.5 119.738 5.97715 119.738 11.5C119.738 17.0228 115.261 21.5 109.738 21.5H10.7383C5.21543 21.5 0.738281 17.0228 0.738281 11.5Z" fill="#DBA628"/>
<path d="M75.9464 2.99266C54.2103 2.87443 32.4744 2.52283 10.7383 1.64001C10.7383 1.54664 10.7383 1.45328 10.7383 1.35991C32.4744 0.477089 54.2103 0.125486 75.9464 0.00726104C86.8145 -0.0305147 97.6832 0.0866973 108.551 0.183516C108.947 0.18649 109.343 0.189621 109.738 0.192908C115.771 0.0927079 121.084 5.5891 120.839 11.5C120.884 17.4255 115.467 22.5461 109.739 22.2659C109.739 22.2659 109.739 22.2658 109.738 22.2658C98.8705 22.0221 88.0018 21.8466 77.1342 21.953C66.2662 22.056 55.3972 22.4645 44.5292 22.6648C33.6616 22.8277 22.7939 22.7388 11.9261 22.5842C11.5302 22.5785 11.1342 22.5727 10.7383 22.5667C4.82998 22.627 -0.292004 17.2093 0.0130411 11.5C0.0329692 5.76606 5.34693 0.962266 10.7383 1.35991C10.7383 1.45328 10.7383 1.54664 10.7383 1.64001C5.47663 1.77857 1.18444 6.58045 1.46339 11.5C1.50936 16.4441 5.99348 20.6322 10.7383 20.4334C11.1342 20.4274 11.5302 20.4216 11.9261 20.4159C22.7937 20.2613 33.6614 20.1724 44.5292 20.3353C55.3973 20.5356 66.2662 20.9428 77.1342 21.0457C88.0019 21.1521 98.8704 20.978 109.738 20.7342C109.739 20.7342 109.739 20.7342 109.739 20.7342C114.664 20.7119 118.852 16.2271 118.637 11.5C118.651 6.75764 114.358 2.64818 109.738 2.80701C109.343 2.8103 108.947 2.81343 108.551 2.8164C97.6833 2.91322 86.8145 3.03071 75.9464 2.99266Z" fill="#DE4E10"/>
<text id="PREPROGHRELIN_2" fill="white" xml:space="preserve" style="white-space: pre" font-family="Arial" font-size="12" font-weight="bold" letter-spacing="0em"><tspan x="7.87305" y="15.6602">PREPROGHRELIN</tspan></text>
</g>
</g>
</svg>
