<svg width="83" height="24" viewBox="0 0 83 24" fill="none" xmlns="http://www.w3.org/2000/svg">
<g id="R-ICO-013917">
<g id="All-trans-decaprenyl diphosphate">
<g id="LEFT_CORNER">
<mask id="mask0_938_24673" style="mask-type:luminance" maskUnits="userSpaceOnUse" x="0" y="0" width="10" height="24">
<rect id="MASK" width="10" height="24" transform="matrix(-1 0 0 1 10 0)" fill="white"/>
</mask>
<g mask="url(#mask0_938_24673)">
<g id="CORNER">
<mask id="path-2-outside-1_938_24673" maskUnits="userSpaceOnUse" x="0" y="0" width="12" height="24" fill="black">
<rect fill="white" width="12" height="24"/>
<path d="M2 12C2 12 6.04738 5.90524 8 2H10V22H8C6.04738 18.0948 2 12 2 12Z"/>
</mask>
<path d="M2 12C2 12 6.04738 5.90524 8 2H10V22H8C6.04738 18.0948 2 12 2 12Z" fill="url(#paint0_linear_938_24673)"/>
<path d="M2 12C2 12 6.04738 5.90524 8 2H10V22H8C6.04738 18.0948 2 12 2 12Z" stroke="#B100AD" stroke-width="4" stroke-miterlimit="3.99933" stroke-linejoin="round" mask="url(#path-2-outside-1_938_24673)"/>
</g>
</g>
</g>
<g id="RIGHT CORNER">
<mask id="mask1_938_24673" style="mask-type:luminance" maskUnits="userSpaceOnUse" x="73" y="0" width="10" height="24">
<rect id="MASK_2" width="10" height="24" transform="matrix(1 -8.74228e-08 -8.74228e-08 -1 73 24)" fill="white"/>
</mask>
<g mask="url(#mask1_938_24673)">
<g id="CORNER_2">
<mask id="path-4-outside-2_938_24673" maskUnits="userSpaceOnUse" x="71" y="0" width="12" height="24" fill="black">
<rect fill="white" x="71" width="12" height="24"/>
<path d="M81 12C81 12 76.9526 5.90524 75 2H73V22H75C76.9526 18.0948 81 12 81 12Z"/>
</mask>
<path d="M81 12C81 12 76.9526 5.90524 75 2H73V22H75C76.9526 18.0948 81 12 81 12Z" fill="url(#paint1_linear_938_24673)"/>
<path d="M81 12C81 12 76.9526 5.90524 75 2H73V22H75C76.9526 18.0948 81 12 81 12Z" stroke="#B100AD" stroke-width="4" stroke-miterlimit="3.99933" stroke-linejoin="round" mask="url(#path-4-outside-2_938_24673)"/>
</g>
</g>
</g>
<g id="all-E10PrP2">
<mask id="path-5-outside-3_938_24673" maskUnits="userSpaceOnUse" x="8" y="0" width="67" height="24" fill="black">
<rect fill="white" x="8" width="67" height="24"/>
<path d="M8 2H75V22H8V2Z"/>
</mask>
<path d="M8 2H75V22H8V2Z" fill="url(#paint2_linear_938_24673)"/>
<path d="M8 2V4H75V2V0H8V2ZM75 22V20H8V22V24H75V22Z" fill="#B100AD" mask="url(#path-5-outside-3_938_24673)"/>
<text id="Chemical" fill="white" xml:space="preserve" style="white-space: pre" font-family="Arial" font-size="12" font-weight="bold" letter-spacing="0em"><tspan x="8.45898" y="16.1602">all-E10PrP2</tspan></text>
</g>
</g>
</g>
<defs>
<linearGradient id="paint0_linear_938_24673" x1="6" y1="2" x2="6" y2="22" gradientUnits="userSpaceOnUse">
<stop stop-color="#FFDCC2"/>
<stop offset="1" stop-color="#B100AD"/>
</linearGradient>
<linearGradient id="paint1_linear_938_24673" x1="77" y1="2" x2="77" y2="22" gradientUnits="userSpaceOnUse">
<stop stop-color="#FFDCC2"/>
<stop offset="1" stop-color="#B100AD"/>
</linearGradient>
<linearGradient id="paint2_linear_938_24673" x1="41.5" y1="2" x2="41.5" y2="22" gradientUnits="userSpaceOnUse">
<stop stop-color="#FFDCC2"/>
<stop offset="1" stop-color="#B100AD"/>
</linearGradient>
</defs>
</svg>
