<svg width="44" height="57" viewBox="0 0 44 57" fill="none" xmlns="http://www.w3.org/2000/svg">
<g id="R-ICO-014831">
<path id="Vector" d="M21.6828 53.1727C14.903 53.1477 2.39697 56.3225 2.39697 56.3225C16.8212 56.3757 16.925 28.2323 16.925 28.2323C16.925 28.2323 17.0288 0.0851063 2.60457 0.0320063C2.60457 0.0320063 14.9015 3.27691 21.646 3.30181C28.3905 3.26701 40.6825 0.00390625 40.6825 0.00390625C26.2584 0.0783063 26.4038 28.2253 26.4038 28.2253C26.4038 28.2253 26.5492 56.3685 40.9733 56.294C40.9733 56.294 28.4625 53.1377 21.6828 53.1727Z" fill="#F09E39"/>
<g id="Group">
<path id="Vector_2" d="M29.6916 28.2045C29.8045 50.066 39.5363 47.1714 40.9248 47.1642C42.3133 47.1571 43.2512 48.6421 43.2694 52.1709C43.284 54.9897 42.7836 56.2808 40.9719 56.2902C26.5478 56.3647 26.4024 28.2215 26.4024 28.2215C26.4024 28.2215 26.2571 0.0745477 40.6812 4.77092e-05C42.4911 -0.00925229 43.2789 1.34105 43.2931 4.09015C43.3073 6.83925 42.1169 9.12245 40.7284 9.12955C39.3399 9.13665 29.5787 6.34315 29.6916 28.2045Z" fill="#93520C"/>
<path id="Vector_3" d="M13.6372 28.2165C13.5565 50.0781 3.82046 47.1979 2.43196 47.1928C1.04346 47.1877 0.107764 48.6741 0.0947636 52.203C0.0843636 55.0218 0.586664 56.3122 2.39836 56.3189C16.8226 56.3721 16.9264 28.2287 16.9264 28.2287C16.9264 28.2287 17.0301 0.0815451 2.60586 0.0283451C0.795864 0.0216451 0.0101636 1.37325 6.36297e-05 4.12234C-0.0100364 6.87144 1.18366 9.15284 2.57226 9.15794C3.96066 9.16304 13.7178 6.35494 13.6372 28.2165Z" fill="#93520C"/>
</g>
</g>
</svg>
