<svg width="52" height="182" viewBox="0 0 52 182" fill="none" xmlns="http://www.w3.org/2000/svg">
<g id="R-ICO-013532">
<path id="BG" d="M30.1894 21.4168C31.966 19.6047 32.339 16.5708 32.339 16.5708C33.4948 17.0794 34.3733 12.1325 34.1884 11.3466C34.0035 10.5607 33.0788 11.1154 33.0788 11.1154C34.327 3.25571 29.3339 0.527954 25.2192 0.527954C21.1045 0.527954 16.7186 4.15356 18.0993 11.4851C18.0993 11.4851 17.1284 10.0057 16.6199 11.069C16.1114 12.1323 17.4058 17.9577 18.8391 16.2932C18.8391 16.2932 19.7638 20.1768 20.9196 21.009C20.9986 21.0659 21.0815 21.1264 21.1679 21.1899L21.167 21.1892C21.1422 23.4185 21.6192 26.3444 17.8059 27.0843C13.5744 27.9054 12.7362 27.3934 11.0797 28.158C9.02709 29.1053 7.16392 31.7579 7.22717 34.8526C7.29042 37.9473 7.57456 44.1051 7.4166 46.9155C7.25874 49.726 6.56394 53.768 6.46923 56.3259C6.37451 58.8837 5.86926 61.2521 4.98503 64.4731C4.1008 67.6941 3.40611 73.9782 3.40611 78.9992C3.40611 84.0202 3.3114 85.8832 2.743 87.399C2.1746 88.9148 1.54305 90.778 1.13251 91.8832C0.721969 92.9884 0.342895 93.1466 0.627042 94.4097C0.91119 95.6728 0.75333 96.715 1.16387 97.5675C1.57441 98.4201 1.57441 99.3991 2.14281 99.9359C2.71121 100.473 4.19541 101.768 4.60596 101.736C5.0165 101.704 5.04807 101.136 5.04807 101.136C5.04807 101.136 5.91508 100.537 5.06665 99.8802C5.06665 99.8802 5.55333 99.3675 4.63753 98.0728L4.54281 97.4728C4.54281 97.4728 5.02537 98.1646 5.50708 98.0406C6.07769 97.8935 6.31126 97.3781 6.21644 95.4519C6.12173 93.5256 5.96387 93.1783 6.31116 92.4203C6.65856 91.6625 6.81642 91.5677 6.78484 88.8835C6.75327 86.1994 6.87956 84.2415 7.66907 81.6205C8.45858 78.9995 11.3637 72.4312 12.3427 65.9892C13.3216 59.5473 12.7216 58.5683 12.8164 56.8946C12.9111 55.221 13.6809 52.7062 13.6809 52.7062C13.8251 54.023 13.9904 55.8113 14.0791 57.7247C14.2579 61.583 14.7059 65.3987 14.0791 67.0522C13.4523 68.7057 11.4173 71.504 10.3573 77.3971C9.2974 83.2904 7.85586 89.4804 8.40705 94.4833C8.95824 99.4861 10.1878 103.09 11.7141 112.799C13.2404 122.508 14.0793 127.553 14.4018 129.631C14.7243 131.708 13.5371 134.973 14.0883 140.654C14.6395 146.335 15.5299 152.398 17.3953 159.563C19.2608 166.729 18.8792 169.993 18.8369 170.968C18.7944 171.943 19.6424 172.749 19.4304 173.639C19.2184 174.53 18.2009 177.794 17.777 178.6C17.353 179.405 17.1834 180.423 18.3281 180.126C18.3281 180.126 19.2443 180.486 19.4645 180.179C19.4645 180.179 20.448 180.734 20.9144 180.303C20.9144 180.303 21.9743 180.932 22.6527 180.084C22.6527 180.084 23.0343 180.547 23.8822 180.527C24.7301 180.508 25.1541 180.338 25.2813 179.702C25.2813 179.702 26.2989 179.109 25.2813 176.353C25.2813 176.353 25.5356 175.759 25.5356 174.657C25.5356 173.555 24.8997 172.452 24.8997 171.562C24.8997 170.672 25.2388 170.544 25.2388 169.824C25.2388 169.103 24.4757 167.492 24.1789 166.008C23.8821 164.524 24.3909 154.306 24.6876 149.939C24.9844 145.572 25.4507 141.757 24.3485 137.729C23.2461 133.701 24.306 129.885 24.4757 128.02C24.6454 126.154 24.1789 111.103 23.967 107.796C23.7549 104.489 24.6029 98.384 24.6453 96.9001C24.6877 95.4162 24.0518 92.406 24.0518 92.406C24.0518 92.406 24.0361 91.8548 25.7335 91.8548C27.4309 91.8548 27.4153 92.406 27.4153 92.406C27.4153 92.406 26.7793 95.4162 26.8217 96.9001C26.8642 98.384 27.7121 104.489 27.5001 107.796C27.288 111.103 26.8217 126.154 26.9913 128.02C27.1609 129.885 28.2208 133.701 27.1186 137.729C26.0162 141.757 26.4826 145.572 26.7794 149.939C27.0762 154.306 27.585 164.524 27.2881 166.008C26.9913 167.492 26.2282 169.103 26.2282 169.824C26.2282 170.544 26.5674 170.672 26.5674 171.562C26.5674 172.452 25.9314 173.555 25.9314 174.657C25.9314 175.759 26.1858 176.353 26.1858 176.353C25.1682 179.109 26.1858 179.702 26.1858 179.702C26.313 180.338 26.737 180.508 27.5849 180.527C28.4328 180.547 28.8144 180.084 28.8144 180.084C29.4927 180.932 30.5526 180.303 30.5526 180.303C31.019 180.734 32.0025 180.179 32.0025 180.179C32.2228 180.486 33.1389 180.126 33.1389 180.126C34.2836 180.423 34.114 179.405 33.6901 178.6C33.2661 177.794 32.2485 174.53 32.0366 173.639C31.8246 172.749 32.6726 171.943 32.6301 170.968C32.5877 169.993 32.2062 166.729 34.0717 159.563C35.9372 152.398 36.8275 146.335 37.3787 140.654C37.9299 134.973 36.7427 131.708 37.0652 129.631C37.3877 127.553 38.2266 122.508 39.7529 112.799C41.2793 103.09 42.5088 99.4862 43.06 94.4833C43.6112 89.4803 42.1696 83.2903 41.1097 77.3971C40.0498 71.5039 38.0147 68.7057 37.3879 67.0522C36.7611 65.3987 37.2091 61.583 37.3879 57.7247C37.4766 55.8114 37.6418 54.0232 37.786 52.7066C37.786 52.7066 38.556 55.221 38.6507 56.8946C38.7454 58.5682 38.1454 59.5472 39.1244 65.9892C40.1033 72.4313 43.0086 78.9995 43.798 81.6205C44.5874 84.2415 44.7138 86.1994 44.6822 88.8835C44.6506 91.5677 44.8085 91.6624 45.1559 92.4203C45.5033 93.1783 45.3453 93.5256 45.2506 95.4519C45.1559 97.3782 45.3893 97.8936 45.96 98.0406C46.4417 98.1647 46.9242 97.4728 46.9242 97.4728L46.8295 98.0728C45.9137 99.3675 46.4004 99.8802 46.4004 99.8802C45.5519 100.537 46.419 101.136 46.419 101.136C46.419 101.136 46.4505 101.704 46.8611 101.736C47.2716 101.767 48.7558 100.473 49.3242 99.9358C49.8926 99.399 49.8926 98.4201 50.3032 97.5674C50.7137 96.7148 50.5557 95.6727 50.84 94.4096C51.1242 93.1465 50.7453 92.9885 50.3347 91.8833C49.9242 90.7781 49.2926 88.9149 48.7242 87.3991C48.1558 85.8834 48.0611 84.0202 48.0611 78.9993C48.0611 73.9784 47.3664 67.6942 46.4822 64.4732C45.598 61.2523 45.0927 58.8838 44.998 56.326C44.9033 53.7681 44.2085 49.7261 44.0506 46.9156C43.8928 44.1052 44.1769 37.9474 44.2401 34.8527C44.3032 31.758 42.44 29.1054 40.3876 28.1581C38.731 27.3935 37.8928 27.9055 33.6614 27.0844C29.9588 26.366 30.2307 23.5846 30.1877 21.4148L30.1894 21.4168Z" fill="white" stroke="#0F82BC" stroke-width="1.05592" stroke-miterlimit="10" stroke-linecap="round" stroke-linejoin="round"/>
<path id="Vector" d="M18.8388 16.2933C18.8388 16.2933 19.7634 20.1769 20.9192 21.0091C22.075 21.8413 24.063 23.4594 25.82 23.4594C26.3747 23.4594 27.5306 23.5519 29.7159 21.8413C31.9012 20.1306 32.3388 16.5707 32.3388 16.5707C33.4946 17.0793 34.373 12.1324 34.1881 11.3465C34.0032 10.5606 33.0786 11.1153 33.0786 11.1153C34.3268 3.25571 29.3336 0.527954 25.2189 0.527954C21.1042 0.527954 16.7184 4.15356 18.0991 11.4851C18.0991 11.4851 17.1282 10.0057 16.6196 11.069C16.111 12.1324 17.4056 17.9578 18.8388 16.2933Z" stroke="#0F82BC" stroke-width="1.05592" stroke-miterlimit="10" stroke-linecap="round" stroke-linejoin="round"/>
<path id="Vector_2" d="M21.5693 12.3885C22.0648 12.7046 22.8221 12.8869 23.8673 12.4934" stroke="#0F82BC" stroke-width="0.527959" stroke-miterlimit="10" stroke-linecap="round" stroke-linejoin="round"/>
<path id="Vector_3" d="M30.046 12.3885C29.5506 12.7046 28.7933 12.8869 27.748 12.4934" stroke="#0F82BC" stroke-width="0.527959" stroke-miterlimit="10" stroke-linecap="round" stroke-linejoin="round"/>
<path id="Vector_4" d="M24.8887 16.5585C25.021 16.464 25.4167 16.3054 25.6449 16.5585C25.7766 16.7046 26.2799 16.7279 26.3869 16.6014C26.6409 16.3008 27.0818 16.4042 27.1007 16.5854" stroke="#0F82BC" stroke-width="0.527959" stroke-miterlimit="10" stroke-linecap="round" stroke-linejoin="round"/>
<path id="Vector_5" d="M30.1875 21.4148C30.2305 23.5846 29.9587 26.366 33.6612 27.0844C37.8926 27.9055 38.7308 27.3935 40.3874 28.1581C42.44 29.1055 44.3031 31.758 44.2399 34.8527C44.1767 37.9474 43.8925 44.1052 44.0504 46.9157C44.2083 49.7261 44.9031 53.7681 44.9978 56.326C45.0925 58.8839 45.5978 61.2523 46.482 64.4733C47.3662 67.6942 48.0609 73.9783 48.0609 78.9993C48.0609 84.0203 48.1556 85.8834 48.724 87.3992C49.2924 88.9149 49.924 90.7781 50.3345 91.8833C50.7451 92.9886 51.124 93.1464 50.8398 94.4096C50.5555 95.6727 50.7135 96.7149 50.303 97.5674C49.8924 98.4201 49.8924 99.399 49.324 99.9359C48.7556 100.473 47.2714 101.767 46.8609 101.736C46.4503 101.704 46.4189 101.136 46.4189 101.136C46.4189 101.136 45.5519 100.537 46.4003 99.8801C46.4003 99.8801 45.9136 99.3675 46.8294 98.0727L46.9241 97.4727C46.9241 97.4727 46.4416 98.1646 45.9599 98.0405C45.3892 97.8934 45.1557 97.378 45.2505 95.4518C45.3452 93.5255 45.5031 93.1782 45.1558 92.4203C44.8084 91.6624 44.6505 91.5676 44.6821 88.8835C44.7137 86.1993 44.5874 84.2414 43.7979 81.6204C43.0084 78.9994 40.1032 72.4311 39.1243 65.9891C38.1453 59.5472 38.7453 58.5682 38.6506 56.8945C38.5559 55.2209 37.786 52.7061 37.786 52.7061" stroke="#0F82BC" stroke-width="0.527959" stroke-miterlimit="10" stroke-linecap="round" stroke-linejoin="round"/>
<path id="Vector_6" d="M38.2685 33.7278C38.2685 35.3389 37.0813 37.8404 37.463 39.5363C37.8446 41.2322 40.7152 46.4348 38.0565 50.5172C35.1203 55.0258 28.001 49.1587 28.001 49.1587" stroke="#0F82BC" stroke-width="1.05592" stroke-miterlimit="10" stroke-linecap="round" stroke-linejoin="round"/>
<path id="Vector_7" d="M21.1669 21.1892C21.1421 23.4185 21.6191 26.3444 17.8058 27.0843C13.5743 27.9054 12.7361 27.3934 11.0796 28.158C9.027 29.1053 7.16383 31.7579 7.22708 34.8526C7.29033 37.9473 7.57447 44.1051 7.41651 46.9155C7.25865 49.7259 6.56386 53.768 6.46914 56.3259C6.37442 58.8837 5.86917 61.2521 4.98494 64.4731C4.10071 67.6941 3.40602 73.9782 3.40602 78.9992C3.40602 84.0202 3.31131 85.8832 2.74291 87.399C2.17451 88.9148 1.54296 90.7779 1.13242 91.8832C0.721879 92.9884 0.34291 93.1465 0.627058 94.4096C0.911206 95.6727 0.753346 96.7148 1.16389 97.5674C1.57443 98.4199 1.57443 99.399 2.14283 99.9358C2.71123 100.473 4.19543 101.767 4.60597 101.736C5.01651 101.704 5.04808 101.136 5.04808 101.136C5.04808 101.136 5.9151 100.537 5.06667 99.8801C5.06667 99.8801 5.55334 99.3674 4.63754 98.0727L4.54283 97.4727C4.54283 97.4727 5.02538 98.1645 5.50709 98.0405C6.07771 97.8934 6.31128 97.378 6.21646 95.4518C6.12174 93.5255 5.96388 93.1782 6.31117 92.4202C6.65857 91.6624 6.81643 91.5676 6.78486 88.8834C6.75329 86.1993 6.87957 84.2414 7.66909 81.6204C8.4586 78.9994 11.3637 72.431 12.3427 65.9891C13.3216 59.5471 12.7217 58.5682 12.8164 56.8945C12.9111 55.2208 13.681 52.7061 13.681 52.7061" stroke="#0F82BC" stroke-width="0.527959" stroke-miterlimit="10" stroke-linecap="round" stroke-linejoin="round"/>
<path id="Vector_8" d="M13.4097 50.5171C13.4097 50.5171 13.9 53.8665 14.0788 57.7247C14.2576 61.5829 14.7056 65.3987 14.0788 67.0521C13.452 68.7056 11.4169 71.5039 10.357 77.3971C9.29707 83.2904 7.85553 89.4804 8.40672 94.4832C8.95791 99.4861 10.1874 103.09 11.7137 112.799C13.2401 122.508 14.079 127.553 14.4015 129.631C14.724 131.708 13.5368 134.973 14.088 140.654C14.6392 146.335 15.5295 152.398 17.395 159.563C19.2605 166.729 18.8789 169.993 18.8366 170.968C18.7941 171.943 19.6421 172.749 19.4301 173.639C19.2181 174.53 18.2006 177.794 17.7766 178.6C17.3527 179.405 17.1831 180.423 18.3278 180.126C18.3278 180.126 19.2439 180.486 19.4642 180.179C19.4642 180.179 20.4477 180.734 20.9141 180.303C20.9141 180.303 21.974 180.932 22.6523 180.084C22.6523 180.084 23.0339 180.547 23.8818 180.527C24.7297 180.508 25.1538 180.338 25.2809 179.702C25.2809 179.702 26.2985 179.109 25.2809 176.353C25.2809 176.353 25.5353 175.759 25.5353 174.657C25.5353 173.555 24.8993 172.452 24.8993 171.562C24.8993 170.672 25.2385 170.544 25.2385 169.824C25.2385 169.103 24.4754 167.492 24.1786 166.008C23.8817 164.524 24.3906 154.306 24.6873 149.939C24.9841 145.572 25.4504 141.756 24.3481 137.729C23.2458 133.701 24.3057 129.885 24.4754 128.02C24.6451 126.154 24.1786 111.103 23.9666 107.796C23.7546 104.489 24.6026 98.3839 24.645 96.9C24.6874 95.4161 24.0514 92.4059 24.0514 92.4059C24.0514 92.4059 24.0358 91.8547 25.7332 91.8547C27.4306 91.8547 27.4149 92.4059 27.4149 92.4059C27.4149 92.4059 26.779 95.4161 26.8214 96.9C26.8639 98.3839 27.7118 104.489 27.4997 107.796C27.2877 111.103 26.8214 126.154 26.991 128.02C27.1606 129.885 28.2205 133.701 27.1182 137.729C26.0158 141.757 26.4822 145.572 26.7791 149.939C27.0759 154.306 27.5846 164.524 27.2878 166.008C26.991 167.492 26.2279 169.103 26.2279 169.824C26.2279 170.544 26.567 170.672 26.567 171.562C26.567 172.452 25.9311 173.555 25.9311 174.657C25.9311 175.759 26.1854 176.353 26.1854 176.353C25.1678 179.109 26.1854 179.702 26.1854 179.702C26.3127 180.338 26.7366 180.508 27.5845 180.527C28.4324 180.547 28.814 180.084 28.814 180.084C29.4924 180.932 30.5523 180.303 30.5523 180.303C31.0187 180.734 32.0022 180.179 32.0022 180.179C32.2224 180.486 33.1385 180.126 33.1385 180.126C34.2833 180.423 34.1137 179.405 33.6897 178.6C33.2658 177.794 32.2482 174.53 32.0363 173.639C31.8242 172.749 32.6723 171.943 32.6298 170.968C32.5874 169.993 32.2059 166.729 34.0713 159.563C35.9368 152.398 36.8272 146.335 37.3784 140.654C37.9296 134.973 36.7424 131.708 37.0649 129.631C37.3874 127.553 38.2263 122.508 39.7526 112.799C41.2789 103.09 42.5085 99.4862 43.0596 94.4832C43.6108 89.4803 42.1693 83.2903 41.1094 77.3971C40.0494 71.5038 38.0144 68.7056 37.3876 67.0521C36.7608 65.3987 37.2088 61.5829 37.3876 57.7247C37.5663 53.8665 38.0567 50.5171 38.0567 50.5171" stroke="#0F82BC" stroke-width="1.05592" stroke-miterlimit="10" stroke-linecap="round" stroke-linejoin="round"/>
<path id="Vector_9" d="M13.1983 33.7278C13.1983 35.3389 14.3855 37.8404 14.0039 39.5363C13.6223 41.2322 10.7516 46.4348 13.4103 50.5172C16.3465 55.0258 23.4658 49.1587 23.4658 49.1587" stroke="#0F82BC" stroke-width="1.05592" stroke-miterlimit="10" stroke-linecap="round" stroke-linejoin="round"/>
<path id="Vector_10" d="M25.7338 68.7937C25.3766 69.0725 25.6557 69.5579 25.9176 69.5607C26.355 69.5655 26.5802 68.7937 26.1569 68.7937" stroke="#0F82BC" stroke-width="0.527959" stroke-miterlimit="10" stroke-linecap="round" stroke-linejoin="round"/>
<path id="Vector_11" d="M24.168 19.1425C24.6594 19.0819 25.1643 18.9618 25.4415 19.0111C25.8065 19.0761 26.2258 19.1019 26.6015 19.0318C26.8687 18.982 27.4728 19.0331 27.8805 19.071" stroke="#0F82BC" stroke-width="0.527959" stroke-miterlimit="10" stroke-linecap="round" stroke-linejoin="round"/>
</g>
</svg>
