<svg width="100" height="82" viewBox="0 0 100 82" fill="none" xmlns="http://www.w3.org/2000/svg">
<g id="R-ICO-014597">
<path id="BG_1_" d="M99.7346 45.9228C99.0284 35.1742 88.7456 27.6975 78.2675 30.1957C74.2101 31.1632 71.3471 31.5354 70.2541 31.3138C66.4262 30.5512 64.0007 28.6503 61.8803 24.7517C55.3479 12.7396 40.304 8.31281 28.2957 14.8341C16.2836 21.3702 11.8456 36.4066 18.3781 48.4186C27.5778 65.3262 42.1641 76.2037 60.5597 79.8791C63.6179 80.4872 70.1094 81.3209 77.6092 81.4557C84.8142 81.5852 91.5761 77.8072 95.1707 71.5616C99.7237 63.6506 100.329 54.9677 99.7346 45.9228Z" fill="url(#paint0_radial_938_24581)"/>
<path id="Vector" d="M14.7002 11.193C-0.00748317 24.1603 -4.41754 43.1935 4.85004 53.7048C14.1176 64.2162 33.5533 62.2252 48.2609 49.2579C62.9686 36.2905 67.3786 17.2573 58.111 6.746C48.8434 -3.76531 29.4078 -1.77433 14.7002 11.193Z" fill="url(#paint1_radial_938_24581)"/>
<path id="Vector_2" d="M26.3463 70.8054C32.2891 70.8054 37.1067 65.9878 37.1067 60.045C37.1067 54.1023 32.2891 49.2847 26.3463 49.2847C20.4035 49.2847 15.5859 54.1023 15.5859 60.045C15.5859 65.9878 20.4035 70.8054 26.3463 70.8054Z" fill="url(#paint2_radial_938_24581)"/>
<path id="Vector_3" d="M62.4684 36.9602C68.4112 36.9602 73.2287 32.1426 73.2287 26.1998C73.2287 20.257 68.4112 15.4395 62.4684 15.4395C56.5256 15.4395 51.708 20.257 51.708 26.1998C51.708 32.1426 56.5256 36.9602 62.4684 36.9602Z" fill="url(#paint3_radial_938_24581)"/>
</g>
<defs>
<radialGradient id="paint0_radial_938_24581" cx="0" cy="0" r="1" gradientTransform="matrix(42.2016 -37.8641 35.392 39.446 28.2844 23.5435)" gradientUnits="userSpaceOnUse">
<stop offset="0.758" stop-color="#B5891C"/>
<stop offset="1" stop-color="#CCA432"/>
</radialGradient>
<radialGradient id="paint1_radial_938_24581" cx="0" cy="0" r="1" gradientTransform="matrix(-16.1703 -18.5366 26.5308 -23.1437 31.4696 30.2141)" gradientUnits="userSpaceOnUse">
<stop stop-color="#E8C971"/>
<stop offset="0.2476" stop-color="#E6C76D"/>
<stop offset="0.4823" stop-color="#E1C062"/>
<stop offset="0.712" stop-color="#D8B54F"/>
<stop offset="0.9373" stop-color="#CCA534"/>
<stop offset="0.9443" stop-color="#CCA433"/>
<stop offset="1" stop-color="#C49E31"/>
</radialGradient>
<radialGradient id="paint2_radial_938_24581" cx="0" cy="0" r="1" gradientUnits="userSpaceOnUse" gradientTransform="translate(26.3463 60.045) scale(10.7604)">
<stop offset="0.0038" stop-color="#A8C9FF"/>
<stop offset="1" stop-color="#5F9CFF"/>
</radialGradient>
<radialGradient id="paint3_radial_938_24581" cx="0" cy="0" r="1" gradientUnits="userSpaceOnUse" gradientTransform="translate(62.4684 26.1998) scale(10.7604 10.7604)">
<stop offset="0.0038" stop-color="#A8C9FF"/>
<stop offset="1" stop-color="#5F9CFF"/>
</radialGradient>
</defs>
</svg>
