<svg width="44" height="57" viewBox="0 0 44 57" fill="none" xmlns="http://www.w3.org/2000/svg">
<g id="R-ICO-013565">
<path id="Vector" d="M2.27051 56.2904C16.6937 56.46 17.0247 28.3186 17.0247 28.3186C17.0247 28.3186 17.3557 0.173384 2.93251 0.00378418C2.93251 0.00378418 15.2027 3.34788 21.9467 3.42718C28.6907 3.50648 41.0362 0.451984 41.0362 0.451984C26.613 0.282284 26.282 28.4275 26.282 28.4275C26.282 28.4275 25.951 56.5689 40.3743 56.7386C40.3743 56.7386 28.1393 53.3949 21.3601 53.3152C14.5807 53.2357 2.27051 56.2904 2.27051 56.2904Z" fill="url(#paint0_linear_938_22870)"/>
<path id="Vector_2" d="M29.5708 28.4626C29.3137 50.3227 39.093 47.5932 40.4814 47.6096C41.8698 47.6259 42.7824 49.1266 42.7409 52.6552C42.7078 55.4738 42.1856 56.7563 40.374 56.735C25.9509 56.5654 26.2819 28.424 26.2819 28.424C26.2819 28.424 26.6129 0.278795 41.0362 0.448395C42.846 0.469695 43.6108 1.8332 43.5784 4.5821C43.5461 7.331 42.3172 9.5937 40.9288 9.5774C39.5404 9.5611 29.8279 6.6026 29.5708 28.4626Z" fill="#D7B532"/>
<path id="Vector_3" d="M13.7372 28.2764C13.4801 50.1365 3.76755 47.1778 2.37915 47.1615C0.99075 47.1452 0.0430501 48.624 0.00155009 52.1526C-0.0316499 54.9712 0.46025 56.2656 2.27175 56.2869C16.695 56.4565 17.026 28.3151 17.026 28.3151C17.026 28.3151 17.357 0.169947 2.93385 0.000246693C1.12405 -0.0209533 0.32745 1.32415 0.29505 4.07305C0.26265 6.82195 1.43805 9.11295 2.82645 9.12925C4.21485 9.14555 13.9943 6.41635 13.7372 28.2764Z" fill="#D7B532"/>
</g>
<defs>
<linearGradient id="paint0_linear_938_22870" x1="21.9081" y1="3.54057" x2="21.3206" y2="53.3266" gradientUnits="userSpaceOnUse">
<stop stop-color="#8A8FD2"/>
<stop offset="0.0308" stop-color="#8186CD"/>
<stop offset="0.1698" stop-color="#5B62BA"/>
<stop offset="0.2988" stop-color="#4047AC"/>
<stop offset="0.4128" stop-color="#3038A4"/>
<stop offset="0.5" stop-color="#2A32A1"/>
<stop offset="0.5872" stop-color="#3038A4"/>
<stop offset="0.7012" stop-color="#4047AC"/>
<stop offset="0.8302" stop-color="#5B62BA"/>
<stop offset="0.9692" stop-color="#8186CD"/>
<stop offset="1" stop-color="#8A8FD2"/>
</linearGradient>
</defs>
</svg>
