<svg width="101" height="69" viewBox="0 0 101 69" fill="none" xmlns="http://www.w3.org/2000/svg">
<g id="R-ICO-014856">
<path id="BG" d="M97.2346 64.5442C106.101 53.155 92.5158 34.7407 73.2591 18.7751C60.8687 8.50234 40.9038 0.75754 28.9553 0.0926285C15.4694 -0.657809 -2.5249 3.70531 0.327352 23.3547C2.77762 40.2345 27.2396 33.4513 49.3602 42.8303C72.885 52.8046 86.7116 78.0616 97.2346 64.5442Z" fill="url(#paint0_radial_938_25759)"/>
<g id="IN">
<path id="Vector" opacity="0.5" d="M6.63948 7.12685C14.1014 2.93851 13.6049 36.4603 5.06967 30.1124C0.0223719 26.3586 1.33798 10.1026 6.63948 7.12685Z" fill="#E57373"/>
<path id="Vector_2" opacity="0.5" d="M13.1629 3.84232C22.2843 -1.31304 21.6771 39.9481 11.2438 32.1347C5.07399 27.5143 6.68235 7.50511 13.1629 3.84232Z" fill="#E57373"/>
<path id="Vector_3" opacity="0.5" d="M22.1051 2.51175C33.1426 -3.06801 32.4106 41.5942 19.7847 33.1361C12.3183 28.1344 14.2632 6.47601 22.1051 2.51175Z" fill="#E57373"/>
<path id="Vector_4" opacity="0.5" d="M30.3024 2.53895C41.34 -3.30347 40.607 43.4591 27.9812 34.6035C20.5149 29.3668 22.4604 6.68984 30.3024 2.53895Z" fill="#E57373"/>
<path id="Vector_5" opacity="0.5" d="M40.1187 4.17085C51.1564 -1.75095 50.423 45.6464 37.7974 36.6707C30.3311 31.363 32.2768 8.37818 40.1187 4.17085Z" fill="#E57373"/>
<path id="Vector_6" opacity="0.5" d="M49.1246 7.41548C60.1623 1.49368 59.4289 48.8911 46.8032 39.9153C39.337 34.6076 41.2826 11.6228 49.1246 7.41548Z" fill="#E57373"/>
<path id="Vector_7" opacity="0.5" d="M58.1295 12.7793C69.167 7.0363 68.4344 53.0045 55.8086 44.2992C48.3423 39.1514 50.2876 16.8597 58.1295 12.7793Z" fill="#E57373"/>
<path id="Vector_8" opacity="0.5" d="M66.3248 17.6431C77.3624 11.9001 76.6298 57.8683 64.004 49.163C56.5377 44.0151 58.4829 21.7234 66.3248 17.6431Z" fill="#E57373"/>
<path id="Vector_9" opacity="0.5" d="M74.5182 24.9941C85.5556 19.5613 84.8243 63.0484 72.1983 54.8127C64.7317 49.9424 66.6764 28.854 74.5182 24.9941Z" fill="#E57373"/>
<path id="Vector_10" opacity="0.5" d="M81.9019 32.4017C92.9393 27.0098 92.2082 70.1703 79.5821 61.9963C72.1156 57.1626 74.0602 36.2325 81.9019 32.4017Z" fill="#E57373"/>
<path id="Vector_11" opacity="0.5" d="M88.4743 42.0577C99.5111 37.7144 98.7844 72.4895 86.1575 65.9023C78.6905 62.007 80.6329 45.1435 88.4743 42.0577Z" fill="#E57373"/>
</g>
<path id="FG" opacity="0.3" d="M97.2346 64.5442C106.101 53.155 92.5158 34.7407 73.2591 18.7751C60.8687 8.50234 40.9038 0.75754 28.9553 0.0926285C15.4694 -0.657809 -2.5249 3.70531 0.327352 23.3547C2.77762 40.2345 27.2396 33.4513 49.3602 42.8303C72.885 52.8046 86.7116 78.0616 97.2346 64.5442Z" fill="url(#paint1_radial_938_25759)"/>
</g>
<defs>
<radialGradient id="paint0_radial_938_25759" cx="0" cy="0" r="1" gradientTransform="matrix(-52.4575 -19.6 9.90375 -26.5171 40.4957 24.6107)" gradientUnits="userSpaceOnUse">
<stop stop-color="#D9493F"/>
<stop offset="0.2993" stop-color="#AD342D"/>
<stop offset="1" stop-color="#7A2420"/>
</radialGradient>
<radialGradient id="paint1_radial_938_25759" cx="0" cy="0" r="1" gradientTransform="matrix(-52.4575 -19.6 9.90375 -26.5171 40.4957 24.6107)" gradientUnits="userSpaceOnUse">
<stop stop-color="#D9493F"/>
<stop offset="0.2993" stop-color="#AD342D"/>
<stop offset="1" stop-color="#7A2420"/>
</radialGradient>
</defs>
</svg>
