<svg width="44" height="31" viewBox="0 0 44 31" fill="none" xmlns="http://www.w3.org/2000/svg">
<g id="R-ICO-014057">
<g id="tetX">
<g id="Vector">
<path d="M2.06475 8.23718L21.0648 0.320513C21.5571 0.115385 22.1109 0.115385 22.6032 0.320513L41.6032 8.23718C42.3485 8.54772 42.834 9.27593 42.834 10.0833V19.9167C42.834 20.7241 42.3485 21.4523 41.6032 21.7628L22.6032 29.6795C22.1109 29.8846 21.5571 29.8846 21.0648 29.6795L2.06475 21.7628C1.31946 21.4523 0.833984 20.7241 0.833984 19.9167V10.0833C0.833984 9.27593 1.31946 8.54772 2.06475 8.23718Z" fill="url(#paint0_linear_938_23156)"/>
<path d="M41.8389 14.2102C41.8502 12.8346 41.8648 11.459 41.8832 10.0833C41.8988 9.67051 41.6426 9.25457 41.2511 9.0822C34.9618 6.33759 28.7124 3.4974 22.5311 0.493579C22.103 0.280338 21.5767 0.241754 21.1007 0.40667C21.0767 0.349215 21.0528 0.291759 21.0288 0.234304C21.5243 -0.00973084 22.1319 -0.048315 22.6753 0.147395C29.1607 2.42137 35.5779 4.85894 41.9553 7.39211C43.0263 7.80984 43.787 8.91922 43.7848 10.0833C43.8032 11.459 43.8178 12.8346 43.8291 14.2102C43.8392 16.1123 43.8328 18.0145 43.8174 19.9167C43.824 21.0935 43.0584 22.2209 41.9726 22.6493C40.0365 23.4304 38.0976 24.2048 36.1598 24.9817C31.7327 26.7673 27.2752 28.4801 22.8 30.1506C22.7998 30.1507 22.7997 30.1507 22.7996 30.1508C22.1827 30.3909 21.4788 30.3695 20.8883 30.1029C17.0195 28.3456 13.1318 26.6329 9.1872 25.0577C6.75995 24.087 4.3091 23.1727 1.85639 22.2629C0.915951 21.9178 0.218982 20.9569 0.199301 19.9167C0.145951 18.5409 0.0959295 17.1651 0.0574352 15.7894C0.0141788 13.8874 -0.00243634 11.9853 -0.000253141 10.0833C-0.0119795 8.96541 0.713593 7.88793 1.74841 7.47794C3.68215 6.69165 5.62311 5.92266 7.56731 5.1614C12.0137 3.42122 16.4936 1.76102 21.0288 0.234304C21.0528 0.291759 21.0767 0.349215 21.1007 0.40667C16.8231 2.55192 12.4897 4.56387 8.1233 6.49577C6.21378 7.34022 4.30104 8.17695 2.38108 8.99636C1.95343 9.17648 1.66212 9.62433 1.66817 10.0833C1.67035 11.9853 1.65373 13.8873 1.61048 15.7894C1.57198 17.1651 1.52204 18.5409 1.4688 19.9167C1.4314 20.4533 1.75133 21.0176 2.27325 21.2624C4.64643 22.3631 7.02148 23.4593 9.41983 24.4994C13.3159 26.1911 17.2692 27.7462 21.2412 29.2561C21.6221 29.3984 22.0523 29.3771 22.4069 29.2083C22.407 29.2082 22.4071 29.2081 22.4072 29.2081C26.7445 27.2067 31.0995 25.2477 35.4847 23.3615C37.4008 22.5325 39.3159 21.7011 41.2338 20.8763C41.6105 20.7146 41.8617 20.3167 41.8505 19.9167C41.8351 18.0145 41.8288 16.1123 41.8389 14.2102Z" fill="#BD0D6C"/>
</g>
<text id="T" fill="white" xml:space="preserve" style="white-space: pre" font-family="Arial" font-size="12" font-weight="bold" letter-spacing="0em"><tspan x="10.4961" y="19.1602">tetX</tspan></text>
</g>
</g>
<defs>
<linearGradient id="paint0_linear_938_23156" x1="21.834" y1="30" x2="21.834" y2="0" gradientUnits="userSpaceOnUse">
<stop stop-color="#BD0D6C"/>
<stop offset="1" stop-color="#FF3C2B"/>
</linearGradient>
</defs>
</svg>
