<svg width="93" height="23" viewBox="0 0 93 23" fill="none" xmlns="http://www.w3.org/2000/svg">
<g id="R-ICO-013775">
<g id="RAGULATOR">
<path d="M0.852539 11.5C0.852539 5.97715 5.32969 1.5 10.8525 1.5H80.8525C86.3754 1.5 90.8525 5.97715 90.8525 11.5C90.8525 17.0228 86.3754 21.5 80.8525 21.5H10.8525C5.32969 21.5 0.852539 17.0228 0.852539 11.5Z" fill="url(#paint0_linear_938_23800)"/>
<path d="M61.5608 2.99266C44.658 2.87443 27.7553 2.52283 10.8525 1.64001C10.8525 1.54664 10.8525 1.45328 10.8525 1.35991C27.7553 0.477089 44.658 0.125486 61.5608 0.00726104C67.9912 -0.0214814 74.4219 0.0395025 80.8525 0.112959C83.1505 0.12938 85.4408 0.871883 87.3022 2.20028C90.2917 4.28497 92.1217 7.89901 92.0271 11.5C92.063 17.4689 86.58 22.5881 80.8533 22.2659C80.8531 22.2659 80.8528 22.2658 80.8525 22.2658C72.4014 22.0221 63.9494 21.8466 55.4984 21.953C47.0471 22.056 38.595 22.4645 30.1436 22.6648C23.7133 22.7887 17.2829 22.7669 10.8525 22.6813C8.59562 22.661 6.3511 21.9222 4.53604 20.6094C1.62297 18.5431 -0.126149 14.9956 0.00732982 11.5C0.0377793 5.69664 5.46042 0.884833 10.8525 1.35991C10.8525 1.45328 10.8525 1.54664 10.8525 1.64001C5.59169 1.85598 1.40811 6.64989 1.6976 11.5C1.77819 14.4574 3.36909 17.2506 5.77302 18.8285C7.27425 19.8301 9.06562 20.3499 10.8525 20.3188C17.2828 20.2332 23.7132 20.2114 30.1436 20.3353C38.595 20.5356 47.047 20.9428 55.4984 21.0457C63.9496 21.1521 72.4013 20.978 80.8525 20.7342C80.8528 20.7342 80.853 20.7342 80.8532 20.7342C85.7793 20.6701 89.901 16.1838 89.678 11.5C89.6363 8.64862 88.1269 5.92239 85.8001 4.36261C84.345 3.37615 82.5989 2.85972 80.8525 2.88699C74.422 2.96052 67.9912 3.02161 61.5608 2.99266Z" fill="#EA9611"/>
<text id="RAGULATOR_2" fill="white" xml:space="preserve" style="white-space: pre" font-family="Arial" font-size="12" font-weight="bold" letter-spacing="0em"><tspan x="8.05371" y="15.6602">RAGULATOR</tspan></text>
</g>
</g>
<defs>
<linearGradient id="paint0_linear_938_23800" x1="45.8525" y1="1.5" x2="45.8525" y2="21.5" gradientUnits="userSpaceOnUse">
<stop stop-color="#EA9611"/>
<stop offset="1" stop-color="#F23818"/>
</linearGradient>
</defs>
</svg>
