<svg width="43" height="136" viewBox="0 0 43 136" fill="none" xmlns="http://www.w3.org/2000/svg">
<g id="R-ICO-014656">
<g id="Group">
<path id="Vector" d="M4.76273 134.366C3.71682 134.366 2.8689 133.518 2.8689 132.472V99.0938C2.8689 91.3209 7.37048 87.0408 11.7242 82.9017C15.9354 78.8981 19.9136 75.1164 19.9136 68.081V41.7404C19.9136 33.0123 22.3873 29.0304 24.5687 25.5178C26.5171 22.382 28.1992 19.674 28.1992 13.6429C28.1992 12.5969 29.0472 11.749 30.093 11.749C31.1388 11.749 31.9868 12.597 31.9868 13.6429C31.9868 20.755 29.8516 24.1922 27.7867 27.5166C25.6857 30.8984 23.7013 34.0929 23.7013 41.7404V68.081C23.7013 76.7416 18.7253 81.4725 14.3347 85.6468C10.2149 89.564 6.65656 92.9462 6.65656 99.0938V132.472C6.65656 133.518 5.80863 134.366 4.76273 134.366Z" fill="url(#paint0_linear_938_23012)"/>
<path id="Vector_2" d="M38.2181 27.2863C31.2536 27.2863 26.927 22.0585 26.927 13.643C26.927 5.22774 31.2536 0 38.2181 0C40.3827 0 42.1378 1.75508 42.1378 3.91972C42.1378 6.08437 40.3827 7.83944 38.2181 7.83944C37.1854 7.83944 34.7665 7.83944 34.7665 13.6429C34.7665 19.4468 37.1854 19.4468 38.2181 19.4468C40.3827 19.4468 42.1378 21.2018 42.1378 23.3665C42.1378 25.5311 40.3827 27.2863 38.2181 27.2863Z" fill="url(#paint1_radial_938_23012)"/>
<path id="Vector_3" d="M11.2944 123.344C4.32994 123.346 0.0020158 118.119 7.03792e-07 109.704C-0.00201439 101.289 4.32332 96.0598 11.2878 96.0581C13.4524 96.0576 15.2079 97.8123 15.2085 99.9769C15.209 102.142 13.4544 103.897 11.2897 103.898C10.257 103.898 7.83815 103.898 7.83952 109.702C7.84096 115.506 10.2598 115.505 11.2925 115.505C13.4572 115.504 15.2127 117.259 15.2133 119.424C15.2138 121.588 13.459 123.344 11.2944 123.344Z" fill="url(#paint2_radial_938_23012)"/>
</g>
<g id="Group_2">
<path id="Vector_4" d="M28.2331 135.2C29.279 135.2 30.1269 134.352 30.1269 133.306V130.111C30.1269 126.76 28.6372 125.074 27.4396 123.72C26.3887 122.531 25.629 121.672 25.629 119.577C25.629 117.416 26.4215 116.49 27.5182 115.207C28.6807 113.848 30.1269 112.157 30.1269 109.042V63.5883C30.1269 54.8371 25.0552 49.2226 20.5809 44.2693C19.658 43.2475 18.786 42.2824 17.9671 41.3041C13.668 36.1658 13.6713 27.9269 13.674 21.3072V20.8162C13.674 19.7703 12.826 18.9224 11.7802 18.9224C10.7344 18.9224 9.88636 19.7704 9.88636 20.8162V21.3059C9.88356 28.5391 9.87989 37.5409 15.0626 43.7344C15.9272 44.7683 16.8639 45.8053 17.7702 46.8082C21.9828 51.4721 26.3393 56.2946 26.3393 63.5884V109.042C26.3393 110.758 25.6633 111.549 24.6396 112.746C23.393 114.204 21.8414 116.017 21.8414 119.577C21.8414 123.105 23.3718 124.837 24.6017 126.228C25.648 127.412 26.3393 128.194 26.3393 130.111V133.306C26.3393 134.352 27.1873 135.2 28.2331 135.2Z" fill="url(#paint3_linear_938_23012)"/>
<path id="Vector_5" d="M4.98247 7.17334C11.9469 7.17334 16.2736 12.4011 16.2736 20.8166C16.2736 29.2318 11.9469 34.4595 4.98247 34.4595C2.81782 34.4595 1.06274 32.7045 1.06274 30.5398C1.06274 28.3752 2.81782 26.6201 4.98247 26.6201C6.0152 26.6201 8.43404 26.6201 8.43404 20.8166C8.43404 15.0128 6.0152 15.0128 4.98247 15.0128C2.81782 15.0128 1.06274 13.2577 1.06274 11.0931C1.06274 8.92842 2.81782 7.17334 4.98247 7.17334Z" fill="url(#paint4_radial_938_23012)"/>
<path id="Vector_6" d="M22.502 82.9321C29.4665 82.9321 33.7931 88.1599 33.7931 96.5755C33.7931 104.991 29.4665 110.218 22.502 110.218C20.3374 110.218 18.5823 108.463 18.5823 106.299C18.5823 104.134 20.3374 102.379 22.502 102.379C23.5347 102.379 25.9536 102.379 25.9536 96.5756C25.9536 90.7717 23.5347 90.7717 22.502 90.7717C20.3374 90.7717 18.5823 89.0166 18.5823 86.852C18.5823 84.6872 20.3374 82.9321 22.502 82.9321Z" fill="url(#paint5_radial_938_23012)"/>
</g>
</g>
<defs>
<linearGradient id="paint0_linear_938_23012" x1="-11.0723" y1="80.6942" x2="45.9281" y2="65.421" gradientUnits="userSpaceOnUse">
<stop stop-color="#270F85"/>
<stop offset="1" stop-color="#C8B6FF"/>
</linearGradient>
<radialGradient id="paint1_radial_938_23012" cx="0" cy="0" r="1" gradientUnits="userSpaceOnUse" gradientTransform="translate(40.4213 13.6431) scale(15.2353)">
<stop stop-color="#D4E8FF"/>
<stop offset="1" stop-color="#465791"/>
</radialGradient>
<radialGradient id="paint2_radial_938_23012" cx="0" cy="0" r="1" gradientUnits="userSpaceOnUse" gradientTransform="translate(13.5119 109.675) scale(15.2353 15.2353)">
<stop stop-color="#D4E8FF"/>
<stop offset="1" stop-color="#465791"/>
</radialGradient>
<linearGradient id="paint3_linear_938_23012" x1="11.0122" y1="79.4711" x2="33.6934" y2="73.3937" gradientUnits="userSpaceOnUse">
<stop stop-color="#270F85"/>
<stop offset="1" stop-color="#C8B6FF"/>
</linearGradient>
<radialGradient id="paint4_radial_938_23012" cx="0" cy="0" r="1" gradientUnits="userSpaceOnUse" gradientTransform="translate(2.77925 20.8164) rotate(180) scale(15.2353)">
<stop stop-color="#D4E8FF"/>
<stop offset="1" stop-color="#465791"/>
</radialGradient>
<radialGradient id="paint5_radial_938_23012" cx="0" cy="0" r="1" gradientUnits="userSpaceOnUse" gradientTransform="translate(20.2988 96.5753) rotate(180) scale(15.2353 15.2353)">
<stop stop-color="#D4E8FF"/>
<stop offset="1" stop-color="#465791"/>
</radialGradient>
</defs>
</svg>
