<svg width="62" height="41" viewBox="0 0 62 41" fill="none" xmlns="http://www.w3.org/2000/svg">
<g id="R-ICO-014273">
<g id="BIG PIECES">
<path id="Vector" d="M40.4105 13.0064L40.3874 21.158C36.2026 21.1709 32.5562 19.8631 30.5835 17.9194L30.6066 9.76782C32.5793 11.7115 36.2256 13.0193 40.4105 13.0064Z" fill="url(#paint0_linear_938_24429)"/>
<path id="Vector_2" d="M30.6062 9.76782L30.5831 17.9194C28.668 19.875 25.0606 21.2051 20.9028 21.2179L20.9259 13.0663C25.0838 13.0535 28.6911 11.7235 30.6062 9.76782Z" fill="url(#paint1_linear_938_24429)"/>
<path id="Vector_3" d="M61.3825 16.2002L61.3594 24.3518C61.4123 27.9331 56.4247 30.8679 50.2329 30.8869L50.256 22.7353C56.4478 22.7163 61.4354 19.7815 61.3825 16.2002Z" fill="url(#paint2_linear_938_24429)"/>
<path id="Vector_4" d="M11.3687 22.8549L11.3456 31.0065C5.1269 31.0256 0.0529 28.1218 0 24.5405L0.0231 16.3889C0.076 19.9702 5.15 22.874 11.3687 22.8549Z" fill="url(#paint3_linear_938_24429)"/>
<path id="Vector_5" d="M9.87256 34.2026L9.89566 26.051C9.89556 26.0732 9.89576 26.0955 9.89606 26.1178C9.94906 29.7044 15.023 32.603 21.2147 32.5839C25.3725 32.5711 28.9799 31.2411 30.895 29.2854L30.8719 37.437C28.9568 39.3926 25.3494 40.7227 21.1916 40.7354C14.9999 40.7544 9.92596 37.8558 9.87296 34.2693C9.87266 34.2471 9.87256 34.2249 9.87256 34.2026Z" fill="url(#paint4_linear_938_24429)"/>
<path id="Vector_6" d="M51.7981 25.989L51.775 34.1406C51.828 37.7272 46.8403 40.6567 40.6485 40.6757C36.4907 40.6885 32.8443 39.3808 30.8716 37.4371L30.8947 29.2855C32.8675 31.2292 36.5138 32.5369 40.6717 32.5241C46.8634 32.5051 51.8511 29.5755 51.7981 25.989Z" fill="url(#paint5_linear_938_24429)"/>
</g>
<g id="SMALL PIECES">
<path id="Vector_7" d="M51.5103 6.53296L51.4872 9.76786L50.0371 9.72896C50.9681 8.78486 51.507 7.69646 51.5103 6.53296Z" fill="url(#paint6_linear_938_24429)"/>
<path id="Vector_8" d="M11.1497 9.84857L9.58447 9.91547L9.60757 6.59497C9.62517 7.78357 10.1996 8.89227 11.1497 9.84857Z" fill="url(#paint7_linear_938_24429)"/>
<path id="Vector_9" d="M38.9053 19.5865L38.9284 16.2034C38.9284 16.2253 38.9285 16.2472 38.9288 16.2692C38.9463 17.4525 39.5297 18.5612 40.4798 19.5175H40.4567C40.4798 19.5175 38.9053 19.5865 38.9053 19.5865Z" fill="url(#paint8_linear_938_24429)"/>
<path id="Vector_10" d="M22.4777 16.386L22.4546 19.6272L21.0044 19.5774C21.9355 18.6332 22.4744 17.5447 22.4777 16.386Z" fill="url(#paint9_linear_938_24429)"/>
</g>
<path id="FG" d="M61.3825 16.2004C61.4354 19.7817 56.4478 22.7165 50.256 22.7355C51.2061 23.6918 51.7805 24.8005 51.7981 25.989C51.8511 29.5756 46.8634 32.5051 40.6716 32.5241C36.5138 32.5369 32.8674 31.2292 30.8947 29.2855C28.9796 31.2411 25.3722 32.5712 21.2144 32.584C15.0227 32.603 9.94878 29.7044 9.89578 26.1179C9.87818 24.9293 10.4198 23.8173 11.3686 22.8551C5.14978 22.8742 0.0757794 19.9704 0.0228794 16.389C-0.0301206 12.8024 4.95758 9.86769 11.1493 9.84859C10.1992 8.89239 9.62478 7.78369 9.60718 6.59509C9.55428 3.01379 14.542 0.0790927 20.7337 0.0599927C24.8915 0.0471927 28.5379 1.35489 30.5106 3.29859C32.4257 1.34299 36.0331 0.0128927 40.1909 9.2711e-05C46.3826 -0.0189073 51.4566 2.88489 51.5095 6.46619C51.5271 7.65479 50.9855 8.76689 50.0367 9.72899C56.2555 9.70999 61.3295 12.6138 61.3825 16.2004ZM40.4794 19.5177C39.5292 18.5614 38.9459 17.4527 38.9284 16.2694C38.9108 15.0808 39.4614 13.9687 40.4102 13.0066C36.2254 13.0195 32.579 11.7117 30.6063 9.76799C28.6912 11.7236 25.0838 13.0537 20.926 13.0665C21.8851 14.0228 22.4595 15.1314 22.4771 16.32C22.4946 17.5034 21.953 18.6155 21.0042 19.5776C25.18 19.5648 28.8264 20.8725 30.7991 22.8162C32.7142 20.8606 36.3216 19.5305 40.4794 19.5177Z" fill="url(#paint10_radial_938_24429)"/>
</g>
<defs>
<linearGradient id="paint0_linear_938_24429" x1="30.5835" y1="15.463" x2="40.4105" y2="15.463" gradientUnits="userSpaceOnUse">
<stop stop-color="#5F532A"/>
<stop offset="0.9993" stop-color="#AA8E29"/>
</linearGradient>
<linearGradient id="paint1_linear_938_24429" x1="20.9028" y1="15.4929" x2="30.6062" y2="15.4929" gradientUnits="userSpaceOnUse">
<stop stop-color="#5F532A"/>
<stop offset="0.9993" stop-color="#AA8E29"/>
</linearGradient>
<linearGradient id="paint2_linear_938_24429" x1="50.2329" y1="23.5436" x2="61.3829" y2="23.5436" gradientUnits="userSpaceOnUse">
<stop stop-color="#5F532A"/>
<stop offset="0.9993" stop-color="#AA8E29"/>
</linearGradient>
<linearGradient id="paint3_linear_938_24429" x1="0" y1="23.6978" x2="11.3687" y2="23.6978" gradientUnits="userSpaceOnUse">
<stop stop-color="#5F532A"/>
<stop offset="0.9993" stop-color="#AA8E29"/>
</linearGradient>
<linearGradient id="paint4_linear_938_24429" x1="9.87256" y1="33.3933" x2="30.8949" y2="33.3933" gradientUnits="userSpaceOnUse">
<stop stop-color="#5F532A"/>
<stop offset="0.9993" stop-color="#AA8E29"/>
</linearGradient>
<linearGradient id="paint5_linear_938_24429" x1="30.8716" y1="33.3325" x2="51.7985" y2="33.3325" gradientUnits="userSpaceOnUse">
<stop stop-color="#5F532A"/>
<stop offset="0.9993" stop-color="#AA8E29"/>
</linearGradient>
<linearGradient id="paint6_linear_938_24429" x1="50.0371" y1="8.15042" x2="51.5103" y2="8.15042" gradientUnits="userSpaceOnUse">
<stop stop-color="#5F532A"/>
<stop offset="0.9993" stop-color="#AA8E29"/>
</linearGradient>
<linearGradient id="paint7_linear_938_24429" x1="9.58447" y1="8.25523" x2="11.1497" y2="8.25523" gradientUnits="userSpaceOnUse">
<stop stop-color="#5F532A"/>
<stop offset="0.9993" stop-color="#AA8E29"/>
</linearGradient>
<linearGradient id="paint8_linear_938_24429" x1="38.9053" y1="17.8949" x2="40.4798" y2="17.8949" gradientUnits="userSpaceOnUse">
<stop stop-color="#5F532A"/>
<stop offset="0.9993" stop-color="#AA8E29"/>
</linearGradient>
<linearGradient id="paint9_linear_938_24429" x1="21.0044" y1="18.0066" x2="22.4777" y2="18.0066" gradientUnits="userSpaceOnUse">
<stop stop-color="#5F532A"/>
<stop offset="0.9993" stop-color="#AA8E29"/>
</linearGradient>
<radialGradient id="paint10_radial_938_24429" cx="0" cy="0" r="1" gradientUnits="userSpaceOnUse" gradientTransform="translate(30.7027 16.2929) scale(24.5632 14.0993)">
<stop stop-color="#EBCE64"/>
<stop offset="1" stop-color="#AA8E29"/>
</radialGradient>
</defs>
</svg>
