<svg width="56" height="23" viewBox="0 0 56 23" fill="none" xmlns="http://www.w3.org/2000/svg">
<g id="R-ICO-014679">
<g id="HIBCH">
<path d="M1.07666 11.5005C1.07666 5.97764 5.55381 1.50049 11.0767 1.50049H44.0767C49.5995 1.50049 54.0767 5.97764 54.0767 11.5005C54.0767 17.0233 49.5995 21.5005 44.0767 21.5005H11.0767C5.55381 21.5005 1.07666 17.0233 1.07666 11.5005Z" fill="url(#paint0_linear_938_24142)"/>
<path d="M43.285 2.99314C32.5489 2.87492 21.8128 2.52332 11.0767 1.64049C11.0767 1.54713 11.0767 1.45376 11.0767 1.3604C21.8128 0.477578 32.5489 0.125974 43.285 0.00774932C43.5489 0.0058924 43.8128 0.00441003 44.0767 0.00328124C50.0625 -0.154233 55.3967 5.19012 55.3844 11.0532C55.3882 11.2017 55.3891 11.3508 55.3869 11.5005C55.4471 17.5549 49.8036 22.7002 44.0772 22.2663C44.077 22.2663 44.0768 22.2663 44.0767 22.2663C38.7087 22.0226 33.3403 21.8471 27.9725 21.9535C22.6044 22.0564 17.2359 22.465 11.8678 22.6653C11.6041 22.6733 11.3404 22.6807 11.0767 22.6875C5.24462 22.9686 -0.0814581 17.6938 0.000988841 11.9392C-0.000861645 11.7935 0.000186682 11.6472 0.00417495 11.5005C0.0105249 5.56442 5.67504 0.684331 11.0767 1.3604C11.0767 1.45376 11.0767 1.54713 11.0767 1.64049C5.82528 2.05738 1.88344 6.78333 2.14905 11.5005C2.15304 11.6193 2.15927 11.7374 2.16768 11.8547C2.42466 16.4676 6.53922 20.2706 11.0767 20.3135C11.3404 20.3204 11.6041 20.3277 11.8678 20.3357C17.2359 20.5361 22.6044 20.9433 27.9725 21.0462C33.3404 21.1526 38.7087 20.9784 44.0767 20.7347C44.0768 20.7347 44.0769 20.7347 44.0771 20.7347C49.0036 20.5592 52.9653 16.099 52.7665 11.5005C52.7643 11.3849 52.76 11.2699 52.7536 11.1557C52.5674 6.6512 48.4603 2.91715 44.0767 2.99765C43.8128 2.99651 43.5489 2.99501 43.285 2.99314Z" fill="#3DA045"/>
<text id="HIBCH_2" fill="white" xml:space="preserve" style="white-space: pre" font-family="Arial" font-size="12" font-weight="bold" letter-spacing="0em"><tspan x="8.56299" y="15.6606">HIBCH</tspan></text>
</g>
</g>
<defs>
<linearGradient id="paint0_linear_938_24142" x1="27.5767" y1="1.50049" x2="27.5767" y2="21.5005" gradientUnits="userSpaceOnUse">
<stop stop-color="#3DA045"/>
<stop offset="1" stop-color="#7D688B"/>
</linearGradient>
</defs>
</svg>
