<svg width="52" height="23" viewBox="0 0 52 23" fill="none" xmlns="http://www.w3.org/2000/svg">
<g id="R-ICO-014309">
<g id="container">
<g clip-path="url(#clip0_938_24433)">
<path d="M1.13477 11.2515C1.13477 5.72862 5.61192 1.25146 11.1348 1.25146H41.1348C46.6576 1.25146 51.1348 5.72862 51.1348 11.2515C51.1348 16.7743 46.6576 21.2515 41.1348 21.2515H11.1348C5.61192 21.2515 1.13477 16.7743 1.13477 11.2515Z" fill="#E0A734"/>
<g id="S/T" clip-path="url(#clip1_938_24433)">
<rect width="20" height="20" transform="translate(16.1348 1.25146)" fill="#047BCC"/>
<text id="label" fill="white" xml:space="preserve" style="white-space: pre" font-family="Arial" font-size="12" font-weight="bold" letter-spacing="0em"><tspan x="17.1348" y="15.4116">S/T</tspan></text>
</g>
</g>
<path d="M10.3216 22.7157C4.48462 22.3731 -0.328964 16.8936 0.0171123 11.2515C0.0900093 5.29186 5.74306 0.480502 11.1348 1.11146C11.1348 1.20482 11.1348 1.29819 11.1348 1.39155C5.87326 1.76348 1.92057 6.55791 2.2525 11.2515C2.37581 15.7556 6.23653 19.5801 10.5301 19.7376C10.7325 19.75 10.9315 19.7555 11.1348 19.7545C16.0166 19.7317 20.8987 19.8426 25.7806 19.935C30.8985 20.0167 36.0163 20.2169 41.1343 20.4856C41.1345 20.4856 41.1346 20.4856 41.1348 20.4856C45.9276 20.8892 50.7369 16.6015 50.6759 11.5907C50.6774 11.478 50.6769 11.3649 50.6742 11.2515C50.6433 6.35114 46.1964 2.4192 41.7619 2.43815C41.5516 2.431 41.3452 2.43081 41.1348 2.43724C36.253 2.57079 31.3712 2.48314 26.4894 2.33568C21.3712 2.17996 16.2528 1.89411 11.1348 1.39155C11.1348 1.29819 11.1348 1.20482 11.1348 1.11146C16.2528 0.608901 21.3713 0.323197 26.4894 0.167337C31.3712 0.0198766 36.2529 -0.0677773 41.1348 0.065775C41.4004 0.0722783 41.6605 0.0883038 41.9246 0.114276C47.6205 0.632622 51.8503 6.00445 51.5966 11.2515C51.5939 11.3757 51.5892 11.4993 51.5826 11.6223C51.3915 17.0095 46.7407 21.8542 41.1348 22.0172C41.1346 22.0172 41.1345 22.0172 41.1343 22.0172C36.0164 22.2861 30.8985 22.4862 25.7806 22.5679C20.8988 22.6602 16.0166 22.7714 11.1348 22.7484C10.8617 22.7473 10.5939 22.7365 10.3216 22.7157Z" fill="#997D0B"/>
</g>
</g>
<defs>
<clipPath id="clip0_938_24433">
<path d="M1.13477 11.2515C1.13477 5.72862 5.61192 1.25146 11.1348 1.25146H41.1348C46.6576 1.25146 51.1348 5.72862 51.1348 11.2515C51.1348 16.7743 46.6576 21.2515 41.1348 21.2515H11.1348C5.61192 21.2515 1.13477 16.7743 1.13477 11.2515Z" fill="white"/>
</clipPath>
<clipPath id="clip1_938_24433">
<rect width="20" height="20" fill="white" transform="translate(16.1348 1.25146)"/>
</clipPath>
</defs>
</svg>
