<svg width="110" height="24" viewBox="0 0 110 24" fill="none" xmlns="http://www.w3.org/2000/svg">
<g id="R-ICO-014353">
<g id="BRIGATINIB">
<g id="LEFT_ELEMENT">
<mask id="mask0_938_22888" style="mask-type:luminance" maskUnits="userSpaceOnUse" x="0" y="0" width="8" height="24">
<rect id="MASK" width="8" height="24" transform="matrix(-1 0 0 1 8 0)" fill="white"/>
</mask>
<g mask="url(#mask0_938_22888)">
<g id="LEFT_CORNER">
<mask id="path-2-outside-1_938_22888" maskUnits="userSpaceOnUse" x="0" y="-1" width="10" height="26" fill="black">
<rect fill="white" y="-1" width="10" height="26"/>
<path d="M2 12C2 12 6.04738 5.90524 8 2V22C6.04738 18.0948 2 12 2 12Z"/>
</mask>
<path d="M2 12C2 12 6.04738 5.90524 8 2V22C6.04738 18.0948 2 12 2 12Z" fill="url(#paint0_linear_938_22888)"/>
<path d="M2 12C2 12 6.04738 5.90524 8 2V22C6.04738 18.0948 2 12 2 12Z" stroke="#946BE6" stroke-width="4" stroke-miterlimit="3.99933" stroke-linejoin="round" mask="url(#path-2-outside-1_938_22888)"/>
</g>
</g>
</g>
<g id="CENTRE shape">
<mask id="path-3-outside-2_938_22888" maskUnits="userSpaceOnUse" x="8" y="0" width="70" height="24" fill="black">
<rect fill="white" x="8" width="70" height="24"/>
<path d="M8 2H78V22H8V2Z"/>
</mask>
<path d="M8 2H78V22H8V2Z" fill="url(#paint1_linear_938_22888)"/>
<path d="M8 2V4H78V2V0H8V2ZM78 22V20H8V22V24H78V22Z" fill="#946BE6" mask="url(#path-3-outside-2_938_22888)"/>
<text id="Chemical" fill="white" xml:space="preserve" style="white-space: pre" font-family="Arial" font-size="12" font-weight="bold" letter-spacing="0em"><tspan x="8.41797" y="16.1602">BRIGATINIB</tspan></text>
</g>
<g id="RIGHT_ELEMENT">
<mask id="mask1_938_22888" style="mask-type:luminance" maskUnits="userSpaceOnUse" x="78" y="0" width="32" height="24">
<path id="MASK_2" d="M78 24L110 24L110 -8.90181e-07L78 1.90735e-06L78 24Z" fill="white"/>
</mask>
<g mask="url(#mask1_938_22888)">
<g id="Mask group">
<g id="ELEMENT">
<g id="BG">
<mask id="path-7-outside-3_938_22888" maskUnits="userSpaceOnUse" x="76" y="-1.74846e-07" width="34" height="24" fill="black">
<rect fill="white" x="76" y="-1.74846e-07" width="34" height="24"/>
<path d="M108 12C108 12 103.953 18.0948 102 22L78 21.9999L78 2L102 2C103.953 5.90524 108 12 108 12Z"/>
</mask>
<path d="M108 12C108 12 103.953 18.0948 102 22L78 21.9999L78 2L102 2C103.953 5.90524 108 12 108 12Z" fill="#946BE6"/>
<path d="M108 12C108 12 103.953 18.0948 102 22L78 21.9999L78 2L102 2C103.953 5.90524 108 12 108 12Z" stroke="#946BE6" stroke-width="4" stroke-miterlimit="3.99933" stroke-linejoin="round" mask="url(#path-7-outside-3_938_22888)"/>
</g>
<g id="RX">
<path id="Vector" d="M87 22V14H90.3071C91.1387 14 91.743 14.0718 92.1199 14.2155C92.4968 14.3592 92.7984 14.6148 93.0249 14.9822C93.2514 15.3496 93.3647 15.7698 93.3647 16.2428C93.3647 16.843 93.193 17.3388 92.8497 17.7298C92.5064 18.1209 91.9933 18.3675 91.3103 18.4693C91.6501 18.6731 91.9305 18.8968 92.1517 19.1405C92.3728 19.3842 92.671 19.8172 93.0461 20.4393L93.9963 22H92.1172L90.9812 20.2592C90.5778 19.6371 90.3017 19.2451 90.1531 19.0832C90.0044 18.9214 89.847 18.8104 89.6807 18.7504C89.5144 18.6904 89.2507 18.6603 88.8898 18.6603H88.5713V22H87ZM88.5713 17.3834H89.7338C90.4875 17.3834 90.9583 17.3506 91.1458 17.2851C91.3333 17.2196 91.4802 17.1068 91.5864 16.9468C91.6925 16.7867 91.7456 16.5866 91.7456 16.3465C91.7456 16.0773 91.6758 15.8599 91.536 15.6944C91.3962 15.5289 91.1989 15.4243 90.9441 15.3806C90.8167 15.3625 90.4345 15.3533 89.7975 15.3533H88.5713V17.3834Z" fill="white"/>
<path id="Vector_2" d="M93.9961 21.9999L96.0291 19.0149L94.0811 16.2046H95.9018L96.8998 17.798L97.9509 16.2046H99.7027L97.7917 18.9495L99.8778 22H98.0464L96.8998 20.2047L95.7426 21.9999H93.9961Z" fill="white"/>
</g>
</g>
<g id="RIGHT_ELEMENT_2">
<mask id="mask2_938_22888" style="mask-type:alpha" maskUnits="userSpaceOnUse" x="78" y="0" width="8" height="24">
<rect id="MASK_3" x="78" width="8" height="24" fill="white"/>
</mask>
<g mask="url(#mask2_938_22888)">
<g id="LEFT_CORNER_2">
<mask id="path-11-outside-4_938_22888" maskUnits="userSpaceOnUse" x="76" y="-1" width="10" height="26" fill="black">
<rect fill="white" x="76" y="-1" width="10" height="26"/>
<path d="M84 12C84 12 79.9526 5.90524 78 2V22C79.9526 18.0948 84 12 84 12Z"/>
</mask>
<path d="M84 12C84 12 79.9526 5.90524 78 2V22C79.9526 18.0948 84 12 84 12Z" fill="url(#paint2_linear_938_22888)"/>
<path d="M84 12C84 12 79.9526 5.90524 78 2V22C79.9526 18.0948 84 12 84 12Z" stroke="#946BE6" stroke-width="4" stroke-miterlimit="3.99933" stroke-linejoin="round" mask="url(#path-11-outside-4_938_22888)"/>
</g>
</g>
</g>
</g>
</g>
</g>
</g>
</g>
<defs>
<linearGradient id="paint0_linear_938_22888" x1="5" y1="2" x2="5" y2="22" gradientUnits="userSpaceOnUse">
<stop stop-color="#FF8400"/>
<stop offset="1" stop-color="#547BE6"/>
</linearGradient>
<linearGradient id="paint1_linear_938_22888" x1="43" y1="2" x2="43" y2="22" gradientUnits="userSpaceOnUse">
<stop stop-color="#FF8400"/>
<stop offset="1" stop-color="#547BE6"/>
</linearGradient>
<linearGradient id="paint2_linear_938_22888" x1="81" y1="2" x2="81" y2="22" gradientUnits="userSpaceOnUse">
<stop stop-color="#FF8400"/>
<stop offset="1" stop-color="#547BE6"/>
</linearGradient>
</defs>
</svg>
