<svg width="38" height="23" viewBox="0 0 38 23" fill="none" xmlns="http://www.w3.org/2000/svg">
<g id="R-ICO-014378">
<g id="PROTEIN">
<path d="M1.5 1.48755H26.5C32.0228 1.48755 36.5 5.9647 36.5 11.4875C36.5 17.0104 32.0228 21.4875 26.5 21.4875H1.5V1.48755Z" fill="url(#paint0_linear_938_23150)"/>
<path d="M0.0073446 1.84166C0.00899577 1.72363 0.0106925 1.60558 0.0124356 1.48755C-0.0124456 0.646423 0.658874 0.0248655 1.5 -1.56164e-05C9.83335 0.123043 18.1666 0.477052 26.5 1.34754C26.5 1.44091 26.5 1.53427 26.5 1.62764C18.1666 2.49813 9.83335 2.85214 1.5 2.9752L2.98765 1.48755C2.98939 1.60558 2.99109 1.72363 2.99274 1.84166C3.03051 6.06736 2.9133 10.2933 2.81648 14.5191C2.77157 16.8419 2.69086 19.1647 2.58264 21.4875L1.5 20.4049C3.40273 20.4936 5.30547 20.6007 7.20823 20.7217C11.4339 20.9654 15.66 21.1409 19.8856 21.0346C22.0904 20.9808 24.2952 20.8439 26.5 20.6968C28.3683 20.5653 30.125 19.8491 31.534 18.7494C33.8041 17.0325 35.2463 14.3376 35.3187 11.4875C35.3458 10.5928 35.245 9.69499 35.0118 8.82516C34.0659 5.16896 30.6997 2.09917 26.5 1.62764C26.5 1.53427 26.5 1.44091 26.5 1.34754C30.8216 0.747784 35.5865 3.67967 37.0815 8.17855C37.4513 9.23673 37.6548 10.3587 37.6812 11.4875C37.8065 15.0898 35.9094 18.7351 32.8631 20.6626C30.9557 21.8777 28.6762 22.4208 26.5 22.2788C24.2952 22.1321 22.0904 21.9955 19.8856 21.9418C15.66 21.8355 11.434 22.0096 7.20823 22.2533C5.30549 22.3744 3.40274 22.4815 1.5 22.5702C0.88785 22.5883 0.435496 22.0997 0.417388 21.4875C0.309181 19.1647 0.228514 16.8419 0.183599 14.5191C0.0867809 10.2934 -0.0307111 6.06736 0.0073446 1.84166Z" fill="#7768FF"/>
<text id="P" fill="white" xml:space="preserve" style="white-space: pre" font-family="Arial" font-size="12" font-weight="bold" letter-spacing="0em"><tspan x="8.65234" y="15.6477">F9a</tspan></text>
</g>
</g>
<defs>
<linearGradient id="paint0_linear_938_23150" x1="19" y1="1.48755" x2="19" y2="21.4875" gradientUnits="userSpaceOnUse">
<stop stop-color="#7768FF"/>
<stop offset="1" stop-color="#2F5F5B"/>
</linearGradient>
</defs>
</svg>
