<svg width="69" height="37" viewBox="0 0 69 37" fill="none" xmlns="http://www.w3.org/2000/svg">
<g id="R-ICO-012503">
<g id="CALDAG GEFs">
<path d="M1.20752 11.4981C1.20752 5.97523 5.68467 1.49808 11.2075 1.49808H57.2075C62.7304 1.49808 67.2075 5.97523 67.2075 11.4981V25.4981C67.2075 31.0209 62.7304 35.4981 57.2075 35.4981H11.2075C5.68467 35.4981 1.20752 31.0209 1.20752 25.4981V11.4981Z" fill="url(#paint0_linear_938_23213)"/>
<path d="M56.9158 2.99073C41.6797 2.87251 26.4437 2.5209 11.2075 1.63808C11.2075 1.54472 11.2075 1.45135 11.2075 1.35799C26.4437 0.475167 41.6797 0.123563 56.9158 0.00533843C57.013 0.00485623 57.1103 0.0043993 57.2075 0.00396729C63.3437 -0.170317 68.8348 5.42427 68.6119 11.4981C68.5839 13.7829 68.553 16.0677 68.524 18.3525C68.4985 20.7344 68.4613 23.1162 68.4141 25.4981C68.4493 31.4863 62.9346 36.6071 57.2082 36.2639C57.208 36.2639 57.2078 36.2639 57.2075 36.2639C49.5897 36.0202 41.9711 35.8447 34.3534 35.9511C26.7353 36.054 19.1166 36.4626 11.4986 36.6629C11.4016 36.665 11.3045 36.667 11.2075 36.669C5.2417 36.9354 -0.22253 31.4709 0.00697339 25.4981C0.0364954 23.2135 0.0769457 20.9289 0.123308 18.6443C0.171999 16.2622 0.233411 13.8802 0.310192 11.4981C0.341377 5.6644 5.81443 0.844705 11.2075 1.35799C11.2075 1.45135 11.2075 1.54472 11.2075 1.63808C5.94764 1.89225 1.81445 6.6783 2.1047 11.4981C2.18148 13.8802 2.24291 16.2623 2.29165 18.6443C2.33801 20.9289 2.37846 23.2135 2.40798 25.4981C2.37846 30.1785 6.52005 34.3199 11.2075 34.3272C11.3045 34.3292 11.4016 34.3313 11.4986 34.3333C19.1167 34.5337 26.7353 34.9408 34.3534 35.0438C41.9712 35.1501 49.5896 34.976 57.2075 34.7323C57.2077 34.7323 57.2079 34.7323 57.2081 34.7323C62.1345 34.6473 66.2247 30.1626 66.0009 25.4981C65.9538 23.1162 65.9167 20.7344 65.8911 18.3525C65.8621 16.0678 65.8312 13.7829 65.8032 11.4981C65.8392 6.91851 61.7243 2.90749 57.2075 2.99211C57.1103 2.99168 57.013 2.99122 56.9158 2.99073Z" fill="#21004A"/>
<text id="CALDAG GEFs_2" fill="white" xml:space="preserve" style="white-space: pre" font-family="Arial" font-size="12" font-weight="bold" letter-spacing="0em"><tspan x="8.52588" y="15.6582">CALDAG&#10;</tspan><tspan x="18.5278" y="29.6582">GEFs</tspan></text>
</g>
</g>
<defs>
<linearGradient id="paint0_linear_938_23213" x1="34.2075" y1="1.49808" x2="34.2075" y2="35.4981" gradientUnits="userSpaceOnUse">
<stop stop-color="#21004A"/>
<stop offset="1" stop-color="#6D1CD1"/>
</linearGradient>
</defs>
</svg>
