<svg width="68" height="24" viewBox="0 0 68 24" fill="none" xmlns="http://www.w3.org/2000/svg">
<g id="R-ICO-013135">
<g id="CHEMICAL_OCT">
<g id="Rectangle 2">
<mask id="path-1-outside-1_938_24959" maskUnits="userSpaceOnUse" x="8.37988" y="0" width="52" height="24" fill="black">
<rect fill="white" x="8.37988" width="52" height="24"/>
<path d="M8.37988 2H59.6208V22H8.37988V2Z"/>
</mask>
<path d="M8.37988 2H59.6208V22H8.37988V2Z" fill="#B78520"/>
<path d="M8.37988 2V4H59.6208V2V0H8.37988V2ZM59.6208 22V20H8.37988V22V24H59.6208V22Z" fill="url(#paint0_linear_938_24959)" mask="url(#path-1-outside-1_938_24959)"/>
</g>
<g id="LEFT CORNER">
<mask id="mask0_938_24959" style="mask-type:luminance" maskUnits="userSpaceOnUse" x="0" y="0" width="10" height="24">
<rect id="MASK" width="10" height="24" transform="matrix(-1 8.74228e-08 8.74228e-08 1 10 0)" fill="white"/>
</mask>
<g mask="url(#mask0_938_24959)">
<g id="CORNER">
<mask id="path-4-outside-2_938_24959" maskUnits="userSpaceOnUse" x="-1.74846e-07" y="-9.61651e-07" width="13" height="24" fill="black">
<rect fill="white" x="-1.74846e-07" y="-9.61651e-07" width="13" height="24"/>
<path d="M8 22L2 16L2 8L8 2L11 2L11 22L8 22Z"/>
</mask>
<path d="M8 22L2 16L2 8L8 2L11 2L11 22L8 22Z" fill="#B78520"/>
<path d="M8 22L2 16L2 8L8 2L11 2L11 22L8 22Z" stroke="url(#paint1_linear_938_24959)" stroke-width="4" stroke-miterlimit="3.99933" stroke-linejoin="round" mask="url(#path-4-outside-2_938_24959)"/>
</g>
</g>
</g>
<g id="RIGHT CORNER">
<mask id="mask1_938_24959" style="mask-type:luminance" maskUnits="userSpaceOnUse" x="58" y="0" width="10" height="24">
<rect id="MASK_2" x="58.1553" width="9.84445" height="24" fill="white"/>
</mask>
<g mask="url(#mask1_938_24959)">
<g id="CORNER_2">
<mask id="path-6-outside-3_938_24959" maskUnits="userSpaceOnUse" x="55" y="-7.76718e-07" width="13" height="24" fill="black">
<rect fill="white" x="55" y="-7.76718e-07" width="13" height="24"/>
<path d="M60 22L66 16L66 8L60 2L57 2L57 22L60 22Z"/>
</mask>
<path d="M60 22L66 16L66 8L60 2L57 2L57 22L60 22Z" fill="#B78520"/>
<path d="M60 22L66 16L66 8L60 2L57 2L57 22L60 22Z" stroke="url(#paint2_linear_938_24959)" stroke-width="4" stroke-miterlimit="3.99933" stroke-linejoin="round" mask="url(#path-6-outside-3_938_24959)"/>
</g>
</g>
</g>
<text id="Ch" fill="white" xml:space="preserve" style="white-space: pre" font-family="Arial" font-size="12" font-weight="bold" letter-spacing="0em"><tspan x="5.69517" y="10.6602">ORGANIC </tspan><tspan x="15.369" y="21.6602">ACIDS</tspan></text>
</g>
</g>
<defs>
<linearGradient id="paint0_linear_938_24959" x1="34.0004" y1="2" x2="34.0004" y2="22" gradientUnits="userSpaceOnUse">
<stop stop-color="#B78520"/>
<stop offset="1" stop-color="#65BA7B"/>
</linearGradient>
<linearGradient id="paint1_linear_938_24959" x1="6.5" y1="2" x2="6.5" y2="22" gradientUnits="userSpaceOnUse">
<stop stop-color="#B78520"/>
<stop offset="1" stop-color="#65BA7B"/>
</linearGradient>
<linearGradient id="paint2_linear_938_24959" x1="61.5" y1="2" x2="61.5" y2="22" gradientUnits="userSpaceOnUse">
<stop stop-color="#B78520"/>
<stop offset="1" stop-color="#65BA7B"/>
</linearGradient>
</defs>
</svg>
