<svg width="65" height="23" viewBox="0 0 65 23" fill="none" xmlns="http://www.w3.org/2000/svg">
<g id="R-ICO-014571">
<g id="PABPN1">
<path d="M1.01318 11.5C1.01318 5.97715 5.49034 1.5 11.0132 1.5H53.0132C58.536 1.5 63.0132 5.97715 63.0132 11.5C63.0132 17.0228 58.536 21.5 53.0132 21.5H11.0132C5.49034 21.5 1.01318 17.0228 1.01318 11.5Z" fill="url(#paint0_linear_938_24096)"/>
<path d="M47.7215 2.99266C35.4854 2.87443 23.2493 2.52283 11.0132 1.64001C11.0132 1.54664 11.0132 1.45328 11.0132 1.35991C23.2493 0.477089 35.4854 0.125486 47.7215 0.00726104C49.4854 -0.0036298 51.2493 -0.00163829 53.0132 0.00903296C58.0717 -0.0429289 62.7787 3.71084 63.9385 8.54079C64.1882 9.50891 64.3039 10.5066 64.2871 11.5C64.3311 17.5302 58.74 22.6617 53.0137 22.2659C53.0136 22.2659 53.0134 22.2658 53.0132 22.2658C46.8953 22.0221 40.7768 21.8466 34.659 21.953C28.541 22.056 22.4224 22.4645 16.3043 22.6648C14.5406 22.7118 12.7769 22.7378 11.0132 22.7474C6.05885 22.8544 1.40158 19.1447 0.312252 14.3992C0.0781893 13.448 -0.0236273 12.4707 0.00469339 11.5C0.0264024 5.60141 5.61597 0.751439 11.0132 1.35991C11.0132 1.45328 11.0132 1.54664 11.0132 1.64001C5.75742 1.98933 1.74068 6.74525 2.02154 11.5C2.04959 12.2963 2.17848 13.0801 2.40545 13.8333C3.4957 17.5913 7.17955 20.2872 11.0132 20.2527C12.7769 20.2623 14.5406 20.2883 16.3043 20.3353C22.4224 20.5356 28.541 20.9428 34.659 21.0457C40.7769 21.1521 46.8952 20.978 53.0132 20.7342C53.0133 20.7342 53.0135 20.7342 53.0137 20.7342C57.9404 20.5967 61.9543 16.1227 61.7393 11.5C61.7229 10.7268 61.608 9.96371 61.3968 9.22776C60.3774 5.55386 56.7429 2.90148 53.0132 2.99101C51.2493 3.00167 49.4854 3.00363 47.7215 2.99266Z" fill="#853151"/>
<text id="PABPN1_2" fill="white" xml:space="preserve" style="white-space: pre" font-family="Arial" font-size="12" font-weight="bold" letter-spacing="0em"><tspan x="8.10693" y="15.6602">PABPN1</tspan></text>
</g>
</g>
<defs>
<linearGradient id="paint0_linear_938_24096" x1="32.0132" y1="1.5" x2="32.0132" y2="21.5" gradientUnits="userSpaceOnUse">
<stop stop-color="#853151"/>
<stop offset="1" stop-color="#C985D3"/>
</linearGradient>
</defs>
</svg>
