<svg width="147" height="100" viewBox="0 0 147 100" fill="none" xmlns="http://www.w3.org/2000/svg">
<g id="R-ICO-013994">
<g id="PROTEIN">
<path d="M58.6953 65.4443H82.6953C88.2182 65.4443 92.6953 69.9215 92.6953 75.4443C92.6953 80.9672 88.2182 85.4443 82.6953 85.4443H58.6953V65.4443Z" fill="url(#paint0_linear_938_25696)"/>
<path d="M57.2027 66.2985C57.2067 66.0137 57.2111 65.729 57.2157 65.4443C57.1904 64.6077 57.8587 63.99 58.6953 63.9647C66.6953 64.0947 74.6953 64.4518 82.6953 65.3043C82.6953 65.3977 82.6953 65.4911 82.6953 65.5844C74.6953 66.4369 66.6953 66.7941 58.6953 66.924L60.175 65.4443C60.1797 65.729 60.184 66.0137 60.1881 66.2985C60.2258 70.4408 60.1086 74.5834 60.0118 78.7259C59.9676 80.9654 59.8888 83.2048 59.7833 85.4443L58.6953 84.3564C60.598 84.446 62.5008 84.555 64.4035 84.6785C68.5459 84.9222 72.6887 85.0977 76.831 84.9914C78.7857 84.9428 80.7405 84.8261 82.6953 84.6954C84.7287 84.5536 86.6237 83.7123 88.0859 82.4451C90.1525 80.7088 91.4378 78.1435 91.5058 75.4443C91.5343 74.4766 91.4137 73.5063 91.1379 72.57C90.1215 69.0117 86.8098 66.0583 82.6953 65.5844C82.6953 65.4911 82.6953 65.3977 82.6953 65.3043C86.9292 64.7099 91.6107 67.506 93.1907 71.8714C93.621 73.0074 93.8571 74.2213 93.8847 75.4443C93.9969 78.8604 92.3 82.3216 89.5086 84.2897C87.5104 85.7059 85.0424 86.3495 82.6953 86.1939C80.7405 86.0635 78.7857 85.9472 76.831 85.8986C72.6886 85.7923 68.546 85.9664 64.4035 86.2101C62.5008 86.3336 60.5981 86.4426 58.6953 86.5323C58.0802 86.5508 57.6259 86.0595 57.6074 85.4443C57.5018 83.2048 57.4231 80.9653 57.3789 78.7259C57.2821 74.5835 57.1646 70.4408 57.2027 66.2985Z" fill="#AE37F2"/>
</g>
<g id="PROTEIN_2">
<path d="M47.1953 24.3193H71.1953C76.7182 24.3193 81.1953 28.7965 81.1953 34.3193C81.1953 39.8422 76.7182 44.3193 71.1953 44.3193H47.1953V24.3193Z" fill="url(#paint1_linear_938_25696)"/>
<path d="M45.7027 25.1735C45.7067 24.8887 45.7111 24.604 45.7157 24.3193C45.6904 23.4827 46.3587 22.865 47.1953 22.8397C55.1953 22.9697 63.1953 23.3268 71.1953 24.1793C71.1953 24.2727 71.1953 24.3661 71.1953 24.4594C63.1953 25.3119 55.1953 25.6691 47.1953 25.799L48.675 24.3193C48.6797 24.604 48.684 24.8887 48.6881 25.1735C48.7258 29.3158 48.6086 33.4584 48.5118 37.6009C48.4676 39.8404 48.3888 42.0798 48.2833 44.3193L47.1953 43.2314C49.098 43.321 51.0008 43.43 52.9035 43.5535C57.0459 43.7972 61.1887 43.9727 65.331 43.8664C67.2857 43.8178 69.2405 43.7011 71.1953 43.5704C73.2287 43.4286 75.1237 42.5873 76.5859 41.3201C78.6525 39.5838 79.9378 37.0185 80.0058 34.3193C80.0343 33.3516 79.9137 32.3813 79.6379 31.445C78.6215 27.8867 75.3098 24.9333 71.1953 24.4594C71.1953 24.3661 71.1953 24.2727 71.1953 24.1793C75.4292 23.5849 80.1107 26.381 81.6907 30.7464C82.121 31.8824 82.3571 33.0963 82.3847 34.3193C82.4969 37.7354 80.8 41.1966 78.0086 43.1647C76.0104 44.5809 73.5424 45.2245 71.1953 45.0689C69.2405 44.9385 67.2857 44.8222 65.331 44.7736C61.1886 44.6673 57.046 44.8414 52.9035 45.0851C51.0008 45.2086 49.0981 45.3176 47.1953 45.4073C46.5802 45.4258 46.1259 44.9345 46.1074 44.3193C46.0018 42.0798 45.9231 39.8403 45.8789 37.6009C45.7821 33.4585 45.6646 29.3158 45.7027 25.1735Z" fill="#AE37F2"/>
</g>
<g id="PROTEIN_3">
<path d="M17.5229 78.3572C17.5229 72.8343 22.0001 68.3572 27.5229 68.3572H51.5229V88.3572H27.5229C22.0001 88.3572 17.5229 83.88 17.5229 78.3572Z" fill="url(#paint2_linear_938_25696)"/>
<path d="M50.0303 69.2113C50.0344 68.9266 50.0387 68.6419 50.0433 68.3572L51.5229 69.8368C43.5229 69.7068 35.523 69.3497 27.5229 68.4972C27.5229 68.4038 27.5229 68.3105 27.5229 68.2171C35.523 67.3646 43.5229 67.0075 51.5229 66.8775C52.3596 66.9027 53.0279 67.5205 53.0027 68.3572C53.0073 68.6419 53.0116 68.9266 53.0157 69.2113C53.0535 73.3537 52.9363 77.4963 52.8394 81.6387C52.7953 83.8782 52.7165 86.1177 52.6109 88.3572C52.5924 88.9723 52.1381 89.4637 51.5229 89.4451C49.6202 89.3555 47.7175 89.2465 45.8147 89.123C41.6723 88.8793 37.5296 88.7038 33.3873 88.8102C31.4326 88.8587 29.4778 88.9754 27.5229 89.1061C25.176 89.2621 22.7079 88.6189 20.7096 87.2027C17.9183 85.2346 16.2213 81.7733 16.3335 78.3572C16.3611 77.1341 16.5972 75.9202 17.0275 74.7842C18.6074 70.4186 23.289 67.6226 27.5229 68.2171C27.5229 68.3105 27.5229 68.4038 27.5229 68.4972C23.4084 68.971 20.0965 71.9244 19.0802 75.4828C18.8045 76.4191 18.6839 77.3895 18.7124 78.3572C18.7804 81.0563 20.0656 83.6216 22.1323 85.358C23.5945 86.6253 25.4897 87.4661 27.5229 87.6076C29.4778 87.738 31.4326 87.8543 33.3873 87.9029C37.5297 88.0093 41.6723 87.8351 45.8147 87.5914C47.7175 87.4679 49.6202 87.3589 51.5229 87.2692L50.435 88.3572C50.3295 86.1177 50.2507 83.8782 50.2065 81.6387C50.1097 77.4963 49.9922 73.3537 50.0303 69.2113Z" fill="#DF8528"/>
</g>
<g id="PROTEIN_4">
<path d="M1.5 1.47974H25.5C31.0228 1.47974 35.5 5.95689 35.5 11.4797C35.5 17.0026 31.0228 21.4797 25.5 21.4797H1.5V1.47974Z" fill="url(#paint3_linear_938_25696)"/>
<path d="M0.0073446 2.33385C0.0114074 2.04914 0.0157458 1.76445 0.0203719 1.47974C-0.00487387 0.643113 0.663377 0.025354 1.5 0.000108242C9.50002 0.130099 17.5 0.487248 25.5 1.33973C25.5 1.4331 25.5 1.52646 25.5 1.61983C17.5 2.47231 9.50002 2.82946 1.5 2.95945L2.97971 1.47974C2.98434 1.76445 2.98868 2.04914 2.99274 2.33385C3.03051 6.47622 2.9133 10.6188 2.81648 14.7613C2.77231 17.0008 2.69351 19.2402 2.58797 21.4797L1.5 20.3918C3.40273 20.4814 5.30547 20.5904 7.20823 20.7139C11.3506 20.9576 15.4934 21.1331 19.6356 21.0268C21.5904 20.9782 23.5452 20.8615 25.5 20.7308C27.5334 20.589 29.4284 19.7477 30.8906 18.4805C32.9572 16.7442 34.2425 14.1789 34.3105 11.4797C34.339 10.512 34.2183 9.5417 33.9426 8.60539C32.9262 5.04705 29.6145 2.09367 25.5 1.61983C25.5 1.52646 25.5 1.4331 25.5 1.33973C29.7339 0.745257 34.4154 3.54141 35.9953 7.90677C36.4257 9.04279 36.6618 10.2567 36.6894 11.4797C36.8016 14.8958 35.1047 18.357 32.3133 20.3251C30.3151 21.7413 27.8471 22.3849 25.5 22.2293C23.5452 22.0989 21.5904 21.9826 19.6356 21.934C15.4933 21.8277 11.3507 22.0018 7.20823 22.2455C5.3055 22.369 3.40275 22.478 1.5 22.5677C0.884849 22.5862 0.430623 22.0949 0.412061 21.4797C0.306532 19.2402 0.227774 17.0007 0.183599 14.7613C0.0867809 10.6189 -0.0307111 6.47622 0.0073446 2.33385Z" fill="#C3378F"/>
</g>
<g id="PROTEIN_5">
<path d="M110.963 78.3662H134.963C140.486 78.3662 144.963 82.8434 144.963 88.3662C144.963 93.8891 140.486 98.3662 134.963 98.3662H110.963V78.3662Z" fill="url(#paint4_linear_938_25696)"/>
<path d="M109.47 79.2203C109.474 78.9356 109.479 78.6509 109.483 78.3662C109.458 77.5296 110.126 76.9118 110.963 76.8866C118.963 77.0166 126.963 77.3737 134.963 78.2262C134.963 78.3196 134.963 78.4129 134.963 78.5063C126.963 79.3588 118.963 79.7159 110.963 79.8459L112.443 78.3662C112.447 78.6509 112.452 78.9356 112.456 79.2203C112.493 83.3627 112.376 87.5053 112.279 91.6477C112.235 93.8872 112.156 96.1267 112.051 98.3662L110.963 97.2782C112.866 97.3679 114.768 97.4769 116.671 97.6004C120.813 97.8441 124.956 98.0196 129.099 97.9132C131.053 97.8646 133.008 97.748 134.963 97.6173C136.996 97.4754 138.891 96.6342 140.353 95.367C142.42 93.6306 143.705 91.0654 143.773 88.3662C143.802 87.3985 143.681 86.4282 143.406 85.4919C142.389 81.9335 139.077 78.9801 134.963 78.5063C134.963 78.4129 134.963 78.3196 134.963 78.2262C139.197 77.6317 143.878 80.4279 145.458 84.7932C145.889 85.9293 146.125 87.1432 146.152 88.3662C146.265 91.7823 144.568 95.2435 141.776 97.2116C139.778 98.6278 137.31 99.2714 134.963 99.1158C133.008 98.9854 131.053 98.8691 129.099 98.8205C124.956 98.7141 120.814 98.8883 116.671 99.132C114.768 99.2555 112.866 99.3645 110.963 99.4542C110.348 99.4727 109.894 98.9814 109.875 98.3662C109.769 96.1267 109.691 93.8872 109.646 91.6477C109.55 87.5054 109.432 83.3627 109.47 79.2203Z" fill="#758407"/>
</g>
<g id="PROTEIN_6">
<path d="M91.6938 17.127H115.694C121.217 17.127 125.694 21.6041 125.694 27.127C125.694 32.6498 121.217 37.127 115.694 37.127H91.6938V17.127Z" fill="url(#paint5_linear_938_25696)"/>
<path d="M90.2012 17.9811C90.2053 17.6964 90.2096 17.4117 90.2142 17.127C90.189 16.2903 90.8572 15.6726 91.6938 15.6473C99.6939 15.7773 107.694 16.1345 115.694 16.9869C115.694 17.0803 115.694 17.1737 115.694 17.267C107.694 18.1195 99.6939 18.4767 91.6938 18.6067L93.1736 17.127C93.1782 17.4117 93.1825 17.6964 93.1866 17.9811C93.2244 22.1234 93.1072 26.266 93.0103 30.4085C92.9662 32.648 92.8874 34.8875 92.7818 37.127L91.6938 36.039C93.5966 36.1287 95.4993 36.2376 97.4021 36.3611C101.544 36.6048 105.687 36.7803 109.829 36.674C111.784 36.6254 113.739 36.5088 115.694 36.3781C117.727 36.2362 119.622 35.395 121.084 34.1277C123.151 32.3914 124.436 29.8261 124.504 27.127C124.533 26.1593 124.412 25.1889 124.136 24.2526C123.12 20.6943 119.808 17.7409 115.694 17.267C115.694 17.1737 115.694 17.0803 115.694 16.9869C119.928 16.3925 124.609 19.1886 126.189 23.554C126.62 24.69 126.856 25.9039 126.883 27.127C126.995 30.543 125.299 34.0043 122.507 35.9724C120.509 37.3886 118.041 38.0321 115.694 37.8765C113.739 37.7461 111.784 37.6298 109.829 37.5812C105.687 37.4749 101.545 37.649 97.4021 37.8927C95.4993 38.0162 93.5966 38.1252 91.6938 38.2149C91.0787 38.2335 90.6245 37.7421 90.6059 37.127C90.5004 34.8875 90.4216 32.648 90.3774 30.4085C90.2806 26.2661 90.1631 22.1234 90.2012 17.9811Z" fill="#758407"/>
</g>
</g>
<defs>
<linearGradient id="paint0_linear_938_25696" x1="75.6953" y1="65.4443" x2="75.6953" y2="85.4443" gradientUnits="userSpaceOnUse">
<stop stop-color="#1FB4D9"/>
<stop offset="1" stop-color="#AE37F2"/>
</linearGradient>
<linearGradient id="paint1_linear_938_25696" x1="64.1953" y1="24.3193" x2="64.1953" y2="44.3193" gradientUnits="userSpaceOnUse">
<stop stop-color="#1FB4D9"/>
<stop offset="1" stop-color="#AE37F2"/>
</linearGradient>
<linearGradient id="paint2_linear_938_25696" x1="34.5229" y1="68.3572" x2="34.5229" y2="88.3572" gradientUnits="userSpaceOnUse">
<stop stop-color="#67EBA1"/>
<stop offset="1" stop-color="#DF8528"/>
</linearGradient>
<linearGradient id="paint3_linear_938_25696" x1="18.5" y1="1.47974" x2="18.5" y2="21.4797" gradientUnits="userSpaceOnUse">
<stop stop-color="#F8EB75"/>
<stop offset="1" stop-color="#C3378F"/>
</linearGradient>
<linearGradient id="paint4_linear_938_25696" x1="127.963" y1="78.3662" x2="127.963" y2="98.3662" gradientUnits="userSpaceOnUse">
<stop stop-color="#ED6DB0"/>
<stop offset="1" stop-color="#758407"/>
</linearGradient>
<linearGradient id="paint5_linear_938_25696" x1="108.694" y1="17.127" x2="108.694" y2="37.127" gradientUnits="userSpaceOnUse">
<stop stop-color="#ED6DB0"/>
<stop offset="1" stop-color="#758407"/>
</linearGradient>
</defs>
</svg>
