<svg width="49" height="23" viewBox="0 0 49 23" fill="none" xmlns="http://www.w3.org/2000/svg">
<g id="R-ICO-012466">
<g id="BEX3">
<path d="M1.13574 11.4541C1.13574 5.93127 5.6129 1.45412 11.1357 1.45412H37.1357C42.6586 1.45412 47.1357 5.93127 47.1357 11.4541C47.1357 16.977 42.6586 21.4541 37.1357 21.4541H11.1357C5.6129 21.4541 1.13574 16.977 1.13574 11.4541Z" fill="url(#paint0_linear_938_23195)"/>
<path d="M39.4135 3.25475C38.6762 3.03885 37.9116 2.92234 37.1357 2.90683C28.4691 2.75748 19.8024 2.39366 11.1357 1.59413C11.1357 1.50076 11.1357 1.4074 11.1357 1.31403C19.8024 0.514496 28.4691 0.150676 37.1357 0.00132346C38.1688 -0.0144361 39.2054 0.110579 40.2107 0.377758C45.0954 1.62514 48.6608 6.50221 48.48 11.4541C48.4706 11.9671 48.4275 12.4744 48.3499 12.9813C47.6298 18.4428 42.3441 22.6183 37.1362 22.22C37.136 22.22 37.1359 22.22 37.1357 22.22C32.3511 21.9762 27.5661 21.8008 22.7816 21.9071C18.8997 21.9906 15.0177 22.2753 11.1357 22.4867C10.1398 22.5361 9.13175 22.448 8.14789 22.2144C3.36584 21.1232 -0.21672 16.3167 0.00969398 11.4541C0.0230136 10.9509 0.0701517 10.454 0.151709 9.95846C0.922386 4.61345 6.22205 0.66987 11.1357 1.31403C11.1357 1.4074 11.1357 1.50076 11.1357 1.59413C6.36047 2.04518 2.65521 5.9755 2.30055 10.2486C2.26103 10.6507 2.24851 11.0508 2.26171 11.4541C2.34883 15.3361 5.10535 18.837 8.77004 19.9694C9.529 20.219 10.3225 20.3724 11.1357 20.4215C15.0177 20.6326 18.8997 20.9163 22.7816 20.9999C27.5661 21.1062 32.3511 20.9321 37.1357 20.6884C37.1359 20.6884 37.136 20.6884 37.1361 20.6883C41.6169 20.4824 45.3349 16.7849 45.7407 12.6289C45.7842 12.2378 45.8008 11.8479 45.7915 11.4541C45.7501 7.6612 42.9756 4.23081 39.4135 3.25475Z" fill="#1A7564"/>
<text id="BEX3_2" fill="white" xml:space="preserve" style="white-space: pre" font-family="Arial" font-size="12" font-weight="bold" letter-spacing="0em"><tspan x="8.45605" y="15.6143">BEX3</tspan></text>
</g>
</g>
<defs>
<linearGradient id="paint0_linear_938_23195" x1="24.1357" y1="1.45412" x2="24.1357" y2="21.4541" gradientUnits="userSpaceOnUse">
<stop stop-color="#1A7564"/>
<stop offset="1" stop-color="#BB1D8C"/>
</linearGradient>
</defs>
</svg>
