<svg width="31" height="153" viewBox="0 0 31 153" fill="none" xmlns="http://www.w3.org/2000/svg">
<g id="R-ICO-012922">
<path id="R-ICO-012922_2" d="M21.7225 152.7C21.594 152.7 21.4012 152.636 21.2726 152.571C18.8304 151.222 15.8741 148.972 15.8741 145.695C15.8741 142.417 19.0232 139.075 25.1287 135.862C27.8922 134.384 28.4063 133.677 28.5349 133.484C28.085 132.97 25.5143 132.391 23.8433 132.07C19.1518 131.042 12.6607 129.628 12.6607 124.744V67.7381C11.3111 68.8306 9.57589 69.4733 7.7764 69.4733C3.47046 69.4733 0 66.0028 0 61.6969C0 57.391 3.47046 53.9205 7.7764 53.9205C9.57589 53.9205 11.3111 54.5632 12.6607 55.6557V50.9642C11.3111 52.0567 9.57589 52.6994 7.7764 52.6994C3.47046 52.6994 0 49.229 0 44.923C0 40.6171 3.47046 37.1466 7.7764 37.1466C9.57589 37.1466 11.3111 37.7893 12.6607 38.8819V34.1903C11.3111 35.2829 9.57589 35.9255 7.7764 35.9255C3.47046 35.9255 0 32.4551 0 28.1491C0 23.8432 3.47046 20.3727 7.7764 20.3727C9.57589 20.3727 11.3111 21.0154 12.6607 22.108V17.4164C11.3111 18.509 9.57589 19.1517 7.7764 19.1517C3.47052 19.1518 6.42677e-05 15.6813 6.42677e-05 11.3754C6.42677e-05 7.06945 3.47052 3.59899 7.77646 3.59899C9.57596 3.59899 11.3112 4.24167 12.6608 5.33422V0.964016C12.6608 0.449874 13.1107 0 13.6248 0C14.139 0 14.5888 0.449874 14.5888 0.964016V7.96901C14.5888 8.41888 14.2675 8.80449 13.8819 8.86875C13.432 8.99729 13.0464 8.80449 12.7893 8.41888C11.7611 6.61938 9.83303 5.52683 7.77646 5.52683C4.56307 5.52683 1.9281 8.16181 1.9281 11.3752C1.9281 14.5886 4.56307 17.2236 7.77646 17.2236C9.83303 17.2236 11.7611 16.131 12.7893 14.3315C12.9821 13.9459 13.432 13.7531 13.8819 13.8816C14.3318 14.0102 14.5888 14.3958 14.5888 14.7814V24.6786C14.5888 25.1285 14.2675 25.5141 13.8819 25.5784C13.432 25.7069 13.0464 25.5141 12.7893 25.1285C11.7611 23.329 9.83303 22.2364 7.77646 22.2364C4.56307 22.2364 1.9281 24.8714 1.9281 28.0848C1.9281 31.2982 4.56307 33.9332 7.77646 33.9332C9.83303 33.9332 11.7611 32.8406 12.7893 31.0411C12.9821 30.6555 13.432 30.4627 13.8819 30.5912C14.3318 30.7198 14.5888 31.1054 14.5888 31.491V41.3882C14.5888 41.8381 14.2675 42.2237 13.8819 42.288C13.432 42.4165 13.0464 42.2237 12.7893 41.8381C11.7611 40.0386 9.83303 38.9461 7.77646 38.9461C4.56307 38.9461 1.9281 41.581 1.9281 44.7944C1.9281 48.0078 4.56307 50.6428 7.77646 50.6428C9.83303 50.6428 11.7611 49.5502 12.7893 47.7507C12.9821 47.3651 13.432 47.1723 13.8819 47.3009C14.3318 47.4294 14.5888 47.815 14.5888 48.2006V58.0978C14.5888 58.5477 14.2675 58.9333 13.8819 58.9976C13.432 59.1261 13.0464 58.9333 12.7893 58.5477C11.7611 56.7482 9.83303 55.6557 7.77646 55.6557C4.56307 55.6557 1.9281 58.2906 1.9281 61.504C1.9281 64.7174 4.56307 67.3524 7.77646 67.3524C9.83303 67.3524 11.7611 66.2598 12.7893 64.4603C12.9821 64.0747 13.432 63.8819 13.8819 64.0105C14.3318 64.139 14.5888 64.5246 14.5888 64.9102V124.486C14.5888 127.764 19.9231 128.985 24.229 129.949C27.6995 130.72 30.2059 131.299 30.463 133.034C30.6558 134.384 29.3704 135.605 26.0285 137.404C20.6943 140.232 17.8022 143.06 17.8022 145.566C17.8022 148.008 20.5657 149.872 22.1724 150.772C22.6223 151.029 22.8151 151.607 22.558 152.057C22.3652 152.507 22.0438 152.7 21.7225 152.7Z" fill="url(#paint0_linear_938_22940)"/>
</g>
<defs>
<linearGradient id="paint0_linear_938_22940" x1="6.42677e-05" y1="76.35" x2="30.4816" y2="76.35" gradientUnits="userSpaceOnUse">
<stop stop-color="#900EA6"/>
<stop offset="1" stop-color="#2D052E"/>
</linearGradient>
</defs>
</svg>
