<svg width="46" height="159" viewBox="0 0 46 159" fill="none" xmlns="http://www.w3.org/2000/svg">
<g id="R-ICO-013443">
<g id="Group">
<path id="Vector" d="M6.94367 61.2844L6.47217 130.29L10.434 130.317L10.9055 61.3115L6.94367 61.2844Z" fill="url(#paint0_linear_938_23073)"/>
<path id="Vector_2" d="M8.76785 158.138C3.87125 158.105 -0.0534494 151.666 0.00055062 143.758L0.0974506 129.578C0.151451 121.67 4.16385 115.286 9.06045 115.319C13.9571 115.353 17.8818 121.791 17.8278 129.699L17.7309 143.879C17.6769 151.787 13.6646 158.171 8.76785 158.138Z" fill="url(#paint1_radial_938_23073)"/>
<g id="Group_2">
<path id="Vector_3" d="M8.90574 64.0843C4.00914 64.0508 0.0638397 60.6273 0.0924397 56.4383L0.14374 48.9271C0.17234 44.7381 4.16414 41.3688 9.06074 41.4023C13.9573 41.4358 17.9026 44.8593 17.874 49.0483L17.8227 56.5595C17.794 60.7485 13.8023 64.1178 8.90574 64.0843Z" fill="url(#paint2_radial_938_23073)"/>
<path id="Vector_4" d="M9.04685 43.3834C4.15025 43.3499 0.204953 39.9264 0.233553 35.7374L0.284853 28.2262C0.313453 24.0372 4.30525 20.6679 9.20185 20.7014C14.0985 20.7349 18.0438 24.1584 18.0152 28.3474L17.9639 35.8586C17.9353 40.0476 13.9435 43.4169 9.04685 43.3834Z" fill="url(#paint3_radial_938_23073)"/>
<path id="Vector_5" d="M9.18845 22.6822C4.29185 22.6487 0.346555 19.2252 0.375155 15.0362L0.426455 7.52505C0.455055 3.33605 4.44685 -0.0332523 9.34345 0.00024766C14.2401 0.0337477 18.1854 3.45725 18.1568 7.64625L18.1055 15.1574C18.0768 19.3464 14.0851 22.7156 9.18845 22.6822Z" fill="url(#paint4_radial_938_23073)"/>
</g>
</g>
<g id="Group_3">
<path id="Vector_6" d="M34.6776 61.4739L34.2061 130.479L38.1678 130.506L38.6394 61.501L34.6776 61.4739Z" fill="url(#paint5_linear_938_23073)"/>
<path id="Vector_7" d="M36.5022 158.328C31.6056 158.294 27.6809 151.855 27.7349 143.947L27.8318 129.768C27.8858 121.86 31.8982 115.475 36.7948 115.509C41.6914 115.542 45.6161 121.981 45.5621 129.889L45.4652 144.068C45.4112 151.976 41.3988 158.361 36.5022 158.328Z" fill="url(#paint6_radial_938_23073)"/>
<g id="Group_4">
<path id="Vector_8" d="M36.6396 64.2738C31.743 64.2403 27.7977 60.8168 27.8263 56.6278L27.8776 49.1166C27.9062 44.9276 31.898 41.5583 36.7946 41.5918C41.6912 41.6253 45.6365 45.0488 45.6079 49.2378L45.5566 56.749C45.528 60.938 41.5363 64.3073 36.6396 64.2738Z" fill="url(#paint7_radial_938_23073)"/>
<path id="Vector_9" d="M36.7812 43.5729C31.8846 43.5394 27.9393 40.1159 27.9679 35.9269L28.0192 28.4157C28.0478 24.2267 32.0396 20.8574 36.9362 20.8909C41.8328 20.9244 45.7781 24.3479 45.7495 28.5369L45.6982 36.0481C45.6696 40.2371 41.6778 43.6064 36.7812 43.5729Z" fill="url(#paint8_radial_938_23073)"/>
<path id="Vector_10" d="M36.9228 22.8717C32.0262 22.8382 28.0809 19.4147 28.1095 15.2257L28.1608 7.7145C28.1894 3.5255 32.1812 0.156201 37.0778 0.189701C41.9744 0.223201 45.9197 3.6467 45.8911 7.8357L45.8398 15.3469C45.8111 19.5359 41.8194 22.9052 36.9228 22.8717Z" fill="url(#paint9_radial_938_23073)"/>
</g>
</g>
<g id="Group_5">
<path id="Vector_11" d="M20.8109 61.3792L20.3394 130.385L24.3012 130.412L24.7727 61.4062L20.8109 61.3792Z" fill="url(#paint10_linear_938_23073)"/>
<path id="Vector_12" d="M22.635 158.233C17.7384 158.199 13.8137 151.761 13.8677 143.853L13.9646 129.673C14.0186 121.765 18.031 115.381 22.9276 115.414C27.8242 115.447 31.7489 121.886 31.6949 129.794L31.598 143.974C31.544 151.882 27.5317 158.266 22.635 158.233Z" fill="url(#paint11_radial_938_23073)"/>
<g id="Group_6">
<path id="Vector_13" d="M22.7724 64.1791C17.8758 64.1456 13.9305 60.7221 13.9591 56.5331L14.0104 49.0219C14.039 44.8329 18.0308 41.4636 22.9274 41.4971C27.824 41.5306 31.7693 44.9541 31.7407 49.1431L31.6894 56.6543C31.6607 60.8433 27.669 64.2125 22.7724 64.1791Z" fill="url(#paint12_radial_938_23073)"/>
<path id="Vector_14" d="M22.914 43.4781C18.0174 43.4446 14.0721 40.0211 14.1007 35.8321L14.152 28.3209C14.1806 24.1319 18.1724 20.7626 23.069 20.7961C27.9656 20.8296 31.9109 24.2531 31.8823 28.4421L31.831 35.9533C31.8024 40.1422 27.8106 43.5115 22.914 43.4781Z" fill="url(#paint13_radial_938_23073)"/>
<path id="Vector_15" d="M23.0556 22.777C18.159 22.7435 14.2137 19.32 14.2423 15.131L14.2936 7.61977C14.3222 3.43077 18.314 0.0614742 23.2106 0.0949742C28.1072 0.128474 32.0525 3.55197 32.0239 7.74097L31.9726 15.2522C31.9439 19.4412 27.9522 22.8105 23.0556 22.777Z" fill="url(#paint14_radial_938_23073)"/>
</g>
</g>
</g>
<defs>
<linearGradient id="paint0_linear_938_23073" x1="6.72004" y1="95.8103" x2="10.6819" y2="95.8372" gradientUnits="userSpaceOnUse">
<stop stop-color="#37143D"/>
<stop offset="0.0444" stop-color="#3D1643"/>
<stop offset="0.1047" stop-color="#4C1D54"/>
<stop offset="0.174" stop-color="#662971"/>
<stop offset="0.2501" stop-color="#8A3899"/>
<stop offset="0.3308" stop-color="#B84CCB"/>
<stop offset="0.3513" stop-color="#C552D9"/>
<stop offset="0.3937" stop-color="#A343B4"/>
<stop offset="0.4432" stop-color="#82358F"/>
<stop offset="0.4953" stop-color="#672971"/>
<stop offset="0.5502" stop-color="#52205A"/>
<stop offset="0.6088" stop-color="#43194A"/>
<stop offset="0.674" stop-color="#3A1540"/>
<stop offset="0.7585" stop-color="#37143D"/>
</linearGradient>
<radialGradient id="paint1_radial_938_23073" cx="0" cy="0" r="1" gradientTransform="matrix(16.0641 0.109448 -0.177706 25.9486 7.15802 130.496)" gradientUnits="userSpaceOnUse">
<stop stop-color="#C136D9"/>
<stop offset="0.0061" stop-color="#BF36D7"/>
<stop offset="0.153" stop-color="#962BA8"/>
<stop offset="0.3" stop-color="#742382"/>
<stop offset="0.4447" stop-color="#591C64"/>
<stop offset="0.5865" stop-color="#46184E"/>
<stop offset="0.7239" stop-color="#3B1541"/>
<stop offset="0.8521" stop-color="#37143D"/>
</radialGradient>
<radialGradient id="paint2_radial_938_23073" cx="0" cy="0" r="1" gradientTransform="matrix(16.0641 0.109448 -0.0941488 13.7457 7.21311 49.4476)" gradientUnits="userSpaceOnUse">
<stop stop-color="#C136D9"/>
<stop offset="0.0061" stop-color="#BF36D7"/>
<stop offset="0.153" stop-color="#962BA8"/>
<stop offset="0.3" stop-color="#742382"/>
<stop offset="0.4447" stop-color="#591C64"/>
<stop offset="0.5865" stop-color="#46184E"/>
<stop offset="0.7239" stop-color="#3B1541"/>
<stop offset="0.8521" stop-color="#37143D"/>
</radialGradient>
<radialGradient id="paint3_radial_938_23073" cx="0" cy="0" r="1" gradientTransform="matrix(16.0641 0.109448 -0.0941488 13.7457 7.35461 28.7465)" gradientUnits="userSpaceOnUse">
<stop stop-color="#C136D9"/>
<stop offset="0.0061" stop-color="#BF36D7"/>
<stop offset="0.153" stop-color="#962BA8"/>
<stop offset="0.3" stop-color="#742382"/>
<stop offset="0.4447" stop-color="#591C64"/>
<stop offset="0.5865" stop-color="#46184E"/>
<stop offset="0.7239" stop-color="#3B1541"/>
<stop offset="0.8521" stop-color="#37143D"/>
</radialGradient>
<radialGradient id="paint4_radial_938_23073" cx="0" cy="0" r="1" gradientTransform="matrix(16.0641 0.109448 -0.0941488 13.7457 7.49651 8.04516)" gradientUnits="userSpaceOnUse">
<stop stop-color="#C136D9"/>
<stop offset="0.0061" stop-color="#BF36D7"/>
<stop offset="0.153" stop-color="#962BA8"/>
<stop offset="0.3" stop-color="#742382"/>
<stop offset="0.4447" stop-color="#591C64"/>
<stop offset="0.5865" stop-color="#46184E"/>
<stop offset="0.7239" stop-color="#3B1541"/>
<stop offset="0.8521" stop-color="#37143D"/>
</radialGradient>
<linearGradient id="paint5_linear_938_23073" x1="34.4546" y1="95.9988" x2="38.4164" y2="96.0258" gradientUnits="userSpaceOnUse">
<stop stop-color="#37143D"/>
<stop offset="0.0444" stop-color="#3D1643"/>
<stop offset="0.1047" stop-color="#4C1D54"/>
<stop offset="0.174" stop-color="#662971"/>
<stop offset="0.2501" stop-color="#8A3899"/>
<stop offset="0.3308" stop-color="#B84CCB"/>
<stop offset="0.3513" stop-color="#C552D9"/>
<stop offset="0.3937" stop-color="#A343B4"/>
<stop offset="0.4432" stop-color="#82358F"/>
<stop offset="0.4953" stop-color="#672971"/>
<stop offset="0.5502" stop-color="#52205A"/>
<stop offset="0.6088" stop-color="#43194A"/>
<stop offset="0.674" stop-color="#3A1540"/>
<stop offset="0.7585" stop-color="#37143D"/>
</linearGradient>
<radialGradient id="paint6_radial_938_23073" cx="0" cy="0" r="1" gradientTransform="matrix(16.0641 0.109448 -0.177706 25.9486 34.8914 130.685)" gradientUnits="userSpaceOnUse">
<stop stop-color="#C136D9"/>
<stop offset="0.0061" stop-color="#BF36D7"/>
<stop offset="0.153" stop-color="#962BA8"/>
<stop offset="0.3" stop-color="#742382"/>
<stop offset="0.4447" stop-color="#591C64"/>
<stop offset="0.5865" stop-color="#46184E"/>
<stop offset="0.7239" stop-color="#3B1541"/>
<stop offset="0.8521" stop-color="#37143D"/>
</radialGradient>
<radialGradient id="paint7_radial_938_23073" cx="0" cy="0" r="1" gradientTransform="matrix(16.0641 0.109448 -0.0941488 13.7457 34.9461 49.6365)" gradientUnits="userSpaceOnUse">
<stop stop-color="#C136D9"/>
<stop offset="0.0061" stop-color="#BF36D7"/>
<stop offset="0.153" stop-color="#962BA8"/>
<stop offset="0.3" stop-color="#742382"/>
<stop offset="0.4447" stop-color="#591C64"/>
<stop offset="0.5865" stop-color="#46184E"/>
<stop offset="0.7239" stop-color="#3B1541"/>
<stop offset="0.8521" stop-color="#37143D"/>
</radialGradient>
<radialGradient id="paint8_radial_938_23073" cx="0" cy="0" r="1" gradientTransform="matrix(16.0641 0.109448 -0.0941488 13.7457 35.088 28.9354)" gradientUnits="userSpaceOnUse">
<stop stop-color="#C136D9"/>
<stop offset="0.0061" stop-color="#BF36D7"/>
<stop offset="0.153" stop-color="#962BA8"/>
<stop offset="0.3" stop-color="#742382"/>
<stop offset="0.4447" stop-color="#591C64"/>
<stop offset="0.5865" stop-color="#46184E"/>
<stop offset="0.7239" stop-color="#3B1541"/>
<stop offset="0.8521" stop-color="#37143D"/>
</radialGradient>
<radialGradient id="paint9_radial_938_23073" cx="0" cy="0" r="1" gradientTransform="matrix(16.0641 0.109448 -0.0941488 13.7457 35.2299 8.23407)" gradientUnits="userSpaceOnUse">
<stop stop-color="#C136D9"/>
<stop offset="0.0061" stop-color="#BF36D7"/>
<stop offset="0.153" stop-color="#962BA8"/>
<stop offset="0.3" stop-color="#742382"/>
<stop offset="0.4447" stop-color="#591C64"/>
<stop offset="0.5865" stop-color="#46184E"/>
<stop offset="0.7239" stop-color="#3B1541"/>
<stop offset="0.8521" stop-color="#37143D"/>
</radialGradient>
<linearGradient id="paint10_linear_938_23073" x1="20.5876" y1="95.9046" x2="24.5494" y2="95.9316" gradientUnits="userSpaceOnUse">
<stop stop-color="#37143D"/>
<stop offset="0.0444" stop-color="#3D1643"/>
<stop offset="0.1047" stop-color="#4C1D54"/>
<stop offset="0.174" stop-color="#662971"/>
<stop offset="0.2501" stop-color="#8A3899"/>
<stop offset="0.3308" stop-color="#B84CCB"/>
<stop offset="0.3513" stop-color="#C552D9"/>
<stop offset="0.3937" stop-color="#A343B4"/>
<stop offset="0.4432" stop-color="#82358F"/>
<stop offset="0.4953" stop-color="#672971"/>
<stop offset="0.5502" stop-color="#52205A"/>
<stop offset="0.6088" stop-color="#43194A"/>
<stop offset="0.674" stop-color="#3A1540"/>
<stop offset="0.7585" stop-color="#37143D"/>
</linearGradient>
<radialGradient id="paint11_radial_938_23073" cx="0" cy="0" r="1" gradientTransform="matrix(16.0641 0.109448 -0.177706 25.9486 21.0247 130.59)" gradientUnits="userSpaceOnUse">
<stop stop-color="#C136D9"/>
<stop offset="0.0061" stop-color="#BF36D7"/>
<stop offset="0.153" stop-color="#962BA8"/>
<stop offset="0.3" stop-color="#742382"/>
<stop offset="0.4447" stop-color="#591C64"/>
<stop offset="0.5865" stop-color="#46184E"/>
<stop offset="0.7239" stop-color="#3B1541"/>
<stop offset="0.8521" stop-color="#37143D"/>
</radialGradient>
<radialGradient id="paint12_radial_938_23073" cx="0" cy="0" r="1" gradientTransform="matrix(16.0641 0.109448 -0.0941488 13.7457 21.0793 49.542)" gradientUnits="userSpaceOnUse">
<stop stop-color="#C136D9"/>
<stop offset="0.0061" stop-color="#BF36D7"/>
<stop offset="0.153" stop-color="#962BA8"/>
<stop offset="0.3" stop-color="#742382"/>
<stop offset="0.4447" stop-color="#591C64"/>
<stop offset="0.5865" stop-color="#46184E"/>
<stop offset="0.7239" stop-color="#3B1541"/>
<stop offset="0.8521" stop-color="#37143D"/>
</radialGradient>
<radialGradient id="paint13_radial_938_23073" cx="0" cy="0" r="1" gradientTransform="matrix(16.0641 0.109448 -0.0941488 13.7457 21.2213 28.8409)" gradientUnits="userSpaceOnUse">
<stop stop-color="#C136D9"/>
<stop offset="0.0061" stop-color="#BF36D7"/>
<stop offset="0.153" stop-color="#962BA8"/>
<stop offset="0.3" stop-color="#742382"/>
<stop offset="0.4447" stop-color="#591C64"/>
<stop offset="0.5865" stop-color="#46184E"/>
<stop offset="0.7239" stop-color="#3B1541"/>
<stop offset="0.8521" stop-color="#37143D"/>
</radialGradient>
<radialGradient id="paint14_radial_938_23073" cx="0" cy="0" r="1" gradientTransform="matrix(16.0641 0.109448 -0.0941488 13.7457 21.3632 8.13967)" gradientUnits="userSpaceOnUse">
<stop stop-color="#C136D9"/>
<stop offset="0.0061" stop-color="#BF36D7"/>
<stop offset="0.153" stop-color="#962BA8"/>
<stop offset="0.3" stop-color="#742382"/>
<stop offset="0.4447" stop-color="#591C64"/>
<stop offset="0.5865" stop-color="#46184E"/>
<stop offset="0.7239" stop-color="#3B1541"/>
<stop offset="0.8521" stop-color="#37143D"/>
</radialGradient>
</defs>
</svg>
