<svg width="134" height="38" viewBox="0 0 134 38" fill="none" xmlns="http://www.w3.org/2000/svg">
<g id="R-ICO-014202">
<path id="BG" d="M61.2334 4.06677C64.8966 4.06677 68.2578 5.28997 70.8877 7.32847C72.189 8.33717 73.8467 8.77667 75.4817 8.58217C75.8695 8.53607 76.2642 8.51227 76.6645 8.51227C79.9159 8.51227 82.8031 10.0686 84.6269 12.4778C86.2063 14.5641 88.6651 15.7978 91.2818 15.7978H115.175C116.544 15.7978 117.794 15.0274 118.419 13.809C120.295 10.1523 124.263 9.87237 124.824 5.80607C125.563 0.452769 130.633 -1.04383 131.312 0.680769C132.095 2.66907 127.82 2.63547 127.576 3.81387C127.219 5.54307 128.42 6.02407 130.733 6.08297C133.903 6.16367 133.602 9.41727 131.18 8.81517C129.998 8.52137 127.694 7.97697 127.501 8.92127C127.215 10.3211 127.233 11.1368 131.008 11.344C134.084 11.5128 133.5 16.0512 131.285 15.3128C129.07 14.5744 126.62 13.9003 126.251 15.3823C125.882 16.8643 126.73 18.3001 129.439 17.8049C133.132 17.1296 133.132 21.3473 130.475 20.9464C129.407 20.7853 126.448 20.7376 126.486 21.763C126.552 23.5767 127.686 23.6531 129.716 23.6197C132.336 23.5766 132.878 26.77 130.166 26.3479C128.786 26.1331 126.393 25.1888 126.209 26.6656C126.024 28.1424 131.674 26.5214 131.372 29.4212C131.194 31.1362 126.209 27.7732 125.932 29.8038C125.655 31.8344 130.738 29.761 130.83 32.2531C130.922 34.7452 126.389 31.7168 126.552 33.2774C126.807 35.7272 130.916 34.6028 130.916 36.2183C130.916 37.8338 125.708 38.2783 122.978 31.096C121.584 27.4285 119.801 26.2795 118.641 24.2207C117.617 22.4045 115.73 21.2463 113.645 21.2463H91.2818C88.6651 21.2463 86.2064 22.4799 84.627 24.5662C82.8031 26.9755 79.9159 28.5319 76.6645 28.5319C76.2642 28.5319 75.8695 28.5081 75.4817 28.4619C73.8468 28.2673 72.1891 28.7069 70.8877 29.7156C68.2578 31.754 64.8966 32.9773 61.2334 32.9773C52.8062 32.9773 42.8701 31.8139 42.8701 18.5222C42.8701 5.23017 52.8062 4.06677 61.2334 4.06677Z" fill="#D12F61"/>
<g id="SHADOWS">
<path id="Vector" d="M117.44 18.522C117.44 9.94897 124.086 11.1594 124.824 5.80607C125.563 0.452769 130.633 -1.04383 131.312 0.680769C132.095 2.66907 127.82 2.63547 127.577 3.81387C127.219 5.54307 128.42 6.02407 130.733 6.08297C133.903 6.16367 133.602 9.41727 131.18 8.81517C129.998 8.52137 127.694 7.97707 127.501 8.92127C127.215 10.3211 127.233 11.1368 131.008 11.344C134.084 11.5128 133.501 16.0512 131.285 15.3128C129.07 14.5744 126.62 13.9003 126.251 15.3823C125.882 16.8643 126.731 18.3001 129.439 17.8049C133.132 17.1297 133.132 21.3473 130.475 20.9464C129.407 20.7853 126.448 20.7376 126.486 21.763C126.552 23.5767 127.686 23.6531 129.716 23.6197C132.336 23.5767 132.879 26.77 130.166 26.3479C128.786 26.1331 126.393 25.1888 126.209 26.6656C126.024 28.1424 131.674 26.5214 131.372 29.4212C131.194 31.1362 126.209 27.7732 125.932 29.8038C125.655 31.8344 130.738 29.761 130.83 32.2531C130.922 34.7452 126.39 31.7168 126.552 33.2774C126.807 35.7272 130.916 34.6028 130.916 36.2183C130.916 37.8338 125.709 38.2783 122.978 31.096C120.719 25.1536 117.44 25.8243 117.44 18.522Z" fill="url(#paint0_radial_938_25071)"/>
<path id="Vector_2" d="M76.6648 28.6134C82.1833 28.6134 86.6569 24.1319 86.6569 18.6037C86.6569 13.0755 82.1833 8.59399 76.6648 8.59399C71.1464 8.59399 66.6729 13.0755 66.6729 18.6037C66.6729 24.1319 71.1464 28.6134 76.6648 28.6134Z" fill="url(#paint1_radial_938_25071)"/>
<path id="Vector_3" d="M76.4922 18.6038C76.4922 10.6204 69.6606 4.14868 61.2334 4.14868C52.8062 4.14868 42.8701 5.31208 42.8701 18.6038C42.8701 31.8955 52.8062 33.0589 61.2334 33.0589C69.6606 33.0589 76.4922 26.5872 76.4922 18.6038Z" fill="url(#paint2_radial_938_25071)"/>
</g>
<g id="R-ICO-013121" opacity="0.8">
<g id="Nucleus" opacity="0.8">
<mask id="path-5-inside-1_938_25071" fill="white">
<path d="M80.7663 21.5073C82.3707 21.5073 83.6713 20.2067 83.6713 18.6023C83.6713 16.9979 82.3707 15.6973 80.7663 15.6973C79.1619 15.6973 77.8613 16.9979 77.8613 18.6023C77.8613 20.2067 79.1619 21.5073 80.7663 21.5073Z"/>
</mask>
<path d="M80.7663 21.5073C82.3707 21.5073 83.6713 20.2067 83.6713 18.6023C83.6713 16.9979 82.3707 15.6973 80.7663 15.6973C79.1619 15.6973 77.8613 16.9979 77.8613 18.6023C77.8613 20.2067 79.1619 21.5073 80.7663 21.5073Z" fill="url(#paint3_radial_938_25071)" stroke="#5656A5" stroke-width="0.43575" mask="url(#path-5-inside-1_938_25071)"/>
</g>
<g id="R-ICO-013619">
<g id="Nucleolus">
<mask id="path-6-inside-2_938_25071" fill="white">
<path d="M79.4 20.3727C79.6807 20.3727 79.9084 20.1451 79.9084 19.8643C79.9084 19.5836 79.6807 19.356 79.4 19.356C79.1192 19.356 78.8916 19.5836 78.8916 19.8643C78.8916 20.1451 79.1192 20.3727 79.4 20.3727Z"/>
</mask>
<path d="M79.4 20.3727C79.6807 20.3727 79.9084 20.1451 79.9084 19.8643C79.9084 19.5836 79.6807 19.356 79.4 19.356C79.1192 19.356 78.8916 19.5836 78.8916 19.8643C78.8916 20.1451 79.1192 20.3727 79.4 20.3727Z" fill="url(#paint4_radial_938_25071)" stroke="#4B4C96" stroke-width="0.101675" mask="url(#path-6-inside-2_938_25071)"/>
</g>
</g>
</g>
<g id="Mitochondria">
<g id="R-ICO-013020" opacity="0.8">
<path id="Vector_4" d="M59.225 25.7678C59.0819 26.3114 59.7326 27.1411 60.4135 27.6066C61.4386 28.3033 63.8918 27.7493 65.3865 26.7907C66.2943 26.2094 66.4649 25.6716 66.4446 25.3275C66.4388 25.2292 66.4157 25.1295 66.3781 25.0355C66.271 24.7681 66.0354 24.5354 65.7101 24.372C65.1867 24.1119 64.3743 24.0512 63.7512 24.485C62.7379 25.2007 61.8951 25.2109 60.9149 25.2342C60.6244 25.2414 60.3237 25.2444 60.0071 25.2704C59.4476 25.3182 59.2698 25.5654 59.225 25.7678Z" fill="url(#paint5_linear_938_25071)"/>
<path id="Vector_5" d="M60.6228 25.4683C60.6011 25.6028 60.7833 26.1 60.8831 26.3704C61.0653 26.8677 61.1217 27.0296 61.0567 27.1394C61.0292 27.1756 60.9887 27.2002 60.9497 27.2074C60.7704 27.2204 60.6793 26.9718 60.4682 26.3603C60.367 26.0654 60.2007 25.5869 60.1096 25.5059C60.0778 25.5103 60.046 25.5146 60.0185 25.5089C59.6874 25.5407 59.4937 25.6434 59.4432 25.8313C59.3449 26.2144 59.8524 26.9589 60.5377 27.4142C60.8023 27.5934 61.2071 27.683 61.7101 27.6829C61.7044 27.5427 61.5728 27.151 61.473 26.8806C61.2546 26.272 61.1765 25.993 61.2618 25.8499C61.2864 25.8065 61.3312 25.7718 61.3876 25.766C61.6102 25.7356 61.6955 26.0537 61.8271 26.5293C61.9501 26.9832 62.1366 27.68 62.4171 27.6265C62.9332 27.5541 63.4796 27.411 64.0029 27.21C64.0231 27.0929 63.8424 26.6621 63.731 26.4048C63.4896 25.8222 63.3117 25.3986 63.556 25.2757C63.6037 25.2482 63.6557 25.2526 63.7063 25.2743C63.848 25.335 63.9276 25.5547 64.078 25.9725C64.1199 26.0982 64.1705 26.2457 64.2255 26.383C64.3296 26.6432 64.4467 26.8731 64.5754 26.9222C64.6028 26.928 64.6404 26.9381 64.6954 26.9077C64.8963 26.8022 65.0828 26.7024 65.249 26.594C65.9573 26.1429 66.2883 25.6498 66.1813 25.2147C66.0801 24.794 65.5798 24.4659 64.9698 24.4082C64.9596 24.4038 64.9553 24.414 64.9553 24.414C64.9091 24.5079 65.1578 25.0038 65.2778 25.2408C65.4961 25.6817 65.619 25.926 65.4571 26.0244C65.4094 26.0518 65.353 26.0576 65.3053 26.0432C65.1347 25.994 65.0032 25.7281 64.7834 25.2626C64.6648 25.0082 64.4146 24.4877 64.3004 24.4747C64.1501 24.5181 64.0113 24.5904 63.8783 24.6772C63.5111 24.9331 63.1498 25.1196 62.7551 25.244C62.7334 25.2527 62.719 25.2585 62.7103 25.2787C62.6337 25.4435 62.8289 25.9524 62.9648 26.2921C63.1326 26.7113 63.215 26.9383 63.1485 27.0655C63.1239 27.1089 63.0864 27.1407 63.0329 27.1537C62.7727 27.2159 62.6382 26.8169 62.4429 26.2661C62.3547 26.0247 62.1349 25.3915 62.0222 25.4031C61.655 25.4494 61.2979 25.4581 60.9162 25.4683C60.815 25.4668 60.724 25.4697 60.6228 25.4683Z" fill="#AD342D"/>
<g id="LIGHT">
<mask id="mask0_938_25071" style="mask-type:alpha" maskUnits="userSpaceOnUse" x="59" y="26" width="6" height="2">
<path id="MASK" d="M59.6357 26.5006C59.7659 26.7001 60.3356 27.7886 61.7176 27.68C62.945 27.5831 63.623 27.4543 64.8821 26.808C64.8821 26.808 62.0356 27.6366 60.9224 27.1597C59.8092 26.6827 59.6357 26.5006 59.6357 26.5006Z" fill="url(#paint6_linear_938_25071)"/>
</mask>
<g mask="url(#mask0_938_25071)">
<path id="LIGHT_2" d="M59.6357 26.5006C59.7659 26.7001 60.3356 27.7886 61.7176 27.68C62.945 27.5831 63.623 27.4543 64.8821 26.808C64.8821 26.808 62.0356 27.6366 60.9224 27.1597C59.8092 26.6827 59.6357 26.5006 59.6357 26.5006Z" fill="url(#paint7_radial_938_25071)"/>
</g>
</g>
</g>
<g id="R-ICO-013020_2" opacity="0.8">
<path id="Vector_6" d="M65.6787 12.8527C65.601 12.296 64.6806 11.7815 63.8728 11.6149C62.6583 11.3676 60.6087 12.8252 59.5996 14.2863C58.9864 15.1728 59.0366 15.7348 59.188 16.0444C59.2313 16.1329 59.2911 16.216 59.3621 16.2881C59.564 16.4936 59.8712 16.6174 60.2343 16.6425C60.8175 16.6806 61.5905 16.4231 61.9979 15.7825C62.6566 14.7312 63.4302 14.3966 64.3255 13.997C64.5908 13.8782 64.8671 13.7595 65.1491 13.6133C65.6468 13.3534 65.7155 13.0567 65.6787 12.8527Z" fill="url(#paint8_linear_938_25071)"/>
<path id="Vector_7" d="M64.5042 13.6682C64.4723 13.5358 64.1124 13.1473 63.916 12.9364C63.5561 12.5479 63.4416 12.4203 63.4592 12.2938C63.4706 12.2499 63.4984 12.2116 63.5316 12.1899C63.692 12.1087 63.872 12.3029 64.3027 12.7856C64.5099 13.0186 64.8479 13.3959 64.9632 13.4354C64.9908 13.4191 65.0185 13.4029 65.0461 13.3976C65.3392 13.2405 65.4783 13.071 65.4525 12.8781C65.3953 12.4868 64.6398 11.9958 63.8319 11.8401C63.5187 11.7769 63.1107 11.8504 62.6466 12.0446C62.706 12.1717 62.9786 12.4823 63.1749 12.6932C63.6112 13.1705 63.7909 13.3977 63.7675 13.5627C63.7615 13.6122 63.7336 13.6615 63.6838 13.6886C63.4901 13.8025 63.2887 13.542 62.9838 13.154C62.6952 12.7827 62.2543 12.2118 62.0162 12.3694C61.5679 12.6353 61.1191 12.9782 60.7138 13.3655C60.7403 13.4814 61.0733 13.8091 61.2753 14.0035C61.7229 14.4478 62.0504 14.7699 61.8724 14.9776C61.839 15.0213 61.7893 15.0374 61.7343 15.0369C61.5802 15.0356 61.422 14.8636 61.1221 14.5362C61.0348 14.4363 60.9313 14.3198 60.8276 14.2143C60.6311 14.0144 60.4344 13.8476 60.2967 13.8519C60.2692 13.8571 60.2306 13.8623 60.1916 13.9115C60.047 14.0864 59.9134 14.2504 59.8019 14.4146C59.3225 15.1041 59.2073 15.6866 59.4739 16.0468C59.7297 16.3958 60.3178 16.5055 60.9029 16.3234C60.9139 16.3235 60.914 16.3125 60.914 16.3125C60.9204 16.208 60.4996 15.8465 60.2974 15.6741C59.9259 15.3516 59.7182 15.1736 59.8297 15.0204C59.8631 14.9767 59.9129 14.9496 59.9625 14.9445C60.1388 14.924 60.3628 15.1186 60.7452 15.4633C60.9527 15.6522 61.3843 16.0358 61.4947 16.0038C61.6167 15.9057 61.7168 15.7855 61.806 15.6541C62.046 15.2764 62.3075 14.9648 62.6236 14.6978C62.6402 14.6815 62.6513 14.6705 62.6515 14.6485C62.6586 14.4669 62.2822 14.0728 62.0257 13.8118C61.7092 13.4898 61.5456 13.3122 61.5578 13.1692C61.5637 13.1197 61.5861 13.0758 61.6305 13.0432C61.8465 12.8854 62.1246 13.2016 62.5172 13.6344C62.6917 13.8231 63.1388 14.3224 63.2384 14.2683C63.5592 14.0839 63.8853 13.9381 64.2335 13.7814C64.3274 13.7437 64.4103 13.7059 64.5042 13.6682Z" fill="#AD342D"/>
<g id="LIGHT_3">
<mask id="mask1_938_25071" style="mask-type:alpha" maskUnits="userSpaceOnUse" x="60" y="11" width="6" height="4">
<path id="MASK_2" d="M65.0173 12.3349C64.8203 12.201 63.8747 11.4166 62.6416 12.05C61.5467 12.6131 60.9708 12.9934 60.0586 14.0755C60.0586 14.0755 62.3649 12.2128 63.5759 12.2233C64.787 12.2338 65.0173 12.3349 65.0173 12.3349Z" fill="url(#paint9_linear_938_25071)"/>
</mask>
<g mask="url(#mask1_938_25071)">
<path id="LIGHT_4" d="M65.0173 12.3349C64.8203 12.201 63.8747 11.4166 62.6416 12.05C61.5467 12.6131 60.9708 12.9934 60.0586 14.0755C60.0586 14.0755 62.3649 12.2128 63.5759 12.2233C64.787 12.2338 65.0173 12.3349 65.0173 12.3349Z" fill="url(#paint10_radial_938_25071)"/>
</g>
</g>
</g>
<g id="R-ICO-013020_3" opacity="0.8">
<path id="Vector_8" d="M71.1309 22.1593C71.6649 21.9836 72.0071 20.9862 72.0271 20.1617C72.054 18.9225 70.2546 17.1655 68.637 16.4329C67.6554 15.9875 67.1114 16.137 66.8337 16.3412C66.7544 16.3995 66.6833 16.4732 66.6249 16.5559C66.4587 16.7912 66.3917 17.1155 66.4316 17.4773C66.4981 18.058 66.8892 18.7727 67.5921 19.0594C68.744 19.5203 69.2111 20.2219 69.7638 21.0317C69.928 21.2715 70.094 21.5222 70.2881 21.7737C70.6326 22.2171 70.9368 22.2318 71.1309 22.1593Z" fill="url(#paint11_linear_938_25071)"/>
<path id="Vector_9" d="M70.1195 21.1491C70.2441 21.0941 70.5622 20.6707 70.7347 20.4399C71.0529 20.0165 71.158 19.8811 71.2856 19.8759C71.3309 19.8793 71.3735 19.8998 71.4008 19.9287C71.5093 20.072 71.3502 20.2837 70.952 20.7935C70.7597 21.0389 70.4486 21.4388 70.4303 21.5592C70.4512 21.5836 70.4722 21.6079 70.4823 21.6341C70.6891 21.8945 70.8806 22.0012 71.0658 21.9414C71.4407 21.8154 71.7893 20.9846 71.7985 20.1618C71.8049 19.8423 71.6598 19.454 71.3861 19.0319C71.2716 19.113 71.0145 19.4366 70.8419 19.6674C70.4501 20.1817 70.2585 20.399 70.092 20.4053C70.0422 20.4083 69.9887 20.3896 69.9532 20.3454C69.8066 20.1752 70.027 19.9305 70.3545 19.5614C70.6685 19.2113 71.1516 18.6756 70.9541 18.4694C70.6126 18.0758 70.1952 17.6952 69.7419 17.3654C69.6326 17.4122 69.3695 17.7982 69.2142 18.0316C68.8567 18.5512 68.5981 18.9309 68.3621 18.7928C68.3131 18.7677 68.2884 18.7217 68.279 18.6674C68.2529 18.5155 68.394 18.3292 68.6627 17.9757C68.7454 17.8721 68.8416 17.7494 68.9269 17.6286C69.0886 17.3997 69.2178 17.1764 69.189 17.0417C69.1789 17.0155 69.1669 16.9784 69.1116 16.9489C68.9137 16.8377 68.7285 16.7355 68.5471 16.655C67.7832 16.3061 67.1895 16.2966 66.8826 16.6232C66.5847 16.937 66.5815 17.5352 66.865 18.0785C66.8669 18.0894 66.8777 18.0875 66.8777 18.0875C66.9817 18.0752 67.2624 17.5968 67.3961 17.3671C67.6472 16.944 67.7853 16.708 67.9559 16.7903C68.0049 16.8154 68.0405 16.8595 68.0543 16.9074C68.1059 17.0773 67.9543 17.3324 67.6833 17.7701C67.5343 18.008 67.2338 18.501 67.285 18.6039C67.4032 18.7065 67.5394 18.7836 67.6845 18.848C68.099 19.0168 68.4521 19.2185 68.7712 19.482C68.7903 19.4955 68.803 19.5045 68.8247 19.5007C69.0046 19.4753 69.3254 19.0347 69.5365 18.7358C69.797 18.367 69.9426 18.1744 70.0855 18.1609C70.1352 18.158 70.1824 18.1722 70.2224 18.21C70.4161 18.3945 70.1545 18.7244 69.7986 19.1878C69.6441 19.3932 69.2324 19.9221 69.3034 20.0104C69.5421 20.2933 69.7436 20.5882 69.9598 20.9029C70.0137 20.9886 70.0656 21.0634 70.1195 21.1491Z" fill="#AD342D"/>
<g id="LIGHT_5">
<mask id="mask2_938_25071" style="mask-type:alpha" maskUnits="userSpaceOnUse" x="68" y="16" width="4" height="6">
<path id="MASK_3" d="M71.5229 21.416C71.6195 21.1983 72.2229 20.1281 71.3799 19.0276C70.6308 18.0505 70.1539 17.5517 68.9265 16.8469C68.9265 16.8469 71.1704 18.7843 71.3759 19.9778C71.5814 21.1714 71.5229 21.416 71.5229 21.416Z" fill="url(#paint12_linear_938_25071)"/>
</mask>
<g mask="url(#mask2_938_25071)">
<path id="LIGHT_6" d="M71.5229 21.416C71.6195 21.1983 72.2229 20.1281 71.3799 19.0276C70.6308 18.0505 70.1539 17.5517 68.9265 16.8469C68.9265 16.8469 71.1704 18.7843 71.3759 19.9778C71.5814 21.1714 71.5229 21.416 71.5229 21.416Z" fill="url(#paint13_radial_938_25071)"/>
</g>
</g>
</g>
</g>
<g id="SHADE" opacity="0.4">
<path id="Vector_10" d="M76.4922 18.6035C76.4922 10.6201 69.6606 4.14844 61.2334 4.14844C52.8062 4.14844 42.8701 5.31184 42.8701 18.6035C42.8701 31.8952 52.8062 33.0586 61.2334 33.0586C69.6606 33.0586 76.4922 26.5869 76.4922 18.6035Z" fill="#D12F61"/>
<path id="Vector_11" d="M76.6648 28.6132C82.1833 28.6132 86.6569 24.1317 86.6569 18.6034C86.6569 13.0752 82.1833 8.59375 76.6648 8.59375C71.1464 8.59375 66.6729 13.0752 66.6729 18.6034C66.6729 24.1317 71.1464 28.6132 76.6648 28.6132Z" fill="#D12F61"/>
</g>
<g id="SHINE">
<path id="Vector_12" d="M76.4922 18.6038C76.4922 10.6204 69.6606 4.14868 61.2334 4.14868C52.8062 4.14868 42.8701 5.31208 42.8701 18.6038C42.8701 31.8955 52.8062 33.0589 61.2334 33.0589C69.6606 33.0589 76.4922 26.5872 76.4922 18.6038Z" fill="url(#paint14_radial_938_25071)"/>
<path id="Vector_13" d="M117.44 18.522C117.44 9.94897 124.086 11.1594 124.824 5.80607C125.563 0.452769 130.633 -1.04383 131.312 0.680769C132.095 2.66907 127.82 2.63547 127.577 3.81387C127.219 5.54307 128.42 6.02407 130.733 6.08297C133.903 6.16367 133.602 9.41727 131.18 8.81517C129.998 8.52137 127.694 7.97707 127.501 8.92127C127.215 10.3211 127.233 11.1368 131.008 11.344C134.084 11.5128 133.501 16.0512 131.285 15.3128C129.07 14.5744 126.62 13.9003 126.251 15.3823C125.882 16.8643 126.731 18.3001 129.439 17.8049C133.132 17.1297 133.132 21.3473 130.475 20.9464C129.407 20.7853 126.448 20.7376 126.486 21.763C126.552 23.5767 127.686 23.6531 129.716 23.6197C132.336 23.5767 132.879 26.77 130.166 26.3479C128.786 26.1331 126.393 25.1888 126.209 26.6656C126.024 28.1424 131.674 26.5214 131.372 29.4212C131.194 31.1362 126.209 27.7732 125.932 29.8038C125.655 31.8344 130.738 29.761 130.83 32.2531C130.922 34.7452 126.39 31.7168 126.552 33.2774C126.807 35.7272 130.916 34.6028 130.916 36.2183C130.916 37.8338 125.709 38.2783 122.978 31.096C120.719 25.1536 117.44 25.8243 117.44 18.522Z" fill="url(#paint15_radial_938_25071)"/>
<path id="Vector_14" d="M76.6648 28.6134C82.1833 28.6134 86.6569 24.1319 86.6569 18.6037C86.6569 13.0755 82.1833 8.59399 76.6648 8.59399C71.1464 8.59399 66.6729 13.0755 66.6729 18.6037C66.6729 24.1319 71.1464 28.6134 76.6648 28.6134Z" fill="url(#paint16_radial_938_25071)"/>
</g>
<g id="Group">
<g id="Group_2">
<path id="Vector_15" d="M47.4775 33.0587C49.7444 33.0587 51.582 26.5869 51.582 18.6036C51.582 10.6203 49.7444 4.14844 47.4775 4.14844H45.875V33.0587H47.4775Z" fill="url(#paint17_linear_938_25071)"/>
<path id="Vector_16" d="M45.875 33.0586C48.1419 33.0586 49.9795 26.5869 49.9795 18.6035C49.9795 10.6202 48.1419 4.14844 45.875 4.14844C43.6082 4.14844 41.7705 10.6202 41.7705 18.6035C41.7705 26.5869 43.6082 33.0586 45.875 33.0586Z" fill="url(#paint18_linear_938_25071)"/>
</g>
<g id="Group_3">
<path id="Vector_17" d="M44.7519 32.826C46.9823 32.826 48.7904 26.4584 48.7904 18.6035C48.7904 10.7486 46.9822 4.3811 44.7519 4.3811H43.1494V32.826H44.7519Z" fill="url(#paint19_linear_938_25071)"/>
<path id="Vector_18" d="M43.1498 32.8261C45.3802 32.8261 47.1883 26.4585 47.1883 18.6036C47.1883 10.7487 45.3802 4.3811 43.1498 4.3811C40.9194 4.3811 39.1113 10.7487 39.1113 18.6036C39.1113 26.4585 40.9194 32.8261 43.1498 32.8261Z" fill="url(#paint20_linear_938_25071)"/>
</g>
<g id="Group_4">
<path id="Vector_19" d="M42.0283 32.5934C44.2222 32.5934 46.0007 26.33 46.0007 18.6036C46.0007 10.8772 44.2222 4.61377 42.0283 4.61377H40.4258V32.5934H42.0283Z" fill="url(#paint21_linear_938_25071)"/>
<path id="Vector_20" d="M40.4255 32.5934C42.6194 32.5934 44.3979 26.3299 44.3979 18.6036C44.3979 10.8772 42.6194 4.61377 40.4255 4.61377C38.2316 4.61377 36.4531 10.8772 36.4531 18.6036C36.4531 26.3299 38.2316 32.5934 40.4255 32.5934Z" fill="url(#paint22_linear_938_25071)"/>
</g>
<g id="Group_5">
<path id="Vector_21" d="M39.3037 32.3606C41.4611 32.3606 43.21 26.2013 43.21 18.6035C43.21 11.0057 41.4611 4.84644 39.3037 4.84644H37.7012V32.3606H39.3037Z" fill="url(#paint23_linear_938_25071)"/>
<path id="Vector_22" d="M37.7012 32.3606C39.8586 32.3606 41.6075 26.2014 41.6075 18.6035C41.6075 11.0057 39.8586 4.84644 37.7012 4.84644C35.5438 4.84644 33.7949 11.0057 33.7949 18.6035C33.7949 26.2014 35.5438 32.3606 37.7012 32.3606Z" fill="url(#paint24_linear_938_25071)"/>
</g>
<g id="Group_6">
<path id="Vector_23" d="M36.58 32.128C38.7009 32.128 40.4203 26.0729 40.4203 18.6036C40.4203 11.1343 38.7009 5.0791 36.58 5.0791H34.9775V32.128H36.58Z" fill="url(#paint25_linear_938_25071)"/>
<path id="Vector_24" d="M34.978 32.1279C37.0989 32.1279 38.8183 26.0728 38.8183 18.6035C38.8183 11.1342 37.0989 5.0791 34.978 5.0791C32.8571 5.0791 31.1377 11.1342 31.1377 18.6035C31.1377 26.0728 32.8571 32.1279 34.978 32.1279Z" fill="url(#paint26_linear_938_25071)"/>
</g>
<g id="Group_7">
<path id="Vector_25" d="M33.8535 31.8953C35.9379 31.8953 37.6277 25.9444 37.6277 18.6035C37.6277 11.2626 35.938 5.31177 33.8535 5.31177H32.251V31.8953H33.8535Z" fill="url(#paint27_linear_938_25071)"/>
<path id="Vector_26" d="M32.2508 31.8954C34.3352 31.8954 36.025 25.9444 36.025 18.6036C36.025 11.2627 34.3352 5.31177 32.2508 5.31177C30.1663 5.31177 28.4766 11.2627 28.4766 18.6036C28.4766 25.9444 30.1663 31.8954 32.2508 31.8954Z" fill="url(#paint28_linear_938_25071)"/>
</g>
<g id="Group_8">
<path id="Vector_27" d="M31.125 31.3138C33.1182 31.3138 34.734 25.6233 34.734 18.6037C34.734 11.5841 33.1182 5.89355 31.125 5.89355H29.5225V31.3138H31.125Z" fill="url(#paint29_linear_938_25071)"/>
<path id="Vector_28" d="M29.5221 31.3138C31.5153 31.3138 33.1311 25.6232 33.1311 18.6037C33.1311 11.5841 31.5153 5.89355 29.5221 5.89355C27.5289 5.89355 25.9131 11.5841 25.9131 18.6037C25.9131 25.6232 27.5289 31.3138 29.5221 31.3138Z" fill="url(#paint30_linear_938_25071)"/>
</g>
<g id="Group_9">
<path id="Vector_29" d="M28.4004 30.7319C30.3024 30.7319 31.8442 25.3018 31.8442 18.6035C31.8442 11.9052 30.3024 6.4751 28.4004 6.4751H26.7979V30.7319H28.4004Z" fill="url(#paint31_linear_938_25071)"/>
<path id="Vector_30" d="M26.7974 30.7319C28.6994 30.7319 30.2413 25.3018 30.2413 18.6035C30.2413 11.9052 28.6994 6.4751 26.7974 6.4751C24.8954 6.4751 23.3535 11.9052 23.3535 18.6035C23.3535 25.3018 24.8954 30.7319 26.7974 30.7319Z" fill="url(#paint32_linear_938_25071)"/>
</g>
<g id="Group_10">
<path id="Vector_31" d="M25.6728 30.1503C27.4836 30.1503 28.9515 24.9807 28.9515 18.6036C28.9515 12.2265 27.4836 7.05688 25.6728 7.05688H24.0703V30.1503H25.6728Z" fill="url(#paint33_linear_938_25071)"/>
<path id="Vector_32" d="M24.0707 30.1503C25.8815 30.1503 27.3494 24.9806 27.3494 18.6036C27.3494 12.2265 25.8815 7.05688 24.0707 7.05688C22.2599 7.05688 20.792 12.2265 20.792 18.6036C20.792 24.9806 22.2599 30.1503 24.0707 30.1503Z" fill="url(#paint34_linear_938_25071)"/>
</g>
<g id="Group_11">
<path id="Vector_33" d="M22.9492 29.5684C24.6688 29.5684 26.0627 24.6592 26.0627 18.6034C26.0627 12.5476 24.6687 7.63843 22.9492 7.63843H21.3467V29.5684H22.9492Z" fill="url(#paint35_linear_938_25071)"/>
<path id="Vector_34" d="M21.3469 29.5684C23.0664 29.5684 24.4604 24.6592 24.4604 18.6034C24.4604 12.5476 23.0664 7.63843 21.3469 7.63843C19.6274 7.63843 18.2334 12.5476 18.2334 18.6034C18.2334 24.6592 19.6274 29.5684 21.3469 29.5684Z" fill="url(#paint36_linear_938_25071)"/>
</g>
<g id="Group_12">
<path id="Vector_35" d="M20.2255 28.696C21.8082 28.696 23.0913 24.1774 23.0913 18.6035C23.0913 13.0296 21.8082 8.51099 20.2255 8.51099H18.623V28.696H20.2255Z" fill="url(#paint37_linear_938_25071)"/>
<path id="Vector_36" d="M18.6226 28.696C20.2054 28.696 21.4884 24.1774 21.4884 18.6035C21.4884 13.0296 20.2054 8.51099 18.6226 8.51099C17.0399 8.51099 15.7568 13.0296 15.7568 18.6035C15.7568 24.1774 17.0399 28.696 18.6226 28.696Z" fill="url(#paint38_linear_938_25071)"/>
</g>
<g id="Group_13">
<path id="Vector_37" d="M17.4511 27.8235C18.897 27.8235 20.0691 23.6956 20.0691 18.6035C20.0691 13.5114 18.897 9.38354 17.4511 9.38354H15.8486V27.8234L17.4511 27.8235Z" fill="url(#paint39_linear_938_25071)"/>
<path id="Vector_38" d="M15.8485 27.8235C17.2944 27.8235 18.4665 23.6956 18.4665 18.6035C18.4665 13.5115 17.2944 9.38354 15.8485 9.38354C14.4026 9.38354 13.2305 13.5115 13.2305 18.6035C13.2305 23.6956 14.4026 27.8235 15.8485 27.8235Z" fill="url(#paint40_linear_938_25071)"/>
</g>
<g id="Group_14">
<path id="Vector_39" d="M14.8388 26.9509C16.1479 26.9509 17.2091 23.2136 17.2091 18.6035C17.2091 13.9934 16.1479 10.2561 14.8388 10.2561H13.2363V26.951L14.8388 26.9509Z" fill="url(#paint41_linear_938_25071)"/>
<path id="Vector_40" d="M13.2365 26.9509C14.5456 26.9509 15.6068 23.2136 15.6068 18.6035C15.6068 13.9934 14.5456 10.2561 13.2365 10.2561C11.9274 10.2561 10.8662 13.9934 10.8662 18.6035C10.8662 23.2136 11.9274 26.9509 13.2365 26.9509Z" fill="url(#paint42_linear_938_25071)"/>
</g>
<g id="Group_15">
<path id="Vector_41" d="M12.288 26.0785C13.4602 26.0785 14.4105 22.7319 14.4105 18.6036C14.4105 14.4753 13.4602 11.1287 12.288 11.1287H10.6855V26.0785H12.288Z" fill="url(#paint43_linear_938_25071)"/>
<path id="Vector_42" d="M10.686 26.0785C11.8582 26.0785 12.8085 22.7318 12.8085 18.6036C12.8085 14.4753 11.8582 11.1287 10.686 11.1287C9.51375 11.1287 8.56348 14.4753 8.56348 18.6036C8.56348 22.7318 9.51375 26.0785 10.686 26.0785Z" fill="url(#paint44_linear_938_25071)"/>
</g>
<g id="Group_16">
<path id="Vector_43" d="M9.80172 25.206C10.8371 25.206 11.6764 22.25 11.6764 18.6036C11.6764 14.9572 10.837 12.0012 9.80172 12.0012H8.19922V25.206H9.80172Z" fill="url(#paint45_linear_938_25071)"/>
<path id="Vector_44" d="M8.19892 25.206C9.23429 25.206 10.0736 22.25 10.0736 18.6036C10.0736 14.9572 9.23429 12.0012 8.19892 12.0012C7.16355 12.0012 6.32422 14.9572 6.32422 18.6036C6.32422 22.25 7.16355 25.206 8.19892 25.206Z" fill="url(#paint46_linear_938_25071)"/>
</g>
<g id="Group_17">
<path id="Vector_45" d="M7.36031 24.3334C8.25891 24.3334 8.98731 21.7681 8.98731 18.6036C8.98731 15.4391 8.25891 12.8738 7.36031 12.8738H5.75781V24.3335L7.36031 24.3334Z" fill="url(#paint47_linear_938_25071)"/>
<path id="Vector_46" d="M5.75786 24.3334C6.65643 24.3334 7.38486 21.7681 7.38486 18.6036C7.38486 15.4391 6.65643 12.8738 5.75786 12.8738C4.85929 12.8738 4.13086 15.4391 4.13086 18.6036C4.13086 21.7681 4.85929 24.3334 5.75786 24.3334Z" fill="url(#paint48_linear_938_25071)"/>
</g>
<g id="Group_18">
<path id="Vector_47" d="M5.0107 23.4609C5.7724 23.4609 6.3899 21.2862 6.3899 18.6036C6.3899 15.921 5.7724 13.7463 5.0107 13.7463H3.4082V23.4609H5.0107Z" fill="url(#paint49_linear_938_25071)"/>
<path id="Vector_48" d="M3.4085 23.4609C4.17021 23.4609 4.7877 21.2863 4.7877 18.6036C4.7877 15.921 4.17021 13.7463 3.4085 13.7463C2.64679 13.7463 2.0293 15.921 2.0293 18.6036C2.0293 21.2863 2.64679 23.4609 3.4085 23.4609Z" fill="url(#paint50_linear_938_25071)"/>
</g>
<g id="Group_19">
<path id="Vector_49" d="M2.73424 22.5883C3.35914 22.5883 3.86574 20.8042 3.86574 18.6035C3.86574 16.4028 3.35914 14.6187 2.73424 14.6187H1.13184V22.5883H2.73424Z" fill="url(#paint51_linear_938_25071)"/>
<path id="Vector_50" d="M1.1315 22.5883C1.75641 22.5883 2.263 20.8042 2.263 18.6035C2.263 16.4027 1.75641 14.6187 1.1315 14.6187C0.50659 14.6187 0 16.4027 0 18.6035C0 20.8042 0.50659 22.5883 1.1315 22.5883Z" fill="url(#paint52_linear_938_25071)"/>
</g>
</g>
</g>
<defs>
<radialGradient id="paint0_radial_938_25071" cx="0" cy="0" r="1" gradientTransform="matrix(-8.34067 -1.33633 -2.84245 17.7448 123.251 20.6025)" gradientUnits="userSpaceOnUse">
<stop stop-color="#9E254A"/>
<stop offset="0.5883" stop-color="#D32E60" stop-opacity="0"/>
</radialGradient>
<radialGradient id="paint1_radial_938_25071" cx="0" cy="0" r="1" gradientUnits="userSpaceOnUse" gradientTransform="translate(75.3819 14.8152) scale(14.4035)">
<stop offset="0.5206" stop-color="#D32E60"/>
<stop offset="0.6135" stop-color="#CE2D5E"/>
<stop offset="0.7204" stop-color="#C02A58"/>
<stop offset="0.8342" stop-color="#A9264D"/>
<stop offset="0.9521" stop-color="#891F3F"/>
<stop offset="1" stop-color="#7A1C38"/>
</radialGradient>
<radialGradient id="paint2_radial_938_25071" cx="0" cy="0" r="1" gradientUnits="userSpaceOnUse" gradientTransform="translate(59.3322 10.4912) scale(23.6344)">
<stop offset="0.5206" stop-color="#D32E60"/>
<stop offset="0.6135" stop-color="#CE2D5E"/>
<stop offset="0.7204" stop-color="#C02A58"/>
<stop offset="0.8342" stop-color="#A9264D"/>
<stop offset="0.9521" stop-color="#891F3F"/>
<stop offset="1" stop-color="#7A1C38"/>
</radialGradient>
<radialGradient id="paint3_radial_938_25071" cx="0" cy="0" r="1" gradientUnits="userSpaceOnUse" gradientTransform="translate(80.011 17.3927) scale(3.81807)">
<stop stop-color="#AFBAF7"/>
<stop offset="0.3111" stop-color="#6D96CE"/>
<stop offset="0.8032" stop-color="#285FCC"/>
</radialGradient>
<radialGradient id="paint4_radial_938_25071" cx="0" cy="0" r="1" gradientUnits="userSpaceOnUse" gradientTransform="translate(79.4003 19.8656) rotate(-15.5149) scale(0.630952)">
<stop stop-color="#B0B7DC"/>
<stop offset="0.3" stop-color="#B697C6"/>
<stop offset="0.8032" stop-color="#525281"/>
</radialGradient>
<linearGradient id="paint5_linear_938_25071" x1="62.2651" y1="24.8151" x2="64.5226" y2="28.2879" gradientUnits="userSpaceOnUse">
<stop stop-color="#D86E66"/>
<stop offset="1" stop-color="#A33029"/>
</linearGradient>
<linearGradient id="paint6_linear_938_25071" x1="65.0618" y1="26.7901" x2="59.6357" y2="26.5006" gradientUnits="userSpaceOnUse">
<stop offset="0.05" stop-opacity="0"/>
<stop offset="0.5" stop-color="white"/>
<stop offset="0.95" stop-opacity="0"/>
</linearGradient>
<radialGradient id="paint7_radial_938_25071" cx="0" cy="0" r="1" gradientTransform="matrix(0.172503 1.82535 3.55241 -0.335496 62.3622 25.9177)" gradientUnits="userSpaceOnUse">
<stop offset="0.782" stop-color="white" stop-opacity="0"/>
<stop offset="0.8523" stop-color="#FFBA94"/>
<stop offset="0.9002" stop-color="white" stop-opacity="0"/>
</radialGradient>
<linearGradient id="paint8_linear_938_25071" x1="63.2416" y1="14.9046" x2="59.819" y2="12.5717" gradientUnits="userSpaceOnUse">
<stop stop-color="#D86E66"/>
<stop offset="1" stop-color="#A33029"/>
</linearGradient>
<linearGradient id="paint9_linear_938_25071" x1="59.8997" y1="14.1614" x2="65.0173" y2="12.3349" gradientUnits="userSpaceOnUse">
<stop offset="0.05" stop-opacity="0"/>
<stop offset="0.5" stop-color="white"/>
<stop offset="0.95" stop-opacity="0"/>
</linearGradient>
<radialGradient id="paint10_radial_938_25071" cx="0" cy="0" r="1" gradientTransform="matrix(-0.863429 -1.61745 -3.1479 1.68016 62.7269 13.9247)" gradientUnits="userSpaceOnUse">
<stop offset="0.782" stop-color="white" stop-opacity="0"/>
<stop offset="0.8523" stop-color="#FFBA94"/>
<stop offset="0.9002" stop-color="white" stop-opacity="0"/>
</radialGradient>
<linearGradient id="paint11_linear_938_25071" x1="68.6776" y1="20.1268" x2="70.3633" y2="16.3432" gradientUnits="userSpaceOnUse">
<stop stop-color="#D86E66"/>
<stop offset="1" stop-color="#A33029"/>
</linearGradient>
<linearGradient id="paint12_linear_938_25071" x1="68.8137" y1="16.7058" x2="71.5229" y2="21.416" gradientUnits="userSpaceOnUse">
<stop offset="0.05" stop-opacity="0"/>
<stop offset="0.5" stop-color="white"/>
<stop offset="0.95" stop-opacity="0"/>
</linearGradient>
<radialGradient id="paint13_radial_938_25071" cx="0" cy="0" r="1" gradientTransform="matrix(1.43771 -1.13782 -2.21419 -2.79813 69.5505 19.4455)" gradientUnits="userSpaceOnUse">
<stop offset="0.782" stop-color="white" stop-opacity="0"/>
<stop offset="0.8523" stop-color="#FFBA94"/>
<stop offset="0.9002" stop-color="white" stop-opacity="0"/>
</radialGradient>
<radialGradient id="paint14_radial_938_25071" cx="0" cy="0" r="1" gradientTransform="matrix(-2.42466 0.945452 2.42518 6.22 55.3431 11.7962)" gradientUnits="userSpaceOnUse">
<stop stop-color="#FF82A8"/>
<stop offset="1" stop-color="#FF82A8" stop-opacity="0"/>
</radialGradient>
<radialGradient id="paint15_radial_938_25071" cx="0" cy="0" r="1" gradientTransform="matrix(-1.67863 -1.35581 -2.88468 3.57154 121.397 13.5774)" gradientUnits="userSpaceOnUse">
<stop stop-color="#FF82A8"/>
<stop offset="1" stop-color="#FF82A8" stop-opacity="0"/>
</radialGradient>
<radialGradient id="paint16_radial_938_25071" cx="0" cy="0" r="1" gradientTransform="matrix(-1.64367 0.641079 1.46222 4.74242 77.4882 13.3083)" gradientUnits="userSpaceOnUse">
<stop stop-color="#FF82A8"/>
<stop offset="1" stop-color="#FF82A8" stop-opacity="0"/>
</radialGradient>
<linearGradient id="paint17_linear_938_25071" x1="48.7285" y1="4.14834" x2="48.7285" y2="33.0586" gradientUnits="userSpaceOnUse">
<stop stop-color="#7A1C38"/>
<stop offset="0.0207" stop-color="#841E3D"/>
<stop offset="0.0919" stop-color="#A1254A"/>
<stop offset="0.1629" stop-color="#B52A54"/>
<stop offset="0.2326" stop-color="#C22D5A"/>
<stop offset="0.3" stop-color="#C62E5C"/>
<stop offset="0.5877" stop-color="#C32D5B"/>
<stop offset="0.7607" stop-color="#BB2C57"/>
<stop offset="0.9029" stop-color="#AD2851"/>
<stop offset="1" stop-color="#9E254A"/>
</linearGradient>
<linearGradient id="paint18_linear_938_25071" x1="52.2188" y1="7.61574" x2="39.5313" y2="29.5912" gradientUnits="userSpaceOnUse">
<stop stop-color="#C62E5C"/>
<stop offset="0.2244" stop-color="#C22D5A"/>
<stop offset="0.4568" stop-color="#B52A54"/>
<stop offset="0.693" stop-color="#A1254A"/>
<stop offset="0.9303" stop-color="#841E3D"/>
<stop offset="0.9993" stop-color="#7A1C38"/>
</linearGradient>
<linearGradient id="paint19_linear_938_25071" x1="45.9698" y1="4.381" x2="45.9698" y2="32.8259" gradientUnits="userSpaceOnUse">
<stop stop-color="#7A1C38"/>
<stop offset="0.0207" stop-color="#841E3D"/>
<stop offset="0.0919" stop-color="#A1254A"/>
<stop offset="0.1629" stop-color="#B52A54"/>
<stop offset="0.2326" stop-color="#C22D5A"/>
<stop offset="0.3" stop-color="#C62E5C"/>
<stop offset="0.5877" stop-color="#C32D5B"/>
<stop offset="0.7607" stop-color="#BB2C57"/>
<stop offset="0.9029" stop-color="#AD2851"/>
<stop offset="1" stop-color="#9E254A"/>
</linearGradient>
<linearGradient id="paint20_linear_938_25071" x1="49.3915" y1="7.7927" x2="36.9081" y2="29.4145" gradientUnits="userSpaceOnUse">
<stop stop-color="#C62E5C"/>
<stop offset="0.2244" stop-color="#C22D5A"/>
<stop offset="0.4568" stop-color="#B52A54"/>
<stop offset="0.693" stop-color="#A1254A"/>
<stop offset="0.9303" stop-color="#841E3D"/>
<stop offset="0.9993" stop-color="#7A1C38"/>
</linearGradient>
<linearGradient id="paint21_linear_938_25071" x1="43.2133" y1="4.61377" x2="43.2133" y2="32.5934" gradientUnits="userSpaceOnUse">
<stop stop-color="#7A1C38"/>
<stop offset="0.0207" stop-color="#841E3D"/>
<stop offset="0.0919" stop-color="#A1254A"/>
<stop offset="0.1629" stop-color="#B52A54"/>
<stop offset="0.2326" stop-color="#C22D5A"/>
<stop offset="0.3" stop-color="#C62E5C"/>
<stop offset="0.5877" stop-color="#C32D5B"/>
<stop offset="0.7607" stop-color="#BB2C57"/>
<stop offset="0.9029" stop-color="#AD2851"/>
<stop offset="1" stop-color="#9E254A"/>
</linearGradient>
<linearGradient id="paint22_linear_938_25071" x1="46.565" y1="7.96947" x2="34.2862" y2="29.2376" gradientUnits="userSpaceOnUse">
<stop stop-color="#C62E5C"/>
<stop offset="0.2244" stop-color="#C22D5A"/>
<stop offset="0.4568" stop-color="#B52A54"/>
<stop offset="0.693" stop-color="#A1254A"/>
<stop offset="0.9303" stop-color="#841E3D"/>
<stop offset="0.9993" stop-color="#7A1C38"/>
</linearGradient>
<linearGradient id="paint23_linear_938_25071" x1="40.4555" y1="4.84644" x2="40.4555" y2="32.3606" gradientUnits="userSpaceOnUse">
<stop stop-color="#7A1C38"/>
<stop offset="0.0207" stop-color="#841E3D"/>
<stop offset="0.0919" stop-color="#A1254A"/>
<stop offset="0.1629" stop-color="#B52A54"/>
<stop offset="0.2326" stop-color="#C22D5A"/>
<stop offset="0.3" stop-color="#C62E5C"/>
<stop offset="0.5877" stop-color="#C32D5B"/>
<stop offset="0.7607" stop-color="#BB2C57"/>
<stop offset="0.9029" stop-color="#AD2851"/>
<stop offset="1" stop-color="#9E254A"/>
</linearGradient>
<linearGradient id="paint24_linear_938_25071" x1="43.7386" y1="8.14634" x2="31.6639" y2="29.0606" gradientUnits="userSpaceOnUse">
<stop stop-color="#C62E5C"/>
<stop offset="0.2244" stop-color="#C22D5A"/>
<stop offset="0.4568" stop-color="#B52A54"/>
<stop offset="0.693" stop-color="#A1254A"/>
<stop offset="0.9303" stop-color="#841E3D"/>
<stop offset="0.9993" stop-color="#7A1C38"/>
</linearGradient>
<linearGradient id="paint25_linear_938_25071" x1="37.6992" y1="5.079" x2="37.6992" y2="32.1279" gradientUnits="userSpaceOnUse">
<stop stop-color="#7A1C38"/>
<stop offset="0.0207" stop-color="#841E3D"/>
<stop offset="0.0919" stop-color="#A1254A"/>
<stop offset="0.1629" stop-color="#B52A54"/>
<stop offset="0.2326" stop-color="#C22D5A"/>
<stop offset="0.3" stop-color="#C62E5C"/>
<stop offset="0.5877" stop-color="#C32D5B"/>
<stop offset="0.7607" stop-color="#BB2C57"/>
<stop offset="0.9029" stop-color="#AD2851"/>
<stop offset="1" stop-color="#9E254A"/>
</linearGradient>
<linearGradient id="paint26_linear_938_25071" x1="40.9134" y1="8.3232" x2="29.0428" y2="28.8838" gradientUnits="userSpaceOnUse">
<stop stop-color="#C62E5C"/>
<stop offset="0.2244" stop-color="#C22D5A"/>
<stop offset="0.4568" stop-color="#B52A54"/>
<stop offset="0.693" stop-color="#A1254A"/>
<stop offset="0.9303" stop-color="#841E3D"/>
<stop offset="0.9993" stop-color="#7A1C38"/>
</linearGradient>
<linearGradient id="paint27_linear_938_25071" x1="34.9393" y1="5.31167" x2="34.9393" y2="31.8952" gradientUnits="userSpaceOnUse">
<stop stop-color="#7A1C38"/>
<stop offset="0.0207" stop-color="#841E3D"/>
<stop offset="0.0919" stop-color="#A1254A"/>
<stop offset="0.1629" stop-color="#B52A54"/>
<stop offset="0.2326" stop-color="#C22D5A"/>
<stop offset="0.3" stop-color="#C62E5C"/>
<stop offset="0.5877" stop-color="#C32D5B"/>
<stop offset="0.7607" stop-color="#BB2C57"/>
<stop offset="0.9029" stop-color="#AD2851"/>
<stop offset="1" stop-color="#9E254A"/>
</linearGradient>
<linearGradient id="paint28_linear_938_25071" x1="38.084" y1="8.50007" x2="26.4175" y2="28.707" gradientUnits="userSpaceOnUse">
<stop stop-color="#C62E5C"/>
<stop offset="0.2244" stop-color="#C22D5A"/>
<stop offset="0.4568" stop-color="#B52A54"/>
<stop offset="0.693" stop-color="#A1254A"/>
<stop offset="0.9303" stop-color="#841E3D"/>
<stop offset="0.9993" stop-color="#7A1C38"/>
</linearGradient>
<linearGradient id="paint29_linear_938_25071" x1="32.1284" y1="5.89355" x2="32.1284" y2="31.3138" gradientUnits="userSpaceOnUse">
<stop stop-color="#7A1C38"/>
<stop offset="0.0207" stop-color="#841E3D"/>
<stop offset="0.0919" stop-color="#A1254A"/>
<stop offset="0.1629" stop-color="#B52A54"/>
<stop offset="0.2326" stop-color="#C22D5A"/>
<stop offset="0.3" stop-color="#C62E5C"/>
<stop offset="0.5877" stop-color="#C32D5B"/>
<stop offset="0.7607" stop-color="#BB2C57"/>
<stop offset="0.9029" stop-color="#AD2851"/>
<stop offset="1" stop-color="#9E254A"/>
</linearGradient>
<linearGradient id="paint30_linear_938_25071" x1="35.1001" y1="8.94235" x2="23.9444" y2="28.265" gradientUnits="userSpaceOnUse">
<stop stop-color="#C62E5C"/>
<stop offset="0.2244" stop-color="#C22D5A"/>
<stop offset="0.4568" stop-color="#B52A54"/>
<stop offset="0.693" stop-color="#A1254A"/>
<stop offset="0.9303" stop-color="#841E3D"/>
<stop offset="0.9993" stop-color="#7A1C38"/>
</linearGradient>
<linearGradient id="paint31_linear_938_25071" x1="29.3212" y1="6.4751" x2="29.3212" y2="30.7319" gradientUnits="userSpaceOnUse">
<stop stop-color="#7A1C38"/>
<stop offset="0.0207" stop-color="#841E3D"/>
<stop offset="0.0919" stop-color="#A1254A"/>
<stop offset="0.1629" stop-color="#B52A54"/>
<stop offset="0.2326" stop-color="#C22D5A"/>
<stop offset="0.3" stop-color="#C62E5C"/>
<stop offset="0.5877" stop-color="#C32D5B"/>
<stop offset="0.7607" stop-color="#BB2C57"/>
<stop offset="0.9029" stop-color="#AD2851"/>
<stop offset="1" stop-color="#9E254A"/>
</linearGradient>
<linearGradient id="paint32_linear_938_25071" x1="32.1201" y1="9.3843" x2="21.475" y2="27.8226" gradientUnits="userSpaceOnUse">
<stop stop-color="#C62E5C"/>
<stop offset="0.2244" stop-color="#C22D5A"/>
<stop offset="0.4568" stop-color="#B52A54"/>
<stop offset="0.693" stop-color="#A1254A"/>
<stop offset="0.9303" stop-color="#841E3D"/>
<stop offset="0.9993" stop-color="#7A1C38"/>
</linearGradient>
<linearGradient id="paint33_linear_938_25071" x1="26.5111" y1="7.05688" x2="26.5111" y2="30.1503" gradientUnits="userSpaceOnUse">
<stop stop-color="#7A1C38"/>
<stop offset="0.0207" stop-color="#841E3D"/>
<stop offset="0.0919" stop-color="#A1254A"/>
<stop offset="0.1629" stop-color="#B52A54"/>
<stop offset="0.2326" stop-color="#C22D5A"/>
<stop offset="0.3" stop-color="#C62E5C"/>
<stop offset="0.5877" stop-color="#C32D5B"/>
<stop offset="0.7607" stop-color="#BB2C57"/>
<stop offset="0.9029" stop-color="#AD2851"/>
<stop offset="1" stop-color="#9E254A"/>
</linearGradient>
<linearGradient id="paint34_linear_938_25071" x1="29.1383" y1="9.82658" x2="19.0035" y2="27.3806" gradientUnits="userSpaceOnUse">
<stop stop-color="#C62E5C"/>
<stop offset="0.2244" stop-color="#C22D5A"/>
<stop offset="0.4568" stop-color="#B52A54"/>
<stop offset="0.693" stop-color="#A1254A"/>
<stop offset="0.9303" stop-color="#841E3D"/>
<stop offset="0.9993" stop-color="#7A1C38"/>
</linearGradient>
<linearGradient id="paint35_linear_938_25071" x1="23.7049" y1="7.63833" x2="23.7049" y2="29.5684" gradientUnits="userSpaceOnUse">
<stop stop-color="#7A1C38"/>
<stop offset="0.0207" stop-color="#841E3D"/>
<stop offset="0.0919" stop-color="#A1254A"/>
<stop offset="0.1629" stop-color="#B52A54"/>
<stop offset="0.2326" stop-color="#C22D5A"/>
<stop offset="0.3" stop-color="#C62E5C"/>
<stop offset="0.5877" stop-color="#C32D5B"/>
<stop offset="0.7607" stop-color="#BB2C57"/>
<stop offset="0.9029" stop-color="#AD2851"/>
<stop offset="1" stop-color="#9E254A"/>
</linearGradient>
<linearGradient id="paint36_linear_938_25071" x1="26.1592" y1="10.2686" x2="16.5347" y2="26.9382" gradientUnits="userSpaceOnUse">
<stop stop-color="#C62E5C"/>
<stop offset="0.2244" stop-color="#C22D5A"/>
<stop offset="0.4568" stop-color="#B52A54"/>
<stop offset="0.693" stop-color="#A1254A"/>
<stop offset="0.9303" stop-color="#841E3D"/>
<stop offset="0.9993" stop-color="#7A1C38"/>
</linearGradient>
<linearGradient id="paint37_linear_938_25071" x1="20.8572" y1="8.51099" x2="20.8572" y2="28.696" gradientUnits="userSpaceOnUse">
<stop stop-color="#7A1C38"/>
<stop offset="0.0207" stop-color="#841E3D"/>
<stop offset="0.0919" stop-color="#A1254A"/>
<stop offset="0.1629" stop-color="#B52A54"/>
<stop offset="0.2326" stop-color="#C22D5A"/>
<stop offset="0.3" stop-color="#C62E5C"/>
<stop offset="0.5877" stop-color="#C32D5B"/>
<stop offset="0.7607" stop-color="#BB2C57"/>
<stop offset="0.9029" stop-color="#AD2851"/>
<stop offset="1" stop-color="#9E254A"/>
</linearGradient>
<linearGradient id="paint38_linear_938_25071" x1="23.0516" y1="10.9319" x2="14.1937" y2="26.2751" gradientUnits="userSpaceOnUse">
<stop stop-color="#C62E5C"/>
<stop offset="0.2244" stop-color="#C22D5A"/>
<stop offset="0.4568" stop-color="#B52A54"/>
<stop offset="0.693" stop-color="#A1254A"/>
<stop offset="0.9303" stop-color="#841E3D"/>
<stop offset="0.9993" stop-color="#7A1C38"/>
</linearGradient>
<linearGradient id="paint39_linear_938_25071" x1="17.9591" y1="9.38354" x2="17.9591" y2="27.8234" gradientUnits="userSpaceOnUse">
<stop stop-color="#7A1C38"/>
<stop offset="0.0207" stop-color="#841E3D"/>
<stop offset="0.0919" stop-color="#A1254A"/>
<stop offset="0.1629" stop-color="#B52A54"/>
<stop offset="0.2326" stop-color="#C22D5A"/>
<stop offset="0.3" stop-color="#C62E5C"/>
<stop offset="0.5877" stop-color="#C32D5B"/>
<stop offset="0.7607" stop-color="#BB2C57"/>
<stop offset="0.9029" stop-color="#AD2851"/>
<stop offset="1" stop-color="#9E254A"/>
</linearGradient>
<linearGradient id="paint40_linear_938_25071" x1="19.8951" y1="11.5951" x2="11.8023" y2="25.6118" gradientUnits="userSpaceOnUse">
<stop stop-color="#C62E5C"/>
<stop offset="0.2244" stop-color="#C22D5A"/>
<stop offset="0.4568" stop-color="#B52A54"/>
<stop offset="0.693" stop-color="#A1254A"/>
<stop offset="0.9303" stop-color="#841E3D"/>
<stop offset="0.9993" stop-color="#7A1C38"/>
</linearGradient>
<linearGradient id="paint41_linear_938_25071" x1="15.2228" y1="10.2559" x2="15.2228" y2="26.9508" gradientUnits="userSpaceOnUse">
<stop stop-color="#7A1C38"/>
<stop offset="0.0207" stop-color="#841E3D"/>
<stop offset="0.0919" stop-color="#A1254A"/>
<stop offset="0.1629" stop-color="#B52A54"/>
<stop offset="0.2326" stop-color="#C22D5A"/>
<stop offset="0.3" stop-color="#C62E5C"/>
<stop offset="0.5877" stop-color="#C32D5B"/>
<stop offset="0.7607" stop-color="#BB2C57"/>
<stop offset="0.9029" stop-color="#AD2851"/>
<stop offset="1" stop-color="#9E254A"/>
</linearGradient>
<linearGradient id="paint42_linear_938_25071" x1="16.8997" y1="12.2584" x2="9.57311" y2="24.9486" gradientUnits="userSpaceOnUse">
<stop stop-color="#C62E5C"/>
<stop offset="0.2244" stop-color="#C22D5A"/>
<stop offset="0.4568" stop-color="#B52A54"/>
<stop offset="0.693" stop-color="#A1254A"/>
<stop offset="0.9303" stop-color="#841E3D"/>
<stop offset="0.9993" stop-color="#7A1C38"/>
</linearGradient>
<linearGradient id="paint43_linear_938_25071" x1="12.5479" y1="11.1287" x2="12.5479" y2="26.0785" gradientUnits="userSpaceOnUse">
<stop stop-color="#7A1C38"/>
<stop offset="0.0207" stop-color="#841E3D"/>
<stop offset="0.0919" stop-color="#A1254A"/>
<stop offset="0.1629" stop-color="#B52A54"/>
<stop offset="0.2326" stop-color="#C22D5A"/>
<stop offset="0.3" stop-color="#C62E5C"/>
<stop offset="0.5877" stop-color="#C32D5B"/>
<stop offset="0.7607" stop-color="#BB2C57"/>
<stop offset="0.9029" stop-color="#AD2851"/>
<stop offset="1" stop-color="#9E254A"/>
</linearGradient>
<linearGradient id="paint44_linear_938_25071" x1="13.9663" y1="12.9217" x2="7.40578" y2="24.2855" gradientUnits="userSpaceOnUse">
<stop stop-color="#C62E5C"/>
<stop offset="0.2244" stop-color="#C22D5A"/>
<stop offset="0.4568" stop-color="#B52A54"/>
<stop offset="0.693" stop-color="#A1254A"/>
<stop offset="0.9303" stop-color="#841E3D"/>
<stop offset="0.9993" stop-color="#7A1C38"/>
</linearGradient>
<linearGradient id="paint45_linear_938_25071" x1="9.93812" y1="12.0012" x2="9.93812" y2="25.206" gradientUnits="userSpaceOnUse">
<stop stop-color="#7A1C38"/>
<stop offset="0.0207" stop-color="#841E3D"/>
<stop offset="0.0919" stop-color="#A1254A"/>
<stop offset="0.1629" stop-color="#B52A54"/>
<stop offset="0.2326" stop-color="#C22D5A"/>
<stop offset="0.3" stop-color="#C62E5C"/>
<stop offset="0.5877" stop-color="#C32D5B"/>
<stop offset="0.7607" stop-color="#BB2C57"/>
<stop offset="0.9029" stop-color="#AD2851"/>
<stop offset="1" stop-color="#9E254A"/>
</linearGradient>
<linearGradient id="paint46_linear_938_25071" x1="11.0965" y1="13.5849" x2="5.30162" y2="23.6222" gradientUnits="userSpaceOnUse">
<stop stop-color="#C62E5C"/>
<stop offset="0.2244" stop-color="#C22D5A"/>
<stop offset="0.4568" stop-color="#B52A54"/>
<stop offset="0.693" stop-color="#A1254A"/>
<stop offset="0.9303" stop-color="#841E3D"/>
<stop offset="0.9993" stop-color="#7A1C38"/>
</linearGradient>
<linearGradient id="paint47_linear_938_25071" x1="7.37261" y1="12.8736" x2="7.37261" y2="24.3333" gradientUnits="userSpaceOnUse">
<stop stop-color="#7A1C38"/>
<stop offset="0.0207" stop-color="#841E3D"/>
<stop offset="0.0919" stop-color="#A1254A"/>
<stop offset="0.1629" stop-color="#B52A54"/>
<stop offset="0.2326" stop-color="#C22D5A"/>
<stop offset="0.3" stop-color="#C62E5C"/>
<stop offset="0.5877" stop-color="#C32D5B"/>
<stop offset="0.7607" stop-color="#BB2C57"/>
<stop offset="0.9029" stop-color="#AD2851"/>
<stop offset="1" stop-color="#9E254A"/>
</linearGradient>
<linearGradient id="paint48_linear_938_25071" x1="8.27256" y1="14.2482" x2="3.24326" y2="22.959" gradientUnits="userSpaceOnUse">
<stop stop-color="#C62E5C"/>
<stop offset="0.2244" stop-color="#C22D5A"/>
<stop offset="0.4568" stop-color="#B52A54"/>
<stop offset="0.693" stop-color="#A1254A"/>
<stop offset="0.9303" stop-color="#841E3D"/>
<stop offset="0.9993" stop-color="#7A1C38"/>
</linearGradient>
<linearGradient id="paint49_linear_938_25071" x1="4.8989" y1="13.7463" x2="4.8989" y2="23.4609" gradientUnits="userSpaceOnUse">
<stop stop-color="#7A1C38"/>
<stop offset="0.0207" stop-color="#841E3D"/>
<stop offset="0.0919" stop-color="#A1254A"/>
<stop offset="0.1629" stop-color="#B52A54"/>
<stop offset="0.2326" stop-color="#C22D5A"/>
<stop offset="0.3" stop-color="#C62E5C"/>
<stop offset="0.5877" stop-color="#C32D5B"/>
<stop offset="0.7607" stop-color="#BB2C57"/>
<stop offset="0.9029" stop-color="#AD2851"/>
<stop offset="1" stop-color="#9E254A"/>
</linearGradient>
<linearGradient id="paint50_linear_938_25071" x1="5.5403" y1="14.9114" x2="1.2766" y2="22.2958" gradientUnits="userSpaceOnUse">
<stop stop-color="#C62E5C"/>
<stop offset="0.2244" stop-color="#C22D5A"/>
<stop offset="0.4568" stop-color="#B52A54"/>
<stop offset="0.693" stop-color="#A1254A"/>
<stop offset="0.9303" stop-color="#841E3D"/>
<stop offset="0.9993" stop-color="#7A1C38"/>
</linearGradient>
<linearGradient id="paint51_linear_938_25071" x1="2.49894" y1="14.6187" x2="2.49894" y2="22.5883" gradientUnits="userSpaceOnUse">
<stop stop-color="#7A1C38"/>
<stop offset="0.0207" stop-color="#841E3D"/>
<stop offset="0.0919" stop-color="#A1254A"/>
<stop offset="0.1629" stop-color="#B52A54"/>
<stop offset="0.2326" stop-color="#C22D5A"/>
<stop offset="0.3" stop-color="#C62E5C"/>
<stop offset="0.5877" stop-color="#C32D5B"/>
<stop offset="0.7607" stop-color="#BB2C57"/>
<stop offset="0.9029" stop-color="#AD2851"/>
<stop offset="1" stop-color="#9E254A"/>
</linearGradient>
<linearGradient id="paint52_linear_938_25071" x1="2.8804" y1="15.5745" x2="-0.6172" y2="21.6324" gradientUnits="userSpaceOnUse">
<stop stop-color="#C62E5C"/>
<stop offset="0.2244" stop-color="#C22D5A"/>
<stop offset="0.4568" stop-color="#B52A54"/>
<stop offset="0.693" stop-color="#A1254A"/>
<stop offset="0.9303" stop-color="#841E3D"/>
<stop offset="0.9993" stop-color="#7A1C38"/>
</linearGradient>
</defs>
</svg>
