<svg width="77" height="23" viewBox="0 0 77 23" fill="none" xmlns="http://www.w3.org/2000/svg">
<g id="R-ICO-013296">
<g id="RHOA,B,C">
<path d="M0.937195 11.5C0.937195 5.97715 5.41435 1.5 10.9372 1.5H64.9372C70.46 1.5 74.9372 5.97715 74.9372 11.5C74.9372 17.0228 70.46 21.5 64.9372 21.5H10.9372C5.41435 21.5 0.937195 17.0228 0.937195 11.5Z" fill="#94881D"/>
<path d="M53.6455 2.99266C39.4093 2.87443 25.1733 2.52283 10.9372 1.64001C10.9372 1.54664 10.9372 1.45328 10.9372 1.35991C25.1733 0.477089 39.4093 0.125486 53.6455 0.00726104C57.4093 -0.0127136 61.1732 0.010646 64.9372 0.0514109C68.7909 0.0530524 72.525 2.19528 74.4983 5.44378C75.6253 7.2515 76.2075 9.38983 76.165 11.5C76.2011 17.5011 70.6641 22.624 64.9379 22.2659C64.9376 22.2659 64.9374 22.2658 64.9372 22.2658C57.8193 22.0221 50.7008 21.8466 43.5831 21.953C36.465 22.056 29.3464 22.4645 22.2283 22.6648C18.4646 22.7509 14.7009 22.7667 10.9372 22.7395C7.15279 22.7509 3.48073 20.6306 1.57261 17.4323C0.485362 15.6507 -0.0607641 13.5556 0.00539011 11.5C0.035445 5.64623 5.54318 0.819377 10.9372 1.35991C10.9372 1.45328 10.9372 1.54664 10.9372 1.64001C5.67825 1.92141 1.57971 6.70035 1.86885 11.5C1.92681 13.2118 2.46669 14.8761 3.40335 16.2704C5.06065 18.776 7.98839 20.3103 10.9372 20.2606C14.7009 20.2334 18.4646 20.2492 22.2283 20.3353C29.3464 20.5356 36.465 20.9428 43.5831 21.0457C50.7009 21.1521 57.8192 20.978 64.9372 20.7342C64.9374 20.7342 64.9376 20.7342 64.9378 20.7342C69.8643 20.6343 73.9323 16.1516 73.7095 11.5C73.6751 9.84321 73.1717 8.22258 72.2752 6.85451C70.6833 4.39869 67.8172 2.88582 64.9372 2.9486C61.1732 2.98941 57.4093 3.01278 53.6455 2.99266Z" fill="url(#paint0_linear_938_23568)"/>
<text id="RHOA,B,C_2" fill="white" xml:space="preserve" style="white-space: pre" font-family="Arial" font-size="12" font-weight="bold" letter-spacing="0em"><tspan x="8.24774" y="15.6602">RHOA,B,C</tspan></text>
</g>
</g>
<defs>
<linearGradient id="paint0_linear_938_23568" x1="37.9372" y1="1.5" x2="37.9372" y2="21.5" gradientUnits="userSpaceOnUse">
<stop stop-color="#1C474A"/>
<stop offset="1" stop-color="#94881D"/>
</linearGradient>
</defs>
</svg>
