<svg width="129" height="123" viewBox="0 0 129 123" fill="none" xmlns="http://www.w3.org/2000/svg">
<g id="R-ICO-012887">
<g id="Group">
<path id="BG" d="M127.283 59.4603C127.283 64.5503 125.723 74.1603 125.543 79.0403C124.963 94.1003 117.963 94.0703 110.043 102.1C103.123 109.1 96.6332 111.78 87.0632 114.94C80.8432 117 68.8932 120.03 61.9732 120.03C54.4832 120.03 45.1332 122.43 38.4732 120.03C29.6932 116.87 26.2932 110.35 19.8132 103.89C12.3932 96.5003 9.8032 97.2703 6.7932 86.9403C5.1532 81.3303 1.2832 67.4003 1.2832 61.2703C1.2832 47.9203 6.4432 39.8703 13.5232 29.6803C17.8632 23.4403 22.2932 16.7003 28.5432 12.3803C33.7032 8.82027 40.3432 8.21027 46.4632 6.31027C52.3832 4.47027 57.7532 1.28027 64.2732 1.28027C73.4332 1.28027 82.1332 6.23027 89.9832 9.75027C95.8532 12.3803 101.243 12.8803 106.003 17.0803C114.293 24.4103 117.063 28.6203 120.583 39.3703C122.623 45.5303 127.283 52.6103 127.283 59.4603Z" fill="url(#paint0_radial_938_25161)"/>
<path id="Membrane" d="M128.623 56.6003C128.393 54.9403 127.863 53.4103 127.373 52.1403C126.913 50.9003 126.283 49.6103 125.373 48.0803C124.723 46.9803 123.993 45.6603 123.443 44.2503C123.083 43.3403 122.843 42.3603 122.603 41.4003C122.493 40.9703 122.393 40.5403 122.273 40.1203C121.933 38.8203 121.413 37.3803 120.773 35.9503C120.263 34.8503 119.563 33.4203 118.563 32.1303C118.363 30.2503 117.713 28.3303 116.613 26.4003C116.123 25.6003 115.503 24.8003 114.743 23.9603C114.143 23.2603 113.393 22.5703 112.463 21.8703C111.593 21.2203 110.923 20.6203 110.353 19.9803C110.033 19.6203 109.753 19.2103 109.463 18.7803C109.193 18.3903 108.923 17.9803 108.593 17.5903C107.503 16.3903 105.733 14.8803 103.443 14.4103C102.423 13.1903 101.003 12.2003 99.1131 11.3903C98.2731 11.0503 97.3831 10.8303 96.6131 10.6503C95.6831 10.4003 94.7431 10.2803 94.0331 10.2103C93.1431 10.1103 92.4031 9.91031 91.7731 9.59031C91.3531 9.39031 90.9731 9.08031 90.5631 8.76031C90.3031 8.55031 90.0331 8.34031 89.7531 8.15031C88.9931 7.65031 88.1431 7.35031 87.3131 7.08031C86.5831 6.87031 85.7431 6.65031 84.7931 6.62031C82.8731 5.08031 80.6931 3.79031 78.1231 2.68031C77.0331 2.23031 75.7831 1.84031 74.3331 1.48031C73.0531 1.14031 71.7131 0.930312 70.3631 0.860312C69.1031 0.780312 67.8031 0.690312 66.5231 0.530312C66.0931 0.470312 65.6631 0.400312 65.2231 0.320312C64.3531 0.170312 63.4631 0.010312 62.5431 0.000312049C61.3231 -0.00968795 60.0331 0.220312 58.4731 0.740312C57.0531 1.23031 55.8631 1.84031 54.8231 2.59031C54.7831 2.62031 54.7431 2.66031 54.7131 2.70031L37.3131 8.14031C37.2631 8.12031 37.2131 8.12031 37.1631 8.11031C35.0031 8.03031 32.8431 8.44031 30.7331 9.33031C29.8231 9.73031 28.8931 10.3003 27.8931 11.0803C27.0631 11.7103 26.2931 12.4603 25.5431 13.3803C24.9231 14.1203 24.2531 14.9003 23.4631 15.5903C23.1031 15.9103 22.7031 16.1903 22.2831 16.4903C21.8431 16.8003 21.3831 17.1303 20.9631 17.5003C20.1031 18.2703 19.4531 19.2103 18.9131 20.0403C18.4131 20.8703 17.9031 21.7903 17.5731 22.8703C15.7031 24.3403 14.2731 26.0603 13.2231 27.4103C12.5631 28.2903 11.9931 29.2503 11.5031 30.0803C10.9931 30.9103 10.5131 31.8503 10.0331 32.9503C9.56307 34.0203 9.10307 34.8603 8.56307 35.6003C8.26307 36.0303 7.89307 36.4203 7.51307 36.8403C7.17307 37.2103 6.81307 37.5903 6.50307 38.0103C5.80307 38.9403 5.33307 40.0003 4.95307 40.9303C4.62307 41.8303 4.28307 42.8903 4.19307 44.0503C2.49307 46.4503 1.26307 49.3103 0.533075 52.5703C0.233075 54.0203 0.0730745 55.5503 0.0230745 57.2503C-0.0469255 58.8003 0.0430745 60.3403 0.283074 61.9603C0.373075 62.5103 0.463075 63.0603 0.563075 63.6003C0.733075 64.5803 0.903075 65.5003 1.00307 66.4603C1.09307 67.1803 1.13307 67.9403 1.17307 68.6703C1.21307 69.4403 1.25307 70.2403 1.35307 71.0203C1.58307 72.7103 2.05307 74.3103 2.44307 75.5203C2.86307 76.7903 3.40307 78.2803 4.19307 79.7303C4.35307 81.4203 4.61307 83.1903 4.99307 85.1303C5.39307 87.2803 5.83307 89.0203 6.38307 90.5903C7.13307 92.6503 8.04307 94.3403 9.18307 95.7703C10.4731 97.4203 12.1131 98.6303 13.5431 99.6003C14.8631 100.5 16.3831 101.6 17.7131 102.96C18.6631 103.92 19.5031 105.02 20.3231 106.09C20.5831 106.44 20.8531 106.79 21.1231 107.13C22.1931 108.47 23.4031 109.8 24.8131 111.23C25.9831 112.4 27.4031 113.73 29.0631 114.77C30.2831 116.76 32.0631 118.5 34.2431 119.79C35.1631 120.33 36.2531 120.79 37.6431 121.22C38.7931 121.6 40.0731 121.78 41.3631 121.78H42.1131C43.0531 121.78 43.9331 121.78 44.8331 121.86C45.3531 121.9 45.8631 121.99 46.4131 122.08C47.0431 122.18 47.6831 122.29 48.3331 122.32C48.5231 122.33 48.7031 122.34 48.8931 122.34C49.9331 122.34 50.9531 122.18 51.9231 122.01C52.9231 121.81 54.0931 121.54 55.2731 121.03C56.8431 121.2 58.4131 121.28 59.8031 121.34L62.0731 121.46C62.9131 121.51 63.7331 121.48 64.5231 121.45C66.0231 121.35 67.5631 121.12 69.2331 120.75C70.6431 120.48 72.1331 120.07 73.8031 119.5C75.0031 119.1 76.5931 118.59 78.2131 118.27C78.9731 118.11 79.7731 118.01 80.5531 117.92C81.3031 117.83 82.0731 117.73 82.8331 117.58C85.7931 116.94 88.7131 115.74 91.5031 114.04C94.5131 113.62 97.4631 112.71 100.273 111.32C101.623 110.63 102.953 109.79 104.233 108.82C105.423 107.95 106.593 106.89 107.713 105.68L108.293 105.05C109.143 104.13 109.953 103.26 110.843 102.45C111.603 101.75 112.503 101.17 113.383 100.6C113.733 100.37 114.083 100.15 114.433 99.9103C115.583 99.1103 116.743 98.1903 117.983 97.0803C119.013 96.1403 120.163 95.0003 121.013 93.6003C123.123 92.3303 124.863 90.1203 125.793 87.5303C126.273 86.1803 126.463 84.7803 126.573 83.7203C126.713 82.5603 126.713 81.3103 126.573 79.8903C126.473 78.8703 126.393 77.6503 126.583 76.3903C126.673 75.7103 126.873 75.0503 127.073 74.3403C127.213 73.8603 127.353 73.3703 127.453 72.8803C127.733 71.6103 127.783 70.3103 127.813 69.1703C127.823 68.0203 127.803 66.7903 127.543 65.5103C127.973 64.0603 128.253 62.6003 128.483 61.2503C128.773 59.7103 128.833 58.0903 128.623 56.6003ZM116.393 95.1103C115.103 95.9603 113.863 96.8103 112.723 97.8903C112.043 98.5403 111.433 99.2703 110.833 99.9703C110.443 100.43 110.053 100.89 109.643 101.33C108.633 102.42 107.523 103.36 106.333 104.12L102.593 106.46C101.503 107.11 100.373 107.72 99.2731 108.32L98.7731 108.59C97.8431 109.12 96.9031 109.63 95.9531 110.15C94.3531 111.02 92.6931 111.91 91.0731 112.92C89.4431 113.07 87.8731 113.44 86.4931 113.79C85.0431 114.16 83.5331 114.53 82.0831 115.06C81.5531 115.26 81.0331 115.48 80.5031 115.7C79.6231 116.07 78.7131 116.45 77.8031 116.71C76.4431 117.1 74.9931 117.36 73.3631 117.49C71.6431 117.62 70.1331 117.77 68.7731 117.93C67.7031 118.05 66.6331 118.14 65.5631 118.24L64.2431 118.36C63.7731 118.42 63.3031 118.46 62.8431 118.49C62.5731 118.51 62.3031 118.53 62.0531 118.55C61.1631 118.61 60.3831 118.69 59.6731 118.8C58.1731 119.02 56.6531 119.36 55.1531 119.83C53.9231 119.56 52.7331 119.52 51.6931 119.5C50.6231 119.5 49.4031 119.5 48.2031 119.7C47.8231 119.76 47.4531 119.84 47.0731 119.92C46.3131 120.08 45.6031 120.23 44.8831 120.25C43.8031 120.28 42.7431 120.11 41.7131 119.76C40.6131 119.38 39.6031 118.95 38.6831 118.55C37.9231 118.21 37.1731 117.81 36.4531 117.44L35.7531 117.07C34.6231 116.52 33.5431 115.91 32.3931 115.27C31.5931 114.82 30.7731 114.36 29.9131 113.91C28.8331 112.35 27.7031 110.86 26.7231 109.58C25.5731 108.1 24.4331 106.67 23.0931 105.38C22.3031 104.62 21.4431 103.92 20.6031 103.25C20.0031 102.77 19.4131 102.3 18.8431 101.79C17.3731 100.5 16.0831 99.2703 14.8931 98.0403C13.5831 96.6603 12.4231 95.4203 11.5131 94.1003C10.6431 92.7803 10.0131 91.3203 9.31307 89.5203C8.91307 88.5503 8.57307 87.5703 8.20307 86.5303C7.96307 85.8403 7.72307 85.1603 7.46307 84.4703C6.78307 82.6303 6.10307 80.9803 5.37307 79.4503C5.35307 77.8503 5.12307 76.2903 4.91307 74.9503C4.67307 73.5203 4.40307 72.0003 3.95307 70.4903C3.79307 69.9703 3.62307 69.4603 3.44307 68.9503C3.13307 68.0603 2.81307 67.1403 2.63307 66.2203C2.33307 64.7403 2.24307 63.2903 2.36307 61.9303L2.90307 57.5203C3.11307 56.0003 3.38307 54.4903 3.61307 53.1803C3.94307 51.0903 4.38307 49.0503 4.83307 46.8803C4.99307 46.1203 5.15307 45.3503 5.31307 44.5803C6.08307 43.7703 6.68307 42.9003 7.21307 42.1203L7.30307 41.9903C7.83307 41.1703 8.39307 40.3203 8.79307 39.3803C8.95307 39.0103 9.08307 38.6303 9.22307 38.2503C9.44307 37.6303 9.65307 37.0503 9.94307 36.5203C10.3831 35.7303 10.9731 34.9603 11.7531 34.1503C12.5931 33.3003 13.2931 32.5203 13.8731 31.7703L14.1531 31.4203C14.7031 30.7303 15.2731 30.0203 15.7831 29.2503C16.6831 27.8303 17.8131 25.9303 18.5831 23.6503C19.4431 23.0703 20.1431 22.4103 20.9131 21.6603L21.0331 21.5403C21.7031 20.8503 22.3931 20.1403 22.9531 19.3103C23.1531 19.0103 23.3431 18.7003 23.5231 18.3903C23.8731 17.8103 24.1931 17.2703 24.6131 16.8003C25.2131 16.1203 25.9731 15.5203 26.8831 15.0103C27.7831 14.5203 28.6631 14.0303 29.4931 13.5203C30.0531 13.2003 30.6231 12.9203 31.2031 12.6403C31.4931 12.5003 31.7831 12.3503 32.0831 12.2003C32.5931 11.9203 33.1231 11.6603 33.6531 11.3903C34.9031 10.7503 36.1831 10.0903 37.4731 9.27031C37.5231 9.24031 37.5631 9.20031 37.5931 9.16031C38.7231 8.86031 39.8631 8.58031 41.0031 8.31031C42.8631 7.86031 44.7831 7.40031 46.6331 6.82031C48.4231 6.26031 50.1931 5.57031 51.9031 4.91031C52.9531 4.50031 53.9931 4.09031 55.0431 3.71031C55.1031 3.73031 55.1531 3.73031 55.2231 3.73031C56.2831 3.68031 57.2831 3.53031 58.2631 3.38031L60.9131 2.99031C61.5531 2.92031 62.1831 2.81031 62.7731 2.70031L63.3631 2.59031C64.3631 2.39031 65.3931 2.19031 66.4031 2.23031C67.5431 2.26031 68.7331 2.51031 69.9431 2.97031L73.4831 4.30031C74.0131 4.50031 74.5331 4.71031 75.0631 4.92031C75.7031 5.18031 76.3431 5.44031 77.0031 5.67031L77.1931 5.74031C79.4531 6.52031 81.7831 7.32031 84.2731 7.82031C84.9031 8.52031 85.6231 9.03031 86.2731 9.46031C87.0031 9.91031 87.7831 10.3703 88.6631 10.6303C89.0831 10.7503 89.5131 10.8303 89.9331 10.9003C90.3731 10.9803 90.7931 11.0503 91.1731 11.1703C91.8631 11.3903 92.5831 11.7303 93.3531 12.2103C94.1431 12.7103 94.9331 13.1303 95.6831 13.4403L96.0131 13.5803C96.6631 13.8703 97.3431 14.1603 98.0531 14.3903C99.3731 14.7903 100.973 15.2503 102.803 15.5603C103.253 16.1303 103.723 16.6303 104.183 17.1203L104.743 17.7203C105.353 18.3603 106.033 19.0803 106.823 19.6303C107.133 19.8403 107.463 20.0403 107.783 20.2403C108.303 20.5503 108.793 20.8503 109.213 21.2203C109.843 21.7603 110.403 22.4503 110.933 23.3203C111.453 24.2203 111.953 25.0303 112.463 25.7903C112.683 26.1203 112.893 26.4603 113.103 26.8003C113.393 27.2603 113.673 27.7203 113.993 28.1703L114.293 28.6003C115.243 29.9503 116.223 31.3503 117.443 32.7003C117.673 34.1203 118.003 35.4403 118.383 36.8803C118.573 37.5803 118.773 38.2803 118.983 38.9603C119.163 39.6203 119.423 40.3203 119.773 41.1103C120.113 41.8403 120.523 42.5203 120.923 43.1903C121.293 43.8003 121.633 44.3803 121.933 44.9903C122.543 46.2303 123.053 47.5703 123.443 48.9703L124.613 53.1103C124.943 54.3203 125.223 55.6103 125.503 57.1403L125.563 57.5503C125.643 58.0803 125.733 58.6103 125.783 59.1703C125.833 59.4803 125.833 59.8203 125.833 60.1603L125.873 61.2403C125.933 62.5803 126.023 64.0203 126.263 65.5103C125.773 66.7003 125.473 67.8803 125.233 68.9903V69.0003C124.983 70.2203 124.763 71.4303 124.763 72.6903C124.763 73.2603 124.793 73.8303 124.833 74.4003C124.883 75.0703 124.923 75.7103 124.893 76.3403C124.843 77.5003 124.683 78.7203 124.443 79.8703L123.673 83.3503C123.423 84.4603 123.093 85.5503 122.763 86.6603C122.213 88.6103 121.393 90.5203 120.083 92.8403C118.693 93.6303 117.383 94.4603 116.393 95.1103Z" fill="#272E87"/>
</g>
<g id="Nucleus">
<path id="Vector" d="M80.779 106.256C88.7271 106.256 95.1703 99.8123 95.1703 91.8642C95.1703 83.9161 88.7271 77.4729 80.779 77.4729C72.8309 77.4729 66.3877 83.9161 66.3877 91.8642C66.3877 99.8123 72.8309 106.256 80.779 106.256Z" fill="url(#paint1_radial_938_25161)"/>
<path id="Vector_2" d="M80.779 106.876C72.4999 106.876 65.7614 100.137 65.7614 91.8581C65.7614 83.579 72.4999 76.8405 80.779 76.8405C89.0581 76.8405 95.7966 83.579 95.7966 91.8581C95.7966 100.143 89.0581 106.876 80.779 106.876ZM80.779 78.0993C73.1888 78.0993 67.0139 84.2742 67.0139 91.8644C67.0139 99.4546 73.1888 105.629 80.779 105.629C88.3692 105.629 94.544 99.4546 94.544 91.8643C94.544 84.274 88.3692 78.0993 80.779 78.0993Z" fill="#C67D92"/>
</g>
</g>
<defs>
<radialGradient id="paint0_radial_938_25161" cx="0" cy="0" r="1" gradientUnits="userSpaceOnUse" gradientTransform="translate(43.7086 46.7169) scale(60.9421 84.4536)">
<stop offset="0.0005" stop-color="#FFD1DC"/>
<stop offset="0.0428" stop-color="#EBC7D8"/>
<stop offset="0.137" stop-color="#C5B2CF"/>
<stop offset="0.2383" stop-color="#A4A1C7"/>
<stop offset="0.3465" stop-color="#8993C1"/>
<stop offset="0.464" stop-color="#7488BD"/>
<stop offset="0.5954" stop-color="#6580BA"/>
<stop offset="0.7521" stop-color="#5D7BB8"/>
<stop offset="1" stop-color="#5A7AB7"/>
</radialGradient>
<radialGradient id="paint1_radial_938_25161" cx="0" cy="0" r="1" gradientUnits="userSpaceOnUse" gradientTransform="translate(76.0801 88.3965) scale(14.2405 19.7345)">
<stop offset="0.0005" stop-color="#FFD1DC"/>
<stop offset="0.049" stop-color="#F4C0CC"/>
<stop offset="0.1593" stop-color="#DEA0AD"/>
<stop offset="0.2787" stop-color="#CB8594"/>
<stop offset="0.4083" stop-color="#BD7080"/>
<stop offset="0.5534" stop-color="#B46173"/>
<stop offset="0.7263" stop-color="#AE596A"/>
<stop offset="1" stop-color="#AC5668"/>
</radialGradient>
</defs>
</svg>
