<svg width="41" height="23" viewBox="0 0 41 23" fill="none" xmlns="http://www.w3.org/2000/svg">
<g id="R-ICO-012714">
<g id="FES">
<path d="M1.19727 11.3445C1.19727 5.8216 5.67442 1.34445 11.1973 1.34445H29.1973C34.7201 1.34445 39.1973 5.8216 39.1973 11.3445C39.1973 16.8673 34.7201 21.3445 29.1973 21.3445H11.1973C5.67442 21.3445 1.19727 16.8673 1.19727 11.3445Z" fill="url(#paint0_linear_938_23318)"/>
<path d="M34.4851 4.67956C33.0147 3.46554 31.1416 2.75079 29.1973 2.68324C23.1973 2.4888 17.1973 2.12759 11.1973 1.48446C11.1973 1.39109 11.1973 1.29773 11.1973 1.20436C17.1973 0.56123 23.1973 0.200019 29.1973 0.00557864C31.7308 -0.0771691 34.3158 0.761808 36.3424 2.34225C39.0777 4.45232 40.6921 7.92339 40.5936 11.3445C40.5684 12.6175 40.3282 13.8824 39.8856 15.0706C38.3128 19.5094 33.6572 22.4609 29.1976 22.1103C29.1975 22.1103 29.1974 22.1103 29.1973 22.1103C25.0793 21.8666 20.961 21.6911 16.8431 21.7974C14.9612 21.8445 13.0792 21.9554 11.1973 22.081C8.8009 22.2408 6.27777 21.5667 4.25587 20.0897C1.53806 18.1137 -0.103132 14.7062 0.00539804 11.3445C0.0333287 10.0939 0.279383 8.85329 0.728155 7.69509C2.33174 3.36832 6.98888 0.611435 11.1973 1.20436C11.1973 1.29773 11.1973 1.39109 11.1973 1.48446C7.10753 1.95897 3.81174 4.87879 2.77568 8.40876C2.48697 9.36412 2.36025 10.3555 2.38905 11.3445C2.45566 13.9996 3.6971 16.527 5.70522 18.2659C7.18024 19.5835 9.11559 20.463 11.1973 20.6072C13.0792 20.7326 14.9612 20.8431 16.8431 20.8902C20.961 20.9965 25.0792 20.8224 29.1973 20.5787C29.1974 20.5787 29.1975 20.5787 29.1976 20.5787C33.0359 20.346 36.3322 17.6214 37.3994 14.204C37.6944 13.2785 37.827 12.3111 37.801 11.3445C37.7443 8.7483 36.4757 6.28427 34.4851 4.67956Z" fill="#6BD1AC"/>
<text id="FES_2" fill="white" xml:space="preserve" style="white-space: pre" font-family="Arial" font-size="12" font-weight="bold" letter-spacing="0em"><tspan x="8.52539" y="15.5046">FES</tspan></text>
</g>
</g>
<defs>
<linearGradient id="paint0_linear_938_23318" x1="20.1973" y1="1.34445" x2="20.1973" y2="21.3445" gradientUnits="userSpaceOnUse">
<stop stop-color="#6BD1AC"/>
<stop offset="1" stop-color="#710943"/>
</linearGradient>
</defs>
</svg>
