<svg width="61" height="101" viewBox="0 0 61 101" fill="none" xmlns="http://www.w3.org/2000/svg">
<g id="R-ICO-012378">
<g id="BG">
<path id="CYAN" d="M30.2685 0C35.9339 0 40.5266 2.73374 40.5266 6.10596C40.5266 9.47817 35.9339 12.2119 30.2685 12.2119C25.8125 16.0476 19.2044 29.0834 19.2044 49.9999C19.2044 54.8144 19.5545 59.2114 20.1479 63.1748C20.5046 65.3565 17.3076 68.1839 12.6095 69.694C7.59561 71.3057 2.76425 70.8121 1.86002 68.5859C1.81623 68.478 1.78237 68.3681 1.75816 68.2563C0.605113 62.5452 0 56.3614 0 50C0 37.6686 2.274 26.0047 6.40369 17.1568C11.7158 5.77249 19.7454 0 30.2685 0Z" fill="#39E1C3"/>
<path id="YELLOW" d="M1.75827 68.2563C2.84025 73.6161 4.4046 78.5596 6.4039 82.8432C11.7161 94.2274 19.7457 99.9999 30.2687 99.9999C40.7916 99.9999 48.8214 94.2274 54.1334 82.8432C56.1348 78.5553 57.7002 73.606 58.7823 68.24L58.7813 68.2405C59.2435 66.0471 55.9987 63.1629 51.2356 61.6318C46.2217 60.0201 41.424 60.5183 40.5198 62.7447C40.4651 62.8792 40.426 63.0169 40.4017 63.1574H40.3916C38.4086 76.4226 33.7002 84.8338 30.2685 87.7878C26.8382 84.835 22.1324 76.43 20.1479 63.1747C20.1239 63.0281 20.1079 62.885 20.0509 62.7447C19.1467 60.5184 14.3491 60.0201 9.33508 61.6318C4.56425 63.1656 1.33898 66.0197 1.75827 68.2563Z" fill="#D4AE40"/>
<path id="MAGENTA" d="M58.7143 68.5726C58.278 70.7893 52.9751 71.3058 47.961 69.6941C43.2347 68.1749 39.9935 65.3177 40.3955 63.1308C40.9849 59.179 41.3324 54.7967 41.3324 50.0001C41.3324 29.0836 34.7243 16.0478 30.2683 12.2121C24.6029 12.2121 20.0103 9.47837 20.0103 6.10615C20.0103 2.73393 24.6029 0 30.2683 0C40.7914 0 48.8211 5.77249 54.1331 17.1568C58.2628 26.0047 60.5368 37.6686 60.5368 50C60.5368 56.479 59.9091 62.7737 58.7143 68.5726Z" fill="#E139CB"/>
</g>
<g id="SHADOW RIGHT">
<mask id="mask0_938_24303" style="mask-type:alpha" maskUnits="userSpaceOnUse" x="23" y="0" width="38" height="101">
<ellipse id="Ellipse" cx="42.1895" cy="50.2324" rx="18.5" ry="50" fill="black"/>
</mask>
<g mask="url(#mask0_938_24303)">
<path id="SHADOW RIGHT_2" d="M60.5369 50C60.5369 62.3314 58.2629 73.9953 54.1332 82.8432C48.8211 94.2275 40.7914 100 30.2685 100C19.7455 100 11.7158 94.2274 6.40369 82.8432C2.274 73.9953 0 62.3314 0 50C0 37.6686 2.274 26.0047 6.40369 17.1568C11.7158 5.77249 19.7454 0 30.2685 0C40.7915 0 48.8212 5.77249 54.1332 17.1568C58.2629 26.0047 60.5369 37.6685 60.5369 50ZM30.2685 87.788C34.7244 83.9523 41.3326 70.9165 41.3326 50C41.3326 29.0835 34.7244 16.0477 30.2685 12.212C25.8125 16.0477 19.2044 29.0835 19.2044 50C19.2044 70.9165 25.8125 83.9523 30.2685 87.788Z" fill="url(#paint0_radial_938_24303)" fill-opacity="0.7"/>
</g>
</g>
<g id="SHADOW LEFT">
<mask id="mask1_938_24303" style="mask-type:alpha" maskUnits="userSpaceOnUse" x="2" y="0" width="36" height="101">
<ellipse id="Ellipse_2" cx="20.272" cy="50.1162" rx="17.5" ry="50" fill="black"/>
</mask>
<g mask="url(#mask1_938_24303)">
<path id="SHADOW LEFT_2" d="M60.5369 50C60.5369 62.3314 58.2629 73.9953 54.1332 82.8432C48.8211 94.2275 40.7914 100 30.2685 100C19.7455 100 11.7158 94.2274 6.40369 82.8432C2.274 73.9953 0 62.3314 0 50C0 37.6686 2.274 26.0047 6.40369 17.1568C11.7158 5.77249 19.7454 0 30.2685 0C40.7915 0 48.8212 5.77249 54.1332 17.1568C58.2629 26.0047 60.5369 37.6685 60.5369 50ZM30.2685 87.788C34.7244 83.9523 41.3326 70.9165 41.3326 50C41.3326 29.0835 34.7244 16.0477 30.2685 12.212C25.8125 16.0477 19.2044 29.0835 19.2044 50C19.2044 70.9165 25.8125 83.9523 30.2685 87.788Z" fill="url(#paint1_radial_938_24303)" fill-opacity="0.7"/>
</g>
</g>
<path id="LIGHT" opacity="0.7" d="M60.5369 50C60.5369 62.3314 58.2629 73.9953 54.1332 82.8432C48.8211 94.2275 40.7914 100 30.2685 100C19.7455 100 11.7158 94.2274 6.40369 82.8432C2.274 73.9953 0 62.3314 0 50C0 37.6686 2.274 26.0047 6.40369 17.1568C11.7158 5.77249 19.7454 0 30.2685 0C40.7915 0 48.8212 5.77249 54.1332 17.1568C58.2629 26.0047 60.5369 37.6685 60.5369 50ZM30.2685 87.788C34.7244 83.9523 41.3326 70.9165 41.3326 50C41.3326 29.0835 34.7244 16.0477 30.2685 12.212C25.8125 16.0477 19.2044 29.0835 19.2044 50C19.2044 70.9165 25.8125 83.9523 30.2685 87.788Z" fill="url(#paint2_radial_938_24303)"/>
</g>
<defs>
<radialGradient id="paint0_radial_938_24303" cx="0" cy="0" r="1" gradientUnits="userSpaceOnUse" gradientTransform="translate(30.2689 49.9999) rotate(-90) scale(50.6518 30.5031)">
<stop offset="0.5625" stop-color="#01033F" stop-opacity="0"/>
<stop offset="1" stop-color="#01033F"/>
</radialGradient>
<radialGradient id="paint1_radial_938_24303" cx="0" cy="0" r="1" gradientUnits="userSpaceOnUse" gradientTransform="translate(31.0046 47.9769) rotate(-90) scale(70.521 33.7937)">
<stop offset="0.3532" stop-color="#01033F"/>
<stop offset="0.9312" stop-color="#01033F" stop-opacity="0"/>
</radialGradient>
<radialGradient id="paint2_radial_938_24303" cx="0" cy="0" r="1" gradientUnits="userSpaceOnUse" gradientTransform="translate(23.7963 49.816) rotate(-90) scale(67.5873 33.1313)">
<stop offset="0.5676" stop-color="white" stop-opacity="0"/>
<stop offset="0.6557" stop-color="white"/>
<stop offset="0.764423" stop-color="white" stop-opacity="0"/>
</radialGradient>
</defs>
</svg>
