<svg width="106" height="24" viewBox="0 0 106 24" fill="none" xmlns="http://www.w3.org/2000/svg">
<g id="R-ICO-014375">
<g id="PONATINIB">
<g id="LEFT_ELEMENT">
<mask id="mask0_938_22914" style="mask-type:luminance" maskUnits="userSpaceOnUse" x="0" y="0" width="8" height="24">
<rect id="MASK" width="8" height="24" transform="matrix(-1 0 0 1 8 0)" fill="white"/>
</mask>
<g mask="url(#mask0_938_22914)">
<g id="LEFT_CORNER">
<mask id="path-2-outside-1_938_22914" maskUnits="userSpaceOnUse" x="0" y="-1" width="10" height="26" fill="black">
<rect fill="white" y="-1" width="10" height="26"/>
<path d="M2 12C2 12 6.04738 5.90524 8 2V22C6.04738 18.0948 2 12 2 12Z"/>
</mask>
<path d="M2 12C2 12 6.04738 5.90524 8 2V22C6.04738 18.0948 2 12 2 12Z" fill="url(#paint0_linear_938_22914)"/>
<path d="M2 12C2 12 6.04738 5.90524 8 2V22C6.04738 18.0948 2 12 2 12Z" stroke="#946BE6" stroke-width="4" stroke-miterlimit="3.99933" stroke-linejoin="round" mask="url(#path-2-outside-1_938_22914)"/>
</g>
</g>
</g>
<g id="CENTRE shape">
<mask id="path-3-outside-2_938_22914" maskUnits="userSpaceOnUse" x="8" y="0" width="66" height="24" fill="black">
<rect fill="white" x="8" width="66" height="24"/>
<path d="M8 2H74V22H8V2Z"/>
</mask>
<path d="M8 2H74V22H8V2Z" fill="url(#paint1_linear_938_22914)"/>
<path d="M8 2V4H74V2V0H8V2ZM74 22V20H8V22V24H74V22Z" fill="#946BE6" mask="url(#path-3-outside-2_938_22914)"/>
<text id="Chemical" fill="white" xml:space="preserve" style="white-space: pre" font-family="Arial" font-size="12" font-weight="bold" letter-spacing="0em"><tspan x="8.42188" y="16.1602">PONATINIB</tspan></text>
</g>
<g id="RIGHT_ELEMENT">
<mask id="mask1_938_22914" style="mask-type:luminance" maskUnits="userSpaceOnUse" x="74" y="0" width="32" height="24">
<path id="MASK_2" d="M74 24L106 24L106 -8.90181e-07L74 1.90735e-06L74 24Z" fill="white"/>
</mask>
<g mask="url(#mask1_938_22914)">
<g id="Mask group">
<g id="ELEMENT">
<g id="BG">
<mask id="path-7-outside-3_938_22914" maskUnits="userSpaceOnUse" x="72" y="-1.74846e-07" width="34" height="24" fill="black">
<rect fill="white" x="72" y="-1.74846e-07" width="34" height="24"/>
<path d="M104 12C104 12 99.9526 18.0948 98 22L74 21.9999L74 2L98 2C99.9526 5.90524 104 12 104 12Z"/>
</mask>
<path d="M104 12C104 12 99.9526 18.0948 98 22L74 21.9999L74 2L98 2C99.9526 5.90524 104 12 104 12Z" fill="#946BE6"/>
<path d="M104 12C104 12 99.9526 18.0948 98 22L74 21.9999L74 2L98 2C99.9526 5.90524 104 12 104 12Z" stroke="#946BE6" stroke-width="4" stroke-miterlimit="3.99933" stroke-linejoin="round" mask="url(#path-7-outside-3_938_22914)"/>
</g>
<g id="RX">
<path id="Vector" d="M83 22V14H86.3071C87.1387 14 87.743 14.0718 88.1199 14.2155C88.4968 14.3592 88.7984 14.6148 89.0249 14.9822C89.2514 15.3496 89.3647 15.7698 89.3647 16.2428C89.3647 16.843 89.193 17.3388 88.8497 17.7298C88.5064 18.1209 87.9933 18.3675 87.3103 18.4693C87.6501 18.6731 87.9305 18.8968 88.1517 19.1405C88.3728 19.3842 88.671 19.8172 89.0461 20.4393L89.9963 22H88.1172L86.9812 20.2592C86.5778 19.6371 86.3017 19.2451 86.1531 19.0832C86.0044 18.9214 85.847 18.8104 85.6807 18.7504C85.5144 18.6904 85.2507 18.6603 84.8898 18.6603H84.5713V22H83ZM84.5713 17.3834H85.7338C86.4875 17.3834 86.9583 17.3506 87.1458 17.2851C87.3333 17.2196 87.4802 17.1068 87.5864 16.9468C87.6925 16.7867 87.7456 16.5866 87.7456 16.3465C87.7456 16.0773 87.6758 15.8599 87.536 15.6944C87.3962 15.5289 87.1989 15.4243 86.9441 15.3806C86.8167 15.3625 86.4345 15.3533 85.7975 15.3533H84.5713V17.3834Z" fill="white"/>
<path id="Vector_2" d="M89.9963 21.9999L92.0294 19.0149L90.0813 16.2046H91.9021L92.9001 17.798L93.9512 16.2046H95.7029L93.7919 18.9495L95.878 22H94.0467L92.9001 20.2047L91.7428 21.9999H89.9963Z" fill="white"/>
</g>
</g>
<g id="RIGHT_ELEMENT_2">
<mask id="mask2_938_22914" style="mask-type:alpha" maskUnits="userSpaceOnUse" x="74" y="0" width="8" height="24">
<rect id="MASK_3" x="74" width="8" height="24" fill="white"/>
</mask>
<g mask="url(#mask2_938_22914)">
<g id="LEFT_CORNER_2">
<mask id="path-11-outside-4_938_22914" maskUnits="userSpaceOnUse" x="72" y="-1" width="10" height="26" fill="black">
<rect fill="white" x="72" y="-1" width="10" height="26"/>
<path d="M80 12C80 12 75.9526 5.90524 74 2V22C75.9526 18.0948 80 12 80 12Z"/>
</mask>
<path d="M80 12C80 12 75.9526 5.90524 74 2V22C75.9526 18.0948 80 12 80 12Z" fill="url(#paint2_linear_938_22914)"/>
<path d="M80 12C80 12 75.9526 5.90524 74 2V22C75.9526 18.0948 80 12 80 12Z" stroke="#946BE6" stroke-width="4" stroke-miterlimit="3.99933" stroke-linejoin="round" mask="url(#path-11-outside-4_938_22914)"/>
</g>
</g>
</g>
</g>
</g>
</g>
</g>
</g>
<defs>
<linearGradient id="paint0_linear_938_22914" x1="5" y1="2" x2="5" y2="22" gradientUnits="userSpaceOnUse">
<stop stop-color="#080099"/>
<stop offset="1" stop-color="#FAFD5D"/>
</linearGradient>
<linearGradient id="paint1_linear_938_22914" x1="41" y1="2" x2="41" y2="22" gradientUnits="userSpaceOnUse">
<stop stop-color="#080099"/>
<stop offset="1" stop-color="#FAFD5D"/>
</linearGradient>
<linearGradient id="paint2_linear_938_22914" x1="77" y1="2" x2="77" y2="22" gradientUnits="userSpaceOnUse">
<stop stop-color="#080099"/>
<stop offset="1" stop-color="#FAFD5D"/>
</linearGradient>
</defs>
</svg>
