<svg width="82" height="24" viewBox="0 0 82 24" fill="none" xmlns="http://www.w3.org/2000/svg">
<g id="R-ICO-012778">
<g id="CHEMICAL_HEX">
<g id="LEFT_CORNER">
<mask id="mask0_938_24884" style="mask-type:luminance" maskUnits="userSpaceOnUse" x="0" y="0" width="10" height="24">
<rect id="MASK" width="10" height="24" transform="matrix(-1 0 0 1 10 0)" fill="white"/>
</mask>
<g mask="url(#mask0_938_24884)">
<g id="CORNER">
<mask id="path-2-outside-1_938_24884" maskUnits="userSpaceOnUse" x="0" y="0" width="12" height="24" fill="black">
<rect fill="white" width="12" height="24"/>
<path d="M2 12C2 12 6.04738 5.90524 8 2H10V22H8C6.04738 18.0948 2 12 2 12Z"/>
</mask>
<path d="M2 12C2 12 6.04738 5.90524 8 2H10V22H8C6.04738 18.0948 2 12 2 12Z" fill="url(#paint0_linear_938_24884)"/>
<path d="M2 12C2 12 6.04738 5.90524 8 2H10V22H8C6.04738 18.0948 2 12 2 12Z" stroke="#006C6E" stroke-width="4" stroke-miterlimit="3.99933" stroke-linejoin="round" mask="url(#path-2-outside-1_938_24884)"/>
</g>
</g>
</g>
<g id="RIGHT CORNER">
<mask id="mask1_938_24884" style="mask-type:luminance" maskUnits="userSpaceOnUse" x="72" y="0" width="10" height="24">
<rect id="MASK_2" width="10" height="24" transform="matrix(1 -8.74228e-08 -8.74228e-08 -1 72 24)" fill="white"/>
</mask>
<g mask="url(#mask1_938_24884)">
<g id="CORNER_2">
<mask id="path-4-outside-2_938_24884" maskUnits="userSpaceOnUse" x="70" y="0" width="12" height="24" fill="black">
<rect fill="white" x="70" width="12" height="24"/>
<path d="M80 12C80 12 75.9526 5.90524 74 2H72V22H74C75.9526 18.0948 80 12 80 12Z"/>
</mask>
<path d="M80 12C80 12 75.9526 5.90524 74 2H72V22H74C75.9526 18.0948 80 12 80 12Z" fill="url(#paint1_linear_938_24884)"/>
<path d="M80 12C80 12 75.9526 5.90524 74 2H72V22H74C75.9526 18.0948 80 12 80 12Z" stroke="#006C6E" stroke-width="4" stroke-miterlimit="3.99933" stroke-linejoin="round" mask="url(#path-4-outside-2_938_24884)"/>
</g>
</g>
</g>
<g id="centre">
<g clip-path="url(#clip0_938_24884)">
<mask id="path-5-outside-3_938_24884" maskUnits="userSpaceOnUse" x="8" y="0" width="66" height="24" fill="black">
<rect fill="white" x="8" width="66" height="24"/>
<path d="M8 2H74V22H8V2Z"/>
</mask>
<path d="M8 2H74V22H8V2Z" fill="url(#paint2_linear_938_24884)"/>
<text id="Chemical" fill="white" xml:space="preserve" style="white-space: pre" font-family="Arial" font-size="12" font-weight="bold" letter-spacing="0em"><tspan x="8.19922" y="16.1602">GLYCEROL</tspan></text>
</g>
<path d="M8 2V4H74V2V0H8V2ZM74 22V20H8V22V24H74V22Z" fill="#006C6E" mask="url(#path-5-outside-3_938_24884)"/>
</g>
</g>
</g>
<defs>
<linearGradient id="paint0_linear_938_24884" x1="6" y1="2" x2="6" y2="22" gradientUnits="userSpaceOnUse">
<stop stop-color="#006C6E"/>
<stop offset="1" stop-color="#D2FF7C"/>
</linearGradient>
<linearGradient id="paint1_linear_938_24884" x1="76" y1="2" x2="76" y2="22" gradientUnits="userSpaceOnUse">
<stop stop-color="#006C6E"/>
<stop offset="1" stop-color="#D2FF7C"/>
</linearGradient>
<linearGradient id="paint2_linear_938_24884" x1="41" y1="2" x2="41" y2="22" gradientUnits="userSpaceOnUse">
<stop stop-color="#006C6E"/>
<stop offset="1" stop-color="#D2FF7C"/>
</linearGradient>
<clipPath id="clip0_938_24884">
<path d="M8 2H74V22H8V2Z" fill="white"/>
</clipPath>
</defs>
</svg>
