<svg width="159" height="65" viewBox="0 0 159 65" fill="none" xmlns="http://www.w3.org/2000/svg">
<g id="R-ICO-012834">
<g id="BOTTOM A">
<path id="Vector" d="M116.352 38.0618C127.552 38.0618 119.49 0.782593 135.613 0.782593H138.752C127.552 0.782593 135.613 38.0618 119.49 38.0618H116.352Z" fill="url(#paint0_linear_938_25611)"/>
<path id="Vector_2" d="M135.613 26.7536C146.813 26.7536 138.751 0.782593 154.875 0.782593L158.013 0.801393C146.813 0.782593 154.875 26.7536 138.751 26.7536H135.613Z" fill="url(#paint1_linear_938_25611)"/>
<path id="Vector_3" d="M0.780273 26.7536C11.9803 26.7536 3.91847 0.782593 20.0421 0.782593H23.1803C11.9803 0.782593 20.0421 26.7536 3.91847 26.7536H0.780273Z" fill="url(#paint2_linear_938_25611)"/>
<path id="Vector_4" d="M20.042 26.7536C31.242 26.7536 23.1802 0.782593 39.3038 0.782593L42.442 0.801393C31.242 0.782593 39.3038 26.7536 23.1802 26.7536H20.042Z" fill="url(#paint3_linear_938_25611)"/>
<path id="Vector_5" d="M58.5674 26.7536C69.7674 26.7536 61.7056 0.782593 77.8292 0.782593L80.9674 0.801393C69.7674 0.782593 77.8292 26.7536 61.7056 26.7536H58.5674Z" fill="url(#paint4_linear_938_25611)"/>
<path id="Vector_6" d="M97.0898 26.7536C108.29 26.7536 100.228 0.782593 116.352 0.782593L119.49 0.801393C108.29 0.782593 116.352 26.7536 100.228 26.7536H97.0898Z" fill="url(#paint5_linear_938_25611)"/>
<path id="Vector_7" d="M39.3047 38.0618C50.5047 38.0618 42.4429 64.0328 58.5665 64.0328H61.7047C50.5047 64.0328 58.5665 38.0618 42.4429 38.0618H39.3047Z" fill="url(#paint6_linear_938_25611)"/>
<path id="Vector_8" d="M77.8271 38.0618C89.0271 38.0618 80.9654 64.0328 97.089 64.0328H100.227C89.0272 64.0328 97.0889 38.0618 80.9653 38.0618H77.8271Z" fill="url(#paint7_linear_938_25611)"/>
</g>
<g id="BOTTOM LINE A">
<path id="Vector_9" d="M138.754 27.5338H135.616C135.185 27.5338 134.836 27.1845 134.836 26.7536C134.836 26.3227 135.185 25.9734 135.616 25.9734C140.301 25.9734 141.337 21.8928 142.488 15.1722C143.098 11.6073 143.729 7.92102 145.415 5.03852C147.397 1.64962 150.493 0.00231934 154.878 0.00231934L158.021 0.0212193C158.451 0.0238193 158.798 0.374119 158.796 0.804419C158.795 1.23412 158.446 1.58152 158.016 1.58152C158.012 1.58162 158.008 1.58152 158.004 1.58152C153.857 1.58152 152.729 5.58142 151.366 12.1664C150.62 15.768 149.848 19.4923 148.1 22.4143C146.038 25.8592 142.981 27.5338 138.754 27.5338ZM153.813 1.59962C150.559 1.83452 148.301 3.19422 146.762 5.82632C145.219 8.46392 144.613 12.008 144.026 15.4354C143.33 19.5031 142.617 23.6658 140.208 25.8909C147.098 25.0761 148.49 18.3591 149.838 11.8499C150.665 7.85572 151.512 3.76812 153.813 1.59962Z" fill="#993D61"/>
<path id="Vector_10" d="M3.9184 27.5338H0.7802C0.3493 27.5338 0 27.1845 0 26.7536C0 26.3227 0.3493 25.9734 0.7802 25.9734C4.9364 25.9734 6.0652 21.9691 7.4305 15.3745C8.1764 11.7714 8.9476 8.04572 10.6962 5.12292C12.7577 1.67732 15.8148 0.00231934 20.0421 0.00231934H23.1802C23.611 0.00231934 23.9604 0.351619 23.9604 0.782519C23.9604 1.21342 23.6111 1.56272 23.1802 1.56272C19.024 1.56272 17.8952 5.56692 16.53 12.1616C15.7841 15.7646 15.0129 19.4904 13.2643 22.4132C11.2028 25.8588 8.1458 27.5338 3.9184 27.5338ZM18.9555 1.60772C11.7457 2.22422 10.33 9.06502 8.9583 15.6908C8.1337 19.6744 7.2898 23.751 5.0048 25.9283C12.2147 25.3119 13.6304 18.471 15.0021 11.8453C15.8268 7.86162 16.6706 3.78522 18.9555 1.60772Z" fill="#3D9799"/>
<path id="Vector_11" d="M23.18 27.5338H20.0419C19.6111 27.5338 19.2617 27.1845 19.2617 26.7536C19.2617 26.3227 19.611 25.9734 20.0419 25.9734C24.7267 25.9734 25.7633 21.8928 26.9136 15.1722C27.5239 11.6073 28.1549 7.92102 29.8408 5.03852C31.8229 1.64962 34.9183 0.00231934 39.3037 0.00231934L42.4466 0.0212193C42.8769 0.0238193 43.2237 0.374119 43.2221 0.804419C43.2205 1.23412 42.8715 1.58152 42.4419 1.58152C42.4379 1.58162 42.4337 1.58152 42.4297 1.58152C38.2828 1.58152 37.1551 5.58142 35.7913 12.1664C35.0453 15.768 34.274 19.4923 32.5254 22.4143C30.4638 25.8592 27.4069 27.5338 23.18 27.5338ZM38.2387 1.59962C34.9848 1.83452 32.7272 3.19422 31.1877 5.82632C29.6449 8.46392 29.0382 12.008 28.4516 15.4354C27.7552 19.5031 27.0425 23.6658 24.634 25.8909C31.5238 25.0761 32.9153 18.3591 34.2633 11.8499C35.0906 7.85572 35.9376 3.76812 38.2387 1.59962Z" fill="#993D61"/>
<path id="Vector_12" d="M61.7054 27.5338H58.5673C58.1365 27.5338 57.7871 27.1845 57.7871 26.7536C57.7871 26.3227 58.1364 25.9734 58.5673 25.9734C63.2521 25.9734 64.2887 21.8928 65.439 15.1722C66.0493 11.6073 66.6803 7.92108 68.3663 5.03858C70.3484 1.64968 73.4438 0.00238037 77.8292 0.00238037L80.9721 0.0212804C81.4024 0.0238804 81.7492 0.37418 81.7476 0.80448C81.746 1.23418 81.397 1.58158 80.9674 1.58158C80.9634 1.58168 80.9592 1.58158 80.9552 1.58158C76.8083 1.58158 75.6806 5.58148 74.3168 12.1665C73.5708 15.7681 72.7995 19.4924 71.0509 22.4144C68.9893 25.8592 65.9323 27.5338 61.7054 27.5338ZM76.7642 1.59958C73.5103 1.83448 71.2526 3.19418 69.7132 5.82628C68.1704 8.46388 67.5637 12.008 66.9771 15.4354C66.2807 19.5031 65.568 23.6658 63.1595 25.8909C70.0493 25.0761 71.4408 18.3591 72.7888 11.8499C73.616 7.85568 74.463 3.76808 76.7642 1.59958Z" fill="#993D61"/>
<path id="Vector_13" d="M100.228 27.5338H97.0898C96.659 27.5338 96.3096 27.1845 96.3096 26.7536C96.3096 26.3227 96.6589 25.9734 97.0898 25.9734C101.775 25.9734 102.811 21.8928 103.961 15.1722C104.572 11.6073 105.203 7.92102 106.889 5.03852C108.871 1.64962 111.966 0.00231934 116.352 0.00231934L119.494 0.0212193C119.925 0.0238193 120.272 0.374119 120.27 0.804419C120.268 1.23412 119.919 1.58152 119.49 1.58152C119.486 1.58162 119.482 1.58152 119.478 1.58152C115.331 1.58152 114.203 5.58142 112.839 12.1664C112.093 15.768 111.322 19.4923 109.573 22.4143C107.512 25.8592 104.455 27.5338 100.228 27.5338ZM115.287 1.59962C112.033 1.83452 109.775 3.19422 108.236 5.82632C106.693 8.46392 106.086 12.008 105.5 15.4354C104.803 19.5031 104.09 23.6658 101.682 25.8909C108.572 25.0761 109.963 18.3591 111.311 11.8499C112.138 7.85572 112.985 3.76812 115.287 1.59962Z" fill="#993D61"/>
<path id="Vector_14" d="M51.7877 42.4022C53.5363 45.325 54.3075 49.0508 55.0534 52.6538C56.4186 59.2486 57.5474 63.2527 61.7036 63.2527C62.1344 63.2527 62.4838 63.602 62.4838 64.0329C62.4838 64.4637 62.1345 64.8131 61.7036 64.8131H58.5655C54.3382 64.8131 51.2811 63.1381 49.2196 59.6925C47.471 56.7697 46.6998 53.044 45.9539 49.4409C44.5886 42.8462 43.4598 38.842 39.3036 38.842C38.8728 38.842 38.5234 38.4927 38.5234 38.0618C38.5234 37.631 38.8727 37.2816 39.3036 37.2816H42.4418C46.6692 37.2816 49.7262 38.9566 51.7877 42.4022ZM53.5255 52.9701C52.1538 46.3444 50.7381 39.5035 43.5282 38.8871C45.8132 41.0644 46.6571 45.141 47.4817 49.1246C48.8534 55.7504 50.2691 62.5912 57.4789 63.2077C55.194 61.0302 54.3502 56.9538 53.5255 52.9701Z" fill="#3D9799"/>
<path id="Vector_15" d="M90.3141 42.4022C92.0627 45.325 92.8339 49.0508 93.5798 52.6538C94.945 59.2486 96.0738 63.2527 100.23 63.2527C100.661 63.2527 101.01 63.602 101.01 64.0329C101.01 64.4637 100.661 64.8131 100.23 64.8131H97.0919C92.8646 64.8131 89.8075 63.1381 87.746 59.6925C85.9974 56.7697 85.2262 53.044 84.4803 49.4409C83.115 42.8462 81.9862 38.842 77.83 38.842C77.3992 38.842 77.0498 38.4927 77.0498 38.0618C77.0498 37.631 77.3991 37.2816 77.83 37.2816H80.9682C85.1955 37.2816 88.2526 38.9566 90.3141 42.4022ZM92.0519 52.9701C90.6802 46.3444 89.2645 39.5035 82.0546 38.8871C84.3396 41.0644 85.1835 45.141 86.0081 49.1246C87.3798 55.7504 88.7955 62.5912 96.0053 63.2077C93.7204 61.0302 92.8766 56.9538 92.0519 52.9701Z" fill="#3D9799"/>
<path id="Vector_16" d="M119.489 38.8443H116.351C115.919 38.8443 115.568 38.4938 115.568 38.0618C115.568 37.6297 115.919 37.2793 116.351 37.2793C120.765 37.2793 121.846 29.7816 122.991 21.8433C124.467 11.6046 126.141 0 135.613 0H138.751C139.183 0 139.534 0.3505 139.534 0.7825C139.534 1.2145 139.183 1.565 138.751 1.565C134.338 1.565 133.256 9.0627 132.112 17.0008C130.635 27.2395 128.961 38.8443 119.489 38.8443ZM135.037 1.5829C127.424 2.0673 125.958 12.2303 124.54 22.0666C123.626 28.4019 122.75 34.4787 120.065 37.2614C127.678 36.777 129.144 26.6138 130.562 16.7775C131.476 10.4424 132.352 4.3656 135.037 1.5829Z" fill="#3D9799"/>
</g>
<g id="BOTTOM B">
<path id="Vector_17" d="M116.352 26.7513C127.552 26.7513 119.49 64.0305 135.613 64.0305H138.752C127.552 64.0305 135.613 26.7513 119.49 26.7513H116.352Z" fill="url(#paint8_linear_938_25611)"/>
<path id="Vector_18" d="M135.613 38.0595C146.813 38.0595 138.751 64.0305 154.875 64.0305L158.013 64.0117C146.813 64.0305 154.875 38.0595 138.751 38.0595H135.613Z" fill="url(#paint9_linear_938_25611)"/>
<path id="Vector_19" d="M0.780273 38.0595C11.9803 38.0595 3.91847 64.0305 20.0421 64.0305H23.1803C11.9803 64.0305 20.0421 38.0595 3.91847 38.0595H0.780273Z" fill="url(#paint10_linear_938_25611)"/>
<path id="Vector_20" d="M20.042 38.0595C31.242 38.0595 23.1802 64.0305 39.3038 64.0305L42.442 64.0117C31.242 64.0305 39.3038 38.0595 23.1802 38.0595H20.042Z" fill="url(#paint11_linear_938_25611)"/>
<path id="Vector_21" d="M58.5674 38.0595C69.7674 38.0595 61.7056 64.0305 77.8292 64.0305L80.9674 64.0117C69.7674 64.0305 77.8292 38.0595 61.7056 38.0595H58.5674Z" fill="url(#paint12_linear_938_25611)"/>
<path id="Vector_22" d="M97.0898 38.0595C108.29 38.0595 100.228 64.0305 116.352 64.0305L119.49 64.0117C108.29 64.0305 116.352 38.0595 100.228 38.0595H97.0898Z" fill="url(#paint13_linear_938_25611)"/>
<path id="Vector_23" d="M39.3047 26.7512C50.5047 26.7512 42.4429 0.780212 58.5665 0.780212H61.7047C50.5047 0.780212 58.5665 26.7512 42.4429 26.7512H39.3047Z" fill="url(#paint14_linear_938_25611)"/>
<path id="Vector_24" d="M77.8271 26.7512C89.0271 26.7512 80.9654 0.780212 97.089 0.780212H100.227C89.0272 0.780212 97.0889 26.7512 80.9653 26.7512H77.8271Z" fill="url(#paint15_linear_938_25611)"/>
</g>
<g id="BOTTOM LINE B">
<path id="Vector_25" d="M148.1 42.3987C149.848 45.3207 150.62 49.045 151.366 52.6466C152.729 59.2316 153.857 63.2315 158.004 63.2315C158.008 63.2315 158.012 63.2314 158.016 63.2315C158.446 63.2315 158.795 63.5789 158.796 64.0086C158.798 64.4389 158.451 64.7892 158.021 64.7918L154.878 64.8107C150.493 64.8107 147.397 63.1633 145.415 59.7745C143.729 56.892 143.098 53.2057 142.488 49.6408C141.337 42.9202 140.301 38.8396 135.616 38.8396C135.185 38.8396 134.836 38.4903 134.836 38.0594C134.836 37.6285 135.185 37.2792 135.616 37.2792H138.754C142.981 37.2793 146.038 38.9539 148.1 42.3987ZM149.838 52.9631C148.49 46.4539 147.098 39.7369 140.208 38.9221C142.617 41.1472 143.33 45.3099 144.026 49.3776C144.613 52.805 145.219 56.3491 146.762 58.9867C148.302 61.6188 150.559 62.9785 153.813 63.2134C151.512 61.0449 150.665 56.9573 149.838 52.9631Z" fill="#99763D"/>
<path id="Vector_26" d="M13.2643 42.3999C15.0129 45.3227 15.7841 49.0485 16.53 52.6515C17.8952 59.2463 19.024 63.2504 23.1802 63.2504C23.611 63.2504 23.9604 63.5997 23.9604 64.0306C23.9604 64.4614 23.6111 64.8108 23.1802 64.8108H20.0421C15.8148 64.8108 12.7577 63.1358 10.6962 59.6902C8.9476 56.7674 8.1764 53.0417 7.4305 49.4386C6.0652 42.8439 4.9364 38.8397 0.7802 38.8397C0.3493 38.8396 0 38.4903 0 38.0594C0 37.6285 0.3493 37.2792 0.7802 37.2792H3.9184C8.1458 37.2793 11.2028 38.9542 13.2643 42.3999ZM15.0021 52.9677C13.6304 46.342 12.2147 39.5011 5.0048 38.8847C7.2898 41.062 8.1337 45.1386 8.9583 49.1222C10.33 55.748 11.7457 62.5888 18.9555 63.2053C16.6706 61.0279 15.8268 56.9514 15.0021 52.9677Z" fill="#3D4F99"/>
<path id="Vector_27" d="M32.5254 42.3987C34.274 45.3207 35.0453 49.045 35.7913 52.6466C37.1551 59.2316 38.2827 63.2315 42.4297 63.2315C42.4337 63.2315 42.4379 63.2314 42.4419 63.2315C42.8715 63.2315 43.2204 63.5789 43.2221 64.0086C43.2237 64.4389 42.8769 64.7892 42.4466 64.7918L39.3037 64.8107C34.9183 64.8107 31.823 63.1633 29.8408 59.7745C28.1549 56.892 27.5238 53.2057 26.9136 49.6408C25.7633 42.9202 24.7267 38.8396 20.0419 38.8396C19.6111 38.8396 19.2617 38.4903 19.2617 38.0594C19.2617 37.6285 19.611 37.2792 20.0419 37.2792H23.18C27.4069 37.2793 30.4638 38.9539 32.5254 42.3987ZM34.2633 52.9631C32.9152 46.4539 31.5238 39.7369 24.634 38.9221C27.0425 41.1472 27.7552 45.3099 28.4516 49.3776C29.0382 52.805 29.6449 56.3491 31.1877 58.9867C32.7272 61.6188 34.9848 62.9785 38.2387 63.2134C35.9376 61.0449 35.0906 56.9573 34.2633 52.9631Z" fill="#99763D"/>
<path id="Vector_28" d="M71.0508 42.3987C72.7994 45.3207 73.5707 49.045 74.3167 52.6466C75.6805 59.2316 76.8082 63.2315 80.9551 63.2315C80.9591 63.2315 80.9633 63.2314 80.9673 63.2315C81.3969 63.2315 81.7458 63.5789 81.7475 64.0086C81.7491 64.4389 81.4023 64.7892 80.972 64.7918L77.8291 64.8107C73.4437 64.8107 70.3484 63.1633 68.3662 59.7745C66.6802 56.892 66.0492 53.2057 65.439 49.6408C64.2887 42.9202 63.2521 38.8396 58.5673 38.8396C58.1365 38.8396 57.7871 38.4903 57.7871 38.0594C57.7871 37.6285 58.1364 37.2792 58.5673 37.2792H61.7054C65.9323 37.2793 68.9893 38.9539 71.0508 42.3987ZM72.7888 52.9631C71.4407 46.4539 70.0493 39.7369 63.1595 38.9221C65.568 41.1472 66.2807 45.3099 66.9771 49.3776C67.5638 52.805 68.1704 56.3491 69.7132 58.9867C71.2527 61.6188 73.5103 62.9785 76.7642 63.2134C74.463 61.0449 73.616 56.9573 72.7888 52.9631Z" fill="#99763D"/>
<path id="Vector_29" d="M109.573 42.3987C111.322 45.3207 112.093 49.045 112.839 52.6466C114.203 59.2316 115.331 63.2315 119.478 63.2315C119.482 63.2315 119.486 63.2314 119.49 63.2315C119.919 63.2315 120.268 63.5789 120.27 64.0086C120.272 64.4389 119.925 64.7892 119.494 64.7918L116.352 64.8107C111.966 64.8107 108.871 63.1633 106.889 59.7745C105.203 56.892 104.572 53.2057 103.961 49.6408C102.811 42.9202 101.775 38.8396 97.0898 38.8396C96.659 38.8396 96.3096 38.4903 96.3096 38.0594C96.3096 37.6285 96.6589 37.2792 97.0898 37.2792H100.228C104.455 37.2793 107.512 38.9539 109.573 42.3987ZM111.311 52.9631C109.963 46.4539 108.572 39.7369 101.682 38.9221C104.09 41.1472 104.803 45.3099 105.5 49.3776C106.086 52.805 106.693 56.3491 108.236 58.9867C109.775 61.6188 112.033 62.9785 115.287 63.2134C112.985 61.0449 112.138 56.9573 111.311 52.9631Z" fill="#99763D"/>
<path id="Vector_30" d="M138.751 64.8131H135.613C126.141 64.8131 124.467 53.2085 122.991 42.9698C121.846 35.0315 120.765 27.5338 116.351 27.5338C115.919 27.5338 115.568 27.1833 115.568 26.7513C115.568 26.3193 115.919 25.9688 116.351 25.9688H119.489C128.961 25.9688 130.635 37.5737 132.111 47.8121C133.256 55.7504 134.337 63.2481 138.751 63.2481C139.183 63.2481 139.533 63.5986 139.533 64.0306C139.533 64.4626 139.183 64.8131 138.751 64.8131ZM120.065 27.5517C122.75 30.3343 123.626 36.4112 124.54 42.7465C125.958 52.5826 127.424 62.7457 135.037 63.2302C132.352 60.4478 131.476 54.3707 130.562 48.0357C129.144 38.1993 127.678 28.0361 120.065 27.5517Z" fill="#3D4F99"/>
<path id="Vector_31" d="M42.4418 27.5315H39.3036C38.8728 27.5315 38.5234 27.1822 38.5234 26.7513C38.5234 26.3205 38.8727 25.9711 39.3036 25.9711C43.4598 25.9711 44.5886 21.9668 45.9539 15.3722C46.6998 11.7691 47.471 8.0434 49.2196 5.1206C51.281 1.675 54.3382 0 58.5655 0H61.7036C62.1344 0 62.4838 0.3493 62.4838 0.7802C62.4838 1.2111 62.1345 1.5604 61.7036 1.5604C57.5474 1.5604 56.4186 5.5646 55.0534 12.1593C54.3075 15.7623 53.5363 19.4881 51.7877 22.4109C49.7262 25.8565 46.6692 27.5315 42.4418 27.5315ZM57.4789 1.6054C50.2691 2.2219 48.8534 9.0627 47.4817 15.6885C46.6571 19.6721 45.8132 23.7487 43.5282 25.926C50.7381 25.3096 52.1538 18.4687 53.5255 11.843C54.3502 7.8593 55.194 3.7828 57.4789 1.6054Z" fill="#3D4F99"/>
<path id="Vector_32" d="M80.9682 27.5315H77.83C77.3992 27.5315 77.0498 27.1822 77.0498 26.7513C77.0498 26.3205 77.3991 25.9711 77.83 25.9711C81.9862 25.9711 83.115 21.9668 84.4803 15.3722C85.2262 11.7691 85.9974 8.0434 87.746 5.1206C89.8074 1.675 92.8646 0 97.0919 0H100.23C100.661 0 101.01 0.3493 101.01 0.7802C101.01 1.2111 100.661 1.5604 100.23 1.5604C96.0738 1.5604 94.945 5.5646 93.5798 12.1593C92.8339 15.7623 92.0627 19.4881 90.3141 22.4109C88.2526 25.8565 85.1955 27.5315 80.9682 27.5315ZM96.0053 1.6054C88.7955 2.2219 87.3798 9.0627 86.0081 15.6885C85.1835 19.6721 84.3396 23.7487 82.0546 25.926C89.2645 25.3096 90.6802 18.4687 92.0519 11.843C92.8766 7.8593 93.7204 3.7828 96.0053 1.6054Z" fill="#3D4F99"/>
</g>
<g id="TOP B" opacity="0.7">
<path id="Vector_33" d="M23.1803 38.0595C11.9803 38.0595 20.0421 64.0305 3.91847 64.0305H0.780273C11.9803 64.0305 3.91847 38.0595 20.0421 38.0595H23.1803Z" fill="url(#paint16_linear_938_25611)"/>
<path id="Vector_34" d="M61.7047 38.0595C50.5047 38.0595 58.5665 64.0305 42.4429 64.0305H39.3047C50.5047 64.0305 42.4429 38.0595 58.5665 38.0595H61.7047Z" fill="url(#paint17_linear_938_25611)"/>
<path id="Vector_35" d="M100.227 38.0595C89.0272 38.0595 97.0889 64.0305 80.9653 64.0305H77.8271C89.0271 64.0305 80.9654 38.0595 97.089 38.0595H100.227Z" fill="url(#paint18_linear_938_25611)"/>
<path id="Vector_36" d="M42.442 26.7513C31.242 26.7513 39.3038 64.0305 23.1802 64.0305H20.042C31.242 64.0305 23.1802 26.7513 39.3038 26.7513H42.442Z" fill="url(#paint19_linear_938_25611)"/>
<path id="Vector_37" d="M138.752 38.0595C127.552 38.0595 135.613 64.0305 119.49 64.0305H116.352C127.552 64.0305 119.49 38.0595 135.613 38.0595H138.752Z" fill="url(#paint20_linear_938_25611)"/>
<path id="Vector_38" d="M158.013 38.0595C146.813 38.0595 154.875 64.0305 138.751 64.0305H135.613C146.813 64.0305 138.751 38.0595 154.875 38.0595H158.013Z" fill="url(#paint21_linear_938_25611)"/>
<path id="Vector_39" d="M80.9674 26.7512C69.7674 26.7512 77.8292 0.780212 61.7056 0.780212H58.5674C69.7674 0.780212 61.7056 26.7512 77.8292 26.7512H80.9674Z" fill="url(#paint22_linear_938_25611)"/>
<path id="Vector_40" d="M119.49 26.7512C108.29 26.7512 116.352 0.780212 100.228 0.780212H97.0898C108.29 0.780212 100.228 26.7512 116.352 26.7512H119.49Z" fill="url(#paint23_linear_938_25611)"/>
</g>
<g id="TOP LINE B">
<path id="Vector_41" d="M23.9603 38.0595C23.9603 38.4903 23.611 38.8397 23.1801 38.8397C19.0239 38.8397 17.8951 42.8439 16.5299 49.4386C15.784 53.0416 15.0128 56.7673 13.2642 59.6901C11.2027 63.1357 8.1456 64.8107 3.9183 64.8107H0.7802C0.3493 64.8107 0 64.4614 0 64.0305C0 63.5997 0.3493 63.2503 0.7802 63.2503C4.9364 63.2503 6.0653 59.246 7.4305 52.6514C8.1763 49.0484 8.9476 45.3226 10.6962 42.3999C12.7577 38.9543 15.8147 37.2793 20.042 37.2793H23.1802C23.611 37.2794 23.9603 37.6287 23.9603 38.0595ZM15.0021 49.1222C15.8267 45.1385 16.6706 41.0621 18.9555 38.8847C11.7457 39.5012 10.3299 46.342 8.9583 52.9677C8.1337 56.9514 7.2898 61.0279 5.0048 63.2053C12.2147 62.5889 13.6304 55.748 15.0021 49.1222Z" fill="#99763D"/>
<g id="Group">
<path id="Vector_42" d="M23.1802 64.8304H20.042C19.6001 64.8304 19.2422 64.472 19.2422 64.0306C19.2422 63.5892 19.6001 63.2308 20.042 63.2308C24.4404 63.2308 25.5205 55.7406 26.6641 47.8099C28.1421 37.5638 29.8169 25.9515 39.3037 25.9515H42.4419C42.8838 25.9515 43.2417 26.3094 43.2417 26.7513C43.2417 27.1932 42.8838 27.5511 42.4419 27.5511C38.0435 27.5511 36.9629 35.0423 35.8193 42.972C34.3418 53.2181 32.667 64.8304 23.1802 64.8304ZM38.6836 27.5721C31.124 28.0941 29.6626 38.2288 28.2481 48.0384C27.3375 54.3509 26.4639 60.4075 23.8003 63.2093C31.3599 62.6878 32.8213 52.5531 34.2358 42.7445C35.1465 36.431 36.0195 30.3738 38.6836 27.5721Z" fill="#3D4F99"/>
</g>
<path id="Vector_43" d="M139.539 38.0595C139.539 38.4903 139.189 38.8397 138.758 38.8397C134.602 38.8397 133.473 42.8439 132.108 49.4386C131.362 53.0416 130.591 56.7673 128.842 59.6901C126.781 63.1357 123.724 64.8107 119.497 64.8107H116.358C115.928 64.8107 115.578 64.4614 115.578 64.0305C115.578 63.5997 115.927 63.2503 116.358 63.2503C120.515 63.2503 121.643 59.246 123.009 52.6514C123.754 49.0484 124.526 45.3226 126.274 42.3999C128.336 38.9543 131.393 37.2793 135.62 37.2793H138.758C139.189 37.2794 139.539 37.6287 139.539 38.0595ZM130.58 49.1222C131.405 45.1385 132.249 41.0621 134.534 38.8847C127.324 39.5012 125.908 46.342 124.537 52.9677C123.712 56.9514 122.868 61.0279 120.583 63.2053C127.793 62.5889 129.209 55.748 130.58 49.1222Z" fill="#99763D"/>
<path id="Vector_44" d="M158.801 38.0595C158.801 38.4903 158.452 38.8397 158.021 38.8397C153.865 38.8397 152.736 42.8439 151.371 49.4386C150.625 53.0416 149.854 56.7673 148.105 59.6901C146.044 63.1357 142.986 64.8107 138.759 64.8107H135.621C135.19 64.8107 134.841 64.4614 134.841 64.0305C134.841 63.5997 135.19 63.2503 135.621 63.2503C139.777 63.2503 140.906 59.2461 142.271 52.6514C143.017 49.0484 143.788 45.3227 145.537 42.3999C147.598 38.9543 150.656 37.2793 154.883 37.2793H158.021C158.452 37.2794 158.801 37.6287 158.801 38.0595ZM149.843 49.1223C150.668 45.1386 151.511 41.0621 153.796 38.8847C146.587 39.5012 145.171 46.342 143.799 52.9678C142.975 56.9515 142.131 61.0279 139.846 63.2053C147.056 62.5889 148.471 55.748 149.843 49.1223Z" fill="#3D4F99"/>
<path id="Vector_45" d="M62.4848 38.0595C62.4848 38.4903 62.1355 38.8397 61.7046 38.8397C57.5484 38.8397 56.4196 42.8439 55.0544 49.4386C54.3085 53.0416 53.5373 56.7673 51.7887 59.6901C49.7272 63.1357 46.6701 64.8107 42.4428 64.8107H39.3046C38.8738 64.8107 38.5244 64.4614 38.5244 64.0305C38.5244 63.5997 38.8737 63.2503 39.3046 63.2503C43.4608 63.2503 44.5897 59.246 45.9549 52.6514C46.7007 49.0484 47.472 45.3226 49.2206 42.3999C51.2821 38.9543 54.3391 37.2793 58.5664 37.2793H61.7046C62.1354 37.2794 62.4848 37.6287 62.4848 38.0595ZM53.5265 49.1222C54.3511 45.1385 55.195 41.0621 57.4799 38.8847C50.2701 39.5012 48.8544 46.342 47.4827 52.9677C46.6581 56.9514 45.8142 61.0279 43.5292 63.2053C50.7391 62.5889 52.1549 55.748 53.5265 49.1222Z" fill="#99763D"/>
<path id="Vector_46" d="M101.01 38.0595C101.01 38.4903 100.661 38.8397 100.23 38.8397C96.0738 38.8397 94.945 42.8439 93.5798 49.4386C92.8339 53.0416 92.0627 56.7673 90.3141 59.6901C88.2526 63.1357 85.1955 64.8107 80.9682 64.8107H77.83C77.3992 64.8107 77.0498 64.4614 77.0498 64.0305C77.0498 63.5997 77.3991 63.2503 77.83 63.2503C81.9862 63.2503 83.1151 59.246 84.4803 52.6514C85.2261 49.0484 85.9974 45.3226 87.746 42.3999C89.8075 38.9543 92.8645 37.2793 97.0918 37.2793H100.23C100.661 37.2794 101.01 37.6287 101.01 38.0595ZM92.052 49.1222C92.8766 45.1385 93.7205 41.0621 96.0054 38.8847C88.7956 39.5012 87.3799 46.342 86.0082 52.9677C85.1836 56.9514 84.3397 61.0279 82.0547 63.2053C89.2646 62.5889 90.6803 55.748 92.052 49.1222Z" fill="#99763D"/>
<path id="Vector_47" d="M119.49 27.5314H116.352C112.124 27.5314 109.067 25.8564 107.006 22.4108C105.257 19.488 104.486 15.7623 103.74 12.1593C102.375 5.5645 101.246 1.5604 97.0898 1.5604C96.659 1.5604 96.3096 1.2111 96.3096 0.7802C96.3096 0.3493 96.6589 0 97.0898 0H100.228C104.455 0 107.512 1.675 109.574 5.1206C111.322 8.0434 112.094 11.7691 112.839 15.3721C114.205 21.9669 115.334 25.971 119.49 25.971C119.921 25.971 120.27 26.3203 120.27 26.7512C120.27 27.1821 119.921 27.5314 119.49 27.5314ZM101.314 1.6054C103.599 3.7828 104.443 7.8592 105.268 11.8429C106.639 18.4687 108.055 25.3095 115.265 25.926C112.98 23.7486 112.136 19.6721 111.312 15.6884C109.94 9.0627 108.524 2.2219 101.314 1.6054Z" fill="#3D4F99"/>
<path id="Vector_48" d="M80.9673 27.5314H77.8291C73.6018 27.5314 70.5447 25.8564 68.4832 22.4108C66.7346 19.488 65.9634 15.7623 65.2175 12.1593C63.8523 5.5645 62.7235 1.5604 58.5673 1.5604C58.1365 1.5604 57.7871 1.2111 57.7871 0.7802C57.7871 0.3493 58.1365 0 58.5673 0H61.7054C65.9327 0 68.9898 1.675 71.0513 5.1206C72.7999 8.0434 73.5711 11.7691 74.317 15.3721C75.6822 21.9669 76.8111 25.971 80.9673 25.971C81.3981 25.971 81.7475 26.3203 81.7475 26.7512C81.7475 27.1821 81.3982 27.5314 80.9673 27.5314ZM62.7919 1.6054C65.0768 3.7828 65.9207 7.8592 66.7453 11.8429C68.117 18.4687 69.5327 25.3095 76.7426 25.926C74.4576 23.7486 73.6137 19.6721 72.7891 15.6884C71.4175 9.0627 70.0017 2.2219 62.7919 1.6054Z" fill="#3D4F99"/>
</g>
<g id="TOP A" opacity="0.7">
<path id="Vector_49" d="M23.1803 26.7536C11.9803 26.7536 20.0421 0.782593 3.91847 0.782593H0.780273C11.9803 0.782593 3.91847 26.7536 20.0421 26.7536H23.1803Z" fill="url(#paint24_linear_938_25611)"/>
<path id="Vector_50" d="M61.7047 26.7536C50.5047 26.7536 58.5665 0.782593 42.4429 0.782593H39.3047C50.5047 0.782593 42.4429 26.7536 58.5665 26.7536H61.7047Z" fill="url(#paint25_linear_938_25611)"/>
<path id="Vector_51" d="M100.227 26.7536C89.0272 26.7536 97.0889 0.782593 80.9653 0.782593H77.8271C89.0271 0.782593 80.9654 26.7536 97.089 26.7536H100.227Z" fill="url(#paint26_linear_938_25611)"/>
<path id="Vector_52" d="M42.442 38.0618C31.242 38.0618 39.3038 0.782593 23.1802 0.782593H20.042C31.242 0.782593 23.1802 38.0618 39.3038 38.0618H42.442Z" fill="url(#paint27_linear_938_25611)"/>
<path id="Vector_53" d="M138.752 26.7536C127.552 26.7536 135.613 0.782593 119.49 0.782593H116.352C127.552 0.782593 119.49 26.7536 135.613 26.7536H138.752Z" fill="url(#paint28_linear_938_25611)"/>
<path id="Vector_54" d="M158.013 26.7536C146.813 26.7536 154.875 0.782593 138.751 0.782593H135.613C146.813 0.782593 138.751 26.7536 154.875 26.7536H158.013Z" fill="url(#paint29_linear_938_25611)"/>
<path id="Vector_55" d="M80.9674 38.0618C69.7674 38.0618 77.8292 64.0328 61.7056 64.0328H58.5674C69.7674 64.0328 61.7056 38.0618 77.8292 38.0618H80.9674Z" fill="url(#paint30_linear_938_25611)"/>
<path id="Vector_56" d="M119.49 38.0618C108.29 38.0618 116.352 64.0328 100.228 64.0328H97.0898C108.29 64.0328 100.228 38.0618 116.352 38.0618H119.49Z" fill="url(#paint31_linear_938_25611)"/>
</g>
<g id="TOP LINE A">
<path id="Vector_57" d="M23.1802 27.5337H20.042C15.8147 27.5337 12.7576 25.8587 10.6962 22.4131C8.9476 19.4904 8.1763 15.7646 7.4305 12.1616C6.0652 5.56692 4.9363 1.56272 0.7802 1.56272C0.3493 1.56272 0 1.21342 0 0.782519C0 0.351619 0.3493 0.00231934 0.7802 0.00231934H3.9184C8.1457 0.00231934 11.2028 1.67732 13.2643 5.12292C15.0129 8.04572 15.7841 11.7714 16.53 15.3744C17.8952 21.9692 19.024 25.9733 23.1802 25.9733C23.611 25.9733 23.9604 26.3226 23.9604 26.7535C23.9603 27.1844 23.611 27.5337 23.1802 27.5337ZM5.0048 1.60772C7.2898 3.78512 8.1337 7.86162 8.9583 11.8453C10.33 18.471 11.7457 25.3118 18.9555 25.9283C16.6706 23.7509 15.8267 19.6745 15.0021 15.6908C13.6304 9.06502 12.2147 2.22422 5.0048 1.60772Z" fill="#993D61"/>
<path id="Vector_58" d="M42.4424 38.8443H39.3041C29.8324 38.8443 28.1587 27.2397 26.6821 17.001C25.5373 9.063 24.456 1.565 20.0423 1.565C19.6102 1.565 19.2598 1.2145 19.2598 0.7825C19.2598 0.3505 19.6102 0 20.0423 0H23.1806C32.6523 0 34.326 11.6049 35.8026 21.8433C36.9474 29.7816 38.0289 37.2793 42.4424 37.2793C42.8745 37.2793 43.2249 37.6298 43.2249 38.0618C43.2249 38.4939 42.8744 38.8443 42.4424 38.8443ZM23.7562 1.5829C26.4412 4.3655 27.3173 10.4424 28.231 16.7777C29.6496 26.614 31.1153 36.7769 38.7286 37.2614C36.0436 34.4788 35.1675 28.4019 34.2538 22.0669C32.835 12.2305 31.3693 2.0674 23.7562 1.5829Z" fill="#3D9799"/>
<path id="Vector_59" d="M138.759 27.5337H135.621C131.394 27.5337 128.337 25.8587 126.275 22.4131C124.527 19.4904 123.755 15.7646 123.01 12.1616C121.644 5.56692 120.516 1.56272 116.359 1.56272C115.929 1.56272 115.579 1.21342 115.579 0.782519C115.579 0.351619 115.928 0.00231934 116.359 0.00231934H119.498C123.725 0.00231934 126.782 1.67732 128.843 5.12292C130.592 8.04572 131.363 11.7714 132.109 15.3744C133.474 21.9692 134.603 25.9733 138.759 25.9733C139.19 25.9733 139.539 26.3226 139.539 26.7535C139.539 27.1844 139.19 27.5337 138.759 27.5337ZM120.584 1.60772C122.869 3.78512 123.713 7.86162 124.537 11.8453C125.909 18.471 127.325 25.3118 134.535 25.9283C132.25 23.7509 131.406 19.6745 130.581 15.6908C129.209 9.06502 127.794 2.22422 120.584 1.60772Z" fill="#993D61"/>
<path id="Vector_60" d="M158.021 27.5337H154.883C150.656 27.5337 147.598 25.8587 145.537 22.4131C143.788 19.4903 143.017 15.7646 142.271 12.1616C140.906 5.56682 139.777 1.56272 135.621 1.56272C135.19 1.56272 134.841 1.21342 134.841 0.782519C134.841 0.351619 135.19 0.00231934 135.621 0.00231934H138.759C142.986 0.00231934 146.044 1.67732 148.105 5.12292C149.854 8.04572 150.625 11.7714 151.371 15.3744C152.736 21.9692 153.865 25.9733 158.021 25.9733C158.452 25.9733 158.801 26.3226 158.801 26.7535C158.801 27.1844 158.452 27.5337 158.021 27.5337ZM139.846 1.60772C142.131 3.78512 142.975 7.86152 143.799 11.8452C145.171 18.471 146.587 25.3118 153.796 25.9283C151.511 23.7509 150.668 19.6744 149.843 15.6907C148.471 9.06502 147.056 2.22422 139.846 1.60772Z" fill="#3D9799"/>
<path id="Vector_61" d="M61.7046 27.5337H58.5664C54.3391 27.5337 51.282 25.8587 49.2206 22.4131C47.472 19.4904 46.7007 15.7646 45.9549 12.1616C44.5897 5.56692 43.4608 1.56272 39.3046 1.56272C38.8738 1.56272 38.5244 1.21342 38.5244 0.782519C38.5244 0.351619 38.8737 0.00231934 39.3046 0.00231934H42.4428C46.6701 0.00231934 49.7272 1.67732 51.7887 5.12292C53.5373 8.04572 54.3085 11.7714 55.0544 15.3744C56.4196 21.9692 57.5484 25.9733 61.7046 25.9733C62.1354 25.9733 62.4848 26.3226 62.4848 26.7535C62.4848 27.1844 62.1354 27.5337 61.7046 27.5337ZM43.5292 1.60772C45.8142 3.78512 46.6581 7.86162 47.4827 11.8453C48.8544 18.471 50.2701 25.3118 57.4799 25.9283C55.195 23.7509 54.3511 19.6745 53.5265 15.6908C52.1549 9.06502 50.7391 2.22422 43.5292 1.60772Z" fill="#993D61"/>
<path id="Vector_62" d="M100.23 27.5337H97.0918C92.8645 27.5337 89.8074 25.8587 87.746 22.4131C85.9974 19.4904 85.2261 15.7646 84.4803 12.1616C83.1151 5.56692 81.9862 1.56272 77.83 1.56272C77.3992 1.56272 77.0498 1.21342 77.0498 0.782519C77.0498 0.351619 77.3991 0.00231934 77.83 0.00231934H80.9682C85.1955 0.00231934 88.2526 1.67732 90.3141 5.12292C92.0627 8.04572 92.8339 11.7714 93.5798 15.3744C94.945 21.9692 96.0738 25.9733 100.23 25.9733C100.661 25.9733 101.01 26.3226 101.01 26.7535C101.01 27.1844 100.661 27.5337 100.23 27.5337ZM82.0546 1.60772C84.3396 3.78512 85.1835 7.86162 86.0081 11.8453C87.3798 18.471 88.7955 25.3118 96.0053 25.9283C93.7204 23.7509 92.8765 19.6745 92.0519 15.6908C90.6802 9.06502 89.2645 2.22422 82.0546 1.60772Z" fill="#993D61"/>
<path id="Vector_63" d="M120.27 38.0618C120.27 38.4926 119.921 38.842 119.49 38.842C115.334 38.842 114.205 42.8462 112.839 49.4409C112.094 53.0439 111.322 56.7696 109.574 59.6924C107.512 63.138 104.455 64.813 100.228 64.813H97.0898C96.659 64.813 96.3096 64.4637 96.3096 64.0328C96.3096 63.602 96.6589 63.2526 97.0898 63.2526C101.246 63.2526 102.375 59.2484 103.74 52.6537C104.486 49.0507 105.257 45.325 107.006 42.4022C109.067 38.9566 112.124 37.2816 116.352 37.2816H119.49C119.921 37.2816 120.27 37.631 120.27 38.0618ZM111.312 49.1246C112.136 45.1409 112.98 41.0644 115.265 38.887C108.055 39.5035 106.64 46.3443 105.268 52.9701C104.443 56.9538 103.599 61.0302 101.314 63.2076C108.524 62.5912 109.94 55.7503 111.312 49.1246Z" fill="#3D9799"/>
<path id="Vector_64" d="M81.7475 38.0618C81.7475 38.4926 81.3982 38.842 80.9673 38.842C76.8111 38.842 75.6822 42.8462 74.317 49.4409C73.5711 53.0439 72.7999 56.7696 71.0513 59.6924C68.9898 63.138 65.9327 64.813 61.7054 64.813H58.5673C58.1365 64.813 57.7871 64.4637 57.7871 64.0328C57.7871 63.602 58.1364 63.2526 58.5673 63.2526C62.7235 63.2526 63.8523 59.2484 65.2175 52.6537C65.9634 49.0507 66.7346 45.325 68.4832 42.4022C70.5447 38.9566 73.6018 37.2816 77.8291 37.2816H80.9673C81.3982 37.2816 81.7475 37.631 81.7475 38.0618ZM72.7892 49.1246C73.6138 45.1409 74.4577 41.0644 76.7427 38.887C69.5328 39.5035 68.1171 46.3443 66.7454 52.9701C65.9208 56.9538 65.0769 61.0302 62.792 63.2076C70.0017 62.5912 71.4175 55.7503 72.7892 49.1246Z" fill="#3D9799"/>
</g>
</g>
<defs>
<linearGradient id="paint0_linear_938_25611" x1="127.552" y1="38.1145" x2="127.552" y2="1.27459" gradientUnits="userSpaceOnUse">
<stop stop-color="#042224"/>
<stop offset="0.1" stop-color="#139BA2"/>
<stop offset="0.25" stop-color="#90A1A2"/>
<stop offset="0.6" stop-color="#0E9BA2"/>
<stop offset="1" stop-color="#042224"/>
</linearGradient>
<linearGradient id="paint1_linear_938_25611" x1="146.813" y1="26.7903" x2="146.813" y2="1.12539" gradientUnits="userSpaceOnUse">
<stop stop-color="#240410"/>
<stop offset="0.1" stop-color="#A20E44"/>
<stop offset="0.25" stop-color="#A29097"/>
<stop offset="0.6" stop-color="#A20E44"/>
<stop offset="1" stop-color="#240410"/>
</linearGradient>
<linearGradient id="paint2_linear_938_25611" x1="11.9803" y1="26.7903" x2="11.9803" y2="1.12539" gradientUnits="userSpaceOnUse">
<stop stop-color="#042224"/>
<stop offset="0.1" stop-color="#139BA2"/>
<stop offset="0.25" stop-color="#90A1A2"/>
<stop offset="0.6" stop-color="#0E9BA2"/>
<stop offset="1" stop-color="#042224"/>
</linearGradient>
<linearGradient id="paint3_linear_938_25611" x1="31.242" y1="26.7903" x2="31.242" y2="1.12539" gradientUnits="userSpaceOnUse">
<stop stop-color="#240410"/>
<stop offset="0.1" stop-color="#A20E44"/>
<stop offset="0.25" stop-color="#A29097"/>
<stop offset="0.6" stop-color="#A20E44"/>
<stop offset="1" stop-color="#240410"/>
</linearGradient>
<linearGradient id="paint4_linear_938_25611" x1="69.7675" y1="26.7903" x2="69.7675" y2="1.12539" gradientUnits="userSpaceOnUse">
<stop stop-color="#240410"/>
<stop offset="0.1" stop-color="#A20E44"/>
<stop offset="0.25" stop-color="#A29097"/>
<stop offset="0.6" stop-color="#A20E44"/>
<stop offset="1" stop-color="#240410"/>
</linearGradient>
<linearGradient id="paint5_linear_938_25611" x1="108.29" y1="26.7903" x2="108.29" y2="1.12539" gradientUnits="userSpaceOnUse">
<stop stop-color="#240410"/>
<stop offset="0.1" stop-color="#A20E44"/>
<stop offset="0.25" stop-color="#A29097"/>
<stop offset="0.6" stop-color="#A20E44"/>
<stop offset="1" stop-color="#240410"/>
</linearGradient>
<linearGradient id="paint6_linear_938_25611" x1="50.5047" y1="38.0252" x2="50.5047" y2="63.6901" gradientUnits="userSpaceOnUse">
<stop stop-color="#042224"/>
<stop offset="0.4" stop-color="#0E9BA2"/>
<stop offset="0.75" stop-color="#90A1A2"/>
<stop offset="0.9" stop-color="#139BA2"/>
<stop offset="1" stop-color="#042224"/>
</linearGradient>
<linearGradient id="paint7_linear_938_25611" x1="89.0272" y1="38.0252" x2="89.0272" y2="63.6901" gradientUnits="userSpaceOnUse">
<stop stop-color="#042224"/>
<stop offset="0.4" stop-color="#0E9BA2"/>
<stop offset="0.75" stop-color="#90A1A2"/>
<stop offset="0.9" stop-color="#139BA2"/>
<stop offset="1" stop-color="#042224"/>
</linearGradient>
<linearGradient id="paint8_linear_938_25611" x1="127.552" y1="26.6986" x2="127.552" y2="63.5384" gradientUnits="userSpaceOnUse">
<stop stop-color="#040924"/>
<stop offset="0.1" stop-color="#0E27A2"/>
<stop offset="0.1237" stop-color="#172EA2"/>
<stop offset="0.1623" stop-color="#2F43A2"/>
<stop offset="0.2111" stop-color="#5764A2"/>
<stop offset="0.2676" stop-color="#8E91A2"/>
<stop offset="0.27" stop-color="#9093A2"/>
<stop offset="0.315" stop-color="#8D91A2"/>
<stop offset="0.3421" stop-color="#858AA2"/>
<stop offset="0.3644" stop-color="#777EA2"/>
<stop offset="0.3841" stop-color="#626DA2"/>
<stop offset="0.4021" stop-color="#4857A2"/>
<stop offset="0.4187" stop-color="#283DA2"/>
<stop offset="0.43" stop-color="#0E27A2"/>
<stop offset="1" stop-color="#040924"/>
</linearGradient>
<linearGradient id="paint9_linear_938_25611" x1="146.813" y1="38.0228" x2="146.813" y2="63.6877" gradientUnits="userSpaceOnUse">
<stop stop-color="#241804"/>
<stop offset="0.57" stop-color="#A26C0E"/>
<stop offset="0.5813" stop-color="#A27628"/>
<stop offset="0.5979" stop-color="#A28148"/>
<stop offset="0.6159" stop-color="#A28B62"/>
<stop offset="0.6356" stop-color="#A29277"/>
<stop offset="0.6579" stop-color="#A29785"/>
<stop offset="0.685" stop-color="#A29A8D"/>
<stop offset="0.73" stop-color="#A29B90"/>
<stop offset="0.7324" stop-color="#A29A8E"/>
<stop offset="0.7889" stop-color="#A28657"/>
<stop offset="0.8377" stop-color="#A2782F"/>
<stop offset="0.8763" stop-color="#A26F17"/>
<stop offset="0.9" stop-color="#A26C0E"/>
<stop offset="1" stop-color="#241804"/>
</linearGradient>
<linearGradient id="paint10_linear_938_25611" x1="11.9803" y1="38.0228" x2="11.9803" y2="63.6877" gradientUnits="userSpaceOnUse">
<stop stop-color="#040924"/>
<stop offset="0.57" stop-color="#0E27A2"/>
<stop offset="0.5813" stop-color="#283DA2"/>
<stop offset="0.5979" stop-color="#4857A2"/>
<stop offset="0.6159" stop-color="#626DA2"/>
<stop offset="0.6356" stop-color="#777EA2"/>
<stop offset="0.6579" stop-color="#858AA2"/>
<stop offset="0.685" stop-color="#8D91A2"/>
<stop offset="0.73" stop-color="#9093A2"/>
<stop offset="0.7324" stop-color="#8E91A2"/>
<stop offset="0.7889" stop-color="#5764A2"/>
<stop offset="0.8377" stop-color="#2F43A2"/>
<stop offset="0.8763" stop-color="#172EA2"/>
<stop offset="0.9" stop-color="#0E27A2"/>
<stop offset="1" stop-color="#040924"/>
</linearGradient>
<linearGradient id="paint11_linear_938_25611" x1="31.242" y1="38.0228" x2="31.242" y2="63.6877" gradientUnits="userSpaceOnUse">
<stop stop-color="#241804"/>
<stop offset="0.57" stop-color="#A26C0E"/>
<stop offset="0.5813" stop-color="#A27628"/>
<stop offset="0.5979" stop-color="#A28148"/>
<stop offset="0.6159" stop-color="#A28B62"/>
<stop offset="0.6356" stop-color="#A29277"/>
<stop offset="0.6579" stop-color="#A29785"/>
<stop offset="0.685" stop-color="#A29A8D"/>
<stop offset="0.73" stop-color="#A29B90"/>
<stop offset="0.7324" stop-color="#A29A8E"/>
<stop offset="0.7889" stop-color="#A28657"/>
<stop offset="0.8377" stop-color="#A2782F"/>
<stop offset="0.8763" stop-color="#A26F17"/>
<stop offset="0.9" stop-color="#A26C0E"/>
<stop offset="1" stop-color="#241804"/>
</linearGradient>
<linearGradient id="paint12_linear_938_25611" x1="69.7675" y1="38.0228" x2="69.7675" y2="63.6877" gradientUnits="userSpaceOnUse">
<stop stop-color="#241804"/>
<stop offset="0.57" stop-color="#A26C0E"/>
<stop offset="0.5813" stop-color="#A27628"/>
<stop offset="0.5979" stop-color="#A28148"/>
<stop offset="0.6159" stop-color="#A28B62"/>
<stop offset="0.6356" stop-color="#A29277"/>
<stop offset="0.6579" stop-color="#A29785"/>
<stop offset="0.685" stop-color="#A29A8D"/>
<stop offset="0.73" stop-color="#A29B90"/>
<stop offset="0.7324" stop-color="#A29A8E"/>
<stop offset="0.7889" stop-color="#A28657"/>
<stop offset="0.8377" stop-color="#A2782F"/>
<stop offset="0.8763" stop-color="#A26F17"/>
<stop offset="0.9" stop-color="#A26C0E"/>
<stop offset="1" stop-color="#241804"/>
</linearGradient>
<linearGradient id="paint13_linear_938_25611" x1="108.29" y1="38.0228" x2="108.29" y2="63.6877" gradientUnits="userSpaceOnUse">
<stop stop-color="#241804"/>
<stop offset="0.57" stop-color="#A26C0E"/>
<stop offset="0.5813" stop-color="#A27628"/>
<stop offset="0.5979" stop-color="#A28148"/>
<stop offset="0.6159" stop-color="#A28B62"/>
<stop offset="0.6356" stop-color="#A29277"/>
<stop offset="0.6579" stop-color="#A29785"/>
<stop offset="0.685" stop-color="#A29A8D"/>
<stop offset="0.73" stop-color="#A29B90"/>
<stop offset="0.7324" stop-color="#A29A8E"/>
<stop offset="0.7889" stop-color="#A28657"/>
<stop offset="0.8377" stop-color="#A2782F"/>
<stop offset="0.8763" stop-color="#A26F17"/>
<stop offset="0.9" stop-color="#A26C0E"/>
<stop offset="1" stop-color="#241804"/>
</linearGradient>
<linearGradient id="paint14_linear_938_25611" x1="50.5047" y1="26.7879" x2="50.5047" y2="1.12301" gradientUnits="userSpaceOnUse">
<stop stop-color="#040924"/>
<stop offset="0.1" stop-color="#0E27A2"/>
<stop offset="0.1237" stop-color="#172EA2"/>
<stop offset="0.1623" stop-color="#2F43A2"/>
<stop offset="0.2111" stop-color="#5764A2"/>
<stop offset="0.2676" stop-color="#8E91A2"/>
<stop offset="0.27" stop-color="#9093A2"/>
<stop offset="0.315" stop-color="#8D91A2"/>
<stop offset="0.3421" stop-color="#858AA2"/>
<stop offset="0.3644" stop-color="#777EA2"/>
<stop offset="0.3841" stop-color="#626DA2"/>
<stop offset="0.4021" stop-color="#4857A2"/>
<stop offset="0.4187" stop-color="#283DA2"/>
<stop offset="0.43" stop-color="#0E27A2"/>
<stop offset="1" stop-color="#040924"/>
</linearGradient>
<linearGradient id="paint15_linear_938_25611" x1="89.0272" y1="26.7879" x2="89.0272" y2="1.12301" gradientUnits="userSpaceOnUse">
<stop stop-color="#040924"/>
<stop offset="0.1" stop-color="#0E27A2"/>
<stop offset="0.1237" stop-color="#172EA2"/>
<stop offset="0.1623" stop-color="#2F43A2"/>
<stop offset="0.2111" stop-color="#5764A2"/>
<stop offset="0.2676" stop-color="#8E91A2"/>
<stop offset="0.27" stop-color="#9093A2"/>
<stop offset="0.315" stop-color="#8D91A2"/>
<stop offset="0.3421" stop-color="#858AA2"/>
<stop offset="0.3644" stop-color="#777EA2"/>
<stop offset="0.3841" stop-color="#626DA2"/>
<stop offset="0.4021" stop-color="#4857A2"/>
<stop offset="0.4187" stop-color="#283DA2"/>
<stop offset="0.43" stop-color="#0E27A2"/>
<stop offset="1" stop-color="#040924"/>
</linearGradient>
<linearGradient id="paint16_linear_938_25611" x1="11.9802" y1="64.0671" x2="11.9802" y2="38.182" gradientUnits="userSpaceOnUse">
<stop stop-color="#241804"/>
<stop offset="0.4" stop-color="#A26C0E"/>
<stop offset="0.75" stop-color="#A29B90"/>
<stop offset="0.9" stop-color="#A26E13"/>
<stop offset="1" stop-color="#241804"/>
</linearGradient>
<linearGradient id="paint17_linear_938_25611" x1="50.5046" y1="64.0671" x2="50.5046" y2="38.182" gradientUnits="userSpaceOnUse">
<stop stop-color="#241804"/>
<stop offset="0.4" stop-color="#A26C0E"/>
<stop offset="0.75" stop-color="#A29B90"/>
<stop offset="0.9" stop-color="#A26E13"/>
<stop offset="1" stop-color="#241804"/>
</linearGradient>
<linearGradient id="paint18_linear_938_25611" x1="89.0271" y1="64.0671" x2="89.0271" y2="38.182" gradientUnits="userSpaceOnUse">
<stop stop-color="#241804"/>
<stop offset="0.4" stop-color="#A26C0E"/>
<stop offset="0.75" stop-color="#A29B90"/>
<stop offset="0.9" stop-color="#A26E13"/>
<stop offset="1" stop-color="#241804"/>
</linearGradient>
<linearGradient id="paint19_linear_938_25611" x1="31.242" y1="64.0831" x2="31.242" y2="26.9271" gradientUnits="userSpaceOnUse">
<stop stop-color="#040924"/>
<stop offset="0.1" stop-color="#132BA2"/>
<stop offset="0.25" stop-color="#9093A2"/>
<stop offset="0.6" stop-color="#0E27A2"/>
<stop offset="1" stop-color="#040924"/>
</linearGradient>
<linearGradient id="paint20_linear_938_25611" x1="127.552" y1="64.0671" x2="127.552" y2="38.182" gradientUnits="userSpaceOnUse">
<stop stop-color="#241804"/>
<stop offset="0.4" stop-color="#A26C0E"/>
<stop offset="0.75" stop-color="#A29B90"/>
<stop offset="0.9" stop-color="#A26E13"/>
<stop offset="1" stop-color="#241804"/>
</linearGradient>
<linearGradient id="paint21_linear_938_25611" x1="146.813" y1="64.0671" x2="146.813" y2="38.182" gradientUnits="userSpaceOnUse">
<stop stop-color="#040924"/>
<stop offset="0.4" stop-color="#0E27A2"/>
<stop offset="0.75" stop-color="#9093A2"/>
<stop offset="0.9" stop-color="#132BA2"/>
<stop offset="1" stop-color="#040924"/>
</linearGradient>
<linearGradient id="paint22_linear_938_25611" x1="69.7674" y1="0.743512" x2="69.7674" y2="26.6287" gradientUnits="userSpaceOnUse">
<stop stop-color="#040924"/>
<stop offset="0.1" stop-color="#132BA2"/>
<stop offset="0.25" stop-color="#9093A2"/>
<stop offset="0.6" stop-color="#0E27A2"/>
<stop offset="1" stop-color="#040924"/>
</linearGradient>
<linearGradient id="paint23_linear_938_25611" x1="108.29" y1="0.743512" x2="108.29" y2="26.6287" gradientUnits="userSpaceOnUse">
<stop stop-color="#040924"/>
<stop offset="0.1" stop-color="#132BA2"/>
<stop offset="0.25" stop-color="#9093A2"/>
<stop offset="0.6" stop-color="#0E27A2"/>
<stop offset="1" stop-color="#040924"/>
</linearGradient>
<linearGradient id="paint24_linear_938_25611" x1="11.9802" y1="0.745893" x2="11.9802" y2="26.631" gradientUnits="userSpaceOnUse">
<stop stop-color="#240410"/>
<stop offset="0.1" stop-color="#A20E44"/>
<stop offset="0.25" stop-color="#A29097"/>
<stop offset="0.6" stop-color="#A20E44"/>
<stop offset="1" stop-color="#240410"/>
</linearGradient>
<linearGradient id="paint25_linear_938_25611" x1="50.5046" y1="0.745893" x2="50.5046" y2="26.631" gradientUnits="userSpaceOnUse">
<stop stop-color="#240410"/>
<stop offset="0.1" stop-color="#A20E44"/>
<stop offset="0.25" stop-color="#A29097"/>
<stop offset="0.6" stop-color="#A20E44"/>
<stop offset="1" stop-color="#240410"/>
</linearGradient>
<linearGradient id="paint26_linear_938_25611" x1="89.0271" y1="0.745893" x2="89.0271" y2="26.631" gradientUnits="userSpaceOnUse">
<stop stop-color="#240410"/>
<stop offset="0.1" stop-color="#A20E44"/>
<stop offset="0.25" stop-color="#A29097"/>
<stop offset="0.6" stop-color="#A20E44"/>
<stop offset="1" stop-color="#240410"/>
</linearGradient>
<linearGradient id="paint27_linear_938_25611" x1="31.242" y1="0.729893" x2="31.242" y2="37.8859" gradientUnits="userSpaceOnUse">
<stop stop-color="#042224"/>
<stop offset="0.1" stop-color="#0E9BA2"/>
<stop offset="0.1237" stop-color="#179BA2"/>
<stop offset="0.1623" stop-color="#2F9DA2"/>
<stop offset="0.2111" stop-color="#579EA2"/>
<stop offset="0.2676" stop-color="#8EA1A2"/>
<stop offset="0.27" stop-color="#90A1A2"/>
<stop offset="0.315" stop-color="#8DA1A2"/>
<stop offset="0.3421" stop-color="#85A0A2"/>
<stop offset="0.3644" stop-color="#77A0A2"/>
<stop offset="0.3841" stop-color="#629FA2"/>
<stop offset="0.4021" stop-color="#489EA2"/>
<stop offset="0.4187" stop-color="#289CA2"/>
<stop offset="0.43" stop-color="#0E9BA2"/>
<stop offset="1" stop-color="#042224"/>
</linearGradient>
<linearGradient id="paint28_linear_938_25611" x1="127.552" y1="0.745893" x2="127.552" y2="26.631" gradientUnits="userSpaceOnUse">
<stop stop-color="#240410"/>
<stop offset="0.1" stop-color="#A20E44"/>
<stop offset="0.25" stop-color="#A29097"/>
<stop offset="0.6" stop-color="#A20E44"/>
<stop offset="1" stop-color="#240410"/>
</linearGradient>
<linearGradient id="paint29_linear_938_25611" x1="146.813" y1="0.745893" x2="146.813" y2="26.631" gradientUnits="userSpaceOnUse">
<stop stop-color="#042224"/>
<stop offset="0.1" stop-color="#0E9BA2"/>
<stop offset="0.1237" stop-color="#179BA2"/>
<stop offset="0.1623" stop-color="#2F9DA2"/>
<stop offset="0.2111" stop-color="#579EA2"/>
<stop offset="0.2676" stop-color="#8EA1A2"/>
<stop offset="0.27" stop-color="#90A1A2"/>
<stop offset="0.315" stop-color="#8DA1A2"/>
<stop offset="0.3421" stop-color="#85A0A2"/>
<stop offset="0.3644" stop-color="#77A0A2"/>
<stop offset="0.3841" stop-color="#629FA2"/>
<stop offset="0.4021" stop-color="#489EA2"/>
<stop offset="0.4187" stop-color="#289CA2"/>
<stop offset="0.43" stop-color="#0E9BA2"/>
<stop offset="1" stop-color="#042224"/>
</linearGradient>
<linearGradient id="paint30_linear_938_25611" x1="69.7674" y1="64.0695" x2="69.7674" y2="38.1843" gradientUnits="userSpaceOnUse">
<stop stop-color="#042224"/>
<stop offset="0.57" stop-color="#0E9BA2"/>
<stop offset="0.5813" stop-color="#289CA2"/>
<stop offset="0.5979" stop-color="#489EA2"/>
<stop offset="0.6159" stop-color="#629FA2"/>
<stop offset="0.6356" stop-color="#77A0A2"/>
<stop offset="0.6579" stop-color="#85A0A2"/>
<stop offset="0.685" stop-color="#8DA1A2"/>
<stop offset="0.73" stop-color="#90A1A2"/>
<stop offset="0.7324" stop-color="#8EA1A2"/>
<stop offset="0.7889" stop-color="#579EA2"/>
<stop offset="0.8377" stop-color="#2F9DA2"/>
<stop offset="0.8763" stop-color="#179BA2"/>
<stop offset="0.9" stop-color="#0E9BA2"/>
<stop offset="1" stop-color="#042224"/>
</linearGradient>
<linearGradient id="paint31_linear_938_25611" x1="108.29" y1="64.0695" x2="108.29" y2="38.1843" gradientUnits="userSpaceOnUse">
<stop stop-color="#042224"/>
<stop offset="0.57" stop-color="#0E9BA2"/>
<stop offset="0.5813" stop-color="#289CA2"/>
<stop offset="0.5979" stop-color="#489EA2"/>
<stop offset="0.6159" stop-color="#629FA2"/>
<stop offset="0.6356" stop-color="#77A0A2"/>
<stop offset="0.6579" stop-color="#85A0A2"/>
<stop offset="0.685" stop-color="#8DA1A2"/>
<stop offset="0.73" stop-color="#90A1A2"/>
<stop offset="0.7324" stop-color="#8EA1A2"/>
<stop offset="0.7889" stop-color="#579EA2"/>
<stop offset="0.8377" stop-color="#2F9DA2"/>
<stop offset="0.8763" stop-color="#179BA2"/>
<stop offset="0.9" stop-color="#0E9BA2"/>
<stop offset="1" stop-color="#042224"/>
</linearGradient>
</defs>
</svg>
