<svg width="107" height="37" viewBox="0 0 107 37" fill="none" xmlns="http://www.w3.org/2000/svg">
<g id="R-ICO-012633">
<g id="DNA GLYCOSYLASE">
<path d="M1.04468 11.5C1.04468 5.97715 5.52183 1.5 11.0447 1.5H95.0447C100.568 1.5 105.045 5.97715 105.045 11.5V25.5C105.045 31.0228 100.568 35.5 95.0447 35.5H11.0447C5.52183 35.5 1.04468 31.0228 1.04468 25.5V11.5Z" fill="url(#paint0_linear_938_23272)"/>
<path d="M75.7528 2.99266C54.1834 2.87443 32.6141 2.52283 11.0447 1.64001C11.0447 1.54664 11.0447 1.45328 11.0447 1.35991C32.6141 0.477089 54.1834 0.125486 75.7528 0.00726104C82.1833 -0.015263 88.614 0.0173147 95.0447 0.0678161C100.071 0.0246606 104.776 3.71645 105.97 8.5409C106.225 9.50765 106.347 10.5049 106.339 11.5C106.295 16.1667 106.23 20.8333 106.148 25.5C106.192 31.4267 100.773 36.5473 95.0457 36.2659C95.0453 36.2659 95.045 36.2658 95.0447 36.2658C84.2603 36.0221 73.4748 35.8466 62.6906 35.953C51.9059 36.056 41.1203 36.4645 30.3356 36.6648C23.9053 36.7619 17.475 36.7695 11.0447 36.7271C6.10712 36.7762 1.48794 33.1312 0.343833 28.3995C0.100347 27.4508 -0.013382 26.4738 0.00133598 25.5C0.078177 20.8334 0.180707 16.1667 0.31594 11.5C0.336321 5.76404 5.65333 0.960179 11.0447 1.35991C11.0447 1.45328 11.0447 1.54664 11.0447 1.64001C5.78303 1.78065 1.49388 6.58247 1.77328 11.5C1.9085 16.1667 2.01102 20.8334 2.08791 25.5C2.10235 26.2934 2.21937 27.0777 2.43702 27.8336C3.47269 31.6051 7.19448 34.3654 11.0447 34.273C17.475 34.2306 23.9053 34.2382 30.3356 34.3353C41.1203 34.5356 51.9059 34.9428 62.6906 35.0457C73.475 35.1521 84.2601 34.978 95.0447 34.7342C95.045 34.7342 95.0452 34.7342 95.0455 34.7342C99.9706 34.7107 104.156 30.2258 103.942 25.5C103.859 20.8333 103.794 16.1667 103.751 11.5C103.743 10.7286 103.635 9.9651 103.428 9.22784C102.443 5.54836 98.8065 2.83382 95.0447 2.93218C88.614 2.98274 82.1833 3.01535 75.7528 2.99266Z" fill="#002C47"/>
<text id="DNA GLYCOSYLASE_2" fill="white" xml:space="preserve" style="white-space: pre" font-family="Arial" font-size="12" font-weight="bold" letter-spacing="0em"><tspan x="40.0369" y="15.6602">DNA&#10;</tspan><tspan x="8.23804" y="29.6602">GLYCOSYLASE</tspan></text>
</g>
</g>
<defs>
<linearGradient id="paint0_linear_938_23272" x1="53.0447" y1="1.5" x2="53.0447" y2="35.5" gradientUnits="userSpaceOnUse">
<stop stop-color="#002C4A"/>
<stop offset="1" stop-color="#1C89D1"/>
</linearGradient>
</defs>
</svg>
