<svg width="53" height="23" viewBox="0 0 53 23" fill="none" xmlns="http://www.w3.org/2000/svg">
<g id="R-ICO-012509">
<g id="PROTEIN">
<path d="M2 1.5H41C46.5228 1.5 51 5.97715 51 11.5C51 17.0228 46.5228 21.5 41 21.5H2V1.5Z" fill="url(#paint0_linear_938_23143)"/>
<path d="M8.64594 0.0073446C19.4307 0.125569 30.2153 0.477173 41 1.35999C41 1.45336 41 1.54672 41 1.64009C30.2153 2.52291 19.4307 2.87451 8.64594 2.99274C6.43067 3.00826 4.21534 2.99762 2 2.97298L3.47298 1.5C3.43765 4.67719 3.37353 7.85441 3.31648 11.0316C3.26361 14.521 3.16113 18.0105 3.02255 21.5L2 20.4775C3.9027 20.553 5.80541 20.6393 7.70813 20.7341C13.1005 20.9779 18.4934 21.1534 23.8856 21.047C29.278 20.944 34.6708 20.5355 40.0631 20.3352C40.3754 20.3257 40.6877 20.3172 41 20.3094C45.5134 20.2706 49.6171 16.507 49.9061 11.919C49.9171 11.7804 49.9249 11.6407 49.9297 11.5C50.1958 6.7816 46.2515 2.05454 41 1.64009C41 1.54672 41 1.45336 41 1.35999C46.4014 0.686417 52.0631 5.56537 52.0702 11.5C52.075 11.6737 52.0756 11.8467 52.0722 12.019C52.1094 17.7454 46.804 22.9635 41 22.6905C40.6877 22.6828 40.3754 22.6742 40.0631 22.6647C34.6708 22.4644 29.278 22.0572 23.8856 21.9543C18.4933 21.8479 13.1006 22.0221 7.70813 22.2658C5.80542 22.3607 3.90272 22.447 2 22.5225C1.42173 22.5359 0.990877 22.0783 0.977472 21.5C0.838899 18.0105 0.736475 14.521 0.683599 11.0316C0.626555 7.85446 0.562335 4.67722 0.52698 1.5C0.507669 0.666958 1.16696 0.0462906 2 0.0269799C4.21534 0.00232852 6.43068 -0.00828922 8.64594 0.0073446Z" fill="#FF7400"/>
<text id="P" fill="white" xml:space="preserve" style="white-space: pre" font-family="Arial" font-size="12" font-weight="bold" letter-spacing="0em"><tspan x="9.15625" y="15.6602">CARD</tspan></text>
</g>
</g>
<defs>
<linearGradient id="paint0_linear_938_23143" x1="26.5" y1="1.5" x2="26.5" y2="21.5" gradientUnits="userSpaceOnUse">
<stop stop-color="#FF7400"/>
<stop offset="1" stop-color="#7F1600"/>
</linearGradient>
</defs>
</svg>
