<svg width="61" height="23" viewBox="0 0 61 23" fill="none" xmlns="http://www.w3.org/2000/svg">
<g id="R-ICO-014431">
<g id="GNB1,3">
<path d="M1.04102 11.5C1.04102 5.97715 5.51817 1.5 11.041 1.5H49.041C54.5639 1.5 59.041 5.97715 59.041 11.5C59.041 17.0228 54.5639 21.5 49.041 21.5H11.041C5.51817 21.5 1.04102 17.0228 1.04102 11.5Z" fill="url(#paint0_linear_938_24037)"/>
<path d="M45.7494 2.99266C34.1799 2.87443 22.6105 2.52283 11.041 1.64001C11.041 1.54664 11.041 1.45328 11.041 1.35991C22.6105 0.477089 34.1799 0.125486 45.7494 0.00726104C46.8466 9.60827e-05 47.9438 -0.00149322 49.041 0.00129664C54.5083 -0.087358 59.5092 4.32889 60.2063 9.64701C60.2997 10.2607 60.341 10.8812 60.3311 11.5C60.3807 17.5407 54.7678 22.6773 49.0415 22.2659C49.0414 22.2659 49.0412 22.2658 49.041 22.2658C43.2564 22.0221 37.4713 21.8466 31.6868 21.953C25.9021 22.056 20.1169 22.4645 14.3322 22.6648C13.2351 22.6957 12.1381 22.7175 11.041 22.7316C5.69619 22.9002 0.731614 18.538 0.104971 13.3158C0.0205655 12.7134 -0.0125211 12.1053 0.0047003 11.5C0.0208728 5.58511 5.64214 0.723559 11.041 1.35991C11.041 1.45328 11.041 1.54664 11.041 1.64001C5.78691 2.0172 1.80185 6.76159 2.07721 11.5C2.09439 11.9939 2.15027 12.483 2.24441 12.9629C3.00535 17.117 6.90245 20.2803 11.041 20.2685C12.1381 20.2825 13.2351 20.3044 14.3322 20.3353C20.1169 20.5356 25.9021 20.9428 31.6868 21.0457C37.4714 21.1521 43.2564 20.978 49.041 20.7342C49.0412 20.7342 49.0413 20.7342 49.0415 20.7342C53.9681 20.5812 57.9603 16.1121 57.751 11.5C57.7412 11.0199 57.6936 10.5436 57.6085 10.0753C56.9186 6.01682 53.0574 2.90698 49.041 2.99872C47.9438 3.0015 46.8466 2.99987 45.7494 2.99266Z" fill="#003E96"/>
<text id="GNB1,3_2" fill="white" xml:space="preserve" style="white-space: pre" font-family="Arial" font-size="12" font-weight="bold" letter-spacing="0em"><tspan x="8.34961" y="15.6602">GNB1,3</tspan></text>
</g>
</g>
<defs>
<linearGradient id="paint0_linear_938_24037" x1="30.041" y1="1.5" x2="30.041" y2="21.5" gradientUnits="userSpaceOnUse">
<stop stop-color="#FF9985"/>
<stop offset="1" stop-color="#003E96"/>
</linearGradient>
</defs>
</svg>
