<svg width="71" height="71" viewBox="0 0 71 71" fill="none" xmlns="http://www.w3.org/2000/svg">
<g id="R-ICO-013173">
<path id="Vector" opacity="0.5" d="M35.2644 66.7159C52.6346 66.7159 66.7159 52.6346 66.7159 35.2644C66.7159 17.8942 52.6346 3.81287 35.2644 3.81287C17.8942 3.81287 3.81287 17.8942 3.81287 35.2644C3.81287 52.6346 17.8942 66.7159 35.2644 66.7159Z" fill="url(#paint0_radial_938_25714)"/>
<g id="Group">
<path id="Vector_2" d="M8.74939 36.7064L29.7785 22.095" stroke="#5458CE" stroke-miterlimit="10" stroke-linecap="round" stroke-linejoin="round"/>
<path id="Vector_3" d="M60.0189 32.3596L29.7784 22.095" stroke="#5458CE" stroke-miterlimit="10" stroke-linecap="round" stroke-linejoin="round"/>
<path id="Vector_4" d="M30.6491 62.3755L29.7784 22.095" stroke="#5458CE" stroke-miterlimit="10" stroke-linecap="round" stroke-linejoin="round"/>
<path id="Vector_5" d="M34.3857 6.91394L29.7784 22.0949" stroke="#5458CE" stroke-miterlimit="10" stroke-linecap="round" stroke-linejoin="round"/>
<path id="Vector_6" d="M34.3858 6.91394L8.74939 36.7063" stroke="#1D23CE" stroke-width="1.5" stroke-miterlimit="10" stroke-linecap="round" stroke-linejoin="round"/>
<path id="Vector_7" d="M38.0054 47.1128L8.74939 36.7063" stroke="#1D23CE" stroke-width="1.5" stroke-miterlimit="10" stroke-linecap="round" stroke-linejoin="round"/>
<path id="Vector_8" d="M34.3857 6.91394L38.0053 47.1128" stroke="#1D23CE" stroke-width="1.5" stroke-miterlimit="10" stroke-linecap="round" stroke-linejoin="round"/>
<path id="Vector_9" d="M60.019 32.3595L38.0054 47.1128" stroke="#1D23CE" stroke-width="1.5" stroke-miterlimit="10" stroke-linecap="round" stroke-linejoin="round"/>
<path id="Vector_10" d="M34.3857 6.91394L60.0189 32.3595" stroke="#1D23CE" stroke-width="1.5" stroke-miterlimit="10" stroke-linecap="round" stroke-linejoin="round"/>
<path id="Vector_11" d="M8.74939 36.7063L30.6492 62.3754" stroke="#1D23CE" stroke-width="1.5" stroke-miterlimit="10" stroke-linecap="round" stroke-linejoin="round"/>
<path id="Vector_12" d="M38.0054 47.1128L30.6492 62.3754" stroke="#1D23CE" stroke-width="1.5" stroke-miterlimit="10" stroke-linecap="round" stroke-linejoin="round"/>
<path id="Vector_13" d="M30.6492 62.3754L60.019 32.3595" stroke="#1D23CE" stroke-width="1.5" stroke-miterlimit="10" stroke-linecap="round" stroke-linejoin="round"/>
</g>
<path id="Vector_14" opacity="0.5" d="M35.2644 70.5288C54.7404 70.5288 70.5288 54.7404 70.5288 35.2644C70.5288 15.7884 54.7404 0 35.2644 0C15.7884 0 0 15.7884 0 35.2644C0 54.7404 15.7884 70.5288 35.2644 70.5288Z" fill="url(#paint1_radial_938_25714)"/>
</g>
<defs>
<radialGradient id="paint0_radial_938_25714" cx="0" cy="0" r="1" gradientUnits="userSpaceOnUse" gradientTransform="translate(28.1934 26.5301) rotate(-10.7312) scale(31.3677)">
<stop stop-color="#D8BAE7"/>
<stop offset="1" stop-color="#1D7BCE"/>
</radialGradient>
<radialGradient id="paint1_radial_938_25714" cx="0" cy="0" r="1" gradientUnits="userSpaceOnUse" gradientTransform="translate(27.3363 25.4713) rotate(-10.7312) scale(35.1705)">
<stop stop-color="#D8BAE7"/>
<stop offset="1" stop-color="#931DCE"/>
</radialGradient>
</defs>
</svg>
