<svg width="104" height="37" viewBox="0 0 104 37" fill="none" xmlns="http://www.w3.org/2000/svg">
<g id="R-ICO-014156">
<g id="DESTRUCTION COMPLEX">
<path d="M1.05566 11.5C1.05566 5.97715 5.53282 1.5 11.0557 1.5H92.0557C97.5785 1.5 102.056 5.97715 102.056 11.5V25.5C102.056 31.0228 97.5785 35.5 92.0557 35.5H11.0557C5.53281 35.5 1.05566 31.0228 1.05566 25.5V11.5Z" fill="url(#paint0_linear_938_23882)"/>
<path d="M74.2638 2.99266C53.1944 2.87443 32.1251 2.52283 11.0557 1.64001C11.0557 1.54664 11.0557 1.45328 11.0557 1.35991C32.1251 0.477089 53.1944 0.125486 74.2638 0.00726104C80.1943 -0.0140047 86.125 0.0138466 92.0557 0.0595263C97.3854 0.00211954 102.309 4.17204 103.171 9.3684C103.301 10.0721 103.362 10.7873 103.356 11.5C103.314 16.1667 103.249 20.8333 103.165 25.5C103.209 31.4305 97.7841 36.5508 92.0566 36.2659C92.0563 36.2659 92.056 36.2658 92.0557 36.2658C81.5213 36.0221 70.9858 35.8466 60.4516 35.953C49.9169 36.056 39.3813 36.4645 28.8466 36.6648C22.9163 36.7565 16.986 36.7684 11.0557 36.7337C5.82081 36.8004 0.984549 32.6837 0.168224 27.5891C0.0459121 26.8987 -0.00946605 26.1978 0.000908017 25.5C0.0769421 20.8334 0.179528 16.1667 0.316193 11.5C0.337914 5.75785 5.66431 0.953716 11.0557 1.35991C11.0557 1.45328 11.0557 1.54664 11.0557 1.64001C5.79403 1.78711 1.51426 6.58866 1.795 11.5C1.93165 16.1667 2.03423 20.8334 2.11031 25.5C2.12058 26.0673 2.1833 26.631 2.29813 27.1826C3.08292 31.2511 6.98182 34.3696 11.0557 34.2664C16.9859 34.2317 22.9163 34.2436 28.8466 34.3353C39.3813 34.5356 49.9169 34.9428 60.4516 35.0457C70.986 35.1521 81.5211 34.978 92.0557 34.7342C92.0559 34.7342 92.0562 34.7342 92.0565 34.7342C96.9816 34.7073 101.162 30.222 100.946 25.5C100.863 20.8333 100.798 16.1667 100.755 11.5C100.75 10.9482 100.693 10.3994 100.585 9.86172C99.8474 5.89431 96.0354 2.82781 92.0557 2.94048C86.125 2.98621 80.1943 3.01408 74.2638 2.99266Z" fill="#870F2F"/>
<text id="DESTRUCTION COMPLEX_2" fill="white" xml:space="preserve" style="white-space: pre" font-family="Arial" font-size="12" font-weight="bold" letter-spacing="0em"><tspan x="8.19629" y="15.6602">DESTRUCTION&#10;</tspan><tspan x="21.8779" y="29.6602">COMPLEX</tspan></text>
</g>
</g>
<defs>
<linearGradient id="paint0_linear_938_23882" x1="51.5557" y1="1.5" x2="51.5557" y2="35.5" gradientUnits="userSpaceOnUse">
<stop stop-color="#FF00EE"/>
<stop offset="1" stop-color="#870F2F"/>
</linearGradient>
</defs>
</svg>
