<svg width="47" height="48" viewBox="0 0 47 48" fill="none" xmlns="http://www.w3.org/2000/svg">
<g id="R-ICO-012447">
<g id="ARAF,&#226;&#128;&#168;BRAF,&#226;&#128;&#168;RAF1">
<path d="M1.25195 11.2205C1.25195 5.69761 5.72911 1.22046 11.252 1.22046H35.252C40.7748 1.22046 45.252 5.69761 45.252 11.2205V37.2205C45.252 42.7433 40.7748 47.2205 35.252 47.2205H11.252C5.72911 47.2205 1.25195 42.7433 1.25195 37.2205V11.2205Z" fill="#A18536"/>
<path d="M43.7593 12.2202C43.7622 11.8869 43.7652 11.5537 43.7684 11.2205C43.929 6.6966 39.9345 2.46796 35.252 2.429C27.252 2.21677 19.252 1.88094 11.252 1.36046C11.252 1.2671 11.252 1.17373 11.252 1.08037C19.252 0.559889 27.252 0.224054 35.252 0.0118275C41.2226 -0.286165 46.834 5.09102 46.7356 11.2205C46.7387 11.5537 46.7418 11.8869 46.7447 12.2202C46.7825 19.0049 46.6653 25.79 46.5684 32.5749C46.5498 34.1234 46.525 35.6719 46.4946 37.2205C46.5322 43.2308 40.9788 48.3557 35.2526 47.9863C35.2524 47.9863 35.2522 47.9863 35.252 47.9863C28.4674 47.7426 21.6822 47.5671 14.8978 47.6734C13.6825 47.6919 12.4673 47.7201 11.252 47.7552C5.67761 48.065 0.1711 43.1877 0.118115 37.2205C0.107324 36.887 0.0969754 36.5536 0.0871294 36.2202C-0.0757087 29.4357 0.0131485 22.6512 0.167742 15.8666C0.203286 14.3179 0.245611 12.7692 0.295744 11.2205C0.324096 5.35244 5.85711 0.51942 11.252 1.08037C11.252 1.17373 11.252 1.2671 11.252 1.36046C5.99384 1.66227 1.92056 6.43507 2.20802 11.2205C2.25816 12.7692 2.3005 14.3179 2.33608 15.8666C2.49067 22.6511 2.57953 29.4356 2.41669 36.2202C2.40685 36.5536 2.3965 36.887 2.38572 37.2205C2.07376 41.9064 6.17386 46.6342 11.252 46.6845C12.4672 46.7196 13.6825 46.7478 14.8978 46.7662C21.6823 46.8725 28.4673 46.6984 35.252 46.4547C35.2521 46.4547 35.2523 46.4547 35.2525 46.4547C40.1791 46.3436 44.2307 41.8629 44.0094 37.2205C43.979 35.6719 43.9542 34.1234 43.9356 32.5749C43.8387 25.7902 43.7212 19.0049 43.7593 12.2202Z" fill="url(#paint0_linear_938_23963)"/>
<text id="SET, SET" fill="white" xml:space="preserve" style="white-space: pre" font-family="Arial" font-size="12" font-weight="bold" letter-spacing="0em"><tspan x="5.57422" y="14.3806">ARAF,&#x2028;</tspan><tspan x="5.57422" y="28.3806">BRAF,&#x2028;</tspan><tspan x="7.57227" y="42.3806">RAF1</tspan></text>
</g>
</g>
<defs>
<linearGradient id="paint0_linear_938_23963" x1="32.9307" y1="47.4805" x2="32.9307" y2="1.22046" gradientUnits="userSpaceOnUse">
<stop stop-color="#A18536"/>
<stop offset="1" stop-color="#002B4C"/>
</linearGradient>
</defs>
</svg>
