<svg width="34" height="24" viewBox="0 0 34 24" fill="none" xmlns="http://www.w3.org/2000/svg">
<g id="R-ICO-012398">
<g id="Adenosine monophosphate">
<g id="Rectangle 2">
<mask id="path-1-outside-1_938_24624" maskUnits="userSpaceOnUse" x="8.37939" y="0" width="18" height="24" fill="black">
<rect fill="white" x="8.37939" width="18" height="24"/>
<path d="M8.37939 2H25.6203V22H8.37939V2Z"/>
</mask>
<path d="M8.37939 2H25.6203V22H8.37939V2Z" fill="url(#paint0_linear_938_24624)"/>
<path d="M8.37939 2V4H25.6203V2V0H8.37939V2ZM25.6203 22V20H8.37939V22V24H25.6203V22Z" fill="#00A5B1" mask="url(#path-1-outside-1_938_24624)"/>
</g>
<g id="LEFT CORNER">
<mask id="mask0_938_24624" style="mask-type:luminance" maskUnits="userSpaceOnUse" x="0" y="0" width="10" height="24">
<rect id="MASK" width="10" height="24" transform="matrix(-1 8.74228e-08 8.74228e-08 1 10 0)" fill="white"/>
</mask>
<g mask="url(#mask0_938_24624)">
<g id="CORNER">
<mask id="path-4-outside-2_938_24624" maskUnits="userSpaceOnUse" x="-1.74846e-07" y="-9.61651e-07" width="13" height="24" fill="black">
<rect fill="white" x="-1.74846e-07" y="-9.61651e-07" width="13" height="24"/>
<path d="M8 22L2 16L2 8L8 2L11 2L11 22L8 22Z"/>
</mask>
<path d="M8 22L2 16L2 8L8 2L11 2L11 22L8 22Z" fill="url(#paint1_linear_938_24624)"/>
<path d="M8 22L2 16L2 8L8 2L11 2L11 22L8 22Z" stroke="#00A5B1" stroke-width="4" stroke-miterlimit="3.99933" stroke-linejoin="round" mask="url(#path-4-outside-2_938_24624)"/>
</g>
</g>
</g>
<g id="RIGHT CORNER">
<mask id="mask1_938_24624" style="mask-type:luminance" maskUnits="userSpaceOnUse" x="24" y="0" width="10" height="24">
<rect id="MASK_2" x="24.1558" width="9.84445" height="24" fill="white"/>
</mask>
<g mask="url(#mask1_938_24624)">
<g id="CORNER_2">
<mask id="path-6-outside-3_938_24624" maskUnits="userSpaceOnUse" x="21" y="-7.76718e-07" width="13" height="24" fill="black">
<rect fill="white" x="21" y="-7.76718e-07" width="13" height="24"/>
<path d="M26 22L32 16L32 8L26 2L23 2L23 22L26 22Z"/>
</mask>
<path d="M26 22L32 16L32 8L26 2L23 2L23 22L26 22Z" fill="url(#paint2_linear_938_24624)"/>
<path d="M26 22L32 16L32 8L26 2L23 2L23 22L26 22Z" stroke="#00A5B1" stroke-width="4" stroke-miterlimit="3.99933" stroke-linejoin="round" mask="url(#path-6-outside-3_938_24624)"/>
</g>
</g>
</g>
<text id="Ch" fill="white" xml:space="preserve" style="white-space: pre" font-family="Arial" font-size="12" font-weight="bold" letter-spacing="0em"><tspan x="3.71275" y="16.1602">AMP</tspan></text>
</g>
</g>
<defs>
<linearGradient id="paint0_linear_938_24624" x1="16.1917" y1="22" x2="16.1917" y2="2" gradientUnits="userSpaceOnUse">
<stop stop-color="#00A5B1"/>
<stop offset="1" stop-color="#2757D8"/>
</linearGradient>
<linearGradient id="paint1_linear_938_24624" x1="6.07812" y1="22" x2="6.07812" y2="2" gradientUnits="userSpaceOnUse">
<stop stop-color="#00A5B1"/>
<stop offset="1" stop-color="#2757D8"/>
</linearGradient>
<linearGradient id="paint2_linear_938_24624" x1="27.9219" y1="22" x2="27.9219" y2="2" gradientUnits="userSpaceOnUse">
<stop stop-color="#00A5B1"/>
<stop offset="1" stop-color="#2757D8"/>
</linearGradient>
</defs>
</svg>
