<svg width="37" height="105" viewBox="0 0 37 105" fill="none" xmlns="http://www.w3.org/2000/svg">
<g id="R-ICO-014763">
<g id="Group">
<path id="Vector" d="M28.386 96.4553C25.6243 96.4553 23.386 94.217 23.386 91.4553V65.4121C23.386 62.6504 25.6243 60.4121 28.386 60.4121C31.1477 60.4121 33.386 62.6504 33.386 65.4121V91.4553C33.386 94.217 31.1477 96.4553 28.386 96.4553Z" fill="url(#paint0_linear_938_23128)"/>
<path id="Vector_2" d="M28.3863 104.84C33.0172 104.84 36.7713 101.086 36.7713 96.4553C36.7713 91.8244 33.0172 88.0703 28.3863 88.0703C23.7554 88.0703 20.0013 91.8244 20.0013 96.4553C20.0013 101.086 23.7554 104.84 28.3863 104.84Z" fill="url(#paint1_radial_938_23128)"/>
<path id="Vector_3" d="M28.3863 68.7969C33.0172 68.7969 36.7713 65.0428 36.7713 60.4119C36.7713 55.7809 33.0172 52.0269 28.3863 52.0269C23.7554 52.0269 20.0013 55.7809 20.0013 60.4119C20.0013 65.0428 23.7554 68.7969 28.3863 68.7969Z" fill="url(#paint2_radial_938_23128)"/>
<path id="Vector_4" d="M28.3863 55.79C33.0172 55.79 36.7713 52.0359 36.7713 47.405C36.7713 42.7741 33.0172 39.02 28.3863 39.02C23.7554 39.02 20.0013 42.7741 20.0013 47.405C20.0013 52.0359 23.7554 55.79 28.3863 55.79Z" fill="url(#paint3_radial_938_23128)"/>
<path id="Vector_5" d="M28.3863 42.7832C33.0172 42.7832 36.7713 39.0291 36.7713 34.3982C36.7713 29.7673 33.0172 26.0132 28.3863 26.0132C23.7554 26.0132 20.0013 29.7673 20.0013 34.3982C20.0013 39.0291 23.7554 42.7832 28.3863 42.7832Z" fill="url(#paint4_radial_938_23128)"/>
<path id="Vector_6" d="M28.3863 29.7768C33.0172 29.7768 36.7713 26.0227 36.7713 21.3918C36.7713 16.7609 33.0172 13.0068 28.3863 13.0068C23.7554 13.0068 20.0013 16.7609 20.0013 21.3918C20.0013 26.0227 23.7554 29.7768 28.3863 29.7768Z" fill="url(#paint5_radial_938_23128)"/>
<path id="Vector_7" d="M28.3863 16.77C33.0172 16.77 36.7713 13.0159 36.7713 8.385C36.7713 3.75409 33.0172 0 28.3863 0C23.7554 0 20.0013 3.75409 20.0013 8.385C20.0013 13.0159 23.7554 16.77 28.3863 16.77Z" fill="url(#paint6_radial_938_23128)"/>
</g>
<g id="Group_2">
<path id="Vector_8" d="M8.3848 96.4553C5.6231 96.4553 3.3848 94.217 3.3848 91.4553V65.4121C3.3848 62.6504 5.6231 60.4121 8.3848 60.4121C11.1465 60.4121 13.3848 62.6504 13.3848 65.4121V91.4553C13.3848 94.217 11.1465 96.4553 8.3848 96.4553Z" fill="url(#paint7_linear_938_23128)"/>
<path id="Vector_9" d="M8.385 104.84C13.0159 104.84 16.77 101.086 16.77 96.4553C16.77 91.8244 13.0159 88.0703 8.385 88.0703C3.75409 88.0703 0 91.8244 0 96.4553C0 101.086 3.75409 104.84 8.385 104.84Z" fill="url(#paint8_radial_938_23128)"/>
<path id="Vector_10" d="M8.385 68.7969C13.0159 68.7969 16.77 65.0428 16.77 60.4119C16.77 55.7809 13.0159 52.0269 8.385 52.0269C3.75409 52.0269 0 55.7809 0 60.4119C0 65.0428 3.75409 68.7969 8.385 68.7969Z" fill="url(#paint9_radial_938_23128)"/>
<path id="Vector_11" d="M8.385 55.79C13.0159 55.79 16.77 52.0359 16.77 47.405C16.77 42.7741 13.0159 39.02 8.385 39.02C3.75409 39.02 0 42.7741 0 47.405C0 52.0359 3.75409 55.79 8.385 55.79Z" fill="url(#paint10_radial_938_23128)"/>
<path id="Vector_12" d="M8.385 42.7832C13.0159 42.7832 16.77 39.0291 16.77 34.3982C16.77 29.7673 13.0159 26.0132 8.385 26.0132C3.75409 26.0132 0 29.7673 0 34.3982C0 39.0291 3.75409 42.7832 8.385 42.7832Z" fill="url(#paint11_radial_938_23128)"/>
<path id="Vector_13" d="M8.385 29.7768C13.0159 29.7768 16.77 26.0227 16.77 21.3918C16.77 16.7609 13.0159 13.0068 8.385 13.0068C3.75409 13.0068 0 16.7609 0 21.3918C0 26.0227 3.75409 29.7768 8.385 29.7768Z" fill="url(#paint12_radial_938_23128)"/>
<path id="Vector_14" d="M8.385 16.77C13.0159 16.77 16.77 13.0159 16.77 8.385C16.77 3.75409 13.0159 0 8.385 0C3.75409 0 0 3.75409 0 8.385C0 13.0159 3.75409 16.77 8.385 16.77Z" fill="url(#paint13_radial_938_23128)"/>
</g>
</g>
<defs>
<linearGradient id="paint0_linear_938_23128" x1="23.3861" y1="78.4337" x2="33.3861" y2="78.4337" gradientUnits="userSpaceOnUse">
<stop stop-color="#4D1E65"/>
<stop offset="0.0323" stop-color="#5E257B"/>
<stop offset="0.0825" stop-color="#742D98"/>
<stop offset="0.1328" stop-color="#8433AC"/>
<stop offset="0.1828" stop-color="#8D37B8"/>
<stop offset="0.2322" stop-color="#9038BC"/>
<stop offset="1" stop-color="#4D1E65"/>
</linearGradient>
<radialGradient id="paint1_radial_938_23128" cx="0" cy="0" r="1" gradientUnits="userSpaceOnUse" gradientTransform="translate(25.7197 93.1219) scale(8.385)">
<stop stop-color="#9038BC"/>
<stop offset="1" stop-color="#4D1E65"/>
</radialGradient>
<radialGradient id="paint2_radial_938_23128" cx="0" cy="0" r="1" gradientUnits="userSpaceOnUse" gradientTransform="translate(25.7197 57.0785) scale(8.385 8.385)">
<stop stop-color="#9038BC"/>
<stop offset="1" stop-color="#4D1E65"/>
</radialGradient>
<radialGradient id="paint3_radial_938_23128" cx="0" cy="0" r="1" gradientUnits="userSpaceOnUse" gradientTransform="translate(25.7197 44.0716) scale(8.385 8.385)">
<stop stop-color="#9038BC"/>
<stop offset="1" stop-color="#4D1E65"/>
</radialGradient>
<radialGradient id="paint4_radial_938_23128" cx="0" cy="0" r="1" gradientUnits="userSpaceOnUse" gradientTransform="translate(25.7197 31.0649) scale(8.385)">
<stop stop-color="#9038BC"/>
<stop offset="1" stop-color="#4D1E65"/>
</radialGradient>
<radialGradient id="paint5_radial_938_23128" cx="0" cy="0" r="1" gradientUnits="userSpaceOnUse" gradientTransform="translate(25.7197 18.0585) scale(8.385 8.385)">
<stop stop-color="#9038BC"/>
<stop offset="1" stop-color="#4D1E65"/>
</radialGradient>
<radialGradient id="paint6_radial_938_23128" cx="0" cy="0" r="1" gradientUnits="userSpaceOnUse" gradientTransform="translate(25.7197 5.0517) scale(8.385 8.385)">
<stop stop-color="#9038BC"/>
<stop offset="1" stop-color="#4D1E65"/>
</radialGradient>
<linearGradient id="paint7_linear_938_23128" x1="3.3848" y1="78.4337" x2="13.3848" y2="78.4337" gradientUnits="userSpaceOnUse">
<stop stop-color="#4D1E65"/>
<stop offset="0.0323" stop-color="#5E257B"/>
<stop offset="0.0825" stop-color="#742D98"/>
<stop offset="0.1328" stop-color="#8433AC"/>
<stop offset="0.1828" stop-color="#8D37B8"/>
<stop offset="0.2322" stop-color="#9038BC"/>
<stop offset="1" stop-color="#4D1E65"/>
</linearGradient>
<radialGradient id="paint8_radial_938_23128" cx="0" cy="0" r="1" gradientUnits="userSpaceOnUse" gradientTransform="translate(5.7184 93.1219) scale(8.385 8.385)">
<stop stop-color="#9038BC"/>
<stop offset="1" stop-color="#4D1E65"/>
</radialGradient>
<radialGradient id="paint9_radial_938_23128" cx="0" cy="0" r="1" gradientUnits="userSpaceOnUse" gradientTransform="translate(5.7184 57.0785) scale(8.385)">
<stop stop-color="#9038BC"/>
<stop offset="1" stop-color="#4D1E65"/>
</radialGradient>
<radialGradient id="paint10_radial_938_23128" cx="0" cy="0" r="1" gradientUnits="userSpaceOnUse" gradientTransform="translate(5.7184 44.0716) scale(8.385 8.385)">
<stop stop-color="#9038BC"/>
<stop offset="1" stop-color="#4D1E65"/>
</radialGradient>
<radialGradient id="paint11_radial_938_23128" cx="0" cy="0" r="1" gradientUnits="userSpaceOnUse" gradientTransform="translate(5.7184 31.0649) scale(8.385 8.385)">
<stop stop-color="#9038BC"/>
<stop offset="1" stop-color="#4D1E65"/>
</radialGradient>
<radialGradient id="paint12_radial_938_23128" cx="0" cy="0" r="1" gradientUnits="userSpaceOnUse" gradientTransform="translate(5.7184 18.0585) scale(8.385 8.385)">
<stop stop-color="#9038BC"/>
<stop offset="1" stop-color="#4D1E65"/>
</radialGradient>
<radialGradient id="paint13_radial_938_23128" cx="0" cy="0" r="1" gradientUnits="userSpaceOnUse" gradientTransform="translate(5.7184 5.0517) scale(8.385 8.385)">
<stop stop-color="#9038BC"/>
<stop offset="1" stop-color="#4D1E65"/>
</radialGradient>
</defs>
</svg>
