<svg width="48" height="23" viewBox="0 0 48 23" fill="none" xmlns="http://www.w3.org/2000/svg">
<g id="R-ICO-014629">
<g id="TUT7">
<path d="M1.14359 11.4443C1.14359 5.92149 5.62074 1.44434 11.1436 1.44434H36.1436C41.6664 1.44434 46.1436 5.92149 46.1436 11.4443C46.1436 16.9672 41.6664 21.4443 36.1436 21.4443H11.1436C5.62074 21.4443 1.14359 16.9672 1.14359 11.4443Z" fill="url(#paint0_linear_938_24125)"/>
<path d="M38.8277 3.36866C37.9693 3.06914 37.0634 2.90686 36.1436 2.88716C27.8102 2.73191 19.4769 2.36675 11.1436 1.58434C11.1436 1.49098 11.1436 1.39761 11.1436 1.30425C19.4769 0.521836 27.8102 0.156676 36.1436 0.00143266C37.3659 -0.0190557 38.5965 0.15969 39.7688 0.53548C44.3897 1.97252 47.6621 6.68592 47.4936 11.4443C47.4824 12.0509 47.4232 12.6556 47.3164 13.2512C46.469 18.5932 41.2571 22.6015 36.144 22.2102C36.1439 22.2102 36.1437 22.2102 36.1436 22.2102C31.4423 21.9665 26.7406 21.791 22.0394 21.8973C18.4076 21.9769 14.7755 22.2387 11.1436 22.4461C9.96755 22.5078 8.77051 22.3761 7.6213 22.0419C3.09111 20.761 -0.200003 16.1175 0.00945389 11.4443C0.0250298 10.8492 0.0887207 10.2569 0.200027 9.67476C1.09524 4.44902 6.31922 0.667575 11.1436 1.30425C11.1436 1.39761 11.1436 1.49098 11.1436 1.58434C6.45515 2.03882 2.79625 5.83223 2.34094 10.0185C2.28279 10.4915 2.26201 10.9681 2.27763 11.4443C2.36435 15.1699 4.89504 18.5596 8.35576 19.8311C9.23752 20.1723 10.1772 20.3817 11.1436 20.4424C14.7755 20.6495 18.4076 20.9105 22.0394 20.9901C26.7407 21.0964 31.4422 20.9223 36.1436 20.6786C36.1437 20.6786 36.1438 20.6786 36.144 20.6786C40.5433 20.4688 44.2132 16.9031 44.7168 12.8337C44.7795 12.3739 44.8049 11.9093 44.7936 11.4443C44.7479 7.80374 42.1978 4.48381 38.8277 3.36866Z" fill="#A4E04E"/>
<text id="TUT7_2" fill="white" xml:space="preserve" style="white-space: pre" font-family="Arial" font-size="12" font-weight="bold" letter-spacing="0em"><tspan x="8.63187" y="15.6045">TUT7</tspan></text>
</g>
</g>
<defs>
<linearGradient id="paint0_linear_938_24125" x1="23.6436" y1="1.44434" x2="23.6436" y2="21.4443" gradientUnits="userSpaceOnUse">
<stop stop-color="#A4E04E"/>
<stop offset="1" stop-color="#C07BAE"/>
</linearGradient>
</defs>
</svg>
