<svg width="17" height="107" viewBox="0 0 17 107" fill="none" xmlns="http://www.w3.org/2000/svg">
<g id="R-ICO-014341">
<path id="HD" d="M8.0681 97.4033H3.6084V106.691H8.0681V97.4033Z" fill="url(#paint0_linear_938_24437)"/>
<g id="LNR">
<g id="Group">
<path id="Vector" d="M14.1367 83.9867H2C0.8954 83.9867 0 83.0913 0 81.9867V79.2783C0 78.1737 0.8954 77.2783 2 77.2783H14.1367C15.2413 77.2783 16.1367 78.1737 16.1367 79.2783V81.9867C16.1367 83.0913 15.2413 83.9867 14.1367 83.9867Z" fill="url(#paint1_linear_938_24437)"/>
<path id="Vector_2" d="M14.1367 83.9867H2C0.8954 83.9867 0 83.0913 0 81.9867V79.2783C0 78.1737 0.8954 77.2783 2 77.2783H14.1367C15.2413 77.2783 16.1367 78.1737 16.1367 79.2783V81.9867C16.1367 83.0913 15.2413 83.9867 14.1367 83.9867Z" fill="url(#paint2_linear_938_24437)"/>
</g>
<g id="Group_2">
<path id="Vector_3" d="M14.1367 90.6952H2C0.8954 90.6952 0 89.7998 0 88.6952V85.9868C0 84.8822 0.8954 83.9868 2 83.9868H14.1367C15.2413 83.9868 16.1367 84.8822 16.1367 85.9868V88.6952C16.1367 89.7998 15.2413 90.6952 14.1367 90.6952Z" fill="url(#paint3_linear_938_24437)"/>
<path id="Vector_4" d="M14.1367 90.6952H2C0.8954 90.6952 0 89.7998 0 88.6952V85.9868C0 84.8822 0.8954 83.9868 2 83.9868H14.1367C15.2413 83.9868 16.1367 84.8822 16.1367 85.9868V88.6952C16.1367 89.7998 15.2413 90.6952 14.1367 90.6952Z" fill="url(#paint4_linear_938_24437)"/>
</g>
<g id="Group_3">
<path id="Vector_5" d="M14.1367 97.4035H2C0.8954 97.4035 0 96.5081 0 95.4035V92.6951C0 91.5905 0.8954 90.6951 2 90.6951H14.1367C15.2413 90.6951 16.1367 91.5905 16.1367 92.6951V95.4035C16.1367 96.508 15.2413 97.4035 14.1367 97.4035Z" fill="url(#paint5_linear_938_24437)"/>
<path id="Vector_6" d="M14.1367 97.4035H2C0.8954 97.4035 0 96.5081 0 95.4035V92.6951C0 91.5905 0.8954 90.6951 2 90.6951H14.1367C15.2413 90.6951 16.1367 91.5905 16.1367 92.6951V95.4035C16.1367 96.508 15.2413 97.4035 14.1367 97.4035Z" fill="url(#paint6_linear_938_24437)"/>
</g>
</g>
<g id="EGFR">
<g id="BASES">
<path id="Vector_7" d="M14.1367 77.2783H2C0.8954 77.2783 0 76.3829 0 75.2783V32.9114C0 31.8068 0.8954 30.9114 2 30.9114H14.1367C15.2413 30.9114 16.1367 31.8068 16.1367 32.9114V75.2783C16.1367 76.3829 15.2413 77.2783 14.1367 77.2783Z" fill="url(#paint7_linear_938_24437)"/>
<path id="Vector_8" d="M14.1367 30.9113H2C0.8954 30.9113 0 30.0159 0 28.9113V17.4556C0 16.351 0.8954 15.4556 2 15.4556H14.1367C15.2413 15.4556 16.1367 16.351 16.1367 17.4556V28.9112C16.1367 30.0159 15.2413 30.9113 14.1367 30.9113Z" fill="url(#paint8_linear_938_24437)"/>
<path id="Vector_9" d="M14.1367 15.4556H2C0.8954 15.4556 0 14.5602 0 13.4556V9.72778C0 8.62318 0.8954 7.72778 2 7.72778H14.1367C15.2413 7.72778 16.1367 8.62318 16.1367 9.72778V13.4556C16.1367 14.5602 15.2413 15.4556 14.1367 15.4556Z" fill="url(#paint9_linear_938_24437)"/>
<path id="Vector_10" d="M14.1367 7.7278H2C0.8954 7.7278 0 6.8324 0 5.7278V2C0 0.8954 0.8954 0 2 0H14.1367C15.2413 0 16.1367 0.8954 16.1367 2V5.7278C16.1367 6.8324 15.2413 7.7278 14.1367 7.7278Z" fill="url(#paint10_linear_938_24437)"/>
</g>
<g id="SHINE SHADE">
<path id="Vector_11" d="M14.1367 77.2783H2C0.8954 77.2783 0 76.3829 0 75.2783V32.9114C0 31.8068 0.8954 30.9114 2 30.9114H14.1367C15.2413 30.9114 16.1367 31.8068 16.1367 32.9114V75.2783C16.1367 76.3829 15.2413 77.2783 14.1367 77.2783Z" fill="url(#paint11_linear_938_24437)"/>
<path id="Vector_12" d="M14.1367 30.9113H2C0.8954 30.9113 0 30.0159 0 28.9113V17.4556C0 16.351 0.8954 15.4556 2 15.4556H14.1367C15.2413 15.4556 16.1367 16.351 16.1367 17.4556V28.9112C16.1367 30.0159 15.2413 30.9113 14.1367 30.9113Z" fill="url(#paint12_linear_938_24437)"/>
<path id="Vector_13" d="M14.1367 15.4556H2C0.8954 15.4556 0 14.5602 0 13.4556V9.72778C0 8.62318 0.8954 7.72778 2 7.72778H14.1367C15.2413 7.72778 16.1367 8.62318 16.1367 9.72778V13.4556C16.1367 14.5602 15.2413 15.4556 14.1367 15.4556Z" fill="url(#paint13_linear_938_24437)"/>
<path id="Vector_14" d="M14.1367 7.7278H2C0.8954 7.7278 0 6.8324 0 5.7278V2C0 0.8954 0.8954 0 2 0H14.1367C15.2413 0 16.1367 0.8954 16.1367 2V5.7278C16.1367 6.8324 15.2413 7.7278 14.1367 7.7278Z" fill="url(#paint14_linear_938_24437)"/>
</g>
<g id="LINES">
<path id="Vector_15" d="M0 23.1836H16.1367" stroke="#FFD092" stroke-miterlimit="10"/>
<path id="Vector_16" d="M0 38.6392H16.1367" stroke="#91D2FF" stroke-miterlimit="10"/>
<path id="Vector_17" d="M0 46.3669H16.1367" stroke="#91D2FF" stroke-miterlimit="10"/>
<path id="Vector_18" d="M0 54.095H16.1367" stroke="#91D2FF" stroke-miterlimit="10"/>
<path id="Vector_19" d="M0 61.8228H16.1367" stroke="#91D2FF" stroke-miterlimit="10"/>
<path id="Vector_20" d="M0 69.5505H16.1367" stroke="#91D2FF" stroke-miterlimit="10"/>
</g>
<g id="SHADES">
<path id="BOTTOM SHADE" d="M14.1367 77.2783H2C0.8954 77.2783 0 76.3829 0 75.2783V32.9114C0 31.8068 0.8954 30.9114 2 30.9114H14.1367C15.2413 30.9114 16.1367 31.8068 16.1367 32.9114V75.2783C16.1367 76.3829 15.2413 77.2783 14.1367 77.2783Z" fill="url(#paint15_linear_938_24437)"/>
<path id="BOTTOM SHADE_2" d="M14.1367 30.9113H2C0.8954 30.9113 0 30.0159 0 28.9113V17.4556C0 16.351 0.8954 15.4556 2 15.4556H14.1367C15.2413 15.4556 16.1367 16.351 16.1367 17.4556V28.9112C16.1367 30.0159 15.2413 30.9113 14.1367 30.9113Z" fill="url(#paint16_linear_938_24437)"/>
<path id="BOTTOM SHADE_3" d="M14.1367 15.4556H2C0.8954 15.4556 0 14.5602 0 13.4556V9.72778C0 8.62318 0.8954 7.72778 2 7.72778H14.1367C15.2413 7.72778 16.1367 8.62318 16.1367 9.72778V13.4556C16.1367 14.5602 15.2413 15.4556 14.1367 15.4556Z" fill="url(#paint17_linear_938_24437)"/>
<path id="BOTTOM SHADE_4" d="M14.1367 7.7278H2C0.8954 7.7278 0 6.8324 0 5.7278V2C0 0.8954 0.8954 0 2 0H14.1367C15.2413 0 16.1367 0.8954 16.1367 2V5.7278C16.1367 6.8324 15.2413 7.7278 14.1367 7.7278Z" fill="url(#paint18_linear_938_24437)"/>
</g>
</g>
</g>
<defs>
<linearGradient id="paint0_linear_938_24437" x1="3.5857" y1="102.036" x2="8.0909" y2="102.058" gradientUnits="userSpaceOnUse">
<stop stop-color="#476CC8"/>
<stop offset="0.2487" stop-color="#466AC5"/>
<stop offset="0.4522" stop-color="#4265BB"/>
<stop offset="0.6397" stop-color="#3C5CA9"/>
<stop offset="0.8177" stop-color="#344F91"/>
<stop offset="0.9874" stop-color="#293E73"/>
<stop offset="1" stop-color="#283D70"/>
</linearGradient>
<linearGradient id="paint1_linear_938_24437" x1="0" y1="80.6324" x2="16.1367" y2="80.6324" gradientUnits="userSpaceOnUse">
<stop stop-color="#48B9CC"/>
<stop offset="0.1985" stop-color="#ADEAF5"/>
<stop offset="0.4998" stop-color="#47B5C8"/>
<stop offset="1" stop-color="#235A63"/>
</linearGradient>
<linearGradient id="paint2_linear_938_24437" x1="8.0683" y1="77.2783" x2="8.0683" y2="83.9866" gradientUnits="userSpaceOnUse">
<stop offset="0.3658" stop-color="#47B5C8" stop-opacity="0"/>
<stop offset="0.4782" stop-color="#45B1C3" stop-opacity="0.1772"/>
<stop offset="0.6116" stop-color="#40A4B5" stop-opacity="0.3875"/>
<stop offset="0.7556" stop-color="#388E9D" stop-opacity="0.6146"/>
<stop offset="0.9061" stop-color="#2C707C" stop-opacity="0.8519"/>
<stop offset="1" stop-color="#235A63"/>
</linearGradient>
<linearGradient id="paint3_linear_938_24437" x1="0" y1="87.3409" x2="16.1367" y2="87.3409" gradientUnits="userSpaceOnUse">
<stop stop-color="#48B9CC"/>
<stop offset="0.1985" stop-color="#ADEAF5"/>
<stop offset="0.4998" stop-color="#47B5C8"/>
<stop offset="1" stop-color="#235A63"/>
</linearGradient>
<linearGradient id="paint4_linear_938_24437" x1="8.0683" y1="83.9868" x2="8.0683" y2="90.6951" gradientUnits="userSpaceOnUse">
<stop offset="0.3658" stop-color="#47B5C8" stop-opacity="0"/>
<stop offset="0.4782" stop-color="#45B1C3" stop-opacity="0.1772"/>
<stop offset="0.6116" stop-color="#40A4B5" stop-opacity="0.3875"/>
<stop offset="0.7556" stop-color="#388E9D" stop-opacity="0.6146"/>
<stop offset="0.9061" stop-color="#2C707C" stop-opacity="0.8519"/>
<stop offset="1" stop-color="#235A63"/>
</linearGradient>
<linearGradient id="paint5_linear_938_24437" x1="0" y1="94.0492" x2="16.1367" y2="94.0492" gradientUnits="userSpaceOnUse">
<stop stop-color="#48B9CC"/>
<stop offset="0.1985" stop-color="#ADEAF5"/>
<stop offset="0.4998" stop-color="#47B5C8"/>
<stop offset="1" stop-color="#235A63"/>
</linearGradient>
<linearGradient id="paint6_linear_938_24437" x1="8.0683" y1="90.6951" x2="8.0683" y2="97.4034" gradientUnits="userSpaceOnUse">
<stop offset="0.3658" stop-color="#47B5C8" stop-opacity="0"/>
<stop offset="0.4782" stop-color="#45B1C3" stop-opacity="0.1772"/>
<stop offset="0.6116" stop-color="#40A4B5" stop-opacity="0.3875"/>
<stop offset="0.7556" stop-color="#388E9D" stop-opacity="0.6146"/>
<stop offset="0.9061" stop-color="#2C707C" stop-opacity="0.8519"/>
<stop offset="1" stop-color="#235A63"/>
</linearGradient>
<linearGradient id="paint7_linear_938_24437" x1="-0.1036" y1="54.0548" x2="16.2403" y2="54.1349" gradientUnits="userSpaceOnUse">
<stop stop-color="#4896CC"/>
<stop offset="0.4998" stop-color="#4793C8"/>
<stop offset="1" stop-color="#234963"/>
</linearGradient>
<linearGradient id="paint8_linear_938_24437" x1="-0.0279" y1="23.1438" x2="16.1646" y2="23.2231" gradientUnits="userSpaceOnUse">
<stop stop-color="#CC9548"/>
<stop offset="0.4998" stop-color="#C89247"/>
<stop offset="1" stop-color="#634823"/>
</linearGradient>
<linearGradient id="paint9_linear_938_24437" x1="-0.009" y1="11.5521" x2="16.1456" y2="11.6313" gradientUnits="userSpaceOnUse">
<stop stop-color="#CC5348"/>
<stop offset="0.4998" stop-color="#C85247"/>
<stop offset="1" stop-color="#632823"/>
</linearGradient>
<linearGradient id="paint10_linear_938_24437" x1="-0.009" y1="3.8243" x2="16.1456" y2="3.9035" gradientUnits="userSpaceOnUse">
<stop stop-color="#CCC148"/>
<stop offset="0.4998" stop-color="#C8BD47"/>
<stop offset="1" stop-color="#635E23"/>
</linearGradient>
<linearGradient id="paint11_linear_938_24437" x1="-0.1036" y1="54.0548" x2="16.2403" y2="54.1349" gradientUnits="userSpaceOnUse">
<stop stop-color="#ADD8F5" stop-opacity="0"/>
<stop offset="0.1985" stop-color="#ADD8F5"/>
<stop offset="0.4878" stop-color="#ADD8F5" stop-opacity="0"/>
<stop offset="0.7099" stop-color="#234963" stop-opacity="0"/>
<stop offset="1" stop-color="#234963"/>
</linearGradient>
<linearGradient id="paint12_linear_938_24437" x1="-0.0279" y1="23.1438" x2="16.1646" y2="23.2231" gradientUnits="userSpaceOnUse">
<stop stop-color="#F5D7AD" stop-opacity="0"/>
<stop offset="0.1985" stop-color="#F5D7AD"/>
<stop offset="0.4878" stop-color="#F5D7AD" stop-opacity="0"/>
<stop offset="0.7099" stop-color="#634823" stop-opacity="0"/>
<stop offset="1" stop-color="#634823"/>
</linearGradient>
<linearGradient id="paint13_linear_938_24437" x1="-0.009" y1="11.5521" x2="16.1456" y2="11.6313" gradientUnits="userSpaceOnUse">
<stop stop-color="#F5B3AD" stop-opacity="0"/>
<stop offset="0.1985" stop-color="#F5B3AD"/>
<stop offset="0.4871" stop-color="#F5B3AD" stop-opacity="0"/>
<stop offset="0.7099" stop-color="#632823" stop-opacity="0"/>
<stop offset="1" stop-color="#632823"/>
</linearGradient>
<linearGradient id="paint14_linear_938_24437" x1="-0.009" y1="3.8243" x2="16.1456" y2="3.9035" gradientUnits="userSpaceOnUse">
<stop stop-color="#F5EFAD" stop-opacity="0"/>
<stop offset="0.1985" stop-color="#F5EFAD"/>
<stop offset="0.4871" stop-color="#F5EFAD" stop-opacity="0"/>
<stop offset="0.7099" stop-color="#635E23" stop-opacity="0"/>
<stop offset="1" stop-color="#635E23"/>
</linearGradient>
<linearGradient id="paint15_linear_938_24437" x1="8.0683" y1="1.55418" x2="8.0683" y2="77.0075" gradientUnits="userSpaceOnUse">
<stop offset="0.7753" stop-color="#4793C8" stop-opacity="0"/>
<stop offset="0.8575" stop-color="#4691C6" stop-opacity="0.3657"/>
<stop offset="0.8969" stop-color="#448CBE" stop-opacity="0.5412"/>
<stop offset="0.9272" stop-color="#3F82B1" stop-opacity="0.6761"/>
<stop offset="0.9529" stop-color="#38759F" stop-opacity="0.7903"/>
<stop offset="0.9756" stop-color="#306387" stop-opacity="0.8914"/>
<stop offset="0.9959" stop-color="#254E6A" stop-opacity="0.9819"/>
<stop offset="1" stop-color="#234963"/>
</linearGradient>
<linearGradient id="paint16_linear_938_24437" x1="8.0683" y1="5.66987" x2="8.0683" y2="30.821" gradientUnits="userSpaceOnUse">
<stop offset="0.7746" stop-color="#C89247" stop-opacity="0"/>
<stop offset="0.8568" stop-color="#C69046" stop-opacity="0.3657"/>
<stop offset="0.8962" stop-color="#BE8B44" stop-opacity="0.5412"/>
<stop offset="0.9265" stop-color="#B1813F" stop-opacity="0.6761"/>
<stop offset="0.9522" stop-color="#9F7438" stop-opacity="0.7903"/>
<stop offset="0.9749" stop-color="#876230" stop-opacity="0.8914"/>
<stop offset="0.9953" stop-color="#6A4D25" stop-opacity="0.9819"/>
<stop offset="0.9993" stop-color="#634823"/>
</linearGradient>
<linearGradient id="paint17_linear_938_24437" x1="8.0683" y1="2.83488" x2="8.0683" y2="15.4105" gradientUnits="userSpaceOnUse">
<stop offset="0.7753" stop-color="#C85247" stop-opacity="0"/>
<stop offset="0.8575" stop-color="#C65146" stop-opacity="0.3657"/>
<stop offset="0.8969" stop-color="#BE4E44" stop-opacity="0.5412"/>
<stop offset="0.9272" stop-color="#B1493F" stop-opacity="0.6761"/>
<stop offset="0.9529" stop-color="#9F4138" stop-opacity="0.7903"/>
<stop offset="0.9756" stop-color="#873730" stop-opacity="0.8914"/>
<stop offset="0.9959" stop-color="#6A2B25" stop-opacity="0.9819"/>
<stop offset="1" stop-color="#632823"/>
</linearGradient>
<linearGradient id="paint18_linear_938_24437" x1="8.0683" y1="-4.8929" x2="8.0683" y2="7.6826" gradientUnits="userSpaceOnUse">
<stop offset="0.7753" stop-color="#C8BD47" stop-opacity="0"/>
<stop offset="0.8572" stop-color="#C6BB46" stop-opacity="0.3657"/>
<stop offset="0.8966" stop-color="#BEB444" stop-opacity="0.5412"/>
<stop offset="0.9268" stop-color="#B1A83F" stop-opacity="0.6761"/>
<stop offset="0.9524" stop-color="#9F9638" stop-opacity="0.7903"/>
<stop offset="0.975" stop-color="#878030" stop-opacity="0.8914"/>
<stop offset="0.9953" stop-color="#6A6425" stop-opacity="0.9819"/>
<stop offset="0.9993" stop-color="#635E23"/>
</linearGradient>
</defs>
</svg>
