<svg width="44" height="57" viewBox="0 0 44 57" fill="none" xmlns="http://www.w3.org/2000/svg">
<g id="R-ICO-014195">
<path id="Vector" d="M21.6823 53.1725C14.9025 53.1475 2.39648 56.3223 2.39648 56.3223C16.8207 56.3755 16.9245 28.2321 16.9245 28.2321C16.9245 28.2321 17.0283 0.0848621 2.60408 0.0317621C2.60408 0.0317621 14.901 3.27666 21.6455 3.30156C28.39 3.26676 40.682 0.00366211 40.682 0.00366211C26.2579 0.0780621 26.4033 28.2251 26.4033 28.2251C26.4033 28.2251 26.5487 56.3683 40.9728 56.2938C40.9728 56.2938 28.462 53.1375 21.6823 53.1725Z" fill="url(#paint0_linear_938_22861)"/>
<g id="Group">
<path id="Vector_2" d="M29.6916 28.2045C29.8045 50.066 39.5363 47.1714 40.9248 47.1642C42.3133 47.1571 43.2512 48.6421 43.2694 52.1709C43.284 54.9897 42.7836 56.2808 40.9719 56.2902C26.5478 56.3647 26.4024 28.2215 26.4024 28.2215C26.4024 28.2215 26.2571 0.0745477 40.6812 4.77092e-05C42.4911 -0.00925229 43.2789 1.34105 43.2931 4.09015C43.3073 6.83925 42.1169 9.12245 40.7284 9.12955C39.3399 9.13665 29.5787 6.34315 29.6916 28.2045Z" fill="#837510"/>
<path id="Vector_3" d="M13.6372 28.2163C13.5565 50.0779 3.82046 47.1977 2.43196 47.1926C1.04346 47.1875 0.107764 48.6739 0.0947636 52.2028C0.0843636 55.0216 0.586664 56.312 2.39836 56.3187C16.8226 56.3719 16.9264 28.2285 16.9264 28.2285C16.9264 28.2285 17.0301 0.081301 2.60586 0.028101C0.795864 0.021401 0.0101636 1.373 6.36297e-05 4.1221C-0.0100364 6.8712 1.18366 9.1526 2.57226 9.1577C3.96066 9.1628 13.7178 6.3547 13.6372 28.2163Z" fill="#837510"/>
</g>
</g>
<defs>
<linearGradient id="paint0_linear_938_22861" x1="21.8865" y1="3.21778" x2="21.7018" y2="53.1582" gradientUnits="userSpaceOnUse">
<stop stop-color="#D2D1B5"/>
<stop offset="0.0277" stop-color="#CBCBAD"/>
<stop offset="0.1676" stop-color="#AAB187"/>
<stop offset="0.2975" stop-color="#939E6C"/>
<stop offset="0.4123" stop-color="#85925C"/>
<stop offset="0.5" stop-color="#808E56"/>
<stop offset="0.5877" stop-color="#85925C"/>
<stop offset="0.7025" stop-color="#939E6C"/>
<stop offset="0.8324" stop-color="#AAB187"/>
<stop offset="0.9723" stop-color="#CBCBAD"/>
<stop offset="1" stop-color="#D2D1B5"/>
</linearGradient>
</defs>
</svg>
