<svg width="30" height="24" viewBox="0 0 30 24" fill="none" xmlns="http://www.w3.org/2000/svg">
<g id="R-ICO-014534">
<g id="CHEMICAL_HEX">
<g id="LEFT_CORNER">
<mask id="mask0_938_24830" style="mask-type:luminance" maskUnits="userSpaceOnUse" x="0" y="0" width="10" height="24">
<rect id="MASK" width="10" height="24" transform="matrix(-1 0 0 1 10 0)" fill="white"/>
</mask>
<g mask="url(#mask0_938_24830)">
<g id="CORNER">
<mask id="path-2-outside-1_938_24830" maskUnits="userSpaceOnUse" x="0" y="0" width="12" height="24" fill="black">
<rect fill="white" width="12" height="24"/>
<path d="M2 12C2 12 6.04738 5.90524 8 2H10V22H8C6.04738 18.0948 2 12 2 12Z"/>
</mask>
<path d="M2 12C2 12 6.04738 5.90524 8 2H10V22H8C6.04738 18.0948 2 12 2 12Z" fill="#D99A37"/>
<path d="M2 12C2 12 6.04738 5.90524 8 2H10V22H8C6.04738 18.0948 2 12 2 12Z" stroke="#996E27" stroke-width="4" stroke-miterlimit="3.99933" stroke-linejoin="round" mask="url(#path-2-outside-1_938_24830)"/>
</g>
</g>
</g>
<g id="RIGHT CORNER">
<mask id="mask1_938_24830" style="mask-type:luminance" maskUnits="userSpaceOnUse" x="20" y="0" width="10" height="24">
<rect id="MASK_2" width="10" height="24" transform="matrix(1 -8.74228e-08 -8.74228e-08 -1 20 24)" fill="white"/>
</mask>
<g mask="url(#mask1_938_24830)">
<g id="CORNER_2">
<mask id="path-4-outside-2_938_24830" maskUnits="userSpaceOnUse" x="18" y="0" width="12" height="24" fill="black">
<rect fill="white" x="18" width="12" height="24"/>
<path d="M28 12C28 12 23.9526 5.90524 22 2H20V22H22C23.9526 18.0948 28 12 28 12Z"/>
</mask>
<path d="M28 12C28 12 23.9526 5.90524 22 2H20V22H22C23.9526 18.0948 28 12 28 12Z" fill="#D99A37"/>
<path d="M28 12C28 12 23.9526 5.90524 22 2H20V22H22C23.9526 18.0948 28 12 28 12Z" stroke="#996E27" stroke-width="4" stroke-miterlimit="3.99933" stroke-linejoin="round" mask="url(#path-4-outside-2_938_24830)"/>
</g>
</g>
</g>
<g id="centre">
<mask id="path-5-outside-3_938_24830" maskUnits="userSpaceOnUse" x="8" y="0" width="14" height="24" fill="black">
<rect fill="white" x="8" width="14" height="24"/>
<path d="M8 2H22V22H8V2Z"/>
</mask>
<path d="M8 2H22V22H8V2Z" fill="#D99A37"/>
<path d="M8 2V4H22V2V0H8V2ZM22 22V20H8V22V24H22V22Z" fill="#996E27" mask="url(#path-5-outside-3_938_24830)"/>
<text id="Chemical" fill="white" xml:space="preserve" style="white-space: pre" font-family="Arial" font-size="12" font-weight="bold" letter-spacing="0em"><tspan x="10.6641" y="16.1602">H</tspan></text>
</g>
</g>
</g>
</svg>
