<svg width="44" height="57" viewBox="0 0 44 57" fill="none" xmlns="http://www.w3.org/2000/svg">
<g id="R-ICO-014806">
<path id="Vector" d="M21.6827 53.1723C14.903 53.1473 2.39697 56.3221 2.39697 56.3221C16.8211 56.3753 16.9249 28.2321 16.9249 28.2321C16.9249 28.2321 17.0287 0.0851063 2.60457 0.0320063C2.60457 0.0320063 14.9014 3.27691 21.6459 3.30181C28.3903 3.26701 40.6823 0.00390625 40.6823 0.00390625C26.2583 0.0784063 26.4036 28.2252 26.4036 28.2252C26.4036 28.2252 26.549 56.3682 40.973 56.2937C40.973 56.2937 28.4623 53.1373 21.6827 53.1723Z" fill="url(#paint0_linear_938_22877)"/>
<g id="Group">
<path id="Vector_2" d="M29.6911 28.2043C29.804 50.0656 39.5357 47.171 40.9242 47.1639C42.3127 47.1567 43.2506 48.6418 43.2688 52.1707C43.2834 54.9894 42.783 56.2806 40.9713 56.29C26.5473 56.3645 26.4019 28.2214 26.4019 28.2214C26.4019 28.2214 26.2566 0.0745477 40.6806 4.77092e-05C42.4905 -0.00925229 43.2782 1.34105 43.2924 4.09015C43.3066 6.83925 42.1162 9.12235 40.7277 9.12955C39.3393 9.13675 29.5782 6.34305 29.6911 28.2043Z" fill="#0A4051"/>
<path id="Vector_3" d="M13.6371 28.2163C13.5565 50.0778 3.82046 47.1976 2.43196 47.1925C1.04346 47.1874 0.107764 48.6738 0.0947636 52.2026C0.0843636 55.0214 0.586663 56.3118 2.39826 56.3185C16.8224 56.3717 16.9262 28.2285 16.9262 28.2285C16.9262 28.2285 17.03 0.0815451 2.60586 0.0283451C0.795964 0.0216451 0.0101636 1.37325 6.36297e-05 4.12234C-0.0100364 6.87144 1.18366 9.15284 2.57216 9.15794C3.96066 9.16304 13.7177 6.35494 13.6371 28.2163Z" fill="#0A4051"/>
</g>
</g>
<defs>
<linearGradient id="paint0_linear_938_22877" x1="21.8694" y1="3.18855" x2="21.6846" y2="53.1285" gradientUnits="userSpaceOnUse">
<stop stop-color="#F2C9A9"/>
<stop offset="0.0364" stop-color="#F1C6A6"/>
<stop offset="0.2989" stop-color="#ECB796"/>
<stop offset="0.5" stop-color="#EAB290"/>
<stop offset="0.7011" stop-color="#ECB796"/>
<stop offset="0.9636" stop-color="#F1C6A6"/>
<stop offset="1" stop-color="#F2C9A9"/>
</linearGradient>
</defs>
</svg>
