<svg width="43" height="136" viewBox="0 0 43 136" fill="none" xmlns="http://www.w3.org/2000/svg">
<g id="R-ICO-012683">
<path id="Vector" d="M4.79232 135.2C3.73995 135.2 2.88672 134.347 2.88672 133.294V99.7086C2.88672 91.8875 7.41624 87.5809 11.7969 83.4161C16.0343 79.3876 20.0371 75.5824 20.0371 68.5034V41.9995C20.0371 33.2172 22.5261 29.2106 24.7211 25.6763C26.6816 22.5211 28.3741 19.7962 28.3741 13.7277C28.3741 12.6753 29.2274 11.8221 30.2797 11.8221C31.3321 11.8221 32.1853 12.6753 32.1853 13.7277C32.1853 20.8839 30.0369 24.3425 27.9592 27.6875C25.8451 31.0903 23.8483 34.3046 23.8483 41.9996V68.5034C23.8483 77.2177 18.8415 81.978 14.4236 86.1782C10.2784 90.1196 6.69792 93.5228 6.69792 99.7086V133.294C6.69792 134.347 5.84469 135.2 4.79232 135.2Z" fill="url(#paint0_linear_938_23007)"/>
<path id="Vector_2" d="M38.4558 27.4555C31.4482 27.4555 27.0947 22.1954 27.0947 13.7276C27.0947 5.26013 31.4482 0 38.4558 0C40.6339 0 42.3998 1.76592 42.3998 3.94402C42.3998 6.12212 40.6339 7.88804 38.4558 7.88804C37.4167 7.88804 34.9829 7.88804 34.9829 13.7275C34.9829 19.5673 37.4167 19.5673 38.4558 19.5673C40.6339 19.5673 42.3998 21.3332 42.3998 23.5113C42.3998 25.6894 40.6339 27.4555 38.4558 27.4555Z" fill="url(#paint1_radial_938_23007)"/>
<path id="Vector_3" d="M11.3644 124.109C4.35678 124.111 0.00209692 118.852 7.56843e-07 110.384C-0.0020954 101.917 4.35011 96.6556 11.3578 96.6539C13.5359 96.6533 15.3023 98.4189 15.3027 100.597C15.3032 102.775 13.5378 104.541 11.3597 104.542C10.3205 104.542 7.88671 104.543 7.88804 110.382C7.88947 116.222 10.3233 116.221 11.3624 116.221C13.5405 116.221 15.3069 117.986 15.3074 120.164C15.3079 122.342 13.5425 124.109 11.3644 124.109Z" fill="url(#paint2_radial_938_23007)"/>
</g>
<defs>
<linearGradient id="paint0_linear_938_23007" x1="-11.141" y1="81.1949" x2="46.213" y2="65.827" gradientUnits="userSpaceOnUse">
<stop stop-color="#006B57"/>
<stop offset="1" stop-color="#51E8CC"/>
</linearGradient>
<radialGradient id="paint1_radial_938_23007" cx="0" cy="0" r="1" gradientUnits="userSpaceOnUse" gradientTransform="translate(40.6726 13.7278) scale(15.3298)">
<stop stop-color="#82E8FF"/>
<stop offset="1" stop-color="#005791"/>
</radialGradient>
<radialGradient id="paint2_radial_938_23007" cx="0" cy="0" r="1" gradientUnits="userSpaceOnUse" gradientTransform="translate(13.5976 110.35) scale(15.3298 15.3298)">
<stop stop-color="#82E8FF"/>
<stop offset="1" stop-color="#005791"/>
</radialGradient>
</defs>
</svg>
