<svg width="88" height="97" viewBox="0 0 88 97" fill="none" xmlns="http://www.w3.org/2000/svg">
<g id="R-ICO-012595">
<g id="BG">
<path id="Vector" d="M3.59434 31.1451C5.71234 25.6331 11.4623 18.0511 15.0283 13.8561C21.3623 6.3761 26.7823 7.6531 36.0303 3.1781C44.0073 -0.675897 53.0973 1.2211 61.4463 4.4291C70.5223 7.9161 75.9483 14.6841 80.6173 22.7431C85.1643 30.6021 87.1173 38.8951 86.4603 48.5401C86.1253 53.4601 87.0033 59.2401 85.1242 64.1291C82.1211 71.9461 76.7053 78.6231 69.9572 80.6071C65.3031 81.9661 59.9362 89.1341 54.9572 91.1131C45.3663 94.9241 36.8592 98.1181 27.5732 92.6191C22.7692 89.7701 16.4842 89.0271 12.2752 84.3691C7.81824 79.4181 3.37324 71.7491 1.50024 65.1911C0.122238 60.3891 1.54724 53.6681 1.74124 48.4671C1.93244 43.0501 1.52244 36.5371 3.59434 31.1451Z" fill="url(#paint0_radial_938_25184)"/>
<path id="Membrane" d="M3.17169 30.982C3.01869 31.379 2.89869 31.789 2.76769 32.195C2.76269 32.208 2.75769 32.221 2.75269 32.235C2.73769 32.275 2.72769 32.332 2.71269 32.372C2.66769 32.522 2.61669 32.654 2.58269 32.808C1.84169 35.093 1.45669 37.454 1.24369 39.759C1.00169 42.266 0.985687 44.738 0.887687 47.164C0.832687 49.575 0.577687 51.956 0.313687 54.455C0.0986873 56.927 -0.116313 59.46 0.0726874 61.98C0.174687 63.236 0.374687 64.498 0.738687 65.687C1.08569 66.824 1.50169 67.911 1.95469 68.967C2.83169 70.992 3.84669 72.917 4.96669 74.731C6.97169 78.421 9.39769 81.983 11.9267 84.795C11.9767 84.86 12.0477 84.902 12.0967 84.967C13.2507 86.368 14.6257 87.52 16.1017 88.437C19.1427 90.335 22.5247 91.315 25.5467 92.811C27.0077 93.509 28.5727 94.521 30.2477 95.119C31.9277 95.734 33.6797 96.164 35.4887 96.281C37.1317 96.41 38.7957 96.29 40.4507 95.998C43.8577 95.65 47.2437 94.609 50.6687 93.34C51.9998 92.985 53.3187 92.564 54.6267 92.108C56.0477 91.681 57.5027 90.841 58.7797 89.948C60.0767 89.032 61.2807 88.005 62.4687 86.986C63.6397 85.946 64.8007 84.932 65.9637 83.98C67.1207 83.01 68.3227 82.18 69.5367 81.612L69.9997 81.41L70.5226 81.216C70.8747 81.078 71.2316 80.926 71.5716 80.752C72.2316 80.428 72.8736 80.051 73.4886 79.649C77.4776 77.396 81.0697 73.424 83.7226 68.3C84.4476 66.997 85.1116 65.656 85.6997 64.255C86.3577 62.607 86.7288 60.864 86.9287 59.177C87.3397 55.777 87.1127 52.512 87.2858 49.34C87.5439 46.109 87.5668 42.682 87.2018 39.455C86.8148 36.22 86.0958 33.07 85.0438 30.141C83.9748 27.222 82.6418 24.474 81.0768 21.972C79.6168 19.586 78.0248 17.317 76.2638 15.227C72.8948 10.846 68.5608 6.839 62.5429 4.299C62.5319 4.295 62.5209 4.291 62.5109 4.286C59.8769 3.076 57.1769 2.039 54.3589 1.276C51.5569 0.473 48.6218 0.045 45.6159 0C42.6059 0.029 39.4759 0.53 36.4619 1.865C35.6839 2.205 35.0139 2.525 34.3159 2.85C33.6129 3.158 32.8989 3.461 32.1949 3.738C30.7719 4.301 29.3239 4.764 27.8669 5.253C24.9729 6.209 21.8799 7.134 19.0629 9.154C17.6539 10.133 16.3679 11.342 15.2299 12.684C14.1389 13.937 13.1779 15.24 12.1999 16.553C9.37469 20.183 5.01959 26.173 3.17169 30.982ZM19.7057 10.559C22.3097 8.899 25.1957 8.061 28.1497 7.205C29.6247 6.768 31.1037 6.287 32.5857 5.732C33.3267 5.454 34.0677 5.146 34.7977 4.833C35.5217 4.503 36.2777 4.155 36.9437 3.879C39.6747 2.633 42.5787 2.136 45.4367 2.049C48.3057 1.966 51.1367 2.339 53.9238 2.923C56.5768 3.532 59.2318 4.233 61.7898 5.155C67.7948 7.599 72.1228 11.558 75.4749 15.887C77.056 18.152 78.5009 20.547 79.8659 23.018C82.6589 28.121 84.718 33.807 85.3779 39.991C85.7409 43.095 85.7429 46.198 85.5459 49.498C85.4789 52.848 85.7299 56.016 85.5079 59.184C85.3969 60.768 85.1129 62.317 84.6129 63.812C84.1019 65.303 83.4729 66.78 82.767 68.196C80.219 72.949 76.841 76.623 73.106 78.701C72.5151 78.976 71.929 79.207 71.32 79.398L70.326 79.685C70.01 79.761 69.647 79.865 69.263 79.991C66.243 81.05 63.851 83.324 61.4901 85.291C60.3241 86.318 59.1631 87.331 57.9831 88.231C56.7991 89.175 55.6422 89.886 54.3271 90.491L50.3721 92.332C47.1822 93.509 44.0251 94.47 40.8611 94.836C39.1421 94.905 37.4581 94.851 35.8231 94.573C34.1601 94.269 32.5491 93.832 31.0181 93.152C29.4561 92.521 28.0871 91.615 26.4561 90.776C23.2401 89.236 19.9031 88.365 16.8711 86.865C15.4141 86.123 14.0191 85.252 12.7851 84.124C12.7351 84.059 12.6641 84.017 12.6151 83.952C10.1361 81.205 7.75409 77.72 5.80509 74.113C4.87609 72.159 4.03709 70.165 3.29909 68.102C2.92609 67.031 2.59109 65.96 2.29909 64.874C2.01809 63.823 1.88209 62.722 1.84009 61.566C1.72609 59.272 1.93709 56.844 2.18009 54.398C2.40209 51.974 2.66409 49.414 2.67009 46.938C2.67109 44.475 2.65109 42.065 2.70609 39.654C2.79509 37.316 2.99209 34.959 3.58709 32.664C3.72209 32.214 3.86309 31.751 4.03109 31.314C5.59909 27.233 9.28909 21.809 12.8631 17.267C14.9986 14.711 17.1377 12.157 19.7057 10.559Z" fill="#272E87"/>
</g>
<g id="Nucleus">
<path id="Vector_2" d="M43.7386 40.8611C52.3752 40.8611 59.3766 33.8597 59.3766 25.2231C59.3766 16.5865 52.3752 9.5851 43.7386 9.5851C35.102 9.5851 28.1006 16.5865 28.1006 25.2231C28.1006 33.8597 35.102 40.8611 43.7386 40.8611Z" fill="url(#paint1_radial_938_25184)"/>
<path id="Vector_3" d="M43.7389 41.3741C34.8299 41.3741 27.5879 34.1321 27.5879 25.2231C27.5879 16.3151 34.8299 9.0721 43.7389 9.0721C52.6469 9.0721 59.8899 16.3141 59.8899 25.2231C59.8889 34.1321 52.647 41.3741 43.7389 41.3741ZM43.7389 10.0821C35.3909 10.0821 28.5979 16.8761 28.5979 25.2231C28.5979 33.5711 35.3919 40.3641 43.7389 40.3641C52.0869 40.3641 58.8799 33.5701 58.8799 25.2231C58.8799 16.8751 52.0869 10.0821 43.7389 10.0821Z" fill="#935491"/>
</g>
</g>
<defs>
<radialGradient id="paint0_radial_938_25184" cx="0" cy="0" r="1" gradientTransform="matrix(42.6982 35.6181 -26.4166 50.1158 32.62 39.875)" gradientUnits="userSpaceOnUse">
<stop offset="0.0005" stop-color="#C6CCE0"/>
<stop offset="1" stop-color="#4482BB"/>
</radialGradient>
<radialGradient id="paint1_radial_938_25184" cx="0" cy="0" r="1" gradientUnits="userSpaceOnUse" gradientTransform="translate(38.6305 21.4548) scale(15.4833 21.4568)">
<stop offset="0.0005" stop-color="#C6CCE0"/>
<stop offset="1" stop-color="#6B76AA"/>
</radialGradient>
</defs>
</svg>
