<svg width="19" height="49" viewBox="0 0 19 49" fill="none" xmlns="http://www.w3.org/2000/svg">
<g id="R-ICO-013199">
<path id="Podocin" d="M18.1182 9.7979V45.1924C18.1182 47.125 16.5508 48.6924 14.6182 48.6924C12.6856 48.6924 11.1182 47.125 11.1182 45.1924V9.7979C11.1182 8.7627 10.877 7.9678 10.42 7.5C9.9941 7.0654 9.4551 7 9.1719 7C8.8096 7 7 7.1357 7 9.7979C7 11.7305 5.4326 13.2979 3.5 13.2979C1.5674 13.2979 0 11.7305 0 9.7979C0 3.4346 4.7256 0 9.1719 0C11.5615 0 13.7832 0.9268 15.4268 2.6084C16.6543 3.8652 18.1182 6.1328 18.1182 9.7979Z" fill="url(#paint0_linear_938_24345)"/>
</g>
<defs>
<linearGradient id="paint0_linear_938_24345" x1="9.059" y1="48.6924" x2="9.059" y2="0" gradientUnits="userSpaceOnUse">
<stop stop-color="#7300D4"/>
<stop offset="1" stop-color="#22003D"/>
</linearGradient>
</defs>
</svg>
