<svg width="142" height="101" viewBox="0 0 142 101" fill="none" xmlns="http://www.w3.org/2000/svg">
<g id="R-ICO-014707">
<path id="BG" opacity="0.6" d="M70.7021 98.7122C108.49 98.7122 139.123 77.1253 139.123 50.4965C139.123 23.8677 108.49 2.28076 70.7021 2.28076C32.9143 2.28076 2.28125 23.8677 2.28125 50.4965C2.28125 77.1253 32.9143 98.7122 70.7021 98.7122Z" fill="url(#paint0_radial_938_25718)" stroke="#3B62A9" stroke-width="4.562" stroke-miterlimit="10"/>
<path id="MEMRBANE" d="M70.8247 100.497C68.4527 100.497 66.0704 100.412 63.679 100.242C41.1814 98.6352 21.0356 89.3456 9.78868 75.3914C2.44147 66.2753 -0.643246 55.8986 0.868572 45.3833C2.7904 32.0171 11.9136 20.0185 26.5576 11.5974C41.0212 3.28026 59.1923 -0.570813 77.726 0.751598C100.224 2.35788 120.369 11.6474 131.616 25.602C138.964 34.7182 142.048 45.0945 140.536 55.6098C138.615 68.976 129.492 80.9746 114.848 89.3957C102.25 96.6397 86.8366 100.497 70.8247 100.497ZM70.6248 4.05661C36.8435 4.05661 7.83346 21.9459 4.39115 45.8899C3.02357 55.402 5.84836 64.8313 12.5596 73.1582C23.1976 86.3572 42.4023 95.1547 63.9327 96.6918C66.2306 96.8558 68.5188 96.9361 70.7802 96.9364C104.562 96.9381 133.572 79.0471 137.014 55.1031C138.381 45.5911 135.557 36.1621 128.845 27.8352C118.207 14.6363 99.0028 5.83842 77.4723 4.30133C75.1744 4.13727 72.8862 4.05661 70.6248 4.05661Z" fill="#3B62A9"/>
</g>
<defs>
<radialGradient id="paint0_radial_938_25718" cx="0" cy="0" r="1" gradientUnits="userSpaceOnUse" gradientTransform="translate(70.7024 50.4945) scale(70.2971 48.6008)">
<stop offset="0.2" stop-color="#67C1D2"/>
<stop offset="0.3544" stop-color="#63BDCF"/>
<stop offset="0.5143" stop-color="#56B3C5"/>
<stop offset="0.6769" stop-color="#42A2B4"/>
<stop offset="0.8401" stop-color="#25899D"/>
<stop offset="1" stop-color="#016B80"/>
</radialGradient>
</defs>
</svg>
