<svg width="126" height="125" viewBox="0 0 126 125" fill="none" xmlns="http://www.w3.org/2000/svg">
<g id="R-ICO-012450">
<path id="BG" d="M49.2087 39.077C56.6297 38.1062 58.9006 0.5695 65.1862 0.8549C71.4718 1.1403 65.7633 39.4885 68.903 42.0138C72.0427 44.5391 110.818 16.0036 114.835 28.9798C118.852 41.956 82.5321 40.8303 80.0346 56.8192C75.747 84.2681 129.73 77.8897 123.942 102.361C120.604 116.471 92.9726 76.1432 73.1844 77.5081C58.6277 78.5122 58.3423 123.94 50.065 123.767C35.4362 123.461 55.418 84.9964 40.646 73.8062C30.0852 65.8061 1.82113 90.875 1.00983 71.7786C0.505833 59.9148 36.0791 69.8773 37.7917 52.9257C39.2833 38.1612 -2.14907 36.4904 1.00983 24.5074C4.82493 10.0351 41.7876 40.0478 49.2087 39.077Z" fill="url(#paint0_radial_938_25155)"/>
<path id="MEMBRANE" d="M124.932 96.135C124.61 94.7007 124.01 93.3304 123.21 92.1141C122.415 90.8912 121.421 89.8309 120.349 88.898C119.276 87.9637 118.122 87.149 116.928 86.4225C114.539 84.9692 112.024 83.809 109.496 82.7374C106.967 81.6648 104.408 80.6994 101.868 79.7153C99.3276 78.7303 96.8047 77.7193 94.3432 76.5909C92.0615 75.5416 89.8314 74.3759 87.7696 72.9654C82.558 69.2411 79.2943 64.3332 80.4577 56.8852C81.0201 53.285 83.4189 50.5569 86.6919 48.3401C88.191 47.3775 89.7903 46.5638 91.4246 45.8288C93.3272 44.9751 95.2747 44.2076 97.2454 43.4845C99.2158 42.7604 101.204 42.0667 103.184 41.3202C105.165 40.5752 107.149 39.8023 109.086 38.854C110.055 38.3803 111.006 37.8475 111.922 37.2295C112.83 36.5996 113.718 35.8902 114.458 34.98C115.198 34.0839 115.775 32.9481 115.932 31.7253C116.027 31.1174 115.995 30.5046 115.918 29.9137C115.87 29.6196 115.82 29.326 115.737 29.0458C115.665 28.7642 115.58 28.4741 115.46 28.1921C115.232 27.6267 114.9 27.0797 114.476 26.6077C114.05 26.135 113.528 25.7512 112.974 25.472C111.855 24.9159 110.662 24.7585 109.535 24.7468C108.401 24.7386 107.302 24.8827 106.231 25.09C105.16 25.2992 104.114 25.5761 103.089 25.8998C101.038 26.5456 99.0554 27.3354 97.1077 28.1851C95.1585 29.0319 93.2523 29.9595 91.368 30.9212C87.7222 32.7683 84.1692 34.7681 80.6189 36.7574C75.4291 39.5064 69.974 42.327 69.1714 41.6802C68.3299 41.0034 68.2463 36.4396 68.3503 31.2322C68.4311 29.5708 68.5226 27.9088 68.6188 26.2457C68.7212 24.4742 68.8021 22.7007 68.8843 20.9251C68.9661 19.1495 69.0323 17.3714 69.0543 15.5891C69.0814 13.8069 69.0831 12.0212 69.022 10.2279C68.953 8.4341 68.8245 6.6365 68.5005 4.8194C68.4148 4.3648 68.3231 3.9097 68.194 3.4514C68.0703 2.9938 67.9212 2.5335 67.7098 2.0706C67.4977 1.6111 67.2428 1.1361 66.7978 0.7036C66.6745 0.6008 66.5643 0.4925 66.4227 0.4029C66.2743 0.3189 66.1409 0.2194 65.9693 0.1661C65.8047 0.1027 65.638 0.0476 65.4625 0.0303C65.3758 0.0186 65.2882 0.0035 65.2021 0L64.9448 0.01C64.6008 0.0284 64.2766 0.138 63.9917 0.2736C63.8486 0.3417 63.7287 0.4272 63.5985 0.5068C63.4769 0.5907 63.3732 0.6832 63.2614 0.773C62.8463 1.1442 62.5393 1.5503 62.2628 1.9582C61.7305 2.7794 61.3327 3.6228 60.9831 4.4712C60.2933 6.1705 59.7593 7.8878 59.2874 9.6153C58.3574 13.0719 57.5759 16.5375 56.8163 20.002C56.4351 21.7336 56.0362 23.4587 55.6351 25.1813C55.2638 26.7733 54.864 28.3566 54.4217 29.9258C52.9151 34.7393 51.2065 38.3838 49.1534 38.6524C47.154 38.9148 42.5546 36.6119 37.227 33.6755L31.8694 30.5275C29.9999 29.4244 28.114 28.346 26.2168 27.2808C24.3188 26.217 22.4016 25.1806 20.4422 24.2142C18.4857 23.2429 16.4932 22.328 14.4371 21.5292C13.4078 21.1316 12.3564 20.7797 11.2819 20.4776C10.2067 20.1784 9.10538 19.933 7.96528 19.8041C6.82878 19.6765 5.63878 19.6595 4.43748 19.9544C4.13718 20.0127 3.84228 20.135 3.54658 20.2339C3.25938 20.3714 2.96418 20.4894 2.69608 20.6734C2.41478 20.8317 2.16978 21.047 1.91888 21.2521C1.69588 21.4844 1.45178 21.7056 1.27438 21.9725C0.874784 22.481 0.614884 23.0576 0.394684 23.6295C0.208484 24.1998 0.0350843 24.807 0.0072843 25.4505C-0.0241157 26.0882 0.0450843 26.7407 0.232684 27.3538C0.427184 27.9633 0.716084 28.5248 1.05528 29.0356C1.75828 30.0356 2.62838 30.8376 3.54398 31.5141C4.46048 32.1949 5.42168 32.7764 6.40348 33.2973C8.36738 34.3386 10.3902 35.1884 12.4173 35.9967C14.4444 36.8059 16.4879 37.5433 18.523 38.2895C20.5576 39.035 22.5811 39.7968 24.5804 40.6046C26.578 41.4146 28.5504 42.2851 30.4292 43.318C30.4799 43.3458 30.5299 43.3751 30.5806 43.4031C34.8972 45.9298 37.7658 48.9222 37.3657 52.8827C36.9231 57.2642 34.0635 59.7842 30.1392 61.3486C28.5532 61.9312 26.8966 62.3351 25.2227 62.6477C23.3398 62.9941 21.4358 63.2567 19.5188 63.4668C17.6017 63.6781 15.6752 63.8563 13.7425 64.081C11.8096 64.3043 9.86778 64.5467 7.92328 64.9558C6.95078 65.1599 5.98068 65.423 5.01978 65.775C4.06108 66.1253 3.10598 66.5901 2.23708 67.2674C1.80968 67.6176 1.40908 68.0216 1.07388 68.493C0.747984 68.9721 0.500384 69.5091 0.343684 70.0674C0.197484 70.6284 0.147584 71.1979 0.158884 71.7526C0.184284 72.2713 0.211784 72.77 0.283784 73.2833C0.422284 74.3009 0.663784 75.3337 1.12258 76.3232C1.57638 77.3068 2.31308 78.2395 3.26748 78.8604C3.73928 79.1808 4.26068 79.3974 4.78198 79.5771C5.30798 79.7326 5.84058 79.8481 6.36778 79.8961C7.42508 80.0118 8.45568 79.943 9.45688 79.8059C11.4597 79.522 13.3593 78.9731 15.2238 78.3769C17.0892 77.78 18.9089 77.0957 20.7243 76.4191C22.5382 75.7399 24.3505 75.0765 26.1714 74.4559C27.9466 73.8562 29.7397 73.316 31.5624 72.9399C35.0543 72.3173 38.152 72.4542 40.3873 74.1477C44.2569 77.0789 45.6716 81.9725 45.9502 87.5789C46.0053 89.6872 45.91 91.8007 45.7325 93.9091C45.551 96.0578 45.3105 98.205 45.0305 100.352C44.7508 102.499 44.4481 104.648 44.1892 106.81C43.9287 108.973 43.6869 111.146 43.5855 113.353C43.5338 114.457 43.5345 115.57 43.6084 116.693C43.6893 117.816 43.8333 118.954 44.1809 120.087C44.351 120.653 44.5902 121.213 44.8909 121.753C45.1979 122.292 45.6039 122.797 46.087 123.225C46.5674 123.659 47.1458 123.985 47.7406 124.204C48.0372 124.327 48.3423 124.391 48.6458 124.469C48.7976 124.499 48.9495 124.519 49.1016 124.543C49.254 124.57 49.4056 124.588 49.5559 124.593L50.0081 124.619C50.1764 124.62 50.3788 124.605 50.5607 124.587C50.7417 124.546 50.931 124.515 51.1024 124.452C51.2682 124.382 51.4525 124.328 51.5986 124.235C52.2256 123.897 52.6901 123.433 53.0801 122.961C53.844 122.002 54.3498 120.974 54.8058 119.945C55.2564 118.914 55.6248 117.869 55.9687 116.821C56.31 115.773 56.621 114.721 56.9048 113.665C57.4756 111.554 57.9836 109.437 58.4875 107.324L59.98 100.991C60.4831 98.8846 61.0204 96.7896 61.5959 94.708C62.17 92.6258 62.8104 90.5642 63.5582 88.5443C63.5977 88.4367 63.6391 88.3298 63.6793 88.2224C66.0222 82.4306 69.0045 78.2258 73.2138 77.9355C77.4299 77.6453 82.0522 79.3199 86.7212 81.9593C88.8513 83.212 90.8953 84.6142 92.889 86.0832C95.07 87.6984 97.2039 89.3816 99.3003 91.1165C101.397 92.8504 103.469 94.6206 105.559 96.3777C107.649 98.1364 109.741 99.9006 111.924 101.583C113.015 102.425 114.14 103.233 115.32 103.987C115.909 104.365 116.519 104.722 117.153 105.052C117.784 105.385 118.455 105.677 119.176 105.903C119.895 106.119 120.694 106.277 121.568 106.146C122.003 106.091 122.44 105.915 122.838 105.688C123.018 105.552 123.218 105.426 123.372 105.267C123.522 105.106 123.694 104.952 123.805 104.774C124.311 104.079 124.574 103.328 124.758 102.603C124.838 102.249 124.905 101.901 124.978 101.55C125.045 101.198 125.083 100.838 125.134 100.482C125.289 99.0503 125.257 97.57 124.932 96.135ZM81.0149 37.5161C84.658 35.6916 88.2864 33.8513 91.9534 32.1167C95.7567 30.3538 99.5914 28.6212 103.558 27.4469C105.532 26.878 107.558 26.3971 109.516 26.4182C110.487 26.431 111.437 26.5864 112.21 26.981C112.985 27.371 113.548 28.0129 113.875 28.8387C113.961 29.0418 114.028 29.2576 114.086 29.4862C114.156 29.7112 114.193 29.9372 114.233 30.1628C114.292 30.6128 114.322 31.064 114.253 31.4995C114.146 32.3746 113.747 33.198 113.157 33.927C112.572 34.6607 111.804 35.2926 110.988 35.8656C110.162 36.4338 109.269 36.9312 108.357 37.4055C104.68 39.2794 100.669 40.6266 96.7629 42.2381C94.8038 43.0348 92.845 43.8575 90.942 44.8152C89.0422 45.774 87.1781 46.8384 85.4712 48.1423C85.4501 48.1586 85.4296 48.1761 85.4086 48.1926C82.3722 50.4258 80.1713 53.17 79.6116 56.7531C78.3128 65.0678 82.1684 70.3244 88.1083 74.2612C89.9386 75.5249 91.8847 76.6057 93.8602 77.5982C96.3199 78.8325 98.85 79.8943 101.371 80.9503C103.893 82.0027 106.419 83.0254 108.903 84.1115C111.381 85.2043 113.82 86.3778 116.075 87.7961C117.198 88.5089 118.279 89.2764 119.26 90.1394C120.241 91.0009 121.124 91.9585 121.812 93.0295C122.504 94.0964 123.008 95.2674 123.279 96.4984C123.553 97.7295 123.577 99.0159 123.433 100.293C123.384 100.611 123.356 100.932 123.296 101.25L123.102 102.201C122.959 102.796 122.744 103.353 122.446 103.764C122.38 103.881 122.285 103.947 122.208 104.04C122.128 104.13 122.027 104.178 121.943 104.256C121.746 104.357 121.547 104.456 121.301 104.483C120.821 104.562 120.24 104.477 119.66 104.3C118.491 103.942 117.324 103.292 116.204 102.589C115.079 101.882 113.987 101.094 112.903 100.29C108.576 97.042 104.459 93.4331 100.138 90.075C95.8346 86.7004 91.3886 83.4361 86.5136 80.8649C86.5016 80.8587 86.4895 80.8528 86.4775 80.8467C81.8998 78.3482 77.3561 76.7919 73.1552 77.0808C68.2101 77.4219 64.9021 82.5014 62.369 89.2497C60.8765 92.9713 59.738 96.8136 58.6907 100.66C57.5299 104.853 56.5492 109.087 55.3484 113.228C54.7407 115.29 54.1193 117.354 53.2755 119.273C52.8512 120.223 52.3704 121.152 51.7712 121.889C51.4716 122.25 51.1402 122.554 50.8068 122.729C50.7251 122.786 50.6395 122.796 50.5584 122.837C50.476 122.869 50.3928 122.872 50.3116 122.898C50.2237 122.9 50.1545 122.909 50.0522 122.91L49.6921 122.886C49.5707 122.882 49.4531 122.869 49.338 122.848C49.2222 122.83 49.1045 122.816 48.99 122.795C48.7691 122.736 48.5393 122.694 48.3343 122.606C47.9122 122.454 47.5254 122.24 47.1989 121.946C46.8701 121.657 46.5804 121.311 46.3474 120.908C46.1199 120.501 45.9235 120.061 45.7788 119.588C45.4814 118.645 45.3383 117.616 45.2581 116.577C45.1798 115.536 45.1826 114.475 45.2065 113.41C45.3332 109.139 45.9594 104.832 46.3588 100.502C46.757 96.4725 47.0537 92.397 46.8384 88.3179C46.6463 82.169 45.2114 76.7269 40.9047 73.4645C39.2767 72.2314 37.2763 71.7428 35.0389 71.7428C33.6519 71.7428 32.1736 71.9317 30.6375 72.2463C27.0789 72.8885 23.6604 74.0366 20.2811 75.1633C18.4427 75.7738 16.6127 76.3922 14.7788 76.9476C12.9454 77.4937 11.0944 77.9807 9.25239 78.2015C8.33459 78.3033 7.41638 78.3576 6.54638 78.2537C6.10828 78.212 5.69208 78.1135 5.28998 77.9945C4.89978 77.8536 4.51868 77.6957 4.18978 77.4657C3.86158 77.237 3.55328 76.9799 3.30578 76.6572C3.16818 76.51 3.06738 76.3265 2.94888 76.1599C2.84668 75.9791 2.74368 75.7975 2.65478 75.6055C2.30268 74.8327 2.09558 73.9586 1.98078 73.0593C1.91768 72.6131 1.88668 72.1442 1.86158 71.6961C1.85148 71.2827 1.88598 70.8806 1.98038 70.5018C2.08558 70.1272 2.24378 69.7753 2.45888 69.4493C2.68518 69.1294 2.96698 68.8379 3.28568 68.5708C3.94358 68.0513 4.74278 67.6399 5.59958 67.3226C6.45468 66.9993 7.35928 66.7564 8.27638 66.5378C11.968 65.6929 15.8481 65.381 19.6903 64.7915C21.6152 64.5068 23.5454 64.193 25.455 63.7452C27.1656 63.3386 28.8682 62.8402 30.4997 62.1426C34.6711 60.4843 37.7326 57.771 38.2178 52.9682C38.7018 48.1782 35.0174 44.7742 29.7427 41.9537C26.2949 40.0053 22.6336 38.5134 19.0011 37.0464C16.9879 36.2334 14.9729 35.4371 12.982 34.6101C10.9958 33.7759 9.02838 32.9034 7.17678 31.8766C6.25488 31.3596 5.35758 30.8117 4.53638 30.1932C3.71218 29.5796 2.98108 28.8766 2.43868 28.0965C2.18178 27.7011 1.97648 27.2891 1.84158 26.8637C1.71488 26.4365 1.67388 25.9966 1.69588 25.5527C1.71488 25.1077 1.84678 24.663 1.99598 24.2048C2.16968 23.7706 2.36118 23.3455 2.64048 23.0031C2.76208 22.8147 2.92878 22.6729 3.07478 22.5099C3.24648 22.3755 3.40428 22.2239 3.59918 22.1174C3.77648 21.9878 3.99058 21.9085 4.18898 21.8057C4.40828 21.7366 4.61398 21.6406 4.84808 21.5968C5.29738 21.4702 5.78828 21.433 6.27758 21.4017C6.77438 21.3955 7.27728 21.4081 7.78608 21.4673C9.82518 21.6892 11.8682 22.3271 13.8682 23.0471C17.8785 24.5189 21.7378 26.4833 25.5826 28.4564C29.2929 30.393 32.9728 32.4115 36.6975 34.3611C42.3465 37.4794 47.0016 39.7985 49.2645 39.5008C51.8246 39.1659 53.7071 35.2358 55.367 29.809C56.4205 26.6771 57.2834 23.4946 58.1105 20.3141C59.0242 16.8826 59.8395 13.4305 60.8427 10.0575C61.3455 8.3746 61.8626 6.6956 62.5264 5.1132C62.8565 4.325 63.2313 3.562 63.67 2.897C63.8922 2.5729 64.1323 2.2723 64.3817 2.0537C64.6334 1.8314 64.8722 1.7245 65.0658 1.7172C65.2682 1.7102 65.4191 1.753 65.623 1.9371C65.8221 2.1207 66.0137 2.4331 66.1702 2.7758C66.493 3.4659 66.6916 4.2992 66.8556 5.1269C67.1735 6.8019 67.2997 8.5533 67.402 10.3015C67.6022 13.8075 67.5559 17.3487 67.5483 20.8904C67.5163 24.3697 67.4681 27.8563 67.4924 31.3486C67.3688 37.6127 67.5385 41.4656 68.6348 42.3473C69.8224 43.302 73.5326 41.4767 81.0149 37.5161Z" fill="#12603D"/>
</g>
<defs>
<radialGradient id="paint0_radial_938_25155" cx="0" cy="0" r="1" gradientUnits="userSpaceOnUse" gradientTransform="translate(62.6072 62.3104) rotate(30.6596) scale(74.9617 65.5787)">
<stop stop-color="#BACF97"/>
<stop offset="0.5" stop-color="#7ECF97"/>
<stop offset="0.745924" stop-color="#5AAB90"/>
<stop offset="1" stop-color="#005280"/>
</radialGradient>
</defs>
</svg>
