<svg width="112" height="24" viewBox="0 0 112 24" fill="none" xmlns="http://www.w3.org/2000/svg">
<g id="R-ICO-014314">
<g id="DARUNAVIR">
<g id="LEFT_ELEMENT">
<mask id="mask0_938_22893" style="mask-type:luminance" maskUnits="userSpaceOnUse" x="0" y="0" width="8" height="24">
<rect id="MASK" width="8" height="24" transform="matrix(-1 0 0 1 8 0)" fill="white"/>
</mask>
<g mask="url(#mask0_938_22893)">
<g id="LEFT_CORNER">
<mask id="path-2-outside-1_938_22893" maskUnits="userSpaceOnUse" x="0" y="-1" width="10" height="26" fill="black">
<rect fill="white" y="-1" width="10" height="26"/>
<path d="M2 12C2 12 6.04738 5.90524 8 2V22C6.04738 18.0948 2 12 2 12Z"/>
</mask>
<path d="M2 12C2 12 6.04738 5.90524 8 2V22C6.04738 18.0948 2 12 2 12Z" fill="url(#paint0_linear_938_22893)"/>
<path d="M2 12C2 12 6.04738 5.90524 8 2V22C6.04738 18.0948 2 12 2 12Z" stroke="#946BE6" stroke-width="4" stroke-miterlimit="3.99933" stroke-linejoin="round" mask="url(#path-2-outside-1_938_22893)"/>
</g>
</g>
</g>
<g id="CENTRE shape">
<mask id="path-3-outside-2_938_22893" maskUnits="userSpaceOnUse" x="8" y="0" width="72" height="24" fill="black">
<rect fill="white" x="8" width="72" height="24"/>
<path d="M8 2H80V22H8V2Z"/>
</mask>
<path d="M8 2H80V22H8V2Z" fill="url(#paint1_linear_938_22893)"/>
<path d="M8 2V4H80V2V0H8V2ZM80 22V20H8V22V24H80V22Z" fill="#946BE6" mask="url(#path-3-outside-2_938_22893)"/>
<text id="Chemical" fill="white" xml:space="preserve" style="white-space: pre" font-family="Arial" font-size="12" font-weight="bold" letter-spacing="0em"><tspan x="8.42188" y="16.1602">DARUNAVIR</tspan></text>
</g>
<g id="RIGHT_ELEMENT">
<mask id="mask1_938_22893" style="mask-type:luminance" maskUnits="userSpaceOnUse" x="80" y="0" width="32" height="24">
<path id="MASK_2" d="M80 24L112 24L112 -8.90181e-07L80 1.90735e-06L80 24Z" fill="white"/>
</mask>
<g mask="url(#mask1_938_22893)">
<g id="Mask group">
<g id="ELEMENT">
<g id="BG">
<mask id="path-7-outside-3_938_22893" maskUnits="userSpaceOnUse" x="78" y="-1.74846e-07" width="34" height="24" fill="black">
<rect fill="white" x="78" y="-1.74846e-07" width="34" height="24"/>
<path d="M110 12C110 12 105.953 18.0948 104 22L80 21.9999L80 2L104 2C105.953 5.90524 110 12 110 12Z"/>
</mask>
<path d="M110 12C110 12 105.953 18.0948 104 22L80 21.9999L80 2L104 2C105.953 5.90524 110 12 110 12Z" fill="#946BE6"/>
<path d="M110 12C110 12 105.953 18.0948 104 22L80 21.9999L80 2L104 2C105.953 5.90524 110 12 110 12Z" stroke="#946BE6" stroke-width="4" stroke-miterlimit="3.99933" stroke-linejoin="round" mask="url(#path-7-outside-3_938_22893)"/>
</g>
<g id="RX">
<path id="Vector" d="M89 22V14H92.3071C93.1387 14 93.743 14.0718 94.1199 14.2155C94.4968 14.3592 94.7984 14.6148 95.0249 14.9822C95.2514 15.3496 95.3647 15.7698 95.3647 16.2428C95.3647 16.843 95.193 17.3388 94.8497 17.7298C94.5064 18.1209 93.9933 18.3675 93.3103 18.4693C93.6501 18.6731 93.9305 18.8968 94.1517 19.1405C94.3728 19.3842 94.671 19.8172 95.0461 20.4393L95.9963 22H94.1172L92.9812 20.2592C92.5778 19.6371 92.3017 19.2451 92.1531 19.0832C92.0044 18.9214 91.847 18.8104 91.6807 18.7504C91.5144 18.6904 91.2507 18.6603 90.8898 18.6603H90.5713V22H89ZM90.5713 17.3834H91.7338C92.4875 17.3834 92.9583 17.3506 93.1458 17.2851C93.3333 17.2196 93.4802 17.1068 93.5864 16.9468C93.6925 16.7867 93.7456 16.5866 93.7456 16.3465C93.7456 16.0773 93.6758 15.8599 93.536 15.6944C93.3962 15.5289 93.1989 15.4243 92.9441 15.3806C92.8167 15.3625 92.4345 15.3533 91.7975 15.3533H90.5713V17.3834Z" fill="white"/>
<path id="Vector_2" d="M95.9961 21.9999L98.0291 19.0149L96.0811 16.2046H97.9018L98.8998 17.798L99.9509 16.2046H101.703L99.7917 18.9495L101.878 22H100.046L98.8998 20.2047L97.7426 21.9999H95.9961Z" fill="white"/>
</g>
</g>
<g id="RIGHT_ELEMENT_2">
<mask id="mask2_938_22893" style="mask-type:alpha" maskUnits="userSpaceOnUse" x="80" y="0" width="8" height="24">
<rect id="MASK_3" x="80" width="8" height="24" fill="white"/>
</mask>
<g mask="url(#mask2_938_22893)">
<g id="LEFT_CORNER_2">
<mask id="path-11-outside-4_938_22893" maskUnits="userSpaceOnUse" x="78" y="-1" width="10" height="26" fill="black">
<rect fill="white" x="78" y="-1" width="10" height="26"/>
<path d="M86 12C86 12 81.9526 5.90524 80 2V22C81.9526 18.0948 86 12 86 12Z"/>
</mask>
<path d="M86 12C86 12 81.9526 5.90524 80 2V22C81.9526 18.0948 86 12 86 12Z" fill="url(#paint2_linear_938_22893)"/>
<path d="M86 12C86 12 81.9526 5.90524 80 2V22C81.9526 18.0948 86 12 86 12Z" stroke="#946BE6" stroke-width="4" stroke-miterlimit="3.99933" stroke-linejoin="round" mask="url(#path-11-outside-4_938_22893)"/>
</g>
</g>
</g>
</g>
</g>
</g>
</g>
</g>
<defs>
<linearGradient id="paint0_linear_938_22893" x1="5" y1="2" x2="5" y2="22" gradientUnits="userSpaceOnUse">
<stop stop-color="#0055FF"/>
<stop offset="1" stop-color="#CC5E58"/>
</linearGradient>
<linearGradient id="paint1_linear_938_22893" x1="44" y1="2" x2="44" y2="22" gradientUnits="userSpaceOnUse">
<stop stop-color="#0055FF"/>
<stop offset="1" stop-color="#CC5E58"/>
</linearGradient>
<linearGradient id="paint2_linear_938_22893" x1="83" y1="2" x2="83" y2="22" gradientUnits="userSpaceOnUse">
<stop stop-color="#0055FF"/>
<stop offset="1" stop-color="#CC5E58"/>
</linearGradient>
</defs>
</svg>
