<svg width="17" height="192" viewBox="0 0 17 192" fill="none" xmlns="http://www.w3.org/2000/svg">
<g id="R-ICO-013223">
<g id="PEST">
<path id="BASE" d="M14.8848 191.496H1.2519C0.5605 191.496 0 190.936 0 190.244V180.382C0 179.69 0.5605 179.13 1.2519 179.13H14.8849C15.5763 179.13 16.1368 179.69 16.1368 180.382V190.244C16.1367 190.936 15.5762 191.496 14.8848 191.496Z" fill="url(#paint0_linear_938_24347)"/>
<path id="SHADE" d="M14.8848 191.496H1.2519C0.5605 191.496 0 190.936 0 190.244V180.382C0 179.69 0.5605 179.13 1.2519 179.13H14.8849C15.5763 179.13 16.1368 179.69 16.1368 180.382V190.244C16.1367 190.936 15.5762 191.496 14.8848 191.496Z" fill="url(#paint1_linear_938_24347)"/>
</g>
<path id="TAD" d="M8.06838 179.332C10.2964 179.332 12.1026 175.034 12.1026 169.733C12.1026 164.432 10.2964 160.134 8.06838 160.134C5.84035 160.134 4.03418 164.432 4.03418 169.733C4.03418 175.034 5.84035 179.332 8.06838 179.332Z" fill="url(#paint2_radial_938_24347)"/>
<g id="ANKYRIN">
<path id="BASE_2" d="M14.1367 160.134H2C0.8954 160.134 0 159.239 0 158.134V130.571C0 129.466 0.8954 128.571 2 128.571H14.1367C15.2413 128.571 16.1367 129.466 16.1367 130.571V158.134C16.1367 159.239 15.2413 160.134 14.1367 160.134Z" fill="url(#paint3_linear_938_24347)"/>
<path id="SHADE_2" d="M14.1367 160.134H2C0.8954 160.134 0 159.239 0 158.134V130.571C0 129.466 0.8954 128.571 2 128.571H14.1367C15.2413 128.571 16.1367 129.466 16.1367 130.571V158.134C16.1367 159.239 15.2413 160.134 14.1367 160.134Z" fill="url(#paint4_linear_938_24347)"/>
</g>
<path id="RAM" d="M8.0683 128.571C12.5243 128.571 16.1366 126.214 16.1366 123.306C16.1366 120.398 12.5243 118.04 8.0683 118.04C3.6123 118.04 0 120.398 0 123.306C0 126.214 3.6123 128.571 8.0683 128.571Z" fill="url(#paint5_radial_938_24347)"/>
<g id="TM">
<path id="BASE_3" d="M14.1367 118.04H2C0.8954 118.04 0 117.145 0 116.04V113.332C0 112.227 0.8954 111.332 2 111.332H14.1367C15.2413 111.332 16.1367 112.227 16.1367 113.332V116.04C16.1367 117.145 15.2413 118.04 14.1367 118.04Z" fill="url(#paint6_linear_938_24347)"/>
<path id="SHADE_3" d="M14.1367 118.04H2C0.8954 118.04 0 117.145 0 116.04V113.332C0 112.227 0.8954 111.332 2 111.332H14.1367C15.2413 111.332 16.1367 112.227 16.1367 113.332V116.04C16.1367 117.145 15.2413 118.04 14.1367 118.04Z" fill="url(#paint7_linear_938_24347)"/>
</g>
<path id="HD" d="M12.5278 97.4034H3.6084V111.332H12.5278V97.4034Z" fill="url(#paint8_linear_938_24347)"/>
<g id="LNR">
<g id="Group">
<path id="BASE_4" d="M14.1367 83.9866H2C0.8954 83.9866 0 83.0912 0 81.9866V79.2782C0 78.1736 0.8954 77.2782 2 77.2782H14.1367C15.2413 77.2782 16.1367 78.1736 16.1367 79.2782V81.9866C16.1367 83.0912 15.2413 83.9866 14.1367 83.9866Z" fill="url(#paint9_linear_938_24347)"/>
<path id="SHADE_4" d="M14.1367 83.9866H2C0.8954 83.9866 0 83.0912 0 81.9866V79.2782C0 78.1736 0.8954 77.2782 2 77.2782H14.1367C15.2413 77.2782 16.1367 78.1736 16.1367 79.2782V81.9866C16.1367 83.0912 15.2413 83.9866 14.1367 83.9866Z" fill="url(#paint10_linear_938_24347)"/>
</g>
<g id="Group_2">
<path id="BASE_5" d="M14.1367 90.695H2C0.8954 90.695 0 89.7996 0 88.695V85.9866C0 84.882 0.8954 83.9866 2 83.9866H14.1367C15.2413 83.9866 16.1367 84.882 16.1367 85.9866V88.695C16.1367 89.7996 15.2413 90.695 14.1367 90.695Z" fill="url(#paint11_linear_938_24347)"/>
<path id="SHADE_5" d="M14.1367 90.695H2C0.8954 90.695 0 89.7996 0 88.695V85.9866C0 84.882 0.8954 83.9866 2 83.9866H14.1367C15.2413 83.9866 16.1367 84.882 16.1367 85.9866V88.695C16.1367 89.7996 15.2413 90.695 14.1367 90.695Z" fill="url(#paint12_linear_938_24347)"/>
</g>
<g id="Group_3">
<path id="BASE_6" d="M14.1367 97.4033H2C0.8954 97.4033 0 96.5079 0 95.4033V92.6949C0 91.5903 0.8954 90.6949 2 90.6949H14.1367C15.2413 90.6949 16.1367 91.5903 16.1367 92.6949V95.4033C16.1367 96.5078 15.2413 97.4033 14.1367 97.4033Z" fill="url(#paint13_linear_938_24347)"/>
<path id="SHADE_6" d="M14.1367 97.4033H2C0.8954 97.4033 0 96.5079 0 95.4033V92.6949C0 91.5903 0.8954 90.6949 2 90.6949H14.1367C15.2413 90.6949 16.1367 91.5903 16.1367 92.6949V95.4033C16.1367 96.5078 15.2413 97.4033 14.1367 97.4033Z" fill="url(#paint14_linear_938_24347)"/>
</g>
</g>
<g id="EGFR">
<path id="Vector" d="M14.1367 77.2782H2C0.8954 77.2782 0 76.3828 0 75.2782V2C0 0.8954 0.8954 0 2 0H14.1367C15.2413 0 16.1367 0.8954 16.1367 2V75.2782C16.1367 76.3828 15.2413 77.2782 14.1367 77.2782Z" fill="url(#paint15_linear_938_24347)"/>
<g id="LINES">
<path id="Vector_2" d="M0 7.72778H16.1367" stroke="#92A1FF" stroke-miterlimit="10"/>
<path id="Vector_3" d="M0 15.4556H16.1367" stroke="#92A1FF" stroke-miterlimit="10"/>
<path id="Vector_4" d="M0 23.1835H16.1367" stroke="#92A1FF" stroke-miterlimit="10"/>
<path id="Vector_5" d="M0 30.9113H16.1367" stroke="#92A1FF" stroke-miterlimit="10"/>
<path id="Vector_6" d="M0 38.639H16.1367" stroke="#92A1FF" stroke-miterlimit="10"/>
<path id="Vector_7" d="M0 46.3669H16.1367" stroke="#92A1FF" stroke-miterlimit="10"/>
<path id="Vector_8" d="M0 54.0947H16.1367" stroke="#92A1FF" stroke-miterlimit="10"/>
<path id="Vector_9" d="M0 61.8226H16.1367" stroke="#92A1FF" stroke-miterlimit="10"/>
<path id="Vector_10" d="M0 69.5504H16.1367" stroke="#92A1FF" stroke-miterlimit="10"/>
</g>
<path id="SHADE_7" d="M14.1367 77.2782H2C0.8954 77.2782 0 76.3828 0 75.2782V2C0 0.8954 0.8954 0 2 0H14.1367C15.2413 0 16.1367 0.8954 16.1367 2V75.2782C16.1367 76.3828 15.2413 77.2782 14.1367 77.2782Z" fill="url(#paint16_linear_938_24347)"/>
</g>
</g>
<defs>
<linearGradient id="paint0_linear_938_24347" x1="0" y1="185.313" x2="16.1367" y2="185.313" gradientUnits="userSpaceOnUse">
<stop stop-color="#969696"/>
<stop offset="0.1985" stop-color="#E8E8E8"/>
<stop offset="0.4998" stop-color="#969696"/>
<stop offset="1" stop-color="#232C63"/>
</linearGradient>
<linearGradient id="paint1_linear_938_24347" x1="8.0684" y1="179.13" x2="8.0684" y2="191.496" gradientUnits="userSpaceOnUse">
<stop offset="0.7" stop-color="#4759C8" stop-opacity="0"/>
<stop offset="0.7532" stop-color="#4557C3" stop-opacity="0.1772"/>
<stop offset="0.8163" stop-color="#4050B5" stop-opacity="0.3875"/>
<stop offset="0.8844" stop-color="#38469D" stop-opacity="0.6146"/>
<stop offset="0.9556" stop-color="#2C377C" stop-opacity="0.8519"/>
<stop offset="1" stop-color="#232C63"/>
</linearGradient>
<radialGradient id="paint2_radial_938_24347" cx="0" cy="0" r="1" gradientUnits="userSpaceOnUse" gradientTransform="translate(6.80168 167.578) scale(4.7842 9.66552)">
<stop stop-color="#E8E8E8"/>
<stop offset="1" stop-color="#283480"/>
</radialGradient>
<linearGradient id="paint3_linear_938_24347" x1="0" y1="144.353" x2="16.1367" y2="144.353" gradientUnits="userSpaceOnUse">
<stop stop-color="#969696"/>
<stop offset="0.1985" stop-color="#E8E8E8"/>
<stop offset="0.4998" stop-color="#969696"/>
<stop offset="1" stop-color="#232C63"/>
</linearGradient>
<linearGradient id="paint4_linear_938_24347" x1="8.0684" y1="128.571" x2="8.0684" y2="160.134" gradientUnits="userSpaceOnUse">
<stop offset="0.7" stop-color="#4759C8" stop-opacity="0"/>
<stop offset="0.7532" stop-color="#4557C3" stop-opacity="0.1772"/>
<stop offset="0.8163" stop-color="#4050B5" stop-opacity="0.3875"/>
<stop offset="0.8844" stop-color="#38469D" stop-opacity="0.6146"/>
<stop offset="0.9556" stop-color="#2C377C" stop-opacity="0.8519"/>
<stop offset="1" stop-color="#232C63"/>
</linearGradient>
<radialGradient id="paint5_radial_938_24347" cx="0" cy="0" r="1" gradientUnits="userSpaceOnUse" gradientTransform="translate(5.5348 122.132) scale(10.9452 6.27051)">
<stop stop-color="#E8E8E8"/>
<stop offset="1" stop-color="#1D2452"/>
</radialGradient>
<linearGradient id="paint6_linear_938_24347" x1="0" y1="114.686" x2="16.1367" y2="114.686" gradientUnits="userSpaceOnUse">
<stop stop-color="#969696"/>
<stop offset="0.1985" stop-color="#E8E8E8"/>
<stop offset="0.4998" stop-color="#969696"/>
<stop offset="1" stop-color="#232C63"/>
</linearGradient>
<linearGradient id="paint7_linear_938_24347" x1="8.0684" y1="111.332" x2="8.0684" y2="118.04" gradientUnits="userSpaceOnUse">
<stop offset="0.3658" stop-color="#4759C8" stop-opacity="0"/>
<stop offset="0.4782" stop-color="#4557C3" stop-opacity="0.1772"/>
<stop offset="0.6116" stop-color="#4050B5" stop-opacity="0.3875"/>
<stop offset="0.7556" stop-color="#38469D" stop-opacity="0.6146"/>
<stop offset="0.9061" stop-color="#2C377C" stop-opacity="0.8519"/>
<stop offset="1" stop-color="#232C63"/>
</linearGradient>
<linearGradient id="paint8_linear_938_24347" x1="3.5744" y1="104.346" x2="12.5619" y2="104.39" gradientUnits="userSpaceOnUse">
<stop stop-color="#969696"/>
<stop offset="0.2264" stop-color="#939395"/>
<stop offset="0.4116" stop-color="#898A91"/>
<stop offset="0.5823" stop-color="#777A8B"/>
<stop offset="0.7443" stop-color="#5F6483"/>
<stop offset="0.8987" stop-color="#414879"/>
<stop offset="1" stop-color="#283270"/>
</linearGradient>
<linearGradient id="paint9_linear_938_24347" x1="0" y1="80.6324" x2="16.1367" y2="80.6324" gradientUnits="userSpaceOnUse">
<stop stop-color="#969696"/>
<stop offset="0.1985" stop-color="#E8E8E8"/>
<stop offset="0.4998" stop-color="#969696"/>
<stop offset="1" stop-color="#232C63"/>
</linearGradient>
<linearGradient id="paint10_linear_938_24347" x1="8.0684" y1="77.2782" x2="8.0684" y2="83.9866" gradientUnits="userSpaceOnUse">
<stop offset="0.3658" stop-color="#4759C8" stop-opacity="0"/>
<stop offset="0.4782" stop-color="#4557C3" stop-opacity="0.1772"/>
<stop offset="0.6116" stop-color="#4050B5" stop-opacity="0.3875"/>
<stop offset="0.7556" stop-color="#38469D" stop-opacity="0.6146"/>
<stop offset="0.9061" stop-color="#2C377C" stop-opacity="0.8519"/>
<stop offset="1" stop-color="#232C63"/>
</linearGradient>
<linearGradient id="paint11_linear_938_24347" x1="0" y1="87.3408" x2="16.1367" y2="87.3408" gradientUnits="userSpaceOnUse">
<stop stop-color="#969696"/>
<stop offset="0.1985" stop-color="#E8E8E8"/>
<stop offset="0.4998" stop-color="#969696"/>
<stop offset="1" stop-color="#232C63"/>
</linearGradient>
<linearGradient id="paint12_linear_938_24347" x1="8.0684" y1="83.9866" x2="8.0684" y2="90.695" gradientUnits="userSpaceOnUse">
<stop offset="0.3658" stop-color="#4759C8" stop-opacity="0"/>
<stop offset="0.4782" stop-color="#4557C3" stop-opacity="0.1772"/>
<stop offset="0.6116" stop-color="#4050B5" stop-opacity="0.3875"/>
<stop offset="0.7556" stop-color="#38469D" stop-opacity="0.6146"/>
<stop offset="0.9061" stop-color="#2C377C" stop-opacity="0.8519"/>
<stop offset="1" stop-color="#232C63"/>
</linearGradient>
<linearGradient id="paint13_linear_938_24347" x1="0" y1="94.0491" x2="16.1367" y2="94.0491" gradientUnits="userSpaceOnUse">
<stop stop-color="#969696"/>
<stop offset="0.1985" stop-color="#E8E8E8"/>
<stop offset="0.4998" stop-color="#969696"/>
<stop offset="1" stop-color="#232C63"/>
</linearGradient>
<linearGradient id="paint14_linear_938_24347" x1="8.0684" y1="90.6949" x2="8.0684" y2="97.4032" gradientUnits="userSpaceOnUse">
<stop offset="0.3658" stop-color="#4759C8" stop-opacity="0"/>
<stop offset="0.4782" stop-color="#4557C3" stop-opacity="0.1772"/>
<stop offset="0.6116" stop-color="#4050B5" stop-opacity="0.3875"/>
<stop offset="0.7556" stop-color="#38469D" stop-opacity="0.6146"/>
<stop offset="0.9061" stop-color="#2C377C" stop-opacity="0.8519"/>
<stop offset="1" stop-color="#232C63"/>
</linearGradient>
<linearGradient id="paint15_linear_938_24347" x1="-0.1794" y1="38.5987" x2="16.316" y2="38.6795" gradientUnits="userSpaceOnUse">
<stop stop-color="#969696"/>
<stop offset="0.1985" stop-color="#E8E8E8"/>
<stop offset="0.4998" stop-color="#969696"/>
<stop offset="1" stop-color="#232C63"/>
</linearGradient>
<linearGradient id="paint16_linear_938_24347" x1="8.0684" y1="0" x2="8.0684" y2="77.2782" gradientUnits="userSpaceOnUse">
<stop offset="0.9" stop-color="#4759C8" stop-opacity="0"/>
<stop offset="0.9177" stop-color="#4557C3" stop-opacity="0.1772"/>
<stop offset="0.9388" stop-color="#4050B5" stop-opacity="0.3875"/>
<stop offset="0.9615" stop-color="#38469D" stop-opacity="0.6146"/>
<stop offset="0.9852" stop-color="#2C377C" stop-opacity="0.8519"/>
<stop offset="1" stop-color="#232C63"/>
</linearGradient>
</defs>
</svg>
