<svg width="83" height="24" viewBox="0 0 83 24" fill="none" xmlns="http://www.w3.org/2000/svg">
<g id="R-ICO-014517">
<g id="PREDNISONE">
<g id="LEFT_ELEMENT">
<mask id="mask0_938_22916" style="mask-type:luminance" maskUnits="userSpaceOnUse" x="0" y="0" width="8" height="24">
<rect id="MASK" width="8" height="24" transform="matrix(-1 0 0 1 8 0)" fill="white"/>
</mask>
<g mask="url(#mask0_938_22916)">
<g id="LEFT_CORNER">
<mask id="path-2-outside-1_938_22916" maskUnits="userSpaceOnUse" x="0" y="-1" width="10" height="26" fill="black">
<rect fill="white" y="-1" width="10" height="26"/>
<path d="M2 12C2 12 6.04738 5.90524 8 2V22C6.04738 18.0948 2 12 2 12Z"/>
</mask>
<path d="M2 12C2 12 6.04738 5.90524 8 2V22C6.04738 18.0948 2 12 2 12Z" fill="url(#paint0_linear_938_22916)"/>
<path d="M2 12C2 12 6.04738 5.90524 8 2V22C6.04738 18.0948 2 12 2 12Z" stroke="#946BE6" stroke-width="4" stroke-miterlimit="3.99933" stroke-linejoin="round" mask="url(#path-2-outside-1_938_22916)"/>
</g>
</g>
</g>
<g id="CENTRE shape">
<mask id="path-3-outside-2_938_22916" maskUnits="userSpaceOnUse" x="8" y="0" width="43" height="24" fill="black">
<rect fill="white" x="8" width="43" height="24"/>
<path d="M8 2H51V22H8V2Z"/>
</mask>
<path d="M8 2H51V22H8V2Z" fill="url(#paint1_linear_938_22916)"/>
<path d="M8 2V4H51V2V0H8V2ZM51 22V20H8V22V24H51V22Z" fill="#946BE6" mask="url(#path-3-outside-2_938_22916)"/>
<text id="Chemical" fill="white" xml:space="preserve" style="white-space: pre" font-family="Arial" font-size="12" font-weight="bold" letter-spacing="0em"><tspan x="8.48828" y="16.1602">PREDN</tspan></text>
</g>
<g id="RIGHT_ELEMENT">
<mask id="mask1_938_22916" style="mask-type:luminance" maskUnits="userSpaceOnUse" x="51" y="0" width="32" height="24">
<path id="MASK_2" d="M51 24L83 24L83 -8.90181e-07L51 1.90735e-06L51 24Z" fill="white"/>
</mask>
<g mask="url(#mask1_938_22916)">
<g id="Mask group">
<g id="ELEMENT">
<g id="BG">
<mask id="path-7-outside-3_938_22916" maskUnits="userSpaceOnUse" x="49" y="-1.74846e-07" width="34" height="24" fill="black">
<rect fill="white" x="49" y="-1.74846e-07" width="34" height="24"/>
<path d="M81 12C81 12 76.9526 18.0948 75 22L51 21.9999L51 2L75 2C76.9526 5.90524 81 12 81 12Z"/>
</mask>
<path d="M81 12C81 12 76.9526 18.0948 75 22L51 21.9999L51 2L75 2C76.9526 5.90524 81 12 81 12Z" fill="#946BE6"/>
<path d="M81 12C81 12 76.9526 18.0948 75 22L51 21.9999L51 2L75 2C76.9526 5.90524 81 12 81 12Z" stroke="#946BE6" stroke-width="4" stroke-miterlimit="3.99933" stroke-linejoin="round" mask="url(#path-7-outside-3_938_22916)"/>
</g>
<g id="RX">
<path id="Vector" d="M60 22V14H63.3071C64.1387 14 64.743 14.0718 65.1199 14.2155C65.4968 14.3592 65.7984 14.6148 66.0249 14.9822C66.2514 15.3496 66.3647 15.7698 66.3647 16.2428C66.3647 16.843 66.193 17.3388 65.8497 17.7298C65.5064 18.1209 64.9933 18.3675 64.3103 18.4693C64.6501 18.6731 64.9305 18.8968 65.1517 19.1405C65.3728 19.3842 65.671 19.8172 66.0461 20.4393L66.9963 22H65.1172L63.9812 20.2592C63.5778 19.6371 63.3017 19.2451 63.1531 19.0832C63.0044 18.9214 62.847 18.8104 62.6807 18.7504C62.5144 18.6904 62.2507 18.6603 61.8898 18.6603H61.5713V22H60ZM61.5713 17.3834H62.7338C63.4875 17.3834 63.9583 17.3506 64.1458 17.2851C64.3333 17.2196 64.4802 17.1068 64.5864 16.9468C64.6925 16.7867 64.7456 16.5866 64.7456 16.3465C64.7456 16.0773 64.6758 15.8599 64.536 15.6944C64.3962 15.5289 64.1989 15.4243 63.9441 15.3806C63.8167 15.3625 63.4345 15.3533 62.7975 15.3533H61.5713V17.3834Z" fill="white"/>
<path id="Vector_2" d="M66.9963 21.9999L69.0294 19.0149L67.0813 16.2046H68.9021L69.9001 17.798L70.9512 16.2046H72.7029L70.7919 18.9495L72.878 22H71.0467L69.9001 20.2047L68.7428 21.9999H66.9963Z" fill="white"/>
</g>
</g>
<g id="RIGHT_ELEMENT_2">
<mask id="mask2_938_22916" style="mask-type:alpha" maskUnits="userSpaceOnUse" x="51" y="0" width="8" height="24">
<rect id="MASK_3" x="51" width="8" height="24" fill="white"/>
</mask>
<g mask="url(#mask2_938_22916)">
<g id="LEFT_CORNER_2">
<mask id="path-11-outside-4_938_22916" maskUnits="userSpaceOnUse" x="49" y="-1" width="10" height="26" fill="black">
<rect fill="white" x="49" y="-1" width="10" height="26"/>
<path d="M57 12C57 12 52.9526 5.90524 51 2V22C52.9526 18.0948 57 12 57 12Z"/>
</mask>
<path d="M57 12C57 12 52.9526 5.90524 51 2V22C52.9526 18.0948 57 12 57 12Z" fill="url(#paint2_linear_938_22916)"/>
<path d="M57 12C57 12 52.9526 5.90524 51 2V22C52.9526 18.0948 57 12 57 12Z" stroke="#946BE6" stroke-width="4" stroke-miterlimit="3.99933" stroke-linejoin="round" mask="url(#path-11-outside-4_938_22916)"/>
</g>
</g>
</g>
</g>
</g>
</g>
</g>
</g>
<defs>
<linearGradient id="paint0_linear_938_22916" x1="5" y1="2" x2="5" y2="22" gradientUnits="userSpaceOnUse">
<stop stop-color="#C17897"/>
<stop offset="1" stop-color="#8120B6"/>
</linearGradient>
<linearGradient id="paint1_linear_938_22916" x1="29.5" y1="2" x2="29.5" y2="22" gradientUnits="userSpaceOnUse">
<stop stop-color="#C17897"/>
<stop offset="1" stop-color="#8120B6"/>
</linearGradient>
<linearGradient id="paint2_linear_938_22916" x1="54" y1="2" x2="54" y2="22" gradientUnits="userSpaceOnUse">
<stop stop-color="#C17897"/>
<stop offset="1" stop-color="#8120B6"/>
</linearGradient>
</defs>
</svg>
