<svg width="95" height="96" viewBox="0 0 95 96" fill="none" xmlns="http://www.w3.org/2000/svg">
<g id="R-ICO-013694">
<path id="Vector" d="M54.4609 95.1049C56.9463 95.1049 58.9609 93.0903 58.9609 90.6049V24.5005C58.9609 21.4683 61.4287 19.0005 64.4609 19.0005H80.3235C88.3186 19.0005 94.8235 12.4956 94.8235 4.5C94.8235 2.0146 92.8089 0 90.3235 0C87.8381 0 85.8235 2.0146 85.8235 4.5C85.8235 7.5332 83.3557 10.0005 80.3235 10.0005H64.4609C56.4658 10.0005 49.9609 16.5054 49.9609 24.5005V90.605C49.9609 93.0903 51.9756 95.1049 54.4609 95.1049Z" fill="url(#paint0_linear_938_22988)"/>
<path id="Vector_2" d="M40.3626 95.1049C37.8772 95.1049 35.8626 93.0903 35.8626 90.6049V24.5005C35.8626 21.4683 33.3948 19.0005 30.3626 19.0005H14.5C6.5049 19.0005 0 12.4956 0 4.5C0 2.0146 2.0146 0 4.5 0C6.9854 0 9 2.0146 9 4.5C9 7.5332 11.4678 10.0005 14.5 10.0005H30.3626C38.3577 10.0005 44.8626 16.5054 44.8626 24.5005V90.605C44.8626 93.0903 42.848 95.1049 40.3626 95.1049Z" fill="url(#paint1_linear_938_22988)"/>
</g>
<defs>
<linearGradient id="paint0_linear_938_22988" x1="72.3922" y1="95.1049" x2="72.3922" y2="0" gradientUnits="userSpaceOnUse">
<stop stop-color="#4195A3"/>
<stop offset="1" stop-color="#380064"/>
</linearGradient>
<linearGradient id="paint1_linear_938_22988" x1="22.4313" y1="95.1049" x2="22.4313" y2="0" gradientUnits="userSpaceOnUse">
<stop stop-color="#4195A3"/>
<stop offset="1" stop-color="#380064"/>
</linearGradient>
</defs>
</svg>
