<svg width="91" height="90" viewBox="0 0 91 90" fill="none" xmlns="http://www.w3.org/2000/svg">
<g id="R-ICO-013964">
<g id="BOTTOM">
<path id="RIGHT BG" d="M59.2954 0.0141168C49.824 0.512775 50.8337 12.9511 51.5305 20.3153C52.2273 27.6795 50.055 30.2669 49.3766 37.034C48.6981 43.801 49.2934 51.4787 49.815 57.3352C50.3367 63.1917 48.3031 74.1703 52.3084 76.3014C56.3138 78.4325 76.0109 82.8312 80.5581 88.1951C85.1052 93.5589 90.487 81.6171 90.118 63.9032C89.7489 46.1893 88.5272 31.4611 85.7017 24.694C82.8763 17.9269 70.6356 -0.58303 59.2954 0.0141168Z" fill="url(#paint0_linear_938_24545)"/>
<path id="RIGHT MID" d="M80.5582 80.1056C76.011 74.7418 74.3218 74.9825 70.3165 72.8515C66.311 70.7203 64.1633 70.6477 63.6417 64.7913C63.12 58.9348 61.9037 52.5998 62.5822 45.8328C63.2606 39.0657 59.041 29.584 58.3442 22.2198C57.6474 14.8557 49.8241 0.512819 59.2953 0.0141602C49.8241 0.512819 50.8336 12.9513 51.5306 20.3154C52.2274 27.6795 50.0551 30.2669 49.3766 37.034C48.6981 43.8011 49.2935 51.4788 49.815 57.3352C50.3366 63.1916 48.303 74.1703 52.3084 76.3014C56.3139 78.4325 76.011 82.8312 80.5581 88.1951C82.7215 90.7471 85.0727 89.3757 86.9048 85.335C85.0729 89.2372 82.7212 82.6573 80.5582 80.1056Z" fill="url(#paint1_radial_938_24545)"/>
<path id="LEFT BG" d="M30.8407 0.0141169C40.312 0.512775 39.3024 12.9511 38.6056 20.3153C37.9087 27.6795 40.081 30.2669 40.7595 37.034C41.4379 43.801 40.8427 51.4787 40.321 57.3352C39.7994 63.1917 41.833 74.1703 37.8276 76.3014C33.8223 78.4325 14.125 82.8311 9.57786 88.195C5.03073 93.5588 -0.351095 81.617 0.0179893 63.9031C0.387074 46.1892 1.6087 31.461 4.43427 24.6939C7.25984 17.9268 19.5003 -0.58303 30.8407 0.0141169Z" fill="url(#paint2_linear_938_24545)"/>
<path id="LEFT MID" d="M40.321 57.3352C40.8426 51.4787 41.4379 43.8011 40.7594 37.034C40.081 30.2669 37.9087 27.6795 38.6055 20.3154C39.3023 12.9513 40.312 0.512819 30.8406 0.0141602C40.312 0.512819 35.9345 13.1528 35.2377 20.517C34.5408 27.8811 32.4205 34.0707 33.0991 40.8377C33.7775 47.6048 31.7234 56.4373 31.2018 62.2938C30.6803 68.1503 28.0027 69.9257 23.9973 72.0568C19.9919 74.188 16.0125 75.753 11.4653 81.1169C10.2521 82.5478 7.11838 89.7262 5.88757 89.0026C7.09401 89.8148 8.36527 89.6256 9.57792 88.1951C14.1251 82.8312 33.8222 78.4325 37.8276 76.3014C41.8329 74.1703 39.7992 63.1916 40.321 57.3352Z" fill="url(#paint3_radial_938_24545)"/>
</g>
<g id="TOP">
<path id="RIGHT" d="M59.2954 0.0141168C49.824 0.512775 57.6473 14.8555 58.3442 22.2198C59.0411 29.5839 63.2607 39.0657 62.5822 45.8328C61.9037 52.5998 63.12 58.9348 63.6417 64.7913C64.1633 70.6478 66.311 70.7203 70.3165 72.8514C74.3219 74.9825 76.0111 74.7418 80.5582 80.1056C82.74 82.6793 85.1141 89.3581 86.9527 85.2371C88.946 80.7697 90.31 73.1173 90.1181 63.9031C89.7491 46.1893 88.5274 31.461 85.7018 24.6939C82.8763 17.9269 70.6356 -0.58303 59.2954 0.0141168Z" fill="url(#paint4_radial_938_24545)"/>
<path id="LEFT" d="M30.8407 0.0141168C40.312 0.512775 35.9345 13.1527 35.2376 20.5168C34.5408 27.881 32.4204 34.0705 33.099 40.8376C33.7775 47.6047 31.7234 56.4371 31.2018 62.2936C30.6801 68.1501 28.0027 69.9256 23.9972 72.0567C19.9918 74.1878 16.0124 75.7529 11.4653 81.1167C10.2444 82.5571 7.07578 89.8277 5.86195 88.9958C2.55519 86.7295 -0.251925 76.8604 0.01798 63.9031C0.386966 46.1894 1.60869 31.4611 4.43416 24.694C7.25963 17.9269 19.5003 -0.58303 30.8407 0.0141168Z" fill="url(#paint5_radial_938_24545)"/>
</g>
</g>
<defs>
<linearGradient id="paint0_linear_938_24545" x1="49.2768" y1="2.2455" x2="92.3962" y2="110.044" gradientUnits="userSpaceOnUse">
<stop stop-color="#FF769A"/>
<stop offset="1" stop-color="#A34B62"/>
</linearGradient>
<radialGradient id="paint1_radial_938_24545" cx="0" cy="0" r="1" gradientTransform="matrix(31.7243 -7.11431 8.94879 45.8103 77.921 55.1667)" gradientUnits="userSpaceOnUse">
<stop offset="0.4576" stop-color="#A34B62"/>
<stop offset="0.8153" stop-color="#FF769A" stop-opacity="0"/>
</radialGradient>
<linearGradient id="paint2_linear_938_24545" x1="28.4061" y1="-3.28386" x2="13.4871" y2="111.424" gradientUnits="userSpaceOnUse">
<stop stop-color="#FF769A"/>
<stop offset="1" stop-color="#A34B62"/>
</linearGradient>
<radialGradient id="paint3_radial_938_24545" cx="0" cy="0" r="1" gradientUnits="userSpaceOnUse" gradientTransform="translate(18.5571 43.9876) scale(32.0337 65.0283)">
<stop offset="0.4576" stop-color="#A34B62"/>
<stop offset="0.8153" stop-color="#FF769A" stop-opacity="0"/>
</radialGradient>
<radialGradient id="paint4_radial_938_24545" cx="0" cy="0" r="1" gradientTransform="matrix(36.2358 -6.24299 11.9171 79.4119 69.5089 38.438)" gradientUnits="userSpaceOnUse">
<stop offset="0.0953" stop-color="#FF769A"/>
<stop offset="0.8978" stop-color="#A34B62"/>
</radialGradient>
<radialGradient id="paint5_radial_938_24545" cx="0" cy="0" r="1" gradientTransform="matrix(45.6924 12.0206 -29.9974 130.919 24.7242 39.2128)" gradientUnits="userSpaceOnUse">
<stop stop-color="#FF769A"/>
<stop offset="1" stop-color="#A34B62"/>
</radialGradient>
</defs>
</svg>
