<svg width="82" height="23" viewBox="0 0 82 23" fill="none" xmlns="http://www.w3.org/2000/svg">
<g id="R-ICO-014721">
<g id="ADAMTS13">
<path d="M0.90918 11.5C0.90918 5.97715 5.38633 1.5 10.9092 1.5H69.9092C75.432 1.5 79.9092 5.97715 79.9092 11.5C79.9092 17.0228 75.432 21.5 69.9092 21.5H10.9092C5.38633 21.5 0.90918 17.0228 0.90918 11.5Z" fill="url(#paint0_linear_938_24164)"/>
<path d="M56.1174 2.99266C41.048 2.87443 25.9786 2.52283 10.9092 1.64001C10.9092 1.54664 10.9092 1.45328 10.9092 1.35991C25.9786 0.477089 41.048 0.125486 56.1174 0.00726104C60.7146 -0.0157869 65.3119 0.01886 69.9092 0.0713686C73.2723 0.0821879 76.5677 1.70044 78.6402 4.30012C80.2836 6.31627 81.1755 8.92471 81.1192 11.5C81.1545 17.4903 75.6363 22.6114 69.9099 22.2659C69.9096 22.2659 69.9094 22.2658 69.9092 22.2658C62.3747 22.0221 54.8394 21.8466 47.305 21.953C39.7703 22.056 32.235 22.4645 24.7003 22.6648C20.1032 22.7642 15.5062 22.7698 10.9092 22.724C7.60542 22.7178 4.36956 21.1145 2.35773 18.5526C0.765316 16.5625 -0.0783764 14.0058 0.00627917 11.5C0.0373747 5.66308 5.51596 0.842338 10.9092 1.35991C10.9092 1.45328 10.9092 1.54664 10.9092 1.64001C5.64944 1.89846 1.52177 6.68348 1.81193 11.5C1.87978 13.598 2.68248 15.6226 4.02986 17.1721C5.74181 19.1677 8.32252 20.3214 10.9092 20.2761C15.5062 20.2302 20.1032 20.2359 24.7003 20.3353C32.235 20.5356 39.7703 20.9428 47.305 21.0457C54.8395 21.1521 62.3746 20.978 69.9092 20.7342C69.9094 20.7342 69.9096 20.7342 69.9098 20.7342C74.8362 20.6469 78.9229 16.1625 78.6992 11.5C78.6598 9.47192 77.9057 7.4996 76.6097 5.97621C74.9585 4.01786 72.4369 2.87866 69.9092 2.92863C65.3119 2.98119 60.7146 3.01587 56.1174 2.99266Z" fill="#00CE9A"/>
<text id="ADAMTS13_2" fill="white" xml:space="preserve" style="white-space: pre" font-family="Arial" font-size="12" font-weight="bold" letter-spacing="0em"><tspan x="8.05371" y="15.6602">ADAMTS13</tspan></text>
</g>
</g>
<defs>
<linearGradient id="paint0_linear_938_24164" x1="40.4092" y1="1.5" x2="40.4092" y2="21.5" gradientUnits="userSpaceOnUse">
<stop stop-color="#00CE9A"/>
<stop offset="1" stop-color="#60A4C0"/>
</linearGradient>
</defs>
</svg>
