<svg width="45" height="169" viewBox="0 0 45 169" fill="none" xmlns="http://www.w3.org/2000/svg">
<g id="R-ICO-013682">
<g id="Group">
<path id="Vector" d="M18.5411 162.629C23.6276 162.629 27.7511 158.506 27.7511 153.419C27.7511 148.332 23.6276 144.209 18.5411 144.209C13.4545 144.209 9.33105 148.332 9.33105 153.419C9.33105 158.506 13.4545 162.629 18.5411 162.629Z" fill="url(#paint0_radial_938_24391)"/>
<path id="Vector_2" d="M9.21 168.567C14.2965 168.567 18.42 164.444 18.42 159.357C18.42 154.27 14.2965 150.147 9.21 150.147C4.12346 150.147 0 154.27 0 159.357C0 164.444 4.12346 168.567 9.21 168.567Z" fill="url(#paint1_radial_938_24391)"/>
<path id="Vector_3" d="M35.5069 162.629C40.5934 162.629 44.7169 158.506 44.7169 153.419C44.7169 148.332 40.5934 144.209 35.5069 144.209C30.4203 144.209 26.2969 148.332 26.2969 153.419C26.2969 158.506 30.4203 162.629 35.5069 162.629Z" fill="url(#paint2_radial_938_24391)"/>
<path id="Vector_4" d="M26.1748 168.567C31.2614 168.567 35.3848 164.444 35.3848 159.357C35.3848 154.27 31.2614 150.147 26.1748 150.147C21.0883 150.147 16.9648 154.27 16.9648 159.357C16.9648 164.444 21.0883 168.567 26.1748 168.567Z" fill="url(#paint3_radial_938_24391)"/>
<path id="Vector_5" d="M10.2461 151.884C15.3327 151.884 19.4561 147.761 19.4561 142.674C19.4561 137.588 15.3327 133.464 10.2461 133.464C5.15959 133.464 1.03613 137.588 1.03613 142.674C1.03613 147.761 5.15959 151.884 10.2461 151.884Z" fill="url(#paint4_radial_938_24391)"/>
<path id="Vector_6" d="M34.4698 147.591C39.5563 147.591 43.6798 143.467 43.6798 138.381C43.6798 133.294 39.5563 129.171 34.4698 129.171C29.3832 129.171 25.2598 133.294 25.2598 138.381C25.2598 143.467 29.3832 147.591 34.4698 147.591Z" fill="url(#paint5_radial_938_24391)"/>
<path id="Vector_7" d="M24.2901 153.51C29.3766 153.51 33.5001 149.387 33.5001 144.3C33.5001 139.214 29.3766 135.09 24.2901 135.09C19.2035 135.09 15.0801 139.214 15.0801 144.3C15.0801 149.387 19.2035 153.51 24.2901 153.51Z" fill="url(#paint6_radial_938_24391)"/>
<path id="Vector_8" d="M27.9659 81.2149C33.0524 81.2149 37.1759 77.0915 37.1759 72.0049C37.1759 66.9184 33.0524 62.7949 27.9659 62.7949C22.8793 62.7949 18.7559 66.9184 18.7559 72.0049C18.7559 77.0915 22.8793 81.2149 27.9659 81.2149Z" fill="url(#paint7_radial_938_24391)"/>
</g>
<g id="Group_2">
<path id="Vector_9" d="M11.2832 135.201C16.3698 135.201 20.4932 131.078 20.4932 125.991C20.4932 120.904 16.3698 116.781 11.2832 116.781C6.1967 116.781 2.07324 120.904 2.07324 125.991C2.07324 131.078 6.1967 135.201 11.2832 135.201Z" fill="url(#paint8_radial_938_24391)"/>
<path id="Vector_10" d="M33.4327 132.554C38.5192 132.554 42.6427 128.431 42.6427 123.344C42.6427 118.257 38.5192 114.134 33.4327 114.134C28.3461 114.134 24.2227 118.257 24.2227 123.344C24.2227 128.431 28.3461 132.554 33.4327 132.554Z" fill="url(#paint9_radial_938_24391)"/>
<path id="Vector_11" d="M12.3204 118.518C17.4069 118.518 21.5304 114.394 21.5304 109.308C21.5304 104.221 17.4069 100.098 12.3204 100.098C7.23382 100.098 3.11035 104.221 3.11035 109.308C3.11035 114.394 7.23382 118.518 12.3204 118.518Z" fill="url(#paint10_radial_938_24391)"/>
<path id="Vector_12" d="M32.3965 117.516C37.4831 117.516 41.6065 113.392 41.6065 108.306C41.6065 103.219 37.4831 99.0959 32.3965 99.0959C27.31 99.0959 23.1865 103.219 23.1865 108.306C23.1865 113.392 27.31 117.516 32.3965 117.516Z" fill="url(#paint11_radial_938_24391)"/>
<path id="Vector_13" d="M26.0811 98.181C31.1676 98.181 35.2911 94.0575 35.2911 88.971C35.2911 83.8844 31.1676 79.761 26.0811 79.761C20.9946 79.761 16.8711 83.8844 16.8711 88.971C16.8711 94.0575 20.9946 98.181 26.0811 98.181Z" fill="url(#paint12_radial_938_24391)"/>
<path id="Vector_14" d="M13.3946 101.835C18.4811 101.835 22.6046 97.7116 22.6046 92.625C22.6046 87.5385 18.4811 83.415 13.3946 83.415C8.30803 83.415 4.18457 87.5385 4.18457 92.625C4.18457 97.7116 8.30803 101.835 13.3946 101.835Z" fill="url(#paint13_radial_938_24391)"/>
<path id="Vector_15" d="M31.3594 102.478C36.446 102.478 40.5694 98.3546 40.5694 93.2681C40.5694 88.1816 36.446 84.0581 31.3594 84.0581C26.2729 84.0581 22.1494 88.1816 22.1494 93.2681C22.1494 98.3546 26.2729 102.478 31.3594 102.478Z" fill="url(#paint14_radial_938_24391)"/>
<path id="Vector_16" d="M14.3575 85.1519C19.444 85.1519 23.5675 81.0285 23.5675 75.9419C23.5675 70.8554 19.444 66.7319 14.3575 66.7319C9.27092 66.7319 5.14746 70.8554 5.14746 75.9419C5.14746 81.0285 9.27092 85.1519 14.3575 85.1519Z" fill="url(#paint15_radial_938_24391)"/>
<path id="Vector_17" d="M30.3233 87.2091C35.4098 87.2091 39.5333 83.0856 39.5333 77.9991C39.5333 72.9125 35.4098 68.7891 30.3233 68.7891C25.2367 68.7891 21.1133 72.9125 21.1133 77.9991C21.1133 83.0856 25.2367 87.2091 30.3233 87.2091Z" fill="url(#paint16_radial_938_24391)"/>
<path id="Vector_18" d="M22.4053 138.453C27.4918 138.453 31.6153 134.33 31.6153 129.243C31.6153 124.156 27.4918 120.033 22.4053 120.033C17.3188 120.033 13.1953 124.156 13.1953 129.243C13.1953 134.33 17.3188 138.453 22.4053 138.453Z" fill="url(#paint17_radial_938_24391)"/>
<path id="Vector_19" d="M20.5205 123.396C25.6071 123.396 29.7305 119.273 29.7305 114.186C29.7305 109.1 25.6071 104.976 20.5205 104.976C15.434 104.976 11.3105 109.1 11.3105 114.186C11.3105 119.273 15.434 123.396 20.5205 123.396Z" fill="url(#paint18_radial_938_24391)"/>
<path id="Vector_20" d="M18.6358 108.338C23.7223 108.338 27.8458 104.215 27.8458 99.128C27.8458 94.0414 23.7223 89.918 18.6358 89.918C13.5492 89.918 9.42578 94.0414 9.42578 99.128C9.42578 104.215 13.5492 108.338 18.6358 108.338Z" fill="url(#paint19_radial_938_24391)"/>
<path id="Vector_21" d="M16.75 91.3729C21.8366 91.3729 25.96 87.2494 25.96 82.1629C25.96 77.0763 21.8366 72.9529 16.75 72.9529C11.6635 72.9529 7.54004 77.0763 7.54004 82.1629C7.54004 87.2494 11.6635 91.3729 16.75 91.3729Z" fill="url(#paint20_radial_938_24391)"/>
</g>
<g id="Group_3">
<path id="Vector_22" d="M29.8506 64.2501C34.9372 64.2501 39.0606 60.1266 39.0606 55.0401C39.0606 49.9535 34.9372 45.8301 29.8506 45.8301C24.7641 45.8301 20.6406 49.9535 20.6406 55.0401C20.6406 60.1266 24.7641 64.2501 29.8506 64.2501Z" fill="url(#paint21_radial_938_24391)"/>
<path id="Vector_23" d="M15.4297 68.4691C20.5163 68.4691 24.6397 64.3456 24.6397 59.2591C24.6397 54.1725 20.5163 50.0491 15.4297 50.0491C10.3432 50.0491 6.21973 54.1725 6.21973 59.2591C6.21973 64.3456 10.3432 68.4691 15.4297 68.4691Z" fill="url(#paint22_radial_938_24391)"/>
<path id="Vector_24" d="M29.2862 71.0921C34.3727 71.0921 38.4962 66.9687 38.4962 61.8821C38.4962 56.7956 34.3727 52.6721 29.2862 52.6721C24.1996 52.6721 20.0762 56.7956 20.0762 61.8821C20.0762 66.9687 24.1996 71.0921 29.2862 71.0921Z" fill="url(#paint23_radial_938_24391)"/>
<path id="Vector_25" d="M31.7373 48.1319C36.8239 48.1319 40.9473 44.0085 40.9473 38.9219C40.9473 33.8354 36.8239 29.7119 31.7373 29.7119C26.6508 29.7119 22.5273 33.8354 22.5273 38.9219C22.5273 44.0085 26.6508 48.1319 31.7373 48.1319Z" fill="url(#paint24_radial_938_24391)"/>
<path id="Vector_26" d="M16.4668 51.786C21.5534 51.786 25.6768 47.6625 25.6768 42.576C25.6768 37.4894 21.5534 33.366 16.4668 33.366C11.3803 33.366 7.25684 37.4894 7.25684 42.576C7.25684 47.6625 11.3803 51.786 16.4668 51.786Z" fill="url(#paint25_radial_938_24391)"/>
<path id="Vector_27" d="M28.2491 56.671C33.3356 56.671 37.4591 52.5475 37.4591 47.461C37.4591 42.3744 33.3356 38.251 28.2491 38.251C23.1625 38.251 19.0391 42.3744 19.0391 47.461C19.0391 52.5475 23.1625 56.671 28.2491 56.671Z" fill="url(#paint26_radial_938_24391)"/>
<path id="Vector_28" d="M33.6221 32.015C38.7087 32.015 42.8321 27.8915 42.8321 22.805C42.8321 17.7184 38.7087 13.595 33.6221 13.595C28.5356 13.595 24.4121 17.7184 24.4121 22.805C24.4121 27.8915 28.5356 32.015 33.6221 32.015Z" fill="url(#paint27_radial_938_24391)"/>
<path id="Vector_29" d="M17.5039 35.1031C22.5905 35.1031 26.7139 30.9796 26.7139 25.8931C26.7139 20.8066 22.5905 16.6831 17.5039 16.6831C12.4174 16.6831 8.29395 20.8066 8.29395 25.8931C8.29395 30.9796 12.4174 35.1031 17.5039 35.1031Z" fill="url(#paint28_radial_938_24391)"/>
<path id="Vector_30" d="M27.212 40.5531C32.2985 40.5531 36.422 36.4296 36.422 31.3431C36.422 26.2565 32.2985 22.1331 27.212 22.1331C22.1254 22.1331 18.002 26.2565 18.002 31.3431C18.002 36.4296 22.1254 40.5531 27.212 40.5531Z" fill="url(#paint29_radial_938_24391)"/>
<path id="Vector_31" d="M18.5411 18.42C23.6276 18.42 27.7511 14.2965 27.7511 9.21C27.7511 4.12346 23.6276 0 18.5411 0C13.4545 0 9.33105 4.12346 9.33105 9.21C9.33105 14.2965 13.4545 18.42 18.5411 18.42Z" fill="url(#paint30_radial_938_24391)"/>
<path id="Vector_32" d="M35.5069 18.42C40.5934 18.42 44.7169 14.2965 44.7169 9.21C44.7169 4.12346 40.5934 0 35.5069 0C30.4203 0 26.2969 4.12346 26.2969 9.21C26.2969 14.2965 30.4203 18.42 35.5069 18.42Z" fill="url(#paint31_radial_938_24391)"/>
<path id="Vector_33" d="M26.1748 24.358C31.2614 24.358 35.3848 20.2345 35.3848 15.148C35.3848 10.0614 31.2614 5.93799 26.1748 5.93799C21.0883 5.93799 16.9648 10.0614 16.9648 15.148C16.9648 20.2345 21.0883 24.358 26.1748 24.358Z" fill="url(#paint32_radial_938_24391)"/>
<path id="Vector_34" d="M14.8653 74.4071C19.9518 74.4071 24.0753 70.2836 24.0753 65.1971C24.0753 60.1105 19.9518 55.9871 14.8653 55.9871C9.77873 55.9871 5.65527 60.1105 5.65527 65.1971C5.65527 70.2836 9.77873 74.4071 14.8653 74.4071Z" fill="url(#paint33_radial_938_24391)"/>
<path id="Vector_35" d="M12.9795 57.441C18.0661 57.441 22.1895 53.3175 22.1895 48.231C22.1895 43.1445 18.0661 39.021 12.9795 39.021C7.89299 39.021 3.76953 43.1445 3.76953 48.231C3.76953 53.3175 7.89299 57.441 12.9795 57.441Z" fill="url(#paint34_radial_938_24391)"/>
<path id="Vector_36" d="M11.0948 40.4749C16.1813 40.4749 20.3048 36.3515 20.3048 31.2649C20.3048 26.1784 16.1813 22.0549 11.0948 22.0549C6.00822 22.0549 1.88477 26.1784 1.88477 31.2649C1.88477 36.3515 6.00822 40.4749 11.0948 40.4749Z" fill="url(#paint35_radial_938_24391)"/>
<path id="Vector_37" d="M9.21 24.358C14.2965 24.358 18.42 20.2345 18.42 15.148C18.42 10.0614 14.2965 5.93799 9.21 5.93799C4.12346 5.93799 0 10.0614 0 15.148C0 20.2345 4.12346 24.358 9.21 24.358Z" fill="url(#paint36_radial_938_24391)"/>
</g>
</g>
<defs>
<radialGradient id="paint0_radial_938_24391" cx="0" cy="0" r="1" gradientUnits="userSpaceOnUse" gradientTransform="translate(16.0581 150.625) scale(9.21 9.21)">
<stop stop-color="#FFE6D5"/>
<stop offset="1" stop-color="#FF7F2A"/>
</radialGradient>
<radialGradient id="paint1_radial_938_24391" cx="0" cy="0" r="1" gradientUnits="userSpaceOnUse" gradientTransform="translate(6.727 156.563) scale(9.21)">
<stop stop-color="#FFE6D5"/>
<stop offset="1" stop-color="#FF7F2A"/>
</radialGradient>
<radialGradient id="paint2_radial_938_24391" cx="0" cy="0" r="1" gradientUnits="userSpaceOnUse" gradientTransform="translate(33.0239 150.625) scale(9.21 9.21)">
<stop stop-color="#FFE6D5"/>
<stop offset="1" stop-color="#FF7F2A"/>
</radialGradient>
<radialGradient id="paint3_radial_938_24391" cx="0" cy="0" r="1" gradientUnits="userSpaceOnUse" gradientTransform="translate(23.6918 156.563) scale(9.21)">
<stop stop-color="#FFE6D5"/>
<stop offset="1" stop-color="#FF7F2A"/>
</radialGradient>
<radialGradient id="paint4_radial_938_24391" cx="0" cy="0" r="1" gradientUnits="userSpaceOnUse" gradientTransform="translate(7.76313 139.88) scale(9.21 9.21)">
<stop stop-color="#FFE6D5"/>
<stop offset="1" stop-color="#FF7F2A"/>
</radialGradient>
<radialGradient id="paint5_radial_938_24391" cx="0" cy="0" r="1" gradientUnits="userSpaceOnUse" gradientTransform="translate(31.9868 135.587) scale(9.21 9.21)">
<stop stop-color="#FFE6D5"/>
<stop offset="1" stop-color="#FF7F2A"/>
</radialGradient>
<radialGradient id="paint6_radial_938_24391" cx="0" cy="0" r="1" gradientUnits="userSpaceOnUse" gradientTransform="translate(21.8071 141.506) scale(9.21 9.21)">
<stop stop-color="#FFE6D5"/>
<stop offset="1" stop-color="#FF7F2A"/>
</radialGradient>
<radialGradient id="paint7_radial_938_24391" cx="0" cy="0" r="1" gradientUnits="userSpaceOnUse" gradientTransform="translate(25.4829 69.2109) scale(9.21 9.21)">
<stop stop-color="#FFE6D5"/>
<stop offset="1" stop-color="#FF7F2A"/>
</radialGradient>
<radialGradient id="paint8_radial_938_24391" cx="0" cy="0" r="1" gradientUnits="userSpaceOnUse" gradientTransform="translate(8.79924 123.196) scale(9.21)">
<stop stop-color="#FFD5D5"/>
<stop offset="1" stop-color="#FF0000"/>
</radialGradient>
<radialGradient id="paint9_radial_938_24391" cx="0" cy="0" r="1" gradientUnits="userSpaceOnUse" gradientTransform="translate(30.9487 120.549) scale(9.21 9.21)">
<stop stop-color="#FFD5D5"/>
<stop offset="1" stop-color="#FF0000"/>
</radialGradient>
<radialGradient id="paint10_radial_938_24391" cx="0" cy="0" r="1" gradientUnits="userSpaceOnUse" gradientTransform="translate(9.83635 106.513) scale(9.21 9.21)">
<stop stop-color="#FFD5D5"/>
<stop offset="1" stop-color="#FF0000"/>
</radialGradient>
<radialGradient id="paint11_radial_938_24391" cx="0" cy="0" r="1" gradientUnits="userSpaceOnUse" gradientTransform="translate(29.9125 105.511) scale(9.21 9.21)">
<stop stop-color="#FFD5D5"/>
<stop offset="1" stop-color="#FF0000"/>
</radialGradient>
<radialGradient id="paint12_radial_938_24391" cx="0" cy="0" r="1" gradientUnits="userSpaceOnUse" gradientTransform="translate(23.5971 86.176) scale(9.21)">
<stop stop-color="#FFD5D5"/>
<stop offset="1" stop-color="#FF0000"/>
</radialGradient>
<radialGradient id="paint13_radial_938_24391" cx="0" cy="0" r="1" gradientUnits="userSpaceOnUse" gradientTransform="translate(10.9106 89.83) scale(9.21 9.21)">
<stop stop-color="#FFD5D5"/>
<stop offset="1" stop-color="#FF0000"/>
</radialGradient>
<radialGradient id="paint14_radial_938_24391" cx="0" cy="0" r="1" gradientUnits="userSpaceOnUse" gradientTransform="translate(28.8754 90.4731) scale(9.21 9.21)">
<stop stop-color="#FFD5D5"/>
<stop offset="1" stop-color="#FF0000"/>
</radialGradient>
<radialGradient id="paint15_radial_938_24391" cx="0" cy="0" r="1" gradientUnits="userSpaceOnUse" gradientTransform="translate(11.8735 73.1469) scale(9.21 9.21)">
<stop stop-color="#FFD5D5"/>
<stop offset="1" stop-color="#FF0000"/>
</radialGradient>
<radialGradient id="paint16_radial_938_24391" cx="0" cy="0" r="1" gradientUnits="userSpaceOnUse" gradientTransform="translate(27.8393 75.2041) scale(9.21)">
<stop stop-color="#FFD5D5"/>
<stop offset="1" stop-color="#FF0000"/>
</radialGradient>
<radialGradient id="paint17_radial_938_24391" cx="0" cy="0" r="1" gradientUnits="userSpaceOnUse" gradientTransform="translate(19.9213 126.448) scale(9.21)">
<stop stop-color="#FFD5D5"/>
<stop offset="1" stop-color="#FF0000"/>
</radialGradient>
<radialGradient id="paint18_radial_938_24391" cx="0" cy="0" r="1" gradientUnits="userSpaceOnUse" gradientTransform="translate(18.0365 111.391) scale(9.21)">
<stop stop-color="#FFD5D5"/>
<stop offset="1" stop-color="#FF0000"/>
</radialGradient>
<radialGradient id="paint19_radial_938_24391" cx="0" cy="0" r="1" gradientUnits="userSpaceOnUse" gradientTransform="translate(16.1518 96.333) scale(9.21 9.21)">
<stop stop-color="#FFD5D5"/>
<stop offset="1" stop-color="#FF0000"/>
</radialGradient>
<radialGradient id="paint20_radial_938_24391" cx="0" cy="0" r="1" gradientUnits="userSpaceOnUse" gradientTransform="translate(14.266 79.3679) scale(9.21 9.21)">
<stop stop-color="#FFD5D5"/>
<stop offset="1" stop-color="#FF0000"/>
</radialGradient>
<radialGradient id="paint21_radial_938_24391" cx="0" cy="0" r="1" gradientUnits="userSpaceOnUse" gradientTransform="translate(27.3676 52.2461) scale(9.21)">
<stop stop-color="#FFE6D5"/>
<stop offset="1" stop-color="#FF7F2A"/>
</radialGradient>
<radialGradient id="paint22_radial_938_24391" cx="0" cy="0" r="1" gradientUnits="userSpaceOnUse" gradientTransform="translate(12.9467 56.4651) scale(9.21)">
<stop stop-color="#FFE6D5"/>
<stop offset="1" stop-color="#FF7F2A"/>
</radialGradient>
<radialGradient id="paint23_radial_938_24391" cx="0" cy="0" r="1" gradientUnits="userSpaceOnUse" gradientTransform="translate(26.8032 59.0881) scale(9.21)">
<stop stop-color="#FFE6D5"/>
<stop offset="1" stop-color="#FF7F2A"/>
</radialGradient>
<radialGradient id="paint24_radial_938_24391" cx="0" cy="0" r="1" gradientUnits="userSpaceOnUse" gradientTransform="translate(29.2543 36.1279) scale(9.21)">
<stop stop-color="#FFE6D5"/>
<stop offset="1" stop-color="#FF7F2A"/>
</radialGradient>
<radialGradient id="paint25_radial_938_24391" cx="0" cy="0" r="1" gradientUnits="userSpaceOnUse" gradientTransform="translate(13.9838 39.782) scale(9.21)">
<stop stop-color="#FFE6D5"/>
<stop offset="1" stop-color="#FF7F2A"/>
</radialGradient>
<radialGradient id="paint26_radial_938_24391" cx="0" cy="0" r="1" gradientUnits="userSpaceOnUse" gradientTransform="translate(25.7661 44.667) scale(9.21 9.21)">
<stop stop-color="#FFE6D5"/>
<stop offset="1" stop-color="#FF7F2A"/>
</radialGradient>
<radialGradient id="paint27_radial_938_24391" cx="0" cy="0" r="1" gradientUnits="userSpaceOnUse" gradientTransform="translate(31.1391 20.011) scale(9.21)">
<stop stop-color="#FFE6D5"/>
<stop offset="1" stop-color="#FF7F2A"/>
</radialGradient>
<radialGradient id="paint28_radial_938_24391" cx="0" cy="0" r="1" gradientUnits="userSpaceOnUse" gradientTransform="translate(15.0209 23.0991) scale(9.21)">
<stop stop-color="#FFE6D5"/>
<stop offset="1" stop-color="#FF7F2A"/>
</radialGradient>
<radialGradient id="paint29_radial_938_24391" cx="0" cy="0" r="1" gradientUnits="userSpaceOnUse" gradientTransform="translate(24.729 28.5491) scale(9.21)">
<stop stop-color="#FFE6D5"/>
<stop offset="1" stop-color="#FF7F2A"/>
</radialGradient>
<radialGradient id="paint30_radial_938_24391" cx="0" cy="0" r="1" gradientUnits="userSpaceOnUse" gradientTransform="translate(16.0581 6.416) scale(9.21)">
<stop stop-color="#FFE6D5"/>
<stop offset="1" stop-color="#FF7F2A"/>
</radialGradient>
<radialGradient id="paint31_radial_938_24391" cx="0" cy="0" r="1" gradientUnits="userSpaceOnUse" gradientTransform="translate(33.0239 6.416) scale(9.21)">
<stop stop-color="#FFE6D5"/>
<stop offset="1" stop-color="#FF7F2A"/>
</radialGradient>
<radialGradient id="paint32_radial_938_24391" cx="0" cy="0" r="1" gradientUnits="userSpaceOnUse" gradientTransform="translate(23.6918 12.354) scale(9.21)">
<stop stop-color="#FFE6D5"/>
<stop offset="1" stop-color="#FF7F2A"/>
</radialGradient>
<radialGradient id="paint33_radial_938_24391" cx="0" cy="0" r="1" gradientUnits="userSpaceOnUse" gradientTransform="translate(12.3823 62.4031) scale(9.21 9.21)">
<stop stop-color="#FFE6D5"/>
<stop offset="1" stop-color="#FF7F2A"/>
</radialGradient>
<radialGradient id="paint34_radial_938_24391" cx="0" cy="0" r="1" gradientUnits="userSpaceOnUse" gradientTransform="translate(10.4965 45.437) scale(9.21)">
<stop stop-color="#FFE6D5"/>
<stop offset="1" stop-color="#FF7F2A"/>
</radialGradient>
<radialGradient id="paint35_radial_938_24391" cx="0" cy="0" r="1" gradientUnits="userSpaceOnUse" gradientTransform="translate(8.61177 28.4709) scale(9.21)">
<stop stop-color="#FFE6D5"/>
<stop offset="1" stop-color="#FF7F2A"/>
</radialGradient>
<radialGradient id="paint36_radial_938_24391" cx="0" cy="0" r="1" gradientUnits="userSpaceOnUse" gradientTransform="translate(6.727 12.354) scale(9.21)">
<stop stop-color="#FFE6D5"/>
<stop offset="1" stop-color="#FF7F2A"/>
</radialGradient>
</defs>
</svg>
