<svg width="37" height="23" viewBox="0 0 37 23" fill="none" xmlns="http://www.w3.org/2000/svg">
<g id="R-ICO-014166">
<g id="F8">
<path d="M1.22559 11.2483C1.22559 5.72544 5.70274 1.24829 11.2256 1.24829H25.2256C30.7484 1.24829 35.2256 5.72544 35.2256 11.2483C35.2256 16.7711 30.7484 21.2483 25.2256 21.2483H11.2256C5.70274 21.2483 1.22559 16.7711 1.22559 11.2483Z" fill="url(#paint0_linear_938_23885)"/>
<path d="M31.7331 5.76827C30.1775 3.83965 27.7799 2.60373 25.2256 2.48517C20.5589 2.27493 15.8923 1.93257 11.2256 1.3883C11.2256 1.29493 11.2256 1.20157 11.2256 1.1082C15.8923 0.563932 20.5589 0.221572 25.2256 0.0113275C28.4915 -0.14484 31.8447 1.30792 34.0155 3.84392C35.7708 5.87336 36.719 8.58502 36.6526 11.2483C36.6214 12.9038 36.2174 14.5505 35.4879 16.0233C33.6313 19.9194 29.317 22.3465 25.2259 22.0142C25.2258 22.0141 25.2257 22.0141 25.2256 22.0141C21.4409 21.7704 17.6559 21.5949 13.8714 21.7013C12.9895 21.7253 12.1075 21.7658 11.2256 21.8165C8.16813 22.0087 4.89409 20.8419 2.68609 18.441C0.91993 16.5202 -0.0584965 13.8652 0.00301123 11.2483C0.0302809 9.62189 0.438349 8.00434 1.17361 6.5717C3.05319 2.78391 7.36443 0.534994 11.2256 1.1082C11.2256 1.20157 11.2256 1.29493 11.2256 1.3883C7.47313 1.87167 4.40851 4.3544 3.13906 7.48751C2.64563 8.68519 2.41763 9.97066 2.44808 11.2483C2.49189 13.3047 3.21189 15.2984 4.46716 16.9395C5.98554 19.0034 8.463 20.5249 11.2256 20.679C12.1075 20.7295 12.9895 20.77 13.8714 20.794C17.656 20.9004 21.4409 20.7262 25.2256 20.4825C25.2257 20.4825 25.2258 20.4825 25.2259 20.4825C28.7482 20.2395 31.8088 17.9355 33.1015 14.9112C33.6009 13.7536 33.833 12.497 33.7986 11.2483C33.7498 9.23798 32.9993 7.30077 31.7331 5.76827Z" fill="#2B63B3"/>
<text id="F8_2" fill="white" xml:space="preserve" style="white-space: pre" font-family="Arial" font-size="12" font-weight="bold" letter-spacing="0em"><tspan x="11.2178" y="15.4084">F8</tspan></text>
</g>
</g>
<defs>
<linearGradient id="paint0_linear_938_23885" x1="18.2256" y1="1.24829" x2="18.2256" y2="21.2483" gradientUnits="userSpaceOnUse">
<stop stop-color="#2B63B3"/>
<stop offset="1" stop-color="#19605B"/>
</linearGradient>
</defs>
</svg>
