<svg width="43" height="23" viewBox="0 0 43 23" fill="none" xmlns="http://www.w3.org/2000/svg">
<g id="R-ICO-012451">
<g id="ATM">
<path d="M1.18164 11.3801C1.18164 5.85726 5.65879 1.3801 11.1816 1.3801H31.1816C36.7045 1.3801 41.1816 5.85726 41.1816 11.3801C41.1816 16.903 36.7045 21.3801 31.1816 21.3801H11.1816C5.65879 21.3801 1.18164 16.903 1.18164 11.3801Z" fill="url(#paint0_linear_938_23187)"/>
<path d="M35.7778 4.2197C34.4304 3.31903 32.8289 2.80601 31.1816 2.75623C24.515 2.5722 17.8483 2.20691 11.1816 1.52011C11.1816 1.42674 11.1816 1.33338 11.1816 1.24002C17.8483 0.553219 24.515 0.187924 31.1816 0.00389826C33.3431 -0.0544461 35.5423 0.543435 37.3932 1.70912C40.6582 3.73904 42.6802 7.57976 42.5637 11.3801C42.5424 12.4621 42.3669 13.5384 42.0428 14.567C40.6473 19.2723 35.8277 22.5067 31.182 22.146C31.1819 22.146 31.1818 22.146 31.1816 22.1459C26.897 21.9022 22.612 21.7267 18.3274 21.8331C15.9456 21.8903 13.5636 22.042 11.1816 22.1998C9.12635 22.3319 6.98196 21.8553 5.14721 20.7751C1.91802 18.889 -0.128691 15.1142 0.00621188 11.3801C0.0316941 10.3175 0.213157 9.26241 0.543249 8.25886C1.97398 3.66721 6.7979 0.636103 11.1816 1.24002C11.1816 1.33338 11.1816 1.42674 11.1816 1.52011C6.92155 1.98969 3.51675 5.14454 2.62413 8.86848C2.41857 9.6919 2.33106 10.5369 2.35699 11.3801C2.43211 14.3371 3.9916 17.1232 6.40782 18.8161C7.77127 19.8025 9.428 20.4367 11.1816 20.5599C13.5636 20.7174 15.9456 20.8686 18.3274 20.9258C22.6121 21.0322 26.897 20.8581 31.1816 20.6143C31.1818 20.6143 31.1819 20.6143 31.182 20.6143C35.1799 20.3874 38.5879 17.4365 39.5162 13.8267C39.7278 13.0282 39.8214 12.2041 39.7996 11.3801C39.7429 8.48911 38.1582 5.76874 35.7778 4.2197Z" fill="#FFA8FF"/>
<text id="ATM_2" fill="white" xml:space="preserve" style="white-space: pre" font-family="Arial" font-size="12" font-weight="bold" letter-spacing="0em"><tspan x="8.625" y="15.5403">ATM</tspan></text>
</g>
</g>
<defs>
<linearGradient id="paint0_linear_938_23187" x1="21.1816" y1="1.3801" x2="21.1816" y2="21.3801" gradientUnits="userSpaceOnUse">
<stop stop-color="#FFA8FF"/>
<stop offset="1" stop-color="#536BD5"/>
</linearGradient>
</defs>
</svg>
