<svg width="1366" height="768" viewBox="0 0 1366 768" fill="none" xmlns="http://www.w3.org/2000/svg">
<g id="R-ICO-014553">
<path id="BG" d="M1366 0H0V768H1366V0Z" fill="url(#paint0_radial_938_25781)"/>
<g id="LOGO" opacity="0.5">
<g id="LOGO_2">
<path id="Vector" d="M406.841 94.7596C406.841 94.8135 406.836 94.8563 406.825 94.8884C406.793 95.0067 406.742 95.0897 406.672 95.1381C406.602 95.1865 406.508 95.2106 406.39 95.2106C406.293 95.2106 406.167 95.2 406.011 95.1785C405.856 95.157 405.724 95.1462 405.617 95.1462C405.08 95.1462 404.602 95.259 404.183 95.4846C403.764 95.71 403.437 96.0215 403.201 96.4189C402.964 96.8162 402.846 97.2619 402.846 97.7558V102.653C402.846 102.792 402.803 102.908 402.718 102.999C402.631 103.09 402.513 103.136 402.363 103.136C402.224 103.136 402.108 103.09 402.017 102.999C401.926 102.908 401.88 102.792 401.88 102.653V94.808C401.88 94.6576 401.925 94.5397 402.017 94.4536C402.108 94.3678 402.224 94.3248 402.363 94.3248C402.513 94.3248 402.631 94.3679 402.718 94.4536C402.803 94.5398 402.846 94.6576 402.846 94.808V95.8067C403.158 95.3129 403.555 94.9263 404.038 94.6469C404.522 94.3679 405.047 94.228 405.617 94.228C406.433 94.228 406.841 94.4052 406.841 94.7596Z" fill="#2F9EC2"/>
<path id="Vector_2" d="M413.727 94.8002C414.345 95.1707 414.825 95.6835 415.169 96.3383C415.512 96.9935 415.684 97.7398 415.684 98.5773C415.684 98.7169 415.641 98.827 415.556 98.9074C415.469 98.9881 415.357 99.0282 415.217 99.0282H408.468C408.5 99.6621 408.667 100.228 408.967 100.728C409.268 101.227 409.671 101.616 410.176 101.895C410.68 102.175 411.244 102.314 411.867 102.314C412.286 102.314 412.707 102.242 413.131 102.097C413.555 101.952 413.891 101.761 414.138 101.525C414.245 101.439 414.358 101.396 414.476 101.396C414.594 101.396 414.691 101.428 414.766 101.493C414.884 101.589 414.943 101.702 414.943 101.831C414.943 101.939 414.895 102.041 414.798 102.137C414.455 102.449 414.006 102.706 413.453 102.91C412.9 103.114 412.371 103.217 411.867 103.217C411.018 103.217 410.264 103.026 409.604 102.645C408.943 102.263 408.425 101.732 408.049 101.05C407.673 100.368 407.485 99.5978 407.485 98.7386C407.485 97.8688 407.66 97.0929 408.009 96.4109C408.358 95.7293 408.846 95.1976 409.475 94.8164C410.103 94.4353 410.82 94.2446 411.625 94.2446C412.409 94.2444 413.11 94.4297 413.727 94.8002ZM409.507 95.9841C408.933 96.5426 408.591 97.2781 408.484 98.1908H414.75C414.675 97.2781 414.353 96.5426 413.783 95.9841C413.214 95.4258 412.495 95.1464 411.625 95.1464C410.788 95.1464 410.081 95.4258 409.507 95.9841Z" fill="#2F9EC2"/>
<path id="Vector_3" d="M423.77 94.8161C424.457 95.2081 424.997 95.7478 425.389 96.4349C425.781 97.1222 425.977 97.89 425.977 98.7383V102.653C425.977 102.792 425.934 102.908 425.848 102.999C425.762 103.09 425.644 103.136 425.494 103.136C425.354 103.136 425.239 103.09 425.148 102.999C425.056 102.908 425.01 102.792 425.01 102.653V101.396C424.656 101.966 424.17 102.414 423.553 102.741C422.935 103.069 422.245 103.232 421.483 103.232C420.634 103.232 419.867 103.037 419.18 102.644C418.492 102.253 417.953 101.713 417.561 101.026C417.169 100.339 416.973 99.5759 416.973 98.7383C416.973 97.89 417.169 97.1222 417.561 96.4349C417.953 95.7478 418.492 95.2081 419.18 94.8161C419.867 94.4243 420.634 94.228 421.483 94.228C422.32 94.2281 423.083 94.4243 423.77 94.8161ZM423.287 101.863C423.824 101.552 424.245 101.122 424.551 100.575C424.857 100.027 425.01 99.415 425.01 98.7384C425.01 98.0618 424.857 97.4497 424.551 96.902C424.245 96.3545 423.824 95.9223 423.287 95.6055C422.75 95.2889 422.148 95.1302 421.483 95.1302C420.817 95.1302 420.215 95.2888 419.679 95.6055C419.142 95.9223 418.717 96.3545 418.406 96.902C418.095 97.4497 417.939 98.0618 417.939 98.7384C417.939 99.415 418.095 100.027 418.406 100.575C418.717 101.122 419.142 101.552 419.679 101.863C420.215 102.175 420.817 102.33 421.483 102.33C422.148 102.33 422.75 102.175 423.287 101.863Z" fill="#2F9EC2"/>
<path id="Vector_4" d="M430.052 102.644C429.386 102.252 428.862 101.713 428.481 101.025C428.1 100.338 427.909 99.5757 427.909 98.7381C427.909 97.8898 428.086 97.1248 428.441 96.4427C428.795 95.7609 429.289 95.2241 429.923 94.8319C430.556 94.4401 431.265 94.2441 432.049 94.2441C432.736 94.2441 433.364 94.3784 433.934 94.6467C434.503 94.9154 434.997 95.3127 435.416 95.8386C435.491 95.9461 435.528 96.0376 435.528 96.1126C435.528 96.263 435.453 96.3811 435.303 96.4668C435.228 96.5312 435.142 96.5635 435.045 96.5635C434.895 96.5635 434.771 96.4991 434.675 96.3702C433.987 95.5542 433.112 95.1459 432.049 95.1459C431.426 95.1459 430.873 95.299 430.39 95.6051C429.907 95.911 429.533 96.3378 429.27 96.8856C429.007 97.4333 428.876 98.0509 428.876 98.7381C428.876 99.4147 429.021 100.027 429.311 100.574C429.601 101.122 430.003 101.552 430.519 101.863C431.034 102.175 431.625 102.33 432.291 102.33C433.236 102.33 433.993 102.067 434.562 101.541C434.659 101.444 434.771 101.396 434.9 101.396C435.018 101.396 435.115 101.434 435.19 101.509C435.297 101.605 435.351 101.724 435.351 101.863C435.351 101.981 435.308 102.078 435.222 102.153C434.846 102.497 434.406 102.762 433.902 102.95C433.397 103.138 432.86 103.232 432.291 103.232C431.463 103.232 430.717 103.036 430.052 102.644Z" fill="#2F9EC2"/>
<path id="Vector_5" d="M442.286 102.29C442.377 102.381 442.423 102.502 442.423 102.653C442.423 102.792 442.377 102.908 442.286 102.999C442.194 103.09 442.074 103.136 441.923 103.136H441.553C440.962 103.136 440.436 103.002 439.974 102.733C439.513 102.465 439.153 102.097 438.895 101.63C438.637 101.163 438.509 100.634 438.509 100.043V95.5168H437.252C437.123 95.5168 437.019 95.4765 436.938 95.396C436.858 95.3155 436.817 95.2108 436.817 95.0819C436.817 94.953 436.858 94.8483 436.938 94.7678C437.019 94.6873 437.123 94.647 437.252 94.647H438.509V92.0214C438.509 91.8712 438.554 91.7504 438.646 91.6589C438.737 91.5679 438.852 91.522 438.992 91.522C439.142 91.522 439.263 91.5678 439.354 91.6589C439.445 91.7504 439.491 91.8712 439.491 92.0214V94.6469H441.618C441.746 94.6469 441.851 94.6872 441.932 94.7677C442.012 94.8482 442.052 94.9529 442.052 95.0818C442.052 95.2107 442.012 95.3154 441.932 95.3959C441.851 95.4764 441.746 95.5167 441.618 95.5167H439.491V100.043C439.491 100.666 439.685 101.173 440.071 101.565C440.458 101.957 440.957 102.153 441.569 102.153H441.923C442.074 102.153 442.195 102.199 442.286 102.29Z" fill="#2F9EC2"/>
<path id="Vector_6" d="M446.159 102.644C445.472 102.253 444.932 101.713 444.54 101.026C444.148 100.339 443.952 99.5759 443.952 98.7383C443.952 97.89 444.148 97.1222 444.54 96.4349C444.932 95.7478 445.472 95.2081 446.159 94.8161C446.846 94.4243 447.614 94.228 448.462 94.228C449.3 94.228 450.062 94.4242 450.75 94.8161C451.437 95.2081 451.976 95.7478 452.368 96.4349C452.76 97.1222 452.957 97.89 452.957 98.7383C452.957 99.5758 452.761 100.339 452.368 101.026C451.976 101.713 451.437 102.253 450.75 102.644C450.062 103.037 449.3 103.232 448.462 103.232C447.614 103.232 446.846 103.037 446.159 102.644ZM450.267 101.863C450.803 101.552 451.225 101.122 451.531 100.575C451.837 100.027 451.99 99.4149 451.99 98.7383C451.99 98.0617 451.837 97.4496 451.531 96.9019C451.225 96.3544 450.803 95.9222 450.267 95.6054C449.729 95.2888 449.128 95.1301 448.462 95.1301C447.796 95.1301 447.195 95.2887 446.658 95.6054C446.121 95.9222 445.697 96.3544 445.386 96.9019C445.074 97.4496 444.919 98.0617 444.919 98.7383C444.919 99.4149 445.074 100.027 445.386 100.575C445.697 101.122 446.121 101.552 446.658 101.863C447.195 102.175 447.796 102.33 448.462 102.33C449.128 102.33 449.729 102.175 450.267 101.863Z" fill="#2F9EC2"/>
<path id="Vector_7" d="M466.391 94.6951C466.895 95.0172 467.287 95.4657 467.567 96.04C467.846 96.6147 467.985 97.267 467.985 97.9972V102.652C467.985 102.792 467.942 102.908 467.856 102.999C467.77 103.09 467.652 103.136 467.502 103.136C467.362 103.136 467.247 103.09 467.156 102.999C467.065 102.908 467.019 102.792 467.019 102.652V97.9972C467.019 97.1705 466.799 96.4939 466.358 95.9675C465.918 95.4415 465.354 95.1784 464.667 95.1784C463.915 95.1784 463.309 95.4255 462.847 95.9194C462.385 96.4135 462.165 97.0685 462.187 97.8844V97.9972V102.652C462.187 102.792 462.144 102.908 462.058 102.999C461.972 103.09 461.854 103.136 461.703 103.136C461.564 103.136 461.448 103.09 461.357 102.999C461.266 102.908 461.22 102.792 461.22 102.652V97.9972C461.22 97.1705 461 96.4939 460.56 95.9675C460.119 95.4415 459.555 95.1784 458.868 95.1784C458.127 95.1784 457.521 95.4148 457.048 95.8871C456.576 96.3598 456.34 96.972 456.34 97.7233V102.653C456.34 102.792 456.296 102.908 456.211 102.999C456.125 103.09 456.006 103.136 455.856 103.136C455.717 103.136 455.601 103.09 455.51 102.999C455.419 102.908 455.373 102.792 455.373 102.653V94.8079C455.373 94.6575 455.419 94.5396 455.51 94.4535C455.601 94.3677 455.717 94.3247 455.856 94.3247C456.007 94.3247 456.125 94.3678 456.211 94.4535C456.297 94.5397 456.34 94.6575 456.34 94.8079V95.4361C456.64 95.0496 457.01 94.749 457.451 94.534C457.891 94.3194 458.364 94.2119 458.868 94.2119C459.491 94.2119 460.05 94.365 460.544 94.6711C461.037 94.977 461.429 95.3986 461.719 95.9355C462.009 95.3986 462.412 94.977 462.927 94.6711C463.443 94.365 464.023 94.2119 464.667 94.2119C465.312 94.2118 465.886 94.373 466.391 94.6951Z" fill="#2F9EC2"/>
<path id="Vector_8" d="M476.482 94.8002C477.099 95.1707 477.58 95.6835 477.924 96.3383C478.267 96.9935 478.439 97.7398 478.439 98.5773C478.439 98.7169 478.396 98.827 478.31 98.9074C478.224 98.9881 478.112 99.0282 477.972 99.0282H471.223C471.255 99.6621 471.422 100.228 471.722 100.728C472.023 101.227 472.425 101.616 472.93 101.895C473.435 102.175 473.999 102.314 474.622 102.314C475.04 102.314 475.462 102.242 475.886 102.097C476.31 101.952 476.646 101.761 476.893 101.525C477 101.439 477.113 101.396 477.231 101.396C477.349 101.396 477.446 101.428 477.521 101.493C477.639 101.589 477.698 101.702 477.698 101.831C477.698 101.939 477.65 102.041 477.553 102.137C477.209 102.449 476.761 102.706 476.208 102.91C475.655 103.114 475.126 103.217 474.622 103.217C473.773 103.217 473.019 103.026 472.358 102.645C471.698 102.263 471.18 101.732 470.804 101.05C470.428 100.368 470.24 99.5978 470.24 98.7386C470.24 97.8688 470.415 97.0929 470.764 96.4109C471.113 95.7293 471.601 95.1976 472.23 94.8164C472.858 94.4353 473.575 94.2446 474.38 94.2446C475.164 94.2444 475.865 94.4297 476.482 94.8002ZM472.262 95.9841C471.687 96.5426 471.346 97.2781 471.239 98.1908H477.505C477.43 97.2781 477.108 96.5426 476.538 95.9841C475.969 95.4258 475.25 95.1464 474.38 95.1464C473.542 95.1464 472.836 95.4258 472.262 95.9841Z" fill="#2F9EC2"/>
</g>
<g id="ICON">
<path id="25" d="M388.485 89.6436V85.7769L378.438 91.577V103.177L381.787 101.244V93.5104L388.485 89.6436Z" fill="#2F9EC2" fill-opacity="0.25"/>
<g id="50">
<path id="Vector_9" d="M381.787 101.244V105.111L385.136 103.177V99.3105L381.787 101.244Z" fill="#2F9EC2" fill-opacity="0.5"/>
<path id="Vector_10" d="M391.833 91.5771V87.7104L388.484 89.6437V93.5105L391.833 91.5771Z" fill="#2F9EC2" fill-opacity="0.5"/>
</g>
<path id="63" d="M385.136 95.4438L388.485 93.5104V89.6436L381.787 93.5104V101.244L385.136 99.3105V95.4438Z" fill="#2F9EC2" fill-opacity="0.63"/>
<g id="75">
<path id="Vector_11" d="M391.833 99.3104V103.177L395.182 101.244V97.377L391.833 99.3104Z" fill="#2F9EC2" fill-opacity="0.75"/>
<path id="Vector_12" d="M395.182 93.5104V89.6436L391.833 91.577V95.4438L395.182 93.5104Z" fill="#2F9EC2" fill-opacity="0.75"/>
<path id="Vector_13" d="M385.136 103.177V107.044L388.484 105.11V101.244L385.136 103.177Z" fill="#2F9EC2" fill-opacity="0.75"/>
</g>
<path id="88]" d="M388.484 97.3772L391.833 95.4439V91.5771L388.484 93.5105V97.3772L385.136 99.3106V103.177L388.484 101.244V97.3772Z" fill="#2F9EC2" fill-opacity="0.88"/>
<g id="100">
<path id="Vector_14" d="M385.136 95.4441V99.3108L388.484 97.3774V93.5107L385.136 95.4441Z" fill="#2F9EC2"/>
<path id="Vector_15" d="M395.182 93.5105L391.833 95.4439L388.484 97.3772V101.244V105.111V108.978L391.833 107.044V103.177V99.3106L395.182 97.3772L398.53 95.4439V91.5771L395.182 93.5105Z" fill="#2F9EC2"/>
</g>
</g>
</g>
<path id="Cycle BG" d="M678.14 494.169C737.762 494.169 786.095 446.094 786.095 386.789C786.095 327.485 737.762 279.409 678.14 279.409C618.519 279.409 570.186 327.485 570.186 386.789C570.186 446.094 618.519 494.169 678.14 494.169Z" fill="url(#paint1_radial_938_25781)"/>
<g id="R-ICO-014612">
<g id="FRAGMENTS">
<path id="Vector_16" d="M736.966 327.964C704.53 295.528 651.751 295.527 619.315 327.964L616.458 313.279L601.476 310.124C643.748 267.852 712.532 267.852 754.805 310.125L751.645 325.107L736.966 327.964Z" fill="url(#paint2_linear_938_25781)"/>
<path id="Vector_17" d="M601.475 463.455C559.202 421.182 559.202 352.398 601.475 310.125L616.458 313.28L619.315 327.964C586.878 360.4 586.878 413.179 619.315 445.615L604.631 448.467L601.475 463.455Z" fill="url(#paint3_linear_938_25781)"/>
<path id="Vector_18" d="M754.806 463.455C712.533 505.728 643.749 505.728 601.476 463.455L604.631 448.466L619.315 445.615C651.752 478.052 704.53 478.052 736.967 445.615L739.818 460.294L754.806 463.455Z" fill="url(#paint4_linear_938_25781)"/>
<path id="Vector_19" d="M816.12 336.989L807.12 324.381H766.804C763.276 319.374 759.28 314.6 754.805 310.125L751.645 325.106L736.966 327.964C769.402 360.4 769.403 413.178 736.966 445.615L739.818 460.294L754.806 463.454C785.538 432.722 793.92 387.98 779.968 349.597H807.12L816.12 336.989Z" fill="url(#paint5_linear_938_25781)"/>
</g>
<g id="TEXT">
<text id="G0" fill="white" xml:space="preserve" style="white-space: pre" font-family="Arial" font-size="12.0001" font-weight="bold" letter-spacing="0em"><tspan x="784.476" y="339.963">G0</tspan></text>
<text id="M" fill="white" xml:space="preserve" style="white-space: pre" font-family="Arial" font-size="12.0001" font-weight="bold" letter-spacing="0em"><tspan x="670.817" y="296.01">M</tspan></text>
<text id="S" fill="white" xml:space="preserve" style="white-space: pre" font-family="Arial" font-size="12.0001" font-weight="bold" letter-spacing="0em"><tspan x="671.813" y="484.42">S</tspan></text>
<text id="G1" fill="white" xml:space="preserve" style="white-space: pre" font-family="Arial" font-size="12.0001" font-weight="bold" letter-spacing="0em"><tspan x="765.881" y="390.245">G1</tspan></text>
<text id="G2" fill="white" xml:space="preserve" style="white-space: pre" font-family="Arial" font-size="12.0001" font-weight="bold" letter-spacing="0em"><tspan x="574.368" y="390.244">G2</tspan></text>
</g>
</g>
<g id="Divider LINES" opacity="0.5">
<path id="Vector_20" d="M884.86 594.62C884.358 594.756 883.798 594.627 883.404 594.232L762.966 473.678C762.381 473.092 762.381 472.143 762.967 471.558C763.552 470.972 764.504 470.973 765.088 471.559L885.526 592.113C886.113 592.698 886.112 593.648 885.525 594.233C885.334 594.425 885.104 594.553 884.86 594.62Z" fill="url(#paint6_linear_938_25781)"/>
<path id="Vector_21" d="M885.971 180.07C886.107 180.572 885.978 181.132 885.583 181.525L765.029 301.964C764.443 302.549 763.494 302.549 762.909 301.962C762.323 301.378 762.324 300.426 762.91 299.842L883.464 179.404C884.049 178.817 884.999 178.818 885.584 179.405C885.776 179.596 885.904 179.826 885.971 180.07Z" fill="url(#paint7_linear_938_25781)"/>
<path id="Vector_22" d="M471.421 178.959C471.923 178.823 472.483 178.952 472.876 179.347L593.315 299.901C593.9 300.487 593.9 301.436 593.313 302.022C592.729 302.608 591.777 302.606 591.193 302.02L470.755 181.466C470.168 180.881 470.169 179.931 470.756 179.346C470.947 179.154 471.177 179.026 471.421 178.959Z" fill="url(#paint8_linear_938_25781)"/>
<path id="Vector_23" d="M470.31 593.509C470.174 593.006 470.303 592.447 470.698 592.053L591.252 471.615C591.838 471.03 592.787 471.03 593.373 471.616C593.959 472.201 593.957 473.153 593.371 473.737L472.817 594.175C472.232 594.761 471.282 594.761 470.697 594.174C470.505 593.983 470.377 593.753 470.31 593.509Z" fill="url(#paint9_linear_938_25781)"/>
</g>
<g id="TEXT_2">
<text id="chromatin condensation" fill="black" xml:space="preserve" style="white-space: pre" font-family="Arial" font-size="12" font-weight="bold" letter-spacing="0em"><tspan x="806.93" y="110.279">chromatin&#10;</tspan><tspan x="796.922" y="124.279">condensation</tspan></text>
<text id="centrosome maturation" fill="black" xml:space="preserve" style="white-space: pre" font-family="Arial" font-size="12" font-weight="bold" letter-spacing="0em"><tspan x="386.679" y="341.65">centrosome maturation</tspan></text>
<text id="cell growth" fill="black" xml:space="preserve" style="white-space: pre" font-family="Arial" font-size="12" font-weight="bold" letter-spacing="0em"><tspan x="903.137" y="341.622">cell growth</tspan></text>
<text id="chromosome duplication" fill="black" xml:space="preserve" style="white-space: pre" font-family="Arial" font-size="12" font-weight="bold" letter-spacing="0em"><tspan x="606.8" y="656.865">chromosome duplication</tspan></text>
<text id="chromosome segregation" fill="black" xml:space="preserve" style="white-space: pre" font-family="Arial" font-size="12" font-weight="bold" letter-spacing="0em"><tspan x="557.671" y="246.57">chromosome&#10;</tspan><tspan x="561.339" y="260.57">segregation</tspan></text>
</g>
<g id="R-ICO-012348">
<path id="Vector_24" d="M721 179.396C692.567 179.396 682.415 179.395 660 179.395" stroke="url(#paint10_linear_938_25781)" stroke-width="8" stroke-miterlimit="10"/>
<path id="Vector_25" d="M720 171.395L730 179.395L720 187.395V171.395Z" fill="#0052AF"/>
</g>
<g id="R-ICO-014844">
<g id="CONTENT" opacity="0.8">
<g id="R-ICO-013121">
<path id="Vector_26" d="M453.519 439.862C471.27 439.862 485.661 425.472 485.661 407.721C485.661 389.97 471.27 375.58 453.519 375.58C435.768 375.58 421.378 389.97 421.378 407.721C421.378 425.472 435.768 439.862 453.519 439.862Z" fill="url(#paint11_radial_938_25781)"/>
<path id="Vector_27" d="M453.519 441.044C435.144 441.044 420.196 426.096 420.196 407.721C420.196 389.346 435.144 374.398 453.519 374.398C471.894 374.398 486.842 389.346 486.842 407.721C486.842 426.096 471.894 441.044 453.519 441.044ZM453.519 376.761C436.444 376.761 422.56 390.646 422.56 407.721C422.56 424.796 436.444 438.681 453.519 438.681C470.594 438.681 484.479 424.796 484.479 407.721C484.479 390.646 470.594 376.761 453.519 376.761Z" fill="#5656A5"/>
</g>
<g id="Group">
<path id="Vector_28" d="M460.553 386.506C459.959 388.203 456.75 388.623 453.386 387.444C450.022 386.265 447.777 383.934 448.372 382.237" stroke="#AABA11" stroke-width="3" stroke-miterlimit="10" stroke-linecap="round" stroke-linejoin="round"/>
<path id="Vector_29" d="M456.95 396.264C456.617 398.031 453.508 398.929 450.005 398.269C446.502 397.609 443.933 395.642 444.265 393.875" stroke="#AABA11" stroke-width="3" stroke-miterlimit="10" stroke-linecap="round" stroke-linejoin="round"/>
<path id="Vector_30" d="M450.115 413.686C448.977 415.078 445.818 414.376 443.059 412.12C440.299 409.863 438.985 406.906 440.124 405.514" stroke="#AABA11" stroke-width="3" stroke-miterlimit="10" stroke-linecap="round" stroke-linejoin="round"/>
<path id="Vector_31" d="M438.408 420.98C437.27 422.372 434.111 421.671 431.351 419.414C428.592 417.158 427.278 414.2 428.417 412.809" stroke="#AABA11" stroke-width="3" stroke-miterlimit="10" stroke-linecap="round" stroke-linejoin="round"/>
<path id="Vector_32" d="M425.632 419.695C425.071 419.751 424.502 419.487 424.194 418.971C423.769 418.26 424.001 417.339 424.713 416.914C426.096 416.089 427.857 415.316 429.72 414.499C436.269 411.625 444.42 408.05 445.432 398.866C446.602 388.245 451.207 379.246 454.982 376.681C456.053 375.954 457.075 375.717 458.019 375.976C458.817 376.195 459.287 377.02 459.068 377.819C458.849 378.618 458.024 379.088 457.225 378.869C457.211 378.869 457.196 378.871 457.181 378.872C455.466 379.044 449.755 387.028 448.414 399.195C447.212 410.101 437.799 414.231 430.926 417.246C429.15 418.025 427.472 418.76 426.251 419.49C426.056 419.607 425.844 419.673 425.632 419.695Z" fill="url(#paint12_linear_938_25781)"/>
<path id="Vector_33" d="M430.907 422.182C430.345 422.238 429.776 421.974 429.468 421.458C429.043 420.747 429.276 419.826 429.987 419.401C431.37 418.575 433.131 417.803 434.995 416.985C441.544 414.112 449.694 410.537 450.706 401.353C451.877 390.732 456.481 381.733 460.256 379.168C461.328 378.441 462.35 378.203 463.293 378.463C464.092 378.682 464.562 379.507 464.343 380.306C464.124 381.105 463.299 381.575 462.499 381.356C462.485 381.356 462.47 381.358 462.455 381.359C460.741 381.531 455.029 389.515 453.689 401.682C452.486 412.588 443.073 416.718 436.2 419.732C434.424 420.512 432.747 421.247 431.525 421.977C431.33 422.094 431.119 422.16 430.907 422.182Z" fill="url(#paint13_linear_938_25781)"/>
<path id="Vector_34" d="M444.266 393.875C444.598 392.108 447.708 391.211 451.21 391.87C454.713 392.53 457.283 394.497 456.95 396.264" stroke="#AABA11" stroke-width="3" stroke-miterlimit="10" stroke-linecap="round" stroke-linejoin="round"/>
<path id="Vector_35" d="M448.372 382.237C448.967 380.54 452.176 380.121 455.539 381.299C458.903 382.478 461.148 384.809 460.553 386.506" stroke="#AABA11" stroke-width="3" stroke-miterlimit="10" stroke-linecap="round" stroke-linejoin="round"/>
<path id="Vector_36" d="M440.123 405.515C441.261 404.123 444.421 404.824 447.18 407.08C449.939 409.337 451.253 412.295 450.115 413.686" stroke="#AABA11" stroke-width="3" stroke-miterlimit="10" stroke-linecap="round" stroke-linejoin="round"/>
<path id="Vector_37" d="M428.417 412.809C429.555 411.417 432.715 412.118 435.474 414.374C438.233 416.631 439.547 419.588 438.409 420.98" stroke="#AABA11" stroke-width="3" stroke-miterlimit="10" stroke-linecap="round" stroke-linejoin="round"/>
</g>
<g id="Group_2">
<path id="Vector_38" d="M478.945 394.114C478.945 395.771 475.714 397.114 471.728 397.114C467.742 397.114 464.511 395.771 464.511 394.114" stroke="#AABA11" stroke-width="3" stroke-miterlimit="10" stroke-linecap="round" stroke-linejoin="round"/>
<path id="Vector_39" d="M470.195 417.211C469.49 418.579 466.341 419.232 462.739 418.68C458.799 418.076 455.809 416.258 456.06 414.621" stroke="#AABA11" stroke-width="3" stroke-miterlimit="10" stroke-linecap="round" stroke-linejoin="round"/>
<path id="Vector_40" d="M469.357 428.579C469.557 430.224 466.512 431.948 462.555 432.429C459.093 432.85 456.08 432.18 455.247 430.905" stroke="#AABA11" stroke-width="3" stroke-miterlimit="10" stroke-linecap="round" stroke-linejoin="round"/>
<path id="Vector_41" d="M476.214 405.44C475.963 407.078 472.565 407.916 468.625 407.312C464.686 406.708 461.695 404.89 461.946 403.252" stroke="#AABA11" stroke-width="3" stroke-miterlimit="10" stroke-linecap="round" stroke-linejoin="round"/>
<path id="Vector_42" d="M460.213 436.992C459.63 436.992 459.076 436.65 458.832 436.08C455.023 427.145 456.12 418.623 462.499 407.586C466.933 399.915 466.879 397.657 466.749 392.203C466.705 390.377 466.652 388.104 466.773 385.216C466.808 384.389 467.495 383.732 468.335 383.78C469.162 383.815 469.805 384.515 469.77 385.343C469.653 388.131 469.703 390.257 469.748 392.132C469.884 397.827 469.952 400.687 465.096 409.088C459.243 419.214 458.195 426.935 461.592 434.904C461.917 435.666 461.562 436.547 460.8 436.872C460.609 436.954 460.409 436.992 460.213 436.992Z" fill="url(#paint14_linear_938_25781)"/>
<path id="Vector_43" d="M467.213 436.992C466.63 436.992 466.076 436.65 465.832 436.08C462.023 427.145 463.12 418.623 469.499 407.586C473.933 399.915 473.879 397.657 473.749 392.203C473.705 390.377 473.652 388.104 473.773 385.216C473.808 384.389 474.495 383.732 475.335 383.78C476.162 383.815 476.805 384.515 476.77 385.343C476.653 388.131 476.703 390.257 476.748 392.132C476.884 397.827 476.952 400.687 472.096 409.088C466.243 419.214 465.195 426.935 468.592 434.904C468.917 435.666 468.562 436.547 467.8 436.872C467.609 436.954 467.409 436.992 467.213 436.992Z" fill="url(#paint15_linear_938_25781)"/>
<path id="Vector_44" d="M461.946 403.252C462.197 401.614 465.595 400.776 469.535 401.38C473.475 401.984 476.465 403.802 476.214 405.439" stroke="#AABA11" stroke-width="3" stroke-miterlimit="10" stroke-linecap="round" stroke-linejoin="round"/>
<path id="Vector_45" d="M455.247 430.905C455.128 430.722 455.054 430.528 455.029 430.322C454.829 428.677 457.874 426.954 461.831 426.472C465.788 425.991 469.157 426.934 469.357 428.579" stroke="#AABA11" stroke-width="3" stroke-miterlimit="10" stroke-linecap="round" stroke-linejoin="round"/>
<path id="Vector_46" d="M464.511 394.114C464.511 392.457 467.742 391.114 471.728 391.114C475.714 391.114 478.945 392.457 478.945 394.114" stroke="#AABA11" stroke-width="3" stroke-miterlimit="10" stroke-linecap="round" stroke-linejoin="round"/>
<path id="Vector_47" d="M456.06 414.621C456.311 412.983 459.708 412.145 463.648 412.749C467.588 413.353 470.578 415.17 470.327 416.808C470.306 416.948 470.261 417.083 470.195 417.211" stroke="#AABA11" stroke-width="3" stroke-miterlimit="10" stroke-linecap="round" stroke-linejoin="round"/>
</g>
<g id="R-ICO-013391">
<path id="Vector_48" d="M495.919 417.252C496.44 429.401 495.392 436.412 488.077 443.689C479.148 452.574 471.728 455.924 464.511 455.543" stroke="#5B2C2C" stroke-miterlimit="10" stroke-linecap="round" stroke-linejoin="round" stroke-dasharray="4 4"/>
<path id="Vector_49" d="M503.948 427.383C498.137 438.065 493.628 443.534 483.61 446.005C471.38 449.022 463.295 448.072 457.305 444.028" stroke="#5B2C2C" stroke-miterlimit="10" stroke-linecap="round" stroke-linejoin="round" stroke-dasharray="4 4"/>
<path id="Vector_50" d="M503.948 435.354C498.606 444.71 487.794 445.876 487.794 445.876" stroke="#5B2C2C" stroke-miterlimit="10" stroke-linecap="round" stroke-linejoin="round" stroke-dasharray="4 4"/>
<path id="Vector_51" d="M487.733 444.714C486.144 455.37 476.49 460.375 476.49 460.375" stroke="#5B2C2C" stroke-miterlimit="10" stroke-linecap="round" stroke-linejoin="round" stroke-dasharray="4 4"/>
</g>
<path id="CENTROSOME" d="M486.918 448.083C490.085 448.083 492.653 445.515 492.653 442.348C492.653 439.18 490.085 436.613 486.918 436.613C483.75 436.613 481.183 439.18 481.183 442.348C481.183 445.515 483.75 448.083 486.918 448.083Z" fill="url(#paint16_radial_938_25781)"/>
<g id="R-ICO-013391_2">
<path id="Vector_52" d="M414.911 414.882C413.878 400.275 412.838 394.128 416.96 385.175C421.378 375.579 428.007 369.296 437.454 365.53" stroke="#395B2C" stroke-miterlimit="10" stroke-linecap="round" stroke-linejoin="round" stroke-dasharray="4 4"/>
<path id="Vector_53" d="M406.698 406.557C410.298 393.75 412.924 388.113 419.476 382.237C426.545 375.898 436.073 371.325 444.265 370.485" stroke="#395B2C" stroke-miterlimit="10" stroke-linecap="round" stroke-linejoin="round" stroke-dasharray="4 4"/>
<path id="Vector_54" d="M403.741 396.633C403.741 396.633 405.303 390.809 413.878 383.525" stroke="#395B2C" stroke-miterlimit="10" stroke-linecap="round" stroke-linejoin="round" stroke-dasharray="4 4"/>
<path id="Vector_55" d="M414.972 381.663C414.972 381.663 418.084 371.262 423.981 368.503" stroke="#395B2C" stroke-miterlimit="10" stroke-linecap="round" stroke-linejoin="round" stroke-dasharray="4 4"/>
</g>
<path id="CENTROSOME_2" d="M417.914 390.079C421.081 390.079 423.649 387.511 423.649 384.344C423.649 381.177 421.081 378.609 417.914 378.609C414.746 378.609 412.179 381.177 412.179 384.344C412.179 387.511 414.746 390.079 417.914 390.079Z" fill="url(#paint17_radial_938_25781)"/>
</g>
<g id="TOP" opacity="0.7">
<path id="BG_2" opacity="0.5" d="M453.358 470.205C484.495 470.205 509.737 444.963 509.737 413.826C509.737 382.689 484.495 357.447 453.358 357.447C422.221 357.447 396.979 382.689 396.979 413.826C396.979 444.963 422.221 470.205 453.358 470.205Z" fill="url(#paint18_linear_938_25781)"/>
<path id="SHADOW" d="M453.358 470.205C484.495 470.205 509.737 444.963 509.737 413.826C509.737 382.689 484.495 357.447 453.358 357.447C422.221 357.447 396.979 382.689 396.979 413.826C396.979 444.963 422.221 470.205 453.358 470.205Z" fill="url(#paint19_radial_938_25781)"/>
<path id="LIGHT" opacity="0.7" d="M453.358 470.205C484.495 470.205 509.737 444.963 509.737 413.826C509.737 382.689 484.495 357.447 453.358 357.447C422.221 357.447 396.979 382.689 396.979 413.826C396.979 444.963 422.221 470.205 453.358 470.205Z" fill="url(#paint20_radial_938_25781)"/>
</g>
</g>
<g id="R-ICO-014852">
<g id="CONTENT_2" opacity="0.8">
<g id="R-ICO-013121_2">
<path id="Vector_56" d="M678.14 605.872C695.891 605.872 710.282 591.482 710.282 573.731C710.282 555.98 695.891 541.59 678.14 541.59C660.389 541.59 645.999 555.98 645.999 573.731C645.999 591.482 660.389 605.872 678.14 605.872Z" fill="url(#paint21_radial_938_25781)"/>
<path id="Vector_57" d="M678.14 607.054C659.765 607.054 644.817 592.106 644.817 573.731C644.817 555.356 659.765 540.408 678.14 540.408C696.515 540.408 711.463 555.356 711.463 573.731C711.463 592.106 696.515 607.054 678.14 607.054ZM678.14 542.771C661.065 542.771 647.181 556.656 647.181 573.731C647.181 590.806 661.065 604.691 678.14 604.691C695.215 604.691 709.1 590.806 709.1 573.731C709.1 556.656 695.215 542.771 678.14 542.771Z" fill="#5656A5"/>
</g>
<g id="Group_3">
<path id="Vector_58" d="M684.758 554.445C684.083 555.892 681.209 555.979 678.341 554.639C675.472 553.299 673.694 551.04 674.37 549.593" stroke="#AABA11" stroke-width="3" stroke-miterlimit="10" stroke-linecap="round" stroke-linejoin="round"/>
<path id="Vector_59" d="M680.709 562.751C680.259 564.283 677.431 564.801 674.394 563.908C671.356 563.014 669.259 561.048 669.709 559.516" stroke="#AABA11" stroke-width="3" stroke-miterlimit="10" stroke-linecap="round" stroke-linejoin="round"/>
<path id="Vector_60" d="M673.125 577.543C671.996 578.673 669.265 577.773 667.027 575.535C664.788 573.296 663.888 570.565 665.018 569.436" stroke="#AABA11" stroke-width="3" stroke-miterlimit="10" stroke-linecap="round" stroke-linejoin="round"/>
<path id="Vector_61" d="M662.132 582.954C661.003 584.083 658.272 583.184 656.034 580.945C653.795 578.706 652.895 575.975 654.025 574.846" stroke="#AABA11" stroke-width="3" stroke-miterlimit="10" stroke-linecap="round" stroke-linejoin="round"/>
<path id="Vector_62" d="M650.954 580.686C650.453 580.686 649.973 580.402 649.747 579.919C649.434 579.253 649.721 578.459 650.387 578.147C651.683 577.54 653.308 577.013 655.027 576.456C661.07 574.496 668.59 572.058 670.298 564.03C672.274 554.746 677.14 547.2 680.704 545.268C681.715 544.72 682.64 544.601 683.451 544.914C684.137 545.178 684.479 545.949 684.215 546.636C683.951 547.322 683.18 547.665 682.493 547.4C682.48 547.399 682.467 547.399 682.453 547.399C680.923 547.399 675.167 553.95 672.905 564.585C670.876 574.118 662.191 576.935 655.849 578.99C654.21 579.522 652.663 580.024 651.518 580.561C651.336 580.646 651.143 580.686 650.954 580.686Z" fill="url(#paint22_linear_938_25781)"/>
<path id="Vector_63" d="M655.395 583.351C654.894 583.351 654.414 583.068 654.188 582.584C653.875 581.918 654.162 581.124 654.829 580.812C656.124 580.205 657.749 579.678 659.469 579.121C665.511 577.161 673.032 574.723 674.74 566.695C676.715 557.411 681.582 549.865 685.146 547.933C686.157 547.385 687.081 547.266 687.892 547.579C688.578 547.843 688.921 548.614 688.657 549.301C688.392 549.987 687.621 550.33 686.934 550.065C686.922 550.064 686.908 550.064 686.895 550.064C685.364 550.064 679.609 556.615 677.346 567.25C675.318 576.783 666.632 579.6 660.29 581.655C658.652 582.187 657.104 582.688 655.96 583.225C655.777 583.311 655.585 583.351 655.395 583.351Z" fill="url(#paint23_linear_938_25781)"/>
<path id="Vector_64" d="M669.71 559.516C670.161 557.984 672.988 557.466 676.026 558.359C679.063 559.252 681.16 561.218 680.71 562.751" stroke="#AABA11" stroke-width="3" stroke-miterlimit="10" stroke-linecap="round" stroke-linejoin="round"/>
<path id="Vector_65" d="M674.369 549.593C675.045 548.146 677.918 548.059 680.787 549.399C683.656 550.739 685.433 552.998 684.758 554.445" stroke="#AABA11" stroke-width="3" stroke-miterlimit="10" stroke-linecap="round" stroke-linejoin="round"/>
<path id="Vector_66" d="M665.018 569.436C666.147 568.307 668.877 569.206 671.116 571.445C673.355 573.684 674.254 576.414 673.125 577.544" stroke="#AABA11" stroke-width="3" stroke-miterlimit="10" stroke-linecap="round" stroke-linejoin="round"/>
<path id="Vector_67" d="M654.024 574.846C655.154 573.717 657.884 574.617 660.123 576.855C662.362 579.094 663.261 581.825 662.132 582.954" stroke="#AABA11" stroke-width="3" stroke-miterlimit="10" stroke-linecap="round" stroke-linejoin="round"/>
</g>
<g id="Group_4">
<path id="Vector_68" d="M700.945 560.587C700.945 562.059 698.074 563.252 694.534 563.252C690.993 563.252 688.123 562.059 688.123 560.587" stroke="#AABA11" stroke-width="3" stroke-miterlimit="10" stroke-linecap="round" stroke-linejoin="round"/>
<path id="Vector_69" d="M693.173 581.103C692.546 582.318 689.749 582.898 686.55 582.408C683.05 581.871 680.394 580.257 680.617 578.802" stroke="#AABA11" stroke-width="3" stroke-miterlimit="10" stroke-linecap="round" stroke-linejoin="round"/>
<path id="Vector_70" d="M692.428 591.201C692.606 592.662 689.901 594.193 686.386 594.621C683.311 594.995 680.635 594.4 679.895 593.267" stroke="#AABA11" stroke-width="3" stroke-miterlimit="10" stroke-linecap="round" stroke-linejoin="round"/>
<path id="Vector_71" d="M698.52 570.647C698.297 572.102 695.279 572.846 691.779 572.31C688.279 571.773 685.623 570.159 685.846 568.704" stroke="#AABA11" stroke-width="3" stroke-miterlimit="10" stroke-linecap="round" stroke-linejoin="round"/>
<path id="Vector_72" d="M684.305 598.675C683.787 598.675 683.295 598.371 683.079 597.864C679.696 589.927 680.67 582.358 686.336 572.554C690.275 565.74 690.227 563.734 690.112 558.889C690.073 557.267 690.025 555.248 690.133 552.683C690.164 551.948 690.774 551.365 691.52 551.407C692.255 551.439 692.826 552.06 692.795 552.795C692.691 555.272 692.736 557.16 692.775 558.826C692.896 563.885 692.957 566.425 688.643 573.888C683.444 582.882 682.513 589.741 685.53 596.82C685.819 597.497 685.504 598.279 684.827 598.568C684.657 598.641 684.48 598.675 684.305 598.675Z" fill="url(#paint24_linear_938_25781)"/>
<path id="Vector_73" d="M690.524 598.675C690.006 598.675 689.514 598.371 689.298 597.864C685.914 589.927 686.888 582.358 692.555 572.554C696.493 565.74 696.446 563.734 696.33 558.889C696.291 557.267 696.244 555.248 696.352 552.683C696.382 551.948 696.993 551.365 697.739 551.407C698.474 551.439 699.045 552.06 699.014 552.795C698.91 555.272 698.954 557.16 698.994 558.826C699.115 563.885 699.176 566.425 694.862 573.888C689.663 582.882 688.732 589.741 691.749 596.82C692.038 597.497 691.723 598.279 691.046 598.568C690.876 598.641 690.698 598.675 690.524 598.675Z" fill="url(#paint25_linear_938_25781)"/>
<path id="Vector_74" d="M679.895 593.267C679.789 593.105 679.723 592.932 679.701 592.75C679.523 591.288 682.228 589.757 685.743 589.33C689.257 588.902 692.251 589.74 692.429 591.201" stroke="#AABA11" stroke-width="3" stroke-miterlimit="10" stroke-linecap="round" stroke-linejoin="round"/>
<path id="Vector_75" d="M685.846 568.704C686.069 567.249 689.087 566.505 692.586 567.041C696.086 567.578 698.742 569.192 698.519 570.647" stroke="#AABA11" stroke-width="3" stroke-miterlimit="10" stroke-linecap="round" stroke-linejoin="round"/>
<path id="Vector_76" d="M688.123 560.587C688.123 559.115 690.993 557.922 694.534 557.922C698.074 557.922 700.945 559.115 700.945 560.587" stroke="#AABA11" stroke-width="3" stroke-miterlimit="10" stroke-linecap="round" stroke-linejoin="round"/>
<path id="Vector_77" d="M680.616 578.802C680.839 577.347 683.857 576.603 687.357 577.14C690.857 577.676 693.513 579.29 693.29 580.745C693.271 580.87 693.231 580.989 693.172 581.103" stroke="#AABA11" stroke-width="3" stroke-miterlimit="10" stroke-linecap="round" stroke-linejoin="round"/>
</g>
</g>
<g id="TOP_2" opacity="0.7">
<path id="BG_3" opacity="0.5" d="M678.14 624.593C705.777 624.593 728.182 602.188 728.182 574.551C728.182 546.914 705.777 524.51 678.14 524.51C650.503 524.51 628.099 546.914 628.099 574.551C628.099 602.188 650.503 624.593 678.14 624.593Z" fill="url(#paint26_linear_938_25781)"/>
<path id="SHADOW_2" d="M678.14 624.593C705.777 624.593 728.182 602.188 728.182 574.551C728.182 546.914 705.777 524.51 678.14 524.51C650.503 524.51 628.099 546.914 628.099 574.551C628.099 602.188 650.503 624.593 678.14 624.593Z" fill="url(#paint27_radial_938_25781)"/>
<path id="LIGHT_2" opacity="0.7" d="M678.14 624.593C705.777 624.593 728.182 602.188 728.182 574.551C728.182 546.914 705.777 524.51 678.14 524.51C650.503 524.51 628.099 546.914 628.099 574.551C628.099 602.188 650.503 624.593 678.14 624.593Z" fill="url(#paint28_radial_938_25781)"/>
</g>
</g>
<g id="R-ICO-014855">
<g id="CONTENT_3" opacity="0.8">
<g id="R-ICO-013121_3" opacity="0.79">
<path id="Vector_78" d="M936.091 443.53C954.875 443.53 970.102 428.302 970.102 409.519C970.102 390.735 954.875 375.507 936.091 375.507C917.307 375.507 902.08 390.735 902.08 409.519C902.08 428.302 917.307 443.53 936.091 443.53Z" fill="url(#paint29_radial_938_25781)"/>
<path id="Vector_79" d="M936.092 444.78C916.648 444.78 900.83 428.962 900.83 409.519C900.83 390.075 916.648 374.257 936.092 374.257C955.536 374.257 971.353 390.075 971.353 409.519C971.353 428.962 955.536 444.78 936.092 444.78ZM936.092 376.758C918.023 376.758 903.331 391.45 903.331 409.519C903.331 427.587 918.023 442.279 936.092 442.279C954.16 442.279 968.853 427.587 968.853 409.519C968.853 391.45 954.16 376.758 936.092 376.758Z" fill="#5656A5"/>
</g>
<g id="Genetic data">
<g id="Group_5">
<path id="Vector_80" d="M935.405 418.736C932.951 418.736 930.279 416.626 927.445 412.447C927.08 411.909 927.221 411.176 927.759 410.811C928.298 410.446 929.03 410.586 929.395 411.125C931.928 414.859 934.214 416.708 935.832 416.329C937.741 415.884 939.344 412.274 940.119 406.672C940.579 403.356 939.822 400.658 937.873 398.653C934.993 395.693 930.053 394.771 926.432 395.17C925.57 395.265 925.331 395.634 925.218 395.946C924.71 397.347 925.964 400.646 928.941 403.743C929.391 404.212 929.377 404.958 928.908 405.409C928.438 405.861 927.693 405.846 927.242 405.376C923.789 401.785 922.086 397.672 923.002 395.143C923.48 393.823 924.607 393 926.174 392.828C930.365 392.365 936.128 393.48 939.562 397.01C942.009 399.527 943.009 402.98 942.454 406.995C941.498 413.897 939.393 417.919 936.367 418.624C936.05 418.698 935.729 418.735 935.405 418.736Z" fill="url(#paint30_linear_938_25781)"/>
<path id="Vector_81" d="M954.814 414.215C954.422 414.215 954.038 414.019 953.815 413.663C953.469 413.111 953.636 412.384 954.188 412.038C958.767 409.169 962.547 406.102 964.301 403.836C964.699 403.322 965.44 403.228 965.954 403.626C966.469 404.024 966.563 404.764 966.164 405.279C964.25 407.753 960.241 411.026 955.439 414.035C955.244 414.157 955.028 414.215 954.814 414.215Z" fill="url(#paint31_linear_938_25781)"/>
<path id="Vector_82" d="M934.492 436.226C933.562 436.226 932.613 435.814 931.659 434.993C931.165 434.569 931.11 433.825 931.534 433.331C931.96 432.838 932.703 432.782 933.195 433.207C933.79 433.718 934.283 433.933 934.664 433.85C935.261 433.717 935.977 432.81 936.628 431.361C937.028 430.47 937.178 429.937 937.232 429.64C936.192 429.819 933.785 431.033 931.97 431.947C926.562 434.674 920.432 437.764 917.576 434.292C915.575 431.863 913.34 428.353 914.054 425.431C914.303 424.412 915.036 423.012 917.108 422.131C917.706 421.877 918.398 422.156 918.653 422.755C918.908 423.354 918.628 424.046 918.03 424.3C917.074 424.706 916.522 425.259 916.343 425.991C915.972 427.509 917.084 429.989 919.394 432.795C921.056 434.808 926.985 431.821 930.909 429.843C935.085 427.738 937.606 426.467 939.013 427.812C940.118 428.869 939.514 430.688 938.777 432.326C937.763 434.586 936.585 435.837 935.176 436.15C934.95 436.201 934.721 436.226 934.492 436.226Z" fill="url(#paint32_linear_938_25781)"/>
<path id="Vector_83" d="M910.913 419.901C910.897 419.901 910.881 419.901 910.865 419.9C910.214 419.873 909.709 419.325 909.736 418.674C909.8 417.106 909.644 414.704 909.447 411.666C909.175 407.487 908.838 402.287 908.838 396.085C908.838 390.744 910.154 387.275 912.75 385.775C914.948 384.505 917.926 384.824 921.139 386.675C921.703 387 921.896 387.721 921.572 388.285C921.246 388.848 920.525 389.042 919.962 388.717C918.542 387.899 915.871 386.692 913.929 387.815C912.14 388.849 911.195 391.709 911.195 396.085C911.195 402.21 911.529 407.368 911.798 411.513C912 414.622 912.159 417.077 912.09 418.771C912.064 419.405 911.542 419.901 910.913 419.901Z" fill="url(#paint33_linear_938_25781)"/>
</g>
<g id="Group_6">
<path id="Vector_84" d="M940.9 411.864C939.836 411.864 938.636 411.709 937.253 411.358C933.616 410.434 930.061 408.311 927.241 405.376C926.79 404.908 926.805 404.162 927.274 403.711C927.742 403.26 928.488 403.274 928.94 403.744C931.459 406.364 934.617 408.257 937.832 409.073C942.676 410.304 944.493 408.736 947.24 406.361C950.127 403.866 953.719 400.76 961.812 399.669C963.689 399.415 966.295 399.271 967.256 400.937C967.899 402.051 967.531 403.512 966.164 405.279C965.766 405.794 965.025 405.888 964.511 405.49C963.996 405.092 963.902 404.352 964.3 403.837C965.249 402.611 965.209 402.123 965.204 402.092C965.196 402.11 964.912 401.875 963.807 401.875C963.379 401.875 962.83 401.909 962.127 402.004C954.73 403.002 951.569 405.734 948.781 408.144C946.511 410.107 944.478 411.864 940.9 411.864Z" fill="url(#paint34_linear_938_25781)"/>
<path id="Vector_85" d="M947.241 436.427C944.604 436.427 941.479 433.989 937.673 431.021C933.3 427.61 928.344 423.744 923.82 423.593C921.279 423.513 919.33 423.747 918.029 424.301C917.431 424.554 916.739 424.277 916.484 423.677C916.229 423.078 916.508 422.386 917.107 422.131C918.749 421.433 920.971 421.136 923.898 421.238C929.19 421.414 934.467 425.53 939.122 429.162C942.55 431.835 946.097 434.604 947.766 433.982C948.675 433.646 949.164 432.102 949.414 430.866C950.554 425.239 947.302 423.782 944.689 422.611C943.375 422.021 942.134 421.464 942.109 420.193C942.082 418.845 943.387 417.803 947.927 415.548C950.029 414.505 952.135 413.324 954.187 412.038C954.739 411.694 955.465 411.86 955.811 412.411C956.156 412.962 955.989 413.689 955.438 414.035C953.321 415.362 951.146 416.581 948.975 417.659C946.394 418.94 945.264 419.659 944.77 420.048C945.037 420.183 945.374 420.334 945.653 420.459C948.304 421.648 953.237 423.86 951.723 431.334C951.179 434.023 950.152 435.613 948.584 436.192C948.151 436.352 947.703 436.427 947.241 436.427Z" fill="url(#paint35_linear_938_25781)"/>
<path id="Vector_86" d="M932.427 435.278C932.155 435.278 931.881 435.185 931.659 434.993C929.732 433.335 927.819 430.09 925.541 425.728C925.117 424.917 924.692 424.09 924.266 423.261C922.891 420.587 921.47 417.822 920.09 415.599C918.509 413.051 916.207 411.808 913.616 412.093C911.111 412.369 908.704 414.065 908.015 416.039C907.63 417.142 907.87 418.133 908.728 418.985C909.135 419.388 909.427 419.628 909.627 419.772C909.67 419.545 909.714 419.197 909.735 418.675C909.762 418.025 910.324 417.514 910.96 417.545C911.611 417.572 912.116 418.121 912.09 418.771C912.031 420.201 911.807 421.726 910.589 422.204C909.351 422.692 908.115 421.696 907.069 420.658C905.576 419.177 905.11 417.211 905.79 415.263C906.774 412.443 909.956 410.125 913.357 409.75C916.853 409.369 920.036 411.043 922.092 414.356C923.522 416.66 924.966 419.468 926.362 422.184C926.785 423.007 927.208 423.831 927.63 424.637C929.493 428.203 931.456 431.711 933.196 433.207C933.689 433.631 933.745 434.375 933.321 434.869C933.087 435.14 932.758 435.278 932.427 435.278Z" fill="url(#paint36_linear_938_25781)"/>
<path id="Vector_87" d="M933.212 403.203C933.01 403.203 932.808 403.186 932.606 403.15C931.102 402.883 929.924 401.63 929.107 399.427C927.596 395.353 923.835 390.949 919.962 388.718C919.398 388.393 919.205 387.672 919.53 387.108C919.855 386.544 920.575 386.351 921.139 386.676C925.446 389.158 929.631 394.064 931.316 398.607C931.664 399.545 932.242 400.692 933.018 400.83C934.767 401.139 937.984 397.387 940.561 394.369C941.405 393.381 942.278 392.358 943.121 391.442C943.561 390.963 944.306 390.931 944.785 391.372C945.265 391.812 945.296 392.558 944.855 393.037C944.042 393.921 943.183 394.927 942.353 395.899C939.152 399.648 936.118 403.203 933.212 403.203Z" fill="url(#paint37_linear_938_25781)"/>
<path id="Vector_88" d="M959.691 419.901C959.615 419.901 959.537 419.895 959.458 419.878C958.821 419.751 958.407 419.131 958.534 418.492C958.924 416.544 960.036 415.251 960.847 414.308C961.314 413.766 961.795 413.206 961.749 412.929C961.704 412.654 961.258 411.816 958.115 409.967C952.643 406.748 950.244 404.413 949.836 401.906C949.482 399.739 950.786 397.941 951.798 396.778C953.396 394.94 953.321 392.239 952.336 390.79C951.543 389.623 950.278 389.303 948.682 389.868C947.471 390.295 945.918 391.881 944.855 393.037C944.416 393.516 943.67 393.548 943.19 393.106C942.711 392.666 942.68 391.921 943.121 391.442C945.107 389.281 946.58 388.11 947.898 387.646C950.499 386.727 952.885 387.408 954.285 389.465C956.006 391.996 955.695 395.888 953.576 398.324C952.448 399.621 952.012 400.609 952.162 401.527C952.433 403.19 954.704 405.226 959.31 407.936C962.458 409.788 963.838 411.122 964.074 412.544C964.3 413.907 963.453 414.892 962.634 415.844C961.887 416.713 961.114 417.612 960.845 418.954C960.733 419.514 960.241 419.901 959.691 419.901Z" fill="url(#paint38_linear_938_25781)"/>
</g>
</g>
</g>
<g id="TOP_3" opacity="0.7">
<path id="BG_4" opacity="0.5" d="M933.701 465.394C963.447 465.394 987.561 441.28 987.561 411.534C987.561 381.787 963.447 357.673 933.701 357.673C903.955 357.673 879.841 381.787 879.841 411.534C879.841 441.28 903.955 465.394 933.701 465.394Z" fill="url(#paint39_linear_938_25781)"/>
<path id="SHADOW_3" d="M933.701 465.394C963.447 465.394 987.561 441.28 987.561 411.534C987.561 381.787 963.447 357.673 933.701 357.673C903.955 357.673 879.841 381.787 879.841 411.534C879.841 441.28 903.955 465.394 933.701 465.394Z" fill="url(#paint40_radial_938_25781)"/>
<path id="LIGHT_3" opacity="0.7" d="M933.701 465.394C963.447 465.394 987.561 441.28 987.561 411.534C987.561 381.787 963.447 357.673 933.701 357.673C903.955 357.673 879.841 381.787 879.841 411.534C879.841 441.28 903.955 465.394 933.701 465.394Z" fill="url(#paint41_radial_938_25781)"/>
</g>
</g>
<g id="chromosome condensation">
<g id="R-ICO-014861">
<g id="CONTENT_4" opacity="0.8">
<g id="R-ICO-013121_4" opacity="0.79">
<path id="Vector_89" d="M723.786 264.138C737.723 264.138 749.022 252.839 749.022 238.902C749.022 224.964 737.723 213.666 723.786 213.666C709.848 213.666 698.55 224.964 698.55 238.902C698.55 252.839 709.848 264.138 723.786 264.138Z" fill="url(#paint42_radial_938_25781)"/>
<path id="Vector_90" d="M718.557 264.538C704.421 261.654 695.267 247.809 698.15 233.673C701.033 219.537 714.879 210.382 729.015 213.266C743.151 216.149 752.305 229.994 749.422 244.131C746.538 258.267 732.693 267.421 718.557 264.538ZM728.644 215.084C715.508 212.404 702.647 220.907 699.968 234.043C697.289 247.18 705.792 260.04 718.928 262.719C732.064 265.399 744.924 256.896 747.604 243.76C750.283 230.623 741.78 217.763 728.644 215.084Z" fill="#5656A5"/>
</g>
<g id="Genetic data_2">
<path id="Vector_91" d="M719.107 220.333C719.22 219.78 719.712 219.368 720.296 219.375C720.958 219.383 721.489 219.926 721.481 220.588C721.448 223.416 722.46 228.517 729.615 230.898C733.939 232.337 734.786 235.038 734.906 236.519C735.124 239.195 733.374 242.06 730.653 243.489C729.695 243.991 729.67 244.447 729.662 244.599C729.607 245.62 731.134 247.714 734.673 250.09C736.222 251.132 735.708 252.324 735.59 252.553C734.524 254.615 728.81 254.303 725.625 253.094C721.959 251.703 720.329 249.021 721.16 245.762C721.323 245.12 721.975 244.732 722.618 244.895C723.259 245.058 723.644 245.706 723.485 246.351C723.086 247.928 723.54 249.119 724.927 250.065C727.132 251.57 730.764 251.801 732.583 251.561C729.924 249.666 727.128 247.045 727.267 244.47C727.313 243.574 727.747 242.306 729.538 241.365C731.403 240.385 732.655 238.428 732.516 236.713C732.356 234.741 730.438 233.7 728.857 233.174C719.936 230.205 719.05 223.363 719.083 220.56C719.084 220.483 719.092 220.406 719.107 220.333Z" fill="url(#paint43_linear_938_25781)"/>
<path id="Vector_92" d="M703.381 238.121C703.654 237.955 703.945 237.79 704.254 237.627C704.821 237.326 705.521 237.538 705.817 238.099C706.115 238.66 705.905 239.349 705.329 239.66C703.127 240.825 702.569 241.715 702.588 242.057C702.601 242.309 703.021 242.72 703.929 243.069C707.084 244.282 713.622 243.918 717.105 240.554C723.666 234.23 730.192 238.111 735.951 241.538C736.741 242.007 737.524 242.473 738.3 242.908C740.171 243.958 741.688 244.185 742.372 243.51C743.221 242.668 743.24 240.206 741.607 237.301C740.518 235.365 739.054 234.572 737.763 233.872C736.6 233.241 735.501 232.646 735.133 231.363C734.824 230.288 735.138 229.002 736.148 227.194C736.458 226.637 737.165 226.43 737.725 226.737C738.284 227.042 738.483 227.743 738.17 228.302C737.308 229.845 737.293 230.474 737.361 230.712C737.466 231.074 738.124 231.432 738.886 231.845C740.293 232.607 742.219 233.652 743.631 236.161C745.648 239.746 745.797 243.353 744.001 245.136C743.13 246 741.078 247.123 737.149 244.92C736.356 244.475 735.556 244 734.749 243.52C729.213 240.227 723.988 237.112 718.709 242.204C714.403 246.36 706.731 246.626 703.077 245.221C700.73 244.319 700.314 242.941 700.274 242.199C700.199 240.79 701.243 239.42 703.381 238.121Z" fill="url(#paint44_linear_938_25781)"/>
</g>
</g>
<g id="TOP_4" opacity="0.7">
<path id="BG_5" opacity="0.5" d="M725.019 276.513C745.412 276.513 761.945 259.981 761.945 239.588C761.945 219.194 745.412 202.662 725.019 202.662C704.626 202.662 688.094 219.194 688.094 239.588C688.094 259.981 704.626 276.513 725.019 276.513Z" fill="url(#paint45_linear_938_25781)"/>
<path id="SHADOW_4" d="M725.019 276.513C745.412 276.513 761.945 259.981 761.945 239.588C761.945 219.194 745.412 202.662 725.019 202.662C704.626 202.662 688.094 219.194 688.094 239.588C688.094 259.981 704.626 276.513 725.019 276.513Z" fill="url(#paint46_radial_938_25781)"/>
<path id="LIGHT_4" opacity="0.7" d="M725.019 276.513C745.412 276.513 761.945 259.981 761.945 239.588C761.945 219.194 745.412 202.662 725.019 202.662C704.626 202.662 688.094 219.194 688.094 239.588C688.094 259.981 704.626 276.513 725.019 276.513Z" fill="url(#paint47_radial_938_25781)"/>
</g>
</g>
<g id="R-ICO-014861_2">
<g id="CONTENT_5" opacity="0.8">
<g id="R-ICO-013121_5" opacity="0.79">
<path id="Vector_93" d="M787.705 196.733C801.642 196.733 812.941 185.434 812.941 171.497C812.941 157.559 801.642 146.261 787.705 146.261C773.767 146.261 762.469 157.559 762.469 171.497C762.469 185.434 773.767 196.733 787.705 196.733Z" fill="url(#paint48_radial_938_25781)"/>
<path id="Vector_94" d="M782.476 197.133C768.34 194.249 759.186 180.404 762.069 166.268C764.952 152.132 778.798 142.978 792.934 145.861C807.07 148.744 816.224 162.59 813.341 176.726C810.457 190.862 796.612 200.016 782.476 197.133ZM792.563 147.679C779.427 145 766.566 153.503 763.887 166.639C761.208 179.775 769.711 192.635 782.847 195.315C795.983 197.994 808.843 189.491 811.522 176.355C814.202 163.219 805.699 150.358 792.563 147.679Z" fill="#5656A5"/>
</g>
<g id="Genetic data_3">
<path id="Vector_95" d="M783.026 152.928C783.139 152.376 783.631 151.963 784.215 151.97C784.877 151.978 785.408 152.521 785.4 153.184C785.367 156.012 786.379 161.113 793.534 163.494C797.858 164.933 798.705 167.633 798.825 169.114C799.043 171.791 797.293 174.655 794.572 176.084C793.614 176.587 793.589 177.042 793.58 177.195C793.526 178.215 795.053 180.309 798.592 182.685C800.141 183.727 799.627 184.919 799.509 185.149C798.443 187.211 792.729 186.899 789.544 185.689C785.878 184.299 784.248 181.616 785.079 178.358C785.242 177.715 785.894 177.327 786.537 177.49C787.178 177.653 787.563 178.302 787.404 178.947C787.005 180.523 787.459 181.715 788.846 182.66C791.051 184.165 794.683 184.397 796.502 184.156C793.843 182.261 791.047 179.64 791.186 177.066C791.232 176.169 791.666 174.902 793.457 173.96C795.322 172.981 796.574 171.023 796.435 169.308C796.275 167.336 794.357 166.296 792.776 165.769C783.855 162.8 782.969 155.958 783.002 153.155C783.003 153.078 783.011 153.001 783.026 152.928Z" fill="url(#paint49_linear_938_25781)"/>
<path id="Vector_96" d="M767.3 170.716C767.573 170.55 767.864 170.385 768.173 170.222C768.74 169.921 769.44 170.133 769.736 170.695C770.034 171.255 769.824 171.944 769.247 172.255C767.046 173.421 766.488 174.311 766.507 174.652C766.52 174.904 766.94 175.315 767.848 175.664C771.003 176.877 777.541 176.513 781.024 173.15C787.585 166.825 794.111 170.707 799.87 174.133C800.66 174.602 801.443 175.069 802.218 175.503C804.09 176.553 805.607 176.78 806.291 176.106C807.14 175.263 807.159 172.801 805.526 169.896C804.437 167.96 802.973 167.167 801.682 166.467C800.519 165.837 799.42 165.241 799.052 163.959C798.743 162.883 799.057 161.597 800.067 159.79C800.377 159.232 801.084 159.025 801.644 159.332C802.203 159.638 802.402 160.338 802.089 160.897C801.227 162.44 801.212 163.069 801.28 163.307C801.385 163.67 802.042 164.027 802.805 164.44C804.212 165.202 806.138 166.247 807.55 168.756C809.567 172.342 809.716 175.948 807.92 177.731C807.049 178.595 804.997 179.718 801.067 177.515C800.275 177.071 799.475 176.595 798.668 176.115C793.132 172.822 787.907 169.707 782.628 174.799C778.322 178.955 770.65 179.221 766.996 177.816C764.649 176.914 764.233 175.536 764.193 174.794C764.118 173.385 765.162 172.016 767.3 170.716Z" fill="url(#paint50_linear_938_25781)"/>
</g>
</g>
<g id="TOP_5" opacity="0.7">
<path id="BG_6" opacity="0.5" d="M788.938 209.108C809.331 209.108 825.863 192.576 825.863 172.183C825.863 151.789 809.331 135.257 788.938 135.257C768.545 135.257 752.013 151.789 752.013 172.183C752.013 192.576 768.545 209.108 788.938 209.108Z" fill="url(#paint51_linear_938_25781)"/>
<path id="SHADOW_5" d="M788.938 209.108C809.331 209.108 825.863 192.576 825.863 172.183C825.863 151.789 809.331 135.257 788.938 135.257C768.545 135.257 752.013 151.789 752.013 172.183C752.013 192.576 768.545 209.108 788.938 209.108Z" fill="url(#paint52_radial_938_25781)"/>
<path id="LIGHT_5" opacity="0.7" d="M788.938 209.108C809.331 209.108 825.863 192.576 825.863 172.183C825.863 151.789 809.331 135.257 788.938 135.257C768.545 135.257 752.013 151.789 752.013 172.183C752.013 192.576 768.545 209.108 788.938 209.108Z" fill="url(#paint53_radial_938_25781)"/>
</g>
</g>
</g>
<g id="R-ICO-014847">
<g id="Group_7" opacity="0.8">
<g id="R-ICO-012564">
<path id="Vector_97" d="M561.479 205.602C561.404 205.73 561.319 205.852 561.21 205.961L569.918 214.67C570.612 215.363 570.612 216.488 569.918 217.181C569.225 217.875 568.115 217.891 567.421 217.197L558.697 208.473C557.312 207.088 557.264 204.883 558.649 203.498L559.012 203.135L561.479 205.602Z" fill="url(#paint54_linear_938_25781)"/>
<path id="Vector_98" d="M558.986 203.135L558.672 202.822C557.288 201.437 557.288 199.183 558.672 197.798L563.686 192.783C564.38 192.089 565.482 192.113 566.175 192.807C566.869 193.5 566.869 194.625 566.175 195.319L561.184 200.31C561.293 200.419 561.379 200.541 561.454 200.668L558.986 203.135Z" fill="url(#paint55_linear_938_25781)"/>
</g>
<g id="R-ICO-012564_2">
<path id="Vector_99" d="M561.477 195.376C561.402 195.503 561.317 195.625 561.208 195.734L569.916 204.443C570.61 205.137 570.61 206.261 569.916 206.955C569.223 207.648 568.113 207.664 567.419 206.971L558.695 198.247C557.31 196.862 557.262 194.657 558.647 193.272L559.01 192.909L561.477 195.376Z" fill="url(#paint56_linear_938_25781)"/>
<path id="Vector_100" d="M559.01 192.909L558.696 192.595C557.311 191.21 557.311 188.956 558.696 187.571L563.71 182.556C564.403 181.862 565.505 181.887 566.199 182.58C566.892 183.274 566.892 184.398 566.199 185.092L561.208 190.083C561.317 190.192 561.402 190.314 561.477 190.441L559.01 192.909Z" fill="url(#paint57_linear_938_25781)"/>
</g>
<g id="R-ICO-012564_3">
<path id="Vector_101" d="M561.477 185.15C561.402 185.277 561.317 185.399 561.208 185.508L569.916 194.217C570.61 194.911 570.61 196.035 569.916 196.729C569.223 197.422 568.113 197.438 567.419 196.745L558.695 188.021C557.31 186.636 557.262 184.431 558.647 183.046L559.01 182.683L561.477 185.15Z" fill="url(#paint58_linear_938_25781)"/>
<path id="Vector_102" d="M559.01 182.683L558.696 182.369C557.311 180.984 557.311 178.73 558.696 177.345L563.71 172.33C564.403 171.636 565.505 171.661 566.199 172.354C566.892 173.048 566.892 174.172 566.199 174.866L561.208 179.857C561.317 179.966 561.402 180.088 561.477 180.215L559.01 182.683Z" fill="url(#paint59_linear_938_25781)"/>
</g>
<g id="R-ICO-012564_4">
<path id="Vector_103" d="M561.717 154.471C561.642 154.599 561.557 154.721 561.448 154.83L570.156 163.539C570.85 164.232 570.85 165.357 570.156 166.051C569.463 166.744 568.353 166.76 567.659 166.066L558.935 157.342C557.55 155.957 557.502 153.752 558.887 152.367L559.25 152.004L561.717 154.471Z" fill="url(#paint60_linear_938_25781)"/>
<path id="Vector_104" d="M559.205 152.005L558.891 151.691C557.506 150.306 557.506 148.052 558.891 146.667L563.905 141.652C564.599 140.958 565.701 140.982 566.394 141.676C567.088 142.37 567.088 143.494 566.394 144.188L561.403 149.179C561.512 149.288 561.598 149.41 561.672 149.537L559.205 152.005Z" fill="url(#paint61_linear_938_25781)"/>
</g>
<g id="R-ICO-012564_5">
<path id="Vector_105" d="M561.707 164.698C561.632 164.825 561.547 164.947 561.438 165.056L570.147 173.765C570.84 174.458 570.84 175.583 570.147 176.277C569.453 176.97 568.343 176.986 567.649 176.293L558.926 167.569C557.541 166.184 557.492 163.978 558.877 162.593L559.24 162.23L561.707 164.698Z" fill="url(#paint62_linear_938_25781)"/>
<path id="Vector_106" d="M559.24 162.231L558.926 161.917C557.541 160.532 557.541 158.278 558.926 156.893L563.94 151.878C564.634 151.184 565.736 151.209 566.429 151.902C567.123 152.596 567.123 153.72 566.429 154.414L561.438 159.405C561.547 159.514 561.633 159.636 561.708 159.763L559.24 162.231Z" fill="url(#paint63_linear_938_25781)"/>
</g>
<g id="R-ICO-012564_6">
<path id="Vector_107" d="M561.707 174.924C561.632 175.051 561.547 175.173 561.438 175.282L570.147 183.991C570.84 184.685 570.84 185.809 570.147 186.503C569.453 187.196 568.343 187.212 567.649 186.519L558.926 177.795C557.541 176.41 557.492 174.204 558.877 172.819L559.24 172.457L561.707 174.924Z" fill="url(#paint64_linear_938_25781)"/>
<path id="Vector_108" d="M559.24 172.457L558.926 172.143C557.541 170.758 557.541 168.504 558.926 167.119L563.94 162.104C564.634 161.41 565.736 161.435 566.429 162.128C567.123 162.822 567.123 163.946 566.429 164.64L561.438 169.631C561.547 169.74 561.633 169.862 561.708 169.989L559.24 172.457Z" fill="url(#paint65_linear_938_25781)"/>
</g>
<g id="R-ICO-013391_3">
<g id="LEFT">
<path id="Vector_109" d="M558.986 203.133C558.986 203.133 538.716 203.768 538.716 179.425C538.716 155.083 554.124 152.004 559.204 152.004" stroke="#395B2C" stroke-miterlimit="10" stroke-linecap="round" stroke-linejoin="round" stroke-dasharray="4 4"/>
<path id="Vector_110" d="M559.009 192.907C556.03 192.907 538.716 191.663 538.716 179.425C538.716 167.188 547.856 162.23 559.239 162.23" stroke="#395B2C" stroke-miterlimit="10" stroke-linecap="round" stroke-linejoin="round" stroke-dasharray="4 4"/>
<path id="Vector_111" d="M559.009 182.681C555.049 182.681 538.716 182.699 538.716 179.425C538.716 176.152 541.64 172.456 559.239 172.456" stroke="#395B2C" stroke-miterlimit="10" stroke-linecap="round" stroke-linejoin="round" stroke-dasharray="4 4"/>
</g>
</g>
<path id="CENTROSOME_3" d="M538.716 182.429C540.374 182.429 541.718 181.084 541.718 179.426C541.718 177.768 540.374 176.424 538.716 176.424C537.058 176.424 535.714 177.768 535.714 179.426C535.714 181.084 537.058 182.429 538.716 182.429Z" fill="url(#paint66_radial_938_25781)"/>
</g>
<g id="Group_8" opacity="0.8">
<g id="R-ICO-012564_7">
<path id="Vector_112" d="M619.584 205.602C619.658 205.73 619.744 205.852 619.853 205.961L611.144 214.67C610.451 215.363 610.451 216.488 611.144 217.181C611.838 217.875 612.948 217.891 613.641 217.197L622.365 208.473C623.75 207.088 623.799 204.883 622.414 203.498L622.051 203.135L619.584 205.602Z" fill="url(#paint67_linear_938_25781)"/>
<path id="Vector_113" d="M622.076 203.135L622.389 202.822C623.774 201.437 623.774 199.183 622.389 197.798L617.375 192.783C616.682 192.089 615.58 192.113 614.886 192.807C614.193 193.5 614.193 194.625 614.886 195.319L619.878 200.31C619.769 200.419 619.683 200.541 619.608 200.668L622.076 203.135Z" fill="url(#paint68_linear_938_25781)"/>
</g>
<g id="R-ICO-012564_8">
<path id="Vector_114" d="M619.586 195.376C619.66 195.503 619.746 195.625 619.855 195.734L611.146 204.443C610.453 205.137 610.453 206.261 611.146 206.955C611.84 207.648 612.95 207.664 613.643 206.971L622.367 198.247C623.752 196.862 623.801 194.657 622.416 193.272L622.053 192.909L619.586 195.376Z" fill="url(#paint69_linear_938_25781)"/>
<path id="Vector_115" d="M622.053 192.909L622.367 192.595C623.752 191.21 623.752 188.956 622.367 187.571L617.353 182.556C616.659 181.862 615.558 181.887 614.864 182.58C614.17 183.274 614.17 184.398 614.864 185.092L619.855 190.083C619.746 190.192 619.66 190.314 619.586 190.441L622.053 192.909Z" fill="url(#paint70_linear_938_25781)"/>
</g>
<g id="R-ICO-012564_9">
<path id="Vector_116" d="M619.586 185.15C619.66 185.277 619.746 185.399 619.855 185.508L611.146 194.217C610.453 194.911 610.453 196.035 611.146 196.729C611.84 197.422 612.95 197.438 613.643 196.745L622.367 188.021C623.752 186.636 623.801 184.431 622.416 183.046L622.053 182.683L619.586 185.15Z" fill="url(#paint71_linear_938_25781)"/>
<path id="Vector_117" d="M622.053 182.683L622.367 182.369C623.752 180.984 623.752 178.73 622.367 177.345L617.353 172.33C616.659 171.636 615.558 171.661 614.864 172.354C614.17 173.048 614.17 174.172 614.864 174.866L619.855 179.857C619.746 179.966 619.66 180.088 619.586 180.215L622.053 182.683Z" fill="url(#paint72_linear_938_25781)"/>
</g>
<g id="R-ICO-012564_10">
<path id="Vector_118" d="M619.346 154.471C619.42 154.599 619.506 154.721 619.615 154.83L610.906 163.539C610.212 164.232 610.212 165.357 610.906 166.051C611.599 166.744 612.71 166.76 613.403 166.066L622.127 157.342C623.512 155.957 623.561 153.752 622.176 152.367L621.813 152.004L619.346 154.471Z" fill="url(#paint73_linear_938_25781)"/>
<path id="Vector_119" d="M621.858 152.005L622.171 151.691C623.556 150.306 623.556 148.052 622.171 146.667L617.158 141.652C616.464 140.958 615.362 140.982 614.669 141.676C613.975 142.37 613.975 143.494 614.669 144.188L619.66 149.179C619.551 149.288 619.465 149.41 619.39 149.537L621.858 152.005Z" fill="url(#paint74_linear_938_25781)"/>
</g>
<g id="R-ICO-012564_11">
<path id="Vector_120" d="M619.355 164.698C619.43 164.825 619.515 164.947 619.624 165.056L610.916 173.765C610.222 174.458 610.222 175.583 610.916 176.277C611.609 176.97 612.719 176.986 613.413 176.293L622.137 167.569C623.522 166.184 623.57 163.978 622.185 162.593L621.822 162.23L619.355 164.698Z" fill="url(#paint75_linear_938_25781)"/>
<path id="Vector_121" d="M621.823 162.231L622.136 161.917C623.521 160.532 623.521 158.278 622.136 156.893L617.122 151.878C616.429 151.184 615.327 151.209 614.633 151.902C613.94 152.596 613.94 153.72 614.633 154.414L619.625 159.405C619.516 159.514 619.43 159.636 619.355 159.763L621.823 162.231Z" fill="url(#paint76_linear_938_25781)"/>
</g>
<g id="R-ICO-012564_12">
<path id="Vector_122" d="M620.355 174.924C620.43 175.051 620.515 175.173 620.624 175.282L611.916 183.991C611.222 184.685 611.222 185.809 611.916 186.503C612.609 187.196 613.719 187.212 614.413 186.519L623.137 177.795C624.522 176.41 624.57 174.204 623.185 172.819L622.822 172.457L620.355 174.924Z" fill="url(#paint77_linear_938_25781)"/>
<path id="Vector_123" d="M622.823 172.457L623.136 172.143C624.521 170.758 624.521 168.504 623.136 167.119L618.122 162.104C617.429 161.41 616.327 161.435 615.633 162.128C614.94 162.822 614.94 163.946 615.633 164.64L620.625 169.631C620.516 169.74 620.43 169.862 620.355 169.989L622.823 172.457Z" fill="url(#paint78_linear_938_25781)"/>
</g>
<g id="R-ICO-013391_4">
<g id="RIGHT">
<path id="Vector_124" d="M622.077 203.133C622.077 203.133 642.347 203.768 642.347 179.425C642.347 155.083 626.939 152.004 621.858 152.004" stroke="#5B2C2C" stroke-miterlimit="10" stroke-linecap="round" stroke-linejoin="round" stroke-dasharray="4 4"/>
<path id="Vector_125" d="M622.053 192.907C625.032 192.907 642.346 191.663 642.346 179.425C642.346 167.188 633.206 162.23 621.823 162.23" stroke="#5B2C2C" stroke-miterlimit="10" stroke-linecap="round" stroke-linejoin="round" stroke-dasharray="4 4"/>
<path id="Vector_126" d="M622.053 182.681C626.013 182.681 642.346 182.699 642.346 179.425C642.346 176.152 639.422 172.456 621.823 172.456" stroke="#5B2C2C" stroke-miterlimit="10" stroke-linecap="round" stroke-linejoin="round" stroke-dasharray="4 4"/>
</g>
</g>
<path id="CENTROSOME_4" d="M642.347 182.429C644.005 182.429 645.349 181.084 645.349 179.426C645.349 177.768 644.005 176.424 642.347 176.424C640.689 176.424 639.345 177.768 639.345 179.426C639.345 181.084 640.689 182.429 642.347 182.429Z" fill="url(#paint79_radial_938_25781)"/>
</g>
<g id="TOP_6" opacity="0.7">
<path id="BG_7" opacity="0.5" d="M610.538 139.494C603.241 139.494 596.407 141.455 590.515 144.865C584.623 141.455 577.789 139.494 570.492 139.494C548.375 139.494 530.446 157.423 530.446 179.54C530.446 201.657 548.375 219.586 570.492 219.586C577.789 219.586 584.624 217.625 590.515 214.215C596.407 217.625 603.241 219.586 610.538 219.586C632.655 219.586 650.584 201.657 650.584 179.54C650.584 157.423 632.655 139.494 610.538 139.494Z" fill="url(#paint80_linear_938_25781)"/>
<g id="INNER SHADOWS">
<g id="RIGHT_2">
<mask id="mask0_938_25781" style="mask-type:alpha" maskUnits="userSpaceOnUse" x="570" y="139" width="81" height="81">
<path id="MASK" d="M610.502 219.367C632.619 219.367 650.548 201.438 650.548 179.321C650.548 157.204 632.619 139.275 610.502 139.275C588.385 139.275 570.456 157.204 570.456 179.321C570.456 201.438 588.385 219.367 610.502 219.367Z" fill="url(#paint81_radial_938_25781)"/>
</mask>
<g mask="url(#mask0_938_25781)">
<path id="Vector_127" d="M610.502 219.367C632.619 219.367 650.548 201.438 650.548 179.321C650.548 157.204 632.619 139.275 610.502 139.275C588.385 139.275 570.456 157.204 570.456 179.321C570.456 201.438 588.385 219.367 610.502 219.367Z" fill="url(#paint82_radial_938_25781)"/>
</g>
</g>
<g id="LEFT_2">
<mask id="mask1_938_25781" style="mask-type:alpha" maskUnits="userSpaceOnUse" x="530" y="139" width="81" height="81">
<path id="MASK_2" d="M570.456 219.586C592.573 219.586 610.502 201.657 610.502 179.54C610.502 157.423 592.573 139.494 570.456 139.494C548.339 139.494 530.41 157.423 530.41 179.54C530.41 201.657 548.339 219.586 570.456 219.586Z" fill="url(#paint83_radial_938_25781)"/>
</mask>
<g mask="url(#mask1_938_25781)">
<path id="Vector_128" d="M570.456 219.586C592.573 219.586 610.502 201.657 610.502 179.54C610.502 157.423 592.573 139.494 570.456 139.494C548.339 139.494 530.41 157.423 530.41 179.54C530.41 201.657 548.339 219.586 570.456 219.586Z" fill="url(#paint84_radial_938_25781)"/>
</g>
</g>
</g>
<g id="LIGHTS" opacity="0.7">
<path id="LEFT_3" d="M570.459 219.586C592.576 219.586 610.505 201.657 610.505 179.54C610.505 157.423 592.576 139.494 570.459 139.494C548.342 139.494 530.413 157.423 530.413 179.54C530.413 201.657 548.342 219.586 570.459 219.586Z" fill="url(#paint85_radial_938_25781)"/>
<path id="RIGHT_3" d="M610.502 219.586C632.619 219.586 650.548 201.657 650.548 179.54C650.548 157.423 632.619 139.494 610.502 139.494C588.385 139.494 570.456 157.423 570.456 179.54C570.456 201.657 588.385 219.586 610.502 219.586Z" fill="url(#paint86_radial_938_25781)"/>
</g>
</g>
</g>
</g>
<defs>
<radialGradient id="paint0_radial_938_25781" cx="0" cy="0" r="1" gradientUnits="userSpaceOnUse" gradientTransform="translate(667.909 379.508) scale(287.539 287.539)">
<stop stop-color="#A298D6"/>
<stop offset="1" stop-color="#A298D6" stop-opacity="0"/>
</radialGradient>
<radialGradient id="paint1_radial_938_25781" cx="0" cy="0" r="1" gradientUnits="userSpaceOnUse" gradientTransform="translate(678.14 386.789) scale(107.668 107.668)">
<stop stop-color="#F6D2C2"/>
<stop offset="1" stop-color="#F69C71"/>
</radialGradient>
<linearGradient id="paint2_linear_938_25781" x1="754.805" y1="303.192" x2="601.475" y2="303.192" gradientUnits="userSpaceOnUse">
<stop stop-color="#F6783E"/>
<stop offset="0.1604" stop-color="#F67C43"/>
<stop offset="0.3589" stop-color="#F68652"/>
<stop offset="0.5773" stop-color="#F6976C"/>
<stop offset="0.8085" stop-color="#F6AF8E"/>
<stop offset="1" stop-color="#F6C7B1"/>
</linearGradient>
<linearGradient id="paint3_linear_938_25781" x1="594.543" y1="310.125" x2="594.543" y2="463.455" gradientUnits="userSpaceOnUse">
<stop stop-color="#F6783E"/>
<stop offset="0.1604" stop-color="#F67C43"/>
<stop offset="0.3589" stop-color="#F68652"/>
<stop offset="0.5773" stop-color="#F6976C"/>
<stop offset="0.8085" stop-color="#F6AF8E"/>
<stop offset="1" stop-color="#F6C7B1"/>
</linearGradient>
<linearGradient id="paint4_linear_938_25781" x1="601.475" y1="470.387" x2="754.806" y2="470.387" gradientUnits="userSpaceOnUse">
<stop stop-color="#F6783E"/>
<stop offset="0.1604" stop-color="#F67C43"/>
<stop offset="0.3589" stop-color="#F68652"/>
<stop offset="0.5773" stop-color="#F6976C"/>
<stop offset="0.8085" stop-color="#F6AF8E"/>
<stop offset="1" stop-color="#F6C7B1"/>
</linearGradient>
<linearGradient id="paint5_linear_938_25781" x1="776.543" y1="463.175" x2="776.543" y2="309.845" gradientUnits="userSpaceOnUse">
<stop stop-color="#F6783E"/>
<stop offset="0.1604" stop-color="#F67C43"/>
<stop offset="0.3589" stop-color="#F68652"/>
<stop offset="0.5773" stop-color="#F6976C"/>
<stop offset="0.8085" stop-color="#F6AF8E"/>
<stop offset="1" stop-color="#F6C7B1"/>
</linearGradient>
<linearGradient id="paint6_linear_938_25781" x1="885.141" y1="593.438" x2="761.563" y2="470.552" gradientUnits="userSpaceOnUse">
<stop stop-color="#4C4185"/>
<stop offset="1" stop-color="#4C4185" stop-opacity="0"/>
</linearGradient>
<linearGradient id="paint7_linear_938_25781" x1="884.788" y1="179.792" x2="761.902" y2="303.369" gradientUnits="userSpaceOnUse">
<stop stop-color="#4C4185"/>
<stop offset="1" stop-color="#4C4185" stop-opacity="0"/>
</linearGradient>
<linearGradient id="paint8_linear_938_25781" x1="471.142" y1="180.144" x2="594.719" y2="303.031" gradientUnits="userSpaceOnUse">
<stop stop-color="#4C4185"/>
<stop offset="1" stop-color="#4C4185" stop-opacity="0"/>
</linearGradient>
<linearGradient id="paint9_linear_938_25781" x1="471.494" y1="593.791" x2="594.38" y2="470.213" gradientUnits="userSpaceOnUse">
<stop stop-color="#4C4185"/>
<stop offset="1" stop-color="#4C4185" stop-opacity="0"/>
</linearGradient>
<linearGradient id="paint10_linear_938_25781" x1="660" y1="179.895" x2="721" y2="179.896" gradientUnits="userSpaceOnUse">
<stop stop-color="#9CDAFF"/>
<stop offset="0.9502" stop-color="#0052AF"/>
</linearGradient>
<radialGradient id="paint11_radial_938_25781" cx="0" cy="0" r="1" gradientUnits="userSpaceOnUse" gradientTransform="translate(445.162 394.338) scale(42.2436)">
<stop stop-color="#AFBAF7"/>
<stop offset="0.3111" stop-color="#6D96CE"/>
<stop offset="0.8032" stop-color="#285FCC"/>
</radialGradient>
<linearGradient id="paint12_linear_938_25781" x1="422.113" y1="399.708" x2="460.964" y2="395.815" gradientUnits="userSpaceOnUse">
<stop stop-color="#E36023"/>
<stop offset="0.0795" stop-color="#D7591F"/>
<stop offset="0.3452" stop-color="#B34613"/>
<stop offset="0.595" stop-color="#9A380A"/>
<stop offset="0.8204" stop-color="#8A2F05"/>
<stop offset="1" stop-color="#852C03"/>
</linearGradient>
<linearGradient id="paint13_linear_938_25781" x1="427.387" y1="402.195" x2="466.238" y2="398.302" gradientUnits="userSpaceOnUse">
<stop stop-color="#E36023"/>
<stop offset="0.0795" stop-color="#D7591F"/>
<stop offset="0.3452" stop-color="#B34613"/>
<stop offset="0.595" stop-color="#9A380A"/>
<stop offset="0.8204" stop-color="#8A2F05"/>
<stop offset="1" stop-color="#852C03"/>
</linearGradient>
<linearGradient id="paint14_linear_938_25781" x1="456.636" y1="410.385" x2="469.789" y2="410.385" gradientUnits="userSpaceOnUse">
<stop stop-color="#8776E3"/>
<stop offset="0.9995" stop-color="#170385"/>
</linearGradient>
<linearGradient id="paint15_linear_938_25781" x1="463.636" y1="410.385" x2="476.789" y2="410.385" gradientUnits="userSpaceOnUse">
<stop stop-color="#8776E3"/>
<stop offset="0.9995" stop-color="#170385"/>
</linearGradient>
<radialGradient id="paint16_radial_938_25781" cx="0" cy="0" r="1" gradientUnits="userSpaceOnUse" gradientTransform="translate(485.581 439.851) rotate(-90) scale(5.735)">
<stop stop-color="#A76B6B"/>
<stop offset="0.9995" stop-color="#5B2C2C"/>
</radialGradient>
<radialGradient id="paint17_radial_938_25781" cx="0" cy="0" r="1" gradientUnits="userSpaceOnUse" gradientTransform="translate(416.287 382.144) rotate(-90) scale(5.735)">
<stop stop-color="#87A76B"/>
<stop offset="0.9995" stop-color="#395B2C"/>
</radialGradient>
<linearGradient id="paint18_linear_938_25781" x1="453.358" y1="357.919" x2="453.358" y2="469.095" gradientUnits="userSpaceOnUse">
<stop stop-color="#998ABD"/>
<stop offset="0.5" stop-color="#70658A"/>
<stop offset="1" stop-color="#372E4A"/>
</linearGradient>
<radialGradient id="paint19_radial_938_25781" cx="0" cy="0" r="1" gradientUnits="userSpaceOnUse" gradientTransform="translate(437.133 395.082) scale(79.6634 79.6634)">
<stop offset="0.5669" stop-color="#CACACC" stop-opacity="0"/>
<stop offset="0.6219" stop-color="#BAB8BC" stop-opacity="0.1271"/>
<stop offset="0.7331" stop-color="#908791" stop-opacity="0.3838"/>
<stop offset="0.8886" stop-color="#4D3B4C" stop-opacity="0.7429"/>
<stop offset="1" stop-color="#1A0018"/>
</radialGradient>
<radialGradient id="paint20_radial_938_25781" cx="0" cy="0" r="1" gradientUnits="userSpaceOnUse" gradientTransform="translate(437.133 395.082) scale(79.6634 79.6634)">
<stop stop-color="#FDFDFF"/>
<stop offset="1" stop-color="#CACACC" stop-opacity="0"/>
</radialGradient>
<radialGradient id="paint21_radial_938_25781" cx="0" cy="0" r="1" gradientUnits="userSpaceOnUse" gradientTransform="translate(669.783 560.348) scale(42.2436)">
<stop stop-color="#AFBAF7"/>
<stop offset="0.3111" stop-color="#6D96CE"/>
<stop offset="0.8032" stop-color="#285FCC"/>
</radialGradient>
<linearGradient id="paint22_linear_938_25781" x1="649.62" y1="562.715" x2="684.305" y2="562.715" gradientUnits="userSpaceOnUse">
<stop stop-color="#E36023"/>
<stop offset="0.0795" stop-color="#D7591F"/>
<stop offset="0.3452" stop-color="#B34613"/>
<stop offset="0.595" stop-color="#9A380A"/>
<stop offset="0.8204" stop-color="#8A2F05"/>
<stop offset="1" stop-color="#852C03"/>
</linearGradient>
<linearGradient id="paint23_linear_938_25781" x1="654.062" y1="565.38" x2="688.746" y2="565.38" gradientUnits="userSpaceOnUse">
<stop stop-color="#E36023"/>
<stop offset="0.0795" stop-color="#D7591F"/>
<stop offset="0.3452" stop-color="#B34613"/>
<stop offset="0.595" stop-color="#9A380A"/>
<stop offset="0.8204" stop-color="#8A2F05"/>
<stop offset="1" stop-color="#852C03"/>
</linearGradient>
<linearGradient id="paint24_linear_938_25781" x1="681.128" y1="575.04" x2="692.811" y2="575.04" gradientUnits="userSpaceOnUse">
<stop stop-color="#8776E3"/>
<stop offset="0.9995" stop-color="#170385"/>
</linearGradient>
<linearGradient id="paint25_linear_938_25781" x1="687.347" y1="575.04" x2="699.03" y2="575.04" gradientUnits="userSpaceOnUse">
<stop stop-color="#8776E3"/>
<stop offset="0.9995" stop-color="#170385"/>
</linearGradient>
<linearGradient id="paint26_linear_938_25781" x1="678.14" y1="524.929" x2="678.14" y2="623.607" gradientUnits="userSpaceOnUse">
<stop stop-color="#998ABD"/>
<stop offset="0.5" stop-color="#70658A"/>
<stop offset="1" stop-color="#372E4A"/>
</linearGradient>
<radialGradient id="paint27_radial_938_25781" cx="0" cy="0" r="1" gradientUnits="userSpaceOnUse" gradientTransform="translate(663.739 557.914) scale(70.7089)">
<stop offset="0.5669" stop-color="#CACACC" stop-opacity="0"/>
<stop offset="0.6219" stop-color="#BAB8BC" stop-opacity="0.1271"/>
<stop offset="0.7331" stop-color="#908791" stop-opacity="0.3838"/>
<stop offset="0.8886" stop-color="#4D3B4C" stop-opacity="0.7429"/>
<stop offset="1" stop-color="#1A0018"/>
</radialGradient>
<radialGradient id="paint28_radial_938_25781" cx="0" cy="0" r="1" gradientUnits="userSpaceOnUse" gradientTransform="translate(663.739 557.914) scale(70.7089)">
<stop stop-color="#FDFDFF"/>
<stop offset="1" stop-color="#CACACC" stop-opacity="0"/>
</radialGradient>
<radialGradient id="paint29_radial_938_25781" cx="0" cy="0" r="1" gradientUnits="userSpaceOnUse" gradientTransform="translate(927.248 395.357) scale(44.7013)">
<stop stop-color="#AFBAF7"/>
<stop offset="0.3111" stop-color="#6D96CE"/>
<stop offset="0.8032" stop-color="#285FCC"/>
</radialGradient>
<linearGradient id="paint30_linear_938_25781" x1="922.757" y1="405.732" x2="942.603" y2="405.732" gradientUnits="userSpaceOnUse">
<stop stop-color="#E36023"/>
<stop offset="0.0795" stop-color="#D7591F"/>
<stop offset="0.3452" stop-color="#B34613"/>
<stop offset="0.595" stop-color="#9A380A"/>
<stop offset="0.8204" stop-color="#8A2F05"/>
<stop offset="1" stop-color="#852C03"/>
</linearGradient>
<linearGradient id="paint31_linear_938_25781" x1="953.635" y1="408.797" x2="966.411" y2="408.797" gradientUnits="userSpaceOnUse">
<stop stop-color="#E36023"/>
<stop offset="0.0795" stop-color="#D7591F"/>
<stop offset="0.3452" stop-color="#B34613"/>
<stop offset="0.595" stop-color="#9A380A"/>
<stop offset="0.8204" stop-color="#8A2F05"/>
<stop offset="1" stop-color="#852C03"/>
</linearGradient>
<linearGradient id="paint32_linear_938_25781" x1="913.918" y1="429.132" x2="939.619" y2="429.132" gradientUnits="userSpaceOnUse">
<stop stop-color="#E36023"/>
<stop offset="0.0795" stop-color="#D7591F"/>
<stop offset="0.3452" stop-color="#B34613"/>
<stop offset="0.595" stop-color="#9A380A"/>
<stop offset="0.8204" stop-color="#8A2F05"/>
<stop offset="1" stop-color="#852C03"/>
</linearGradient>
<linearGradient id="paint33_linear_938_25781" x1="908.838" y1="402.455" x2="921.729" y2="402.455" gradientUnits="userSpaceOnUse">
<stop stop-color="#E36023"/>
<stop offset="0.0795" stop-color="#D7591F"/>
<stop offset="0.3452" stop-color="#B34613"/>
<stop offset="0.595" stop-color="#9A380A"/>
<stop offset="0.8204" stop-color="#8A2F05"/>
<stop offset="1" stop-color="#852C03"/>
</linearGradient>
<linearGradient id="paint34_linear_938_25781" x1="926.912" y1="405.689" x2="967.563" y2="405.689" gradientUnits="userSpaceOnUse">
<stop stop-color="#8776E3"/>
<stop offset="0.9995" stop-color="#170385"/>
</linearGradient>
<linearGradient id="paint35_linear_938_25781" x1="916.39" y1="424.143" x2="955.991" y2="424.143" gradientUnits="userSpaceOnUse">
<stop stop-color="#8776E3"/>
<stop offset="0.9995" stop-color="#170385"/>
</linearGradient>
<linearGradient id="paint36_linear_938_25781" x1="905.484" y1="422.488" x2="933.606" y2="422.488" gradientUnits="userSpaceOnUse">
<stop stop-color="#8776E3"/>
<stop offset="0.9995" stop-color="#170385"/>
</linearGradient>
<linearGradient id="paint37_linear_938_25781" x1="919.372" y1="394.861" x2="945.166" y2="394.861" gradientUnits="userSpaceOnUse">
<stop stop-color="#8776E3"/>
<stop offset="0.9995" stop-color="#170385"/>
</linearGradient>
<linearGradient id="paint38_linear_938_25781" x1="942.81" y1="403.573" x2="964.111" y2="403.573" gradientUnits="userSpaceOnUse">
<stop stop-color="#8776E3"/>
<stop offset="0.9995" stop-color="#170385"/>
</linearGradient>
<linearGradient id="paint39_linear_938_25781" x1="933.701" y1="358.124" x2="933.701" y2="464.333" gradientUnits="userSpaceOnUse">
<stop stop-color="#998ABD"/>
<stop offset="0.5" stop-color="#70658A"/>
<stop offset="1" stop-color="#372E4A"/>
</linearGradient>
<radialGradient id="paint40_radial_938_25781" cx="0" cy="0" r="1" gradientUnits="userSpaceOnUse" gradientTransform="translate(918.188 393.621) scale(76.1039 76.1039)">
<stop offset="0.5669" stop-color="#CACACC" stop-opacity="0"/>
<stop offset="0.6219" stop-color="#BAB8BC" stop-opacity="0.1271"/>
<stop offset="0.7331" stop-color="#908791" stop-opacity="0.3838"/>
<stop offset="0.8886" stop-color="#4D3B4C" stop-opacity="0.7429"/>
<stop offset="1" stop-color="#1A0018"/>
</radialGradient>
<radialGradient id="paint41_radial_938_25781" cx="0" cy="0" r="1" gradientUnits="userSpaceOnUse" gradientTransform="translate(918.188 393.621) scale(76.1039 76.1039)">
<stop stop-color="#FDFDFF"/>
<stop offset="1" stop-color="#CACACC" stop-opacity="0"/>
</radialGradient>
<radialGradient id="paint42_radial_938_25781" cx="0" cy="0" r="1" gradientUnits="userSpaceOnUse" gradientTransform="translate(719.393 227.308) rotate(11.5313) scale(33.1674 33.1674)">
<stop stop-color="#AFBAF7"/>
<stop offset="0.3111" stop-color="#6D96CE"/>
<stop offset="0.8032" stop-color="#285FCC"/>
</radialGradient>
<linearGradient id="paint43_linear_938_25781" x1="730.409" y1="221.395" x2="723.98" y2="252.905" gradientUnits="userSpaceOnUse">
<stop stop-color="#E36023"/>
<stop offset="0.0795" stop-color="#D7591F"/>
<stop offset="0.3452" stop-color="#B34613"/>
<stop offset="0.595" stop-color="#9A380A"/>
<stop offset="0.8204" stop-color="#8A2F05"/>
<stop offset="1" stop-color="#852C03"/>
</linearGradient>
<linearGradient id="paint44_linear_938_25781" x1="740.705" y1="231.342" x2="706.097" y2="252.377" gradientUnits="userSpaceOnUse">
<stop stop-color="#8776E3"/>
<stop offset="0.9995" stop-color="#170385"/>
</linearGradient>
<linearGradient id="paint45_linear_938_25781" x1="732.31" y1="203.744" x2="717.754" y2="275.088" gradientUnits="userSpaceOnUse">
<stop stop-color="#998ABD"/>
<stop offset="0.5" stop-color="#70658A"/>
<stop offset="1" stop-color="#372E4A"/>
</linearGradient>
<radialGradient id="paint46_radial_938_25781" cx="0" cy="0" r="1" gradientUnits="userSpaceOnUse" gradientTransform="translate(717.032 225.468) rotate(11.5313) scale(52.1749 52.175)">
<stop offset="0.5669" stop-color="#CACACC" stop-opacity="0"/>
<stop offset="0.6219" stop-color="#BAB8BC" stop-opacity="0.1271"/>
<stop offset="0.7331" stop-color="#908791" stop-opacity="0.3838"/>
<stop offset="0.8886" stop-color="#4D3B4C" stop-opacity="0.7429"/>
<stop offset="1" stop-color="#1A0018"/>
</radialGradient>
<radialGradient id="paint47_radial_938_25781" cx="0" cy="0" r="1" gradientUnits="userSpaceOnUse" gradientTransform="translate(717.032 225.468) rotate(11.5313) scale(52.1749 52.175)">
<stop stop-color="#FDFDFF"/>
<stop offset="1" stop-color="#CACACC" stop-opacity="0"/>
</radialGradient>
<radialGradient id="paint48_radial_938_25781" cx="0" cy="0" r="1" gradientUnits="userSpaceOnUse" gradientTransform="translate(783.312 159.903) rotate(11.5313) scale(33.1674 33.1674)">
<stop stop-color="#AFBAF7"/>
<stop offset="0.3111" stop-color="#6D96CE"/>
<stop offset="0.8032" stop-color="#285FCC"/>
</radialGradient>
<linearGradient id="paint49_linear_938_25781" x1="794.328" y1="153.991" x2="787.899" y2="185.5" gradientUnits="userSpaceOnUse">
<stop stop-color="#E36023"/>
<stop offset="0.0795" stop-color="#D7591F"/>
<stop offset="0.3452" stop-color="#B34613"/>
<stop offset="0.595" stop-color="#9A380A"/>
<stop offset="0.8204" stop-color="#8A2F05"/>
<stop offset="1" stop-color="#852C03"/>
</linearGradient>
<linearGradient id="paint50_linear_938_25781" x1="804.624" y1="163.937" x2="770.016" y2="184.972" gradientUnits="userSpaceOnUse">
<stop stop-color="#8776E3"/>
<stop offset="0.9995" stop-color="#170385"/>
</linearGradient>
<linearGradient id="paint51_linear_938_25781" x1="796.229" y1="136.339" x2="781.673" y2="207.683" gradientUnits="userSpaceOnUse">
<stop stop-color="#998ABD"/>
<stop offset="0.5" stop-color="#70658A"/>
<stop offset="1" stop-color="#372E4A"/>
</linearGradient>
<radialGradient id="paint52_radial_938_25781" cx="0" cy="0" r="1" gradientUnits="userSpaceOnUse" gradientTransform="translate(780.951 158.063) rotate(11.5313) scale(52.1749 52.175)">
<stop offset="0.5669" stop-color="#CACACC" stop-opacity="0"/>
<stop offset="0.6219" stop-color="#BAB8BC" stop-opacity="0.1271"/>
<stop offset="0.7331" stop-color="#908791" stop-opacity="0.3838"/>
<stop offset="0.8886" stop-color="#4D3B4C" stop-opacity="0.7429"/>
<stop offset="1" stop-color="#1A0018"/>
</radialGradient>
<radialGradient id="paint53_radial_938_25781" cx="0" cy="0" r="1" gradientUnits="userSpaceOnUse" gradientTransform="translate(780.951 158.063) rotate(11.5313) scale(52.1749 52.175)">
<stop stop-color="#FDFDFF"/>
<stop offset="1" stop-color="#CACACC" stop-opacity="0"/>
</radialGradient>
<linearGradient id="paint54_linear_938_25781" x1="564.042" y1="203.132" x2="564.042" y2="217.706" gradientUnits="userSpaceOnUse">
<stop stop-color="#E36023"/>
<stop offset="0.0795" stop-color="#D7591F"/>
<stop offset="0.3452" stop-color="#B34613"/>
<stop offset="0.595" stop-color="#9A380A"/>
<stop offset="0.8204" stop-color="#8A2F05"/>
<stop offset="1" stop-color="#852C03"/>
</linearGradient>
<linearGradient id="paint55_linear_938_25781" x1="566.703" y1="197.71" x2="557.642" y2="197.71" gradientUnits="userSpaceOnUse">
<stop stop-color="#E36023"/>
<stop offset="0.9995" stop-color="#852C03"/>
</linearGradient>
<linearGradient id="paint56_linear_938_25781" x1="564.04" y1="192.906" x2="564.04" y2="207.48" gradientUnits="userSpaceOnUse">
<stop stop-color="#E36023"/>
<stop offset="0.0795" stop-color="#D7591F"/>
<stop offset="0.3452" stop-color="#B34613"/>
<stop offset="0.595" stop-color="#9A380A"/>
<stop offset="0.8204" stop-color="#8A2F05"/>
<stop offset="1" stop-color="#852C03"/>
</linearGradient>
<linearGradient id="paint57_linear_938_25781" x1="566.727" y1="187.484" x2="557.665" y2="187.484" gradientUnits="userSpaceOnUse">
<stop stop-color="#E36023"/>
<stop offset="0.9995" stop-color="#852C03"/>
</linearGradient>
<linearGradient id="paint58_linear_938_25781" x1="564.04" y1="182.679" x2="564.04" y2="197.254" gradientUnits="userSpaceOnUse">
<stop stop-color="#E36023"/>
<stop offset="0.0795" stop-color="#D7591F"/>
<stop offset="0.3452" stop-color="#B34613"/>
<stop offset="0.595" stop-color="#9A380A"/>
<stop offset="0.8204" stop-color="#8A2F05"/>
<stop offset="1" stop-color="#852C03"/>
</linearGradient>
<linearGradient id="paint59_linear_938_25781" x1="566.727" y1="177.258" x2="557.665" y2="177.258" gradientUnits="userSpaceOnUse">
<stop stop-color="#E36023"/>
<stop offset="0.9995" stop-color="#852C03"/>
</linearGradient>
<linearGradient id="paint60_linear_938_25781" x1="564.28" y1="152.001" x2="564.28" y2="166.575" gradientUnits="userSpaceOnUse">
<stop stop-color="#8776E3"/>
<stop offset="0.9995" stop-color="#170385"/>
</linearGradient>
<linearGradient id="paint61_linear_938_25781" x1="566.923" y1="146.58" x2="557.861" y2="146.58" gradientUnits="userSpaceOnUse">
<stop stop-color="#8776E3"/>
<stop offset="0.9995" stop-color="#170385"/>
</linearGradient>
<linearGradient id="paint62_linear_938_25781" x1="564.271" y1="162.227" x2="564.271" y2="176.801" gradientUnits="userSpaceOnUse">
<stop stop-color="#8776E3"/>
<stop offset="0.9995" stop-color="#170385"/>
</linearGradient>
<linearGradient id="paint63_linear_938_25781" x1="566.958" y1="156.806" x2="557.896" y2="156.806" gradientUnits="userSpaceOnUse">
<stop stop-color="#8776E3"/>
<stop offset="0.9995" stop-color="#170385"/>
</linearGradient>
<linearGradient id="paint64_linear_938_25781" x1="564.271" y1="172.453" x2="564.271" y2="187.027" gradientUnits="userSpaceOnUse">
<stop stop-color="#8776E3"/>
<stop offset="0.9995" stop-color="#170385"/>
</linearGradient>
<linearGradient id="paint65_linear_938_25781" x1="566.958" y1="167.032" x2="557.896" y2="167.032" gradientUnits="userSpaceOnUse">
<stop stop-color="#8776E3"/>
<stop offset="0.9995" stop-color="#170385"/>
</linearGradient>
<radialGradient id="paint66_radial_938_25781" cx="0" cy="0" r="1" gradientUnits="userSpaceOnUse" gradientTransform="translate(537.864 178.275) rotate(-90) scale(3.0021 3.00211)">
<stop stop-color="#87A76B"/>
<stop offset="0.9995" stop-color="#395B2C"/>
</radialGradient>
<linearGradient id="paint67_linear_938_25781" x1="617.024" y1="203.132" x2="617.024" y2="217.706" gradientUnits="userSpaceOnUse">
<stop stop-color="#E36023"/>
<stop offset="0.0795" stop-color="#D7591F"/>
<stop offset="0.3452" stop-color="#B34613"/>
<stop offset="0.595" stop-color="#9A380A"/>
<stop offset="0.8204" stop-color="#8A2F05"/>
<stop offset="1" stop-color="#852C03"/>
</linearGradient>
<linearGradient id="paint68_linear_938_25781" x1="614.362" y1="197.71" x2="623.423" y2="197.71" gradientUnits="userSpaceOnUse">
<stop stop-color="#E36023"/>
<stop offset="0.9995" stop-color="#852C03"/>
</linearGradient>
<linearGradient id="paint69_linear_938_25781" x1="617.026" y1="192.905" x2="617.026" y2="207.48" gradientUnits="userSpaceOnUse">
<stop stop-color="#E36023"/>
<stop offset="0.0795" stop-color="#D7591F"/>
<stop offset="0.3452" stop-color="#B34613"/>
<stop offset="0.595" stop-color="#9A380A"/>
<stop offset="0.8204" stop-color="#8A2F05"/>
<stop offset="1" stop-color="#852C03"/>
</linearGradient>
<linearGradient id="paint70_linear_938_25781" x1="614.339" y1="187.484" x2="623.401" y2="187.484" gradientUnits="userSpaceOnUse">
<stop stop-color="#E36023"/>
<stop offset="0.9995" stop-color="#852C03"/>
</linearGradient>
<linearGradient id="paint71_linear_938_25781" x1="617.026" y1="182.679" x2="617.026" y2="197.254" gradientUnits="userSpaceOnUse">
<stop stop-color="#E36023"/>
<stop offset="0.0795" stop-color="#D7591F"/>
<stop offset="0.3452" stop-color="#B34613"/>
<stop offset="0.595" stop-color="#9A380A"/>
<stop offset="0.8204" stop-color="#8A2F05"/>
<stop offset="1" stop-color="#852C03"/>
</linearGradient>
<linearGradient id="paint72_linear_938_25781" x1="614.339" y1="177.258" x2="623.401" y2="177.258" gradientUnits="userSpaceOnUse">
<stop stop-color="#E36023"/>
<stop offset="0.9995" stop-color="#852C03"/>
</linearGradient>
<linearGradient id="paint73_linear_938_25781" x1="616.785" y1="152.001" x2="616.785" y2="166.575" gradientUnits="userSpaceOnUse">
<stop stop-color="#8776E3"/>
<stop offset="0.9995" stop-color="#170385"/>
</linearGradient>
<linearGradient id="paint74_linear_938_25781" x1="614.143" y1="146.58" x2="623.205" y2="146.58" gradientUnits="userSpaceOnUse">
<stop stop-color="#8776E3"/>
<stop offset="0.9995" stop-color="#170385"/>
</linearGradient>
<linearGradient id="paint75_linear_938_25781" x1="616.795" y1="162.227" x2="616.795" y2="176.801" gradientUnits="userSpaceOnUse">
<stop stop-color="#8776E3"/>
<stop offset="0.9995" stop-color="#170385"/>
</linearGradient>
<linearGradient id="paint76_linear_938_25781" x1="614.108" y1="156.806" x2="623.17" y2="156.806" gradientUnits="userSpaceOnUse">
<stop stop-color="#8776E3"/>
<stop offset="0.9995" stop-color="#170385"/>
</linearGradient>
<linearGradient id="paint77_linear_938_25781" x1="617.795" y1="172.453" x2="617.795" y2="187.027" gradientUnits="userSpaceOnUse">
<stop stop-color="#8776E3"/>
<stop offset="0.9995" stop-color="#170385"/>
</linearGradient>
<linearGradient id="paint78_linear_938_25781" x1="615.108" y1="167.032" x2="624.17" y2="167.032" gradientUnits="userSpaceOnUse">
<stop stop-color="#8776E3"/>
<stop offset="0.9995" stop-color="#170385"/>
</linearGradient>
<radialGradient id="paint79_radial_938_25781" cx="0" cy="0" r="1" gradientUnits="userSpaceOnUse" gradientTransform="translate(643.198 178.275) rotate(-90) scale(3.0021 3.00211)">
<stop stop-color="#A76B6B"/>
<stop offset="0.9995" stop-color="#5B2C2C"/>
</radialGradient>
<linearGradient id="paint80_linear_938_25781" x1="590.515" y1="139.829" x2="590.515" y2="218.797" gradientUnits="userSpaceOnUse">
<stop stop-color="#998ABD"/>
<stop offset="0.5" stop-color="#70658A"/>
<stop offset="1" stop-color="#372E4A"/>
</linearGradient>
<radialGradient id="paint81_radial_938_25781" cx="0" cy="0" r="1" gradientUnits="userSpaceOnUse" gradientTransform="translate(570.456 179.321) scale(80.0918 80.0918)">
<stop offset="0.448073" stop-opacity="0"/>
<stop offset="0.554029" stop-color="white"/>
</radialGradient>
<radialGradient id="paint82_radial_938_25781" cx="0" cy="0" r="1" gradientUnits="userSpaceOnUse" gradientTransform="translate(598.977 166.007) scale(56.5851 56.5851)">
<stop offset="0.5669" stop-color="#CACACC" stop-opacity="0"/>
<stop offset="0.6219" stop-color="#BAB8BC" stop-opacity="0.1271"/>
<stop offset="0.7331" stop-color="#908791" stop-opacity="0.3838"/>
<stop offset="0.8886" stop-color="#4D3B4C" stop-opacity="0.7429"/>
<stop offset="1" stop-color="#1A0018"/>
</radialGradient>
<radialGradient id="paint83_radial_938_25781" cx="0" cy="0" r="1" gradientUnits="userSpaceOnUse" gradientTransform="translate(610.502 179.54) rotate(180) scale(80.0918 87.0172)">
<stop offset="0.448812" stop-opacity="0"/>
<stop offset="0.55" stop-color="white"/>
</radialGradient>
<radialGradient id="paint84_radial_938_25781" cx="0" cy="0" r="1" gradientUnits="userSpaceOnUse" gradientTransform="translate(558.931 166.226) scale(56.5851)">
<stop offset="0.5669" stop-color="#CACACC" stop-opacity="0"/>
<stop offset="0.6219" stop-color="#BAB8BC" stop-opacity="0.1271"/>
<stop offset="0.7331" stop-color="#908791" stop-opacity="0.3838"/>
<stop offset="0.8886" stop-color="#4D3B4C" stop-opacity="0.7429"/>
<stop offset="1" stop-color="#1A0018"/>
</radialGradient>
<radialGradient id="paint85_radial_938_25781" cx="0" cy="0" r="1" gradientUnits="userSpaceOnUse" gradientTransform="translate(559.142 159.57) scale(40.5623)">
<stop stop-color="#FDFDFF"/>
<stop offset="1" stop-color="#CACACC" stop-opacity="0"/>
</radialGradient>
<radialGradient id="paint86_radial_938_25781" cx="0" cy="0" r="1" gradientUnits="userSpaceOnUse" gradientTransform="translate(600.009 159.314) scale(25.4528)">
<stop stop-color="#FDFDFF"/>
<stop offset="1" stop-color="#CACACC" stop-opacity="0"/>
</radialGradient>
</defs>
</svg>
