<svg width="68" height="37" viewBox="0 0 68 37" fill="none" xmlns="http://www.w3.org/2000/svg">
<g id="R-ICO-014698">
<g id="SWI/SNF complex">
<path d="M1.21094 11.4912C1.21094 5.96836 5.68809 1.49121 11.2109 1.49121H56.2109C61.7338 1.49121 66.2109 5.96836 66.2109 11.4912V25.4912C66.2109 31.0141 61.7338 35.4912 56.2109 35.4912H11.2109C5.68809 35.4912 1.21094 31.0141 1.21094 25.4912V11.4912Z" fill="url(#paint0_linear_938_24151)"/>
<path d="M56.3893 2.98569C56.33 2.98393 56.2706 2.98277 56.2109 2.98222C41.2109 2.86239 26.211 2.50997 11.2109 1.63122C11.2109 1.53785 11.2109 1.44449 11.2109 1.35112C26.211 0.472367 41.2109 0.119948 56.2109 0.000120878C56.291 -0.000433803 56.3708 -0.000163198 56.4505 0.000925779C62.5014 -0.0433693 67.8347 5.5004 67.6193 11.4912C67.5903 13.8594 67.5579 16.2275 67.5274 18.5957C67.5025 20.8942 67.4665 23.1927 67.421 25.4912C67.4562 31.4815 61.938 36.6026 56.2116 36.2571C56.2114 36.2571 56.2112 36.2571 56.2109 36.257C48.6764 36.0133 41.1412 35.8379 33.6068 35.9442C26.1417 36.0462 18.676 36.4482 11.2109 36.6504C11.133 36.6523 11.0551 36.6534 10.9774 36.6536C5.09573 36.7946 -0.213941 31.3823 0.00622141 25.4912C0.0360487 23.1233 0.0781411 20.7553 0.126726 18.3874C0.174233 16.0887 0.23385 13.79 0.308037 11.4912C0.339133 5.65429 5.81772 0.833549 11.2109 1.35112C11.2109 1.44449 11.2109 1.53785 11.2109 1.63122C5.9512 1.88967 1.82352 6.67469 2.11369 11.4912C2.18788 13.79 2.24752 16.0887 2.29507 18.3874C2.34365 20.7553 2.38574 23.1233 2.41557 25.4912C2.38756 30.1035 6.40451 34.2113 11.0253 34.3246C11.0869 34.3277 11.1488 34.3302 11.2109 34.3321C18.676 34.5343 26.1417 34.9349 33.6068 35.037C41.1413 35.1433 48.6763 34.9692 56.2109 34.7255C56.2111 34.7254 56.2113 34.7254 56.2115 34.7254C61.138 34.6381 65.2246 30.1537 65.0009 25.4912C64.9554 23.1927 64.9195 20.8942 64.8945 18.5957C64.8641 16.2276 64.8316 13.8594 64.8026 11.4912C64.8353 6.97814 60.841 3.00175 56.3893 2.98569Z" fill="#00BC62"/>
<text id="SWI/SNF complex_2" fill="white" xml:space="preserve" style="white-space: pre" font-family="Arial" font-size="12" font-weight="bold" letter-spacing="0em"><tspan x="8.69727" y="15.6514">SWI/SNF&#10;</tspan><tspan x="9.34766" y="29.6514">complex</tspan></text>
</g>
</g>
<defs>
<linearGradient id="paint0_linear_938_24151" x1="33.7109" y1="1.49121" x2="33.7109" y2="35.4912" gradientUnits="userSpaceOnUse">
<stop stop-color="#00E75C"/>
<stop offset="1" stop-color="#00BC62"/>
</linearGradient>
</defs>
</svg>
