<svg width="81" height="23" viewBox="0 0 81 23" fill="none" xmlns="http://www.w3.org/2000/svg">
<g id="R-ICO-014752">
<g id="PROTEIN">
<path d="M0.914062 11.5C0.914062 5.97715 5.39122 1.5 10.9141 1.5H68.9141C74.4369 1.5 78.9141 5.97715 78.9141 11.5C78.9141 17.0228 74.4369 21.5 68.9141 21.5H10.9141C5.39121 21.5 0.914062 17.0228 0.914062 11.5Z" fill="url(#paint0_linear_938_24190)"/>
<path d="M55.6223 2.99266C40.7195 2.87443 25.8169 2.52283 10.9141 1.64001C10.9141 1.54664 10.9141 1.45328 10.9141 1.35991C25.8169 0.477089 40.7195 0.125486 55.6223 0.00726104C60.0528 -0.0151997 64.4834 0.017132 68.9141 0.0673909C72.3752 0.0768491 75.7591 1.79332 77.8223 4.52036C79.3568 6.50324 80.1809 9.01783 80.1276 11.5C80.1629 17.4924 74.6411 22.6138 68.9147 22.2659C68.9145 22.2659 68.9143 22.2658 68.9141 22.2658C61.4629 22.0221 54.011 21.8466 46.5599 21.953C39.1085 22.056 31.6565 22.4645 24.2052 22.6648C19.7748 22.7616 15.3444 22.7695 10.9141 22.7274C7.51418 22.724 4.19053 21.0238 2.18898 18.3368C0.703138 16.3802 -0.0752278 13.9158 0.0055207 11.5C0.0364913 5.65979 5.5207 0.837953 10.9141 1.35991C10.9141 1.45328 10.9141 1.54664 10.9141 1.64001C5.65446 1.90284 1.53241 6.68677 1.82246 11.5C1.88853 13.5205 2.63388 15.4732 3.89493 16.9984C5.60409 19.094 8.25479 20.319 10.9141 20.2727C15.3444 20.2306 19.7748 20.2384 24.2052 20.3353C31.6566 20.5356 39.1085 20.9428 46.5599 21.0457C54.0111 21.1521 61.4628 20.978 68.9141 20.7342C68.9143 20.7342 68.9145 20.7342 68.9147 20.7342C73.8411 20.6445 77.9242 16.1604 77.7006 11.5C77.662 9.54637 76.9627 7.64428 75.7508 6.14542C74.1034 4.08943 71.5125 2.88021 68.9141 2.93261C64.4834 2.98292 60.0528 3.01528 55.6223 2.99266Z" fill="#A979BD"/>
<text id="P" fill="white" xml:space="preserve" style="white-space: pre" font-family="Arial" font-size="12" font-weight="bold" letter-spacing="0em"><tspan x="8.2207" y="15.6602">SH3PXD2A</tspan></text>
</g>
</g>
<defs>
<linearGradient id="paint0_linear_938_24190" x1="39.9141" y1="1.5" x2="39.9141" y2="21.5" gradientUnits="userSpaceOnUse">
<stop stop-color="#009BE5"/>
<stop offset="1" stop-color="#A979BD"/>
</linearGradient>
</defs>
</svg>
