<svg width="50" height="23" viewBox="0 0 50 23" fill="none" xmlns="http://www.w3.org/2000/svg">
<g id="R-ICO-012822">
<g id="HHAT">
<path d="M1.12891 11.463C1.12891 5.9401 5.60606 1.46295 11.1289 1.46295H38.1289C43.6518 1.46295 48.1289 5.9401 48.1289 11.463C48.1289 16.9858 43.6518 21.463 38.1289 21.463H11.1289C5.60606 21.463 1.12891 16.9858 1.12891 11.463Z" fill="url(#paint0_linear_938_23367)"/>
<path d="M39.9946 3.16049C39.386 3.0152 38.76 2.93632 38.1289 2.92466C29.1289 2.78118 20.1289 2.41903 11.1289 1.60296C11.1289 1.50959 11.1289 1.41623 11.1289 1.32286C20.1289 0.506789 29.1289 0.144642 38.1289 0.00115991C38.9707 -0.0107336 39.8176 0.0708388 40.646 0.247021C45.7881 1.28073 49.6616 6.31715 49.4676 11.463C49.4601 11.881 49.4301 12.2963 49.3774 12.7091C48.7898 18.289 43.4324 22.6342 38.1294 22.2288C38.1292 22.2288 38.1291 22.2288 38.1289 22.2288C33.261 21.9851 28.3926 21.8096 23.5247 21.9159C19.3929 22.0033 15.2608 22.3108 11.1289 22.5244C10.3158 22.5626 9.4924 22.5089 8.68295 22.3588C3.65556 21.4804 -0.233486 16.5154 0.0108429 11.463C0.0217093 11.053 0.0551927 10.6463 0.111207 10.2426C0.752196 4.77935 6.12551 0.671236 11.1289 1.32286C11.1289 1.41623 11.1289 1.50959 11.1289 1.60296C6.26646 2.05074 2.51675 6.11962 2.26663 10.4789C2.24252 10.8062 2.23604 11.1339 2.24689 11.463C2.33368 15.5019 5.32675 19.1102 9.19131 20.0853C9.81902 20.2568 10.4688 20.3636 11.1289 20.4015C15.2608 20.6148 19.3929 20.9213 23.5247 21.0087C28.3926 21.115 33.2609 20.9409 38.1289 20.6972C38.129 20.6972 38.1292 20.6972 38.1293 20.6972C42.6918 20.4949 46.4561 16.664 46.7603 12.4221C46.7878 12.1036 46.7977 11.7842 46.7903 11.463C46.7538 7.51706 43.7444 3.98007 39.9946 3.16049Z" fill="#6DBAD2"/>
<text id="HHAT_2" fill="white" xml:space="preserve" style="white-space: pre" font-family="Arial" font-size="12" font-weight="bold" letter-spacing="0em"><tspan x="8.39844" y="15.6231">HHAT</tspan></text>
</g>
</g>
<defs>
<linearGradient id="paint0_linear_938_23367" x1="24.6289" y1="1.46295" x2="24.6289" y2="21.463" gradientUnits="userSpaceOnUse">
<stop stop-color="#165B70"/>
<stop offset="1" stop-color="#6DBAD2"/>
</linearGradient>
</defs>
</svg>
