<svg width="1366" height="768" viewBox="0 0 1366 768" fill="none" xmlns="http://www.w3.org/2000/svg">
<g id="R-ICO-014524">
<path id="BG" d="M1366 0H0V768H1366V0Z" fill="url(#paint0_radial_938_25792)"/>
<g id="CONTENT">
<mask id="mask0_938_25792" style="mask-type:alpha" maskUnits="userSpaceOnUse" x="159" y="114" width="1000" height="554">
<rect id="MASK" x="159.582" y="114.447" width="999.193" height="552.817" fill="url(#paint1_linear_938_25792)"/>
</mask>
<g mask="url(#mask0_938_25792)">
<g id="Group">
<g id="Upper left">
<path id="Vector" d="M507.998 212.999C459.998 201.999 476.998 143.999 483.998 125.999H296.998C296.998 153.999 303.699 199.999 255.849 215.999C207.998 231.999 160.998 255.999 162.998 302.999C164.998 349.999 205.998 381 268.998 368C331.998 355 366.998 365.001 364.998 358.001C362.998 351.001 337.998 336.001 345.998 308.001C353.998 280.001 405.998 280.001 415.998 302.001C425.998 324.001 398.998 348.001 401.998 353.001C404.998 358.001 426.998 350 475.998 360C524.998 370 580.998 354.999 599.998 299.999C618.998 244.999 555.998 223.999 507.998 212.999ZM354.944 255.862C354.944 255.862 345.786 268.453 321.878 278.374C297.969 288.294 292.751 271.124 288.554 248.489C284.357 225.853 302.671 205.88 326.327 210.84C349.984 215.8 358.759 244.034 354.944 255.862Z" fill="url(#paint2_radial_938_25792)"/>
<path id="Vector_2" d="M507.998 212.999C459.998 201.999 476.998 143.999 483.998 125.999H296.998C296.998 153.999 303.699 199.999 255.849 215.999C207.998 231.999 160.998 255.999 162.998 302.999C164.998 349.999 205.998 381 268.998 368C331.998 355 366.998 365.001 364.998 358.001C362.998 351.001 337.998 336.001 345.998 308.001C353.998 280.001 405.998 280.001 415.998 302.001C425.998 324.001 398.998 348.001 401.998 353.001C404.998 358.001 426.998 350 475.998 360C524.998 370 580.998 354.999 599.998 299.999C618.998 244.999 555.998 223.999 507.998 212.999ZM354.944 255.862C354.944 255.862 345.786 268.453 321.878 278.374C297.969 288.294 292.751 271.124 288.554 248.489C284.357 225.853 302.671 205.88 326.327 210.84C349.984 215.8 358.759 244.034 354.944 255.862Z" fill="url(#paint3_radial_938_25792)"/>
<path id="Vector_3" d="M401.478 351.575C401.478 351.575 424.309 313.724 415.998 302.001C405.936 287.81 390.363 285.485 380.149 286.386C369.935 287.288 344.713 294.189 344.701 317.629C344.691 337.456 364.998 358.001 364.998 358.001L401.478 351.575Z" fill="url(#paint4_linear_938_25792)"/>
<path id="Vector_4" d="M354.943 255.862C354.943 255.862 345.786 268.454 321.877 278.374C297.969 288.294 292.751 271.124 288.554 248.489C284.357 225.853 302.671 205.88 326.327 210.84C349.983 215.8 358.759 244.034 354.943 255.862Z" fill="#D2C9F2"/>
<path id="Vector_5" d="M351.059 227.865C350.799 227.417 350.527 226.984 350.255 226.55C348.907 224.074 347.298 221.72 345.423 219.555C342.62 216.29 339.16 213.51 335.269 211.481C334.284 211.001 333.322 210.458 332.278 210.108C331.246 209.736 330.237 209.278 329.165 209.03C327.055 208.379 324.888 208.08 322.723 207.765C318.356 207.343 313.875 207.76 309.666 209.073C305.463 210.389 301.533 212.584 298.309 215.517C296.211 217.375 294.408 219.526 292.921 221.855C287.461 229.371 285.282 239.07 287.079 248.762C287.69 252.055 288.33 255.285 289.058 258.373C289.439 260.476 289.87 262.582 290.449 264.669C291.671 269.017 293.204 273.49 296.331 277.367C297.897 279.272 299.894 280.991 302.249 282.104C304.609 283.2 307.197 283.685 309.679 283.705C314.668 283.691 319.241 282.2 323.424 280.398C327.562 278.617 331.588 276.565 335.475 274.273C339.359 271.974 343.054 269.346 346.511 266.435C348.192 265.004 349.831 263.526 351.351 261.916C354.513 258.957 356.008 256.949 356.156 256.744C356.25 256.616 356.322 256.473 356.371 256.322C358.729 249.014 356.544 237.312 351.059 227.865ZM349.392 259.593C347.747 260.987 345.997 262.263 344.267 263.547L341.595 265.376L338.853 267.101L336.069 268.756L333.229 270.315C329.414 272.34 325.504 274.188 321.503 275.836C319.531 276.655 317.576 277.388 315.585 277.888C313.608 278.413 311.615 278.753 309.688 278.76C307.761 278.785 305.912 278.468 304.24 277.747C302.565 277.032 301.077 275.873 299.778 274.432C298.461 273.003 297.38 271.262 296.418 269.42C295.452 267.576 294.633 265.606 293.907 263.584C293.186 261.55 292.528 259.473 291.911 257.371C291.212 254.396 290.603 251.306 290.03 248.215C288.446 239.676 290.217 231.141 294.788 224.401C296.537 222.173 298.545 220.193 300.785 218.534C303.881 216.276 307.335 214.585 310.987 213.628C314.633 212.664 318.447 212.364 322.23 212.739C326.025 213.159 329.727 214.094 333.165 215.718C336.611 217.319 339.769 219.562 342.601 222.228C344.566 224.128 346.337 226.24 347.941 228.502C348.119 228.794 348.299 229.086 348.465 229.371C354.059 239.007 355.268 249.559 353.591 255.161C353.179 255.683 351.851 257.288 349.473 259.523C349.446 259.546 349.419 259.571 349.392 259.593Z" fill="#8295D9"/>
<path id="Vector_6" d="M606.568 279.565L606.39 276.465C606.262 275.437 606.087 274.411 605.934 273.385L605.689 271.849L605.307 270.337C604.414 266.274 602.756 262.414 600.781 258.805L599.201 256.15L597.416 253.647C596.843 252.795 596.177 252.023 595.518 251.246C594.848 250.481 594.236 249.659 593.518 248.944L591.399 246.769C590.705 246.031 589.916 245.404 589.18 244.717C587.713 243.331 586.106 242.135 584.546 240.881C581.334 238.509 578.04 236.266 574.571 234.362C567.692 230.448 560.478 227.297 553.138 224.616C550.255 223.577 547.351 222.621 544.436 221.708C534.37 218.199 522.466 214.776 508.333 211.537C504.749 210.716 501.47 209.594 498.483 208.194C497.856 207.814 497.225 207.439 496.62 207.032C493.139 204.716 490.129 201.902 487.674 198.744C482.724 192.42 480.238 184.598 479.27 176.491C478.302 168.356 478.695 159.927 479.674 151.501C480.275 146.396 481.106 141.284 482.044 136.14C483.002 133.06 484.103 129.868 485.396 126.542C485.696 125.77 485.314 124.901 484.541 124.601C483.766 124.301 482.9 124.683 482.6 125.456C481.682 127.817 480.332 131.536 478.962 136.134C477.025 140.782 475.467 145.603 474.257 150.528C472.204 159.156 471.232 168.222 472.323 177.337C472.891 181.88 473.976 186.43 475.822 190.733C477.656 195.029 480.263 199.065 483.571 202.385C486.878 205.701 490.799 208.339 495.006 210.05C495.593 210.288 496.184 210.507 496.778 210.715C500.069 212.296 503.694 213.551 507.663 214.461C519.108 217.084 532.161 220.439 544.83 224.934C547.193 225.857 549.545 226.805 551.87 227.811C555.408 229.304 558.872 230.943 562.292 232.647C565.671 234.424 569.029 236.237 572.212 238.297C575.434 240.301 578.488 242.52 581.424 244.854C582.838 246.079 584.306 247.247 585.608 248.575C586.263 249.233 586.979 249.838 587.585 250.536L589.449 252.589C594.241 258.182 597.84 264.682 599.331 271.718L599.639 273.028L599.816 274.364C599.927 275.256 600.064 276.144 600.159 277.037L600.251 279.74C600.26 280.19 600.302 280.639 600.285 281.09L600.204 282.447L600.045 285.158L599.643 287.861C599.453 289.67 598.913 291.444 598.528 293.231C598.354 294.129 598.027 295.001 597.758 295.882L596.938 298.525C596.325 300.281 595.624 302.03 594.972 303.782C594.205 305.486 593.491 307.217 592.684 308.901L591.419 311.399C591.005 312.236 590.58 313.066 590.096 313.863C586.446 320.364 581.997 326.393 576.815 331.716C571.626 337.029 565.755 341.687 559.351 345.507C552.927 349.295 546.039 352.322 538.883 354.586C531.723 356.833 524.316 358.414 516.8 359.208C514.919 359.389 513.04 359.604 511.149 359.69C510.205 359.744 509.261 359.818 508.315 359.856L505.476 359.942C503.583 360.039 501.686 359.966 499.79 359.986C497.894 359.933 495.996 359.882 494.1 359.773C492.207 359.632 490.306 359.544 488.418 359.321L485.58 359.03L482.753 358.647C480.862 358.42 478.993 358.057 477.113 357.752L471.356 356.772C463.647 355.537 455.892 354.582 448.109 354.028C445.969 353.89 443.828 353.783 441.687 353.698C430.422 352.903 421.741 353.098 415.38 353.241C409.044 353.384 404.044 353.497 403.286 352.232C402.816 351.218 405.748 346.513 407.889 343.078C409.349 340.736 410.975 338.125 412.543 335.314C413.187 334.301 413.819 333.277 414.429 332.233C416.49 328.602 418.294 324.744 419.503 320.582C420.71 316.433 421.175 311.909 420.517 307.413C420.193 305.168 419.565 302.955 418.697 300.847C418.454 300.316 418.18 299.789 417.915 299.261L417.512 298.47L417.033 297.732L416.058 296.262L414.945 294.915L414.383 294.244L413.769 293.635L412.532 292.423L411.205 291.339C410.762 290.977 410.315 290.619 409.839 290.317C408.906 289.677 407.967 289.042 406.979 288.52C406.013 287.94 405.008 287.466 404 286.998C395.884 283.329 387.048 282.278 378.411 282.88C374.085 283.233 369.779 284.042 365.609 285.428C361.45 286.821 357.413 288.82 353.833 291.571C350.277 294.319 347.107 297.811 345.114 301.973L344.413 303.547L344.068 304.334L343.802 305.151C343.451 306.24 343.073 307.334 342.883 308.389L342.533 309.985L342.279 311.606C342.083 312.679 342.019 313.779 341.913 314.866C341.779 317.051 341.771 319.251 342.016 321.43C342.21 323.61 342.645 325.766 343.265 327.848C344.498 332.021 346.425 335.913 348.791 339.411C349.477 340.415 350.2 341.383 350.942 342.332C353.494 346.011 356.244 349.124 358.528 351.704C360.993 354.49 363.122 356.896 363.555 358.413C363.561 358.432 363.565 358.448 363.568 358.462C362.457 359.401 355.803 359.347 348.763 359.289C341.91 359.233 333.091 359.163 322.411 359.676C319.96 359.726 317.508 359.795 315.057 359.895C306.463 360.291 297.879 361.038 289.329 362.092C285.052 362.606 280.791 363.25 276.541 363.96C272.292 364.66 268.026 365.506 263.919 366.17C255.621 367.499 247.235 368.111 238.912 367.858C234.745 367.788 230.613 367.319 226.511 366.766C222.434 366.069 218.375 365.266 214.447 364.04C206.579 361.68 199.07 358.188 192.498 353.397C189.227 350.992 186.167 348.312 183.401 345.354C180.671 342.363 178.236 339.116 176.111 335.673C173.942 332.254 172.227 328.557 170.781 324.767C170.026 322.879 169.474 320.919 168.876 318.973C168.402 316.991 167.865 315.023 167.547 313.003C167.127 311.003 166.94 308.96 166.672 306.931C166.539 304.888 166.323 302.835 166.35 300.81C166.261 298.775 166.438 296.757 166.529 294.733C166.785 292.729 166.943 290.709 167.37 288.734C168.136 284.775 169.242 280.866 170.886 277.162C172.503 273.45 174.511 269.898 176.838 266.538C179.153 263.167 181.882 260.068 184.749 257.097C187.613 254.116 190.744 251.363 194.025 248.781C195.642 247.461 197.357 246.257 199.041 245.012C200.779 243.837 202.489 242.62 204.279 241.513C207.813 239.232 211.476 237.131 215.183 235.098C222.604 231.037 230.334 227.487 238.18 224.186C240.589 223.176 243.011 222.19 245.442 221.222C248.931 219.949 252.552 218.683 256.324 217.421C272.585 211.984 282.693 203.21 288.948 192.871C291.21 190.081 293.122 186.97 294.652 183.701C297.48 177.65 299.098 171.105 299.865 164.584C300.637 158.049 300.588 151.513 300.048 145.089C299.727 141.412 299.239 137.779 298.621 134.155C298.555 131.296 298.497 128.571 298.497 125.999C298.497 125.17 297.826 124.499 296.997 124.499C296.169 124.499 295.497 125.17 295.497 125.999C295.497 128.576 295.554 131.29 295.62 134.133C295.156 137.814 294.863 141.485 294.563 145.113C294.076 151.422 293.647 157.642 292.916 163.757C292.182 169.871 291.164 175.882 289.502 181.758C288.565 185.124 287.393 188.426 285.997 191.715C280.013 201.369 270.483 209.524 255.372 214.577C251.374 215.914 247.549 217.257 243.863 218.609C241.548 219.388 239.239 220.184 236.935 221.002C220.811 226.92 204.857 234.037 190.72 244.458C183.659 249.629 177.136 255.757 171.859 262.984C169.243 266.607 166.944 270.489 165.066 274.588C163.162 278.678 161.827 283.032 160.887 287.445C160.381 289.651 160.122 291.894 159.845 294.135C159.721 296.383 159.522 298.634 159.6 300.88C159.561 303.138 159.775 305.347 159.911 307.573C160.183 309.787 160.38 312.012 160.821 314.208C161.16 316.418 161.727 318.589 162.241 320.769C162.88 322.919 163.482 325.082 164.3 327.178C165.872 331.383 167.758 335.5 170.147 339.33C172.523 343.163 175.275 346.761 178.336 350.073C181.437 353.349 184.855 356.306 188.494 358.943C195.806 364.176 204.043 368.002 212.596 370.404C216.87 371.645 221.238 372.427 225.606 373.082C229.99 373.593 234.387 373.998 238.781 373.99C243.176 374.079 247.555 373.821 251.913 373.458C254.083 373.201 256.256 372.96 258.416 372.65C260.565 372.279 262.73 371.998 264.861 371.551C269.178 370.708 273.279 369.755 277.45 368.93C281.616 368.093 285.8 367.349 289.991 366.632C298.374 365.213 306.817 364.119 315.295 363.324C318.03 363.05 320.77 362.829 323.512 362.628C333.695 362.167 342.134 362.235 348.738 362.289C359.455 362.375 364.345 362.416 366.014 360.223C366.405 359.709 366.796 358.836 366.44 357.589C365.819 355.418 363.703 353.026 360.774 349.716C358.552 347.205 355.997 344.313 353.639 340.983C352.958 339.888 352.304 338.782 351.718 337.645C347.912 330.707 346.274 322.926 347.328 315.411C347.486 314.474 347.596 313.535 347.835 312.61L348.146 311.22L348.547 309.846C349.063 307.998 349.73 306.407 350.576 304.808C352.288 301.666 354.83 299.018 357.789 296.883C360.763 294.76 364.152 293.097 367.763 291.985C371.361 290.842 375.138 290.136 378.952 289.857C382.765 289.552 386.623 289.657 390.403 290.182C394.186 290.675 397.9 291.624 401.331 293.077C404.742 294.53 407.962 296.45 410.347 299.032L411.239 300.001L412.003 301.052L412.389 301.577L412.703 302.14L413.345 303.265C414.142 304.885 414.758 306.593 415.139 308.373C415.932 311.933 415.766 315.731 415.044 319.503C414.326 323.287 412.982 327.029 411.362 330.681C410.876 331.815 410.348 332.937 409.805 334.055C408.3 336.743 406.742 339.247 405.343 341.491C401.53 347.609 399.229 351.302 400.711 353.773C402.37 356.536 406.739 356.437 415.448 356.24C421.622 356.1 430.025 355.92 440.86 356.655C443.17 356.882 445.477 357.132 447.778 357.43C455.412 358.383 462.999 359.67 470.52 361.261L476.168 362.489C478.099 362.874 480.021 363.315 481.967 363.62L484.882 364.119L487.811 364.524C489.761 364.823 491.728 364.985 493.691 365.199C509.405 366.69 525.494 365.401 540.825 360.903C541.791 360.652 542.73 360.306 543.682 360.004C544.629 359.687 545.585 359.394 546.52 359.04C548.378 358.299 550.273 357.651 552.091 356.805L554.841 355.594L557.534 354.256C559.35 353.402 561.066 352.352 562.827 351.389C569.756 347.322 576.16 342.323 581.83 336.593C587.428 330.788 592.195 324.208 596.078 317.18C596.592 316.315 597.043 315.419 597.483 314.517L598.823 311.823C599.676 310.01 600.43 308.153 601.235 306.32C601.923 304.439 602.65 302.584 603.299 300.681L604.175 297.769C604.451 296.792 604.78 295.836 604.961 294.827C605.356 292.823 605.893 290.859 606.078 288.804L606.46 285.752L606.581 282.66L606.634 281.116C606.641 280.6 606.589 280.082 606.568 279.565Z" fill="#8295D9"/>
</g>
<g id="Lower left">
<path id="Vector_7" d="M469.407 665.764C469.407 637.764 469.998 593.999 510.556 575.764C556.574 555.074 594.998 537.999 603.407 488.764C611.327 442.393 555.998 403.999 497.407 423.763C469.212 433.273 443.885 434.071 393.998 435.999C344.11 437.927 316.953 437.314 290.407 431.763C248.474 422.994 173.998 412.999 166.407 491.764C160.825 549.685 210.549 567.16 258.407 578.764C279.998 583.999 280.473 646.548 282.407 665.764" fill="url(#paint5_radial_938_25792)"/>
<path id="Vector_8" d="M469.407 665.764C469.407 637.764 469.998 593.999 510.556 575.764C556.574 555.074 594.998 537.999 603.407 488.764C611.327 442.393 555.998 403.999 497.407 423.763C469.212 433.273 443.885 434.071 393.998 435.999C344.11 437.927 316.953 437.314 290.407 431.763C248.474 422.994 173.998 412.999 166.407 491.764C160.825 549.685 210.549 567.16 258.407 578.764C279.998 583.999 280.473 646.548 282.407 665.764H469.407Z" fill="url(#paint6_radial_938_25792)"/>
<path id="Vector_9" d="M607.337 475.328C606.97 470.849 605.999 466.438 604.607 462.178C603.196 457.915 601.177 453.894 598.867 450.083L597.044 447.279C596.391 446.379 595.71 445.498 595.043 444.608C594.394 443.701 593.652 442.875 592.925 442.035C592.186 441.209 591.501 440.326 590.699 439.561L588.348 437.21C587.539 436.454 586.693 435.742 585.866 435.007C585.448 434.646 585.04 434.272 584.613 433.921L583.304 432.908C582.423 432.243 581.573 431.535 580.666 430.908C577.067 428.357 573.268 426.118 569.335 424.164C565.367 422.296 561.317 420.576 557.117 419.335C555.045 418.621 552.904 418.156 550.791 417.595C549.731 417.33 548.652 417.151 547.581 416.933C546.506 416.741 545.441 416.488 544.355 416.369C535.718 415.095 526.934 414.945 518.31 415.993C514.007 416.569 509.719 417.284 505.531 418.398L502.391 419.231C501.353 419.535 500.331 419.889 499.3 420.217L496.23 421.218L493.285 422.214C477.574 427.545 461.024 430.157 444.33 431.825C441.54 432.115 438.746 432.379 435.949 432.632C424.757 433.311 412.055 433.801 397.021 434.381L393.939 434.5C376.793 435.163 362.581 435.503 350.335 435.487C347.702 435.407 345.07 435.317 342.441 435.202C325.31 434.544 308.269 432.931 291.683 429.241C287.486 428.318 283.237 427.385 278.978 426.573C274.711 425.777 270.425 425.051 266.105 424.478C257.479 423.269 248.733 422.613 239.933 422.636C235.531 422.71 231.116 422.904 226.714 423.48C224.508 423.693 222.318 424.114 220.122 424.467C219.025 424.649 217.939 424.928 216.847 425.155C215.758 425.4 214.662 425.61 213.588 425.938L210.35 426.846C209.273 427.159 208.22 427.568 207.154 427.927C205.009 428.604 202.961 429.588 200.875 430.452C199.851 430.935 198.853 431.477 197.841 431.99L196.329 432.77C195.835 433.05 195.357 433.361 194.87 433.655L191.966 435.451L189.207 437.477L187.837 438.503L186.554 439.639L183.998 441.921L181.642 444.41L180.468 445.657L179.406 446.997L177.287 449.683C176.632 450.612 176.028 451.577 175.398 452.523C174.08 454.386 173.087 456.425 172 458.411C167.865 466.476 165.4 475.202 164.069 483.956L163.284 490.542C163.126 491.633 163.116 492.756 163.034 493.862C162.975 494.973 162.89 496.081 162.853 497.193L162.851 500.54L162.851 502.212L162.952 503.888L163.159 507.238L163.58 510.578C164.747 519.47 167.838 528.228 172.753 535.782C175.209 539.554 178.036 543.067 181.183 546.235C184.354 549.377 187.78 552.222 191.399 554.756C198.668 559.787 206.547 563.7 214.619 566.92C216.802 567.771 218.999 568.575 221.207 569.341C233.02 573.803 245.632 577.211 258.053 580.222C262.138 581.213 265.428 584.518 268.095 589.311C268.351 589.965 268.596 590.623 268.825 591.287C269.976 594.627 270.839 598.062 271.578 601.533C273.053 608.478 274.089 615.553 275.091 622.668C276.068 629.79 277.001 636.956 278.067 644.156C278.714 648.319 279.362 652.511 280.2 656.692C280.444 660.313 280.668 663.462 280.914 665.914C280.992 666.688 281.644 667.264 282.405 667.264C282.455 667.264 282.506 667.262 282.557 667.256C283.381 667.173 283.982 666.438 283.899 665.614C283.654 663.179 283.431 660.013 283.185 656.366C283.444 652.156 283.582 647.952 283.555 643.733C283.506 636.39 283.038 629.03 282.022 621.702C280.983 614.382 279.423 607.064 276.842 599.99C275.53 596.467 273.959 592.996 271.9 589.783C271.622 589.366 271.341 588.952 271.054 588.542C267.921 582.669 263.918 578.557 258.76 577.306C247.155 574.492 235.386 571.337 224.33 567.315C221.509 566.192 218.712 565.02 215.963 563.757C212.105 561.968 208.284 560.112 204.628 557.99C200.979 555.865 197.424 553.596 194.102 551.048C190.798 548.481 187.663 545.732 184.817 542.725C181.996 539.697 179.515 536.393 177.389 532.893C175.231 529.406 173.597 525.63 172.313 521.757C172.026 520.776 171.637 519.829 171.41 518.829L170.666 515.852C170.427 514.858 170.295 513.835 170.102 512.83L169.833 511.316C169.762 510.808 169.72 510.294 169.661 509.784L169.332 506.718L169.203 503.626L169.137 502.081L169.169 500.529L169.23 497.426C169.285 496.391 169.386 495.355 169.461 494.321C169.558 493.285 169.581 492.252 169.754 491.216L170.613 485.008C172.005 476.8 174.293 468.758 178.087 461.531C179.08 459.757 179.975 457.918 181.166 456.276C181.733 455.438 182.273 454.578 182.859 453.755L184.754 451.391L185.698 450.207L186.746 449.116L188.834 446.93L191.105 444.935L192.24 443.937L193.455 443.035L195.88 441.224L198.454 439.616C198.885 439.351 199.306 439.069 199.745 438.817L201.096 438.113C202 437.65 202.887 437.155 203.804 436.715C205.688 435.931 207.515 435.022 209.474 434.397C210.444 434.066 211.394 433.684 212.38 433.391L215.348 432.54C223.305 430.356 231.669 429.521 240.047 429.244C248.446 429.063 256.907 429.527 265.334 430.547C273.771 431.544 282.158 432.968 290.587 434.571C299.147 436.163 307.786 437.329 316.443 437.909C325.1 438.492 333.752 438.683 342.384 438.62C344.801 438.591 347.216 438.543 349.63 438.485C362.081 438.516 376.549 438.175 394.056 437.498L397.136 437.379C412.859 436.773 426.037 436.263 437.627 435.534C439.948 435.452 442.27 435.36 444.593 435.252C453.035 434.807 461.492 434.112 469.926 432.917C478.361 431.742 486.735 429.874 494.929 427.423L497.999 426.494L500.964 425.634C501.95 425.356 502.928 425.05 503.919 424.795L506.909 424.106C510.888 423.156 514.932 422.548 518.983 422.089C527.099 421.263 535.298 421.575 543.294 422.912C551.287 424.261 559.076 426.739 566.308 430.297C569.904 432.116 573.362 434.186 576.622 436.526C579.826 438.929 582.924 441.486 585.646 444.401C586.378 445.082 586.987 445.871 587.657 446.607C588.313 447.354 588.988 448.088 589.566 448.895L591.369 451.265L593.003 453.747C595.069 457.117 596.882 460.652 598.141 464.387C599.382 468.12 600.262 471.973 600.609 475.894C600.888 479.814 600.798 483.766 600.216 487.68C598.973 495.704 596.773 503.628 593.365 510.972C591.656 514.643 589.685 518.191 587.438 521.57C585.182 524.942 582.668 528.15 579.934 531.181C574.451 537.24 568.057 542.506 561.268 547.259C554.482 552.029 547.245 556.229 539.865 560.192C537.578 561.436 535.269 562.643 532.951 563.837C525.812 567.256 518.32 570.629 510.545 574.124L509.941 574.396C500.546 578.62 493.256 584.169 487.591 590.538C484.426 593.336 481.599 596.571 479.204 600.098C474.881 606.46 471.893 613.678 470.027 621.056C468.153 628.447 467.352 636.012 467.302 643.497C467.287 647.762 467.509 652.002 467.963 656.218C467.907 659.581 467.907 662.783 467.907 665.764C467.907 666.592 468.578 667.264 469.407 667.264C470.235 667.264 470.907 666.592 470.907 665.764C470.907 662.888 470.907 659.802 470.959 656.561C471.59 652.311 472.139 648.088 472.772 643.91C473.829 636.728 475.057 629.658 476.81 622.78C478.565 615.905 480.837 609.223 483.956 602.876C485.76 599.165 487.877 595.598 490.266 592.12C495.619 586.199 502.449 581.054 511.172 577.132L511.776 576.861C519.637 573.326 527.305 569.873 534.668 566.324C536.921 565.315 539.168 564.293 541.407 563.243C549.051 559.607 556.588 555.65 563.806 551.056C567.428 548.783 570.926 546.284 574.289 543.593C577.648 540.901 580.907 538.044 583.904 534.903C586.913 531.776 589.716 528.43 592.259 524.881C594.787 521.319 596.965 517.512 598.893 513.592C602.729 505.72 605.243 497.3 606.743 488.723C607.51 484.316 607.634 479.804 607.337 475.328Z" fill="#8295D9"/>
</g>
<g id="Upper right">
<path id="Vector_10" d="M850.549 114.447C850.549 142.447 849.958 186.212 809.4 204.447C763.382 225.137 737.489 242.764 729.08 291.999C721.16 338.37 763.569 370.978 822.549 356.448C851.441 349.331 876.071 346.14 925.958 344.212C975.846 342.284 1017.66 345.678 1044.21 351.229C1086.14 359.997 1153.95 359.941 1153.55 288.447C1153.22 230.259 1105.05 224.522 1061.55 201.447C1038.08 188.999 1030.01 133.663 1028.08 114.447" fill="#EFBF8F"/>
<path id="Vector_11" d="M850.549 114.447C850.549 142.447 849.958 186.212 809.4 204.447C763.382 225.137 737.489 242.764 729.08 291.999C721.16 338.37 763.569 370.978 822.549 356.448C851.441 349.331 876.071 346.14 925.958 344.212C975.846 342.284 1017.66 345.678 1044.21 351.229C1086.14 359.997 1153.95 359.941 1153.55 288.447C1153.22 230.259 1105.05 224.522 1061.55 201.447C1038.08 188.999 1030.01 133.663 1028.08 114.447" fill="url(#paint7_radial_938_25792)"/>
<path id="Vector_12" d="M850.549 114.447C850.549 142.447 849.958 186.212 809.4 204.447C763.382 225.137 737.489 242.764 729.08 291.999C721.16 338.37 763.569 370.978 822.549 356.448C851.441 349.331 876.071 346.14 925.958 344.212C975.846 342.284 1017.66 345.678 1044.21 351.229C1086.14 359.997 1153.95 359.941 1153.55 288.447C1153.22 230.259 1105.05 224.522 1061.55 201.447C1038.08 188.999 1030.01 133.663 1028.08 114.447" fill="url(#paint8_radial_938_25792)"/>
<path id="Vector_13" d="M1155.35 273.456C1153.83 265.155 1150.86 256.945 1146.07 249.867C1143.7 246.336 1141.01 243.014 1137.97 240.081C1134.94 237.141 1131.68 234.482 1128.25 232.107C1124.8 229.76 1121.23 227.653 1117.6 225.698C1113.96 223.766 1110.26 221.995 1106.53 220.314C1104.34 219.352 1102.14 218.422 1099.94 217.503C1096.52 215.953 1093.05 214.431 1089.55 212.902C1080.57 208.976 1071.29 204.916 1062.25 200.122C1059.63 198.732 1057.21 196.776 1054.97 194.381C1054.56 193.809 1054.16 193.232 1053.77 192.644C1051.64 189.419 1049.86 185.99 1048.28 182.465C1045.11 175.408 1042.63 168.01 1040.4 160.499C1038.17 152.985 1036.16 145.36 1034.21 137.672C1033.08 133.249 1031.96 128.807 1030.79 124.348C1030.17 119.885 1029.78 116.371 1029.57 114.297C1029.49 113.473 1028.76 112.875 1027.93 112.954C1027.11 113.037 1026.5 113.773 1026.59 114.598C1026.82 116.937 1027.21 120.438 1027.81 124.722C1027.9 129.39 1028.26 134.047 1028.8 138.681C1029.77 146.711 1031.37 154.687 1033.69 162.5C1036.02 170.301 1039.11 177.981 1043.44 185.053C1045.63 188.569 1048.14 191.932 1051.15 194.842C1051.58 195.263 1052.04 195.672 1052.49 196.073C1055.13 198.963 1057.91 201.216 1060.85 202.772C1069.99 207.62 1079.32 211.702 1088.35 215.65C1091.64 217.089 1094.88 218.51 1098.07 219.942C1100.41 221.082 1102.74 222.232 1105.05 223.415C1108.63 225.267 1112.19 227.155 1115.63 229.2C1119.06 231.261 1122.39 233.448 1125.56 235.825C1128.69 238.245 1131.66 240.819 1134.37 243.631C1137.09 246.433 1139.43 249.546 1141.48 252.816C1143.55 256.078 1145.15 259.613 1146.43 263.249C1147.79 266.866 1148.62 270.676 1149.3 274.501C1150.5 282.19 1150.56 290.167 1149.79 297.957C1149 305.729 1147.26 313.377 1144 320.289C1140.65 327.124 1135.96 333.281 1129.88 337.852C1123.95 342.602 1116.82 345.83 1109.39 348.067C1101.9 350.203 1094.06 351.34 1086.16 351.73C1078.25 352.173 1070.27 351.86 1062.32 351.05C1058.35 350.635 1054.39 350.105 1050.44 349.447C1048.46 349.152 1046.51 348.762 1044.52 348.413C1042.5 348.057 1040.48 347.654 1038.45 347.348C1022.25 344.689 1005.94 343.503 989.653 342.958C987.388 342.894 985.124 342.846 982.86 342.81C964.907 342.002 945.622 341.952 925.9 342.713C916.392 343.081 907.789 343.492 899.857 343.971C897.589 344.04 895.32 344.115 893.052 344.199C885.085 344.556 877.116 345.055 869.149 345.763C861.182 346.47 853.232 347.502 845.315 348.777C841.355 349.411 837.411 350.138 833.476 350.909C829.547 351.699 825.637 352.588 821.741 353.488C814.176 355.254 806.469 356.323 798.771 356.527C794.921 356.672 791.082 356.512 787.262 356.225C783.458 355.832 779.66 355.327 775.964 354.414C768.544 352.731 761.44 349.834 755.129 345.79C751.929 343.826 749.039 341.428 746.349 338.857C743.649 336.286 741.316 333.359 739.305 330.242C738.253 328.707 737.418 327.044 736.544 325.407L735.396 322.868C735.006 322.025 734.739 321.129 734.402 320.264C733.189 316.753 732.259 313.12 731.832 309.397C731.391 305.683 731.213 301.906 731.541 298.134L731.627 296.718L731.803 295.308L732.164 292.484L733.255 286.745L733.8 283.873L734.523 281.054C735.016 279.178 735.469 277.286 735.989 275.419L737.794 269.902L738.245 268.521C738.416 268.069 738.612 267.629 738.794 267.183L739.906 264.509C742.922 257.412 746.785 250.664 751.678 244.662C756.549 238.644 762.306 233.329 768.532 228.563C770.206 227.248 771.93 225.994 773.684 224.78C783.782 218.252 795.793 212.21 810.015 205.815C813.817 204.106 817.27 202.178 820.415 200.069C824.892 197.689 829.086 194.674 832.77 191.051C839.365 184.577 844.23 176.388 847.307 167.761C850.412 159.112 851.868 150.053 852.268 141.1C852.48 136.015 852.356 130.959 851.954 125.932C852.048 121.859 852.049 117.995 852.049 114.447C852.049 113.619 851.378 112.947 850.549 112.947C849.721 112.947 849.049 113.619 849.049 114.447C849.049 117.847 849.049 121.543 848.963 125.44C848.286 130.522 847.638 135.568 846.812 140.543C845.421 149.086 843.58 157.458 840.722 165.39C837.87 173.316 833.969 180.784 828.695 187.351C825.592 191.245 821.998 194.758 818.06 198.012C815.232 199.865 812.152 201.565 808.785 203.079C794.758 209.386 782.57 215.426 772.133 222.185C770.238 223.334 768.367 224.529 766.533 225.789C759.888 230.351 753.634 235.615 748.187 241.719L744.288 246.459C743.094 248.118 741.972 249.834 740.81 251.523L739.951 252.799L739.199 254.137L737.695 256.816C737.202 257.714 736.675 258.597 736.21 259.508L734.935 262.298L733.66 265.092C733.451 265.559 733.228 266.021 733.031 266.493L732.505 267.929L730.404 273.685C729.777 275.623 729.282 277.597 728.719 279.555L727.902 282.498L727.272 285.475L726.013 291.432L725.551 294.516L725.329 296.061L725.199 297.62C724.758 301.769 724.855 305.986 725.269 310.168C725.645 314.364 726.676 318.499 728.033 322.5C728.407 323.49 728.712 324.507 729.147 325.473L730.437 328.378C731.414 330.257 732.366 332.157 733.547 333.919C735.817 337.494 738.463 340.845 741.5 343.785C744.526 346.726 747.787 349.448 751.353 351.679C752.212 352.291 753.148 352.769 754.053 353.301C754.966 353.818 755.865 354.364 756.816 354.801L759.636 356.184L762.526 357.395C763.482 357.818 764.467 358.16 765.452 358.497C766.44 358.828 767.413 359.209 768.412 359.496C770.412 360.06 772.401 360.674 774.435 361.081C782.526 362.929 790.823 363.539 799.018 363.15C807.216 362.762 815.32 361.458 823.204 359.444C830.867 357.493 838.543 355.692 846.282 354.152C861.764 351.113 877.487 349.138 893.289 347.628C895.969 347.365 898.652 347.129 901.335 346.887C908.882 346.443 917.048 346.058 926.017 345.711C945.384 344.963 964.318 345.002 981.968 345.773C984.466 345.958 986.963 346.153 989.457 346.371C997.529 347.039 1005.58 347.847 1013.6 348.898C1021.61 349.955 1029.59 351.131 1037.48 352.702C1039.46 353.068 1041.41 353.528 1043.37 353.94C1045.37 354.361 1047.39 354.833 1049.41 355.204C1053.46 356.009 1057.54 356.607 1061.64 357.128C1069.83 358.131 1078.12 358.629 1086.45 358.333C1094.77 358.097 1103.12 356.875 1111.28 354.631C1119.38 352.256 1127.36 348.738 1134.19 343.368C1141.09 338.119 1146.47 330.958 1150.19 323.206C1153.8 315.373 1155.7 306.943 1156.39 298.569C1157.04 290.192 1156.82 281.799 1155.35 273.456Z" fill="#DB8319"/>
</g>
<g id="Lower right">
<path id="Vector_14" d="M1031.13 664.852C1031.13 636.852 1041.41 588.844 1078.29 563.999C1126.8 531.321 1138.17 527.418 1152.6 487.301C1168.52 443.033 1118.11 408.322 1059.13 422.851C1030.24 429.969 1003.97 426.071 954.08 427.999C904.192 429.927 862.001 431.556 837.468 428.071C782.545 420.268 721.115 441.093 751.983 502.665C776 550.57 801 542.106 822.08 571.999C837.39 593.71 851.665 645.636 853.599 664.852" fill="#EFBF8F"/>
<path id="Vector_15" d="M1031.13 664.852C1031.13 636.852 1041.41 588.844 1078.29 563.999C1126.8 531.321 1138.17 527.418 1152.6 487.301C1168.52 443.033 1118.11 408.322 1059.13 422.851C1030.24 429.969 1003.97 426.071 954.08 427.999C904.192 429.927 862.001 431.556 837.468 428.071C782.545 420.268 721.115 441.093 751.983 502.665C776 550.57 801 542.106 822.08 571.999C837.39 593.71 851.665 645.636 853.599 664.852" fill="url(#paint9_radial_938_25792)"/>
<path id="Vector_16" d="M1031.13 664.852C1031.13 636.852 1041.41 588.844 1078.29 563.999C1126.8 531.321 1138.17 527.418 1152.6 487.301C1168.52 443.033 1118.11 408.322 1059.13 422.851C1030.24 429.969 1003.97 426.071 954.08 427.999C904.192 429.927 862.001 431.556 837.468 428.071C782.545 420.268 721.115 441.093 751.983 502.665C776 550.57 801 542.106 822.08 571.999C837.39 593.71 851.665 645.636 853.599 664.852L1031.13 664.852Z" fill="url(#paint10_radial_938_25792)"/>
<path id="Vector_17" d="M1157.94 461.958C1157.26 457.964 1155.8 454.142 1154.04 450.528C1152.29 446.885 1149.95 443.583 1147.39 440.521C1144.85 437.423 1141.86 434.775 1138.78 432.295L1136.4 430.524C1135.61 429.924 1134.75 429.432 1133.93 428.882C1132.3 427.765 1130.56 426.855 1128.85 425.883C1114.86 418.652 1099.11 415.766 1083.71 416.239C1076 416.496 1068.34 417.561 1060.87 419.326L1055.41 420.606C1054.52 420.809 1053.63 421.044 1052.73 421.221L1050.04 421.749C1048.25 422.139 1046.43 422.42 1044.62 422.709C1042.81 423.029 1040.98 423.235 1039.15 423.468C1031.84 424.368 1024.42 424.737 1016.97 425.038C1009.53 425.337 1002.04 425.475 994.551 425.666C992.339 425.736 990.127 425.808 987.914 425.882C977.849 425.896 966.71 426.011 954.022 426.5C939.782 427.05 926.108 427.578 913.265 427.968C911.143 427.961 909.02 427.957 906.899 427.945C892.67 427.917 878.446 427.791 864.299 427.24C857.232 426.915 850.183 426.452 843.231 425.682C841.492 425.492 839.777 425.223 838.049 424.999L832.659 424.262L827.24 423.705L821.8 423.332C814.537 422.956 807.236 423.175 799.968 423.932C792.703 424.708 785.46 426.074 778.392 428.275C771.342 430.496 764.476 433.681 758.325 438.15L757.167 438.977L756.068 439.896L753.88 441.745L751.845 443.787C751.51 444.132 751.159 444.459 750.84 444.82L749.917 445.938C747.363 448.838 745.365 452.245 743.792 455.79L742.747 458.515C742.38 459.416 742.214 460.379 741.942 461.309C741.367 463.17 741.167 465.093 740.871 466.996C740.783 467.472 740.752 467.95 740.738 468.429L740.672 469.863C740.649 470.818 740.542 471.778 740.595 472.726L740.746 475.569L740.826 476.99L741.027 478.387C741.984 485.878 744.438 492.948 747.533 499.568C748.348 501.202 749.104 502.876 749.968 504.472L752.612 509.217C753.454 510.817 754.482 512.324 755.433 513.867C756.393 515.407 757.356 516.942 758.457 518.396C762.626 524.339 767.416 529.912 772.911 534.685C774.318 535.903 775.766 537.063 777.243 538.178C782.615 542.523 787.958 545.794 793.234 549.021C801.454 554.051 809.29 558.862 816.697 567.524C817.143 568.16 817.595 568.793 818.019 569.442C819.367 571.437 820.58 573.52 821.699 575.625C822.9 577.669 823.872 579.892 824.941 582.029C825.487 583.09 825.921 584.231 826.416 585.326C826.893 586.434 827.41 587.516 827.875 588.63C828.751 590.889 829.737 593.087 830.593 595.355C832.345 599.87 834.055 604.41 835.666 608.995C838.921 618.153 842.01 627.397 845.01 636.692C846.776 642.201 848.539 647.706 850.231 653.259C851.143 657.824 851.788 661.832 852.107 665.003C852.185 665.776 852.837 666.352 853.597 666.352C853.648 666.352 853.699 666.35 853.75 666.345C854.574 666.262 855.175 665.526 855.092 664.702C854.753 661.334 854.049 657.028 853.05 652.119C852.973 651.4 852.893 650.681 852.813 649.961C852.182 645.036 851.367 640.131 850.331 635.282C848.282 625.576 845.597 616.007 842.257 606.642C840.581 601.963 838.737 597.333 836.695 592.779C835.681 590.501 834.552 588.258 833.447 586.019C832.264 583.802 831.073 581.597 829.776 579.438C828.408 577.307 827.138 575.145 825.545 573.137C824.765 572.133 824.059 571.078 823.222 570.128C822.402 569.165 821.566 568.218 820.693 567.305C820.157 566.744 819.609 566.197 819.053 565.658C811.349 556.605 803.273 551.646 794.8 546.462C790.08 543.574 785.304 540.651 780.503 536.916C778.681 535.403 776.917 533.83 775.246 532.162C770.249 527.295 765.959 521.76 762.268 515.842C761.287 514.405 760.454 512.863 759.578 511.353C758.72 509.831 757.79 508.358 757.034 506.773L754.657 502.094C753.885 500.528 753.239 498.925 752.523 497.346C751.773 495.778 751.267 494.131 750.653 492.522C750.376 491.71 750.019 490.918 749.806 490.09L749.1 487.625C748.885 486.8 748.581 485.993 748.419 485.161L747.893 482.674C747.475 481.024 747.338 479.35 747.12 477.687L746.965 476.439L746.93 475.192L746.851 472.7C746.82 471.87 746.944 471.054 746.98 470.231L747.062 469C747.08 468.588 747.115 468.179 747.203 467.78C747.504 466.175 747.69 464.545 748.221 463.008C748.471 462.239 748.611 461.43 748.942 460.691L749.862 458.451C751.272 455.558 752.876 452.727 755.075 450.305L755.854 449.366C756.126 449.063 756.433 448.788 756.72 448.496L758.464 446.767L760.37 445.188L761.322 444.397L762.345 443.684C767.751 439.813 773.981 436.954 780.512 434.942C793.572 430.784 807.634 429.521 821.534 429.936L826.756 430.173L831.972 430.588L837.178 431.179C838.986 431.373 840.795 431.612 842.599 431.766C849.815 432.439 857.001 432.639 864.166 432.68C871.331 432.696 878.477 432.611 885.613 432.352C892.749 432.09 899.873 431.752 906.992 431.362C909.005 431.239 911.018 431.106 913.03 430.976C925.982 430.585 939.772 430.053 954.138 429.498C966.529 429.019 977.446 428.9 987.33 428.882C989.735 428.952 992.14 429.017 994.545 429.103C1009.5 429.483 1024.53 430.183 1039.71 428.902C1041.61 428.731 1043.5 428.585 1045.39 428.323C1047.29 428.092 1049.18 427.867 1051.07 427.53C1052.96 427.232 1054.84 426.899 1056.71 426.474L1062.21 425.31C1069.34 423.79 1076.61 422.947 1083.86 422.866C1091.11 422.789 1098.37 423.337 1105.41 424.865C1112.44 426.395 1119.29 428.738 1125.59 432.07C1127.13 432.941 1128.72 433.747 1130.19 434.743C1130.93 435.232 1131.71 435.665 1132.41 436.197L1134.55 437.763C1137.3 439.952 1139.97 442.271 1142.2 444.961C1146.78 450.222 1150.03 456.538 1151.47 463.274C1152.15 466.642 1152.53 470.108 1152.27 473.581L1152.22 474.883L1152.05 476.18C1151.93 477.044 1151.85 477.914 1151.7 478.776C1151.3 480.484 1151.05 482.225 1150.47 483.899L1149.69 486.44L1148.74 489.044C1148.1 490.774 1147.5 492.534 1146.82 494.242L1144.78 499.37L1142.53 504.374C1139.41 510.978 1135.54 517.128 1130.76 522.604C1126.01 528.103 1120.34 532.877 1114.47 537.422C1112.58 538.893 1110.66 540.336 1108.74 541.769C1103.8 545.194 1098.22 548.909 1091.8 553.175C1087.41 556.092 1082.64 559.259 1077.45 562.755C1073.93 565.126 1070.65 567.726 1067.58 570.505C1063.05 573.857 1058.88 577.751 1055.15 582.028C1048.63 589.513 1043.48 598.144 1039.57 607.227C1035.66 616.322 1033 625.899 1031.51 635.605C1030.7 641.072 1030.24 646.599 1030.24 652.111C1029.83 656.529 1029.63 660.8 1029.63 664.853C1029.63 665.681 1030.3 666.353 1031.13 666.353C1031.96 666.353 1032.63 665.681 1032.63 664.853C1032.63 661.09 1032.81 657.13 1033.17 653.043C1034.24 647.526 1035.46 642.087 1036.89 636.713C1039.31 627.553 1042.29 618.604 1046 609.993C1049.71 601.392 1054.12 593.106 1059.49 585.413C1062.63 580.881 1066.11 576.577 1069.88 572.452C1072.77 569.87 1075.85 567.455 1079.13 565.243C1084.31 561.751 1089.07 558.587 1093.46 555.674C1100.32 551.116 1106.27 547.157 1111.51 543.49C1113.18 542.4 1114.84 541.298 1116.49 540.179C1122.69 535.903 1128.78 531.267 1134.13 525.69C1139.51 520.142 1143.85 513.598 1147.4 506.806C1148.24 505.092 1149.12 503.382 1149.94 501.658L1152.25 496.429C1153.02 494.688 1153.65 492.905 1154.35 491.144L1155.39 488.493C1155.71 487.576 1156.01 486.621 1156.32 485.685C1157 483.827 1157.35 481.856 1157.84 479.929C1158.02 478.951 1158.15 477.957 1158.3 476.971L1158.52 475.487L1158.62 473.986C1159 469.989 1158.66 465.925 1157.94 461.958Z" fill="#DB8319"/>
</g>
</g>
</g>
</g>
<g id="TEXT_DM">
<text id="POSTSYNAPTIC TERMINALS" fill="black" xml:space="preserve" style="white-space: pre" font-family="Arial" font-size="12" font-weight="bold" letter-spacing="0em"><tspan x="629.662" y="569.169">POSTSYNAPTIC&#10;</tspan><tspan x="641.34" y="583.169">TERMINALS</tspan></text>
<text id="PRESYNAPTIC TERMINALS" fill="black" xml:space="preserve" style="white-space: pre" font-family="Arial" font-size="12" font-weight="bold" letter-spacing="0em"><tspan x="625.662" y="167.722">PRESYNAPTIC&#10;</tspan><tspan x="633.338" y="181.722">TERMINALS</tspan></text>
</g>
<g id="TEXT">
<text id="SYNAPTIC VESICLE" fill="black" xml:space="preserve" style="white-space: pre" font-family="Arial" font-size="12" font-weight="bold" letter-spacing="0em"><tspan x="355.276" y="210.143">SYNAPTIC&#10;</tspan><tspan x="359.946" y="224.143">VESICLE</tspan></text>
</g>
<g id="LOGO" opacity="0.5">
<g id="LOGO_2">
<path id="Vector_18" d="M1125.43 102.908C1125.43 102.961 1125.42 103.004 1125.41 103.036C1125.38 103.155 1125.33 103.238 1125.26 103.286C1125.19 103.334 1125.1 103.359 1124.98 103.359C1124.88 103.359 1124.76 103.348 1124.6 103.326C1124.44 103.305 1124.31 103.294 1124.21 103.294C1123.67 103.294 1123.19 103.407 1122.77 103.633C1122.35 103.858 1122.03 104.169 1121.79 104.567C1121.55 104.964 1121.44 105.41 1121.44 105.904V110.801C1121.44 110.94 1121.39 111.056 1121.31 111.147C1121.22 111.238 1121.1 111.284 1120.95 111.284C1120.81 111.284 1120.7 111.238 1120.61 111.147C1120.51 111.056 1120.47 110.94 1120.47 110.801V102.956C1120.47 102.806 1120.51 102.688 1120.61 102.602C1120.7 102.516 1120.81 102.473 1120.95 102.473C1121.1 102.473 1121.22 102.516 1121.31 102.602C1121.39 102.688 1121.44 102.806 1121.44 102.956V103.955C1121.75 103.461 1122.14 103.074 1122.63 102.795C1123.11 102.516 1123.64 102.376 1124.21 102.376C1125.02 102.376 1125.43 102.553 1125.43 102.908Z" fill="#2F9EC2"/>
<path id="Vector_19" d="M1132.32 102.948C1132.93 103.319 1133.41 103.831 1133.76 104.486C1134.1 105.141 1134.27 105.888 1134.27 106.725C1134.27 106.865 1134.23 106.975 1134.14 107.055C1134.06 107.136 1133.95 107.176 1133.81 107.176H1127.06C1127.09 107.81 1127.26 108.376 1127.56 108.876C1127.86 109.375 1128.26 109.764 1128.76 110.043C1129.27 110.323 1129.83 110.462 1130.46 110.462C1130.87 110.462 1131.3 110.39 1131.72 110.245C1132.14 110.1 1132.48 109.909 1132.73 109.673C1132.83 109.587 1132.95 109.544 1133.07 109.544C1133.18 109.544 1133.28 109.576 1133.36 109.641C1133.47 109.737 1133.53 109.85 1133.53 109.979C1133.53 110.086 1133.48 110.188 1133.39 110.285C1133.04 110.597 1132.6 110.854 1132.04 111.058C1131.49 111.262 1130.96 111.364 1130.46 111.364C1129.61 111.364 1128.85 111.174 1128.19 110.792C1127.53 110.411 1127.01 109.88 1126.64 109.198C1126.26 108.516 1126.07 107.746 1126.07 106.887C1126.07 106.017 1126.25 105.241 1126.6 104.559C1126.95 103.877 1127.44 103.346 1128.06 102.964C1128.69 102.583 1129.41 102.393 1130.21 102.393C1131 102.392 1131.7 102.578 1132.32 102.948ZM1128.1 104.132C1127.52 104.691 1127.18 105.426 1127.07 106.339H1133.34C1133.26 105.426 1132.94 104.691 1132.37 104.132C1131.8 103.574 1131.08 103.294 1130.21 103.294C1129.38 103.294 1128.67 103.574 1128.1 104.132Z" fill="#2F9EC2"/>
<path id="Vector_20" d="M1142.36 102.964C1143.05 103.356 1143.59 103.896 1143.98 104.583C1144.37 105.27 1144.57 106.038 1144.57 106.886V110.8C1144.57 110.94 1144.52 111.056 1144.44 111.147C1144.35 111.238 1144.23 111.284 1144.08 111.284C1143.94 111.284 1143.83 111.238 1143.74 111.147C1143.64 111.056 1143.6 110.94 1143.6 110.8V109.544C1143.25 110.113 1142.76 110.562 1142.14 110.889C1141.52 111.217 1140.83 111.38 1140.07 111.38C1139.22 111.38 1138.46 111.185 1137.77 110.792C1137.08 110.4 1136.54 109.861 1136.15 109.173C1135.76 108.487 1135.56 107.724 1135.56 106.886C1135.56 106.038 1135.76 105.27 1136.15 104.583C1136.54 103.896 1137.08 103.356 1137.77 102.964C1138.46 102.572 1139.22 102.376 1140.07 102.376C1140.91 102.376 1141.67 102.572 1142.36 102.964ZM1141.88 110.011C1142.41 109.7 1142.83 109.27 1143.14 108.723C1143.45 108.175 1143.6 107.563 1143.6 106.886C1143.6 106.21 1143.45 105.598 1143.14 105.05C1142.83 104.502 1142.41 104.07 1141.88 103.753C1141.34 103.437 1140.74 103.278 1140.07 103.278C1139.41 103.278 1138.8 103.437 1138.27 103.753C1137.73 104.07 1137.31 104.502 1137 105.05C1136.68 105.598 1136.53 106.21 1136.53 106.886C1136.53 107.563 1136.68 108.175 1137 108.723C1137.31 109.27 1137.73 109.7 1138.27 110.011C1138.8 110.323 1139.41 110.478 1140.07 110.478C1140.74 110.478 1141.34 110.323 1141.88 110.011Z" fill="#2F9EC2"/>
<path id="Vector_21" d="M1148.64 110.792C1147.97 110.4 1147.45 109.861 1147.07 109.173C1146.69 108.486 1146.5 107.724 1146.5 106.886C1146.5 106.038 1146.68 105.273 1147.03 104.591C1147.38 103.909 1147.88 103.372 1148.51 102.98C1149.15 102.588 1149.85 102.392 1150.64 102.392C1151.33 102.392 1151.95 102.526 1152.52 102.795C1153.09 103.063 1153.59 103.461 1154 103.987C1154.08 104.094 1154.12 104.186 1154.12 104.261C1154.12 104.411 1154.04 104.529 1153.89 104.615C1153.82 104.679 1153.73 104.711 1153.63 104.711C1153.48 104.711 1153.36 104.647 1153.26 104.518C1152.58 103.702 1151.7 103.294 1150.64 103.294C1150.02 103.294 1149.46 103.447 1148.98 103.753C1148.5 104.059 1148.12 104.486 1147.86 105.034C1147.6 105.581 1147.46 106.199 1147.46 106.886C1147.46 107.563 1147.61 108.175 1147.9 108.722C1148.19 109.27 1148.59 109.7 1149.11 110.011C1149.62 110.323 1150.21 110.478 1150.88 110.478C1151.82 110.478 1152.58 110.215 1153.15 109.689C1153.25 109.592 1153.36 109.544 1153.49 109.544C1153.61 109.544 1153.7 109.582 1153.78 109.657C1153.89 109.753 1153.94 109.872 1153.94 110.011C1153.94 110.129 1153.9 110.226 1153.81 110.301C1153.44 110.645 1153 110.91 1152.49 111.098C1151.99 111.286 1151.45 111.38 1150.88 111.38C1150.05 111.38 1149.31 111.184 1148.64 110.792Z" fill="#2F9EC2"/>
<path id="Vector_22" d="M1160.87 110.438C1160.97 110.529 1161.01 110.65 1161.01 110.801C1161.01 110.94 1160.97 111.056 1160.87 111.147C1160.78 111.238 1160.66 111.284 1160.51 111.284H1160.14C1159.55 111.284 1159.02 111.15 1158.56 110.881C1158.1 110.613 1157.74 110.245 1157.48 109.778C1157.23 109.311 1157.1 108.782 1157.1 108.191V103.665H1155.84C1155.71 103.665 1155.61 103.624 1155.53 103.544C1155.45 103.463 1155.41 103.359 1155.41 103.23C1155.41 103.101 1155.45 102.996 1155.53 102.916C1155.61 102.835 1155.71 102.795 1155.84 102.795H1157.1V100.169C1157.1 100.019 1157.14 99.8983 1157.23 99.8068C1157.33 99.7158 1157.44 99.6699 1157.58 99.6699C1157.73 99.6699 1157.85 99.7157 1157.94 99.8068C1158.03 99.8983 1158.08 100.019 1158.08 100.169V102.795H1160.21C1160.34 102.795 1160.44 102.835 1160.52 102.916C1160.6 102.996 1160.64 103.101 1160.64 103.23C1160.64 103.359 1160.6 103.463 1160.52 103.544C1160.44 103.624 1160.34 103.665 1160.21 103.665H1158.08V108.191C1158.08 108.814 1158.27 109.321 1158.66 109.713C1159.05 110.105 1159.55 110.301 1160.16 110.301H1160.51C1160.66 110.301 1160.78 110.347 1160.87 110.438Z" fill="#2F9EC2"/>
<path id="Vector_23" d="M1164.75 110.792C1164.06 110.4 1163.52 109.861 1163.13 109.173C1162.74 108.487 1162.54 107.724 1162.54 106.886C1162.54 106.038 1162.74 105.27 1163.13 104.583C1163.52 103.896 1164.06 103.356 1164.75 102.964C1165.44 102.572 1166.2 102.376 1167.05 102.376C1167.89 102.376 1168.65 102.572 1169.34 102.964C1170.03 103.356 1170.57 103.896 1170.96 104.583C1171.35 105.27 1171.55 106.038 1171.55 106.886C1171.55 107.724 1171.35 108.486 1170.96 109.173C1170.57 109.861 1170.03 110.4 1169.34 110.792C1168.65 111.184 1167.89 111.38 1167.05 111.38C1166.2 111.38 1165.44 111.184 1164.75 110.792ZM1168.86 110.011C1169.39 109.7 1169.81 109.27 1170.12 108.722C1170.43 108.175 1170.58 107.563 1170.58 106.886C1170.58 106.21 1170.43 105.598 1170.12 105.05C1169.81 104.502 1169.39 104.07 1168.86 103.753C1168.32 103.437 1167.72 103.278 1167.05 103.278C1166.39 103.278 1165.78 103.437 1165.25 103.753C1164.71 104.07 1164.29 104.502 1163.97 105.05C1163.66 105.598 1163.51 106.21 1163.51 106.886C1163.51 107.563 1163.66 108.175 1163.97 108.722C1164.29 109.27 1164.71 109.7 1165.25 110.011C1165.78 110.323 1166.39 110.478 1167.05 110.478C1167.72 110.478 1168.32 110.323 1168.86 110.011Z" fill="#2F9EC2"/>
<path id="Vector_24" d="M1184.98 102.843C1185.48 103.165 1185.88 103.614 1186.16 104.188C1186.43 104.763 1186.57 105.415 1186.57 106.145V110.8C1186.57 110.94 1186.53 111.056 1186.45 111.147C1186.36 111.238 1186.24 111.283 1186.09 111.283C1185.95 111.283 1185.84 111.238 1185.74 111.147C1185.65 111.056 1185.61 110.94 1185.61 110.8V106.145C1185.61 105.318 1185.39 104.642 1184.95 104.115C1184.51 103.589 1183.94 103.326 1183.26 103.326C1182.5 103.326 1181.9 103.573 1181.44 104.067C1180.97 104.561 1180.75 105.216 1180.78 106.032V106.145V110.8C1180.78 110.94 1180.73 111.056 1180.65 111.147C1180.56 111.238 1180.44 111.283 1180.29 111.283C1180.15 111.283 1180.04 111.238 1179.95 111.147C1179.85 111.056 1179.81 110.94 1179.81 110.8V106.145C1179.81 105.318 1179.59 104.642 1179.15 104.115C1178.71 103.589 1178.14 103.326 1177.46 103.326C1176.72 103.326 1176.11 103.563 1175.64 104.035C1175.16 104.508 1174.93 105.12 1174.93 105.871V110.8C1174.93 110.94 1174.89 111.056 1174.8 111.147C1174.71 111.238 1174.6 111.284 1174.45 111.284C1174.31 111.284 1174.19 111.238 1174.1 111.147C1174.01 111.056 1173.96 110.94 1173.96 110.8V102.956C1173.96 102.805 1174.01 102.688 1174.1 102.601C1174.19 102.516 1174.31 102.473 1174.45 102.473C1174.6 102.473 1174.71 102.516 1174.8 102.601C1174.89 102.688 1174.93 102.805 1174.93 102.956V103.584C1175.23 103.198 1175.6 102.897 1176.04 102.682C1176.48 102.467 1176.95 102.36 1177.46 102.36C1178.08 102.36 1178.64 102.513 1179.13 102.819C1179.63 103.125 1180.02 103.547 1180.31 104.083C1180.6 103.547 1181 103.125 1181.52 102.819C1182.03 102.513 1182.61 102.36 1183.26 102.36C1183.9 102.36 1184.47 102.521 1184.98 102.843Z" fill="#2F9EC2"/>
<path id="Vector_25" d="M1195.07 102.948C1195.69 103.319 1196.17 103.831 1196.51 104.486C1196.86 105.141 1197.03 105.888 1197.03 106.725C1197.03 106.865 1196.98 106.975 1196.9 107.055C1196.81 107.136 1196.7 107.176 1196.56 107.176H1189.81C1189.84 107.81 1190.01 108.376 1190.31 108.876C1190.61 109.375 1191.01 109.764 1191.52 110.043C1192.02 110.323 1192.59 110.462 1193.21 110.462C1193.63 110.462 1194.05 110.39 1194.47 110.245C1194.9 110.1 1195.23 109.909 1195.48 109.673C1195.59 109.587 1195.7 109.544 1195.82 109.544C1195.94 109.544 1196.03 109.576 1196.11 109.641C1196.23 109.737 1196.29 109.85 1196.29 109.979C1196.29 110.086 1196.24 110.188 1196.14 110.285C1195.8 110.597 1195.35 110.854 1194.8 111.058C1194.24 111.262 1193.72 111.364 1193.21 111.364C1192.36 111.364 1191.61 111.174 1190.95 110.792C1190.29 110.411 1189.77 109.88 1189.39 109.198C1189.02 108.516 1188.83 107.746 1188.83 106.887C1188.83 106.017 1189 105.241 1189.35 104.559C1189.7 103.877 1190.19 103.346 1190.82 102.964C1191.45 102.583 1192.16 102.393 1192.97 102.393C1193.75 102.392 1194.45 102.578 1195.07 102.948ZM1190.85 104.132C1190.28 104.691 1189.94 105.426 1189.83 106.339H1196.09C1196.02 105.426 1195.7 104.691 1195.13 104.132C1194.56 103.574 1193.84 103.294 1192.97 103.294C1192.13 103.294 1191.43 103.574 1190.85 104.132Z" fill="#2F9EC2"/>
</g>
<g id="ICON">
<path id="25" d="M1107.07 97.7915V93.9248L1097.03 99.7249V111.325L1100.38 109.392V101.658L1107.07 97.7915Z" fill="#2F9EC2" fill-opacity="0.25"/>
<g id="50">
<path id="Vector_26" d="M1100.38 109.392V113.259L1103.72 111.325V107.458L1100.38 109.392Z" fill="#2F9EC2" fill-opacity="0.5"/>
<path id="Vector_27" d="M1110.42 99.7251V95.8584L1107.07 97.7917V101.658L1110.42 99.7251Z" fill="#2F9EC2" fill-opacity="0.5"/>
</g>
<path id="63" d="M1103.72 103.592L1107.07 101.658V97.7915L1100.38 101.658V109.392L1103.72 107.458V103.592Z" fill="#2F9EC2" fill-opacity="0.63"/>
<g id="75">
<path id="Vector_28" d="M1110.42 107.458V111.325L1113.77 109.392V105.525L1110.42 107.458Z" fill="#2F9EC2" fill-opacity="0.75"/>
<path id="Vector_29" d="M1113.77 101.658V97.7915L1110.42 99.7249V103.592L1113.77 101.658Z" fill="#2F9EC2" fill-opacity="0.75"/>
<path id="Vector_30" d="M1103.72 111.325V115.192L1107.07 113.258V109.392L1103.72 111.325Z" fill="#2F9EC2" fill-opacity="0.75"/>
</g>
<path id="88]" d="M1107.07 105.525L1110.42 103.592V99.7251L1107.07 101.658V105.525L1103.72 107.459V111.325L1107.07 109.392V105.525Z" fill="#2F9EC2" fill-opacity="0.88"/>
<g id="100">
<path id="Vector_31" d="M1103.72 103.592V107.459L1107.07 105.525V101.659L1103.72 103.592Z" fill="#2F9EC2"/>
<path id="Vector_32" d="M1113.77 101.658L1110.42 103.592L1107.07 105.525V109.392V113.259V117.125L1110.42 115.192V111.325V107.459L1113.77 105.525L1117.12 103.592V99.7251L1113.77 101.658Z" fill="#2F9EC2"/>
</g>
</g>
</g>
</g>
<defs>
<radialGradient id="paint0_radial_938_25792" cx="0" cy="0" r="1" gradientUnits="userSpaceOnUse" gradientTransform="translate(683.013 384.003) scale(475.394 279.461)">
<stop stop-color="#C2EDCB"/>
<stop offset="1" stop-color="#C2EDCB" stop-opacity="0"/>
</radialGradient>
<linearGradient id="paint1_linear_938_25792" x1="659.179" y1="667.264" x2="659.179" y2="114.447" gradientUnits="userSpaceOnUse">
<stop offset="0.05" stop-opacity="0"/>
<stop offset="0.15" stop-color="white"/>
<stop offset="0.85" stop-color="white"/>
<stop offset="0.954265" stop-opacity="0"/>
</linearGradient>
<radialGradient id="paint2_radial_938_25792" cx="0" cy="0" r="1" gradientUnits="userSpaceOnUse" gradientTransform="translate(375.203 165.489) scale(269.876 269.876)">
<stop stop-color="#D2C9F2"/>
<stop offset="0.4573" stop-color="#D0C7F0"/>
<stop offset="0.6221" stop-color="#CAC0EB"/>
<stop offset="0.7395" stop-color="#BFB5E1"/>
<stop offset="0.8344" stop-color="#B0A4D3"/>
<stop offset="0.9157" stop-color="#9C8EC1"/>
<stop offset="0.9865" stop-color="#8473AB"/>
<stop offset="1" stop-color="#7E6DA6"/>
</radialGradient>
<radialGradient id="paint3_radial_938_25792" cx="0" cy="0" r="1" gradientUnits="userSpaceOnUse" gradientTransform="translate(384.203 369.485) scale(323.798 136.611)">
<stop stop-color="#7E6DA6"/>
<stop offset="1" stop-color="#7E6DA6" stop-opacity="0"/>
</radialGradient>
<linearGradient id="paint4_linear_938_25792" x1="381.26" y1="358.001" x2="381.26" y2="286.216" gradientUnits="userSpaceOnUse">
<stop stop-color="white" stop-opacity="0"/>
<stop offset="0.0996" stop-color="#F6F5FD" stop-opacity="0.1159"/>
<stop offset="0.3813" stop-color="#E2DDF7" stop-opacity="0.4435"/>
<stop offset="0.6419" stop-color="#D6CEF3" stop-opacity="0.7467"/>
<stop offset="0.8597" stop-color="#D2C9F2"/>
</linearGradient>
<radialGradient id="paint5_radial_938_25792" cx="0" cy="0" r="1" gradientUnits="userSpaceOnUse" gradientTransform="translate(387.071 654.106) scale(273.929 273.929)">
<stop stop-color="#D2C9F2"/>
<stop offset="0.4571" stop-color="#D0C7F0"/>
<stop offset="0.6217" stop-color="#CAC0EB"/>
<stop offset="0.7391" stop-color="#BFB5E1"/>
<stop offset="0.834" stop-color="#B0A4D3"/>
<stop offset="0.9153" stop-color="#9C8EC1"/>
<stop offset="0.986" stop-color="#8473AB"/>
<stop offset="0.9995" stop-color="#7E6DA6"/>
</radialGradient>
<radialGradient id="paint6_radial_938_25792" cx="0" cy="0" r="1" gradientUnits="userSpaceOnUse" gradientTransform="translate(379.071 434.119) scale(317.967 92.1149)">
<stop stop-color="#7E6DA6"/>
<stop offset="1" stop-color="#7E6DA6" stop-opacity="0"/>
</radialGradient>
<radialGradient id="paint7_radial_938_25792" cx="0" cy="0" r="1" gradientUnits="userSpaceOnUse" gradientTransform="translate(917.84 360.199) scale(303.216 224.198)">
<stop stop-color="#DB8319"/>
<stop offset="0.093" stop-color="#DD8924" stop-opacity="0.907"/>
<stop offset="0.2556" stop-color="#E19841" stop-opacity="0.7444"/>
<stop offset="0.4682" stop-color="#E9B26F" stop-opacity="0.5318"/>
<stop offset="0.7227" stop-color="#F3D5B0" stop-opacity="0.2773"/>
<stop offset="1" stop-color="white" stop-opacity="0"/>
</radialGradient>
<radialGradient id="paint8_radial_938_25792" cx="0" cy="0" r="1" gradientUnits="userSpaceOnUse" gradientTransform="translate(926.84 232.197) scale(271.169 200.503)">
<stop stop-color="white" stop-opacity="0"/>
<stop offset="0.0892" stop-color="#FDF9F3" stop-opacity="0.0945"/>
<stop offset="0.2491" stop-color="#F8E8D4" stop-opacity="0.2636"/>
<stop offset="0.461" stop-color="#F0CDA2" stop-opacity="0.488"/>
<stop offset="0.7137" stop-color="#E6A85E" stop-opacity="0.7555"/>
<stop offset="0.9447" stop-color="#DB8319"/>
</radialGradient>
<radialGradient id="paint9_radial_938_25792" cx="0" cy="0" r="1" gradientTransform="matrix(262.043 -15.1194 9.00339 155.919 934.615 426.174)" gradientUnits="userSpaceOnUse">
<stop stop-color="#DB8319"/>
<stop offset="0.093" stop-color="#DD8924" stop-opacity="0.907"/>
<stop offset="0.2556" stop-color="#E19841" stop-opacity="0.7444"/>
<stop offset="0.4682" stop-color="#E9B26F" stop-opacity="0.5318"/>
<stop offset="0.7227" stop-color="#F3D5B0" stop-opacity="0.2773"/>
<stop offset="1" stop-color="white" stop-opacity="0"/>
</radialGradient>
<radialGradient id="paint10_radial_938_25792" cx="0" cy="0" r="1" gradientTransform="matrix(287.727 -16.6013 13.7479 238.326 942.597 608.138)" gradientUnits="userSpaceOnUse">
<stop stop-color="white" stop-opacity="0"/>
<stop offset="0.0093" stop-color="#FFFEFC" stop-opacity="0.01"/>
<stop offset="0.3791" stop-color="#F0CA9C" stop-opacity="0.3791"/>
<stop offset="0.6781" stop-color="#E4A456" stop-opacity="0.6781"/>
<stop offset="0.8919" stop-color="#DE8C2A" stop-opacity="0.8919"/>
<stop offset="1" stop-color="#DB8319"/>
</radialGradient>
</defs>
</svg>
