<svg width="44" height="23" viewBox="0 0 44 23" fill="none" xmlns="http://www.w3.org/2000/svg">
<g id="R-ICO-014405">
<g id="PROTEIN">
<path d="M1.49951 1.5H32.4995C38.0224 1.5 42.4995 5.97715 42.4995 11.5C42.4995 17.0228 38.0224 21.5 32.4995 21.5H1.49951V1.5Z" fill="url(#paint0_linear_938_23152)"/>
<path d="M4.14542 0.0073446C13.5968 0.125569 23.0481 0.477173 32.4995 1.35999C32.4995 1.45336 32.4995 1.54672 32.4995 1.64009C23.0481 2.52291 13.5968 2.87451 4.14542 2.99274C3.26346 2.99979 2.38149 3.00144 1.49951 2.99883L2.99835 1.5C2.98699 5.34381 2.89475 9.18774 2.816 13.0315C2.76719 15.8544 2.67611 18.6772 2.55339 21.5L1.49951 20.4461C3.40223 20.5288 5.30496 20.6259 7.2077 20.7341C11.9334 20.9779 16.6595 21.1534 21.3851 21.047C25.0898 20.9663 28.7947 20.6978 32.4995 20.489C33.421 20.4317 34.3189 20.2393 35.1648 19.9264C38.6857 18.6934 41.2807 15.2712 41.3677 11.5C41.3827 11.0451 41.3644 10.5903 41.3122 10.1386C40.8855 5.92624 37.2132 2.09372 32.4995 1.64009C32.4995 1.54672 32.4995 1.45336 32.4995 1.35999C37.3499 0.7213 42.5958 4.54918 43.4555 9.81051C43.5576 10.3667 43.6163 10.9318 43.6312 11.5C43.8454 16.2283 40.4715 20.9194 35.8667 22.1477C34.7659 22.4506 33.623 22.569 32.4995 22.5111C28.7947 22.3027 25.0898 22.035 21.3851 21.9543C16.6595 21.8479 11.9335 22.0221 7.2077 22.2658C5.30498 22.374 3.40224 22.4711 1.49951 22.5539C0.903567 22.5696 0.461415 22.0959 0.445651 21.5C0.322945 18.6772 0.231919 15.8543 0.183111 13.0315C0.104362 9.1878 0.0119357 5.34383 0.00065732 1.5C-0.0217621 0.652416 0.651928 0.0235651 1.49951 0.0011456C2.38149 -0.00144219 3.26346 0.000242233 4.14542 0.0073446Z" fill="#9D4192"/>
<text id="P" fill="white" xml:space="preserve" style="white-space: pre" font-family="Arial" font-size="12" font-weight="bold" letter-spacing="0em"><tspan x="8.646" y="15.6602">F11a</tspan></text>
</g>
</g>
<defs>
<linearGradient id="paint0_linear_938_23152" x1="21.9995" y1="1.5" x2="21.9995" y2="21.5" gradientUnits="userSpaceOnUse">
<stop stop-color="#9D4192"/>
<stop offset="1" stop-color="#305F5B"/>
</linearGradient>
</defs>
</svg>
