<svg width="67" height="37" viewBox="0 0 67 37" fill="none" xmlns="http://www.w3.org/2000/svg">
<g id="R-ICO-013449">
<g id="TOMM40 complex">
<path d="M1.21472 11.4873C1.21472 5.96446 5.69187 1.4873 11.2147 1.4873H55.2147C60.7376 1.4873 65.2147 5.96446 65.2147 11.4873V25.4873C65.2147 31.0102 60.7376 35.4873 55.2147 35.4873H11.2147C5.69187 35.4873 1.21472 31.0102 1.21472 25.4873V11.4873Z" fill="url(#paint0_linear_938_23646)"/>
<path d="M55.8189 3.00102C55.617 2.98504 55.4181 2.97619 55.2147 2.97416C40.548 2.85046 25.8814 2.49615 11.2147 1.62731C11.2147 1.53395 11.2147 1.44058 11.2147 1.34722C25.8814 0.47838 40.548 0.124064 55.2147 0.000361443C55.4873 -0.00158477 55.7549 0.00576723 56.0273 0.02291C61.8674 0.283525 66.8243 5.69816 66.6271 11.4873C66.5971 13.9388 66.5631 16.3903 66.5312 18.8418C66.5069 21.0569 66.4722 23.2721 66.4282 25.4873C66.4636 31.4797 60.9418 36.6011 55.2154 36.2532C55.2152 36.2532 55.215 36.2532 55.2147 36.2531C47.7635 36.0094 40.3116 35.834 32.8606 35.9403C25.6455 36.04 18.4298 36.4262 11.2147 36.6325C10.9498 36.6392 10.6896 36.6367 10.4243 36.6245C4.74373 36.4661 -0.194189 31.1796 0.00590158 25.4873C0.0359097 23.036 0.0796529 20.5848 0.13051 18.1335C0.176807 15.9181 0.234605 13.7027 0.30618 11.4873C0.337151 5.6471 5.82136 0.825258 11.2147 1.34722C11.2147 1.44058 11.2147 1.53395 11.2147 1.62731C5.95512 1.89015 1.83307 6.67407 2.12312 11.4873C2.1947 13.7027 2.25251 15.9181 2.29885 18.1335C2.34971 20.5848 2.39345 23.036 2.42346 25.4873C2.40079 29.9413 6.13713 33.9589 10.5871 34.3007C10.7966 34.3217 11.0032 34.3354 11.2147 34.3422C18.4299 34.5484 25.6455 34.9333 32.8606 35.033C40.3118 35.1394 47.7634 34.9653 55.2147 34.7215C55.2149 34.7215 55.2151 34.7215 55.2153 34.7215C60.1418 34.6318 64.2249 30.1477 64.0013 25.4873C63.9574 23.2721 63.9226 21.0569 63.8983 18.8418C63.8665 16.3903 63.8324 13.9388 63.8023 11.4873C63.8279 7.1296 60.1096 3.24008 55.8189 3.00102Z" fill="#092754"/>
<text id="TOMM40 complex_2" fill="white" xml:space="preserve" style="white-space: pre" font-family="Arial" font-size="12" font-weight="bold" letter-spacing="0em"><tspan x="8.31238" y="15.6475">TOMM40&#10;</tspan><tspan x="8.85144" y="29.6475">complex</tspan></text>
</g>
</g>
<defs>
<linearGradient id="paint0_linear_938_23646" x1="33.2147" y1="1.4873" x2="33.2147" y2="35.4873" gradientUnits="userSpaceOnUse">
<stop stop-color="#092754"/>
<stop offset="1" stop-color="#A3C8FF"/>
</linearGradient>
</defs>
</svg>
