<svg width="127" height="104" viewBox="0 0 127 104" fill="none" xmlns="http://www.w3.org/2000/svg">
<g id="R-ICO-013591">
<g id="BG">
<path id="CYTOPLASM" d="M113.132 16.2996C86.1325 -14.7004 28.1325 8.29961 13.1525 23.0196C-1.12751 37.0496 -2.60751 70.0496 8.62249 86.5696C26.3025 110.32 52.8325 103.31 78.4025 93.6096C116.132 79.2996 140.132 47.2996 113.132 16.2996Z" fill="url(#paint0_radial_938_72668)"/>
<path id="MEMBRANE" d="M126.099 42.1382C125.909 37.5014 124.636 32.9512 122.61 28.8629C121.637 26.8927 120.492 25.0261 119.207 23.2736C117.653 20.7466 115.827 18.2523 113.698 15.8077C112.626 14.577 111.497 13.419 110.313 12.3321C108.993 10.9047 107.552 9.57855 105.992 8.39575L104.685 7.40485C104.246 7.07865 103.766 6.81645 103.307 6.51895L101.914 5.65135L100.467 4.87765C99.5115 4.33775 98.5026 3.91465 97.4928 3.49475C96.4948 3.04145 95.46 2.69185 94.4287 2.33005C90.2809 0.946849 85.9453 0.232949 81.6296 0.0458495C79.5629 -0.0428505 77.4972 -0.00185053 75.4457 0.160149C69.6541 0.125449 63.7741 0.75905 58.0288 1.86935C54.9521 2.29685 51.8935 2.89375 48.8749 3.63705C45.5902 4.39045 42.3916 5.45765 39.2 6.54035C36.0358 7.70065 32.915 8.98695 29.8655 10.4384C23.8183 13.4163 17.8856 16.8154 12.9273 21.6434C10.431 24.0586 8.51235 26.9812 7.01195 30.0185C7.00225 30.0388 6.99445 30.0598 6.98475 30.0801C3.86845 35.7203 1.83205 42.593 0.930648 49.7808C0.429548 52.673 0.125848 55.6047 0.0300479 58.5519C-0.0876521 61.8114 0.152148 65.0771 0.544648 68.3277C0.978048 71.5762 1.76105 74.7823 2.78245 77.9206C3.86325 81.048 5.23305 84.0678 7.14565 86.8809C8.09915 88.2732 9.21575 89.5042 10.313 90.7229C11.4451 91.9209 12.619 93.0831 13.9066 94.1182C16.4578 96.2779 19.332 98.0499 22.3794 99.358C28.1003 102.199 34.2561 103.365 40.6342 103.365C41.6853 103.365 42.7442 103.323 43.8062 103.263C47.7223 103.204 51.6312 102.758 55.4722 102.023C63.3662 100.538 70.9742 97.9823 78.4191 95.2041C82.1553 93.7663 85.8477 92.1593 89.4122 90.3131C92.9589 88.4328 96.4322 86.397 99.69 84.0455C102.678 81.9209 105.529 79.5709 108.16 77.0113C113.517 72.2377 117.772 67.0167 120.712 61.5341C121.898 59.6922 122.92 57.7316 123.745 55.6754C124.604 53.5513 125.233 51.3262 125.647 49.054C125.826 47.9128 126.027 46.7701 126.049 45.6102L126.138 43.8747C126.175 43.296 126.109 42.7174 126.099 42.1382ZM108.198 74.9642C105.091 77.5724 101.801 79.9423 98.3864 82.1012C95.0632 84.1605 91.6622 86.0925 88.1345 87.7762C84.6251 89.4979 81.035 91.0364 77.3604 92.3991C73.6796 93.8205 69.9769 95.1616 66.251 96.4051C62.5344 97.6803 58.769 98.7761 54.9762 99.744C51.4667 100.606 47.9026 101.294 44.3043 101.705C36.5476 102.208 29.0677 101.168 22.277 97.5959C19.8125 96.1006 17.5218 94.3599 15.4659 92.3718C13.2683 90.202 11.1408 87.8353 9.49655 85.286C9.12735 84.6222 8.69975 84.0062 8.34365 83.3285L7.30255 81.2708L6.40495 79.136C6.09675 78.4287 5.88815 77.6766 5.61985 76.9511C3.58495 71.0842 2.66855 64.8186 2.36235 58.5378C2.28805 56.0346 2.28915 53.5199 2.41675 51.0032C3.25955 43.2496 5.42355 35.8274 8.81315 29.9729C10.4521 27.51 12.3247 25.2509 14.5282 23.3517C16.9814 21.2856 19.6547 19.3986 22.4869 17.761C25.3036 16.1015 28.1757 14.5108 31.1632 13.1412C37.0663 10.2566 43.2323 7.90175 49.5079 5.88155C52.6504 4.88445 55.8272 3.99145 59.0414 3.20325C64.3139 2.22705 69.6922 1.65815 75.0008 1.65815C75.1083 1.65815 75.215 1.66375 75.3225 1.66425C77.3691 1.85415 79.399 2.08005 81.4122 2.37665C85.5381 2.98345 89.5825 3.89275 93.4879 5.17665C94.4649 5.49585 95.4481 5.80175 96.3914 6.20775L97.8227 6.77835L99.221 7.42095L100.627 8.05545L101.985 8.78265C102.903 9.25065 103.785 9.77885 104.667 10.3151C106.438 11.3895 108.126 12.5935 109.769 13.8916C110.739 14.8104 111.678 15.7707 112.567 16.792C114.602 19.1287 116.351 21.5103 117.843 23.9212C118.823 25.8499 119.712 27.8005 120.463 29.7955C121.988 33.833 122.91 38.0341 123.104 42.2701C123.328 46.5075 122.73 50.7679 121.543 54.9073C120.958 56.9237 120.221 58.9044 119.375 60.861C116.711 65.8253 112.93 70.5754 108.198 74.9642Z" fill="#806CDD"/>
</g>
<g id="LYSOSOMES">
<g id="R-ICO-012966">
<path id="Lysosome" d="M82.7818 33.3897C84.0134 33.3897 85.0118 32.3913 85.0118 31.1597C85.0118 29.9281 84.0134 28.9297 82.7818 28.9297C81.5502 28.9297 80.5518 29.9281 80.5518 31.1597C80.5518 32.3913 81.5502 33.3897 82.7818 33.3897Z" fill="url(#paint1_radial_938_72668)"/>
</g>
<g id="R-ICO-012966_2">
<path id="Lysosome_2" d="M100.972 30.0597C102.033 30.0597 102.892 29.2001 102.892 28.1397C102.892 27.0793 102.033 26.2197 100.972 26.2197C99.9121 26.2197 99.0525 27.0793 99.0525 28.1397C99.0525 29.2001 99.9121 30.0597 100.972 30.0597Z" fill="url(#paint2_radial_938_72668)"/>
</g>
<g id="R-ICO-012966_3">
<path id="Lysosome_3" d="M97.3623 41.5098C98.4558 41.5098 99.3423 40.6233 99.3423 39.5298C99.3423 38.4363 98.4558 37.5498 97.3623 37.5498C96.2688 37.5498 95.3823 38.4363 95.3823 39.5298C95.3823 40.6233 96.2688 41.5098 97.3623 41.5098Z" fill="url(#paint3_radial_938_72668)"/>
</g>
</g>
<g id="R-ICO-013020" opacity="0.8">
<path id="Vector" d="M23.9938 53.7909C21.4119 54.156 19.0328 58.4298 18.2662 62.1785C17.1289 67.8144 23.907 77.3103 30.6931 81.9798C34.8105 84.8175 37.4169 84.5802 38.8519 83.8751C39.2619 83.6737 39.6469 83.3954 39.9812 83.0658C40.9326 82.1275 41.5044 80.7014 41.6182 79.0167C41.7902 76.3109 40.5893 72.7273 37.6145 70.8424C32.7325 67.7951 31.1741 64.209 29.3131 60.059C28.7598 58.8293 28.2069 57.5486 27.5265 56.2415C26.3167 53.9347 24.9399 53.6187 23.9938 53.7909Z" fill="url(#paint4_linear_938_72668)"/>
<path id="Vector_2" d="M27.7867 59.2312C27.1727 59.3801 25.3735 61.0531 24.3967 61.9657C22.5975 63.6387 22.0064 64.1708 21.4196 64.0901C21.2157 64.0377 21.0378 63.9087 20.9367 63.7548C20.5588 63.0116 21.4584 62.1751 23.6941 60.1732C24.7734 59.2102 26.5208 57.639 26.7033 57.104C26.6276 56.9758 26.5519 56.8476 26.5272 56.7197C25.7961 55.3612 25.0089 54.7173 24.1142 54.8387C22.2992 55.107 20.0275 58.6154 19.312 62.3645C19.021 63.8181 19.3653 65.7103 20.2697 67.8617C20.859 67.5849 22.2979 66.318 23.2747 65.4054C25.485 63.3778 26.5379 62.5424 27.3032 62.6498C27.5329 62.677 27.7618 62.8063 27.8879 63.037C28.418 63.9345 27.2112 64.871 25.4137 66.2886C23.6934 67.6301 21.0488 69.6803 21.7817 70.7835C23.0186 72.8606 24.613 74.9402 26.4132 76.817C26.9503 76.693 28.4678 75.1458 29.3681 74.2071C31.4256 72.1274 32.9173 70.6055 33.882 71.4294C34.0852 71.584 34.1602 71.8144 34.1585 72.0697C34.1535 72.7848 33.3567 73.5198 31.8403 74.9138C31.3778 75.3192 30.8382 75.8007 30.3497 76.2825C29.424 77.1954 28.6515 78.1094 28.6726 78.748C28.6972 78.8759 28.7215 79.0548 28.9501 79.2351C29.7627 79.9048 30.5245 80.523 31.287 81.039C34.4894 83.2575 37.1927 83.787 38.8612 82.5473C40.4783 81.3582 40.9825 78.6292 40.1331 75.9163C40.1334 75.8653 40.0824 75.8649 40.0824 75.8649C39.5973 75.836 37.9238 77.7908 37.1256 78.7301C35.6325 80.4563 34.8086 81.421 34.0971 80.9053C33.8939 80.7507 33.7678 80.5199 33.7438 80.2899C33.6474 79.4721 34.5484 78.4313 36.1441 76.6547C37.0191 75.6904 38.7951 73.6853 38.6454 73.1735C38.1897 72.6085 37.6311 72.1449 37.021 71.7321C35.2666 70.6218 33.8194 69.4115 32.5782 67.9472C32.5022 67.8701 32.4514 67.8186 32.3493 67.8179C31.5068 67.7865 29.6815 69.536 28.4729 70.7278C26.9815 72.1986 26.159 72.9591 25.4955 72.9034C25.2658 72.8762 25.0622 72.7727 24.9104 72.5673C24.1768 71.5663 25.6414 70.274 27.646 68.4492C28.5199 67.6381 30.8327 65.5601 30.5806 65.0987C29.7226 63.6115 29.0436 62.1001 28.3142 60.4862C28.1385 60.0508 27.9624 59.6665 27.7867 59.2312Z" fill="#AD342D"/>
</g>
<g id="R-ICO-013121">
<g id="Nucleus">
<mask id="path-8-inside-1_938_72668" fill="white">
<path d="M59.1881 59.8902C68.6957 59.8902 76.4031 52.1828 76.4031 42.6752C76.4031 33.1676 68.6957 25.4602 59.1881 25.4602C49.6806 25.4602 41.9731 33.1676 41.9731 42.6752C41.9731 52.1828 49.6806 59.8902 59.1881 59.8902Z"/>
</mask>
<path d="M59.1881 59.8902C68.6957 59.8902 76.4031 52.1828 76.4031 42.6752C76.4031 33.1676 68.6957 25.4602 59.1881 25.4602C49.6806 25.4602 41.9731 33.1676 41.9731 42.6752C41.9731 52.1828 49.6806 59.8902 59.1881 59.8902Z" fill="url(#paint5_radial_938_72668)" stroke="#5656A5" stroke-width="2.58225" mask="url(#path-8-inside-1_938_72668)"/>
</g>
<g id="R-ICO-013619">
<g id="Nucleolus">
<mask id="path-9-inside-2_938_72668" fill="white">
<path d="M51.0929 53.1676C52.7568 53.1676 54.1056 51.8188 54.1056 50.155C54.1056 48.4911 52.7568 47.1423 51.0929 47.1423C49.4291 47.1423 48.0803 48.4911 48.0803 50.155C48.0803 51.8188 49.4291 53.1676 51.0929 53.1676Z"/>
</mask>
<path d="M51.0929 53.1676C52.7568 53.1676 54.1056 51.8188 54.1056 50.155C54.1056 48.4911 52.7568 47.1423 51.0929 47.1423C49.4291 47.1423 48.0803 48.4911 48.0803 50.155C48.0803 51.8188 49.4291 53.1676 51.0929 53.1676Z" fill="url(#paint6_radial_938_72668)" stroke="#4B4C96" stroke-width="0.602525" mask="url(#path-9-inside-2_938_72668)"/>
</g>
</g>
</g>
</g>
<defs>
<radialGradient id="paint0_radial_938_72668" cx="0" cy="0" r="1" gradientUnits="userSpaceOnUse" gradientTransform="translate(62.9292 51.7708) rotate(90) scale(50.8626 61.7407)">
<stop stop-color="white"/>
<stop offset="0.7" stop-color="#D7AEDD"/>
<stop offset="1" stop-color="#B6AEDD"/>
</radialGradient>
<radialGradient id="paint1_radial_938_72668" cx="0" cy="0" r="1" gradientUnits="userSpaceOnUse" gradientTransform="translate(82.4868 30.5204) scale(2.24908)">
<stop stop-color="#D8BA5D"/>
<stop offset="1" stop-color="#1DA075"/>
</radialGradient>
<radialGradient id="paint2_radial_938_72668" cx="0" cy="0" r="1" gradientUnits="userSpaceOnUse" gradientTransform="translate(100.719 27.5893) scale(1.93642)">
<stop stop-color="#D8BA5D"/>
<stop offset="1" stop-color="#1DA075"/>
</radialGradient>
<radialGradient id="paint3_radial_938_72668" cx="0" cy="0" r="1" gradientUnits="userSpaceOnUse" gradientTransform="translate(97.1004 38.9622) scale(1.99694)">
<stop stop-color="#D8BA5D"/>
<stop offset="1" stop-color="#1DA075"/>
</radialGradient>
<linearGradient id="paint4_linear_938_72668" x1="33.5319" y1="65.0801" x2="22.7372" y2="80.9761" gradientUnits="userSpaceOnUse">
<stop stop-color="#D86E66"/>
<stop offset="1" stop-color="#A33029"/>
</linearGradient>
<radialGradient id="paint5_radial_938_72668" cx="0" cy="0" r="1" gradientUnits="userSpaceOnUse" gradientTransform="translate(54.7119 35.5071) scale(22.6258)">
<stop stop-color="#AFBAF7"/>
<stop offset="0.3111" stop-color="#6D96CE"/>
<stop offset="0.8032" stop-color="#285FCC"/>
</radialGradient>
<radialGradient id="paint6_radial_938_72668" cx="0" cy="0" r="1" gradientUnits="userSpaceOnUse" gradientTransform="translate(51.0951 50.1627) rotate(-15.5149) scale(3.73901)">
<stop stop-color="#B0B7DC"/>
<stop offset="0.3" stop-color="#B697C6"/>
<stop offset="0.8032" stop-color="#525281"/>
</radialGradient>
</defs>
</svg>
