<svg width="52" height="23" viewBox="0 0 52 23" fill="none" xmlns="http://www.w3.org/2000/svg">
<g id="R-ICO-014827">
<g id="PROTEIN">
<path d="M1.11475 11.478C1.11475 5.95518 5.5919 1.47803 11.1147 1.47803H40.1147C45.6376 1.47803 50.1147 5.95518 50.1147 11.478C50.1147 17.0009 45.6376 21.478 40.1147 21.478H11.1147C5.5919 21.478 1.11475 17.0009 1.11475 11.478Z" fill="url(#paint0_linear_938_24202)"/>
<path d="M41.1427 3.03201C40.8025 2.98637 40.4607 2.96088 40.1147 2.95536C30.4481 2.82348 20.7814 2.46554 11.1147 1.61803C11.1147 1.52467 11.1147 1.4313 11.1147 1.33794C20.7814 0.490431 30.4481 0.132492 40.1147 0.00061512C40.5777 -0.00484776 41.0383 0.017364 41.4991 0.067959C47.1281 0.603186 51.6666 5.94117 51.4429 11.478C51.439 11.7074 51.4284 11.9331 51.4109 12.1609C51.1057 17.9658 45.6092 22.6649 40.1152 22.2439C40.1151 22.2439 40.1149 22.2439 40.1147 22.2439C35.0801 22.0002 30.0451 21.8247 25.0106 21.931C20.3788 22.0257 15.7466 22.3791 11.1147 22.591C10.6661 22.6094 10.2182 22.6003 9.76908 22.5625C4.27883 22.1782 -0.270908 16.9132 0.0123166 11.478C0.018297 11.2533 0.0309525 11.0323 0.0503982 10.8095C0.414885 5.12109 5.93132 0.6698 11.1147 1.33794C11.1147 1.4313 11.1147 1.52467 11.1147 1.61803C6.07734 2.05842 2.24292 6.41488 2.2149 10.9385C2.21037 11.1187 2.21115 11.2971 2.21709 11.478C2.30113 15.8348 5.80048 19.6431 10.0472 20.2496C10.3993 20.308 10.7542 20.3467 11.1147 20.3651C15.7466 20.5769 20.3787 20.929 25.0106 21.0238C30.0451 21.1301 35.0801 20.956 40.1147 20.7123C40.1149 20.7123 40.115 20.7123 40.1151 20.7122C44.8417 20.5183 48.6947 16.4106 48.7827 12.0042C48.7893 11.8286 48.7905 11.6546 48.7866 11.478C48.7622 7.22272 45.2507 3.48728 41.1427 3.03201Z" fill="#9B5D00"/>
<text id="P" fill="white" xml:space="preserve" style="white-space: pre" font-family="Arial" font-size="12" font-weight="bold" letter-spacing="0em"><tspan x="8.271" y="15.6382">NAGS</tspan></text>
</g>
</g>
<defs>
<linearGradient id="paint0_linear_938_24202" x1="25.6147" y1="1.47803" x2="25.6147" y2="21.478" gradientUnits="userSpaceOnUse">
<stop stop-color="#9B5D00"/>
<stop offset="1" stop-color="#83CAF9"/>
</linearGradient>
</defs>
</svg>
