<svg width="37" height="108" viewBox="0 0 37 108" fill="none" xmlns="http://www.w3.org/2000/svg">
<g id="R-ICO-012951">
<g id="Group">
<path id="Vector" d="M7.42714 107.663C5.46924 107.663 3.88184 106.076 3.88184 104.118V47.3757C3.88184 45.4178 5.46924 43.8304 7.42714 43.8304C9.38504 43.8304 10.9724 45.4178 10.9724 47.3757V104.118C10.9725 106.076 9.38504 107.663 7.42714 107.663Z" fill="url(#paint0_linear_938_23063)"/>
<g id="Mask group">
<mask id="mask0_938_23063" style="mask-type:alpha" maskUnits="userSpaceOnUse" x="3" y="101" width="8" height="7">
<path id="MASK" d="M10.9724 101.269V104.118C10.9724 106.076 9.38504 107.663 7.42714 107.663C5.46924 107.663 3.88184 106.076 3.88184 104.118V101.269" fill="url(#paint1_linear_938_23063)"/>
</mask>
<g mask="url(#mask0_938_23063)">
<path id="Vector_2" d="M10.9724 101.269V104.118C10.9724 106.076 9.38504 107.663 7.42714 107.663C5.46924 107.663 3.88184 106.076 3.88184 104.118V101.269" fill="url(#paint2_radial_938_23063)"/>
</g>
</g>
<path id="Vector_3" d="M7.4269 49.9091C11.5287 49.9091 14.8538 40.3239 14.8538 28.4999C14.8538 16.6759 11.5287 7.0907 7.4269 7.0907C3.32514 7.0907 0 16.6759 0 28.4999C0 40.3239 3.32514 49.9091 7.4269 49.9091Z" fill="url(#paint3_radial_938_23063)"/>
<path id="Vector_4" d="M7.42714 7.0906C9.38515 7.0906 10.9724 5.50331 10.9724 3.5453C10.9724 1.58728 9.38515 0 7.42714 0C5.46912 0 3.88184 1.58728 3.88184 3.5453C3.88184 5.50331 5.46912 7.0906 7.42714 7.0906Z" fill="url(#paint4_radial_938_23063)"/>
</g>
<g id="Group_2">
<path id="Vector_5" d="M28.7006 107.663C26.7427 107.663 25.1553 106.076 25.1553 104.118V47.3757C25.1553 45.4178 26.7427 43.8304 28.7006 43.8304C30.6585 43.8304 32.2459 45.4178 32.2459 47.3757V104.118C32.246 106.076 30.6585 107.663 28.7006 107.663Z" fill="url(#paint5_linear_938_23063)"/>
<g id="Mask group_2">
<mask id="mask1_938_23063" style="mask-type:alpha" maskUnits="userSpaceOnUse" x="25" y="101" width="8" height="7">
<path id="MASK_2" d="M32.2459 101.269V104.118C32.2459 106.076 30.6585 107.663 28.7006 107.663C26.7427 107.663 25.1553 106.076 25.1553 104.118V101.269" fill="url(#paint6_linear_938_23063)"/>
</mask>
<g mask="url(#mask1_938_23063)">
<path id="Vector_6" d="M32.2459 101.269V104.118C32.2459 106.076 30.6585 107.663 28.7006 107.663C26.7427 107.663 25.1553 106.076 25.1553 104.118V101.269" fill="url(#paint7_radial_938_23063)"/>
</g>
</g>
<path id="Vector_7" d="M28.7003 49.9091C32.8021 49.9091 36.1272 40.3239 36.1272 28.4999C36.1272 16.6759 32.8021 7.0907 28.7003 7.0907C24.5986 7.0907 21.2734 16.6759 21.2734 28.4999C21.2734 40.3239 24.5986 49.9091 28.7003 49.9091Z" fill="url(#paint8_radial_938_23063)"/>
<path id="Vector_8" d="M28.7006 7.0906C30.6586 7.0906 32.2459 5.50331 32.2459 3.5453C32.2459 1.58728 30.6586 0 28.7006 0C26.7426 0 25.1553 1.58728 25.1553 3.5453C25.1553 5.50331 26.7426 7.0906 28.7006 7.0906Z" fill="url(#paint9_radial_938_23063)"/>
</g>
</g>
<defs>
<linearGradient id="paint0_linear_938_23063" x1="3.88184" y1="75.7468" x2="10.9724" y2="75.7468" gradientUnits="userSpaceOnUse">
<stop stop-color="#20459C"/>
<stop offset="0.0343" stop-color="#31539E"/>
<stop offset="0.1022" stop-color="#5D78A2"/>
<stop offset="0.1974" stop-color="#A4B3A8"/>
<stop offset="0.3074" stop-color="#FFFFB1"/>
<stop offset="0.3662" stop-color="#D9DFAD"/>
<stop offset="0.4552" stop-color="#A5B4A9"/>
<stop offset="0.5459" stop-color="#798FA4"/>
<stop offset="0.6365" stop-color="#5571A1"/>
<stop offset="0.7272" stop-color="#39599E"/>
<stop offset="0.8179" stop-color="#25489C"/>
<stop offset="0.9087" stop-color="#193E9B"/>
<stop offset="1" stop-color="#153B9B"/>
</linearGradient>
<linearGradient id="paint1_linear_938_23063" x1="7.42714" y1="107.663" x2="7.42714" y2="101.269" gradientUnits="userSpaceOnUse">
<stop offset="0.5" stop-color="white"/>
<stop offset="1" stop-opacity="0"/>
</linearGradient>
<radialGradient id="paint2_radial_938_23063" cx="0" cy="0" r="1" gradientUnits="userSpaceOnUse" gradientTransform="translate(6.20894 101.774) scale(4.5943 7.36972)">
<stop stop-color="#FFFFB1"/>
<stop offset="0.0849" stop-color="#D9DFAD"/>
<stop offset="0.2134" stop-color="#A5B4A9"/>
<stop offset="0.3444" stop-color="#798FA4"/>
<stop offset="0.4752" stop-color="#5571A1"/>
<stop offset="0.6061" stop-color="#39599E"/>
<stop offset="0.7371" stop-color="#25489C"/>
<stop offset="0.8682" stop-color="#193E9B"/>
<stop offset="1" stop-color="#153B9B"/>
</radialGradient>
<radialGradient id="paint3_radial_938_23063" cx="0" cy="0" r="1" gradientUnits="userSpaceOnUse" gradientTransform="translate(5.9202 21.4652) scale(5.5084 12.0359)">
<stop stop-color="#FFFFB1"/>
<stop offset="0.0241" stop-color="#F7F8B0"/>
<stop offset="0.2319" stop-color="#B3BFAA"/>
<stop offset="0.4289" stop-color="#7B90A5"/>
<stop offset="0.6096" stop-color="#4F6BA0"/>
<stop offset="0.7707" stop-color="#2F519D"/>
<stop offset="0.9063" stop-color="#1C419C"/>
<stop offset="1" stop-color="#153B9B"/>
</radialGradient>
<radialGradient id="paint4_radial_938_23063" cx="0" cy="0" r="1" gradientUnits="userSpaceOnUse" gradientTransform="translate(6.51684 2.565) scale(3.5453)">
<stop stop-color="#FFFFB1"/>
<stop offset="1" stop-color="#153B9B"/>
</radialGradient>
<linearGradient id="paint5_linear_938_23063" x1="25.1551" y1="75.7468" x2="32.2459" y2="75.7468" gradientUnits="userSpaceOnUse">
<stop stop-color="#20459C"/>
<stop offset="0.0343" stop-color="#31539E"/>
<stop offset="0.1022" stop-color="#5D78A2"/>
<stop offset="0.1974" stop-color="#A4B3A8"/>
<stop offset="0.3074" stop-color="#FFFFB1"/>
<stop offset="0.3662" stop-color="#D9DFAD"/>
<stop offset="0.4552" stop-color="#A5B4A9"/>
<stop offset="0.5459" stop-color="#798FA4"/>
<stop offset="0.6365" stop-color="#5571A1"/>
<stop offset="0.7272" stop-color="#39599E"/>
<stop offset="0.8179" stop-color="#25489C"/>
<stop offset="0.9087" stop-color="#193E9B"/>
<stop offset="1" stop-color="#153B9B"/>
</linearGradient>
<linearGradient id="paint6_linear_938_23063" x1="28.7006" y1="107.663" x2="28.7006" y2="101.269" gradientUnits="userSpaceOnUse">
<stop offset="0.5" stop-color="white"/>
<stop offset="1" stop-opacity="0"/>
</linearGradient>
<radialGradient id="paint7_radial_938_23063" cx="0" cy="0" r="1" gradientUnits="userSpaceOnUse" gradientTransform="translate(27.4824 101.774) scale(4.5943 7.36972)">
<stop stop-color="#FFFFB1"/>
<stop offset="0.0849" stop-color="#D9DFAD"/>
<stop offset="0.2134" stop-color="#A5B4A9"/>
<stop offset="0.3444" stop-color="#798FA4"/>
<stop offset="0.4752" stop-color="#5571A1"/>
<stop offset="0.6061" stop-color="#39599E"/>
<stop offset="0.7371" stop-color="#25489C"/>
<stop offset="0.8682" stop-color="#193E9B"/>
<stop offset="1" stop-color="#153B9B"/>
</radialGradient>
<radialGradient id="paint8_radial_938_23063" cx="0" cy="0" r="1" gradientUnits="userSpaceOnUse" gradientTransform="translate(27.1934 21.4652) scale(5.5084 12.0359)">
<stop stop-color="#FFFFB1"/>
<stop offset="0.0241" stop-color="#F7F8B0"/>
<stop offset="0.2319" stop-color="#B3BFAA"/>
<stop offset="0.4289" stop-color="#7B90A5"/>
<stop offset="0.6096" stop-color="#4F6BA0"/>
<stop offset="0.7707" stop-color="#2F519D"/>
<stop offset="0.9063" stop-color="#1C419C"/>
<stop offset="1" stop-color="#153B9B"/>
</radialGradient>
<radialGradient id="paint9_radial_938_23063" cx="0" cy="0" r="1" gradientUnits="userSpaceOnUse" gradientTransform="translate(27.7904 2.565) scale(3.5453)">
<stop stop-color="#FFFFB1"/>
<stop offset="1" stop-color="#153B9B"/>
</radialGradient>
</defs>
</svg>
