<svg width="59" height="23" viewBox="0 0 59 23" fill="none" xmlns="http://www.w3.org/2000/svg">
<g id="R-ICO-012748">
<g id="GALNT">
<path d="M1.05487 11.502C1.05487 5.97911 5.53202 1.50195 11.0549 1.50195H47.0549C52.5777 1.50195 57.0549 5.97911 57.0549 11.502C57.0549 17.0248 52.5777 21.502 47.0549 21.502H11.0549C5.53202 21.502 1.05487 17.0248 1.05487 11.502Z" fill="url(#paint0_linear_938_23341)"/>
<path d="M44.7632 2.99461C33.5271 2.87638 22.291 2.52478 11.0549 1.64196C11.0549 1.54859 11.0549 1.45523 11.0549 1.36186C22.291 0.479043 33.5271 0.127439 44.7632 0.00921416C45.5271 0.00407791 46.291 0.00180697 47.0549 0.0019604C52.7291 -0.110407 57.8676 4.66303 58.2982 10.2093C58.3416 10.6393 58.3597 11.0698 58.3531 11.502C58.4064 17.5481 52.7817 22.6878 47.0554 22.2678C47.0552 22.2678 47.055 22.2678 47.0549 22.2678C41.437 22.0241 35.8185 21.8486 30.2007 21.9549C24.5826 22.0579 18.9641 22.4664 13.346 22.6668C12.5823 22.6889 11.8186 22.7064 11.0549 22.7197C5.51427 22.9276 0.402549 18.2139 0.0423661 12.7688C0.00498533 12.3469 -0.00754261 11.925 0.0042572 11.502C0.0169364 5.57869 5.65499 0.710332 11.0549 1.36186C11.0549 1.45523 11.0549 1.54859 11.0549 1.64196C5.80176 2.03432 1.83348 6.77194 2.10538 11.502C2.11722 11.8461 2.1477 12.186 2.19677 12.5234C2.76808 16.8666 6.7592 20.2783 11.0549 20.2843C11.8186 20.2976 12.5823 20.3151 13.346 20.3372C18.9641 20.5376 24.5826 20.9447 30.2007 21.0477C35.8186 21.154 41.4369 20.9799 47.0549 20.7362C47.055 20.7362 47.0552 20.7362 47.0553 20.7362C51.9819 20.5746 55.9624 16.1087 55.7568 11.502C55.7501 11.1672 55.7253 10.8362 55.6822 10.5072C55.1819 6.265 51.2171 2.91244 47.0549 3.00195C46.291 3.00208 45.5271 2.99978 44.7632 2.99461Z" fill="#002744"/>
<text id="GALNT_2" fill="white" xml:space="preserve" style="white-space: pre" font-family="Arial" font-size="12" font-weight="bold" letter-spacing="0em"><tspan x="8.37714" y="15.6621">GALNT</tspan></text>
</g>
</g>
<defs>
<linearGradient id="paint0_linear_938_23341" x1="29.0549" y1="1.50195" x2="29.0549" y2="21.502" gradientUnits="userSpaceOnUse">
<stop stop-color="#002744"/>
<stop offset="1" stop-color="#FFFF71"/>
</linearGradient>
</defs>
</svg>
