<svg width="24" height="158" viewBox="0 0 24 158" fill="none" xmlns="http://www.w3.org/2000/svg">
<g id="R-ICO-012677">
<path id="Vector" d="M23.3762 4.58841C23.3762 -8.11949 20.2323 9.66791 11.6881 9.66791C3.1439 9.66791 0 -8.11949 0 4.55961C0 9.34141 2.8526 13.4461 6.9577 15.2645C8.0399 15.7439 8.7664 16.7819 8.7664 17.9656V154.09C8.7664 155.616 9.8824 156.979 11.4017 157.124C13.1446 157.29 14.6104 155.924 14.6104 154.215V17.9654C14.6104 16.7816 15.337 15.7437 16.4193 15.2642C20.5156 13.4494 23.3762 9.35761 23.3762 4.58841Z" fill="url(#paint0_linear_938_23018)"/>
<path id="Vector_2" d="M8.7663 17.9656C8.7663 16.7819 8.0399 15.7439 6.9576 15.2645C2.8526 13.4461 0 9.34139 0 4.55959C0 -8.11951 3.1439 9.66799 11.6881 9.66799C20.2323 9.66799 23.3762 -8.11951 23.3762 4.58839C23.3762 9.35759 20.5156 13.4493 16.4192 15.2642C15.3369 15.7437 14.6103 16.7817 14.6103 17.9654V19.6945H8.7663V17.9656Z" fill="url(#paint1_linear_938_23018)"/>
<path id="Vector_3" d="M18.6459 31.5285H4.73007C3.73557 31.5285 2.92188 30.7148 2.92188 29.7203V24.5707C2.92188 23.5762 3.73557 22.7625 4.73007 22.7625H18.6459C19.6404 22.7625 20.4541 23.5762 20.4541 24.5707V29.7203C20.4541 30.7148 19.6404 31.5285 18.6459 31.5285Z" fill="url(#paint2_linear_938_23018)"/>
<path id="Vector_4" d="M18.6459 43.2443H4.73007C3.73557 43.2443 2.92188 42.4306 2.92188 41.4361V36.2865C2.92188 35.292 3.73557 34.4783 4.73007 34.4783H18.6459C19.6404 34.4783 20.4541 35.292 20.4541 36.2865V41.4361C20.4541 42.4306 19.6404 43.2443 18.6459 43.2443Z" fill="url(#paint3_linear_938_23018)"/>
</g>
<defs>
<linearGradient id="paint0_linear_938_23018" x1="8.7679" y1="78.5686" x2="14.8208" y2="78.5686" gradientUnits="userSpaceOnUse">
<stop stop-color="#22002A"/>
<stop offset="0.3833" stop-color="#B00F3F"/>
<stop offset="1" stop-color="#22002A"/>
</linearGradient>
<linearGradient id="paint1_linear_938_23018" x1="0.7984" y1="9.75149" x2="22.5005" y2="9.89909" gradientUnits="userSpaceOnUse">
<stop stop-color="#22002A"/>
<stop offset="0.3833" stop-color="#B00F3F"/>
<stop offset="1" stop-color="#22002A"/>
</linearGradient>
<linearGradient id="paint2_linear_938_23018" x1="11.688" y1="31.5285" x2="11.688" y2="22.7624" gradientUnits="userSpaceOnUse">
<stop stop-color="#22002A"/>
<stop offset="0.9995" stop-color="#B00F3F"/>
</linearGradient>
<linearGradient id="paint3_linear_938_23018" x1="11.688" y1="43.2443" x2="11.688" y2="34.4782" gradientUnits="userSpaceOnUse">
<stop stop-color="#22002A"/>
<stop offset="0.9995" stop-color="#B00F3F"/>
</linearGradient>
</defs>
</svg>
