<svg width="107" height="96" viewBox="0 0 107 96" fill="none" xmlns="http://www.w3.org/2000/svg">
<g id="R-ICO-013001">
<path id="BG" d="M104.683 44.9789C104.683 54.6489 105.733 63.7889 100.033 70.5289C91.9431 80.0789 89.7031 79.4189 78.9531 84.8389C72.5831 88.0489 70.5132 93.7389 63.1031 93.7389C49.9631 93.7389 35.2531 97.2189 18.9731 88.7489C8.3231 83.2089 3.79299 71.7189 1.71309 58.5489C1.18309 55.1789 1.71309 48.5389 1.71309 44.9889C1.71309 24.8889 9.93309 15.2289 19.783 8.2689C28.333 2.2189 42.433 1.3089 53.203 1.3089C59.043 1.3089 72.563 3.9089 77.793 5.9489C88.873 10.2589 93.823 9.6089 100.043 20.6289C105.183 29.7389 104.683 33.3289 104.683 44.9789Z" fill="url(#paint0_radial_938_25196)"/>
<path id="Membrane" d="M105.973 46.9789C105.803 43.7289 105.593 40.2589 105.173 36.8889C105.563 33.7089 105.433 30.7389 104.763 28.0789C104.023 24.9889 102.613 22.1889 101.323 19.8589C100.053 17.6789 98.2832 14.9089 95.7932 12.7889C93.6732 10.9289 90.8932 9.59885 87.7532 8.91885C86.3832 8.22885 84.9632 7.62885 83.5832 7.05885L79.6132 5.38885C78.7232 4.99885 77.7933 4.58885 76.8132 4.22885C72.7433 2.75885 68.6331 1.87885 65.1331 1.20885C61.1431 0.528854 57.2131 -0.0811463 53.073 0.00885366C48.453 0.188854 44.673 0.588854 41.183 1.28885C36.8729 1.26885 32.783 1.72885 28.963 2.67885C27.013 3.14885 25.003 3.83885 23.003 4.71885C21.243 5.49885 19.413 6.60885 17.553 8.00885C13.803 10.8289 10.913 13.7189 8.71298 16.8489C6.30298 20.2389 4.54298 24.1389 3.63298 28.1589C2.26298 31.0889 1.29298 34.4689 0.752976 38.1989C0.472976 39.9689 0.352976 41.7589 0.262976 43.4589L0.232976 44.4989C0.202976 45.8689 0.172876 47.1889 0.0929756 48.5789C0.0829756 49.1389 0.0729756 49.6989 0.0529756 50.2589C-0.0270244 53.1289 -0.0970244 56.0989 0.483076 59.1189C1.27308 62.9589 2.27308 66.2189 3.54318 69.0689C4.31318 72.9789 5.62318 76.5289 7.41318 79.6089C9.39318 83.0489 12.0632 86.0089 15.1332 88.1589C18.0532 90.1289 21.4433 91.6889 25.4932 92.9089C29.1432 93.9889 32.8632 94.5289 36.5432 94.5289C36.5632 94.5289 36.5732 94.5289 36.5932 94.5289C40.7332 95.2789 44.9232 95.4889 48.6132 95.4889C50.1532 95.4889 51.6032 95.4589 52.9331 95.4089C54.0131 95.3889 55.0931 95.3489 56.1731 95.3089C57.7631 95.2489 59.4131 95.1989 61.0231 95.1889L63.0531 95.1789L63.5331 95.1589C64.103 95.1389 64.7031 95.1189 65.2731 95.0089C66.7731 94.7889 68.2731 94.2789 69.6031 93.5189C71.3431 92.5189 72.7531 91.2589 74.1231 90.0489C74.813 89.4389 75.4631 88.8689 76.1431 88.3289C76.963 87.6689 78.0631 86.8189 79.2831 86.1789C80.4031 85.5789 81.5731 84.9789 82.723 84.3889L82.853 84.3189C83.503 83.9889 84.153 83.6689 84.803 83.3389C86.553 82.4688 88.3729 81.5689 90.1229 80.5289C92.5029 79.0789 94.6329 77.2689 96.4428 75.1489C97.6628 74.1189 98.8528 73.0089 100.013 71.9289L100.223 71.7289C101.623 70.3789 102.723 68.9389 103.483 67.4689C104.273 66.0289 104.893 64.3789 105.373 62.4189C105.713 60.8789 105.953 59.2289 106.103 57.1889C106.323 53.5989 106.153 50.0389 105.973 46.9789ZM84.9032 80.6989C83.8632 81.1289 82.8232 81.5689 81.7932 82.0289C80.5232 82.5889 79.2832 83.1389 78.0532 83.7589C76.6231 84.4589 75.3532 85.3589 74.4032 86.0789C73.5833 86.6989 72.8132 87.3689 72.0632 88.0089C70.7632 89.1289 69.5332 90.1889 68.1732 90.9289C67.1332 91.5289 66.0132 91.9189 64.8432 92.1089C64.4332 92.1989 64.0032 92.2189 63.5432 92.2389L62.3832 92.2789C61.9232 92.2789 61.4531 92.2889 60.9932 92.3189C58.3732 92.4389 55.6232 92.6189 52.8332 92.8689L52.6832 92.8789C47.4732 93.3089 42.0832 93.7488 36.7332 93.5489C32.6633 92.6289 29.3632 91.6589 26.3632 90.5089C24.3932 89.7389 22.8332 89.0489 21.4432 88.3489C20.1331 87.7089 18.4432 86.8289 16.8831 85.7189C14.2531 83.9089 11.8031 81.3989 9.61308 78.2589C7.54318 75.2889 5.95308 71.9489 4.53308 68.7889C3.93308 65.4789 3.44308 62.1989 3.03308 58.7389C2.84318 57.0789 2.86308 55.3889 2.92308 53.8089C2.97308 52.1189 3.03308 50.4189 3.11298 48.6989C3.16298 47.1489 3.18288 45.3589 3.17308 43.5189C3.15308 41.8589 3.23318 40.1689 3.31308 38.4789C3.50298 35.1589 3.94308 31.7889 4.60308 28.4689C6.39308 24.5389 8.40308 21.2489 10.7531 18.4089C13.1031 15.5589 15.9231 12.9489 19.3731 10.4089C22.0731 8.25885 25.3431 6.58885 29.6832 5.14885C33.5031 3.89885 37.5132 3.04885 41.2932 2.29885C45.2432 2.33885 49.2132 2.43885 53.0732 2.57885C54.7932 2.66885 56.6732 2.86885 58.8132 3.20885C60.7932 3.49885 62.7332 3.81885 64.6032 4.17885C66.5333 4.51885 68.4732 4.89885 70.3632 5.31885C72.1332 5.67885 73.9932 6.12885 76.0332 6.67885C76.3332 6.75885 76.6132 6.84885 76.9032 6.93885L77.4432 7.10885C77.8932 7.26885 78.3532 7.41885 78.8032 7.55885C79.7632 7.85885 80.7232 8.13885 81.6832 8.40885C83.1832 8.80885 84.6832 9.18885 86.1832 9.55885L87.4032 9.86885C89.6032 11.0689 92.1032 12.5689 94.0332 14.6389C96.0432 16.7689 97.5933 19.3389 98.7231 21.3389C99.9431 23.4889 101.323 26.0589 102.313 28.8089C103.253 31.3989 103.713 34.1989 104.163 36.9189C103.793 40.0389 103.553 43.3389 103.423 47.0089C103.373 48.3389 103.353 49.6589 103.333 50.9789C103.303 52.9789 103.273 55.0389 103.143 57.0389C102.913 60.8989 102.293 63.8589 101.203 66.3889C100.443 68.3089 99.1533 69.9688 97.7833 71.7289C97.1032 72.6088 96.4033 73.5189 95.7533 74.4689C94.5833 75.4489 93.5833 76.2188 92.6233 76.8789C91.5933 77.5889 90.4432 78.2389 89.2033 78.8289C87.8132 79.4889 86.3332 80.1089 84.9032 80.6989Z" fill="#89126D"/>
<g id="Nucleus">
<path id="Vector" d="M81.5638 55.3687C91.7645 55.3687 100.034 47.0994 100.034 36.8987C100.034 26.698 91.7645 18.4287 81.5638 18.4287C71.3631 18.4287 63.0938 26.698 63.0938 36.8987C63.0938 47.0994 71.3631 55.3687 81.5638 55.3687Z" fill="url(#paint1_radial_938_25196)"/>
<path id="Vector_2" d="M81.5638 56.3687C70.8238 56.3687 62.0938 47.6387 62.0938 36.8987C62.0938 26.1687 70.8238 17.4287 81.5638 17.4287C92.3038 17.4287 101.034 26.1587 101.034 36.8987C101.034 47.6387 92.2938 56.3687 81.5638 56.3687ZM81.5638 19.4387C71.9338 19.4387 64.0938 27.2787 64.0938 36.9087C64.0938 46.5387 71.9338 54.3787 81.5638 54.3787C91.1938 54.3787 99.0338 46.5387 99.0338 36.9087C99.0338 27.2787 91.1938 19.4387 81.5638 19.4387Z" fill="#4AA5DD"/>
</g>
</g>
<defs>
<radialGradient id="paint0_radial_938_25196" cx="0" cy="0" r="1" gradientUnits="userSpaceOnUse" gradientTransform="translate(36.2376 36.6421) scale(48.8332 67.673)">
<stop offset="0.0005" stop-color="#FFD1DC"/>
<stop offset="0.0062" stop-color="#FECFDA"/>
<stop offset="0.1043" stop-color="#EAA8BB"/>
<stop offset="0.2082" stop-color="#DA88A0"/>
<stop offset="0.3206" stop-color="#CC6D8A"/>
<stop offset="0.4427" stop-color="#C15879"/>
<stop offset="0.5793" stop-color="#BA496D"/>
<stop offset="0.7423" stop-color="#B54166"/>
<stop offset="1" stop-color="#B43E64"/>
</radialGradient>
<radialGradient id="paint1_radial_938_25196" cx="0" cy="0" r="1" gradientUnits="userSpaceOnUse" gradientTransform="translate(75.5268 32.4626) scale(18.2784 25.3302)">
<stop offset="0.0005" stop-color="#FFD1DC"/>
<stop offset="0.0179" stop-color="#F2CADB"/>
<stop offset="0.0918" stop-color="#C0AED6"/>
<stop offset="0.1712" stop-color="#9294D1"/>
<stop offset="0.2543" stop-color="#6B7ECD"/>
<stop offset="0.3419" stop-color="#4A6CCA"/>
<stop offset="0.4354" stop-color="#2F5DC7"/>
<stop offset="0.5369" stop-color="#1A51C5"/>
<stop offset="0.6505" stop-color="#0B49C3"/>
<stop offset="0.7859" stop-color="#0344C2"/>
<stop offset="1" stop-color="#0043C2"/>
</radialGradient>
</defs>
</svg>
