<svg width="80" height="37" viewBox="0 0 80 37" fill="none" xmlns="http://www.w3.org/2000/svg">
<g id="R-ICO-012525">
<g id="CCR4-NOT complex">
<path d="M1.16016 11.5C1.16016 5.97715 5.63731 1.5 11.1602 1.5H68.1602C73.683 1.5 78.1602 5.97715 78.1602 11.5V25.5C78.1602 31.0228 73.683 35.5 68.1602 35.5H11.1602C5.63731 35.5 1.16016 31.0228 1.16016 25.5V11.5Z" fill="url(#paint0_linear_938_23229)"/>
<path d="M62.3684 2.99266C45.2989 2.87443 28.2296 2.52283 11.1602 1.64001C11.1602 1.54664 11.1602 1.45328 11.1602 1.35991C28.2296 0.477089 45.2989 0.125486 62.3684 0.00726104C64.299 -0.00128388 66.2295 -0.00189853 68.1602 0.00338721C74.2952 -0.128742 79.7397 5.44994 79.524 11.5C79.5082 12.8682 79.4922 14.2363 79.4766 15.6045C79.4451 18.903 79.3958 22.2015 79.3317 25.5C79.3679 31.4671 73.8877 36.5863 68.1609 36.2659C68.1607 36.2659 68.1604 36.2658 68.1602 36.2658C59.6257 36.0221 51.0904 35.8466 42.556 35.953C34.0213 36.056 25.4859 36.4645 16.9512 36.6648C15.0209 36.7017 13.0905 36.7256 11.1602 36.7388C5.15986 36.926 -0.229499 31.4423 0.00744224 25.5C0.0280772 24.1321 0.0511668 22.7642 0.075945 21.3963C0.136131 18.0975 0.215754 14.7988 0.319815 11.5C0.350062 5.69946 5.76811 0.88824 11.1602 1.35991C11.1602 1.45328 11.1602 1.54664 11.1602 1.64001C5.89923 1.85257 1.71106 6.64707 2.00035 11.5C2.10441 14.7988 2.18404 18.0976 2.24428 21.3963C2.26906 22.7642 2.29215 24.1321 2.31279 25.5C2.2907 30.211 6.50718 34.3331 11.1602 34.2612C13.0905 34.2745 15.0208 34.2984 16.9512 34.3353C25.4859 34.5356 34.0213 34.9428 42.556 35.0457C51.0905 35.1521 59.6255 34.978 68.1602 34.7342C68.1604 34.7342 68.1606 34.7342 68.1608 34.7342C73.0869 34.6719 77.2115 30.1856 76.9887 25.5C76.9246 22.2015 76.8753 18.903 76.8438 15.6045C76.8282 14.2363 76.8122 12.8682 76.7963 11.5C76.8397 6.89684 72.6782 2.86974 68.1602 2.99664C66.2295 3.00191 64.2989 3.00126 62.3684 2.99266Z" fill="#4A001C"/>
<text id="CCR4-NOT complex_2" fill="white" xml:space="preserve" style="white-space: pre" font-family="Arial" font-size="12" font-weight="bold" letter-spacing="0em"><tspan x="8.64062" y="15.6602">CCR4-NOT&#10;</tspan><tspan x="15.2969" y="29.6602">complex</tspan></text>
</g>
</g>
<defs>
<linearGradient id="paint0_linear_938_23229" x1="39.6602" y1="1.5" x2="39.6602" y2="35.5" gradientUnits="userSpaceOnUse">
<stop stop-color="#4A001C"/>
<stop offset="1" stop-color="#D11C61"/>
</linearGradient>
</defs>
</svg>
