<svg width="171" height="113" viewBox="0 0 171 113" fill="none" xmlns="http://www.w3.org/2000/svg">
<g id="R-ICO-012817">
<g id="BG">
<mask id="path-1-inside-1_938_25163" fill="white">
<path d="M17.4031 100.436L0.986999 53.653C-0.987201 48.0269 0.0476997 41.6473 3.6659 37.1388L22.1735 14.0773C24.6649 10.9729 28.1437 9.06147 31.8785 8.74497L134.525 0.0467658C139.837 -0.403434 144.943 2.42277 147.815 7.40347L168.254 42.8438C171.381 48.267 171.289 55.239 168.019 60.5578L140.697 105.001C137.444 110.293 131.672 112.937 126.005 111.721C115.103 109.381 96.1696 105.837 78.0511 104.963C61.6272 104.17 44.9803 107.453 34.1681 110.251C27.1569 112.065 20.0158 107.882 17.4031 100.436Z"/>
</mask>
<path d="M17.4031 100.436L0.986999 53.653C-0.987201 48.0269 0.0476997 41.6473 3.6659 37.1388L22.1735 14.0773C24.6649 10.9729 28.1437 9.06147 31.8785 8.74497L134.525 0.0467658C139.837 -0.403434 144.943 2.42277 147.815 7.40347L168.254 42.8438C171.381 48.267 171.289 55.239 168.019 60.5578L140.697 105.001C137.444 110.293 131.672 112.937 126.005 111.721C115.103 109.381 96.1696 105.837 78.0511 104.963C61.6272 104.17 44.9803 107.453 34.1681 110.251C27.1569 112.065 20.0158 107.882 17.4031 100.436Z" fill="url(#paint0_radial_938_25163)" stroke="#D15A79" stroke-width="12" stroke-miterlimit="10" stroke-linecap="round" stroke-linejoin="round" mask="url(#path-1-inside-1_938_25163)"/>
</g>
<g id="R-ICO-013121" opacity="0.75">
<g id="Nucleus">
<mask id="path-2-inside-2_938_25163" fill="white">
<path d="M136.645 69.6112C145.33 69.6112 152.37 62.5709 152.37 53.8862C152.37 45.2015 145.33 38.1612 136.645 38.1612C127.96 38.1612 120.92 45.2015 120.92 53.8862C120.92 62.5709 127.96 69.6112 136.645 69.6112Z"/>
</mask>
<path d="M136.645 69.6112C145.33 69.6112 152.37 62.5709 152.37 53.8862C152.37 45.2015 145.33 38.1612 136.645 38.1612C127.96 38.1612 120.92 45.2015 120.92 53.8862C120.92 62.5709 127.96 69.6112 136.645 69.6112Z" fill="url(#paint1_radial_938_25163)" stroke="#5656A5" stroke-width="2.35875" mask="url(#path-2-inside-2_938_25163)"/>
</g>
<g id="R-ICO-013619">
<g id="Nucleolus">
<mask id="path-3-inside-3_938_25163" fill="white">
<path d="M129.25 63.4704C130.77 63.4704 132.002 62.2383 132.002 60.7185C132.002 59.1987 130.77 57.9666 129.25 57.9666C127.73 57.9666 126.498 59.1987 126.498 60.7185C126.498 62.2383 127.73 63.4704 129.25 63.4704Z"/>
</mask>
<path d="M129.25 63.4704C130.77 63.4704 132.002 62.2383 132.002 60.7185C132.002 59.1987 130.77 57.9666 129.25 57.9666C127.73 57.9666 126.498 59.1987 126.498 60.7185C126.498 62.2383 127.73 63.4704 129.25 63.4704Z" fill="url(#paint2_radial_938_25163)" stroke="#4B4C96" stroke-width="0.550375" mask="url(#path-3-inside-3_938_25163)"/>
</g>
</g>
</g>
</g>
<defs>
<radialGradient id="paint0_radial_938_25163" cx="0" cy="0" r="1" gradientTransform="matrix(90.9956 -11.8371 6.0285 57.1059 74.4445 67.6659)" gradientUnits="userSpaceOnUse">
<stop offset="0.0062" stop-color="#FFDBE1"/>
<stop offset="1" stop-color="#FF6680"/>
</radialGradient>
<radialGradient id="paint1_radial_938_25163" cx="0" cy="0" r="1" gradientUnits="userSpaceOnUse" gradientTransform="translate(132.556 47.3385) scale(20.6675)">
<stop stop-color="#AFBAF7"/>
<stop offset="0.3111" stop-color="#6D96CE"/>
<stop offset="0.8032" stop-color="#285FCC"/>
</radialGradient>
<radialGradient id="paint2_radial_938_25163" cx="0" cy="0" r="1" gradientUnits="userSpaceOnUse" gradientTransform="translate(129.252 60.7255) rotate(-15.5149) scale(3.41539)">
<stop stop-color="#B0B7DC"/>
<stop offset="0.3" stop-color="#B697C6"/>
<stop offset="0.8032" stop-color="#525281"/>
</radialGradient>
</defs>
</svg>
