<svg width="37" height="23" viewBox="0 0 37 23" fill="none" xmlns="http://www.w3.org/2000/svg">
<g id="R-ICO-012569">
<g id="CIT">
<path d="M1.22559 11.2484C1.22559 5.72554 5.70274 1.24838 11.2256 1.24838H25.2256C30.7484 1.24838 35.2256 5.72554 35.2256 11.2484C35.2256 16.7712 30.7484 21.2484 25.2256 21.2484H11.2256C5.70274 21.2484 1.22559 16.7712 1.22559 11.2484Z" fill="url(#paint0_linear_938_23249)"/>
<path d="M31.7331 5.76836C30.1775 3.83974 27.7799 2.60382 25.2256 2.48526C20.5589 2.27502 15.8923 1.93266 11.2256 1.38839C11.2256 1.29502 11.2256 1.20166 11.2256 1.10829C15.8923 0.564024 20.5589 0.221663 25.2256 0.0114191C28.4915 -0.144749 31.8447 1.30801 34.0155 3.84401C35.7708 5.87345 36.719 8.58511 36.6526 11.2484C36.6214 12.9039 36.2174 14.5506 35.4879 16.0234C33.6313 19.9195 29.317 22.3466 25.2259 22.0142C25.2258 22.0142 25.2257 22.0142 25.2256 22.0142C21.4409 21.7705 17.6559 21.595 13.8714 21.7014C12.9895 21.7254 12.1075 21.7659 11.2256 21.8166C8.16813 22.0088 4.89409 20.842 2.68609 18.4411C0.91993 16.5203 -0.0584965 13.8652 0.00301123 11.2484C0.0302809 9.62198 0.438349 8.00443 1.17361 6.57179C3.05319 2.784 7.36443 0.535085 11.2256 1.10829C11.2256 1.20166 11.2256 1.29502 11.2256 1.38839C7.47313 1.87176 4.40851 4.35449 3.13906 7.4876C2.64563 8.68528 2.41763 9.97075 2.44808 11.2484C2.49189 13.3048 3.21189 15.2985 4.46716 16.9396C5.98554 19.0035 8.463 20.5249 11.2256 20.6791C12.1075 20.7296 12.9895 20.7701 13.8714 20.7941C17.656 20.9005 21.4409 20.7263 25.2256 20.4826C25.2257 20.4826 25.2258 20.4826 25.2259 20.4826C28.7482 20.2396 31.8088 17.9356 33.1015 14.9113C33.6009 13.7537 33.833 12.4971 33.7986 11.2484C33.7498 9.23807 32.9993 7.30086 31.7331 5.76836Z" fill="#DB5E9A"/>
<text id="CIT_2" fill="white" xml:space="preserve" style="white-space: pre" font-family="Arial" font-size="12" font-weight="bold" letter-spacing="0em"><tspan x="8.55176" y="15.4085">CIT</tspan></text>
</g>
</g>
<defs>
<linearGradient id="paint0_linear_938_23249" x1="18.2256" y1="1.24838" x2="18.2256" y2="21.2484" gradientUnits="userSpaceOnUse">
<stop stop-color="#DB5E9A"/>
<stop offset="1" stop-color="#163D43"/>
</linearGradient>
</defs>
</svg>
