<svg width="129" height="24" viewBox="0 0 129 24" fill="none" xmlns="http://www.w3.org/2000/svg">
<g id="R-ICO-014067">
<g id="TRASTUZUMAB">
<g id="LEFT SEGMENT">
<mask id="mask0_938_22879" style="mask-type:alpha" maskUnits="userSpaceOnUse" x="0" y="0" width="8" height="24">
<rect id="Rectangle 1" width="8" height="24" transform="matrix(-1 0 0 1 8 0)" fill="white"/>
</mask>
<g mask="url(#mask0_938_22879)">
<g id="Vector 1">
<mask id="path-2-outside-1_938_22879" maskUnits="userSpaceOnUse" x="0" y="0" width="10" height="24" fill="black">
<rect fill="white" width="10" height="24"/>
<path d="M8.00001 22H7C4.23858 22 2 19.7614 2 17V7.00002C2 4.23859 4.23859 2.00001 7.00002 2.00002L8.00001 2.00003V22Z"/>
</mask>
<path d="M8.00001 22H7C4.23858 22 2 19.7614 2 17V7.00002C2 4.23859 4.23859 2.00001 7.00002 2.00002L8.00001 2.00003V22Z" fill="#43B9FF"/>
<path d="M8.00001 22H7C4.23858 22 2 19.7614 2 17V7.00002C2 4.23859 4.23859 2.00001 7.00002 2.00002L8.00001 2.00003V22Z" stroke="#946BE6" stroke-width="4" stroke-miterlimit="3.99933" stroke-linejoin="round" mask="url(#path-2-outside-1_938_22879)"/>
</g>
</g>
</g>
<g id="CENTRE shape">
<g clip-path="url(#clip0_938_22879)">
<mask id="path-3-outside-2_938_22879" maskUnits="userSpaceOnUse" x="8" y="0" width="93" height="24" fill="black">
<rect fill="white" x="8" width="93" height="24"/>
<path d="M8 2H101V22H8V2Z"/>
</mask>
<path d="M8 2H101V22H8V2Z" fill="#43B9FF"/>
<text id="Chemical" fill="white" xml:space="preserve" style="white-space: pre" font-family="Arial" font-size="12" font-weight="bold" letter-spacing="0em"><tspan x="8.48047" y="16.1602">TRASTUZUMAB</tspan></text>
</g>
<path d="M8 2V4H101V2V0H8V2ZM101 22V20H8V22V24H101V22Z" fill="#946BE6" mask="url(#path-3-outside-2_938_22879)"/>
</g>
<g id="RIGHT SEGMENT">
<mask id="mask1_938_22879" style="mask-type:alpha" maskUnits="userSpaceOnUse" x="101" y="0" width="28" height="24">
<path id="MASK" d="M101 24L129 24L129 -5.40489e-07L101 1.90735e-06L101 24Z" fill="white"/>
</mask>
<g mask="url(#mask1_938_22879)">
<g id="Mask group">
<g id="Group 2">
<g id="RIGHT">
<mask id="path-7-outside-3_938_22879" maskUnits="userSpaceOnUse" x="99" y="-1.74846e-07" width="30" height="24" fill="black">
<rect fill="white" x="99" y="-1.74846e-07" width="30" height="24"/>
<path d="M127 12L127 17C127 19.7614 124.761 22 122 22L101 22L101 2L122 2C124.761 2 127 4.23857 127 6.99999L127 12Z"/>
</mask>
<path d="M127 12L127 17C127 19.7614 124.761 22 122 22L101 22L101 2L122 2C124.761 2 127 4.23857 127 6.99999L127 12Z" fill="#946BE6"/>
<path d="M127 12L127 17C127 19.7614 124.761 22 122 22L101 22L101 2L122 2C124.761 2 127 4.23857 127 6.99999L127 12Z" stroke="#946BE6" stroke-width="4" stroke-miterlimit="3.99933" stroke-linejoin="round" mask="url(#path-7-outside-3_938_22879)"/>
</g>
<g id="RX">
<path id="Vector" d="M110 22V14H113.307C114.139 14 114.743 14.0718 115.12 14.2155C115.497 14.3592 115.798 14.6148 116.025 14.9822C116.251 15.3496 116.365 15.7698 116.365 16.2428C116.365 16.843 116.193 17.3388 115.85 17.7298C115.506 18.1209 114.993 18.3675 114.31 18.4693C114.65 18.6731 114.931 18.8968 115.152 19.1405C115.373 19.3842 115.671 19.8172 116.046 20.4393L116.996 22H115.117L113.981 20.2592C113.578 19.6371 113.302 19.2451 113.153 19.0832C113.004 18.9214 112.847 18.8104 112.681 18.7504C112.514 18.6904 112.251 18.6603 111.89 18.6603H111.571V22H110ZM111.571 17.3834H112.734C113.488 17.3834 113.958 17.3506 114.146 17.2851C114.333 17.2196 114.48 17.1068 114.586 16.9468C114.693 16.7867 114.746 16.5866 114.746 16.3465C114.746 16.0773 114.676 15.8599 114.536 15.6944C114.396 15.5289 114.199 15.4243 113.944 15.3806C113.817 15.3625 113.434 15.3533 112.797 15.3533H111.571V17.3834Z" fill="white"/>
<path id="Vector_2" d="M116.996 21.9999L119.029 19.0149L117.081 16.2046H118.902L119.9 17.798L120.951 16.2046H122.703L120.792 18.9495L122.878 22H121.046L119.9 20.2047L118.743 21.9999H116.996Z" fill="white"/>
</g>
<g id="ANTIBODY_x5F_LOGO_1_">
<path id="Vector_3" d="M115.385 4.23259L111.644 2.07472C111.544 2.01583 111.436 1.99169 111.34 2.00418C111.202 2.02492 111.085 2.10455 111.017 2.22243C110.957 2.32697 110.942 2.44323 110.973 2.55941C111.004 2.67559 111.076 2.76772 111.179 2.82747L114.848 4.94471C115.059 5.06676 115.19 5.2941 115.19 5.53811V11.9355C115.19 12.1795 115.366 12.3878 115.584 12.4094C115.602 12.4118 115.621 12.4127 115.639 12.4127C115.744 12.4127 115.847 12.372 115.928 12.2974C116.023 12.2127 116.075 12.0965 116.075 11.9696V5.42941C116.075 4.93809 115.811 4.47914 115.385 4.23259Z" fill="white"/>
<path id="Vector_4" d="M114.075 5.68995L110.664 3.72204C110.461 3.60671 110.177 3.68056 110.059 3.88394C110 3.98601 109.985 4.10466 110.015 4.21922C110.046 4.33379 110.119 4.42923 110.222 4.48813L113.633 6.45681C113.698 6.49412 113.771 6.51163 113.844 6.51163C114.001 6.51163 114.157 6.43276 114.237 6.29499C114.296 6.19122 114.312 6.07419 114.281 5.95886C114.25 5.84429 114.18 5.75132 114.075 5.68995Z" fill="white"/>
<path id="Vector_5" d="M121.889 2.61329C121.942 2.48385 121.933 2.34192 121.864 2.22404C121.805 2.12112 121.709 2.04812 121.594 2.01574C121.478 1.98505 121.362 1.99993 121.259 2.06052L117.497 4.23174C117.07 4.47821 116.805 4.93808 116.805 5.43025V11.9356C116.805 12.1762 116.983 12.3887 117.198 12.4095C117.217 12.4119 117.237 12.4136 117.256 12.4136C117.362 12.4136 117.46 12.3738 117.544 12.2974C117.638 12.2119 117.69 12.0958 117.69 11.9696V5.53725C117.69 5.29325 117.821 5.06582 118.032 4.94386L121.678 2.84072C121.778 2.78174 121.853 2.70126 121.889 2.61329Z" fill="white"/>
<path id="Vector_6" d="M122.821 3.8833C122.704 3.67992 122.416 3.60691 122.216 3.72224L118.805 5.69008C118.701 5.75067 118.63 5.84365 118.599 5.95898C118.569 6.07516 118.584 6.19134 118.644 6.29511C118.723 6.43373 118.875 6.5126 119.03 6.5126C119.105 6.5126 119.179 6.49433 119.248 6.45617L122.659 4.48833C122.869 4.36637 122.943 4.09492 122.821 3.8833Z" fill="white"/>
</g>
</g>
<g id="RIGHT_2">
<mask id="path-14-outside-4_938_22879" maskUnits="userSpaceOnUse" x="99" y="-1.74846e-07" width="10" height="24" fill="black">
<rect fill="white" x="99" y="-1.74846e-07" width="10" height="24"/>
<path d="M101 2L102 2C104.761 2 107 4.23857 107 7L107 17C107 19.7614 104.761 22 102 22L101 22L101 2Z"/>
</mask>
<path d="M101 2L102 2C104.761 2 107 4.23857 107 7L107 17C107 19.7614 104.761 22 102 22L101 22L101 2Z" fill="#43B9FF"/>
<path d="M101 2L102 2C104.761 2 107 4.23857 107 7L107 17C107 19.7614 104.761 22 102 22L101 22L101 2Z" stroke="#946BE6" stroke-width="4" stroke-miterlimit="3.99933" stroke-linejoin="round" mask="url(#path-14-outside-4_938_22879)"/>
</g>
</g>
</g>
</g>
</g>
</g>
<defs>
<clipPath id="clip0_938_22879">
<path d="M8 2H101V22H8V2Z" fill="white"/>
</clipPath>
</defs>
</svg>
