<svg width="41" height="24" viewBox="0 0 41 24" fill="none" xmlns="http://www.w3.org/2000/svg">
<g id="R-ICO-013868">
<g id="CHEMICAL_HEX">
<g id="LEFT_CORNER">
<mask id="mask0_938_24925" style="mask-type:luminance" maskUnits="userSpaceOnUse" x="0" y="0" width="10" height="24">
<rect id="MASK" width="10" height="24" transform="matrix(-1 0 0 1 10 0)" fill="white"/>
</mask>
<g mask="url(#mask0_938_24925)">
<g id="CORNER">
<mask id="path-2-outside-1_938_24925" maskUnits="userSpaceOnUse" x="0" y="0" width="12" height="24" fill="black">
<rect fill="white" width="12" height="24"/>
<path d="M2 12C2 12 6.04738 5.90524 8 2H10V22H8C6.04738 18.0948 2 12 2 12Z"/>
</mask>
<path d="M2 12C2 12 6.04738 5.90524 8 2H10V22H8C6.04738 18.0948 2 12 2 12Z" fill="url(#paint0_linear_938_24925)"/>
<path d="M2 12C2 12 6.04738 5.90524 8 2H10V22H8C6.04738 18.0948 2 12 2 12Z" stroke="#BF3600" stroke-width="4" stroke-miterlimit="3.99933" stroke-linejoin="round" mask="url(#path-2-outside-1_938_24925)"/>
</g>
</g>
</g>
<g id="RIGHT CORNER">
<mask id="mask1_938_24925" style="mask-type:luminance" maskUnits="userSpaceOnUse" x="31" y="0" width="10" height="24">
<rect id="MASK_2" width="10" height="24" transform="matrix(1 -8.74228e-08 -8.74228e-08 -1 31 24)" fill="white"/>
</mask>
<g mask="url(#mask1_938_24925)">
<g id="CORNER_2">
<mask id="path-4-outside-2_938_24925" maskUnits="userSpaceOnUse" x="29" y="0" width="12" height="24" fill="black">
<rect fill="white" x="29" width="12" height="24"/>
<path d="M39 12C39 12 34.9526 5.90524 33 2H31V22H33C34.9526 18.0948 39 12 39 12Z"/>
</mask>
<path d="M39 12C39 12 34.9526 5.90524 33 2H31V22H33C34.9526 18.0948 39 12 39 12Z" fill="url(#paint1_linear_938_24925)"/>
<path d="M39 12C39 12 34.9526 5.90524 33 2H31V22H33C34.9526 18.0948 39 12 39 12Z" stroke="#BF3600" stroke-width="4" stroke-miterlimit="3.99933" stroke-linejoin="round" mask="url(#path-4-outside-2_938_24925)"/>
</g>
</g>
</g>
<g id="centre">
<mask id="path-5-outside-3_938_24925" maskUnits="userSpaceOnUse" x="8" y="0" width="25" height="24" fill="black">
<rect fill="white" x="8" width="25" height="24"/>
<path d="M8 2H33V22H8V2Z"/>
</mask>
<path d="M8 2H33V22H8V2Z" fill="url(#paint2_linear_938_24925)"/>
<path d="M8 2V4H33V2V0H8V2ZM33 22V20H8V22V24H33V22Z" fill="#BF3600" mask="url(#path-5-outside-3_938_24925)"/>
<text id="Chemical" fill="white" xml:space="preserve" style="white-space: pre" font-family="Arial" font-size="12" font-weight="bold" letter-spacing="0em"><tspan x="8.49414" y="16.1602">LPC</tspan></text>
</g>
</g>
</g>
<defs>
<linearGradient id="paint0_linear_938_24925" x1="6" y1="2" x2="6" y2="22" gradientUnits="userSpaceOnUse">
<stop stop-color="#6E77E5"/>
<stop offset="1" stop-color="#BF3600"/>
</linearGradient>
<linearGradient id="paint1_linear_938_24925" x1="35" y1="2" x2="35" y2="22" gradientUnits="userSpaceOnUse">
<stop stop-color="#6E77E5"/>
<stop offset="1" stop-color="#BF3600"/>
</linearGradient>
<linearGradient id="paint2_linear_938_24925" x1="20.5" y1="2" x2="20.5" y2="22" gradientUnits="userSpaceOnUse">
<stop stop-color="#6E77E5"/>
<stop offset="1" stop-color="#BF3600"/>
</linearGradient>
</defs>
</svg>
