<svg width="38" height="23" viewBox="0 0 38 23" fill="none" xmlns="http://www.w3.org/2000/svg">
<g id="R-ICO-014236">
<g id="F12">
<path d="M1.21863 11.2761C1.21863 5.75328 5.69578 1.27612 11.2186 1.27612H26.2186C31.7415 1.27612 36.2186 5.75328 36.2186 11.2761C36.2186 16.799 31.7415 21.2761 26.2186 21.2761H11.2186C5.69578 21.2761 1.21863 16.799 1.21863 11.2761Z" fill="url(#paint0_linear_938_23914)"/>
<path d="M32.4437 5.4775C30.888 3.7363 28.6172 2.64577 26.2186 2.54258C21.2186 2.33539 16.2186 1.98671 11.2186 1.41613C11.2186 1.32276 11.2186 1.2294 11.2186 1.13603C16.2186 0.565451 21.2186 0.216772 26.2186 0.00958467C29.3023 -0.124757 32.4654 1.15836 34.6277 3.4421C36.6152 5.51979 37.7118 8.42378 37.6377 11.2761C37.6078 12.8349 37.249 14.3871 36.5973 15.793C34.8028 19.8256 30.4018 22.3786 26.219 22.042C26.2189 22.042 26.2187 22.042 26.2186 22.042C22.3507 21.7982 18.4823 21.6228 14.6144 21.7291C13.4825 21.7592 12.3506 21.8155 11.2186 21.8851C8.3249 22.0745 5.23549 21.0421 3.04922 18.8863C1.05683 16.9242 -0.0693455 14.079 0.00328362 11.2761C0.0315207 9.74477 0.39501 8.22071 1.0527 6.85233C2.87202 2.92904 7.27098 0.558207 11.2186 1.13603C11.2186 1.2294 11.2186 1.32276 11.2186 1.41613C7.38217 1.89745 4.2584 4.48526 3.04055 7.71845C2.60296 8.85816 2.40308 10.0712 2.43389 11.2761C2.48394 13.4814 3.32042 15.6106 4.75346 17.2981C6.28515 19.1675 8.63024 20.5084 11.2186 20.6661C12.3506 20.7356 13.4825 20.7917 14.6144 20.8219C18.4824 20.9282 22.3506 20.7541 26.2186 20.5104C26.2187 20.5104 26.2188 20.5104 26.2189 20.5103C29.82 20.2697 32.9407 17.8646 34.1837 14.7413C34.6274 13.639 34.8321 12.4539 34.7995 11.2761C34.748 9.12007 33.8817 7.0494 32.4437 5.4775Z" fill="#881751"/>
<text id="F12_2" fill="white" xml:space="preserve" style="white-space: pre" font-family="Arial" font-size="12" font-weight="bold" letter-spacing="0em"><tspan x="8.37097" y="15.4363">F12</tspan></text>
</g>
</g>
<defs>
<linearGradient id="paint0_linear_938_23914" x1="18.7186" y1="1.27612" x2="18.7186" y2="21.2761" gradientUnits="userSpaceOnUse">
<stop stop-color="#881751"/>
<stop offset="1" stop-color="#19605B"/>
</linearGradient>
</defs>
</svg>
