<svg width="164" height="164" viewBox="0 0 164 164" fill="none" xmlns="http://www.w3.org/2000/svg">
<g id="R-ICO-014614" opacity="0.8">
<g id="CYTOPLASM">
<path id="Vector" d="M81.723 162.946C126.581 162.946 162.946 126.581 162.946 81.723C162.946 36.8648 126.581 0.5 81.723 0.5C36.8648 0.5 0.5 36.8648 0.5 81.723C0.5 126.581 36.8648 162.946 81.723 162.946Z" fill="url(#paint0_radial_938_25216)"/>
<path id="Vector_2" d="M81.723 1C126.305 1 162.446 37.1409 162.446 81.723C162.446 126.305 126.305 162.446 81.723 162.446C37.1409 162.446 1 126.305 1 81.723C1 37.1409 37.1409 1 81.723 1ZM81.723 0C36.6608 0 0 36.6608 0 81.723C0 126.785 36.6608 163.446 81.723 163.446C126.785 163.446 163.446 126.785 163.446 81.723C163.446 36.6608 126.785 0 81.723 0Z" fill="black"/>
</g>
<g id="Group">
<g id="R-ICO-013121">
<g id="Nucleus">
<mask id="path-3-inside-1_938_25216" fill="white">
<path d="M54.7721 130.304C66.7981 130.304 76.5471 120.555 76.5471 108.529C76.5471 96.5032 66.7981 86.7542 54.7721 86.7542C42.7461 86.7542 32.9971 96.5032 32.9971 108.529C32.9971 120.555 42.7461 130.304 54.7721 130.304Z"/>
</mask>
<path d="M54.7721 130.304C66.7981 130.304 76.5471 120.555 76.5471 108.529C76.5471 96.5032 66.7981 86.7542 54.7721 86.7542C42.7461 86.7542 32.9971 96.5032 32.9971 108.529C32.9971 120.555 42.7461 130.304 54.7721 130.304Z" fill="url(#paint1_radial_938_25216)" stroke="#5656A5" stroke-width="3.26625" mask="url(#path-3-inside-1_938_25216)"/>
</g>
</g>
<g id="CELL" opacity="0.7">
<path id="BG" opacity="0.5" d="M81.7228 146.216C117.341 146.216 146.216 117.342 146.216 81.723C146.216 46.1044 117.341 17.2297 81.7228 17.2297C46.1041 17.2297 17.2295 46.1044 17.2295 81.723C17.2295 117.342 46.1041 146.216 81.7228 146.216Z" fill="url(#paint2_linear_938_25216)"/>
<g id="Grad">
<path id="Vector_3" d="M81.7227 145.716C117.065 145.716 145.716 117.065 145.716 81.7229C145.716 46.3805 117.065 17.7297 81.7227 17.7297C46.3802 17.7297 17.7295 46.3805 17.7295 81.7229C17.7295 117.065 46.3802 145.716 81.7227 145.716Z" fill="url(#paint3_linear_938_25216)"/>
<path id="Vector_4" d="M81.7228 18.2297C116.733 18.2297 145.216 46.7127 145.216 81.723C145.216 116.733 116.733 145.216 81.7228 145.216C46.7125 145.216 18.2295 116.733 18.2295 81.723C18.2295 46.7127 46.7125 18.2297 81.7228 18.2297ZM81.7228 17.2297C46.1041 17.2297 17.2295 46.1044 17.2295 81.723C17.2295 117.342 46.1042 146.216 81.7228 146.216C117.341 146.216 146.216 117.342 146.216 81.723C146.216 46.1043 117.341 17.2297 81.7228 17.2297Z" fill="black"/>
</g>
<path id="SHADE" d="M81.7228 146.216C117.341 146.216 146.216 117.342 146.216 81.723C146.216 46.1044 117.341 17.2297 81.7228 17.2297C46.1041 17.2297 17.2295 46.1044 17.2295 81.723C17.2295 117.342 46.1041 146.216 81.7228 146.216Z" fill="url(#paint4_radial_938_25216)"/>
<path id="LIGHT" d="M81.7228 146.216C117.341 146.216 146.216 117.342 146.216 81.723C146.216 46.1044 117.341 17.2297 81.7228 17.2297C46.1041 17.2297 17.2295 46.1044 17.2295 81.723C17.2295 117.342 46.1041 146.216 81.7228 146.216Z" fill="url(#paint5_radial_938_25216)"/>
</g>
</g>
<path id="SHADE_2" d="M81.723 162.446C126.305 162.446 162.446 126.305 162.446 81.723C162.446 37.1409 126.305 1 81.723 1C37.1409 1 1 37.1409 1 81.723C1 126.305 37.1409 162.446 81.723 162.446Z" fill="url(#paint6_radial_938_25216)"/>
<path id="Polar body" d="M30.3814 38.4962C34.8631 38.4962 38.4962 34.8631 38.4962 30.3814C38.4962 25.8997 34.8631 22.2666 30.3814 22.2666C25.8997 22.2666 22.2666 25.8997 22.2666 30.3814C22.2666 34.8631 25.8997 38.4962 30.3814 38.4962Z" fill="url(#paint7_radial_938_25216)"/>
<path id="LIGHT_2" d="M81.723 162.446C126.305 162.446 162.446 126.305 162.446 81.723C162.446 37.1409 126.305 1 81.723 1C37.1409 1 1 37.1409 1 81.723C1 126.305 37.1409 162.446 81.723 162.446Z" fill="url(#paint8_radial_938_25216)"/>
</g>
<defs>
<radialGradient id="paint0_radial_938_25216" cx="0" cy="0" r="1" gradientUnits="userSpaceOnUse" gradientTransform="translate(28.2367 19.1698) scale(163.461)">
<stop offset="0.5" stop-color="#9788BB"/>
<stop offset="1" stop-color="#372E4A"/>
</radialGradient>
<radialGradient id="paint1_radial_938_25216" cx="0" cy="0" r="1" gradientUnits="userSpaceOnUse" gradientTransform="translate(49.1101 99.4623) scale(28.6191)">
<stop stop-color="#AFBAF7"/>
<stop offset="0.3111" stop-color="#6D96CE"/>
<stop offset="0.8032" stop-color="#285FCC"/>
</radialGradient>
<linearGradient id="paint2_linear_938_25216" x1="81.7228" y1="17.7696" x2="81.7228" y2="144.946" gradientUnits="userSpaceOnUse">
<stop stop-color="#9788BB"/>
<stop offset="0.5" stop-color="#706588"/>
<stop offset="1" stop-color="#372E4A"/>
</linearGradient>
<linearGradient id="paint3_linear_938_25216" x1="81.7227" y1="18.2655" x2="81.7227" y2="144.456" gradientUnits="userSpaceOnUse">
<stop stop-color="#9788BB"/>
<stop offset="0.5" stop-color="#706588"/>
<stop offset="1" stop-color="#372E4A"/>
</linearGradient>
<radialGradient id="paint4_radial_938_25216" cx="0" cy="0" r="1" gradientUnits="userSpaceOnUse" gradientTransform="translate(66.6025 63.9233) scale(91.1294)">
<stop offset="0.5669" stop-color="#C8C8CA" stop-opacity="0"/>
<stop offset="0.6224" stop-color="#B8B6BA" stop-opacity="0.1282"/>
<stop offset="0.7345" stop-color="#8E858F" stop-opacity="0.3871"/>
<stop offset="0.8914" stop-color="#4B394B" stop-opacity="0.7492"/>
<stop offset="1" stop-color="#1A0018"/>
</radialGradient>
<radialGradient id="paint5_radial_938_25216" cx="0" cy="0" r="1" gradientUnits="userSpaceOnUse" gradientTransform="translate(63.1622 60.2811) scale(91.1294)">
<stop stop-color="#FBFBFF"/>
<stop offset="1" stop-color="#C8C8CA" stop-opacity="0"/>
</radialGradient>
<radialGradient id="paint6_radial_938_25216" cx="0" cy="0" r="1" gradientUnits="userSpaceOnUse" gradientTransform="translate(62.7977 59.4441) scale(114.062)">
<stop offset="0.5669" stop-color="#C8C8CA" stop-opacity="0"/>
<stop offset="0.6224" stop-color="#B8B6BA" stop-opacity="0.1282"/>
<stop offset="0.7345" stop-color="#8E858F" stop-opacity="0.3871"/>
<stop offset="0.8914" stop-color="#4B394B" stop-opacity="0.7492"/>
<stop offset="1" stop-color="#1A0018"/>
</radialGradient>
<radialGradient id="paint7_radial_938_25216" cx="0" cy="0" r="1" gradientUnits="userSpaceOnUse" gradientTransform="translate(26.4294 25.6911) rotate(-45) scale(14.0704)">
<stop stop-color="#E1DDEB"/>
<stop offset="0.5" stop-color="#9788BB"/>
<stop offset="1" stop-color="#372E4A"/>
</radialGradient>
<radialGradient id="paint8_radial_938_25216" cx="0" cy="0" r="1" gradientTransform="matrix(17.2813 20.3314 -32.0061 27.2055 50.3417 38.0236)" gradientUnits="userSpaceOnUse">
<stop offset="0.1" stop-color="#FBFBFF"/>
<stop offset="1" stop-color="#C8C8CA" stop-opacity="0"/>
</radialGradient>
</defs>
</svg>
