<svg width="23" height="169" viewBox="0 0 23 169" fill="none" xmlns="http://www.w3.org/2000/svg">
<g id="R-ICO-013339">
<path id="Vector" d="M11.3418 81.3884V168.275" stroke="#A53A2F" stroke-width="2" stroke-miterlimit="10"/>
<path id="BOTTOM" d="M21.3418 10.3884V102.388C21.3418 107.888 16.8418 112.388 11.3418 112.388C5.8418 112.388 1.3418 107.888 1.3418 102.388V10.3884C1.3418 4.88843 5.8418 0.388428 11.3418 0.388428C16.8418 0.388428 21.3418 4.88843 21.3418 10.3884Z" fill="#A53A2F"/>
<g id="Domains">
<path id="Domain" d="M21.3413 94.3884V102.388C21.3413 107.888 16.8413 112.388 11.3413 112.388C5.84131 112.388 1.34131 107.888 1.34131 102.388V94.3884C1.34131 88.8884 5.84131 84.3884 11.3413 84.3884C16.8413 84.3884 21.3413 88.8884 21.3413 94.3884Z" fill="#748C33"/>
<path id="Domain_2" d="M21.3413 66.3884V74.3884C21.3413 79.8884 16.8413 84.3884 11.3413 84.3884C5.84131 84.3884 1.34131 79.8884 1.34131 74.3884V66.3884C1.34131 60.8884 5.84131 56.3884 11.3413 56.3884C16.8413 56.3884 21.3413 60.8884 21.3413 66.3884Z" fill="#748C33"/>
<path id="Domain_3" d="M21.3413 38.3884V46.3884C21.3413 51.8884 16.8413 56.3884 11.3413 56.3884C5.84131 56.3884 1.34131 51.8884 1.34131 46.3884V38.3884C1.34131 32.8884 5.84131 28.3884 11.3413 28.3884C16.8413 28.3884 21.3413 32.8884 21.3413 38.3884Z" fill="#748C33"/>
<path id="Domain_4" d="M21.3413 10.3884V18.3884C21.3413 23.8884 16.8413 28.3884 11.3413 28.3884C5.84131 28.3884 1.34131 23.8884 1.34131 18.3884V10.3884C1.34131 4.88843 5.84131 0.388428 11.3413 0.388428C16.8413 0.388428 21.3413 4.88843 21.3413 10.3884Z" fill="#748C33"/>
</g>
<path id="TOP" d="M21.4919 10.3885C21.483 20.6708 21.9217 30.9532 22.3291 41.2355C22.7868 51.5178 22.8756 61.8001 22.9417 72.0825C22.9408 77.2237 22.961 82.3648 22.9051 87.506L22.8289 95.2177L22.7908 99.0736L22.7718 101.001C22.7563 101.667 22.7819 102.23 22.7232 103.005C22.551 105.937 21.1795 108.77 19.0017 110.696C16.8455 112.646 13.9159 113.7 11.0395 113.564C8.1562 113.469 5.3654 112.156 3.4549 110.065C1.518 107.997 0.445404 105.176 0.520504 102.388C0.781804 92.1062 0.969504 81.8238 0.855404 71.5415C0.806104 66.4003 0.661404 61.2592 0.506704 56.118L0.093404 40.6946C-0.075296 30.3899 -0.044596 20.1801 0.429304 9.79737C0.662104 6.98737 2.0476 4.34317 4.1341 2.57037C6.2088 0.780273 8.9565 -0.141127 11.6224 0.0175732C14.2889 0.166773 16.8577 1.35167 18.6424 3.28287C20.4546 5.17887 21.5162 7.77067 21.4919 10.3885ZM21.1919 10.3885C21.1789 7.85407 20.1425 5.34487 18.3484 3.56917C16.5607 1.79887 14.083 0.739573 11.6016 0.786873C9.1233 0.785673 6.7139 1.81937 5.025 3.53567C3.3188 5.23457 2.3272 7.56877 2.3096 9.89917C2.6736 20.0784 2.7837 30.4353 2.5905 40.6946L2.177 56.1181C2.0223 61.2593 1.8775 66.4004 1.8283 71.5416C1.7142 81.8239 1.9019 92.1063 2.1632 102.389C2.2271 104.754 3.2525 107.033 4.9219 108.637C6.5837 110.248 8.8394 111.178 11.104 111.185C13.3719 111.21 15.5994 110.308 17.2068 108.752C18.8218 107.207 19.8274 105.061 19.9056 102.852C19.9435 102.345 19.911 101.621 19.912 101.002L19.893 99.0737L19.8549 95.2178L19.7787 87.5061C19.7229 82.3649 19.743 77.2238 19.7421 72.0826C19.8083 61.8003 19.897 51.518 20.3547 41.2356C20.7621 30.9532 21.2008 20.6708 21.1919 10.3885Z" fill="#A53A2F"/>
</g>
</svg>
