<svg width="123" height="194" viewBox="0 0 123 194" fill="none" xmlns="http://www.w3.org/2000/svg">
<g id="R-ICO-014692">
<path id="BG" d="M72.0997 1C71.0986 1 70.0965 1.4435 69.9937 2.3295C69.6858 4.9838 70.5459 5.0835 70.2381 7.7378C70.1346 8.6301 69.2272 9.0802 68.3267 9.0802C67.4414 9.0802 66.5629 8.6453 66.4611 7.7681C66.1532 5.1138 66.176 5.1112 65.8681 2.4569C65.7635 1.5561 65.1644 1.0971 64.5744 1.0971C64.0055 1.0971 63.4449 1.5237 63.3442 2.3924C63.0363 5.0467 63.5006 5.1005 63.1927 7.7548C63.0919 8.6239 62.3511 9.0511 61.599 9.0511C60.8198 9.0511 60.0285 8.5927 59.9241 7.6922C59.6162 5.0379 58.6876 5.1456 58.3797 2.4914C58.2748 1.5872 57.7963 1.1246 57.326 1.1246C56.876 1.1245 56.4335 1.5481 56.3332 2.4134C56.0253 5.0677 55.927 5.0562 55.6191 7.7105C55.5195 8.5696 55.056 8.9875 54.5821 8.9875C54.0798 8.9875 53.5657 8.5184 53.4602 7.6079C53.1523 4.9536 52.3474 5.047 52.0396 2.3927C51.939 1.5251 51.3882 1.0993 50.829 1.0992C50.2476 1.0991 49.6569 1.5591 49.5523 2.461C49.2444 5.1153 49.1955 5.1096 48.8876 7.7638C48.7841 8.6562 48.2434 9.0722 47.229 9.0722C46.5702 9.1106 45.8668 8.7285 45.7651 7.8513C45.4572 5.197 46.0248 4.9461 45.7169 2.2919C45.6178 1.4377 44.786 1.0243 43.929 1.0243C43.0106 1.0243 42.0633 1.4988 41.9572 2.4142C41.6493 5.0685 41.3126 5.0294 41.0048 7.6837C40.9033 8.559 40.4009 8.992 39.8944 8.992C39.3768 8.992 38.8547 8.54 38.751 7.6457C38.4431 4.9914 37.8193 5.0638 37.5114 2.4095C37.4078 1.5185 36.7 1.0699 35.9964 1.0698C35.3026 1.0697 34.613 1.506 34.5111 2.3846C34.2032 5.0389 33.9784 5.0128 33.6705 7.667C33.5651 8.5759 32.7959 9.0436 32.045 9.0436C31.3339 9.0436 30.6393 8.6245 30.5395 7.7638C30.3434 6.0729 30.6162 6.0413 30.4201 4.3504C30.3171 3.4627 29.7508 3.0233 29.1857 3.0232C28.6072 3.0231 28.03 3.4835 27.9518 4.3949C27.5487 9.0941 26.9491 9.0426 26.546 13.7417C26.1792 18.0173 25.0133 22.0562 23.5844 26.1026C22.5097 29.1459 21.4152 33.3941 19.884 38.3099C18.739 41.9859 17.4589 46.0953 16.2524 50.5269C15.19 54.4292 13.8091 58.5149 12.8199 62.8212C11.8903 66.8682 12.351 71.259 11.3397 75.3232C10.341 79.3365 8.563 83.1821 7.5865 87.2703C6.6291 91.2785 6.3602 95.4679 5.5205 99.6033C4.7038 103.625 4.0999 107.701 3.4837 111.895C2.8896 115.937 2.2094 119.996 1.8817 124.243C1.5689 128.298 1 132.407 1 136.689C1 140.856 1.6487 144.661 2.1817 148.293C2.7867 152.416 3.33 156.215 4.5627 159.683C5.9419 163.563 7.8394 166.881 9.9209 169.991C12.149 173.32 14.9819 175.78 17.9104 178.289C20.8603 180.817 23.5998 183.533 27.1502 185.294C30.5687 186.99 34.0524 188.963 37.9273 190.008C41.5972 190.998 45.4994 191.982 49.4925 192.44C51.5649 192.678 53.7029 192.732 55.87 192.732C57.6629 192.732 59.4755 192.695 61.2886 192.695C65.293 192.695 69.1474 191.567 72.9344 191.133C76.9278 190.674 80.6879 189.915 84.358 188.925C88.234 187.879 91.6174 186.196 95.0368 184.499C98.5875 182.738 101.785 180.889 104.735 178.361C107.663 175.851 110.344 173.258 112.571 169.928C114.652 166.818 117.498 163.864 118.877 159.985C120.109 156.518 121.206 152.621 121.811 148.5C122.344 144.868 121.263 140.856 121.263 136.689C121.263 133.177 122.048 128.932 121.629 124.249C121.287 120.418 119.674 116.397 119.094 112.039C118.568 108.085 118.061 103.965 117.37 99.7597C116.708 95.7337 115.856 91.6716 115.069 87.5713C114.286 83.4896 114.862 79.1166 113.98 75.1117C113.069 70.9739 111.934 66.9376 110.944 63.0446C109.817 58.6103 107.815 54.6353 106.654 50.7272C105.301 46.1715 103.589 42.1494 102.337 38.4717C100.614 33.4076 99.5647 29.0958 98.3912 26.0914C96.8809 22.2246 96.0542 18.1011 95.6994 13.965C95.288 9.1691 95.4923 9.1516 95.0809 4.3557C95.0026 3.4431 94.2096 2.9815 93.4189 2.9815C92.6485 2.9815 91.8802 3.4198 91.7774 4.3063C91.5813 5.9973 92.1004 6.0575 91.9043 7.7485C91.8016 8.6335 90.9255 9.0761 90.0497 9.0761C89.1743 9.0761 88.2991 8.634 88.1965 7.7494C87.8886 5.0951 88.3889 5.0371 88.0811 2.3828C87.9794 1.5061 87.3002 1.0716 86.6159 1.0716C85.9189 1.0715 85.2167 1.522 85.1132 2.4149C84.8053 5.0692 84.159 4.9942 83.8511 7.6485C83.7455 8.5587 83.0479 9.0277 82.3674 9.0277C81.7248 9.0277 81.0974 8.6097 80.9978 7.7503C80.6899 5.096 81.1384 5.044 80.8305 2.3898C80.7302 1.5255 80.199 1.1029 79.658 1.1028C79.0913 1.1027 78.5138 1.5662 78.4088 2.4716C78.1009 5.1258 76.7315 4.967 76.4236 7.6213C76.318 8.5317 75.7426 9.001 75.181 9.001C74.6509 9.001 74.1331 8.5833 74.0334 7.7241C73.7255 5.0698 74.5057 4.9794 74.1978 2.3251C74.0954 1.4413 73.0981 1.0001 72.0997 1Z" fill="#F28BAC"/>
<path id="Membrane" d="M55.8701 193.732C54.0571 193.732 51.6806 193.698 49.3789 193.434C45.2114 192.956 41.1479 191.913 37.6665 190.974C34.3804 190.087 31.4053 188.573 28.5278 187.109C27.9174 186.799 27.3105 186.49 26.706 186.19C23.6879 184.693 21.2314 182.531 18.8559 180.44C18.3266 179.975 17.7968 179.508 17.2597 179.048C14.5336 176.712 11.4438 174.064 9.0898 170.547C6.5434 166.742 4.8564 163.495 3.6201 160.018C2.3779 156.521 1.8183 152.706 1.2261 148.667L1.0073 147.194C0.5122 143.881 0 140.456 0 136.689C0 133.643 0.2837 130.679 0.5581 127.813C0.6753 126.59 0.7915 125.376 0.8848 124.166C1.1563 120.645 1.6714 117.228 2.1695 113.923L2.4947 111.749C3.0875 107.715 3.7003 103.544 4.5406 99.4048C4.9102 97.5835 5.1734 95.711 5.4278 93.9004C5.7452 91.6382 6.0738 89.2988 6.6138 87.0381C7.128 84.8862 7.8609 82.794 8.5699 80.7705C9.2213 78.9101 9.8956 76.9863 10.3697 75.0815C10.8668 73.083 10.9971 70.9209 11.1226 68.83C11.2466 66.7729 11.3746 64.6454 11.8453 62.5971C12.4796 59.8364 13.2696 57.1757 14.0343 54.6025C14.4713 53.1308 14.901 51.685 15.2877 50.2641C16.5011 45.8076 17.7911 41.6664 18.9293 38.0126C19.5753 35.9374 20.1437 33.9814 20.6656 32.1859C21.3883 29.6986 22.0128 27.5506 22.6417 25.7694C23.8624 22.3119 25.1627 18.1688 25.5494 13.6561C25.7569 11.2435 26.0182 10.0306 26.2716 8.8582C26.5226 7.6946 26.7594 6.596 26.9557 4.3094C27.0851 2.8079 28.1754 2.0228 29.1857 2.0228C30.1359 2.0238 31.2379 2.7166 31.4132 4.2357C31.5206 5.16 31.4986 5.66 31.4786 6.1014C31.46 6.5203 31.4439 6.8822 31.5328 7.6483C31.5709 7.975 31.8321 8.0433 32.045 8.0433C32.1412 8.0433 32.6226 8.0194 32.6773 7.5516C32.836 6.1825 32.9756 5.493 33.1109 4.8265C33.2437 4.1722 33.3687 3.554 33.5181 2.2694C33.6685 0.974 34.6875 0.0697 35.9966 0.0697C37.3208 0.0697 38.3526 0.9843 38.5044 2.2938C38.645 3.5057 38.8521 4.0799 39.0713 4.6878C39.3081 5.344 39.5767 6.0877 39.7437 7.5301C39.7793 7.8348 39.8819 7.9632 39.92 7.9925C39.8956 7.9632 39.9796 7.8397 40.0113 7.5682C40.1724 6.1781 40.3438 5.4823 40.5098 4.8094C40.6675 4.1683 40.8169 3.5628 40.9639 2.2987C41.1162 0.9808 42.3633 0.0238 43.9287 0.0238C45.4194 0.0248 46.563 0.91 46.7099 2.1766C46.8759 3.6053 46.8051 4.3958 46.7368 5.16C46.6748 5.8548 46.6162 6.5106 46.7578 7.7357C46.7685 7.8246 46.8003 8.1068 47.1714 8.0736C47.8447 8.0721 47.8613 7.9305 47.8941 7.6483C48.0489 6.3119 48.1387 5.6454 48.2286 4.9784C48.3175 4.3212 48.4058 3.6635 48.5592 2.3456C48.7125 1.0228 49.6456 0.099 50.8287 0.099C51.9776 0.099 52.8844 0.9945 53.0328 2.2772C53.1695 3.4569 53.4 3.9876 53.6671 4.6014C53.9557 5.2655 54.2823 6.0179 54.4532 7.4925C54.4747 7.6766 54.5181 7.8026 54.5596 7.8841C54.5855 7.8167 54.6114 7.722 54.626 7.595C54.7818 6.2493 54.8848 5.5794 54.9878 4.9095C55.0879 4.2581 55.188 3.6063 55.3399 2.2977C55.5142 0.7962 56.4634 0.1244 57.3262 0.1244C58.1861 0.1244 59.1939 0.829 59.3731 2.3759C59.5074 3.5346 59.7598 4.0536 60.0513 4.6547C60.376 5.3232 60.7437 6.081 60.917 7.5766C60.9707 8.0375 61.5352 8.0507 61.5991 8.0507C61.7651 8.0507 62.1562 8.0107 62.1997 7.6391C62.3433 6.3989 62.3076 5.7836 62.27 5.1318C62.229 4.4233 62.187 3.6904 62.3511 2.2768C62.4995 0.9931 63.4131 0.0971 64.5733 0.0971H64.5753C65.7677 0.0971 66.7081 1.02 66.8614 2.3417C67.0157 3.6732 67.0875 4.3393 67.1588 5.0058C67.2301 5.6679 67.3009 6.33 67.4542 7.6528C67.4908 7.9638 68.0089 8.08 68.3268 8.08C68.6862 8.08 69.2086 7.9379 69.2453 7.6225C69.3806 6.4526 69.2673 5.8862 69.1354 5.2304C68.9918 4.5121 68.8283 3.6987 69.0006 2.2143C69.1519 0.9106 70.4263 0 72.0996 0C73.769 0 75.04 0.9087 75.1909 2.2095C75.3618 3.6797 75.2231 4.4844 75.1011 5.1944C74.9873 5.8546 74.8892 6.4244 75.0264 7.6085C75.0611 7.9029 75.1626 7.9947 75.1812 8.0006C75.2237 8.0006 75.3868 7.8819 75.4307 7.5055C75.6123 5.9376 76.1299 5.1676 76.5865 4.4884C76.9791 3.9039 77.2896 3.442 77.4156 2.3561C77.5948 0.8078 78.7037 0.1027 79.6583 0.1027C80.5802 0.1027 81.651 0.7824 81.8238 2.2746C81.9879 3.6852 81.9498 4.4157 81.9132 5.1218C81.879 5.7746 81.8473 6.3913 81.9913 7.635C82.0025 7.7322 82.0372 8.0276 82.3678 8.0276C82.4694 8.0276 82.8048 7.992 82.858 7.5335C83.0255 6.0872 83.3014 5.3426 83.5445 4.6854C83.7686 4.0799 83.98 3.5082 84.1202 2.3001C84.2696 1.0091 85.3194 0.0716 86.6163 0.0716C87.9142 0.0726 88.9249 0.9759 89.0743 2.2679C89.2393 3.6878 89.1871 4.4246 89.1363 5.137C89.0904 5.7869 89.0469 6.4002 89.19 7.6346C89.2276 7.9564 89.7374 8.0765 90.0499 8.0765C90.3629 8.0765 90.8736 7.9564 90.9112 7.6336C90.9918 6.9368 90.9327 6.6155 90.8575 6.2088C90.7691 5.7293 90.669 5.1854 90.7847 4.1912C90.9351 2.8904 92.0181 1.9817 93.419 1.9817C94.8458 1.9817 95.9639 2.9441 96.0777 4.2703C96.2852 6.6892 96.338 7.9236 96.3897 9.1175C96.44 10.2904 96.4922 11.5028 96.6959 13.8797C97.0694 18.2352 97.9532 22.2215 99.3233 25.7278C99.9649 27.3709 100.558 29.3562 101.246 31.655C101.828 33.6018 102.487 35.8088 103.284 38.1496C103.746 39.5065 104.269 40.9059 104.823 42.3879C105.773 44.927 106.755 47.552 107.613 50.4426C108.108 52.1096 108.757 53.7824 109.445 55.5539C110.339 57.8581 111.263 60.2409 111.914 62.798C112.211 63.9665 112.521 65.1481 112.834 66.3415C113.563 69.1154 114.316 71.9836 114.957 74.8962C115.434 77.0617 115.502 79.3215 115.568 81.507C115.628 83.467 115.689 85.4928 116.051 87.383C116.275 88.551 116.505 89.716 116.734 90.8781C117.298 93.7428 117.882 96.7048 118.357 99.5978C118.918 103.009 119.357 106.364 119.783 109.608L120.086 111.908C120.355 113.933 120.861 115.913 121.352 117.827C121.911 120.014 122.44 122.08 122.626 124.16C122.896 127.19 122.677 130.05 122.483 132.574C122.37 134.041 122.264 135.425 122.264 136.689C122.264 138.348 122.444 140.014 122.618 141.626C122.883 144.071 123.133 146.38 122.8 148.645C122.255 152.359 121.252 156.287 119.819 160.319C118.788 163.219 117.024 165.567 115.317 167.839C114.635 168.748 113.99 169.605 113.402 170.484C110.962 174.131 107.981 176.896 105.386 179.12C102.065 181.966 98.5156 183.889 95.4809 185.395C92.0668 187.089 88.5756 188.822 84.6186 189.89C80.6777 190.954 76.893 191.685 73.0483 192.126C71.6767 192.283 70.3129 192.531 68.8686 192.793C66.4252 193.237 63.8984 193.695 61.2885 193.695C60.3827 193.695 59.4775 193.705 58.5741 193.714C57.6699 193.723 56.7676 193.732 55.8701 193.732ZM29.1846 4.0229C29.0894 4.0229 28.9737 4.1835 28.9478 4.4809C28.7413 6.894 28.4795 8.1069 28.2266 9.2797C27.9756 10.4428 27.7383 11.5414 27.5425 13.8271C27.1358 18.5639 25.7901 22.8588 24.5274 26.4355C23.9175 28.1635 23.3003 30.2861 22.586 32.7441C22.0611 34.5512 21.4888 36.519 20.8384 38.6074C19.7056 42.2451 18.4214 46.3677 17.2173 50.7895C16.8267 52.225 16.3931 53.685 15.9512 55.1718C15.1958 57.7153 14.4146 60.3456 13.7945 63.0453C13.3614 64.9315 13.2437 66.8837 13.1192 68.9501C12.9879 71.1313 12.8521 73.3866 12.3101 75.5648C11.8135 77.5594 11.1241 79.5282 10.4571 81.4315C9.7652 83.4076 9.0494 85.4505 8.5592 87.5028C8.0411 89.6708 7.734 91.8602 7.4083 94.1781C7.15 96.0184 6.8824 97.9218 6.5006 99.8026C5.671 103.888 5.0621 108.032 4.4733 112.04L4.1471 114.221C3.6544 117.49 3.1451 120.871 2.879 124.32C2.7848 125.542 2.6671 126.768 2.5489 128.003C2.2793 130.823 2 133.739 2 136.689C2 140.307 2.501 143.658 2.9854 146.898L3.2046 148.378C3.7827 152.316 4.3281 156.037 5.5049 159.348C6.6831 162.663 8.3013 165.773 10.752 169.435C12.9537 172.724 15.8042 175.167 18.5616 177.53C19.1051 177.996 19.6417 178.468 20.1773 178.939C22.5606 181.037 24.8121 183.018 27.5948 184.398C28.2056 184.702 28.8184 185.013 29.4351 185.327C32.2212 186.744 35.1021 188.21 38.188 189.043C41.5996 189.963 45.5767 190.984 49.6069 191.447C51.8081 191.7 54.1103 191.732 55.8701 191.732C56.7607 191.732 57.6562 191.723 58.5542 191.714C59.4639 191.705 60.376 191.695 61.2886 191.695C63.7183 191.695 66.1553 191.253 68.5117 190.825C69.9238 190.569 71.3838 190.304 72.8203 190.139C76.5649 189.71 80.2539 188.997 84.0972 187.96C87.8633 186.942 91.1133 185.33 94.5542 183.623C97.5161 182.153 100.93 180.305 104.085 177.602C106.576 175.466 109.435 172.818 111.74 169.372C112.359 168.448 113.05 167.527 113.719 166.637C115.335 164.486 117.006 162.262 117.935 159.649C119.324 155.74 120.295 151.939 120.822 148.355C121.117 146.342 120.88 144.156 120.63 141.841C120.45 140.176 120.264 138.456 120.264 136.689C120.264 135.349 120.373 133.926 120.489 132.421C120.676 129.975 120.889 127.203 120.633 124.338C120.462 122.419 119.953 120.43 119.414 118.323C118.909 116.352 118.388 114.313 118.103 112.171L117.799 109.868C117.377 106.64 116.939 103.301 116.383 99.9219C115.913 97.0601 115.333 94.1138 114.772 91.2642C114.542 90.0992 114.312 88.9312 114.088 87.7598C113.694 85.7129 113.631 83.6055 113.569 81.5674C113.503 79.3775 113.44 77.3091 113.004 75.3262C112.371 72.4527 111.623 69.604 110.899 66.8491C110.585 65.6509 110.273 64.4643 109.975 63.291C109.355 60.8511 108.453 58.5259 107.58 56.2773C106.878 54.4668 106.214 52.7568 105.696 51.0117C104.857 48.1875 103.888 45.5952 102.95 43.0884C102.391 41.5923 101.862 40.1787 101.391 38.794C100.582 36.4175 99.9166 34.1915 99.3297 32.2276C98.6549 29.9708 98.0724 28.022 97.4601 26.4551C96.0206 22.7705 95.0934 18.5967 94.7033 14.0503C94.4958 11.6314 94.443 10.397 94.3913 9.2031C94.341 8.0302 94.2888 6.8178 94.0851 4.4409C94.0475 4.0034 93.5236 3.9814 93.4191 3.9814C93.279 3.9814 92.8185 4.0131 92.7712 4.4209C92.6906 5.1177 92.7497 5.439 92.8249 5.8457C92.9133 6.3257 93.0134 6.8691 92.8977 7.8638C92.7468 9.1665 91.5759 10.0762 90.05 10.0762C88.5251 10.0762 87.3547 9.167 87.2038 7.8648C87.0388 6.4449 87.091 5.7081 87.1418 4.9957C87.1877 4.3458 87.2312 3.7325 87.0881 2.4981C87.0471 2.1456 86.8088 2.0713 86.6159 2.0713C86.4792 2.0713 86.155 2.1162 86.1066 2.5303C85.9391 3.9771 85.6632 4.7217 85.4201 5.3789C85.1965 5.9844 84.9846 6.5561 84.8444 7.7637C84.6725 9.2495 83.4684 10.0274 82.3678 10.0274C81.1241 10.0274 80.1525 9.1382 80.005 7.8653C79.8409 6.4547 79.879 5.7242 79.9156 5.0181C79.9498 4.3653 79.9815 3.7486 79.8375 2.5049C79.8023 2.2017 79.692 2.1026 79.6583 2.1026C79.5885 2.1026 79.442 2.2447 79.402 2.5865C79.2204 4.1549 78.7028 4.9249 78.2462 5.6041C77.8536 6.1886 77.5431 6.6505 77.4171 7.7364C77.2359 9.2921 76.1315 10.0006 75.1813 10.0006C74.2711 10.0006 73.213 9.3243 73.0402 7.8395C72.8698 6.3688 73.008 5.5646 73.13 4.8551C73.2438 4.1945 73.3419 3.6246 73.2047 2.4401C73.1802 2.2324 72.7026 2 72.0996 2C71.4922 2 71.0112 2.2349 70.9868 2.4448C70.8515 3.6147 70.9648 4.1811 71.0967 4.8369C71.2403 5.5552 71.4038 6.3686 71.2315 7.853C71.0796 9.164 69.8848 10.0801 68.3267 10.0801C66.794 10.0801 65.6182 9.1768 65.4678 7.8838C65.3135 6.5518 65.2417 5.8858 65.1704 5.2192C65.0991 4.5571 65.0283 3.895 64.875 2.5722C64.8369 2.2455 64.6924 2.0971 64.5742 2.0971C64.4604 2.0971 64.3662 2.2617 64.3374 2.5073C64.1934 3.7485 64.229 4.3642 64.2666 5.0161C64.3076 5.7246 64.3501 6.457 64.186 7.8701C64.0366 9.1543 62.9731 10.0508 61.5991 10.0508C60.2036 10.0508 59.0815 9.1074 58.9306 7.8071C58.7963 6.6484 58.5439 6.1294 58.2524 5.5283C57.9277 4.8598 57.56 4.102 57.3867 2.6064C57.3769 2.5239 57.3633 2.4526 57.3476 2.3916C57.3393 2.4326 57.332 2.478 57.3261 2.5283C57.1703 3.874 57.0673 4.5439 56.9643 5.2138C56.8642 5.8652 56.7641 6.517 56.6122 7.8256C56.4393 9.3188 55.4677 9.9872 54.5819 9.9872C53.6893 9.9872 52.6468 9.2787 52.4667 7.723C52.33 6.5433 52.0995 6.0126 51.8324 5.3988C51.5438 4.7347 51.2172 3.9823 51.0463 2.5077C50.9921 2.0502 50.6293 1.8495 50.5453 2.5761C50.3905 3.9125 50.3007 4.579 50.2108 5.246C50.1219 5.9032 50.0336 6.5609 49.8802 7.8788C49.7186 9.2728 48.7523 10.0722 47.2288 10.0722C46.1643 10.1318 44.9417 9.433 44.7713 7.9667C44.6053 6.537 44.6761 5.7465 44.7444 4.9823C44.8064 4.288 44.865 3.6317 44.7234 2.4071C44.6907 2.1263 44.2297 2.0238 43.928 2.0238C43.4763 2.0238 42.9866 2.2128 42.95 2.5287C42.7889 3.9193 42.6175 4.6151 42.4515 5.288C42.2933 5.9291 42.1444 6.5346 41.9974 7.7987C41.8226 9.3055 40.7845 9.9916 39.8939 9.9916C38.9896 9.9916 37.9354 9.2934 37.7572 7.7611C37.6166 6.5487 37.4095 5.9745 37.1903 5.3666C36.9535 4.7104 36.6849 3.9667 36.5179 2.5243C36.47 2.1141 36.137 2.0697 35.9964 2.0697C35.7947 2.0697 35.5457 2.1444 35.5042 2.4999C35.3455 3.8686 35.2059 4.5575 35.0706 5.224C34.9383 5.8788 34.8128 6.4969 34.6634 7.7821C34.5115 9.0922 33.41 10.0433 32.0447 10.0433C30.721 10.0433 29.6936 9.1532 29.5462 7.8783C29.4388 6.9535 29.4608 6.4535 29.4808 6.0121C29.4994 5.5932 29.5155 5.2313 29.4266 4.4657C29.3931 4.1748 29.2793 4.0229 29.1846 4.0229Z" fill="#C03969"/>
<path id="NUCLEUS" d="M71.7757 168.198C86.8286 168.198 99.0314 155.995 99.0314 140.942C99.0314 125.889 86.8286 113.687 71.7757 113.687C56.7228 113.687 44.52 125.889 44.52 140.942C44.52 155.995 56.7228 168.198 71.7757 168.198Z" fill="#C03969"/>
<g id="ER">
<path id="Vector" d="M43.8254 164.406C44.3277 164.018 44.6191 164.161 44.7529 164.21C45.2563 164.391 45.8627 164.233 46.2045 163.702C46.488 163.26 46.4162 162.679 46.0816 162.275C40.5614 155.614 37.849 147.194 38.4594 138.592C38.4756 138.363 38.385 138.137 38.2159 137.982C37.2586 137.103 36.0831 137.733 36.0222 138.698L36.0159 138.802C35.9727 139.514 35.3878 140.072 34.6749 140.081L34.5828 140.083C33.5076 140.097 32.6468 139.187 32.7249 138.114C32.9316 135.273 33.4474 132.453 34.2717 129.703C34.5542 128.76 35.5862 128.262 36.4973 128.633C37.2951 128.959 37.7266 129.837 37.4753 130.661C37.2337 131.453 37.0184 132.253 36.8363 133.054C36.6992 133.658 37.0385 134.258 37.6057 134.462C37.6525 134.479 37.7006 134.494 37.7502 134.505C38.4032 134.653 39.0525 134.244 39.2008 133.591C39.5052 132.251 39.8974 130.911 40.3667 129.611C41.9196 125.306 44.2785 121.444 47.3784 118.132C48.0356 117.43 47.6963 116.153 46.4165 116.046C46.1844 116.026 45.9504 116.114 45.79 116.283C43.3164 118.887 41.2817 121.816 39.7016 125.017C39.2887 125.853 38.2916 126.218 37.4278 125.865L37.1448 125.75C36.5843 125.521 36.2278 124.845 36.2395 124.24C36.2485 123.77 35.9829 123.318 35.5283 123.112C34.911 122.824 34.1997 123.105 33.9235 123.715C33.4634 124.728 33.0376 125.776 32.6576 126.829C32.5456 127.14 32.2003 127.753 31.1176 127.391C30.0349 127.03 30.1496 126.318 30.2752 125.97C31.4904 122.601 33.087 119.443 35.0334 116.515C35.3882 115.981 36.1319 115.876 36.633 116.275L36.8453 116.445C37.3193 116.823 37.4162 117.497 37.0813 118.003C36.6833 118.603 36.2989 119.215 35.932 119.842C35.8566 119.97 35.8046 120.199 35.8409 120.344C35.9701 120.858 36.3181 121.218 36.708 121.358C37.2433 121.551 37.8572 121.345 38.1596 120.838C40.7534 116.49 44.1086 112.756 48.0689 109.757C48.7832 109.216 49.8054 109.383 50.297 110.132L50.5282 110.485C50.9337 111.103 50.7923 111.932 50.1985 112.372C49.5277 112.869 48.8724 113.387 48.2416 113.937C47.9704 114.173 47.8067 114.534 47.8695 114.889C47.9669 115.439 48.2972 115.791 48.692 115.933C49.091 116.077 49.5544 116.007 49.8978 115.709C52.3131 113.619 55.0149 111.886 57.9284 110.558C58.5379 110.281 58.8065 109.562 58.5287 108.953C58.2507 108.343 57.5315 108.075 56.9229 108.352C56.6389 108.482 56.357 108.615 56.0772 108.752C55.2946 109.136 54.3496 108.869 53.8714 108.14C53.3351 107.323 53.6402 106.222 54.5172 105.791C55.2349 105.438 55.9657 105.105 56.7105 104.794C57.3287 104.536 57.6205 103.827 57.363 103.209C57.1055 102.591 56.3958 102.299 55.7777 102.556C53.8522 103.359 52.0102 104.297 50.2554 105.355C49.687 105.698 48.9581 105.589 48.5301 105.082L48.5033 105.05C48.0415 104.503 48.1639 103.664 48.7751 103.291C51.1864 101.82 53.7357 100.581 56.3946 99.5906C57.0218 99.3567 57.3411 98.6589 57.1073 98.0313C56.8736 97.4046 56.1767 97.0852 55.548 97.3185C51.2313 98.9262 47.188 101.155 43.5287 103.944C43.0162 104.334 42.813 105.068 43.1565 105.613C43.3084 105.854 43.5271 106.021 43.7708 106.109C44.0485 106.209 44.3583 106.206 44.6384 106.093C45.0336 105.933 45.6061 106.136 45.8811 106.462L45.9403 106.532C46.444 107.129 46.3402 108.014 45.7305 108.503C44.0326 109.862 42.4469 111.354 40.9838 112.969C40.5253 113.474 39.7604 113.55 39.2267 113.124L39.1434 113.057C38.6243 112.643 38.565 111.879 39.0082 111.384C39.1822 111.19 39.3582 110.997 39.5367 110.807C40.0333 110.276 39.9609 109.418 39.3442 108.983C38.8381 108.627 38.1268 108.764 37.7047 109.216C33.4145 113.819 30.1477 119.179 27.9945 125.147C27.4793 126.575 27.0291 128.042 26.6557 129.506C26.5002 130.116 26.8375 130.735 27.4177 130.945C27.4548 130.958 27.4926 130.97 27.5313 130.98C28.0512 131.112 28.5787 130.887 28.8526 130.458C29.0678 130.121 29.6098 129.978 29.9921 130.095L30.4432 130.233C31.0427 130.416 31.3859 131.032 31.2452 131.643C30.8369 133.416 30.5447 135.21 30.372 137.014C30.3344 137.406 29.9999 137.698 29.6066 137.676L28.5352 137.615C28.1206 137.591 27.8025 137.228 27.8411 136.815C27.8982 136.204 27.9675 135.593 28.0519 134.982C28.0833 134.755 28.0076 134.523 27.849 134.357C26.952 133.418 25.739 133.967 25.6131 134.926C24.7965 141.145 25.2417 147.373 26.9369 153.436C27.0465 153.829 27.3376 154.122 27.694 154.25C27.9227 154.333 28.1787 154.347 28.4307 154.277C29.0755 154.097 29.4518 153.428 29.2717 152.783C28.2576 149.156 27.7261 145.466 27.661 141.755C27.6489 141.067 28.2385 140.517 28.926 140.556C29.6335 140.597 30.1768 141.179 30.1926 141.888C30.2458 144.267 30.5041 146.645 30.97 148.994C31.056 149.427 31.3622 149.76 31.749 149.899C32.2308 150.073 32.8401 149.947 33.2972 149.339C33.415 149.183 33.4409 148.974 33.4011 148.782C33.2039 147.83 33.053 146.873 32.9364 145.913C32.8246 144.993 33.5362 144.179 34.4626 144.166L34.5297 144.165C35.397 144.154 36.1488 144.785 36.2621 145.645C36.9549 150.904 38.8149 155.943 41.7293 160.428C42.2005 161.153 42.0154 162.121 41.3245 162.641L41.1837 162.747C40.4814 163.276 39.4786 163.098 38.9962 162.363C38.5132 161.627 38.054 160.875 37.623 160.107C37.3263 159.578 36.6953 159.286 36.1251 159.493C35.6618 159.661 35.3793 160.06 35.3295 160.494C35.2757 160.963 35.0744 161.401 34.6764 161.655L34.6484 161.673C33.912 162.142 32.9322 161.874 32.5323 161.098C32.2222 160.496 31.9251 159.887 31.6425 159.268C31.3648 158.658 30.645 158.391 30.0362 158.669C29.4275 158.947 29.1592 159.666 29.4374 160.275C31.727 165.289 34.8459 169.809 38.7072 173.711C38.8385 173.843 38.9923 173.939 39.1568 173.999C39.5829 174.152 40.0783 174.06 40.4219 173.72C40.8977 173.249 40.9015 172.481 40.4309 172.005C38.6265 170.182 36.9991 168.212 35.5484 166.117C35.1373 165.523 35.3164 164.703 35.9256 164.315C36.4969 163.951 37.2452 164.114 37.6307 164.671C38.7386 166.272 39.9539 167.796 41.2742 169.222C41.4103 169.37 41.5747 169.475 41.751 169.539C42.4455 169.79 43.3284 169.39 43.4385 168.3C43.4582 168.105 43.3719 167.915 43.2373 167.772C43.0814 167.607 42.9276 167.44 42.7756 167.271C42.1759 166.605 42.2882 165.564 43.0041 165.025L43.8254 164.406Z" fill="#EC6799"/>
<path id="Vector_2" d="M101.089 111.432C99.0973 109.456 96.9114 107.693 94.5653 106.16C94.072 105.837 93.9104 105.192 94.2083 104.683C94.2083 104.683 94.2623 104.567 94.6065 104.004C94.9507 103.44 95.5241 103.757 95.804 103.938C96.1281 104.149 96.5149 104.184 96.8545 104.069C97.1033 103.984 97.3267 103.818 97.4805 103.581C97.8447 103.019 97.6848 102.268 97.1229 101.904C91.0547 97.9692 84.0602 95.4679 76.8959 94.6707C76.1642 94.5889 75.5094 95.1795 75.5512 95.9492C75.5841 96.5564 76.1034 97.0202 76.7076 97.0893C76.9847 97.121 77.2612 97.1571 77.5374 97.196C78.1643 97.2845 78.59 97.8801 78.4668 98.5011L78.4021 98.8271C78.2894 99.3955 77.7545 99.7795 77.1805 99.701C77.002 99.6766 76.8234 99.6536 76.6447 99.6324C75.9121 99.5458 75.2571 100.129 75.2903 100.899C75.3164 101.505 75.8257 101.976 76.4273 102.048C77.5446 102.183 78.6587 102.372 79.7638 102.606C80.3708 102.734 80.7423 103.353 80.588 103.954L80.303 105.064C80.1553 105.639 79.5791 105.985 78.9981 105.862C78.6008 105.778 78.2015 105.7 77.7993 105.631C77.072 105.505 76.3861 106.056 76.3822 106.826C76.3792 107.433 76.8667 107.929 77.4645 108.033C81.9739 108.817 86.2086 110.486 90.0525 112.996C90.3771 113.208 90.7654 113.244 91.1062 113.128C91.3539 113.044 91.576 112.88 91.7303 112.643C92.0962 112.083 91.9262 111.35 91.3777 110.966C90.9791 110.686 91.467 110.043 91.467 110.043L92.1511 108.875C92.469 108.332 93.182 108.158 93.7036 108.51C94.8754 109.299 96.0048 110.148 97.0842 111.058C97.5505 111.452 97.5923 112.158 97.1905 112.616L96.1655 113.787C96.1655 113.787 95.8123 114.366 95.2204 113.86C94.7116 113.425 93.9476 113.478 93.5105 113.984C93.0726 114.491 93.1287 115.257 93.6352 115.694C96.4565 118.132 98.8303 121.003 100.69 124.229C100.984 124.739 101.593 124.955 102.13 124.772C102.211 124.745 102.29 124.707 102.367 124.662C102.942 124.319 103.094 123.541 102.758 122.962C101.483 120.759 99.9813 118.713 98.2763 116.842C97.6718 116.179 97.677 115.163 98.2683 114.488L98.57 114.143C98.9668 113.69 99.5627 113.491 100.161 113.557C100.338 113.577 100.518 113.558 100.687 113.5C100.886 113.433 101.071 113.312 101.219 113.138C101.64 112.646 101.549 111.887 101.089 111.432ZM91.3421 104.246C90.7424 103.95 90.0173 104.155 89.7019 104.746C89.3873 105.337 89.6129 106.068 90.2018 106.386C91.0875 106.865 90.6235 107.44 90.6235 107.44L89.8288 108.796C89.5301 109.306 88.8861 109.479 88.3623 109.206C86.6352 108.303 84.8463 107.546 83.0027 106.937C82.4493 106.754 82.1253 106.185 82.2702 105.62L82.5981 104.343C82.707 103.919 83.154 103.547 83.5913 103.525C83.7037 103.519 83.8138 103.497 83.9184 103.462C84.3329 103.321 84.6644 102.959 84.7316 102.471C84.814 101.874 84.4008 101.311 83.8236 101.136C82.9764 100.879 82.1193 100.65 81.2556 100.447C80.6756 100.311 80.3027 99.7505 80.4185 99.1662L80.4802 98.8552C80.6005 98.2487 81.1994 97.8511 81.8014 97.9925C85.3992 98.8378 88.8954 100.131 92.1795 101.84C92.7336 102.128 92.9253 102.831 92.6096 103.37L92.2976 103.902C92.2976 103.902 91.9942 104.567 91.3421 104.246Z" fill="#EC6799"/>
</g>
<g id="GOLGI">
<path id="Vector_3" d="M65.6695 83.9489C62.9704 84.2691 60.2501 84.7758 57.5824 85.456C56.1985 85.8089 54.8307 86.2093 53.4815 86.6533C53.1115 86.775 52.7137 86.5858 52.5787 86.2205C52.4366 85.836 52.6404 85.4074 53.0296 85.2788C54.1124 84.9209 55.2037 84.5846 56.3074 84.2863C56.7383 84.1701 56.9934 83.7264 56.8768 83.2956C56.7605 82.8643 56.3084 82.6093 55.8861 82.7262C53.619 83.3388 51.391 84.0792 49.2161 84.9215C48.8508 85.063 48.4421 84.8911 48.2911 84.5297L48.2875 84.5211C48.1303 84.1451 48.3129 83.7109 48.693 83.564C49.6557 83.1917 50.6264 82.8366 51.6088 82.5093C52.0322 82.3684 52.2612 81.9109 52.1199 81.4872C51.9794 81.0638 51.5209 80.8405 51.0978 80.9761C46.799 82.408 42.6587 84.2446 38.7927 86.4352C38.4042 86.655 38.268 87.1481 38.4881 87.5366C38.6634 87.8461 39.0124 87.9959 39.3438 87.9322C39.4279 87.916 39.5109 87.886 39.5895 87.8412C41.4729 86.7743 43.4286 85.8029 45.4329 84.9157C45.8049 84.7511 46.2423 84.9276 46.3991 85.3029L46.4003 85.3059C46.5533 85.672 46.3833 86.0929 46.0191 86.2504C45.7271 86.3767 45.4361 86.5043 45.1491 86.6382C44.7445 86.8265 44.5694 87.3075 44.7581 87.712C44.9177 88.055 45.2874 88.2327 45.6424 88.1644C45.7067 88.152 45.7703 88.1318 45.8319 88.103C47.096 87.5138 48.3903 86.9701 49.7038 86.4627C50.0814 86.3168 50.5074 86.5116 50.6477 86.8912L50.6511 86.9004C50.7878 87.2702 50.6015 87.6773 50.2343 87.821C48.3803 88.5464 46.5694 89.3573 44.8126 90.2523C44.4148 90.455 44.2569 90.9419 44.4591 91.3394C44.6263 91.6677 44.9872 91.833 45.3317 91.7667C45.4046 91.7527 45.4769 91.7279 45.5462 91.6929C49.4567 89.7003 53.6407 88.1289 57.9816 87.0221C60.5804 86.36 63.232 85.8661 65.8593 85.5545C66.3097 85.4936 66.6193 85.0993 66.5671 84.6569C66.5144 84.2132 66.1128 83.8966 65.6695 83.9489Z" fill="#F9B2CD"/>
<path id="Vector_4" d="M82.5122 77.9253C77.8593 77.2823 73.0652 77.1414 68.2625 77.5061C67.8225 77.5441 67.4844 77.9282 67.5178 78.3734C67.5515 78.8182 67.9399 79.1518 68.3851 79.118C70.6937 78.9426 72.9982 78.8982 75.2865 78.9639C75.6977 78.9757 76.0168 79.3311 75.99 79.7416L75.9878 79.777C75.9624 80.1666 75.6335 80.461 75.2433 80.4478C71.415 80.318 67.548 80.5414 63.6786 81.1106C63.3372 81.1608 63.0172 80.9368 62.9521 80.598L62.9113 80.3859C62.8512 80.0732 63.0416 79.7961 63.3273 79.6555C63.6349 79.5041 63.8136 79.162 63.7589 78.8066C63.6906 78.3657 63.2776 78.0633 62.8363 78.1317C60.579 78.4822 58.3018 78.9483 56.068 79.5173C55.4359 79.6782 54.8082 79.8476 54.1848 80.0245C53.7553 80.1461 53.5061 80.593 53.6281 81.0225C53.7432 81.4287 54.1496 81.6741 54.5573 81.5957C54.5802 81.5913 54.6033 81.5861 54.6261 81.5793C55.2351 81.4067 55.8489 81.2409 56.4672 81.0834C57.6583 80.7798 58.8614 80.5183 60.0673 80.2809C60.4621 80.2032 60.8297 80.3895 60.9321 80.9223C61.0345 81.4551 60.8766 81.5629 60.7379 81.6432C60.4426 81.814 60.2645 82.1497 60.3311 82.503C60.4138 82.9416 60.8369 83.2295 61.2755 83.1468C64.3248 82.5703 67.3774 82.219 70.4146 82.0877C70.8218 82.0701 71.1641 82.3961 71.1726 82.8037L71.1734 82.8401C71.1817 83.2376 70.8682 83.5656 70.4709 83.5784C70.0368 83.5923 69.6026 83.6099 69.1684 83.6361C68.7267 83.6648 68.384 84.0457 68.4103 84.4916C68.4373 84.9373 68.82 85.2764 69.2658 85.2497C72.5946 85.0487 75.9286 85.1353 79.1758 85.5066C79.2596 85.5162 79.342 85.5128 79.4207 85.4977C79.7582 85.4328 80.0295 85.1552 80.0705 84.7957C80.1215 84.3523 79.8029 83.9515 79.3596 83.9009C77.5703 83.6963 75.7544 83.5862 73.9286 83.5525C73.5399 83.5453 73.2259 83.2363 73.2178 82.8476L73.2163 82.7805C73.2077 82.3698 73.5425 82.0287 73.9533 82.0343C76.1524 82.0642 78.3397 82.2104 80.5074 82.4771C80.5934 82.4875 80.678 82.4845 80.7586 82.469C81.0938 82.4045 81.3643 82.1307 81.4081 81.7735C81.4628 81.3306 81.1476 80.9275 80.7044 80.8729C80.0344 80.7905 79.3623 80.7218 78.6888 80.6628C78.2963 80.6284 78.0027 80.2901 78.0284 79.897L78.0322 79.8372C78.0585 79.434 78.4102 79.1273 78.813 79.1591C79.9799 79.2512 81.1412 79.3677 82.2916 79.5266C82.3816 79.539 82.4703 79.5364 82.5548 79.5202C82.8853 79.4566 83.1541 79.1887 83.2025 78.8367C83.2634 78.394 82.9543 77.9861 82.5122 77.9253Z" fill="#F9B2CD"/>
</g>
<g id="Mitochondria">
<path id="Vector_5" d="M85.824 176.166C84.8729 172.853 81.365 170.776 78.102 171.889C74.2442 173.204 71.4264 174.046 67.4072 172.698C63.3881 171.351 59.1296 173.242 57.8957 176.922C56.6618 180.602 58.8637 184.858 62.9388 186.025C69.948 188.033 76.3938 185.856 81.5462 183.888C84.7668 182.658 86.7751 179.48 85.824 176.166ZM81.6283 181.774C81.1416 181.969 80.6015 181.799 80.3175 181.392C80.27 181.324 80.2299 181.25 80.1982 181.169L79.7294 179.981C79.5949 179.64 79.2202 179.466 78.8707 179.577C78.7372 179.619 78.6033 179.661 78.4689 179.701C78.104 179.812 77.8916 180.19 77.9964 180.556L78.4276 182.066C78.5787 182.595 78.3585 183.188 77.8618 183.425C77.3425 183.672 76.7644 183.488 76.4667 183.062C76.3983 182.964 76.3446 182.853 76.3099 182.731L75.8286 181.046C75.7292 180.698 75.3807 180.489 75.0257 180.559C74.7704 180.61 74.5141 180.658 74.2567 180.703C73.8772 180.77 73.6207 181.125 73.6879 181.505L74.0158 183.358C74.1226 183.961 73.7199 184.537 73.1165 184.644C72.6773 184.721 72.2524 184.529 72.0127 184.186C71.9232 184.058 71.8596 183.909 71.8305 183.744L71.4689 181.701C71.4067 181.349 71.0883 181.107 70.7325 181.133C70.4863 181.151 70.2404 181.166 69.9949 181.178C69.6047 181.198 69.3063 181.529 69.3345 181.919L69.41 182.965C69.4513 183.537 69.088 184.094 68.5259 184.204C68.0689 184.293 67.6389 184.095 67.398 183.75C67.2874 183.591 67.2165 183.402 67.2016 183.195L67.1023 181.819C67.077 181.469 66.793 181.198 66.4427 181.179C66.2065 181.167 65.9714 181.151 65.7376 181.134C65.3404 181.104 64.9991 181.404 64.9876 181.803L64.9682 182.478C64.9524 183.027 64.5637 183.525 64.0195 183.601C63.5747 183.663 63.1752 183.464 62.9472 183.137C62.8155 182.949 62.7413 182.718 62.7482 182.471L62.9659 174.917C62.9837 174.305 63.4945 173.823 64.1072 173.84C64.7201 173.858 65.2011 174.368 65.1842 174.981L65.113 177.452C65.1025 177.818 65.3773 178.136 65.7431 178.166C65.8458 178.174 65.9489 178.182 66.0522 178.189C66.4708 178.219 66.8167 177.863 66.7864 177.445L66.6659 175.775C66.622 175.164 67.0815 174.633 67.6928 174.589C68.3034 174.545 68.8353 175.004 68.8794 175.616L69.0215 177.584C69.0485 177.958 69.3666 178.247 69.7409 178.23C69.8504 178.225 69.9599 178.22 70.0695 178.213C70.4822 178.191 70.7794 177.805 70.7074 177.398L70.551 176.514C70.4549 175.971 70.7369 175.402 71.2575 175.22C71.9223 174.987 72.6089 175.406 72.7263 176.071L72.931 177.228C72.9973 177.602 73.3545 177.859 73.7296 177.794C73.8522 177.773 73.9745 177.751 74.0965 177.728C74.4969 177.654 74.7431 177.246 74.6313 176.854L74.2829 175.634C74.1312 175.103 74.3537 174.508 74.8535 174.273C75.4909 173.973 76.2151 174.32 76.4006 174.969L76.8034 176.379C76.9092 176.749 77.2974 176.967 77.666 176.855C77.6707 176.853 77.6754 176.852 77.6801 176.851C78.0711 176.732 78.2813 176.309 78.1313 175.929L77.4648 174.239C77.2434 173.677 77.5241 173.036 78.0921 172.808C78.6601 172.579 79.3017 172.851 79.5222 173.412L82.2559 180.342C82.477 180.904 82.1963 181.545 81.6283 181.774Z" fill="#C03969"/>
<path id="Vector_6" d="M20.671 88.45C16.8738 92.4502 12.3867 97.5642 11.5462 104.807C11.0575 109.017 14.1402 112.686 18.012 112.961C21.8838 113.237 25.2663 110.032 25.5671 105.804C25.8679 101.576 27.7282 99.2979 30.4251 96.2419C32.7062 93.6571 32.1376 89.6206 29.4441 87.4689C26.7505 85.3173 23.0444 85.9497 20.671 88.45ZM24.2175 89.1582L29.5646 94.3457C29.998 94.765 30.0021 95.4617 29.5726 95.8982C29.1432 96.3347 28.4437 96.3476 28.0101 95.9272L26.7063 94.6624C26.413 94.3778 25.9418 94.4093 25.6819 94.7247C25.6788 94.7285 25.6757 94.7323 25.6725 94.7361C25.4278 95.0335 25.4795 95.4756 25.7807 95.7155L26.9276 96.6293C27.4552 97.0498 27.4972 97.8518 26.9755 98.3251C26.5665 98.6962 25.931 98.6726 25.4991 98.3285L24.5069 97.5378C24.1884 97.284 23.7169 97.3544 23.4945 97.6956C23.4267 97.7995 23.3594 97.904 23.2927 98.009C23.0884 98.3302 23.188 98.7587 23.5086 98.964L24.4977 99.5975C25.0663 99.9614 25.1896 100.757 24.7191 101.281C24.3506 101.691 23.7168 101.733 23.2523 101.435L22.4966 100.951C22.1485 100.728 21.6784 100.854 21.4986 101.227C21.4508 101.325 21.4036 101.424 21.357 101.524C21.1974 101.863 21.3423 102.267 21.6768 102.436L23.4393 103.324C23.9868 103.6 24.2066 104.267 23.9312 104.814C23.6552 105.361 22.9884 105.581 22.4411 105.306L20.9461 104.553C20.5714 104.364 20.1103 104.547 19.9767 104.944C19.9437 105.043 19.9113 105.141 19.8796 105.239C19.7667 105.588 19.9542 105.964 20.2969 106.095L22.6046 106.979C23.177 107.199 23.4633 107.839 23.2442 108.412C23.0249 108.984 22.3834 109.27 21.8112 109.051L14.7544 106.349C14.5232 106.26 14.3389 106.103 14.2154 105.909C14.0017 105.573 13.9713 105.128 14.1994 104.741C14.4785 104.268 15.0878 104.1 15.6009 104.297L16.2318 104.538C16.6037 104.681 17.0124 104.481 17.1374 104.103C17.2109 103.881 17.2874 103.658 17.3666 103.435C17.4841 103.104 17.3428 102.738 17.0295 102.58L15.7971 101.959C15.6119 101.866 15.4645 101.728 15.3607 101.565C15.1348 101.21 15.1172 100.737 15.375 100.349C15.6921 99.8722 16.3465 99.7512 16.858 100.009L17.7953 100.481C18.1443 100.657 18.5643 100.508 18.7327 100.156C18.8387 99.9341 18.9471 99.7129 19.0581 99.4924C19.2185 99.1738 19.1174 98.7867 18.817 98.5944L17.0691 97.4749C16.9287 97.3848 16.8156 97.2689 16.7316 97.137C16.5069 96.7838 16.4927 96.3176 16.7332 95.942C17.0637 95.426 17.7501 95.2756 18.2661 95.6061L19.8506 96.6209C20.1751 96.8287 20.6022 96.7288 20.8096 96.404C20.9504 96.1837 21.0933 95.9656 21.238 95.7493C21.4393 95.4486 21.38 95.0464 21.0969 94.8209L19.7261 93.7288C19.6272 93.65 19.5454 93.5578 19.4812 93.457C19.202 93.0182 19.2542 92.4138 19.6823 92.0295C20.0916 91.6619 20.724 91.6866 21.1543 92.0294L22.3823 93.0078C22.6805 93.2454 23.1112 93.1947 23.3534 92.9003C23.4426 92.7919 23.5323 92.6841 23.6226 92.5771C23.859 92.2969 23.8429 91.8844 23.5797 91.6291L22.6627 90.7395C22.6009 90.6793 22.5475 90.6137 22.503 90.5437C22.2367 90.1253 22.2869 89.5611 22.6547 89.187C23.0844 88.7507 23.7839 88.7379 24.2175 89.1582Z" fill="#C03969"/>
<path id="Vector_7" d="M81.4367 53.5524C79.6018 56.471 80.3939 60.4696 83.3988 62.1593C86.9515 64.157 89.458 65.6953 91.1341 69.5889C92.8102 73.4825 97.0592 75.3947 100.624 73.8599C104.19 72.3251 105.893 67.8461 104.045 64.031C100.867 57.4691 94.9461 54.1174 90.0436 51.5905C86.9792 50.0109 83.2716 50.6339 81.4367 53.5524ZM88.4129 52.9396C88.8833 53.1717 89.1165 53.6879 89.0028 54.1707C88.9838 54.2514 88.9551 54.3309 88.9165 54.4081L88.3435 55.5501C88.179 55.8778 88.2996 56.2726 88.6151 56.4594C88.7356 56.5307 88.8558 56.6029 88.9757 56.6759C89.3014 56.8742 89.7247 56.7802 89.9281 56.4577L90.7655 55.1295C91.0589 54.6641 91.6479 54.4326 92.1555 54.6449C92.6862 54.8669 92.9345 55.4204 92.8153 55.9266C92.7879 56.043 92.741 56.157 92.6735 56.2639L91.7387 57.7464C91.5457 58.0525 91.6221 58.4518 91.9112 58.6695C92.119 58.826 92.3258 58.9849 92.5313 59.1466C92.8341 59.385 93.2703 59.3387 93.5082 59.0357L94.6702 57.5558C95.0486 57.0739 95.7463 56.9899 96.2282 57.3683C96.5789 57.6438 96.7191 58.0887 96.6231 58.4961C96.5873 58.6483 96.5186 58.795 96.4157 58.9263L95.1338 60.5588C94.9135 60.8393 94.9455 61.2382 95.2018 61.4862C95.3792 61.6578 95.5544 61.831 95.7275 62.0055C96.0026 62.283 96.4481 62.2847 96.7197 62.0038L97.4493 61.2495C97.8474 60.8378 98.5052 60.7366 98.9616 61.0825C99.3327 61.3637 99.4718 61.8163 99.3754 62.2258C99.3311 62.4139 99.2374 62.5929 99.0932 62.7419L98.1339 63.7337C97.89 63.9859 97.8773 64.3784 98.0971 64.6519C98.2453 64.8363 98.3909 65.0215 98.5336 65.2074C98.7761 65.5233 99.2277 65.5772 99.532 65.3203L100.048 64.8845C100.468 64.53 101.098 64.4874 101.518 64.8424C101.86 65.1326 101.978 65.5632 101.887 65.9507C101.835 66.1746 101.712 66.3837 101.523 66.5436L95.7495 71.4185C95.2813 71.8136 94.5813 71.7546 94.1858 71.2863C93.7904 70.8177 93.8499 70.1189 94.318 69.7226L96.2061 68.1284C96.4865 67.8916 96.5398 67.475 96.3182 67.1825C96.256 67.1004 96.1931 67.0183 96.1296 66.9365C95.8725 66.6049 95.3769 66.5842 95.0852 66.8858L93.9214 68.089C93.4953 68.5293 92.7931 68.541 92.3524 68.1151C91.9124 67.6894 91.9001 66.9867 92.3263 66.5461L93.6983 65.1275C93.9587 64.8582 93.9622 64.4282 93.6999 64.1606C93.6232 64.0823 93.5461 64.0044 93.4684 63.9268C93.1761 63.6346 92.6906 63.6702 92.4354 63.9953L91.8812 64.7012C91.5405 65.1351 90.9283 65.3045 90.4452 65.0382C89.8283 64.6982 89.6831 63.9067 90.1001 63.3759L90.8255 62.4521C91.0606 62.1527 91.0136 61.7153 90.715 61.4793C90.6174 61.4021 90.5195 61.3257 90.4213 61.2498C90.099 61.0009 89.6306 61.0896 89.4134 61.4341L88.7368 62.5072C88.4423 62.9743 87.85 63.2058 87.3416 62.9901C86.6932 62.715 86.4689 61.9439 86.8286 61.3731L87.6107 60.1327C87.8161 59.807 87.7193 59.3725 87.3904 59.1723C87.3862 59.1698 87.382 59.1672 87.3778 59.1646C87.0286 58.9523 86.5733 59.0778 86.39 59.4431L85.5754 61.0667C85.3044 61.6064 84.6396 61.8246 84.0904 61.5538C83.5412 61.283 83.3157 60.6239 83.5868 60.0853L86.9279 53.4266C87.1989 52.887 87.8636 52.6688 88.4129 52.9396Z" fill="#C03969"/>
</g>
<g id="Granules">
<path id="Vector_8" d="M27.8354 65.8237C31.8301 65.8237 35.0683 62.5854 35.0683 58.5908C35.0683 54.5962 31.8301 51.3579 27.8354 51.3579C23.8408 51.3579 20.6025 54.5962 20.6025 58.5908C20.6025 62.5854 23.8408 65.8237 27.8354 65.8237Z" fill="#F9B2CD"/>
<path id="Vector_9" d="M45.9179 35.9447C47.552 35.9447 48.8768 34.6199 48.8768 32.9858C48.8768 31.3516 47.552 30.0269 45.9179 30.0269C44.2837 30.0269 42.959 31.3516 42.959 32.9858C42.959 34.6199 44.2837 35.9447 45.9179 35.9447Z" fill="#F9B2CD"/>
<path id="Vector_10" d="M47.5613 52.3678C50.2765 52.3678 52.4776 50.1667 52.4776 47.4515C52.4776 44.7363 50.2765 42.5352 47.5613 42.5352C44.8461 42.5352 42.645 44.7363 42.645 47.4515C42.645 50.1667 44.8461 52.3678 47.5613 52.3678Z" fill="#F9B2CD"/>
<path id="Vector_11" d="M53.597 29.0304C56.3122 29.0304 58.5133 26.8293 58.5133 24.1141C58.5133 21.3989 56.3122 19.1978 53.597 19.1978C50.8818 19.1978 48.6807 21.3989 48.6807 24.1141C48.6807 26.8293 50.8818 29.0304 53.597 29.0304Z" fill="#EC6799"/>
<path id="Vector_12" d="M68.4036 28.6931C72.2063 28.6931 75.2891 25.6104 75.2891 21.8076C75.2891 18.0049 72.2063 14.9221 68.4036 14.9221C64.6008 14.9221 61.5181 18.0049 61.5181 21.8076C61.5181 25.6104 64.6008 28.6931 68.4036 28.6931Z" fill="#F9B2CD"/>
<path id="Vector_13" d="M82.3315 34.2748C84.6776 34.2748 86.5795 32.3729 86.5795 30.0268C86.5795 27.6807 84.6776 25.7788 82.3315 25.7788C79.9854 25.7788 78.0835 27.6807 78.0835 30.0268C78.0835 32.3729 79.9854 34.2748 82.3315 34.2748Z" fill="#EC6799"/>
<path id="Vector_14" d="M58.331 43.2748C60.6771 43.2748 62.579 41.3729 62.579 39.0268C62.579 36.6807 60.6771 34.7788 58.331 34.7788C55.9849 34.7788 54.083 36.6807 54.083 39.0268C54.083 41.3729 55.9849 43.2748 58.331 43.2748Z" fill="#EC6799"/>
<path id="Vector_15" d="M66.5728 37.7755C67.5838 37.7755 68.4034 36.9559 68.4034 35.9449C68.4034 34.9338 67.5838 34.1143 66.5728 34.1143C65.5618 34.1143 64.7422 34.9338 64.7422 35.9449C64.7422 36.9559 65.5618 37.7755 66.5728 37.7755Z" fill="#EC6799"/>
<path id="Vector_16" d="M36.5728 27.7755C37.5838 27.7755 38.4034 26.9559 38.4034 25.9449C38.4034 24.9338 37.5838 24.1143 36.5728 24.1143C35.5618 24.1143 34.7422 24.9338 34.7422 25.9449C34.7422 26.9559 35.5618 27.7755 36.5728 27.7755Z" fill="#EC6799"/>
<path id="Vector_17" d="M67.0268 58.5908C71.0215 58.5908 74.2597 55.3525 74.2597 51.3579C74.2597 47.3633 71.0215 44.125 67.0268 44.125C63.0322 44.125 59.7939 47.3633 59.7939 51.3579C59.7939 55.3525 63.0322 58.5908 67.0268 58.5908Z" fill="#EC6799"/>
<path id="Vector_18" d="M41.0409 66.0819C42.6751 66.0819 43.9998 64.7571 43.9998 63.123C43.9998 61.4888 42.6751 60.1641 41.0409 60.1641C39.4068 60.1641 38.082 61.4888 38.082 63.123C38.082 64.7571 39.4068 66.0819 41.0409 66.0819Z" fill="#EC6799"/>
<path id="Vector_19" d="M31.0409 46.0819C32.6751 46.0819 33.9998 44.7571 33.9998 43.123C33.9998 41.4888 32.6751 40.1641 31.0409 40.1641C29.4068 40.1641 28.082 41.4888 28.082 43.123C28.082 44.7571 29.4068 46.0819 31.0409 46.0819Z" fill="#EC6799"/>
<path id="Vector_20" d="M75.289 43.1229C76.9231 43.1229 78.2479 41.7981 78.2479 40.164C78.2479 38.5298 76.9231 37.2051 75.289 37.2051C73.6548 37.2051 72.3301 38.5298 72.3301 40.164C72.3301 41.7981 73.6548 43.1229 75.289 43.1229Z" fill="#F9B2CD"/>
</g>
</g>
</svg>
