<svg width="25" height="101" viewBox="0 0 25 101" fill="none" xmlns="http://www.w3.org/2000/svg">
<g id="R-ICO-012481">
<path id="Vector" d="M22.9065 51.4192C22.9625 49.9818 24.1945 43.0565 23.9549 40.5365C23.7153 38.0165 24.0221 36.9177 23.9549 35.0334C23.8876 33.1492 23.5511 27.5885 23.4838 23.3825C23.4165 19.1765 20.8256 18.9073 20.0517 18.84C19.2778 18.7727 18.2025 17.9123 16.6345 17.3523C15.0665 16.7923 15.2905 13.1709 15.2905 13.1709C16.2238 11.8269 16.4478 12.0136 16.4478 11.0803C16.4478 11.0803 17.3812 10.7816 17.3812 9.58691C17.3812 8.39226 17.5678 7.57089 16.8958 7.68294C16.8958 7.68294 18.5152 0.328293 12.4158 0.328293C6.31635 0.328293 7.99667 7.68294 7.99667 7.68294C7.32466 7.57095 7.51134 8.39232 7.51134 9.58691C7.51134 10.7816 8.4447 11.0803 8.4447 11.0803C8.4447 12.0136 8.66868 11.8269 9.60204 13.1709C9.60204 13.1709 10.3249 16.8913 8.75689 17.4513C7.1889 18.0113 5.9323 18.7727 5.15835 18.84C4.38447 18.9073 1.79352 19.1765 1.72626 23.3825C1.659 27.5885 0.426448 33.1492 0.359122 35.0334C0.291797 36.9177 0.598802 38.0165 0.359122 40.5365C0.119509 43.0565 1.35147 49.9818 1.4075 51.4192C1.46353 52.8565 0.623499 54.5925 1.0155 55.2645C1.4075 55.9365 1.96751 56.6833 1.96751 56.6833L3.03152 56.9445C3.03152 56.9445 3.42352 55.9925 3.14351 55.8246C2.8635 55.6565 3.85638 55.0634 3.72389 54.464C3.59147 53.8646 2.91947 52.1099 2.91947 51.4192C2.91947 50.7286 3.46425 44.1766 3.47186 42.7206C3.47948 41.2646 3.12827 37.6244 3.47186 35.7764C3.81545 33.9284 4.40799 28.1238 4.40799 28.1238C4.46539 28.4837 4.5142 28.8698 4.53883 29.2709C4.59873 30.2467 5.06981 38.053 5.06981 39.0288C5.06981 40.0046 4.7345 41.7542 5.06981 43.4242C5.31711 44.6559 4.39682 49.897 4.46415 53.1608C4.53147 56.4247 4.52011 67.5958 4.47525 69.1099C4.43052 70.624 4.02669 73.5851 4.32956 74.0898C4.63236 74.5946 4.26342 80.651 4.47525 83.4776C4.68708 86.3043 4.9217 90.8387 4.9217 90.8387C5.14798 92.7397 4.74067 94.0522 4.69542 94.4144C4.65016 94.7765 5.05753 95.908 4.3333 96.949C3.60914 97.99 2.86495 98.3441 2.78508 98.9034C2.70514 99.4627 2.61194 99.982 3.1713 99.8489C3.1713 99.8489 3.39764 100.222 3.74386 99.9554C3.74386 99.9554 4.11675 100.32 4.4497 100.051C4.4497 100.051 4.76576 100.448 5.2869 100.022C5.2869 100.022 5.38188 100.328 6.06104 100.328C6.74021 100.328 6.93995 99.8355 6.93995 99.8355C6.93995 99.8355 7.96534 99.6091 7.71239 98.1442C7.71239 98.1442 8.27175 98.0377 8.24502 97.212C8.21842 96.3864 7.9254 96.5328 7.9254 95.7471C7.9254 94.9614 8.36489 94.5752 8.36489 94.1491C8.36489 93.7229 7.83023 93.2841 7.88553 92.1382C7.94077 90.9922 9.43409 86.6242 9.44401 82.1652C9.45123 78.9145 9.10751 75.7721 9.14114 74.5272C9.17484 73.2822 10.588 66.0142 11.0591 62.5485C11.5301 59.0828 12.0012 57.535 12.0012 54.3721H12.3126C12.3126 57.535 12.7837 59.0828 13.2548 62.5485C13.7259 66.0142 15.1391 73.2822 15.1727 74.5272C15.2064 75.7721 14.8627 78.9145 14.8699 82.1652C14.8798 86.6242 16.3732 90.9922 16.4284 92.1382C16.4836 93.2841 15.949 93.7229 15.949 94.1491C15.949 94.5752 16.3885 94.9614 16.3885 95.7471C16.3885 96.5328 16.0955 96.3864 16.0688 97.212C16.0422 98.0377 16.6015 98.1442 16.6015 98.1442C16.3485 99.6091 17.374 99.8355 17.374 99.8355C17.374 99.8355 17.5737 100.328 18.2529 100.328C18.9321 100.328 19.0271 100.022 19.0271 100.022C19.5483 100.448 19.8642 100.051 19.8642 100.051C20.1972 100.32 20.57 99.9554 20.57 99.9554C20.9163 100.222 21.1427 99.8489 21.1427 99.8489C21.702 99.982 21.6087 99.4627 21.5289 98.9034C21.449 98.3441 20.7048 97.99 19.9806 96.949C19.2565 95.908 19.6638 94.7765 19.6185 94.4144C19.5733 94.0522 19.1659 92.7397 19.3922 90.8387C19.3922 90.8387 19.6268 86.3042 19.8386 83.4776C20.0504 80.651 19.6816 74.5946 19.9844 74.0898C20.2872 73.5851 19.8835 70.6241 19.8386 69.1099C19.7938 67.5958 19.7825 56.4246 19.8498 53.1608C19.917 49.897 18.9254 44.6393 19.2441 43.4242C19.6326 41.9437 19.2441 40.0046 19.2441 39.0288C19.2441 38.053 19.7152 30.2467 19.7751 29.2709C19.7997 28.8697 19.8478 28.4837 19.9054 28.1238C19.9054 28.1238 20.4985 33.9284 20.8421 35.7764C21.1857 37.6244 20.8344 41.2646 20.8421 42.7206C20.8497 44.1766 21.3945 50.7286 21.3945 51.4192C21.3945 52.1099 20.7225 53.8646 20.59 54.464C20.4576 55.0634 21.4505 55.6565 21.1705 55.8246C20.8905 55.9926 21.2825 56.9445 21.2825 56.9445L22.3465 56.6833C22.3465 56.6833 22.9065 55.9365 23.2985 55.2645C23.6905 54.5925 22.8505 52.8565 22.9065 51.4192Z" fill="white"/>
<path id="Vector_2" d="M15.2905 13.171C15.2905 13.171 15.0665 16.7923 16.6345 17.3523C18.2025 17.9123 19.2778 18.7727 20.0517 18.8401C20.8256 18.9074 23.4164 19.1766 23.4838 23.3825C23.5511 27.5885 23.8875 33.1492 23.9549 35.0335C24.0222 36.9177 23.7152 38.0166 23.9549 40.5366C24.1945 43.0566 22.9625 49.9819 22.9065 51.4192C22.8505 52.8566 23.6905 54.5925 23.2985 55.2645C22.9065 55.9365 22.3465 56.6833 22.3465 56.6833L21.2825 56.9446C21.2825 56.9446 20.8905 55.9926 21.1705 55.8246C21.4505 55.6566 20.4576 55.0635 20.59 54.464C20.7224 53.8646 21.3944 52.1099 21.3944 51.4193C21.3944 50.7286 20.8497 44.1766 20.842 42.7206C20.8344 41.2646 21.1856 37.6245 20.842 35.7765C20.4985 33.9285 19.9059 28.1238 19.9059 28.1238" stroke="#0F82BC" stroke-width="0.656835" stroke-miterlimit="10" stroke-linecap="round" stroke-linejoin="round"/>
<path id="Vector_3" d="M15.944 48.283C15.5333 48.7683 14.5253 49.627 14.0026 49.907C13.48 50.187 13.3493 50.8404 13.3867 51.4785C13.4537 52.625 13.4232 54.3386 12.111 54.3722C10.7987 54.4058 10.904 51.6057 10.904 51.6057C10.904 50.6536 10.8293 50.6536 10.3627 50.2057C9.89598 49.7577 8.70132 48.9924 8.2533 48.4697" stroke="#0F82BC" stroke-width="0.656835" stroke-miterlimit="10" stroke-linecap="round" stroke-linejoin="round"/>
<path id="Vector_4" d="M11.6415 41.7542C11.6396 42.2926 12.5818 42.2253 12.3126 41.7542" stroke="#0F82BC" stroke-width="0.656835" stroke-miterlimit="10" stroke-linecap="round" stroke-linejoin="round"/>
<path id="Vector_5" d="M20.1686 26.7697C20.034 27.409 19.835 28.2951 19.7751 29.2709C19.7152 30.2467 19.2442 38.053 19.2442 39.0288C19.2442 40.0046 19.6327 41.9438 19.2442 43.4242C18.9254 44.6393 19.9171 49.897 19.8499 53.1609C19.7826 56.4247 19.7939 67.5958 19.8387 69.1099C19.8835 70.6241 20.2873 73.5851 19.9845 74.0898C19.6817 74.5945 20.0505 80.6509 19.8387 83.4775C19.6269 86.3042 19.3923 90.8386 19.3923 90.8386C19.166 92.7397 19.5733 94.0522 19.6185 94.4143C19.6638 94.7764 19.2564 95.908 19.9806 96.949C20.7048 97.99 21.449 98.344 21.5289 98.9034C21.6089 99.4627 21.7021 99.9821 21.1427 99.8489C21.1427 99.8489 20.9163 100.222 20.5701 99.9554C20.5701 99.9554 20.1972 100.32 19.8643 100.051C19.8643 100.051 19.5483 100.448 19.0271 100.022C19.0271 100.022 18.932 100.328 18.2528 100.328C17.5737 100.328 17.3739 99.8356 17.3739 99.8356C17.3739 99.8356 16.3485 99.6092 16.6016 98.1443C16.6016 98.1443 16.0423 98.0377 16.0689 97.2121C16.0955 96.3865 16.3885 96.5329 16.3885 95.7472C16.3885 94.9615 15.949 94.5753 15.949 94.1492C15.949 93.723 16.4837 93.2842 16.4284 92.1382C16.3732 90.9923 14.8799 86.6242 14.8699 82.1653C14.8627 78.9146 15.2064 75.7722 15.1727 74.5272C15.139 73.2823 13.7259 66.0143 13.2548 62.5486C12.7837 59.0829 12.3126 57.5351 12.3126 54.3722" stroke="#0F82BC" stroke-width="0.656835" stroke-miterlimit="10" stroke-linecap="round" stroke-linejoin="round"/>
<path id="Vector_6" d="M9.60199 13.171C9.60199 13.171 10.3248 16.8914 8.75684 17.4514C7.18884 18.0114 5.93219 18.7727 5.1583 18.8401C4.38442 18.9074 1.79353 19.1766 1.72621 23.3825C1.65888 27.5885 0.426462 33.1492 0.359137 35.0335C0.291811 36.9177 0.598816 38.0166 0.359137 40.5366C0.119458 43.0566 1.35148 49.9819 1.40751 51.4192C1.46354 52.8566 0.623513 54.5925 1.01551 55.2645C1.40751 55.9365 1.96753 56.6833 1.96753 56.6833L3.03154 56.9446C3.03154 56.9446 3.42354 55.9926 3.14353 55.8246C2.86352 55.6566 3.85639 55.0635 3.72397 54.464C3.59155 53.8646 2.91955 52.1099 2.91955 51.4193C2.91955 50.7286 3.46433 44.1766 3.47194 42.7206C3.47956 41.2646 3.12835 37.6245 3.47194 35.7765C3.81553 33.9285 4.40807 28.1238 4.40807 28.1238" stroke="#0F82BC" stroke-width="0.656835" stroke-miterlimit="10" stroke-linecap="round" stroke-linejoin="round"/>
<path id="Vector_7" d="M4.14547 26.7697C4.28005 27.409 4.47901 28.2951 4.53891 29.2709C4.59881 30.2467 5.0699 38.053 5.0699 39.0288C5.0699 40.0046 4.73458 41.7543 5.0699 43.4242C5.3172 44.6559 4.39697 49.897 4.46423 53.1609C4.53149 56.4247 4.52019 67.5958 4.4754 69.1099C4.4306 70.6241 4.02684 73.5851 4.32964 74.0898C4.63244 74.5945 4.26357 80.6509 4.4754 83.4775C4.68722 86.3042 4.92185 90.8386 4.92185 90.8386C5.14813 92.7397 4.74082 94.0522 4.69557 94.4143C4.65031 94.7764 5.05768 95.908 4.33345 96.949C3.60929 97.99 2.8651 98.344 2.78516 98.9034C2.70529 99.4627 2.61202 99.9821 3.17138 99.8489C3.17138 99.8489 3.39779 100.222 3.74401 99.9554C3.74401 99.9554 4.11689 100.32 4.44984 100.051C4.44984 100.051 4.76585 100.448 5.28705 100.022C5.28705 100.022 5.38209 100.328 6.06126 100.328C6.74043 100.328 6.94017 99.8356 6.94017 99.8356C6.94017 99.8356 7.96562 99.6092 7.71254 98.1443C7.71254 98.1443 8.27184 98.0377 8.24523 97.2121C8.21863 96.3865 7.92562 96.5329 7.92562 95.7472C7.92562 94.9615 8.36511 94.5753 8.36511 94.1492C8.36511 93.723 7.83044 93.2842 7.88568 92.1382C7.94092 90.9923 9.43424 86.6242 9.44416 82.1653C9.45138 78.9146 9.10766 75.7722 9.14135 74.5272C9.17505 73.2823 10.5882 66.0143 11.0593 62.5486C11.5304 59.0829 12.0015 57.5351 12.0015 54.3722" stroke="#0F82BC" stroke-width="0.656835" stroke-miterlimit="10" stroke-linecap="round" stroke-linejoin="round"/>
<path id="Vector_8" d="M12.4767 14.6644C11.1713 14.6644 10.5354 14.515 9.60207 13.1711C8.66877 11.8271 8.44472 12.0137 8.44472 11.0804C8.44472 11.0804 7.51136 10.7817 7.51136 9.5871C7.51136 8.39245 7.32469 7.57107 7.9967 7.68306C7.9967 7.68306 6.31644 0.328415 12.4159 0.328415C18.5153 0.328415 16.8959 7.68306 16.8959 7.68306C17.5679 7.57107 17.3812 8.39238 17.3812 9.5871C17.3812 10.7818 16.4479 11.0804 16.4479 11.0804C16.4479 12.0138 16.2239 11.8271 15.2905 13.1711C14.3572 14.515 13.7821 14.6644 12.4767 14.6644Z" stroke="#0F82BC" stroke-width="0.656835" stroke-miterlimit="10" stroke-linecap="round" stroke-linejoin="round"/>
<path id="Vector_9" d="M11.8672 10.4979C11.9468 10.4183 12.086 10.5377 12.1657 10.6372C12.2453 10.7367 12.6295 10.7509 12.7426 10.6372C12.8225 10.5569 12.9696 10.3851 13.1405 10.5304" stroke="#0F82BC" stroke-width="0.328418" stroke-miterlimit="10" stroke-linecap="round" stroke-linejoin="round"/>
<path id="Vector_10" d="M14.7613 8.39887C14.6226 8.46686 14.4416 8.52052 14.2281 8.50489C13.7143 8.46732 13.564 8.36708 13.4387 8.37956" stroke="#0F82BC" stroke-width="0.328418" stroke-miterlimit="10" stroke-linecap="round" stroke-linejoin="round"/>
<path id="Vector_11" d="M10.1315 8.39789C10.2533 8.46633 10.4205 8.52058 10.6352 8.50489C11.149 8.46732 11.2993 8.36708 11.4246 8.37956" stroke="#0F82BC" stroke-width="0.328418" stroke-miterlimit="10" stroke-linecap="round" stroke-linejoin="round"/>
<path id="Vector_12" d="M13.5468 12.0226C13.3032 12.0131 13.0144 11.987 12.88 12.0139C12.6755 12.0548 12.7924 12.0957 12.5038 12.0957C12.2153 12.0957 12.2459 11.9903 12.0618 12.0021C11.9313 12.0104 11.6363 12.054 11.4246 12.0786" stroke="#0F82BC" stroke-width="0.328418" stroke-miterlimit="10" stroke-linecap="round" stroke-linejoin="round"/>
</g>
</svg>
