<svg width="132" height="37" viewBox="0 0 132 37" fill="none" xmlns="http://www.w3.org/2000/svg">
<g id="R-ICO-013630">
<g id="DNA METHYLATION PROTEIN">
<path d="M0.95752 11.5C0.95752 5.97715 5.43467 1.5 10.9575 1.5H119.958C125.48 1.5 129.958 5.97715 129.958 11.5V25.5C129.958 31.0228 125.48 35.5 119.958 35.5H10.9575C5.43467 35.5 0.95752 31.0228 0.95752 25.5V11.5Z" fill="url(#paint0_linear_938_23727)"/>
<path d="M88.1656 2.99266C62.4295 2.87443 36.6936 2.52283 10.9575 1.64001C10.9575 1.54664 10.9575 1.45328 10.9575 1.35991C36.6936 0.477089 62.4295 0.125486 88.1656 0.00726104C98.7626 -0.0238478 109.36 0.0501527 119.958 0.131314C122.538 0.138942 125.107 1.07101 127.085 2.70997C129.692 4.826 131.254 8.16191 131.199 11.5C131.151 16.1667 131.088 20.8333 131.014 25.5C131.067 31.3997 125.687 36.5235 119.959 36.2659C119.958 36.2659 119.958 36.2658 119.958 36.2658C107.09 36.0221 94.2209 35.8466 81.3535 35.953C68.4855 36.056 55.6164 36.4645 42.7484 36.6648C32.1515 36.7989 21.5546 36.7623 10.9575 36.6589C8.42423 36.6463 5.90866 35.7238 3.97706 34.1105C1.43353 32.0235 -0.0715994 28.7538 0.00275654 25.5C0.0826442 20.8333 0.182269 16.1667 0.30576 11.5C0.314478 5.80835 5.56591 1.00418 10.9575 1.35991C10.9575 1.45328 10.9575 1.54664 10.9575 1.64001C5.69611 1.73666 1.34142 6.53816 1.60915 11.5C1.73263 16.1667 1.83224 20.8334 1.91214 25.5C1.94615 28.1935 3.25415 30.7936 5.34348 32.4268C6.93291 33.6879 8.9434 34.3699 10.9575 34.3412C21.5544 34.2378 32.1513 34.2012 42.7484 34.3353C55.6164 34.5356 68.4855 34.9428 81.3535 35.0457C94.2211 35.1521 107.09 34.978 119.958 34.7342C119.958 34.7342 119.958 34.7342 119.959 34.7342C124.883 34.7343 129.107 30.2528 128.901 25.5C128.827 20.8333 128.764 16.1667 128.716 11.5C128.701 8.89162 127.451 6.35843 125.426 4.75411C123.883 3.5179 121.925 2.84489 119.958 2.86863C109.36 2.94985 98.7626 3.02399 88.1656 2.99266Z" fill="#0052AF"/>
<text id="DNA METHYLATION PROTEIN_2" fill="white" xml:space="preserve" style="white-space: pre" font-family="Arial" font-size="12" font-weight="bold" letter-spacing="0em"><tspan x="8.09424" y="15.6602">DNA METHYLATION&#10;</tspan><tspan x="38.7739" y="29.6602">PROTEIN</tspan></text>
</g>
</g>
<defs>
<linearGradient id="paint0_linear_938_23727" x1="65.4575" y1="1.5" x2="65.4575" y2="35.5" gradientUnits="userSpaceOnUse">
<stop stop-color="#FF7267"/>
<stop offset="1" stop-color="#06A2B2"/>
</linearGradient>
</defs>
</svg>
