<svg width="84" height="23" viewBox="0 0 84 23" fill="none" xmlns="http://www.w3.org/2000/svg">
<g id="R-ICO-013314">
<g id="RNA POL III">
<path d="M0.897949 11.5C0.897949 5.97715 5.3751 1.5 10.8979 1.5H71.8979C77.4208 1.5 81.8979 5.97715 81.8979 11.5C81.8979 17.0228 77.4208 21.5 71.8979 21.5H10.8979C5.3751 21.5 0.897949 17.0228 0.897949 11.5Z" fill="url(#paint0_linear_938_23582)"/>
<path d="M57.1062 2.99266C41.7034 2.87443 26.3007 2.52283 10.8979 1.64001C10.8979 1.54664 10.8979 1.45328 10.8979 1.35991C26.3007 0.477089 41.7034 0.125486 57.1062 0.00726104C62.0367 -0.0169231 66.9673 0.0224161 71.8979 0.0792595C75.0652 0.092173 78.1827 1.52375 80.2583 3.87313C82.1278 5.94397 83.1635 8.73861 83.1012 11.5C83.1364 17.4862 77.6251 22.6067 71.8987 22.2659C71.8984 22.2659 71.8982 22.2658 71.8979 22.2658C64.1968 22.0221 56.4949 21.8466 48.7938 21.953C41.0924 22.056 33.3904 22.4645 25.689 22.6648C20.7587 22.7691 15.8283 22.7702 10.8979 22.7169C7.78647 22.7061 4.72679 21.2871 2.70966 18.9708C0.895646 16.9255 -0.0865046 14.1857 0.00612634 11.5C0.0373646 5.66953 5.50499 0.850823 10.8979 1.35991C10.8979 1.45328 10.8979 1.54664 10.8979 1.64001C5.63795 1.88998 1.49932 6.67702 1.78962 11.5C1.8608 13.7532 2.78475 15.9203 4.31111 17.5089C6.0167 19.3081 8.45689 20.3263 10.8979 20.2832C15.8283 20.2299 20.7586 20.231 25.689 20.3353C33.3904 20.5356 41.0924 20.9428 48.7938 21.0457C56.495 21.1521 64.1967 20.978 71.8979 20.7342C71.8982 20.7342 71.8984 20.7342 71.8986 20.7342C76.8249 20.6516 80.9186 16.1666 80.6948 11.5C80.6539 9.32298 79.7839 7.21125 78.3136 5.64807C76.6666 3.88156 74.2837 2.87537 71.8979 2.92073C66.9673 2.97763 62.0367 3.01702 57.1062 2.99266Z" fill="url(#paint1_linear_938_23582)"/>
<text id="RNA POL III_2" fill="white" xml:space="preserve" style="white-space: pre" font-family="Arial" font-size="12" font-weight="bold" letter-spacing="0em"><tspan x="8.03467" y="15.6602">RNA POL III</tspan></text>
</g>
</g>
<defs>
<linearGradient id="paint0_linear_938_23582" x1="41.3979" y1="1.5" x2="41.3979" y2="21.5" gradientUnits="userSpaceOnUse">
<stop stop-color="#0E98A2"/>
<stop offset="1" stop-color="#042224"/>
</linearGradient>
<linearGradient id="paint1_linear_938_23582" x1="41.398" y1="1.5" x2="41.398" y2="21.5" gradientUnits="userSpaceOnUse">
<stop stop-color="#B78520"/>
<stop offset="1" stop-color="#A2317B"/>
</linearGradient>
</defs>
</svg>
