<svg width="86" height="24" viewBox="0 0 86 24" fill="none" xmlns="http://www.w3.org/2000/svg">
<g id="R-ICO-013846">
<g id="CHEMICAL_HEX">
<g id="LEFT_CORNER">
<mask id="mask0_938_25025" style="mask-type:luminance" maskUnits="userSpaceOnUse" x="0" y="0" width="10" height="24">
<rect id="MASK" width="10" height="24" transform="matrix(-1 0 0 1 10 0)" fill="white"/>
</mask>
<g mask="url(#mask0_938_25025)">
<g id="CORNER">
<mask id="path-2-outside-1_938_25025" maskUnits="userSpaceOnUse" x="0" y="0" width="12" height="24" fill="black">
<rect fill="white" width="12" height="24"/>
<path d="M2 12C2 12 6.04738 5.90524 8 2H10V22H8C6.04738 18.0948 2 12 2 12Z"/>
</mask>
<path d="M2 12C2 12 6.04738 5.90524 8 2H10V22H8C6.04738 18.0948 2 12 2 12Z" fill="#B78520"/>
<path d="M2 12C2 12 6.04738 5.90524 8 2H10V22H8C6.04738 18.0948 2 12 2 12Z" stroke="#3F31FF" stroke-width="4" stroke-miterlimit="3.99933" stroke-linejoin="round" mask="url(#path-2-outside-1_938_25025)"/>
</g>
</g>
</g>
<g id="RIGHT CORNER">
<mask id="mask1_938_25025" style="mask-type:luminance" maskUnits="userSpaceOnUse" x="76" y="0" width="10" height="24">
<rect id="MASK_2" width="10" height="24" transform="matrix(1 -8.74228e-08 -8.74228e-08 -1 76 24)" fill="white"/>
</mask>
<g mask="url(#mask1_938_25025)">
<g id="CORNER_2">
<mask id="path-4-outside-2_938_25025" maskUnits="userSpaceOnUse" x="74" y="0" width="12" height="24" fill="black">
<rect fill="white" x="74" width="12" height="24"/>
<path d="M84 12C84 12 79.9526 5.90524 78 2H76V22H78C79.9526 18.0948 84 12 84 12Z"/>
</mask>
<path d="M84 12C84 12 79.9526 5.90524 78 2H76V22H78C79.9526 18.0948 84 12 84 12Z" fill="#B78520"/>
<path d="M84 12C84 12 79.9526 5.90524 78 2H76V22H78C79.9526 18.0948 84 12 84 12Z" stroke="#3F31FF" stroke-width="4" stroke-miterlimit="3.99933" stroke-linejoin="round" mask="url(#path-4-outside-2_938_25025)"/>
</g>
</g>
</g>
<g id="centre">
<g clip-path="url(#clip0_938_25025)">
<mask id="path-5-outside-3_938_25025" maskUnits="userSpaceOnUse" x="8.5" y="0" width="69" height="24" fill="black">
<rect fill="white" x="8.5" width="69" height="24"/>
<path d="M8.5 2H77.5V22H8.5V2Z"/>
</mask>
<path d="M8.5 2H77.5V22H8.5V2Z" fill="#B78520"/>
<text id="Chemical" fill="white" xml:space="preserve" style="white-space: pre" font-family="Arial" font-size="12" font-weight="bold" letter-spacing="0em"><tspan x="8.98633" y="16.1602">VLCFA-CoA</tspan></text>
</g>
<path d="M8.5 2V4H77.5V2V0H8.5V2ZM77.5 22V20H8.5V22V24H77.5V22Z" fill="#3F31FF" mask="url(#path-5-outside-3_938_25025)"/>
</g>
</g>
</g>
<defs>
<clipPath id="clip0_938_25025">
<path d="M8.5 2H77.5V22H8.5V2Z" fill="white"/>
</clipPath>
</defs>
</svg>
