<svg width="62" height="37" viewBox="0 0 62 37" fill="none" xmlns="http://www.w3.org/2000/svg">
<g id="R-ICO-013478">
<g id="tRNA LIGASE">
<path d="M1.23096 11.4622C1.23096 5.93931 5.70811 1.46216 11.231 1.46216H50.231C55.7538 1.46216 60.231 5.93931 60.231 11.4622V25.4622C60.231 30.985 55.7538 35.4622 50.231 35.4622H11.231C5.70811 35.4622 1.23096 30.985 1.23096 25.4622V11.4622Z" fill="url(#paint0_linear_938_23670)"/>
<path d="M52.915 3.38645C52.0552 3.09117 51.1488 2.93525 50.231 2.92368C37.2309 2.78007 24.231 2.41788 11.231 1.60216C11.231 1.5088 11.231 1.41543 11.231 1.32207C24.231 0.506351 37.2309 0.144164 50.231 0.000554204C51.4552 -0.0118093 52.6852 0.173283 53.8561 0.553267C58.4649 1.99828 61.7889 6.66271 61.6641 11.4622C61.6298 14.3303 61.5869 17.1985 61.5474 20.0666C61.5266 21.8651 61.4979 23.6636 61.4624 25.4622C61.4988 31.4655 55.9579 36.5889 50.2316 36.228C50.2314 36.228 50.2312 36.228 50.231 36.228C43.1964 35.9843 36.1612 35.8088 29.1268 35.9151C23.1617 36.0024 17.1962 36.3095 11.231 36.523C10.0486 36.5618 8.85294 36.4082 7.70857 36.0596C3.20636 34.7321 -0.115228 30.1789 0.00304568 25.4622C0.0316184 22.5942 0.0837189 19.7263 0.146746 16.8583C0.186561 15.0596 0.234883 13.2609 0.293159 11.4622C0.322869 5.60489 5.83675 0.776615 11.231 1.32207C11.231 1.41543 11.231 1.5088 11.231 1.60216C5.9722 1.88849 1.87981 6.66601 2.16861 11.4622C2.22689 13.2609 2.27523 15.0596 2.31508 16.8583C2.37811 19.7263 2.43021 22.5942 2.45879 25.4622C2.45432 29.1441 4.95443 32.624 8.44305 33.8489C9.32972 34.1758 10.2709 34.3634 11.231 34.4014C17.1962 34.6146 23.1617 34.9206 29.1268 35.0079C36.1613 35.1142 43.1963 34.9401 50.231 34.6964C50.2311 34.6964 50.2313 34.6964 50.2315 34.6964C55.1581 34.5938 59.2221 30.1116 58.9996 25.4622C58.9641 23.6636 58.9354 21.8651 58.9146 20.0666C58.8751 17.1985 58.8322 14.3303 58.7978 11.4622C58.7957 7.86246 56.2972 4.49354 52.915 3.38645Z" fill="#BFA82E"/>
<text id="tRNA LIGASE_2" fill="white" xml:space="preserve" style="white-space: pre" font-family="Arial" font-size="12" font-weight="bold" letter-spacing="0em"><tspan x="15.7251" y="15.6223">tRNA&#10;</tspan><tspan x="8.3833" y="29.6223">LIGASE</tspan></text>
</g>
</g>
<defs>
<linearGradient id="paint0_linear_938_23670" x1="30.731" y1="1.46216" x2="30.731" y2="35.4622" gradientUnits="userSpaceOnUse">
<stop stop-color="#BFA82E"/>
<stop offset="1" stop-color="#8248C9"/>
</linearGradient>
</defs>
</svg>
