<svg width="44" height="23" viewBox="0 0 44 23" fill="none" xmlns="http://www.w3.org/2000/svg">
<g id="R-ICO-014084">
<g id="GYG">
<path d="M1.17401 11.3955C1.17401 5.87266 5.65116 1.39551 11.174 1.39551H32.174C37.6969 1.39551 42.174 5.87266 42.174 11.3955C42.174 16.9184 37.6969 21.3955 32.174 21.3955H11.174C5.65116 21.3955 1.17401 16.9184 1.17401 11.3955Z" fill="url(#paint0_linear_938_23856)"/>
<path d="M36.4068 4.01396C35.1379 3.25572 33.6748 2.8301 32.174 2.78769C25.174 2.60921 18.174 2.24289 11.174 1.53551C11.174 1.44215 11.174 1.34878 11.174 1.25542C18.174 0.54804 25.174 0.181722 32.174 0.00324178C34.1492 -0.0450732 36.1538 0.447984 37.8947 1.42577C41.4303 3.38337 43.675 7.40404 43.5493 11.3955C43.53 12.382 43.3829 13.364 43.1114 14.3096C41.8136 19.1461 36.9132 22.5276 32.1744 22.1614C32.1743 22.1614 32.1741 22.1614 32.174 22.1613C27.8061 21.9176 23.4377 21.7422 19.0698 21.8485C16.438 21.9105 13.806 22.0835 11.174 22.255C9.291 22.3723 7.33747 21.9821 5.61639 21.0807C2.12673 19.2709 -0.141672 15.3171 0.00688457 11.3955C0.0307269 10.4269 0.183667 9.46442 0.460969 8.54152C1.79636 3.81921 6.70247 0.645584 11.174 1.25542C11.174 1.34878 11.174 1.44215 11.174 1.53551C6.82859 2.00239 3.37065 5.27908 2.55656 9.09849C2.38748 9.85397 2.3169 10.6256 2.34106 11.3955C2.4198 14.5051 4.15291 17.4166 6.77751 19.0612C8.06629 19.896 9.5808 20.4245 11.174 20.5356C13.806 20.7067 16.438 20.8792 19.0698 20.9412C23.4378 21.0476 27.806 20.8735 32.174 20.6298C32.1741 20.6297 32.1742 20.6297 32.1744 20.6297C36.2523 20.4059 39.7148 17.3377 40.5669 13.6332C40.7419 12.9002 40.8184 12.1479 40.7988 11.3955C40.7429 8.35557 38.9856 5.51072 36.4068 4.01396Z" fill="#8A3B20"/>
<text id="GYG_2" fill="white" xml:space="preserve" style="white-space: pre" font-family="Arial" font-size="12" font-weight="bold" letter-spacing="0em"><tspan x="8.33221" y="15.5557">GYG</tspan></text>
</g>
</g>
<defs>
<linearGradient id="paint0_linear_938_23856" x1="21.674" y1="1.39551" x2="21.674" y2="21.3955" gradientUnits="userSpaceOnUse">
<stop stop-color="#EF3890"/>
<stop offset="1" stop-color="#8A3B20"/>
</linearGradient>
</defs>
</svg>
