<svg width="49" height="23" viewBox="0 0 49 23" fill="none" xmlns="http://www.w3.org/2000/svg">
<g id="R-ICO-012592">
<g id="CTU2">
<path d="M1.13574 11.4541C1.13574 5.93128 5.6129 1.45413 11.1357 1.45413H37.1357C42.6586 1.45413 47.1357 5.93128 47.1357 11.4541C47.1357 16.977 42.6586 21.4541 37.1357 21.4541H11.1357C5.6129 21.4541 1.13574 16.977 1.13574 11.4541Z" fill="url(#paint0_linear_938_23259)"/>
<path d="M39.4135 3.25476C38.6762 3.03886 37.9116 2.92236 37.1357 2.90685C28.4691 2.75749 19.8024 2.39367 11.1357 1.59414C11.1357 1.50077 11.1357 1.40741 11.1357 1.31404C19.8024 0.514508 28.4691 0.150687 37.1357 0.00133491C38.1688 -0.0144247 39.2054 0.110591 40.2107 0.377769C45.0954 1.62516 48.6608 6.50222 48.48 11.4541C48.4706 11.9671 48.4275 12.4745 48.3499 12.9813C47.6298 18.4429 42.3441 22.6183 37.1362 22.22C37.136 22.22 37.1359 22.22 37.1357 22.22C32.3511 21.9763 27.5661 21.8008 22.7816 21.9071C18.8997 21.9907 15.0177 22.2753 11.1357 22.4867C10.1398 22.5361 9.13175 22.448 8.14789 22.2144C3.36584 21.1232 -0.21672 16.3168 0.00969398 11.4541C0.0230136 10.951 0.0701517 10.454 0.151709 9.95847C0.922386 4.61346 6.22205 0.669882 11.1357 1.31404C11.1357 1.40741 11.1357 1.50077 11.1357 1.59414C6.36047 2.04519 2.65521 5.97551 2.30055 10.2486C2.26103 10.6507 2.24851 11.0508 2.26171 11.4541C2.34883 15.3361 5.10535 18.837 8.77004 19.9694C9.529 20.219 10.3225 20.3724 11.1357 20.4215C15.0177 20.6326 18.8997 20.9163 22.7816 20.9999C27.5661 21.1062 32.3511 20.9321 37.1357 20.6884C37.1359 20.6884 37.136 20.6884 37.1361 20.6884C41.6169 20.4824 45.3349 16.7849 45.7407 12.629C45.7842 12.2379 45.8008 11.8479 45.7915 11.4541C45.7501 7.66121 42.9756 4.23082 39.4135 3.25476Z" fill="#2EB8B6"/>
<text id="CTU2_2" fill="white" xml:space="preserve" style="white-space: pre" font-family="Arial" font-size="12" font-weight="bold" letter-spacing="0em"><tspan x="8.45605" y="15.6143">CTU2</tspan></text>
</g>
</g>
<defs>
<linearGradient id="paint0_linear_938_23259" x1="24.1357" y1="1.45413" x2="24.1357" y2="21.4541" gradientUnits="userSpaceOnUse">
<stop stop-color="#2EB8B6"/>
<stop offset="1" stop-color="#EA508F"/>
</linearGradient>
</defs>
</svg>
