<svg width="115" height="153" viewBox="0 0 115 153" fill="none" xmlns="http://www.w3.org/2000/svg">
<g id="R-ICO-012788">
<g id="BOTTOM_bonds">
<path id="Vector" d="M88.8377 113.803C88.9031 117.603 88.7606 121.551 86.836 125.396C86.6217 125.884 86.2617 126.32 85.9627 126.784C85.61 127.217 85.2392 127.661 84.7981 128.042C83.933 128.839 82.8161 129.402 81.6381 129.743C80.4411 130.024 79.2075 130.032 78.0496 129.811C76.9134 129.562 75.8259 129.151 74.8867 128.584C72.9774 127.47 71.4655 125.939 70.3088 124.248C69.1366 122.561 68.2834 120.727 67.6292 118.862C66.9809 116.994 66.5175 115.091 66.2066 113.174C65.9182 111.252 65.8523 109.32 65.8438 107.399C65.8414 106.865 66.2718 106.431 66.8051 106.429C67.3307 106.426 67.76 106.844 67.7746 107.367L67.7755 107.399C67.8733 111.015 68.5931 114.631 70.1609 117.801C71.7101 120.95 74.1269 123.659 76.8243 125.121C79.5419 126.626 82.2966 126.427 84.3378 123.803C85.3291 122.537 86.014 120.889 86.4367 119.17C86.8676 117.444 87.0573 115.625 87.1474 113.803L87.1487 113.776C87.1718 113.309 87.5683 112.95 88.0345 112.973C88.4808 112.995 88.8291 113.363 88.8377 113.803Z" fill="#245D69"/>
<path id="Vector_2" d="M67.4619 124.253C68.886 127.864 68.5509 131.643 67.7297 135.223C66.8883 138.823 65.3612 142.248 63.5142 145.432C62.5824 147.021 61.595 148.585 60.3131 149.973C59.6416 150.641 58.9311 151.308 57.9844 151.739C57.7328 151.826 57.4965 151.939 57.2308 151.998C56.9528 152.026 56.6833 152.108 56.396 152.071C55.827 152.038 55.2404 151.834 54.8219 151.487C53.9631 150.805 53.463 149.898 53.1438 149.018C52.7933 148.13 52.5941 147.225 52.4245 146.321C52.2858 145.416 52.1765 144.509 52.1322 143.605C52.0987 143.153 52.0716 142.701 52.0714 142.25C52.0871 141.799 51.9974 141.348 52.1167 140.897L52.1265 140.86C52.2086 140.55 52.5267 140.365 52.8369 140.447C53.0588 140.506 53.2167 140.686 53.2584 140.897C53.4297 141.771 53.3127 142.652 53.4268 143.519C53.4729 144.391 53.5885 145.25 53.7164 146.102C53.8645 146.946 54.0417 147.787 54.3375 148.558C54.5946 149.348 55.0429 150.044 55.5772 150.459C56.1119 150.868 56.7628 150.893 57.443 150.563C58.1088 150.223 58.7194 149.652 59.2602 149.03C60.3189 147.734 61.1373 146.194 61.7445 144.584C62.9646 141.343 63.4069 137.872 63.9204 134.498C64.4233 131.09 64.7006 127.752 66.1569 124.253L66.162 124.241C66.3108 123.883 66.7213 123.714 67.0788 123.863C67.2606 123.938 67.3944 124.084 67.4619 124.253Z" fill="#245D69"/>
<path id="Vector_3" d="M110.021 124.253C110.041 126.472 109.918 128.704 109.536 130.914C109.124 133.115 108.539 135.295 107.735 137.417C106.174 141.677 103.533 145.625 99.923 148.567C98.1269 150.042 96.0785 151.248 93.826 152.055C91.5873 152.843 89.0563 153.251 86.5433 152.584C85.9156 152.463 85.3256 152.145 84.7401 151.887C84.1971 151.527 83.6272 151.207 83.188 150.732C82.2176 149.877 81.5729 148.782 81.0719 147.688C80.1513 145.449 79.9745 143.134 79.9658 140.897C79.9637 140.364 80.3944 139.93 80.9277 139.928C81.4554 139.926 81.886 140.347 81.897 140.873L81.8975 140.897C81.9395 142.962 82.2765 145.026 83.1135 146.75C83.9542 148.461 85.4022 149.678 87.1533 149.891C88.8866 150.208 90.7827 149.64 92.5086 148.823C94.2528 147.993 95.8668 146.817 97.3749 145.525C98.8848 144.224 100.264 142.755 101.55 141.196C102.833 139.636 104.055 137.982 105.045 136.175C106.033 134.37 106.844 132.447 107.403 130.44C107.917 128.425 108.251 126.352 108.33 124.253L108.331 124.229C108.349 123.762 108.741 123.399 109.208 123.416C109.66 123.434 110.016 123.805 110.021 124.253Z" fill="#245D69"/>
<path id="Vector_4" d="M46.4717 113.803C46.5663 117.658 46.2552 121.571 45.2383 125.425C44.7351 127.35 44.0533 129.268 43.0548 131.062C42.0535 132.85 40.7398 134.51 39.0911 135.883C37.4408 137.234 35.4211 138.342 33.0694 138.6C31.9119 138.77 30.6638 138.577 29.5386 138.181C28.3854 137.79 27.4308 137.022 26.6437 136.217C25.1236 134.511 24.4007 132.481 23.9671 130.529C23.5539 128.553 23.4843 126.585 23.4775 124.641C23.4757 124.107 23.9065 123.673 24.4398 123.671C24.9656 123.67 25.3946 124.088 25.4085 124.611L25.4092 124.641C25.4561 126.47 25.6705 128.29 26.1479 129.989C26.6033 131.685 27.4349 133.252 28.5814 134.25C29.7276 135.262 31.1484 135.488 32.5353 135.151C33.2325 134.982 33.933 134.701 34.5922 134.279C35.2655 133.903 35.8992 133.392 36.5152 132.864C37.7455 131.787 38.8306 130.468 39.8143 129.048C40.8017 127.627 41.6946 126.089 42.44 124.452C43.9297 121.168 44.6216 117.491 44.7816 113.803L44.7823 113.787C44.8025 113.32 45.197 112.959 45.6634 112.979C46.1095 112.998 46.4599 113.363 46.4717 113.803Z" fill="#245D69"/>
</g>
<g id="Group">
<path id="Vector_5" d="M19.1895 34.5291V124.641C19.1895 125.831 21.5419 126.795 24.4438 126.795C27.3457 126.795 29.6981 125.831 29.6981 124.641V34.5291H19.1895Z" fill="url(#paint0_linear_938_22994)"/>
<path id="Vector_6" d="M24.4438 36.6837C27.3456 36.6837 29.6981 35.719 29.6981 34.529C29.6981 33.339 27.3456 32.3743 24.4438 32.3743C21.5419 32.3743 19.1895 33.339 19.1895 34.529C19.1895 35.719 21.5419 36.6837 24.4438 36.6837Z" fill="url(#paint1_linear_938_22994)"/>
</g>
<g id="Group_2">
<path id="Vector_7" d="M103.921 34.5291V124.641C103.921 125.831 106.273 126.795 109.175 126.795C112.077 126.795 114.429 125.831 114.429 124.641V34.5291H103.921Z" fill="url(#paint2_linear_938_22994)"/>
<path id="Vector_8" d="M109.175 36.6837C112.077 36.6837 114.429 35.719 114.429 34.529C114.429 33.339 112.077 32.3743 109.175 32.3743C106.273 32.3743 103.921 33.339 103.921 34.529C103.921 35.719 106.273 36.6837 109.175 36.6837Z" fill="url(#paint3_linear_938_22994)"/>
</g>
<g id="Group_3">
<path id="Vector_9" d="M61.5552 17.2872V107.399C61.5552 108.589 63.9076 109.554 66.8095 109.554C69.7114 109.554 72.0638 108.589 72.0638 107.399V17.2872H61.5552Z" fill="url(#paint4_linear_938_22994)"/>
<path id="Vector_10" d="M66.8095 19.4419C69.7113 19.4419 72.0638 18.4772 72.0638 17.2872C72.0638 16.0972 69.7113 15.1325 66.8095 15.1325C63.9076 15.1325 61.5552 16.0972 61.5552 17.2872C61.5552 18.4772 63.9076 19.4419 66.8095 19.4419Z" fill="url(#paint5_linear_938_22994)"/>
</g>
<g id="Group_4">
<path id="Vector_11" d="M40.3721 23.6913V113.803C40.3721 114.993 42.7245 115.958 45.6264 115.958C48.5283 115.958 50.8807 114.993 50.8807 113.803V23.6913H40.3721Z" fill="url(#paint6_linear_938_22994)"/>
<path id="Vector_12" d="M45.6264 25.846C48.5282 25.846 50.8807 24.8813 50.8807 23.6913C50.8807 22.5013 48.5282 21.5366 45.6264 21.5366C42.7245 21.5366 40.3721 22.5013 40.3721 23.6913C40.3721 24.8813 42.7245 25.846 45.6264 25.846Z" fill="url(#paint7_linear_938_22994)"/>
</g>
<g id="Group_5">
<path id="Vector_13" d="M82.7378 23.6913V113.803C82.7378 114.993 85.0902 115.958 87.9921 115.958C90.894 115.958 93.2464 114.993 93.2464 113.803V23.6913H82.7378Z" fill="url(#paint8_linear_938_22994)"/>
<path id="Vector_14" d="M87.9921 25.846C90.894 25.846 93.2464 24.8813 93.2464 23.6913C93.2464 22.5013 90.894 21.5366 87.9921 21.5366C85.0902 21.5366 82.7378 22.5013 82.7378 23.6913C82.7378 24.8813 85.0902 25.846 87.9921 25.846Z" fill="url(#paint9_linear_938_22994)"/>
</g>
<g id="Group_6">
<path id="Vector_15" d="M47.4331 50.7857V140.897C47.4331 142.087 49.7855 143.052 52.6874 143.052C55.5893 143.052 57.9417 142.087 57.9417 140.897V50.7857H47.4331Z" fill="url(#paint10_linear_938_22994)"/>
<path id="Vector_16" d="M52.6874 52.9404C55.5893 52.9404 57.9417 51.9757 57.9417 50.7857C57.9417 49.5957 55.5893 48.631 52.6874 48.631C49.7855 48.631 47.4331 49.5957 47.4331 50.7857C47.4331 51.9757 49.7855 52.9404 52.6874 52.9404Z" fill="url(#paint11_linear_938_22994)"/>
</g>
<g id="Group_7">
<path id="Vector_17" d="M75.6772 50.7857V140.897C75.6772 142.087 78.0296 143.052 80.9315 143.052C83.8334 143.052 86.1858 142.087 86.1858 140.897V50.7857H75.6772Z" fill="url(#paint12_linear_938_22994)"/>
<path id="Vector_18" d="M80.9315 52.9404C83.8334 52.9404 86.1858 51.9757 86.1858 50.7857C86.1858 49.5957 83.8334 48.631 80.9315 48.631C78.0297 48.631 75.6772 49.5957 75.6772 50.7857C75.6772 51.9757 78.0297 52.9404 80.9315 52.9404Z" fill="url(#paint13_linear_938_22994)"/>
</g>
<g id="TOP_bonds">
<path id="Vector_19" d="M65.9643 17.2872C65.8741 15.4653 65.6845 13.6464 65.2535 11.9196C64.8308 10.2008 64.1458 8.55259 63.1546 7.28689C61.1136 4.66279 58.3588 4.46349 55.6412 5.96869C52.9438 7.43109 50.527 10.1403 48.9778 13.2893C47.41 16.4594 46.6902 20.0751 46.5923 23.6913L46.5916 23.7217C46.5772 24.2548 46.1332 24.6753 45.6001 24.6608C45.0747 24.6466 44.6588 24.214 44.6607 23.6913C44.6692 21.7702 44.7351 19.8382 45.0235 17.9155C45.3343 15.999 45.7977 14.0962 46.4461 12.2276C47.1003 10.3633 47.9535 8.52899 49.1257 6.84199C50.2824 5.15049 51.7942 3.61969 53.7036 2.50559C54.6428 1.93879 55.7303 1.52809 56.8665 1.27909C58.0244 1.05759 59.258 1.06549 60.455 1.34709C61.633 1.68789 62.7498 2.25049 63.615 3.04779C64.056 3.42879 64.4269 3.87249 64.7796 4.30569C65.0786 4.77019 65.4385 5.20599 65.6528 5.69429C67.5774 9.53899 67.7199 13.4869 67.6546 17.2871C67.6466 17.7537 67.2618 18.1255 66.7952 18.1175C66.3485 18.1098 65.9887 17.7568 65.9659 17.3172L65.9643 17.2872Z" fill="#245D69"/>
<path id="Vector_20" d="M108.33 34.529C108.17 30.8411 107.478 27.1641 105.988 23.8794C105.243 22.2428 104.35 20.7046 103.363 19.2841C102.379 17.8639 101.294 16.5443 100.064 15.4673C99.4478 14.9397 98.8141 14.4282 98.1408 14.0528C97.4817 13.6304 96.7812 13.3494 96.084 13.1803C94.6971 12.8437 93.2764 13.07 92.1302 14.0821C90.9838 15.0801 90.1522 16.6471 89.6968 18.343C89.2194 20.042 89.005 21.8619 88.9581 23.6912L88.9574 23.7193C88.9437 24.2524 88.5005 24.6736 87.9673 24.6599C87.4417 24.6464 87.025 24.2142 87.0264 23.6912C87.0331 21.7469 87.1028 19.7786 87.5159 17.8031C87.9496 15.8504 88.6723 13.8203 90.1925 12.1144C90.9796 11.31 91.9342 10.5412 93.0874 10.1507C94.2126 9.75512 95.4607 9.56122 96.6182 9.73142C98.9699 9.98972 100.99 11.098 102.64 12.4489C104.288 13.822 105.602 15.4817 106.603 17.2699C107.602 19.0641 108.284 20.9815 108.787 22.9066C109.804 26.7608 110.115 30.6741 110.02 34.5288C110.009 34.9955 109.621 35.3646 109.154 35.3531C108.708 35.3421 108.351 34.9869 108.331 34.5476L108.33 34.529Z" fill="#245D69"/>
<path id="Vector_21" d="M80.0863 50.7857C80.0029 48.7879 79.6976 46.8149 79.1367 44.9494C78.5635 43.0884 77.6233 41.3777 76.4209 39.9781C75.2063 38.5826 73.7232 37.5199 72.115 36.8455C70.5142 36.1569 68.794 35.7953 67.0439 35.7993C63.5617 35.81 59.9343 37.2756 57.4373 40.0952C54.8958 42.8948 53.7541 46.8588 53.6534 50.7856L53.6527 50.8124C53.639 51.3455 53.1957 51.7667 52.6626 51.753C52.1374 51.7395 51.721 51.308 51.7217 50.7856C51.7263 48.6485 51.9148 46.4846 52.4808 44.3723C53.0566 42.2705 53.9615 40.2125 55.2709 38.3825C56.5881 36.5676 58.2647 34.9417 60.2785 33.7886C62.2829 32.6426 64.5821 31.886 66.9561 31.8321C69.3189 31.7616 71.7298 32.2931 73.8177 33.431C75.9175 34.5572 77.613 36.2985 78.812 38.2291C80.0289 40.1601 80.7982 42.2732 81.2503 44.3962C81.7017 46.5255 81.7924 48.6697 81.7764 50.7857C81.7729 51.2523 81.3917 51.6277 80.9251 51.6242C80.4732 51.6208 80.1068 51.2632 80.0874 50.8168L80.0863 50.7857Z" fill="#245D69"/>
<path id="Vector_22" d="M23.0965 34.529C23.2318 30.5774 23.1845 26.6321 22.7701 22.7595C22.2845 18.9212 21.5148 15.054 19.6129 11.8473C17.6817 8.64633 14.7272 6.50583 11.3937 5.25383C8.03971 3.93173 4.36931 3.46903 0.474212 2.09783L0.458212 2.09223C0.101012 1.96653 -0.0866879 1.57493 0.0391121 1.21773C0.112412 1.00943 0.279612 0.857626 0.474212 0.793126C4.49311 -0.511574 8.88641 -0.168074 12.917 1.54023C14.9298 2.37953 16.8204 3.63413 18.3638 5.21553C19.9261 6.78253 21.1165 8.64243 22.0451 10.5506C23.8503 14.4077 24.709 18.4715 25.1117 22.4987C25.564 26.5267 25.6439 30.5394 25.791 34.5289C25.8184 35.2729 25.2375 35.8983 24.4935 35.9258C23.7495 35.9532 23.1241 35.3723 23.0966 34.6283C23.0954 34.5974 23.0956 34.5596 23.0965 34.529Z" fill="#245D69"/>
</g>
</g>
<defs>
<linearGradient id="paint0_linear_938_22994" x1="19.1895" y1="80.6623" x2="29.6982" y2="80.6623" gradientUnits="userSpaceOnUse">
<stop stop-color="#245D69"/>
<stop offset="0.0374" stop-color="#3D7976"/>
<stop offset="0.0854" stop-color="#579584"/>
<stop offset="0.1333" stop-color="#69AA8E"/>
<stop offset="0.1807" stop-color="#74B694"/>
<stop offset="0.2271" stop-color="#78BA96"/>
<stop offset="1" stop-color="#155169"/>
</linearGradient>
<linearGradient id="paint1_linear_938_22994" x1="20.8238" y1="29.2851" x2="26.7938" y2="37.9332" gradientUnits="userSpaceOnUse">
<stop stop-color="#245D69"/>
<stop offset="0.0374" stop-color="#3D7976"/>
<stop offset="0.0854" stop-color="#579584"/>
<stop offset="0.1333" stop-color="#69AA8E"/>
<stop offset="0.1807" stop-color="#74B694"/>
<stop offset="0.2271" stop-color="#78BA96"/>
<stop offset="1" stop-color="#155169"/>
</linearGradient>
<linearGradient id="paint2_linear_938_22994" x1="103.921" y1="80.6623" x2="114.43" y2="80.6623" gradientUnits="userSpaceOnUse">
<stop stop-color="#245D69"/>
<stop offset="0.0374" stop-color="#3D7976"/>
<stop offset="0.0854" stop-color="#579584"/>
<stop offset="0.1333" stop-color="#69AA8E"/>
<stop offset="0.1807" stop-color="#74B694"/>
<stop offset="0.2271" stop-color="#78BA96"/>
<stop offset="1" stop-color="#155169"/>
</linearGradient>
<linearGradient id="paint3_linear_938_22994" x1="105.555" y1="29.2851" x2="111.525" y2="37.9332" gradientUnits="userSpaceOnUse">
<stop stop-color="#245D69"/>
<stop offset="0.0374" stop-color="#3D7976"/>
<stop offset="0.0854" stop-color="#579584"/>
<stop offset="0.1333" stop-color="#69AA8E"/>
<stop offset="0.1807" stop-color="#74B694"/>
<stop offset="0.2271" stop-color="#78BA96"/>
<stop offset="1" stop-color="#155169"/>
</linearGradient>
<linearGradient id="paint4_linear_938_22994" x1="61.5552" y1="63.4203" x2="72.0639" y2="63.4203" gradientUnits="userSpaceOnUse">
<stop stop-color="#245D69"/>
<stop offset="0.0374" stop-color="#3D7976"/>
<stop offset="0.0854" stop-color="#579584"/>
<stop offset="0.1333" stop-color="#69AA8E"/>
<stop offset="0.1807" stop-color="#74B694"/>
<stop offset="0.2271" stop-color="#78BA96"/>
<stop offset="1" stop-color="#155169"/>
</linearGradient>
<linearGradient id="paint5_linear_938_22994" x1="63.1894" y1="12.0432" x2="69.1595" y2="20.6914" gradientUnits="userSpaceOnUse">
<stop stop-color="#245D69"/>
<stop offset="0.0374" stop-color="#3D7976"/>
<stop offset="0.0854" stop-color="#579584"/>
<stop offset="0.1333" stop-color="#69AA8E"/>
<stop offset="0.1807" stop-color="#74B694"/>
<stop offset="0.2271" stop-color="#78BA96"/>
<stop offset="1" stop-color="#155169"/>
</linearGradient>
<linearGradient id="paint6_linear_938_22994" x1="40.3721" y1="69.8244" x2="50.8807" y2="69.8244" gradientUnits="userSpaceOnUse">
<stop stop-color="#245D69"/>
<stop offset="0.0374" stop-color="#3D7976"/>
<stop offset="0.0854" stop-color="#579584"/>
<stop offset="0.1333" stop-color="#69AA8E"/>
<stop offset="0.1807" stop-color="#74B694"/>
<stop offset="0.2271" stop-color="#78BA96"/>
<stop offset="1" stop-color="#155169"/>
</linearGradient>
<linearGradient id="paint7_linear_938_22994" x1="42.0064" y1="18.4473" x2="47.9764" y2="27.0955" gradientUnits="userSpaceOnUse">
<stop stop-color="#245D69"/>
<stop offset="0.0374" stop-color="#3D7976"/>
<stop offset="0.0854" stop-color="#579584"/>
<stop offset="0.1333" stop-color="#69AA8E"/>
<stop offset="0.1807" stop-color="#74B694"/>
<stop offset="0.2271" stop-color="#78BA96"/>
<stop offset="1" stop-color="#155169"/>
</linearGradient>
<linearGradient id="paint8_linear_938_22994" x1="82.7378" y1="69.8244" x2="93.2465" y2="69.8244" gradientUnits="userSpaceOnUse">
<stop stop-color="#245D69"/>
<stop offset="0.0374" stop-color="#3D7976"/>
<stop offset="0.0854" stop-color="#579584"/>
<stop offset="0.1333" stop-color="#69AA8E"/>
<stop offset="0.1807" stop-color="#74B694"/>
<stop offset="0.2271" stop-color="#78BA96"/>
<stop offset="1" stop-color="#155169"/>
</linearGradient>
<linearGradient id="paint9_linear_938_22994" x1="84.3721" y1="18.4473" x2="90.3422" y2="27.0955" gradientUnits="userSpaceOnUse">
<stop stop-color="#245D69"/>
<stop offset="0.0374" stop-color="#3D7976"/>
<stop offset="0.0854" stop-color="#579584"/>
<stop offset="0.1333" stop-color="#69AA8E"/>
<stop offset="0.1807" stop-color="#74B694"/>
<stop offset="0.2271" stop-color="#78BA96"/>
<stop offset="1" stop-color="#155169"/>
</linearGradient>
<linearGradient id="paint10_linear_938_22994" x1="47.4331" y1="96.9188" x2="57.9418" y2="96.9188" gradientUnits="userSpaceOnUse">
<stop stop-color="#245D69"/>
<stop offset="0.0374" stop-color="#3D7976"/>
<stop offset="0.0854" stop-color="#579584"/>
<stop offset="0.1333" stop-color="#69AA8E"/>
<stop offset="0.1807" stop-color="#74B694"/>
<stop offset="0.2271" stop-color="#78BA96"/>
<stop offset="1" stop-color="#155169"/>
</linearGradient>
<linearGradient id="paint11_linear_938_22994" x1="49.0673" y1="45.5417" x2="55.0374" y2="54.1899" gradientUnits="userSpaceOnUse">
<stop stop-color="#245D69"/>
<stop offset="0.0374" stop-color="#3D7976"/>
<stop offset="0.0854" stop-color="#579584"/>
<stop offset="0.1333" stop-color="#69AA8E"/>
<stop offset="0.1807" stop-color="#74B694"/>
<stop offset="0.2271" stop-color="#78BA96"/>
<stop offset="1" stop-color="#155169"/>
</linearGradient>
<linearGradient id="paint12_linear_938_22994" x1="75.6772" y1="96.9188" x2="86.1858" y2="96.9188" gradientUnits="userSpaceOnUse">
<stop stop-color="#245D69"/>
<stop offset="0.0374" stop-color="#3D7976"/>
<stop offset="0.0854" stop-color="#579584"/>
<stop offset="0.1333" stop-color="#69AA8E"/>
<stop offset="0.1807" stop-color="#74B694"/>
<stop offset="0.2271" stop-color="#78BA96"/>
<stop offset="1" stop-color="#155169"/>
</linearGradient>
<linearGradient id="paint13_linear_938_22994" x1="77.3114" y1="45.5417" x2="83.2815" y2="54.1899" gradientUnits="userSpaceOnUse">
<stop stop-color="#245D69"/>
<stop offset="0.0374" stop-color="#3D7976"/>
<stop offset="0.0854" stop-color="#579584"/>
<stop offset="0.1333" stop-color="#69AA8E"/>
<stop offset="0.1807" stop-color="#74B694"/>
<stop offset="0.2271" stop-color="#78BA96"/>
<stop offset="1" stop-color="#155169"/>
</linearGradient>
</defs>
</svg>
