<svg width="116" height="23" viewBox="0 0 116 23" fill="none" xmlns="http://www.w3.org/2000/svg">
<g id="R-ICO-012787">
<g id="GONADOTROPIN">
<path d="M0.756348 11.5C0.756348 5.97715 5.2335 1.5 10.7563 1.5H104.756C110.279 1.5 114.756 5.97715 114.756 11.5C114.756 17.0228 110.279 21.5 104.756 21.5H10.7564C5.2335 21.5 0.756348 17.0228 0.756348 11.5Z" fill="url(#paint0_linear_938_23355)"/>
<path d="M73.4645 2.99266C52.5617 2.87443 31.6591 2.52283 10.7563 1.64001C10.7563 1.54664 10.7563 1.45328 10.7563 1.35991C31.6591 0.477089 52.5617 0.125486 73.4645 0.00726104C83.8948 -0.0304387 94.3258 0.0862262 104.756 0.182931C104.78 0.183126 104.804 0.183395 104.828 0.183738C110.84 0.120135 116.113 5.60828 115.868 11.5C115.911 17.4319 110.485 22.552 104.757 22.2659C104.757 22.2659 104.757 22.2658 104.756 22.2658C94.3053 22.0221 83.8532 21.8466 73.4023 21.953C62.9509 22.056 52.4987 22.4645 42.0473 22.6648C31.6171 22.8273 21.1868 22.7392 10.7564 22.5851C10.7333 22.5848 10.7102 22.5844 10.6872 22.584C4.79477 22.6085 -0.29256 17.1952 0.0132168 11.5C0.035377 5.75574 5.36499 0.951492 10.7563 1.35991C10.7563 1.45328 10.7563 1.54664 10.7563 1.64001C5.49472 1.78933 1.21816 6.59078 1.49934 11.5C1.54911 16.4135 5.98512 20.581 10.7005 20.4157C10.7191 20.4155 10.7377 20.4153 10.7564 20.415C21.1866 20.2609 31.6169 20.1727 42.0473 20.3353C52.4987 20.5356 62.9509 20.9428 73.4023 21.0457C83.8533 21.1521 94.3051 20.978 104.756 20.7342C104.757 20.7342 104.757 20.7342 104.757 20.7342C109.682 20.7061 113.861 16.2207 113.645 11.5C113.655 6.78386 109.406 2.69151 104.812 2.81657C104.793 2.81665 104.775 2.81679 104.756 2.81699C94.326 2.91369 83.8948 3.03063 73.4645 2.99266Z" fill="#C1DF4F"/>
<text id="GONADOTROPIN_2" fill="white" xml:space="preserve" style="white-space: pre" font-family="Arial" font-size="12" font-weight="bold" letter-spacing="0em"><tspan x="8.05713" y="15.6602">GONADOTROPIN</tspan></text>
</g>
</g>
<defs>
<linearGradient id="paint0_linear_938_23355" x1="57.7563" y1="1.5" x2="57.7563" y2="21.5" gradientUnits="userSpaceOnUse">
<stop stop-color="#C1DF4F"/>
<stop offset="1" stop-color="#1A509E"/>
</linearGradient>
</defs>
</svg>
