<svg width="62" height="23" viewBox="0 0 62 23" fill="none" xmlns="http://www.w3.org/2000/svg">
<g id="R-ICO-012833">
<g id="HOMER">
<path d="M1.03418 11.5C1.03418 5.97715 5.51133 1.5 11.0342 1.5H50.0342C55.557 1.5 60.0342 5.97715 60.0342 11.5C60.0342 17.0228 55.557 21.5 50.0342 21.5H11.0342C5.51133 21.5 1.03418 17.0228 1.03418 11.5Z" fill="url(#paint0_linear_938_23375)"/>
<path d="M46.2425 2.99266C34.5064 2.87443 22.7703 2.52283 11.0342 1.64001C11.0342 1.54664 11.0342 1.45328 11.0342 1.35991C22.7703 0.477089 34.5064 0.125486 46.2425 0.00726104C47.5064 -0.000875115 48.7703 -0.00182152 50.0342 0.00266945C55.3989 -0.0755014 60.3282 4.16876 61.1499 9.36829C61.2755 10.0728 61.3318 10.7882 61.3202 11.5C61.3682 17.5381 55.761 22.6732 50.0347 22.2659C50.0345 22.2659 50.0344 22.2658 50.0342 22.2658C44.1663 22.0221 38.2978 21.8466 32.43 21.953C26.562 22.056 20.6934 22.4645 14.8253 22.6648C13.5616 22.6999 12.2979 22.7233 11.0342 22.7369C5.78682 22.8881 0.897901 18.6952 0.146678 13.5887C0.0317008 12.8971 -0.0150563 12.1961 0.00492001 11.5C0.0226474 5.58925 5.63576 0.730826 11.0342 1.35991C11.0342 1.45328 11.0342 1.54664 11.0342 1.64001C5.77962 2.00993 1.78641 6.75744 2.06332 11.5C2.08319 12.0688 2.1545 12.6322 2.27659 13.1823C3.12625 17.2393 6.97264 20.282 11.0342 20.2632C12.2979 20.2768 13.5616 20.3002 14.8253 20.3353C20.6934 20.5356 26.5619 20.9428 32.43 21.0457C38.2979 21.1521 44.1662 20.978 50.0342 20.7342C50.0343 20.7342 50.0345 20.7342 50.0346 20.7342C54.9613 20.5852 58.9592 16.1148 58.7482 11.5C58.7368 10.9473 58.6751 10.3986 58.5637 9.86164C57.7851 5.89746 53.9786 2.90551 50.0342 2.99736C48.7703 3.00183 47.5064 3.00085 46.2425 2.99266Z" fill="#FF5200"/>
<text id="HOMER_2" fill="white" xml:space="preserve" style="white-space: pre" font-family="Arial" font-size="12" font-weight="bold" letter-spacing="0em"><tspan x="8.19238" y="15.6602">HOMER</tspan></text>
</g>
</g>
<defs>
<linearGradient id="paint0_linear_938_23375" x1="30.5342" y1="1.5" x2="30.5342" y2="21.5" gradientUnits="userSpaceOnUse">
<stop stop-color="#FF5200"/>
<stop offset="1" stop-color="#D8D369"/>
</linearGradient>
</defs>
</svg>
