<svg width="129" height="24" viewBox="0 0 129 24" fill="none" xmlns="http://www.w3.org/2000/svg">
<g id="R-ICO-013798">
<g id="CHEMICAL_HEX">
<g id="LEFT_CORNER">
<mask id="mask0_938_24867" style="mask-type:luminance" maskUnits="userSpaceOnUse" x="0" y="0" width="10" height="24">
<rect id="MASK" width="10" height="24" transform="matrix(-1 0 0 1 10 0)" fill="white"/>
</mask>
<g mask="url(#mask0_938_24867)">
<g id="CORNER">
<mask id="path-2-outside-1_938_24867" maskUnits="userSpaceOnUse" x="0" y="0" width="12" height="24" fill="black">
<rect fill="white" width="12" height="24"/>
<path d="M2 12C2 12 6.04738 5.90524 8 2H10V22H8C6.04738 18.0948 2 12 2 12Z"/>
</mask>
<path d="M2 12C2 12 6.04738 5.90524 8 2H10V22H8C6.04738 18.0948 2 12 2 12Z" fill="#3797CC"/>
<path d="M2 12C2 12 6.04738 5.90524 8 2H10V22H8C6.04738 18.0948 2 12 2 12Z" stroke="url(#paint0_linear_938_24867)" stroke-width="4" stroke-miterlimit="3.99933" stroke-linejoin="round" mask="url(#path-2-outside-1_938_24867)"/>
</g>
</g>
</g>
<g id="RIGHT CORNER">
<mask id="mask1_938_24867" style="mask-type:luminance" maskUnits="userSpaceOnUse" x="119" y="0" width="10" height="24">
<rect id="MASK_2" width="10" height="24" transform="matrix(1 -8.74228e-08 -8.74228e-08 -1 119 24)" fill="white"/>
</mask>
<g mask="url(#mask1_938_24867)">
<g id="CORNER_2">
<mask id="path-4-outside-2_938_24867" maskUnits="userSpaceOnUse" x="117" y="0" width="12" height="24" fill="black">
<rect fill="white" x="117" width="12" height="24"/>
<path d="M127 12C127 12 122.953 5.90524 121 2H119V22H121C122.953 18.0948 127 12 127 12Z"/>
</mask>
<path d="M127 12C127 12 122.953 5.90524 121 2H119V22H121C122.953 18.0948 127 12 127 12Z" fill="#3797CC"/>
<path d="M127 12C127 12 122.953 5.90524 121 2H119V22H121C122.953 18.0948 127 12 127 12Z" stroke="url(#paint1_linear_938_24867)" stroke-width="4" stroke-miterlimit="3.99933" stroke-linejoin="round" mask="url(#path-4-outside-2_938_24867)"/>
</g>
</g>
</g>
<g id="centre">
<mask id="path-5-outside-3_938_24867" maskUnits="userSpaceOnUse" x="8" y="0" width="113" height="24" fill="black">
<rect fill="white" x="8" width="113" height="24"/>
<path d="M8 2H121V22H8V2Z"/>
</mask>
<path d="M8 2H121V22H8V2Z" fill="#3797CC"/>
<path d="M8 2V4H121V2V0H8V2ZM121 22V20H8V22V24H121V22Z" fill="url(#paint2_linear_938_24867)" mask="url(#path-5-outside-3_938_24867)"/>
<text id="Chemical" fill="white" xml:space="preserve" style="white-space: pre" font-family="Arial" font-size="12" font-weight="bold" letter-spacing="0em"><tspan x="8.13281" y="16.1602">HYDROXYPROLINE</tspan></text>
</g>
</g>
</g>
<defs>
<linearGradient id="paint0_linear_938_24867" x1="6" y1="22" x2="6" y2="2" gradientUnits="userSpaceOnUse">
<stop stop-color="#3797CC"/>
<stop offset="1" stop-color="#DABC00"/>
</linearGradient>
<linearGradient id="paint1_linear_938_24867" x1="123" y1="22" x2="123" y2="2" gradientUnits="userSpaceOnUse">
<stop stop-color="#3797CC"/>
<stop offset="1" stop-color="#DABC00"/>
</linearGradient>
<linearGradient id="paint2_linear_938_24867" x1="64.5" y1="22" x2="64.5" y2="2" gradientUnits="userSpaceOnUse">
<stop stop-color="#3797CC"/>
<stop offset="1" stop-color="#DABC00"/>
</linearGradient>
</defs>
</svg>
