<svg width="187" height="150" viewBox="0 0 187 150" fill="none" xmlns="http://www.w3.org/2000/svg">
<g id="R-ICO-014728" opacity="0.5">
<g id="Group">
<path id="Vector" d="M152.15 63.8499C168.221 63.8499 181.248 50.8222 181.248 34.7516C181.248 18.6811 168.221 5.65332 152.15 5.65332C136.08 5.65332 123.052 18.6811 123.052 34.7516C123.052 50.8222 136.08 63.8499 152.15 63.8499Z" fill="#0E6DA6"/>
<path id="Vector_2" d="M118.398 34.7518C118.398 16.1412 133.54 1 152.15 1C170.761 1 185.902 16.1412 185.902 34.7518C185.902 53.3624 170.761 68.5036 152.15 68.5036C133.54 68.5036 118.398 53.3625 118.398 34.7518ZM127.706 34.7518C127.706 48.231 138.672 59.1964 152.15 59.1964C165.629 59.1964 176.595 48.231 176.595 34.7518C176.595 21.2733 165.629 10.3072 152.15 10.3072C138.672 10.3072 127.706 21.2733 127.706 34.7518Z" fill="#2D93C7" stroke="#0B4B6B" stroke-width="2" stroke-miterlimit="10"/>
</g>
<g id="Group_2">
<path id="Vector_3" d="M76.8303 70.1394C98.5167 70.1394 116.097 61.359 116.097 50.5277C116.097 39.6965 98.5167 30.916 76.8303 30.916C55.1438 30.916 37.5635 39.6965 37.5635 50.5277C37.5635 61.359 55.1438 70.1394 76.8303 70.1394Z" fill="#0E6DA6"/>
<path id="Vector_4" d="M32.9102 50.5281C32.9102 36.6944 51.7922 26.2627 76.8308 26.2627C101.869 26.2627 120.751 36.6944 120.751 50.5281C120.751 64.3618 101.869 74.7935 76.8308 74.7935C51.7922 74.7935 32.9102 64.3617 32.9102 50.5281ZM42.2175 50.5281C42.2175 57.5891 57.0204 65.4862 76.8309 65.4862C96.6414 65.4862 111.444 57.589 111.444 50.5281C111.444 43.4672 96.6413 35.57 76.8309 35.57C57.0205 35.57 42.2175 43.4671 42.2175 50.5281Z" fill="#2D93C7" stroke="#0B4B6B" stroke-width="2" stroke-miterlimit="10"/>
</g>
<g id="Group_3">
<path id="Vector_5" d="M40.9235 144.002C60.4021 144.002 76.1927 128.211 76.1927 108.733C76.1927 89.2539 60.4021 73.4634 40.9235 73.4634C21.4449 73.4634 5.6543 89.2539 5.6543 108.733C5.6543 128.211 21.4449 144.002 40.9235 144.002Z" fill="#0E6DA6"/>
<path id="Vector_6" d="M40.9234 148.655C18.9095 148.655 1 130.746 1 108.732C1 86.7196 18.9095 68.8101 40.9234 68.8101C62.9366 68.8101 80.8461 86.7196 80.8461 108.732C80.8461 130.746 62.9366 148.655 40.9234 148.655ZM40.9234 78.1174C24.0416 78.1174 10.3073 91.8511 10.3073 108.732C10.3073 125.613 24.0416 139.348 40.9234 139.348C57.8045 139.348 71.5388 125.613 71.5388 108.732C71.5388 91.8511 57.8045 78.1174 40.9234 78.1174Z" fill="#2D93C7" stroke="#0B4B6B" stroke-width="2" stroke-miterlimit="10"/>
</g>
<g id="Group_4">
<path id="Vector_7" d="M125.072 125.983C146.759 125.983 164.339 113.811 164.339 98.7957C164.339 83.7806 146.759 71.6084 125.072 71.6084C103.386 71.6084 85.8057 83.7806 85.8057 98.7957C85.8057 113.811 103.386 125.983 125.072 125.983Z" fill="#0E6DA6"/>
<path id="Vector_8" d="M125.072 130.637C100.855 130.637 81.1523 116.353 81.1523 98.7964C81.1523 81.2388 100.855 66.9546 125.072 66.9546C149.29 66.9546 168.993 81.2388 168.993 98.7964C168.993 116.353 149.29 130.637 125.072 130.637ZM125.072 76.2618C106.31 76.2618 90.4596 86.5819 90.4596 98.7964C90.4596 111.011 106.31 121.33 125.072 121.33C143.835 121.33 159.686 111.011 159.686 98.7964C159.686 86.5819 143.835 76.2618 125.072 76.2618Z" fill="#2D93C7" stroke="#0B4B6B" stroke-width="2" stroke-miterlimit="10"/>
</g>
</g>
</svg>
