<svg width="54" height="18" viewBox="0 0 54 18" fill="none" xmlns="http://www.w3.org/2000/svg">
<g id="R-ICO-012955">
<path id="Vector" d="M8.7914 17.5828C13.6468 17.5828 17.5828 13.6468 17.5828 8.7914C17.5828 3.93604 13.6468 0 8.7914 0C3.93604 0 0 3.93604 0 8.7914C0 13.6468 3.93604 17.5828 8.7914 17.5828Z" fill="url(#paint0_radial_938_24278)"/>
<path id="Vector_2" d="M44.4027 17.5828C49.2581 17.5828 53.1941 13.6468 53.1941 8.7914C53.1941 3.93604 49.2581 0 44.4027 0C39.5474 0 35.6113 3.93604 35.6113 8.7914C35.6113 13.6468 39.5474 17.5828 44.4027 17.5828Z" fill="url(#paint1_radial_938_24278)"/>
</g>
<defs>
<radialGradient id="paint0_radial_938_24278" cx="0" cy="0" r="1" gradientUnits="userSpaceOnUse" gradientTransform="translate(7.0053 6.3983) scale(9.9856)">
<stop stop-color="#EBFFB2"/>
<stop offset="0.0685" stop-color="#E3F19C"/>
<stop offset="0.2071" stop-color="#D5D974"/>
<stop offset="0.3506" stop-color="#C9C554"/>
<stop offset="0.498" stop-color="#C0B63B"/>
<stop offset="0.6511" stop-color="#BAAB29"/>
<stop offset="0.8132" stop-color="#B6A41E"/>
<stop offset="1" stop-color="#B5A21B"/>
</radialGradient>
<radialGradient id="paint1_radial_938_24278" cx="0" cy="0" r="1" gradientUnits="userSpaceOnUse" gradientTransform="translate(42.6166 6.3983) scale(9.9856 9.9856)">
<stop stop-color="#EBFFB2"/>
<stop offset="0.0685" stop-color="#E3F19C"/>
<stop offset="0.2071" stop-color="#D5D974"/>
<stop offset="0.3506" stop-color="#C9C554"/>
<stop offset="0.498" stop-color="#C0B63B"/>
<stop offset="0.6511" stop-color="#BAAB29"/>
<stop offset="0.8132" stop-color="#B6A41E"/>
<stop offset="1" stop-color="#B5A21B"/>
</radialGradient>
</defs>
</svg>
