<svg width="78" height="37" viewBox="0 0 78 37" fill="none" xmlns="http://www.w3.org/2000/svg">
<g id="R-ICO-013127">
<g id="oncogenic RAS">
<path d="M1.16895 11.5011C1.16895 5.97825 5.6461 1.5011 11.1689 1.5011H66.1689C71.6918 1.5011 76.1689 5.97825 76.1689 11.5011V25.5011C76.1689 31.0239 71.6918 35.5011 66.1689 35.5011H11.1689C5.6461 35.5011 1.16895 31.0239 1.16895 25.5011V11.5011Z" fill="url(#paint0_linear_938_23475)"/>
<path d="M61.3772 2.99375C44.6411 2.87553 27.9051 2.52393 11.1689 1.6411C11.1689 1.54774 11.1689 1.45437 11.1689 1.36101C27.9051 0.478188 44.6411 0.126585 61.3772 0.00835967C62.9744 0.0011493 64.5717 -0.000414491 66.1689 0.0024488C72.3055 -0.135269 77.7568 5.44713 77.5397 11.5011C77.5216 13.0359 77.5032 14.5708 77.4854 16.1056C77.4548 19.2374 77.4077 22.3693 77.3465 25.5011C77.3823 31.4718 71.8964 36.5911 66.1697 36.267C66.1695 36.267 66.1692 36.2669 66.1689 36.2669C57.8011 36.0232 49.4325 35.8477 41.0648 35.9541C32.6968 36.057 24.328 36.4656 15.96 36.6659C14.363 36.697 12.766 36.7189 11.1689 36.7329C5.17208 36.9313 -0.228856 31.4488 0.00746071 25.5011C0.030243 23.9665 0.0563831 22.4319 0.0847341 20.8973C0.143017 17.7653 0.219528 14.6332 0.318808 11.5011C0.34944 5.69487 5.77676 0.882456 11.1689 1.36101C11.1689 1.45437 11.1689 1.54774 11.1689 1.6411C5.90817 1.86055 1.72926 6.65386 2.01894 11.5011C2.11821 14.6332 2.19474 17.7653 2.25307 20.8973C2.28142 22.4319 2.30756 23.9665 2.33035 25.5011C2.30764 30.2067 6.51254 34.33 11.1689 34.2693C12.766 34.2834 14.363 34.3053 15.96 34.3364C24.3281 34.5367 32.6968 34.9439 41.0648 35.0468C49.4326 35.1532 57.801 34.9791 66.1689 34.7353C66.1692 34.7353 66.1694 34.7353 66.1696 34.7353C71.0957 34.6693 75.2146 30.1831 74.9914 25.5011C74.9303 22.3692 74.8831 19.2374 74.8525 16.1056C74.8348 14.5708 74.8163 13.0359 74.7983 11.5011C74.8401 6.90183 70.6855 2.87847 66.1689 2.99977C64.5717 3.00261 62.9744 3.00102 61.3772 2.99375Z" fill="#21004A"/>
<text id="oncogenic RAS_2" fill="white" xml:space="preserve" style="white-space: pre" font-family="Arial" font-size="12" font-weight="bold" letter-spacing="0em"><tspan x="8.63965" y="15.6613">oncogenic&#10;</tspan><tspan x="25.9951" y="29.6613">RAS</tspan></text>
</g>
</g>
<defs>
<linearGradient id="paint0_linear_938_23475" x1="38.6689" y1="1.5011" x2="38.6689" y2="35.5011" gradientUnits="userSpaceOnUse">
<stop stop-color="#21004A"/>
<stop offset="1" stop-color="#951C00"/>
</linearGradient>
</defs>
</svg>
