<svg width="25" height="66" viewBox="0 0 25 66" fill="none" xmlns="http://www.w3.org/2000/svg">
<g id="R-ICO-012753">
<path id="Vector" d="M4.99598 0C6.72448 0 8.40518 0.8965 9.33098 2.501L23.5478 27.125C23.9863 27.8848 24.2177 28.7471 24.2177 29.625V60.3267C24.2177 63.0879 21.9794 65.3267 19.2177 65.3267C16.456 65.3267 14.2177 63.0879 14.2177 60.3267V30.9648L0.670784 7.501C-0.710016 5.1094 0.109284 2.0518 2.50088 0.6709C3.28798 0.2158 4.14838 0 4.99598 0Z" fill="url(#paint0_linear_938_24316)"/>
<path id="Vector_2" d="M19.2226 0C20.0703 0 20.9306 0.2158 21.7177 0.6709C24.1093 2.0518 24.9286 5.1094 23.5478 7.501L10.0009 30.9648V60.3266C10.0009 63.0878 7.76255 65.3266 5.00085 65.3266C2.23915 65.3266 0.000854492 63.0878 0.000854492 60.3266V29.625C0.000854492 28.7471 0.232255 27.8848 0.670754 27.125L14.8876 2.501C15.8134 0.8975 17.4941 0 19.2226 0Z" fill="url(#paint1_linear_938_24316)"/>
</g>
<defs>
<linearGradient id="paint0_linear_938_24316" x1="24.2176" y1="32.6633" x2="-1.58783e-05" y2="32.6633" gradientUnits="userSpaceOnUse">
<stop stop-color="#0F82BC"/>
<stop offset="1" stop-color="#002C33"/>
</linearGradient>
<linearGradient id="paint1_linear_938_24316" x1="0.000854492" y1="32.6633" x2="24.2185" y2="32.6633" gradientUnits="userSpaceOnUse">
<stop stop-color="#0F82BC"/>
<stop offset="1" stop-color="#002C33"/>
</linearGradient>
</defs>
</svg>
