<svg width="51" height="65" viewBox="0 0 51 65" fill="none" xmlns="http://www.w3.org/2000/svg">
<g id="R-ICO-013477">
<path id="Vector" d="M17.7215 33.7411C22.1182 30.8861 22.2336 43.1915 19.5053 47.2528L19.4208 47.366C20.4938 44.0739 20.824 32.14 17.6143 33.821L17.7215 33.7411Z" fill="url(#paint0_linear_938_25707)"/>
<path id="Vector_2" d="M30.1436 37.6709C25.7469 34.8159 27.8912 43.1914 30.6194 47.2528L30.7039 47.3661C29.6309 44.074 27.0472 36.0744 30.2568 37.7554L30.1436 37.6709Z" fill="url(#paint1_linear_938_25707)"/>
<path id="Vector_3" d="M17.7215 22.6267C23.2707 25.3956 19.7598 12.9878 16.2036 11.3719L18.6972 12.7977C22.1934 14.9428 26.0234 26.7096 17.6082 22.5423L17.7215 22.6267Z" fill="url(#paint2_linear_938_25707)"/>
<path id="Vector_4" d="M32.4034 22.6268C26.8542 25.3957 30.3578 1.6159 33.9139 0L31.4203 1.4258C27.9241 3.5709 24.1014 26.7097 32.5167 22.5423L32.4034 22.6268Z" fill="url(#paint3_linear_938_25707)"/>
<path id="Vector_5" d="M32.5165 33.8256C35.9834 38.4791 31.5673 38.7733 30.2569 37.7554L30.1436 37.6709C31.0226 38.3462 33.89 37.4772 32.4033 33.7411L32.5165 33.8256Z" fill="url(#paint4_linear_938_25707)"/>
<g id="Group">
<path id="Vector_6" d="M23.5884 64.9743C36.2463 64.9743 30.6198 47.2528 30.6198 47.2528L30.7043 47.3661C30.7043 47.3661 43.2927 64.9743 25.4396 64.9743H23.5884Z" fill="url(#paint5_linear_938_25707)"/>
<path id="Vector_7" d="M26.5368 64.9743C13.8789 64.9743 19.5054 47.2528 19.5054 47.2528L19.4209 47.3661C19.4209 47.3661 6.83247 64.9743 24.6856 64.9743H26.5368Z" fill="url(#paint6_linear_938_25707)"/>
</g>
<g id="Group_2">
<path id="Vector_8" d="M50.1248 29.6582C50.1248 17.0003 32.4033 22.6268 32.4033 22.6268L32.5166 22.5423C32.5166 22.5423 50.1248 9.95393 50.1248 27.807V29.6582Z" fill="url(#paint7_linear_938_25707)"/>
<path id="Vector_9" d="M50.1248 26.7097C50.1248 39.3676 32.4033 33.7411 32.4033 33.7411L32.5166 33.8256C32.5166 33.8256 50.1248 46.414 50.1248 28.5609V26.7097Z" fill="url(#paint8_linear_938_25707)"/>
</g>
<g id="Group_3">
<path id="Vector_10" d="M0 26.7097C0 39.3676 17.7215 33.7411 17.7215 33.7411L17.6082 33.8256C17.6082 33.8256 0 46.414 0 28.5609V26.7097Z" fill="url(#paint9_linear_938_25707)"/>
<path id="Vector_11" d="M0 29.6582C0 17.0003 17.7215 22.6268 17.7215 22.6268L17.6082 22.5423C17.6082 22.5423 0 9.95393 0 27.807V29.6582Z" fill="url(#paint10_linear_938_25707)"/>
</g>
</g>
<defs>
<linearGradient id="paint0_linear_938_25707" x1="19.1455" y1="32.3362" x2="20.2093" y2="48.0473" gradientUnits="userSpaceOnUse">
<stop stop-color="#0F231B"/>
<stop offset="0.0941" stop-color="#30906B"/>
<stop offset="0.2725" stop-color="#C1D3CC"/>
<stop offset="0.4279" stop-color="#30906B"/>
<stop offset="1" stop-color="#0F231B"/>
</linearGradient>
<linearGradient id="paint1_linear_938_25707" x1="29.6453" y1="36.5038" x2="28.8794" y2="47.8145" gradientUnits="userSpaceOnUse">
<stop stop-color="#0F231B"/>
<stop offset="0.0941" stop-color="#30906B"/>
<stop offset="0.2725" stop-color="#C1D3CC"/>
<stop offset="0.4279" stop-color="#30906B"/>
<stop offset="1" stop-color="#0F231B"/>
</linearGradient>
<linearGradient id="paint2_linear_938_25707" x1="18.8294" y1="24.1229" x2="19.718" y2="10.9983" gradientUnits="userSpaceOnUse">
<stop stop-color="#0F231B"/>
<stop offset="0.0941" stop-color="#30906B"/>
<stop offset="0.2725" stop-color="#C1D3CC"/>
<stop offset="0.4279" stop-color="#30906B"/>
<stop offset="1" stop-color="#0F231B"/>
</linearGradient>
<linearGradient id="paint3_linear_938_25707" x1="31.7741" y1="24.3709" x2="30.0498" y2="-1.09319" gradientUnits="userSpaceOnUse">
<stop stop-color="#0F231B"/>
<stop offset="0.0941" stop-color="#30906B"/>
<stop offset="0.2725" stop-color="#C1D3CC"/>
<stop offset="0.4279" stop-color="#30906B"/>
<stop offset="1" stop-color="#0F231B"/>
</linearGradient>
<linearGradient id="paint4_linear_938_25707" x1="32.3437" y1="33.4517" x2="31.7102" y2="38.8052" gradientUnits="userSpaceOnUse">
<stop stop-color="#0F231B"/>
<stop offset="0.0941" stop-color="#30906B"/>
<stop offset="0.2725" stop-color="#C1D3CC"/>
<stop offset="0.4279" stop-color="#30906B"/>
<stop offset="1" stop-color="#0F231B"/>
</linearGradient>
<linearGradient id="paint5_linear_938_25707" x1="31.9602" y1="47.1239" x2="28.7733" y2="64.9937" gradientUnits="userSpaceOnUse">
<stop stop-color="#0F231B"/>
<stop offset="0.0941" stop-color="#30906B"/>
<stop offset="0.2725" stop-color="#C1D3CC"/>
<stop offset="0.4279" stop-color="#30906B"/>
<stop offset="1" stop-color="#0F231B"/>
</linearGradient>
<linearGradient id="paint6_linear_938_25707" x1="20.4993" y1="65.8691" x2="21.946" y2="46.477" gradientUnits="userSpaceOnUse">
<stop stop-color="#0F231B"/>
<stop offset="0.0941" stop-color="#30906B"/>
<stop offset="0.2725" stop-color="#C1D3CC"/>
<stop offset="0.4279" stop-color="#30906B"/>
<stop offset="1" stop-color="#0F231B"/>
</linearGradient>
<linearGradient id="paint7_linear_938_25707" x1="32.2744" y1="21.2863" x2="50.1443" y2="24.4733" gradientUnits="userSpaceOnUse">
<stop stop-color="#0F231B"/>
<stop offset="0.0941" stop-color="#30906B"/>
<stop offset="0.1173" stop-color="#37936F"/>
<stop offset="0.2725" stop-color="#C1D3CC"/>
<stop offset="0.4279" stop-color="#30906B"/>
<stop offset="1" stop-color="#0F231B"/>
</linearGradient>
<linearGradient id="paint8_linear_938_25707" x1="51.0195" y1="32.7473" x2="31.6274" y2="31.3005" gradientUnits="userSpaceOnUse">
<stop stop-color="#0F231B"/>
<stop offset="0.0941" stop-color="#30906B"/>
<stop offset="0.2725" stop-color="#C1D3CC"/>
<stop offset="0.4279" stop-color="#30906B"/>
<stop offset="1" stop-color="#0F231B"/>
</linearGradient>
<linearGradient id="paint9_linear_938_25707" x1="17.8503" y1="35.0816" x2="-0.0195003" y2="31.8946" gradientUnits="userSpaceOnUse">
<stop stop-color="#0F231B"/>
<stop offset="0.0941" stop-color="#30906B"/>
<stop offset="0.2725" stop-color="#C1D3CC"/>
<stop offset="0.4279" stop-color="#30906B"/>
<stop offset="1" stop-color="#0F231B"/>
</linearGradient>
<linearGradient id="paint10_linear_938_25707" x1="-0.8949" y1="23.6206" x2="18.4973" y2="25.0674" gradientUnits="userSpaceOnUse">
<stop stop-color="#0F231B"/>
<stop offset="0.0941" stop-color="#30906B"/>
<stop offset="0.2725" stop-color="#C1D3CC"/>
<stop offset="0.4279" stop-color="#30906B"/>
<stop offset="1" stop-color="#0F231B"/>
</linearGradient>
</defs>
</svg>
