<svg width="89" height="177" viewBox="0 0 89 177" fill="none" xmlns="http://www.w3.org/2000/svg">
<g id="R-ICO-012880">
<g id="LEFT">
<path id="Vector" d="M26.5 175.748C23.7388 175.748 21.5 173.509 21.5 170.748V57.4246C17.3931 55.7225 13.6235 53.2088 10.4585 50.0433C4.0366 43.6219 0.5 35.0838 0.5 26.0022C0.5 16.9206 4.0366 8.38259 10.4585 1.96069C12.4121 0.00858569 15.5772 0.00948572 17.5298 1.96069C19.4824 3.91329 19.4824 7.07939 17.5298 9.03199C12.9966 13.5652 10.5 19.5916 10.5 26.0022C10.5 32.4128 12.9966 38.4392 17.5298 42.9724C20.356 45.7991 23.8594 47.8879 27.6621 49.0134L27.9219 49.0905C30.044 49.72 31.5 51.6702 31.5 53.8841V170.748C31.5 173.509 29.2612 175.748 26.5 175.748Z" fill="url(#paint0_radial_938_23033)"/>
<path id="Vector_2" d="M26.5 175.748C23.7383 175.748 21.5 173.565 21.5 170.873V54.1574C21.5 51.4647 23.7383 49.2824 26.5 49.2824C29.2617 49.2824 31.5 51.4647 31.5 54.1574V170.873C31.5 173.565 29.2617 175.748 26.5 175.748Z" fill="url(#paint1_linear_938_23033)"/>
<g id="Mask group">
<mask id="mask0_938_23033" style="mask-type:alpha" maskUnits="userSpaceOnUse" x="21" y="167" width="11" height="9">
<path id="MASK" d="M31.5 167.015V170.873C31.5 173.565 29.2617 175.748 26.5 175.748C23.7383 175.748 21.5 173.565 21.5 170.873V167.015" fill="url(#paint2_linear_938_23033)"/>
</mask>
<g mask="url(#mask0_938_23033)">
<path id="Vector_3" d="M31.5 167.015V170.873C31.5 173.565 29.2617 175.748 26.5 175.748C23.7383 175.748 21.5 173.565 21.5 170.873V167.015" fill="url(#paint3_radial_938_23033)"/>
</g>
</g>
<g id="Mask group_2">
<mask id="mask1_938_23033" style="mask-type:alpha" maskUnits="userSpaceOnUse" x="21" y="49" width="11" height="10">
<path id="MASK_2" d="M21.3984 58.1406L21.4272 54.1687C21.4272 51.476 23.6366 49.2822 26.3984 49.2822C29.1602 49.2822 31.3984 51.1282 31.3984 54.2826V58.1406" fill="url(#paint4_linear_938_23033)"/>
</mask>
<g mask="url(#mask1_938_23033)">
<path id="Vector_4" d="M21.4995 58.0153L21.3984 54.0435C21.3984 51.3508 23.7377 49.157 26.4995 49.157C29.2613 49.157 31.4995 51.003 31.4995 54.1574V58.0154" fill="url(#paint5_radial_938_23033)"/>
</g>
</g>
<path id="Vector_5" d="M26.5 176.373C23.4673 176.373 21 173.905 21 170.873V57.7572C16.9146 56.0179 13.2505 53.5428 10.105 50.3968C3.5889 43.8812 0 35.2177 0 26.0023C0 16.7869 3.5889 8.12342 10.105 1.60733C12.25 -0.535275 15.7393 -0.536275 17.8833 1.60733C18.9224 2.64593 19.4941 4.02722 19.4941 5.49652C19.4941 6.96583 18.9223 8.34713 17.8833 9.38573C13.4443 13.8246 11 19.7255 11 26.0023C11 32.2791 13.4443 38.18 17.8833 42.619C20.6509 45.3871 24.0811 47.4325 27.8042 48.534L28.0645 48.6111C30.3813 49.2987 32 51.4672 32 53.8842V170.873C32 173.905 29.5327 176.373 26.5 176.373ZM13.9941 0.999425C12.8418 0.999425 11.6894 1.43793 10.812 2.31433C4.4849 8.64202 1 17.0541 1 26.0023C1 34.9505 4.4849 43.3627 10.812 49.6898C13.8994 52.7777 17.6611 55.2923 21.6914 56.9627L22 57.0907V170.873C22 173.354 24.0186 175.373 26.5 175.373C28.9814 175.373 31 173.354 31 170.873V53.8842C31 51.9067 29.6758 50.1322 27.7798 49.5702L27.5195 49.4931C23.6382 48.3442 20.061 46.2114 17.1762 43.3261C12.5483 38.6986 10 32.5463 10 26.0023C10 19.4583 12.5483 13.306 17.1763 8.67863C18.0264 7.82853 18.4942 6.69862 18.4942 5.49652C18.4942 4.29443 18.0264 3.16453 17.1763 2.31442C16.2988 1.43792 15.1465 0.999425 13.9941 0.999425Z" fill="#211C82"/>
</g>
<g id="CENTRAL">
<path id="Vector_6" d="M44.5312 175.748C41.7696 175.748 39.5312 173.565 39.5312 170.873V5.87439C39.5312 3.18169 41.7696 0.99939 44.5312 0.99939C47.2929 0.99939 49.5312 3.18169 49.5312 5.87439V170.873C49.5312 173.565 47.2929 175.748 44.5312 175.748Z" fill="url(#paint6_linear_938_23033)"/>
<g id="Mask group_3">
<mask id="mask2_938_23033" style="mask-type:alpha" maskUnits="userSpaceOnUse" x="39" y="167" width="11" height="9">
<path id="MASK_3" d="M49.5312 167.015V170.873C49.5312 173.565 47.2929 175.748 44.5312 175.748C41.7696 175.748 39.5312 173.565 39.5312 170.873V167.015" fill="url(#paint7_linear_938_23033)"/>
</mask>
<g mask="url(#mask2_938_23033)">
<path id="Vector_7" d="M49.5312 167.015V170.873C49.5312 173.565 47.2929 175.748 44.5312 175.748C41.7696 175.748 39.5312 173.565 39.5312 170.873V167.015" fill="url(#paint8_radial_938_23033)"/>
</g>
</g>
<g id="Mask group_4">
<mask id="mask3_938_23033" style="mask-type:alpha" maskUnits="userSpaceOnUse" x="39" y="49" width="11" height="10">
<path id="MASK_4" d="M39.5312 58.1406L39.56 54.1687C39.56 51.476 41.7694 49.2822 44.5312 49.2822C47.293 49.2822 49.5312 51.1282 49.5312 54.2826V58.1406" fill="url(#paint9_linear_938_23033)"/>
</mask>
<g mask="url(#mask3_938_23033)">
<path id="Vector_8" d="M39.5312 58.1406L39.56 54.1687C39.56 51.476 41.7694 49.2822 44.5312 49.2822C47.293 49.2822 49.5312 51.1282 49.5312 54.2826V58.1406" fill="url(#paint10_radial_938_23033)"/>
</g>
</g>
<g id="Mask group_5">
<mask id="mask4_938_23033" style="mask-type:alpha" maskUnits="userSpaceOnUse" x="39" y="0" width="11" height="10">
<path id="MASK_5" d="M39.5312 9.85767L39.56 5.88577C39.56 3.19307 41.7694 0.999268 44.5312 0.999268C47.293 0.999268 49.5312 2.84527 49.5312 5.99967V9.85767" fill="url(#paint11_linear_938_23033)"/>
</mask>
<g mask="url(#mask4_938_23033)">
<path id="Vector_9" d="M39.5308 9.85757L39.4297 5.88577C39.4297 3.19307 41.769 0.999268 44.5308 0.999268C47.2926 0.999268 49.5308 2.84527 49.5308 5.99967V9.85767" fill="url(#paint12_radial_938_23033)"/>
</g>
</g>
<path id="Vector_10" d="M44.5312 0.499268C41.4985 0.499268 39.0312 2.91037 39.0312 5.87427V170.873C39.0312 173.836 41.4985 176.248 44.5312 176.248C47.5639 176.248 50.0312 173.836 50.0312 170.873V58.1409V54.2825V5.87427C50.0312 2.91047 47.5639 0.499268 44.5312 0.499268ZM49.0312 170.873C49.0312 173.285 47.0127 175.248 44.5312 175.248C42.0498 175.248 40.0312 173.285 40.0312 170.873V58.1443L40.06 54.1687C40.06 51.7502 42.0659 49.7825 44.5312 49.7825C46.771 49.7825 49.0312 51.1741 49.0312 54.2825V58.1409V170.873ZM44.5312 48.7825C42.667 48.7825 41.0194 49.7067 40.0312 51.1118V5.87427C40.0312 3.46167 42.0498 1.49927 44.5312 1.49927C47.0127 1.49927 49.0312 3.46167 49.0312 5.87427V50.979C48.0705 49.6155 46.4844 48.7825 44.5312 48.7825Z" fill="#211C82"/>
</g>
<g id="RIGHT">
<path id="Vector_11" d="M62.501 175.748C65.2622 175.748 67.501 173.509 67.501 170.748V57.4246C71.6079 55.7225 75.3775 53.2088 78.5425 50.0433C84.9644 43.6219 88.501 35.0838 88.501 26.0023C88.501 16.9208 84.9644 8.38259 78.5425 1.96069C76.5889 0.00858569 73.4238 0.00948572 71.4712 1.96069C69.5186 3.91329 69.5186 7.07939 71.4712 9.03199C76.0044 13.5652 78.501 19.5916 78.501 26.0022C78.501 32.4128 76.0044 38.4392 71.4712 42.9724C68.645 45.7991 65.1416 47.8879 61.3389 49.0134L61.0791 49.0905C58.957 49.7199 57.501 51.6701 57.501 53.884V170.748C57.501 173.509 59.7397 175.748 62.501 175.748Z" fill="url(#paint13_radial_938_23033)"/>
<path id="Vector_12" d="M62.501 175.748C59.7393 175.748 57.501 173.565 57.501 170.873V54.1574C57.501 51.4647 59.7393 49.2824 62.501 49.2824C65.2627 49.2824 67.501 51.4647 67.501 54.1574V170.873C67.501 173.565 65.2627 175.748 62.501 175.748Z" fill="url(#paint14_linear_938_23033)"/>
<g id="Mask group_6">
<mask id="mask5_938_23033" style="mask-type:alpha" maskUnits="userSpaceOnUse" x="57" y="167" width="11" height="9">
<path id="MASK_6" d="M67.501 167.015V170.873C67.501 173.565 65.2627 175.748 62.501 175.748C59.7393 175.748 57.501 173.565 57.501 170.873V167.015" fill="url(#paint15_linear_938_23033)"/>
</mask>
<g mask="url(#mask5_938_23033)">
<path id="Vector_13" d="M67.501 167.015V170.873C67.501 173.565 65.2627 175.748 62.501 175.748C59.7393 175.748 57.501 173.565 57.501 170.873V167.015" fill="url(#paint16_radial_938_23033)"/>
</g>
</g>
<g id="Mask group_7">
<mask id="mask6_938_23033" style="mask-type:alpha" maskUnits="userSpaceOnUse" x="57" y="49" width="11" height="10">
<path id="MASK_7" d="M57.501 58.1407L57.5298 54.1688C57.5298 51.4761 59.7392 49.2823 62.501 49.2823C65.2628 49.2823 67.501 51.1283 67.501 54.2827V58.1407" fill="url(#paint17_linear_938_23033)"/>
</mask>
<g mask="url(#mask6_938_23033)">
<path id="Vector_14" d="M57.501 58.0153V54.1573C57.501 51.4646 59.7393 49.2823 62.501 49.2823C65.2627 49.2823 67.501 51.4646 67.501 54.1573V57.4245" fill="url(#paint18_radial_938_23033)"/>
</g>
</g>
<path id="Vector_15" d="M62.501 176.248C59.4683 176.248 57.001 173.78 57.001 170.748V53.8842C57.001 51.4672 58.6197 49.2988 60.937 48.6113L61.1963 48.5342C64.9199 47.4326 68.3501 45.3872 71.1177 42.6192C75.5567 38.1802 78.001 32.2794 78.001 26.0025C78.001 19.7256 75.5567 13.8248 71.1177 9.38579C70.0786 8.34719 69.5069 6.96589 69.5069 5.49659C69.5069 4.02729 70.0787 2.64599 71.1177 1.60739C73.2627 -0.535214 76.752 -0.536214 78.896 1.60739C85.4121 8.12349 89.001 16.7871 89.001 26.0024C89.001 35.2177 85.4121 43.8813 78.896 50.3969C75.7505 53.5429 72.0864 56.018 68.001 57.7573V170.748C68.001 173.78 65.5338 176.248 62.501 176.248ZM75.0069 0.999386C73.8546 0.999386 72.7022 1.43789 71.8248 2.31429C70.9747 3.16439 70.5069 4.29429 70.5069 5.49639C70.5069 6.69849 70.9747 7.82839 71.8248 8.67849C76.4527 13.3059 79.0011 19.4583 79.0011 26.0022C79.0011 32.5461 76.4527 38.6986 71.8248 43.326C68.94 46.2113 65.3629 48.3441 61.481 49.493L61.2217 49.5701C59.3252 50.1321 58.001 51.9065 58.001 53.8841V170.748C58.001 173.229 60.0196 175.248 62.501 175.248C64.9824 175.248 67.001 173.229 67.001 170.748V57.0907L67.3096 56.9628C71.3399 55.2924 75.1016 52.7777 78.189 49.6899C84.5161 43.3628 88.001 34.9506 88.001 26.0024C88.001 17.0542 84.5161 8.64199 78.189 2.31439C77.3116 1.43789 76.1592 0.999386 75.0069 0.999386Z" fill="#211C82"/>
</g>
</g>
<defs>
<radialGradient id="paint0_radial_938_23033" cx="0" cy="0" r="1" gradientUnits="userSpaceOnUse" gradientTransform="translate(36.086 21.7231) scale(38.8203)">
<stop offset="0.713" stop-color="#2D2885"/>
<stop offset="1" stop-color="#9793DB"/>
</radialGradient>
<linearGradient id="paint1_linear_938_23033" x1="31.4728" y1="112.515" x2="21.3939" y2="112.515" gradientUnits="userSpaceOnUse">
<stop stop-color="#2D2885"/>
<stop offset="1" stop-color="#9793DB"/>
</linearGradient>
<linearGradient id="paint2_linear_938_23033" x1="26.5" y1="175.748" x2="26.5" y2="167.015" gradientUnits="userSpaceOnUse">
<stop stop-color="white"/>
<stop offset="1" stop-opacity="0"/>
</linearGradient>
<radialGradient id="paint3_radial_938_23033" cx="0" cy="0" r="1" gradientUnits="userSpaceOnUse" gradientTransform="translate(26.2413 161.042) scale(6.8478 15.5205)">
<stop stop-color="#9793DB"/>
<stop offset="0.4201" stop-color="#6460B2"/>
<stop offset="0.8026" stop-color="#3C3791"/>
<stop offset="1" stop-color="#2D2885"/>
</radialGradient>
<linearGradient id="paint4_linear_938_23033" x1="26.3984" y1="49.2822" x2="26.3984" y2="58.1406" gradientUnits="userSpaceOnUse">
<stop stop-color="white"/>
<stop offset="1" stop-opacity="0"/>
</linearGradient>
<radialGradient id="paint5_radial_938_23033" cx="0" cy="0" r="1" gradientUnits="userSpaceOnUse" gradientTransform="translate(23.2979 55.3997) rotate(180) scale(6.9437 7.03744)">
<stop stop-color="#9793DB"/>
<stop offset="0.4201" stop-color="#6460B2"/>
<stop offset="0.8026" stop-color="#3C3791"/>
<stop offset="1" stop-color="#2D2885"/>
</radialGradient>
<linearGradient id="paint6_linear_938_23033" x1="49.504" y1="88.3735" x2="39.4251" y2="88.3735" gradientUnits="userSpaceOnUse">
<stop stop-color="#2D2885"/>
<stop offset="1" stop-color="#9793DB"/>
</linearGradient>
<linearGradient id="paint7_linear_938_23033" x1="44.5313" y1="175.748" x2="44.5312" y2="167.015" gradientUnits="userSpaceOnUse">
<stop stop-color="white"/>
<stop offset="1" stop-opacity="0"/>
</linearGradient>
<radialGradient id="paint8_radial_938_23033" cx="0" cy="0" r="1" gradientUnits="userSpaceOnUse" gradientTransform="translate(44.2725 161.042) scale(6.8478 15.5205)">
<stop stop-color="#9793DB"/>
<stop offset="0.4201" stop-color="#6460B2"/>
<stop offset="0.8026" stop-color="#3C3791"/>
<stop offset="1" stop-color="#2D2885"/>
</radialGradient>
<linearGradient id="paint9_linear_938_23033" x1="44.5312" y1="49.2822" x2="44.5312" y2="58.1406" gradientUnits="userSpaceOnUse">
<stop stop-color="white"/>
<stop offset="1" stop-opacity="0"/>
</linearGradient>
<radialGradient id="paint10_radial_938_23033" cx="0" cy="0" r="1" gradientUnits="userSpaceOnUse" gradientTransform="translate(41.4117 55.5249) rotate(180) scale(6.9378 7.03146)">
<stop stop-color="#9793DB"/>
<stop offset="0.4201" stop-color="#6460B2"/>
<stop offset="0.8026" stop-color="#3C3791"/>
<stop offset="1" stop-color="#2D2885"/>
</radialGradient>
<linearGradient id="paint11_linear_938_23033" x1="44.5312" y1="0.999268" x2="44.5312" y2="9.85767" gradientUnits="userSpaceOnUse">
<stop stop-color="white"/>
<stop offset="1" stop-opacity="0"/>
</linearGradient>
<radialGradient id="paint12_radial_938_23033" cx="0" cy="0" r="1" gradientUnits="userSpaceOnUse" gradientTransform="translate(41.3292 7.24387) rotate(180) scale(6.9437 7.03744)">
<stop stop-color="#9793DB"/>
<stop offset="0.4201" stop-color="#6460B2"/>
<stop offset="0.8026" stop-color="#3C3791"/>
<stop offset="1" stop-color="#2D2885"/>
</radialGradient>
<radialGradient id="paint13_radial_938_23033" cx="0" cy="0" r="1" gradientUnits="userSpaceOnUse" gradientTransform="translate(52.0149 24.1809) scale(38.8909 38.8909)">
<stop offset="0.6982" stop-color="#9793DB"/>
<stop offset="1" stop-color="#2D2885"/>
</radialGradient>
<linearGradient id="paint14_linear_938_23033" x1="67.4737" y1="112.515" x2="57.3948" y2="112.515" gradientUnits="userSpaceOnUse">
<stop stop-color="#2D2885"/>
<stop offset="1" stop-color="#9793DB"/>
</linearGradient>
<linearGradient id="paint15_linear_938_23033" x1="62.501" y1="175.748" x2="62.501" y2="167.015" gradientUnits="userSpaceOnUse">
<stop stop-color="white"/>
<stop offset="1" stop-opacity="0"/>
</linearGradient>
<radialGradient id="paint16_radial_938_23033" cx="0" cy="0" r="1" gradientUnits="userSpaceOnUse" gradientTransform="translate(62.2422 161.041) scale(6.8478 15.5205)">
<stop stop-color="#9793DB"/>
<stop offset="0.4201" stop-color="#6460B2"/>
<stop offset="0.8026" stop-color="#3C3791"/>
<stop offset="1" stop-color="#2D2885"/>
</radialGradient>
<linearGradient id="paint17_linear_938_23033" x1="62.501" y1="49.2823" x2="62.501" y2="58.1407" gradientUnits="userSpaceOnUse">
<stop stop-color="white"/>
<stop offset="1" stop-opacity="0"/>
</linearGradient>
<radialGradient id="paint18_radial_938_23033" cx="0" cy="0" r="1" gradientUnits="userSpaceOnUse" gradientTransform="translate(63.0444 63.416) rotate(180) scale(6.8478 15.5205)">
<stop stop-color="#2D2885"/>
<stop offset="0.0802" stop-color="#38338E"/>
<stop offset="0.5044" stop-color="#6B67B7"/>
<stop offset="0.824" stop-color="#8B87D1"/>
<stop offset="1" stop-color="#9793DB"/>
</radialGradient>
</defs>
</svg>
