<svg width="96" height="24" viewBox="0 0 96 24" fill="none" xmlns="http://www.w3.org/2000/svg">
<g id="R-ICO-012356">
<g id="2&#39;-0-ACETYL- ADP-RIBOSE">
<g id="Rectangle 2">
<mask id="path-1-outside-1_938_24609" maskUnits="userSpaceOnUse" x="8.37964" y="0" width="80" height="24" fill="black">
<rect fill="white" x="8.37964" width="80" height="24"/>
<path d="M8.37964 2H87.6206V22H8.37964V2Z"/>
</mask>
<path d="M8.37964 2H87.6206V22H8.37964V2Z" fill="#BF8E23"/>
<path d="M8.37964 2V4H87.6206V2V0H8.37964V2ZM87.6206 22V20H8.37964V22V24H87.6206V22Z" fill="url(#paint0_linear_938_24609)" mask="url(#path-1-outside-1_938_24609)"/>
</g>
<g id="LEFT CORNER">
<mask id="mask0_938_24609" style="mask-type:luminance" maskUnits="userSpaceOnUse" x="0" y="0" width="10" height="24">
<rect id="MASK" width="10" height="24" transform="matrix(-1 8.74228e-08 8.74228e-08 1 10 0)" fill="white"/>
</mask>
<g mask="url(#mask0_938_24609)">
<g id="CORNER">
<mask id="path-4-outside-2_938_24609" maskUnits="userSpaceOnUse" x="-1.74846e-07" y="-9.61651e-07" width="13" height="24" fill="black">
<rect fill="white" x="-1.74846e-07" y="-9.61651e-07" width="13" height="24"/>
<path d="M8 22L2 16L2 8L8 2L11 2L11 22L8 22Z"/>
</mask>
<path d="M8 22L2 16L2 8L8 2L11 2L11 22L8 22Z" fill="#BF8E22"/>
<path d="M8 22L2 16L2 8L8 2L11 2L11 22L8 22Z" stroke="url(#paint1_linear_938_24609)" stroke-width="4" stroke-miterlimit="3.99933" stroke-linejoin="round" mask="url(#path-4-outside-2_938_24609)"/>
</g>
</g>
</g>
<g id="RIGHT CORNER">
<mask id="mask1_938_24609" style="mask-type:luminance" maskUnits="userSpaceOnUse" x="86" y="0" width="10" height="24">
<rect id="MASK_2" x="86.1555" width="9.84445" height="24" fill="white"/>
</mask>
<g mask="url(#mask1_938_24609)">
<g id="CORNER_2">
<mask id="path-6-outside-3_938_24609" maskUnits="userSpaceOnUse" x="83" y="-7.76718e-07" width="13" height="24" fill="black">
<rect fill="white" x="83" y="-7.76718e-07" width="13" height="24"/>
<path d="M88 22L94 16L94 8L88 2L85 2L85 22L88 22Z"/>
</mask>
<path d="M88 22L94 16L94 8L88 2L85 2L85 22L88 22Z" fill="#BF8E22"/>
<path d="M88 22L94 16L94 8L88 2L85 2L85 22L88 22Z" stroke="url(#paint2_linear_938_24609)" stroke-width="4" stroke-miterlimit="3.99933" stroke-linejoin="round" mask="url(#path-6-outside-3_938_24609)"/>
</g>
</g>
</g>
<text id="Ch" fill="white" xml:space="preserve" style="white-space: pre" font-family="Arial" font-size="12" font-weight="bold" letter-spacing="0em"><tspan x="9.93345" y="10.6602">2&#39;-0-ACETYL-</tspan><tspan x="10.3612" y="21.6602">ADP-RIBOSE</tspan></text>
</g>
</g>
<defs>
<linearGradient id="paint0_linear_938_24609" x1="48.0001" y1="2" x2="48.0001" y2="22" gradientUnits="userSpaceOnUse">
<stop stop-color="#C08F23"/>
<stop offset="1" stop-color="#A2317B"/>
</linearGradient>
<linearGradient id="paint1_linear_938_24609" x1="6.5" y1="2" x2="6.5" y2="22" gradientUnits="userSpaceOnUse">
<stop stop-color="#BF8E22"/>
<stop offset="1" stop-color="#A2317B"/>
</linearGradient>
<linearGradient id="paint2_linear_938_24609" x1="89.5" y1="2" x2="89.5" y2="22" gradientUnits="userSpaceOnUse">
<stop stop-color="#C08F23"/>
<stop offset="1" stop-color="#A2317B"/>
</linearGradient>
</defs>
</svg>
