<svg width="83" height="67" viewBox="0 0 83 67" fill="none" xmlns="http://www.w3.org/2000/svg">
<g id="R-ICO-014774">
<g id="BG">
<path id="Vector" d="M46.0854 66.5665C18.5375 66.5665 0.926185 20.1817 0.189885 18.2071C-0.388715 16.6549 0.400285 14.9278 1.95209 14.3487C3.50339 13.7686 5.23139 14.5577 5.81149 16.1099C5.85399 16.2237 10.146 27.6162 17.4443 38.8106C23.9155 48.7354 34.1372 60.5665 46.0854 60.5665C53.5786 60.5665 58.2773 58.3956 60.0507 54.1144C62.7665 47.5568 58.4999 36.0255 50.3373 27.8624C43.6015 21.128 40.0414 12.5303 40.0414 3C40.0414 1.3433 41.3847 0 43.0414 0C44.6981 0 46.0414 1.3433 46.0414 3C46.0414 11.0171 48.914 17.9551 54.5795 23.6201C63.2226 32.2627 69.7812 46.3017 65.5937 56.4101C63.6747 61.044 58.7323 66.5665 46.0854 66.5665Z" fill="#39B6B9"/>
<path id="Vector_2" d="M36.225 66.5664C23.578 66.5664 18.6361 61.0439 16.7167 56.4101C12.5297 46.3007 19.0883 32.2626 27.7313 23.6201C33.3963 17.9551 36.2689 11.0176 36.2689 3C36.2689 1.3433 37.6122 0 39.2689 0C40.9256 0 42.2689 1.3433 42.2689 3C42.2689 12.5308 38.7088 21.1279 31.9735 27.8623C23.8104 36.0254 19.5438 47.5566 22.2601 54.1143C24.0335 58.3955 28.7318 60.5664 36.2249 60.5664C48.1731 60.5664 58.3953 48.7353 64.8665 38.8105C72.1648 27.6162 76.4568 16.2236 76.4993 16.1098C77.0794 14.558 78.8064 13.7665 80.3587 14.3486C81.9105 14.9277 82.6995 16.6548 82.1209 18.207C81.3847 20.1816 63.7734 66.5664 36.225 66.5664Z" fill="#39B6B9"/>
</g>
<g id="SHADE">
<path id="Vector_3" d="M59.5318 55.1469C58.6451 56.683 57.3116 57.8948 55.5396 58.7791C51.1885 62.3432 46.3766 65.0098 41.1553 66.0662C42.7608 66.391 44.4042 66.5664 46.0854 66.5664C58.7324 66.5664 63.6748 61.0439 65.5937 56.4102C66.8259 53.4357 67.1219 50.12 66.7137 46.7026C64.5259 49.6703 62.127 52.5458 59.5318 55.1469Z" fill="url(#paint0_radial_938_23001)"/>
<path id="Vector_4" d="M21.9733 45.1528C21.2084 48.542 21.2491 51.6732 22.2602 54.1143C22.4099 54.4756 22.5881 54.8161 22.7794 55.1473C24.0625 56.4334 25.3937 57.6508 26.7711 58.7792C29.1444 59.9638 32.2967 60.5664 36.2251 60.5664C37.9049 60.5664 39.5493 60.3253 41.1554 59.8957C33.7242 57.9082 27.1448 51.7376 21.9733 45.1528Z" fill="url(#paint1_radial_938_23001)"/>
<path id="Vector_5" d="M42.2691 3C42.2691 6.0875 41.8896 9.0748 41.1555 11.9347C42.6875 17.9031 45.7838 23.3096 50.3375 27.8623C55.4616 32.9868 59.0476 39.4376 60.3374 45.1531C61.9409 43.1115 63.4092 41.0323 64.7251 39.0251C62.5059 33.3283 58.7927 27.8328 54.5797 23.6201C48.9141 17.9551 46.0415 11.0171 46.0415 3C46.0415 1.3433 44.6982 0 43.0415 0C42.3227 0 41.672 0.2632 41.1553 0.6848C41.8295 1.2349 42.2691 2.062 42.2691 3Z" fill="url(#paint2_radial_938_23001)"/>
<path id="Vector_6" d="M17.4443 38.8105C10.1459 27.6162 5.85386 16.2236 5.81136 16.1099C5.23126 14.5577 3.50326 13.7686 1.95196 14.3487C0.400163 14.9278 -0.388837 16.6549 0.189763 18.2071C0.595163 19.2943 6.11806 33.8439 15.5969 46.7024C15.8996 44.1669 16.5918 41.5764 17.5857 39.025C17.5391 38.9537 17.4905 38.8816 17.4443 38.8105Z" fill="url(#paint3_radial_938_23001)"/>
</g>
</g>
<defs>
<radialGradient id="paint0_radial_938_23001" cx="0" cy="0" r="1" gradientTransform="matrix(7.16238 9.0945 -15.8285 12.4667 53.4339 53.4958)" gradientUnits="userSpaceOnUse">
<stop offset="0.4" stop-color="#011D5B"/>
<stop offset="1" stop-color="#011D5B" stop-opacity="0"/>
</radialGradient>
<radialGradient id="paint1_radial_938_23001" cx="0" cy="0" r="1" gradientUnits="userSpaceOnUse" gradientTransform="translate(28.8651 55.0601) rotate(-42.793) scale(24.7653 13.6019)">
<stop offset="0.303666" stop-color="#011D5B" stop-opacity="0"/>
<stop offset="1" stop-color="#011D5B"/>
</radialGradient>
<radialGradient id="paint2_radial_938_23001" cx="0" cy="0" r="1" gradientUnits="userSpaceOnUse" gradientTransform="translate(54.1773 21.5859) rotate(21.4184) scale(23.9813 49.9932)">
<stop offset="0.506305" stop-color="#011D5B" stop-opacity="0"/>
<stop offset="1" stop-color="#011D5B"/>
</radialGradient>
<radialGradient id="paint3_radial_938_23001" cx="0" cy="0" r="1" gradientTransform="matrix(-3.87884 -1.59692 4.71568 -11.4524 18.2288 40.4575)" gradientUnits="userSpaceOnUse">
<stop stop-color="#011D5B"/>
<stop offset="1" stop-color="#011D5B" stop-opacity="0"/>
</radialGradient>
</defs>
</svg>
