<svg width="48" height="13" viewBox="0 0 48 13" fill="none" xmlns="http://www.w3.org/2000/svg">
<g id="R-ICO-013019">
<g id="Mitochondrial protein">
<path d="M41.1788 11.2516H6.17885C3.42885 11.2516 1.17885 9.00159 1.17885 6.25159C1.17885 3.50159 3.42885 1.25159 6.17885 1.25159H41.1788C43.9288 1.25159 46.1788 3.50159 46.1788 6.25159C46.1788 9.00159 43.9288 11.2516 41.1788 11.2516Z" fill="#ED2B7C"/>
<path d="M15.8297 9.75893C24.2794 9.87716 32.7291 10.2288 41.1788 11.1116C41.1788 11.2049 41.1788 11.2983 41.1788 11.3917C32.7291 12.2745 24.2794 12.6261 15.8297 12.7443C12.6128 12.7731 9.39581 12.712 6.17885 12.6385C4.89108 12.6192 3.61434 12.1878 2.58623 11.4409C0.929276 10.2677 -0.0755354 8.24701 0.00444186 6.25159C0.0428609 2.9421 3.11207 0.237646 6.17843 0.485727C6.17857 0.485734 6.17871 0.48574 6.17885 0.485747C10.4036 0.729461 14.6288 0.904941 18.8534 0.798612C23.0783 0.695637 27.3035 0.287115 31.5284 0.0867631C34.7452 -0.0372263 37.962 -0.0152898 41.1788 0.0704802C42.4252 0.093596 43.6564 0.521178 44.6385 1.25279C46.2194 2.40769 47.143 4.36329 47.0238 6.25159C46.9208 9.39283 43.9074 11.7942 41.1788 11.3917C41.1788 11.2983 41.1788 11.2049 41.1788 11.1116C43.7712 10.8275 45.5554 8.43157 45.334 6.25159C45.2398 4.91044 44.4777 3.70226 43.4012 3.0334C42.7297 2.61057 41.9498 2.40421 41.1788 2.43261C37.962 2.51838 34.7452 2.54032 31.5284 2.41633C27.3035 2.21598 23.0783 1.80882 18.8534 1.70584C14.6287 1.59952 10.4037 1.77363 6.17885 2.01734C6.17875 2.01735 6.17864 2.01736 6.17854 2.01736C3.92405 2.14757 2.19647 4.24027 2.35321 6.25159C2.40823 7.4853 3.08877 8.62812 4.08886 9.27888C4.71443 9.68665 5.44906 9.8893 6.17885 9.86475C9.39579 9.79116 12.6128 9.72996 15.8297 9.75893Z" fill="#B2205D"/>
</g>
</g>
</svg>
