<svg width="97" height="37" viewBox="0 0 97 37" fill="none" xmlns="http://www.w3.org/2000/svg">
<g id="R-ICO-013634">
<g id="RNA BINDING PROTEIN">
<path d="M1.08594 11.5C1.08594 5.97715 5.56309 1.5 11.0859 1.5H85.0859C90.6088 1.5 95.0859 5.97715 95.0859 11.5V25.5C95.0859 31.0228 90.6088 35.5 85.0859 35.5H11.0859C5.56309 35.5 1.08594 31.0228 1.08594 25.5V11.5Z" fill="url(#paint0_linear_938_23731)"/>
<path d="M70.7941 2.99266C50.8913 2.87443 30.9887 2.52283 11.0859 1.64001C11.0859 1.54664 11.0859 1.45328 11.0859 1.35991C30.9887 0.477089 50.8913 0.125486 70.7941 0.00726104C75.5579 -0.0108227 80.3219 0.00661147 85.0859 0.0403233C91.1384 -0.0618016 96.5111 5.36884 96.4012 11.3351C96.4016 11.39 96.4016 11.4449 96.4012 11.5C96.3624 16.1667 96.2975 20.8333 96.2118 25.5C96.2526 31.4401 90.8141 36.5596 85.0869 36.2659C85.0865 36.2659 85.0862 36.2658 85.0859 36.2658C75.1348 36.0221 65.1828 35.8466 55.2319 35.953C45.2805 36.056 35.3283 36.4645 25.3769 36.6648C20.6133 36.7428 15.8496 36.7631 11.0859 36.746C5.14353 36.868 -0.140792 31.5082 0.00289643 25.6626C0.00288033 25.6084 0.00325596 25.5543 0.00402558 25.5C0.0776471 20.8334 0.179976 16.1667 0.319941 11.5C0.344641 5.74253 5.69452 0.937362 11.0859 1.35991C11.0859 1.45328 11.0859 1.54664 11.0859 1.64001C5.82437 1.80346 1.56807 6.60398 1.85179 11.5C1.99175 16.1667 2.09408 20.8335 2.16776 25.5C2.16853 25.5439 2.16962 25.5877 2.17101 25.6313C2.21827 30.333 6.48025 34.3836 11.0859 34.254C15.8496 34.237 20.6132 34.2573 25.3769 34.3353C35.3283 34.5356 45.2805 34.9428 55.2319 35.0457C65.1829 35.1521 75.1347 34.978 85.0859 34.7342C85.0862 34.7342 85.0865 34.7342 85.0867 34.7342C90.0121 34.6985 94.1782 30.2125 93.9601 25.5C93.8744 20.8333 93.8096 16.1666 93.7707 11.5C93.7703 11.4575 93.7696 11.4151 93.7686 11.3728C93.7562 6.79126 89.5823 2.81015 85.0859 2.9597C80.3219 2.99344 75.5579 3.01087 70.7941 2.99266Z" fill="#0052AF"/>
<text id="RNA BINDING PROTEIN_2" fill="white" xml:space="preserve" style="white-space: pre" font-family="Arial" font-size="12" font-weight="bold" letter-spacing="0em"><tspan x="8.27734" y="15.6602">RNA BINDING&#10;</tspan><tspan x="21.4023" y="29.6602">PROTEIN</tspan></text>
</g>
</g>
<defs>
<linearGradient id="paint0_linear_938_23731" x1="48.0859" y1="1.5" x2="48.0859" y2="35.5" gradientUnits="userSpaceOnUse">
<stop stop-color="#2A8541"/>
<stop offset="1" stop-color="#06A2B2"/>
</linearGradient>
</defs>
</svg>
