<svg width="80" height="24" viewBox="0 0 80 24" fill="none" xmlns="http://www.w3.org/2000/svg">
<g id="R-ICO-012780">
<g id="CHEMICAL_OCT">
<g id="Rectangle 2">
<mask id="path-1-outside-1_938_24778" maskUnits="userSpaceOnUse" x="8.37964" y="0" width="64" height="24" fill="black">
<rect fill="white" x="8.37964" width="64" height="24"/>
<path d="M8.37964 2H71.6206V22H8.37964V2Z"/>
</mask>
<path d="M8.37964 2H71.6206V22H8.37964V2Z" fill="#662C18"/>
<path d="M8.37964 2V4H71.6206V2V0H8.37964V2ZM71.6206 22V20H8.37964V22V24H71.6206V22Z" fill="url(#paint0_linear_938_24778)" mask="url(#path-1-outside-1_938_24778)"/>
</g>
<g id="LEFT CORNER">
<mask id="mask0_938_24778" style="mask-type:luminance" maskUnits="userSpaceOnUse" x="0" y="0" width="10" height="24">
<rect id="MASK" width="10" height="24" transform="matrix(-1 8.74228e-08 8.74228e-08 1 10 0)" fill="white"/>
</mask>
<g mask="url(#mask0_938_24778)">
<g id="CORNER">
<mask id="path-4-outside-2_938_24778" maskUnits="userSpaceOnUse" x="-1.74846e-07" y="-9.61651e-07" width="13" height="24" fill="black">
<rect fill="white" x="-1.74846e-07" y="-9.61651e-07" width="13" height="24"/>
<path d="M8 22L2 16L2 8L8 2L11 2L11 22L8 22Z"/>
</mask>
<path d="M8 22L2 16L2 8L8 2L11 2L11 22L8 22Z" fill="#662C18"/>
<path d="M8 22L2 16L2 8L8 2L11 2L11 22L8 22Z" stroke="url(#paint1_linear_938_24778)" stroke-width="4" stroke-miterlimit="3.99933" stroke-linejoin="round" mask="url(#path-4-outside-2_938_24778)"/>
</g>
</g>
</g>
<g id="RIGHT CORNER">
<mask id="mask1_938_24778" style="mask-type:luminance" maskUnits="userSpaceOnUse" x="70" y="0" width="10" height="24">
<rect id="MASK_2" x="70.1555" width="9.84445" height="24" fill="white"/>
</mask>
<g mask="url(#mask1_938_24778)">
<g id="CORNER_2">
<mask id="path-6-outside-3_938_24778" maskUnits="userSpaceOnUse" x="67" y="-7.76718e-07" width="13" height="24" fill="black">
<rect fill="white" x="67" y="-7.76718e-07" width="13" height="24"/>
<path d="M72 22L78 16L78 8L72 2L69 2L69 22L72 22Z"/>
</mask>
<path d="M72 22L78 16L78 8L72 2L69 2L69 22L72 22Z" fill="#662C18"/>
<path d="M72 22L78 16L78 8L72 2L69 2L69 22L72 22Z" stroke="url(#paint2_linear_938_24778)" stroke-width="4" stroke-miterlimit="3.99933" stroke-linejoin="round" mask="url(#path-6-outside-3_938_24778)"/>
</g>
</g>
</g>
<text id="Ch" fill="white" xml:space="preserve" style="white-space: pre" font-family="Arial" font-size="12" font-weight="bold" letter-spacing="0em"><tspan x="6.24595" y="16.1602">GLYCOGEN</tspan></text>
</g>
</g>
<defs>
<linearGradient id="paint0_linear_938_24778" x1="40.0001" y1="22" x2="40.0001" y2="2" gradientUnits="userSpaceOnUse">
<stop stop-color="#EF6838"/>
<stop offset="1" stop-color="#662C18"/>
</linearGradient>
<linearGradient id="paint1_linear_938_24778" x1="6.5" y1="22" x2="6.49999" y2="2" gradientUnits="userSpaceOnUse">
<stop stop-color="#EF6838"/>
<stop offset="1" stop-color="#662C18"/>
</linearGradient>
<linearGradient id="paint2_linear_938_24778" x1="73.5" y1="22" x2="73.5" y2="2" gradientUnits="userSpaceOnUse">
<stop stop-color="#EF6838"/>
<stop offset="1" stop-color="#662C18"/>
</linearGradient>
</defs>
</svg>
