<svg width="134" height="26" viewBox="0 0 134 26" fill="none" xmlns="http://www.w3.org/2000/svg">
<g id="R-ICO-014779">
<path id="BG" d="M128.596 8.53702H63.8973C58.6452 8.53702 53.6928 6.46772 49.6623 3.10022C47.5354 1.32322 44.7987 0.253418 41.8089 0.253418C38.8192 0.253418 36.0824 1.32322 33.9556 3.10022C29.925 6.46772 24.9726 8.53702 19.7205 8.53702H4.42538C2.33628 8.53702 0.470578 10.0641 0.271978 12.1438C0.0442783 14.5295 1.91448 16.537 4.25318 16.537H19.7205C24.9727 16.537 29.925 18.6063 33.9556 21.9737C36.0825 23.7507 38.8193 24.8205 41.809 24.8205C44.7988 24.8205 47.5355 23.7507 49.6624 21.9737C53.693 18.6062 58.6453 16.5369 63.8975 16.5369H128.769C131.107 16.5369 132.978 14.5293 132.75 12.1437C132.551 10.0641 130.686 8.53702 128.596 8.53702Z" fill="#F7FFBF" stroke="#A4AD5A" stroke-width="0.5064" stroke-miterlimit="10" stroke-linecap="round" stroke-linejoin="round"/>
<path id="Nucleus" d="M41.809 22.285C47.1925 22.285 51.5567 17.9208 51.5567 12.5373C51.5567 7.15375 47.1925 2.78955 41.809 2.78955C36.4255 2.78955 32.0613 7.15375 32.0613 12.5373C32.0613 17.9208 36.4255 22.285 41.809 22.285Z" fill="#C0EDFD" stroke="#5B9BAD" stroke-width="0.5064" stroke-miterlimit="10" stroke-linecap="round" stroke-linejoin="round"/>
</g>
</svg>
