<svg width="30" height="24" viewBox="0 0 30 24" fill="none" xmlns="http://www.w3.org/2000/svg">
<g id="R-ICO-014795">
<g id="CHEMICAL_OCT">
<g id="Rectangle 2">
<mask id="path-1-outside-1_938_25044" maskUnits="userSpaceOnUse" x="8.37964" y="0" width="14" height="24" fill="black">
<rect fill="white" x="8.37964" width="14" height="24"/>
<path d="M8.37964 2H21.6206V22H8.37964V2Z"/>
</mask>
<path d="M8.37964 2H21.6206V22H8.37964V2Z" fill="#B87434"/>
<path d="M8.37964 2V4H21.6206V2V0H8.37964V2ZM21.6206 22V20H8.37964V22V24H21.6206V22Z" fill="#6E3C13" mask="url(#path-1-outside-1_938_25044)"/>
</g>
<g id="LEFT CORNER">
<mask id="mask0_938_25044" style="mask-type:luminance" maskUnits="userSpaceOnUse" x="0" y="0" width="10" height="24">
<rect id="MASK" width="10" height="24" transform="matrix(-1 8.74228e-08 8.74228e-08 1 10 0)" fill="white"/>
</mask>
<g mask="url(#mask0_938_25044)">
<g id="CORNER">
<mask id="path-4-outside-2_938_25044" maskUnits="userSpaceOnUse" x="-1.74846e-07" y="-9.61651e-07" width="13" height="24" fill="black">
<rect fill="white" x="-1.74846e-07" y="-9.61651e-07" width="13" height="24"/>
<path d="M8 22L2 16L2 8L8 2L11 2L11 22L8 22Z"/>
</mask>
<path d="M8 22L2 16L2 8L8 2L11 2L11 22L8 22Z" fill="#B87434"/>
<path d="M8 22L2 16L2 8L8 2L11 2L11 22L8 22Z" stroke="#6E3C13" stroke-width="4" stroke-miterlimit="3.99933" stroke-linejoin="round" mask="url(#path-4-outside-2_938_25044)"/>
</g>
</g>
</g>
<g id="RIGHT CORNER">
<mask id="mask1_938_25044" style="mask-type:luminance" maskUnits="userSpaceOnUse" x="20" y="0" width="10" height="24">
<rect id="MASK_2" x="20.1555" width="9.84445" height="24" fill="white"/>
</mask>
<g mask="url(#mask1_938_25044)">
<g id="CORNER_2">
<mask id="path-6-outside-3_938_25044" maskUnits="userSpaceOnUse" x="17" y="-7.76718e-07" width="13" height="24" fill="black">
<rect fill="white" x="17" y="-7.76718e-07" width="13" height="24"/>
<path d="M22 22L28 16L28 8L22 2L19 2L19 22L22 22Z"/>
</mask>
<path d="M22 22L28 16L28 8L22 2L19 2L19 22L22 22Z" fill="#B87434"/>
<path d="M22 22L28 16L28 8L22 2L19 2L19 22L22 22Z" stroke="#6E3C13" stroke-width="4" stroke-miterlimit="3.99933" stroke-linejoin="round" mask="url(#path-6-outside-3_938_25044)"/>
</g>
</g>
</g>
<g id="Ch">
<text fill="white" xml:space="preserve" style="white-space: pre" font-family="Arial" font-size="12" font-weight="bold" letter-spacing="0em"><tspan x="2.83053" y="16.1602">Cu</tspan></text>
<text fill="white" xml:space="preserve" style="white-space: pre" font-family="Arial" font-size="12" font-weight="bold" letter-spacing="0em"><tspan x="18.8383" y="16.1602">&#xb2;&#x207a;</tspan></text>
</g>
</g>
</g>
</svg>
