<svg width="85" height="129" viewBox="0 0 85 129" fill="none" xmlns="http://www.w3.org/2000/svg">
<g id="R-ICO-014076">
<g id="C1Q_B">
<path id="Vector" d="M52.2119 83.8083C54.6972 83.8083 56.7119 81.7936 56.7119 79.3083C56.7119 76.8231 54.6972 74.8083 52.2119 74.8083C49.7266 74.8083 47.7119 76.8231 47.7119 79.3083C47.7119 81.7936 49.7266 83.8083 52.2119 83.8083Z" fill="url(#paint0_radial_938_24415)"/>
<path id="Vector_2" d="M15.7686 89.948C18.53 89.948 20.7686 87.7094 20.7686 84.948C20.7686 82.1866 18.53 79.948 15.7686 79.948C13.0071 79.948 10.7686 82.1866 10.7686 84.948C10.7686 87.7094 13.0071 89.948 15.7686 89.948Z" fill="url(#paint1_radial_938_24415)"/>
<path id="Vector_3" d="M34.7002 63.165C32.7671 63.165 31.2002 61.5981 31.2002 59.665V5.24609C31.2002 3.31299 32.7671 1.74609 34.7002 1.74609C36.6333 1.74609 38.2002 3.31299 38.2002 5.24609V59.6651C38.2002 61.5982 36.6333 63.165 34.7002 63.165Z" fill="url(#paint2_linear_938_24415)"/>
<path id="Vector_4" d="M45.2822 61.4194C43.3491 61.4194 41.7822 59.8525 41.7822 57.9194V3.5C41.7822 1.5669 43.3491 0 45.2822 0C47.2153 0 48.7822 1.5669 48.7822 3.5V57.9194C48.7822 59.8525 47.2153 61.4194 45.2822 61.4194Z" fill="url(#paint3_linear_938_24415)"/>
<path id="Vector_5" d="M18.1282 85.3065C17.4007 85.3065 16.6673 85.0809 16.0388 84.6127C14.4895 83.4569 14.1697 81.2641 15.3249 79.7143L31.2006 58.3955C31.2006 58.3955 31.2006 62.0083 34.6173 62.5126C36.7373 62.8255 37.5602 61.6837 37.5602 61.6837L20.9372 83.8988C20.2497 84.8202 19.1955 85.3065 18.1282 85.3065Z" fill="url(#paint4_linear_938_24415)"/>
<path id="Vector_6" d="M51.3319 80.102C49.8553 80.102 48.4828 79.1606 48.0033 77.6796L41.9521 58.998C41.9521 58.998 42.5307 60.6741 44.4636 60.6906C48.5112 60.7253 48.7817 57.3667 48.7817 57.3667L54.6625 75.5224C55.2582 77.3613 54.2504 79.3349 52.4115 79.9306C52.0531 80.0469 51.6893 80.102 51.3319 80.102Z" fill="url(#paint5_linear_938_24415)"/>
</g>
<path id="C1S_4" d="M59.6807 82.288C59.3036 82.1771 58.9355 82.0145 58.5858 81.7969C53.1664 78.4299 47.4316 76.7437 41.0523 76.6415C38.5952 76.6066 36.6374 74.5794 36.6764 72.1236C36.7156 69.6672 38.7386 67.7081 41.1943 67.7477C49.1183 67.874 56.549 70.0588 63.2802 74.2416C65.3665 75.5375 66.0072 78.2798 64.7106 80.3665C63.6319 82.103 61.5511 82.838 59.6807 82.288Z" fill="url(#paint6_radial_938_24415)"/>
<path id="C1R_2" d="M39.8268 76.7978C39.5006 77.0171 39.1404 77.1965 38.7495 77.3264C32.6971 79.3449 27.7362 82.6798 23.5823 87.5225C21.9858 89.3906 19.1755 89.6018 17.311 88.0029C15.4462 86.4036 15.2314 83.5956 16.8306 81.7316C21.9898 75.7159 28.4177 71.3948 35.9358 68.8882C38.2656 68.111 40.7847 69.3699 41.5618 71.7004C42.2086 73.6397 41.4448 75.7101 39.8268 76.7978Z" fill="url(#paint7_radial_938_24415)"/>
<g id="C1R_1">
<path id="Vector_7" d="M44.0564 86.1349C44.3826 85.9156 44.7429 85.7362 45.1337 85.6063C51.1862 83.5878 56.147 80.2529 60.3009 75.4102C61.8974 73.5421 64.7077 73.3309 66.5722 74.9298C68.437 76.5291 68.6518 79.3371 67.0526 81.2011C61.8934 87.2168 55.4655 91.5379 47.9474 94.0445C45.6176 94.8217 43.0985 93.5628 42.3214 91.2323C41.6746 89.293 42.4384 87.2226 44.0564 86.1349Z" fill="url(#paint8_radial_938_24415)"/>
<path id="Vector_8" d="M47.9474 94.0445C45.6176 94.8217 43.0985 93.5628 42.3214 91.2323C41.6746 89.2931 42.4383 87.2227 44.0563 86.135L47.9474 94.0445Z" fill="url(#paint9_radial_938_24415)"/>
</g>
<g id="C1S_1">
<path id="Vector_9" d="M22.6585 81.9187C23.0356 82.0296 23.4037 82.1921 23.7534 82.4098C29.1728 85.7768 34.9076 87.463 41.2869 87.5652C43.744 87.6001 45.7018 89.6273 45.6628 92.0831C45.6236 94.5395 43.6006 96.4986 41.1449 96.459C33.2209 96.3327 25.7902 94.1479 19.059 89.9651C16.9727 88.6692 16.332 85.9269 17.6286 83.8402C18.7073 82.1037 20.788 81.3687 22.6585 81.9187Z" fill="url(#paint10_radial_938_24415)"/>
<path id="Vector_10" d="M41.2875 87.5652C43.7446 87.6001 45.7024 89.6273 45.6634 92.0831C45.6242 94.5395 43.6012 96.4986 41.1455 96.459L41.2875 87.5652Z" fill="url(#paint11_radial_938_24415)"/>
</g>
<path id="SHADE" opacity="0.3" d="M80.0767 89.3401C79.8373 89.2918 79.5062 89.3215 79.1285 89.4046L56.5292 61.1636V7.9732C56.5292 6.0401 54.9623 4.4732 53.0292 4.4732C51.0961 4.4732 49.5292 6.0401 49.5292 7.9732V10.6514C49.2668 10.7019 49.0202 10.7909 48.7821 10.8962V3.5C48.7821 1.5669 47.2152 0 45.2821 0C43.349 0 41.7821 1.5669 41.7821 3.5V13.0458C41.1839 12.5686 40.4359 12.2715 39.6112 12.2715C39.1081 12.2715 38.6324 12.3819 38.2001 12.573V5.2461C38.2001 3.313 36.6332 1.7461 34.7001 1.7461C32.767 1.7461 31.2001 3.313 31.2001 5.2461V7.8144C29.5847 8.1247 28.3632 9.5416 28.3632 11.2476V62.205L15.3245 79.7142C15.2541 79.8087 15.2062 79.9118 15.1467 80.0107C12.6822 80.32 10.7685 82.3996 10.7685 84.948C10.7685 86.5864 11.5676 88.0273 12.7853 88.9392C9.9746 93.3185 7.3712 97.374 5.5676 100.183C5.2564 100.103 5.0367 100.065 4.9855 100.074C2.155 100.556 0 103.021 0 105.989C0 109.302 2.6863 111.989 6 111.989C9.3137 111.989 12 109.302 12 105.989C12 105.38 11.9092 104.792 11.7405 104.238C11.7281 104.197 11.6311 104.077 11.486 103.919L20.0641 90.5448C24.0446 92.8785 28.2558 94.5419 32.6675 95.492L30.0523 114.886C29.9302 114.908 29.8235 114.933 29.7533 114.966C27.3505 116.075 25.683 118.505 25.683 121.325C25.683 125.191 28.817 128.325 32.683 128.325C36.549 128.325 39.683 125.191 39.683 121.325C39.683 119.232 38.7648 117.354 37.3095 116.072C37.2227 115.995 37.1108 115.923 36.9855 115.853L39.6108 96.3841C40.1221 96.4097 40.6297 96.4507 41.1452 96.4589C42.8934 96.4871 44.4073 95.4929 45.1573 94.037C46.0346 94.3261 47.0038 94.3591 47.9473 94.0443C50.55 93.1766 53.0124 92.0766 55.3463 90.7789L63.9682 112.3C63.5609 112.612 63.3015 112.857 63.2583 112.947C62.8516 113.796 62.6243 114.747 62.6243 115.752C62.6243 119.342 65.5345 122.252 69.1243 122.252C72.7142 122.252 75.6243 119.342 75.6243 115.752C75.6243 112.984 73.8938 110.62 71.4556 109.682C71.3469 109.641 70.9793 109.644 70.4677 109.7L61.2849 86.779C62.6539 85.6769 63.9668 84.4946 65.2084 83.2139L73.5892 93.6869C73.4672 94.0214 73.3928 94.3638 73.3928 94.7124C73.3928 97.75 75.8552 100.212 78.8928 100.212C81.9303 100.212 84.3928 97.75 84.3928 94.7124C84.3928 92.0812 82.5541 89.8395 80.0767 89.3401ZM33.8597 86.6511C31.4621 86.0797 29.1484 85.2417 26.896 84.1344C29.3079 81.9797 31.9692 80.2371 34.9099 78.8633L33.8597 86.6511ZM35.9357 68.8881C35.0538 69.1821 34.1899 69.506 33.3383 69.8498L34.8094 67.5562C34.9107 67.3983 34.9927 67.2365 35.0654 67.0708C35.0846 67.027 35.0992 66.9814 35.1167 66.9367C35.1486 66.8549 35.1846 66.7754 35.2111 66.6901C35.2185 66.6663 35.2129 66.6366 35.2176 66.6116C35.3029 66.3091 35.3631 65.9963 35.3631 65.6665V64.6191L36.1111 63.6194V68.8433C36.0527 68.8601 35.994 68.8686 35.9357 68.8881ZM54.7676 70.1668C54.7152 70.1483 54.6615 70.1336 54.609 70.1153L54.4913 69.8214L54.7676 70.1668ZM43.1112 62.5752L44.8594 67.9723C44.2792 67.9182 43.6964 67.8746 43.1112 67.84V62.5752ZM45.1337 85.6063C44.7428 85.7363 44.3825 85.9156 44.0563 86.1349C43.4225 86.5609 42.9257 87.1406 42.5875 87.8013C42.1747 87.6671 41.7442 87.5717 41.2873 87.5653C41.1242 87.5627 40.9652 87.5496 40.8029 87.5449L42.2663 76.6926C44.2096 76.7879 46.092 77.0412 47.9268 77.4419L48.0038 77.6796C48.0075 77.6911 48.0136 77.701 48.0175 77.7124C47.828 78.2099 47.7122 78.7441 47.7122 79.3082C47.7122 81.1156 48.7842 82.6632 50.3215 83.379C48.6871 84.2459 46.9664 84.995 45.1337 85.6063Z" fill="#262458"/>
<g id="C1Q_C">
<path id="Vector_11" d="M53.0283 65.8921C51.0952 65.8921 49.5283 64.3252 49.5283 62.3921V7.97314C49.5283 6.04004 51.0952 4.47314 53.0283 4.47314C54.9614 4.47314 56.5283 6.04004 56.5283 7.97314V62.3921C56.5283 64.3252 54.9614 65.8921 53.0283 65.8921Z" fill="url(#paint12_linear_938_24415)"/>
<path id="Vector_12" d="M78.8948 98.2124C77.8679 98.2124 76.8509 97.7632 76.1594 96.8994L50.2957 64.5791C49.0882 63.0698 51.0336 61.5456 52.7957 60.7505C53.9533 60.2282 55.7337 60.1955 56.5286 61.1637L81.6253 92.5254C82.8328 94.0347 82.5887 96.2373 81.0794 97.4453C80.4339 97.9614 79.6614 98.2124 78.8948 98.2124Z" fill="url(#paint13_linear_938_24415)"/>
<path id="Vector_13" d="M50.1924 72.0035C48.2593 72.0035 46.6924 70.4366 46.6924 68.5035V14.0845C46.6924 12.1514 48.2593 10.5845 50.1924 10.5845C52.1255 10.5845 53.6924 12.1514 53.6924 14.0845V68.5035C53.6924 70.4366 52.1255 72.0035 50.1924 72.0035Z" fill="url(#paint14_linear_938_24415)"/>
<path id="Vector_14" d="M69.1246 119.26C67.7364 119.26 66.4225 118.428 65.8746 117.061L46.9429 69.8051C46.2241 68.0107 48.3172 65.7019 50.5212 65.5119C52.7632 65.3186 53.2063 66.69 53.441 67.2016L72.3726 114.457C73.0914 116.251 72.2198 118.289 70.4253 119.008C69.9986 119.179 69.5577 119.26 69.1246 119.26Z" fill="url(#paint15_linear_938_24415)"/>
<path id="Vector_15" d="M84.3926 94.7125C84.3926 92.0814 82.5539 89.8397 80.0765 89.3402C78.5238 89.0272 73.3926 91.6749 73.3926 94.7125C73.3926 97.7501 75.855 100.212 78.8926 100.212C81.9302 100.212 84.3926 97.7501 84.3926 94.7125Z" fill="url(#paint16_radial_938_24415)"/>
<path id="Vector_16" d="M75.6239 115.752C75.6239 112.984 73.8934 110.62 71.4552 109.683C71.1562 109.568 68.9347 109.78 66.9892 110.565C65.0436 111.349 63.374 112.705 63.258 112.947C62.8513 113.796 62.624 114.748 62.624 115.752C62.624 119.342 65.5341 122.252 69.124 122.252C72.7139 122.252 75.6239 119.342 75.6239 115.752Z" fill="url(#paint17_radial_938_24415)"/>
</g>
<g id="C1Q_A">
<path id="Vector_17" d="M39.6113 73.6905C37.6782 73.6905 36.1113 72.1236 36.1113 70.1905V15.7715C36.1113 13.8384 37.6782 12.2715 39.6113 12.2715C41.5444 12.2715 43.1113 13.8384 43.1113 15.7715V70.1905C43.1113 72.1236 41.5444 73.6905 39.6113 73.6905Z" fill="url(#paint18_linear_938_24415)"/>
<path id="Vector_18" d="M31.8633 69.1666C29.9302 69.1666 28.3633 67.5997 28.3633 65.6666V11.2476C28.3633 9.31446 29.9302 7.74756 31.8633 7.74756C33.7964 7.74756 35.3633 9.31446 35.3633 11.2476V65.6666C35.3633 67.5997 33.7964 69.1666 31.8633 69.1666Z" fill="url(#paint19_linear_938_24415)"/>
<path id="Vector_19" d="M32.6876 125.069C32.5318 125.069 32.3741 125.059 32.2154 125.038C30.2999 124.779 28.9561 123.017 29.2144 121.101L36.1426 69.7228C36.4014 67.8073 38.1621 66.4645 40.0791 66.7218C41.9946 66.9801 43.3384 68.7428 43.0801 70.6583L36.1519 122.037C35.9151 123.794 34.4127 125.069 32.6876 125.069Z" fill="url(#paint20_linear_938_24415)"/>
<path id="Vector_20" d="M5.99607 109.489C5.34907 109.489 4.69477 109.31 4.10987 108.935C2.48287 107.891 2.00977 105.726 3.05327 104.099C3.05327 104.099 25.9262 68.4771 28.3629 64.6402C30.6543 61.032 35.681 65.178 35.2109 66.6902C35.1153 66.9978 34.9862 67.2803 34.8092 67.5563L8.94577 107.878C8.27727 108.92 7.14837 109.489 5.99607 109.489Z" fill="url(#paint21_linear_938_24415)"/>
<path id="Vector_21" d="M12 105.989C12 105.38 11.9093 104.792 11.7405 104.238C11.684 104.053 10.0981 102.419 8.4128 101.388C6.8299 100.421 5.1452 100.047 4.9855 100.074C2.155 100.556 0 103.021 0 105.989C0 109.303 2.6863 111.989 6 111.989C9.3137 111.989 12 109.303 12 105.989Z" fill="url(#paint22_radial_938_24415)"/>
<path id="Vector_22" d="M39.6827 121.325C39.6827 119.233 38.7646 117.355 37.3092 116.072C36.0757 114.985 30.6443 114.555 29.753 114.966C27.3502 116.075 25.6826 118.505 25.6826 121.325C25.6826 125.191 28.8166 128.325 32.6826 128.325C36.5486 128.325 39.6827 125.191 39.6827 121.325Z" fill="url(#paint23_radial_938_24415)"/>
</g>
</g>
<defs>
<radialGradient id="paint0_radial_938_24415" cx="0" cy="0" r="1" gradientUnits="userSpaceOnUse" gradientTransform="translate(52.2119 79.3083) scale(4.5)">
<stop stop-color="#D3A94D"/>
<stop offset="1" stop-color="#9C7A35"/>
</radialGradient>
<radialGradient id="paint1_radial_938_24415" cx="0" cy="0" r="1" gradientUnits="userSpaceOnUse" gradientTransform="translate(14.5138 83.0005) scale(5)">
<stop stop-color="#D3A94D"/>
<stop offset="1" stop-color="#9C7A35"/>
</radialGradient>
<linearGradient id="paint2_linear_938_24415" x1="31.2002" y1="32.4556" x2="38.2002" y2="32.4556" gradientUnits="userSpaceOnUse">
<stop stop-color="#9C7A35"/>
<stop offset="0.0264" stop-color="#A58138"/>
<stop offset="0.1159" stop-color="#BE9643"/>
<stop offset="0.2042" stop-color="#CEA44A"/>
<stop offset="0.2895" stop-color="#D3A94D"/>
<stop offset="1" stop-color="#9C7A35"/>
</linearGradient>
<linearGradient id="paint3_linear_938_24415" x1="41.7822" y1="30.7097" x2="48.7822" y2="30.7097" gradientUnits="userSpaceOnUse">
<stop stop-color="#9C7A35"/>
<stop offset="0.0264" stop-color="#A58138"/>
<stop offset="0.1159" stop-color="#BE9643"/>
<stop offset="0.2042" stop-color="#CEA44A"/>
<stop offset="0.2895" stop-color="#D3A94D"/>
<stop offset="1" stop-color="#9C7A35"/>
</linearGradient>
<linearGradient id="paint4_linear_938_24415" x1="22.437" y1="69.9475" x2="28.2144" y2="74.1864" gradientUnits="userSpaceOnUse">
<stop stop-color="#9C7A35"/>
<stop offset="0.0264" stop-color="#A58138"/>
<stop offset="0.1159" stop-color="#BE9643"/>
<stop offset="0.2042" stop-color="#CEA44A"/>
<stop offset="0.2895" stop-color="#D3A94D"/>
<stop offset="1" stop-color="#9C7A35"/>
</linearGradient>
<linearGradient id="paint5_linear_938_24415" x1="45.4861" y1="70.0218" x2="52.2402" y2="67.8017" gradientUnits="userSpaceOnUse">
<stop stop-color="#9C7A35"/>
<stop offset="0.0264" stop-color="#A58138"/>
<stop offset="0.1159" stop-color="#BE9643"/>
<stop offset="0.2042" stop-color="#CEA44A"/>
<stop offset="0.2895" stop-color="#D3A94D"/>
<stop offset="1" stop-color="#9C7A35"/>
</linearGradient>
<radialGradient id="paint6_radial_938_24415" cx="0" cy="0" r="1" gradientUnits="userSpaceOnUse" gradientTransform="translate(39.285 113.422) rotate(16.3853) scale(46.0373 46.0373)">
<stop offset="0.8175" stop-color="#237AA9"/>
<stop offset="0.823" stop-color="#4186B2"/>
<stop offset="0.8374" stop-color="#75A3C8"/>
<stop offset="0.8521" stop-color="#9ABDDB"/>
<stop offset="0.8666" stop-color="#B6D2EA"/>
<stop offset="0.8812" stop-color="#C9E2F4"/>
<stop offset="0.8957" stop-color="#D3EBFB"/>
<stop offset="0.9103" stop-color="#D7EEFD"/>
<stop offset="0.9227" stop-color="#D3EBFA"/>
<stop offset="0.937" stop-color="#C6E0F3"/>
<stop offset="0.952" stop-color="#B0CEE7"/>
<stop offset="0.9677" stop-color="#91B7D6"/>
<stop offset="0.9839" stop-color="#659AC1"/>
<stop offset="1" stop-color="#237AA9"/>
</radialGradient>
<radialGradient id="paint7_radial_938_24415" cx="0" cy="0" r="1" gradientUnits="userSpaceOnUse" gradientTransform="translate(50.7491 112.376) rotate(-33.911) scale(46.0363)">
<stop offset="0.8175" stop-color="#612F77"/>
<stop offset="0.8286" stop-color="#7C4C8A"/>
<stop offset="0.8421" stop-color="#9B71A4"/>
<stop offset="0.8557" stop-color="#B693BC"/>
<stop offset="0.8694" stop-color="#CBAFCF"/>
<stop offset="0.883" stop-color="#DBC3DD"/>
<stop offset="0.8967" stop-color="#E4CFE5"/>
<stop offset="0.9103" stop-color="#E8D3E8"/>
<stop offset="0.9218" stop-color="#E4CEE5"/>
<stop offset="0.935" stop-color="#D9C0DC"/>
<stop offset="0.9489" stop-color="#C8AACC"/>
<stop offset="0.9634" stop-color="#AF8BB6"/>
<stop offset="0.9783" stop-color="#92659B"/>
<stop offset="0.9934" stop-color="#6F3D80"/>
<stop offset="0.9995" stop-color="#612F77"/>
</radialGradient>
<radialGradient id="paint8_radial_938_24415" cx="0" cy="0" r="1" gradientUnits="userSpaceOnUse" gradientTransform="translate(33.1348 50.5513) rotate(146.089) scale(46.0363 46.0363)">
<stop offset="0.8175" stop-color="#612F77"/>
<stop offset="0.9103" stop-color="#E8D3E8"/>
<stop offset="0.9995" stop-color="#612F77"/>
</radialGradient>
<radialGradient id="paint9_radial_938_24415" cx="0" cy="0" r="1" gradientUnits="userSpaceOnUse" gradientTransform="translate(46.2508 90.1115) rotate(160.471) scale(3.60463 4.50518)">
<stop offset="0.105554" stop-color="#E8D3E8" stop-opacity="0"/>
<stop offset="1" stop-color="#612F77"/>
</radialGradient>
<radialGradient id="paint10_radial_938_24415" cx="0" cy="0" r="1" gradientUnits="userSpaceOnUse" gradientTransform="translate(43.0528 50.7957) rotate(-163.615) scale(46.0373 46.0373)">
<stop offset="0.8175" stop-color="#237AA9"/>
<stop offset="0.9103" stop-color="#D7EEFD"/>
<stop offset="1" stop-color="#237AA9"/>
</radialGradient>
<radialGradient id="paint11_radial_938_24415" cx="0" cy="0" r="1" gradientUnits="userSpaceOnUse" gradientTransform="translate(41.2975 92.6095) rotate(-163.615) scale(3.81986 3.81985)">
<stop stop-color="#D7EEFD" stop-opacity="0"/>
<stop offset="1" stop-color="#237AA9"/>
</radialGradient>
<linearGradient id="paint12_linear_938_24415" x1="49.5283" y1="35.1826" x2="56.5283" y2="35.1826" gradientUnits="userSpaceOnUse">
<stop stop-color="#9C6537"/>
<stop offset="0.0322" stop-color="#A66D3B"/>
<stop offset="0.1197" stop-color="#BE7E45"/>
<stop offset="0.2061" stop-color="#CD894B"/>
<stop offset="0.2895" stop-color="#D28D4D"/>
<stop offset="1" stop-color="#9C6537"/>
</linearGradient>
<linearGradient id="paint13_linear_938_24415" x1="63.828" y1="81.4023" x2="69.2961" y2="77.0487" gradientUnits="userSpaceOnUse">
<stop stop-color="#9C6537"/>
<stop offset="0.0613" stop-color="#A66D3B"/>
<stop offset="0.2277" stop-color="#BE7E45"/>
<stop offset="0.392" stop-color="#CD894B"/>
<stop offset="0.5506" stop-color="#D28D4D"/>
<stop offset="1" stop-color="#9C6537"/>
</linearGradient>
<linearGradient id="paint14_linear_938_24415" x1="46.6924" y1="41.294" x2="53.6924" y2="41.294" gradientUnits="userSpaceOnUse">
<stop stop-color="#9C6537"/>
<stop offset="0.0489" stop-color="#A66D3B"/>
<stop offset="0.1818" stop-color="#BE7E45"/>
<stop offset="0.313" stop-color="#CD894B"/>
<stop offset="0.4396" stop-color="#D28D4D"/>
<stop offset="1" stop-color="#9C6537"/>
</linearGradient>
<linearGradient id="paint15_linear_938_24415" x1="56.6399" y1="93.6852" x2="63.0135" y2="91.1776" gradientUnits="userSpaceOnUse">
<stop stop-color="#9C6537"/>
<stop offset="0.0613" stop-color="#A66D3B"/>
<stop offset="0.2277" stop-color="#BE7E45"/>
<stop offset="0.392" stop-color="#CD894B"/>
<stop offset="0.5506" stop-color="#D28D4D"/>
<stop offset="1" stop-color="#9C6537"/>
</linearGradient>
<radialGradient id="paint16_radial_938_24415" cx="0" cy="0" r="1" gradientUnits="userSpaceOnUse" gradientTransform="translate(78.8351 90.0674) scale(5.4604)">
<stop stop-color="#D28D4D"/>
<stop offset="1" stop-color="#9C6537"/>
</radialGradient>
<radialGradient id="paint17_radial_938_24415" cx="0" cy="0" r="1" gradientUnits="userSpaceOnUse" gradientTransform="translate(69.3258 111.834) scale(6.3528)">
<stop stop-color="#D28D4D"/>
<stop offset="1" stop-color="#9C6537"/>
</radialGradient>
<linearGradient id="paint18_linear_938_24415" x1="36.1113" y1="42.9811" x2="43.1113" y2="42.9811" gradientUnits="userSpaceOnUse">
<stop stop-color="#9A8B20"/>
<stop offset="0.0603" stop-color="#A89929"/>
<stop offset="0.1783" stop-color="#C0AF39"/>
<stop offset="0.2949" stop-color="#CEBE45"/>
<stop offset="0.4074" stop-color="#D3C349"/>
<stop offset="1" stop-color="#9B8D30"/>
</linearGradient>
<linearGradient id="paint19_linear_938_24415" x1="28.3633" y1="38.4571" x2="35.3633" y2="38.4571" gradientUnits="userSpaceOnUse">
<stop stop-color="#9A8B20"/>
<stop offset="0.0603" stop-color="#A89929"/>
<stop offset="0.1783" stop-color="#C0AF39"/>
<stop offset="0.2949" stop-color="#CEBE45"/>
<stop offset="0.4074" stop-color="#D3C349"/>
<stop offset="1" stop-color="#9B8D30"/>
</linearGradient>
<linearGradient id="paint20_linear_938_24415" x1="31.9399" y1="95.2962" x2="39.6204" y2="96.3614" gradientUnits="userSpaceOnUse">
<stop offset="0.0541" stop-color="#9A8B20"/>
<stop offset="0.1008" stop-color="#A89929"/>
<stop offset="0.1922" stop-color="#C0AF39"/>
<stop offset="0.2825" stop-color="#CEBE45"/>
<stop offset="0.3697" stop-color="#D3C349"/>
<stop offset="1" stop-color="#9B8D30"/>
</linearGradient>
<linearGradient id="paint21_linear_938_24415" x1="14.8132" y1="83.9725" x2="21.3604" y2="88.1894" gradientUnits="userSpaceOnUse">
<stop offset="0.0541" stop-color="#9A8B20"/>
<stop offset="0.0883" stop-color="#A89929"/>
<stop offset="0.1554" stop-color="#C0AF39"/>
<stop offset="0.2217" stop-color="#CEBE45"/>
<stop offset="0.2857" stop-color="#D3C349"/>
<stop offset="1" stop-color="#9B8D30"/>
</linearGradient>
<radialGradient id="paint22_radial_938_24415" cx="0" cy="0" r="1" gradientUnits="userSpaceOnUse" gradientTransform="translate(6.4063 102.838) scale(5.9693 5.9693)">
<stop stop-color="#D3C349"/>
<stop offset="1" stop-color="#9B8D30"/>
</radialGradient>
<radialGradient id="paint23_radial_938_24415" cx="0" cy="0" r="1" gradientUnits="userSpaceOnUse" gradientTransform="translate(31.1305 117.757) scale(6.8793 6.8793)">
<stop stop-color="#D3C349"/>
<stop offset="1" stop-color="#9B8D30"/>
</radialGradient>
</defs>
</svg>
