<svg width="28" height="24" viewBox="0 0 28 24" fill="none" xmlns="http://www.w3.org/2000/svg">
<g id="R-ICO-012891">
<g id="CHEMICAL_OCT">
<g id="Rectangle 2">
<mask id="path-1-outside-1_938_24875" maskUnits="userSpaceOnUse" x="8.37952" y="0" width="12" height="24" fill="black">
<rect fill="white" x="8.37952" width="12" height="24"/>
<path d="M8.37952 2H19.6205V22H8.37952V2Z"/>
</mask>
<path d="M8.37952 2H19.6205V22H8.37952V2Z" fill="#065AB2"/>
<path d="M8.37952 2V4H19.6205V2V0H8.37952V2ZM19.6205 22V20H8.37952V22V24H19.6205V22Z" fill="#4552AF" mask="url(#path-1-outside-1_938_24875)"/>
</g>
<g id="LEFT CORNER">
<mask id="mask0_938_24875" style="mask-type:luminance" maskUnits="userSpaceOnUse" x="0" y="0" width="10" height="24">
<rect id="MASK" width="10" height="24" transform="matrix(-1 8.74228e-08 8.74228e-08 1 10 0)" fill="white"/>
</mask>
<g mask="url(#mask0_938_24875)">
<g id="CORNER">
<mask id="path-4-outside-2_938_24875" maskUnits="userSpaceOnUse" x="-1.74846e-07" y="-9.61651e-07" width="13" height="24" fill="black">
<rect fill="white" x="-1.74846e-07" y="-9.61651e-07" width="13" height="24"/>
<path d="M8 22L2 16L2 8L8 2L11 2L11 22L8 22Z"/>
</mask>
<path d="M8 22L2 16L2 8L8 2L11 2L11 22L8 22Z" fill="#065AB2"/>
<path d="M8 22L2 16L2 8L8 2L11 2L11 22L8 22Z" stroke="#4552AF" stroke-width="4" stroke-miterlimit="3.99933" stroke-linejoin="round" mask="url(#path-4-outside-2_938_24875)"/>
</g>
</g>
</g>
<g id="RIGHT CORNER">
<mask id="mask1_938_24875" style="mask-type:luminance" maskUnits="userSpaceOnUse" x="18" y="0" width="10" height="24">
<rect id="MASK_2" x="18.1555" width="9.84445" height="24" fill="white"/>
</mask>
<g mask="url(#mask1_938_24875)">
<g id="CORNER_2">
<mask id="path-6-outside-3_938_24875" maskUnits="userSpaceOnUse" x="15" y="-7.76718e-07" width="13" height="24" fill="black">
<rect fill="white" x="15" y="-7.76718e-07" width="13" height="24"/>
<path d="M20 22L26 16L26 8L20 2L17 2L17 22L20 22Z"/>
</mask>
<path d="M20 22L26 16L26 8L20 2L17 2L17 22L20 22Z" fill="#065AB2"/>
<path d="M20 22L26 16L26 8L20 2L17 2L17 22L20 22Z" stroke="#4552AF" stroke-width="4" stroke-miterlimit="3.99933" stroke-linejoin="round" mask="url(#path-6-outside-3_938_24875)"/>
</g>
</g>
</g>
<text id="Ch" fill="white" xml:space="preserve" style="white-space: pre" font-family="Arial" font-size="12" font-weight="bold" letter-spacing="0em"><tspan x="5.03696" y="16.1602">IP3</tspan></text>
</g>
</g>
</svg>
