<svg width="69" height="182" viewBox="0 0 69 182" fill="none" xmlns="http://www.w3.org/2000/svg">
<g id="R-ICO-012976">
<path id="Vector" d="M39.9918 19.6034C39.9359 21.9337 39.9789 23.8252 40.9676 25.2438C41.9563 26.6624 49.2212 28.5538 50.2528 28.6398C51.2845 28.7258 53.6488 28.8548 55.4543 32.3797C57.2598 35.9047 58.6353 39.0428 58.3344 42.4387C58.0335 45.8347 58.4633 47.0383 58.9792 48.242C59.4951 49.4456 60.5698 55.3779 60.9137 57.3123C61.2576 59.2467 63.4929 64.4052 64.3527 69.9505C65.2124 75.4958 64.8303 82.7047 65.5992 84.0503C66.1151 84.953 66.1151 85.3829 66.1151 86.1567C66.1151 86.9306 66.8459 92.7768 67.0609 93.3356C67.2759 93.8944 67.4908 94.3243 67.4478 95.0121C67.4049 95.6999 67.9206 99.0529 67.8347 99.6547C67.7487 100.257 67.5768 104.34 67.5768 105.071C67.5768 105.802 66.1582 105.802 65.8573 104.641C65.8573 104.641 64.0088 104.684 64.4387 101.718C64.4387 101.718 64.2237 100.085 64.4817 98.623C64.4817 98.623 63.6649 97.1184 63.4069 95.8719C62.8194 95.5757 62.7048 93.7607 62.2033 93.7655C61.8141 93.7692 61.7305 95.227 61.4726 96.1728C61.2146 97.1185 60.8708 98.881 59.6671 98.838C58.4635 98.7951 58.7644 95.8289 59.1942 94.6683C59.6241 93.5076 59.5811 92.089 59.6241 90.9284C59.6671 89.7678 60.5268 88.1342 61.3006 86.9735C61.3006 86.9735 59.6241 82.202 57.1738 76.3987C54.7236 70.5953 53.9497 69.1338 53.5199 66.5546C53.09 63.9753 53.8076 61.0104 52.8321 59.3757C51.8456 57.7225 50.2734 54.5192 49.9115 52.7745C49.7743 53.3895 49.6036 54.0541 49.3931 54.7761C47.5876 60.9662 47.7596 63.8894 48.2754 65.7808C48.7912 67.6723 48.7913 69.7357 48.6193 71.6271C48.4473 73.5185 49.2211 77.7313 49.9949 82.202C50.7686 86.6726 52.746 98.0213 52.4881 103.266C52.2302 108.51 49.393 119.257 49.2211 123.642C49.0491 128.026 51.2844 135.162 51.4564 138.257C51.6285 141.352 49.0491 158.891 48.6193 162.502C48.1894 166.113 48.9631 168.606 49.0491 169.294C49.1351 169.982 48.3613 172.131 49.7369 174.109C51.1126 176.086 52.5261 176.759 52.6779 177.821C52.8296 178.883 53.0067 179.87 51.9442 179.617C51.9442 179.617 51.5142 180.325 50.8565 179.819C50.8565 179.819 50.1482 180.513 49.5158 180.002C49.5158 180.002 48.9155 180.755 47.9256 179.946C47.9256 179.946 47.7452 180.528 46.455 180.528C45.1649 180.528 44.7854 179.592 44.7854 179.592C44.7854 179.592 42.8377 179.162 43.3183 176.379C43.3183 176.379 42.2559 176.177 42.3065 174.608C42.357 173.04 42.9136 173.318 42.9136 171.826C42.9136 170.334 42.0788 169.6 42.0788 168.791C42.0788 167.981 42.9894 166.489 42.9894 164.971C42.9894 163.453 41.8976 151.496 40.5681 149.835C39.2386 148.173 38.8397 144.384 39.5045 139.93C40.1692 135.476 40.3686 133.149 40.3686 133.149C40.3686 133.149 38.3079 130.158 37.9091 126.768C37.5102 123.378 36.4466 112.077 35.8484 108.886C35.2501 105.695 34.1279 100.532 34.7262 96.1451C35.3245 91.7578 34.2513 92.0677 34.0519 92.0677C33.8526 92.0677 33.0191 91.7226 33.6173 96.1099C34.2156 100.497 33.1213 105.695 32.523 108.886C31.9246 112.077 30.8611 123.378 30.4623 126.768C30.0634 130.158 28.0027 133.149 28.0027 133.149C28.0027 133.149 28.2022 135.476 28.8669 139.93C29.5316 144.384 29.1327 148.173 27.8032 149.835C26.4737 151.496 25.3819 163.453 25.3819 164.971C25.3819 166.489 26.2925 167.981 26.2925 168.791C26.2925 169.6 25.4578 170.334 25.4578 171.826C25.4578 173.318 26.0143 173.04 26.0649 174.608C26.1154 176.177 25.053 176.379 25.053 176.379C25.5337 179.162 23.5859 179.592 23.5859 179.592C23.5859 179.592 23.2065 180.528 21.9163 180.528C20.6262 180.528 20.4457 179.946 20.4457 179.946C19.4557 180.755 18.8555 180.002 18.8555 180.002C18.2231 180.513 17.5148 179.819 17.5148 179.819C16.8571 180.325 16.4271 179.617 16.4271 179.617C15.3647 179.87 15.5417 178.883 15.6935 177.821C15.8452 176.759 17.2588 176.086 18.6344 174.109C20.01 172.131 19.2362 169.982 19.3222 169.294C19.4082 168.606 20.182 166.113 19.7521 162.502C19.3222 158.891 16.743 141.352 16.9149 138.257C17.0868 135.162 19.3222 128.026 19.1503 123.642C18.9784 119.257 16.1412 108.51 15.8832 103.266C15.6253 98.0212 17.6027 86.6726 18.3765 82.202C19.1502 77.7313 19.924 73.5185 19.7521 71.6271C19.5802 69.7357 19.5802 67.6723 20.0959 65.7808C20.6118 63.8894 20.7838 60.9662 18.9783 54.7761C18.7678 54.0545 18.597 53.3901 18.4598 52.7755C18.0979 54.5201 16.5258 57.7226 15.5393 59.3758C14.5639 61.0106 15.2813 63.9754 14.8515 66.5547C14.4216 69.1339 13.6479 70.5955 11.1975 76.3988C8.74724 82.2021 7.07071 86.9736 7.07071 86.9736C7.84444 88.1343 8.70418 89.7679 8.74724 90.9285C8.7902 92.0891 8.74724 93.5077 9.17711 94.6684C9.60699 95.829 9.90789 98.7952 8.70429 98.8381C7.50069 98.8811 7.15673 97.1186 6.89878 96.1729C6.64084 95.2271 6.55725 93.7693 6.16801 93.7656C5.66648 93.7608 5.55186 95.5757 4.96441 95.872C4.70689 97.1185 3.8901 98.623 3.8901 98.623C4.14805 100.085 3.93306 101.718 3.93306 101.718C4.36293 104.684 2.51447 104.641 2.51447 104.641C2.21357 105.802 0.794982 105.802 0.794982 105.071C0.794982 104.34 0.623054 100.257 0.537037 99.6547C0.451021 99.0529 0.966909 95.6998 0.923954 95.0121C0.880998 94.3243 1.09588 93.8944 1.31087 93.3356C1.52586 92.7768 2.25663 86.9305 2.25663 86.1567C2.25663 85.383 2.25663 84.9531 2.77252 84.0503C3.5415 82.7046 3.15944 75.4959 4.01918 69.9505C4.87892 64.4051 7.1143 59.2466 7.45815 57.3123C7.80201 55.3778 8.87674 49.4456 9.39263 48.242C9.90852 47.0384 10.3384 45.8347 10.0375 42.4387C9.73659 39.0427 11.1122 35.9046 12.9176 32.3797C14.723 28.8548 17.0874 28.7257 18.119 28.6398C19.1507 28.5538 26.4156 26.6624 27.4043 25.2438C28.163 24.1551 28.3648 22.7879 28.3924 21.1575L28.3953 21.1577C27.4162 19.9592 27.3618 16.8007 27.3618 16.8007C27.3618 16.8007 26.5605 17.2938 26.1289 15.5678C25.6974 13.8419 24.8961 12.794 25.081 11.2531C25.2659 9.71217 26.4034 11.7192 26.4034 11.7192C26.1569 8.32894 26.4986 0.52771 33.5256 0.52771C40.5526 0.52771 42.0843 7.21421 41.5912 11.3442C41.5912 11.3442 42.4018 9.71207 42.8949 11.3147C43.388 12.9174 41.9703 15.0131 41.847 15.6295C41.7237 16.2458 41.1689 17.5403 40.3059 16.8623C40.3059 16.8623 40.3871 18.2961 39.9938 19.6045L39.9918 19.6034Z" fill="white" stroke="#0F82BC" stroke-width="1.05542" stroke-miterlimit="10" stroke-linecap="round" stroke-linejoin="round"/>
<path id="Vector_2" d="M26.4037 11.7192C26.1572 8.329 26.4989 0.527771 33.5259 0.527771C40.5529 0.527771 42.0846 7.21427 41.5915 11.3442C41.5915 11.3442 42.4021 9.71213 42.8952 11.3148C43.3882 12.9174 41.9706 15.0132 41.8472 15.6295C41.724 16.2459 41.1692 17.5404 40.3062 16.8624C40.3062 16.8624 40.4911 20.1293 38.9501 21.3004C37.1243 22.688 36.5462 23.7043 33.4641 23.7043C30.3821 23.7043 30.0855 22.6176 28.5945 21.362C27.4234 20.3758 27.3617 16.8006 27.3617 16.8006C27.3617 16.8006 26.5604 17.2937 26.1289 15.5678C25.6973 13.8419 24.896 12.7939 25.081 11.253C25.2659 9.71213 26.4037 11.7192 26.4037 11.7192Z" stroke="#0F82BC" stroke-width="1.05542" stroke-miterlimit="10" stroke-linecap="round" stroke-linejoin="round"/>
<path id="Vector_3" d="M32.2969 16.7953C32.442 16.6502 32.6958 16.8678 32.8409 17.0492C32.9861 17.2305 33.6865 17.2565 33.8929 17.0492C34.0385 16.9028 34.3066 16.5896 34.6184 16.8547" stroke="#0F82BC" stroke-width="0.527709" stroke-miterlimit="10" stroke-linecap="round" stroke-linejoin="round"/>
<path id="Vector_4" d="M37.5723 12.8063C37.3196 12.9303 36.9895 13.028 36.6003 12.9995C35.6637 12.931 35.3896 12.7482 35.1611 12.7711" stroke="#0F82BC" stroke-width="0.527709" stroke-miterlimit="10" stroke-linecap="round" stroke-linejoin="round"/>
<path id="Vector_5" d="M29.1328 12.8045C29.355 12.9293 29.6597 13.0282 30.0511 12.9995C30.9877 12.931 31.2618 12.7482 31.4903 12.7711" stroke="#0F82BC" stroke-width="0.527709" stroke-miterlimit="10" stroke-linecap="round" stroke-linejoin="round"/>
<path id="Vector_6" d="M35.3593 19.1275C34.9151 19.1102 34.3887 19.0627 34.1438 19.1117C33.7709 19.1863 33.984 19.2608 33.4579 19.2608C32.9317 19.2608 32.9877 19.0686 32.652 19.0901C32.414 19.1054 31.8762 19.1848 31.4902 19.2298" stroke="#0F82BC" stroke-width="0.527709" stroke-miterlimit="10" stroke-linecap="round" stroke-linejoin="round"/>
<path id="Vector_7" d="M39.9924 19.6035C39.9364 21.9338 39.9794 23.8253 40.9681 25.2439C41.9568 26.6625 49.2217 28.5539 50.2534 28.6399C51.285 28.7259 53.6494 28.8549 55.4548 32.3798C57.2603 35.9048 58.6358 39.0428 58.3349 42.4388C58.034 45.8348 58.4639 47.0384 58.9798 48.2421C59.4957 49.4457 60.5703 55.378 60.9142 57.3123C61.2581 59.2468 63.4935 64.4053 64.3532 69.9506C65.213 75.4958 64.8308 82.7048 65.5998 84.0504C66.1157 84.9531 66.1157 85.383 66.1157 86.1568C66.1157 86.9307 66.8464 92.7768 67.0614 93.3357C67.2764 93.8945 67.4913 94.3244 67.4483 95.0122C67.4054 95.7 67.9212 99.053 67.8353 99.6548C67.7492 100.257 67.5773 104.34 67.5773 105.071C67.5773 105.802 66.1587 105.802 65.8578 104.641C65.8578 104.641 64.0094 104.684 64.4392 101.718C64.4392 101.718 64.2242 100.085 64.4822 98.6231C64.4822 98.6231 63.6654 97.1185 63.4075 95.872C62.8199 95.5758 62.7053 93.7608 62.2039 93.7655C61.8146 93.7692 61.731 95.2271 61.4731 96.1728C61.2151 97.1186 60.8713 98.8811 59.6676 98.8381C58.464 98.7951 58.7649 95.829 59.1948 94.6684C59.6246 93.5077 59.5817 92.0891 59.6246 90.9285C59.6676 89.7678 60.5273 88.1343 61.3012 86.9736C61.3012 86.9736 59.6246 82.2021 57.1744 76.3987C54.7241 70.5954 53.9503 69.1339 53.5204 66.5546C53.0905 63.9754 53.8081 61.0104 52.8326 59.3758C51.8461 57.7226 50.2739 54.5193 49.912 52.7746" stroke="#0F82BC" stroke-width="0.527709" stroke-miterlimit="10" stroke-linecap="round" stroke-linejoin="round"/>
<path id="Vector_8" d="M50.6833 42.4817C49.9954 44.2872 47.0723 49.7895 41.9139 49.3596C36.7554 48.9298 35.9365 48.5859 35.9365 48.5859" stroke="#0F82BC" stroke-width="1.05542" stroke-miterlimit="10" stroke-linecap="round" stroke-linejoin="round"/>
<path id="Vector_9" d="M28.3924 21.1577C28.3648 22.788 28.1631 24.1553 27.4043 25.2439C26.4156 26.6625 19.1507 28.5539 18.119 28.6399C17.0873 28.726 14.723 28.8549 12.9176 32.3798C11.1122 35.9047 9.73657 39.0429 10.0375 42.4388C10.3384 45.8348 9.9085 47.0384 9.39261 48.2421C8.87672 49.4458 7.80209 55.378 7.45813 57.3124C7.11428 59.2469 4.8789 64.4053 4.01916 69.9506C3.15941 75.4959 3.54148 82.7048 2.7725 84.0505C2.25661 84.9532 2.25661 85.383 2.25661 86.1569C2.25661 86.9307 1.52584 92.7769 1.31085 93.3357C1.09586 93.8946 0.880977 94.3244 0.923933 95.0122C0.966889 95.7001 0.451106 99.053 0.537017 99.6548C0.622928 100.257 0.794961 104.34 0.794961 105.071C0.794961 105.802 2.21355 105.802 2.51445 104.641C2.51445 104.641 4.36291 104.684 3.93304 101.718C3.93304 101.718 4.14802 100.085 3.89008 98.6231C3.89008 98.6231 4.70687 97.1185 4.96481 95.872C5.55236 95.5758 5.66698 93.7608 6.16841 93.7656C6.55765 93.7693 6.64124 95.2271 6.89918 96.1729C7.15713 97.1186 7.50098 98.8811 8.70469 98.8381C9.90829 98.7952 9.60739 95.829 9.17751 94.6684C8.74764 93.5077 8.7906 92.0892 8.74764 90.9285C8.70469 89.7679 7.84494 88.1343 7.07111 86.9736C7.07111 86.9736 8.74764 82.2021 11.1979 76.3988C13.6482 70.5955 14.422 69.1339 14.8519 66.5547C15.2817 63.9754 14.5642 61.0105 15.5397 59.3758C16.5262 57.7226 18.0983 54.5193 18.4602 52.7746" stroke="#0F82BC" stroke-width="0.527709" stroke-miterlimit="10" stroke-linecap="round" stroke-linejoin="round"/>
<path id="Vector_10" d="M17.6895 42.4817C18.3773 44.2872 21.3004 49.7895 26.4588 49.3596C31.6173 48.9298 32.4362 48.5859 32.4362 48.5859" stroke="#0F82BC" stroke-width="1.05542" stroke-miterlimit="10" stroke-linecap="round" stroke-linejoin="round"/>
<path id="Vector_11" d="M18.4497 44.0753C18.2909 46.6085 17.1732 48.5859 18.9787 54.776C20.7842 60.9662 20.6122 63.8894 20.0964 65.7808C19.5805 67.6722 19.5805 69.7356 19.7525 71.6271C19.9246 73.5185 19.1507 77.7313 18.3769 82.2019C17.6032 86.6726 15.6257 98.0213 15.8837 103.266C16.1416 108.51 18.9788 119.257 19.1507 123.642C19.3226 128.026 17.0874 135.162 16.9153 138.257C16.7434 141.352 19.3226 158.891 19.7525 162.502C20.1824 166.113 19.4087 168.606 19.3226 169.294C19.2366 169.982 20.0105 172.131 18.6348 174.109C17.2592 176.086 15.8457 176.759 15.6939 177.821C15.5421 178.883 15.365 179.87 16.4275 179.617C16.4275 179.617 16.8576 180.325 17.5152 179.819C17.5152 179.819 18.2235 180.513 18.8559 180.002C18.8559 180.002 19.4563 180.755 20.4461 179.946C20.4461 179.946 20.6266 180.528 21.9168 180.528C23.2069 180.528 23.5863 179.592 23.5863 179.592C23.5863 179.592 25.5341 179.162 25.0535 176.379C25.0535 176.379 26.1158 176.177 26.0653 174.608C26.0147 173.04 25.4582 173.318 25.4582 171.826C25.4582 170.334 26.2929 169.6 26.2929 168.79C26.2929 167.981 25.3823 166.488 25.3823 164.971C25.3823 163.453 26.4742 151.496 27.8037 149.835C29.1332 148.173 29.532 144.384 28.8673 139.93C28.2026 135.476 28.0031 133.149 28.0031 133.149C28.0031 133.149 30.0638 130.158 30.4627 126.768C30.8615 123.377 31.9252 112.077 32.5234 108.886C33.1216 105.695 34.216 100.497 33.6178 96.1098C33.0194 91.7224 33.853 92.0677 34.0524 92.0677C34.2517 92.0677 35.3249 91.7577 34.7266 96.1451C34.1283 100.532 35.2505 105.695 35.8488 108.886C36.4471 112.077 37.5107 123.377 37.9095 126.768C38.3084 130.158 40.3691 133.149 40.3691 133.149C40.3691 133.149 40.1696 135.476 39.5049 139.93C38.8402 144.384 39.239 148.173 40.5685 149.835C41.898 151.496 42.9899 163.453 42.9899 164.971C42.9899 166.488 42.0793 167.981 42.0793 168.79C42.0793 169.6 42.914 170.333 42.914 171.826C42.914 173.318 42.3575 173.04 42.3069 174.608C42.2564 176.177 43.3187 176.379 43.3187 176.379C42.8381 179.162 44.7859 179.592 44.7859 179.592C44.7859 179.592 45.1653 180.528 46.4554 180.528C47.7456 180.528 47.9261 179.946 47.9261 179.946C48.916 180.755 49.5163 180.002 49.5163 180.002C50.1487 180.513 50.857 179.819 50.857 179.819C51.5147 180.325 51.9447 179.617 51.9447 179.617C53.0071 179.87 52.8301 178.883 52.6783 177.821C52.5265 176.759 51.1129 176.086 49.7374 174.109C48.3618 172.131 49.1356 169.982 49.0496 169.294C48.9635 168.606 48.1898 166.113 48.6197 162.502C49.0496 158.891 51.6288 141.352 51.4569 138.257C51.2849 135.162 49.0496 128.026 49.2215 123.642C49.3934 119.257 52.2306 108.51 52.4885 103.266C52.7465 98.0212 50.769 86.6726 49.9953 82.2019C49.2216 77.7313 48.4478 73.5185 48.6197 71.6271C48.7916 69.7356 48.7916 67.6722 48.2758 65.7808C47.76 63.8894 47.588 60.9662 49.3935 54.776C51.199 48.5859 50.0813 46.6085 49.9225 44.0753" stroke="#0F82BC" stroke-width="1.05542" stroke-miterlimit="10" stroke-linecap="round" stroke-linejoin="round"/>
<path id="Vector_12" d="M33.1387 68.2424C33.1387 68.5815 33.3647 68.9772 33.6474 68.8077C33.93 68.6382 33.9865 68.2424 33.6474 67.9598" stroke="#0F82BC" stroke-width="0.527709" stroke-miterlimit="10" stroke-linecap="round" stroke-linejoin="round"/>
</g>
</svg>
