<svg width="115" height="115" viewBox="0 0 115 115" fill="none" xmlns="http://www.w3.org/2000/svg">
<g id="R-ICO-012679">
<path id="BG" d="M114.725 36.9421C114.731 36.0808 114.738 35.2194 114.749 34.3327C114.739 33.5075 114.732 32.6823 114.727 31.8566C114.715 30.2472 114.702 28.6378 114.663 27.0285C114.605 24.7238 114.536 22.2678 114.379 19.7848C114.535 18.36 114.606 16.9274 114.661 15.6984C114.729 14.3473 114.74 13.0153 114.749 11.5265C114.737 9.9181 114.364 8.3439 113.676 6.9806C113.277 6.1768 112.774 5.4493 112.204 4.7998C111.64 3.9454 110.943 3.1882 110.129 2.5956C110.14 2.6081 110.149 2.6215 110.16 2.634C110.146 2.6212 110.133 2.6086 110.119 2.5959L110.085 2.5968C109.708 2.2772 109.309 1.9831 108.885 1.726C108.314 1.3685 107.699 1.0956 107.07 0.8617C107.044 0.8515 107.015 0.8383 106.989 0.8283L106.972 0.8284C105.716 0.3758 104.384 0.1441 103.066 0.1909C101.075 0.2532 99.0843 0.2897 97.0937 0.3747C94.7189 0.22 92.3442 0.1476 89.9693 0.0876C87.5945 0.0258 85.2198 0.0315 82.8449 0.0001C80.4701 0.0295 78.0953 0.0265 75.7205 0.0862C73.3457 0.1466 70.9709 0.2188 68.5961 0.3747C67.0589 0.22 65.5218 0.1476 63.9845 0.0876C62.4474 0.019 60.9101 0.0094 59.373 0C57.8358 0.0084 56.2987 0.0184 54.7614 0.0863C53.2243 0.1467 51.6871 0.2189 50.1499 0.3748C47.7101 0.2201 45.2703 0.1477 42.8306 0.0877C40.3908 0.0259 37.9511 0.0316 35.5113 0.0002C33.0716 0.0296 30.6318 0.0266 28.192 0.0863L24.5323 0.1909C23.3229 0.2363 22.0566 0.2802 20.9 0.6957C20.9387 0.6883 20.9778 0.6854 21.0163 0.6784C20.9518 0.6943 20.8876 0.711 20.8237 0.7282C20.8498 0.7186 20.8739 0.7051 20.9 0.6957C19.0472 1.033 17.2824 1.9686 15.9189 3.3342C15.7036 3.5492 15.509 3.7845 15.3147 4.0197C14.6155 4.7146 13.5988 6.0902 13.0546 6.5882C12.786 6.834 12.0277 7.8719 11.5918 8.2586C11.1559 8.6453 10.883 9.1345 9.9888 9.8167C9.2491 10.381 8.2101 11.1446 7.687 11.8746C7.2463 12.4896 7.0601 12.6337 5.8879 13.4547C4.8503 14.1814 0.5351 19.3737 0.9997 21.4476V94.9337C1.0734 108.606 4.7866 113.13 17.655 113.578L87.5268 113.839L91.9887 113.655C94.7071 113.655 99.8702 113.398 103.14 109.528C106.275 105.817 107.828 103.62 108.829 102.616C110.357 101.091 111.868 99.4974 113.185 97.8634C114.751 95.9216 114.749 93.2864 114.731 90.6721L114.713 89.7419C114.702 89.1076 114.691 88.4729 114.662 87.8523C114.606 86.0701 114.535 84.1711 114.377 82.2473C114.535 79.3708 114.607 76.4577 114.662 73.9499C114.701 72.1535 114.714 70.3571 114.725 68.5603C114.731 67.5754 114.738 66.5906 114.749 65.6057C114.749 65.5984 114.749 65.5911 114.749 65.5837C114.739 64.6403 114.732 63.6965 114.727 62.7531C114.715 60.9152 114.702 59.0778 114.663 57.2394C114.605 54.5963 114.535 51.7785 114.377 48.9318C114.535 46.4108 114.607 43.8586 114.662 41.6623C114.701 40.0891 114.713 38.5153 114.725 36.9421Z" fill="url(#paint0_linear_938_25172)"/>
<path id="Cytoplasm" d="M101.749 46.3457C101.72 43.9152 101.723 41.4846 101.663 39.054C101.659 38.8959 101.653 38.7379 101.649 38.5798C101.653 38.347 101.658 38.1142 101.662 37.8814L101.749 25.938C101.745 25.4307 101.747 24.9255 101.74 24.4146C101.742 24.1213 101.747 23.8284 101.748 23.5346C101.738 22.1133 101.418 20.6883 100.78 19.4261C100.152 18.1618 99.2475 17.0431 98.1292 16.2291C98.1399 16.2416 98.1493 16.255 98.1601 16.2675C98.1464 16.2547 98.1327 16.2421 98.1189 16.2294L98.0855 16.2303C97.708 15.9107 97.3089 15.6166 96.8851 15.3595C95.1488 14.2724 93.0807 13.7529 91.0656 13.8244C89.075 13.8867 87.0844 13.9232 85.0938 14.0082C82.719 13.8535 80.3443 13.7811 77.9694 13.7211C75.5946 13.6593 73.2199 13.665 70.845 13.6336C68.4702 13.663 66.0954 13.66 63.7206 13.7197C61.3458 13.7801 58.971 13.8523 56.5962 14.0082C55.059 13.8535 53.5219 13.7811 51.9846 13.7211C50.4475 13.6525 48.9103 13.6429 47.3731 13.6335C45.8359 13.6419 44.2988 13.6519 42.7615 13.7198C41.2244 13.7802 39.6872 13.8524 38.15 14.0083C35.7102 13.8536 33.2704 13.7812 30.8307 13.7212C28.3909 13.6594 25.9512 13.6651 23.5114 13.6337C21.0717 13.6631 18.6319 13.6601 16.1921 13.7198L12.5324 13.8244C11.323 13.8698 10.0567 13.9137 8.9001 14.3292C8.9388 14.3218 8.9779 14.3189 9.0164 14.3119C8.9519 14.3278 8.8877 14.3445 8.8238 14.3617C8.8499 14.3521 8.874 14.3386 8.9001 14.3292C7.0473 14.6665 5.2825 15.6021 3.919 16.9677C3.3476 17.5382 2.8488 18.185 2.4289 18.8811L2.3491 18.8833C2.0824 19.3613 1.8715 19.8683 1.6872 20.3857C1.4808 20.9144 1.3151 21.4593 1.2072 22.0181C1.0184 22.9668 0.9948 23.9693 1.0191 24.8897C1.032 25.4302 1.0402 25.9706 1.0511 26.5112C1.032 28.5282 1.0226 30.5429 1 32.5605C1.0294 35.6219 1.0264 38.6834 1.0862 41.7448C1.0862 41.7455 1.0863 41.7462 1.0863 41.7462C1.0266 44.4951 1.0311 47.2432 1 49.9914C1.0281 52.658 1.0291 55.3246 1.0817 57.9912C1.0297 60.1093 1.0298 62.2274 1 64.3455C1.0294 66.5816 1.0264 68.8177 1.0862 71.0538C1.0988 71.5221 1.1173 71.9903 1.1316 72.4585C1.1177 72.9554 1.0997 73.4525 1.0874 73.9494C1.0257 76.3799 1.0314 78.8105 1 81.2411C1.0293 83.6716 1.0264 86.1022 1.0861 88.5328C1.09 88.6908 1.0962 88.8488 1.1002 89.0068C1.0966 89.2396 1.091 89.4725 1.0876 89.7053L1 101.649C1.0045 102.156 1.0018 102.662 1.0096 103.173C1.0072 103.466 1.0023 103.759 1.0008 104.052C1.0107 105.474 1.331 106.899 1.9689 108.161C2.5968 109.425 3.5015 110.544 4.6198 111.358C4.6091 111.345 4.5997 111.332 4.5889 111.319C4.6028 111.332 4.6167 111.345 4.6306 111.358L4.6664 111.359C5.043 111.677 5.4411 111.971 5.8638 112.227C7.6001 113.314 9.6682 113.834 11.6833 113.762C13.6739 113.7 15.6645 113.664 17.6551 113.579C20.0299 113.733 22.4046 113.806 24.7795 113.866C27.1543 113.928 29.529 113.922 31.9039 113.953C34.2787 113.924 36.6535 113.927 39.0283 113.867C41.4031 113.807 43.7779 113.735 46.1527 113.579C47.6899 113.733 49.227 113.806 50.7643 113.866C52.3014 113.934 53.8386 113.944 55.3758 113.953C56.913 113.945 58.4501 113.935 59.9874 113.867C61.5245 113.807 63.0617 113.734 64.5988 113.579C67.0386 113.733 69.4784 113.806 71.9181 113.866C74.3579 113.927 76.7976 113.922 79.2374 113.953C81.6771 113.924 84.1169 113.927 86.5567 113.867L90.2164 113.762C91.4258 113.717 92.6921 113.673 93.8487 113.258C93.81 113.265 93.7709 113.268 93.7324 113.275C93.7969 113.259 93.8611 113.242 93.925 113.225C93.8989 113.235 93.8748 113.248 93.8487 113.258C94.0466 113.222 94.2378 113.152 94.4333 113.103L95.6806 113.127C96.2469 112.831 96.7779 112.473 97.2642 112.068L97.2659 112.066C98.5525 111.229 99.6232 110.054 100.4 108.704C100.666 108.226 100.877 107.719 101.062 107.201C101.268 106.672 101.434 106.128 101.541 105.569C101.73 104.62 101.754 103.618 101.73 102.697C101.717 102.157 101.709 101.616 101.698 101.076C101.717 99.0587 101.727 97.044 101.749 95.0264C101.72 91.965 101.723 88.9035 101.663 85.8421C101.663 85.8414 101.663 85.8407 101.663 85.8407C101.723 83.0918 101.718 80.3437 101.749 77.5955C101.721 74.9289 101.72 72.2623 101.667 69.5957C101.719 67.4776 101.719 65.3594 101.749 63.2414C101.72 61.0053 101.723 58.7692 101.663 56.5331C101.65 56.0647 101.632 55.5963 101.617 55.1279C101.631 54.6311 101.649 54.1342 101.662 53.6374C101.723 51.2069 101.718 48.7763 101.749 46.3457Z" fill="#FAE39B"/>
<path id="Membrane" d="M55.3809 114.953C53.8614 114.944 52.3013 114.936 50.7198 114.864C49.3458 114.811 47.7427 114.74 46.1358 114.581C43.6846 114.74 41.1968 114.812 39.0538 114.867C37.481 114.906 35.9083 114.919 34.336 114.931C33.5294 114.937 32.7232 114.943 31.9166 114.953C31.0572 114.942 30.2237 114.936 29.3897 114.93C27.8443 114.917 26.2989 114.905 24.7535 114.865C22.6153 114.812 20.1275 114.74 17.6441 114.579C16.355 114.635 15.0665 114.669 13.7774 114.704L11.7149 114.762C9.4634 114.842 7.1988 114.242 5.3336 113.075C4.9523 112.844 4.5631 112.566 4.1822 112.256C4.1304 112.232 4.0801 112.201 4.0323 112.166C2.814 111.28 1.7911 110.049 1.0738 108.607C0.3843 107.241 0.0123 105.667 0.001 104.06L0.0098 103.164C0.0054 102.877 0.0039 102.568 0.003 102.261L0 101.657L0.1001 88.9922L0.0864 88.5576C0.0468 86.9482 0.0346 85.3388 0.0224 83.7295C0.0161 82.9042 0.0103 82.079 0 81.2529C0.0112 80.3701 0.0176 79.5117 0.0239 78.6543C0.0361 77.0772 0.0478 75.501 0.0879 73.9238L0.1323 72.4306L0.0869 71.08C0.0469 69.5946 0.0347 68.1093 0.0224 66.6239C0.0161 65.8691 0.0098 65.1142 0 64.3583C0.0107 63.5595 0.0181 62.788 0.0249 62.0155C0.0366 60.6659 0.0488 59.3163 0.082 57.9667C0.0473 56.2675 0.0351 54.5243 0.0229 52.7802L0 50.0019C0.0112 48.999 0.0176 48.018 0.0244 47.0371C0.0361 45.2666 0.0478 43.4961 0.0864 41.7251C0.0468 39.7349 0.0346 37.7051 0.0224 35.6753C0.0161 34.6401 0.0098 33.6049 0 32.5703C0.0132 31.3848 0.022 30.2212 0.0303 29.0576L0.0513 26.5019L0.02 24.913C-0.0132 23.6791 0.0527 22.6962 0.2265 21.8232C0.3393 21.2397 0.5175 20.6318 0.7558 20.0219C0.977 19.3993 1.2094 18.8735 1.4765 18.3954C1.5453 18.2724 1.6381 18.1674 1.747 18.0853C2.1777 17.4154 2.6694 16.8021 3.2128 16.2601C4.6967 14.7733 6.6225 13.745 8.6415 13.3602C9.9101 12.9222 11.2636 12.8714 12.4608 12.8265L16.1634 12.7201C17.7835 12.6805 19.3988 12.6683 21.014 12.6561C21.8426 12.6498 22.6712 12.6439 23.4994 12.6336C24.3856 12.6448 25.247 12.6512 26.1083 12.6575C27.6908 12.6692 29.2733 12.6814 30.8563 12.7215C33.0501 12.7752 35.5995 12.8465 38.1317 13.0052C39.7259 12.8465 41.3353 12.7747 42.722 12.7205C44.3118 12.6502 45.9354 12.6414 47.368 12.6336C48.8939 12.6429 50.4603 12.6522 52.0291 12.722C53.4065 12.7757 55.0115 12.8465 56.6131 13.0047C59.0657 12.846 61.5526 12.7747 63.6951 12.72C65.2679 12.6804 66.8406 12.6682 68.4129 12.656C69.2195 12.6497 70.0262 12.6438 70.8318 12.6335C71.6961 12.6447 72.5339 12.6511 73.3728 12.6574C74.9138 12.6696 76.4548 12.6813 77.9958 12.7214C80.1384 12.7756 82.6296 12.8469 85.1052 13.0066C86.3972 12.9519 87.6892 12.9172 88.9812 12.8831L91.0339 12.825C93.2868 12.7425 95.5495 13.344 97.4148 14.5115C97.7966 14.7429 98.1863 15.0198 98.5671 15.3303C98.6189 15.3552 98.6687 15.385 98.7165 15.4201C99.9353 16.3063 100.959 17.5378 101.675 18.9811C102.365 20.3454 102.737 21.9196 102.748 23.5275L102.739 24.424C102.744 24.7223 102.745 25.0431 102.746 25.3639L102.749 25.9298L102.649 38.5924L102.663 39.0289C102.702 40.6383 102.715 42.2477 102.726 43.857C102.732 44.6822 102.739 45.5079 102.749 46.3331C102.738 47.2198 102.731 48.0811 102.724 48.9425C102.713 50.5157 102.701 52.0895 102.662 53.6627L102.617 55.1568L102.663 56.5054C102.702 57.9878 102.715 59.4693 102.726 60.9507C102.732 61.7095 102.739 62.4683 102.749 63.228C102.738 64.0092 102.731 64.7641 102.725 65.519C102.713 66.8862 102.701 68.2534 102.667 69.6196C102.701 71.3247 102.714 73.0737 102.727 74.8227L102.749 77.5844C102.737 78.5922 102.731 79.5776 102.725 80.5629C102.713 82.3295 102.701 84.0951 102.663 85.8608C102.702 87.8452 102.715 89.8706 102.727 91.895C102.732 92.935 102.739 93.9761 102.749 95.0161C102.736 96.1763 102.728 97.314 102.719 98.4526L102.697 101.084L102.729 102.673C102.762 103.907 102.696 104.889 102.522 105.763C102.409 106.35 102.23 106.957 101.993 107.565C101.771 108.187 101.539 108.712 101.272 109.19C100.396 110.715 99.208 111.992 97.8301 112.892C97.3731 113.269 97.1504 113.405 96.4815 113.81L96.2003 113.981C94.9249 114.757 92.2189 114.837 90.1817 114.761C88.1407 114.69 86.6895 114.857 86.6758 114.86C84.9658 114.906 83.3506 114.918 81.7354 114.93C80.9063 114.936 80.0782 114.943 79.2491 114.953C78.3682 114.942 77.5118 114.935 76.6544 114.929C75.0675 114.917 73.4806 114.905 71.8927 114.865C69.7032 114.811 67.1578 114.741 64.6178 114.581C63.0245 114.74 61.4147 114.811 60.027 114.866C58.522 114.933 57.0322 114.944 55.3809 114.953ZM17.6553 112.578C17.6773 112.578 17.6988 112.579 17.7207 112.58C20.1846 112.741 22.6694 112.812 24.8047 112.865C26.3389 112.906 27.8721 112.918 29.4053 112.93C30.2427 112.936 31.0801 112.943 31.9175 112.953C32.7012 112.943 33.5108 112.937 34.3203 112.931C35.8813 112.919 37.4424 112.906 39.0034 112.867C41.1504 112.813 43.6465 112.741 46.0874 112.58C46.1416 112.577 46.1968 112.578 46.2534 112.583C47.8315 112.742 49.4297 112.813 50.8032 112.866C52.352 112.936 53.8921 112.944 55.3818 112.953C57.0009 112.945 58.4702 112.933 59.9433 112.868C61.3295 112.813 62.9345 112.742 64.498 112.583C64.5517 112.577 64.6069 112.577 64.6626 112.58C67.1938 112.741 69.7471 112.811 71.9424 112.865C73.5195 112.906 75.0947 112.918 76.6699 112.93C77.5293 112.936 78.3896 112.942 79.25 112.953C80.0566 112.943 80.8887 112.937 81.7197 112.931C83.3242 112.919 84.9277 112.906 86.5322 112.867C86.501 112.866 88.0459 112.68 90.2529 112.764C93.1133 112.863 94.6855 112.562 95.1601 112.272L95.4443 112.101C96.1406 111.678 96.248 111.613 96.624 111.299C96.6601 111.269 96.6972 111.242 96.7363 111.219C97.8515 110.489 98.8183 109.447 99.5322 108.205C99.7373 107.838 99.9258 107.408 100.119 106.865C100.323 106.342 100.469 105.851 100.561 105.378C100.705 104.649 100.759 103.808 100.729 102.724L100.697 101.097L100.719 98.4373C100.727 97.2967 100.736 96.1561 100.749 95.0154C100.739 93.9929 100.732 92.95 100.727 91.907C100.715 89.8924 100.702 87.8767 100.663 85.8611C100.701 84.0632 100.713 82.3064 100.725 80.5506C100.731 79.5623 100.738 78.5731 100.749 77.5838L100.726 74.8377C100.714 73.0965 100.701 71.3563 100.667 69.615C100.701 68.2146 100.713 66.8582 100.725 65.5017C100.731 64.7429 100.738 63.9851 100.749 63.2273C100.739 62.4919 100.732 61.7293 100.726 60.9675C100.715 59.4978 100.702 58.029 100.663 56.5593L100.618 55.1589L100.662 53.612C100.702 52.0505 100.714 50.489 100.725 48.9274C100.731 48.0627 100.738 47.1974 100.749 46.3327C100.739 45.529 100.732 44.7009 100.726 43.8723C100.714 42.2742 100.702 40.676 100.663 39.0784L100.649 38.6048L100.662 37.8646L100.749 25.9305L100.746 25.3709C100.745 25.0579 100.744 24.7449 100.739 24.4295L100.748 23.5311C100.739 22.2406 100.441 20.9735 99.8873 19.8773C99.3404 18.7757 98.5836 17.8382 97.69 17.1498C97.6724 17.1405 97.6558 17.1312 97.6392 17.121C97.5669 17.0863 97.4986 17.0439 97.44 16.9936C97.0855 16.6943 96.7242 16.4321 96.3658 16.2143C94.8228 15.249 92.9625 14.7626 91.1002 14.8242L89.0348 14.8823C87.736 14.917 86.4362 14.9521 85.1364 15.0073C85.0993 15.0083 85.0651 15.0088 85.028 15.0063C82.5719 14.8461 80.0837 14.7749 77.944 14.7207C76.4147 14.6811 74.8864 14.6694 73.3571 14.6577C72.5153 14.6514 71.6735 14.645 70.8317 14.6338C70.0475 14.6436 69.2379 14.6499 68.4284 14.6563C66.8679 14.6685 65.3063 14.6802 63.7453 14.7193C61.5988 14.774 59.1037 14.8463 56.6613 15.0064C56.6047 15.0098 56.55 15.0088 56.4958 15.0035C54.9226 14.8448 53.3225 14.7745 51.9455 14.7203C50.4094 14.6524 48.863 14.6427 47.3674 14.6339C45.9641 14.6417 44.3611 14.65 42.8054 14.7189C41.4197 14.7736 39.8157 14.8449 38.2507 15.0036C38.197 15.009 38.1418 15.0099 38.0866 15.0065C35.5632 14.8463 33.0055 14.7751 30.8063 14.7209C29.2345 14.6813 27.6637 14.6696 26.0934 14.6579C25.2282 14.6516 24.3634 14.6452 23.4987 14.634C22.6921 14.6438 21.8605 14.6501 21.029 14.6565C19.425 14.6687 17.821 14.6804 16.2165 14.7195L12.5612 14.8245C11.5085 14.8641 10.4455 14.9041 9.508 15.1824C9.4323 15.2259 9.3488 15.26 9.259 15.2825L9.0822 15.3284C8.9987 15.3504 8.9147 15.3616 8.8322 15.3621C7.2707 15.6985 5.7858 16.5135 4.6266 17.6746C4.1227 18.178 3.6715 18.7576 3.2853 19.3982C3.2291 19.4905 3.1598 19.572 3.0802 19.6404C2.924 19.9524 2.778 20.303 2.629 20.7215C2.4244 21.2474 2.2799 21.7381 2.1891 22.2083C2.0436 22.9373 1.9899 23.7791 2.0187 24.8636L2.0509 26.4915L2.0299 29.0726C2.0215 30.2387 2.0127 31.4047 2 32.5717C2.0098 33.5883 2.0161 34.6254 2.0225 35.663C2.0347 37.6835 2.0464 39.7045 2.0865 41.725C2.0479 43.5292 2.0362 45.2899 2.0245 47.0507C2.0176 48.0346 2.0112 49.0185 2 50.0024L2.0229 52.7666C2.0351 54.502 2.0473 56.2363 2.0815 57.9717C2.0483 59.3545 2.0366 60.6944 2.0244 62.0332C2.0176 62.8085 2.0107 63.5839 2 64.3593C2.0098 65.0907 2.0161 65.8495 2.0225 66.6073C2.0347 68.0809 2.0464 69.5536 2.086 71.0272L2.1314 72.4276L2.087 73.9735C2.0474 75.5389 2.0357 77.1044 2.024 78.6688C2.0176 79.5302 2.0112 80.3925 2 81.2538C2.0098 82.0575 2.0161 82.8856 2.0225 83.7147C2.0347 85.3124 2.0464 86.91 2.0855 88.5086L2.0997 88.9822L2.0875 89.7195L2 101.655L2.0029 102.254C2.0039 102.554 2.0049 102.854 2.0097 103.157L2.0009 104.058C2.0097 105.347 2.3075 106.613 2.8617 107.71C3.4086 108.811 4.1649 109.748 5.0585 110.436C5.078 110.447 5.0971 110.458 5.1161 110.47C5.1879 110.504 5.2548 110.546 5.3129 110.596C5.665 110.894 6.0253 111.155 6.3832 111.373C7.9252 112.338 9.7924 112.83 11.6483 112.764L13.7235 112.704C15.0194 112.67 16.3158 112.635 17.6122 112.579C17.6265 112.578 17.6411 112.578 17.6553 112.578Z" fill="url(#paint1_linear_938_25172)"/>
<g id="R-ICO-013121" opacity="0.6">
<g id="Nucleus">
<mask id="path-4-inside-1_938_25172" fill="white">
<path d="M41.5733 74.6363C51.0781 74.6363 58.7833 66.9311 58.7833 57.4263C58.7833 47.9215 51.0781 40.2163 41.5733 40.2163C32.0685 40.2163 24.3633 47.9215 24.3633 57.4263C24.3633 66.9311 32.0685 74.6363 41.5733 74.6363Z"/>
</mask>
<path d="M41.5733 74.6363C51.0781 74.6363 58.7833 66.9311 58.7833 57.4263C58.7833 47.9215 51.0781 40.2163 41.5733 40.2163C32.0685 40.2163 24.3633 47.9215 24.3633 57.4263C24.3633 66.9311 32.0685 74.6363 41.5733 74.6363Z" fill="url(#paint2_radial_938_25172)" stroke="#5656A5" stroke-width="2.5815" mask="url(#path-4-inside-1_938_25172)"/>
</g>
<g id="R-ICO-013619">
<g id="Nucleolus">
<mask id="path-5-inside-2_938_25172" fill="white">
<path d="M33.4805 67.9156C35.1438 67.9156 36.4922 66.5672 36.4922 64.9038C36.4922 63.2405 35.1438 61.8921 33.4805 61.8921C31.8172 61.8921 30.4688 63.2405 30.4688 64.9038C30.4688 66.5672 31.8172 67.9156 33.4805 67.9156Z"/>
</mask>
<path d="M33.4805 67.9156C35.1438 67.9156 36.4922 66.5672 36.4922 64.9038C36.4922 63.2405 35.1438 61.8921 33.4805 61.8921C31.8172 61.8921 30.4688 63.2405 30.4688 64.9038C30.4688 66.5672 31.8172 67.9156 33.4805 67.9156Z" fill="url(#paint3_radial_938_25172)" stroke="#4B4C96" stroke-width="0.60235" mask="url(#path-5-inside-2_938_25172)"/>
</g>
</g>
</g>
</g>
<defs>
<linearGradient id="paint0_linear_938_25172" x1="57.857" y1="113.483" x2="57.857" y2="0.124903" gradientUnits="userSpaceOnUse">
<stop offset="0.044" stop-color="#AD9037"/>
<stop offset="0.7594" stop-color="#E7C049"/>
<stop offset="0.8068" stop-color="#E3BD48"/>
<stop offset="0.8549" stop-color="#D7B344"/>
<stop offset="0.9033" stop-color="#C2A23E"/>
<stop offset="0.9517" stop-color="#A68B35"/>
<stop offset="1" stop-color="#826D2A"/>
</linearGradient>
<linearGradient id="paint1_linear_938_25172" x1="51.3745" y1="114.953" x2="51.3745" y2="12.6337" gradientUnits="userSpaceOnUse">
<stop offset="0.044" stop-color="#AD9037"/>
<stop offset="0.3764" stop-color="#C4A33E"/>
<stop offset="0.8046" stop-color="#E7C049"/>
<stop offset="0.8551" stop-color="#E4BE48"/>
<stop offset="0.892" stop-color="#DBB645"/>
<stop offset="0.9246" stop-color="#CBA940"/>
<stop offset="0.9547" stop-color="#B49639"/>
<stop offset="0.9828" stop-color="#987F31"/>
<stop offset="1" stop-color="#826D2A"/>
</linearGradient>
<radialGradient id="paint2_radial_938_25172" cx="0" cy="0" r="1" gradientUnits="userSpaceOnUse" gradientTransform="translate(37.0983 50.2603) scale(22.6193)">
<stop stop-color="#AFBAF7"/>
<stop offset="0.3111" stop-color="#6D96CE"/>
<stop offset="0.8032" stop-color="#285FCC"/>
</radialGradient>
<radialGradient id="paint3_radial_938_25172" cx="0" cy="0" r="1" gradientUnits="userSpaceOnUse" gradientTransform="translate(33.4826 64.9116) rotate(-15.5149) scale(3.73793)">
<stop stop-color="#B0B7DC"/>
<stop offset="0.3" stop-color="#B697C6"/>
<stop offset="0.8032" stop-color="#525281"/>
</radialGradient>
</defs>
</svg>
