<svg width="50" height="23" viewBox="0 0 50 23" fill="none" xmlns="http://www.w3.org/2000/svg">
<g id="R-ICO-012613">
<g id="DCP1">
<path d="M1.12897 11.4629C1.12897 5.94007 5.60612 1.46292 11.129 1.46292H38.129C43.6518 1.46292 48.129 5.94007 48.129 11.4629C48.129 16.9858 43.6518 21.4629 38.129 21.4629H11.129C5.60612 21.4629 1.12897 16.9858 1.12897 11.4629Z" fill="url(#paint0_linear_938_23263)"/>
<path d="M39.9947 3.16046C39.3861 3.01517 38.7601 2.93629 38.129 2.92463C29.129 2.78115 20.129 2.419 11.129 1.60293C11.129 1.50956 11.129 1.4162 11.129 1.32283C20.129 0.506759 29.129 0.144611 38.129 0.00112939C38.9708 -0.0107641 39.8177 0.0708083 40.646 0.24699C45.7882 1.2807 49.6617 6.31712 49.4677 11.4629C49.4602 11.881 49.4301 12.2962 49.3775 12.7091C48.7899 18.289 43.4324 22.6341 38.1294 22.2288C38.1293 22.2288 38.1291 22.2288 38.129 22.2288C33.261 21.985 28.3926 21.8096 23.5248 21.9159C19.393 22.0033 15.2609 22.3108 11.129 22.5243C10.3159 22.5625 9.49247 22.5088 8.68301 22.3587C3.65562 21.4804 -0.233425 16.5154 0.010904 11.4629C0.0217704 11.053 0.0552537 10.6463 0.111268 10.2425C0.752257 4.77932 6.12558 0.671206 11.129 1.32283C11.129 1.4162 11.129 1.50956 11.129 1.60293C6.26652 2.05071 2.51681 6.11959 2.26669 10.4789C2.24258 10.8061 2.23611 11.1338 2.24695 11.4629C2.33374 15.5019 5.32681 19.1102 9.19137 20.0853C9.81908 20.2568 10.4688 20.3636 11.129 20.4015C15.2609 20.6147 19.393 20.9213 23.5248 21.0087C28.3927 21.115 33.261 20.9409 38.129 20.6972C38.1291 20.6972 38.1292 20.6972 38.1294 20.6971C42.6918 20.4949 46.4562 16.664 46.7603 12.422C46.7879 12.1036 46.7978 11.7841 46.7903 11.4629C46.7539 7.51703 43.7445 3.98004 39.9947 3.16046Z" fill="#005981"/>
<text id="DCP1_2" fill="white" xml:space="preserve" style="white-space: pre" font-family="Arial" font-size="12" font-weight="bold" letter-spacing="0em"><tspan x="8.6153" y="15.6231">DCP1</tspan></text>
</g>
</g>
<defs>
<linearGradient id="paint0_linear_938_23263" x1="24.629" y1="1.46292" x2="24.629" y2="21.4629" gradientUnits="userSpaceOnUse">
<stop stop-color="#005981"/>
<stop offset="1" stop-color="#EEBA23"/>
</linearGradient>
</defs>
</svg>
