<svg width="70" height="26" viewBox="0 0 70 26" fill="none" xmlns="http://www.w3.org/2000/svg">
<g id="R-ICO-013250">
<g id="Abstract" clip-path="url(#clip0_938_25001)">
<path id="bg" d="M35 0.5C44.6212 0.5 53.3093 1.94947 59.5742 4.27637C62.7086 5.44057 65.211 6.81471 66.9199 8.31543C68.6297 9.81689 69.5 11.4014 69.5 13C69.5 14.5986 68.6297 16.1831 66.9199 17.6846C65.211 19.1853 62.7086 20.5594 59.5742 21.7236C53.3093 24.0505 44.6212 25.5 35 25.5C25.3788 25.5 16.6907 24.0505 10.4258 21.7236C7.2914 20.5594 4.78902 19.1853 3.08008 17.6846C1.37034 16.1831 0.5 14.5986 0.5 13C0.5 11.4014 1.37034 9.81689 3.08008 8.31543C4.78902 6.81471 7.2914 5.44057 10.4258 4.27637C16.6907 1.94947 25.3788 0.5 35 0.5Z" fill="#B35628" stroke="#B35628"/>
<text id="label" fill="white" xml:space="preserve" style="white-space: pre" font-family="Arial" font-size="12" font-weight="bold" letter-spacing="0em"><tspan x="4.22461" y="17.1483">PROTEINS</tspan></text>
</g>
</g>
<defs>
<clipPath id="clip0_938_25001">
<rect width="70" height="26" fill="white"/>
</clipPath>
</defs>
</svg>
