<svg width="42" height="23" viewBox="0 0 42 23" fill="none" xmlns="http://www.w3.org/2000/svg">
<g id="R-ICO-014326">
<g id="ARF">
<path d="M1.18945 11.363C1.18945 5.84019 5.66661 1.36304 11.1895 1.36304H30.1895C35.7123 1.36304 40.1895 5.84019 40.1895 11.363C40.1895 16.8859 35.7123 21.363 30.1895 21.363H11.1895C5.6666 21.363 1.18945 16.8859 1.18945 11.363Z" fill="url(#paint0_linear_938_23972)"/>
<path d="M35.1375 4.44173C33.7229 3.38888 31.9841 2.77947 30.1895 2.72143C23.8561 2.53206 17.5228 2.16844 11.1895 1.50304C11.1895 1.40968 11.1895 1.31631 11.1895 1.22295C17.5228 0.55755 23.8561 0.193932 30.1895 0.00456464C32.5364 -0.0653039 34.93 0.647981 36.8762 2.01485C39.8741 4.09556 41.6858 7.75217 41.5786 11.363C41.5554 12.5403 41.3486 13.7119 40.9676 14.8206C39.4803 19.3935 34.7424 22.4843 30.1898 22.1289C30.1897 22.1289 30.1896 22.1289 30.1895 22.1289C25.9882 21.8852 21.7865 21.7097 17.5852 21.816C15.4534 21.8683 13.3214 21.9992 11.1895 22.1417C8.96365 22.2881 6.62854 21.7168 4.69339 20.4444C1.72189 18.503 -0.115651 14.9112 0.00576329 11.363C0.0325673 10.2067 0.245303 9.05794 0.632336 7.97679C2.1526 3.51666 6.8934 0.624736 11.1895 1.22295C11.1895 1.31631 11.1895 1.40968 11.1895 1.50304C7.01456 1.97522 3.66393 5.01088 2.6972 8.63862C2.45194 9.52799 2.34552 10.447 2.37306 11.363C2.44425 14.1691 3.83975 16.8264 6.05015 18.5507C7.47583 19.6983 9.27354 20.4495 11.1895 20.5838C13.3214 20.726 15.4534 20.8565 17.5852 20.9088C21.7865 21.0151 25.9881 20.841 30.1895 20.5973C30.1896 20.5973 30.1897 20.5973 30.1898 20.5973C34.1079 20.3673 37.4604 17.5312 38.4604 14.0169C38.7119 13.1548 38.8244 12.2583 38.8004 11.363C38.7433 8.61948 37.3216 6.02675 35.1375 4.44173Z" fill="#BA7F71"/>
<text id="ARF_2" fill="white" xml:space="preserve" style="white-space: pre" font-family="Arial" font-size="12" font-weight="bold" letter-spacing="0em"><tspan x="8.34961" y="15.5232">ARF</tspan></text>
</g>
</g>
<defs>
<linearGradient id="paint0_linear_938_23972" x1="20.6895" y1="1.36304" x2="20.6895" y2="21.363" gradientUnits="userSpaceOnUse">
<stop stop-color="#BA7F71"/>
<stop offset="1" stop-color="#5DD200"/>
</linearGradient>
</defs>
</svg>
