<svg width="145" height="37" viewBox="0 0 145 37" fill="none" xmlns="http://www.w3.org/2000/svg">
<g id="R-ICO-014459">
<g id="NUCLEAR ENVELOPE PROTEIN">
<path d="M0.917969 11.5C0.917969 5.97715 5.39512 1.5 10.918 1.5H132.918C138.441 1.5 142.918 5.97715 142.918 11.5V25.5C142.918 31.0228 138.441 35.5 132.918 35.5H10.918C5.39512 35.5 0.917969 31.0228 0.917969 25.5V11.5Z" fill="url(#paint0_linear_938_24050)"/>
<path d="M94.626 2.99266C66.7232 2.87443 38.8207 2.52283 10.918 1.64001C10.918 1.54664 10.918 1.45328 10.918 1.35991C38.8207 0.477089 66.7232 0.125486 94.626 0.00726104C107.39 -0.0272988 120.154 0.0678637 132.918 0.158453C134.263 0.165994 135.609 0.413913 136.866 0.891821C141.198 2.47682 144.241 6.92882 144.135 11.5C144.086 16.1667 144.025 20.8333 143.955 25.5C144.012 31.3883 138.648 36.514 132.919 36.2659C132.919 36.2659 132.918 36.2658 132.918 36.2658C118.967 36.0221 105.015 35.8466 91.064 35.953C77.1127 36.056 63.1601 36.4645 49.2088 36.6648C36.4452 36.8138 23.6817 36.7521 10.918 36.6221C9.59886 36.6109 8.28117 36.3635 7.05174 35.891C2.81551 34.3177 -0.128385 29.9476 0.00432295 25.5C0.0841101 20.8333 0.181267 16.1666 0.299033 11.5C0.301783 5.82719 5.5261 1.02183 10.918 1.35991C10.918 1.45328 10.918 1.54664 10.918 1.64001C5.6568 1.71902 1.27502 6.51933 1.53678 11.5C1.65453 16.1667 1.75168 20.8334 1.83147 25.5C1.85216 29.2073 4.38002 32.6727 7.80813 33.8588C8.80395 34.2159 9.86007 34.3905 10.918 34.3779C23.6815 34.248 36.445 34.1863 49.2088 34.3353C63.1601 34.5356 77.1126 34.9428 91.064 35.0457C105.015 35.1521 118.967 34.978 132.918 34.7342C132.918 34.7342 132.919 34.7342 132.919 34.7342C137.843 34.7437 142.083 30.2641 141.881 25.5C141.811 20.8333 141.75 16.1667 141.701 11.5C141.707 7.91714 139.279 4.53439 135.948 3.35921C134.979 3.007 133.951 2.83255 132.918 2.84147C120.154 2.9321 107.39 3.02747 94.626 2.99266Z" fill="#0052AF"/>
<text id="NUCLEAR ENVELOPE PROTEIN_2" fill="white" xml:space="preserve" style="white-space: pre" font-family="Arial" font-size="12" font-weight="bold" letter-spacing="0em"><tspan x="8.21484" y="15.6602">NUCLEAR ENVELOPE&#10;</tspan><tspan x="45.2344" y="29.6602">PROTEIN</tspan></text>
</g>
</g>
<defs>
<linearGradient id="paint0_linear_938_24050" x1="71.918" y1="1.5" x2="71.918" y2="35.5" gradientUnits="userSpaceOnUse">
<stop stop-color="#E8C900"/>
<stop offset="1" stop-color="#06A2B2"/>
</linearGradient>
</defs>
</svg>
