<svg width="69" height="66" viewBox="0 0 69 66" fill="none" xmlns="http://www.w3.org/2000/svg">
<g id="R-ICO-014838">
<path id="Vector" d="M67.7783 31.6623C67.7783 34.3727 66.9476 39.49 66.8518 42.0886C66.5429 50.108 62.8155 50.092 58.5981 54.368C54.9132 58.0955 51.4573 59.5226 46.3613 61.2053C43.0492 62.3022 36.6858 63.9157 33.0009 63.9157C29.0125 63.9157 24.0336 65.1937 20.4872 63.9157C15.8119 62.233 14.0014 58.7611 10.5508 55.3212C6.59969 51.386 5.22049 51.7961 3.61769 46.2954C2.74439 43.3081 0.683594 35.8904 0.683594 32.6262C0.683594 25.5174 3.43129 21.2308 7.20139 15.8046C9.51249 12.4818 11.8714 8.89284 15.1995 6.59244C17.9472 4.69674 21.483 4.37194 24.7418 3.36014C27.8942 2.38034 30.7537 0.681641 34.2256 0.681641C39.1033 0.681641 43.736 3.31754 47.9161 5.19194C51.0419 6.59244 53.912 6.85864 56.4467 9.09514C60.8611 12.9983 62.3361 15.2401 64.2105 20.9645C65.2969 24.2446 67.7783 28.0147 67.7783 31.6623Z" fill="url(#paint0_radial_938_25245)"/>
<path id="MEMBRANE" d="M68.4916 30.1394C68.3691 29.2555 68.0869 28.4407 67.826 27.7645C67.581 27.1042 67.2456 26.4173 66.761 25.6026C66.4149 25.0169 66.0262 24.314 65.7333 23.5631C65.5416 23.0785 65.4138 22.5567 65.286 22.0455C65.2274 21.8165 65.1742 21.5876 65.1103 21.3639C64.9292 20.6717 64.6524 19.9049 64.3116 19.1434C64.04 18.5576 63.6673 17.7962 63.1348 17.1093C63.0283 16.1082 62.6822 15.0858 62.0964 14.0581C61.8355 13.6321 61.5053 13.2061 61.1006 12.7588C60.7811 12.386 60.3817 12.0186 59.8865 11.6459C59.4232 11.2998 59.0665 10.9803 58.7629 10.6395C58.5925 10.4478 58.4434 10.2295 58.289 10.0005C58.1452 9.79276 58.0015 9.57446 57.8257 9.36677C57.2453 8.72777 56.3028 7.92366 55.0833 7.67346C54.5401 7.02386 53.784 6.49666 52.7776 6.06536C52.3303 5.88436 51.8564 5.76716 51.4464 5.67136C50.9512 5.53826 50.4506 5.47436 50.0725 5.43706C49.5986 5.38376 49.2045 5.27736 48.8691 5.10696C48.6455 5.00046 48.4431 4.83536 48.2248 4.66496C48.0863 4.55286 47.9425 4.44106 47.7934 4.33986C47.3887 4.07366 46.9361 3.91386 46.4941 3.77006C46.1054 3.65826 45.6581 3.54106 45.1522 3.52516C44.1298 2.70516 42.969 2.01816 41.6005 1.42716C41.0201 1.18756 40.3544 0.979865 39.5823 0.788165C38.9007 0.607165 38.1872 0.495265 37.4683 0.458065C36.7973 0.415465 36.1051 0.367565 35.4235 0.282365C35.1945 0.250465 34.9656 0.213165 34.7313 0.170565C34.268 0.0906647 33.7941 0.00546474 33.3042 0.000164738C32.6546 -0.00513526 31.9676 0.117265 31.1369 0.394165C30.3808 0.655065 29.7471 0.979865 29.1933 1.37926C29.172 1.39526 29.1507 1.41656 29.1347 1.43786L19.8692 4.33466C19.8426 4.32406 19.816 4.32406 19.7893 4.31866C18.6391 4.27606 17.4889 4.49436 16.3653 4.96826C15.8807 5.18126 15.3855 5.48476 14.853 5.90016C14.411 6.23566 14.001 6.63496 13.6016 7.12486C13.2715 7.51886 12.9147 7.93426 12.494 8.30166C12.3023 8.47206 12.0893 8.62116 11.8657 8.78086C11.6314 8.94596 11.3864 9.12167 11.1628 9.31866C10.7049 9.72866 10.3587 10.2293 10.0712 10.6712C9.80499 11.1132 9.53339 11.6031 9.35759 12.1782C8.36179 12.961 7.60039 13.8769 7.04129 14.5957C6.68989 15.0643 6.38629 15.5755 6.12539 16.0175C5.85379 16.4595 5.59819 16.96 5.34259 17.5458C5.09229 18.1156 4.84739 18.5629 4.55979 18.9569C4.40009 19.1859 4.20299 19.3936 4.00069 19.6172C3.81959 19.8142 3.62789 20.0166 3.46289 20.2402C3.09009 20.7354 2.83989 21.2999 2.63749 21.7951C2.46179 22.2743 2.28069 22.8388 2.23279 23.4565C1.32749 24.7345 0.672591 26.2574 0.283891 27.9934C0.124191 28.7655 0.038891 29.5802 0.012291 30.4855C-0.025009 31.3109 0.022991 32.1309 0.150791 32.9936C0.198691 33.2865 0.246591 33.5793 0.299891 33.8669C0.390391 34.3888 0.480991 34.8786 0.534191 35.3898C0.582091 35.7732 0.603391 36.1779 0.624691 36.5666C0.645991 36.9766 0.667291 37.4026 0.720491 37.818C0.843191 38.7179 1.09349 39.5699 1.30119 40.2142C1.52479 40.8905 1.81239 41.6839 2.23309 42.456C2.31829 43.3559 2.45669 44.2984 2.65909 45.3315C2.87209 46.4764 3.10639 47.4029 3.39929 48.2389C3.79869 49.3358 4.28319 50.2358 4.89029 50.9972C5.57719 51.8758 6.45049 52.5201 7.21199 53.0367C7.91489 53.5159 8.72429 54.1017 9.43249 54.8259C9.93839 55.3371 10.3857 55.9228 10.8223 56.4926C10.9608 56.679 11.1045 56.8654 11.2483 57.0464C11.8181 57.7599 12.4624 58.4682 13.2132 59.2296C13.8362 59.8526 14.5924 60.5608 15.4763 61.1146C16.1259 62.1743 17.0738 63.1008 18.2346 63.7877C18.7245 64.0753 19.3049 64.3202 20.0451 64.5492C20.6575 64.7516 21.3391 64.8474 22.026 64.8474H22.4254C22.9259 64.8474 23.3945 64.8474 23.8738 64.89C24.1507 64.9113 24.4223 64.9592 24.7152 65.0071C25.0507 65.0604 25.3915 65.1189 25.7376 65.1349C25.8388 65.1402 25.9346 65.1456 26.0358 65.1456C26.5896 65.1456 27.1327 65.0604 27.6493 64.9699C28.1818 64.8634 28.8048 64.7196 29.4332 64.448C30.2692 64.5385 31.1052 64.5811 31.8454 64.6131L33.0542 64.677C33.5015 64.7036 33.9381 64.6876 34.3588 64.6717C35.1575 64.6184 35.9776 64.496 36.8669 64.2989C37.6177 64.1551 38.4112 63.9368 39.3004 63.6333C39.9394 63.4203 40.7861 63.1487 41.6487 62.9783C42.0534 62.8931 42.4794 62.8398 42.8948 62.7919C43.2942 62.744 43.7042 62.6907 44.1089 62.6109C45.6851 62.2701 47.24 61.6311 48.7256 60.7259C50.3284 60.5022 51.8993 60.0177 53.3956 59.2775C54.1145 58.9101 54.8227 58.4628 55.5043 57.9463C56.138 57.483 56.761 56.9186 57.3574 56.2743L57.6663 55.9388C58.1189 55.4489 58.5502 54.9856 59.0242 54.5543C59.4289 54.1815 59.9081 53.8727 60.3767 53.5692C60.5631 53.4467 60.7495 53.3296 60.9358 53.2018C61.5482 52.7758 62.1659 52.2859 62.8262 51.6948C63.3747 51.1943 63.987 50.5872 64.4397 49.8417C65.5633 49.1654 66.4898 47.9886 66.985 46.6094C67.2406 45.8905 67.3418 45.145 67.4004 44.5806C67.475 43.9629 67.475 43.2973 67.4004 42.5411C67.3472 41.998 67.3046 41.3483 67.4057 40.6774C67.4536 40.3153 67.5601 39.9639 67.6666 39.5858C67.7412 39.3302 67.8157 39.0693 67.869 38.8084C68.0181 38.1321 68.0447 37.4399 68.0607 36.8328C68.066 36.2204 68.0554 35.5655 67.9169 34.8839C68.1459 34.1118 68.295 33.3343 68.4174 32.6155C68.5715 31.7954 68.6035 30.9328 68.4916 30.1394ZM61.9792 50.6458C61.2923 51.0984 60.632 51.5511 60.0249 52.1261C59.6628 52.4722 59.338 52.861 59.0185 53.2337C58.8108 53.4786 58.6031 53.7236 58.3848 53.9579C57.847 54.5383 57.2559 55.0389 56.6222 55.4436L54.6307 56.6896C54.0503 57.0357 53.4486 57.3606 52.8628 57.68L52.5965 57.8238C52.1013 58.106 51.6007 58.3776 51.0949 58.6545C50.2429 59.1178 49.359 59.5917 48.4963 60.1295C47.6283 60.2094 46.7923 60.4064 46.0575 60.5928C45.2854 60.7898 44.4813 60.9868 43.7092 61.2691C43.427 61.3756 43.1501 61.4928 42.8678 61.6099C42.3992 61.8069 41.9146 62.0093 41.4301 62.1477C40.7059 62.3554 39.9338 62.4938 39.0658 62.563C38.1499 62.6322 37.3458 62.7121 36.6216 62.7973C36.0518 62.8612 35.4821 62.9091 34.9123 62.9624L34.2094 63.0263C33.9591 63.0582 33.7089 63.0795 33.4639 63.0955C33.3201 63.1061 33.1764 63.1168 33.0432 63.1274C32.5693 63.1593 32.1539 63.202 31.7759 63.2605C30.9772 63.3776 30.1677 63.5587 29.369 63.809C28.714 63.6652 28.0804 63.6439 27.5265 63.6333C26.9567 63.6333 26.3071 63.6333 25.6681 63.7398C25.4657 63.7717 25.2687 63.8144 25.0664 63.8569C24.6617 63.9421 24.2836 64.022 23.9002 64.0326C23.3251 64.0486 22.7606 63.958 22.2122 63.7717C21.6265 63.5693 21.0886 63.3404 20.5987 63.1274C20.194 62.9464 19.7946 62.7334 19.4112 62.5363L19.0384 62.3393C18.4367 62.0464 17.8616 61.7216 17.2492 61.3808C16.8232 61.1412 16.3866 60.8962 15.9286 60.6566C15.3535 59.8259 14.7518 59.0325 14.2299 58.3509C13.6175 57.5628 13.0105 56.8013 12.2969 56.1144C11.8762 55.7097 11.4183 55.337 10.971 54.9802C10.6515 54.7246 10.3373 54.4743 10.0338 54.2028C9.25099 53.5159 8.56409 52.8609 7.93039 52.2059C7.23279 51.4711 6.61509 50.8108 6.13059 50.1079C5.66729 49.405 5.33189 48.6276 4.95909 47.6691C4.74609 47.1526 4.56509 46.6307 4.36799 46.0769C4.24019 45.7095 4.11239 45.3474 3.97399 44.98C3.61189 44.0002 3.24979 43.1216 2.86109 42.3069C2.85039 41.4549 2.72799 40.6242 2.61609 39.9107C2.48859 39.1493 2.34479 38.3399 2.10519 37.5358C2.01999 37.2589 1.92949 36.9873 1.83359 36.7158C1.66849 36.2419 1.49809 35.752 1.40229 35.2621C1.24259 34.474 1.19459 33.7019 1.25849 32.9777L1.54599 30.6294C1.65779 29.82 1.80159 29.0159 1.92409 28.3184C2.09979 27.2055 2.33409 26.1192 2.57369 24.9637C2.65889 24.559 2.74409 24.149 2.82929 23.739C3.23929 23.3077 3.55879 22.8444 3.84109 22.4291L3.88899 22.3599C4.17119 21.9232 4.46939 21.4706 4.68239 20.9701C4.76759 20.7731 4.83679 20.5707 4.91139 20.3684C5.02849 20.0383 5.14039 19.7294 5.29479 19.4472C5.52909 19.0265 5.84329 18.6165 6.25859 18.1852C6.70589 17.7326 7.07859 17.3172 7.38749 16.9179L7.53659 16.7315C7.82949 16.3641 8.13299 15.986 8.40459 15.576C8.88389 14.8198 9.48559 13.8081 9.89559 12.594C10.3535 12.2852 10.7263 11.9337 11.1363 11.5343L11.2002 11.4701C11.557 11.1027 11.9244 10.7246 12.2226 10.2826C12.3291 10.1229 12.4303 9.95776 12.5261 9.79266C12.7125 9.48386 12.8829 9.19627 13.1065 8.94596C13.426 8.58387 13.8307 8.26436 14.3153 7.99276C14.7946 7.73186 15.2632 7.47086 15.7051 7.19936C16.0033 7.02896 16.3068 6.87986 16.6157 6.73076C16.7701 6.65616 16.9246 6.57636 17.0843 6.49646C17.3559 6.34736 17.6381 6.20886 17.9203 6.06516C18.5859 5.72436 19.2675 5.37296 19.9544 4.93626C19.981 4.92026 20.0023 4.89896 20.0183 4.87766C20.62 4.71796 21.2271 4.56886 21.8341 4.42506C22.8245 4.18546 23.847 3.94046 24.8321 3.63166C25.7853 3.33346 26.7278 2.96606 27.6384 2.61456C28.1975 2.39626 28.7513 2.17786 29.3104 1.97556C29.3423 1.98616 29.369 1.98616 29.4062 1.98616C29.9707 1.95966 30.5032 1.87976 31.0251 1.79986L32.4362 1.59216C32.777 1.55486 33.1125 1.49636 33.4266 1.43776L33.7408 1.37916C34.2733 1.27266 34.8218 1.16616 35.3596 1.18746C35.9667 1.20346 36.6003 1.33656 37.2446 1.58146L39.1296 2.28966C39.4118 2.39616 39.6887 2.50796 39.971 2.61976C40.3118 2.75826 40.6526 2.89666 41.004 3.01916L41.1052 3.05646C42.3086 3.47177 43.5494 3.89776 44.8753 4.16406C45.2108 4.53686 45.5942 4.80836 45.9403 5.03736C46.329 5.27696 46.7444 5.52196 47.213 5.66036C47.4366 5.72426 47.6656 5.76686 47.8893 5.80416C48.1236 5.84676 48.3472 5.88406 48.5496 5.94796C48.917 6.06506 49.3004 6.24616 49.7104 6.50176C50.1311 6.76796 50.5518 6.99166 50.9511 7.15676L51.1268 7.23136C51.4729 7.38576 51.835 7.54016 52.2131 7.66266C52.916 7.87566 53.768 8.12056 54.7425 8.28566C54.9821 8.58916 55.2324 8.85546 55.4773 9.11636L55.7755 9.43586C56.1003 9.77666 56.4624 10.1601 56.8831 10.453C57.0482 10.5648 57.2239 10.6713 57.3943 10.7778C57.6712 10.9429 57.9321 11.1026 58.1558 11.2997C58.4913 11.5873 58.7895 11.9547 59.0717 12.4179C59.3486 12.8971 59.6149 13.3285 59.8864 13.7332C60.0035 13.9089 60.1154 14.09 60.2272 14.271C60.3816 14.5159 60.5307 14.7609 60.7011 15.0005L60.8608 15.2295C61.3667 15.9484 61.8885 16.6939 62.5382 17.4127C62.6607 18.1689 62.8364 18.8717 63.0387 19.6385C63.1399 20.0113 63.2464 20.384 63.3582 20.7461C63.454 21.0975 63.5925 21.4703 63.7789 21.891C63.96 22.2797 64.1783 22.6418 64.3913 22.9986C64.5883 23.3234 64.7694 23.6323 64.9291 23.9571C65.2539 24.6174 65.5255 25.3309 65.7332 26.0764L66.3562 28.2809C66.5319 28.9252 66.681 29.6121 66.8301 30.4269L66.862 30.6452C66.9046 30.9274 66.9525 31.2096 66.9791 31.5078C67.0057 31.6729 67.0057 31.8539 67.0057 32.035L67.027 32.6101C67.059 33.3236 67.1069 34.0904 67.2347 34.8839C66.9738 35.5176 66.814 36.1459 66.6862 36.737V36.7423C66.5531 37.3919 66.4359 38.0363 66.4359 38.7072C66.4359 39.0107 66.4519 39.3143 66.4732 39.6178C66.4998 39.9746 66.5211 40.3154 66.5051 40.6508C66.4785 41.2685 66.3933 41.9181 66.2655 42.5305L65.8555 44.3836C65.7224 44.9747 65.5466 45.5551 65.3709 46.1462C65.078 47.1846 64.6414 48.2016 63.9438 49.437C63.204 49.8577 62.5064 50.2997 61.9792 50.6458Z" fill="#282E81"/>
<g id="NUCLEUS">
<path id="Vector_2" d="M43.0149 56.581C47.2472 56.581 50.6782 53.15 50.6782 48.9177C50.6782 44.6854 47.2472 41.2544 43.0149 41.2544C38.7825 41.2544 35.3516 44.6854 35.3516 48.9177C35.3516 53.15 38.7825 56.581 43.0149 56.581Z" fill="url(#paint1_radial_938_25245)"/>
<path id="Vector_3" d="M43.0144 56.9111C38.6058 56.9111 35.0176 53.3229 35.0176 48.9143C35.0176 44.5057 38.6058 40.9175 43.0144 40.9175C47.423 40.9175 51.0112 44.5057 51.0112 48.9143C51.0112 53.3262 47.4229 56.9111 43.0144 56.9111ZM43.0144 41.5877C38.9726 41.5877 35.6846 44.8758 35.6846 48.9176C35.6846 52.9594 38.9727 56.2475 43.0144 56.2475C47.0561 56.2475 50.3442 52.9594 50.3442 48.9176C50.3442 44.8758 47.0561 41.5877 43.0144 41.5877Z" fill="#BB8091"/>
</g>
</g>
<defs>
<radialGradient id="paint0_radial_938_25245" cx="0" cy="0" r="1" gradientUnits="userSpaceOnUse" gradientTransform="translate(23.2751 24.8766) scale(32.4515 44.9713)">
<stop offset="0.0005" stop-color="#FCF2D4"/>
<stop offset="0.0707" stop-color="#E4E1CE"/>
<stop offset="0.199" stop-color="#BFC5C5"/>
<stop offset="0.3274" stop-color="#A2B0BE"/>
<stop offset="0.4544" stop-color="#8EA0B9"/>
<stop offset="0.5794" stop-color="#8197B6"/>
<stop offset="0.7" stop-color="#7D94B5"/>
</radialGradient>
<radialGradient id="paint1_radial_938_25245" cx="0" cy="0" r="1" gradientUnits="userSpaceOnUse" gradientTransform="translate(40.5127 47.0711) scale(7.583 10.5085)">
<stop offset="0.0005" stop-color="#F7D2DB"/>
<stop offset="0.049" stop-color="#EBC1CB"/>
<stop offset="0.1593" stop-color="#D4A2AC"/>
<stop offset="0.2787" stop-color="#C08793"/>
<stop offset="0.4083" stop-color="#B17480"/>
<stop offset="0.5534" stop-color="#A86573"/>
<stop offset="0.7263" stop-color="#A25D6B"/>
<stop offset="1" stop-color="#A05B68"/>
</radialGradient>
</defs>
</svg>
