<svg width="153" height="163" viewBox="0 0 153 163" fill="none" xmlns="http://www.w3.org/2000/svg">
<g id="R-ICO-013441">
<g id="TLR">
<g id="LRR">
<path id="Vector" d="M43.0172 98.465C46.0218 98.465 48.4575 93.0524 48.4575 86.3755C48.4575 79.6987 46.0218 74.286 43.0172 74.286C40.0126 74.286 37.5769 79.6987 37.5769 86.3755C37.5769 93.0524 40.0126 98.465 43.0172 98.465Z" fill="url(#paint0_radial_938_22969)"/>
<path id="Vector_2" d="M54.2402 97.1463C51.3169 97.8405 47.6965 93.1372 46.1537 86.641C44.6109 80.1448 45.7301 74.3159 48.6533 73.6216C51.5766 72.9273 55.197 77.6307 56.7398 84.1269C58.2826 90.6231 57.1635 96.4521 54.2402 97.1463Z" fill="url(#paint1_radial_938_22969)"/>
<path id="Vector_3" d="M64.5099 93.4956C61.8009 94.7952 57.2637 90.9687 54.3757 84.9487C51.4877 78.9287 51.3426 72.995 54.0516 71.6954C56.7606 70.3958 61.2978 74.2225 64.1858 80.2425C67.0738 86.2625 67.2188 92.196 64.5099 93.4956Z" fill="url(#paint2_radial_938_22969)"/>
<path id="Vector_4" d="M73.5933 87.9947C71.1812 89.7862 65.9986 86.8931 62.0176 81.5329C58.0366 76.1727 56.7648 70.3751 59.1768 68.5837C61.5888 66.7923 66.7715 69.6853 70.7525 75.0455C74.7335 80.4057 76.0054 86.2033 73.5933 87.9947Z" fill="url(#paint3_radial_938_22969)"/>
<path id="Vector_5" d="M81.3932 81.068C79.3245 83.247 73.7221 81.2867 68.8799 76.6896C64.0377 72.0925 61.7894 66.5994 63.8581 64.4204C65.9268 62.2414 71.5292 64.2017 76.3714 68.7988C81.2135 73.3959 83.4619 78.889 81.3932 81.068Z" fill="url(#paint4_radial_938_22969)"/>
<path id="Vector_6" d="M87.9447 72.9213C86.2579 75.4077 80.4113 74.3848 74.8859 70.6365C69.3605 66.8882 66.2486 61.8339 67.9354 59.3475C69.6221 56.8611 75.4688 57.884 80.9942 61.6323C86.5196 65.3806 89.6314 70.4348 87.9447 72.9213Z" fill="url(#paint5_radial_938_22969)"/>
<path id="Vector_7" d="M93.0763 63.8636C91.8123 66.5894 85.8773 66.5221 79.82 63.7132C73.7627 60.9044 69.877 56.4177 71.1409 53.6919C72.4048 50.9661 78.3399 51.0334 84.3972 53.8423C90.4546 56.6512 94.3403 61.1379 93.0763 63.8636Z" fill="url(#paint6_radial_938_22969)"/>
<path id="Vector_8" d="M96.6198 54.1719C95.8348 57.0721 89.9737 58.0089 83.5288 56.2644C77.0839 54.5198 72.4957 50.7545 73.2807 47.8543C74.0657 44.9541 79.9268 44.0173 86.3717 45.7618C92.8166 47.5063 97.4048 51.2717 96.6198 54.1719Z" fill="url(#paint7_radial_938_22969)"/>
<path id="Vector_9" d="M98.4199 43.4208C98.2318 46.4195 92.6774 48.5116 86.0136 48.0936C79.3499 47.6756 74.1002 44.9059 74.2883 41.9072C74.4764 38.9085 80.031 36.8164 86.6948 37.2344C93.3586 37.6524 98.6079 40.4221 98.4199 43.4208Z" fill="url(#paint8_radial_938_22969)"/>
<path id="Vector_10" d="M97.7763 32.097C98.3223 35.0515 93.4425 38.4304 86.8768 39.6438C80.3111 40.8572 74.5459 39.4458 73.9999 36.4912C73.4539 33.5367 78.3337 30.1578 84.8994 28.9444C91.4651 27.731 97.2302 29.1425 97.7763 32.097Z" fill="url(#paint9_radial_938_22969)"/>
<path id="Vector_11" d="M94.0557 21.0573C95.4235 23.7325 91.7131 28.3652 85.7682 31.4048C79.8233 34.4444 73.8953 34.7399 72.5275 32.0647C71.1597 29.3895 74.8701 24.7567 80.815 21.7171C86.7599 18.6775 92.6879 18.3821 94.0557 21.0573Z" fill="url(#paint10_radial_938_22969)"/>
<path id="Vector_12" d="M86.8756 11.2575C89.0133 13.3689 86.9426 18.9314 82.2506 23.6818C77.5586 28.4322 72.0221 30.5714 69.8845 28.46C67.7468 26.3486 69.8175 20.7861 74.5095 16.0358C79.2014 11.2854 84.7379 9.14614 86.8756 11.2575Z" fill="url(#paint11_radial_938_22969)"/>
<path id="Vector_13" d="M77.1615 4.31215C79.849 5.65555 79.6077 11.586 76.6224 17.5583C73.6371 23.5306 69.0384 27.2831 66.3509 25.9397C63.6634 24.5963 63.9047 18.6658 66.89 12.6935C69.8752 6.72125 74.4739 2.96875 77.1615 4.31215Z" fill="url(#paint12_radial_938_22969)"/>
<path id="Vector_14" d="M66.2523 0.692807C69.2067 1.23961 70.6167 7.00511 69.4017 13.5705C68.1867 20.1359 64.8066 25.0149 61.8522 24.4681C58.8978 23.9213 57.4878 18.1558 58.7028 11.5904C59.9178 5.02501 63.2978 0.146107 66.2523 0.692807Z" fill="url(#paint13_radial_938_22969)"/>
<path id="Vector_15" d="M55.0176 0.00367525C58.0178 -0.159225 60.7434 5.11338 61.1055 11.7804C61.4676 18.4474 59.329 23.9842 56.3288 24.1471C53.3286 24.31 50.603 19.0374 50.2409 12.3704C49.8789 5.70338 52.0175 0.166575 55.0176 0.00367525Z" fill="url(#paint14_radial_938_22969)"/>
<path id="Vector_16" d="M43.9354 1.77529C46.8403 1.00759 50.5781 5.61829 52.284 12.0735C53.9899 18.5287 53.0181 24.3841 50.1132 25.1517C47.2083 25.9194 43.4705 21.3087 41.7646 14.8535C40.0586 8.39829 41.0305 2.54299 43.9354 1.77529Z" fill="url(#paint15_radial_938_22969)"/>
<path id="Vector_17" d="M34.2334 5.25335C36.9667 4.00565 41.4301 7.91815 44.2027 13.992C46.9753 20.066 47.0072 26.0013 44.2739 27.249C41.5406 28.4967 37.0772 24.5842 34.3046 18.5103C31.532 12.4364 31.5001 6.50105 34.2334 5.25335Z" fill="url(#paint16_radial_938_22969)"/>
<path id="Vector_18" d="M25.1507 10.3471C27.6409 8.66602 32.6882 11.7893 36.424 17.3231C40.1598 22.857 41.1696 28.7059 38.6793 30.387C36.1891 32.0681 31.1418 28.9448 27.406 23.411C23.6702 17.8772 22.6605 12.0282 25.1507 10.3471Z" fill="url(#paint17_radial_938_22969)"/>
<path id="Vector_19" d="M17.0326 16.8802C19.2049 14.8045 24.7052 17.0352 29.3179 21.8627C33.9306 26.6902 35.9088 32.2862 33.7364 34.3619C31.5641 36.4376 26.0638 34.2069 21.4511 29.3794C16.8384 24.5519 14.8603 18.9559 17.0326 16.8802Z" fill="url(#paint18_radial_938_22969)"/>
<path id="Vector_20" d="M10.2095 24.6523C11.9815 22.2259 17.7891 23.451 23.1812 27.3888C28.5733 31.3266 31.5079 36.4858 29.7359 38.9122C27.9639 41.3386 22.1563 40.1135 16.7642 36.1757C11.3721 32.2379 8.43759 27.0787 10.2095 24.6523Z" fill="url(#paint19_radial_938_22969)"/>
<path id="Vector_21" d="M4.81401 33.7683C6.08261 31.0447 12.0175 31.1221 18.07 33.9412C24.1225 36.7603 28.0006 41.2536 26.732 43.9772C25.4634 46.7008 19.5285 46.6234 13.476 43.8043C7.42351 40.9852 3.54541 36.4919 4.81401 33.7683Z" fill="url(#paint20_radial_938_22969)"/>
<path id="Vector_22" d="M1.2663 44.1157C1.932 41.1858 7.7498 40.0098 14.2607 41.4892C20.7716 42.9685 25.5101 46.5429 24.8444 49.4728C24.1787 52.4027 18.3609 53.5787 11.85 52.0993C5.3391 50.62 0.600596 47.0456 1.2663 44.1157Z" fill="url(#paint21_radial_938_22969)"/>
<path id="Vector_23" d="M12.0895 60.8888C18.7663 60.8888 24.179 58.4531 24.179 55.4485C24.179 52.4439 18.7663 50.0082 12.0895 50.0082C5.41265 50.0082 0 52.4439 0 55.4485C0 58.4531 5.41265 60.8888 12.0895 60.8888Z" fill="url(#paint22_radial_938_22969)"/>
</g>
<path id="Cap" d="M12.0895 67.6056C17.2659 67.6056 21.4622 64.7081 21.4622 61.134C21.4622 57.5598 17.2659 54.6624 12.0895 54.6624C6.9131 54.6624 2.7168 57.5598 2.7168 61.134C2.7168 64.7081 6.9131 67.6056 12.0895 67.6056Z" fill="url(#paint23_radial_938_22969)"/>
<path id="Cap_2" d="M43.0172 109.712C48.1936 109.712 52.3899 106.815 52.3899 103.241C52.3899 99.6664 48.1936 96.7689 43.0172 96.7689C37.8408 96.7689 33.6445 99.6664 33.6445 103.241C33.6445 106.815 37.8408 109.712 43.0172 109.712Z" fill="url(#paint24_radial_938_22969)"/>
<path id="TIR" d="M43.0172 162.018C48.1936 162.018 52.3899 150.564 52.3899 136.434C52.3899 122.304 48.1936 110.849 43.0172 110.849C37.8408 110.849 33.6445 122.304 33.6445 136.434C33.6445 150.564 37.8408 162.018 43.0172 162.018Z" fill="url(#paint25_radial_938_22969)"/>
<path id="TM" d="M43.0172 114.409C45.2972 114.409 47.1456 112.561 47.1456 110.281C47.1456 108.001 45.2972 106.152 43.0172 106.152C40.7371 106.152 38.8888 108.001 38.8888 110.281C38.8888 112.561 40.7371 114.409 43.0172 114.409Z" fill="url(#paint26_radial_938_22969)"/>
</g>
<g id="TLR_2">
<g id="LRR_2">
<path id="Vector_24" d="M109.903 98.465C112.907 98.465 115.343 93.0524 115.343 86.3755C115.343 79.6987 112.907 74.286 109.903 74.286C106.898 74.286 104.463 79.6987 104.463 86.3755C104.463 93.0524 106.898 98.465 109.903 98.465Z" fill="url(#paint27_radial_938_22969)"/>
<path id="Vector_25" d="M98.6798 97.1463C101.603 97.8405 105.223 93.1372 106.766 86.641C108.309 80.1448 107.19 74.3159 104.267 73.6216C101.343 72.9273 97.723 77.6307 96.1802 84.1269C94.6374 90.6231 95.7565 96.4521 98.6798 97.1463Z" fill="url(#paint28_radial_938_22969)"/>
<path id="Vector_26" d="M88.4101 93.4955C91.1191 94.7951 95.6563 90.9685 98.5443 84.9485C101.432 78.9285 101.577 72.9949 98.8684 71.6953C96.1594 70.3957 91.6222 74.2223 88.7342 80.2423C85.8462 86.2622 85.7011 92.1959 88.4101 93.4955Z" fill="url(#paint29_radial_938_22969)"/>
<path id="Vector_27" d="M79.3267 87.9947C81.7388 89.7862 86.9214 86.8931 90.9024 81.5329C94.8834 76.1727 96.1553 70.3751 93.7432 68.5837C91.3311 66.7922 86.1485 69.6853 82.1675 75.0455C78.1865 80.4057 76.9146 86.2033 79.3267 87.9947Z" fill="url(#paint30_radial_938_22969)"/>
<path id="Vector_28" d="M71.5269 81.068C73.5956 83.247 79.198 81.2867 84.0402 76.6896C88.8824 72.0925 91.1307 66.5994 89.062 64.4204C86.9933 62.2414 81.3909 64.2017 76.5487 68.7988C71.7066 73.3959 69.4582 78.889 71.5269 81.068Z" fill="url(#paint31_radial_938_22969)"/>
<path id="Vector_29" d="M64.9753 72.9213C66.662 75.4077 72.5087 74.3848 78.0341 70.6365C83.5595 66.8882 86.6714 61.8339 84.9846 59.3475C83.2978 56.8611 77.4512 57.884 71.9258 61.6323C66.4004 65.3806 63.2885 70.4348 64.9753 72.9213Z" fill="url(#paint32_radial_938_22969)"/>
<path id="Vector_30" d="M59.8435 63.8636C61.1075 66.5894 67.0425 66.5221 73.0998 63.7132C79.1571 60.9044 83.0428 56.4177 81.7789 53.6919C80.515 50.9661 74.5799 51.0334 68.5226 53.8423C62.4653 56.6512 58.5796 61.1379 59.8435 63.8636Z" fill="url(#paint33_radial_938_22969)"/>
<path id="Vector_31" d="M56.3002 54.1719C57.0853 57.0721 62.9463 58.0089 69.3912 56.2644C75.8361 54.5198 80.4243 50.7545 79.6393 47.8543C78.8543 44.9541 72.9932 44.0173 66.5483 45.7618C60.1033 47.5063 55.5151 51.2717 56.3002 54.1719Z" fill="url(#paint34_radial_938_22969)"/>
<path id="Vector_32" d="M54.5 43.4208C54.6881 46.4195 60.2426 48.5116 66.9064 48.0936C73.5701 47.6756 78.8197 44.9059 78.6316 41.9072C78.4435 38.9085 72.889 36.8164 66.2252 37.2344C59.5614 37.6524 54.3119 40.4221 54.5 43.4208Z" fill="url(#paint35_radial_938_22969)"/>
<path id="Vector_33" d="M55.1436 32.097C54.5976 35.0515 59.4774 38.4304 66.0431 39.6438C72.6088 40.8572 78.3739 39.4458 78.92 36.4912C79.466 33.5367 74.5862 30.1578 68.0205 28.9444C61.4548 27.731 55.6897 29.1425 55.1436 32.097Z" fill="url(#paint36_radial_938_22969)"/>
<path id="Vector_34" d="M58.8643 21.0573C57.4965 23.7325 61.2069 28.3652 67.1518 31.4048C73.0967 34.4444 79.0247 34.7399 80.3925 32.0647C81.7603 29.3895 78.0499 24.7567 72.1051 21.7171C66.1603 18.6775 60.2322 18.3821 58.8643 21.0573Z" fill="url(#paint37_radial_938_22969)"/>
<path id="Vector_35" d="M66.0444 11.2575C63.9068 13.3689 65.9774 18.9314 70.6694 23.6818C75.3614 28.4321 80.8979 30.5714 83.0355 28.46C85.1731 26.3486 83.1025 20.7861 78.4105 16.0358C73.7185 11.2854 68.182 9.14614 66.0444 11.2575Z" fill="url(#paint38_radial_938_22969)"/>
<path id="Vector_36" d="M75.7586 4.31203C73.0711 5.65543 73.3124 11.5859 76.2977 17.5582C79.283 23.5305 83.8817 27.283 86.5692 25.9396C89.2567 24.5962 89.0154 18.6657 86.0301 12.6934C83.0448 6.72113 78.4461 2.96863 75.7586 4.31203Z" fill="url(#paint39_radial_938_22969)"/>
<path id="Vector_37" d="M86.6677 0.692807C83.7133 1.23961 82.3033 7.00511 83.5183 13.5705C84.7333 20.1359 88.1134 25.0149 91.0678 24.4681C94.0222 23.9213 95.4322 18.1558 94.2172 11.5904C93.0022 5.02511 89.6221 0.146107 86.6677 0.692807Z" fill="url(#paint40_radial_938_22969)"/>
<path id="Vector_38" d="M97.9024 0.00367525C94.9022 -0.159225 92.1766 5.11338 91.8145 11.7804C91.4524 18.4474 93.591 23.9842 96.5912 24.1471C99.5914 24.31 102.317 19.0374 102.679 12.3704C103.041 5.70338 100.903 0.166575 97.9024 0.00367525Z" fill="url(#paint41_radial_938_22969)"/>
<path id="Vector_39" d="M108.985 1.77529C106.08 1.00759 102.342 5.61829 100.636 12.0735C98.9302 18.5287 99.902 24.3841 102.807 25.1517C105.712 25.9194 109.45 21.3087 111.155 14.8535C112.861 8.39829 111.89 2.54299 108.985 1.77529Z" fill="url(#paint42_radial_938_22969)"/>
<path id="Vector_40" d="M118.687 5.25323C115.953 4.00553 111.49 7.91803 108.717 13.9919C105.945 20.0658 105.913 26.0012 108.646 27.2489C111.379 28.4966 115.843 24.5841 118.615 18.5102C121.388 12.4363 121.42 6.50093 118.687 5.25323Z" fill="url(#paint43_radial_938_22969)"/>
<path id="Vector_41" d="M127.769 10.3471C125.279 8.66602 120.232 11.7893 116.496 17.3231C112.76 22.8569 111.75 28.7059 114.241 30.387C116.731 32.0681 121.778 28.9448 125.514 23.411C129.25 17.8771 130.259 12.0282 127.769 10.3471Z" fill="url(#paint44_radial_938_22969)"/>
<path id="Vector_42" d="M135.887 16.8802C133.715 14.8045 128.215 17.0352 123.602 21.8627C118.989 26.6901 117.011 32.2862 119.183 34.3619C121.356 36.4376 126.856 34.2069 131.469 29.3794C136.081 24.5519 138.06 18.9559 135.887 16.8802Z" fill="url(#paint45_radial_938_22969)"/>
<path id="Vector_43" d="M142.71 24.6523C140.938 22.2259 135.131 23.451 129.739 27.3888C124.347 31.3266 121.412 36.4858 123.184 38.9122C124.956 41.3386 130.764 40.1135 136.156 36.1757C141.548 32.2379 144.482 27.0787 142.71 24.6523Z" fill="url(#paint46_radial_938_22969)"/>
<path id="Vector_44" d="M148.106 33.7683C146.837 31.0447 140.903 31.1221 134.85 33.9412C128.798 36.7603 124.919 41.2536 126.188 43.9772C127.457 46.7008 133.392 46.6234 139.444 43.8043C145.496 40.9852 149.375 36.4919 148.106 33.7683Z" fill="url(#paint47_radial_938_22969)"/>
<path id="Vector_45" d="M151.654 44.1155C150.988 41.1856 145.17 40.0096 138.659 41.489C132.148 42.9683 127.41 46.5427 128.076 49.4726C128.741 52.4025 134.559 53.5785 141.07 52.0991C147.581 50.6198 152.319 47.0454 151.654 44.1155Z" fill="url(#paint48_radial_938_22969)"/>
<path id="Vector_46" d="M140.83 60.8888C147.507 60.8888 152.92 58.4531 152.92 55.4485C152.92 52.4439 147.507 50.0082 140.83 50.0082C134.154 50.0082 128.741 52.4439 128.741 55.4485C128.741 58.4531 134.154 60.8888 140.83 60.8888Z" fill="url(#paint49_radial_938_22969)"/>
</g>
<path id="Cap_3" d="M140.83 67.6054C146.007 67.6054 150.203 64.708 150.203 61.1338C150.203 57.5597 146.007 54.6622 140.83 54.6622C135.654 54.6622 131.458 57.5597 131.458 61.1338C131.458 64.708 135.654 67.6054 140.83 67.6054Z" fill="url(#paint50_radial_938_22969)"/>
<path id="Cap_4" d="M109.903 109.712C115.079 109.712 119.276 106.815 119.276 103.241C119.276 99.6664 115.079 96.7689 109.903 96.7689C104.726 96.7689 100.53 99.6664 100.53 103.241C100.53 106.815 104.726 109.712 109.903 109.712Z" fill="url(#paint51_radial_938_22969)"/>
<path id="TIR_2" d="M109.903 162.018C115.079 162.018 119.276 150.564 119.276 136.434C119.276 122.304 115.079 110.849 109.903 110.849C104.726 110.849 100.53 122.304 100.53 136.434C100.53 150.564 104.726 162.018 109.903 162.018Z" fill="url(#paint52_radial_938_22969)"/>
<path id="TM_2" d="M109.903 114.409C112.183 114.409 114.031 112.561 114.031 110.281C114.031 108.001 112.183 106.152 109.903 106.152C107.623 106.152 105.774 108.001 105.774 110.281C105.774 112.561 107.623 114.409 109.903 114.409Z" fill="url(#paint53_radial_938_22969)"/>
</g>
</g>
<defs>
<radialGradient id="paint0_radial_938_22969" cx="0" cy="0" r="1" gradientUnits="userSpaceOnUse" gradientTransform="translate(43.0206 86.3778) rotate(90) scale(12.0065 5.47686)">
<stop stop-color="#00C28C"/>
<stop offset="1" stop-color="#003F2E"/>
</radialGradient>
<radialGradient id="paint1_radial_938_22969" cx="0" cy="0" r="1" gradientTransform="matrix(2.77396 11.6821 -5.32929 1.26583 51.4432 85.3879)" gradientUnits="userSpaceOnUse">
<stop stop-color="#00C28C"/>
<stop offset="1" stop-color="#003F2E"/>
</radialGradient>
<radialGradient id="paint2_radial_938_22969" cx="0" cy="0" r="1" gradientTransform="matrix(5.19282 10.8257 -4.93798 2.36873 59.2895 82.5901)" gradientUnits="userSpaceOnUse">
<stop stop-color="#00C28C"/>
<stop offset="1" stop-color="#003F2E"/>
</radialGradient>
<radialGradient id="paint3_radial_938_22969" cx="0" cy="0" r="1" gradientTransform="matrix(7.15915 9.6393 -4.3977 3.26555 66.3725 78.2868)" gradientUnits="userSpaceOnUse">
<stop stop-color="#00C28C"/>
<stop offset="1" stop-color="#003F2E"/>
</radialGradient>
<radialGradient id="paint4_radial_938_22969" cx="0" cy="0" r="1" gradientTransform="matrix(8.70768 8.26763 -3.77105 3.97158 72.6259 72.7277)" gradientUnits="userSpaceOnUse">
<stop stop-color="#00C28C"/>
<stop offset="1" stop-color="#003F2E"/>
</radialGradient>
<radialGradient id="paint5_radial_938_22969" cx="0" cy="0" r="1" gradientTransform="matrix(9.93599 6.74004 -3.07479 4.53282 77.9444 66.1451)" gradientUnits="userSpaceOnUse">
<stop stop-color="#00C28C"/>
<stop offset="1" stop-color="#003F2E"/>
</radialGradient>
<radialGradient id="paint6_radial_938_22969" cx="0" cy="0" r="1" gradientTransform="matrix(10.8928 5.05089 -2.30472 4.96873 82.0971 58.7767)" gradientUnits="userSpaceOnUse">
<stop stop-color="#00C28C"/>
<stop offset="1" stop-color="#003F2E"/>
</radialGradient>
<radialGradient id="paint7_radial_938_22969" cx="0" cy="0" r="1" gradientTransform="matrix(11.5904 3.13748 -1.43157 5.28623 84.9316 50.9961)" gradientUnits="userSpaceOnUse">
<stop stop-color="#00C28C"/>
<stop offset="1" stop-color="#003F2E"/>
</radialGradient>
<radialGradient id="paint8_radial_938_22969" cx="0" cy="0" r="1" gradientTransform="matrix(11.9832 0.751999 -0.342577 5.46592 86.3645 42.6479)" gradientUnits="userSpaceOnUse">
<stop stop-color="#00C28C"/>
<stop offset="1" stop-color="#003F2E"/>
</radialGradient>
<radialGradient id="paint9_radial_938_22969" cx="0" cy="0" r="1" gradientTransform="matrix(11.8064 -2.18219 0.995702 5.38654 85.9058 34.3113)" gradientUnits="userSpaceOnUse">
<stop stop-color="#00C28C"/>
<stop offset="1" stop-color="#003F2E"/>
</radialGradient>
<radialGradient id="paint10_radial_938_22969" cx="0" cy="0" r="1" gradientTransform="matrix(10.691 -5.46596 2.49275 4.87689 83.2682 26.5645)" gradientUnits="userSpaceOnUse">
<stop stop-color="#00C28C"/>
<stop offset="1" stop-color="#003F2E"/>
</radialGradient>
<radialGradient id="paint11_radial_938_22969" cx="0" cy="0" r="1" gradientTransform="matrix(8.43776 -8.54221 3.8965 3.84915 78.3687 19.8603)" gradientUnits="userSpaceOnUse">
<stop stop-color="#00C28C"/>
<stop offset="1" stop-color="#003F2E"/>
</radialGradient>
<radialGradient id="paint12_radial_938_22969" cx="0" cy="0" r="1" gradientTransform="matrix(5.36851 -10.7398 4.8992 2.44821 71.7554 15.1031)" gradientUnits="userSpaceOnUse">
<stop stop-color="#00C28C"/>
<stop offset="1" stop-color="#003F2E"/>
</radialGradient>
<radialGradient id="paint13_radial_938_22969" cx="0" cy="0" r="1" gradientTransform="matrix(2.18501 -11.8065 5.38522 0.997109 64.0401 12.5935)" gradientUnits="userSpaceOnUse">
<stop stop-color="#00C28C"/>
<stop offset="1" stop-color="#003F2E"/>
</radialGradient>
<radialGradient id="paint14_radial_938_22969" cx="0" cy="0" r="1" gradientTransform="matrix(-0.651746 -11.9891 5.46882 -0.296628 55.6788 12.0818)" gradientUnits="userSpaceOnUse">
<stop stop-color="#00C28C"/>
<stop offset="1" stop-color="#003F2E"/>
</radialGradient>
<radialGradient id="paint15_radial_938_22969" cx="0" cy="0" r="1" gradientTransform="matrix(-3.06794 -11.6089 5.29474 -1.39958 47.008 13.4695)" gradientUnits="userSpaceOnUse">
<stop stop-color="#00C28C"/>
<stop offset="1" stop-color="#003F2E"/>
</radialGradient>
<radialGradient id="paint16_radial_938_22969" cx="0" cy="0" r="1" gradientTransform="matrix(-4.98562 -10.9224 4.98283 -2.27416 39.2535 16.2501)" gradientUnits="userSpaceOnUse">
<stop stop-color="#00C28C"/>
<stop offset="1" stop-color="#003F2E"/>
</radialGradient>
<radialGradient id="paint17_radial_938_22969" cx="0" cy="0" r="1" gradientTransform="matrix(-6.71805 -9.95173 4.53997 -3.06518 31.9288 20.3498)" gradientUnits="userSpaceOnUse">
<stop stop-color="#00C28C"/>
<stop offset="1" stop-color="#003F2E"/>
</radialGradient>
<radialGradient id="paint18_radial_938_22969" cx="0" cy="0" r="1" gradientTransform="matrix(-8.29456 -8.68172 3.96067 -3.7838 25.3994 25.6362)" gradientUnits="userSpaceOnUse">
<stop stop-color="#00C28C"/>
<stop offset="1" stop-color="#003F2E"/>
</radialGradient>
<radialGradient id="paint19_radial_938_22969" cx="0" cy="0" r="1" gradientTransform="matrix(-9.69695 -7.08157 3.22953 -4.42302 19.96 31.7968)" gradientUnits="userSpaceOnUse">
<stop stop-color="#00C28C"/>
<stop offset="1" stop-color="#003F2E"/>
</radialGradient>
<radialGradient id="paint20_radial_938_22969" cx="0" cy="0" r="1" gradientTransform="matrix(-10.8836 -5.06925 2.31319 -4.9648 15.7777 38.8691)" gradientUnits="userSpaceOnUse">
<stop stop-color="#00C28C"/>
<stop offset="1" stop-color="#003F2E"/>
</radialGradient>
<radialGradient id="paint21_radial_938_22969" cx="0" cy="0" r="1" gradientTransform="matrix(-11.708 -2.65996 1.213 -5.34081 13.0203 46.7929)" gradientUnits="userSpaceOnUse">
<stop stop-color="#00C28C"/>
<stop offset="1" stop-color="#003F2E"/>
</radialGradient>
<radialGradient id="paint22_radial_938_22969" cx="0" cy="0" r="1" gradientUnits="userSpaceOnUse" gradientTransform="translate(12.106 55.44) rotate(180) scale(12.0075 5.47733)">
<stop stop-color="#00C28C"/>
<stop offset="1" stop-color="#003F2E"/>
</radialGradient>
<radialGradient id="paint23_radial_938_22969" cx="0" cy="0" r="1" gradientUnits="userSpaceOnUse" gradientTransform="translate(12.0895 61.134) scale(8.0538)">
<stop stop-color="#00C28C"/>
<stop offset="1" stop-color="#003F2E"/>
</radialGradient>
<radialGradient id="paint24_radial_938_22969" cx="0" cy="0" r="1" gradientUnits="userSpaceOnUse" gradientTransform="translate(43.0172 103.241) scale(8.0538)">
<stop stop-color="#00C28C"/>
<stop offset="1" stop-color="#003F2E"/>
</radialGradient>
<radialGradient id="paint25_radial_938_22969" cx="0" cy="0" r="1" gradientUnits="userSpaceOnUse" gradientTransform="translate(43.0172 136.441) scale(8.0538 31.8399)">
<stop stop-color="#00C28C"/>
<stop offset="1" stop-color="#003F2E"/>
</radialGradient>
<radialGradient id="paint26_radial_938_22969" cx="0" cy="0" r="1" gradientUnits="userSpaceOnUse" gradientTransform="translate(43.0172 110.281) scale(4.1284 4.1284)">
<stop stop-color="#00C28C"/>
<stop offset="1" stop-color="#003F2E"/>
</radialGradient>
<radialGradient id="paint27_radial_938_22969" cx="0" cy="0" r="1" gradientUnits="userSpaceOnUse" gradientTransform="translate(109.89 86.3777) rotate(90) scale(12.0066 5.4769)">
<stop stop-color="#00C28C"/>
<stop offset="1" stop-color="#003F2E"/>
</radialGradient>
<radialGradient id="paint28_radial_938_22969" cx="0" cy="0" r="1" gradientTransform="matrix(-2.77396 11.6821 5.32929 1.26583 101.493 85.3985)" gradientUnits="userSpaceOnUse">
<stop stop-color="#00C28C"/>
<stop offset="1" stop-color="#003F2E"/>
</radialGradient>
<radialGradient id="paint29_radial_938_22969" cx="0" cy="0" r="1" gradientTransform="matrix(-5.19286 10.8258 4.93802 2.36874 93.6242 82.5791)" gradientUnits="userSpaceOnUse">
<stop stop-color="#00C28C"/>
<stop offset="1" stop-color="#003F2E"/>
</radialGradient>
<radialGradient id="paint30_radial_938_22969" cx="0" cy="0" r="1" gradientTransform="matrix(-7.15915 9.6393 4.3977 3.26555 86.5693 78.2831)" gradientUnits="userSpaceOnUse">
<stop stop-color="#00C28C"/>
<stop offset="1" stop-color="#003F2E"/>
</radialGradient>
<radialGradient id="paint31_radial_938_22969" cx="0" cy="0" r="1" gradientTransform="matrix(-8.70774 8.26769 3.77108 3.97161 80.2939 72.7172)" gradientUnits="userSpaceOnUse">
<stop stop-color="#00C28C"/>
<stop offset="1" stop-color="#003F2E"/>
</radialGradient>
<radialGradient id="paint32_radial_938_22969" cx="0" cy="0" r="1" gradientTransform="matrix(-9.93598 6.74004 3.07479 4.53282 74.98 66.1459)" gradientUnits="userSpaceOnUse">
<stop stop-color="#00C28C"/>
<stop offset="1" stop-color="#003F2E"/>
</radialGradient>
<radialGradient id="paint33_radial_938_22969" cx="0" cy="0" r="1" gradientTransform="matrix(-10.8928 5.05089 2.30472 4.96873 70.8417 58.7689)" gradientUnits="userSpaceOnUse">
<stop stop-color="#00C28C"/>
<stop offset="1" stop-color="#003F2E"/>
</radialGradient>
<radialGradient id="paint34_radial_938_22969" cx="0" cy="0" r="1" gradientTransform="matrix(-11.5904 3.13748 1.43157 5.28623 67.992 50.9835)" gradientUnits="userSpaceOnUse">
<stop stop-color="#00C28C"/>
<stop offset="1" stop-color="#003F2E"/>
</radialGradient>
<radialGradient id="paint35_radial_938_22969" cx="0" cy="0" r="1" gradientTransform="matrix(-11.9832 0.751999 0.342577 5.46592 66.5517 42.6423)" gradientUnits="userSpaceOnUse">
<stop stop-color="#00C28C"/>
<stop offset="1" stop-color="#003F2E"/>
</radialGradient>
<radialGradient id="paint36_radial_938_22969" cx="0" cy="0" r="1" gradientTransform="matrix(-11.8064 -2.18219 -0.995702 5.38654 67.0198 34.3249)" gradientUnits="userSpaceOnUse">
<stop stop-color="#00C28C"/>
<stop offset="1" stop-color="#003F2E"/>
</radialGradient>
<radialGradient id="paint37_radial_938_22969" cx="0" cy="0" r="1" gradientTransform="matrix(-10.691 -5.46596 -2.49275 4.87689 69.6582 26.5731)" gradientUnits="userSpaceOnUse">
<stop stop-color="#00C28C"/>
<stop offset="1" stop-color="#003F2E"/>
</radialGradient>
<radialGradient id="paint38_radial_938_22969" cx="0" cy="0" r="1" gradientTransform="matrix(-8.43776 -8.54221 -3.89649 3.84915 74.5511 19.8737)" gradientUnits="userSpaceOnUse">
<stop stop-color="#00C28C"/>
<stop offset="1" stop-color="#003F2E"/>
</radialGradient>
<radialGradient id="paint39_radial_938_22969" cx="0" cy="0" r="1" gradientTransform="matrix(-5.36851 -10.7398 -4.8992 2.44821 81.1619 15.0965)" gradientUnits="userSpaceOnUse">
<stop stop-color="#00C28C"/>
<stop offset="1" stop-color="#003F2E"/>
</radialGradient>
<radialGradient id="paint40_radial_938_22969" cx="0" cy="0" r="1" gradientTransform="matrix(-2.185 -11.8065 -5.38522 0.997109 88.8877 12.597)" gradientUnits="userSpaceOnUse">
<stop stop-color="#00C28C"/>
<stop offset="1" stop-color="#003F2E"/>
</radialGradient>
<radialGradient id="paint41_radial_938_22969" cx="0" cy="0" r="1" gradientTransform="matrix(0.651746 -11.9891 -5.46882 -0.296628 97.2649 12.0958)" gradientUnits="userSpaceOnUse">
<stop stop-color="#00C28C"/>
<stop offset="1" stop-color="#003F2E"/>
</radialGradient>
<radialGradient id="paint42_radial_938_22969" cx="0" cy="0" r="1" gradientTransform="matrix(3.06794 -11.6089 -5.29474 -1.39958 105.922 13.4509)" gradientUnits="userSpaceOnUse">
<stop stop-color="#00C28C"/>
<stop offset="1" stop-color="#003F2E"/>
</radialGradient>
<radialGradient id="paint43_radial_938_22969" cx="0" cy="0" r="1" gradientTransform="matrix(4.98562 -10.9224 -4.98283 -2.27416 113.649 16.2678)" gradientUnits="userSpaceOnUse">
<stop stop-color="#00C28C"/>
<stop offset="1" stop-color="#003F2E"/>
</radialGradient>
<radialGradient id="paint44_radial_938_22969" cx="0" cy="0" r="1" gradientTransform="matrix(6.71805 -9.95173 -4.53997 -3.06518 120.984 20.337)" gradientUnits="userSpaceOnUse">
<stop stop-color="#00C28C"/>
<stop offset="1" stop-color="#003F2E"/>
</radialGradient>
<radialGradient id="paint45_radial_938_22969" cx="0" cy="0" r="1" gradientTransform="matrix(8.29456 -8.68172 -3.96067 -3.7838 127.502 25.6125)" gradientUnits="userSpaceOnUse">
<stop stop-color="#00C28C"/>
<stop offset="1" stop-color="#003F2E"/>
</radialGradient>
<radialGradient id="paint46_radial_938_22969" cx="0" cy="0" r="1" gradientTransform="matrix(9.69696 -7.08157 -3.22953 -4.42302 132.983 31.7834)" gradientUnits="userSpaceOnUse">
<stop stop-color="#00C28C"/>
<stop offset="1" stop-color="#003F2E"/>
</radialGradient>
<radialGradient id="paint47_radial_938_22969" cx="0" cy="0" r="1" gradientTransform="matrix(10.8836 -5.06925 -2.31319 -4.9648 137.108 38.8864)" gradientUnits="userSpaceOnUse">
<stop stop-color="#00C28C"/>
<stop offset="1" stop-color="#003F2E"/>
</radialGradient>
<radialGradient id="paint48_radial_938_22969" cx="0" cy="0" r="1" gradientTransform="matrix(11.708 -2.65996 -1.213 -5.34081 139.875 46.8061)" gradientUnits="userSpaceOnUse">
<stop stop-color="#00C28C"/>
<stop offset="1" stop-color="#003F2E"/>
</radialGradient>
<radialGradient id="paint49_radial_938_22969" cx="0" cy="0" r="1" gradientUnits="userSpaceOnUse" gradientTransform="translate(140.841 55.44) scale(12.0075 5.47733)">
<stop stop-color="#00C28C"/>
<stop offset="1" stop-color="#003F2E"/>
</radialGradient>
<radialGradient id="paint50_radial_938_22969" cx="0" cy="0" r="1" gradientUnits="userSpaceOnUse" gradientTransform="translate(140.83 61.1338) rotate(180) scale(8.0538 8.0538)">
<stop stop-color="#00C28C"/>
<stop offset="1" stop-color="#003F2E"/>
</radialGradient>
<radialGradient id="paint51_radial_938_22969" cx="0" cy="0" r="1" gradientUnits="userSpaceOnUse" gradientTransform="translate(109.903 103.241) rotate(180) scale(8.0538)">
<stop stop-color="#00C28C"/>
<stop offset="1" stop-color="#003F2E"/>
</radialGradient>
<radialGradient id="paint52_radial_938_22969" cx="0" cy="0" r="1" gradientUnits="userSpaceOnUse" gradientTransform="translate(109.903 136.441) rotate(180) scale(8.0538 31.8399)">
<stop stop-color="#00C28C"/>
<stop offset="1" stop-color="#003F2E"/>
</radialGradient>
<radialGradient id="paint53_radial_938_22969" cx="0" cy="0" r="1" gradientUnits="userSpaceOnUse" gradientTransform="translate(109.903 110.281) rotate(180) scale(4.1284 4.1284)">
<stop stop-color="#00C28C"/>
<stop offset="1" stop-color="#003F2E"/>
</radialGradient>
</defs>
</svg>
