<svg width="63" height="115" viewBox="0 0 63 115" fill="none" xmlns="http://www.w3.org/2000/svg">
<g id="R-ICO-012895">
<path id="Vector" d="M37.973 53.3353H37.7298C34.214 53.3353 31.3639 56.1854 31.3639 59.7012C31.3639 56.1854 28.5138 53.3353 24.998 53.3353H24.7548C21.239 53.3353 18.3889 56.1854 18.3889 59.7012V93.1751C18.3889 96.0125 20.2462 98.414 22.8107 99.2361V112.216C22.8107 113.321 23.7062 114.216 24.8107 114.216C25.9152 114.216 26.8107 113.321 26.8107 112.216V99.2755C29.4427 98.4945 31.364 96.0607 31.364 93.1751C31.364 96.0607 33.2853 98.4945 35.9173 99.2755V112.216C35.9173 113.32 36.8128 114.216 37.9173 114.216C39.0218 114.216 39.9173 113.32 39.9173 112.216V99.2361C42.4818 98.414 44.3391 96.0125 44.3391 93.1751V59.7012C44.3389 56.1854 41.4888 53.3353 37.973 53.3353Z" fill="url(#paint0_radial_938_23021)"/>
<path id="Vector_2" d="M37.973 53.3353H37.7297C34.2139 53.3353 31.3638 56.1854 31.3638 59.7012C31.3638 56.1854 28.5137 53.3353 24.9979 53.3353H24.7547C21.2389 53.3353 18.3888 56.1854 18.3888 59.7012V93.1751C18.3888 96.6909 21.2389 99.541 24.7547 99.541H24.9979C28.5137 99.541 31.3638 96.6909 31.3638 93.1751C31.3638 96.6909 34.2139 99.541 37.7297 99.541H37.973C41.4887 99.541 44.3389 96.6909 44.3389 93.1751V59.7012C44.3389 56.1854 41.4888 53.3353 37.973 53.3353Z" fill="url(#paint1_linear_938_23021)"/>
<path id="Vector_3" d="M22.8105 53.2178C22.8105 45.4453 20.2021 44.5415 17.4414 43.585C15.1699 42.7979 12.0605 41.7203 12.0605 36.9678C12.0605 31.9673 11.4814 31.6475 9.9345 30.793C9.3281 30.458 8.5732 30.0415 7.749 29.4009C7.334 29.0791 6.9033 28.7862 6.4717 28.4907C3.5879 26.5201 0 24.0679 0 14.4078C0 13.3033 0.8955 12.4078 2 12.4078C3.1045 12.4078 4 13.3033 4 14.4078C4 21.9566 6.1914 23.4542 8.7285 25.1881C9.2275 25.5299 9.7236 25.8702 10.2021 26.2418C10.7802 26.691 11.333 26.9962 11.8681 27.2916C14.7177 28.8653 16.0605 30.3331 16.0605 36.9679C16.0605 38.8092 16.5302 39.0363 18.7509 39.8053C21.9599 40.9176 26.8105 42.5983 26.8105 53.2179C26.8105 54.8036 22.8105 54.8036 22.8105 53.2178Z" fill="url(#paint2_linear_938_23021)"/>
<path id="Vector_4" d="M39.9171 53.2178C39.9171 45.4453 42.5255 44.5415 45.2862 43.585C47.5577 42.7979 50.6671 41.7203 50.6671 36.9678C50.6671 31.9673 51.2462 31.6475 52.7931 30.793C53.3995 30.458 54.1544 30.0415 54.9786 29.4009C55.3936 29.0791 55.8243 28.7862 56.2559 28.4907C59.1397 26.52 62.7276 24.0678 62.7276 14.4077C62.7276 13.3032 61.8321 12.4077 60.7276 12.4077C59.6231 12.4077 58.7276 13.3032 58.7276 14.4077C58.7276 21.9565 56.5362 23.4541 53.9991 25.188C53.5001 25.5298 53.004 25.8701 52.5255 26.2417C51.9474 26.6909 51.3946 26.9961 50.8595 27.2915C48.0099 28.8652 46.6671 30.333 46.6671 36.9678C46.6671 38.8091 46.1974 39.0362 43.9767 39.8052C40.7677 40.9175 35.9171 42.5982 35.9171 53.2178C35.9171 54.8036 39.9171 54.8036 39.9171 53.2178Z" fill="url(#paint3_linear_938_23021)"/>
<path id="Vector_5" d="M13.924 28.8156C6.5692 28.8156 2 23.2948 2 14.4076C2 5.5207 6.5692 0 13.924 0C16.21 0 18.0634 1.8534 18.0634 4.1394C18.0634 6.4254 16.21 8.2788 13.924 8.2788C12.8334 8.2788 10.279 8.2788 10.279 14.4075C10.279 20.5366 12.8334 20.5366 13.924 20.5366C16.21 20.5366 18.0634 22.39 18.0634 24.676C18.0634 26.962 16.2099 28.8156 13.924 28.8156Z" fill="url(#paint4_radial_938_23021)"/>
<path id="Vector_6" d="M48.1957 0C55.5505 0 60.1196 5.5207 60.1196 14.408C60.1196 23.2948 55.5505 28.8156 48.1957 28.8156C45.9097 28.8156 44.0563 26.9622 44.0563 24.6762C44.0563 22.3902 45.9098 20.5368 48.1957 20.5368C49.2863 20.5368 51.8408 20.5368 51.8408 14.4081C51.8408 8.279 49.2864 8.279 48.1957 8.279C45.9097 8.279 44.0563 6.4256 44.0563 4.1396C44.0563 1.8536 45.9097 0 48.1957 0Z" fill="url(#paint5_radial_938_23021)"/>
</g>
<defs>
<radialGradient id="paint0_radial_938_23021" cx="0" cy="0" r="1" gradientUnits="userSpaceOnUse" gradientTransform="translate(31.3348 53.3293) scale(62.2594 62.2594)">
<stop offset="0.0277" stop-color="#8D62C1"/>
<stop offset="0.0594" stop-color="#A878D1"/>
<stop offset="0.1053" stop-color="#C993E5"/>
<stop offset="0.1493" stop-color="#E0A6F3"/>
<stop offset="0.1905" stop-color="#EEB2FC"/>
<stop offset="0.2258" stop-color="#F3B6FF"/>
<stop offset="0.2815" stop-color="#E9ADFA"/>
<stop offset="0.3745" stop-color="#D096EC"/>
<stop offset="0.4933" stop-color="#A670D5"/>
<stop offset="0.6126" stop-color="#7543BB"/>
<stop offset="0.6391" stop-color="#6D3DB5"/>
<stop offset="0.6812" stop-color="#562EA5"/>
<stop offset="0.7334" stop-color="#30158B"/>
<stop offset="0.7451" stop-color="#270F85"/>
</radialGradient>
<linearGradient id="paint1_linear_938_23021" x1="18.3888" y1="76.4382" x2="44.339" y2="76.4382" gradientUnits="userSpaceOnUse">
<stop stop-color="#8259BB"/>
<stop offset="0.0234" stop-color="#8259BB" stop-opacity="0.8625"/>
<stop offset="0.17" stop-color="#8259BB" stop-opacity="0"/>
<stop offset="0.4787" stop-color="#8259BB"/>
<stop offset="0.4947" stop-color="#7B53B0"/>
<stop offset="0.4979" stop-color="#7952AD"/>
<stop offset="0.5003" stop-color="#7B53B0"/>
<stop offset="0.514" stop-color="#8259BB"/>
<stop offset="0.67" stop-color="#8259BB" stop-opacity="0"/>
<stop offset="1" stop-color="#8259BB"/>
</linearGradient>
<linearGradient id="paint2_linear_938_23021" x1="9.238" y1="10.4999" x2="30.0183" y2="127.389" gradientUnits="userSpaceOnUse">
<stop stop-color="#F3B6FF"/>
<stop offset="0.1363" stop-color="#CC96E8"/>
<stop offset="0.3595" stop-color="#9266C5"/>
<stop offset="0.5655" stop-color="#6441A9"/>
<stop offset="0.7474" stop-color="#432695"/>
<stop offset="0.8985" stop-color="#2E1589"/>
<stop offset="1" stop-color="#270F85"/>
</linearGradient>
<linearGradient id="paint3_linear_938_23021" x1="53.4897" y1="10.4999" x2="32.7094" y2="127.389" gradientUnits="userSpaceOnUse">
<stop stop-color="#F3B6FF"/>
<stop offset="0.1363" stop-color="#CC96E8"/>
<stop offset="0.3595" stop-color="#9266C5"/>
<stop offset="0.5655" stop-color="#6441A9"/>
<stop offset="0.7474" stop-color="#432695"/>
<stop offset="0.8985" stop-color="#2E1589"/>
<stop offset="1" stop-color="#270F85"/>
</linearGradient>
<radialGradient id="paint4_radial_938_23021" cx="0" cy="0" r="1" gradientUnits="userSpaceOnUse" gradientTransform="translate(16.2506 14.4077) scale(16.0892)">
<stop stop-color="#BB3B9B"/>
<stop offset="1" stop-color="#3A0D9C"/>
</radialGradient>
<radialGradient id="paint5_radial_938_23021" cx="0" cy="0" r="1" gradientUnits="userSpaceOnUse" gradientTransform="translate(45.8691 14.4078) rotate(180) scale(16.0892 16.0892)">
<stop stop-color="#BB3B9B"/>
<stop offset="1" stop-color="#3A0D9C"/>
</radialGradient>
</defs>
</svg>
