<svg width="90" height="44" viewBox="0 0 90 44" fill="none" xmlns="http://www.w3.org/2000/svg">
<g id="R-ICO-014250">
<g id="Vector">
<mask id="path-1-inside-1_938_24932" fill="white">
<path d="M52.5921 16H36.4263L28.3433 30L36.4263 44H52.5921L60.675 30L52.5921 16Z"/>
</mask>
<path d="M52.5921 16H36.4263L28.3433 30L36.4263 44H52.5921L60.675 30L52.5921 16Z" fill="url(#paint0_linear_938_24932)" stroke="#F97400" stroke-width="4" stroke-miterlimit="10" mask="url(#path-1-inside-1_938_24932)"/>
</g>
<g id="Vector_2">
<mask id="path-2-inside-2_938_24932" fill="white">
<path d="M24.2487 0H8.0829L0 14L8.0829 28H24.2487L32.3316 14L24.2487 0Z"/>
</mask>
<path d="M24.2487 0H8.0829L0 14L8.0829 28H24.2487L32.3316 14L24.2487 0Z" fill="url(#paint1_linear_938_24932)" stroke="#F97400" stroke-width="4" stroke-miterlimit="10" mask="url(#path-2-inside-2_938_24932)"/>
</g>
<g id="Vector_3">
<mask id="path-3-inside-3_938_24932" fill="white">
<path d="M80.9352 0H64.7694L56.6865 14L64.7694 28H80.9352L89.0181 14L80.9352 0Z"/>
</mask>
<path d="M80.9352 0H64.7694L56.6865 14L64.7694 28H80.9352L89.0181 14L80.9352 0Z" fill="url(#paint2_linear_938_24932)" stroke="#F97400" stroke-width="4" stroke-miterlimit="10" mask="url(#path-3-inside-3_938_24932)"/>
</g>
</g>
<defs>
<linearGradient id="paint0_linear_938_24932" x1="44.5092" y1="16" x2="44.5092" y2="44" gradientUnits="userSpaceOnUse">
<stop stop-color="#64FF6C"/>
<stop offset="1" stop-color="#F97400"/>
</linearGradient>
<linearGradient id="paint1_linear_938_24932" x1="0" y1="14" x2="32.3316" y2="14" gradientUnits="userSpaceOnUse">
<stop stop-color="#F97400"/>
<stop offset="1" stop-color="#6B64FF"/>
</linearGradient>
<linearGradient id="paint2_linear_938_24932" x1="56.6865" y1="14" x2="89.0181" y2="14" gradientUnits="userSpaceOnUse">
<stop stop-color="#FFB864"/>
<stop offset="1" stop-color="#F97400"/>
</linearGradient>
</defs>
</svg>
