<svg width="126" height="125" viewBox="0 0 126 125" fill="none" xmlns="http://www.w3.org/2000/svg">
<g id="R-ICO-013187">
<path id="Vector" d="M122.799 62.0459C126.677 79.9358 125.033 88.2549 101.883 107.895C91.118 117.024 77.3182 122.75 62.1032 122.75C46.2011 122.75 34.4299 114.505 23.6077 104.5C11.6157 93.4084 1.40698 79.674 1.40698 62.0541C1.40698 50.0212 6.48688 42.7327 12.5319 33.2929C23.3214 16.4501 31.9187 1.35779 62.1114 1.35779C74.2016 1.35779 84.6312 6.43769 94.9218 10.9858C118.808 21.5136 116.035 30.8634 122.799 62.0459Z" fill="url(#paint0_radial_938_25233)"/>
<path id="Vector_2" d="M125.671 74.1116C125.573 70.6678 124.943 67.3466 124.395 64.819L123.92 62.8803C123.364 60.6062 122.791 58.2585 122.162 55.9518L121.761 53.1378C121.098 48.4669 120.411 43.6325 119.511 38.8799C119.413 38.4382 119.323 37.9964 119.241 37.5547C119.045 36.5895 118.849 35.5833 118.579 34.6099L118.023 32.4667L117.352 30.3562C116.526 28.0085 115.315 24.9737 113.344 22.356C113.016 21.8406 112.624 21.3908 112.247 20.9654C112.125 20.8264 112.01 20.6954 111.888 20.5482L111.634 20.2537C111.225 19.7792 110.808 19.2966 110.325 18.8876L108.648 17.3497L105.949 15.3456L103.127 13.6114C101.834 12.8997 100.493 12.2208 99.2082 11.5828L97.8094 10.9611C96.9505 10.5767 96.0916 10.2004 95.2245 9.8241L91.2244 8.1963L90.1937 7.7955C87.895 6.9038 85.5228 5.9714 83.1179 5.2106C77.2037 2.5195 71.8212 0.9162 66.684 0.3108C65.0889 0.1145 63.6656 0.0164 62.3158 0L58.0131 0.0409C55.4527 0.1799 52.4261 0.409 49.424 0.9653C46.79 1.407 44.0415 2.1514 41.0067 3.2394C38.2991 4.2619 35.6815 5.5953 33.2192 7.1986C28.8101 10.0371 24.8592 14.0453 21.129 19.436C18.5768 22.4626 16.3027 25.7674 14.1105 28.974L13.6769 29.6039C12.9979 30.6264 12.319 31.6407 11.6319 32.6469C9.99593 35.0682 8.31083 37.5713 6.74843 40.1235C4.22893 44.1727 2.47023 48.0009 1.36593 51.8292C0.237034 55.8211 -0.196466 60.1647 0.0816344 64.7292C0.351634 69.0564 1.21863 73.3101 2.67473 77.3756C4.10623 81.3593 6.06133 85.2121 8.48253 88.8277C12.6462 95.1346 18.1596 100.992 25.8161 107.266C30.626 111.969 35.2396 115.544 39.9186 118.186C42.389 119.618 45.1784 120.861 48.1969 121.892C51.0354 122.832 54.0293 123.495 57.0887 123.855C58.7738 124.027 60.4753 124.108 62.1931 124.108C66.4059 124.108 70.7167 123.593 75.0522 122.571C80.7865 121.237 86.3407 118.938 91.5515 115.724C94.0465 114.538 96.6559 113.008 99.5271 111.045C101.548 109.638 103.454 108.051 105.286 106.513C105.777 106.104 106.268 105.695 106.775 105.278C111.233 101.425 115.887 97.1386 119.691 91.9279C121.671 89.2776 123.192 86.4554 124.223 83.5433C125.27 80.5493 125.769 77.2691 125.671 74.1116ZM90.9382 114.685C85.5557 117.245 80.0341 119.094 74.5126 120.165C68.443 121.319 62.676 121.613 57.3753 121.049C51.8701 120.444 46.3894 118.759 41.0969 116.026C36.6551 113.728 32.0497 110.66 26.6099 106.382C19.4196 99.5272 14.3234 93.5312 10.5687 87.5188C5.97153 80.1649 3.32933 72.2384 2.92853 64.59C2.65043 60.3854 3.02673 56.3526 4.03283 52.598C4.93263 49.1951 6.47863 45.6449 8.88363 41.4403C10.1515 39.2399 11.5094 37.023 12.8346 34.8798C13.6853 33.4974 14.5361 32.1067 15.3786 30.7161C17.9308 26.4297 20.0004 23.1904 22.0945 20.2128C23.8696 18.2087 25.8082 16.0982 27.9269 14.2495C30.0946 12.3026 32.3196 10.6502 34.5364 9.3414C39.0436 6.642 44.2135 4.7769 49.9313 3.7953C50.9047 3.5826 51.9191 3.4599 52.9089 3.329C53.277 3.2799 53.6533 3.2308 54.0132 3.1818C54.823 3.0836 55.6656 3.0182 56.4836 2.9609C57.048 2.92 57.6125 2.8791 58.136 2.83L62.316 2.6828C63.5921 2.6746 64.9418 2.7155 66.4306 2.8218C71.2241 3.2062 76.3858 4.3351 82.6681 6.3801C85.3021 7.6071 87.8789 8.8096 90.4147 10.0775L94.2921 11.9507L98.1041 13.8485C99.3393 14.5438 100.583 15.2309 101.777 15.9262L104.403 17.6359L106.857 19.5337L108.403 20.9898C108.796 21.3252 109.139 21.726 109.499 22.1514L109.753 22.4459C109.867 22.5849 109.99 22.724 110.104 22.8549C110.44 23.2393 110.751 23.5993 111.029 24.0573C112.771 26.315 113.892 28.9981 114.759 31.3376C115.561 33.4317 116.133 35.6894 116.681 37.8735C116.812 38.4052 116.951 38.9369 117.082 39.4441L118.972 47.8533L119.438 49.8492C119.921 51.9433 120.428 54.111 120.984 56.2297C121.221 57.8412 121.491 59.469 121.753 61.0478C122.473 65.3587 123.225 69.8168 123.193 74.1686C123.168 79.7801 121.164 85.359 117.377 90.3325C116.837 91.1423 116.191 91.9276 115.561 92.6802C115.242 93.0646 114.923 93.4491 114.636 93.8091C113.908 94.6435 113.148 95.4615 112.395 96.2795L111.61 97.1302C111.225 97.5146 110.841 97.9073 110.456 98.2918C109.777 98.9789 109.098 99.6742 108.411 100.345L105.123 103.47C104.387 104.124 103.667 104.787 102.939 105.449C101.45 106.815 99.9121 108.222 98.3087 109.499C96.2307 111.159 93.8994 112.82 90.9382 114.685Z" fill="#821026"/>
<path id="Vector_3" d="M58.3241 111.658C63.6279 111.658 67.9275 107.359 67.9275 102.055C67.9275 96.751 63.6279 92.4514 58.3241 92.4514C53.0203 92.4514 48.7207 96.751 48.7207 102.055C48.7207 107.359 53.0203 111.658 58.3241 111.658Z" fill="url(#paint1_radial_938_25233)"/>
<path id="Vector_4" d="M58.3242 112.067C52.8026 112.067 48.3118 107.576 48.3118 102.055C48.3118 96.5333 52.8027 92.0425 58.3242 92.0425C63.8457 92.0425 68.3366 96.5334 68.3366 102.055C68.3366 107.576 63.8458 112.067 58.3242 112.067ZM58.3242 92.8604C53.2525 92.8604 49.1298 96.9831 49.1298 102.055C49.1298 107.126 53.2525 111.249 58.3242 111.249C63.3959 111.249 67.5186 107.126 67.5186 102.055C67.5186 96.9832 63.3959 92.8604 58.3242 92.8604Z" fill="#2D8391"/>
</g>
<defs>
<radialGradient id="paint0_radial_938_25233" cx="0" cy="0" r="1" gradientUnits="userSpaceOnUse" gradientTransform="translate(42.8163 47.4056) scale(60.5051 83.848)">
<stop offset="0.0005" stop-color="#FFD1DC"/>
<stop offset="0.0186" stop-color="#FECDD6"/>
<stop offset="0.1324" stop-color="#F6B7B6"/>
<stop offset="0.2556" stop-color="#F0A59B"/>
<stop offset="0.3894" stop-color="#EB9786"/>
<stop offset="0.5391" stop-color="#E88E77"/>
<stop offset="0.7176" stop-color="#E6886F"/>
<stop offset="1" stop-color="#E5866C"/>
</radialGradient>
<radialGradient id="paint1_radial_938_25233" cx="0" cy="0" r="1" gradientUnits="userSpaceOnUse" gradientTransform="translate(55.1867 99.756) scale(9.5059 13.1733)">
<stop offset="0.0005" stop-color="#FFD1DC"/>
<stop offset="0.016" stop-color="#F8CEDA"/>
<stop offset="0.1128" stop-color="#D2BED2"/>
<stop offset="0.217" stop-color="#B1B0CA"/>
<stop offset="0.3282" stop-color="#96A5C4"/>
<stop offset="0.4489" stop-color="#819CC0"/>
<stop offset="0.5841" stop-color="#7296BD"/>
<stop offset="0.7452" stop-color="#6A92BB"/>
<stop offset="1" stop-color="#6791BA"/>
</radialGradient>
</defs>
</svg>
