<svg width="44" height="24" viewBox="0 0 44 24" fill="none" xmlns="http://www.w3.org/2000/svg">
<g id="R-ICO-014230">
<g id="All-trans-retinyl ester">
<g id="LEFT_CORNER">
<mask id="mask0_938_24687" style="mask-type:luminance" maskUnits="userSpaceOnUse" x="0" y="0" width="10" height="24">
<rect id="MASK" width="10" height="24" transform="matrix(-1 0 0 1 10 0)" fill="white"/>
</mask>
<g mask="url(#mask0_938_24687)">
<g id="CORNER">
<mask id="path-2-outside-1_938_24687" maskUnits="userSpaceOnUse" x="0" y="0" width="12" height="24" fill="black">
<rect fill="white" width="12" height="24"/>
<path d="M2 12C2 12 6.04738 5.90524 8 2H10V22H8C6.04738 18.0948 2 12 2 12Z"/>
</mask>
<path d="M2 12C2 12 6.04738 5.90524 8 2H10V22H8C6.04738 18.0948 2 12 2 12Z" fill="url(#paint0_linear_938_24687)"/>
<path d="M2 12C2 12 6.04738 5.90524 8 2H10V22H8C6.04738 18.0948 2 12 2 12Z" stroke="#F9682E" stroke-width="4" stroke-miterlimit="3.99933" stroke-linejoin="round" mask="url(#path-2-outside-1_938_24687)"/>
</g>
</g>
</g>
<g id="RIGHT CORNER">
<mask id="mask1_938_24687" style="mask-type:luminance" maskUnits="userSpaceOnUse" x="34" y="0" width="10" height="24">
<rect id="MASK_2" width="10" height="24" transform="matrix(1 -8.74228e-08 -8.74228e-08 -1 34 24)" fill="white"/>
</mask>
<g mask="url(#mask1_938_24687)">
<g id="CORNER_2">
<mask id="path-4-outside-2_938_24687" maskUnits="userSpaceOnUse" x="32" y="0" width="12" height="24" fill="black">
<rect fill="white" x="32" width="12" height="24"/>
<path d="M42 12C42 12 37.9526 5.90524 36 2H34V22H36C37.9526 18.0948 42 12 42 12Z"/>
</mask>
<path d="M42 12C42 12 37.9526 5.90524 36 2H34V22H36C37.9526 18.0948 42 12 42 12Z" fill="url(#paint1_linear_938_24687)"/>
<path d="M42 12C42 12 37.9526 5.90524 36 2H34V22H36C37.9526 18.0948 42 12 42 12Z" stroke="#F9682E" stroke-width="4" stroke-miterlimit="3.99933" stroke-linejoin="round" mask="url(#path-4-outside-2_938_24687)"/>
</g>
</g>
</g>
<g id="atRE">
<mask id="path-5-outside-3_938_24687" maskUnits="userSpaceOnUse" x="8" y="0" width="28" height="24" fill="black">
<rect fill="white" x="8" width="28" height="24"/>
<path d="M8 2H36V22H8V2Z"/>
</mask>
<path d="M8 2H36V22H8V2Z" fill="url(#paint2_linear_938_24687)"/>
<path d="M8 2V4H36V2V0H8V2ZM36 22V20H8V22V24H36V22Z" fill="#F9682E" mask="url(#path-5-outside-3_938_24687)"/>
<text id="Chemical" fill="white" xml:space="preserve" style="white-space: pre" font-family="Arial" font-size="12" font-weight="bold" letter-spacing="0em"><tspan x="8.32422" y="16.1602">atRE</tspan></text>
</g>
</g>
</g>
<defs>
<linearGradient id="paint0_linear_938_24687" x1="6" y1="2" x2="6" y2="22" gradientUnits="userSpaceOnUse">
<stop stop-color="#F9682E"/>
<stop offset="1" stop-color="#F9C702"/>
</linearGradient>
<linearGradient id="paint1_linear_938_24687" x1="38" y1="2" x2="38" y2="22" gradientUnits="userSpaceOnUse">
<stop stop-color="#F9682E"/>
<stop offset="1" stop-color="#F9C702"/>
</linearGradient>
<linearGradient id="paint2_linear_938_24687" x1="22" y1="2" x2="22" y2="22" gradientUnits="userSpaceOnUse">
<stop stop-color="#F9682E"/>
<stop offset="1" stop-color="#F9C702"/>
</linearGradient>
</defs>
</svg>
