<svg width="72" height="109" viewBox="0 0 72 109" fill="none" xmlns="http://www.w3.org/2000/svg">
<g id="R-ICO-013517">
<g id="Group">
<path id="Vector" d="M22.5333 108.774C18.1128 108.774 14.5293 105.19 14.5293 100.77V77.4254C14.5293 73.0049 18.1128 69.4214 22.5333 69.4214C26.9538 69.4214 30.5373 73.0049 30.5373 77.4254V100.77C30.5373 105.19 26.9538 108.774 22.5333 108.774Z" fill="url(#paint0_linear_938_23067)"/>
<path id="Vector_2" d="M22.905 72.5067H22.1605C21.2752 72.5067 20.5576 71.7891 20.5576 70.9038V48.193C20.5576 47.3077 21.2752 46.5901 22.1605 46.5901H22.905C23.7903 46.5901 24.5079 47.3077 24.5079 48.193V70.9039C24.5079 71.7891 23.7902 72.5067 22.905 72.5067Z" fill="url(#paint1_linear_938_23067)"/>
<path id="Vector_3" d="M22.5329 49.1509C16.0847 49.1509 14.5273 44.2197 14.5273 38.3948C14.5273 28.7679 10.8123 21.9721 4.71171 16.1902C1.44751 13.0029 -2.59469 7.46466 2.21761 2.65236C7.02991 -2.15994 11.1579 0.241456 15.7251 4.57056C24.929 13.2935 30.5337 25.3894 30.5337 38.0701C30.5337 43.7419 28.9811 49.1509 22.5329 49.1509Z" fill="url(#paint2_radial_938_23067)"/>
<g id="Mask group">
<mask id="mask0_938_23067" style="mask-type:alpha" maskUnits="userSpaceOnUse" x="14" y="100" width="17" height="9">
<path id="MASK" d="M22.5323 108.774C18.1118 108.774 14.5283 105.19 14.5283 100.77H30.5363C30.5363 105.19 26.9528 108.774 22.5323 108.774Z" fill="url(#paint3_linear_938_23067)"/>
</mask>
<g mask="url(#mask0_938_23067)">
<path id="Vector_4" d="M22.5323 108.774C18.1118 108.774 14.5283 105.19 14.5283 100.77H30.5363C30.5363 105.19 26.9528 108.774 22.5323 108.774Z" fill="url(#paint4_radial_938_23067)"/>
</g>
</g>
<g id="Mask group_2">
<mask id="mask1_938_23067" style="mask-type:alpha" maskUnits="userSpaceOnUse" x="14" y="69" width="17" height="9">
<path id="MASK_2" d="M14.5283 77.4254C14.5283 73.0049 18.1118 69.4214 22.5323 69.4214C26.9528 69.4214 30.5363 73.0049 30.5363 77.4254H14.5283Z" fill="url(#paint5_linear_938_23067)"/>
</mask>
<g mask="url(#mask1_938_23067)">
<path id="Vector_5" d="M14.5283 77.4254C14.5283 73.0049 18.1118 69.4214 22.5323 69.4214C26.9528 69.4214 30.5363 73.0049 30.5363 77.4254H14.5283Z" fill="url(#paint6_radial_938_23067)"/>
</g>
</g>
<g id="Mask group_3">
<mask id="mask2_938_23067" style="mask-type:alpha" maskUnits="userSpaceOnUse" x="14" y="38" width="17" height="12">
<path id="MASK_3" d="M22.5329 49.1509C16.0847 49.1509 14.5273 44.2197 14.5273 38.3948L30.5337 38.0701C30.5337 43.7419 28.9811 49.1509 22.5329 49.1509Z" fill="url(#paint7_linear_938_23067)"/>
</mask>
<g mask="url(#mask2_938_23067)">
<path id="Vector_6" d="M22.5329 49.1509C16.0847 49.1509 14.5273 44.2197 14.5273 38.3948L30.5337 38.0701C30.5337 43.7419 28.9811 49.1509 22.5329 49.1509Z" fill="url(#paint8_radial_938_23067)"/>
</g>
</g>
<g id="Mask group_4">
<mask id="mask3_938_23067" style="mask-type:alpha" maskUnits="userSpaceOnUse" x="0" y="0" width="16" height="17">
<path id="MASK_4" d="M4.71171 16.1902C1.44751 13.0029 -2.59469 7.46466 2.21761 2.65236C7.02991 -2.15994 11.1579 0.241456 15.7251 4.57056L4.71171 16.1902Z" fill="url(#paint9_linear_938_23067)"/>
</mask>
<g mask="url(#mask3_938_23067)">
<path id="Vector_7" d="M4.71171 16.1902C1.44751 13.0029 -2.59469 7.46466 2.21761 2.65236C7.02991 -2.15994 11.1579 0.241456 15.7251 4.57056L4.71171 16.1902Z" fill="url(#paint10_radial_938_23067)"/>
</g>
</g>
</g>
<g id="Group_2">
<path id="Vector_8" d="M48.5411 108.774C52.9616 108.774 56.5451 105.19 56.5451 100.77V77.4254C56.5451 73.0049 52.9616 69.4214 48.5411 69.4214C44.1206 69.4214 40.5371 73.0049 40.5371 77.4254V100.77C40.5371 105.19 44.1206 108.774 48.5411 108.774Z" fill="url(#paint11_linear_938_23067)"/>
<path id="Vector_9" d="M48.1693 72.5068H48.9138C49.7991 72.5068 50.5167 71.7892 50.5167 70.9039V48.1931C50.5167 47.3078 49.7991 46.5902 48.9138 46.5902H48.1693C47.284 46.5902 46.5664 47.3078 46.5664 48.1931V70.904C46.5664 71.7892 47.284 72.5068 48.1693 72.5068Z" fill="url(#paint12_linear_938_23067)"/>
<path id="Vector_10" d="M48.5408 49.1509C54.989 49.1509 56.5464 44.2197 56.5464 38.3948C56.5464 28.7679 60.2614 21.9721 66.362 16.1902C69.6262 13.0029 73.6684 7.46466 68.8561 2.65236C64.0438 -2.15994 59.9158 0.241456 55.3486 4.57056C46.1448 13.2935 40.54 25.3894 40.54 38.0701C40.54 43.7419 42.0927 49.1509 48.5408 49.1509Z" fill="url(#paint13_radial_938_23067)"/>
<g id="Mask group_5">
<mask id="mask4_938_23067" style="mask-type:alpha" maskUnits="userSpaceOnUse" x="40" y="100" width="17" height="9">
<path id="MASK_5" d="M48.5411 108.774C44.1206 108.774 40.5371 105.19 40.5371 100.77H56.5451C56.5451 105.19 52.9616 108.774 48.5411 108.774Z" fill="url(#paint14_linear_938_23067)"/>
</mask>
<g mask="url(#mask4_938_23067)">
<path id="Vector_11" d="M48.5411 108.774C52.9616 108.774 56.5451 105.19 56.5451 100.77H40.5371C40.5371 105.19 44.1206 108.774 48.5411 108.774Z" fill="url(#paint15_radial_938_23067)"/>
</g>
</g>
<g id="Mask group_6">
<mask id="mask5_938_23067" style="mask-type:alpha" maskUnits="userSpaceOnUse" x="40" y="69" width="17" height="9">
<path id="MASK_6" d="M40.5371 77.4254C40.5371 73.0049 44.1206 69.4214 48.5411 69.4214C52.9616 69.4214 56.5451 73.0049 56.5451 77.4254H40.5371Z" fill="url(#paint16_linear_938_23067)"/>
</mask>
<g mask="url(#mask5_938_23067)">
<path id="Vector_12" d="M56.5451 77.4254C56.5451 73.0049 52.9616 69.4214 48.5411 69.4214C44.1206 69.4214 40.5371 73.0049 40.5371 77.4254H56.5451Z" fill="url(#paint17_radial_938_23067)"/>
</g>
</g>
<g id="Mask group_7">
<mask id="mask6_938_23067" style="mask-type:alpha" maskUnits="userSpaceOnUse" x="40" y="38" width="17" height="12">
<path id="MASK_7" d="M48.5413 49.1509C54.9895 49.1509 56.5469 44.2197 56.5469 38.3948L40.5405 38.0701C40.5405 43.7419 42.0931 49.1509 48.5413 49.1509Z" fill="url(#paint18_linear_938_23067)"/>
</mask>
<g mask="url(#mask6_938_23067)">
<path id="Vector_13" d="M48.5408 49.1509C54.989 49.1509 56.5464 44.2197 56.5464 38.3948L40.54 38.0701C40.54 43.7419 42.0927 49.1509 48.5408 49.1509Z" fill="url(#paint19_radial_938_23067)"/>
</g>
</g>
<g id="Mask group_8">
<mask id="mask7_938_23067" style="mask-type:alpha" maskUnits="userSpaceOnUse" x="55" y="0" width="17" height="17">
<path id="MASK_8" d="M66.3625 16.1902C69.6267 13.0029 73.6689 7.46466 68.8566 2.65236C64.0443 -2.15994 59.9163 0.241456 55.3491 4.57056L66.3625 16.1902Z" fill="url(#paint20_linear_938_23067)"/>
</mask>
<g mask="url(#mask7_938_23067)">
<path id="Vector_14" d="M66.362 16.1902C69.6262 13.0029 73.6684 7.46466 68.8561 2.65236C64.0438 -2.15994 59.9158 0.241456 55.3486 4.57056L66.362 16.1902Z" fill="url(#paint21_radial_938_23067)"/>
</g>
</g>
</g>
</g>
<defs>
<linearGradient id="paint0_linear_938_23067" x1="14.5293" y1="89.0976" x2="30.5373" y2="89.0976" gradientUnits="userSpaceOnUse">
<stop offset="0.0878" stop-color="#127864"/>
<stop offset="0.299" stop-color="#53AF89"/>
<stop offset="0.5371" stop-color="#97E8B0"/>
<stop offset="0.6488" stop-color="#B2FFBF"/>
<stop offset="0.7015" stop-color="#ADFBBC"/>
<stop offset="0.7656" stop-color="#9EEEB4"/>
<stop offset="0.8358" stop-color="#85D9A6"/>
<stop offset="0.9102" stop-color="#63BC92"/>
<stop offset="0.9873" stop-color="#379879"/>
<stop offset="1" stop-color="#2F9175"/>
</linearGradient>
<linearGradient id="paint1_linear_938_23067" x1="20.5576" y1="59.5483" x2="24.5079" y2="59.5483" gradientUnits="userSpaceOnUse">
<stop offset="0.0878" stop-color="#127864"/>
<stop offset="0.299" stop-color="#53AF89"/>
<stop offset="0.5371" stop-color="#97E8B0"/>
<stop offset="0.6488" stop-color="#B2FFBF"/>
<stop offset="0.7015" stop-color="#ADFBBC"/>
<stop offset="0.7656" stop-color="#9EEEB4"/>
<stop offset="0.8358" stop-color="#85D9A6"/>
<stop offset="0.9102" stop-color="#63BC92"/>
<stop offset="0.9873" stop-color="#379879"/>
<stop offset="1" stop-color="#2F9175"/>
</linearGradient>
<radialGradient id="paint2_radial_938_23067" cx="0" cy="0" r="1" gradientTransform="matrix(-18.8388 9.47107 -15.6361 -31.1036 6.86934 27.0431)" gradientUnits="userSpaceOnUse">
<stop offset="0.4104" stop-color="#349578"/>
<stop offset="0.5277" stop-color="#65BE94"/>
<stop offset="0.6441" stop-color="#8FE1AB"/>
<stop offset="0.7351" stop-color="#A9F7BA"/>
<stop offset="0.7897" stop-color="#B2FFBF"/>
<stop offset="0.8169" stop-color="#ACFABC"/>
<stop offset="0.8515" stop-color="#9DEDB3"/>
<stop offset="0.8901" stop-color="#83D7A4"/>
<stop offset="0.9315" stop-color="#5EB88F"/>
<stop offset="0.9749" stop-color="#309275"/>
<stop offset="1" stop-color="#127864"/>
</radialGradient>
<linearGradient id="paint3_linear_938_23067" x1="22.5323" y1="104.772" x2="22.5323" y2="100.77" gradientUnits="userSpaceOnUse">
<stop stop-color="white"/>
<stop offset="1" stop-opacity="0"/>
</linearGradient>
<radialGradient id="paint4_radial_938_23067" cx="0" cy="0" r="1" gradientUnits="userSpaceOnUse" gradientTransform="translate(25.1079 101.437) scale(9.5299 9.52991)">
<stop offset="0.1265" stop-color="#B2FFBF"/>
<stop offset="0.1487" stop-color="#A7F6B9"/>
<stop offset="0.2497" stop-color="#7AD09F"/>
<stop offset="0.3513" stop-color="#54B08A"/>
<stop offset="0.452" stop-color="#379879"/>
<stop offset="0.5517" stop-color="#23866D"/>
<stop offset="0.6497" stop-color="#167C66"/>
<stop offset="0.7443" stop-color="#127864"/>
</radialGradient>
<linearGradient id="paint5_linear_938_23067" x1="22.5323" y1="73.4234" x2="22.5323" y2="77.4254" gradientUnits="userSpaceOnUse">
<stop stop-color="white"/>
<stop offset="1" stop-opacity="0"/>
</linearGradient>
<radialGradient id="paint6_radial_938_23067" cx="0" cy="0" r="1" gradientUnits="userSpaceOnUse" gradientTransform="translate(24.9336 76.7746) scale(9.9212 9.9212)">
<stop offset="0.0712" stop-color="#B2FFBF"/>
<stop offset="0.2221" stop-color="#84D9A5"/>
<stop offset="0.4063" stop-color="#53AF89"/>
<stop offset="0.5684" stop-color="#309175"/>
<stop offset="0.7002" stop-color="#1A7F69"/>
<stop offset="0.7853" stop-color="#127864"/>
</radialGradient>
<linearGradient id="paint7_linear_938_23067" x1="22.5305" y1="43.6105" x2="22.5305" y2="38.0701" gradientUnits="userSpaceOnUse">
<stop stop-color="white"/>
<stop offset="0.9408" stop-opacity="0"/>
</linearGradient>
<radialGradient id="paint8_radial_938_23067" cx="0" cy="0" r="1" gradientTransform="matrix(-8.3278 0.075783 -0.098268 -10.7104 25.6381 39.0358)" gradientUnits="userSpaceOnUse">
<stop offset="0.1067" stop-color="#B2FFBF"/>
<stop offset="0.137" stop-color="#A9F8BA"/>
<stop offset="0.3384" stop-color="#74CA9C"/>
<stop offset="0.5263" stop-color="#49A784"/>
<stop offset="0.6952" stop-color="#2B8D72"/>
<stop offset="0.839" stop-color="#197E68"/>
<stop offset="0.9408" stop-color="#127864"/>
</radialGradient>
<linearGradient id="paint9_linear_938_23067" x1="6.41169" y1="6.27682" x2="10.5272" y2="10.1502" gradientUnits="userSpaceOnUse">
<stop stop-color="white"/>
<stop offset="1" stop-opacity="0"/>
</linearGradient>
<radialGradient id="paint10_radial_938_23067" cx="0" cy="0" r="1" gradientTransform="matrix(-6.03422 6.53685 -7.672 -7.0813 10.72 7.92614)" gradientUnits="userSpaceOnUse">
<stop offset="0.08" stop-color="#B2FFBF"/>
<stop offset="0.1647" stop-color="#9BECB2"/>
<stop offset="0.3654" stop-color="#6BC396"/>
<stop offset="0.5557" stop-color="#44A281"/>
<stop offset="0.7305" stop-color="#298B71"/>
<stop offset="0.884" stop-color="#187D67"/>
<stop offset="1" stop-color="#127864"/>
</radialGradient>
<linearGradient id="paint11_linear_938_23067" x1="56.5451" y1="89.0976" x2="40.5371" y2="89.0976" gradientUnits="userSpaceOnUse">
<stop stop-color="#2F9175"/>
<stop offset="0.0127" stop-color="#379879"/>
<stop offset="0.0898" stop-color="#63BC92"/>
<stop offset="0.1642" stop-color="#85D9A6"/>
<stop offset="0.2344" stop-color="#9EEEB4"/>
<stop offset="0.2985" stop-color="#ADFBBC"/>
<stop offset="0.3512" stop-color="#B2FFBF"/>
<stop offset="0.4629" stop-color="#97E8B0"/>
<stop offset="0.701" stop-color="#53AF89"/>
<stop offset="0.9122" stop-color="#127864"/>
</linearGradient>
<linearGradient id="paint12_linear_938_23067" x1="50.5167" y1="59.5484" x2="46.5663" y2="59.5484" gradientUnits="userSpaceOnUse">
<stop stop-color="#2F9175"/>
<stop offset="0.0127" stop-color="#379879"/>
<stop offset="0.0898" stop-color="#63BC92"/>
<stop offset="0.1642" stop-color="#85D9A6"/>
<stop offset="0.2344" stop-color="#9EEEB4"/>
<stop offset="0.2985" stop-color="#ADFBBC"/>
<stop offset="0.3512" stop-color="#B2FFBF"/>
<stop offset="0.4629" stop-color="#97E8B0"/>
<stop offset="0.701" stop-color="#53AF89"/>
<stop offset="0.9122" stop-color="#127864"/>
</linearGradient>
<radialGradient id="paint13_radial_938_23067" cx="0" cy="0" r="1" gradientTransform="matrix(18.8388 9.47107 15.6361 -31.1036 64.2272 27.0565)" gradientUnits="userSpaceOnUse">
<stop offset="0.4104" stop-color="#349578"/>
<stop offset="0.4875" stop-color="#65BE94"/>
<stop offset="0.5638" stop-color="#8FE1AB"/>
<stop offset="0.6236" stop-color="#A9F7BA"/>
<stop offset="0.6595" stop-color="#B2FFBF"/>
<stop offset="1" stop-color="#127864"/>
</radialGradient>
<linearGradient id="paint14_linear_938_23067" x1="48.5411" y1="104.772" x2="48.5411" y2="100.77" gradientUnits="userSpaceOnUse">
<stop stop-color="white"/>
<stop offset="1" stop-opacity="0"/>
</linearGradient>
<radialGradient id="paint15_radial_938_23067" cx="0" cy="0" r="1" gradientUnits="userSpaceOnUse" gradientTransform="translate(50.9655 101.437) rotate(180) scale(9.5299 9.52991)">
<stop offset="0.1265" stop-color="#B2FFBF"/>
<stop offset="0.1487" stop-color="#A7F6B9"/>
<stop offset="0.2497" stop-color="#7AD09F"/>
<stop offset="0.3513" stop-color="#54B08A"/>
<stop offset="0.452" stop-color="#379879"/>
<stop offset="0.5517" stop-color="#23866D"/>
<stop offset="0.6497" stop-color="#167C66"/>
<stop offset="0.7443" stop-color="#127864"/>
</radialGradient>
<linearGradient id="paint16_linear_938_23067" x1="48.5411" y1="73.4234" x2="48.5411" y2="77.4254" gradientUnits="userSpaceOnUse">
<stop stop-color="white"/>
<stop offset="1" stop-opacity="0"/>
</linearGradient>
<radialGradient id="paint17_radial_938_23067" cx="0" cy="0" r="1" gradientUnits="userSpaceOnUse" gradientTransform="translate(51.2649 76.7746) rotate(180) scale(9.9212 9.9212)">
<stop offset="0.0712" stop-color="#B2FFBF"/>
<stop offset="0.2221" stop-color="#84D9A5"/>
<stop offset="0.4063" stop-color="#53AF89"/>
<stop offset="0.5684" stop-color="#309175"/>
<stop offset="0.7002" stop-color="#1A7F69"/>
<stop offset="0.7853" stop-color="#127864"/>
</radialGradient>
<linearGradient id="paint18_linear_938_23067" x1="48.5437" y1="43.6105" x2="48.5437" y2="38.0701" gradientUnits="userSpaceOnUse">
<stop stop-color="white"/>
<stop offset="0.9408" stop-opacity="0"/>
</linearGradient>
<radialGradient id="paint19_radial_938_23067" cx="0" cy="0" r="1" gradientTransform="matrix(8.3278 0.075783 0.098268 -10.7104 49.5876 38.8922)" gradientUnits="userSpaceOnUse">
<stop offset="0.1067" stop-color="#B2FFBF"/>
<stop offset="0.137" stop-color="#A9F8BA"/>
<stop offset="0.3384" stop-color="#74CA9C"/>
<stop offset="0.5263" stop-color="#49A784"/>
<stop offset="0.6952" stop-color="#2B8D72"/>
<stop offset="0.839" stop-color="#197E68"/>
<stop offset="0.9408" stop-color="#127864"/>
</radialGradient>
<linearGradient id="paint20_linear_938_23067" x1="64.6625" y1="6.27682" x2="60.547" y2="10.1502" gradientUnits="userSpaceOnUse">
<stop stop-color="white"/>
<stop offset="1" stop-opacity="0"/>
</linearGradient>
<radialGradient id="paint21_radial_938_23067" cx="0" cy="0" r="1" gradientTransform="matrix(6.03423 6.53685 7.672 -7.0813 62.3113 9.79817)" gradientUnits="userSpaceOnUse">
<stop offset="0.08" stop-color="#B2FFBF"/>
<stop offset="0.1647" stop-color="#9BECB2"/>
<stop offset="0.3654" stop-color="#6BC396"/>
<stop offset="0.5557" stop-color="#44A281"/>
<stop offset="0.7305" stop-color="#298B71"/>
<stop offset="0.884" stop-color="#187D67"/>
<stop offset="1" stop-color="#127864"/>
</radialGradient>
</defs>
</svg>
