<svg width="65" height="23" viewBox="0 0 65 23" fill="none" xmlns="http://www.w3.org/2000/svg">
<g id="R-ICO-014226">
<g id="ESCRT-I">
<path d="M1.01312 11.5C1.01312 5.97715 5.49027 1.5 11.0131 1.5H53.0131C58.536 1.5 63.0131 5.97715 63.0131 11.5C63.0131 17.0228 58.536 21.5 53.0131 21.5H11.0131C5.49028 21.5 1.01312 17.0228 1.01312 11.5Z" fill="url(#paint0_linear_938_23910)"/>
<path d="M47.7214 2.99266C35.4853 2.87443 23.2493 2.52283 11.0131 1.64001C11.0131 1.54664 11.0131 1.45328 11.0131 1.35991C23.2493 0.477089 35.4853 0.125486 47.7214 0.00726104C49.4853 -0.0036298 51.2492 -0.00163829 53.0131 0.00903296C58.0716 -0.0429289 62.7787 3.71084 63.9384 8.54079C64.1881 9.50891 64.3038 10.5066 64.287 11.5C64.331 17.5302 58.7399 22.6617 53.0137 22.2659C53.0135 22.2659 53.0133 22.2658 53.0131 22.2658C46.8952 22.0221 40.7768 21.8466 34.659 21.953C28.5409 22.056 22.4223 22.4645 16.3043 22.6648C14.5406 22.7118 12.7768 22.7378 11.0131 22.7474C6.05879 22.8544 1.40152 19.1447 0.312191 14.3992C0.0781282 13.448 -0.0236883 12.4707 0.00463235 11.5C0.0263413 5.60141 5.61591 0.751439 11.0131 1.35991C11.0131 1.45328 11.0131 1.54664 11.0131 1.64001C5.75736 1.98933 1.74062 6.74525 2.02148 11.5C2.04953 12.2963 2.17842 13.0801 2.40539 13.8333C3.49564 17.5913 7.17949 20.2872 11.0131 20.2527C12.7768 20.2623 14.5406 20.2883 16.3043 20.3353C22.4223 20.5356 28.5409 20.9428 34.659 21.0457C40.7768 21.1521 46.8951 20.978 53.0131 20.7342C53.0133 20.7342 53.0134 20.7342 53.0136 20.7342C57.9403 20.5967 61.9542 16.1227 61.7393 11.5C61.7228 10.7268 61.6079 9.96371 61.3967 9.22776C60.3774 5.55386 56.7429 2.90148 53.0131 2.99101C51.2492 3.00167 49.4853 3.00363 47.7214 2.99266Z" fill="#2A3ED1"/>
<text id="ESCRT-I_2" fill="white" xml:space="preserve" style="white-space: pre" font-family="Arial" font-size="12" font-weight="bold" letter-spacing="0em"><tspan x="8.33539" y="15.6602">ESCRT-I</tspan></text>
</g>
</g>
<defs>
<linearGradient id="paint0_linear_938_23910" x1="32.0131" y1="1.5" x2="32.0131" y2="21.5" gradientUnits="userSpaceOnUse">
<stop stop-color="#2A3ED1"/>
<stop offset="1" stop-color="#00FFD5"/>
</linearGradient>
</defs>
</svg>
