<svg width="90" height="23" viewBox="0 0 90 23" fill="none" xmlns="http://www.w3.org/2000/svg">
<g id="R-ICO-013674">
<g id="MAP3K16,17">
<path d="M0.867188 11.5C0.867188 5.97715 5.34434 1.5 10.8672 1.5H77.8672C83.39 1.5 87.8672 5.97715 87.8672 11.5C87.8672 17.0228 83.39 21.5 77.8672 21.5H10.8672C5.34434 21.5 0.867188 17.0228 0.867188 11.5Z" fill="url(#paint0_linear_938_23760)"/>
<path d="M60.0754 2.99266C43.6726 2.87443 27.27 2.52283 10.8672 1.64001C10.8672 1.54664 10.8672 1.45328 10.8672 1.35991C27.27 0.477089 43.6726 0.125486 60.0754 0.00726104C66.0059 -0.0200546 71.9366 0.033669 77.8672 0.102121C80.4545 0.118573 83.0226 1.06351 84.9949 2.7099C87.5958 4.8344 89.1338 8.17929 89.0509 11.5C89.0865 17.4744 83.5946 22.5939 77.8679 22.2659C77.8677 22.2659 77.8674 22.2658 77.8672 22.2658C69.666 22.0221 61.4641 21.8466 53.2631 21.953C45.0617 22.056 36.8596 22.4645 28.6582 22.6648C22.7279 22.7826 16.7976 22.7687 10.8672 22.6936C8.32574 22.6745 5.80799 21.7358 3.88647 20.1103C1.35503 18.0073 -0.111889 14.7255 0.00701004 11.5C0.0379453 5.68794 5.47484 0.874193 10.8672 1.35991C10.8672 1.45328 10.8672 1.54664 10.8672 1.64001C5.60657 1.86661 1.43723 6.6586 1.72722 11.5C1.80576 14.2216 3.1518 16.8094 5.25294 18.4267C6.85253 19.6757 8.86104 20.3417 10.8672 20.3065C16.7975 20.2314 22.7278 20.2175 28.6582 20.3353C36.8596 20.5356 45.0617 20.9428 53.2631 21.0457C61.4642 21.1521 69.6659 20.978 77.8672 20.7342C77.8674 20.7342 77.8676 20.7342 77.8678 20.7342C82.794 20.6643 86.9069 16.1783 86.6835 11.5C86.641 8.87417 85.3666 6.34989 83.3355 4.75405C81.7867 3.52535 79.828 2.86527 77.8672 2.89784C71.9366 2.96636 66.0058 3.02017 60.0754 2.99266Z" fill="#0053CC"/>
<text id="MAP3K16,17_2" fill="white" xml:space="preserve" style="white-space: pre" font-family="Arial" font-size="12" font-weight="bold" letter-spacing="0em"><tspan x="8.32617" y="15.6602">MAP3K16,17</tspan></text>
</g>
</g>
<defs>
<linearGradient id="paint0_linear_938_23760" x1="44.3672" y1="1.5" x2="44.3672" y2="21.5" gradientUnits="userSpaceOnUse">
<stop stop-color="#0053CC"/>
<stop offset="1" stop-color="#559645"/>
</linearGradient>
</defs>
</svg>
