<svg width="113" height="113" viewBox="0 0 113 113" fill="none" xmlns="http://www.w3.org/2000/svg">
<g id="R-ICO-014844">
<g id="CONTENT" opacity="0.8">
<g id="R-ICO-013121">
<path id="Vector" d="M56.5397 82.4149C74.2909 82.4149 88.6811 68.0248 88.6811 50.2736C88.6811 32.5225 74.2909 18.1323 56.5397 18.1323C38.7886 18.1323 24.3984 32.5225 24.3984 50.2736C24.3984 68.0248 38.7886 82.4149 56.5397 82.4149Z" fill="url(#paint0_radial_938_25828)"/>
<path id="Vector_2" d="M56.5398 83.5967C38.1649 83.5967 23.2168 68.6486 23.2168 50.2737C23.2168 31.8988 38.1649 16.9507 56.5398 16.9507C74.9147 16.9507 89.8628 31.8988 89.8628 50.2737C89.8628 68.6487 74.9147 83.5967 56.5398 83.5967ZM56.5398 19.3141C39.4647 19.3141 25.5801 33.1987 25.5801 50.2737C25.5801 67.3487 39.4647 81.2334 56.5398 81.2334C73.6149 81.2334 87.4995 67.3488 87.4995 50.2737C87.4995 33.1986 73.6149 19.3141 56.5398 19.3141Z" fill="#5656A5"/>
</g>
<g id="Group">
<path id="Vector_3" d="M63.5736 29.0588C62.979 30.7556 59.7701 31.1755 56.4063 29.9967C53.0425 28.8179 50.7977 26.4868 51.3923 24.79" stroke="#AABA11" stroke-width="3" stroke-miterlimit="10" stroke-linecap="round" stroke-linejoin="round"/>
<path id="Vector_4" d="M59.9704 38.817C59.6377 40.5839 56.5284 41.4815 53.0256 40.8218C49.5228 40.1621 46.953 38.195 47.2858 36.4282" stroke="#AABA11" stroke-width="3" stroke-miterlimit="10" stroke-linecap="round" stroke-linejoin="round"/>
<path id="Vector_5" d="M53.1358 56.2385C51.9975 57.6303 48.8382 56.9292 46.0791 54.6727C43.32 52.4162 42.0059 49.4586 43.1442 48.0669" stroke="#AABA11" stroke-width="3" stroke-miterlimit="10" stroke-linecap="round" stroke-linejoin="round"/>
<path id="Vector_6" d="M41.4288 63.5329C40.2906 64.9247 37.1311 64.2236 34.372 61.9671C31.6129 59.7106 30.2989 56.753 31.4372 55.3613" stroke="#AABA11" stroke-width="3" stroke-miterlimit="10" stroke-linecap="round" stroke-linejoin="round"/>
<path id="Vector_7" d="M28.6527 62.2475C28.0915 62.3037 27.5224 62.0398 27.2145 61.524C26.7895 60.8128 27.0219 59.8915 27.7331 59.4669C29.1162 58.6413 30.8772 57.8691 32.7409 57.0513C39.2898 54.178 47.4402 50.6024 48.4524 41.4186C49.623 30.7978 54.2272 21.7988 58.0024 19.2338C59.0735 18.5072 60.0959 18.2693 61.0391 18.5291C61.8378 18.7474 62.3077 19.5728 62.0889 20.3721C61.8696 21.1704 61.0447 21.6407 60.2454 21.4215C60.2312 21.4219 60.2161 21.4235 60.2011 21.4249C58.4865 21.5967 52.7751 29.5809 51.4347 41.7479C50.2323 52.6536 40.8194 56.7835 33.9461 59.7983C32.1703 60.5779 30.4929 61.3132 29.271 62.0432C29.0761 62.1599 28.865 62.2262 28.6527 62.2475Z" fill="url(#paint1_linear_938_25828)"/>
<path id="Vector_8" d="M33.9271 64.7343C33.3659 64.7905 32.7968 64.5266 32.4889 64.0108C32.0638 63.2996 32.2964 62.3783 33.0076 61.9537C34.3907 61.1281 36.1516 60.3559 38.0154 59.5382C44.5643 56.6649 52.7147 53.0893 53.7269 43.9055C54.8974 33.2847 59.5017 24.2856 63.2769 21.7206C64.348 20.994 65.3704 20.7561 66.3136 21.0159C67.1123 21.2343 67.5822 22.0598 67.3634 22.859C67.144 23.6573 66.3191 24.1276 65.5199 23.9084C65.5057 23.9088 65.4907 23.9103 65.4756 23.9117C63.761 24.0835 58.0496 32.0677 56.7092 44.2347C55.5068 55.1404 46.0939 59.2704 39.2206 62.2852C37.4448 63.0648 35.7675 63.8 34.5456 64.53C34.3507 64.6467 34.1394 64.713 33.9271 64.7343Z" fill="url(#paint2_linear_938_25828)"/>
<path id="Vector_9" d="M47.2861 36.4285C47.6188 34.6616 50.7281 33.764 54.2309 34.4237C57.7337 35.0834 60.3035 37.0505 59.9707 38.8173" stroke="#AABA11" stroke-width="3" stroke-miterlimit="10" stroke-linecap="round" stroke-linejoin="round"/>
<path id="Vector_10" d="M51.3926 24.79C51.9872 23.0932 55.1961 22.6733 58.5599 23.8521C61.9237 25.0309 64.1685 27.362 63.5739 29.0588" stroke="#AABA11" stroke-width="3" stroke-miterlimit="10" stroke-linecap="round" stroke-linejoin="round"/>
<path id="Vector_11" d="M43.1436 48.0669C44.2818 46.6751 47.4413 47.3762 50.2004 49.6327C52.9595 51.8892 54.2735 54.8468 53.1352 56.2385" stroke="#AABA11" stroke-width="3" stroke-miterlimit="10" stroke-linecap="round" stroke-linejoin="round"/>
<path id="Vector_12" d="M31.4375 55.3613C32.5758 53.9695 35.7352 54.6706 38.4943 56.9271C41.2534 59.1836 42.5674 62.1412 41.4291 63.5329" stroke="#AABA11" stroke-width="3" stroke-miterlimit="10" stroke-linecap="round" stroke-linejoin="round"/>
</g>
<g id="Group_2">
<path id="Vector_13" d="M81.9655 36.667C81.9655 38.324 78.7343 39.6672 74.7484 39.6672C70.7625 39.6672 67.5312 38.324 67.5312 36.667" stroke="#AABA11" stroke-width="3" stroke-miterlimit="10" stroke-linecap="round" stroke-linejoin="round"/>
<path id="Vector_14" d="M73.2154 59.7638C72.5103 61.1316 69.3616 61.7848 65.7593 61.2325C61.8194 60.6285 58.8291 58.8111 59.0802 57.1733" stroke="#AABA11" stroke-width="3" stroke-miterlimit="10" stroke-linecap="round" stroke-linejoin="round"/>
<path id="Vector_15" d="M72.3776 71.1318C72.5777 72.7766 69.5323 74.5002 65.5756 74.9815C62.1135 75.4026 59.1007 74.7331 58.2676 73.4573" stroke="#AABA11" stroke-width="3" stroke-miterlimit="10" stroke-linecap="round" stroke-linejoin="round"/>
<path id="Vector_16" d="M79.2344 47.9921C78.9833 49.6299 75.5859 50.468 71.646 49.8639C67.7061 49.2598 64.7158 47.4425 64.9669 45.8047" stroke="#AABA11" stroke-width="3" stroke-miterlimit="10" stroke-linecap="round" stroke-linejoin="round"/>
<path id="Vector_17" d="M63.2333 79.5448C62.6503 79.5448 62.0961 79.203 61.8529 78.6327C58.0438 69.6972 59.1405 61.1757 65.5194 50.1386C69.9535 42.4677 69.8998 40.2099 69.7699 34.7558C69.726 32.9296 69.6722 30.6562 69.7938 27.7685C69.8285 26.9414 70.516 26.2851 71.3553 26.333C72.1829 26.3682 72.826 27.0674 72.7908 27.8955C72.6736 30.6836 72.7239 32.8096 72.7688 34.6846C72.9045 40.3799 72.9729 43.2393 68.1169 51.6407C62.2639 61.7667 61.2155 69.4874 64.6125 77.4571C64.9372 78.2188 64.5827 79.0998 63.821 79.4249C63.6293 79.5069 63.4296 79.5448 63.2333 79.5448Z" fill="url(#paint3_linear_938_25828)"/>
<path id="Vector_18" d="M70.2333 79.5448C69.6503 79.5448 69.0961 79.203 68.8529 78.6327C65.0438 69.6972 66.1405 61.1757 72.5194 50.1386C76.9535 42.4677 76.8998 40.2099 76.7699 34.7558C76.726 32.9296 76.6722 30.6562 76.7938 27.7685C76.8285 26.9414 77.516 26.2851 78.3553 26.333C79.1829 26.3682 79.826 27.0674 79.7908 27.8955C79.6736 30.6836 79.7239 32.8096 79.7688 34.6846C79.9045 40.3799 79.9729 43.2393 75.1169 51.6407C69.2639 61.7667 68.2155 69.4874 71.6125 77.4571C71.9372 78.2188 71.5827 79.0998 70.821 79.4249C70.6293 79.5069 70.4295 79.5448 70.2333 79.5448Z" fill="url(#paint4_linear_938_25828)"/>
<path id="Vector_19" d="M64.9668 45.8047C65.2179 44.1669 68.6153 43.3289 72.5552 43.9329C76.4951 44.5369 79.4854 46.3543 79.2343 47.9921" stroke="#AABA11" stroke-width="3" stroke-miterlimit="10" stroke-linecap="round" stroke-linejoin="round"/>
<path id="Vector_20" d="M58.268 73.4573C58.149 73.275 58.0745 73.0804 58.0494 72.8748C57.8493 71.23 60.8947 69.5064 64.8514 69.0251C68.8081 68.5438 72.1779 69.487 72.378 71.1318" stroke="#AABA11" stroke-width="3" stroke-miterlimit="10" stroke-linecap="round" stroke-linejoin="round"/>
<path id="Vector_21" d="M67.5312 36.6672C67.5312 35.0102 70.7625 33.667 74.7484 33.667C78.7343 33.667 81.9655 35.0102 81.9655 36.6672" stroke="#AABA11" stroke-width="3" stroke-miterlimit="10" stroke-linecap="round" stroke-linejoin="round"/>
<path id="Vector_22" d="M59.0801 57.1734C59.3312 55.5356 62.7286 54.6975 66.6685 55.3016C70.6084 55.9057 73.5987 57.723 73.3476 59.3608C73.3261 59.5012 73.2815 59.6356 73.2154 59.7638" stroke="#AABA11" stroke-width="3" stroke-miterlimit="10" stroke-linecap="round" stroke-linejoin="round"/>
</g>
<g id="R-ICO-013391">
<path id="Vector_23" d="M98.9398 59.8047C99.4604 71.954 98.412 78.9645 91.0978 86.2421C82.1683 95.127 74.7484 98.4766 67.5312 98.096" stroke="#5B2C2C" stroke-miterlimit="10" stroke-linecap="round" stroke-linejoin="round" stroke-dasharray="4 4"/>
<path id="Vector_24" d="M106.969 69.9355C101.158 80.6176 96.6487 86.0869 86.6309 88.558C74.4007 91.5748 66.3154 90.6243 60.3252 86.5809" stroke="#5B2C2C" stroke-miterlimit="10" stroke-linecap="round" stroke-linejoin="round" stroke-dasharray="4 4"/>
<path id="Vector_25" d="M106.969 77.9072C101.626 87.2625 90.8145 88.4289 90.8145 88.4289" stroke="#5B2C2C" stroke-miterlimit="10" stroke-linecap="round" stroke-linejoin="round" stroke-dasharray="4 4"/>
<path id="Vector_26" d="M90.7535 87.2671C89.1646 97.9227 79.5107 102.928 79.5107 102.928" stroke="#5B2C2C" stroke-miterlimit="10" stroke-linecap="round" stroke-linejoin="round" stroke-dasharray="4 4"/>
</g>
<path id="CENTROSOME" d="M89.9381 90.6355C93.1055 90.6355 95.6731 88.0679 95.6731 84.9005C95.6731 81.7332 93.1055 79.1655 89.9381 79.1655C86.7708 79.1655 84.2031 81.7332 84.2031 84.9005C84.2031 88.0679 86.7708 90.6355 89.9381 90.6355Z" fill="url(#paint5_radial_938_25828)"/>
<g id="R-ICO-013391_2">
<path id="Vector_27" d="M17.9316 57.4346C16.8985 42.8278 15.859 36.681 19.9809 27.7279C24.3987 18.1322 31.0276 11.8487 40.4742 8.08301" stroke="#395B2C" stroke-miterlimit="10" stroke-linecap="round" stroke-linejoin="round" stroke-dasharray="4 4"/>
<path id="Vector_28" d="M9.71875 49.1098C13.3186 36.3031 15.9447 30.6659 22.4967 24.7902C29.5658 18.4508 39.0938 13.8781 47.2857 13.0381" stroke="#395B2C" stroke-miterlimit="10" stroke-linecap="round" stroke-linejoin="round" stroke-dasharray="4 4"/>
<path id="Vector_29" d="M6.76172 39.1859C6.76172 39.1859 8.32334 33.3615 16.898 26.0776" stroke="#395B2C" stroke-miterlimit="10" stroke-linecap="round" stroke-linejoin="round" stroke-dasharray="4 4"/>
<path id="Vector_30" d="M17.9922 24.2161C17.9922 24.2161 21.1048 13.8144 27.0017 11.0562" stroke="#395B2C" stroke-miterlimit="10" stroke-linecap="round" stroke-linejoin="round" stroke-dasharray="4 4"/>
</g>
<path id="CENTROSOME_2" d="M20.9342 32.6316C24.1016 32.6316 26.6692 30.064 26.6692 26.8966C26.6692 23.7293 24.1016 21.1616 20.9342 21.1616C17.7669 21.1616 15.1992 23.7293 15.1992 26.8966C15.1992 30.064 17.7669 32.6316 20.9342 32.6316Z" fill="url(#paint6_radial_938_25828)"/>
</g>
<g id="TOP" opacity="0.7">
<path id="BG" opacity="0.5" d="M56.3787 112.757C87.5158 112.757 112.757 87.5158 112.757 56.3787C112.757 25.2416 87.5158 0 56.3787 0C25.2416 0 0 25.2416 0 56.3787C0 87.5158 25.2416 112.757 56.3787 112.757Z" fill="url(#paint7_linear_938_25828)"/>
<path id="SHADOW" d="M56.3787 112.757C87.5158 112.757 112.757 87.5158 112.757 56.3787C112.757 25.2416 87.5158 0 56.3787 0C25.2416 0 0 25.2416 0 56.3787C0 87.5158 25.2416 112.757 56.3787 112.757Z" fill="url(#paint8_radial_938_25828)"/>
<path id="LIGHT" opacity="0.7" d="M56.3787 112.757C87.5158 112.757 112.757 87.5158 112.757 56.3787C112.757 25.2416 87.5158 0 56.3787 0C25.2416 0 0 25.2416 0 56.3787C0 87.5158 25.2416 112.757 56.3787 112.757Z" fill="url(#paint9_radial_938_25828)"/>
</g>
</g>
<defs>
<radialGradient id="paint0_radial_938_25828" cx="0" cy="0" r="1" gradientUnits="userSpaceOnUse" gradientTransform="translate(48.1823 36.8904) scale(42.2436)">
<stop stop-color="#AFBAF7"/>
<stop offset="0.3111" stop-color="#6D96CE"/>
<stop offset="0.8032" stop-color="#285FCC"/>
</radialGradient>
<linearGradient id="paint1_linear_938_25828" x1="25.1332" y1="42.2609" x2="63.9845" y2="38.368" gradientUnits="userSpaceOnUse">
<stop stop-color="#E36023"/>
<stop offset="0.0795" stop-color="#D7591F"/>
<stop offset="0.3452" stop-color="#B34613"/>
<stop offset="0.595" stop-color="#9A380A"/>
<stop offset="0.8204" stop-color="#8A2F05"/>
<stop offset="1" stop-color="#852C03"/>
</linearGradient>
<linearGradient id="paint2_linear_938_25828" x1="30.4076" y1="44.7477" x2="69.2589" y2="40.8548" gradientUnits="userSpaceOnUse">
<stop stop-color="#E36023"/>
<stop offset="0.0795" stop-color="#D7591F"/>
<stop offset="0.3452" stop-color="#B34613"/>
<stop offset="0.595" stop-color="#9A380A"/>
<stop offset="0.8204" stop-color="#8A2F05"/>
<stop offset="1" stop-color="#852C03"/>
</linearGradient>
<linearGradient id="paint3_linear_938_25828" x1="59.6563" y1="52.9377" x2="72.8091" y2="52.9377" gradientUnits="userSpaceOnUse">
<stop stop-color="#8776E3"/>
<stop offset="0.9995" stop-color="#170385"/>
</linearGradient>
<linearGradient id="paint4_linear_938_25828" x1="66.6563" y1="52.9377" x2="79.8091" y2="52.9377" gradientUnits="userSpaceOnUse">
<stop stop-color="#8776E3"/>
<stop offset="0.9995" stop-color="#170385"/>
</linearGradient>
<radialGradient id="paint5_radial_938_25828" cx="0" cy="0" r="1" gradientUnits="userSpaceOnUse" gradientTransform="translate(88.6019 82.4042) rotate(-90) scale(5.735)">
<stop stop-color="#A76B6B"/>
<stop offset="0.9995" stop-color="#5B2C2C"/>
</radialGradient>
<radialGradient id="paint6_radial_938_25828" cx="0" cy="0" r="1" gradientUnits="userSpaceOnUse" gradientTransform="translate(19.3075 24.6965) rotate(-90) scale(5.735)">
<stop stop-color="#87A76B"/>
<stop offset="0.9995" stop-color="#395B2C"/>
</radialGradient>
<linearGradient id="paint7_linear_938_25828" x1="56.3787" y1="0.472" x2="56.3787" y2="111.647" gradientUnits="userSpaceOnUse">
<stop stop-color="#998ABD"/>
<stop offset="0.5" stop-color="#70658A"/>
<stop offset="1" stop-color="#372E4A"/>
</linearGradient>
<radialGradient id="paint8_radial_938_25828" cx="0" cy="0" r="1" gradientUnits="userSpaceOnUse" gradientTransform="translate(40.1533 37.6347) scale(79.6634 79.6634)">
<stop offset="0.5669" stop-color="#CACACC" stop-opacity="0"/>
<stop offset="0.6219" stop-color="#BAB8BC" stop-opacity="0.1271"/>
<stop offset="0.7331" stop-color="#908791" stop-opacity="0.3838"/>
<stop offset="0.8886" stop-color="#4D3B4C" stop-opacity="0.7429"/>
<stop offset="1" stop-color="#1A0018"/>
</radialGradient>
<radialGradient id="paint9_radial_938_25828" cx="0" cy="0" r="1" gradientUnits="userSpaceOnUse" gradientTransform="translate(40.1533 37.6347) scale(79.6634 79.6634)">
<stop stop-color="#FDFDFF"/>
<stop offset="1" stop-color="#CACACC" stop-opacity="0"/>
</radialGradient>
</defs>
</svg>
