<svg width="79" height="33" viewBox="0 0 79 33" fill="none" xmlns="http://www.w3.org/2000/svg">
<g id="R-ICO-014619">
<g id="Group">
<path id="Vector" d="M67.8698 31.3362H11.4248C5.9248 31.3362 1.4248 26.8362 1.4248 21.3362V11.3362C1.4248 5.83618 5.9248 1.33618 11.4248 1.33618H67.8698C73.3698 1.33618 77.8698 5.83618 77.8698 11.3362V21.3362C77.8698 26.8362 73.3698 31.3362 67.8698 31.3362Z" fill="url(#paint0_linear_938_22843)"/>
<g id="Group_2">
<path id="Vector_2" d="M67.8695 31.4861C59.7168 31.4772 51.564 31.9159 43.4113 32.3233C35.2586 32.781 27.1058 32.8698 18.9531 32.9359L12.8385 32.9353L11.2917 32.9271C10.7009 32.904 10.1106 32.8746 9.52792 32.7625C8.36432 32.5626 7.22292 32.1913 6.18712 31.628C4.09352 30.5378 2.38012 28.7949 1.29032 26.7228C0.748223 25.6835 0.384823 24.5582 0.173323 23.4107L0.0505234 22.5436L0.0100234 21.6705C-0.0146766 21.078 0.0141234 20.6284 0.0135234 20.1004L0.101123 13.9858C0.133023 12.9441 0.123823 11.9982 0.189523 10.8779C0.241023 9.73194 0.502723 8.59894 0.914823 7.53674C2.50752 3.21494 6.98552 0.31984 11.4245 0.51494C19.5772 0.77624 27.73 0.96384 35.8827 0.84984C39.9591 0.80054 44.0354 0.65584 48.1118 0.50114L60.3409 0.0877402C62.3791 0.0550402 64.4173 -0.00575978 66.4555 0.000440215H67.9994C68.5772 0.0206402 69.155 0.0461402 69.7256 0.15344C70.8655 0.34274 71.9818 0.71104 72.9956 1.26164C74.0106 1.80654 74.9544 2.48414 75.7635 3.30044C76.5552 4.13294 77.2213 5.07464 77.7424 6.08924C78.254 7.10974 78.596 8.20954 78.76 9.32834L78.8532 10.1701L78.8661 11.014C78.8733 11.582 78.8277 12.0493 78.811 12.5719L78.5263 18.6865C78.4673 19.7146 78.4483 20.7045 78.3565 21.7639C78.287 22.8329 78.0241 23.8819 77.6224 24.8602C76.0492 28.8037 72.0421 31.5495 67.8695 31.4861ZM67.8695 31.1861C68.8741 31.1608 69.8705 31.0027 70.8272 30.7039C71.7757 30.3832 72.6802 29.9307 73.4854 29.34C75.0714 28.1409 76.3388 26.4842 76.8993 24.597C77.1963 23.6649 77.3623 22.692 77.3411 21.7225C77.3321 20.7458 77.2532 19.6961 77.2127 18.6865L76.928 12.5719C76.8981 12.0757 76.8955 11.5229 76.8431 11.0733L76.7707 10.3913L76.6316 9.72224C76.4018 8.84434 76.0941 7.99144 75.6424 7.21244C74.7245 5.66894 73.3793 4.39564 71.7932 3.60994C71.008 3.19594 70.1449 2.97024 69.2829 2.81224C68.8504 2.72394 68.4095 2.70634 67.9686 2.68374L66.4555 2.67194C64.4173 2.67814 62.3791 2.61734 60.3409 2.58464L48.1118 2.17124C44.0354 2.01654 39.9591 1.87174 35.8827 1.82254C27.73 1.70844 19.5772 1.89614 11.4245 2.15744C10.488 2.20904 9.56912 2.38274 8.69412 2.68324C7.82462 3.00174 7.01382 3.45434 6.28022 4.00124C5.53862 4.54164 4.92162 5.23164 4.38862 5.95974C3.84482 6.68424 3.42982 7.49894 3.15152 8.35074C2.86492 9.19894 2.69782 10.0877 2.70092 10.9803C2.68382 11.896 2.73442 12.9898 2.74782 13.9858L2.83542 20.1004C2.84812 20.5911 2.83382 21.1617 2.86872 21.5868L2.91342 22.2396L3.02292 22.8834C3.20522 23.7326 3.49152 24.56 3.91292 25.3202C4.76172 26.8343 6.06352 28.0914 7.61202 28.8451C8.37522 29.2464 9.21322 29.4691 10.0515 29.6165C10.4718 29.7 10.9002 29.7138 11.3281 29.7334L12.8383 29.7368L18.9529 29.7362C27.1056 29.8024 35.2584 29.8911 43.4111 30.3488C51.564 30.7563 59.7167 31.195 67.8695 31.1861Z" fill="#C2B605"/>
</g>
</g>
<g id="PANX1 HEPTAMER">
<text id="PANX1" fill="white" xml:space="preserve" style="white-space: pre" font-family="Arial" font-size="12" font-weight="bold" letter-spacing="0em"><tspan x="19.3936" y="12.6096">PANX1</tspan></text>
<text id="HEPTAMER" fill="white" xml:space="preserve" style="white-space: pre" font-family="Arial" font-size="12" font-weight="bold" letter-spacing="0em"><tspan x="5.73242" y="27.0095">HEPTAMER</tspan></text>
</g>
</g>
<defs>
<linearGradient id="paint0_linear_938_22843" x1="39.6473" y1="31.3362" x2="39.6473" y2="1.33618" gradientUnits="userSpaceOnUse">
<stop stop-color="#39A87A"/>
<stop offset="1" stop-color="#C2B605"/>
</linearGradient>
</defs>
</svg>
