<svg width="70" height="36" viewBox="0 0 70 36" fill="none" xmlns="http://www.w3.org/2000/svg">
<g id="R-ICO-013344">
<g id="BG">
<path id="Vector" d="M17.4762 0.406372C7.7124 0.406372 0 8.23067 0 17.8825C0 27.5344 7.6484 35.3587 17.4762 35.3587C27.304 35.3587 25.9836 29.3583 34.5062 29.3583C43.0288 29.3583 41.8844 35.3587 51.5362 35.3587C61.188 35.3587 69.0124 27.5344 69.0124 17.8825C69.0123 8.23067 61.2035 0.406372 51.5361 0.406372C41.8687 0.406372 43.5128 6.40677 34.5061 6.40677C25.4994 6.40677 27.24 0.406372 17.4762 0.406372Z" fill="url(#paint0_linear_938_24369)"/>
<path id="Vector_2" d="M17.4884 0C7.72461 0 0.012207 7.8243 0.012207 17.4761C0.012207 27.128 7.66061 34.9523 17.4884 34.9523C27.3162 34.9523 25.9958 28.9519 34.5184 28.9519C43.041 28.9519 41.8966 34.9523 51.5484 34.9523C61.2002 34.9523 69.0246 27.128 69.0246 17.4761C69.0245 7.8243 61.2157 0 51.5483 0C41.8809 0 43.525 6.0004 34.5183 6.0004C25.5116 6.0004 27.2522 0 17.4884 0Z" fill="url(#paint1_linear_938_24369)"/>
</g>
<text id="SEMA3A" fill="white" xml:space="preserve" style="white-space: pre" font-family="Arial" font-size="12" font-weight="bold" letter-spacing="0em"><tspan x="9.61426" y="22.1602">SEMA3A</tspan></text>
</g>
<defs>
<linearGradient id="paint0_linear_938_24369" x1="0" y1="17.8826" x2="69.0123" y2="17.8826" gradientUnits="userSpaceOnUse">
<stop stop-color="#300F0F"/>
<stop offset="0.0425" stop-color="#5D1212"/>
<stop offset="0.085" stop-color="#831414"/>
<stop offset="0.1273" stop-color="#A01616"/>
<stop offset="0.1692" stop-color="#B41717"/>
<stop offset="0.2103" stop-color="#C11818"/>
<stop offset="0.25" stop-color="#C51818"/>
<stop offset="0.2815" stop-color="#BC1717"/>
<stop offset="0.3329" stop-color="#A41616"/>
<stop offset="0.3978" stop-color="#7C1414"/>
<stop offset="0.4729" stop-color="#451010"/>
<stop offset="0.5" stop-color="#300F0F"/>
<stop offset="0.5271" stop-color="#451010"/>
<stop offset="0.6022" stop-color="#7C1414"/>
<stop offset="0.6671" stop-color="#A41616"/>
<stop offset="0.7185" stop-color="#BC1717"/>
<stop offset="0.75" stop-color="#C51818"/>
<stop offset="0.7897" stop-color="#C11818"/>
<stop offset="0.8308" stop-color="#B41717"/>
<stop offset="0.8727" stop-color="#A01616"/>
<stop offset="0.915" stop-color="#831414"/>
<stop offset="0.9575" stop-color="#5D1212"/>
<stop offset="1" stop-color="#300F0F"/>
</linearGradient>
<linearGradient id="paint1_linear_938_24369" x1="34.5184" y1="34.9523" x2="34.5184" y2="0" gradientUnits="userSpaceOnUse">
<stop stop-color="#300F0F"/>
<stop offset="0.0687" stop-color="#491212" stop-opacity="0.8695"/>
<stop offset="0.1501" stop-color="#5E1515" stop-opacity="0.7149"/>
<stop offset="0.2403" stop-color="#6D1717" stop-opacity="0.5434"/>
<stop offset="0.3453" stop-color="#761818" stop-opacity="0.3439"/>
<stop offset="0.5" stop-color="#791818" stop-opacity="0.05"/>
<stop offset="0.6547" stop-color="#761818" stop-opacity="0.3439"/>
<stop offset="0.7597" stop-color="#6D1717" stop-opacity="0.5434"/>
<stop offset="0.8499" stop-color="#5E1515" stop-opacity="0.7149"/>
<stop offset="0.9313" stop-color="#491212" stop-opacity="0.8695"/>
<stop offset="1" stop-color="#300F0F"/>
</linearGradient>
</defs>
</svg>
