<svg width="106" height="23" viewBox="0 0 106 23" fill="none" xmlns="http://www.w3.org/2000/svg">
<g id="R-ICO-013189">
<g id="PLASMINOGEN">
<path d="M0.791992 11.5C0.791992 5.97715 5.26915 1.5 10.792 1.5H94.792C100.315 1.5 104.792 5.97715 104.792 11.5C104.792 17.0228 100.315 21.5 94.792 21.5H10.792C5.26915 21.5 0.791992 17.0228 0.791992 11.5Z" fill="url(#paint0_linear_938_23510)"/>
<path d="M68.5002 2.99266C49.2641 2.87443 30.0281 2.52283 10.792 1.64001C10.792 1.54664 10.792 1.45328 10.792 1.35991C30.0281 0.477089 49.2641 0.125486 68.5002 0.00726104C77.2639 -0.0271591 86.0281 0.0670971 94.792 0.157355C95.7599 0.165928 96.7268 0.297445 97.6607 0.550635C102.515 1.78891 106.094 6.57691 105.928 11.5C105.967 17.4459 100.52 22.5652 94.7929 22.2659C94.7926 22.2659 94.7923 22.2658 94.792 22.2658C85.1742 22.0221 75.5555 21.8466 65.9379 21.953C56.3199 22.056 46.701 22.4645 37.083 22.6648C28.3194 22.8132 19.5557 22.7526 10.792 22.6237C9.84274 22.6114 8.89586 22.4778 7.98289 22.2249C3.23535 20.9787 -0.208214 16.2664 0.00983733 11.5C0.0361101 5.73319 5.4005 0.927117 10.792 1.35991C10.792 1.45328 10.792 1.54664 10.792 1.64001C5.53051 1.8137 1.2887 6.61333 1.574 11.5C1.64778 15.5799 4.69904 19.2534 8.53102 20.127C9.2705 20.3061 10.0309 20.3891 10.792 20.3764C19.5556 20.2475 28.3192 20.1869 37.083 20.3353C46.701 20.5356 56.3199 20.9428 65.9379 21.0457C75.5557 21.1521 85.1741 20.978 94.792 20.7342C94.7922 20.7342 94.7925 20.7342 94.7928 20.7342C99.7183 20.693 103.876 16.2067 103.656 11.5C103.634 7.5775 100.719 3.9801 96.9949 3.09795C96.2759 2.9188 95.535 2.83365 94.792 2.84257C86.0282 2.93287 77.2639 3.02733 68.5002 2.99266Z" fill="#B79C2A"/>
<text id="PLASMINOGEN_2" fill="white" xml:space="preserve" style="white-space: pre" font-family="Arial" font-size="12" font-weight="bold" letter-spacing="0em"><tspan x="8.10254" y="15.6602">PLASMINOGEN</tspan></text>
</g>
</g>
<defs>
<linearGradient id="paint0_linear_938_23510" x1="52.792" y1="1.5" x2="52.792" y2="21.5" gradientUnits="userSpaceOnUse">
<stop stop-color="#BB4C4F"/>
<stop offset="1" stop-color="#B79C2A"/>
</linearGradient>
</defs>
</svg>
