<svg width="124" height="125" viewBox="0 0 124 125" fill="none" xmlns="http://www.w3.org/2000/svg">
<g id="R-ICO-012572">
<path id="BG" d="M111.94 59.8563C111.728 54.6568 110.709 49.5443 108.908 44.6607L108.882 44.591C107.399 40.5864 105.391 36.772 102.936 33.3018C102.909 33.1679 102.835 33.0941 102.777 33.0555L102.775 33.0546C100.632 30.0385 98.1515 27.2575 95.4359 24.8344C95.3966 24.7374 95.3222 24.6621 95.2456 24.6308L95.2176 24.6254C88.8897 18.9962 81.2134 15.0468 72.9818 13.1934C72.0002 12.975 70.978 12.7809 69.9435 12.6167C69.569 12.5576 69.1872 12.6687 68.9008 12.9235C68.5119 13.2695 67.9333 13.786 67.8374 13.8778L66.4111 15.2438C66.3469 15.3056 66.2673 15.3503 66.1807 15.373L60.5621 16.8408C60.4601 16.8692 60.3303 16.8598 60.2315 16.8183L56.6443 15.2381C56.3994 15.1348 56.031 14.9779 55.2264 15.2574L51.5615 16.5026C51.5165 16.515 51.456 16.5317 51.3209 16.5781C50.9863 16.6928 50.8455 17.1334 50.727 17.5887L49.6858 20.3683C49.6284 20.5223 49.4997 20.6418 49.3413 20.6877L45.0875 21.9235C44.9201 21.9713 44.714 21.9261 44.5814 21.8L42.6596 19.9711C42.2433 19.5689 41.6985 19.4985 41.3022 19.7988L39.278 21.3327C39.0068 21.5384 38.6556 21.6053 38.3254 21.5171C37.9941 21.4269 37.7293 21.193 37.5986 20.8757L37.0754 19.6714C37.0682 19.655 37.0595 19.6397 37.0488 19.6255C36.8039 19.2856 36.3365 19.1919 35.9834 19.4125C34.5031 20.3337 32.3054 21.7918 30.2921 23.4804C30.1767 23.5144 30.0893 23.5898 30.0804 23.6457C24.4066 28.4051 19.7815 34.4712 16.7056 41.1868L16.6191 41.3733C15.8666 43.0344 15.2095 44.7155 14.6729 46.3522C14.6701 46.3579 14.6453 46.4201 14.643 46.4262C13.8154 48.9631 13.188 51.5989 12.778 54.2599C12.2843 57.4728 12.0999 60.7201 12.2297 63.9122C12.5861 72.6728 15.2658 81.2134 19.9604 88.5634C19.977 88.6613 20.029 88.7446 20.0796 88.7709C20.9087 90.0608 21.8076 91.3282 22.7527 92.537C22.8327 92.6389 22.9773 92.6654 23.0874 92.6002C23.1995 92.5345 23.2454 92.3961 23.1946 92.2768C23.0446 91.9214 23.1609 91.5597 23.3203 91.3394C23.562 91.004 24.0347 90.7795 24.5498 91.0376L29.3595 93.4356C30.1878 93.8483 30.5827 94.8187 30.279 95.6926L29.8236 97.0009C29.7086 97.3317 29.4359 97.5753 29.0922 97.653C28.7501 97.7311 28.4011 97.6295 28.1538 97.3792L23.6487 92.8352C23.5517 92.737 23.3953 92.7338 23.2923 92.8244C23.1899 92.9165 23.177 93.0728 23.2638 93.1795C25.0473 95.3852 27.0345 97.4561 29.1359 99.2848C29.1781 99.3908 29.2577 99.4694 29.3449 99.4998L29.3722 99.5118C32.6628 102.375 36.2782 104.785 40.1095 106.673C40.1737 106.722 40.2294 106.737 40.2471 106.736C44.4219 108.778 48.8748 110.222 53.4602 111.024C53.4673 111.025 53.52 111.039 53.5271 111.04C55.8998 111.448 58.3328 111.688 60.7561 111.751L61.0447 111.761C62.2085 111.784 63.1835 111.777 64.1133 111.74C68.6031 111.557 73.0614 110.761 77.3327 109.381C77.3581 109.383 77.3833 109.381 77.4078 109.376C77.4369 109.37 77.4892 109.351 77.5144 109.336L77.517 109.325C79.9994 108.516 82.4326 107.505 84.7101 106.332C84.7764 106.321 84.8708 106.292 84.9056 106.24C89.0251 104.113 92.8366 101.412 96.2345 98.2137L96.2777 98.1942C96.3 98.1842 96.3212 98.1707 96.3403 98.1542C96.3808 98.1187 96.3967 98.0877 96.4059 98.0524C98.4523 96.1081 100.33 94.0033 101.944 91.8339C101.976 91.8159 102.033 91.7585 102.056 91.7282C102.059 91.723 102.113 91.6237 102.117 91.6175C104.809 88.0002 106.997 84.0434 108.619 79.8619L108.657 79.7688C110.333 75.4223 111.385 70.8448 111.785 66.1645L111.528 66.1426L111.791 66.0924C111.971 63.9508 112.021 61.8526 111.94 59.8563ZM108.548 46.4176C108.55 46.4175 108.552 46.4174 108.554 46.4173C108.631 46.4187 108.733 46.497 108.782 46.6452C110.18 50.9218 110.981 55.3773 111.165 59.8878C111.213 61.0775 111.217 62.2897 111.177 63.4912C111.17 63.7332 111.044 63.9046 110.932 63.9244L110.976 64.1789L110.914 63.9261C110.814 63.9301 110.749 63.7857 110.731 63.7414C110.557 63.3016 110.142 62.5009 110.017 62.2628C109.958 62.1403 109.919 62.0181 109.897 61.888L107.73 48.9167C107.693 48.6953 107.712 48.466 107.784 48.2512C107.784 48.2512 108.106 47.2739 108.307 46.7046C108.345 46.5987 108.426 46.4225 108.548 46.4176ZM104.908 63.8265C104.512 63.6626 104.22 63.3312 104.109 62.9171L102.614 57.3653C102.591 57.2793 102.577 57.1904 102.571 57.1016L101.86 46.5732C101.839 46.2641 101.995 45.9807 102.268 45.8331C102.542 45.6854 102.866 45.7107 103.112 45.8958L106.481 48.4333C106.762 48.6453 106.949 48.9537 107.008 49.3012L108.973 61.0653C109.066 61.6242 108.799 62.1907 108.309 62.4751L106.117 63.7458C105.75 63.9586 105.303 63.9895 104.908 63.8265ZM99.7581 77.1936L94.4964 76.7595C93.9176 76.7118 93.4307 76.3028 93.284 75.741L91.1467 67.5453C91.0515 67.1811 91.1124 66.7888 91.3138 66.4692L95.6256 59.6473C95.8189 59.3416 96.1187 59.1282 96.4698 59.0462L100.628 58.0666C100.717 58.0453 100.805 58.0331 100.893 58.0295C101.519 58.004 102.093 58.412 102.263 59.0431L103.837 64.89C103.897 65.1141 103.899 65.3521 103.843 65.5774L101.199 76.1614C101.036 76.8114 100.44 77.2518 99.7581 77.1936ZM83.365 96.5759L77.8328 95.1214C77.3693 94.9992 76.9986 94.6376 76.8657 94.1779L74.1687 84.8528C73.9886 84.2291 74.2753 83.5592 74.8506 83.2587L81.117 79.9915C81.3017 79.8955 81.4988 79.844 81.6967 79.836C82.0354 79.8222 82.3737 79.9359 82.6431 80.1686L86.7918 83.7432C87.015 83.9353 87.1674 84.189 87.2332 84.4771L88.7795 91.2928C88.8855 91.7597 88.7446 92.2382 88.4033 92.5726L84.6716 96.2297C84.3325 96.5598 83.8233 96.6938 83.365 96.5759ZM72.7321 100.932C72.3761 101.031 71.9939 100.98 71.6743 100.793L67.9106 98.5787C67.5076 98.3413 67.2564 97.9213 67.2374 97.4549L66.8122 87.0024C66.804 86.802 66.8408 86.5988 66.9187 86.4141L68.1814 83.4242C68.4687 82.7436 69.237 82.4151 69.9287 82.6777L72.4398 83.6312C72.8398 83.7828 73.1493 84.1186 73.2681 84.5298L76.1967 94.6535C76.2974 95.0033 76.2563 95.3721 76.0812 95.6921L73.5676 100.271C73.3884 100.599 73.0921 100.834 72.7321 100.932ZM61.7132 105.581L55.236 104.622C55.0346 104.592 54.8857 104.449 54.8472 104.25C54.8087 104.05 54.8941 103.863 55.0695 103.76L59.7485 101.019L66.0636 99.0852C66.555 98.9343 67.0945 98.9983 67.5389 99.2593L70.3086 100.888C70.6469 101.088 70.8357 101.455 70.8006 101.846C70.766 102.237 70.5159 102.564 70.1473 102.7L62.6241 105.485C62.3366 105.592 62.0214 105.626 61.7132 105.581ZM53.4461 103.811C52.9987 104.073 52.4425 104.133 51.9476 103.974L49.8788 103.305C48.9945 103.02 48.4598 102.116 48.635 101.204L49.2486 97.9915C49.3948 97.2236 50.0128 96.6297 50.7852 96.5138L54.7872 95.9117C55.4984 95.7963 56.216 96.1236 56.6094 96.734L58.0139 98.9075C58.2896 99.3346 58.377 99.8422 58.2591 100.336C58.1412 100.831 57.8344 101.244 57.3959 101.501L53.4461 103.811ZM37.7306 94.4977L33.1835 93.8449C32.3042 93.7184 31.6392 92.9815 31.6031 92.0936L31.4981 89.5123C31.4682 88.7774 31.8768 88.0959 32.5393 87.7762L38.8962 84.708C39.1283 84.5964 39.3756 84.5358 39.6249 84.5257C39.9156 84.5139 40.2082 84.5712 40.4798 84.6982L42.9228 85.8401C43.4387 86.081 43.8092 86.5377 43.9384 87.0931C44.0672 87.6486 43.9363 88.2217 43.5792 88.6659L39.4309 93.8269C39.0291 94.3275 38.3845 94.5894 37.7306 94.4977ZM25.4391 75.9267C24.8713 76.149 24.2329 76.0921 23.7133 75.7714L22.5786 75.0708C22.0512 74.7459 21.7088 74.183 21.6624 73.565L21.0784 65.7455C21.0338 65.1462 21.275 64.5499 21.7239 64.1509L23.0111 63.007C23.4112 62.6515 23.9274 62.4778 24.4627 62.5238C24.9979 62.5688 25.4775 62.8248 25.8136 63.2439L28.1321 66.1361C28.5215 66.6228 28.654 67.2712 28.4873 67.871L26.6008 74.6408C26.4352 75.2335 26.0119 75.7022 25.4391 75.9267ZM19.0604 78.1853C18.7485 78.2369 18.4385 78.1348 18.227 77.9068L15.075 74.5105C14.6948 74.1008 14.51 73.5471 14.5683 72.9916L15.4446 64.5292C15.467 64.3104 15.5844 64.113 15.7664 63.9883C15.8835 63.9077 16.0192 63.8633 16.158 63.8576C16.2337 63.8545 16.3109 63.863 16.3861 63.8837L18.9146 64.5691C19.707 64.7846 20.2803 65.4787 20.3409 66.2968L20.9353 74.2478C20.9578 74.5533 20.9072 74.8627 20.7897 75.1431L19.743 77.6383C19.6222 77.9263 19.3666 78.1309 19.0604 78.1853ZM15.9798 52.7802C16.0102 51.9988 16.5304 51.3128 17.2745 51.0732L20.6337 49.9926C20.7964 49.9405 20.9611 49.912 21.1246 49.9054C21.9373 49.8723 22.7116 50.3773 22.9785 51.1819L23.8239 53.7306C23.8792 53.8962 23.9105 54.0689 23.9175 54.243L24.1532 60.0381C24.1761 60.5999 23.9481 61.1365 23.528 61.51L21.2595 63.5261C20.7945 63.9399 20.1314 64.0948 19.5302 63.9327L17.0292 63.2543C16.1847 63.0257 15.6184 62.2555 15.6516 61.381L15.9798 52.7802ZM18.1067 40.7935L26.818 31.246C27.0184 31.0265 27.2933 30.9001 27.5831 30.8883C27.6558 30.8853 27.7293 30.8894 27.8031 30.9016C28.1695 30.96 28.4795 31.1977 28.6323 31.5363L29.3027 33.0263C29.3994 33.2418 29.4241 33.4875 29.3723 33.7182L26.8245 45.0126C26.7662 45.2693 26.6187 45.4962 26.4081 45.6524L23.5952 47.7457C23.1266 48.0949 22.4109 47.989 22.063 47.5269L18.0416 42.1962C17.7228 41.7733 17.7499 41.1837 18.1067 40.7935ZM30.1447 33.8186C30.1892 33.6191 30.2889 33.4361 30.4336 33.2896L33.845 29.8271C34.0421 29.627 34.3049 29.5116 34.5815 29.5004C34.6284 29.4985 34.6755 29.4996 34.7227 29.5038C35.0505 29.5324 35.3457 29.7045 35.5326 29.9749L38.4945 34.2784C38.6122 34.4501 38.679 34.6501 38.6874 34.857L38.9967 42.4607C39.0077 42.7312 38.9189 42.9957 38.7464 43.205L36.0508 46.4675C35.7954 46.7762 35.3813 46.925 34.9852 46.845L28.6468 45.5577C28.3552 45.4983 28.1051 45.328 27.9432 45.0777C27.7809 44.828 27.7278 44.5303 27.7933 44.2395L30.1447 33.8186ZM56.6408 29.5167C56.9891 29.5025 57.3407 29.5818 57.6541 29.7541L61.554 31.8984C61.9868 32.1356 62.3355 32.5158 62.5359 32.9682L64.4546 37.3055C64.7803 38.041 64.6245 38.8856 64.0577 39.4568L59.9575 43.5879C59.4024 44.1474 58.5411 44.3159 57.813 44.0028L52.2223 41.5951C51.5409 41.3008 51.0815 40.6323 51.0513 39.8919L50.8061 33.8651C50.7769 33.1478 51.1435 32.4767 51.7632 32.1132L55.7384 29.781C56.0164 29.6179 56.3273 29.5294 56.6408 29.5167ZM59.834 24.0953L68.4705 26.3432C68.6652 26.3939 68.8153 26.5547 68.8527 26.7524L69.5989 30.7152C69.6272 30.8647 69.589 31.0185 69.4942 31.1376C69.3999 31.2562 69.2583 31.3282 69.1063 31.3344L63.0593 31.5804C62.7721 31.5921 62.4862 31.5248 62.2339 31.3865L57.2423 28.6419C57.1058 28.5666 57.0105 28.437 56.981 28.2845L56.4571 25.6348C56.4068 25.379 56.5546 25.1227 56.8014 25.0389L59.5336 24.1067C59.5815 24.0901 59.6311 24.081 59.6811 24.079C59.7321 24.0767 59.7834 24.0822 59.834 24.0953ZM76.3926 27.6237C76.6826 27.6685 76.9632 27.781 77.2041 27.9481L81.561 30.9743C82.1781 31.4027 82.4939 32.1579 82.3653 32.8982L81.8509 35.8753C81.6794 36.8682 80.737 37.5886 79.7196 37.4722L78.1272 37.2902C77.7554 37.2477 77.4066 37.1001 77.1179 36.8631L71.0776 31.9164C70.7245 31.6269 70.4841 31.2211 70.4007 30.7745L69.9138 28.1885C69.843 27.8142 69.9542 27.4421 70.2191 27.1684C70.4297 26.9505 70.7058 26.8281 71.0001 26.8161C71.0748 26.8131 71.1513 26.817 71.2281 26.8286L76.3926 27.6237ZM78.2591 21.6915C78.3113 21.3587 78.4922 21.0697 78.769 20.8775C78.9628 20.7437 79.1852 20.6695 79.4149 20.6601C79.5128 20.6561 79.6128 20.6642 79.7116 20.6839L87.1854 22.2157C87.5285 22.2857 87.8254 22.5006 88.0002 22.806L90.6146 27.3804C90.9428 27.9545 90.748 28.6966 90.1809 29.0352L88.3852 30.1083C88.2539 30.1864 88.1119 30.2387 87.9638 30.264L83.5854 31.0099C83.2655 31.0639 82.9467 30.9929 82.6823 30.809L78.0335 27.5793C77.6516 27.3137 77.451 26.8456 77.5234 26.3866L78.2591 21.6915ZM91.5403 29.3808C91.936 29.3647 92.3346 29.4804 92.6676 29.7253L100.194 35.2507C100.65 35.586 100.923 36.125 100.922 36.6913L100.915 42.1879C100.915 42.3846 100.804 42.5589 100.628 42.644C100.628 42.644 100.627 42.644 100.626 42.6446C100.453 42.7285 100.244 42.7051 100.092 42.5829L96.0883 39.381C95.9927 39.3045 95.9036 39.2166 95.8244 39.1207L90.2261 32.2995C89.8963 31.8983 89.7582 31.3741 89.847 30.8613C89.9364 30.3495 90.2433 29.9028 90.69 29.6353C90.9542 29.4769 91.2466 29.3927 91.5403 29.3808ZM95.3889 56.6754L92.9826 49.2764C92.8492 48.8677 92.8567 48.4195 93.0041 48.0141L95.2603 41.8052C95.3981 41.426 95.7001 41.1457 96.0901 41.0363C96.1861 41.0091 96.283 40.9936 96.3794 40.9896C96.6717 40.9777 96.9586 41.0712 97.1959 41.2618L100.259 43.7112C100.682 44.0494 100.946 44.5539 100.983 45.0954L101.675 55.3545C101.739 56.306 101.112 57.1551 100.184 57.3733L97.6776 57.9637C96.6825 58.1997 95.6929 57.611 95.3889 56.6754ZM90.3541 65.2371C89.7791 65.3201 89.2129 65.1359 88.7881 64.7482L86.2699 62.4521C86.0084 62.214 85.8176 61.9093 85.7168 61.5701L83.2625 53.2877C83.0937 52.7187 83.1914 52.1121 83.5316 51.625L85.867 48.2826C86.2216 47.7762 86.7904 47.4801 87.3835 47.456C87.6207 47.4463 87.8618 47.48 88.0941 47.5611L91.1465 48.6215C91.7158 48.8198 92.1673 49.2802 92.3539 49.8541L94.9746 57.9133C95.1542 58.4632 95.0794 59.0598 94.7702 59.5496L91.7353 64.3508C91.4274 64.8375 90.9238 65.1603 90.3541 65.2371ZM72.7979 82.9366L69.2643 81.5944C68.9413 81.472 68.6783 81.234 68.5241 80.9238L64.343 72.5013C64.0374 71.8858 64.2384 71.1349 64.8104 70.7537L71.1906 66.5061C71.4018 66.3655 71.6433 66.288 71.8917 66.2779C71.9901 66.2739 72.09 66.2804 72.1893 66.2981L77.4476 67.2339C77.961 67.3258 78.3836 67.709 78.5248 68.2104L81.2337 77.8288C81.4086 78.4486 81.1207 79.1151 80.5494 79.4128L73.9167 82.8714C73.5715 83.0492 73.161 83.075 72.7979 82.9366ZM59.0169 99.03L56.5468 95.2071L56.9542 86.8386C56.9896 86.1172 57.446 85.4793 58.1162 85.2134L61.6608 83.8073C62.3739 83.526 63.173 83.7064 63.6944 84.2686L65.5647 86.2852C65.8625 86.6073 66.0367 87.0259 66.0546 87.4645L66.4312 96.7223C66.4652 97.5592 65.9292 98.3151 65.1283 98.5611L61.1059 99.793C60.9576 99.8385 60.8029 99.8645 60.6459 99.8709L60.6444 99.871C59.9931 99.8973 59.3692 99.5754 59.0169 99.03ZM55.8546 93.4672C55.8123 94.3421 55.1529 95.0712 54.2865 95.2015L50.9141 95.7093C50.0407 95.8409 49.1986 95.3225 48.9058 94.5134L46.5839 88.0953C46.3094 87.337 46.5543 86.4973 47.1941 86.0056L50.4029 83.5392C50.7137 83.3006 51.0806 83.1724 51.4526 83.1572C51.7948 83.1433 52.1415 83.2252 52.4522 83.4057L55.2659 85.0371C55.865 85.3843 56.2164 86.0303 56.1828 86.7223L55.8546 93.4672ZM44.5458 85.7417L40.8592 84.0189C40.3237 83.7687 39.9359 83.295 39.7957 82.7193L37.5835 73.6156C37.3806 72.7785 37.7431 71.9219 38.4853 71.4853L43.3733 68.6114C43.9075 68.2964 44.5658 68.259 45.1336 68.5069L50.3012 70.7675C51.0363 71.089 51.5022 71.8426 51.461 72.6436L51.0209 81.2272C50.9919 81.7957 50.7165 82.32 50.2659 82.6665L46.5502 85.5226C45.9824 85.9588 45.1967 86.0453 44.5458 85.7417ZM27.5453 46.1804C27.6937 46.1744 27.8438 46.186 27.9922 46.2158L33.8865 47.4124C34.7588 47.5898 35.3879 48.3645 35.3827 49.2551L35.3561 53.2994C35.3517 54.0115 34.9325 54.6691 34.2887 54.9744L30.1757 56.9259C29.5309 57.2317 28.7233 57.1291 28.1737 56.6676L25.0301 54.0238C24.7657 53.801 24.5683 53.5102 24.4595 53.183L23.5243 50.3639C23.2697 49.5977 23.5339 48.7593 24.1822 48.2779L26.5058 46.5483C26.8088 46.3221 27.1723 46.1956 27.5453 46.1804ZM24.9418 60.3337L24.775 56.2325C24.7645 55.9736 24.9022 55.742 25.1357 55.6278C25.219 55.5865 25.3076 55.5647 25.3954 55.5611C25.5514 55.5548 25.7067 55.6066 25.8339 55.7131L27.9965 57.5322C28.4111 57.8809 28.6533 58.3908 28.6621 58.9304L28.7525 64.3962C28.7559 64.5927 28.6433 64.7561 28.4589 64.8227C28.2759 64.8858 28.0806 64.8315 27.9607 64.6822L25.3508 61.4257C25.0994 61.112 24.9581 60.734 24.9418 60.3337ZM29.5497 65.6512L29.4453 59.3431C29.4328 58.6125 29.8513 57.9382 30.5115 57.6247L35.7336 55.1477L41.6762 57.9785C42.2505 58.2519 42.6426 58.7911 42.7248 59.4213L43.6207 66.2447C43.7187 66.9895 43.3636 67.7168 42.7162 68.0976L37.8356 70.9672C37.2307 71.3235 36.4146 71.2955 35.8358 70.8994L30.3634 67.1622C29.8637 66.821 29.5597 66.2565 29.5497 65.6512ZM40.0647 43.805C40.2994 43.7955 40.538 43.8302 40.7673 43.9124L45.1663 45.4884C45.8215 45.7226 46.2892 46.2967 46.3866 46.9864L47.2336 53.018C47.3241 53.6635 47.0661 54.3186 46.5605 54.7285L43.8107 56.9573C43.2679 57.397 42.4598 57.4931 41.8323 57.1925L37.1962 54.9841C36.545 54.6739 36.1271 54.0073 36.1311 53.2862L36.1642 48.2077C36.1675 47.7788 36.3193 47.3606 36.5921 47.0305L38.6979 44.4816C39.0423 44.0645 39.5443 43.8262 40.0647 43.805ZM48.8513 55.0014L53.2422 56.5135C53.9601 56.7604 54.4531 57.4097 54.4981 58.1678L54.9084 65.0484C54.9317 65.4474 54.8302 65.8358 54.6143 66.1706L52.6442 69.2317C52.1597 69.986 51.157 70.2943 50.3257 69.9317L45.522 67.8302C44.9259 67.5698 44.5036 67.0071 44.4193 66.3623L43.4988 59.3558C43.4152 58.7171 43.6739 58.068 44.1742 57.6624L47.0673 55.3166C47.5723 54.9068 48.2374 54.7878 48.8513 55.0014ZM63.7225 32.7339C63.8844 32.4745 64.1629 32.312 64.4688 32.2996L69.3064 32.1028C69.7819 32.0835 70.2463 32.239 70.6145 32.5405L75.5042 36.5451C76.2892 37.1881 76.4489 38.3041 75.8758 39.1414L74.7776 40.7443C74.2522 41.5129 73.2043 41.8028 72.3549 41.4056L66.406 38.6196C65.9818 38.4215 65.6442 38.0767 65.4544 37.6481L63.6616 33.5964C63.5379 33.3158 63.5607 32.9933 63.7225 32.7339ZM76.9296 38.9741C77.2794 38.4639 77.8443 38.1568 78.4516 38.1321C78.5505 38.1281 78.6503 38.1316 78.7503 38.1427L80.6216 38.3563C81.2438 38.4271 81.7968 38.7974 82.1003 39.3458L85.5176 45.5348C85.8724 46.1771 85.8303 46.9817 85.4098 47.5838L83.1117 50.8726C82.6855 51.483 81.9017 51.8016 81.1693 51.6696L77.2509 50.9472C76.4613 50.8014 75.8518 50.1977 75.6984 49.4091L74.5475 43.4763C74.4496 42.9701 74.5598 42.4363 74.8509 42.0114L76.9296 38.9741ZM83.1038 33.1908C83.2433 32.3817 83.8803 31.7461 84.6887 31.609L87.0592 31.2057C87.1425 31.1912 87.2261 31.1822 87.3094 31.1788C87.909 31.1544 88.4949 31.4132 88.8833 31.8868L94.5279 38.7643C94.9604 39.2907 95.0844 40.0158 94.8516 40.6572L92.7846 46.3453C92.519 47.0756 91.8149 47.5881 91.0325 47.6199C90.7907 47.6297 90.5527 47.5944 90.325 47.5152L87.5285 46.5434C87.0757 46.3859 86.6982 46.068 86.4667 45.6482L82.5948 38.6359C82.382 38.2507 82.306 37.8003 82.3809 37.368L83.1038 33.1908ZM65.7734 39.3501C65.9879 39.3414 66.2055 39.3826 66.408 39.4775L73.0078 42.5682C73.4021 42.7524 73.6874 43.1179 73.7706 43.5458L75.0237 50.0033C75.126 50.5285 74.9098 51.0687 74.4735 51.3792L69.8792 54.6482C69.5775 54.8637 69.1871 54.9479 68.8257 54.8766L61.9674 53.5488C61.4104 53.441 60.9844 53.0109 60.8818 52.4523L59.6635 45.8194C59.5824 45.3788 59.7227 44.9256 60.0379 44.6079L64.8559 39.7529C65.1051 39.5021 65.4352 39.3638 65.7734 39.3501ZM60.3579 54.3129C60.5299 54.2275 60.7201 54.1804 60.9124 54.1725C61.0169 54.1683 61.1229 54.1756 61.2263 54.1951L68.2589 55.5568C68.8072 55.6629 69.2324 56.0855 69.3412 56.6332L70.9527 64.7153C71.0619 65.2609 70.8325 65.8133 70.3688 66.1223L64.087 70.3043C63.6248 70.6128 63.0046 70.6052 62.5489 70.2895L56.2625 65.9292C55.915 65.688 55.7013 65.3079 55.676 64.8858L55.2523 57.7767C55.2198 57.2269 55.5175 56.7138 56.0111 56.4692L60.3579 54.3129ZM55.8552 84.4813L52.7779 82.6969C52.1462 82.3303 51.7767 81.6496 51.8137 80.9195L52.2864 71.6965C52.304 71.3586 52.4099 71.0297 52.5931 70.7462L54.3616 67.9972C54.6488 67.5507 55.0941 67.2479 55.6157 67.1448C55.7175 67.124 55.8196 67.1117 55.9216 67.1076C56.3375 67.0907 56.7468 67.2095 57.098 67.4531L62.0463 70.8855C62.589 71.2623 62.9008 71.8816 62.8796 72.5413L62.5997 81.3454C62.5755 82.1174 62.0952 82.8008 61.3767 83.0869L57.5434 84.6069C56.9926 84.8248 56.3678 84.7784 55.8552 84.4813ZM66.2186 85.5335C66.0633 85.555 65.9005 85.5075 65.7932 85.391L63.8742 83.3213C63.5246 82.9437 63.3414 82.4531 63.3579 81.9403L63.5889 74.6676C63.5957 74.4504 63.7375 74.2803 63.952 74.2337C63.98 74.227 64.0077 74.2233 64.0355 74.2222C64.2122 74.215 64.3754 74.3115 64.459 74.479L67.6609 80.929C67.9126 81.4355 67.9305 82.0248 67.711 82.5464L66.5668 85.2549C66.5045 85.4016 66.3732 85.506 66.2186 85.5335ZM77.7306 66.4963L73.1955 65.6893C72.4036 65.5486 71.7901 64.9476 71.6331 64.1582L70.1665 56.8028C70.0173 56.055 70.3227 55.2857 70.9443 54.8433L75.0428 51.9277C75.4668 51.6253 76.005 51.5073 76.5189 51.5997L81.098 52.4443C81.8198 52.5777 82.3977 53.0977 82.6057 53.8006L84.6761 60.7871C84.9163 61.5969 84.6092 62.4618 83.9117 62.9392L79.1659 66.187C78.747 66.4737 78.2287 66.5838 77.7306 66.4963ZM51.1766 42.1892C51.4502 42.1781 51.7277 42.2264 51.9871 42.3388L57.8541 44.8657C58.4289 45.1138 58.8392 45.629 58.9522 46.2438L60.0276 52.0993C60.1775 52.9143 59.7632 53.7411 59.0203 54.1096L55.4679 55.8715C55.0283 56.0901 54.4953 56.1239 54.0302 55.9639L49.2281 54.3103C48.5605 54.0806 48.0845 53.5039 47.9863 52.8041L47.1193 46.6302C47.0389 46.0591 47.2325 45.4728 47.6374 45.061L49.9169 42.7437C50.2549 42.4001 50.7102 42.2081 51.1766 42.1892ZM50.3093 40.7431C50.3216 41.046 50.2068 41.3429 49.9946 41.5583L46.9703 44.6325C46.6751 44.9322 46.2138 45.0389 45.8166 44.8958L40.4817 42.9853C40.0579 42.8342 39.7727 42.4459 39.7544 41.9961L39.4699 35.0022C39.4582 34.7135 39.5581 34.4364 39.7521 34.2217L43.7041 29.8408C43.9087 29.6141 44.1884 29.4904 44.4751 29.4788C44.6901 29.4701 44.9092 29.5243 45.1038 29.6459L49.492 32.3978C49.7991 32.5896 49.9911 32.921 50.0058 33.2834L50.3093 40.7431ZM26.7499 76.9917L29.0441 68.7583C29.1297 68.4525 29.3501 68.2145 29.648 68.1058C29.9449 67.9966 30.2686 68.0371 30.5297 68.2166L35.8414 71.844C36.2382 72.1145 36.5191 72.5207 36.6327 72.9878L38.8613 82.1606C39.0762 83.0432 38.6381 83.9706 37.8195 84.3654L32.9923 86.6954C32.5247 86.9212 31.993 86.9504 31.5037 86.7782C31.0133 86.605 30.6197 86.2504 30.3963 85.7802L26.8661 78.3445C26.6659 77.9224 26.6246 77.4418 26.7499 76.9917ZM39.8312 94.5684L44.5252 88.729C44.7326 88.4703 45.0497 88.3477 45.3795 88.403C45.7063 88.4575 45.969 88.6763 46.0818 88.9877L48.762 96.3963L47.722 101.841C47.6082 102.438 47.208 102.94 46.6522 103.184L42.9358 104.816C42.4049 105.051 41.7903 105.02 41.2842 104.732C40.7723 104.442 40.4365 103.94 40.3637 103.357L39.4386 95.9525C39.377 95.4596 39.5198 94.9552 39.8312 94.5684ZM87.3415 82.7065C86.9942 82.7206 86.6578 82.6034 86.3942 82.3759L82.6479 79.1479C82.4435 78.9717 82.2972 78.741 82.2239 78.4816L79.3152 68.1529C79.1557 67.5876 79.3744 66.9846 79.8594 66.6529L84.6008 63.4078C84.8207 63.2583 85.0698 63.1789 85.3196 63.1687C85.6699 63.1544 86.0217 63.2756 86.2963 63.5259L89.9329 66.8418C90.1288 67.0209 90.2681 67.2513 90.3352 67.508L92.618 76.26C92.7301 76.6903 92.6254 77.1501 92.3389 77.4893L88.3325 82.2233C88.0947 82.504 87.7619 82.6748 87.3415 82.7065ZM103.433 35.4111C105.271 38.2703 106.811 41.3206 108.01 44.4778C108.09 44.6859 108.094 44.9173 108.021 45.1301L107.499 46.6721C107.401 46.9633 107.176 47.1828 106.883 47.2736C106.585 47.3625 106.278 47.3098 106.033 47.1251L102.068 44.1386C101.831 43.9602 101.689 43.6767 101.69 43.3804L101.7 35.9397C101.7 35.7779 101.742 35.6174 101.822 35.4757C101.986 35.1854 102.283 35.004 102.616 34.9904L102.63 34.9898C102.957 34.9814 103.258 35.1386 103.433 35.4111ZM94.919 25.3978C97.4239 27.653 99.7045 30.1721 101.697 32.8855C101.937 33.2115 101.961 33.6529 101.76 34.0094C101.615 34.2656 101.367 34.4475 101.081 34.5092C100.796 34.5698 100.49 34.5059 100.255 34.3325L92.2063 28.4234C92.0896 28.3376 91.9937 28.2303 91.9218 28.1048L89.5207 23.9034C89.4249 23.7359 89.4448 23.5425 89.5734 23.3977C89.6551 23.3054 89.7622 23.2545 89.8763 23.2499C89.9394 23.2473 90.0046 23.2588 90.0684 23.2856L94.6154 25.2054C94.728 25.2529 94.8298 25.3175 94.919 25.3978ZM75.9395 14.7697C81.636 16.4471 86.931 19.1181 91.6695 22.7007C91.8804 22.8757 91.8843 23.0337 91.8529 23.0841C91.8424 23.0992 91.7416 23.1559 91.5685 23.077L88.3022 21.7052L87.885 21.5664L79.9937 19.9495C78.9338 19.7327 77.9743 19.1514 77.2914 18.3116L75.2473 15.8006C75.0648 15.577 75.0505 15.2762 75.2111 15.0351C75.3741 14.7912 75.659 14.6861 75.9395 14.7697ZM68.2397 14.5789L68.9686 13.8793C69.2479 13.6121 69.6173 13.458 69.9969 13.4426C70.1004 13.4384 70.2043 13.4448 70.3071 13.4613C70.9389 13.5681 71.5702 13.687 72.1836 13.8152C72.5314 13.8885 72.8492 14.0834 73.0781 14.3648L74.5454 16.1677C74.8562 16.5494 74.8733 17.0558 74.5893 17.4572C74.3063 17.8575 73.815 18.0105 73.3583 17.8465L68.5721 16.1376C68.2643 16.0278 68.04 15.771 67.9713 15.4507C67.9032 15.131 68.0031 14.8049 68.2397 14.5789ZM60.5297 18.7764C60.5929 18.1297 61.0576 17.585 61.6859 17.4204L65.8252 16.3389C66.2024 16.2406 66.5979 16.2569 66.9679 16.3895L76.4895 19.7896C77.1934 20.0406 77.62 20.7583 77.5044 21.4967L76.9011 25.3466C76.7705 26.176 75.9962 26.7788 75.1257 26.6444L69.2885 25.7458C69.2356 25.7373 69.1831 25.7268 69.1325 25.7137L61.3709 23.6931C60.6259 23.4994 60.1389 22.8023 60.2129 22.0359L60.5297 18.7764ZM50.5858 20.2943L51.5819 17.5256C51.6365 17.3752 51.7541 17.2592 51.9057 17.2076L55.7256 15.907C55.7735 15.8909 55.8237 15.8818 55.8736 15.8797C55.9498 15.8766 56.0262 15.8897 56.0972 15.9196L59.5936 17.3907C59.8061 17.4806 59.9341 17.6944 59.9115 17.9233L59.4247 22.9338C59.4047 23.1374 59.2672 23.3118 59.0732 23.3779L56.3076 24.3221C56.1625 24.3715 55.9821 24.3505 55.8501 24.2623L50.7886 20.9063C50.5876 20.773 50.504 20.521 50.5858 20.2943ZM44.9582 23.1932C44.9706 22.9763 45.1191 22.7872 45.3274 22.7232L49.5914 21.4263C49.6354 21.4134 49.6801 21.406 49.724 21.4042C49.834 21.3997 49.9429 21.4292 50.0349 21.4907L55.3915 25.042C55.5069 25.1187 55.5887 25.2403 55.6154 25.3767L56.1764 28.2171C56.2191 28.4353 56.119 28.6573 55.9279 28.7697L50.6412 31.8712C50.4743 31.9695 50.2628 31.9655 50.0989 31.8634L44.9153 28.6125C44.7534 28.5109 44.6601 28.3296 44.6711 28.1391L44.9582 23.1932ZM38.1597 23.2619C38.2344 23.1335 38.3315 23.0228 38.4492 22.9336L41.0521 20.9611C41.4807 20.6332 42.0791 20.6665 42.4725 21.0413L43.8405 22.3432C44.0746 22.5663 44.1985 22.8797 44.1798 23.2031L43.895 28.1098C43.8798 28.3587 43.7799 28.5978 43.6134 28.7826L40.0306 32.7547C39.8047 33.0056 39.4973 33.1429 39.1423 33.1149C38.8052 33.0927 38.5014 32.92 38.3095 32.6412L35.6819 28.8242C35.4438 28.4779 35.4252 28.0186 35.6343 27.6542L38.1597 23.2619ZM30.5904 24.3904C30.662 24.2237 30.7723 24.0761 30.9097 23.9628C32.3117 22.8071 33.7898 21.7196 35.3028 20.7313C35.5717 20.556 35.9051 20.5116 36.2128 20.6063C36.5308 20.7051 36.7849 20.9374 36.9112 21.2443L37.3381 22.2801C37.4661 22.5929 37.4424 22.9539 37.2748 23.2463L34.5918 27.9123C34.5445 27.9931 34.4874 28.0687 34.4209 28.1362L31.107 31.4997C30.855 31.7557 30.4867 31.8743 30.1297 31.8105C29.7727 31.7461 29.4708 31.5102 29.3219 31.1795L28.6783 29.7496C28.5526 29.4691 28.5501 29.1471 28.6711 28.8651L30.5904 24.3904ZM28.5621 26.0216C28.735 25.8968 28.8755 25.845 28.9487 25.8673C28.9882 25.8809 29.0216 25.9194 29.0548 26.0015L27.7992 28.9294C27.7512 29.0411 27.6846 29.1449 27.6009 29.2368L19.6268 37.9768C19.4715 38.0236 19.3728 37.9967 19.3587 37.9867C19.3119 37.9547 19.2954 37.872 19.2893 37.81C21.7662 33.4253 24.894 29.4526 28.5621 26.0216ZM15.5375 46.2053C15.8119 45.3948 16.1152 44.5735 16.4378 43.7651C16.5686 43.4382 16.8538 43.2153 17.2013 43.1688C17.5559 43.1245 17.8692 43.2564 18.0803 43.5355L21.3129 47.8209C21.4742 48.0338 21.5206 48.3024 21.44 48.5579C21.3589 48.813 21.166 49.0069 20.911 49.0891L17.2983 50.2508C16.9634 50.3585 16.6066 50.3108 16.315 50.1285C16.0209 49.9448 15.824 49.6424 15.7746 49.2986L15.4585 47.0843C15.416 46.7876 15.4436 46.4841 15.5375 46.2053ZM13.9872 51.9451C14.1909 50.963 14.4274 49.9766 14.6704 49.0643C14.7267 48.9558 14.7845 48.8862 14.8243 48.8826C14.8594 48.8766 14.8989 48.915 14.9428 48.9607L15.1305 50.2691C15.2029 50.7814 15.0584 51.306 14.733 51.7075L14.243 52.3144C14.1043 52.3605 14.0285 52.3368 14.0149 52.3252C13.9761 52.2929 13.9486 52.1757 13.9872 51.9451ZM13.4622 54.9363C13.5097 54.6012 13.65 54.282 13.8681 54.0133L14.7124 52.9683C14.7614 52.9061 14.839 52.8368 14.9338 52.8683C15.0485 52.9051 15.1714 53.0796 15.1832 53.3319L14.8113 63.0691C14.8103 63.1076 14.8069 63.1471 14.8029 63.1867L14.1298 69.6831C14.1067 69.949 13.9311 70.1796 13.8337 70.1835C13.7585 70.1861 13.6476 70.0095 13.5846 69.6152C13.2763 67.6787 13.081 65.7492 13.005 63.8806C12.8843 60.9142 13.0379 57.9047 13.4622 54.9363ZM15.2609 76.6951C15.2175 76.5593 15.2706 76.4242 15.3956 76.3514C15.444 76.3231 15.4945 76.3084 15.5439 76.3064C15.6292 76.3029 15.7115 76.337 15.775 76.4057L18.7948 79.6592C18.9043 79.7771 18.981 79.9231 19.0132 80.0689L20.0784 86.2681C20.1149 86.4815 19.939 86.5564 19.9031 86.5695C19.8105 86.6046 19.6701 86.6199 19.5705 86.448C17.7843 83.3679 16.3342 80.0865 15.2609 76.6951ZM22.3833 89.0392C21.8812 88.7896 21.5243 88.3319 21.404 87.7842L19.7389 80.1856C19.6539 79.7977 19.6983 79.3854 19.8631 79.0243L20.675 77.2445C20.8946 76.7633 21.3105 76.3996 21.817 76.246C21.9678 76.1999 22.123 76.1739 22.2779 76.1676C22.6418 76.1528 23.0056 76.2462 23.3214 76.4401L25.373 77.7066C25.679 77.8949 25.9216 78.1671 26.0749 78.4936L30.3916 87.7139C30.4962 87.9372 30.5545 88.1755 30.5645 88.4213L30.6327 90.0976C30.6595 90.7558 30.3454 91.3632 29.7922 91.7214C29.2468 92.0732 28.5437 92.1135 27.9666 91.823L22.3833 89.0392ZM30.9224 99.8088C30.3391 99.3279 30.1174 98.5149 30.3709 97.7861L31.0522 95.829C31.3044 95.1048 31.9754 94.6225 32.7204 94.5922C32.8309 94.5877 32.9439 94.5932 33.0568 94.6094L37.1944 95.203C38.0147 95.3208 38.6598 95.9776 38.7625 96.8006L39.4191 102.055C39.5076 102.763 39.1909 103.443 38.5924 103.83C37.9948 104.216 37.2166 104.225 36.6105 103.855C34.6333 102.649 32.7193 101.288 30.9224 99.8088ZM50.4926 109.608C48.1319 109.034 45.7961 108.278 43.5503 107.359C43.1513 107.196 42.9007 106.826 42.8952 106.393C42.8891 105.957 43.1321 105.579 43.529 105.405L47.2633 103.764C47.4759 103.671 47.7023 103.619 47.9305 103.61C48.146 103.601 48.3631 103.63 48.5721 103.697L51.311 104.583C51.9878 104.802 52.4833 105.399 52.5732 106.106L52.7594 107.575C52.836 108.179 52.6098 108.782 52.1542 109.19C51.697 109.598 51.085 109.753 50.4926 109.608ZM59.1004 110.904C57.81 110.827 56.5191 110.7 55.2627 110.525C54.4553 110.413 53.8178 109.757 53.7134 108.93L53.5347 107.522C53.4616 106.944 53.6581 106.379 54.0738 105.972C54.4049 105.647 54.8318 105.465 55.282 105.446C55.3986 105.442 55.5162 105.448 55.6347 105.465L59.738 106.072C60.2502 106.148 60.71 106.438 60.999 106.869C61.288 107.299 61.3826 107.834 61.2585 108.337L60.9721 109.5C60.7617 110.354 59.9592 110.948 59.1004 110.904ZM74.3379 109.447C70.9857 110.313 67.5345 110.824 64.0825 110.964L63.8064 110.974C63.2343 110.994 62.698 110.748 62.3345 110.3C61.9641 109.844 61.8319 109.255 61.9726 108.686L62.3167 107.29C62.4629 106.695 62.8933 106.214 63.4671 106.001L71.458 103.042C71.6418 102.975 71.8309 102.938 72.0187 102.931C72.6713 102.904 73.3114 103.226 73.6681 103.804L75.4461 106.683C75.7579 107.189 75.8099 107.795 75.5876 108.348C75.3662 108.899 74.9103 109.299 74.3379 109.447ZM83.4435 106.102C81.8509 106.873 80.198 107.566 78.5294 108.159C77.9484 108.369 77.2445 108.118 76.9106 107.579L73.9051 102.711C73.6464 102.293 73.633 101.765 73.8698 101.334L76.4507 96.6312C76.686 96.202 77.1239 95.941 77.5938 95.9219C77.7271 95.9165 77.8631 95.9307 77.998 95.9656L82.8863 97.2517C83.4669 97.404 83.8762 97.9091 83.9052 98.5091L84.208 104.798C84.2346 105.352 83.9344 105.864 83.4435 106.102ZM94.8044 98.4742C92.3859 100.643 89.7539 102.572 86.9811 104.21C86.5669 104.456 86.0435 104.465 85.6212 104.238C85.1947 104.008 84.9266 103.582 84.9029 103.099L84.6565 97.9724C84.6371 97.5829 84.786 97.2027 85.0651 96.9294L88.8537 93.2169C89.0993 92.9769 89.4255 92.8423 89.7601 92.8286C89.9358 92.8215 90.1138 92.8476 90.2836 92.9094L93.1518 93.9642C93.4639 94.0789 93.7232 94.303 93.8822 94.5938L95.0827 96.7989C95.3897 97.3639 95.2751 98.0526 94.8044 98.4742ZM99.6181 93.6629L97.5088 95.8636C97.2033 96.1834 96.7748 96.3384 96.3269 96.2782C95.8852 96.2193 95.5091 95.9611 95.2857 95.552C95.0868 95.186 95.0637 94.7561 95.2226 94.3725C95.3814 93.9889 95.7004 93.7009 96.098 93.5831L99.039 92.7127C99.091 92.6974 99.1422 92.6888 99.1927 92.6867C99.3956 92.6784 99.5796 92.7776 99.6939 92.9646C99.8358 93.198 99.8067 93.4656 99.6181 93.6629ZM101.651 90.4773C101.52 90.925 101.175 91.2713 100.728 91.4042L94.3549 93.291C94.0701 93.3749 93.7724 93.3647 93.4938 93.2633L90.4055 92.1275C89.9682 91.9673 89.6459 91.6002 89.5425 91.1464L88.056 84.5947C87.9612 84.1779 88.0695 83.7341 88.3455 83.4079L92.9351 77.9843C93.184 77.6905 93.5435 77.5167 93.9221 77.5013C93.9786 77.499 94.0358 77.5002 94.0926 77.505L100.307 78.0172C100.733 78.0525 101.123 78.2889 101.352 78.6507L103.597 82.2042C103.806 82.5369 103.863 82.9442 103.753 83.3208L101.651 90.4773ZM107.045 81.625C106.003 83.9896 104.77 86.281 103.38 88.4363C103.282 88.59 103.217 88.6618 103.139 88.6458C103.095 88.6249 103.047 88.4792 103.111 88.2612L104.557 83.335C104.639 83.0556 104.813 82.8038 105.042 82.6312C105.053 82.6232 106.267 81.7411 106.648 81.4232C106.73 81.3551 106.816 81.3178 106.889 81.3148C106.935 81.3129 106.977 81.3244 107.011 81.3498C107.097 81.414 107.084 81.5344 107.045 81.625ZM108.079 79.106C107.986 79.3525 107.824 79.5673 107.61 79.7282L105.639 81.2119C105.337 81.4396 104.945 81.5359 104.569 81.4637C104.194 81.3955 103.863 81.1714 103.659 80.8485L101.942 78.1305C101.743 77.8155 101.681 77.4282 101.771 77.0671L104.525 66.0444C104.615 65.6874 104.848 65.377 105.168 65.1921L108.113 63.4853C108.306 63.3733 108.522 63.3114 108.742 63.3025C108.896 63.2963 109.051 63.3157 109.2 63.3618C109.563 63.4729 109.865 63.7326 110.03 64.0743L110.842 65.7517C110.954 65.9838 111 66.2392 110.977 66.4909C110.572 70.8216 109.597 75.0657 108.079 79.106Z" fill="url(#paint0_radial_938_25281)"/>
<path id="MID" d="M122.32 44.7046L117.905 34.2849C117.852 34.1598 117.784 34.0434 117.758 34.0134L110.481 24.1235L98.0844 9.96611L77.9994 0.223908C77.46 -0.0367921 76.8519 -0.0707921 76.2874 0.126908C75.7292 0.322408 75.2637 0.740508 75.0094 1.27511L69.3741 13.1195C68.9877 13.932 68.1427 14.4722 67.2567 14.452L54.2934 14.4108C53.4966 14.4194 52.7318 14.8415 52.3336 15.5508L45.3229 28.0347C44.9074 28.7751 44.1303 29.2373 43.2731 29.2274L32.2821 29.1699C31.7553 29.1668 31.2391 28.9837 30.829 28.6534L20.4184 20.2766C19.9545 19.9048 19.3713 19.733 18.7723 19.7975C18.1845 19.8634 17.6377 20.1658 17.2722 20.6265L8.6288 31.4802L4.4342 41.3639L0 54.9108L1.3631 80.9272L7.208 94.2446C7.2331 94.2992 7.2543 94.3357 7.2483 94.3192L14.4888 104.388L24.3387 112.457L24.4734 112.548C24.512 112.572 24.5523 112.596 24.5973 112.621L44.6799 121.093C44.7511 121.123 44.8243 121.149 44.9152 121.175L60.536 124.524C60.6962 124.557 60.8588 124.573 61.0218 124.571C61.0532 124.571 61.0852 124.569 61.1171 124.568L77.0548 122.255L77.3177 122.188C77.4031 122.166 77.487 122.14 77.5698 122.107L88.9811 116.141L107.159 103.946L115.745 88.9874L123.191 63.7083L123.284 63.0947L122.32 44.7046ZM107.754 27.9382L112.206 33.9785C112.779 34.756 112.818 35.7873 112.305 36.6055L106.412 46.0128C106.025 46.6304 105.361 47.0369 104.635 47.1001L101.927 47.3368C100.894 47.4222 99.9171 46.8155 99.5444 45.8503L94.4706 32.7094C94.279 32.2136 94.2625 31.6614 94.4251 31.1545L96.2316 25.5169C96.4337 24.8865 96.8789 24.3932 97.4767 24.1086C98.1724 23.7774 99.0564 23.9482 99.3571 24.0736L106.773 27.1684C107.163 27.3314 107.502 27.5975 107.754 27.9382ZM29.0744 72.4735L34.2791 65.4322C34.6955 64.8687 35.3361 64.5241 36.0361 64.4873L42.3134 64.1585C42.3453 64.157 42.3773 64.1561 42.4092 64.1558C43.2251 64.1465 43.99 64.5643 44.422 65.2625L51.0184 75.9181C51.5736 76.8146 51.4575 77.9776 50.7361 78.7465L42.7966 87.2132C42.2188 87.8297 41.3503 88.0863 40.5298 87.8827L32.272 85.8352C31.3922 85.6173 30.7123 84.9012 30.5401 84.011L28.6591 74.3068C28.5347 73.6665 28.6862 72.9984 29.0744 72.4735ZM26.5803 68.3325C25.9006 69.2507 24.6676 69.5439 23.6486 69.0299L18.2835 66.3228C17.4546 65.9046 16.952 65.0352 17.0026 64.1083L17.6372 52.5855C17.6725 51.948 17.9578 51.3663 18.4403 50.948C18.8628 50.582 19.3878 50.3831 19.939 50.3768C20.0173 50.3759 20.0956 50.3788 20.1745 50.3858L24.1511 50.7338C24.9626 50.8049 25.667 51.2815 26.0338 52.0092L30.5033 60.8639C30.9034 61.6561 30.8241 62.5919 30.2959 63.3059L26.5803 68.3325ZM46.6326 89.6524L55.1314 80.5897C55.5471 80.1471 56.1092 79.886 56.7145 79.854L67.2915 79.3C67.3229 79.2985 67.3543 79.2977 67.3857 79.2973C68.4386 79.2852 69.3896 79.9965 69.6682 81.0192L73.3223 94.422C73.513 95.1229 73.3729 95.858 72.9369 96.4388L66.8922 104.498C66.4001 105.153 65.594 105.511 64.7738 105.418L54.8514 104.354C54.1347 104.277 53.5042 103.883 53.1212 103.273L46.3578 92.493C45.7941 91.5946 45.907 90.4262 46.6326 89.6524ZM70.2491 73.7072C69.8424 74.333 69.1556 74.7297 68.4108 74.7686L57.3446 75.3485C56.4874 75.3839 55.6847 74.9702 55.236 74.2446L48.1165 62.7443C47.6937 62.061 47.6494 61.2215 47.9985 60.4984L53.8557 48.3606C54.2334 47.5786 55.0069 47.0727 55.8742 47.0409L69.0424 46.5562C69.9426 46.516 70.8023 47.0244 71.2127 47.8352L77.5468 60.3331C77.9217 61.074 77.8739 61.9668 77.4217 62.6628L70.2491 73.7072ZM74.9596 45.3477C74.6124 44.6625 74.6244 43.85 74.9916 43.1747L79.6504 34.6072C80.0573 33.8589 80.8355 33.3967 81.6754 33.387C81.751 33.3861 81.8277 33.389 81.9045 33.3955L88.7709 33.9894C89.6538 34.0661 90.4308 34.6495 90.7498 35.4762L95.9806 49.0234C96.1898 49.5654 96.1902 50.1619 95.9823 50.7034L92.3195 60.2368C91.8923 61.3486 90.7024 61.9604 89.5495 61.66L83.2853 60.0296C82.6378 59.8613 82.0926 59.4217 81.7896 58.8243L74.9596 45.3477ZM95.3991 64.6752L99.7591 53.3275C100.077 52.4998 100.854 51.9145 101.737 51.8373L103.715 51.6643C104.795 51.5763 105.786 52.2201 106.132 53.243L109.959 64.5457C110.151 65.1139 110.119 65.7269 109.869 66.2715L103.608 79.8958C103.244 80.6878 102.477 81.2085 101.606 81.2542L98.832 81.3995C97.5484 81.4526 96.4863 80.5252 96.3812 79.2592L95.2524 65.7065C95.2227 65.3585 95.274 65.0022 95.3991 64.6752ZM95.6329 13.9461L100.06 19.1329C100.191 19.2871 100.03 19.5152 99.8424 19.4375C98.9887 19.0831 97.6043 18.5095 96.841 18.1987C96.4797 18.0516 96.1753 17.7987 95.9624 17.4719L93.0933 13.069C92.7699 12.5913 92.9881 12.4612 93.5721 12.7417L94.894 13.3829C95.178 13.5203 95.4263 13.7103 95.6329 13.9461ZM73.2445 15.3816L77.0645 7.35201C77.3344 6.78531 77.8089 6.35861 78.401 6.15101C78.6461 6.06461 78.8986 6.02061 79.1505 6.01781C79.5079 6.01371 79.8635 6.09271 80.1945 6.25301L84.729 8.45251C85.7968 8.97041 86.6934 9.78411 87.3123 10.7968L92.2452 18.869C92.8422 19.846 92.9841 21.0346 92.6337 22.1247L90.7917 27.8552C90.4559 28.902 89.4482 29.557 88.3648 29.4709L81.5699 28.8831C80.842 28.8201 80.1855 28.4202 79.7957 27.8024L73.3784 17.6317C72.9509 16.9541 72.9004 16.1049 73.2445 15.3816ZM49.1186 30.3988L54.9141 20.0791C55.3229 19.3511 56.0905 18.8964 56.924 18.8868C56.9352 18.8867 56.9469 18.8866 56.9586 18.8869L67.6281 18.9204C68.4325 18.9229 69.1685 19.3299 69.5971 20.01L75.7977 29.8371C76.2486 30.5521 76.2776 31.4572 75.8739 32.2001L71.1645 40.8614C70.7722 41.5828 70.0186 42.0501 69.1975 42.0803L55.8298 42.5726C54.9121 42.6269 54.0924 42.1164 53.6764 41.3275L49.0889 32.6335C48.7175 31.929 48.7281 31.0936 49.1186 30.3988ZM29.4105 47.6223L32.0649 35.4856C32.2962 34.4272 33.2414 33.66 34.3214 33.6475C34.3342 33.6474 34.347 33.6473 34.3603 33.6476L43.2008 33.6941C44.0654 33.6986 44.8523 34.1763 45.2557 34.9404L49.9892 43.9113C50.3339 44.5646 50.3482 45.3523 50.0272 46.0175L44.0617 58.3797C43.6907 59.1478 42.9311 59.653 42.0789 59.6979L36.6246 59.9837C35.6833 60.0211 34.8333 59.5297 34.4164 58.703L29.6068 49.1741C29.3654 48.6961 29.2956 48.1451 29.4105 47.6223ZM10.1248 39.3384L12.2879 34.1947C12.3714 33.9972 12.4806 33.8127 12.6135 33.6465L17.9042 27.0021C18.2943 26.5124 18.8522 26.2045 19.4752 26.1355C19.5539 26.1266 19.6322 26.122 19.7104 26.1211C20.2505 26.1149 20.7713 26.2943 21.1977 26.6372L27.0691 31.3615C27.7642 31.9208 28.0775 32.8094 27.8867 33.6809L25.5577 44.3273C25.3077 45.4711 24.2407 46.2509 23.0715 46.1557L16.9558 45.6208C16.5889 45.5883 16.2307 45.4688 15.92 45.2748L11.0405 42.2265C10.0626 41.6157 9.6773 40.4008 10.1248 39.3384ZM7.4494 86.3784L7.3497 86.3934C7.1455 86.4041 6.9508 86.2951 6.8662 86.1128C6.8662 86.1128 4.4314 80.8236 4.4284 80.7664L3.8572 69.8664C3.8446 69.6268 4.0246 69.415 4.2757 69.3745C4.5194 69.3313 4.7689 69.4767 4.8388 69.7073L6.9329 76.598L7.8242 85.8764C7.8461 86.1071 7.6873 86.3197 7.4494 86.3784ZM9.1068 68.0352C8.2577 67.8479 7.6067 67.2375 7.3655 66.4024L4.5689 56.7407L4.504 55.5084L6.8613 48.2989C7.0862 47.6113 7.6053 47.0754 8.2858 46.8284C8.9653 46.583 9.7077 46.6603 10.3209 47.0431L12.1933 48.2137C12.916 48.6646 13.3355 49.4731 13.2892 50.3237L12.465 65.2827C12.4363 65.7986 12.2338 66.2979 11.8947 66.6875L11.3727 67.2869C10.8018 67.9428 9.9532 68.2194 9.1068 68.0352ZM11.1308 89.4919L9.9561 76.8207C9.8977 76.1881 10.1034 75.5497 10.5203 75.0703L13.9606 71.1178C14.663 70.3108 15.82 70.0839 16.7758 70.5656L23.0774 73.7451C23.7181 74.0685 24.1822 74.6821 24.3187 75.3868L26.2405 85.3031C26.3906 86.0786 26.1424 86.8702 25.5761 87.4216L21.1239 91.7569C20.6055 92.2604 19.8939 92.4923 19.1838 92.3987L13.1486 91.5929C12.0614 91.4478 11.2318 90.5838 11.1308 89.4919ZM17.8503 101.412L14.1665 96.267C14.1843 96.2375 14.1944 96.239 14.2173 96.2425L19.3461 96.9272L21.4253 104.324L17.8503 101.412ZM49.1763 107.62L45.5524 114.327C44.9787 115.391 43.7055 115.841 42.5916 115.37L28.5913 109.488C27.9405 109.214 27.4532 108.669 27.2548 107.991L24.0079 96.9189C23.7634 96.086 23.9981 95.1922 24.6203 94.5868L28.639 90.6736C29.0763 90.2483 29.6462 90.017 30.2363 90.0101C30.4339 90.0078 30.6344 90.0306 30.8321 90.08L40.2651 92.4187C40.8554 92.5653 41.3592 92.9297 41.6826 93.4454L49.1004 105.267C49.5468 105.979 49.5764 106.88 49.1763 107.62ZM70.3977 117.528C70.0856 118.314 69.3993 118.856 68.5623 118.978L61.4845 120.01C61.2096 120.051 60.9319 120.04 60.6586 119.982L51.979 118.126C51.2528 117.971 50.6571 117.495 50.3463 116.82C50.0349 116.146 50.0586 115.384 50.4123 114.73L52.9143 110.098C53.3671 109.261 54.2659 108.779 55.2201 108.886L64.9776 109.933C65.5958 109.999 66.172 110.317 66.559 110.804L70.0565 115.214C70.5822 115.877 70.7099 116.742 70.3977 117.528ZM84.2557 113.577L79.0521 116.308C78.061 116.828 76.834 116.57 76.1357 115.69L71.06 109.291C70.4006 108.459 70.3845 107.286 71.0214 106.437L76.4775 99.1632C76.9114 98.5845 77.5982 98.2368 78.3204 98.2285C78.3305 98.2284 78.3407 98.2288 78.3508 98.2287L82.6009 98.2358C83.8426 98.2381 84.8658 99.2107 84.9312 100.451L85.5043 111.385C85.5513 112.293 85.0616 113.154 84.2557 113.577ZM86.3849 92.673C85.9544 93.3629 85.1687 93.7779 84.3995 93.7718L79.5539 93.7636C78.5045 93.7618 77.5786 93.0539 77.3028 92.0418L73.547 78.2646C73.3718 77.6232 73.4795 76.9348 73.8417 76.3767L80.807 65.652C81.3561 64.8068 82.3811 64.4088 83.3556 64.6634L89.2431 66.1964C90.2015 66.4459 90.9009 67.2767 90.9831 68.2634L92.1713 82.534C92.2127 83.0327 92.0896 83.5411 91.8244 83.9661L86.3849 92.673ZM109.444 90.9912L104.076 100.344C103.898 100.653 103.647 100.922 103.35 101.122L93.3325 107.847C92.6247 108.322 91.7475 108.379 90.9847 107.997C90.2224 107.616 89.7409 106.88 89.6959 106.029L89.2402 97.3313C89.2149 96.85 89.3368 96.3799 89.5916 95.9711L95.1562 87.0629C95.56 86.417 96.2552 86.0074 97.0164 85.9672L103.43 85.6309C103.462 85.6295 103.493 85.6286 103.525 85.6282C103.885 85.624 104.244 85.7036 104.568 85.8596L108.432 87.7232C109.023 88.0078 109.455 88.5099 109.65 89.1368C109.844 89.7637 109.77 90.4223 109.444 90.9912ZM116.943 69.1775L112.947 82.8791C112.815 83.3302 112.494 83.6982 112.065 83.8896C111.636 84.0804 111.148 84.0732 110.724 83.8687L108.838 82.9598C108.061 82.5847 107.722 81.6421 108.082 80.8581L113.96 68.0665C114.152 67.6477 114.516 67.333 114.963 67.2011C115.529 67.0375 116.121 67.1841 116.539 67.6022C116.958 68.0204 117.109 68.6094 116.943 69.1775ZM116.954 61.9604L116.239 62.171C115.028 62.5263 113.769 61.8702 113.366 60.6784L109.908 50.465C109.682 49.797 109.767 49.0716 110.141 48.4745L113.097 43.7547C114.372 41.6057 115.119 41.4454 115.305 41.4432C115.313 41.4431 115.321 41.4435 115.327 41.444C115.562 41.4594 116.217 41.7507 117.215 44.1064L117.74 45.3441C117.847 45.5953 117.908 45.8609 117.923 46.1341L118.628 59.5963C118.685 60.6813 117.997 61.6533 116.954 61.9604Z" fill="url(#paint1_radial_938_25281)"/>
<path id="FG" d="M120.577 63.0445L119.633 45.1464L115.332 34.9963C115.32 34.9785 115.248 34.8566 115.238 34.8376L108.157 25.2438L96.0133 11.3774L76.2328 1.7833C76.0941 1.7163 75.9372 1.7072 75.7941 1.7582C75.6514 1.8082 75.5324 1.915 75.467 2.0519L69.8318 13.8964C69.1705 15.2858 67.757 16.1889 66.2077 16.1768L53.2401 16.1357C53.0353 16.1392 52.843 16.2442 52.7403 16.4273L45.7286 28.9116C45.0173 30.1774 43.6755 30.9589 42.221 30.9524L31.2297 30.8949C30.3289 30.8902 29.4465 30.5766 28.7437 30.0112L18.3344 21.6355C18.216 21.5406 18.0631 21.5006 17.9101 21.513C17.7635 21.5291 17.6234 21.6062 17.5296 21.7246L8.93481 32.5164L4.95461 41.9876L0.632812 55.1962L1.96411 80.6003L7.67701 93.6172L7.74641 93.7365L14.7487 103.416L24.3187 111.211C24.3273 111.216 24.4598 111.29 24.4684 111.296L44.2832 119.624C44.3041 119.63 44.4239 119.666 44.445 119.674L59.8329 122.959C59.8815 122.97 59.932 122.974 59.9821 122.971L75.7779 120.672L75.9243 120.62C75.957 120.605 76.0218 120.584 76.0571 120.575L87.1649 114.733L104.867 102.845L113.275 88.196C113.282 88.175 113.289 88.1523 113.3 88.1288C113.3 88.1288 120.532 63.3725 120.552 63.3067C120.572 63.241 120.577 63.0445 120.577 63.0445ZM108.049 27.0155L112.501 33.0548C113.481 34.3855 113.548 36.1502 112.671 37.551L106.777 46.9576C106.116 48.0146 104.979 48.7105 103.737 48.8186L101.029 49.0555C100.984 49.0596 100.937 49.0631 100.892 49.0655C99.1786 49.1553 97.5713 48.1211 96.9506 46.5117L91.8764 33.3709C91.5487 32.5227 91.521 31.5778 91.7984 30.7107L93.6052 25.073C93.9461 24.0093 94.7235 23.1306 95.7375 22.6624C96.7504 22.1937 97.923 22.1719 98.9534 22.6028L106.369 25.6974C107.038 25.9762 107.619 26.4318 108.049 27.0155ZM26.6949 71.5484L31.8996 64.5069C32.6122 63.5427 33.7081 62.9535 34.906 62.8907L41.1832 62.5617C42.6412 62.4853 44.0244 63.2089 44.7928 64.4502L51.3892 75.1057C52.3383 76.6403 52.1399 78.6306 50.9055 79.9467L42.9659 88.4131C42.25 89.1763 41.2731 89.6175 40.2558 89.6708C39.868 89.6911 39.4745 89.6553 39.0868 89.5594L30.8286 87.5117C29.3235 87.1381 28.1604 85.913 27.865 84.3905L25.9844 74.6862C25.7717 73.59 26.0308 72.4463 26.6949 71.5484ZM23.869 71.002C23.1926 71.0374 22.5 70.9011 21.8568 70.5767L16.492 67.8701C15.0729 67.1534 14.2122 65.6655 14.3 64.0794L14.9347 52.5567C14.9949 51.4658 15.4824 50.471 16.308 49.7551C17.1336 49.0392 18.1889 48.6968 19.276 48.7929L23.2535 49.1409C24.642 49.2626 25.8462 50.0782 26.4746 51.3229L30.9437 60.1776C31.6282 61.5334 31.4931 63.1349 30.5895 64.3565L26.8736 69.3831C26.1401 70.3757 25.0284 70.9413 23.869 71.002ZM44.3774 88.5782L52.8768 79.5149C53.5869 78.7581 54.5484 78.3117 55.5841 78.2574L66.1612 77.7031C68.027 77.6053 69.7377 78.8425 70.2288 80.6447L73.8826 94.0482C74.2097 95.2467 73.9694 96.5046 73.2238 97.4989L67.1791 105.558C66.4642 106.511 65.3543 107.09 64.1816 107.151C63.9732 107.162 63.7635 107.157 63.5533 107.134L53.631 106.069C52.404 105.938 51.325 105.263 50.6703 104.218L43.9064 93.4392C42.9415 91.9015 43.135 89.9025 44.3774 88.5782ZM67.4552 76.4911L56.3889 77.071C54.9309 77.1474 53.5477 76.4238 52.7793 75.1825L45.6598 63.6818C44.936 62.513 44.8607 61.0767 45.4584 59.8387L51.3156 47.701C51.9611 46.3621 53.3116 45.5254 54.7705 45.4428L67.9379 44.9578C69.4919 44.9009 70.9498 45.7603 71.6521 47.147L77.9859 59.6453C78.6283 60.9122 78.5469 62.4394 77.7724 63.6308L70.5992 74.676C69.9044 75.7459 68.7293 76.4243 67.4552 76.4911ZM72.4344 46.1613C71.84 44.9891 71.8599 43.5992 72.4876 42.444L77.147 33.8758C77.9062 32.479 79.4138 31.6637 81.0048 31.8027L87.8711 32.3965C89.3818 32.5268 90.7107 33.5253 91.2569 34.9403L96.4876 48.488C96.8457 49.4145 96.8466 50.4351 96.4902 51.3622L92.8278 60.8961C92.2482 62.4047 90.8454 63.3754 89.3061 63.4561C88.905 63.4771 88.4945 63.4377 88.0873 63.3317L81.823 61.7008C80.7146 61.4125 79.7819 60.6608 79.2641 59.6394L72.4344 46.1613ZM92.8042 64.1424L97.1648 52.7943C97.709 51.3781 99.0376 50.3772 100.549 50.2449L102.527 50.072C104.389 49.9225 106.07 51.0215 106.663 52.7731L110.49 64.0759C110.819 65.0475 110.764 66.0962 110.336 67.0287L104.075 80.653C103.452 82.008 102.14 82.8985 100.651 82.9766L97.876 83.122C95.7043 83.2358 93.8619 81.6273 93.6813 79.4603L92.5521 65.9089C92.503 65.3124 92.5899 64.7017 92.8042 64.1424ZM90.0794 9.7687L94.5774 11.9504C95.0578 12.1834 95.4866 12.5104 95.8385 12.912L100.805 18.5803C101.289 19.1331 101.424 19.9446 101.062 20.5845C100.614 21.3778 99.7159 21.683 98.8986 21.3413L95.7684 20.035C95.1755 19.7876 94.6846 19.3456 94.3765 18.782L89.6789 10.1892C89.5365 9.9288 89.8124 9.6392 90.0794 9.7687ZM93.6162 19.2821C93.874 19.7637 93.9254 20.3293 93.7587 20.8495L91.3307 28.4257C90.8166 30.0325 89.3861 31.1137 87.7437 31.1997C87.5576 31.2095 80.3838 30.6016 80.3838 30.6016C79.1458 30.495 78.0101 29.8031 77.3466 28.7513L70.9298 18.5814C70.1983 17.422 70.1118 15.9686 70.7007 14.7306L74.4586 6.8307C74.8582 5.9908 75.4937 5.2615 76.3269 4.8479C77.4666 4.2822 78.7567 4.2767 79.8769 4.8202L86.6344 8.0976C87.5076 8.5211 88.2244 9.2099 88.6824 10.0655L93.6162 19.2821ZM46.6265 29.6478L52.422 19.3284C53.1318 18.0649 54.4713 17.2741 55.9212 17.2875L66.5906 17.3211C67.9663 17.3255 69.2263 18.0226 69.9599 19.1864L76.1598 29.0135C76.9317 30.2367 76.9822 31.7861 76.2913 33.0575L71.5821 41.7189C70.9201 42.9352 69.6578 43.7292 68.2773 43.8016C68.2567 43.8027 68.236 43.8032 68.2154 43.8043L54.8473 44.2965C53.3217 44.3524 51.8757 43.5165 51.1636 42.1666L46.5761 33.4723C45.9397 32.2665 45.9586 30.8364 46.6265 29.6478ZM29.3974 35.1926C29.7981 33.361 31.4232 32.0278 33.3254 32.0487L42.1664 32.0949C43.645 32.1029 44.9923 32.92 45.6821 34.2274L50.4159 43.1983C51.0064 44.3165 51.03 45.6639 50.4808 46.8027L44.5152 59.1651C43.8807 60.4799 42.5808 61.3441 41.1228 61.4205L35.6685 61.7063C34.0868 61.7892 32.6032 60.9289 31.8894 59.515L27.0799 49.986C26.6672 49.1674 26.5479 48.2245 26.7429 47.3299L29.3974 35.1926ZM7.54891 38.7561L9.71291 33.6125C9.85661 33.2731 10.0444 32.9566 10.2714 32.6721L15.5613 26.0295C16.2291 25.1911 17.1831 24.6646 18.2484 24.5462C19.3224 24.4335 20.3616 24.7332 21.1962 25.4051L27.0678 30.1293C28.2576 31.0865 28.7938 32.6081 28.4669 34.0996L26.1388 44.745C25.7503 46.5201 24.2118 47.7912 22.4402 47.8841C22.2569 47.8937 22.0707 47.8906 21.8833 47.8742L15.767 47.3394C15.1412 47.2845 14.5294 47.0797 13.9963 46.7473L9.11701 43.6985C7.44371 42.6532 6.78451 40.5749 7.54891 38.7561ZM6.55491 87.0223C6.27881 87.0918 5.98581 86.9197 5.88881 86.6991L3.13611 80.4271C3.10821 80.3638 3.09241 80.2964 3.08881 80.2273L2.39811 67.049C2.38291 66.7593 2.58741 66.5039 2.87371 66.4559C3.15151 66.4045 3.43671 66.5811 3.51721 66.8602L5.93071 75.1974L6.98071 86.4167C7.00651 86.6959 6.83101 86.9528 6.55491 87.0223ZM4.72581 66.9276L1.89411 57.1447C1.88181 57.1023 1.87451 57.0591 1.87231 57.0157L1.79051 55.4552C1.78681 55.385 1.79601 55.3147 1.81821 55.2476L4.23921 47.8453C4.62391 46.6687 5.51161 45.7518 6.67551 45.3293C7.83941 44.9068 9.10901 45.0409 10.1584 45.6965L12.0309 46.8665C13.2669 47.6386 13.9852 49.0227 13.9051 50.4783L13.0812 65.4372C13.032 66.3208 12.6857 67.1747 12.105 67.842L11.5839 68.4408C10.8552 69.2784 9.86181 69.7573 8.80101 69.8129C8.44111 69.8318 8.07361 69.8019 7.70571 69.7206C6.25321 69.4001 5.13931 68.3562 4.72581 66.9276ZM8.43261 89.7083L7.25841 77.0362C7.15811 75.9537 7.50981 74.8621 8.22381 74.042L11.6631 70.0897C12.8656 68.7088 14.8475 68.3206 16.4806 69.1445L22.7824 72.3238C23.879 72.8769 24.6731 73.9269 24.9073 75.1331L26.8292 85.0492C27.0865 86.3771 26.6615 87.7329 25.6924 88.6753L21.2397 93.0109C20.5359 93.6958 19.6264 94.0893 18.6687 94.1395C18.4219 94.1524 18.1717 94.1426 17.9213 94.1088L11.8857 93.3028C10.0258 93.055 8.60591 91.5769 8.43261 89.7083ZM21.3639 105.774C21.0945 105.953 20.7973 106.05 20.4987 106.065C20.0887 106.087 19.6768 105.956 19.333 105.676L15.6448 102.672C15.6057 102.64 15.5714 102.604 15.5425 102.564L11.7793 97.3609C11.371 96.7968 11.3393 96.075 11.6968 95.477C12.0532 94.8795 12.7038 94.5661 13.3946 94.6573L19.2344 95.4373C19.4583 95.4675 19.6438 95.6265 19.7071 95.8433L22.0594 103.865C22.2756 104.6 22.0026 105.35 21.3639 105.774ZM42.6701 117.276C42.0834 117.306 41.4816 117.208 40.9041 116.965L26.9047 111.083C25.7902 110.615 24.9564 109.681 24.6168 108.521L21.3695 97.4493C20.9518 96.0243 21.3532 94.4948 22.4173 93.4586L26.4368 89.5457C27.435 88.5738 28.8386 88.1936 30.1886 88.529L39.6218 90.8682C40.6327 91.1197 41.4934 91.7433 42.0468 92.6244L49.4647 104.447C50.2291 105.665 50.2792 107.208 49.5952 108.473L45.9718 115.18C45.2865 116.448 44.02 117.205 42.6701 117.276ZM70.8993 118.203C70.3654 119.549 69.1911 120.477 67.7584 120.686L60.6811 121.717C60.558 121.735 60.4346 121.747 60.311 121.754C59.9628 121.772 59.6133 121.744 59.2686 121.67L50.5886 119.815C49.345 119.549 48.3264 118.734 47.7938 117.58C47.2607 116.425 47.3019 115.122 47.9063 114.003L50.4088 109.371C51.1834 107.937 52.7306 107.123 54.3537 107.296L64.1114 108.343C65.1704 108.457 66.1565 109.001 66.818 109.835L70.315 114.244C71.2149 115.378 71.4333 116.858 70.8993 118.203ZM86.1206 111.36C86.2021 112.915 85.3641 114.387 83.9853 115.111L78.782 117.842C78.2584 118.117 77.6975 118.265 77.137 118.294C75.8757 118.36 74.6159 117.827 73.7903 116.785L68.7147 110.387C67.5859 108.964 67.5588 106.955 68.6486 105.503L74.1049 98.2288C74.8579 97.2256 76.0584 96.6264 77.3105 96.6301L81.5606 96.637C83.6854 96.6402 85.4363 98.3048 85.5475 100.426L86.1206 111.36ZM83.5755 95.491C83.502 95.4949 83.4283 95.497 83.354 95.4965L78.5077 95.4885C76.712 95.486 75.1284 94.274 74.6561 92.5417L70.9 78.7642C70.6006 77.6665 70.7841 76.4893 71.4045 75.5344L78.3698 64.8096C79.3096 63.3626 81.0606 62.6831 82.7314 63.1179L88.6185 64.6507C90.2582 65.0771 91.4551 66.4993 91.5961 68.1885L92.7848 82.4592C92.8558 83.3125 92.645 84.1827 92.1909 84.9093L86.7522 93.6161C86.0543 94.7332 84.8787 95.4227 83.5755 95.491ZM109.842 91.8815L104.474 101.235C104.169 101.764 103.741 102.224 103.234 102.564L93.2155 109.29C92.5976 109.705 91.9029 109.934 91.1975 109.971C90.5223 110.006 89.8367 109.866 89.1988 109.547C87.8942 108.895 87.0696 107.636 86.9933 106.179L86.5375 97.4816C86.4943 96.6576 86.7024 95.8523 87.139 95.1534L92.7035 86.2456C93.3941 85.1396 94.5842 84.4386 95.8862 84.3704L102.301 84.0342C102.97 83.9991 103.643 84.1343 104.247 84.4255L108.111 86.2884C109.108 86.7691 109.867 87.6511 110.194 88.7077C110.521 89.7649 110.393 90.9219 109.842 91.8815ZM117.496 69.7054L113.5 83.4076C113.231 84.3284 112.574 85.0807 111.698 85.4708C111.328 85.6354 110.937 85.7274 110.543 85.7481C110.003 85.7764 109.459 85.6697 108.959 85.4289L107.073 84.5199C105.486 83.7539 104.793 81.8282 105.528 80.2271L111.407 67.4352C111.8 66.58 112.543 65.9371 113.447 65.6713C114.609 65.33 115.814 65.6344 116.67 66.4889C117.526 67.343 117.835 68.5452 117.496 69.7054ZM119.245 59.5719C119.342 61.4294 118.164 63.0928 116.38 63.6176C116.38 63.6176 115.298 63.9402 114.735 63.9876C113.029 64.131 111.335 63.0088 110.748 61.2742L107.29 51.0604C106.904 49.9192 107.049 48.6781 107.689 47.6557L110.632 42.9579C111.92 40.7853 113.156 39.7642 114.396 39.8483C115.994 39.9562 117.002 41.8676 117.703 43.5208L118.228 44.7587C118.41 45.1888 118.515 45.6431 118.539 46.1094L119.245 59.5719Z" fill="url(#paint2_radial_938_25281)"/>
</g>
<defs>
<radialGradient id="paint0_radial_938_25281" cx="0" cy="0" r="1" gradientUnits="userSpaceOnUse" gradientTransform="translate(62.1026 62.3704) rotate(-2.32679) scale(49.6571 49.6571)">
<stop stop-color="#89D4D6"/>
<stop offset="1" stop-color="#66B0B2"/>
</radialGradient>
<radialGradient id="paint1_radial_938_25281" cx="0" cy="0" r="1" gradientUnits="userSpaceOnUse" gradientTransform="translate(61.6421 62.2856) scale(61.9647 61.9647)">
<stop stop-color="#86B3B5"/>
<stop offset="0.6713" stop-color="#1E7577"/>
<stop offset="0.8645" stop-color="#196062"/>
<stop offset="1" stop-color="#175759"/>
</radialGradient>
<radialGradient id="paint2_radial_938_25281" cx="0" cy="0" r="1" gradientUnits="userSpaceOnUse" gradientTransform="translate(43.8742 57.7208) rotate(-0.658938) scale(74.1956 74.1956)">
<stop stop-color="#3C8789"/>
<stop offset="1" stop-color="#175759"/>
</radialGradient>
</defs>
</svg>
