<svg width="215" height="25" viewBox="0 0 215 25" fill="none" xmlns="http://www.w3.org/2000/svg">
<g id="R-ICO-014640">
<g id="R-ICO-013027">
<g id="Back">
<path id="Vector" d="M37.9808 16.835C52.224 16.835 41.6644 6.83496 62.9817 6.83496L66.4671 6.84221C52.9416 6.84221 61.9258 16.835 41.9717 16.835H37.9808Z" fill="url(#paint0_linear_938_25754)"/>
<path id="Vector_2" d="M86.9717 16.835C101.215 16.835 90.6552 6.83496 111.973 6.83496L115.458 6.84221C101.932 6.84221 110.917 16.835 90.9625 16.835H86.9717Z" fill="url(#paint1_linear_938_25754)"/>
<path id="Vector_3" d="M135.963 16.835C150.206 16.835 139.646 6.83496 160.963 6.83496L164.449 6.84221C150.923 6.84221 159.907 16.835 139.953 16.835H135.963Z" fill="url(#paint2_linear_938_25754)"/>
<path id="Vector_4" d="M184.953 16.835C199.196 16.835 188.637 6.83496 209.954 6.83496L213.44 6.84221C199.914 6.84221 208.898 16.835 188.944 16.835H184.953Z" fill="url(#paint3_linear_938_25754)"/>
</g>
<g id="Front">
<path id="Vector_5" d="M41.9258 16.835C27.6827 16.835 37.005 6.83496 17.4304 6.83496H13.4396C26.965 6.83496 17.4304 16.835 37.935 16.835H41.9258Z" fill="url(#paint4_linear_938_25754)"/>
<path id="Vector_6" d="M90.9167 16.835C76.6735 16.835 85.996 6.83496 66.4212 6.83496H62.4304C75.9559 6.83496 66.4213 16.835 86.9258 16.835H90.9167Z" fill="url(#paint5_linear_938_25754)"/>
<path id="Vector_7" d="M139.908 16.835C125.664 16.835 134.987 6.83496 115.412 6.83496H111.421C124.947 6.83496 115.412 16.835 135.917 16.835H139.908Z" fill="url(#paint6_linear_938_25754)"/>
<path id="Vector_8" d="M188.898 16.835C174.655 16.835 183.978 6.83496 164.403 6.83496H160.412C173.938 6.83496 164.403 16.835 184.908 16.835H188.898Z" fill="url(#paint7_linear_938_25754)"/>
</g>
</g>
<g id="R-ICO-014853">
<g id="A">
<path id="Vector_9" d="M118.603 6.35775V18.1649L128.158 23.3717L137.684 18.1649V6.35775L128.179 1.13965L118.603 6.35775Z" fill="#72B8BD" stroke="url(#paint8_linear_938_25754)" stroke-width="2" stroke-miterlimit="10" stroke-linecap="round" stroke-linejoin="round"/>
<text id="A_2" fill="white" xml:space="preserve" style="white-space: pre" font-family="Arial" font-size="12" font-weight="bold" letter-spacing="0em"><tspan x="123.459" y="15.5522">A</tspan></text>
</g>
<g id="A_3">
<path id="Vector_10" d="M137.684 6.35775V18.1649L147.239 23.3717L156.765 18.1649V6.35775L147.261 1.13965L137.684 6.35775Z" fill="#72B8BD" stroke="url(#paint9_linear_938_25754)" stroke-width="2" stroke-miterlimit="10" stroke-linecap="round" stroke-linejoin="round"/>
<text id="A_4" fill="white" xml:space="preserve" style="white-space: pre" font-family="Arial" font-size="12" font-weight="bold" letter-spacing="0em"><tspan x="142.541" y="15.5522">A</tspan></text>
</g>
<g id="Uridine">
<path id="Vector_11" d="M156.765 6.35775V18.1649L166.321 23.3717L175.847 18.1649V6.35775L166.342 1.13965L156.765 6.35775Z" fill="#A0BD74" stroke="url(#paint10_linear_938_25754)" stroke-width="2" stroke-miterlimit="10"/>
<text id="U" fill="white" xml:space="preserve" style="white-space: pre" font-family="Arial" font-size="12" font-weight="bold" letter-spacing="0em"><tspan x="161.622" y="15.5522">U</tspan></text>
</g>
<g id="Uridine_2">
<path id="Vector_12" d="M175.847 6.35775V18.1649L185.402 23.3717L194.928 18.1649V6.35775L185.423 1.13965L175.847 6.35775Z" fill="#A0BD74" stroke="url(#paint11_linear_938_25754)" stroke-width="2" stroke-miterlimit="10"/>
<text id="U_2" fill="white" xml:space="preserve" style="white-space: pre" font-family="Arial" font-size="12" font-weight="bold" letter-spacing="0em"><tspan x="180.703" y="15.5522">U</tspan></text>
</g>
<g id="Uridine_3">
<path id="Vector_13" d="M194.928 6.35775V18.1649L204.483 23.3717L214.009 18.1649V6.35775L204.505 1.13965L194.928 6.35775Z" fill="#A0BD74" stroke="url(#paint12_linear_938_25754)" stroke-width="2" stroke-miterlimit="10"/>
<text id="U_3" fill="white" xml:space="preserve" style="white-space: pre" font-family="Arial" font-size="12" font-weight="bold" letter-spacing="0em"><tspan x="199.784" y="15.5522">U</tspan></text>
</g>
</g>
<path id="Vector_14" d="M10.3729 1.95117H4.2397L1.1731 6.95117L4.2397 11.9512H10.3729L13.4396 6.95117L10.3729 1.95117Z" fill="url(#paint13_linear_938_25754)" stroke="#BD728C" stroke-width="2" stroke-miterlimit="10"/>
</g>
<defs>
<linearGradient id="paint0_linear_938_25754" x1="52.224" y1="16.8208" x2="52.224" y2="6.84908" gradientUnits="userSpaceOnUse">
<stop stop-color="#241A04"/>
<stop offset="0.1959" stop-color="#A28746"/>
<stop offset="0.3113" stop-color="#E2E0DC"/>
<stop offset="0.4279" stop-color="#A2760E"/>
<stop offset="1" stop-color="#241A04"/>
</linearGradient>
<linearGradient id="paint1_linear_938_25754" x1="101.215" y1="16.8208" x2="101.215" y2="6.84908" gradientUnits="userSpaceOnUse">
<stop stop-color="#241A04"/>
<stop offset="0.1959" stop-color="#A28746"/>
<stop offset="0.3113" stop-color="#E2E0DC"/>
<stop offset="0.4279" stop-color="#A2760E"/>
<stop offset="1" stop-color="#241A04"/>
</linearGradient>
<linearGradient id="paint2_linear_938_25754" x1="150.206" y1="16.8208" x2="150.206" y2="6.84908" gradientUnits="userSpaceOnUse">
<stop stop-color="#241A04"/>
<stop offset="0.1959" stop-color="#A28746"/>
<stop offset="0.3113" stop-color="#E2E0DC"/>
<stop offset="0.4279" stop-color="#A2760E"/>
<stop offset="1" stop-color="#241A04"/>
</linearGradient>
<linearGradient id="paint3_linear_938_25754" x1="199.196" y1="16.8208" x2="199.196" y2="6.84908" gradientUnits="userSpaceOnUse">
<stop stop-color="#241A04"/>
<stop offset="0.1959" stop-color="#A28746"/>
<stop offset="0.3113" stop-color="#E2E0DC"/>
<stop offset="0.4279" stop-color="#A2760E"/>
<stop offset="1" stop-color="#241A04"/>
</linearGradient>
<linearGradient id="paint4_linear_938_25754" x1="27.6827" y1="6.84909" x2="27.6827" y2="16.8208" gradientUnits="userSpaceOnUse">
<stop stop-color="#71530D"/>
<stop offset="0.0919" stop-color="#A27713"/>
<stop offset="0.2499" stop-color="#E2E0DC"/>
<stop offset="0.5868" stop-color="#A2760E"/>
<stop offset="1" stop-color="#241A04"/>
</linearGradient>
<linearGradient id="paint5_linear_938_25754" x1="76.6735" y1="6.84909" x2="76.6735" y2="16.8208" gradientUnits="userSpaceOnUse">
<stop stop-color="#71530D"/>
<stop offset="0.0919" stop-color="#A27713"/>
<stop offset="0.2499" stop-color="#E2E0DC"/>
<stop offset="0.5868" stop-color="#A2760E"/>
<stop offset="1" stop-color="#241A04"/>
</linearGradient>
<linearGradient id="paint6_linear_938_25754" x1="125.664" y1="6.84909" x2="125.664" y2="16.8208" gradientUnits="userSpaceOnUse">
<stop stop-color="#71530D"/>
<stop offset="0.0919" stop-color="#A27713"/>
<stop offset="0.2499" stop-color="#E2E0DC"/>
<stop offset="0.5868" stop-color="#A2760E"/>
<stop offset="1" stop-color="#241A04"/>
</linearGradient>
<linearGradient id="paint7_linear_938_25754" x1="174.655" y1="6.84909" x2="174.655" y2="16.8208" gradientUnits="userSpaceOnUse">
<stop stop-color="#71530D"/>
<stop offset="0.0919" stop-color="#A27713"/>
<stop offset="0.2499" stop-color="#E2E0DC"/>
<stop offset="0.5868" stop-color="#A2760E"/>
<stop offset="1" stop-color="#241A04"/>
</linearGradient>
<linearGradient id="paint8_linear_938_25754" x1="128.143" y1="24.3717" x2="128.143" y2="0.139648" gradientUnits="userSpaceOnUse">
<stop stop-color="#041330"/>
<stop offset="1" stop-color="#72B8BD"/>
</linearGradient>
<linearGradient id="paint9_linear_938_25754" x1="147.225" y1="24.3717" x2="147.225" y2="0.139648" gradientUnits="userSpaceOnUse">
<stop stop-color="#041330"/>
<stop offset="1" stop-color="#72B8BD"/>
</linearGradient>
<linearGradient id="paint10_linear_938_25754" x1="166.306" y1="24.5109" x2="166.306" y2="-0.000152074" gradientUnits="userSpaceOnUse">
<stop stop-color="#001347"/>
<stop offset="0.9995" stop-color="#A0BD74"/>
</linearGradient>
<linearGradient id="paint11_linear_938_25754" x1="185.387" y1="24.5109" x2="185.387" y2="-0.000152074" gradientUnits="userSpaceOnUse">
<stop stop-color="#001347"/>
<stop offset="0.9995" stop-color="#A0BD74"/>
</linearGradient>
<linearGradient id="paint12_linear_938_25754" x1="204.469" y1="24.5109" x2="204.469" y2="-0.000152074" gradientUnits="userSpaceOnUse">
<stop stop-color="#001347"/>
<stop offset="0.9995" stop-color="#A0BD74"/>
</linearGradient>
<linearGradient id="paint13_linear_938_25754" x1="7.3063" y1="11.9512" x2="7.3063" y2="1.95117" gradientUnits="userSpaceOnUse">
<stop stop-color="#301B24"/>
<stop offset="1" stop-color="#BD728C"/>
</linearGradient>
</defs>
</svg>
