<svg width="247" height="253" viewBox="0 0 247 253" fill="none" xmlns="http://www.w3.org/2000/svg">
<g id="R-ICO-014936">
<path id="BG" d="M209.464 120.222C208.489 118.225 243.487 94.6984 241.782 93.0443C240.077 91.3901 201.669 111.608 199.36 110.374C196.13 108.649 192.371 107.373 188.256 106.653C190.96 101.021 190.081 94.0487 187.219 88.2153C186.547 86.8451 216.634 62.9073 215.505 61.4694C214.376 60.0315 182.405 81.4879 181.158 80.5224C177.416 77.6258 173.241 76.6935 169.233 76.7571C170.746 72.7091 170.861 68.5252 169.502 64.572C167.651 59.1817 163.091 54.4601 156.795 51.1941C154.524 50.0156 162.347 16.7049 159.67 15.9424C157.187 15.2348 143.43 46.5791 139.668 46.1998C133.398 45.5676 126.219 46.597 121.029 53.3061C114.737 47.1305 106.216 47.5409 99.9143 48.8348C97.7443 49.2804 79.0343 -0.419624 77.5725 0.00267608C75.5752 0.579976 90.4823 51.5334 88.7061 52.3469C81.5097 55.6426 76.2829 60.7497 74.2843 66.6407C73.3545 69.3814 73.1387 72.2295 73.5957 75.064C68.004 74.139 61.537 74.4347 56.2073 79.0418C54.9465 80.1316 21.2886 52.0326 20.142 53.8632C18.9954 55.6938 50.908 86.3221 50.4067 88.0084C48.9027 93.0675 49.1279 98.9888 50.8698 104.029C44.8947 103.783 37.8274 104.791 32.8833 110.525C31.7147 111.881 1.01637 101.949 0.024467 104.337C-0.967433 106.725 28.5304 119.269 28.3447 121.21C27.7877 127.031 29.4575 133.462 32.6864 138.24C34.1215 140.364 4.70057 163.627 6.69297 164.9C7.53447 165.438 39.6853 144.482 40.7876 144.952C44.0946 146.361 48.4404 147.411 53.0135 147.775C50.8786 154.031 51.4984 161.805 54.4729 167.603C55.4644 169.536 19.4903 190.589 20.9903 191.953C21.787 192.677 59.983 174.059 61.0894 174.755C64.4085 176.843 68.9658 178.708 73.8281 179.777C73.3726 180.78 72.9701 181.858 72.6443 183.039L72.5782 183.3C72.0558 185.569 71.9928 188.003 72.3148 190.449C72.5267 192.058 42.0845 226.957 42.6085 228.532C43.0476 229.852 74.4096 197.859 75.0405 199.098C77.3863 203.703 80.9714 207.57 85.1536 209.367C88.0631 210.617 92.3675 211.356 97.064 211.356C99.6281 211.356 104.228 249.165 106.861 248.686C109.495 248.208 110.162 209.443 112.536 208.413C115.254 207.233 117.588 205.702 119.542 203.896C121.862 207.798 125.082 211.009 128.778 212.598C130.232 213.223 133.329 252.246 135.356 252.587C137.383 252.928 138.34 214.587 140.688 214.587C145.817 214.587 151.412 213.705 156.161 211.644C160.41 209.799 163.776 207.139 166.101 203.821C167.113 202.378 205.128 217.631 205.719 215.989C206.311 214.348 169.527 195.86 169.743 194.261C170.392 189.463 169.361 184.939 166.701 181.186C166.572 181.003 166.426 180.831 166.289 180.652C171.075 179.924 175.688 178.505 179.367 176.893C181.713 175.865 214.219 201.145 215.61 200.09C217.184 198.896 187.896 171.092 188.859 169.518C192.399 163.73 192.022 155.847 189.31 149.375C190.953 149.218 192.574 148.963 194.13 148.571C198.483 147.474 202.142 145.487 204.942 142.727C206.287 141.401 245.803 152.009 246.733 150.34C247.567 148.843 209.851 135.218 210.321 133.703C211.769 129.045 211.494 124.382 209.464 120.222Z" fill="#286A7E"/>
<g id="Group">
<g id="R-ICO-014264">
<g id="BG_2">
<path id="BG_3" d="M118.884 193.599C114.342 206.389 93.7414 206.343 87.3583 203.634C81.2738 201.053 76.8255 191.095 78.276 184.661C80.8328 175.226 89.8308 174.168 98.8594 174.054C112.181 173.883 123.426 180.809 118.884 193.599Z" fill="url(#paint0_radial_938_25840)"/>
<path id="Membrane" d="M119.74 184.093C120.243 185.54 120.403 187.092 120.275 188.593C120.215 189.316 120.089 190.028 119.906 190.722C119.734 191.686 119.475 192.673 119.117 193.682C118.937 194.19 118.73 194.682 118.498 195.159C118.265 195.757 117.983 196.339 117.647 196.891L117.366 197.354C117.27 197.507 117.154 197.646 117.049 197.793L116.726 198.228L116.376 198.641C116.147 198.922 115.889 199.174 115.629 199.425C115.378 199.685 115.102 199.918 114.829 200.154C113.722 201.081 112.477 201.825 111.174 202.405C110.55 202.682 109.91 202.919 109.26 203.118C107.485 203.829 105.603 204.346 103.703 204.701C102.706 204.942 101.695 205.128 100.677 205.265C99.5772 205.431 98.4655 205.491 97.3541 205.544C96.2417 205.571 95.1273 205.553 94.0149 205.476C91.7969 205.294 89.5631 204.967 87.4557 204.084C86.3966 203.644 85.4535 202.979 84.625 202.227C84.6196 202.222 84.6147 202.217 84.6092 202.212C82.9693 200.856 81.512 198.992 80.3653 196.893C79.8614 196.065 79.4133 195.201 79.0272 194.307C78.5966 193.32 78.275 192.288 78.0022 191.242C77.7422 190.192 77.5948 189.112 77.5287 188.024C77.4823 186.933 77.5376 185.84 77.7847 184.744C77.9091 184.201 78.1031 183.688 78.2927 183.18C78.4955 182.675 78.7154 182.176 78.9857 181.703C79.508 180.73 80.1765 179.838 80.9543 179.068C82.3679 177.503 84.1177 176.399 86.077 175.627C86.3999 175.5 86.7302 175.385 87.0637 175.275C88.274 174.819 89.5286 174.483 90.7975 174.244C93.4021 173.745 96.0484 173.609 98.6716 173.562C99.9934 173.551 101.322 173.598 102.64 173.734C103.958 173.882 105.271 174.087 106.556 174.415C107.731 174.706 108.891 175.083 110.009 175.551C112.232 176.369 114.172 177.458 115.738 178.786C116.325 179.209 116.877 179.687 117.379 180.219C117.9 180.768 118.362 181.375 118.765 182.023C118.958 182.352 119.158 182.679 119.305 183.032L119.542 183.555C119.623 183.728 119.673 183.914 119.74 184.093ZM110.269 176.175C108.998 175.75 107.701 175.42 106.391 175.17C105.121 174.94 103.842 174.758 102.555 174.668C101.269 174.564 99.9795 174.525 98.6858 174.552C97.3831 174.56 96.0834 174.597 94.7883 174.665C93.4924 174.723 92.203 174.843 90.9208 175.004C89.7384 175.164 88.5604 175.384 87.4053 175.693C84.9616 176.477 82.7898 177.702 81.136 179.621C80.5599 180.379 80.0669 181.191 79.676 182.05C79.2635 182.983 78.8964 183.967 78.6997 184.949C78.6667 185.198 78.6099 185.439 78.5825 185.69L78.5117 186.448L78.4943 187.213C78.4852 187.467 78.5122 187.724 78.5176 187.979C78.6025 190.027 79.0792 192.063 79.7453 194.029C80.0254 194.807 80.33 195.58 80.6738 196.337C81.871 198.617 83.434 200.635 85.1837 202.023C85.9853 202.582 86.8339 203.049 87.7407 203.366C88.7443 203.704 89.7938 203.96 90.862 204.12C91.9281 204.289 93.0029 204.43 94.0863 204.489C96.2488 204.661 98.4279 204.638 100.6 204.499C101.686 204.425 102.77 204.315 103.853 204.168C105.591 203.83 107.312 203.354 108.942 202.711C108.975 202.698 109.007 202.684 109.04 202.671C109.646 202.365 110.242 202.05 110.825 201.715C112.019 201.029 113.151 200.26 114.195 199.393C114.457 199.177 114.722 198.964 114.963 198.725L115.333 198.377L115.685 198.01L116.04 197.645L116.369 197.257C116.595 197.002 116.802 196.733 117.008 196.462C117.422 195.918 117.795 195.343 118.142 194.746C118.329 194.346 118.501 193.938 118.651 193.516C118.993 192.552 119.242 191.609 119.409 190.688C119.476 189.977 119.513 189.27 119.502 188.566C119.482 187.141 119.257 185.739 118.804 184.415C118.36 183.086 117.661 181.849 116.795 180.722C116.372 180.173 115.905 179.654 115.409 179.155C113.99 177.953 112.253 176.951 110.269 176.175Z" fill="#286A7E"/>
</g>
<g id="NUCLEUS">
<path id="Vector" d="M96.5734 186.453C100.104 185.062 104.094 186.796 105.485 190.327C106.876 193.858 105.141 197.848 101.611 199.239C98.0798 200.63 94.0899 198.895 92.6989 195.364C91.308 191.834 93.0426 187.844 96.5734 186.453Z" fill="url(#paint1_radial_938_25840)"/>
<path id="Vector_2" d="M98.3517 185.761C94.4463 186.17 91.6001 189.684 92.0087 193.59C92.4172 197.495 95.932 200.341 99.8374 199.933C103.743 199.524 106.589 196.01 106.181 192.104C105.767 188.196 102.256 185.349 98.3517 185.761ZM99.7855 199.428C96.1539 199.809 92.8924 197.166 92.5132 193.538C92.1339 189.91 94.776 186.645 98.4037 186.266C102.035 185.885 105.297 188.528 105.676 192.156C106.055 195.784 103.412 199.045 99.7855 199.428Z" fill="#544181"/>
</g>
</g>
<g id="R-ICO-014264_2">
<g id="BG_4">
<path id="BG_5" d="M122.45 196.988C126.993 209.779 147.593 209.732 153.976 207.023C160.06 204.442 164.509 194.484 163.058 188.05C160.501 178.615 151.503 177.557 142.475 177.443C129.153 177.273 117.908 184.198 122.45 196.988Z" fill="url(#paint2_radial_938_25840)"/>
<path id="Membrane_2" d="M121.594 187.482C121.091 188.929 120.932 190.481 121.059 191.982C121.119 192.705 121.246 193.417 121.428 194.111C121.6 195.075 121.859 196.062 122.217 197.071C122.397 197.579 122.604 198.071 122.836 198.548C123.069 199.147 123.351 199.728 123.687 200.28L123.969 200.743C124.064 200.896 124.18 201.035 124.285 201.182L124.608 201.617L124.958 202.03C125.187 202.311 125.445 202.563 125.705 202.815C125.956 203.075 126.232 203.307 126.505 203.543C127.612 204.47 128.857 205.214 130.16 205.794C130.784 206.071 131.424 206.308 132.074 206.507C133.849 207.219 135.732 207.735 137.631 208.09C138.628 208.331 139.639 208.517 140.657 208.654C141.757 208.821 142.869 208.88 143.98 208.933C145.092 208.96 146.207 208.942 147.319 208.866C149.537 208.683 151.771 208.356 153.878 207.473C154.938 207.034 155.881 206.368 156.709 205.617C156.715 205.612 156.719 205.606 156.725 205.601C158.365 204.246 159.822 202.381 160.969 200.282C161.473 199.454 161.921 198.59 162.307 197.697C162.738 196.709 163.059 195.677 163.332 194.631C163.592 193.581 163.739 192.501 163.805 191.414C163.852 190.322 163.797 189.229 163.549 188.133C163.425 187.59 163.231 187.077 163.041 186.57C162.839 186.065 162.619 185.566 162.348 185.092C161.826 184.12 161.158 183.227 160.38 182.457C158.966 180.892 157.216 179.788 155.257 179.017C154.934 178.889 154.604 178.774 154.27 178.664C153.06 178.208 151.806 177.872 150.537 177.633C147.932 177.134 145.286 176.998 142.662 176.951C141.341 176.94 140.012 176.987 138.694 177.123C137.377 177.271 136.063 177.476 134.778 177.804C133.603 178.095 132.443 178.472 131.325 178.94C129.102 179.758 127.163 180.847 125.596 182.176C125.009 182.598 124.457 183.076 123.955 183.608C123.434 184.157 122.972 184.764 122.57 185.412C122.376 185.741 122.176 186.068 122.03 186.421L121.792 186.944C121.711 187.117 121.661 187.303 121.594 187.482ZM131.066 179.565C132.336 179.139 133.633 178.809 134.943 178.56C136.213 178.329 137.492 178.147 138.779 178.057C140.066 177.953 141.355 177.915 142.648 177.941C143.951 177.95 145.251 177.986 146.546 178.055C147.842 178.113 149.131 178.232 150.413 178.393C151.596 178.553 152.774 178.773 153.929 179.083C156.373 179.867 158.544 181.091 160.198 183.01C160.774 183.768 161.267 184.58 161.658 185.439C162.071 186.372 162.438 187.356 162.634 188.339C162.667 188.587 162.724 188.828 162.752 189.079L162.822 189.837L162.84 190.602C162.849 190.856 162.822 191.113 162.817 191.368C162.732 193.417 162.255 195.452 161.589 197.419C161.309 198.197 161.004 198.969 160.66 199.727C159.463 202.006 157.9 204.024 156.15 205.413C155.349 205.971 154.5 206.438 153.593 206.755C152.59 207.093 151.54 207.349 150.472 207.509C149.406 207.678 148.331 207.819 147.248 207.878C145.085 208.05 142.906 208.027 140.734 207.888C139.648 207.814 138.564 207.704 137.481 207.557C135.744 207.219 134.023 206.743 132.392 206.101C132.359 206.088 132.327 206.073 132.294 206.06C131.688 205.754 131.092 205.439 130.509 205.104C129.315 204.418 128.183 203.649 127.139 202.782C126.877 202.566 126.612 202.353 126.372 202.114L126.001 201.766L125.649 201.399L125.294 201.034L124.965 200.646C124.739 200.392 124.533 200.123 124.326 199.851C123.912 199.307 123.539 198.733 123.192 198.135C123.005 197.735 122.833 197.327 122.683 196.905C122.341 195.941 122.092 194.998 121.925 194.077C121.858 193.366 121.821 192.659 121.832 191.955C121.852 190.531 122.077 189.128 122.53 187.804C122.974 186.475 123.673 185.239 124.539 184.111C124.963 183.562 125.429 183.043 125.925 182.544C127.345 181.342 129.081 180.34 131.066 179.565Z" fill="#286A7E"/>
</g>
<g id="NUCLEUS_2">
<path id="Vector_3" d="M144.761 189.842C141.23 188.451 137.24 190.186 135.849 193.716C134.458 197.247 136.193 201.237 139.724 202.628C143.254 204.019 147.244 202.284 148.635 198.753C150.026 195.223 148.292 191.233 144.761 189.842Z" fill="url(#paint3_radial_938_25840)"/>
<path id="Vector_4" d="M142.982 189.15C146.888 189.559 149.734 193.074 149.325 196.979C148.917 200.884 145.402 203.731 141.497 203.322C137.591 202.914 134.745 199.399 135.154 195.493C135.567 191.586 139.078 188.738 142.982 189.15ZM141.549 202.818C145.18 203.198 148.442 200.555 148.821 196.927C149.2 193.299 146.558 190.034 142.93 189.655C139.299 189.274 136.037 191.918 135.658 195.545C135.279 199.173 137.922 202.434 141.549 202.818Z" fill="#544181"/>
</g>
</g>
<g id="R-ICO-014264_3">
<g id="BG_6">
<path id="BG_7" d="M99.8759 162.659C102.355 176.003 122.708 179.19 129.437 177.516C135.851 175.921 141.806 166.784 141.383 160.202C140.338 150.482 131.618 148.027 122.719 146.497C109.589 144.239 97.3964 149.314 99.8759 162.659Z" fill="url(#paint4_radial_938_25840)"/>
<path id="Membrane_3" d="M100.522 153.135C99.7983 154.486 99.3972 155.994 99.2877 157.496C99.2338 158.219 99.2466 158.943 99.3182 159.656C99.3363 160.636 99.4371 161.651 99.6326 162.704C99.7311 163.233 99.8579 163.752 100.012 164.26C100.148 164.887 100.336 165.506 100.581 166.104L100.787 166.605C100.857 166.771 100.949 166.926 101.03 167.088L101.281 167.568L101.562 168.031C101.744 168.345 101.959 168.634 102.176 168.923C102.384 169.219 102.62 169.492 102.852 169.768C103.8 170.857 104.913 171.788 106.109 172.565C106.682 172.936 107.276 173.271 107.887 173.569C109.528 174.55 111.307 175.356 113.127 176.004C114.074 176.399 115.044 176.742 116.027 177.037C117.087 177.373 118.176 177.606 119.265 177.834C120.36 178.034 121.463 178.192 122.574 178.29C124.793 178.458 127.05 178.486 129.27 177.945C130.385 177.676 131.421 177.167 132.357 176.555C132.363 176.551 132.369 176.546 132.375 176.542C134.207 175.461 135.939 173.848 137.401 171.955C138.028 171.216 138.606 170.433 139.128 169.611C139.708 168.704 140.188 167.735 140.621 166.745C141.043 165.748 141.358 164.705 141.594 163.641C141.811 162.57 141.928 161.482 141.856 160.361C141.818 159.805 141.707 159.268 141.599 158.737C141.478 158.207 141.339 157.679 141.147 157.169C140.783 156.127 140.263 155.141 139.616 154.258C138.465 152.49 136.91 151.126 135.096 150.056C134.797 149.88 134.489 149.714 134.177 149.553C133.053 148.914 131.867 148.385 130.651 147.95C128.157 147.048 125.565 146.499 122.982 146.04C121.678 145.823 120.358 145.66 119.035 145.588C117.711 145.528 116.382 145.524 115.061 145.646C113.855 145.749 112.65 145.94 111.472 146.226C109.148 146.686 107.062 147.457 105.307 148.523C104.661 148.848 104.041 149.234 103.462 149.68C102.861 150.14 102.309 150.668 101.81 151.244C101.568 151.539 101.319 151.83 101.118 152.156L100.802 152.635C100.694 152.793 100.616 152.969 100.522 153.135ZM111.118 146.802C112.439 146.582 113.772 146.459 115.106 146.418C116.396 146.39 117.687 146.411 118.973 146.523C120.26 146.622 121.539 146.787 122.812 147.016C124.098 147.229 125.376 147.468 126.644 147.74C127.915 148 129.169 148.32 130.41 148.681C131.553 149.025 132.682 149.427 133.774 149.913C136.064 151.071 138.017 152.621 139.349 154.776C139.8 155.615 140.159 156.494 140.41 157.404C140.671 158.39 140.88 159.42 140.92 160.42C140.913 160.671 140.932 160.918 140.919 161.17L140.87 161.93L140.767 162.688C140.736 162.941 140.67 163.19 140.624 163.441C140.219 165.451 139.429 167.386 138.462 169.224C138.064 169.948 137.642 170.663 137.183 171.358C135.643 173.421 133.783 175.169 131.837 176.266C130.958 176.691 130.047 177.02 129.101 177.19C128.057 177.366 126.98 177.455 125.9 177.445C124.821 177.445 123.737 177.416 122.658 177.304C120.495 177.134 118.347 176.77 116.223 176.292C115.162 176.049 114.109 175.77 113.063 175.455C111.4 174.848 109.775 174.108 108.265 173.218C108.234 173.2 108.205 173.18 108.174 173.162C107.624 172.765 107.085 172.36 106.562 171.938C105.49 171.074 104.493 170.137 103.597 169.116C103.373 168.862 103.145 168.61 102.945 168.336L102.633 167.934L102.343 167.517L102.05 167.101L101.786 166.666C101.603 166.379 101.441 166.081 101.28 165.78C100.956 165.178 100.678 164.552 100.429 163.908C100.307 163.483 100.201 163.053 100.119 162.613C99.9325 161.607 99.8345 160.637 99.8145 159.701C99.8593 158.988 99.9336 158.284 100.055 157.591C100.298 156.187 100.74 154.837 101.396 153.6C102.043 152.358 102.927 151.246 103.959 150.268C104.464 149.793 105.006 149.353 105.574 148.938C107.165 147.974 109.036 147.257 111.118 146.802Z" fill="#286A7E"/>
</g>
<g id="NUCLEUS_3">
<path id="Vector_5" d="M123.032 159.101C119.763 157.173 115.55 158.26 113.622 161.529C111.695 164.798 112.782 169.011 116.051 170.938C119.32 172.866 123.532 171.779 125.46 168.51C127.388 165.241 126.3 161.029 123.032 159.101Z" fill="url(#paint5_radial_938_25840)"/>
<path id="Vector_6" d="M121.384 158.139C125.177 159.155 127.436 163.073 126.42 166.866C125.404 170.659 121.486 172.918 117.693 171.902C113.9 170.886 111.641 166.968 112.657 163.175C113.679 159.381 117.593 157.119 121.384 158.139ZM117.823 171.412C121.35 172.358 124.986 170.259 125.93 166.735C126.874 163.212 124.777 159.573 121.253 158.629C117.726 157.683 114.091 159.782 113.147 163.306C112.203 166.829 114.302 170.465 117.823 171.412Z" fill="#544181"/>
</g>
</g>
<g id="R-ICO-014264_4">
<g id="BG_8">
<path id="BG_9" d="M143.825 159.233C146.304 145.889 166.656 142.703 173.385 144.376C179.8 145.972 185.755 155.108 185.332 161.69C184.287 171.41 175.566 173.865 166.668 175.395C153.537 177.653 141.345 172.578 143.825 159.233Z" fill="url(#paint6_radial_938_25840)"/>
<path id="Membrane_4" d="M144.47 168.757C143.747 167.406 143.346 165.899 143.236 164.396C143.182 163.673 143.195 162.95 143.267 162.236C143.285 161.256 143.386 160.241 143.581 159.189C143.68 158.659 143.807 158.14 143.961 157.632C144.097 157.005 144.284 156.386 144.53 155.788L144.735 155.287C144.805 155.121 144.898 154.966 144.978 154.804L145.229 154.324L145.511 153.861C145.692 153.547 145.908 153.258 146.125 152.969C146.333 152.673 146.568 152.4 146.801 152.124C147.749 151.035 148.862 150.105 150.058 149.328C150.631 148.956 151.225 148.621 151.836 148.323C153.477 147.342 155.255 146.536 157.076 145.888C158.022 145.494 158.992 145.15 159.975 144.855C161.036 144.519 162.125 144.286 163.214 144.059C164.308 143.858 165.412 143.7 166.522 143.602C168.741 143.434 170.999 143.406 173.219 143.947C174.334 144.216 175.369 144.725 176.306 145.337C176.312 145.341 176.317 145.346 176.324 145.35C178.156 146.432 179.888 148.045 181.35 149.938C181.977 150.676 182.555 151.459 183.077 152.281C183.657 153.188 184.136 154.157 184.57 155.147C184.991 156.144 185.306 157.187 185.542 158.251C185.759 159.322 185.876 160.41 185.804 161.531C185.767 162.087 185.655 162.624 185.548 163.155C185.427 163.685 185.288 164.213 185.095 164.723C184.732 165.765 184.212 166.751 183.564 167.634C182.414 169.402 180.859 170.766 179.045 171.836C178.746 172.012 178.438 172.178 178.126 172.339C177.002 172.978 175.816 173.507 174.6 173.942C172.106 174.844 169.514 175.393 166.93 175.852C165.627 176.069 164.307 176.232 162.984 176.304C161.66 176.365 160.33 176.368 159.009 176.246C157.803 176.143 156.598 175.952 155.421 175.666C153.097 175.207 151.011 174.435 149.255 173.369C148.609 173.044 147.99 172.658 147.41 172.212C146.81 171.752 146.258 171.224 145.759 170.648C145.516 170.353 145.268 170.062 145.067 169.736L144.751 169.257C144.643 169.099 144.565 168.923 144.47 168.757ZM155.067 175.09C156.388 175.31 157.721 175.433 159.054 175.474C160.345 175.502 161.636 175.481 162.922 175.369C164.208 175.27 165.487 175.105 166.761 174.876C168.046 174.663 169.324 174.424 170.592 174.152C171.863 173.892 173.118 173.572 174.359 173.211C175.501 172.868 176.63 172.465 177.723 171.979C180.013 170.821 181.966 169.271 183.298 167.116C183.748 166.277 184.108 165.398 184.359 164.488C184.62 163.502 184.828 162.472 184.868 161.472C184.862 161.221 184.88 160.974 184.868 160.722L184.819 159.962L184.716 159.204C184.685 158.951 184.618 158.702 184.573 158.451C184.168 156.441 183.377 154.506 182.411 152.668C182.012 151.944 181.59 151.229 181.132 150.534C179.592 148.471 177.732 146.723 175.786 145.626C174.907 145.201 173.995 144.872 173.05 144.702C172.006 144.526 170.929 144.437 169.849 144.447C168.77 144.447 167.686 144.476 166.607 144.588C164.444 144.758 162.295 145.122 160.172 145.6C159.111 145.843 158.058 146.122 157.011 146.437C155.348 147.044 153.723 147.784 152.214 148.674C152.183 148.692 152.154 148.712 152.123 148.73C151.573 149.127 151.033 149.532 150.511 149.954C149.439 150.819 148.441 151.755 147.546 152.776C147.322 153.03 147.093 153.282 146.893 153.556L146.582 153.958L146.292 154.375L145.999 154.792L145.734 155.226C145.552 155.513 145.389 155.811 145.228 156.112C144.905 156.714 144.627 157.34 144.377 157.985C144.255 158.409 144.15 158.839 144.068 159.279C143.881 160.285 143.783 161.255 143.763 162.191C143.808 162.904 143.882 163.608 144.003 164.301C144.247 165.705 144.689 167.055 145.344 168.292C145.991 169.534 146.876 170.646 147.908 171.624C148.412 172.099 148.954 172.539 149.523 172.954C151.113 173.919 152.985 174.635 155.067 175.09Z" fill="#286A7E"/>
</g>
<g id="NUCLEUS_4">
<path id="Vector_7" d="M166.98 162.791C163.711 164.719 159.499 163.632 157.571 160.363C155.643 157.094 156.731 152.881 159.999 150.954C163.268 149.026 167.481 150.113 169.409 153.382C171.336 156.651 170.249 160.863 166.98 162.791Z" fill="url(#paint7_radial_938_25840)"/>
<path id="Vector_8" d="M165.332 163.753C169.125 162.737 171.385 158.819 170.369 155.026C169.352 151.233 165.435 148.974 161.642 149.99C157.849 151.006 155.589 154.924 156.605 158.717C157.627 162.511 161.541 164.773 165.332 163.753ZM161.772 150.48C165.299 149.534 168.935 151.633 169.878 155.157C170.822 158.68 168.725 162.319 165.202 163.263C161.675 164.209 158.039 162.11 157.095 158.586C156.152 155.063 158.251 151.427 161.772 150.48Z" fill="#544181"/>
</g>
</g>
<g id="R-ICO-014264_5">
<g id="BG_10">
<path id="BG_11" d="M203.663 133.287C198.4 145.798 177.836 144.581 171.617 141.514C165.689 138.59 161.814 128.395 163.628 122.054C166.717 112.78 175.761 112.236 184.782 112.635C198.092 113.222 208.925 120.776 203.663 133.287Z" fill="url(#paint8_radial_938_25840)"/>
<path id="Membrane_5" d="M205.058 123.845C205.477 125.318 205.548 126.877 205.336 128.368C205.234 129.086 205.068 129.79 204.846 130.472C204.62 131.425 204.306 132.396 203.891 133.383C203.682 133.879 203.447 134.359 203.188 134.823C202.922 135.407 202.607 135.971 202.24 136.504L201.933 136.949C201.829 137.097 201.706 137.229 201.592 137.369L201.245 137.786L200.872 138.178C200.628 138.446 200.355 138.683 200.082 138.919C199.816 139.164 199.527 139.381 199.241 139.601C198.084 140.463 196.798 141.135 195.464 141.64C194.825 141.881 194.173 142.082 193.513 142.243C191.701 142.853 189.791 143.262 187.875 143.507C186.866 143.691 185.845 143.82 184.822 143.899C183.714 144.002 182.601 143.998 181.488 143.989C180.376 143.952 179.265 143.871 178.158 143.731C175.954 143.422 173.743 142.97 171.689 141.968C170.656 141.469 169.753 140.751 168.968 139.954C168.963 139.948 168.959 139.942 168.953 139.937C167.393 138.491 166.044 136.546 165.019 134.385C164.563 133.53 164.165 132.642 163.83 131.728C163.456 130.718 163.194 129.669 162.981 128.61C162.781 127.546 162.695 126.46 162.691 125.37C162.707 124.278 162.824 123.189 163.133 122.11C163.288 121.574 163.511 121.073 163.729 120.577C163.96 120.085 164.208 119.599 164.505 119.141C165.082 118.2 165.8 117.348 166.62 116.623C168.121 115.14 169.93 114.138 171.93 113.479C172.26 113.37 172.596 113.274 172.935 113.183C174.17 112.797 175.441 112.533 176.722 112.367C179.351 112.016 182 112.031 184.622 112.133C185.942 112.198 187.266 112.32 188.575 112.53C189.881 112.753 191.181 113.033 192.445 113.433C193.602 113.791 194.739 114.233 195.828 114.764C198.001 115.707 199.875 116.904 201.364 118.319C201.926 118.774 202.449 119.284 202.92 119.843C203.409 120.42 203.837 121.053 204.201 121.723C204.375 122.062 204.557 122.4 204.683 122.761L204.89 123.296C204.962 123.474 205.001 123.662 205.058 123.845ZM196.052 115.402C194.808 114.905 193.531 114.502 192.237 114.178C190.982 113.876 189.716 113.621 188.436 113.458C187.158 113.281 185.873 113.169 184.58 113.122C183.279 113.057 181.979 113.019 180.682 113.014C179.385 112.998 178.091 113.044 176.802 113.132C175.612 113.225 174.423 113.378 173.253 113.621C170.768 114.264 168.53 115.364 166.77 117.186C166.152 117.909 165.614 118.692 165.174 119.528C164.71 120.435 164.287 121.397 164.035 122.367C163.988 122.613 163.917 122.85 163.876 123.1L163.762 123.852L163.701 124.615C163.678 124.868 163.69 125.126 163.681 125.381C163.649 127.431 164.009 129.49 164.563 131.491C164.798 132.284 165.058 133.072 165.358 133.848C166.424 136.193 167.87 138.296 169.538 139.782C170.306 140.385 171.127 140.899 172.014 141.267C172.997 141.662 174.03 141.977 175.088 142.198C176.142 142.427 177.207 142.629 178.286 142.75C180.435 143.044 182.612 143.145 184.788 143.13C185.877 143.118 186.965 143.069 188.055 142.984C189.809 142.746 191.554 142.368 193.219 141.819C193.252 141.808 193.285 141.795 193.319 141.784C193.941 141.513 194.554 141.232 195.155 140.931C196.386 140.315 197.56 139.611 198.652 138.805C198.925 138.604 199.202 138.407 199.456 138.182L199.846 137.855L200.218 137.509L200.593 137.165L200.944 136.796C201.183 136.555 201.405 136.298 201.627 136.038C202.071 135.519 202.476 134.966 202.856 134.39C203.066 134.001 203.261 133.603 203.434 133.191C203.831 132.248 204.133 131.32 204.352 130.41C204.46 129.704 204.537 129.001 204.566 128.297C204.627 126.874 204.482 125.461 204.105 124.113C203.737 122.761 203.109 121.487 202.309 120.311C201.917 119.74 201.482 119.195 201.014 118.669C199.665 117.387 197.989 116.289 196.052 115.402Z" fill="#286A7E"/>
</g>
<g id="NUCLEUS_5">
<path id="Vector_9" d="M181.794 124.884C185.398 123.696 189.283 125.654 190.471 129.258C191.659 132.863 189.7 136.747 186.096 137.935C182.492 139.123 178.607 137.165 177.419 133.561C176.231 129.956 178.19 126.072 181.794 124.884Z" fill="url(#paint9_radial_938_25840)"/>
<path id="Vector_10" d="M183.609 124.294C179.687 124.48 176.645 127.827 176.831 131.749C177.017 135.672 180.364 138.713 184.287 138.527C188.209 138.342 191.25 134.994 191.065 131.072C190.873 127.147 187.53 124.104 183.609 124.294ZM184.263 138.021C180.616 138.194 177.51 135.37 177.338 131.726C177.165 128.083 179.989 124.973 183.632 124.801C187.28 124.627 190.386 127.452 190.558 131.095C190.73 134.739 187.906 137.844 184.263 138.021Z" fill="#544181"/>
</g>
</g>
<g id="R-ICO-014264_6">
<g id="BG_12">
<path id="BG_13" d="M159.783 125.12C153.678 112.998 133.245 115.618 127.25 119.103C121.536 122.425 118.367 132.861 120.61 139.063C124.326 148.104 133.386 148.029 142.358 147.015C155.596 145.519 165.888 137.243 159.783 125.12Z" fill="url(#paint10_radial_938_25840)"/>
<path id="Membrane_6" d="M161.82 134.445C162.138 132.946 162.103 131.387 161.788 129.913C161.638 129.204 161.424 128.513 161.156 127.847C160.866 126.912 160.485 125.965 160.004 125.009C159.762 124.528 159.495 124.065 159.205 123.621C158.899 123.056 158.547 122.514 158.144 122.008L157.807 121.585C157.693 121.444 157.561 121.321 157.439 121.189L157.064 120.797L156.664 120.432C156.403 120.181 156.114 119.963 155.826 119.746C155.543 119.52 155.241 119.323 154.941 119.123C153.727 118.342 152.398 117.76 151.033 117.347C150.379 117.15 149.715 116.994 149.045 116.879C147.195 116.394 145.263 116.117 143.334 116.003C142.315 115.888 141.288 115.829 140.261 115.82C139.149 115.793 138.038 115.873 136.929 115.959C135.822 116.072 134.719 116.228 133.625 116.443C131.447 116.902 129.271 117.505 127.291 118.644C126.295 119.213 125.442 119.991 124.714 120.84C124.71 120.846 124.705 120.852 124.701 120.858C123.243 122.408 122.03 124.44 121.155 126.666C120.758 127.55 120.421 128.463 120.15 129.398C119.846 130.431 119.656 131.495 119.516 132.567C119.389 133.642 119.378 134.731 119.448 135.819C119.539 136.907 119.73 137.985 120.112 139.042C120.304 139.565 120.56 140.05 120.812 140.529C121.076 141.005 121.357 141.473 121.684 141.909C122.324 142.808 123.098 143.61 123.966 144.277C125.564 145.653 127.438 146.529 129.479 147.05C129.815 147.136 130.157 147.209 130.502 147.277C131.759 147.578 133.046 147.755 134.335 147.833C136.982 148.003 139.624 147.807 142.233 147.526C143.545 147.371 144.858 147.159 146.149 146.859C147.437 146.548 148.715 146.18 149.949 145.694C151.078 145.258 152.182 144.74 153.233 144.136C155.337 143.046 157.124 141.724 158.513 140.21C159.043 139.717 159.53 139.174 159.962 138.583C160.41 137.974 160.793 137.314 161.111 136.621C161.261 136.27 161.419 135.921 161.521 135.552L161.691 135.004C161.75 134.822 161.776 134.631 161.82 134.445ZM153.412 143.484C152.205 144.064 150.959 144.554 149.691 144.965C148.459 145.353 147.214 145.693 145.947 145.944C144.684 146.208 143.41 146.407 142.123 146.542C140.83 146.696 139.536 146.823 138.242 146.916C136.949 147.021 135.655 147.064 134.362 147.063C133.169 147.052 131.973 146.981 130.788 146.819C128.266 146.347 125.958 145.403 124.077 143.705C123.411 143.026 122.821 142.282 122.325 141.478C121.8 140.604 121.312 139.673 120.994 138.723C120.931 138.481 120.844 138.249 120.786 138.003L120.621 137.26L120.508 136.503C120.467 136.252 120.462 135.994 120.435 135.74C120.263 133.697 120.482 131.618 120.897 129.584C121.078 128.777 121.284 127.973 121.53 127.178C122.433 124.766 123.732 122.569 125.294 120.973C126.02 120.319 126.803 119.749 127.663 119.322C128.617 118.861 129.626 118.476 130.666 118.183C131.702 117.882 132.751 117.608 133.819 117.414C135.943 116.974 138.108 116.724 140.28 116.59C141.367 116.528 142.456 116.502 143.549 116.512C145.315 116.631 147.082 116.888 148.78 117.322C148.815 117.33 148.849 117.341 148.883 117.35C149.522 117.578 150.153 117.816 150.773 118.075C152.043 118.606 153.263 119.227 154.407 119.957C154.694 120.139 154.983 120.317 155.252 120.524L155.663 120.824L156.058 121.143L156.456 121.461L156.831 121.805C157.086 122.03 157.325 122.271 157.564 122.514C158.042 123.003 158.484 123.526 158.903 124.075C159.139 124.448 159.361 124.832 159.562 125.231C160.022 126.145 160.387 127.05 160.667 127.943C160.823 128.64 160.948 129.337 161.025 130.036C161.184 131.452 161.135 132.872 160.851 134.243C160.577 135.616 160.037 136.93 159.32 138.158C158.968 138.755 158.57 139.328 158.14 139.885C156.882 141.256 155.285 142.466 153.412 143.484Z" fill="#286A7E"/>
</g>
<g id="NUCLEUS_6">
<path id="Vector_11" d="M138.54 134.998C142.217 135.937 145.959 133.717 146.898 130.041C147.836 126.364 145.617 122.622 141.94 121.683C138.263 120.744 134.521 122.964 133.582 126.641C132.643 130.317 134.863 134.059 138.54 134.998Z" fill="url(#paint11_radial_938_25840)"/>
<path id="Vector_12" d="M140.391 135.462C136.465 135.545 133.202 132.414 133.119 128.488C133.037 124.562 136.168 121.299 140.094 121.216C144.02 121.133 147.283 124.265 147.366 128.191C147.443 132.12 144.316 135.384 140.391 135.462ZM140.106 121.723C136.455 121.799 133.549 124.829 133.626 128.476C133.703 132.123 136.733 135.032 140.379 134.955C144.03 134.879 146.936 131.849 146.859 128.202C146.782 124.556 143.751 121.65 140.106 121.723Z" fill="#544181"/>
</g>
</g>
<g id="R-ICO-014264_7">
<g id="BG_14">
<path id="BG_15" d="M95.573 168.689C87.2652 179.422 67.7087 172.948 62.4901 168.382C57.5154 164.03 56.3977 153.181 59.784 147.521C65.1582 139.356 74.0366 141.16 82.65 143.869C95.3594 147.866 103.881 157.955 95.573 168.689Z" fill="url(#paint12_radial_938_25840)"/>
<path id="Membrane_7" d="M99.3538 159.924C99.3795 161.456 99.0468 162.981 98.4571 164.367C98.1741 165.035 97.8321 165.672 97.442 166.274C96.978 167.137 96.4239 167.994 95.7687 168.84C95.439 169.266 95.0889 169.669 94.7193 170.05C94.3115 170.546 93.862 171.011 93.3701 171.43L92.9584 171.782C92.8198 171.898 92.6667 171.993 92.5212 172.1L92.0783 172.413L91.6164 172.695C91.3116 172.892 90.9872 173.05 90.6623 173.208C90.3421 173.376 90.0077 173.511 89.6746 173.65C88.3339 174.185 86.9184 174.503 85.4995 174.648C84.82 174.716 84.1383 174.742 83.459 174.728C81.5507 174.85 79.6005 174.753 77.6856 174.497C76.6633 174.415 75.6438 174.276 74.6346 174.089C73.5375 173.903 72.4629 173.613 71.3902 173.317C70.3251 172.995 69.2719 172.63 68.2391 172.21C66.189 171.344 64.1687 170.337 62.4422 168.84C61.5732 168.092 60.885 167.165 60.3325 166.192C60.3289 166.186 60.3259 166.179 60.3224 166.173C59.1875 164.373 58.3851 162.146 57.9508 159.794C57.7304 158.851 57.5744 157.89 57.4866 156.921C57.3855 155.849 57.4023 154.768 57.4696 153.689C57.5504 152.61 57.7473 151.538 58.0241 150.484C58.3206 149.432 58.7145 148.411 59.2912 147.447C59.579 146.97 59.9235 146.543 60.2619 146.12C60.6122 145.704 60.977 145.298 61.3816 144.933C62.1813 144.172 63.0948 143.533 64.0744 143.044C65.9058 141.998 67.9126 141.496 70.0149 141.375C70.3614 141.354 70.7112 141.348 71.0624 141.348C72.3543 141.293 73.6512 141.365 74.9313 141.534C77.5616 141.873 80.1181 142.57 82.625 143.343C83.884 143.746 85.1317 144.205 86.3419 144.746C87.5468 145.298 88.7305 145.903 89.8492 146.615C90.8747 147.259 91.8592 147.979 92.7752 148.772C94.632 150.244 96.1343 151.883 97.2081 153.634C97.6341 154.219 98.0084 154.845 98.3196 155.507C98.6433 156.191 98.893 156.913 99.073 157.654C99.1537 158.026 99.2417 158.399 99.2709 158.781L99.3334 159.351C99.3568 159.541 99.3461 159.733 99.3538 159.924ZM92.8267 149.446C91.7528 148.646 90.6233 147.928 89.4566 147.281C88.3219 146.666 87.164 146.094 85.9691 145.606C84.7795 145.106 83.5667 144.667 82.3295 144.288C81.0892 143.89 79.8431 143.519 78.5913 143.18C77.3419 142.83 76.0798 142.541 74.8112 142.294C73.638 142.077 72.4501 141.919 71.2562 141.852C68.6899 141.834 66.2443 142.32 64.0741 143.627C63.2903 144.167 62.5685 144.784 61.9288 145.479C61.2459 146.236 60.5898 147.056 60.0965 147.928C59.9874 148.154 59.8583 148.365 59.7538 148.595L59.4499 149.293L59.1948 150.014C59.1067 150.253 59.0523 150.505 58.9777 150.749C58.419 152.722 58.2365 154.805 58.2555 156.881C58.2788 157.707 58.3271 158.536 58.4172 159.363C58.843 161.903 59.698 164.308 60.927 166.173C61.5142 166.953 62.1746 167.662 62.9371 168.246C63.7852 168.881 64.7023 169.451 65.6671 169.937C66.6272 170.43 67.6043 170.9 68.6151 171.294C70.6159 172.132 72.6933 172.791 74.8003 173.337C75.8551 173.606 76.9193 173.839 77.9938 174.038C79.7503 174.259 81.5339 174.344 83.2837 174.243C83.3191 174.24 83.3542 174.237 83.3896 174.234C84.0606 174.133 84.7253 174.02 85.3833 173.883C86.7316 173.605 88.0474 173.228 89.3101 172.73C89.6261 172.606 89.9443 172.486 90.2475 172.335L90.7084 172.119L91.157 171.881L91.6082 171.645L92.0421 171.379C92.3358 171.207 92.6162 171.016 92.8969 170.823C93.4601 170.435 93.9936 170.006 94.5101 169.547C94.8126 169.225 95.1035 168.891 95.3772 168.537C96.0034 167.728 96.5344 166.91 96.9803 166.087C97.2664 165.432 97.5222 164.772 97.7315 164.1C98.1573 162.74 98.3809 161.338 98.364 159.938C98.3569 158.537 98.0785 157.144 97.6084 155.803C97.3769 155.149 97.0962 154.51 96.7801 153.882C95.8071 152.296 94.4703 150.803 92.8267 149.446Z" fill="#286A7E"/>
</g>
<g id="NUCLEUS_7">
<path id="Vector_13" d="M76.6078 154.935C80.3963 154.716 83.6454 157.609 83.8648 161.398C84.0841 165.186 81.1908 168.435 77.4022 168.655C73.6137 168.874 70.3646 165.981 70.1452 162.192C69.9259 158.403 72.8192 155.154 76.6078 154.935Z" fill="url(#paint13_radial_938_25840)"/>
<path id="Vector_14" d="M78.5133 154.833C74.6755 154.002 70.8744 156.453 70.0435 160.291C69.2126 164.128 71.6633 167.93 75.5011 168.76C79.3389 169.591 83.1401 167.141 83.971 163.303C84.7975 159.461 82.3509 155.66 78.5133 154.833ZM75.6093 168.265C72.0403 167.493 69.7669 163.964 70.539 160.399C71.3111 156.834 74.8403 154.556 78.4052 155.329C81.9742 156.1 84.2475 159.63 83.4754 163.195C82.7033 166.76 79.1739 169.033 75.6093 168.265Z" fill="#544181"/>
</g>
</g>
<g id="R-ICO-014264_8">
<g id="BG_16">
<path id="BG_17" d="M118.184 132.229C114.523 145.299 93.9673 146.655 87.4146 144.387C81.1685 142.225 76.0527 132.593 77.062 126.075C78.9707 116.488 87.8758 114.821 96.8757 114.092C110.155 113.015 121.846 119.159 118.184 132.229Z" fill="url(#paint14_radial_938_25840)"/>
<path id="Membrane_8" d="M118.391 122.686C118.991 124.096 119.256 125.634 119.231 127.14C119.22 127.865 119.143 128.584 119.008 129.289C118.902 130.263 118.711 131.265 118.423 132.296C118.277 132.815 118.104 133.32 117.905 133.812C117.714 134.425 117.472 135.024 117.174 135.598L116.925 136.079C116.84 136.238 116.734 136.384 116.639 136.538L116.347 136.994L116.025 137.43C115.816 137.726 115.575 137.995 115.334 138.263C115.1 138.54 114.841 138.791 114.585 139.045C113.544 140.045 112.352 140.872 111.091 141.539C110.487 141.858 109.866 142.139 109.231 142.381C107.508 143.212 105.665 143.855 103.794 144.338C102.816 144.646 101.819 144.902 100.814 145.108C99.7276 145.348 98.6224 145.483 97.5173 145.612C96.4092 145.714 95.2963 145.773 94.1812 145.772C91.9559 145.74 89.7051 145.567 87.5425 144.829C86.4559 144.462 85.4697 143.863 84.592 143.169C84.5862 143.165 84.5809 143.16 84.5752 143.155C82.8468 141.914 81.266 140.153 79.979 138.137C79.4199 137.345 78.9141 136.514 78.4681 135.649C77.9713 134.693 77.5802 133.685 77.2368 132.66C76.9059 131.63 76.6853 130.563 76.5454 129.482C76.4248 128.397 76.4056 127.302 76.5775 126.192C76.6646 125.642 76.8233 125.116 76.9779 124.597C77.1459 124.08 77.3313 123.567 77.5687 123.076C78.0237 122.07 78.6299 121.135 79.3534 120.313C80.6572 118.655 82.3279 117.436 84.2301 116.532C84.5436 116.383 84.8653 116.246 85.1905 116.113C86.3669 115.576 87.5958 115.156 88.8455 114.831C91.4101 114.155 94.041 113.84 96.6549 113.614C97.9728 113.514 99.3017 113.47 100.626 113.516C101.95 113.574 103.275 113.689 104.579 113.929C105.771 114.139 106.954 114.436 108.102 114.827C110.375 115.492 112.384 116.446 114.038 117.665C114.652 118.046 115.235 118.486 115.772 118.983C116.329 119.494 116.832 120.069 117.277 120.688C117.492 121.003 117.714 121.315 117.885 121.658L118.157 122.163C118.25 122.33 118.312 122.512 118.391 122.686ZM108.403 115.432C107.107 115.095 105.79 114.854 104.466 114.694C103.183 114.55 101.895 114.456 100.604 114.453C99.314 114.437 98.0253 114.486 96.7364 114.601C95.4373 114.698 94.1431 114.823 92.8557 114.979C91.5667 115.126 90.2885 115.332 89.0202 115.581C87.8515 115.821 86.6911 116.121 85.5598 116.508C83.1751 117.456 81.0917 118.826 79.5724 120.853C79.0492 121.648 78.6126 122.492 78.281 123.376C77.933 124.334 77.6337 125.341 77.5044 126.335C77.4883 126.585 77.4481 126.829 77.4379 127.082L77.4188 127.843L77.4535 128.607C77.4618 128.861 77.5061 129.115 77.5289 129.37C77.7531 131.408 78.3672 133.406 79.1655 135.322C79.4979 136.08 79.8545 136.829 80.249 137.562C81.5986 139.755 83.2954 141.662 85.1355 142.928C85.9732 143.43 86.8517 143.839 87.7779 144.093C88.8022 144.362 89.8667 144.546 90.9433 144.633C92.0184 144.729 93.1003 144.797 94.1853 144.782C96.3544 144.806 98.5269 144.635 100.685 144.348C101.763 144.201 102.837 144.017 103.907 143.797C105.618 143.341 107.303 142.749 108.886 141.997C108.918 141.982 108.949 141.965 108.981 141.95C109.564 141.603 110.138 141.248 110.696 140.875C111.841 140.109 112.918 139.265 113.901 138.329C114.147 138.095 114.397 137.865 114.621 137.61L114.967 137.237L115.293 136.848L115.622 136.459L115.924 136.05C116.132 135.78 116.32 135.498 116.507 135.213C116.883 134.642 117.216 134.044 117.522 133.424C117.681 133.012 117.825 132.593 117.946 132.162C118.222 131.177 118.406 130.219 118.51 129.289C118.529 128.575 118.517 127.867 118.459 127.166C118.342 125.746 118.022 124.362 117.479 123.071C116.946 121.776 116.164 120.59 115.224 119.524C114.764 119.005 114.263 118.519 113.734 118.055C112.236 116.952 110.436 116.071 108.403 115.432Z" fill="#286A7E"/>
</g>
<g id="NUCLEUS_8">
<path id="Vector_15" d="M95.4388 126.618C98.8667 124.99 102.965 126.449 104.593 129.876C106.222 133.304 104.762 137.403 101.335 139.031C97.9067 140.659 93.808 139.2 92.1799 135.772C90.5518 132.344 92.0109 128.246 95.4388 126.618Z" fill="url(#paint15_radial_938_25840)"/>
<path id="Vector_16" d="M97.1661 125.806C93.2975 126.48 90.6971 130.18 91.3705 134.049C92.044 137.917 95.7444 140.518 99.6129 139.844C103.481 139.171 106.082 135.471 105.408 131.602C104.73 127.732 101.033 125.129 97.1661 125.806ZM99.5267 139.345C95.9295 139.972 92.4956 137.556 91.8704 133.963C91.2451 130.369 93.6587 126.932 97.2523 126.306C100.85 125.679 104.283 128.095 104.909 131.688C105.534 135.282 103.118 138.716 99.5267 139.345Z" fill="#544181"/>
</g>
</g>
<g id="R-ICO-014264_9">
<g id="BG_18">
<path id="BG_19" d="M139.529 102.447C135.867 115.517 115.312 116.873 108.759 114.604C102.513 112.443 97.3973 102.811 98.4066 96.2932C100.315 86.7058 109.22 85.0385 118.22 84.3095C131.5 83.2329 143.19 89.377 139.529 102.447Z" fill="url(#paint16_radial_938_25840)"/>
<path id="Membrane_9" d="M139.736 92.9043C140.336 94.3141 140.601 95.8514 140.576 97.3577C140.565 98.083 140.487 98.8021 140.352 99.5067C140.247 100.48 140.056 101.483 139.767 102.514C139.622 103.032 139.449 103.538 139.25 104.03C139.058 104.642 138.817 105.242 138.519 105.816L138.269 106.296C138.185 106.456 138.079 106.602 137.984 106.756L137.691 107.212L137.369 107.647C137.161 107.944 136.92 108.213 136.678 108.481C136.445 108.758 136.186 109.009 135.929 109.263C134.888 110.263 133.696 111.09 132.436 111.757C131.832 112.076 131.21 112.356 130.575 112.599C128.853 113.429 127.01 114.073 125.139 114.556C124.161 114.864 123.164 115.119 122.159 115.325C121.072 115.566 119.967 115.701 118.862 115.83C117.754 115.932 116.641 115.99 115.526 115.989C113.301 115.958 111.05 115.785 108.887 115.047C107.8 114.68 106.814 114.08 105.937 113.387C105.931 113.382 105.926 113.377 105.92 113.373C104.191 112.132 102.611 110.371 101.324 108.355C100.765 107.563 100.259 106.732 99.8127 105.866C99.3159 104.911 98.9248 103.903 98.5814 102.878C98.2506 101.848 98.0299 100.781 97.89 99.7001C97.7694 98.6143 97.7502 97.5197 97.9221 96.4098C98.0092 95.8595 98.1679 95.3342 98.3225 94.8153C98.4905 94.2976 98.6759 93.7847 98.9133 93.2936C99.3683 92.2882 99.9745 91.3526 100.698 90.5308C102.002 88.8732 103.672 87.6534 105.575 86.7499C105.888 86.601 106.21 86.4635 106.535 86.331C107.712 85.7942 108.94 85.3733 110.19 85.0486C112.755 84.3733 115.386 84.0578 118 83.8318C119.317 83.7314 120.646 83.6876 121.971 83.7333C123.295 83.7917 124.619 83.9069 125.924 84.1468C127.116 84.3571 128.299 84.6542 129.446 85.0449C131.72 85.7098 133.729 86.6641 135.382 87.8827C135.997 88.2641 136.579 88.7041 137.117 89.2004C137.674 89.7122 138.176 90.2867 138.622 90.9057C138.837 91.2207 139.059 91.5331 139.229 91.8759L139.502 92.3809C139.595 92.5482 139.657 92.7301 139.736 92.9043ZM129.747 85.65C128.451 85.3123 127.135 85.0715 125.81 84.9113C124.528 84.7679 123.24 84.6734 121.949 84.6709C120.659 84.6546 119.37 84.7043 118.081 84.8183C116.782 84.9158 115.488 85.0403 114.2 85.1972C112.911 85.3433 111.633 85.5499 110.365 85.7985C109.196 86.0386 108.036 86.3383 106.904 86.7254C104.52 87.6738 102.436 89.0437 100.917 91.0709C100.394 91.8659 99.9572 92.7095 99.6256 93.5936C99.2776 94.5521 98.9783 95.5593 98.849 96.5524C98.8329 96.8027 98.7927 97.047 98.7825 97.2995L98.7634 98.0607L98.7981 98.8245C98.8064 99.0791 98.8507 99.333 98.8735 99.5873C99.0977 101.625 99.7118 103.624 100.51 105.54C100.843 106.297 101.199 107.047 101.594 107.78C102.943 109.973 104.64 111.88 106.48 113.146C107.318 113.648 108.196 114.056 109.122 114.311C110.147 114.579 111.211 114.764 112.288 114.851C113.363 114.947 114.445 115.014 115.53 115C117.699 115.024 119.871 114.853 122.029 114.566C123.108 114.418 124.182 114.235 125.252 114.015C126.963 113.559 128.647 112.967 130.23 112.215C130.262 112.2 130.293 112.183 130.325 112.167C130.909 111.821 131.482 111.466 132.041 111.092C133.185 110.327 134.263 109.483 135.246 108.547C135.492 108.313 135.742 108.083 135.965 107.828L136.311 107.455L136.637 107.065L136.967 106.677L137.269 106.268C137.476 105.998 137.665 105.716 137.852 105.431C138.228 104.86 138.561 104.261 138.867 103.642C139.026 103.23 139.17 102.811 139.29 102.38C139.566 101.395 139.751 100.437 139.854 99.5067C139.873 98.7927 139.862 98.085 139.803 97.3837C139.686 95.9635 139.366 94.58 138.824 93.2892C138.291 91.9938 137.509 90.8079 136.569 89.7414C136.108 89.2229 135.608 88.7366 135.079 88.2729C133.581 87.1698 131.78 86.2886 129.747 85.65Z" fill="#286A7E"/>
</g>
<g id="NUCLEUS_9">
<path id="Vector_17" d="M116.783 96.8354C120.211 95.2073 124.31 96.6663 125.938 100.094C127.566 103.522 126.107 107.621 122.679 109.249C119.251 110.877 115.153 109.418 113.525 105.99C111.896 102.562 113.355 98.4634 116.783 96.8354Z" fill="url(#paint17_radial_938_25840)"/>
<path id="Vector_18" d="M118.511 96.0243C114.642 96.6977 112.042 100.398 112.715 104.267C113.389 108.135 117.089 110.736 120.958 110.062C124.826 109.389 127.426 105.688 126.753 101.82C126.074 97.9493 122.377 95.3471 118.511 96.0243ZM120.871 109.562C117.274 110.189 113.84 107.774 113.215 104.18C112.59 100.587 115.003 97.1494 118.597 96.5241C122.194 95.897 125.628 98.3125 126.253 101.906C126.878 105.499 124.463 108.933 120.871 109.562Z" fill="#544181"/>
</g>
</g>
<g id="R-ICO-014264_10">
<g id="BG_20">
<path id="BG_21" d="M161.168 79.7093C152.435 90.1002 133.155 82.8458 128.124 78.0738C123.328 73.5256 122.647 62.6405 126.258 57.1215C131.956 49.1783 140.754 51.3377 149.252 54.3907C161.791 58.8947 169.9 69.3184 161.168 79.7093Z" fill="url(#paint18_radial_938_25840)"/>
<path id="Membrane_10" d="M165.298 71.1039C165.262 72.6357 164.868 74.1452 164.223 75.5066C163.913 76.1627 163.546 76.7855 163.132 77.3716C162.634 78.2148 162.046 79.0489 161.357 79.8683C161.01 80.2808 160.645 80.6696 160.26 81.0354C159.833 81.5143 159.365 81.9605 158.856 82.36L158.431 82.6947C158.288 82.805 158.131 82.8943 157.981 82.9952L157.526 83.2898L157.053 83.5536C156.741 83.7374 156.41 83.8829 156.079 84.0274C155.753 84.1829 155.413 84.3043 155.075 84.4298C153.714 84.9106 152.286 85.1715 150.863 85.2585C150.181 85.2998 149.499 85.2983 148.821 85.2568C146.909 85.302 144.964 85.1271 143.061 84.7941C142.043 84.6709 141.03 84.4917 140.029 84.2639C138.94 84.0343 137.878 83.7007 136.818 83.3619C135.767 82.9973 134.729 82.5909 133.714 82.1295C131.701 81.1817 129.722 80.0942 128.057 78.5293C127.219 77.7466 126.569 76.793 126.056 75.7991C126.053 75.7924 126.05 75.7855 126.047 75.7789C124.985 73.9352 124.273 71.6783 123.933 69.3107C123.751 68.3589 123.633 67.3929 123.585 66.4205C123.527 65.3452 123.587 64.2658 123.698 63.1904C123.822 62.1155 124.061 61.0526 124.38 60.0106C124.719 58.9719 125.154 57.9671 125.768 57.0273C126.075 56.5621 126.437 56.1492 126.792 55.7405C127.158 55.3384 127.539 54.9479 127.958 54.5987C128.788 53.8709 129.726 53.2692 130.725 52.8196C132.597 51.8484 134.622 51.4275 136.727 51.3903C137.074 51.3842 137.424 51.3918 137.775 51.4055C139.068 51.4024 140.361 51.5266 141.633 51.747C144.248 52.1911 146.774 52.9904 149.248 53.8641C150.49 54.317 151.718 54.8259 152.906 55.4146C154.088 56.0147 155.246 56.6665 156.335 57.4237C157.334 58.1077 158.289 58.8668 159.172 59.6964C160.968 61.241 162.404 62.9397 163.406 64.7325C163.808 65.3336 164.157 65.9749 164.441 66.6488C164.737 67.345 164.958 68.0759 165.108 68.8236C165.174 69.1992 165.247 69.5753 165.261 69.958L165.3 70.5304C165.316 70.7213 165.297 70.9126 165.298 71.1039ZM159.197 60.372C158.156 59.5291 157.056 58.7659 155.916 58.0732C154.807 57.4127 153.673 56.7948 152.499 56.2595C151.33 55.7116 150.136 55.2247 148.915 54.7963C147.692 54.3485 146.462 53.9274 145.224 53.5386C143.99 53.1393 142.741 52.7995 141.483 52.5021C140.319 52.2381 139.139 52.0318 137.949 51.9171C135.385 51.796 132.922 52.1832 130.701 53.4019C129.896 53.9099 129.15 54.4978 128.483 55.1661C127.77 55.8952 127.082 56.6889 126.554 57.54C126.436 57.7613 126.298 57.9672 126.185 58.1929L125.853 58.8783L125.569 59.5883C125.471 59.8235 125.407 60.0731 125.323 60.3141C124.685 62.2627 124.419 64.3364 124.355 66.4116C124.345 67.2383 124.36 68.0685 124.416 68.8985C124.74 71.4531 125.498 73.8907 126.651 75.8036C127.206 76.607 127.837 77.3419 128.576 77.956C129.398 78.6238 130.291 79.2311 131.236 79.7552C132.175 80.2866 133.133 80.7949 134.127 81.2296C136.092 82.1474 138.142 82.8889 140.225 83.5192C141.268 83.83 142.322 84.1063 143.388 84.3478C145.134 84.6393 146.913 84.7957 148.665 84.7648C148.701 84.7641 148.736 84.7617 148.771 84.7609C149.446 84.6863 150.115 84.5999 150.777 84.4902C152.136 84.2659 153.466 83.9421 154.747 83.4955C155.068 83.3844 155.391 83.2777 155.7 83.1382L156.169 82.9415L156.627 82.7212L157.087 82.5035L157.531 82.2555C157.832 82.0957 158.12 81.9162 158.408 81.734C158.986 81.369 159.537 80.9617 160.071 80.5237C160.386 80.2147 160.69 79.8922 160.978 79.5499C161.636 78.7667 162.2 77.9703 162.678 77.1657C162.99 76.5233 163.273 75.8742 163.509 75.2112C163.989 73.8695 164.269 72.4773 164.308 71.0778C164.357 69.6777 164.135 68.2748 163.719 66.9152C163.514 66.253 163.259 65.6034 162.969 64.9624C162.06 63.3392 160.784 61.7932 159.197 60.372Z" fill="#286A7E"/>
</g>
<g id="NUCLEUS_10">
<path id="Vector_19" d="M142.77 65.2047C146.564 65.1377 149.695 68.1593 149.762 71.9536C149.829 75.7479 146.807 78.8781 143.013 78.9451C139.219 79.0121 136.088 75.9905 136.021 72.1962C135.954 68.4019 138.976 65.2717 142.77 65.2047Z" fill="url(#paint19_radial_938_25840)"/>
<path id="Vector_20" d="M144.678 65.1793C140.877 64.1949 136.98 66.491 135.996 70.2923C135.012 74.0936 137.308 77.9901 141.109 78.9745C144.91 79.959 148.807 77.6629 149.791 73.8615C150.771 70.0562 148.479 66.1596 144.678 65.1793ZM141.237 78.4838C137.702 77.5692 135.572 73.9512 136.487 70.4203C137.401 66.8893 141.019 64.7554 144.55 65.6701C148.085 66.5847 150.215 70.2027 149.3 73.7336C148.386 77.2646 144.768 79.3943 141.237 78.4838Z" fill="#544181"/>
</g>
</g>
<g id="R-ICO-014264_11">
<g id="BG_22">
<path id="BG_23" d="M83.0358 80.2865C90.8303 91.3983 110.669 85.8501 116.097 81.5343C121.27 77.4209 122.896 66.6364 119.78 60.824C114.795 52.4148 105.842 53.8 97.1106 56.1015C84.2275 59.4967 75.2414 69.1748 83.0358 80.2865Z" fill="url(#paint20_radial_938_25840)"/>
<path id="Membrane_11" d="M79.6709 71.3544C79.5733 72.8835 79.834 74.4215 80.358 75.834C80.6093 76.5145 80.921 77.1669 81.2824 77.7868C81.7053 78.6702 82.2186 79.5523 82.8332 80.4286C83.1426 80.8697 83.4734 81.2889 83.8247 81.6867C84.2087 82.201 84.636 82.6863 85.1076 83.1286L85.5023 83.4991C85.6353 83.6214 85.7837 83.724 85.9241 83.8376L86.3517 84.1706L86.7999 84.4746C87.0951 84.6849 87.4118 84.8587 87.7288 85.0315C88.0408 85.2148 88.3685 85.3653 88.6947 85.5198C90.0088 86.1172 91.4077 86.5015 92.8183 86.712C93.4938 86.8125 94.1736 86.8704 94.8528 86.8881C96.7533 87.0996 98.7059 87.0947 100.631 86.9287C101.656 86.8946 102.681 86.8043 103.697 86.6645C104.802 86.5306 105.889 86.2907 106.975 86.0454C108.054 85.7738 109.123 85.4592 110.174 85.088C112.263 84.3191 114.328 83.408 116.123 81.994C117.026 81.2872 117.757 80.3938 118.355 79.4484C118.359 79.4421 118.362 79.4355 118.366 79.4291C119.584 77.6848 120.49 75.4985 121.034 73.1695C121.299 72.2372 121.5 71.2851 121.633 70.3206C121.784 69.2544 121.818 68.1739 121.802 67.093C121.772 66.0114 121.625 64.9316 121.399 63.8658C121.152 62.8016 120.806 61.7627 120.275 60.7729C120.01 60.2828 119.686 59.84 119.368 59.4019C119.038 58.9695 118.693 58.5473 118.306 58.1629C117.542 57.3656 116.66 56.6845 115.704 56.1497C113.924 55.0192 111.943 54.4235 109.849 54.2032C109.504 54.1669 109.155 54.144 108.804 54.1271C107.516 54.0114 106.217 54.0226 104.93 54.1314C102.287 54.3462 99.7008 54.9224 97.1602 55.5775C95.8837 55.9205 94.6158 56.3206 93.3816 56.8036C92.1521 57.2985 90.9413 57.8469 89.7903 58.5065C88.7357 59.1009 87.7185 59.774 86.7662 60.5236C84.8424 61.9059 83.2647 63.4732 82.1098 65.1718C81.6568 65.7357 81.2535 66.3441 80.9116 66.9908C80.5561 67.6585 80.2727 68.3674 80.0582 69.0992C79.96 69.4677 79.8546 69.836 79.8075 70.2161L79.7183 70.7829C79.686 70.9716 79.6877 71.1639 79.6709 71.3544ZM86.6831 61.1944C87.7935 60.4454 88.9555 59.7808 90.1512 59.19C91.3136 58.6286 92.4971 58.1117 93.7136 57.6808C94.9254 57.2367 96.1573 56.8556 97.411 56.5351C98.6687 56.1955 99.9308 55.8831 101.197 55.6035C102.462 55.3132 103.736 55.0835 105.015 54.8967C106.197 54.735 107.391 54.6323 108.587 54.6216C111.151 54.7242 113.571 55.3244 115.677 56.7318C116.435 57.308 117.127 57.9587 117.733 58.6825C118.38 59.4709 118.997 60.3215 119.449 61.2154C119.547 61.4461 119.666 61.6631 119.759 61.8979L120.03 62.6096L120.251 63.3415C120.328 63.5844 120.37 63.8386 120.433 64.0861C120.899 66.0828 120.983 68.1718 120.867 70.2447C120.805 71.0692 120.718 71.8949 120.589 72.7168C120.044 75.2336 119.077 77.5959 117.762 79.4011C117.139 80.1532 116.446 80.8303 115.657 81.3778C114.78 81.9714 113.837 82.4986 112.85 82.9385C111.868 83.3861 110.87 83.8091 109.842 84.1556C107.804 84.8988 105.698 85.459 103.567 85.9055C102.501 86.1244 101.427 86.3078 100.344 86.4556C98.5795 86.594 96.7938 86.5949 95.0507 86.4115C95.0154 86.4078 94.9806 86.4023 94.9453 86.3984C94.2799 86.2653 93.6211 86.121 92.9704 85.9541C91.6366 85.6123 90.34 85.174 89.102 84.6175C88.7922 84.4789 88.48 84.3445 88.1842 84.1786L87.734 83.9418L87.2971 83.6825L86.8574 83.4256L86.4365 83.1399C86.1512 82.9545 85.8801 82.7506 85.6087 82.544C85.0644 82.13 84.5517 81.6764 84.0573 81.1935C83.7703 80.8582 83.4954 80.5105 83.2386 80.1444C82.6511 79.3068 82.1591 78.4644 81.7524 77.6212C81.4974 76.9541 81.2728 76.2829 81.0953 75.6019C80.7338 74.2234 80.5764 72.8121 80.659 71.4146C80.732 70.0155 81.0755 68.6372 81.6081 67.319C81.87 66.6772 82.1804 66.0523 82.5257 65.439C83.5722 63.9011 84.9776 62.472 86.6831 61.1944Z" fill="#286A7E"/>
</g>
<g id="NUCLEUS_11">
<path id="Vector_21" d="M102.626 67.4391C98.8522 67.042 95.4708 69.7795 95.0737 73.5536C94.6766 77.3276 97.4142 80.709 101.188 81.1062C104.962 81.5033 108.344 78.7657 108.741 74.9917C109.138 71.2176 106.4 67.8362 102.626 67.4391Z" fill="url(#paint21_radial_938_25840)"/>
<path id="Vector_22" d="M100.728 67.2476C104.6 66.5979 108.282 69.2245 108.932 73.0971C109.581 76.9697 106.955 80.6515 103.082 81.3012C99.2097 81.9509 95.5279 79.3243 94.8782 75.4517C94.233 71.5754 96.8555 67.8932 100.728 67.2476ZM102.998 80.8012C106.599 80.1979 109.036 76.7791 108.432 73.1819C107.828 69.5847 104.41 67.1439 100.812 67.7477C97.2111 68.351 94.7744 71.7698 95.3782 75.367C95.982 78.9642 99.4008 81.4008 102.998 80.8012Z" fill="#544181"/>
</g>
</g>
<g id="R-ICO-014264_12">
<g id="BG_24">
<path id="BG_25" d="M143.257 103.269C142.674 89.7088 161.79 82.0307 168.723 82.1498C175.332 82.2629 183.188 89.8278 184.255 96.3362C185.421 106.042 177.475 110.395 169.147 113.885C156.86 119.036 143.839 116.83 143.257 103.269Z" fill="url(#paint22_radial_938_25840)"/>
<path id="Membrane_12" d="M146.026 112.404C145.017 111.25 144.288 109.871 143.843 108.432C143.628 107.739 143.478 107.031 143.388 106.32C143.185 105.361 143.055 104.349 143.01 103.28C142.986 102.741 142.993 102.208 143.03 101.678C143.021 101.036 143.065 100.391 143.17 99.7532L143.257 99.2189C143.288 99.041 143.344 98.8691 143.386 98.6936L143.522 98.169L143.693 97.655C143.799 97.3084 143.944 96.9778 144.091 96.6477C144.226 96.3123 144.395 95.9933 144.559 95.6723C145.238 94.3982 146.114 93.2416 147.105 92.2157C147.579 91.7247 148.083 91.2649 148.611 90.8373C149.99 89.5124 151.542 88.3274 153.17 87.2872C154.004 86.6901 154.872 86.1377 155.764 85.6295C156.722 85.0632 157.73 84.5916 158.74 84.1253C159.762 83.6838 160.801 83.2823 161.861 82.9367C163.986 82.275 166.18 81.7402 168.464 81.769C169.611 81.7798 170.735 82.0434 171.785 82.4296C171.792 82.4322 171.798 82.4355 171.805 82.4381C173.833 83.0801 175.883 84.2628 177.733 85.7789C178.511 86.3575 179.25 86.9904 179.943 87.6743C180.712 88.428 181.397 89.2644 182.042 90.132C182.677 91.0083 183.218 91.954 183.687 92.9376C184.139 93.9321 184.498 94.9665 184.679 96.0749C184.767 96.625 184.78 97.1736 184.794 97.7149C184.795 98.2591 184.778 98.8042 184.705 99.3448C184.586 100.442 184.3 101.519 183.868 102.526C183.144 104.506 181.935 106.185 180.408 107.635C180.156 107.874 179.893 108.105 179.625 108.332C178.674 109.207 177.637 109.989 176.55 110.686C174.322 112.126 171.92 113.243 169.506 114.27C168.284 114.775 167.035 115.23 165.762 115.598C164.485 115.954 163.191 116.257 161.876 116.434C160.677 116.605 159.461 116.69 158.249 116.675C155.881 116.75 153.675 116.467 151.725 115.823C151.022 115.652 150.332 115.414 149.667 115.11C148.978 114.796 148.322 114.407 147.706 113.957C147.404 113.724 147.096 113.496 146.827 113.223L146.411 112.828C146.271 112.698 146.155 112.544 146.026 112.404ZM157.774 116.194C159.111 116.112 160.438 115.932 161.746 115.672C163.01 115.41 164.263 115.099 165.491 114.7C166.723 114.315 167.932 113.867 169.122 113.358C170.326 112.862 171.517 112.341 172.692 111.792C173.872 111.252 175.023 110.659 176.151 110.028C177.187 109.437 178.197 108.791 179.152 108.072C181.124 106.429 182.678 104.479 183.492 102.08C183.742 101.162 183.895 100.224 183.935 99.2811C183.968 98.2619 183.94 97.2116 183.754 96.2274C183.691 95.9845 183.654 95.7399 183.585 95.4966L183.366 94.7673L183.096 94.0521C183.009 93.8126 182.888 93.5851 182.787 93.3504C181.941 91.4831 180.736 89.7745 179.381 88.2011C178.83 87.5848 178.258 86.983 177.655 86.4094C175.691 84.7445 173.486 83.4593 171.343 82.8281C170.391 82.611 169.429 82.4957 168.469 82.5419C167.412 82.6049 166.343 82.7608 165.293 83.0126C164.241 83.2555 163.192 83.5276 162.165 83.8788C160.096 84.5301 158.084 85.3679 156.123 86.3108C155.143 86.7865 154.18 87.2948 153.231 87.8368C151.747 88.8016 150.33 89.8881 149.059 91.0949C149.033 91.1193 149.009 91.1449 148.983 91.1695C148.536 91.6802 148.101 92.1957 147.687 92.7244C146.837 93.8076 146.075 94.9448 145.432 96.14C145.271 96.4385 145.105 96.7353 144.971 97.0469L144.758 97.5089L144.569 97.9807L144.377 98.4521L144.217 98.9351C144.104 99.2558 144.013 99.5827 143.923 99.9118C143.744 100.572 143.613 101.244 143.515 101.928C143.491 102.368 143.485 102.812 143.504 103.258C143.548 104.281 143.671 105.248 143.861 106.165C144.065 106.849 144.296 107.519 144.57 108.167C145.122 109.48 145.857 110.696 146.773 111.754C147.683 112.82 148.794 113.704 150.02 114.425C150.618 114.775 151.245 115.082 151.892 115.358C153.659 115.941 155.644 116.219 157.774 116.194Z" fill="#286A7E"/>
</g>
<g id="NUCLEUS_12">
<path id="Vector_23" d="M166.62 101.533C163.868 104.146 159.518 104.033 156.905 101.281C154.293 98.5286 154.405 94.1794 157.157 91.5665C159.91 88.9536 164.259 89.0664 166.872 91.8185C169.484 94.5706 169.372 98.9197 166.62 101.533Z" fill="url(#paint23_radial_938_25840)"/>
<path id="Vector_24" d="M165.23 102.841C168.698 100.998 170.019 96.6728 168.177 93.2052C166.334 89.7376 162.009 88.4162 158.541 90.2587C155.073 92.1012 153.752 96.4265 155.595 99.8942C157.443 103.362 161.765 104.686 165.23 102.841ZM158.778 90.7069C162.002 88.9928 166.017 90.2213 167.728 93.4425C169.44 96.6636 168.214 100.681 164.993 102.392C161.769 104.107 157.754 102.878 156.043 99.6569C154.332 96.4357 155.56 92.4212 158.778 90.7069Z" fill="#544181"/>
</g>
</g>
<g id="R-ICO-014264_13">
<g id="BG_26">
<path id="BG_27" d="M75.0975 130.951C69.889 143.485 49.3196 142.356 43.0878 139.315C37.1474 136.417 33.2288 126.239 35.0154 119.89C38.0647 110.602 47.1059 110.02 56.1281 110.38C69.4405 110.91 80.306 118.417 75.0975 130.951Z" fill="url(#paint24_radial_938_25840)"/>
<path id="Membrane_13" d="M76.4523 121.502C76.8781 122.974 76.956 124.532 76.7497 126.025C76.6514 126.743 76.4881 127.448 76.2692 128.131C76.0472 129.085 75.7368 130.057 75.326 131.046C75.1193 131.543 74.887 132.024 74.6299 132.488C74.3661 133.073 74.0539 133.64 73.689 134.173L73.3837 134.62C73.2803 134.769 73.1576 134.901 73.045 135.042L72.6995 135.46L72.3276 135.853C72.0849 136.122 71.8133 136.361 71.541 136.598C71.276 136.844 70.9886 137.062 70.7036 137.283C69.5496 138.151 68.2668 138.828 66.9351 139.339C66.2972 139.583 65.6461 139.786 64.9868 139.95C63.1769 140.568 61.2694 140.985 59.3542 141.239C58.346 141.427 57.3258 141.56 56.3028 141.644C55.1954 141.752 54.0821 141.752 52.9694 141.748C51.8571 141.716 50.7452 141.64 49.6384 141.504C47.4331 141.205 45.2196 140.762 43.1615 139.769C42.1269 139.274 41.2201 138.56 40.4323 137.766C40.4271 137.761 40.4225 137.755 40.4173 137.75C38.851 136.31 37.4937 134.371 36.4589 132.215C35.9992 131.362 35.5971 130.476 35.2586 129.563C34.8804 128.554 34.6136 127.507 34.3961 126.448C34.1917 125.385 34.1012 124.299 34.0924 123.21C34.1034 122.117 34.2162 121.028 34.5205 119.947C34.6733 119.411 34.894 118.909 35.11 118.413C35.339 117.919 35.5849 117.432 35.8797 116.973C36.4524 116.03 37.1669 115.174 37.9841 114.445C39.4781 112.957 41.2834 111.947 43.2806 111.279C43.6097 111.169 43.9457 111.071 44.2845 110.979C45.517 110.588 46.7875 110.318 48.0673 110.146C50.6945 109.784 53.3443 109.788 55.9664 109.878C57.2868 109.938 58.6113 110.054 59.9207 110.259C61.2281 110.476 62.5289 110.75 63.7952 111.145C64.9533 111.498 66.092 111.935 67.1838 112.461C69.3609 113.395 71.24 114.584 72.7347 115.993C73.2989 116.446 73.8242 116.953 74.2978 117.51C74.7892 118.085 75.2191 118.716 75.5867 119.384C75.7623 119.723 75.9448 120.06 76.0729 120.42L76.2825 120.955C76.3549 121.132 76.3948 121.32 76.4523 121.502ZM67.4099 113.098C66.1639 112.607 64.8857 112.209 63.5905 111.891C62.3343 111.594 61.0671 111.345 59.7862 111.187C58.507 111.015 57.2218 110.91 55.9285 110.868C54.6271 110.808 53.3273 110.776 52.0304 110.777C50.7332 110.766 49.4394 110.817 48.1504 110.912C46.9613 111.009 45.7733 111.167 44.6036 111.415C42.122 112.069 39.8889 113.178 38.1365 115.008C37.5214 115.734 36.9863 116.519 36.5507 117.357C36.0898 118.266 35.6714 119.23 35.4235 120.201C35.3774 120.447 35.308 120.685 35.2674 120.934L35.1569 121.688L35.0994 122.45C35.0769 122.704 35.0904 122.961 35.0823 123.216C35.0595 125.266 35.4285 127.324 35.9902 129.323C36.2291 130.115 36.4927 130.902 36.7962 131.677C37.8719 134.016 39.3266 136.114 41.001 137.592C41.7721 138.191 42.5949 138.703 43.4838 139.067C44.4683 139.457 45.5029 139.768 46.5612 139.984C47.6169 140.209 48.6828 140.406 49.7616 140.522C51.9121 140.807 54.0893 140.899 56.2659 140.875C57.3543 140.858 58.4425 140.805 59.5315 140.715C61.2846 140.469 63.0282 140.084 64.6905 139.528C64.7241 139.517 64.757 139.504 64.7906 139.492C65.4115 139.218 66.0235 138.935 66.6228 138.632C67.8512 138.01 69.0224 137.301 70.1108 136.49C70.3833 136.288 70.6592 136.089 70.912 135.864L71.3005 135.535L71.671 135.187L72.0447 134.842L72.394 134.472C72.6324 134.229 72.8531 133.971 73.0734 133.711C73.5153 133.189 73.9179 132.635 74.2962 132.057C74.504 131.668 74.6972 131.269 74.8689 130.856C75.2614 129.911 75.5597 128.982 75.7745 128.071C75.8793 127.364 75.9535 126.661 75.9797 125.957C76.0346 124.533 75.8833 123.121 75.5006 121.775C75.1269 120.424 74.4936 119.153 73.6887 117.981C73.2943 117.411 72.8561 116.868 72.3865 116.344C71.0323 115.068 69.3512 113.977 67.4099 113.098Z" fill="#286A7E"/>
</g>
<g id="NUCLEUS_13">
<path id="Vector_25" d="M53.1933 122.641C56.7923 121.438 60.6854 123.38 61.8889 126.979C63.0924 130.578 61.1504 134.471 57.5514 135.674C53.9524 136.878 50.0592 134.936 48.8557 131.337C47.6523 127.738 49.5943 123.845 53.1933 122.641Z" fill="url(#paint25_radial_938_25840)"/>
<path id="Vector_26" d="M55.0057 122.044C51.0842 122.247 48.0571 125.607 48.2598 129.529C48.4625 133.45 51.8228 136.477 55.7443 136.275C59.6658 136.072 62.6929 132.712 62.4902 128.79C62.2823 124.866 58.9258 121.838 55.0057 122.044ZM55.719 135.768C52.0724 135.957 48.9544 133.146 48.7664 129.503C48.5784 125.861 51.3884 122.739 55.0311 122.551C58.6776 122.361 61.7956 125.173 61.9836 128.815C62.1716 132.458 59.3603 135.576 55.719 135.768Z" fill="#544181"/>
</g>
</g>
<g id="R-ICO-014264_14">
<g id="BG_28">
<path id="BG_29" d="M91.9815 108.746C82.9569 118.884 63.8906 111.083 58.9976 106.17C54.3332 101.487 53.9624 90.5869 57.7289 85.1731C63.6507 77.3952 72.3845 79.8043 80.7916 83.098C93.1969 87.9571 101.006 98.6075 91.9815 108.746Z" fill="url(#paint26_radial_938_25840)"/>
<path id="Membrane_14" d="M96.3547 100.261C96.2752 101.791 95.8387 103.289 95.1553 104.631C94.8272 105.278 94.4422 105.891 94.0117 106.465C93.4897 107.293 92.8781 108.11 92.1664 108.91C91.8081 109.312 91.4312 109.691 91.0364 110.045C90.5955 110.512 90.1152 110.944 89.5957 111.329L89.1609 111.652C89.0146 111.758 88.8553 111.843 88.7028 111.939L88.2396 112.221L87.7593 112.471C87.4418 112.646 87.1072 112.782 86.7724 112.917C86.4413 113.063 86.0984 113.175 85.7566 113.291C84.3823 113.732 82.9484 113.953 81.5229 113.999C80.8403 114.021 80.1585 114 79.4817 113.939C77.5695 113.93 75.6305 113.7 73.7377 113.313C72.7235 113.161 71.7159 112.953 70.7219 112.696C69.6402 112.436 68.588 112.072 67.5382 111.703C66.4977 111.309 65.472 110.873 64.4704 110.383C62.4846 109.378 60.5381 108.235 58.9183 106.623C58.1028 105.817 57.4798 104.845 56.9953 103.837C56.9921 103.83 56.9896 103.823 56.9865 103.817C55.9778 101.944 55.33 99.6672 55.0581 97.291C54.903 96.3344 54.8132 95.3654 54.7921 94.3921C54.7649 93.3155 54.8557 92.2382 54.9969 91.1665C55.1516 90.0956 55.4216 89.0399 55.77 88.0074C56.138 86.9788 56.601 85.9867 57.2425 85.0648C57.5622 84.6085 57.9353 84.2061 58.3019 83.8077C58.6799 83.4162 59.0716 83.0367 59.5004 82.6996C60.3504 81.9957 61.3056 81.4209 62.3164 80.9999C64.2153 80.0825 66.2517 79.7193 68.3575 79.7421C68.7045 79.7459 69.0539 79.7635 69.4043 79.7871C70.697 79.8208 71.9859 79.9818 73.2514 80.2384C75.8522 80.7567 78.3548 81.6276 80.8028 82.5714C82.0312 83.0595 83.2445 83.6032 84.4147 84.2254C85.5789 84.8589 86.7183 85.5434 87.7855 86.3313C88.7645 87.0434 89.6972 87.8295 90.5567 88.6839C92.3081 90.279 93.6944 92.0179 94.6455 93.8384C95.0305 94.4508 95.3609 95.1017 95.6259 95.7835C95.9019 96.4878 96.1016 97.2247 96.2303 97.9763C96.2853 98.3537 96.3475 98.7317 96.3504 99.1147L96.3736 99.688C96.3839 99.8792 96.3601 100.07 96.3547 100.261ZM90.5618 89.3598C89.5453 88.4877 88.4677 87.6935 87.3481 86.9686C86.2583 86.2768 85.1424 85.6269 83.9837 85.0584C82.8313 84.4775 81.6515 83.9567 80.4432 83.4937C79.2331 83.0113 78.0154 82.5553 76.7898 82.1315C75.5673 81.6972 74.3281 81.322 73.0794 80.9889C71.9238 80.6919 70.7496 80.452 69.5631 80.3034C67.0041 80.1095 64.5309 80.4263 62.2762 81.5813C61.4572 82.0662 60.6947 82.6327 60.0089 83.2817C59.2756 83.9902 58.5648 84.764 58.0128 85.5997C57.8885 85.8175 57.7452 86.0194 57.6252 86.2418L57.2741 86.9175L56.9702 87.6191C56.8659 87.8515 56.7943 88.0991 56.7032 88.3376C56.0104 90.2673 55.6855 92.3326 55.562 94.405C55.5285 95.2312 55.5199 96.0614 55.553 96.8927C55.8036 99.4555 56.4915 101.914 57.5897 103.859C58.122 104.678 58.7322 105.43 59.4529 106.065C60.2554 106.756 61.1312 107.388 62.0604 107.939C62.9844 108.497 63.927 109.032 64.9084 109.495C66.8469 110.469 68.8742 111.268 70.9388 111.958C71.9728 112.298 73.0184 112.604 74.0767 112.876C75.8139 113.217 77.5875 113.424 79.3401 113.443C79.3756 113.443 79.4109 113.442 79.4463 113.442C80.1227 113.387 80.7937 113.319 81.4594 113.229C82.8237 113.043 84.1622 112.757 85.4561 112.347C85.7798 112.245 86.1055 112.148 86.4184 112.017L86.893 111.834L87.3569 111.627L87.8232 111.422L88.2743 111.187C88.5791 111.036 88.872 110.865 89.1653 110.691C89.7537 110.342 90.3155 109.951 90.8622 109.528C91.186 109.228 91.4992 108.915 91.7966 108.581C92.4768 107.817 93.0627 107.037 93.5639 106.246C93.8943 105.613 94.1948 104.972 94.4497 104.316C94.9678 102.988 95.2871 101.605 95.3662 100.207C95.4552 98.8087 95.273 97.4 94.8961 96.0292C94.71 95.3614 94.4738 94.7048 94.2016 94.0558C93.3396 92.4074 92.1085 90.8257 90.5618 89.3598Z" fill="#286A7E"/>
</g>
<g id="NUCLEUS_14">
<path id="Vector_27" d="M74.0045 93.7232C77.7991 93.7643 80.842 96.8737 80.801 100.668C80.7599 104.463 77.6505 107.506 73.8558 107.465C70.0612 107.424 67.0183 104.314 67.0593 100.52C67.1003 96.7251 70.2098 93.6822 74.0045 93.7232Z" fill="url(#paint27_radial_938_25840)"/>
<path id="Vector_28" d="M75.9124 93.752C72.1407 92.6597 68.1804 94.844 67.0881 98.6157C65.9959 102.387 68.1801 106.348 71.9519 107.44C75.7236 108.532 79.6839 106.348 80.7762 102.576C81.8643 98.8004 79.6842 94.8401 75.9124 93.752ZM72.0937 106.953C68.5861 105.938 66.5602 102.261 67.5751 98.7576C68.5899 95.2541 72.2671 93.2241 75.7706 94.239C79.2782 95.2538 81.3041 98.931 80.2892 102.434C79.2744 105.938 75.5973 107.964 72.0937 106.953Z" fill="#544181"/>
</g>
</g>
</g>
<path id="SHADE" d="M209.464 120.222C208.489 118.225 243.487 94.6984 241.782 93.0443C240.077 91.3901 201.669 111.608 199.36 110.374C196.13 108.649 192.371 107.373 188.256 106.653C190.96 101.021 190.081 94.0487 187.219 88.2153C186.547 86.8451 216.634 62.9073 215.505 61.4694C214.376 60.0315 182.405 81.4879 181.158 80.5224C177.416 77.6258 173.241 76.6935 169.233 76.7571C170.746 72.7091 170.861 68.5252 169.502 64.572C167.651 59.1817 163.091 54.4601 156.795 51.1941C154.524 50.0156 162.347 16.7049 159.67 15.9424C157.187 15.2348 143.43 46.5791 139.668 46.1998C133.398 45.5676 126.219 46.597 121.029 53.3061C114.737 47.1305 106.216 47.5409 99.9143 48.8348C97.7443 49.2804 79.0343 -0.419624 77.5725 0.00267608C75.5752 0.579976 90.4823 51.5334 88.7061 52.3469C81.5097 55.6426 76.2829 60.7497 74.2843 66.6407C73.3545 69.3814 73.1387 72.2295 73.5957 75.064C68.004 74.139 61.537 74.4347 56.2073 79.0418C54.9465 80.1316 21.2886 52.0326 20.142 53.8632C18.9954 55.6938 50.908 86.3221 50.4067 88.0084C48.9027 93.0675 49.1279 98.9888 50.8698 104.029C44.8947 103.783 37.8274 104.791 32.8833 110.525C31.7147 111.881 1.01637 101.949 0.024467 104.337C-0.967433 106.725 28.5304 119.269 28.3447 121.21C27.7877 127.031 29.4575 133.462 32.6864 138.24C34.1215 140.364 4.70057 163.627 6.69297 164.9C7.53447 165.438 39.6853 144.482 40.7876 144.952C44.0946 146.361 48.4404 147.411 53.0135 147.775C50.8786 154.031 51.4984 161.805 54.4729 167.603C55.4644 169.536 19.4903 190.589 20.9903 191.953C21.787 192.677 59.983 174.059 61.0894 174.755C64.4085 176.843 68.9658 178.708 73.8281 179.777C73.3726 180.78 72.9701 181.858 72.6443 183.039L72.5782 183.3C72.0558 185.569 71.9928 188.003 72.3148 190.449C72.5267 192.058 42.0845 226.957 42.6085 228.532C43.0476 229.852 74.4096 197.859 75.0405 199.098C77.3863 203.703 80.9714 207.57 85.1536 209.367C88.0631 210.617 92.3675 211.356 97.064 211.356C99.6281 211.356 104.228 249.165 106.861 248.686C109.495 248.208 110.162 209.443 112.536 208.413C115.254 207.233 117.588 205.702 119.542 203.896C121.862 207.798 125.082 211.009 128.778 212.598C130.232 213.223 133.329 252.246 135.356 252.587C137.383 252.928 138.34 214.587 140.688 214.587C145.817 214.587 151.412 213.705 156.161 211.644C160.41 209.799 163.776 207.139 166.101 203.821C167.113 202.378 205.128 217.631 205.719 215.989C206.311 214.348 169.527 195.86 169.743 194.261C170.392 189.463 169.361 184.939 166.701 181.186C166.572 181.003 166.426 180.831 166.289 180.652C171.075 179.924 175.688 178.505 179.367 176.893C181.713 175.865 214.219 201.145 215.61 200.09C217.184 198.896 187.896 171.092 188.859 169.518C192.399 163.73 192.022 155.847 189.31 149.375C190.953 149.218 192.574 148.963 194.13 148.571C198.483 147.474 202.142 145.487 204.942 142.727C206.287 141.401 245.803 152.009 246.733 150.34C247.567 148.843 209.851 135.218 210.321 133.703C211.769 129.045 211.494 124.382 209.464 120.222Z" fill="url(#paint28_radial_938_25840)"/>
</g>
<defs>
<radialGradient id="paint0_radial_938_25840" cx="0" cy="0" r="1" gradientTransform="matrix(20.8425 1.31948 0.856582 -13.511 97.1157 192.279)" gradientUnits="userSpaceOnUse">
<stop stop-color="white"/>
<stop offset="0.9973" stop-color="#6BB484"/>
</radialGradient>
<radialGradient id="paint1_radial_938_25840" cx="0" cy="0" r="1" gradientUnits="userSpaceOnUse" gradientTransform="translate(99.092 192.846) rotate(15.4297) scale(6.71038)">
<stop stop-color="white"/>
<stop offset="1" stop-color="#655982"/>
</radialGradient>
<radialGradient id="paint2_radial_938_25840" cx="0" cy="0" r="1" gradientTransform="matrix(-20.8425 1.31948 -0.856582 -13.511 144.218 195.668)" gradientUnits="userSpaceOnUse">
<stop stop-color="white"/>
<stop offset="0.9973" stop-color="#6BB484"/>
</radialGradient>
<radialGradient id="paint3_radial_938_25840" cx="0" cy="0" r="1" gradientUnits="userSpaceOnUse" gradientTransform="translate(142.242 196.235) rotate(164.57) scale(6.71038)">
<stop stop-color="white"/>
<stop offset="1" stop-color="#655982"/>
</radialGradient>
<radialGradient id="paint4_radial_938_25840" cx="0" cy="0" r="1" gradientTransform="matrix(-20.7914 -1.96684 1.27378 -13.4781 121.582 164.77)" gradientUnits="userSpaceOnUse">
<stop stop-color="white"/>
<stop offset="0.9973" stop-color="#6BB484"/>
</radialGradient>
<radialGradient id="paint5_radial_938_25840" cx="0" cy="0" r="1" gradientUnits="userSpaceOnUse" gradientTransform="translate(119.541 165.02) rotate(173.597) scale(6.71038)">
<stop stop-color="white"/>
<stop offset="1" stop-color="#655982"/>
</radialGradient>
<radialGradient id="paint6_radial_938_25840" cx="0" cy="0" r="1" gradientTransform="matrix(-20.7914 1.96684 1.27378 13.4781 165.53 157.122)" gradientUnits="userSpaceOnUse">
<stop stop-color="white"/>
<stop offset="0.9973" stop-color="#6BB484"/>
</radialGradient>
<radialGradient id="paint7_radial_938_25840" cx="0" cy="0" r="1" gradientUnits="userSpaceOnUse" gradientTransform="translate(163.49 156.872) rotate(-173.597) scale(6.71038)">
<stop stop-color="white"/>
<stop offset="1" stop-color="#655982"/>
</radialGradient>
<radialGradient id="paint8_radial_938_25840" cx="0" cy="0" r="1" gradientTransform="matrix(20.7337 2.50231 1.62334 -13.4405 182.004 130.731)" gradientUnits="userSpaceOnUse">
<stop stop-color="white"/>
<stop offset="0.9973" stop-color="#6BB484"/>
</radialGradient>
<radialGradient id="paint9_radial_938_25840" cx="0" cy="0" r="1" gradientUnits="userSpaceOnUse" gradientTransform="translate(183.945 131.409) rotate(18.6889) scale(6.71038)">
<stop stop-color="white"/>
<stop offset="1" stop-color="#655982"/>
</radialGradient>
<radialGradient id="paint10_radial_938_25840" cx="0" cy="0" r="1" gradientTransform="matrix(20.5142 -3.91358 2.53818 13.2981 138.35 129.15)" gradientUnits="userSpaceOnUse">
<stop stop-color="white"/>
<stop offset="0.9973" stop-color="#6BB484"/>
</radialGradient>
<radialGradient id="paint11_radial_938_25840" cx="0" cy="0" r="1" gradientUnits="userSpaceOnUse" gradientTransform="translate(140.24 128.341) rotate(-22.6081) scale(6.71038)">
<stop stop-color="white"/>
<stop offset="1" stop-color="#655982"/>
</radialGradient>
<radialGradient id="paint12_radial_938_25840" cx="0" cy="0" r="1" gradientTransform="matrix(19.3892 7.75934 5.03113 -12.5686 75.3045 160.639)" gradientUnits="userSpaceOnUse">
<stop stop-color="white"/>
<stop offset="0.9973" stop-color="#6BB484"/>
</radialGradient>
<radialGradient id="paint13_radial_938_25840" cx="0" cy="0" r="1" gradientUnits="userSpaceOnUse" gradientTransform="translate(77.005 161.795) rotate(33.618) scale(6.71038)">
<stop stop-color="white"/>
<stop offset="1" stop-color="#655982"/>
</radialGradient>
<radialGradient id="paint14_radial_938_25840" cx="0" cy="0" r="1" gradientTransform="matrix(20.8839 -0.102202 -0.0650226 -13.538 96.3765 132.393)" gradientUnits="userSpaceOnUse">
<stop stop-color="white"/>
<stop offset="0.9973" stop-color="#6BB484"/>
</radialGradient>
<radialGradient id="paint15_radial_938_25840" cx="0" cy="0" r="1" gradientUnits="userSpaceOnUse" gradientTransform="translate(98.3867 132.824) rotate(11.5269) scale(6.71038)">
<stop stop-color="white"/>
<stop offset="1" stop-color="#655982"/>
</radialGradient>
<radialGradient id="paint16_radial_938_25840" cx="0" cy="0" r="1" gradientTransform="matrix(20.8839 -0.102202 -0.0650226 -13.538 117.721 102.611)" gradientUnits="userSpaceOnUse">
<stop stop-color="white"/>
<stop offset="0.9973" stop-color="#6BB484"/>
</radialGradient>
<radialGradient id="paint17_radial_938_25840" cx="0" cy="0" r="1" gradientUnits="userSpaceOnUse" gradientTransform="translate(119.731 103.042) rotate(11.5269) scale(6.71038)">
<stop stop-color="white"/>
<stop offset="1" stop-color="#655982"/>
</radialGradient>
<radialGradient id="paint18_radial_938_25840" cx="0" cy="0" r="1" gradientTransform="matrix(19.0618 8.532 5.53199 -12.3563 141.239 70.8524)" gradientUnits="userSpaceOnUse">
<stop stop-color="white"/>
<stop offset="0.9973" stop-color="#6BB484"/>
</radialGradient>
<radialGradient id="paint19_radial_938_25840" cx="0" cy="0" r="1" gradientUnits="userSpaceOnUse" gradientTransform="translate(142.892 72.0749) rotate(35.9204) scale(6.71038)">
<stop stop-color="white"/>
<stop offset="1" stop-color="#655982"/>
</radialGradient>
<radialGradient id="paint20_radial_938_25840" cx="0" cy="0" r="1" gradientTransform="matrix(-19.7323 6.83993 -4.43514 -12.7911 103.66 73.1984)" gradientUnits="userSpaceOnUse">
<stop stop-color="white"/>
<stop offset="0.9973" stop-color="#6BB484"/>
</radialGradient>
<radialGradient id="paint21_radial_938_25840" cx="0" cy="0" r="1" gradientUnits="userSpaceOnUse" gradientTransform="translate(101.907 74.2726) rotate(149.075) scale(6.71038)">
<stop stop-color="white"/>
<stop offset="1" stop-color="#655982"/>
</radialGradient>
<radialGradient id="paint22_radial_938_25840" cx="0" cy="0" r="1" gradientTransform="matrix(-19.8177 6.58834 4.26972 12.8472 163.933 96.3346)" gradientUnits="userSpaceOnUse">
<stop stop-color="white"/>
<stop offset="0.9973" stop-color="#6BB484"/>
</radialGradient>
<radialGradient id="paint23_radial_938_25840" cx="0" cy="0" r="1" gradientUnits="userSpaceOnUse" gradientTransform="translate(161.889 96.5496) rotate(173.418) scale(6.71038)">
<stop stop-color="white"/>
<stop offset="1" stop-color="#655982"/>
</radialGradient>
<radialGradient id="paint24_radial_938_25840" cx="0" cy="0" r="1" gradientTransform="matrix(20.7443 2.4133 1.56564 -13.4473 53.4286 128.488)" gradientUnits="userSpaceOnUse">
<stop stop-color="white"/>
<stop offset="0.9973" stop-color="#6BB484"/>
</radialGradient>
<radialGradient id="paint25_radial_938_25840" cx="0" cy="0" r="1" gradientUnits="userSpaceOnUse" gradientTransform="translate(55.3723 129.158) rotate(18.443) scale(6.71038)">
<stop stop-color="white"/>
<stop offset="1" stop-color="#655982"/>
</radialGradient>
<radialGradient id="paint26_radial_938_25840" cx="0" cy="0" r="1" gradientTransform="matrix(18.8112 9.07124 5.88153 -12.1938 72.3129 99.3249)" gradientUnits="userSpaceOnUse">
<stop stop-color="white"/>
<stop offset="0.9973" stop-color="#6BB484"/>
</radialGradient>
<radialGradient id="paint27_radial_938_25840" cx="0" cy="0" r="1" gradientUnits="userSpaceOnUse" gradientTransform="translate(73.9301 100.594) rotate(37.5518) scale(6.71038)">
<stop stop-color="white"/>
<stop offset="1" stop-color="#655982"/>
</radialGradient>
<radialGradient id="paint28_radial_938_25840" cx="0" cy="0" r="1" gradientUnits="userSpaceOnUse" gradientTransform="translate(123.373 126.295) scale(124.843 124.843)">
<stop offset="0.2484" stop-color="#1D4B59" stop-opacity="0"/>
<stop offset="0.6855" stop-color="#1D4B59"/>
</radialGradient>
</defs>
</svg>
