<svg width="74" height="39" viewBox="0 0 74 39" fill="none" xmlns="http://www.w3.org/2000/svg">
<g id="R-ICO-013380">
<path id="Vector" d="M56.8133 34.5028C49.5679 36.6481 30.9303 37.5378 27.7598 35.8841L29.9527 37.138C33.8074 38.9799 46.4796 39.4223 54.7333 35.547L56.8133 34.5028Z" fill="url(#paint0_linear_938_25727)"/>
<path id="Vector_2" d="M16.5706 35.8841C9.3252 38.0294 1.4364 31.8317 0.2432 37.1635L0 38.2505C0.8244 34.5664 6.124 41.0133 14.3777 37.138L16.5706 35.8841Z" fill="url(#paint1_linear_938_25727)"/>
<path id="Vector_3" d="M28.6177 17.4663C25.3909 19.3144 27.049 15.5846 27.049 15.5846L27.1233 15.485C27.1233 15.485 25.7416 18.0636 28.7119 17.396L28.6177 17.4663Z" fill="url(#paint2_linear_938_25727)"/>
<path id="Vector_4" d="M28.6172 27.2403C23.7372 24.8053 26.8247 35.7169 29.952 37.1379L27.7591 35.884C24.6845 33.9976 21.3163 23.6497 28.7168 27.3145L28.6172 27.2403Z" fill="url(#paint3_linear_938_25727)"/>
<path id="Vector_5" d="M15.7063 27.2403C20.5863 24.8053 17.5052 35.7169 14.3779 37.1379L16.5708 35.884C19.6454 33.9976 23.0071 23.6497 15.6066 27.3145L15.7063 27.2403Z" fill="url(#paint4_linear_938_25727)"/>
<path id="Vector_6" d="M59.3028 30.0459C59.7395 31.0049 56.8127 34.5028 54.6289 35.595L56.8127 34.5028C58.4259 33.4427 60.6111 32.5079 59.3771 30.1455L59.3028 30.0459Z" fill="url(#paint5_linear_938_25727)"/>
<path id="Vector_7" d="M15.7104 17.4663C18.9372 19.3144 17.2791 15.5846 17.2791 15.5846L17.2048 15.485C17.2048 15.485 18.5865 18.0636 15.6162 17.396L15.7104 17.4663Z" fill="url(#paint6_linear_938_25727)"/>
<g id="Group">
<path id="Vector_8" d="M23.4578 0.0001C12.3263 0.0001 17.2743 15.5845 17.2743 15.5845L17.2 15.4849C17.2 15.4849 6.12963 0 21.8298 0L23.4578 0.0001Z" fill="url(#paint7_linear_938_25727)"/>
<path id="Vector_9" d="M20.8652 0.0001C31.9967 0.0001 27.0487 15.5845 27.0487 15.5845L27.123 15.4849C27.123 15.4849 38.1934 0 22.4932 0L20.8652 0.0001Z" fill="url(#paint8_linear_938_25727)"/>
</g>
<g id="Group_2">
<path id="Vector_10" d="M65.5604 14.5611C54.4289 14.5611 59.3769 30.1455 59.3769 30.1455L59.3026 30.0459C59.3026 30.0459 48.2322 14.561 63.9324 14.561L65.5604 14.5611Z" fill="url(#paint9_linear_938_25727)"/>
<path id="Vector_11" d="M62.9678 14.5611C74.0993 14.5611 69.1513 30.1455 69.1513 30.1455L69.2256 30.0459C69.2256 30.0459 80.296 14.561 64.5958 14.561L62.9678 14.5611Z" fill="url(#paint10_linear_938_25727)"/>
</g>
<g id="Group_3">
<path id="Vector_12" d="M0.121194 21.0569C0.121194 32.1884 15.7056 27.2404 15.7056 27.2404L15.606 27.3147C15.606 27.3147 0.121094 38.3851 0.121094 22.6849L0.121194 21.0569Z" fill="url(#paint11_linear_938_25727)"/>
<path id="Vector_13" d="M0.121194 23.6498C0.121194 12.5183 15.7056 17.4663 15.7056 17.4663L15.606 17.392C15.606 17.392 0.121094 6.32165 0.121094 22.0218L0.121194 23.6498Z" fill="url(#paint12_linear_938_25727)"/>
</g>
<g id="Group_4">
<path id="Vector_14" d="M44.2016 23.6498C44.2016 12.5183 28.6172 17.4663 28.6172 17.4663L28.7168 17.392C28.7168 17.392 44.2017 6.32165 44.2017 22.0218L44.2016 23.6498Z" fill="url(#paint13_linear_938_25727)"/>
<path id="Vector_15" d="M44.2016 21.0569C44.2016 32.1884 28.6172 27.2404 28.6172 27.2404L28.7168 27.3147C28.7168 27.3147 44.2017 38.3851 44.2017 22.6849L44.2016 21.0569Z" fill="url(#paint14_linear_938_25727)"/>
</g>
</g>
<defs>
<linearGradient id="paint0_linear_938_25727" x1="29.1681" y1="33.6579" x2="53.2054" y2="27.4759" gradientUnits="userSpaceOnUse">
<stop stop-color="#110F23"/>
<stop offset="0.0941" stop-color="#343090"/>
<stop offset="0.1173" stop-color="#3B3793"/>
<stop offset="0.1501" stop-color="#4D499C"/>
<stop offset="0.1888" stop-color="#6B68AA"/>
<stop offset="0.2315" stop-color="#9592BD"/>
<stop offset="0.2725" stop-color="#C4C1D3"/>
<stop offset="0.3098" stop-color="#C1BED2"/>
<stop offset="0.3354" stop-color="#B8B5CE"/>
<stop offset="0.3574" stop-color="#A9A6C6"/>
<stop offset="0.3774" stop-color="#9490BC"/>
<stop offset="0.396" stop-color="#7874B0"/>
<stop offset="0.4135" stop-color="#5652A0"/>
<stop offset="0.4279" stop-color="#343090"/>
<stop offset="0.5065" stop-color="#2D2979"/>
<stop offset="0.652" stop-color="#211E54"/>
<stop offset="0.7874" stop-color="#181639"/>
<stop offset="0.9076" stop-color="#131129"/>
<stop offset="1" stop-color="#110F23"/>
</linearGradient>
<linearGradient id="paint1_linear_938_25727" x1="0.512901" y1="35.7825" x2="14.5544" y2="32.1715" gradientUnits="userSpaceOnUse">
<stop stop-color="#110F23"/>
<stop offset="0.0941" stop-color="#343090"/>
<stop offset="0.1173" stop-color="#3B3793"/>
<stop offset="0.1501" stop-color="#4D499C"/>
<stop offset="0.1888" stop-color="#6B68AA"/>
<stop offset="0.2315" stop-color="#9592BD"/>
<stop offset="0.2725" stop-color="#C4C1D3"/>
<stop offset="0.3098" stop-color="#C1BED2"/>
<stop offset="0.3354" stop-color="#B8B5CE"/>
<stop offset="0.3574" stop-color="#A9A6C6"/>
<stop offset="0.3774" stop-color="#9490BC"/>
<stop offset="0.396" stop-color="#7874B0"/>
<stop offset="0.4135" stop-color="#5652A0"/>
<stop offset="0.4279" stop-color="#343090"/>
<stop offset="0.5065" stop-color="#2D2979"/>
<stop offset="0.652" stop-color="#211E54"/>
<stop offset="0.7874" stop-color="#181639"/>
<stop offset="0.9076" stop-color="#131129"/>
<stop offset="1" stop-color="#110F23"/>
</linearGradient>
<linearGradient id="paint2_linear_938_25727" x1="27.7685" y1="18.0904" x2="27.5793" y2="15.2973" gradientUnits="userSpaceOnUse">
<stop stop-color="#110F23"/>
<stop offset="0.0941" stop-color="#343090"/>
<stop offset="0.1173" stop-color="#3B3793"/>
<stop offset="0.1501" stop-color="#4D499C"/>
<stop offset="0.1888" stop-color="#6B68AA"/>
<stop offset="0.2315" stop-color="#9592BD"/>
<stop offset="0.2725" stop-color="#C4C1D3"/>
<stop offset="0.3098" stop-color="#C1BED2"/>
<stop offset="0.3354" stop-color="#B8B5CE"/>
<stop offset="0.3574" stop-color="#A9A6C6"/>
<stop offset="0.3774" stop-color="#9490BC"/>
<stop offset="0.396" stop-color="#7874B0"/>
<stop offset="0.4135" stop-color="#5652A0"/>
<stop offset="0.4279" stop-color="#343090"/>
<stop offset="0.5065" stop-color="#2D2979"/>
<stop offset="0.652" stop-color="#211E54"/>
<stop offset="0.7874" stop-color="#181639"/>
<stop offset="0.9076" stop-color="#131129"/>
<stop offset="1" stop-color="#110F23"/>
</linearGradient>
<linearGradient id="paint3_linear_938_25727" x1="27.6164" y1="25.9701" x2="26.8349" y2="37.5119" gradientUnits="userSpaceOnUse">
<stop stop-color="#110F23"/>
<stop offset="0.0941" stop-color="#343090"/>
<stop offset="0.1173" stop-color="#3B3793"/>
<stop offset="0.1501" stop-color="#4D499C"/>
<stop offset="0.1888" stop-color="#6B68AA"/>
<stop offset="0.2315" stop-color="#9592BD"/>
<stop offset="0.2725" stop-color="#C4C1D3"/>
<stop offset="0.3098" stop-color="#C1BED2"/>
<stop offset="0.3354" stop-color="#B8B5CE"/>
<stop offset="0.3574" stop-color="#A9A6C6"/>
<stop offset="0.3774" stop-color="#9490BC"/>
<stop offset="0.396" stop-color="#7874B0"/>
<stop offset="0.4135" stop-color="#5652A0"/>
<stop offset="0.4279" stop-color="#343090"/>
<stop offset="0.5065" stop-color="#2D2979"/>
<stop offset="0.652" stop-color="#211E54"/>
<stop offset="0.7874" stop-color="#181639"/>
<stop offset="0.9076" stop-color="#131129"/>
<stop offset="1" stop-color="#110F23"/>
</linearGradient>
<linearGradient id="paint4_linear_938_25727" x1="16.7242" y1="25.9941" x2="17.5058" y2="37.5364" gradientUnits="userSpaceOnUse">
<stop stop-color="#110F23"/>
<stop offset="0.0941" stop-color="#343090"/>
<stop offset="0.2725" stop-color="#C4C1D3"/>
<stop offset="0.4279" stop-color="#343090"/>
<stop offset="1" stop-color="#110F23"/>
</linearGradient>
<linearGradient id="paint5_linear_938_25727" x1="60.3576" y1="30.8903" x2="53.7515" y2="34.8532" gradientUnits="userSpaceOnUse">
<stop stop-color="#110F23"/>
<stop offset="0.0941" stop-color="#343090"/>
<stop offset="0.2725" stop-color="#C4C1D3"/>
<stop offset="0.4279" stop-color="#343090"/>
<stop offset="1" stop-color="#110F23"/>
</linearGradient>
<linearGradient id="paint6_linear_938_25727" x1="16.5723" y1="18.066" x2="16.7614" y2="15.2728" gradientUnits="userSpaceOnUse">
<stop stop-color="#110F23"/>
<stop offset="0.0941" stop-color="#343090"/>
<stop offset="0.2725" stop-color="#C4C1D3"/>
<stop offset="0.4279" stop-color="#343090"/>
<stop offset="1" stop-color="#110F23"/>
</linearGradient>
<linearGradient id="paint7_linear_938_25727" x1="16.0955" y1="15.698" x2="18.8981" y2="-0.0169001" gradientUnits="userSpaceOnUse">
<stop stop-color="#110F23"/>
<stop offset="0.0941" stop-color="#343090"/>
<stop offset="0.2725" stop-color="#C4C1D3"/>
<stop offset="0.4279" stop-color="#343090"/>
<stop offset="1" stop-color="#110F23"/>
</linearGradient>
<linearGradient id="paint8_linear_938_25727" x1="26.1748" y1="-0.7867" x2="24.9024" y2="16.2669" gradientUnits="userSpaceOnUse">
<stop stop-color="#110F23"/>
<stop offset="0.0941" stop-color="#343090"/>
<stop offset="0.2725" stop-color="#C4C1D3"/>
<stop offset="0.4279" stop-color="#343090"/>
<stop offset="1" stop-color="#110F23"/>
</linearGradient>
<linearGradient id="paint9_linear_938_25727" x1="58.1982" y1="30.2589" x2="61.0008" y2="14.5441" gradientUnits="userSpaceOnUse">
<stop stop-color="#110F23"/>
<stop offset="0.0941" stop-color="#343090"/>
<stop offset="0.2725" stop-color="#C4C1D3"/>
<stop offset="0.4279" stop-color="#343090"/>
<stop offset="1" stop-color="#110F23"/>
</linearGradient>
<linearGradient id="paint10_linear_938_25727" x1="68.2774" y1="13.7742" x2="67.005" y2="30.8279" gradientUnits="userSpaceOnUse">
<stop stop-color="#110F23"/>
<stop offset="0.0941" stop-color="#343090"/>
<stop offset="0.2725" stop-color="#C4C1D3"/>
<stop offset="0.4279" stop-color="#343090"/>
<stop offset="1" stop-color="#110F23"/>
</linearGradient>
<linearGradient id="paint11_linear_938_25727" x1="15.8189" y1="28.4192" x2="0.104093" y2="25.6166" gradientUnits="userSpaceOnUse">
<stop stop-color="#110F23"/>
<stop offset="0.0941" stop-color="#343090"/>
<stop offset="0.2725" stop-color="#C4C1D3"/>
<stop offset="0.4279" stop-color="#343090"/>
<stop offset="1" stop-color="#110F23"/>
</linearGradient>
<linearGradient id="paint12_linear_938_25727" x1="-0.665806" y1="18.3402" x2="16.3879" y2="19.6126" gradientUnits="userSpaceOnUse">
<stop stop-color="#110F23"/>
<stop offset="0.0941" stop-color="#343090"/>
<stop offset="0.2725" stop-color="#C4C1D3"/>
<stop offset="0.4279" stop-color="#343090"/>
<stop offset="1" stop-color="#110F23"/>
</linearGradient>
<linearGradient id="paint13_linear_938_25727" x1="28.5038" y1="16.2875" x2="44.2187" y2="19.0901" gradientUnits="userSpaceOnUse">
<stop stop-color="#110F23"/>
<stop offset="0.0941" stop-color="#343090"/>
<stop offset="0.2725" stop-color="#C4C1D3"/>
<stop offset="0.4279" stop-color="#343090"/>
<stop offset="1" stop-color="#110F23"/>
</linearGradient>
<linearGradient id="paint14_linear_938_25727" x1="44.9885" y1="26.3665" x2="27.9349" y2="25.0941" gradientUnits="userSpaceOnUse">
<stop stop-color="#110F23"/>
<stop offset="0.0941" stop-color="#343090"/>
<stop offset="0.2725" stop-color="#C4C1D3"/>
<stop offset="0.4279" stop-color="#343090"/>
<stop offset="1" stop-color="#110F23"/>
</linearGradient>
</defs>
</svg>
