<svg width="87" height="37" viewBox="0 0 87 37" fill="none" xmlns="http://www.w3.org/2000/svg">
<g id="R-ICO-013357">
<g id="SIN3 corepressor">
<path d="M1.13037 11.5C1.13037 5.97715 5.60752 1.5 11.1304 1.5H75.1304C80.6532 1.5 85.1304 5.97715 85.1304 11.5V25.5C85.1304 31.0228 80.6532 35.5 75.1304 35.5H11.1304C5.60753 35.5 1.13037 31.0228 1.13037 25.5V11.5Z" fill="url(#paint0_linear_938_23601)"/>
<path d="M65.8386 2.99266C47.6025 2.87443 29.3665 2.52283 11.1304 1.64001C11.1304 1.54664 11.1304 1.45328 11.1304 1.35991C29.3665 0.477089 47.6025 0.125486 65.8386 0.00726104C68.9358 -0.00557053 72.0331 -0.000519395 75.1304 0.0155408C81.2577 -0.102004 86.6822 5.46233 86.4722 11.5C86.4637 12.2848 86.4552 13.0697 86.4469 13.8545C86.4121 17.7363 86.3558 21.6182 86.2819 25.5C86.3197 31.4552 80.8582 36.5743 75.1312 36.2659C75.1309 36.2659 75.1307 36.2658 75.1304 36.2658C66.0126 36.0221 56.8939 35.8466 47.7763 35.953C38.6582 36.056 29.5394 36.4645 20.4214 36.6648C17.3244 36.7201 14.2274 36.7464 11.1304 36.7509C5.12461 36.9066 -0.229637 31.4243 0.00783134 25.5C0.0200418 24.7154 0.0328574 23.9309 0.0461599 23.1463C0.112457 19.2642 0.202341 15.3821 0.322493 11.5C0.350862 5.71829 5.73869 0.910332 11.1304 1.35991C11.1304 1.45328 11.1304 1.54664 11.1304 1.64001C5.86908 1.83049 1.6507 6.62823 1.9381 11.5C2.05825 15.3822 2.14814 19.2643 2.2145 23.1463C2.2278 23.9309 2.24062 24.7154 2.25283 25.5C2.23127 30.229 6.48288 34.3525 11.1304 34.2492C14.2274 34.2537 17.3244 34.2799 20.4214 34.3353C29.5395 34.5356 38.6582 34.9428 47.7763 35.0457C56.894 35.1521 66.0124 34.978 75.1304 34.7342C75.1306 34.7342 75.1309 34.7342 75.1311 34.7342C80.0569 34.6839 84.2 30.1974 83.9789 25.5C83.905 21.6182 83.8488 17.7363 83.814 13.8545C83.8056 13.0697 83.7971 12.2848 83.7886 11.5C83.8377 6.88452 79.6563 2.84297 75.1304 2.9845C72.0331 3.00056 68.9358 3.00558 65.8386 2.99266Z" fill="#00493B"/>
<text id="SIN3 corepressor_2" fill="white" xml:space="preserve" style="white-space: pre" font-family="Arial" font-size="12" font-weight="bold" letter-spacing="0em"><tspan x="29.7827" y="15.6602">SIN3&#10;</tspan><tspan x="8.41357" y="29.6602">corepressor</tspan></text>
</g>
</g>
<defs>
<linearGradient id="paint0_linear_938_23601" x1="43.1304" y1="1.5" x2="43.1304" y2="35.5" gradientUnits="userSpaceOnUse">
<stop stop-color="#00493B"/>
<stop offset="1" stop-color="#C5D11C"/>
</linearGradient>
</defs>
</svg>
