<svg width="91" height="91" viewBox="0 0 91 91" fill="none" xmlns="http://www.w3.org/2000/svg">
<g id="R-ICO-013603">
<path id="BOTTOM" d="M45.2547 69.1337C59.7728 69.1337 71.5419 57.3645 71.5419 42.8465C71.5419 28.3285 59.7728 16.5593 45.2547 16.5593C30.7367 16.5593 18.9675 28.3285 18.9675 42.8465C18.9675 57.3645 30.7367 69.1337 45.2547 69.1337Z" fill="url(#paint0_radial_938_25590)"/>
<g id="R-ICO-012636">
<g id="BACK_BLUE">
<path id="Vector" d="M68.2533 80.9811C62.7128 75.4406 79.4288 66.7008 71.4526 58.7245L69.9001 57.1721C75.4407 62.7127 58.9388 71.6666 66.7009 79.4287L68.2533 80.9811Z" fill="url(#paint1_linear_938_25590)"/>
<path id="Vector_2" d="M49.1957 61.9235C43.6552 56.383 60.3712 47.6432 52.395 39.6669L50.8425 38.1145C56.3831 43.655 39.8812 52.609 47.6433 60.3711L49.1957 61.9235Z" fill="url(#paint2_linear_938_25590)"/>
<path id="Vector_3" d="M30.1386 42.8664C24.598 37.3258 41.3141 28.586 33.3378 20.6098L31.7854 19.0574C37.3259 24.5979 20.824 33.5518 28.5861 41.314L30.1386 42.8664Z" fill="url(#paint3_linear_938_25590)"/>
<path id="Vector_4" d="M11.0812 23.809C5.54065 18.2685 22.2567 9.52867 14.2805 1.55242L12.728 0C18.2686 5.54054 1.76666 14.4945 9.52877 22.2566L11.0812 23.809Z" fill="url(#paint4_linear_938_25590)"/>
</g>
<g id="BACK_RED">
<path id="Vector_5" d="M77.7819 90.5097C72.2413 84.9692 88.9574 76.2294 80.9811 68.2531L79.4287 66.7007C84.9693 72.2412 68.2532 80.981 76.2295 88.9573L77.7819 90.5097Z" fill="url(#paint5_linear_938_25590)"/>
<path id="Vector_6" d="M58.7245 71.4523C53.184 65.9118 69.9 57.172 61.9238 49.1957L60.3713 47.6433C65.9119 53.1839 49.1958 61.9237 57.1721 69.8999L58.7245 71.4523Z" fill="url(#paint6_linear_938_25590)"/>
<path id="Vector_7" d="M39.6674 52.3952C34.1268 46.8546 50.8429 38.1148 42.8666 30.1386L41.3142 28.5862C46.8548 34.1267 30.1387 42.8665 38.115 50.8428L39.6674 52.3952Z" fill="url(#paint7_linear_938_25590)"/>
<path id="Vector_8" d="M20.61 33.3378C15.0695 27.7973 31.7855 19.0575 23.8093 11.0812L22.2568 9.52881C27.7974 15.0694 11.0813 23.8092 19.0576 31.7854L20.61 33.3378Z" fill="url(#paint8_linear_938_25590)"/>
</g>
<g id="FRONT_BLUE">
<path id="Vector_9" d="M66.7008 79.4286C72.2413 84.9691 80.9811 68.2531 88.9574 76.2294L90.5098 77.7818C84.9693 72.2412 76.2295 88.9573 68.2532 80.981L66.7008 79.4286Z" fill="url(#paint9_linear_938_25590)"/>
<path id="Vector_10" d="M47.6434 60.3712C53.184 65.9118 61.9238 49.1957 69.9 57.172L71.4524 58.7244C65.9119 53.1839 57.1721 69.8999 49.1958 61.9237L47.6434 60.3712Z" fill="url(#paint10_linear_938_25590)"/>
<path id="Vector_11" d="M28.5863 41.3141C34.1268 46.8546 42.8666 30.1386 50.8429 38.1148L52.3953 39.6673C46.8548 34.1267 38.115 50.8428 30.1387 42.8665L28.5863 41.3141Z" fill="url(#paint11_linear_938_25590)"/>
<path id="Vector_12" d="M9.52891 22.2567C15.0695 27.7973 23.8093 11.0812 31.7855 19.0575L33.3379 20.6099C27.7974 15.0694 19.0576 31.7854 11.0813 23.8092L9.52891 22.2567Z" fill="url(#paint12_linear_938_25590)"/>
</g>
<g id="FRONT_RED">
<path id="Vector_13" d="M57.1722 69.9C62.7128 75.4406 71.4526 58.7245 79.4288 66.7008L80.9812 68.2532C75.4407 62.7127 66.7009 79.4287 58.7246 71.4525L57.1722 69.9Z" fill="url(#paint13_linear_938_25590)"/>
<path id="Vector_14" d="M38.1146 50.8424C43.6552 56.383 52.395 39.6669 60.3712 47.6432L61.9236 49.1956C56.3831 43.655 47.6433 60.3711 39.667 52.3948L38.1146 50.8424Z" fill="url(#paint14_linear_938_25590)"/>
<path id="Vector_15" d="M19.0575 31.7853C24.598 37.3258 33.3378 20.6098 41.3141 28.586L42.8665 30.1385C37.3259 24.5979 28.5861 41.314 20.6099 33.3377L19.0575 31.7853Z" fill="url(#paint15_linear_938_25590)"/>
<path id="Vector_16" d="M0.0001055 12.7279C5.54065 18.2685 14.2805 1.55242 22.2567 9.52867L23.8091 11.0811C18.2686 5.54054 9.52877 22.2566 1.55253 14.2803L0.0001055 12.7279Z" fill="url(#paint16_linear_938_25590)"/>
</g>
</g>
<path id="TOP" d="M62.3311 49.7531C65.4321 49.7531 67.9289 50.6849 69.8349 52.1804C70.937 49.2796 71.5457 46.1359 71.5457 42.8486C71.5457 28.3305 59.7765 16.5613 45.2584 16.5613C30.7404 16.5613 18.9712 28.3305 18.9712 42.8486C18.9712 57.3666 30.7404 69.1358 45.2584 69.1358C47.4624 69.1358 49.6017 68.8608 51.6475 68.3499C48.0046 60.9428 51.5662 49.7531 62.3311 49.7531Z" fill="url(#paint17_radial_938_25590)"/>
</g>
<defs>
<radialGradient id="paint0_radial_938_25590" cx="0" cy="0" r="1" gradientUnits="userSpaceOnUse" gradientTransform="translate(38.9967 34.7248) scale(34.0493 34.0493)">
<stop stop-color="#FF73A6"/>
<stop offset="0.2188" stop-color="#FD70A3"/>
<stop offset="0.4103" stop-color="#F6659A"/>
<stop offset="0.5917" stop-color="#EB538A"/>
<stop offset="0.7668" stop-color="#DC3A75"/>
<stop offset="0.9359" stop-color="#C81959"/>
<stop offset="1" stop-color="#BF0B4D"/>
</radialGradient>
<linearGradient id="paint1_linear_938_25590" x1="62.7307" y1="75.4226" x2="75.4227" y2="62.7306" gradientUnits="userSpaceOnUse">
<stop stop-color="#042224"/>
<stop offset="0.0941" stop-color="#0E98A2"/>
<stop offset="0.3113" stop-color="#C7D0D1"/>
<stop offset="0.4279" stop-color="#0E98A2"/>
<stop offset="1" stop-color="#042224"/>
</linearGradient>
<linearGradient id="paint2_linear_938_25590" x1="43.6731" y1="56.365" x2="56.3651" y2="43.673" gradientUnits="userSpaceOnUse">
<stop stop-color="#042224"/>
<stop offset="0.0941" stop-color="#0E98A2"/>
<stop offset="0.3113" stop-color="#C7D0D1"/>
<stop offset="0.4279" stop-color="#0E98A2"/>
<stop offset="1" stop-color="#042224"/>
</linearGradient>
<linearGradient id="paint3_linear_938_25590" x1="24.616" y1="37.3079" x2="37.308" y2="24.6159" gradientUnits="userSpaceOnUse">
<stop stop-color="#042224"/>
<stop offset="0.0941" stop-color="#0E98A2"/>
<stop offset="0.3113" stop-color="#C7D0D1"/>
<stop offset="0.4279" stop-color="#0E98A2"/>
<stop offset="1" stop-color="#042224"/>
</linearGradient>
<linearGradient id="paint4_linear_938_25590" x1="5.55863" y1="18.2505" x2="18.2506" y2="5.55852" gradientUnits="userSpaceOnUse">
<stop stop-color="#042224"/>
<stop offset="0.0941" stop-color="#0E98A2"/>
<stop offset="0.3113" stop-color="#C7D0D1"/>
<stop offset="0.4279" stop-color="#0E98A2"/>
<stop offset="1" stop-color="#042224"/>
</linearGradient>
<linearGradient id="paint5_linear_938_25590" x1="72.2593" y1="84.9512" x2="84.9513" y2="72.2592" gradientUnits="userSpaceOnUse">
<stop stop-color="#24040E"/>
<stop offset="0.1131" stop-color="#A20E40"/>
<stop offset="0.273" stop-color="#E3B5C5"/>
<stop offset="0.6019" stop-color="#A20E40"/>
<stop offset="1" stop-color="#24040E"/>
</linearGradient>
<linearGradient id="paint6_linear_938_25590" x1="53.2019" y1="65.8938" x2="65.8939" y2="53.2018" gradientUnits="userSpaceOnUse">
<stop stop-color="#24040E"/>
<stop offset="0.1131" stop-color="#A20E40"/>
<stop offset="0.273" stop-color="#E3B5C5"/>
<stop offset="0.6019" stop-color="#A20E40"/>
<stop offset="1" stop-color="#24040E"/>
</linearGradient>
<linearGradient id="paint7_linear_938_25590" x1="34.1448" y1="46.8367" x2="46.8368" y2="34.1447" gradientUnits="userSpaceOnUse">
<stop stop-color="#24040E"/>
<stop offset="0.1131" stop-color="#A20E40"/>
<stop offset="0.273" stop-color="#E3B5C5"/>
<stop offset="0.6019" stop-color="#A20E40"/>
<stop offset="1" stop-color="#24040E"/>
</linearGradient>
<linearGradient id="paint8_linear_938_25590" x1="15.0874" y1="27.7793" x2="27.7794" y2="15.0873" gradientUnits="userSpaceOnUse">
<stop stop-color="#24040E"/>
<stop offset="0.1131" stop-color="#A20E40"/>
<stop offset="0.273" stop-color="#E3B5C5"/>
<stop offset="0.6019" stop-color="#A20E40"/>
<stop offset="1" stop-color="#24040E"/>
</linearGradient>
<linearGradient id="paint9_linear_938_25590" x1="84.9512" y1="72.2593" x2="72.2594" y2="84.9511" gradientUnits="userSpaceOnUse">
<stop stop-color="#0D6A71"/>
<stop offset="0.0919" stop-color="#1398A2"/>
<stop offset="0.2499" stop-color="#C8D0D1"/>
<stop offset="0.5868" stop-color="#0E98A2"/>
<stop offset="0.8143" stop-color="#084E53"/>
<stop offset="1" stop-color="#042224"/>
</linearGradient>
<linearGradient id="paint10_linear_938_25590" x1="65.8938" y1="53.2019" x2="53.202" y2="65.8937" gradientUnits="userSpaceOnUse">
<stop stop-color="#0D6A71"/>
<stop offset="0.0919" stop-color="#1398A2"/>
<stop offset="0.2499" stop-color="#C8D0D1"/>
<stop offset="0.5868" stop-color="#0E98A2"/>
<stop offset="0.8143" stop-color="#084E53"/>
<stop offset="1" stop-color="#042224"/>
</linearGradient>
<linearGradient id="paint11_linear_938_25590" x1="46.8367" y1="34.1448" x2="34.1449" y2="46.8366" gradientUnits="userSpaceOnUse">
<stop stop-color="#0D6A71"/>
<stop offset="0.0919" stop-color="#1398A2"/>
<stop offset="0.2499" stop-color="#C8D0D1"/>
<stop offset="0.5868" stop-color="#0E98A2"/>
<stop offset="0.8143" stop-color="#084E53"/>
<stop offset="1" stop-color="#042224"/>
</linearGradient>
<linearGradient id="paint12_linear_938_25590" x1="27.7793" y1="15.0874" x2="15.0875" y2="27.7792" gradientUnits="userSpaceOnUse">
<stop stop-color="#0D6A71"/>
<stop offset="0.0919" stop-color="#1398A2"/>
<stop offset="0.2499" stop-color="#C8D0D1"/>
<stop offset="0.5868" stop-color="#0E98A2"/>
<stop offset="0.8143" stop-color="#084E53"/>
<stop offset="1" stop-color="#042224"/>
</linearGradient>
<linearGradient id="paint13_linear_938_25590" x1="75.4226" y1="62.7307" x2="62.7308" y2="75.4225" gradientUnits="userSpaceOnUse">
<stop stop-color="#A21343"/>
<stop offset="0.2499" stop-color="#D8C0C8"/>
<stop offset="0.7688" stop-color="#A20E40"/>
</linearGradient>
<linearGradient id="paint14_linear_938_25590" x1="56.365" y1="43.6731" x2="43.6732" y2="56.3649" gradientUnits="userSpaceOnUse">
<stop stop-color="#A21343"/>
<stop offset="0.2499" stop-color="#D8C0C8"/>
<stop offset="0.7688" stop-color="#A20E40"/>
</linearGradient>
<linearGradient id="paint15_linear_938_25590" x1="37.3079" y1="24.616" x2="24.6161" y2="37.3078" gradientUnits="userSpaceOnUse">
<stop stop-color="#A21343"/>
<stop offset="0.2499" stop-color="#D8C0C8"/>
<stop offset="0.7688" stop-color="#A20E40"/>
</linearGradient>
<linearGradient id="paint16_linear_938_25590" x1="18.2505" y1="5.55859" x2="5.55869" y2="18.2504" gradientUnits="userSpaceOnUse">
<stop stop-color="#A21343"/>
<stop offset="0.2499" stop-color="#D8C0C8"/>
<stop offset="0.7688" stop-color="#A20E40"/>
</linearGradient>
<radialGradient id="paint17_radial_938_25590" cx="0" cy="0" r="1" gradientUnits="userSpaceOnUse" gradientTransform="translate(39.0005 34.7269) scale(34.0493)">
<stop stop-color="#FF73A6"/>
<stop offset="0.2188" stop-color="#FD70A3"/>
<stop offset="0.4103" stop-color="#F6659A"/>
<stop offset="0.5917" stop-color="#EB538A"/>
<stop offset="0.7668" stop-color="#DC3A75"/>
<stop offset="0.9359" stop-color="#C81959"/>
<stop offset="1" stop-color="#BF0B4D"/>
</radialGradient>
</defs>
</svg>
