<svg width="16" height="175" viewBox="0 0 16 175" fill="none" xmlns="http://www.w3.org/2000/svg">
<g id="R-ICO-013727">
<g id="BG">
<path id="Vector" d="M16 21.1508C16 18.9448 14.9857 16.9615 13.371 15.5883C12.5378 14.8798 12.5079 13.6634 13.3254 12.9388C14.5051 11.8934 16 10.0641 16 7.33789C16 3.09147 12.2531 0.0129395 7.99961 0.0129395C3.74619 0.0129395 0 3.23867 0 7.33789C0 9.54512 1.01542 11.5294 2.63159 12.9026C3.46618 13.6117 3.46618 14.877 2.63159 15.5861C1.01542 16.9594 0 18.9435 0 21.1508C0 23.358 1.01542 25.3422 2.63169 26.7155C3.46618 27.4246 3.46618 28.6899 2.63169 29.3989C1.01542 30.7723 0 32.7565 0 34.9637C0 37.171 1.01542 39.1552 2.63169 40.5284C3.46628 41.2375 3.46618 42.5028 2.63169 43.2119C1.01542 44.5852 0 46.5695 0 48.7767C0 50.9838 1.01542 52.9682 2.63159 54.3414C3.46618 55.0505 3.46618 56.3158 2.63159 57.0249C1.01542 58.3982 0 60.3824 0 62.5897C0 65.3101 1.54369 67.6899 3.85269 69.0061C4.43434 69.3376 4.80019 69.9184 4.80019 70.5571V110.372C4.80019 111.348 4.61479 112.327 4.15599 113.202C3.48381 114.485 3.08094 116.109 3.08094 117.879C3.08094 119.649 3.48381 121.274 4.15599 122.556C4.61479 123.432 4.80019 124.411 4.80019 125.386C4.80019 126.362 4.61479 127.341 4.15599 128.216C3.48381 129.499 3.08094 131.123 3.08094 132.893C3.08094 134.663 3.48381 136.288 4.15599 137.57C4.61479 138.446 4.80019 139.425 4.80019 140.4C4.80019 141.376 4.61479 142.355 4.15599 143.23C3.48381 144.513 3.08094 146.137 3.08094 147.907C3.08094 149.678 3.48381 151.302 4.15599 152.585C4.61479 153.46 4.80019 154.439 4.80019 155.415C4.80019 156.39 4.61479 157.369 4.15599 158.245C3.48381 159.527 3.08094 161.152 3.08094 162.922C3.08094 164.692 3.48381 166.316 4.15599 167.599C4.61479 168.474 4.80019 169.453 4.80019 170.429V171.997C4.80019 171.997 4.72293 175 7.99941 175C11.276 175 11.2002 171.997 11.2002 171.997V170.428C11.2002 169.453 11.3855 168.474 11.8442 167.598C12.5163 166.316 12.9191 164.692 12.9191 162.922C12.9191 161.152 12.5163 159.527 11.8442 158.245C11.3855 157.37 11.2002 156.391 11.2002 155.415V155.414C11.2002 154.438 11.3855 153.459 11.8442 152.584C12.5163 151.302 12.9191 149.678 12.9191 147.908C12.9191 146.138 12.5163 144.513 11.8442 143.231C11.3855 142.356 11.2002 141.377 11.2002 140.401V140.4C11.2002 139.424 11.3855 138.445 11.8442 137.57C12.5163 136.288 12.9191 134.663 12.9191 132.893C12.9191 131.124 12.5163 129.499 11.8442 128.217C11.3855 127.342 11.2002 126.363 11.2002 125.387V125.386C11.2002 124.41 11.3855 123.431 11.8442 122.556C12.5163 121.274 12.9191 119.649 12.9191 117.879C12.9191 116.109 12.5163 114.485 11.8442 113.203C11.3855 112.328 11.2002 111.348 11.2002 110.373V70.5569C11.2002 69.9183 11.566 69.3375 12.1476 69.006C14.4565 67.6898 16 65.31 16 62.5898C16 60.3825 14.9846 58.3983 13.3683 57.0251C12.5337 56.316 12.5337 55.0506 13.3683 54.3416C14.9846 52.9684 15.9999 50.9841 15.9999 48.7769C15.9999 46.5697 14.9845 44.5854 13.3683 43.2122C12.5337 42.5031 12.5337 41.2378 13.3683 40.5287C14.9846 39.1554 16 37.1711 16 34.964C16 32.7568 14.9846 30.7725 13.3684 29.3993C12.5338 28.6902 12.5338 27.4249 13.3684 26.7158C14.9846 25.3422 16 23.358 16 21.1508Z" fill="url(#paint0_linear_938_24395)"/>
<path id="Vector_2" d="M16 21.1508C16 18.9448 14.9857 16.9615 13.371 15.5883C12.5378 14.8798 12.5079 13.6634 13.3254 12.9388C14.5051 11.8934 16 10.0641 16 7.33789C16 3.09147 12.2531 0.0129395 7.99961 0.0129395C3.74619 0.0129395 0 3.23867 0 7.33789C0 9.54512 1.01542 11.5294 2.63159 12.9026C3.46618 13.6117 3.46618 14.877 2.63159 15.5861C1.01542 16.9594 0 18.9435 0 21.1508C0 23.358 1.01542 25.3422 2.63169 26.7155C3.46618 27.4246 3.46618 28.6899 2.63169 29.3989C1.01542 30.7723 0 32.7565 0 34.9637C0 37.171 1.01542 39.1552 2.63169 40.5284C3.46628 41.2375 3.46618 42.5028 2.63169 43.2119C1.01542 44.5852 0 46.5695 0 48.7767C0 50.9838 1.01542 52.9682 2.63159 54.3414C3.46618 55.0505 3.46618 56.3158 2.63159 57.0249C1.01542 58.3982 0 60.3824 0 62.5897C0 65.3101 1.54369 67.6899 3.85269 69.0061C4.43434 69.3376 4.80019 69.9184 4.80019 70.5571V110.372C4.80019 111.348 4.61479 112.327 4.15599 113.202C3.48381 114.485 3.08094 116.109 3.08094 117.879C3.08094 119.649 3.48381 121.274 4.15599 122.556C4.61479 123.432 4.80019 124.411 4.80019 125.386C4.80019 126.362 4.61479 127.341 4.15599 128.216C3.48381 129.499 3.08094 131.123 3.08094 132.893C3.08094 134.663 3.48381 136.288 4.15599 137.57C4.61479 138.446 4.80019 139.425 4.80019 140.4C4.80019 141.376 4.61479 142.355 4.15599 143.23C3.48381 144.513 3.08094 146.137 3.08094 147.907C3.08094 149.678 3.48381 151.302 4.15599 152.585C4.61479 153.46 4.80019 154.439 4.80019 155.415C4.80019 156.39 4.61479 157.369 4.15599 158.245C3.48381 159.527 3.08094 161.152 3.08094 162.922C3.08094 164.692 3.48381 166.316 4.15599 167.599C4.61479 168.474 4.80019 169.453 4.80019 170.429V171.997C4.80019 171.997 4.72293 175 7.99941 175C11.276 175 11.2002 171.997 11.2002 171.997V170.428C11.2002 169.453 11.3855 168.474 11.8442 167.598C12.5163 166.316 12.9191 164.692 12.9191 162.922C12.9191 161.152 12.5163 159.527 11.8442 158.245C11.3855 157.37 11.2002 156.391 11.2002 155.415V155.414C11.2002 154.438 11.3855 153.459 11.8442 152.584C12.5163 151.302 12.9191 149.678 12.9191 147.908C12.9191 146.138 12.5163 144.513 11.8442 143.231C11.3855 142.356 11.2002 141.377 11.2002 140.401V140.4C11.2002 139.424 11.3855 138.445 11.8442 137.57C12.5163 136.288 12.9191 134.663 12.9191 132.893C12.9191 131.124 12.5163 129.499 11.8442 128.217C11.3855 127.342 11.2002 126.363 11.2002 125.387V125.386C11.2002 124.41 11.3855 123.431 11.8442 122.556C12.5163 121.274 12.9191 119.649 12.9191 117.879C12.9191 116.109 12.5163 114.485 11.8442 113.203C11.3855 112.328 11.2002 111.348 11.2002 110.373V70.5569C11.2002 69.9183 11.566 69.3375 12.1476 69.006C14.4565 67.6898 16 65.31 16 62.5898C16 60.3825 14.9846 58.3983 13.3683 57.0251C12.5337 56.316 12.5337 55.0506 13.3683 54.3416C14.9846 52.9684 15.9999 50.9841 15.9999 48.7769C15.9999 46.5697 14.9845 44.5854 13.3683 43.2122C12.5337 42.5031 12.5337 41.2378 13.3683 40.5287C14.9846 39.1554 16 37.1711 16 34.964C16 32.7568 14.9846 30.7725 13.3684 29.3993C12.5338 28.6902 12.5338 27.4249 13.3684 26.7158C14.9846 25.3422 16 23.358 16 21.1508Z" fill="url(#paint1_linear_938_24395)"/>
</g>
<g id="ICD">
<path id="Vector_3" d="M8.00011 125.386C10.7168 125.386 12.9192 122.025 12.9192 117.879C12.9192 113.733 10.7168 110.372 8.00011 110.372C5.28339 110.372 3.08105 113.733 3.08105 117.879C3.08105 122.025 5.28339 125.386 8.00011 125.386Z" fill="url(#paint2_radial_938_24395)"/>
<path id="Vector_4" d="M8.00011 140.4C10.7168 140.4 12.9192 137.039 12.9192 132.893C12.9192 128.747 10.7168 125.386 8.00011 125.386C5.28339 125.386 3.08105 128.747 3.08105 132.893C3.08105 137.039 5.28339 140.4 8.00011 140.4Z" fill="url(#paint3_radial_938_24395)"/>
<path id="Vector_5" d="M8.00011 155.415C10.7168 155.415 12.9192 152.053 12.9192 147.907C12.9192 143.761 10.7168 140.4 8.00011 140.4C5.28339 140.4 3.08105 143.761 3.08105 147.907C3.08105 152.053 5.28339 155.415 8.00011 155.415Z" fill="url(#paint4_radial_938_24395)"/>
<path id="Vector_6" d="M8.00011 170.429C10.7168 170.429 12.9192 167.068 12.9192 162.922C12.9192 158.776 10.7168 155.415 8.00011 155.415C5.28339 155.415 3.08105 158.776 3.08105 162.922C3.08105 167.068 5.28339 170.429 8.00011 170.429Z" fill="url(#paint5_radial_938_24395)"/>
</g>
<g id="TM">
<path id="Vector_7" d="M8 90.5001C12.4183 90.5001 16 89.4903 16 88.2447C16 86.999 12.4183 85.9893 8 85.9893C3.58172 85.9893 0 86.999 0 88.2447C0 89.4903 3.58172 90.5001 8 90.5001Z" fill="url(#paint6_radial_938_24395)"/>
<path id="Vector_8" d="M8 86.8431C12.4183 86.8431 16 85.8333 16 84.5877C16 83.3421 12.4183 82.3323 8 82.3323C3.58172 82.3323 0 83.3421 0 84.5877C0 85.8333 3.58172 86.8431 8 86.8431Z" fill="url(#paint7_radial_938_24395)"/>
<path id="Vector_9" d="M8 83.1861C12.4183 83.1861 16 82.1763 16 80.9307C16 79.6851 12.4183 78.6753 8 78.6753C3.58172 78.6753 0 79.6851 0 80.9307C0 82.1763 3.58172 83.1861 8 83.1861Z" fill="url(#paint8_radial_938_24395)"/>
</g>
<g id="ECD">
<path id="Vector_10" d="M8 70.1523C12.4183 70.1523 16 66.7913 16 62.6453C16 58.4992 12.4183 55.1382 8 55.1382C3.58172 55.1382 0 58.4992 0 62.6453C0 66.7913 3.58172 70.1523 8 70.1523Z" fill="url(#paint9_radial_938_24395)"/>
<path id="Vector_11" d="M8 56.238C12.4183 56.238 16 52.877 16 48.7309C16 44.5849 12.4183 41.2239 8 41.2239C3.58172 41.2239 0 44.5849 0 48.7309C0 52.877 3.58172 56.238 8 56.238Z" fill="url(#paint10_radial_938_24395)"/>
<path id="Vector_12" d="M8 42.4731C12.4183 42.4731 16 39.1121 16 34.9661C16 30.82 12.4183 27.459 8 27.459C3.58172 27.459 0 30.82 0 34.9661C0 39.1121 3.58172 42.4731 8 42.4731Z" fill="url(#paint11_radial_938_24395)"/>
<path id="Vector_13" d="M8 28.6328C12.4183 28.6328 16 25.2718 16 21.1257C16 16.9797 12.4183 13.6187 8 13.6187C3.58172 13.6187 0 16.9797 0 21.1257C0 25.2718 3.58172 28.6328 8 28.6328Z" fill="url(#paint12_radial_938_24395)"/>
<path id="Vector_14" d="M16 7.33793C16 3.1919 12.4183 0 8 0C3.58173 0 0 3.1919 0 7.33793C0 11.484 3.58173 14.845 8 14.845C12.4183 14.845 16 11.484 16 7.33793Z" fill="url(#paint13_radial_938_24395)"/>
</g>
</g>
<defs>
<linearGradient id="paint0_linear_938_24395" x1="1.27523e-06" y1="87.5064" x2="16" y2="87.5064" gradientUnits="userSpaceOnUse">
<stop offset="0.2571" stop-color="#473607"/>
<stop offset="0.4609" stop-color="#E8AF14"/>
<stop offset="0.7076" stop-color="#473607"/>
</linearGradient>
<linearGradient id="paint1_linear_938_24395" x1="8" y1="175" x2="8" y2="0.0129395" gradientUnits="userSpaceOnUse">
<stop offset="0.2571" stop-color="#473607"/>
<stop offset="0.409" stop-color="#E8AF14" stop-opacity="0"/>
<stop offset="0.4834" stop-color="#473607"/>
<stop offset="0.5366" stop-color="#E8AF14" stop-opacity="0"/>
<stop offset="0.597" stop-color="#473607"/>
<stop offset="1" stop-color="#E8AF14" stop-opacity="0"/>
</linearGradient>
<radialGradient id="paint2_radial_938_24395" cx="0" cy="0" r="1" gradientUnits="userSpaceOnUse" gradientTransform="translate(6.13069 116.228) scale(4.9192 7.50707)">
<stop stop-color="#E8AF14"/>
<stop offset="1" stop-color="#473607"/>
</radialGradient>
<radialGradient id="paint3_radial_938_24395" cx="0" cy="0" r="1" gradientUnits="userSpaceOnUse" gradientTransform="translate(6.13069 131.242) scale(4.9192 7.50707)">
<stop stop-color="#E8AF14"/>
<stop offset="1" stop-color="#473607"/>
</radialGradient>
<radialGradient id="paint4_radial_938_24395" cx="0" cy="0" r="1" gradientUnits="userSpaceOnUse" gradientTransform="translate(6.13069 146.256) scale(4.9192 7.50707)">
<stop stop-color="#E8AF14"/>
<stop offset="1" stop-color="#473607"/>
</radialGradient>
<radialGradient id="paint5_radial_938_24395" cx="0" cy="0" r="1" gradientUnits="userSpaceOnUse" gradientTransform="translate(6.13069 161.27) scale(4.9192 7.50707)">
<stop stop-color="#E8AF14"/>
<stop offset="1" stop-color="#473607"/>
</radialGradient>
<radialGradient id="paint6_radial_938_24395" cx="0" cy="0" r="1" gradientUnits="userSpaceOnUse" gradientTransform="translate(4.95998 87.7315) scale(8 2.25513)">
<stop stop-color="#E8AF14"/>
<stop offset="1" stop-color="#473607"/>
</radialGradient>
<radialGradient id="paint7_radial_938_24395" cx="0" cy="0" r="1" gradientUnits="userSpaceOnUse" gradientTransform="translate(4.95998 84.075) scale(8 2.25513)">
<stop stop-color="#E8AF14"/>
<stop offset="1" stop-color="#473607"/>
</radialGradient>
<radialGradient id="paint8_radial_938_24395" cx="0" cy="0" r="1" gradientUnits="userSpaceOnUse" gradientTransform="translate(4.95998 80.4184) scale(8 2.25513)">
<stop stop-color="#E8AF14"/>
<stop offset="1" stop-color="#473607"/>
</radialGradient>
<radialGradient id="paint9_radial_938_24395" cx="0" cy="0" r="1" gradientUnits="userSpaceOnUse" gradientTransform="translate(4.95998 60.9937) scale(8 7.50707)">
<stop stop-color="#E8AF14"/>
<stop offset="1" stop-color="#473607"/>
</radialGradient>
<radialGradient id="paint10_radial_938_24395" cx="0" cy="0" r="1" gradientUnits="userSpaceOnUse" gradientTransform="translate(4.95998 46.9292) scale(8 7.50707)">
<stop stop-color="#E8AF14"/>
<stop offset="1" stop-color="#473607"/>
</radialGradient>
<radialGradient id="paint11_radial_938_24395" cx="0" cy="0" r="1" gradientUnits="userSpaceOnUse" gradientTransform="translate(5.28004 32.8641) scale(8 7.50707)">
<stop stop-color="#E8AF14"/>
<stop offset="1" stop-color="#473607"/>
</radialGradient>
<radialGradient id="paint12_radial_938_24395" cx="0" cy="0" r="1" gradientUnits="userSpaceOnUse" gradientTransform="translate(5.44002 18.8736) scale(8 7.50707)">
<stop stop-color="#E8AF14"/>
<stop offset="1" stop-color="#473607"/>
</radialGradient>
<radialGradient id="paint13_radial_938_24395" cx="0" cy="0" r="1" gradientUnits="userSpaceOnUse" gradientTransform="translate(5.44002 5.17038) scale(7.95508 7.46492)">
<stop stop-color="#E8AF14"/>
<stop offset="1" stop-color="#473607"/>
</radialGradient>
</defs>
</svg>
