<svg width="98" height="25" viewBox="0 0 98 25" fill="none" xmlns="http://www.w3.org/2000/svg">
<g id="R-ICO-013207">
<g id="A">
<path id="Vector" d="M1 6.2181V18.0252L10.5554 23.2321L20.0813 18.0252V6.2181L10.5766 1L1 6.2181Z" fill="#73BABF" stroke="url(#paint0_linear_938_24981)" stroke-width="2" stroke-miterlimit="10" stroke-linecap="round" stroke-linejoin="round"/>
<text id="A_2" fill="white" xml:space="preserve" style="white-space: pre" font-family="Arial" font-size="12" font-weight="bold" letter-spacing="0em"><tspan x="5.85693" y="15.4126">A</tspan></text>
</g>
<g id="A_3">
<path id="Vector_2" d="M20.0815 6.2181V18.0252L29.6368 23.2321L39.1628 18.0252V6.2181L29.6581 1L20.0815 6.2181Z" fill="#73BABF" stroke="url(#paint1_linear_938_24981)" stroke-width="2" stroke-miterlimit="10" stroke-linecap="round" stroke-linejoin="round"/>
<text id="A_4" fill="white" xml:space="preserve" style="white-space: pre" font-family="Arial" font-size="12" font-weight="bold" letter-spacing="0em"><tspan x="24.9385" y="15.4126">A</tspan></text>
</g>
<g id="A_5">
<path id="Vector_3" d="M39.1626 6.2181V18.0252L48.7179 23.2321L58.2439 18.0252V6.2181L48.7392 1L39.1626 6.2181Z" fill="#73BABF" stroke="url(#paint2_linear_938_24981)" stroke-width="2" stroke-miterlimit="10" stroke-linecap="round" stroke-linejoin="round"/>
<text id="A_6" fill="white" xml:space="preserve" style="white-space: pre" font-family="Arial" font-size="12" font-weight="bold" letter-spacing="0em"><tspan x="44.0195" y="15.4126">A</tspan></text>
</g>
<g id="A_7">
<path id="Vector_4" d="M58.2441 6.2181V18.0252L67.7994 23.2321L77.3253 18.0252V6.2181L67.8207 1L58.2441 6.2181Z" fill="#73BABF" stroke="url(#paint3_linear_938_24981)" stroke-width="2" stroke-miterlimit="10" stroke-linecap="round" stroke-linejoin="round"/>
<text id="A_8" fill="white" xml:space="preserve" style="white-space: pre" font-family="Arial" font-size="12" font-weight="bold" letter-spacing="0em"><tspan x="63.1011" y="15.4126">A</tspan></text>
</g>
<g id="A_9">
<path id="Vector_5" d="M77.3252 6.2181V18.0252L86.8806 23.2321L96.4065 18.0252V6.2181L86.9019 1L77.3252 6.2181Z" fill="#73BABF" stroke="url(#paint4_linear_938_24981)" stroke-width="2" stroke-miterlimit="10" stroke-linecap="round" stroke-linejoin="round"/>
<text id="A_10" fill="white" xml:space="preserve" style="white-space: pre" font-family="Arial" font-size="12" font-weight="bold" letter-spacing="0em"><tspan x="82.1821" y="15.4126">A</tspan></text>
</g>
</g>
<defs>
<linearGradient id="paint0_linear_938_24981" x1="10.5406" y1="24.2321" x2="10.5406" y2="4.7281e-08" gradientUnits="userSpaceOnUse">
<stop stop-color="#041330"/>
<stop offset="1" stop-color="#73BABF"/>
</linearGradient>
<linearGradient id="paint1_linear_938_24981" x1="29.6221" y1="24.2321" x2="29.6221" y2="4.7281e-08" gradientUnits="userSpaceOnUse">
<stop stop-color="#041330"/>
<stop offset="1" stop-color="#73BABF"/>
</linearGradient>
<linearGradient id="paint2_linear_938_24981" x1="48.7032" y1="24.2321" x2="48.7032" y2="4.7281e-08" gradientUnits="userSpaceOnUse">
<stop stop-color="#041330"/>
<stop offset="1" stop-color="#73BABF"/>
</linearGradient>
<linearGradient id="paint3_linear_938_24981" x1="67.7847" y1="24.2321" x2="67.7847" y2="4.7281e-08" gradientUnits="userSpaceOnUse">
<stop stop-color="#041330"/>
<stop offset="1" stop-color="#73BABF"/>
</linearGradient>
<linearGradient id="paint4_linear_938_24981" x1="86.8659" y1="24.2321" x2="86.8659" y2="4.7281e-08" gradientUnits="userSpaceOnUse">
<stop stop-color="#041330"/>
<stop offset="1" stop-color="#73BABF"/>
</linearGradient>
</defs>
</svg>
