<svg width="23" height="164" viewBox="0 0 23 164" fill="none" xmlns="http://www.w3.org/2000/svg">
<g id="R-ICO-013342">
<path id="Vector" d="M11.3423 99.4803V163.55" stroke="#531F37" stroke-width="2" stroke-miterlimit="10"/>
<path id="Vector_2" d="M21.3423 10.2965V119.297C21.3423 124.797 16.8423 129.297 11.3423 129.297C5.84229 129.297 1.34229 124.797 1.34229 119.297V10.2965C1.34229 4.79651 5.91509 0.296509 11.3423 0.296509C16.7695 0.296509 21.3423 4.79651 21.3423 10.2965Z" fill="#FFBA00"/>
<g id="MUCIN">
<path id="Vector_3" d="M1.34229 119.297V87.2965C1.34229 81.7965 5.84229 77.2965 11.3423 77.2965C16.8423 77.2965 21.3423 81.7965 21.3423 87.2965V119.297C21.3423 124.797 16.8423 129.297 11.3423 129.297C5.84229 129.297 1.34229 124.797 1.34229 119.297Z" fill="#5001A2"/>
<text id="MUCIN_2" transform="matrix(0 -1 1 0 2.77637 122.96)" fill="white" xml:space="preserve" style="white-space: pre" font-family="Arial" font-size="12" font-weight="bold" letter-spacing="0em"><tspan x="0" y="11.1602">MUCIN</tspan></text>
</g>
<g id="CHEMOKINE">
<path id="Vector_4" d="M1.34229 67.2965V10.2965C1.34229 4.79651 5.84229 0.296509 11.3423 0.296509C16.8423 0.296509 21.3423 4.79651 21.3423 10.2965V67.2965C21.3423 72.7965 16.8423 77.2965 11.3423 77.2965C5.84229 77.2965 1.34229 72.7965 1.34229 67.2965Z" fill="#9E7102"/>
<text id="CHEMOKINE_2" transform="matrix(0 -1 1 0 2.77637 75.4644)" fill="white" xml:space="preserve" style="white-space: pre" font-family="Arial" font-size="12" font-weight="bold" letter-spacing="0em"><tspan x="0" y="11.1602">CHEMOKINE</tspan></text>
</g>
<g id="Group">
<path id="Vector_5" d="M21.4922 10.2965C21.4809 21.9922 21.9393 33.6878 22.3293 45.3835C22.787 57.0792 22.8759 68.7748 22.942 80.4705C22.9828 92.1662 22.857 103.862 22.7532 115.558L22.7342 117.75C22.7187 118.503 22.746 119.154 22.6794 120.031C22.5613 121.688 22.0814 123.327 21.2492 124.759C19.6001 127.627 16.6879 129.726 13.445 130.282C11.8314 130.564 10.1663 130.489 8.59472 130.062C7.02492 129.629 5.56651 128.842 4.34162 127.798C1.89902 125.694 0.455215 122.515 0.522115 119.34C0.787715 107.638 0.978815 95.9467 0.851215 84.2496C0.705015 72.5539 0.259415 60.8582 0.0693151 49.1626C-0.0927849 37.4669 0.0222152 25.7713 0.490715 14.0756C0.552715 12.5941 0.556315 11.1954 0.666215 9.6459C0.803115 8.0822 1.30052 6.5625 2.09172 5.2329C3.68922 2.5833 6.40421 0.672301 9.39742 0.153201C12.3908 -0.388999 15.5432 0.535601 17.7924 2.4894C20.0717 4.4007 21.513 7.311 21.4922 10.2965ZM21.1922 10.2965C21.185 7.4035 19.7638 4.6057 17.5485 2.7828C15.318 0.977101 12.294 0.188001 9.53252 0.823501C6.77522 1.4612 4.40171 3.3736 3.11531 5.8078C2.47842 7.0302 2.12442 8.3824 2.08242 9.7352C2.06412 11.1062 2.16032 12.6339 2.19372 14.0756C2.66221 25.7713 2.77722 37.4669 2.61511 49.1626C2.42501 60.8582 1.97942 72.5539 1.83332 84.2495C1.70752 95.9437 1.89271 107.644 2.16641 119.333C2.23772 122.025 3.57572 124.591 5.64592 126.218C7.72501 127.835 10.4702 128.472 12.9957 127.943C15.5242 127.433 17.7363 125.711 18.9343 123.475C19.5325 122.355 19.8701 121.111 19.9392 119.854C19.9819 119.271 19.9498 118.46 19.9502 117.75L19.9312 115.557C19.8274 103.862 19.7016 92.1661 19.7424 80.4704C19.8085 68.7747 19.8974 57.0791 20.3551 45.3834C20.7451 33.6878 21.2035 21.9922 21.1922 10.2965Z" fill="#FFBA00"/>
</g>
</g>
</svg>
