<svg width="117" height="95" viewBox="0 0 117 95" fill="none" xmlns="http://www.w3.org/2000/svg">
<g id="R-ICO-013249">
<g id="R-ICO-013306">
<path id="50S" d="M62.938 23.0342C81.6528 41.749 70.2344 57.0944 62.938 63.123C51.8679 74.1932 35.7283 77.7268 22.8492 63.123C9.63425 48.1382 11.779 34.1044 22.8492 23.0342C33.9194 11.964 51.8679 11.964 62.938 23.0342Z" fill="url(#paint0_radial_938_25276)"/>
<path id="30S" d="M72.6116 17.5102C83.009 33.3673 84.9925 41.3278 73.9223 52.398C59.9379 66.3824 48.1031 71.9521 32.3764 49.8301C23.3052 37.0702 16.5436 25.7549 33.8335 12.3092C46.1919 2.69838 62.895 2.69148 72.6116 17.5102Z" fill="url(#paint1_radial_938_25276)"/>
</g>
<g id="Mask group">
<mask id="mask0_938_25276" style="mask-type:alpha" maskUnits="userSpaceOnUse" x="0" y="0" width="86" height="95">
<path id="MASK" d="M85.2256 94.54H0V0H85.2256V94.54ZM72.1826 17.5605C62.466 2.74185 45.7627 2.74858 33.4043 12.3594C16.1149 25.8049 22.8762 37.1201 31.9473 49.8799C47.6739 72.0017 59.5089 66.4325 73.4932 52.4482C84.5633 41.3781 82.5799 33.4175 72.1826 17.5605Z" fill="white"/>
</mask>
<g mask="url(#mask0_938_25276)">
<g id="R-ICO-013027">
<g id="Back">
<path id="Vector" d="M2.71934 29.2874C8.25862 34.8266 16.8798 17.992 25.1703 26.2825L26.5166 27.6472C21.2564 22.3871 12.0317 38.5998 4.27141 30.8394L2.71934 29.2874Z" fill="url(#paint2_linear_938_25276)"/>
<path id="Vector_2" d="M21.7721 48.3403C27.3114 53.8796 35.9326 37.045 44.2231 45.3355L45.5693 46.7002C40.3091 41.44 31.0845 57.6527 23.3241 49.8924L21.7721 48.3403Z" fill="url(#paint3_linear_938_25276)"/>
<path id="Vector_3" d="M40.8248 67.3933C46.3641 72.9326 54.9853 56.098 63.2758 64.3885L64.6221 65.7532C59.3619 60.493 50.1372 76.7057 42.3769 68.9454L40.8248 67.3933Z" fill="url(#paint4_linear_938_25276)"/>
<path id="Vector_4" d="M59.8785 86.4463C65.4178 91.9856 74.039 75.1509 82.3295 83.4414L83.6758 84.8062C78.4156 79.546 69.1909 95.7587 61.4306 87.9984L59.8785 86.4463Z" fill="url(#paint5_linear_938_25276)"/>
</g>
<g id="Front">
<path id="Vector_5" d="M4.25394 30.8216C-1.28533 25.2823 15.0681 16.1799 7.45539 8.5672L5.90332 7.01514C11.1635 12.2753 -5.27253 21.2951 2.70188 29.2695L4.25394 30.8216Z" fill="url(#paint6_linear_938_25276)"/>
<path id="Vector_6" d="M23.3067 49.8746C17.7674 44.3353 34.1209 35.233 26.5081 27.6202L24.9561 26.0681C30.2162 31.3283 13.7802 40.3481 21.7546 48.3225L23.3067 49.8746Z" fill="url(#paint7_linear_938_25276)"/>
<path id="Vector_7" d="M42.3594 68.9276C36.8201 63.3883 53.1736 54.2859 45.5609 46.6732L44.0088 45.1211C49.269 50.3813 32.8329 59.4011 40.8073 67.3755L42.3594 68.9276Z" fill="url(#paint8_linear_938_25276)"/>
<path id="Vector_8" d="M61.4131 87.9805C55.8739 82.4413 72.2273 73.3389 64.6146 65.7261L63.0625 64.1741C68.3227 69.4342 51.8866 78.4541 59.8611 86.4285L61.4131 87.9805Z" fill="url(#paint9_linear_938_25276)"/>
</g>
</g>
</g>
</g>
<g id="R-ICO-013248">
<g id="R-ICO-013248_2">
<mask id="path-12-inside-1_938_25276" fill="white">
<path d="M81.6943 67.0065C80.3364 67.0065 79.0366 66.4543 78.0942 65.4762L71.6523 58.7931L65.2529 65.277C63.3134 67.2428 60.1479 67.2633 58.1821 65.3234C56.2168 63.3839 56.1958 60.2179 58.1357 58.2526L68.1357 48.1198C69.082 47.1603 70.3427 46.5944 71.7236 46.632C73.0713 46.6398 74.3589 47.1916 75.2944 48.1623L81.6943 54.802L88.0942 48.1623C89.0366 47.1843 90.3364 46.632 91.6943 46.632C93.0522 46.632 94.352 47.1842 95.2944 48.1623L101.76 54.8698L108.346 48.2834C110.298 46.3313 113.464 46.3313 115.417 48.2834C117.369 50.236 117.369 53.4021 115.417 55.3547L105.23 65.5422C104.282 66.4909 103.014 67.0217 101.648 67.0066C100.307 66.9939 99.0258 66.4426 98.0942 65.4763L91.6943 58.8367L85.2944 65.4763C84.352 66.4542 83.0522 67.0065 81.6943 67.0065Z"/>
</mask>
<path d="M81.6943 67.0065C80.3364 67.0065 79.0366 66.4543 78.0942 65.4762L71.6523 58.7931L65.2529 65.277C63.3134 67.2428 60.1479 67.2633 58.1821 65.3234C56.2168 63.3839 56.1958 60.2179 58.1357 58.2526L68.1357 48.1198C69.082 47.1603 70.3427 46.5944 71.7236 46.632C73.0713 46.6398 74.3589 47.1916 75.2944 48.1623L81.6943 54.802L88.0942 48.1623C89.0366 47.1843 90.3364 46.632 91.6943 46.632C93.0522 46.632 94.352 47.1842 95.2944 48.1623L101.76 54.8698L108.346 48.2834C110.298 46.3313 113.464 46.3313 115.417 48.2834C117.369 50.236 117.369 53.4021 115.417 55.3547L105.23 65.5422C104.282 66.4909 103.014 67.0217 101.648 67.0066C100.307 66.9939 99.0258 66.4426 98.0942 65.4763L91.6943 58.8367L85.2944 65.4763C84.352 66.4542 83.0522 67.0065 81.6943 67.0065Z" fill="#E0A734" stroke="#997D0B" stroke-width="4" stroke-linejoin="round" mask="url(#path-12-inside-1_938_25276)"/>
</g>
</g>
</g>
<defs>
<radialGradient id="paint0_radial_938_25276" cx="0" cy="0" r="1" gradientTransform="matrix(20.7515 31.2322 -23.3201 15.4943 42.5726 34.9309)" gradientUnits="userSpaceOnUse">
<stop stop-color="#FFA3B5"/>
<stop offset="0.786" stop-color="#D85972"/>
<stop offset="1" stop-color="#873243"/>
</radialGradient>
<radialGradient id="paint1_radial_938_25276" cx="0" cy="0" r="1" gradientTransform="matrix(20.9758 33.4373 -30.2914 19.0061 58.3402 23.1327)" gradientUnits="userSpaceOnUse">
<stop stop-color="#FFA3B5"/>
<stop offset="0.786" stop-color="#D85972"/>
<stop offset="1" stop-color="#873243"/>
</radialGradient>
<linearGradient id="paint2_linear_938_25276" x1="8.27659" y1="34.8087" x2="20.9686" y2="22.1167" gradientUnits="userSpaceOnUse">
<stop stop-color="#241A04"/>
<stop offset="0.1959" stop-color="#A28746"/>
<stop offset="0.3113" stop-color="#E2E0DC"/>
<stop offset="0.4279" stop-color="#A2760E"/>
<stop offset="1" stop-color="#241A04"/>
</linearGradient>
<linearGradient id="paint3_linear_938_25276" x1="27.3293" y1="53.8616" x2="40.0213" y2="41.1697" gradientUnits="userSpaceOnUse">
<stop stop-color="#241A04"/>
<stop offset="0.1959" stop-color="#A28746"/>
<stop offset="0.3113" stop-color="#E2E0DC"/>
<stop offset="0.4279" stop-color="#A2760E"/>
<stop offset="1" stop-color="#241A04"/>
</linearGradient>
<linearGradient id="paint4_linear_938_25276" x1="46.3821" y1="72.9146" x2="59.074" y2="60.2227" gradientUnits="userSpaceOnUse">
<stop stop-color="#241A04"/>
<stop offset="0.1959" stop-color="#A28746"/>
<stop offset="0.3113" stop-color="#E2E0DC"/>
<stop offset="0.4279" stop-color="#A2760E"/>
<stop offset="1" stop-color="#241A04"/>
</linearGradient>
<linearGradient id="paint5_linear_938_25276" x1="65.4358" y1="91.9676" x2="78.1277" y2="79.2756" gradientUnits="userSpaceOnUse">
<stop stop-color="#241A04"/>
<stop offset="0.1959" stop-color="#A28746"/>
<stop offset="0.3113" stop-color="#E2E0DC"/>
<stop offset="0.4279" stop-color="#A2760E"/>
<stop offset="1" stop-color="#241A04"/>
</linearGradient>
<linearGradient id="paint6_linear_938_25276" x1="11.4246" y1="12.5724" x2="-1.26735" y2="25.2644" gradientUnits="userSpaceOnUse">
<stop stop-color="#71530D"/>
<stop offset="0.0919" stop-color="#A27713"/>
<stop offset="0.2499" stop-color="#E2E0DC"/>
<stop offset="0.5868" stop-color="#A2760E"/>
<stop offset="1" stop-color="#241A04"/>
</linearGradient>
<linearGradient id="paint7_linear_938_25276" x1="30.4773" y1="31.6254" x2="17.7854" y2="44.3173" gradientUnits="userSpaceOnUse">
<stop stop-color="#71530D"/>
<stop offset="0.0919" stop-color="#A27713"/>
<stop offset="0.2499" stop-color="#E2E0DC"/>
<stop offset="0.5868" stop-color="#A2760E"/>
<stop offset="1" stop-color="#241A04"/>
</linearGradient>
<linearGradient id="paint8_linear_938_25276" x1="49.5301" y1="50.6783" x2="36.8381" y2="63.3703" gradientUnits="userSpaceOnUse">
<stop stop-color="#71530D"/>
<stop offset="0.0919" stop-color="#A27713"/>
<stop offset="0.2499" stop-color="#E2E0DC"/>
<stop offset="0.5868" stop-color="#A2760E"/>
<stop offset="1" stop-color="#241A04"/>
</linearGradient>
<linearGradient id="paint9_linear_938_25276" x1="68.5838" y1="69.7313" x2="55.8918" y2="82.4233" gradientUnits="userSpaceOnUse">
<stop stop-color="#71530D"/>
<stop offset="0.0919" stop-color="#A27713"/>
<stop offset="0.2499" stop-color="#E2E0DC"/>
<stop offset="0.5868" stop-color="#A2760E"/>
<stop offset="1" stop-color="#241A04"/>
</linearGradient>
</defs>
</svg>
