<svg width="85" height="23" viewBox="0 0 85 23" fill="none" xmlns="http://www.w3.org/2000/svg">
<g id="R-ICO-014194">
<g id="APOBEC3G">
<path d="M0.892578 11.5C0.892578 5.97715 5.36973 1.5 10.8926 1.5H72.8926C78.4154 1.5 82.8926 5.97715 82.8926 11.5C82.8926 17.0228 78.4154 21.5 72.8926 21.5H10.8926C5.36973 21.5 0.892578 17.0228 0.892578 11.5Z" fill="url(#paint0_linear_938_23895)"/>
<path d="M57.6008 2.99266C42.0314 2.87443 26.462 2.52283 10.8926 1.64001C10.8926 1.54664 10.8926 1.45328 10.8926 1.35991C26.462 0.477089 42.0314 0.125486 57.6008 0.00726104C62.698 -0.017473 67.7953 0.0242378 72.8926 0.0831634C75.9623 0.096918 78.9899 1.43979 81.0597 3.66669C83.0459 5.75798 84.158 8.64583 84.0925 11.5C84.1276 17.4841 78.6198 22.6045 72.8933 22.2659C72.8931 22.2659 72.8928 22.2658 72.8926 22.2658C65.1081 22.0221 57.3228 21.8466 49.5385 21.953C41.7537 22.056 33.9684 22.4645 26.1837 22.6648C21.0866 22.7714 15.9896 22.7702 10.8926 22.7132C7.87695 22.7005 4.90611 21.369 2.89355 19.173C0.965206 17.1068 -0.0906468 14.2753 0.00619298 11.5C0.037453 5.6727 5.49974 0.854928 10.8926 1.35991C10.8926 1.45328 10.8926 1.54664 10.8926 1.64001C5.63246 1.88587 1.48849 6.67385 1.77882 11.5C1.85143 13.8307 2.83975 16.0691 4.45818 17.6718C6.15495 19.3749 8.52429 20.3289 10.8926 20.2869C15.9896 20.2299 21.0866 20.2286 26.1837 20.3353C33.9684 20.5356 41.7537 20.9428 49.5385 21.0457C57.3229 21.1521 65.108 20.978 72.8926 20.7342C72.8928 20.7342 72.893 20.7342 72.8932 20.7342C77.8195 20.6538 81.9165 16.1686 81.6927 11.5C81.6514 9.24864 80.7198 7.06708 79.1598 5.4894C77.5203 3.81672 75.2073 2.87369 72.8926 2.91682C67.7953 2.97581 62.6979 3.01757 57.6008 2.99266Z" fill="#5AAA26"/>
<text id="APOBEC3G_2" fill="white" xml:space="preserve" style="white-space: pre" font-family="Arial" font-size="12" font-weight="bold" letter-spacing="0em"><tspan x="8.20117" y="15.6602">APOBEC3G</tspan></text>
</g>
</g>
<defs>
<linearGradient id="paint0_linear_938_23895" x1="41.8926" y1="1.5" x2="41.8926" y2="21.5" gradientUnits="userSpaceOnUse">
<stop stop-color="#E49000"/>
<stop offset="1" stop-color="#5AAA26"/>
</linearGradient>
</defs>
</svg>
