<svg width="54" height="18" viewBox="0 0 54 18" fill="none" xmlns="http://www.w3.org/2000/svg">
<g id="R-ICO-013586">
<path id="Vector" d="M8.7914 17.5828C13.6468 17.5828 17.5828 13.6468 17.5828 8.7914C17.5828 3.93604 13.6468 0 8.7914 0C3.93604 0 0 3.93604 0 8.7914C0 13.6468 3.93604 17.5828 8.7914 17.5828Z" fill="url(#paint0_radial_938_24277)"/>
<path id="Vector_2" d="M44.4029 17.5828C49.2582 17.5828 53.1943 13.6468 53.1943 8.7914C53.1943 3.93604 49.2582 0 44.4029 0C39.5475 0 35.6115 3.93604 35.6115 8.7914C35.6115 13.6468 39.5475 17.5828 44.4029 17.5828Z" fill="url(#paint1_radial_938_24277)"/>
</g>
<defs>
<radialGradient id="paint0_radial_938_24277" cx="0" cy="0" r="1" gradientUnits="userSpaceOnUse" gradientTransform="translate(7.0053 6.3983) scale(9.9856)">
<stop stop-color="#B2F6FF"/>
<stop offset="0.0685" stop-color="#9CEAF4"/>
<stop offset="0.2071" stop-color="#74D4E1"/>
<stop offset="0.3506" stop-color="#54C2D1"/>
<stop offset="0.498" stop-color="#3BB5C5"/>
<stop offset="0.6511" stop-color="#29ABBC"/>
<stop offset="0.8132" stop-color="#1EA5B7"/>
<stop offset="1" stop-color="#1BA3B5"/>
</radialGradient>
<radialGradient id="paint1_radial_938_24277" cx="0" cy="0" r="1" gradientUnits="userSpaceOnUse" gradientTransform="translate(42.6168 6.3983) scale(9.9856 9.9856)">
<stop stop-color="#B2F6FF"/>
<stop offset="0.0685" stop-color="#9CEAF4"/>
<stop offset="0.2071" stop-color="#74D4E1"/>
<stop offset="0.3506" stop-color="#54C2D1"/>
<stop offset="0.498" stop-color="#3BB5C5"/>
<stop offset="0.6511" stop-color="#29ABBC"/>
<stop offset="0.8132" stop-color="#1EA5B7"/>
<stop offset="1" stop-color="#1BA3B5"/>
</radialGradient>
</defs>
</svg>
