<svg width="137" height="23" viewBox="0 0 137 23" fill="none" xmlns="http://www.w3.org/2000/svg">
<g id="R-ICO-013226">
<g id="PREPROGLUCAGON">
<path d="M0.686523 11.5C0.686523 5.97715 5.16368 1.5 10.6865 1.5H125.687C131.209 1.5 135.687 5.97715 135.687 11.5C135.687 17.0228 131.209 21.5 125.687 21.5H10.6865C5.16368 21.5 0.686523 17.0228 0.686523 11.5Z" fill="#5FA6C2"/>
<path d="M83.8946 2.99266C59.4918 2.87443 35.0893 2.52283 10.6865 1.64001C10.6865 1.54664 10.6865 1.45328 10.6865 1.35991C35.0893 0.477089 59.4918 0.125486 83.8946 0.00726104C96.096 -0.0305147 108.298 0.0866973 120.5 0.183516C122.229 0.195094 123.958 0.209051 125.687 0.225245C131.701 0.131993 136.994 5.60608 136.757 11.5C136.807 17.4075 131.416 22.5302 125.688 22.2659C125.687 22.2659 125.687 22.2658 125.687 22.2658C113.486 22.0221 101.283 21.8466 89.0825 21.953C76.8812 22.056 64.6788 22.4645 52.4774 22.6648C40.2765 22.8277 28.0756 22.7388 15.8744 22.5842C14.1451 22.5621 12.4158 22.5375 10.6865 22.5099C4.80908 22.5647 -0.282372 17.1813 0.0123193 11.5C0.0247896 5.79545 5.29504 0.991752 10.6865 1.35991C10.6865 1.45328 10.6865 1.54664 10.6865 1.64001C5.425 1.74909 1.08912 6.55106 1.3606 11.5C1.39622 16.4721 5.91078 20.6945 10.6865 20.4902C12.4158 20.4627 14.1451 20.438 15.8744 20.4159C28.0753 20.2613 40.2763 20.1724 52.4774 20.3353C64.6788 20.5356 76.8811 20.9428 89.0825 21.0457C101.283 21.1521 113.485 20.978 125.687 20.7342C125.687 20.7342 125.687 20.7342 125.687 20.7342C130.612 20.7277 134.825 16.245 134.617 11.5C134.638 6.74066 130.325 2.60891 125.687 2.77468C123.958 2.79087 122.229 2.80482 120.5 2.8164C108.298 2.91322 96.096 3.03071 83.8946 2.99266Z" fill="#DE4E8D"/>
<text id="PREPROGLUCAGON_2" fill="white" xml:space="preserve" style="white-space: pre" font-family="Arial" font-size="12" font-weight="bold" letter-spacing="0em"><tspan x="7.81738" y="15.6602">PREPROGLUCAGON</tspan></text>
</g>
</g>
</svg>
