<svg width="46" height="23" viewBox="0 0 46 23" fill="none" xmlns="http://www.w3.org/2000/svg">
<g id="R-ICO-013566">
<g id="CIKS">
<path d="M1.1582 11.4224C1.1582 5.89952 5.63536 1.42236 11.1582 1.42236H34.1582C39.681 1.42236 44.1582 5.89952 44.1582 11.4224C44.1582 16.9452 39.681 21.4224 34.1582 21.4224H11.1582C5.63536 21.4224 1.1582 16.9452 1.1582 11.4224Z" fill="url(#paint0_linear_938_23713)"/>
<path d="M37.6339 3.65468C36.5533 3.14946 35.3662 2.87197 34.1582 2.84231C26.4915 2.67532 18.8249 2.30864 11.1582 1.56237C11.1582 1.469 11.1582 1.37564 11.1582 1.28227C18.8249 0.536001 26.4915 0.169325 34.1582 0.00233459C35.7565 -0.030146 37.3758 0.285534 38.855 0.930466C42.9358 2.67495 45.6663 7.04822 45.5204 11.4224C45.5053 12.2175 45.4072 13.0117 45.2273 13.7857C44.1428 18.8792 39.0841 22.5664 34.1586 22.1882C34.1585 22.1882 34.1583 22.1882 34.1582 22.1882C29.6236 21.9445 25.0885 21.769 20.554 21.8753C17.4222 21.9465 14.2902 22.1633 11.1582 22.3567C9.62716 22.4453 8.0507 22.2013 6.59512 21.6149C2.58188 20.0239 -0.169989 15.7191 0.00766814 11.4224C0.0276164 10.6419 0.131002 9.86371 0.316251 9.10775C1.44316 4.12967 6.5107 0.659614 11.1582 1.28227C11.1582 1.37564 11.1582 1.469 11.1582 1.56237C6.64172 2.02332 3.08071 5.55263 2.43721 9.55856C2.3306 10.1749 2.28852 10.7999 2.30866 11.4224C2.39271 14.8386 4.50368 17.9946 7.54809 19.4891C8.65237 20.053 9.8827 20.4022 11.1582 20.4878C14.2902 20.6808 17.4222 20.897 20.554 20.9681C25.0886 21.0744 29.6235 20.9003 34.1582 20.6566C34.1583 20.6566 34.1584 20.6566 34.1586 20.6566C38.3968 20.4395 41.9654 17.1281 42.6519 13.2382C42.7639 12.6397 42.8114 12.0304 42.796 11.4224C42.7438 8.08334 40.6108 4.99553 37.6339 3.65468Z" fill="#8D2106"/>
<text id="CIKS_2" fill="white" xml:space="preserve" style="white-space: pre" font-family="Arial" font-size="12" font-weight="bold" letter-spacing="0em"><tspan x="8.31445" y="15.5825">CIKS</tspan></text>
</g>
</g>
<defs>
<linearGradient id="paint0_linear_938_23713" x1="22.6582" y1="1.42236" x2="22.6582" y2="21.4224" gradientUnits="userSpaceOnUse">
<stop stop-color="#8D2106"/>
<stop offset="1" stop-color="#95A551"/>
</linearGradient>
</defs>
</svg>
