<svg width="74" height="88" viewBox="0 0 74 88" fill="none" xmlns="http://www.w3.org/2000/svg">
<g id="R-ICO-012791">
<path id="GPCR generic" d="M54.904 86.7679C73.5321 84.5619 73.5321 71.8164 73.7772 39.2171C74.0223 12.7455 72.7968 0.2451 66.1789 0.2451C59.3159 0.2451 58.0904 12.5005 57.6001 38.972C57.6001 46.8154 57.355 70.5908 53.9235 73.0419C50.9822 70.5908 50.7371 48.7763 50.7371 40.4426V37.7464C50.7371 15.6868 50.2469 0.245 43.1388 0.245C36.2758 0.245 34.8052 12.9906 34.56 38.9719C34.56 46.8153 34.3149 70.5907 30.8834 73.0418C27.697 70.5907 27.697 46.8153 27.697 38.9719C27.9422 12.5005 26.7167 0 20.0988 0C14.9516 0 13.4809 7.8434 12.7456 15.4418C12.0103 23.0401 12.0103 32.3542 11.7652 39.2172C11.7652 47.0606 11.5201 70.836 8.0886 73.2871C4.9021 70.836 4.9021 47.0606 4.9021 39.2171L5.1472 2.9413H0.2451L0 39.2171C0 46.0801 0 55.3942 0.4902 62.9925C1.2255 70.5908 2.6962 78.1891 7.8434 78.1891C12.9906 78.1891 14.4613 70.3457 15.1966 62.7473C15.9319 55.149 15.9319 45.8349 16.177 38.9719C16.177 31.1285 16.4221 7.3531 19.8536 4.902C23.04 7.3531 23.04 31.1285 23.04 38.9719C22.7949 65.4435 24.0204 77.9439 30.6383 77.9439C37.5013 77.9439 38.9719 65.1983 39.2171 39.217C39.2171 31.3736 39.4622 7.5982 42.8937 5.1471C46.0801 7.5982 46.0801 29.6578 46.0801 37.9915V40.6877C46.0801 62.2571 46.5703 77.944 53.6784 77.944C60.5414 77.944 61.7669 65.6886 62.2571 39.2171C62.2571 31.3737 62.5022 7.5983 65.9337 5.1472C69.1201 7.5983 69.1201 31.3737 69.1201 39.2171C68.875 75.7381 68.875 82.356 48.5311 82.1108V87.0129C50.4921 87.013 52.9432 86.7679 54.904 86.7679Z" fill="url(#paint0_linear_938_22937)"/>
</g>
<defs>
<linearGradient id="paint0_linear_938_22937" x1="74.8271" y1="43.7462" x2="0.164745" y2="43.2453" gradientUnits="userSpaceOnUse">
<stop offset="0.0016" stop-color="#78BA96"/>
<stop offset="0.1008" stop-color="#69B19B"/>
<stop offset="0.3368" stop-color="#4BA0A5"/>
<stop offset="0.5688" stop-color="#3594AC"/>
<stop offset="0.7928" stop-color="#288DB1"/>
<stop offset="1" stop-color="#248AB2"/>
</linearGradient>
</defs>
</svg>
