<svg width="125" height="89" viewBox="0 0 125 89" fill="none" xmlns="http://www.w3.org/2000/svg">
<g id="R-ICO-012579">
<g id="BG">
<mask id="path-1-inside-1_938_25074" fill="white">
<path d="M81.0648 82.9712C88.4565 76.2237 68.9083 76.4664 68.9083 65.6589C68.9083 52.8671 77.5008 50.2624 91.5254 49.9907C109.55 49.6415 109.448 67.1418 101.186 71.0334C91.8199 75.4452 93.2904 79.0306 95.7606 81.6736C98.2309 84.3166 109.241 89.3005 119.158 74.1636C127.926 60.7811 129.772 20.4027 103.468 8.86602C77.1648 -2.67068 28.2494 -5.20868 12.7902 15.0958C-2.66896 35.4003 -8.66796 71.6255 21.3274 82.0085C51.3228 92.3915 76.3734 87.2537 81.0648 82.9712Z"/>
</mask>
<path d="M81.0648 82.9712C88.4565 76.2237 68.9083 76.4664 68.9083 65.6589C68.9083 52.8671 77.5008 50.2624 91.5254 49.9907C109.55 49.6415 109.448 67.1418 101.186 71.0334C91.8199 75.4452 93.2904 79.0306 95.7606 81.6736C98.2309 84.3166 109.241 89.3005 119.158 74.1636C127.926 60.7811 129.772 20.4027 103.468 8.86602C77.1648 -2.67068 28.2494 -5.20868 12.7902 15.0958C-2.66896 35.4003 -8.66796 71.6255 21.3274 82.0085C51.3228 92.3915 76.3734 87.2537 81.0648 82.9712Z" fill="url(#paint0_radial_938_25074)" stroke="#9F42FF" stroke-width="8" stroke-miterlimit="10" stroke-linecap="round" mask="url(#path-1-inside-1_938_25074)"/>
</g>
<g id="R-ICO-013121" opacity="0.8">
<g id="Nucleus" opacity="0.8">
<mask id="path-2-inside-2_938_25074" fill="white">
<path d="M31.6676 52.2087C38.9992 52.2087 44.9426 46.2653 44.9426 38.9337C44.9426 31.6021 38.9992 25.6587 31.6676 25.6587C24.336 25.6587 18.3926 31.6021 18.3926 38.9337C18.3926 46.2653 24.336 52.2087 31.6676 52.2087Z"/>
</mask>
<path d="M31.6676 52.2087C38.9992 52.2087 44.9426 46.2653 44.9426 38.9337C44.9426 31.6021 38.9992 25.6587 31.6676 25.6587C24.336 25.6587 18.3926 31.6021 18.3926 38.9337C18.3926 46.2653 24.336 52.2087 31.6676 52.2087Z" fill="url(#paint1_radial_938_25074)" stroke="#5656A5" stroke-width="1.99125" mask="url(#path-2-inside-2_938_25074)"/>
</g>
<g id="R-ICO-013619">
<g id="Nucleolus">
<mask id="path-3-inside-3_938_25074" fill="white">
<path d="M25.4247 47.0247C26.7077 47.0247 27.7478 45.9846 27.7478 44.7015C27.7478 43.4185 26.7077 42.3784 25.4247 42.3784C24.1417 42.3784 23.1016 43.4185 23.1016 44.7015C23.1016 45.9846 24.1417 47.0247 25.4247 47.0247Z"/>
</mask>
<path d="M25.4247 47.0247C26.7077 47.0247 27.7478 45.9846 27.7478 44.7015C27.7478 43.4185 26.7077 42.3784 25.4247 42.3784C24.1417 42.3784 23.1016 43.4185 23.1016 44.7015C23.1016 45.9846 24.1417 47.0247 25.4247 47.0247Z" fill="url(#paint2_radial_938_25074)" stroke="#4B4C96" stroke-width="0.464625" mask="url(#path-3-inside-3_938_25074)"/>
</g>
</g>
</g>
</g>
<defs>
<radialGradient id="paint0_radial_938_25074" cx="0" cy="0" r="1" gradientUnits="userSpaceOnUse" gradientTransform="translate(81.9406 31.0434) rotate(90) scale(54.0927 73.75)">
<stop stop-color="#FCFAFF"/>
<stop offset="1" stop-color="#E0C2FF"/>
</radialGradient>
<radialGradient id="paint1_radial_938_25074" cx="0" cy="0" r="1" gradientUnits="userSpaceOnUse" gradientTransform="translate(28.2158 33.4062) scale(17.4475)">
<stop stop-color="#AFBAF7"/>
<stop offset="0.3111" stop-color="#6D96CE"/>
<stop offset="0.8032" stop-color="#285FCC"/>
</radialGradient>
<radialGradient id="paint2_radial_938_25074" cx="0" cy="0" r="1" gradientUnits="userSpaceOnUse" gradientTransform="translate(25.4263 44.7075) rotate(-15.5149) scale(2.88326)">
<stop stop-color="#B0B7DC"/>
<stop offset="0.3" stop-color="#B697C6"/>
<stop offset="0.8032" stop-color="#525281"/>
</radialGradient>
</defs>
</svg>
