<svg width="113" height="93" viewBox="0 0 113 93" fill="none" xmlns="http://www.w3.org/2000/svg">
<g id="R-ICO-012439">
<g id="Cylinders">
<g id="Group">
<path id="Vector" d="M39.8542 60.5372C39.7342 65.1591 55.782 72.434 56.1972 72.6551C56.1972 72.6551 83.4784 67.1158 86.1916 62.6184C86.5382 62.0439 86.7081 61.4723 86.7144 60.9104L86.7146 8.00781L39.8536 7.63711L39.8542 60.5372Z" fill="url(#paint0_linear_938_22824)"/>
</g>
<g id="Group_2">
<path id="Vector_2" d="M56.1969 72.6551C56.1969 72.6551 31.3628 79.4974 18.6425 78.6667C7.51231 77.9398 -0.0900936 74.542 0.000806381 70.6911V17.8956L56.1969 19.8233V72.6551Z" fill="url(#paint1_linear_938_22824)"/>
</g>
<g id="Group_3">
<path id="Vector_3" d="M56.2121 72.6306C56.2121 72.6306 71.1516 82.0703 83.8719 82.901C96.5922 83.7317 109.103 80.7593 111.817 76.2619C112.205 75.6174 112.372 74.9765 112.334 74.349V21.6665L56.1973 19.8233V72.6551" fill="url(#paint2_linear_938_22824)"/>
</g>
<g id="Group_4">
<path id="Vector_4" d="M25.6253 84.3643C25.5742 88.203 33.166 91.5852 44.2676 92.3102C56.9879 93.1409 69.4992 90.1685 72.2123 85.6711C72.3963 85.3661 72.4814 85.0425 72.4803 84.7043V31.9085L25.6251 31.5196L25.6253 84.3643Z" fill="url(#paint3_linear_938_22824)"/>
</g>
</g>
<g id="Tops">
<g id="Group_5">
<path id="Vector_5" d="M56.1969 19.8233C56.1969 19.8233 31.3628 26.6656 18.6425 25.8349C5.92222 25.0042 -2.19018 20.6849 0.522917 16.1875C3.23602 11.6901 15.7473 8.71771 28.4676 9.54841C41.188 10.3791 56.1969 19.8233 56.1969 19.8233Z" fill="url(#paint4_linear_938_22824)"/>
<path id="Vector_6" d="M32.997 18.2736C31.8847 20.1173 26.7557 21.3359 21.541 20.9953C16.3263 20.6547 13.0006 18.8841 14.1128 17.0403C15.2251 15.1966 20.3541 13.978 25.5688 14.3186C30.7835 14.6592 34.1092 16.4299 32.997 18.2736Z" fill="url(#paint5_radial_938_22824)"/>
</g>
<g id="Group_6">
<path id="Vector_7" d="M111.816 23.43C109.103 27.9274 96.592 30.8998 83.8717 30.0691C71.1514 29.2384 56.2119 19.7987 56.2119 19.7987C56.2119 19.7987 80.9765 12.9519 93.6969 13.7826C106.417 14.6133 114.53 18.9326 111.816 23.43Z" fill="url(#paint6_linear_938_22824)"/>
<path id="Vector_8" d="M98.2264 22.5425C97.1142 24.3862 91.9851 25.6048 86.7704 25.2642C81.5557 24.9236 78.23 23.153 79.3423 21.3092C80.4546 19.4655 85.5836 18.2469 90.7983 18.5875C96.013 18.9281 99.3386 20.6988 98.2264 22.5425Z" fill="url(#paint7_radial_938_22824)"/>
</g>
<g id="Group_7">
<path id="Vector_9" d="M72.2122 32.8392C69.4991 37.3366 56.9878 40.309 44.2675 39.4783C31.5472 38.6476 23.4348 34.3283 26.1479 29.8309C28.861 25.3335 56.1423 19.7942 56.1423 19.7942C56.1423 19.7942 74.9254 28.3418 72.2122 32.8392Z" fill="url(#paint8_linear_938_22824)"/>
<path id="Vector_10" d="M58.622 31.9517C57.5097 33.7954 52.3807 35.014 47.166 34.6734C41.9513 34.3328 38.6256 32.5622 39.7378 30.7184C40.8501 28.8747 45.9791 27.6561 51.1938 27.9967C56.4085 28.3373 59.7343 30.108 58.622 31.9517Z" fill="url(#paint9_radial_938_22824)"/>
</g>
<g id="Group_8">
<path id="Vector_11" d="M68.072 0.139206C80.7923 0.969906 88.9047 5.28921 86.1916 9.78661C83.4785 14.284 56.1972 19.8233 56.1972 19.8233C55.753 19.5868 37.4141 11.2757 40.1272 6.77831C42.8404 2.28101 55.3517 -0.691494 68.072 0.139206Z" fill="url(#paint10_linear_938_22824)"/>
<path id="Vector_12" d="M72.6015 8.8991C71.4892 10.7428 66.3602 11.9614 61.1455 11.6208C55.9308 11.2802 52.6051 9.5096 53.7173 7.6659C54.8295 5.8222 59.9586 4.6036 65.1733 4.9442C70.388 5.2847 73.7137 7.0554 72.6015 8.8991Z" fill="url(#paint11_radial_938_22824)"/>
</g>
</g>
</g>
<defs>
<linearGradient id="paint0_linear_938_22824" x1="86.7145" y1="40.146" x2="39.8536" y2="40.146" gradientUnits="userSpaceOnUse">
<stop offset="0.0689" stop-color="#7D611D"/>
<stop offset="0.5389" stop-color="#CC9F2F"/>
<stop offset="0.8161" stop-color="#FFD776"/>
<stop offset="0.8553" stop-color="#FAD16F"/>
<stop offset="0.9129" stop-color="#EBC25B"/>
<stop offset="0.9817" stop-color="#D4A93B"/>
<stop offset="1" stop-color="#CDA131"/>
</linearGradient>
<linearGradient id="paint1_linear_938_22824" x1="56.1969" y1="48.3161" x2="6.69919e-06" y2="48.3161" gradientUnits="userSpaceOnUse">
<stop offset="0.0689" stop-color="#7D611D"/>
<stop offset="0.5389" stop-color="#CC9F2F"/>
<stop offset="0.8161" stop-color="#FFD776"/>
<stop offset="0.8553" stop-color="#FAD16F"/>
<stop offset="0.9129" stop-color="#EBC25B"/>
<stop offset="0.9817" stop-color="#D4A93B"/>
<stop offset="1" stop-color="#CDA131"/>
</linearGradient>
<linearGradient id="paint2_linear_938_22824" x1="112.34" y1="51.4317" x2="56.1973" y2="51.4317" gradientUnits="userSpaceOnUse">
<stop offset="0.0689" stop-color="#7D611D"/>
<stop offset="0.5389" stop-color="#CC9F2F"/>
<stop offset="0.8161" stop-color="#FFD776"/>
<stop offset="0.8553" stop-color="#FAD16F"/>
<stop offset="0.9129" stop-color="#EBC25B"/>
<stop offset="0.9817" stop-color="#D4A93B"/>
<stop offset="1" stop-color="#CDA131"/>
</linearGradient>
<linearGradient id="paint3_linear_938_22824" x1="72.4804" y1="61.9844" x2="25.6251" y2="61.9844" gradientUnits="userSpaceOnUse">
<stop offset="0.0689" stop-color="#7D611D"/>
<stop offset="0.5389" stop-color="#CC9F2F"/>
<stop offset="0.8161" stop-color="#FFD776"/>
<stop offset="0.8553" stop-color="#FAD16F"/>
<stop offset="0.9129" stop-color="#EBC25B"/>
<stop offset="0.9817" stop-color="#D4A93B"/>
<stop offset="1" stop-color="#CDA131"/>
</linearGradient>
<linearGradient id="paint4_linear_938_22824" x1="18.1942" y1="13.2545" x2="76.1058" y2="51.9852" gradientUnits="userSpaceOnUse">
<stop offset="0.2581" stop-color="#CDA131"/>
<stop offset="0.4042" stop-color="#C79D30"/>
<stop offset="0.59" stop-color="#B8902C"/>
<stop offset="0.7961" stop-color="#9E7B25"/>
<stop offset="1" stop-color="#7D611D"/>
</linearGradient>
<radialGradient id="paint5_radial_938_22824" cx="0" cy="0" r="1" gradientUnits="userSpaceOnUse" gradientTransform="translate(24.1363 25.9497) scale(25.8083 16.7651)">
<stop offset="0.3" stop-color="#7D611D"/>
<stop offset="0.7" stop-color="#FFD776"/>
</radialGradient>
<linearGradient id="paint6_linear_938_22824" x1="35.6222" y1="-12.7976" x2="93.5337" y2="25.933" gradientUnits="userSpaceOnUse">
<stop offset="0.2581" stop-color="#CDA131"/>
<stop offset="0.4042" stop-color="#C79D30"/>
<stop offset="0.59" stop-color="#B8902C"/>
<stop offset="0.7961" stop-color="#9E7B25"/>
<stop offset="1" stop-color="#7D611D"/>
</linearGradient>
<radialGradient id="paint7_radial_938_22824" cx="0" cy="0" r="1" gradientUnits="userSpaceOnUse" gradientTransform="translate(89.3657 30.2187) scale(25.8083 16.7651)">
<stop offset="0.3" stop-color="#7D611D"/>
<stop offset="0.7" stop-color="#FFD776"/>
</radialGradient>
<linearGradient id="paint8_linear_938_22824" x1="17.8816" y1="10.6729" x2="75.7328" y2="49.3632" gradientUnits="userSpaceOnUse">
<stop offset="0.2581" stop-color="#CDA131"/>
<stop offset="0.4042" stop-color="#C79D30"/>
<stop offset="0.59" stop-color="#B8902C"/>
<stop offset="0.7961" stop-color="#9E7B25"/>
<stop offset="1" stop-color="#7D611D"/>
</linearGradient>
<radialGradient id="paint9_radial_938_22824" cx="0" cy="0" r="1" gradientUnits="userSpaceOnUse" gradientTransform="translate(49.7614 39.6281) scale(25.8083 16.7651)">
<stop offset="0.3" stop-color="#7D611D"/>
<stop offset="0.7" stop-color="#FFD776"/>
</radialGradient>
<linearGradient id="paint10_linear_938_22824" x1="35.9817" y1="-10.1539" x2="93.8329" y2="28.5364" gradientUnits="userSpaceOnUse">
<stop offset="0.2581" stop-color="#CDA131"/>
<stop offset="0.4042" stop-color="#C79D30"/>
<stop offset="0.59" stop-color="#B8902C"/>
<stop offset="0.7961" stop-color="#9E7B25"/>
<stop offset="1" stop-color="#7D611D"/>
</linearGradient>
<radialGradient id="paint11_radial_938_22824" cx="0" cy="0" r="1" gradientUnits="userSpaceOnUse" gradientTransform="translate(63.7408 16.5748) scale(25.8083 16.7651)">
<stop offset="0.3" stop-color="#7D611D"/>
<stop offset="0.7" stop-color="#FFD776"/>
</radialGradient>
</defs>
</svg>
