<svg width="48" height="23" viewBox="0 0 48 23" fill="none" xmlns="http://www.w3.org/2000/svg">
<g id="R-ICO-013707">
<g id="CFL1">
<path d="M1.14362 11.4446C1.14362 5.92173 5.62077 1.44458 11.1436 1.44458H36.1436C41.6665 1.44458 46.1436 5.92173 46.1436 11.4446C46.1436 16.9674 41.6665 21.4446 36.1436 21.4446H11.1436C5.62077 21.4446 1.14362 16.9674 1.14362 11.4446Z" fill="url(#paint0_linear_938_23778)"/>
<path d="M38.8277 3.3689C37.9693 3.06938 37.0634 2.9071 36.1436 2.8874C27.8103 2.73216 19.477 2.367 11.1436 1.58459C11.1436 1.49122 11.1436 1.39786 11.1436 1.30449C19.477 0.52208 27.8103 0.15692 36.1436 0.0016768C37.3659 -0.0188116 38.5965 0.159934 39.7688 0.535725C44.3897 1.97277 47.6621 6.68617 47.4937 11.4446C47.4824 12.0512 47.4233 12.6559 47.3164 13.2514C46.469 18.5934 41.2572 22.6017 36.1441 22.2104C36.1439 22.2104 36.1438 22.2104 36.1436 22.2104C31.4423 21.9667 26.7406 21.7912 22.0394 21.8976C18.4076 21.9771 14.7755 22.239 11.1436 22.4464C9.96758 22.508 8.77054 22.3764 7.62134 22.0421C3.09114 20.7612 -0.199973 16.1177 0.00948441 11.4446C0.0250603 10.8495 0.0887512 10.2571 0.200057 9.675C1.09527 4.44926 6.31925 0.667819 11.1436 1.30449C11.1436 1.39786 11.1436 1.49122 11.1436 1.58459C6.45518 2.03907 2.79628 5.83248 2.34097 10.0188C2.28282 10.4918 2.26205 10.9684 2.27766 11.4446C2.36438 15.1702 4.89507 18.5599 8.35579 19.8313C9.23755 20.1725 10.1773 20.3819 11.1436 20.4427C14.7755 20.6497 18.4076 20.9108 22.0394 20.9903C26.7407 21.0966 31.4423 20.9225 36.1436 20.6788C36.1437 20.6788 36.1439 20.6788 36.144 20.6788C40.5434 20.469 44.2132 16.9033 44.7169 12.8339C44.7796 12.3741 44.8049 11.9096 44.7936 11.4446C44.7479 7.80399 42.1978 4.48405 38.8277 3.3689Z" fill="#D6AE03"/>
<text id="CFL1_2" fill="white" xml:space="preserve" style="white-space: pre" font-family="Arial" font-size="12" font-weight="bold" letter-spacing="0em"><tspan x="8.6319" y="15.6047">CFL1</tspan></text>
</g>
</g>
<defs>
<linearGradient id="paint0_linear_938_23778" x1="23.6436" y1="1.44458" x2="23.6436" y2="21.4446" gradientUnits="userSpaceOnUse">
<stop stop-color="#D6AE03"/>
<stop offset="1" stop-color="#0403FB"/>
</linearGradient>
</defs>
</svg>
