<svg width="76" height="23" viewBox="0 0 76 23" fill="none" xmlns="http://www.w3.org/2000/svg">
<g id="R-ICO-013677">
<g id="MAP2K3,6">
<path d="M0.943359 11.5C0.943359 5.97715 5.42051 1.5 10.9434 1.5H63.9434C69.4662 1.5 73.9434 5.97715 73.9434 11.5C73.9434 17.0228 69.4662 21.5 63.9434 21.5H10.9434C5.42051 21.5 0.943359 17.0228 0.943359 11.5Z" fill="url(#paint0_linear_938_23763)"/>
<path d="M53.1516 2.99266C39.0822 2.87443 25.0128 2.52283 10.9434 1.64001C10.9434 1.54664 10.9434 1.45328 10.9434 1.35991C25.0128 0.477089 39.0822 0.125486 53.1516 0.00726104C56.7488 -0.0120553 60.3461 0.00915325 63.9434 0.0474378C67.8964 0.046728 71.7155 2.30338 73.6531 5.68459C74.6862 7.43958 75.2147 9.48232 75.1748 11.5C75.2112 17.5034 69.6703 22.6267 63.944 22.2659C63.9438 22.2659 63.9436 22.2658 63.9434 22.2658C56.9088 22.0221 49.8736 21.8466 42.8392 21.953C35.8045 22.056 28.7692 22.4645 21.7345 22.6648C18.1374 22.7481 14.5404 22.7655 10.9434 22.7421C7.06182 22.758 3.30481 20.5248 1.43318 17.1965C0.437549 15.4673 -0.057024 13.466 0.00556165 11.5C0.0352718 5.64273 5.54915 0.814456 10.9434 1.35991C10.9434 1.45328 10.9434 1.54664 10.9434 1.64001C5.68461 1.92633 1.59221 6.70385 1.88101 11.5C1.93683 13.1353 2.43069 14.7262 3.29239 16.0807C4.92654 18.6907 7.92153 20.308 10.9434 20.258C14.5404 20.2345 18.1374 20.252 21.7345 20.3353C28.7692 20.5356 35.8045 20.9428 42.8392 21.0457C49.8737 21.1521 56.9087 20.978 63.9434 20.7342C63.9435 20.7342 63.9437 20.7342 63.9439 20.7342C68.8705 20.6316 72.9345 16.1494 72.712 11.5C72.6788 9.91687 72.2192 8.36779 71.3954 7.03931C69.8275 4.48172 66.8941 2.88728 63.9434 2.95258C60.3461 2.9909 56.7488 3.01211 53.1516 2.99266Z" fill="#2764E0"/>
<text id="MAP2K3,6_2" fill="white" xml:space="preserve" style="white-space: pre" font-family="Arial" font-size="12" font-weight="bold" letter-spacing="0em"><tspan x="8.08203" y="15.6602">MAP2K3,6</tspan></text>
</g>
</g>
<defs>
<linearGradient id="paint0_linear_938_23763" x1="37.4434" y1="1.5" x2="37.4434" y2="21.5" gradientUnits="userSpaceOnUse">
<stop stop-color="#2764E0"/>
<stop offset="1" stop-color="#48FFB9"/>
</linearGradient>
</defs>
</svg>
