<svg width="24" height="158" viewBox="0 0 24 158" fill="none" xmlns="http://www.w3.org/2000/svg">
<g id="R-ICO-012678">
<path id="Vector" d="M23.9083 4.58841C23.9083 -8.11949 20.6928 9.66791 11.9541 9.66791C3.2154 9.66791 0 -8.11949 0 4.55961C0 9.34141 2.9176 13.4461 7.116 15.2645C8.2229 15.7439 8.9658 16.7819 8.9658 17.9656V154.09C8.9658 155.616 10.1072 156.979 11.6611 157.123C13.4436 157.289 14.9429 155.924 14.9429 154.215V17.9654C14.9429 16.7816 15.686 15.7437 16.7929 15.2642C20.9826 13.4493 23.9083 9.35761 23.9083 4.58841Z" fill="url(#paint0_linear_938_23019)"/>
<path id="Vector_2" d="M8.9658 17.9655C8.9658 16.7818 8.2229 15.7438 7.116 15.2644C2.9176 13.446 0 9.34135 0 4.55955C0 -8.11945 3.2155 9.66795 11.9541 9.66795C20.6927 9.66795 23.9083 -8.11955 23.9083 4.58835C23.9083 9.35755 20.9826 13.4492 16.793 15.2641C15.6861 15.7436 14.943 16.7816 14.943 17.9653V19.6944H8.9658V17.9655Z" fill="url(#paint1_linear_938_23019)"/>
<path id="Vector_3" d="M17.8254 31.5284H6.08238C4.38058 31.5284 2.98828 30.136 2.98828 28.4343V25.8565C2.98828 24.1547 4.38068 22.7624 6.08238 22.7624H17.8254C19.5272 22.7624 20.9195 24.1548 20.9195 25.8565V28.4343C20.9195 30.1361 19.5272 31.5284 17.8254 31.5284Z" fill="url(#paint2_linear_938_23019)"/>
<path id="Vector_4" d="M17.8254 43.2442H6.08238C4.38058 43.2442 2.98828 41.8518 2.98828 40.1501V37.5723C2.98828 35.8705 4.38068 34.4782 6.08238 34.4782H17.8254C19.5272 34.4782 20.9195 35.8706 20.9195 37.5723V40.1501C20.9195 41.8519 19.5272 43.2442 17.8254 43.2442Z" fill="url(#paint3_linear_938_23019)"/>
</g>
<defs>
<linearGradient id="paint0_linear_938_23019" x1="8.9674" y1="78.5685" x2="15.1581" y2="78.5685" gradientUnits="userSpaceOnUse">
<stop stop-color="#22002A"/>
<stop offset="0.3833" stop-color="#0FB0AD"/>
<stop offset="1" stop-color="#22002A"/>
</linearGradient>
<linearGradient id="paint1_linear_938_23019" x1="0.8174" y1="9.74915" x2="23.0134" y2="9.90015" gradientUnits="userSpaceOnUse">
<stop stop-color="#22002A"/>
<stop offset="0.3833" stop-color="#0FB0AD"/>
<stop offset="1" stop-color="#22002A"/>
</linearGradient>
<linearGradient id="paint2_linear_938_23019" x1="11.9539" y1="31.5284" x2="11.9539" y2="22.7623" gradientUnits="userSpaceOnUse">
<stop stop-color="#22002A"/>
<stop offset="0.9995" stop-color="#0FB0AD"/>
</linearGradient>
<linearGradient id="paint3_linear_938_23019" x1="11.9539" y1="43.2442" x2="11.9539" y2="34.4782" gradientUnits="userSpaceOnUse">
<stop stop-color="#22002A"/>
<stop offset="0.9995" stop-color="#0FB0AD"/>
</linearGradient>
</defs>
</svg>
