<svg width="24" height="112" viewBox="0 0 24 112" fill="none" xmlns="http://www.w3.org/2000/svg">
<g id="R-ICO-013735">
<path id="BG" d="M19.9364 34.4831C19.9364 31.0679 17.8792 28.1365 14.9382 26.8507V22.7219C19.7234 21.2894 23.2129 16.8578 23.2129 11.6064C23.2129 5.1964 18.0165 0 11.6065 0C5.1965 0 0 5.1964 0 11.6065C0 16.8577 3.4894 21.2893 8.2744 22.7219V26.8509C5.3336 28.1368 3.2765 31.0681 3.2765 34.4831C3.2765 37.8981 5.3336 40.8294 8.2744 42.1153V45.7787C7.3468 46.1835 6.4752 46.7579 5.7163 47.5169C4.0898 49.1434 3.2765 54.7892 3.2765 56.921C3.2765 59.0528 4.0897 64.6986 5.7163 66.3251C6.4752 67.084 7.3468 67.6585 8.2744 68.0633V71.7267C5.3336 73.0126 3.2765 75.9439 3.2765 79.3589C3.2765 82.7739 5.3336 85.7052 8.2744 86.9911V108.212C8.2744 110.052 9.7663 111.544 11.6063 111.544C13.4463 111.544 14.9382 110.052 14.9382 108.212V86.9912C17.8792 85.7054 19.9364 82.774 19.9364 79.3589C19.9364 75.9438 17.8792 73.0124 14.9382 71.7266V68.0635C15.866 67.6587 16.7376 67.0842 17.4966 66.3252C19.1231 64.6987 19.9364 59.0529 19.9364 56.9211C19.9364 54.7893 19.1232 49.1435 17.4966 47.517C16.7376 46.758 15.8659 46.1835 14.9382 45.7787V42.1156C17.8792 40.8296 19.9364 37.8982 19.9364 34.4831Z" fill="url(#paint0_linear_938_24397)"/>
<path id="vWc" d="M11.6064 87.6888C16.2069 87.6888 19.9364 83.9593 19.9364 79.3588C19.9364 74.7583 16.2069 71.0288 11.6064 71.0288C7.00584 71.0288 3.27637 74.7583 3.27637 79.3588C3.27637 83.9593 7.00584 87.6888 11.6064 87.6888Z" fill="url(#paint1_radial_938_24397)"/>
<path id="EGF-like" d="M17.4966 66.3252C19.1231 64.6987 19.9364 59.0529 19.9364 56.9211C19.9364 54.7893 19.1231 49.1435 17.4966 47.517C14.2435 44.2639 8.96927 44.2639 5.71617 47.517C4.08967 49.1435 3.27637 54.7893 3.27637 56.9211C3.27637 59.0529 4.08967 64.6987 5.71617 66.3252C8.96927 69.5782 14.2435 69.5782 17.4966 66.3252Z" fill="url(#paint2_radial_938_24397)"/>
<path id="vWc_2" d="M11.6064 42.8131C16.2069 42.8131 19.9364 39.0836 19.9364 34.4831C19.9364 29.8825 16.2069 26.1531 11.6064 26.1531C7.00584 26.1531 3.27637 29.8825 3.27637 34.4831C3.27637 39.0836 7.00584 42.8131 11.6064 42.8131Z" fill="url(#paint3_radial_938_24397)"/>
<path id="NTSP1" d="M11.6065 23.213C18.0166 23.213 23.213 18.0166 23.213 11.6065C23.213 5.19641 18.0166 0 11.6065 0C5.19641 0 0 5.19641 0 11.6065C0 18.0166 5.19641 23.213 11.6065 23.213Z" fill="url(#paint4_radial_938_24397)"/>
</g>
<defs>
<linearGradient id="paint0_linear_938_24397" x1="11.6065" y1="0" x2="11.6065" y2="111.544" gradientUnits="userSpaceOnUse">
<stop offset="0.8" stop-color="#11635A"/>
<stop offset="0.9" stop-color="#22C664"/>
<stop offset="1" stop-color="#11635A"/>
</linearGradient>
<radialGradient id="paint1_radial_938_24397" cx="0" cy="0" r="1" gradientUnits="userSpaceOnUse" gradientTransform="translate(11.6064 79.3588) scale(8.33 8.33)">
<stop stop-color="#22C664"/>
<stop offset="1" stop-color="#11635A"/>
</radialGradient>
<radialGradient id="paint2_radial_938_24397" cx="0" cy="0" r="1" gradientUnits="userSpaceOnUse" gradientTransform="translate(11.6064 56.9236) scale(8.456 11.6904)">
<stop stop-color="#22C664"/>
<stop offset="1" stop-color="#11635A"/>
</radialGradient>
<radialGradient id="paint3_radial_938_24397" cx="0" cy="0" r="1" gradientUnits="userSpaceOnUse" gradientTransform="translate(11.6064 34.4831) scale(8.33)">
<stop stop-color="#22C664"/>
<stop offset="1" stop-color="#11635A"/>
</radialGradient>
<radialGradient id="paint4_radial_938_24397" cx="0" cy="0" r="1" gradientUnits="userSpaceOnUse" gradientTransform="translate(11.6065 11.6065) scale(11.6065)">
<stop stop-color="#22C664"/>
<stop offset="1" stop-color="#11635A"/>
</radialGradient>
</defs>
</svg>
