<svg width="19" height="31" viewBox="0 0 19 31" fill="none" xmlns="http://www.w3.org/2000/svg">
<g id="R-ICO-013768">
<path id="R-ICO-013768_2" d="M3.50102 30C2.80082 30 2.10062 29.7074 1.59902 29.1223C0.732117 28.1112 0.899617 26.5663 1.84142 25.6245L5.25882 22.2071C5.64932 21.8166 5.64932 21.1834 5.25882 20.7929L1.73352 17.2676C0.757317 16.2914 0.757317 14.7087 1.73352 13.7324L5.25882 10.2071C5.64932 9.8166 5.64932 9.1834 5.25882 8.7929L1.82412 5.3583C1.24942 4.7836 0.909517 3.979 1.02112 3.1739C1.19882 1.892 2.27762 1 3.50102 1H15.3588C16.6665 1 17.858 1.9411 17.9881 3.2424C18.1377 4.7389 16.9668 6 15.501 6H11.019C10.4718 6 10.1977 6.6616 10.5847 7.0485L11.2686 7.7324C12.2448 8.7086 12.2448 10.2913 11.2686 11.2676L7.74332 14.7929C7.35282 15.1834 7.35282 15.8166 7.74332 16.2071L11.2686 19.7324C12.2448 20.7086 12.2448 22.2914 11.2686 23.2676L5.26862 29.2676C4.78032 29.7559 4.14072 30 3.50102 30Z" fill="url(#paint0_linear_938_24935)" stroke="#AB5E00" stroke-width="2" stroke-miterlimit="10" stroke-linecap="round" stroke-linejoin="round"/>
</g>
<defs>
<linearGradient id="paint0_linear_938_24935" x1="9.50052" y1="30" x2="9.50052" y2="1" gradientUnits="userSpaceOnUse">
<stop offset="0.0002" stop-color="#FFD495"/>
<stop offset="1" stop-color="#D35000"/>
</linearGradient>
</defs>
</svg>
