<svg width="74" height="23" viewBox="0 0 74 23" fill="none" xmlns="http://www.w3.org/2000/svg">
<g id="R-ICO-013202">
<g id="POGLUT1">
<path d="M0.955078 11.5C0.955078 5.97715 5.43223 1.5 10.9551 1.5H61.9551C67.4779 1.5 71.9551 5.97715 71.9551 11.5C71.9551 17.0228 67.4779 21.5 61.9551 21.5H10.9551C5.43223 21.5 0.955078 17.0228 0.955078 11.5Z" fill="url(#paint0_linear_938_23516)"/>
<path d="M52.1634 2.99266C38.4272 2.87443 24.6912 2.52283 10.9551 1.64001C10.9551 1.54664 10.9551 1.45328 10.9551 1.35991C24.6912 0.477089 38.4272 0.125486 52.1634 0.00726104C55.4272 -0.0106907 58.6911 0.00635898 61.9551 0.0395879C66.1074 0.0332921 70.0947 2.52922 71.9437 6.17695C72.7993 7.81486 73.2292 9.66832 73.1939 11.5C73.2311 17.508 67.6819 22.6323 61.9557 22.2659C61.9555 22.2659 61.9553 22.2658 61.9551 22.2658C55.0872 22.0221 48.2187 21.8466 41.3509 21.953C34.4829 22.056 27.6142 22.4645 20.7462 22.6648C17.4825 22.7422 14.2188 22.7628 10.9551 22.7464C6.87893 22.7729 2.95345 20.3036 1.17166 16.7142C0.349368 15.1013 -0.0508084 13.2856 0.00507867 11.5C0.0339405 5.63561 5.56046 0.804255 10.9551 1.35991C10.9551 1.45328 10.9551 1.54664 10.9551 1.64001C5.69674 1.93653 1.61697 6.71099 1.90493 11.5C1.9561 12.9818 2.365 14.4273 3.08439 15.6929C4.65928 18.5129 7.78699 20.3038 10.9551 20.2537C14.2188 20.2373 17.4825 20.2579 20.7462 20.3353C27.6143 20.5356 34.4829 20.9428 41.3509 21.0457C48.2188 21.1521 55.0871 20.978 61.9551 20.7342C61.9553 20.7342 61.9554 20.7342 61.9556 20.7342C66.8823 20.626 70.9381 16.1448 70.7163 11.5C70.6858 10.0647 70.3069 8.65738 69.6211 7.41697C68.1138 4.65494 65.0474 2.89008 61.9551 2.96044C58.6911 2.9937 55.4272 3.01074 52.1634 2.99266Z" fill="#5621D6"/>
<text id="POGLUT1_2" fill="white" xml:space="preserve" style="white-space: pre" font-family="Arial" font-size="12" font-weight="bold" letter-spacing="0em"><tspan x="8.10156" y="15.6602">POGLUT1</tspan></text>
</g>
</g>
<defs>
<linearGradient id="paint0_linear_938_23516" x1="36.4551" y1="1.5" x2="36.4551" y2="21.5" gradientUnits="userSpaceOnUse">
<stop stop-color="#5621D6"/>
<stop offset="1" stop-color="#A34D00"/>
</linearGradient>
</defs>
</svg>
