<svg width="113" height="24" viewBox="0 0 113 24" fill="none" xmlns="http://www.w3.org/2000/svg">
<g id="R-ICO-014423">
<g id="TANDUTINIB">
<g id="LEFT_ELEMENT">
<mask id="mask0_938_22924" style="mask-type:luminance" maskUnits="userSpaceOnUse" x="0" y="0" width="8" height="24">
<rect id="MASK" width="8" height="24" transform="matrix(-1 0 0 1 8 0)" fill="white"/>
</mask>
<g mask="url(#mask0_938_22924)">
<g id="LEFT_CORNER">
<mask id="path-2-outside-1_938_22924" maskUnits="userSpaceOnUse" x="0" y="-1" width="10" height="26" fill="black">
<rect fill="white" y="-1" width="10" height="26"/>
<path d="M2 12C2 12 6.04738 5.90524 8 2V22C6.04738 18.0948 2 12 2 12Z"/>
</mask>
<path d="M2 12C2 12 6.04738 5.90524 8 2V22C6.04738 18.0948 2 12 2 12Z" fill="url(#paint0_linear_938_22924)"/>
<path d="M2 12C2 12 6.04738 5.90524 8 2V22C6.04738 18.0948 2 12 2 12Z" stroke="#946BE6" stroke-width="4" stroke-miterlimit="3.99933" stroke-linejoin="round" mask="url(#path-2-outside-1_938_22924)"/>
</g>
</g>
</g>
<g id="CENTRE shape">
<mask id="path-3-outside-2_938_22924" maskUnits="userSpaceOnUse" x="8" y="0" width="73" height="24" fill="black">
<rect fill="white" x="8" width="73" height="24"/>
<path d="M8 2H81V22H8V2Z"/>
</mask>
<path d="M8 2H81V22H8V2Z" fill="url(#paint1_linear_938_22924)"/>
<path d="M8 2V4H81V2V0H8V2ZM81 22V20H8V22V24H81V22Z" fill="#946BE6" mask="url(#path-3-outside-2_938_22924)"/>
<text id="Chemical" fill="white" xml:space="preserve" style="white-space: pre" font-family="Arial" font-size="12" font-weight="bold" letter-spacing="0em"><tspan x="8.25391" y="16.1602">TANDUTINIB</tspan></text>
</g>
<g id="RIGHT_ELEMENT">
<mask id="mask1_938_22924" style="mask-type:luminance" maskUnits="userSpaceOnUse" x="81" y="0" width="32" height="24">
<path id="MASK_2" d="M81 24L113 24L113 -8.90181e-07L81 1.90735e-06L81 24Z" fill="white"/>
</mask>
<g mask="url(#mask1_938_22924)">
<g id="Mask group">
<g id="ELEMENT">
<g id="BG">
<mask id="path-7-outside-3_938_22924" maskUnits="userSpaceOnUse" x="79" y="-1.74846e-07" width="34" height="24" fill="black">
<rect fill="white" x="79" y="-1.74846e-07" width="34" height="24"/>
<path d="M111 12C111 12 106.953 18.0948 105 22L81 21.9999L81 2L105 2C106.953 5.90524 111 12 111 12Z"/>
</mask>
<path d="M111 12C111 12 106.953 18.0948 105 22L81 21.9999L81 2L105 2C106.953 5.90524 111 12 111 12Z" fill="#946BE6"/>
<path d="M111 12C111 12 106.953 18.0948 105 22L81 21.9999L81 2L105 2C106.953 5.90524 111 12 111 12Z" stroke="#946BE6" stroke-width="4" stroke-miterlimit="3.99933" stroke-linejoin="round" mask="url(#path-7-outside-3_938_22924)"/>
</g>
<g id="RX">
<path id="Vector" d="M90 22V14H93.3071C94.1387 14 94.743 14.0718 95.1199 14.2155C95.4968 14.3592 95.7984 14.6148 96.0249 14.9822C96.2514 15.3496 96.3647 15.7698 96.3647 16.2428C96.3647 16.843 96.193 17.3388 95.8497 17.7298C95.5064 18.1209 94.9933 18.3675 94.3103 18.4693C94.6501 18.6731 94.9305 18.8968 95.1517 19.1405C95.3728 19.3842 95.671 19.8172 96.0461 20.4393L96.9963 22H95.1172L93.9812 20.2592C93.5778 19.6371 93.3017 19.2451 93.1531 19.0832C93.0044 18.9214 92.847 18.8104 92.6807 18.7504C92.5144 18.6904 92.2507 18.6603 91.8898 18.6603H91.5713V22H90ZM91.5713 17.3834H92.7338C93.4875 17.3834 93.9583 17.3506 94.1458 17.2851C94.3333 17.2196 94.4802 17.1068 94.5864 16.9468C94.6925 16.7867 94.7456 16.5866 94.7456 16.3465C94.7456 16.0773 94.6758 15.8599 94.536 15.6944C94.3962 15.5289 94.1989 15.4243 93.9441 15.3806C93.8167 15.3625 93.4345 15.3533 92.7975 15.3533H91.5713V17.3834Z" fill="white"/>
<path id="Vector_2" d="M96.9961 21.9999L99.0291 19.0149L97.0811 16.2046H98.9018L99.8998 17.798L100.951 16.2046H102.703L100.792 18.9495L102.878 22H101.046L99.8998 20.2047L98.7426 21.9999H96.9961Z" fill="white"/>
</g>
</g>
<g id="RIGHT_ELEMENT_2">
<mask id="mask2_938_22924" style="mask-type:alpha" maskUnits="userSpaceOnUse" x="81" y="0" width="8" height="24">
<rect id="MASK_3" x="81" width="8" height="24" fill="white"/>
</mask>
<g mask="url(#mask2_938_22924)">
<g id="LEFT_CORNER_2">
<mask id="path-11-outside-4_938_22924" maskUnits="userSpaceOnUse" x="79" y="-1" width="10" height="26" fill="black">
<rect fill="white" x="79" y="-1" width="10" height="26"/>
<path d="M87 12C87 12 82.9526 5.90524 81 2V22C82.9526 18.0948 87 12 87 12Z"/>
</mask>
<path d="M87 12C87 12 82.9526 5.90524 81 2V22C82.9526 18.0948 87 12 87 12Z" fill="url(#paint2_linear_938_22924)"/>
<path d="M87 12C87 12 82.9526 5.90524 81 2V22C82.9526 18.0948 87 12 87 12Z" stroke="#946BE6" stroke-width="4" stroke-miterlimit="3.99933" stroke-linejoin="round" mask="url(#path-11-outside-4_938_22924)"/>
</g>
</g>
</g>
</g>
</g>
</g>
</g>
</g>
<defs>
<linearGradient id="paint0_linear_938_22924" x1="5" y1="2" x2="5" y2="22" gradientUnits="userSpaceOnUse">
<stop stop-color="#FF6200"/>
<stop offset="1" stop-color="#5DFDEA"/>
</linearGradient>
<linearGradient id="paint1_linear_938_22924" x1="44.5" y1="2" x2="44.5" y2="22" gradientUnits="userSpaceOnUse">
<stop stop-color="#FF6200"/>
<stop offset="1" stop-color="#5DFDEA"/>
</linearGradient>
<linearGradient id="paint2_linear_938_22924" x1="84" y1="2" x2="84" y2="22" gradientUnits="userSpaceOnUse">
<stop stop-color="#FF6200"/>
<stop offset="1" stop-color="#5DFDEA"/>
</linearGradient>
</defs>
</svg>
