<svg width="37" height="200" viewBox="0 0 37 200" fill="none" xmlns="http://www.w3.org/2000/svg">
<g id="R-ICO-013933">
<g id="R-ICO-013937" clip-path="url(#clip0_938_24400)">
<g id="Group">
<path id="Vector" d="M8.385 199.596C13.0159 199.596 16.77 195.842 16.77 191.211C16.77 186.58 13.0159 182.826 8.385 182.826C3.75409 182.826 0 186.58 0 191.211C0 195.842 3.75409 199.596 8.385 199.596Z" fill="url(#paint0_radial_938_24400)"/>
<path id="Vector_2" d="M28.386 199.596C33.0169 199.596 36.771 195.842 36.771 191.211C36.771 186.58 33.0169 182.826 28.386 182.826C23.7551 182.826 20.001 186.58 20.001 191.211C20.001 195.842 23.7551 199.596 28.386 199.596Z" fill="url(#paint1_radial_938_24400)"/>
</g>
<g id="Group_2">
<path id="Vector_3" d="M8.38477 188.707C6.31347 188.707 4.63477 187.028 4.63477 184.957V161.421C4.63477 159.35 6.31347 157.671 8.38477 157.671C10.4561 157.671 12.1348 159.35 12.1348 161.421V184.957C12.1348 187.028 10.4561 188.707 8.38477 188.707Z" fill="url(#paint2_linear_938_24400)"/>
<path id="Vector_4" d="M28.3857 188.707C26.3144 188.707 24.6357 187.028 24.6357 184.957V161.421C24.6357 159.35 26.3144 157.671 28.3857 157.671C30.457 157.671 32.1357 159.35 32.1357 161.421V184.957C32.1357 187.028 30.457 188.707 28.3857 188.707Z" fill="url(#paint3_linear_938_24400)"/>
</g>
<g id="Group_3">
<path id="Vector_5" d="M8.38477 163.553C4.24217 163.553 0.884766 163.195 0.884766 159.053V105.256C0.884766 101.113 4.24217 100.756 8.38477 100.756C12.5274 100.756 15.8848 101.113 15.8848 105.256V159.053C15.8848 163.195 12.5274 163.553 8.38477 163.553Z" fill="url(#paint4_linear_938_24400)"/>
<path id="Vector_6" d="M28.3857 163.553C24.2431 163.553 20.8857 163.195 20.8857 159.053V105.256C20.8857 101.113 24.2431 100.756 28.3857 100.756C32.5283 100.756 35.8857 101.113 35.8857 105.256V159.053C35.8857 163.195 32.5283 163.553 28.3857 163.553Z" fill="url(#paint5_linear_938_24400)"/>
<path id="Vector_7" d="M15.8848 156.392V159.052C15.8848 163.195 12.5274 163.552 8.38477 163.552C4.24217 163.552 0.884766 163.195 0.884766 159.052V156.392H15.8848Z" fill="url(#paint6_linear_938_24400)"/>
<path id="Vector_8" d="M35.8857 156.392V159.052C35.8857 163.195 32.5283 163.552 28.3857 163.552C24.2431 163.552 20.8857 163.195 20.8857 159.052V156.392H35.8857Z" fill="url(#paint7_linear_938_24400)"/>
<path id="Vector_9" d="M15.8848 107.916V105.256C15.8848 101.113 12.5274 100.756 8.38477 100.756C4.24217 100.756 0.884766 101.113 0.884766 105.256V107.916H15.8848Z" fill="url(#paint8_linear_938_24400)"/>
<path id="Vector_10" d="M35.8857 107.916V105.256C35.8857 101.113 32.5283 100.756 28.3857 100.756C24.2431 100.756 20.8857 101.113 20.8857 105.256V107.916H35.8857Z" fill="url(#paint9_linear_938_24400)"/>
</g>
</g>
<g id="R-ICO-013941" clip-path="url(#clip1_938_24400)">
<g id="Group_4">
<path id="Vector_11" d="M28.0609 8.44116C30.7354 8.44116 32.9032 10.6088 32.9032 13.2834V37.8631C32.9032 40.5376 30.7355 42.7053 28.0609 42.7053C25.3863 42.7053 23.2188 40.5377 23.2188 37.8631V13.2833C23.2187 10.6088 25.3863 8.44116 28.0609 8.44116Z" fill="url(#paint10_linear_938_24400)"/>
<path id="Vector_12" d="M8.69083 8.44116C11.3653 8.44116 13.533 10.6088 13.533 13.2834V37.8631C13.533 40.5376 11.3654 42.7053 8.69083 42.7053C6.01623 42.7053 3.84863 40.5377 3.84863 37.8631V13.2833C3.84863 10.6088 6.01633 8.44116 8.69083 8.44116Z" fill="url(#paint11_linear_938_24400)"/>
</g>
<g id="Group_5">
<path id="Vector_13" d="M28.0607 16.2406C32.5454 16.2406 36.181 12.605 36.181 8.1203C36.181 3.63558 32.5454 0 28.0607 0C23.576 0 19.9404 3.63558 19.9404 8.1203C19.9404 12.605 23.576 16.2406 28.0607 16.2406Z" fill="url(#paint12_radial_938_24400)"/>
<path id="Vector_14" d="M8.69061 16.2406C13.1753 16.2406 16.8109 12.605 16.8109 8.1203C16.8109 3.63558 13.1753 0 8.69061 0C4.20589 0 0.570312 3.63558 0.570312 8.1203C0.570312 12.605 4.20589 16.2406 8.69061 16.2406Z" fill="url(#paint13_radial_938_24400)"/>
</g>
<g id="Group_6">
<path id="Vector_15" d="M28.0612 34.9055C32.073 34.9055 35.3245 38.1569 35.3245 42.1688V94.2677C35.3245 98.2795 32.0731 101.531 28.0612 101.531C24.0493 101.531 20.7979 98.2796 20.7979 94.2677V42.1687C20.7979 38.1569 24.0494 34.9055 28.0612 34.9055Z" fill="url(#paint14_linear_938_24400)"/>
<path id="Vector_16" d="M8.69103 34.9055C12.7028 34.9055 15.9543 38.1569 15.9543 42.1688V94.2677C15.9543 98.2795 12.7029 101.531 8.69103 101.531C4.67913 101.531 1.42773 98.2796 1.42773 94.2677V42.1687C1.42773 38.1569 4.67923 34.9055 8.69103 34.9055Z" fill="url(#paint15_linear_938_24400)"/>
<path id="Vector_17" d="M20.7979 44.7454V42.1688C20.7979 38.157 24.0493 34.9055 28.0612 34.9055C32.0731 34.9055 35.3245 38.1569 35.3245 42.1688V44.7454H20.7979Z" fill="url(#paint16_linear_938_24400)"/>
<path id="Vector_18" d="M1.42773 44.7454V42.1688C1.42773 38.157 4.67913 34.9055 8.69103 34.9055C12.7029 34.9055 15.9543 38.1569 15.9543 42.1688V44.7454H1.42773Z" fill="url(#paint17_linear_938_24400)"/>
<path id="Vector_19" d="M20.7979 91.6912V94.2678C20.7979 98.2796 24.0493 101.531 28.0612 101.531C32.0731 101.531 35.3245 98.2797 35.3245 94.2678V91.6912H20.7979Z" fill="url(#paint18_linear_938_24400)"/>
<path id="Vector_20" d="M1.42773 91.6912V94.2678C1.42773 98.2796 4.67913 101.531 8.69103 101.531C12.7029 101.531 15.9543 98.2797 15.9543 94.2678V91.6912H1.42773Z" fill="url(#paint19_linear_938_24400)"/>
</g>
</g>
</g>
<defs>
<radialGradient id="paint0_radial_938_24400" cx="0" cy="0" r="1" gradientUnits="userSpaceOnUse" gradientTransform="translate(6.385 188.211) scale(8.385 8.385)">
<stop stop-color="#F7AC00"/>
<stop offset="1" stop-color="#6A4A00"/>
</radialGradient>
<radialGradient id="paint1_radial_938_24400" cx="0" cy="0" r="1" gradientUnits="userSpaceOnUse" gradientTransform="translate(25.7193 187.877) scale(8.385 8.385)">
<stop stop-color="#F7AC00"/>
<stop offset="1" stop-color="#6A4A00"/>
</radialGradient>
<linearGradient id="paint2_linear_938_24400" x1="4.63477" y1="173.189" x2="12.1348" y2="173.189" gradientUnits="userSpaceOnUse">
<stop stop-color="#6A4A00"/>
<stop offset="0.0358" stop-color="#926600"/>
<stop offset="0.0752" stop-color="#B67F00"/>
<stop offset="0.1148" stop-color="#D39300"/>
<stop offset="0.1543" stop-color="#E7A100"/>
<stop offset="0.1935" stop-color="#F3A900"/>
<stop offset="0.2322" stop-color="#F7AC00"/>
<stop offset="1" stop-color="#6A4A00"/>
</linearGradient>
<linearGradient id="paint3_linear_938_24400" x1="24.6357" y1="173.189" x2="32.1357" y2="173.189" gradientUnits="userSpaceOnUse">
<stop stop-color="#6A4A00"/>
<stop offset="0.0358" stop-color="#926600"/>
<stop offset="0.0752" stop-color="#B67F00"/>
<stop offset="0.1148" stop-color="#D39300"/>
<stop offset="0.1543" stop-color="#E7A100"/>
<stop offset="0.1935" stop-color="#F3A900"/>
<stop offset="0.2322" stop-color="#F7AC00"/>
<stop offset="1" stop-color="#6A4A00"/>
</linearGradient>
<linearGradient id="paint4_linear_938_24400" x1="0.884766" y1="132.154" x2="15.8848" y2="132.154" gradientUnits="userSpaceOnUse">
<stop stop-color="#6A4A00"/>
<stop offset="0.25" stop-color="#E7A100"/>
<stop offset="1" stop-color="#6A4A00"/>
</linearGradient>
<linearGradient id="paint5_linear_938_24400" x1="20.8857" y1="132.154" x2="35.8857" y2="132.154" gradientUnits="userSpaceOnUse">
<stop stop-color="#6A4A00"/>
<stop offset="0.2322" stop-color="#E7A100"/>
<stop offset="1" stop-color="#6A4A00"/>
</linearGradient>
<linearGradient id="paint6_linear_938_24400" x1="8.38477" y1="163.552" x2="8.38477" y2="156.392" gradientUnits="userSpaceOnUse">
<stop stop-color="#6A4A00"/>
<stop offset="1" stop-color="#F3A900" stop-opacity="0"/>
</linearGradient>
<linearGradient id="paint7_linear_938_24400" x1="28.3857" y1="163.552" x2="28.3857" y2="156.392" gradientUnits="userSpaceOnUse">
<stop stop-color="#6A4A00"/>
<stop offset="1" stop-color="#F3A900" stop-opacity="0"/>
</linearGradient>
<linearGradient id="paint8_linear_938_24400" x1="8.38477" y1="100.756" x2="8.38477" y2="107.916" gradientUnits="userSpaceOnUse">
<stop stop-color="#6A4A00"/>
<stop offset="1" stop-color="#F3A900" stop-opacity="0"/>
</linearGradient>
<linearGradient id="paint9_linear_938_24400" x1="28.3857" y1="100.756" x2="28.3857" y2="107.916" gradientUnits="userSpaceOnUse">
<stop stop-color="#6A4A00"/>
<stop offset="1" stop-color="#F3A900" stop-opacity="0"/>
</linearGradient>
<linearGradient id="paint10_linear_938_24400" x1="32.9031" y1="25.5732" x2="23.2188" y2="25.5732" gradientUnits="userSpaceOnUse">
<stop stop-color="#005368"/>
<stop offset="0.0337" stop-color="#00708D"/>
<stop offset="0.0735" stop-color="#008DB1"/>
<stop offset="0.1135" stop-color="#00A3CE"/>
<stop offset="0.1534" stop-color="#00B3E2"/>
<stop offset="0.1931" stop-color="#00BDEE"/>
<stop offset="0.2322" stop-color="#00C0F2"/>
<stop offset="1" stop-color="#005368"/>
</linearGradient>
<linearGradient id="paint11_linear_938_24400" x1="13.5329" y1="25.5732" x2="3.84863" y2="25.5732" gradientUnits="userSpaceOnUse">
<stop stop-color="#005368"/>
<stop offset="0.0337" stop-color="#00708D"/>
<stop offset="0.0735" stop-color="#008DB1"/>
<stop offset="0.1135" stop-color="#00A3CE"/>
<stop offset="0.1534" stop-color="#00B3E2"/>
<stop offset="0.1931" stop-color="#00BDEE"/>
<stop offset="0.2322" stop-color="#00C0F2"/>
<stop offset="1" stop-color="#005368"/>
</linearGradient>
<radialGradient id="paint12_radial_938_24400" cx="0" cy="0" r="1" gradientUnits="userSpaceOnUse" gradientTransform="translate(29.9975 11.0256) rotate(180) scale(8.1203)">
<stop stop-color="#00C0F2"/>
<stop offset="1" stop-color="#005368"/>
</radialGradient>
<radialGradient id="paint13_radial_938_24400" cx="0" cy="0" r="1" gradientUnits="userSpaceOnUse" gradientTransform="translate(11.2731 11.3484) rotate(180) scale(8.1203)">
<stop stop-color="#00C0F2"/>
<stop offset="1" stop-color="#005368"/>
</radialGradient>
<linearGradient id="paint14_linear_938_24400" x1="35.3244" y1="68.2181" x2="20.7979" y2="68.2181" gradientUnits="userSpaceOnUse">
<stop stop-color="#005368"/>
<stop offset="0.1534" stop-color="#00B3E2"/>
<stop offset="1" stop-color="#005368"/>
</linearGradient>
<linearGradient id="paint15_linear_938_24400" x1="15.9542" y1="68.2181" x2="1.42773" y2="68.2181" gradientUnits="userSpaceOnUse">
<stop stop-color="#005368"/>
<stop offset="0.1534" stop-color="#00B3E2"/>
<stop offset="1" stop-color="#005368"/>
</linearGradient>
<linearGradient id="paint16_linear_938_24400" x1="28.0612" y1="44.7454" x2="28.0612" y2="34.9055" gradientUnits="userSpaceOnUse">
<stop stop-color="#00B3E2" stop-opacity="0"/>
<stop offset="1" stop-color="#005368"/>
</linearGradient>
<linearGradient id="paint17_linear_938_24400" x1="8.69103" y1="44.7454" x2="8.69103" y2="34.9055" gradientUnits="userSpaceOnUse">
<stop stop-color="#00B3E2" stop-opacity="0"/>
<stop offset="1" stop-color="#005368"/>
</linearGradient>
<linearGradient id="paint18_linear_938_24400" x1="28.0612" y1="91.6912" x2="28.0612" y2="101.531" gradientUnits="userSpaceOnUse">
<stop stop-color="#00B3E2" stop-opacity="0"/>
<stop offset="1" stop-color="#005368"/>
</linearGradient>
<linearGradient id="paint19_linear_938_24400" x1="8.69103" y1="91.6912" x2="8.69103" y2="101.531" gradientUnits="userSpaceOnUse">
<stop stop-color="#00B3E2" stop-opacity="0"/>
<stop offset="1" stop-color="#005368"/>
</linearGradient>
<clipPath id="clip0_938_24400">
<rect width="36.7713" height="98.8401" fill="white" transform="translate(0 100.756)"/>
</clipPath>
<clipPath id="clip1_938_24400">
<rect width="35.6106" height="101.531" fill="white" transform="translate(0.570312)"/>
</clipPath>
</defs>
</svg>
