<svg width="42" height="23" viewBox="0 0 42 23" fill="none" xmlns="http://www.w3.org/2000/svg">
<g id="R-ICO-014632">
<g id="NCL">
<path d="M1.18936 11.3633C1.18936 5.84043 5.66651 1.36328 11.1894 1.36328H30.1894C35.7122 1.36328 40.1894 5.84043 40.1894 11.3633C40.1894 16.8861 35.7122 21.3633 30.1894 21.3633H11.1894C5.66651 21.3633 1.18936 16.8861 1.18936 11.3633Z" fill="url(#paint0_linear_938_24127)"/>
<path d="M35.1374 4.44197C33.7228 3.38913 31.984 2.77971 30.1894 2.72167C23.856 2.5323 17.5227 2.16868 11.1894 1.50329C11.1894 1.40992 11.1894 1.31656 11.1894 1.22319C17.5227 0.557795 23.856 0.194176 30.1894 0.00480878C32.5363 -0.0650598 34.9299 0.648226 36.8761 2.01509C39.874 4.0958 41.6857 7.75241 41.5785 11.3633C41.5553 12.5406 41.3485 13.7121 40.9675 14.8208C39.4802 19.3938 34.7423 22.4845 30.1897 22.1291C30.1896 22.1291 30.1895 22.1291 30.1894 22.1291C25.9881 21.8854 21.7864 21.7099 17.5852 21.8163C15.4533 21.8685 13.3213 21.9994 11.1894 22.1419C8.96356 22.2884 6.62845 21.717 4.6933 20.4447C1.7218 18.5032 -0.115742 14.9114 0.00567174 11.3633C0.0324757 10.207 0.245212 9.05819 0.632245 7.97703C2.15251 3.5169 6.89331 0.62498 11.1894 1.22319C11.1894 1.31656 11.1894 1.40992 11.1894 1.50329C7.01447 1.97547 3.66383 5.01113 2.69711 8.63886C2.45185 9.52824 2.34543 10.4473 2.37297 11.3633C2.44415 14.1693 3.83966 16.8267 6.05005 18.551C7.47574 19.6985 9.27345 20.4498 11.1894 20.5841C13.3213 20.7262 15.4533 20.8568 17.5852 20.909C21.7864 21.0154 25.988 20.8412 30.1894 20.5975C30.1895 20.5975 30.1896 20.5975 30.1897 20.5975C34.1078 20.3676 37.4603 17.5314 38.4603 14.0171C38.7118 13.1551 38.8243 12.2586 38.8003 11.3633C38.7432 8.61972 37.3215 6.027 35.1374 4.44197Z" fill="#AA2AFF"/>
<text id="NCL_2" fill="white" xml:space="preserve" style="white-space: pre" font-family="Arial" font-size="12" font-weight="bold" letter-spacing="0em"><tspan x="8.34952" y="15.5234">NCL</tspan></text>
</g>
</g>
<defs>
<linearGradient id="paint0_linear_938_24127" x1="20.6894" y1="1.36328" x2="20.6894" y2="21.3633" gradientUnits="userSpaceOnUse">
<stop stop-color="#AA2AFF"/>
<stop offset="1" stop-color="#003794"/>
</linearGradient>
</defs>
</svg>
