<svg width="100" height="31" viewBox="0 0 100 31" fill="none" xmlns="http://www.w3.org/2000/svg">
<g id="R-ICO-012475">
<path id="BG" d="M0.400465 13.2409L29.3543 6.10352e-05L100 4.86628L99.737 12.4793L89.4705 30.9945L0 24.8316L0.400465 13.2409Z" fill="#DB7272"/>
<g id="GRADIENTS">
<path id="Vector" d="M3.50696 14.4549L32.4799 0.823853L36.5264 1.10258L8.70358 14.8129L5.99369 17.8573L3.50696 14.4549Z" fill="url(#paint0_linear_938_24566)"/>
<path id="Vector_2" d="M8.70337 14.8129L36.5262 1.10257L40.573 1.3813L13.9003 15.1709L11.1902 18.2152L8.70337 14.8129Z" fill="url(#paint1_linear_938_24566)"/>
<path id="Vector_3" d="M13.9004 15.1709L40.5731 1.38132L44.6199 1.6601L19.0974 15.5289L16.3872 18.5732L13.9004 15.1709Z" fill="url(#paint2_linear_938_24566)"/>
<path id="Vector_4" d="M19.0974 15.5288L44.62 1.6601L48.6667 1.93882L24.2942 15.8868L21.5843 18.9312L19.0974 15.5288Z" fill="url(#paint3_linear_938_24566)"/>
<path id="Vector_5" d="M24.2941 15.8868L48.6665 1.93881L52.7134 2.21754L29.4911 16.2448L26.7813 19.2892L24.2941 15.8868Z" fill="url(#paint4_linear_938_24566)"/>
<path id="Vector_6" d="M29.4911 16.2447L52.7134 2.21753L56.7606 2.49631L34.6886 16.6028L31.9783 19.6471L29.4911 16.2447Z" fill="url(#paint5_linear_938_24566)"/>
<path id="Vector_7" d="M39.8859 16.9608L60.8076 2.77512L64.854 3.05384L45.0822 17.3187L42.3731 20.3632L39.8859 16.9608Z" fill="url(#paint6_linear_938_24566)"/>
<path id="Vector_8" d="M34.6887 16.6028L56.7607 2.49631L60.8077 2.77509L39.886 16.9608L37.176 20.0052L34.6887 16.6028Z" fill="url(#paint7_linear_938_24566)"/>
<path id="Vector_9" d="M45.0822 17.3187L64.8539 3.05386L68.9002 3.33259L50.2785 17.6767L47.5693 20.7211L45.0822 17.3187Z" fill="url(#paint8_linear_938_24566)"/>
<path id="Vector_10" d="M50.2784 17.6767L68.9001 3.33258L72.9474 3.61137L55.476 18.0347L52.7656 21.0791L50.2784 17.6767Z" fill="url(#paint9_linear_938_24566)"/>
<path id="Vector_11" d="M55.4762 18.0347L72.9476 3.61136L76.9946 3.89009L60.6734 18.3927L57.9634 21.437L55.4762 18.0347Z" fill="url(#paint10_linear_938_24566)"/>
<path id="Vector_12" d="M60.6733 18.3927L76.9945 3.89008L81.0424 4.16892L65.8716 18.7507L63.1609 21.7951L60.6733 18.3927Z" fill="url(#paint11_linear_938_24566)"/>
<path id="Vector_13" d="M65.8715 18.7507L81.0422 4.16891L85.0899 4.4477L71.0695 19.1088L68.359 22.1531L65.8715 18.7507Z" fill="url(#paint12_linear_938_24566)"/>
<path id="Vector_14" d="M71.0695 19.1088L85.0898 4.44772L89.1371 4.72651L76.2671 19.4668L73.5573 22.5112L71.0695 19.1088Z" fill="url(#paint13_linear_938_24566)"/>
<path id="Vector_15" d="M76.2671 19.4668L89.1371 4.7265L93.1855 5.0054L81.4661 19.8249L78.7548 22.8692L76.2671 19.4668Z" fill="url(#paint14_linear_938_24566)"/>
<path id="Vector_16" d="M81.4662 19.8249L93.1856 5.0054L97.2348 5.2843L86.6662 20.1831L83.954 23.2274L81.4662 19.8249Z" fill="url(#paint15_linear_938_24566)"/>
</g>
<g id="ELEMENTS">
<g id="COLLAGEN_1_">
<path id="Vector_17" d="M89.1563 23.9487C89.0445 23.9487 88.9341 23.8972 88.8629 23.8001L86.6387 20.76L84.2252 23.4689C84.1522 23.5507 84.0463 23.5942 83.9366 23.5899C83.827 23.5847 83.7258 23.5301 83.661 23.4417L81.4385 20.4021L79.0262 23.1108C78.9531 23.1926 78.8461 23.2361 78.7376 23.2318C78.6281 23.2266 78.5268 23.172 78.462 23.0836L76.2397 20.044L73.8285 22.7525C73.7558 22.8345 73.6522 22.8782 73.5399 22.8737C73.4305 22.8685 73.3291 22.8139 73.2644 22.7255L71.0421 19.6859L68.6303 22.3944C68.5572 22.4764 68.4504 22.5197 68.3417 22.5156C68.2322 22.5104 68.1309 22.4558 68.0661 22.3674L65.8438 19.3278L63.432 22.0363C63.359 22.1185 63.2526 22.1616 63.1434 22.1575C63.034 22.1523 62.9326 22.0977 62.8679 22.0093L60.6458 18.9697L58.2347 21.6782C58.1616 21.76 58.0548 21.8032 57.9461 21.7994C57.8366 21.7942 57.7353 21.7396 57.6704 21.6512L55.4484 18.6118L53.037 21.3203C52.964 21.4026 52.8567 21.4451 52.7484 21.4415C52.639 21.4364 52.5376 21.3818 52.4729 21.2931L50.2509 18.2537L47.8408 20.9622C47.7678 21.044 47.6605 21.0887 47.5522 21.0834C47.4425 21.0783 47.3412 21.0237 47.2764 20.935L45.0547 17.8959L42.6445 20.6043C42.5716 20.6861 42.4662 20.7299 42.3559 20.7256C42.2463 20.7204 42.1449 20.6658 42.0802 20.5772L39.8583 17.5378L37.4472 20.2462C37.3743 20.3285 37.2703 20.3736 37.1585 20.3675C37.049 20.3623 36.9477 20.3077 36.8829 20.2191L34.661 17.1799L32.2498 19.8884C32.1767 19.9706 32.0722 20.0151 31.961 20.0096C31.8515 20.0044 31.7502 19.9498 31.6854 19.8614L29.4634 16.8218L27.0527 19.5303C26.9797 19.6121 26.8725 19.6556 26.7641 19.6515C26.6545 19.6463 26.5532 19.5917 26.4884 19.5031L24.2665 16.4637L21.8556 19.1724C21.7825 19.2542 21.6777 19.2991 21.5668 19.2936C21.4573 19.2884 21.356 19.2338 21.2912 19.1452L19.0695 16.1058L16.6584 18.8143C16.5854 18.8963 16.4824 18.9398 16.3697 18.9355C16.2601 18.9303 16.1588 18.8757 16.094 18.7871L13.8726 15.7478L11.4615 18.4564C11.3884 18.5387 11.2844 18.5836 11.1727 18.5777C11.0632 18.5725 10.9619 18.5179 10.8971 18.4292L8.6757 15.3898L6.26478 18.0983C6.19184 18.1806 6.08855 18.2252 5.97607 18.2196C5.86652 18.2144 5.76526 18.1598 5.70044 18.0711L3.47902 15.032L1.0685 17.7405C0.9352 17.8901 0.705549 17.9038 0.555946 17.7702C0.406117 17.6369 0.392748 17.4074 0.526048 17.2578L3.2356 14.2133C3.30854 14.1313 3.41228 14.0864 3.52432 14.0921C3.63387 14.0973 3.73513 14.1519 3.79994 14.2404L6.02137 17.2798L8.43228 14.5713C8.50533 14.4893 8.61088 14.443 8.72099 14.4501C8.83055 14.4553 8.9318 14.5099 8.99662 14.5984L11.218 17.6379L13.6292 14.9292C13.7022 14.8474 13.8067 14.8014 13.9179 14.8081C14.0275 14.8133 14.1287 14.8679 14.1935 14.9564L16.415 17.9958L18.8261 15.2872C18.8991 15.2054 19.0047 15.1599 19.1148 15.1661C19.2244 15.1712 19.3256 15.2259 19.3904 15.3144L21.6121 18.3539L24.0231 15.6452C24.0961 15.5631 24.2028 15.5182 24.3117 15.5239C24.4213 15.5291 24.5226 15.5837 24.5874 15.6722L26.8093 18.7117L29.22 16.0033C29.2931 15.9215 29.4009 15.8789 29.5086 15.882C29.6183 15.8872 29.7196 15.9418 29.7844 16.0305L32.0064 19.0698L34.4178 16.3614C34.4907 16.2793 34.5968 16.2373 34.7064 16.2401C34.8159 16.2453 34.9172 16.2999 34.9819 16.3883L37.2039 19.4277L39.6149 16.7192C39.6879 16.6372 39.7926 16.5935 39.9036 16.598C40.0132 16.6032 40.1144 16.6578 40.1792 16.7464L42.4011 19.7858L44.8112 17.0773C44.8841 16.9955 44.9907 16.9523 45.0998 16.9561C45.2094 16.9613 45.3108 17.0159 45.3755 17.1045L47.5973 20.1437L50.0075 17.4352C50.0805 17.3532 50.1878 17.309 50.2961 17.314C50.4057 17.3192 50.5071 17.3738 50.5719 17.4624L52.7939 20.5018L55.2053 17.7933C55.2783 17.7111 55.3837 17.6668 55.4939 17.6721C55.6033 17.6773 55.7047 17.7319 55.7695 17.8203L57.9913 20.8597L60.4025 18.1512C60.4753 18.0694 60.5769 18.0247 60.6911 18.03C60.8005 18.0351 60.9019 18.0898 60.9667 18.1781L63.189 21.2178L65.6008 18.5093C65.6738 18.427 65.7795 18.3833 65.8894 18.3881C65.9988 18.3932 66.1002 18.4478 66.1649 18.5362L68.3872 21.5759L70.7988 18.8674C70.8719 18.7851 70.9775 18.7414 71.0874 18.7462C71.1968 18.7513 71.2982 18.8059 71.363 18.8943L73.5853 21.934L75.9964 19.2255C76.0693 19.1437 76.1699 19.0986 76.285 19.1043C76.3945 19.1094 76.4958 19.164 76.5607 19.2524L78.7832 22.2921L81.1955 19.5834C81.2682 19.5013 81.3753 19.4578 81.4841 19.4624C81.5935 19.4675 81.6949 19.5221 81.7597 19.6105L83.9822 22.6504L86.3954 19.9415C86.4683 19.8594 86.5732 19.8159 86.684 19.8205C86.7935 19.8256 86.8949 19.8802 86.9597 19.9686L89.4493 23.3713C89.5677 23.5332 89.5325 23.7604 89.3706 23.8788C89.3059 23.926 89.2307 23.9487 89.1563 23.9487Z" fill="#6CA438"/>
<path id="Vector_18" d="M89.0766 26.2511C88.9648 26.2511 88.8544 26.1996 88.7833 26.1025L86.5592 23.0626L84.1457 25.7716C84.0726 25.8536 83.9655 25.8961 83.8571 25.8926C83.7474 25.8874 83.6462 25.8328 83.5814 25.7444L81.3589 22.7048L78.9466 25.4132C78.8736 25.4953 78.7677 25.538 78.658 25.5343C78.5486 25.5291 78.4472 25.4745 78.3824 25.3861L76.1602 22.3464L73.7493 25.0552C73.6764 25.1369 73.5729 25.1799 73.4607 25.1764C73.3512 25.1712 73.2498 25.1166 73.185 25.0282L70.9625 21.9886L68.5509 24.6971C68.4779 24.7793 68.3718 24.8216 68.2623 24.8183C68.1529 24.8131 68.0515 24.7585 67.9868 24.6701L65.7645 21.6305L63.3527 24.339C63.2799 24.421 63.1761 24.4649 63.0641 24.4602C62.9546 24.455 62.8533 24.4004 62.7884 24.312L60.5664 21.2724L58.155 23.9809C58.0822 24.0629 57.9799 24.1061 57.8664 24.1021C57.757 24.0969 57.6556 24.0423 57.5909 23.9537L55.3688 20.9143L52.9575 23.6228C52.8844 23.705 52.7783 23.7471 52.6689 23.744C52.5594 23.7388 52.458 23.6842 52.3933 23.5956L50.1715 20.5564L47.7613 23.2649C47.6884 23.3469 47.5826 23.3908 47.4727 23.3861C47.363 23.3809 47.2617 23.3263 47.197 23.2377L44.9752 20.1983L42.5651 22.907C42.4921 22.9888 42.3856 23.032 42.2765 23.0282C42.1668 23.023 42.0655 22.9684 42.0007 22.8798L39.7788 19.8404L37.3678 22.5489C37.2948 22.6312 37.1907 22.6754 37.079 22.6701C36.9695 22.6649 36.8682 22.6103 36.8035 22.5217L34.5815 19.4823L32.1703 22.1908C32.0974 22.2731 31.9945 22.317 31.8816 22.312C31.772 22.3068 31.6708 22.2522 31.606 22.1638L29.384 19.1244L26.9732 21.8329C26.9002 21.9149 26.7964 21.9584 26.6845 21.9542C26.5749 21.949 26.4736 21.8944 26.4089 21.8057L24.1871 18.7663L21.7761 21.4748C21.7031 21.5571 21.5998 21.601 21.4874 21.5961C21.3779 21.5909 21.2766 21.5363 21.2119 21.4476L18.9902 18.4085L16.579 21.117C16.5061 21.1992 16.4025 21.2439 16.2903 21.2382C16.1808 21.233 16.0795 21.1784 16.0147 21.0898L13.7933 18.0504L11.3821 20.7589C11.3091 20.8411 11.2044 20.8856 11.0934 20.8801C10.9839 20.8749 10.8826 20.8203 10.8178 20.7317L8.59635 17.6925L6.18544 20.401C6.1125 20.4832 6.00853 20.5269 5.89672 20.5222C5.78717 20.517 5.68591 20.4624 5.6211 20.3738L3.39967 17.3344L0.989154 20.0429C0.855854 20.1925 0.626203 20.2062 0.4766 20.0727C0.326771 19.9394 0.313402 19.7098 0.446702 19.5602L3.15626 16.5159C3.22931 16.4341 3.33237 16.3906 3.44497 16.3946C3.55452 16.3998 3.65578 16.4544 3.7206 16.5431L5.94202 19.5824L8.35293 16.874C8.42599 16.7919 8.5308 16.7494 8.64165 16.7527C8.7512 16.7579 8.85246 16.8125 8.91727 16.9012L11.1387 19.9403L13.5498 17.2318C13.6229 17.1498 13.7289 17.1077 13.8386 17.1106C13.9481 17.1158 14.0494 17.1704 14.1142 17.259L16.3356 20.2984L18.7467 17.5899C18.8198 17.5079 18.9247 17.464 19.0355 17.4687C19.145 17.4739 19.2463 17.5285 19.311 17.6171L21.5327 20.6563L23.9436 17.9478C24.0166 17.8658 24.1203 17.8216 24.2324 17.8266C24.3419 17.8318 24.4432 17.8864 24.5079 17.975L26.7297 21.0144L29.1406 18.3059C29.2136 18.2239 29.3209 18.1809 29.4292 18.1847C29.5388 18.1899 29.6401 18.2445 29.7049 18.3329L31.9269 21.3723L34.3383 18.6638C34.4112 18.5818 34.5167 18.5392 34.6269 18.5426C34.7365 18.5478 34.8377 18.6024 34.9025 18.691L37.1245 21.7304L39.5355 19.0219C39.6085 18.9396 39.7136 18.8957 39.8242 18.9007C39.9338 18.9059 40.035 18.9605 40.0998 19.0491L42.3216 22.0885L44.7318 19.3798C44.8046 19.298 44.9106 19.2545 45.0204 19.2585C45.13 19.2637 45.2313 19.3183 45.2961 19.407L47.5179 22.4463L49.9281 19.7379C50.001 19.6561 50.1076 19.6112 50.2167 19.6166C50.3264 19.6218 50.4278 19.6764 50.4926 19.7651L52.7142 22.8042L55.1257 20.0957C55.1986 20.0135 55.3051 19.9688 55.4143 19.9745C55.5238 19.9797 55.6252 20.0343 55.6899 20.1229L57.9117 23.1623L60.3231 20.4538C60.3959 20.3716 60.5009 20.3269 60.6117 20.3326C60.7211 20.3378 60.8225 20.3924 60.8873 20.4808L63.1095 23.5204L65.5211 20.8119C65.594 20.7299 65.6961 20.6852 65.8097 20.6907C65.9192 20.6959 66.0205 20.7505 66.0853 20.8389L68.3076 23.8785L70.7192 21.17C70.792 21.088 70.8943 21.0438 71.0078 21.0488C71.1172 21.054 71.2186 21.1086 71.2833 21.197L73.5058 24.2366L75.9167 21.5279C75.9896 21.4461 76.0905 21.4003 76.2053 21.4067C76.3148 21.4119 76.4162 21.4665 76.481 21.5549L78.7035 24.5945L81.1158 21.886C81.1886 21.8042 81.2912 21.7591 81.4044 21.765C81.5138 21.7702 81.6152 21.8248 81.68 21.9132L83.9025 24.953L86.3158 22.2441C86.3889 22.1621 86.4947 22.1179 86.6044 22.1231C86.7138 22.1283 86.8152 22.1829 86.88 22.2713L89.3696 25.6738C89.488 25.8357 89.4528 26.0628 89.2909 26.1812C89.2262 26.2284 89.1511 26.2511 89.0766 26.2511Z" fill="#6CA438"/>
<path id="Vector_19" d="M88.9973 28.5538C88.8855 28.5538 88.7751 28.5023 88.704 28.4051L86.4798 25.3653L84.0663 28.074C83.9932 28.156 83.8869 28.1981 83.7777 28.195C83.668 28.1898 83.5669 28.1352 83.502 28.0468L81.2795 25.007L78.867 27.7159C78.7942 27.7977 78.6918 27.8404 78.5784 27.8369C78.469 27.8317 78.3676 27.7771 78.3028 27.6887L76.0807 24.6491L73.6696 27.3576C73.5968 27.4396 73.4935 27.4819 73.381 27.4788C73.2716 27.4736 73.1702 27.419 73.1054 27.3306L70.8831 24.291L68.4712 26.9995C68.3982 27.0817 68.2909 27.1236 68.1826 27.1207C68.0732 27.1155 67.9718 27.0609 67.907 26.9725L65.6847 23.9331L63.2729 26.6416C63.2001 26.7236 63.0966 26.7669 62.9843 26.7628C62.8749 26.7576 62.7735 26.703 62.7087 26.6146L60.4867 23.575L58.0756 26.2835C58.0027 26.3653 57.9004 26.408 57.787 26.4047C57.6775 26.3995 57.5761 26.3449 57.5114 26.2563L55.2893 23.2169L52.878 25.9254C52.8049 26.0076 52.6974 26.0511 52.5894 26.0466C52.4799 26.0414 52.3786 25.9868 52.3137 25.8982L50.0919 22.8588L47.6816 25.5675C47.6087 25.6493 47.5022 25.6928 47.393 25.6887C47.2834 25.6836 47.182 25.6289 47.1173 25.5403L44.8955 22.5009L42.4854 25.2094C42.4123 25.2914 42.3058 25.3356 42.1968 25.3306C42.0871 25.3255 41.9858 25.2708 41.9211 25.1822L39.6991 22.1431L37.2881 24.8515C37.215 24.9338 37.1104 24.9775 36.9994 24.9728C36.8898 24.9676 36.7886 24.913 36.7238 24.8243L34.5018 21.785L32.0904 24.4934C32.0175 24.5755 31.9141 24.6187 31.8018 24.6147C31.6922 24.6095 31.5909 24.5549 31.5261 24.4662L29.3042 21.4269L26.8934 24.1356C26.8203 24.2176 26.7138 24.2627 26.6048 24.2568C26.4951 24.2516 26.3938 24.197 26.3291 24.1084L24.1071 21.069L21.6962 23.7775C21.6233 23.8597 21.5201 23.9042 21.4075 23.8987C21.2979 23.8935 21.1967 23.8389 21.1319 23.7503L18.9103 20.7109L16.4992 23.4194C16.4261 23.5016 16.3221 23.5458 16.2105 23.5406C16.1009 23.5354 15.9997 23.4808 15.9348 23.3922L13.7134 20.353L11.3022 23.0615C11.2292 23.1437 11.1262 23.1872 11.0135 23.1827C10.9039 23.1775 10.8026 23.1229 10.7378 23.0343L8.51652 19.9949L6.10549 22.7034C6.03244 22.7854 5.92808 22.8289 5.81678 22.8246C5.70723 22.8194 5.60597 22.7648 5.54115 22.6762L3.31984 19.637L0.90932 22.3455C0.77602 22.4953 0.546369 22.5088 0.396766 22.3753C0.246937 22.242 0.233568 22.0125 0.366868 21.8629L3.07642 18.8185C3.14948 18.7367 3.25406 18.6928 3.36514 18.6973C3.47469 18.7025 3.57595 18.7571 3.64076 18.8457L5.86208 21.8849L8.2731 19.1764C8.34615 19.0944 8.45035 19.0511 8.56182 19.0552C8.67137 19.0603 8.77262 19.1149 8.83744 19.2036L11.0588 22.243L13.4701 19.5345C13.5431 19.4525 13.6484 19.4095 13.7587 19.4133C13.8683 19.4184 13.9695 19.473 14.0343 19.5617L16.2558 22.6008L18.6669 19.8924C18.74 19.8103 18.8443 19.768 18.9556 19.7711C19.0652 19.7763 19.1664 19.8309 19.2313 19.9195L21.4528 22.9589L23.8638 20.2505C23.9368 20.1687 24.0399 20.1235 24.1525 20.1292C24.262 20.1344 24.3633 20.189 24.428 20.2776L26.65 23.317L29.0608 20.6083C29.1338 20.5265 29.2405 20.4826 29.3494 20.4871C29.459 20.4923 29.5604 20.5469 29.6251 20.6355L31.847 23.6749L34.2585 20.9664C34.3315 20.8844 34.4364 20.8409 34.5471 20.8452C34.6567 20.8504 34.7579 20.905 34.8228 20.9936L37.0447 24.033L39.4557 21.3245C39.5288 21.2423 39.6353 21.1978 39.7443 21.2033C39.854 21.2085 39.9553 21.2631 40.0201 21.3515L42.2419 24.3909L44.6521 21.6824C44.725 21.6006 44.8301 21.5567 44.9407 21.5612C45.0503 21.5664 45.1516 21.621 45.2164 21.7096L47.4382 24.749L49.8484 22.0403C49.9213 21.9585 50.0284 21.9164 50.137 21.919C50.2467 21.9242 50.348 21.9788 50.4127 22.0675L52.6348 25.1069L55.0461 22.3984C55.1192 22.3161 55.2243 22.2729 55.3347 22.2771C55.4442 22.2823 55.5456 22.3369 55.6103 22.4256L57.8321 25.465L60.2433 22.7565C60.3163 22.6745 60.4222 22.631 60.5319 22.6352C60.6413 22.6404 60.7427 22.695 60.8074 22.7834L63.0297 25.8231L65.4415 23.1146C65.5146 23.0323 65.62 22.9893 65.7301 22.9933C65.8396 22.9985 65.9409 23.0531 66.0057 23.1415L68.2278 26.1809L70.6396 23.4724C70.7126 23.3902 70.8178 23.3453 70.9282 23.3512C71.0376 23.3564 71.139 23.411 71.2037 23.4994L73.426 26.539L75.8371 23.8305C75.9102 23.7485 76.0156 23.7034 76.1257 23.7093C76.2352 23.7145 76.3366 23.7691 76.4014 23.8575L78.6236 26.8971L81.0362 24.1884C81.109 24.1064 81.2158 24.0617 81.3248 24.0674C81.4342 24.0726 81.5356 24.1272 81.6004 24.2156L83.8229 27.2555L86.2361 24.5467C86.309 24.4647 86.4157 24.4198 86.5247 24.4257C86.6342 24.4309 86.7355 24.4855 86.8004 24.5739L89.29 27.9764C89.4084 28.1383 89.3732 28.3655 89.2113 28.4839C89.1469 28.5311 89.0718 28.5538 88.9973 28.5538Z" fill="#6CA438"/>
<path id="Vector_20" d="M89.7271 30.3489C89.707 30.3489 89.6869 30.344 89.6683 30.3336C89.6099 30.3012 89.5888 30.2275 89.6214 30.1691L99.4957 12.4254C99.5278 12.3668 99.6021 12.3461 99.6602 12.3784C99.7186 12.4109 99.7396 12.4847 99.707 12.543L89.8328 30.2868C89.8108 30.3265 89.7694 30.3489 89.7271 30.3489Z" fill="#6CA438"/>
<path id="Vector_21" d="M89.8701 28.3118C89.8495 28.3118 89.8287 28.3066 89.8098 28.2957C89.7519 28.2624 89.7318 28.1884 89.7651 28.1305L99.5033 11.1905C99.5366 11.1321 99.6108 11.1125 99.6685 11.1458C99.7264 11.1792 99.7465 11.2531 99.7132 11.311L89.975 28.251C89.9526 28.29 89.9119 28.3118 89.8701 28.3118Z" fill="#6CA438"/>
<path id="Vector_22" d="M90.0403 26.0091C90.019 26.0091 89.9975 26.0037 89.9781 25.9918C89.9207 25.9575 89.902 25.8833 89.9365 25.8259L99.5291 9.80573C99.5633 9.7483 99.6378 9.72996 99.695 9.76398C99.7524 9.79839 99.7711 9.87269 99.7365 9.93L90.144 25.9502C90.1214 25.988 90.0814 26.0091 90.0403 26.0091Z" fill="#6CA438"/>
<path id="Vector_23" d="M88.9176 30.8564C88.8058 30.8564 88.6955 30.8049 88.6243 30.7077L86.4001 27.6677L83.9866 30.3766C83.9135 30.4586 83.806 30.5021 83.698 30.4976C83.5883 30.4924 83.4872 30.4378 83.4224 30.3494L81.1999 27.3098L78.7875 30.0185C78.7145 30.1003 78.6082 30.144 78.4989 30.1395C78.3895 30.1343 78.2881 30.0797 78.2234 29.9913L76.0011 26.9517L73.5902 29.6602C73.5174 29.742 73.4141 29.7859 73.3016 29.7814C73.1921 29.7762 73.0908 29.7216 73.026 29.6332L70.8035 26.5936L68.3916 29.3021C68.3186 29.3843 68.2125 29.4276 68.103 29.4233C67.9936 29.4181 67.8922 29.3635 67.8275 29.2751L65.6052 26.2355L63.1936 28.944C63.1208 29.026 63.0173 29.0685 62.905 29.0652C62.7956 29.06 62.6942 29.0054 62.6294 28.917L60.4072 25.8774L57.996 28.5859C57.9233 28.6677 57.8211 28.71 57.7074 28.7071C57.598 28.7019 57.4966 28.6473 57.4318 28.5587L55.21 25.5195L52.7984 28.228C52.7253 28.3103 52.6188 28.353 52.5098 28.3492C52.4004 28.344 52.299 28.2894 52.2342 28.2008L50.0124 25.1614L47.6022 27.8699C47.5293 27.9517 47.4221 27.9949 47.3136 27.9911C47.204 27.9859 47.1026 27.9313 47.0379 27.8429L44.8162 24.8036L42.406 27.512C42.333 27.5941 42.2273 27.6382 42.1174 27.6333C42.0077 27.6281 41.9064 27.5735 41.8417 27.4851L39.6196 24.4455L37.2087 27.1539C37.1357 27.2362 37.0299 27.2813 36.9201 27.2752C36.8104 27.27 36.7091 27.2154 36.6444 27.127L34.4223 24.0876L32.0109 26.7961C31.9381 26.8783 31.834 26.9228 31.7223 26.9173C31.6128 26.9121 31.5115 26.8575 31.4467 26.7689L29.2248 23.7295L26.814 26.438C26.7409 26.52 26.6383 26.5644 26.5253 26.5592C26.4157 26.554 26.3145 26.4994 26.2496 26.4108L24.0277 23.3714L21.6168 26.0801C21.5439 26.1621 21.4401 26.2061 21.3281 26.2013C21.2185 26.1961 21.1173 26.1415 21.0525 26.0529L18.8309 23.0135L16.4197 25.722C16.3467 25.804 16.242 25.8475 16.131 25.8432C16.0215 25.838 15.9202 25.7834 15.8554 25.6948L13.634 22.6554L11.2227 25.3641C11.1498 25.4464 11.0461 25.4913 10.934 25.4853C10.8244 25.4802 10.7232 25.4255 10.6584 25.3369L8.43705 22.2975L6.02602 25.006C5.95297 25.0883 5.8503 25.1329 5.73731 25.1272C5.62776 25.1221 5.5265 25.0674 5.46168 24.9788L3.24037 21.9394L0.829853 24.6481C0.696552 24.7977 0.466902 24.8115 0.317298 24.6779C0.16747 24.5446 0.1541 24.3154 0.2874 24.1655L2.99695 21.1209C3.06978 21.0389 3.17386 20.9949 3.28567 20.9997C3.39522 21.0049 3.49648 21.0595 3.5613 21.1481L5.78261 24.1875L8.19363 21.479C8.26669 21.397 8.37257 21.353 8.48235 21.3578C8.5919 21.363 8.69316 21.4176 8.75797 21.5062L10.9793 24.5456L13.3905 21.8369C13.4636 21.7549 13.5684 21.7114 13.6793 21.7156C13.7888 21.7208 13.8901 21.7754 13.9549 21.8641L16.1763 24.9035L18.5874 22.195C18.6605 22.113 18.7665 22.0697 18.8762 22.0737C18.9857 22.0789 19.087 22.1335 19.1518 22.2222L21.3734 25.2616L23.7843 22.5529C23.8573 22.4711 23.9624 22.4283 24.073 22.4316C24.1826 22.4368 24.2838 22.4914 24.3486 22.58L26.5706 25.6194L28.9814 22.911C29.0544 22.8289 29.1613 22.7845 29.27 22.7897C29.3796 22.7949 29.4809 22.8495 29.5457 22.9381L31.7676 25.9775L34.179 23.2691C34.2519 23.187 34.3562 23.1449 34.4676 23.1478C34.5772 23.153 34.6784 23.2076 34.7432 23.296L36.9652 26.3354L39.3761 23.6269C39.4492 23.5449 39.5543 23.5012 39.6648 23.5057C39.7744 23.5109 39.8757 23.5655 39.9405 23.6539L42.1624 26.6935L44.5726 23.985C44.6455 23.903 44.7522 23.8588 44.8612 23.8638C44.9709 23.869 45.0722 23.9236 45.1369 24.0122L47.3587 27.0514L49.7689 24.3429C49.842 24.2611 49.947 24.2176 50.0575 24.2217C50.1672 24.2269 50.2685 24.2815 50.3334 24.3701L52.5552 27.4095L54.9666 24.701C55.0394 24.619 55.14 24.5738 55.2552 24.5798C55.3646 24.585 55.466 24.6396 55.5308 24.728L57.7526 27.7674L60.1638 25.0589C60.2366 24.9771 60.3387 24.9324 60.4524 24.9376C60.5618 24.9428 60.6632 24.9974 60.728 25.0858L62.9503 28.1255L65.3621 25.417C65.4349 25.3347 65.5415 25.2912 65.6507 25.2957C65.7601 25.3009 65.8615 25.3555 65.9262 25.4439L68.1485 28.4836L70.5601 25.7751C70.6329 25.693 70.7355 25.6477 70.8487 25.6538C70.9581 25.659 71.0595 25.7136 71.1243 25.802L73.3468 28.8417L75.7577 26.1332C75.8306 26.0514 75.9317 26.0062 76.0463 26.0119C76.1558 26.0171 76.2571 26.0717 76.322 26.1601L78.5445 29.1998L80.9568 26.491C81.0298 26.409 81.1352 26.3658 81.2454 26.37C81.3548 26.3752 81.4562 26.4298 81.521 26.5182L83.7434 29.5581L86.1567 26.8491C86.2298 26.7671 86.3352 26.7239 86.4453 26.7281C86.5548 26.7333 86.6561 26.7879 86.721 26.8763L89.2106 30.279C89.329 30.4409 89.2938 30.6681 89.1319 30.7865C89.0672 30.8337 88.9921 30.8564 88.9176 30.8564Z" fill="#6CA438"/>
<path id="Vector_24" d="M86.6664 20.546C86.5936 20.546 86.5203 20.5243 86.4565 20.4791C86.2929 20.3631 86.2544 20.1364 86.3705 19.9728L96.9391 5.07423C97.0554 4.91041 97.2818 4.87239 97.4454 4.98809C97.609 5.10412 97.6475 5.33079 97.5315 5.49427L86.9628 20.3931C86.8919 20.4929 86.7801 20.546 86.6664 20.546Z" fill="#6CA438"/>
<path id="Vector_25" d="M81.4664 20.1879C81.3874 20.1879 81.308 20.1624 81.2413 20.1097C81.0842 19.9854 81.0574 19.7571 81.1818 19.5996L92.9011 4.78005C93.0256 4.62277 93.254 4.59626 93.4111 4.72048C93.5683 4.84492 93.595 5.07327 93.4707 5.23055L81.7514 20.0501C81.6798 20.1407 81.5734 20.1879 81.4664 20.1879Z" fill="#6CA438"/>
<path id="Vector_26" d="M76.2673 19.8299C76.1827 19.8299 76.0977 19.8003 76.0288 19.7403C75.8778 19.6084 75.8622 19.3792 75.9941 19.2281L88.864 4.48771C88.9959 4.33659 89.2252 4.32085 89.3762 4.45296C89.5273 4.58485 89.5429 4.81411 89.411 4.96518L76.5411 19.7055C76.4692 19.7878 76.3685 19.8299 76.2673 19.8299Z" fill="#6CA438"/>
<path id="Vector_27" d="M71.0698 19.4718C70.9795 19.4718 70.8893 19.4385 70.8188 19.3711C70.6739 19.2326 70.669 19.0028 70.8075 18.8577L84.8277 4.19676C84.9665 4.0515 85.196 4.04664 85.3411 4.1853C85.486 4.32379 85.491 4.55367 85.3524 4.69859L71.3321 19.3598C71.2608 19.4342 71.1653 19.4718 71.0698 19.4718Z" fill="#6CA438"/>
<path id="Vector_28" d="M65.8719 19.1137C65.7766 19.1137 65.6814 19.0763 65.6103 19.0021C65.4713 18.8577 65.4758 18.6277 65.6204 18.489L80.7911 3.90708C80.9351 3.76809 81.1655 3.7726 81.3042 3.91724C81.4432 4.06176 81.4387 4.29164 81.2941 4.43064L66.1234 19.0123C66.0532 19.0801 65.9624 19.1137 65.8719 19.1137Z" fill="#6CA438"/>
<path id="Vector_29" d="M60.6737 18.7556C60.5734 18.7556 60.4737 18.7145 60.4021 18.6336C60.2688 18.4838 60.2825 18.2543 60.4324 18.1212L76.7537 3.6187C76.9035 3.48507 77.133 3.499 77.2661 3.64883C77.3994 3.79883 77.3857 4.0282 77.2359 4.16138L60.9146 18.6639C60.8455 18.7254 60.7593 18.7556 60.6737 18.7556Z" fill="#6CA438"/>
<path id="Vector_30" d="M55.4766 18.3978C55.3719 18.3978 55.2681 18.3529 55.1963 18.2659C55.0687 18.1113 55.0907 17.8825 55.2452 17.7546L72.7167 3.33136C72.8712 3.20359 73.1003 3.2257 73.2279 3.38016C73.3556 3.53484 73.3336 3.76364 73.179 3.8913L55.7075 18.3148C55.6399 18.3706 55.5579 18.3978 55.4766 18.3978Z" fill="#6CA438"/>
<path id="Vector_31" d="M50.2788 18.0397C50.1701 18.0397 50.0624 17.991 49.991 17.8981C49.8687 17.7392 49.8982 17.5114 50.057 17.389L68.6789 3.04484C68.8376 2.92243 69.0656 2.95205 69.1881 3.1109C69.3105 3.26976 69.2807 3.49771 69.1219 3.62013L50.5001 17.9643C50.4341 18.0151 50.3562 18.0397 50.2788 18.0397Z" fill="#6CA438"/>
<path id="Vector_32" d="M45.0827 17.6818C44.9699 17.6818 44.8588 17.6295 44.7879 17.5312C44.6706 17.3686 44.7073 17.1417 44.8699 17.0243L64.6416 2.75944C64.804 2.6421 65.0309 2.67849 65.1486 2.84146C65.2658 3.00398 65.2292 3.23098 65.0666 3.3482L45.2946 17.6132C45.2305 17.6596 45.1562 17.6818 45.0827 17.6818Z" fill="#6CA438"/>
<path id="Vector_33" d="M39.8864 17.3237C39.77 17.3237 39.6557 17.2679 39.5855 17.1644C39.473 16.9985 39.5164 16.7727 39.6823 16.6602L60.6041 2.47452C60.7698 2.36204 60.9956 2.40536 61.1083 2.57132C61.2208 2.73723 61.1776 2.9631 61.0116 3.07558L40.0898 17.2611C40.0274 17.3034 39.9565 17.3237 39.8864 17.3237Z" fill="#6CA438"/>
<path id="Vector_34" d="M34.6893 16.9659C34.5696 16.9659 34.4523 16.9068 34.3829 16.7983C34.275 16.6293 34.3244 16.405 34.4935 16.2969L56.5653 2.19036C56.7334 2.08256 56.9584 2.13152 57.0667 2.30075C57.1747 2.46965 57.1253 2.69417 56.9563 2.80208L34.8843 16.9087C34.8239 16.9474 34.7561 16.9659 34.6893 16.9659Z" fill="#6CA438"/>
<path id="Vector_35" d="M29.4917 16.6078C29.3686 16.6078 29.2488 16.5454 29.1805 16.4324C29.0769 16.2608 29.1319 16.0377 29.3036 15.9339L52.5259 1.90673C52.6967 1.80299 52.9203 1.85782 53.0244 2.02987C53.1279 2.20148 53.0728 2.42459 52.9012 2.52838L29.679 16.5555C29.6204 16.591 29.5556 16.6078 29.4917 16.6078Z" fill="#6CA438"/>
<path id="Vector_36" d="M24.2948 16.2497C24.1688 16.2497 24.0463 16.1842 23.9793 16.067C23.8797 15.893 23.94 15.6711 24.114 15.5716L48.4865 1.62373C48.6606 1.524 48.8824 1.58447 48.9819 1.75844C49.0815 1.93253 49.0211 2.15434 48.8472 2.25385L24.4748 16.2017C24.4179 16.2344 24.3559 16.2497 24.2948 16.2497Z" fill="#6CA438"/>
<path id="Vector_37" d="M19.0978 15.8918C18.969 15.8918 18.8443 15.8233 18.7785 15.7022C18.6828 15.526 18.748 15.3056 18.9241 15.2098L44.4468 1.34102C44.6232 1.24529 44.8434 1.31039 44.9391 1.48662C45.0349 1.66285 44.9696 1.88325 44.7935 1.97898L19.2709 15.8478C19.2158 15.8776 19.1563 15.8918 19.0978 15.8918Z" fill="#6CA438"/>
<path id="Vector_38" d="M13.9009 15.534C13.7694 15.534 13.6426 15.4624 13.5781 15.3376C13.486 15.1595 13.5558 14.9404 13.7338 14.8483L40.4065 1.05882C40.5846 0.966866 40.8036 1.03648 40.8957 1.21457C40.9878 1.39266 40.9181 1.61176 40.74 1.70383L14.0673 15.4933C14.014 15.5208 13.957 15.534 13.9009 15.534Z" fill="#6CA438"/>
<path id="Vector_39" d="M8.70387 15.176C8.56995 15.176 8.44116 15.1015 8.37792 14.9733C8.2893 14.7934 8.36326 14.5757 8.54315 14.4871L36.366 0.776798C36.546 0.688176 36.7637 0.762244 36.8522 0.942027C36.9408 1.12192 36.8669 1.33962 36.687 1.42824L8.86408 15.1385C8.81246 15.164 8.75774 15.176 8.70387 15.176Z" fill="#6CA438"/>
<path id="Vector_40" d="M3.5073 14.8181C3.37101 14.8181 3.24048 14.7409 3.17854 14.6095C3.09319 14.428 3.17109 14.2118 3.35251 14.1264L32.3254 0.495202C32.507 0.4094 32.7231 0.487756 32.8085 0.669175C32.8939 0.850594 32.816 1.06688 32.6346 1.15228L3.66165 14.7834C3.61167 14.807 3.55909 14.8181 3.5073 14.8181Z" fill="#6CA438"/>
</g>
<path id="RIGHT_1_" d="M80.8005 18.8369L89.8699 19.4306L89.6784 24.9759L89.6764 24.9757L80.6089 24.3819L81.5993 23.9671L80.6413 23.444L81.6315 23.035L80.6738 22.5044L81.6637 22.1029L80.706 21.5727L81.6959 21.1707L80.7382 20.6409L81.7281 20.2385L80.7703 19.7091L81.7603 19.3064L80.8005 18.8369Z" fill="url(#paint16_linear_938_24566)"/>
<path id="RIGHT_x5F_PERSPECTIVE_1_" d="M89.8701 19.4306L89.6765 24.9757L99.8772 8.42301L100 4.86621L89.8701 19.4306Z" fill="url(#paint17_linear_938_24566)"/>
<path id="SHADOW_1_" opacity="0.3" d="M10.5151 14.1296L9.81054 13.5029L11.6311 13.0741L10.4757 12.5252L12.3971 12.1415L11.4051 11.5617L13.4139 11.2258L12.5921 10.6192L14.6743 10.3334L14.0285 9.70418L16.1694 9.47064L15.7043 8.8232L17.8889 8.64342L17.6075 7.98233L19.8205 7.85761L19.725 7.18755L21.9508 7.11873L22.0417 6.44439L24.2648 6.43198L24.5416 5.75809L26.7463 5.80214L27.207 5.13339L29.3779 5.23369L30.0193 4.57474L32.1411 4.73055L32.9586 4.08611L35.0166 4.29624L36.0046 3.67081L37.9841 3.93391L39.1356 3.33183L41.0229 3.64598L42.3298 3.07155L44.1116 3.43455L45.5648 2.89171L47.2286 3.30108L48.8179 2.79366L50.3521 3.24642L52.0663 2.77809L53.46 3.27113L55.2871 2.84505L56.5307 3.37487L58.4579 2.99409L59.5425 3.55702L61.5562 3.22414L62.4743 3.81629L64.5605 3.53367L65.3057 4.15081L67.4497 3.92048L68.0166 4.55827L70.2034 4.38182L70.5882 5.03579L72.8024 4.91445L73.0023 5.57999L75.2284 5.51467L75.2421 6.18715L77.4644 6.17824L77.2917 6.85298L79.4948 6.90047L79.1369 7.57273L81.3053 7.67641L80.7648 8.34145L82.8831 8.50058L82.1638 9.15366L84.2173 9.36712L83.3241 10.0038L85.2985 10.27L84.2378 10.8857L86.119 11.2029L84.8982 11.7934L86.6732 12.1593L85.3008 12.7203L86.957 13.1324L88.3834 4.06608L29.3543 0L0.400435 13.2408L0.202148 18.9803L10.3288 19.6588L9.36918 19.1853L10.3586 18.7963L9.40139 18.2532L10.3911 17.8568L9.43354 17.321L10.4233 16.925L9.46575 16.3889L10.4555 15.9932L9.49892 15.4298L10.4886 15.0346L9.53113 14.4977L10.5151 14.1296Z" fill="#052160"/>
<path id="LEFT_1_" d="M9.78888 13.8876L0.400436 13.2409L0.208862 18.7858L9.59793 19.415L8.63825 18.9415L9.62771 18.5525L8.67047 18.0093L9.6602 17.6129L8.70268 17.0772L9.69236 16.6811L8.73483 16.145L9.72457 15.7494L8.768 15.186L9.75768 14.7907L8.80021 14.2538L9.78888 13.8876Z" fill="url(#paint18_linear_938_24566)"/>
<path id="TOP_1_" d="M29.3544 0L0.400513 13.2408L9.78896 13.8875L9.08443 13.2608L10.905 12.8321L9.74964 12.2831L11.6711 11.8995L10.679 11.3196L12.6878 10.9838L11.8661 10.3771L13.9482 10.0914L13.3025 9.46212L15.4434 9.22857L14.9782 8.58114L17.1628 8.40136L16.8815 7.74027L19.0944 7.61555L18.9989 6.94549L21.2247 6.87667L21.3157 6.20233L23.5387 6.18992L23.8155 5.51602L26.0202 5.56008L26.4809 4.89138L28.6518 4.99162L29.2932 4.33274L31.415 4.48849L32.2326 3.84405L34.2905 4.05423L35.2785 3.4288L37.258 3.69185L38.4095 3.08977L40.2968 3.40392L41.6038 2.82949L43.3855 3.19249L44.8387 2.64965L46.5026 3.05902L48.0918 2.5516L49.626 3.00442L51.3402 2.53603L52.7339 3.02907L54.561 2.60299L55.8046 3.13287L57.7317 2.75203L58.8164 3.31502L60.8301 2.98213L61.7482 3.57423L63.8344 3.29166L64.5796 3.90875L66.7236 3.67842L67.2906 4.31621L69.4773 4.13975L69.8621 4.79373L72.0763 4.67239L72.2763 5.33799L74.5023 5.27261L74.516 5.94515L76.7383 5.93618L76.5657 6.61091L78.7687 6.65847L78.4109 7.33072L80.5792 7.43441L80.0387 8.09939L82.1571 8.25852L81.4377 8.91165L83.4912 9.12506L82.5981 9.76172L84.5724 10.028L83.5117 10.6437L85.3929 10.9609L84.1721 11.5513L85.9471 11.9172L84.5747 12.4783L86.231 12.8904L84.7167 13.418L86.2426 13.8734L84.5971 14.3641L85.9819 14.8595L84.2166 15.3097L85.4508 15.8417L83.5781 16.2482L84.6528 16.8131L82.6859 17.1732L83.5936 17.767L81.5463 18.0781L82.2808 18.6966L80.8005 18.8369L89.87 19.4306L100 4.86622L29.3544 0Z" fill="url(#paint19_linear_938_24566)"/>
</g>
<path id="OUTLINE" d="M80.6493 24.3897C80.5995 24.3897 80.5527 24.3585 80.5352 24.3088C80.5129 24.2457 80.5462 24.1767 80.6091 24.1545L81.3029 23.9431L80.5833 23.55C80.5424 23.5278 80.5179 23.4839 80.5204 23.4373C80.523 23.3907 80.5521 23.3498 80.5951 23.3321L81.353 23.0191L80.6151 22.6102C80.5743 22.5875 80.5501 22.5435 80.5529 22.497C80.5557 22.4504 80.585 22.4097 80.6282 22.3923L81.3834 22.0859L80.6473 21.6784C80.6065 21.6557 80.5823 21.6117 80.5851 21.5652C80.5879 21.5187 80.6172 21.478 80.6605 21.4605L81.4155 21.1537L80.6795 20.7467C80.6387 20.7242 80.6145 20.68 80.6174 20.6335C80.6201 20.5871 80.6494 20.5462 80.6927 20.5288L81.4479 20.2217L80.7119 19.8149C80.671 19.7925 80.6468 19.7485 80.6496 19.7019C80.6523 19.6554 80.6817 19.6145 80.7248 19.597L81.4641 19.2961L80.7473 18.9456C80.6987 18.9217 80.6717 18.8685 80.6815 18.8151C80.6912 18.7619 80.7352 18.7215 80.789 18.7163L81.9821 18.6033L81.4682 18.1705C81.4319 18.1398 81.4168 18.0909 81.4297 18.045C81.4426 17.9994 81.4811 17.9654 81.528 17.9583L83.2623 17.6947L82.6195 17.2742C82.5782 17.2472 82.5574 17.1976 82.5672 17.1492C82.577 17.1005 82.6154 17.0629 82.6641 17.0539L84.2861 16.757L83.5218 16.3552C83.4767 16.3316 83.4512 16.2822 83.4581 16.2318C83.465 16.1815 83.5026 16.1406 83.5524 16.13L85.0564 15.8033L84.1687 15.4206C84.1211 15.4 84.0919 15.3516 84.0959 15.3C84.1 15.2482 84.1365 15.205 84.1867 15.1922L85.5683 14.8398L84.5562 14.4777C84.5069 14.4602 84.4745 14.4127 84.476 14.3605C84.4774 14.3083 84.5122 14.2629 84.5624 14.2477L85.8191 13.8731L84.6821 13.5339C84.6319 13.5188 84.5969 13.4731 84.5957 13.4207C84.5945 13.3682 84.6274 13.321 84.6768 13.3037L85.8076 12.9094L84.5455 12.5956C84.4946 12.5828 84.4578 12.5391 84.454 12.4869C84.4502 12.4346 84.4803 12.3859 84.5288 12.3661L85.5334 11.9553L84.1475 11.6695C84.0967 11.6591 84.0582 11.6175 84.0519 11.566C84.0455 11.5145 84.0726 11.4648 84.1192 11.4421L84.9985 11.0169L83.4915 10.7628C83.4412 10.7543 83.4016 10.7153 83.3924 10.6649C83.3833 10.6148 83.4067 10.5645 83.4508 10.5387L84.206 10.1005L82.5818 9.88121C82.5327 9.87461 82.4924 9.83867 82.4805 9.79044C82.4686 9.74221 82.4874 9.69166 82.5278 9.66278L83.1602 9.21205L81.425 9.03171C81.3775 9.02674 81.3375 8.99436 81.3226 8.94901C81.3077 8.90388 81.3209 8.85401 81.3562 8.82186L81.8672 8.35787L80.0294 8.22006C79.9845 8.21651 79.9452 8.18864 79.9275 8.14723C79.9096 8.10566 79.9162 8.05788 79.9446 8.0229L80.3342 7.54357L78.4049 7.45117C78.3635 7.44925 78.3259 7.42635 78.3055 7.39019C78.2849 7.35426 78.2844 7.31009 78.3039 7.27342L78.5693 6.77491L76.5629 6.73164C76.526 6.73068 76.4914 6.7132 76.4691 6.68392C76.4467 6.65436 76.4392 6.61634 76.4483 6.58063L76.5822 6.05758L74.5163 6.06587C74.4505 6.06587 74.3961 6.01319 74.3948 5.94724L74.3837 5.397L72.2796 5.45894C72.2248 5.46227 72.176 5.42515 72.1602 5.37269L71.9877 4.79831L69.8686 4.91435C69.8251 4.91886 69.7807 4.89404 69.7576 4.855L69.4114 4.26624L67.3002 4.43666C67.2626 4.43925 67.2254 4.42509 67.2001 4.39649L66.6745 3.80513L64.5925 4.02897C64.5598 4.03202 64.5275 4.02282 64.5025 4.00178L63.7981 3.41843L61.7645 3.69377C61.7366 3.69755 61.7071 3.6914 61.6827 3.67555L60.8038 3.10873L58.8362 3.43422C58.8108 3.43846 58.7839 3.43422 58.7607 3.42215L57.7137 2.87874L55.8281 3.25123C55.8039 3.25619 55.7795 3.25337 55.7572 3.24389L54.5501 2.72959L52.7614 3.14675C52.7391 3.15217 52.7155 3.15076 52.6935 3.14297L51.3356 2.66246L49.6579 3.12103C49.6365 3.12695 49.6135 3.12695 49.5917 3.12029L48.0933 2.67809L46.5394 3.17422C46.5181 3.18111 46.4955 3.18178 46.4737 3.17637L44.8462 2.77596L43.4279 3.30566C43.4066 3.31345 43.3836 3.31537 43.3615 3.31085L41.6173 2.95557L40.3455 3.51478C40.324 3.52398 40.3003 3.52753 40.2769 3.5233L38.4295 3.2158L37.314 3.79915C37.2919 3.81049 37.2667 3.81523 37.242 3.8119L35.3061 3.55449L34.3552 4.15652C34.3322 4.17096 34.305 4.17733 34.2782 4.17446L32.2689 3.96929L31.4899 4.58361C31.4663 4.60256 31.4359 4.61198 31.4062 4.60939L29.3406 4.45742L28.7385 5.07597C28.7144 5.10056 28.6799 5.11568 28.6462 5.11235L26.5424 5.01544L26.1198 5.62857C26.0967 5.66214 26.0498 5.68341 26.0178 5.68104L23.896 5.63873L23.6507 6.23601C23.6321 6.28114 23.5883 6.3107 23.5395 6.31093L21.4216 6.32277L21.3446 6.89264C21.3367 6.95148 21.2875 6.99571 21.2285 6.99757L19.1377 7.06233L19.2144 7.5984C19.2191 7.63197 19.2096 7.66599 19.1881 7.69199C19.1666 7.71822 19.1351 7.7343 19.1014 7.73622L17.0604 7.85135L17.2742 8.35409C17.2894 8.3898 17.2866 8.4307 17.2665 8.46398C17.2464 8.4971 17.2116 8.51881 17.1728 8.52192L15.2015 8.68433L15.5419 9.15801C15.5669 9.19299 15.5716 9.23862 15.554 9.27811C15.5366 9.31737 15.4994 9.34428 15.4567 9.34902L13.5709 9.55464L14.0329 10.0047C14.066 10.0371 14.0778 10.0853 14.0634 10.1292C14.0489 10.1732 14.0107 10.2051 13.9649 10.2113L12.1775 10.4566L12.7599 10.8866C12.799 10.9154 12.8171 10.9648 12.8057 11.0121C12.7944 11.0594 12.7559 11.0953 12.708 11.1033L11.0288 11.3841L11.7322 11.7951C11.7756 11.8204 11.7987 11.87 11.7905 11.9197C11.7822 11.9691 11.7441 12.0083 11.6948 12.0182L10.1312 12.3305L10.957 12.7228C11.0034 12.7448 11.0308 12.7937 11.0254 12.8448C11.02 12.8958 10.9828 12.9381 10.9329 12.9497L9.33896 13.3251L9.86957 13.7971C9.90122 13.8254 9.91588 13.8682 9.90799 13.9101C9.9002 13.9516 9.87098 13.9864 9.83115 14.001L9.08788 14.2761L9.81694 14.685C9.85761 14.7079 9.88158 14.7522 9.87848 14.7987C9.87544 14.845 9.84588 14.8857 9.80261 14.903L9.0419 15.2067L9.78608 15.6451C9.82579 15.6685 9.84881 15.7125 9.84531 15.7585C9.84176 15.8046 9.81248 15.8446 9.76955 15.8616L9.01522 16.1632L9.7515 16.5754C9.79229 16.5983 9.81615 16.6423 9.81321 16.6888C9.81017 16.7354 9.78072 16.776 9.73734 16.7933L8.98312 17.0952L9.7194 17.5071C9.76007 17.53 9.78405 17.574 9.78112 17.6206C9.77807 17.6671 9.74862 17.7078 9.70535 17.725L8.94899 18.0281L9.68753 18.4472C9.7282 18.4701 9.75184 18.5143 9.74851 18.5608C9.74529 18.6074 9.71551 18.6478 9.67219 18.6649L8.9372 18.9539L9.6446 19.1853C9.70451 19.2149 9.72922 19.2874 9.69954 19.3474C9.6701 19.4072 9.59778 19.4321 9.53753 19.4023L8.5848 19.0499C8.54193 19.0288 8.51541 18.9842 8.51744 18.9364C8.51947 18.8884 8.54948 18.8464 8.59405 18.8289L9.34771 18.5325L8.61097 18.1144C8.57041 18.0915 8.54678 18.0475 8.54988 18.001C8.55309 17.9546 8.58249 17.9142 8.62564 17.8969L9.3802 17.5946L8.6438 17.1827C8.60313 17.1597 8.57916 17.1157 8.58209 17.0692C8.58514 17.0227 8.61458 16.982 8.65796 16.9647L9.41219 16.6629L8.6759 16.2507C8.63512 16.2278 8.61126 16.1838 8.61419 16.1372C8.61723 16.0907 8.64668 16.05 8.69006 16.0328L9.45094 15.7286L8.70665 15.2902C8.66693 15.2668 8.64392 15.2228 8.64741 15.1767C8.65097 15.1306 8.68025 15.0907 8.72318 15.0737L9.47762 14.7723L8.74111 14.3594C8.69999 14.3362 8.67602 14.2913 8.67968 14.2442C8.68335 14.1972 8.71409 14.1566 8.75826 14.1402L9.55812 13.8441L9.00399 13.3512C8.97031 13.3212 8.95615 13.2749 8.9671 13.2309C8.97821 13.1872 9.01274 13.1532 9.05668 13.143L10.5415 12.7932L9.6978 12.3923C9.65064 12.3701 9.62322 12.32 9.62959 12.2682C9.63597 12.2164 9.67484 12.1746 9.726 12.1645L11.3349 11.8433L10.6179 11.4242C10.574 11.3984 10.5508 11.3481 10.56 11.2977C10.5692 11.2476 10.6088 11.2088 10.659 11.2003L12.3863 10.9115L11.7942 10.4745C11.7546 10.4452 11.7366 10.3948 11.7488 10.3471C11.761 10.2996 11.8008 10.2639 11.8496 10.2573L13.6864 10.0051L13.218 9.54889C13.1846 9.51606 13.1729 9.46709 13.1881 9.4227C13.2034 9.37847 13.2429 9.34705 13.2894 9.34186L15.224 9.13077L14.8799 8.65189C14.8545 8.61646 14.8501 8.57009 14.8683 8.53038C14.8866 8.49089 14.9248 8.46421 14.9683 8.46065L16.9859 8.29447L16.7702 7.7875C16.7548 7.75134 16.7579 7.70976 16.7787 7.67642C16.7995 7.64286 16.8354 7.62159 16.8747 7.61945L18.9561 7.502L18.879 6.96259C18.8742 6.92858 18.8841 6.89405 18.9062 6.86782C18.9285 6.84136 18.9607 6.82574 18.9951 6.82455L21.1185 6.75883L21.1957 6.18614C21.2038 6.12635 21.2547 6.08144 21.315 6.08122L23.4575 6.06937L23.7037 5.46994C23.7226 5.42386 23.7776 5.39999 23.818 5.39503L25.9576 5.43779L26.3814 4.82279C26.405 4.78804 26.4448 4.76678 26.4866 4.77056L28.6031 4.86815L29.2066 4.24819C29.2316 4.22241 29.2662 4.2087 29.3022 4.2118L31.3772 4.36451L32.1577 3.749C32.1823 3.72937 32.2141 3.71967 32.2449 3.72373L34.2614 3.92957L35.2139 3.32637C35.238 3.31125 35.2669 3.30532 35.2947 3.30865L37.2361 3.56674L38.3536 2.98243C38.377 2.97035 38.4033 2.96567 38.4295 2.97035L40.2813 3.27859L41.5551 2.71865C41.5783 2.70894 41.6036 2.7059 41.628 2.71086L43.3759 3.06682L44.7967 2.53621C44.8192 2.52792 44.8442 2.52651 44.8679 2.53221L46.4984 2.93329L48.0552 2.43619C48.0784 2.42886 48.1028 2.42863 48.1262 2.43546L49.6273 2.87863L51.3083 2.41916C51.3321 2.41278 51.3574 2.41374 51.3806 2.42175L52.7409 2.903L54.5336 2.48488C54.5587 2.47918 54.585 2.48132 54.6085 2.49148L55.8178 3.00674L57.7083 2.6333C57.7354 2.6276 57.7631 2.63211 57.7876 2.64463L58.8364 3.189L60.8105 2.86261C60.8393 2.85691 60.8705 2.86379 60.8958 2.88032L61.7764 3.44805L63.8183 3.17174C63.8511 3.16774 63.8857 3.17693 63.9117 3.19842L64.6175 3.78296L66.7108 3.55793C66.7497 3.55342 66.7882 3.5686 66.814 3.59787L67.341 4.19065L69.4677 4.01904C69.5146 4.01667 69.5582 4.03845 69.5818 4.0781L69.9291 4.66879L72.0698 4.55157C72.1297 4.54615 72.1765 4.58395 72.1924 4.63759L72.3655 5.21434L74.499 5.15145C74.5293 5.15003 74.5624 5.16233 74.586 5.18478C74.6094 5.20701 74.6228 5.23776 74.6235 5.27014L74.6346 5.82347L76.7381 5.81496C76.7754 5.81496 76.8111 5.83222 76.834 5.8615C76.8569 5.89106 76.8651 5.92958 76.8557 5.96597L76.7209 6.49308L78.7715 6.53731C78.8136 6.53826 78.8521 6.56094 78.8733 6.5971C78.8945 6.63349 78.8955 6.67816 78.8757 6.71528L78.6075 7.21876L80.5852 7.31353C80.6308 7.31567 80.6712 7.34331 80.6899 7.38489C80.7085 7.42646 80.7021 7.4752 80.6734 7.51063L80.2788 7.99611L82.1664 8.1377C82.2146 8.14148 82.2559 8.17341 82.2717 8.21927C82.2874 8.26491 82.2744 8.31568 82.2386 8.34811L81.7198 8.81921L83.5039 9.00474C83.5539 9.00993 83.5957 9.04564 83.6084 9.0941C83.6213 9.14278 83.6026 9.19434 83.5616 9.22362L82.9176 9.68264L84.5887 9.90811C84.6399 9.91494 84.6811 9.95375 84.6911 10.0043C84.7013 10.0551 84.678 10.1066 84.6332 10.1326L83.8625 10.5801L85.4131 10.8415C85.4651 10.8502 85.5054 10.8916 85.5129 10.9438C85.5203 10.9958 85.4931 11.0469 85.4457 11.0698L84.5462 11.5047L85.9716 11.7987C86.0238 11.8094 86.0628 11.8528 86.0677 11.906C86.0726 11.959 86.0423 12.0091 85.993 12.0292L84.9633 12.4501L86.2603 12.7727C86.3123 12.7857 86.3496 12.8311 86.352 12.8848C86.3545 12.9382 86.3215 12.9869 86.271 13.0044L85.1102 13.409L86.2773 13.7572C86.3286 13.7725 86.3638 13.8198 86.3638 13.8732C86.3638 13.9266 86.3287 13.9739 86.2773 13.9893L84.9856 14.3743L86.0228 14.7453C86.0729 14.7633 86.1054 14.8117 86.1029 14.8649C86.1004 14.9181 86.0634 14.9633 86.0119 14.9765L84.5908 15.3391L85.4988 15.7305C85.5472 15.7513 85.5764 15.801 85.5714 15.8532C85.5663 15.9057 85.528 15.9487 85.4766 15.9598L83.9291 16.2959L84.7092 16.7057C84.755 16.7296 84.7804 16.78 84.7726 16.831C84.7649 16.8821 84.7255 16.9225 84.6747 16.932L83.0058 17.2376L83.66 17.6656C83.7021 17.6931 83.7228 17.7434 83.7122 17.7926C83.7014 17.8415 83.6616 17.8788 83.6121 17.8864L81.8288 18.1573L82.3589 18.6038C82.3961 18.6352 82.4109 18.686 82.3964 18.7326C82.3818 18.7789 82.3408 18.8123 82.2923 18.817L81.2396 18.9167L81.8137 19.1976C81.8566 19.2186 81.8831 19.2628 81.8814 19.3105C81.8799 19.358 81.8503 19.4004 81.8061 19.4184L81.0508 19.7256L81.7868 20.1326C81.8277 20.1551 81.8519 20.1993 81.8491 20.2456C81.8463 20.2922 81.817 20.3331 81.7739 20.3505L81.0186 20.6576L81.7547 21.0646C81.7955 21.0871 81.8197 21.1313 81.8168 21.1778C81.8141 21.2241 81.7848 21.265 81.7415 21.2825L80.9864 21.5893L81.7225 21.9969C81.7633 22.0195 81.7875 22.0635 81.7847 22.1101C81.7819 22.1566 81.7526 22.1973 81.7094 22.2148L80.9541 22.5213L81.6902 22.9291C81.7309 22.9515 81.7551 22.9955 81.7524 23.0418C81.7498 23.0884 81.7207 23.129 81.6778 23.1468L80.9217 23.459L81.6575 23.861C81.6994 23.8839 81.7239 23.9293 81.7201 23.9768C81.7162 24.0246 81.6846 24.0655 81.6396 24.0813L80.6896 24.3828C80.6762 24.3876 80.6627 24.3897 80.6493 24.3897Z" fill="url(#paint20_linear_938_24566)"/>
</g>
<defs>
<linearGradient id="paint0_linear_938_24566" x1="19.2477" y1="6.46686" x2="20.7906" y2="9.09902" gradientUnits="userSpaceOnUse">
<stop stop-color="#DB7272"/>
<stop offset="1" stop-color="#944343"/>
</linearGradient>
<linearGradient id="paint1_linear_938_24566" x1="23.9656" y1="6.94979" x2="25.315" y2="9.25171" gradientUnits="userSpaceOnUse">
<stop stop-color="#DB7272"/>
<stop offset="1" stop-color="#944343"/>
</linearGradient>
<linearGradient id="paint2_linear_938_24566" x1="28.7168" y1="7.48853" x2="29.9659" y2="9.61931" gradientUnits="userSpaceOnUse">
<stop stop-color="#DB7272"/>
<stop offset="1" stop-color="#944343"/>
</linearGradient>
<linearGradient id="paint3_linear_938_24566" x1="33.3248" y1="7.78328" x2="34.5739" y2="9.91405" gradientUnits="userSpaceOnUse">
<stop stop-color="#DB7272"/>
<stop offset="1" stop-color="#944343"/>
</linearGradient>
<linearGradient id="paint4_linear_938_24566" x1="37.9841" y1="8.16585" x2="39.2333" y2="10.2967" gradientUnits="userSpaceOnUse">
<stop stop-color="#DB7272"/>
<stop offset="1" stop-color="#944343"/>
</linearGradient>
<linearGradient id="paint5_linear_938_24566" x1="42.5797" y1="8.43898" x2="43.9353" y2="10.7514" gradientUnits="userSpaceOnUse">
<stop stop-color="#DB7272"/>
<stop offset="1" stop-color="#944343"/>
</linearGradient>
<linearGradient id="paint6_linear_938_24566" x1="51.7241" y1="8.90563" x2="53.2174" y2="11.4531" gradientUnits="userSpaceOnUse">
<stop stop-color="#DB7272"/>
<stop offset="1" stop-color="#944343"/>
</linearGradient>
<linearGradient id="paint7_linear_938_24566" x1="47.2046" y1="8.76153" x2="48.6405" y2="11.2111" gradientUnits="userSpaceOnUse">
<stop stop-color="#DB7272"/>
<stop offset="1" stop-color="#944343"/>
</linearGradient>
<linearGradient id="paint8_linear_938_24566" x1="56.2979" y1="9.14303" x2="57.9169" y2="11.9049" gradientUnits="userSpaceOnUse">
<stop stop-color="#DB7272"/>
<stop offset="1" stop-color="#944343"/>
</linearGradient>
<linearGradient id="paint9_linear_938_24566" x1="60.8925" y1="9.41509" x2="62.536" y2="12.2187" gradientUnits="userSpaceOnUse">
<stop stop-color="#DB7272"/>
<stop offset="1" stop-color="#944343"/>
</linearGradient>
<linearGradient id="paint10_linear_938_24566" x1="65.5591" y1="9.80878" x2="67.174" y2="12.5635" gradientUnits="userSpaceOnUse">
<stop stop-color="#DB7272"/>
<stop offset="1" stop-color="#944343"/>
</linearGradient>
<linearGradient id="paint11_linear_938_24566" x1="70.085" y1="9.96237" x2="71.8237" y2="12.9284" gradientUnits="userSpaceOnUse">
<stop stop-color="#DB7272"/>
<stop offset="1" stop-color="#944343"/>
</linearGradient>
<linearGradient id="paint12_linear_938_24566" x1="74.6113" y1="10.1161" x2="76.5469" y2="13.418" gradientUnits="userSpaceOnUse">
<stop stop-color="#DB7272"/>
<stop offset="1" stop-color="#944343"/>
</linearGradient>
<linearGradient id="paint13_linear_938_24566" x1="79.1375" y1="10.2701" x2="81.2087" y2="13.8033" gradientUnits="userSpaceOnUse">
<stop stop-color="#DB7272"/>
<stop offset="1" stop-color="#944343"/>
</linearGradient>
<linearGradient id="paint14_linear_938_24566" x1="83.6638" y1="10.4235" x2="85.8346" y2="14.1268" gradientUnits="userSpaceOnUse">
<stop stop-color="#DB7272"/>
<stop offset="1" stop-color="#944343"/>
</linearGradient>
<linearGradient id="paint15_linear_938_24566" x1="88.1913" y1="10.5772" x2="91.4836" y2="16.1934" gradientUnits="userSpaceOnUse">
<stop stop-color="#DB7272"/>
<stop offset="1" stop-color="#944343"/>
</linearGradient>
<linearGradient id="paint16_linear_938_24566" x1="84.7271" y1="17.8863" x2="85.2472" y2="25.8875" gradientUnits="userSpaceOnUse">
<stop stop-color="#AD4B52"/>
<stop offset="0.1373" stop-color="#B0464B"/>
<stop offset="0.6528" stop-color="#BB3637"/>
<stop offset="1" stop-color="#BF3030"/>
</linearGradient>
<linearGradient id="paint17_linear_938_24566" x1="92.7462" y1="13.5698" x2="95.4388" y2="15.6026" gradientUnits="userSpaceOnUse">
<stop stop-color="#AD4B52"/>
<stop offset="0.0493" stop-color="#AF474E"/>
<stop offset="0.2064" stop-color="#B44145"/>
<stop offset="0.4833" stop-color="#B53F43"/>
<stop offset="1" stop-color="#BF3030"/>
</linearGradient>
<linearGradient id="paint18_linear_938_24566" x1="4.75015" y1="14.3793" x2="5.05124" y2="19.0116" gradientUnits="userSpaceOnUse">
<stop stop-color="#AD4B52"/>
<stop offset="0.1373" stop-color="#B0464B"/>
<stop offset="0.6528" stop-color="#BB3637"/>
<stop offset="1" stop-color="#BF3030"/>
</linearGradient>
<linearGradient id="paint19_linear_938_24566" x1="51.7684" y1="17.1622" x2="49.0376" y2="-5.49436" gradientUnits="userSpaceOnUse">
<stop stop-color="#AD4B52"/>
<stop offset="0.2887" stop-color="#AF494F"/>
<stop offset="0.4986" stop-color="#B44146"/>
<stop offset="0.5382" stop-color="#B53F43"/>
<stop offset="1" stop-color="#BF3030"/>
</linearGradient>
<linearGradient id="paint20_linear_938_24566" x1="8.51722" y1="13.4024" x2="86.3635" y2="13.4024" gradientUnits="userSpaceOnUse">
<stop stop-color="#BF3030"/>
<stop offset="0.5" stop-color="#B53F43"/>
<stop offset="1" stop-color="#BF3030"/>
</linearGradient>
</defs>
</svg>
