<svg width="24" height="122" viewBox="0 0 24 122" fill="none" xmlns="http://www.w3.org/2000/svg">
<g id="R-ICO-012485">
<path id="BTNL" d="M4.8551 86.8849C4.8551 91.2849 9.4691 93.6849 13.0691 95.5849C14.8691 96.4849 17.0691 97.6849 17.0691 98.3849C17.0691 98.6849 16.6691 99.2849 15.3691 100.085C9.1691 103.985 2.7691 110.585 3.1691 115.885C3.2691 117.585 4.2691 119.885 7.8691 121.285L8.5691 119.485C6.3691 118.585 5.2691 117.385 5.1691 115.685C4.7691 111.485 10.6691 105.385 16.4691 101.685C17.5691 100.985 19.1691 99.7849 19.0691 98.2849C18.8691 96.2849 16.6691 95.1849 13.9691 93.7849C10.6691 92.0849 6.8691 90.1849 6.8691 86.8849H6.855V61.0869C8.583 62.2679 10.646 62.9189 12.764 62.9189C18.53 62.9189 23.221 58.2279 23.221 52.4619C23.221 46.6949 18.53 42.0039 12.764 42.0039C10.307 42.0039 7.923 42.8809 6.052 44.4429L4.078 41.2439C5.247 41.6839 6.495 41.9179 7.763 41.9179C13.53 41.9179 18.221 37.2269 18.221 31.4599C18.221 25.6939 13.53 21.0029 7.763 21.0029C6.5 21.0029 5.258 21.2339 4.094 21.6709L6.066 18.4879C7.935 20.0429 10.314 20.9159 12.764 20.9159C18.53 20.9159 23.221 16.2249 23.221 10.4579C23.221 4.6909 18.53 0 12.764 0C9.881 0 7.098 1.208 5.127 3.312L6.588 4.678C8.204 2.95 10.398 1.999 12.764 1.999C17.427 1.999 21.221 5.793 21.221 10.457C21.221 15.121 17.427 18.915 12.764 18.915C10.4 18.915 8.207 17.964 6.589 16.237L5.01 16.394L0.002 24.477L1.582 25.686C3.199 23.955 5.394 23.001 7.763 23.001C12.427 23.001 16.221 26.795 16.221 31.458C16.221 36.122 12.427 39.916 7.763 39.916C5.395 39.916 3.201 38.963 1.582 37.231L0 38.438L4.993 46.536L6.576 46.693C8.171 44.983 10.427 44.002 12.764 44.002C17.427 44.002 21.221 47.796 21.221 52.46C21.221 57.123 17.427 60.917 12.764 60.917C10.397 60.917 8.202 59.965 6.585 58.235L4.855 58.918L4.8551 86.8849Z" fill="url(#paint0_linear_938_24306)"/>
</g>
<defs>
<linearGradient id="paint0_linear_938_24306" x1="-0.1209" y1="60.6425" x2="23.1347" y2="60.6425" gradientUnits="userSpaceOnUse">
<stop stop-color="#EA6924"/>
<stop offset="1" stop-color="#00104F"/>
</linearGradient>
</defs>
</svg>
