<svg width="41" height="157" viewBox="0 0 41 157" fill="none" xmlns="http://www.w3.org/2000/svg">
<g id="R-ICO-013965">
<g id="R-ICO-013960">
<path id="Beta" d="M39.2797 2.28882e-05L23.3414 0.00452423C22.4699 0.0047226 21.7636 0.711327 21.7636 1.58273V61.1971C21.7636 61.9902 22.3542 62.6493 23.1396 62.7592C30.5386 63.7948 36.4126 68.9996 37.7297 75.6373C37.8782 76.3856 38.5173 76.9343 39.2801 76.9343C40.1518 76.9343 40.8584 76.2277 40.8584 75.3561V1.57832C40.8584 0.706421 40.1515 -0.000175476 39.2797 2.28882e-05Z" fill="url(#paint0_linear_938_22972)"/>
<path id="Alpha" d="M19.092 61.1975V1.58372C19.092 0.712326 18.3857 0.00582123 17.5143 0.00552368L1.57894 0.000228882C0.707142 -6.86646e-05 0.000141144 0.706619 0.000141144 1.57842V75.3561C0.000141144 76.2277 0.706741 76.9343 1.57844 76.9343C2.34134 76.9343 2.98034 76.3856 3.12884 75.6373C4.44584 69.0004 10.3185 63.7961 17.7162 62.7596C18.5015 62.6496 19.092 61.9905 19.092 61.1975Z" fill="url(#paint1_linear_938_22972)"/>
</g>
<g id="R-ICO-013967">
<path id="Beta_2" d="M1.57854 80.0708C0.706844 80.0708 0.000244141 80.7774 0.000244141 81.649V155.416C0.000244141 156.287 0.706544 156.994 1.57794 156.994L17.5162 157C18.388 157 19.095 156.293 19.095 155.421V95.808C19.095 95.0149 18.5044 94.3558 17.719 94.2459C10.32 93.2103 4.44604 88.0055 3.12894 81.3678C2.98044 80.6195 2.34134 80.0708 1.57854 80.0708Z" fill="url(#paint2_linear_938_22972)"/>
<path id="Alpha_2" d="M21.7666 95.8076V155.421C21.7666 156.292 22.4735 156.999 23.3453 156.999L39.2807 156.994C40.1522 156.994 40.8585 156.287 40.8585 155.416V81.649C40.8585 80.7774 40.1519 80.0708 39.2802 80.0708C38.5173 80.0708 37.8783 80.6195 37.7298 81.3678C36.4128 88.0047 30.5401 93.209 23.1424 94.2455C22.3571 94.3555 21.7666 95.0146 21.7666 95.8076Z" fill="url(#paint3_linear_938_22972)"/>
</g>
</g>
<defs>
<linearGradient id="paint0_linear_938_22972" x1="31.3109" y1="76.5654" x2="31.3109" y2="-0.368877" gradientUnits="userSpaceOnUse">
<stop offset="0.0015" stop-color="#C6BA00"/>
<stop offset="1" stop-color="#003A3C"/>
</linearGradient>
<linearGradient id="paint1_linear_938_22972" x1="9.54614" y1="76.5654" x2="9.54614" y2="-0.368772" gradientUnits="userSpaceOnUse">
<stop offset="0.0015" stop-color="#C6BA00"/>
<stop offset="1" stop-color="#003A3C"/>
</linearGradient>
<linearGradient id="paint2_linear_938_22972" x1="9.54765" y1="80.4397" x2="9.54765" y2="157.369" gradientUnits="userSpaceOnUse">
<stop offset="0.0015" stop-color="#7000BF"/>
<stop offset="0.2061" stop-color="#95219F"/>
<stop offset="0.4273" stop-color="#B73E84"/>
<stop offset="0.639" stop-color="#CF536F"/>
<stop offset="0.835" stop-color="#DD6063"/>
<stop offset="1" stop-color="#E2645F"/>
</linearGradient>
<linearGradient id="paint3_linear_938_22972" x1="31.3125" y1="80.4397" x2="31.3125" y2="157.368" gradientUnits="userSpaceOnUse">
<stop offset="0.0015" stop-color="#7000BF"/>
<stop offset="0.2061" stop-color="#95219F"/>
<stop offset="0.4273" stop-color="#B73E84"/>
<stop offset="0.639" stop-color="#CF536F"/>
<stop offset="0.835" stop-color="#DD6063"/>
<stop offset="1" stop-color="#E2645F"/>
</linearGradient>
</defs>
</svg>
