<svg width="72" height="101" viewBox="0 0 72 101" fill="none" xmlns="http://www.w3.org/2000/svg">
<g id="R-ICO-013950">
<path id="BG" d="M71.092 64.5024C71.092 84.1339 55.1775 100.048 35.546 100.048C15.9145 100.048 0 84.134 0 64.5024C0 44.8708 15.9145 16.219 35.546 16.219C55.1775 16.219 71.092 44.8709 71.092 64.5024Z" fill="url(#paint0_radial_938_25204)"/>
<path id="Membrane" d="M35.546 17.219C40.5418 17.219 50.3424 19.3413 59.8496 33.5548C66.1673 43 70.092 54.8584 70.092 64.5023C70.092 83.551 54.5947 99.0483 35.546 99.0483C16.4973 99.0483 1 83.5511 1 64.5023C1 54.8584 4.9247 43 11.2424 33.5548C20.7496 19.3413 30.5502 17.219 35.546 17.219ZM35.546 16.219C15.9145 16.219 0 44.8708 0 64.5023C0 84.1338 15.9145 100.048 35.546 100.048C55.1775 100.048 71.092 84.1338 71.092 64.5023C71.092 44.8708 55.1775 16.219 35.546 16.219Z" fill="#276FE2"/>
<g id="R-ICO-013121">
<g id="Nucleus">
<mask id="path-3-inside-1_938_25204" fill="white">
<path d="M45.5559 88.1982C51.0843 88.1982 55.5659 83.7166 55.5659 78.1882C55.5659 72.6599 51.0843 68.1782 45.5559 68.1782C40.0275 68.1782 35.5459 72.6599 35.5459 78.1882C35.5459 83.7166 40.0275 88.1982 45.5559 88.1982Z"/>
</mask>
<path d="M45.5559 88.1982C51.0843 88.1982 55.5659 83.7166 55.5659 78.1882C55.5659 72.6599 51.0843 68.1782 45.5559 68.1782C40.0275 68.1782 35.5459 72.6599 35.5459 78.1882C35.5459 83.7166 40.0275 88.1982 45.5559 88.1982Z" fill="url(#paint1_radial_938_25204)" stroke="#5656A5" stroke-width="1.5015" mask="url(#path-3-inside-1_938_25204)"/>
</g>
<g id="R-ICO-013619">
<g id="Nucleolus">
<mask id="path-4-inside-2_938_25204" fill="white">
<path d="M40.8484 84.2891C41.8159 84.2891 42.6002 83.5049 42.6002 82.5374C42.6002 81.5699 41.8159 80.7856 40.8484 80.7856C39.881 80.7856 39.0967 81.5699 39.0967 82.5374C39.0967 83.5049 39.881 84.2891 40.8484 84.2891Z"/>
</mask>
<path d="M40.8484 84.2891C41.8159 84.2891 42.6002 83.5049 42.6002 82.5374C42.6002 81.5699 41.8159 80.7856 40.8484 80.7856C39.881 80.7856 39.0967 81.5699 39.0967 82.5374C39.0967 83.5049 39.881 84.2891 40.8484 84.2891Z" fill="url(#paint2_radial_938_25204)" stroke="#4B4C96" stroke-width="0.35035" mask="url(#path-4-inside-2_938_25204)"/>
</g>
</g>
</g>
<path id="KINETOPLAST" d="M35.5464 52.6269C38.9499 52.6269 41.709 51.1006 41.709 49.2177C41.709 47.3347 38.9499 45.8083 35.5464 45.8083C32.1429 45.8083 29.3838 47.3347 29.3838 49.2177C29.3838 51.1006 32.1429 52.6269 35.5464 52.6269Z" fill="url(#paint3_radial_938_25204)"/>
<path id="Flagellar pocket" d="M35.5457 39.9101C39.1435 39.9101 42.06 36.1465 42.06 31.5039C42.06 26.8612 39.1435 23.0977 35.5457 23.0977C31.9478 23.0977 29.0312 26.8612 29.0312 31.5039C29.0312 36.1465 31.9478 39.9101 35.5457 39.9101Z" fill="url(#paint4_radial_938_25204)"/>
<path id="FLAGELLUM" d="M47.3876 0.0929881C45.7812 1.08419 44.2235 2.14389 42.8012 3.33629C41.3771 4.52669 40.1471 5.91449 39.2052 7.44659C37.2692 10.5076 36.7512 14.2115 36.657 17.8947C36.61 21.6016 36.8309 25.3602 37.0209 29.1368C37.1407 31.0442 37.1633 32.8993 37.3178 34.6743C37.4057 35.564 37.572 36.4334 37.8467 37.2293C38.1228 38.0323 38.538 38.7103 39.307 39.2312C40.739 40.2012 41.1136 42.1485 40.1436 43.5805C39.1736 45.0125 37.2263 45.3871 35.7943 44.4171C34.9011 43.8121 34.4194 42.827 34.4186 41.8238L34.4219 41.3552C34.4297 40.1506 34.2844 39.017 34.1946 37.9705C34.098 36.9176 34.0409 35.9111 33.9915 34.9207C33.8598 32.9332 33.9703 31.0129 34.0569 29.1508C34.2309 25.3876 34.2749 21.5988 34.6484 17.7731C34.8589 15.8638 35.0783 13.9324 35.6099 12.0381C36.1166 10.147 36.9359 8.29689 38.0956 6.69869C39.2589 5.09959 40.7478 3.79589 42.328 2.71699C43.9076 1.62509 45.6012 0.746388 47.3418 0.0042881C47.3673 -0.0066119 47.3967 0.0052881 47.4076 0.0307881C47.4173 0.0536881 47.4084 0.0801881 47.3876 0.0929881Z" fill="url(#paint5_linear_938_25204)"/>
</g>
<defs>
<radialGradient id="paint0_radial_938_25204" cx="0" cy="0" r="1" gradientUnits="userSpaceOnUse" gradientTransform="translate(35.546 58.1315) scale(32.6854 46.1583)">
<stop stop-color="#A0C2F2"/>
<stop offset="1" stop-color="#21549B"/>
</radialGradient>
<radialGradient id="paint1_radial_938_25204" cx="0" cy="0" r="1" gradientUnits="userSpaceOnUse" gradientTransform="translate(42.9531 74.0202) scale(13.1562)">
<stop stop-color="#AFBAF7"/>
<stop offset="0.3111" stop-color="#6D96CE"/>
<stop offset="0.8032" stop-color="#285FCC"/>
</radialGradient>
<radialGradient id="paint2_radial_938_25204" cx="0" cy="0" r="1" gradientUnits="userSpaceOnUse" gradientTransform="translate(40.8497 82.5419) rotate(-15.5149) scale(2.17412)">
<stop stop-color="#B0B7DC"/>
<stop offset="0.3" stop-color="#B697C6"/>
<stop offset="0.8032" stop-color="#525281"/>
</radialGradient>
<radialGradient id="paint3_radial_938_25204" cx="0" cy="0" r="1" gradientUnits="userSpaceOnUse" gradientTransform="translate(35.5464 49.2159) scale(6.1685 3.41735)">
<stop stop-color="#3874FF"/>
<stop offset="1" stop-color="#002884"/>
</radialGradient>
<radialGradient id="paint4_radial_938_25204" cx="0" cy="0" r="1" gradientUnits="userSpaceOnUse" gradientTransform="translate(35.5456 31.5039) scale(7.52 7.52)">
<stop stop-color="#FF389F"/>
<stop offset="1" stop-color="#840044"/>
</radialGradient>
<linearGradient id="paint5_linear_938_25204" x1="40.6711" y1="42.9566" x2="40.6711" y2="-2.61491" gradientUnits="userSpaceOnUse">
<stop offset="0.0006" stop-color="#03103D"/>
<stop offset="1" stop-color="#082799"/>
</linearGradient>
</defs>
</svg>
