<svg width="45" height="23" viewBox="0 0 45 23" fill="none" xmlns="http://www.w3.org/2000/svg">
<g id="R-ICO-012559">
<g id="CHM">
<path d="M1.16602 11.4095C1.16602 5.88667 5.64317 1.40952 11.166 1.40952H33.166C38.6889 1.40952 43.166 5.88667 43.166 11.4095C43.166 16.9324 38.6889 21.4095 33.166 21.4095H11.166C5.64317 21.4095 1.16602 16.9324 1.16602 11.4095Z" fill="url(#paint0_linear_938_23248)"/>
<path d="M37.025 3.82537C35.8451 3.19908 34.5205 2.85201 33.166 2.81626C25.8327 2.64347 18.4994 2.27671 11.166 1.54952C11.166 1.45616 11.166 1.36279 11.166 1.26943C18.4994 0.542236 25.8327 0.175478 33.166 0.00269198C34.9536 -0.0370181 36.7644 0.361863 38.3814 1.16589C42.1894 3.02856 44.6701 7.22665 44.5346 11.4095C44.5175 12.3002 44.3961 13.1889 44.1727 14.0492C42.9785 19.015 37.9985 22.5474 33.1664 22.1754C33.1663 22.1754 33.1662 22.1754 33.166 22.1754C28.7147 21.9316 24.263 21.7562 19.8118 21.8625C16.93 21.9292 14.048 22.1239 11.166 22.3073C9.45765 22.41 7.69396 22.0975 6.09924 21.3608C2.34775 19.6492 -0.155554 15.5187 0.00719666 11.4095C0.0291492 10.5351 0.156191 9.6642 0.385166 8.82423C1.61928 3.97331 6.60654 0.653338 11.166 1.26943C11.166 1.36279 11.166 1.45616 11.166 1.54952C6.73512 2.01352 3.22516 5.41507 2.4941 9.32829C2.35805 10.0144 2.30251 10.7133 2.32475 11.4095C2.40651 14.6723 4.32336 17.707 7.15773 19.2856C8.3601 19.9795 9.73204 20.4129 11.166 20.5114C14.048 20.6944 16.93 20.8886 19.8118 20.9553C24.2631 21.0616 28.7147 20.8875 33.166 20.6438C33.1661 20.6438 33.1663 20.6437 33.1664 20.6437C37.3244 20.4232 40.8404 17.2348 41.6119 13.4371C41.7537 12.7711 41.8149 12.0897 41.7974 11.4095C41.7429 8.22015 39.803 5.25284 37.025 3.82537Z" fill="#855E24"/>
<text id="CHM_2" fill="white" xml:space="preserve" style="white-space: pre" font-family="Arial" font-size="12" font-weight="bold" letter-spacing="0em"><tspan x="8.49609" y="15.5697">CHM</tspan></text>
</g>
</g>
<defs>
<linearGradient id="paint0_linear_938_23248" x1="22.166" y1="1.40952" x2="22.166" y2="21.4095" gradientUnits="userSpaceOnUse">
<stop stop-color="#855E24"/>
<stop offset="1" stop-color="#53A555"/>
</linearGradient>
</defs>
</svg>
