<svg width="83" height="98" viewBox="0 0 83 98" fill="none" xmlns="http://www.w3.org/2000/svg">
<g id="R-ICO-013058">
<g id="p67">
<path id="Vector" d="M64.8374 97.0372H59.8364C54.3136 97.0372 49.8364 92.5601 49.8364 87.0372C49.8364 81.5144 54.3135 77.0372 59.8364 77.0372H64.8374C70.3602 77.0372 74.8374 81.5143 74.8374 87.0372C74.8374 92.5601 70.3602 97.0372 64.8374 97.0372Z" fill="#A17897"/>
<path id="Vector_2" d="M64.8375 97.1872C63.3205 97.1967 61.8034 97.2774 60.2864 97.4465C58.7596 97.6163 57.0566 97.625 55.4513 97.1197C53.8479 96.6284 52.3179 95.7222 51.121 94.4587C49.9186 93.1998 49.0684 91.6014 48.6048 89.9055C48.1542 88.2024 48.1092 86.3953 48.5105 84.6825C48.9143 82.9712 49.7184 81.3692 50.8268 80.0387C51.9219 78.6981 53.3386 77.6341 54.9139 76.9831C56.484 76.3161 58.2011 76.0935 59.8365 76.216C61.3535 76.3458 62.8706 76.4795 64.3876 76.5279C65.936 76.5638 67.5511 76.8198 69.0179 77.4251C70.4975 78.0088 71.8812 78.8847 73.0768 80.0216C74.2761 81.1557 75.2053 82.6265 75.7266 84.2562C76.2385 85.8881 76.324 87.666 75.9308 89.3438C75.5378 91.0237 74.6451 92.5562 73.4824 93.752C72.322 94.9625 70.8754 95.8005 69.3995 96.3559C67.9114 96.8977 66.3775 97.1741 64.8375 97.1872ZM64.8375 96.8872C66.3331 96.8902 67.8258 96.4582 69.0606 95.665C70.3111 94.8944 71.2931 93.7822 71.9737 92.5787C73.3378 90.1644 73.7677 87.4946 73.3068 84.8726C73.0713 83.5715 72.6128 82.2515 71.8169 81.0953C71.0349 79.9323 69.9278 78.9537 68.6315 78.3124C67.3207 77.6675 65.8668 77.4713 64.3876 77.5467C62.8706 77.5951 61.3535 77.7288 59.8365 77.8586C58.4363 77.9912 57.1268 78.477 55.9741 79.145C54.8231 79.8199 53.8112 80.7062 53.0652 81.7796C52.3172 82.847 51.8065 84.06 51.5801 85.3179C51.3772 86.5791 51.4119 87.8799 51.7098 89.1147C52.2874 91.6003 53.9374 93.7989 56.2474 95.2919C57.4197 96.0368 58.7857 96.4977 60.2865 96.6281C61.8034 96.797 63.3204 96.8777 64.8375 96.8872Z" fill="#631E51"/>
</g>
<g id="p40">
<path id="Vector_3" d="M38.7656 97.0372H33.7647C28.2419 97.0372 23.7646 92.5601 23.7646 87.0372C23.7646 81.5144 28.2418 77.0372 33.7647 77.0372H38.7656C44.2885 77.0372 48.7656 81.5143 48.7656 87.0372C48.7656 92.5601 44.2885 97.0372 38.7656 97.0372Z" fill="#A99E77"/>
<path id="Vector_4" d="M38.7658 97.1872C37.2488 97.1967 35.7318 97.2774 34.2147 97.4465C32.6879 97.6163 30.9849 97.625 29.3796 97.1197C27.7762 96.6284 26.2462 95.7222 25.0493 94.4587C23.8468 93.1998 22.9967 91.6014 22.5331 89.9055C22.0825 88.2024 22.0375 86.3953 22.4387 84.6825C22.8425 82.9712 23.6466 81.3692 24.755 80.0387C25.8501 78.6981 27.2668 77.6341 28.8421 76.9831C30.4122 76.3161 32.1293 76.0935 33.7647 76.216C35.2817 76.3458 36.7987 76.4795 38.3158 76.5279C39.8642 76.5638 41.4793 76.8198 42.9461 77.4251C44.4257 78.0088 45.8094 78.8847 47.005 80.0216C48.2043 81.1557 49.1335 82.6265 49.6548 84.2562C50.1667 85.8881 50.2522 87.666 49.859 89.3438C49.466 91.0237 48.5733 92.5562 47.4106 93.752C46.2502 94.9625 44.8036 95.8005 43.3277 96.3559C41.8397 96.8977 40.3059 97.1741 38.7658 97.1872ZM38.7658 96.8872C40.2614 96.8902 41.7541 96.4582 42.9889 95.665C44.2394 94.8944 45.2214 93.7822 45.902 92.5787C47.2661 90.1644 47.696 87.4946 47.2351 84.8726C46.9996 83.5715 46.5411 82.2515 45.7452 81.0953C44.9631 79.9323 43.8561 78.9537 42.5598 78.3124C41.249 77.6675 39.7951 77.4713 38.3159 77.5467C36.7989 77.5951 35.2819 77.7288 33.7648 77.8586C32.3646 77.9912 31.0551 78.477 29.9024 79.145C28.7514 79.8199 27.7394 80.7062 26.9935 81.7796C26.2455 82.847 25.7348 84.06 25.5083 85.3179C25.3054 86.5791 25.3402 87.8799 25.638 89.1147C26.2156 91.6003 27.8656 93.7989 30.1756 95.2919C31.3479 96.0368 32.7139 96.4977 34.2147 96.6281C35.7318 96.797 37.2488 96.8777 38.7658 96.8872Z" fill="#63541E"/>
</g>
<g id="p47">
<path id="Vector_5" d="M16.6013 86.9111H11.6003C6.07754 86.9111 1.60034 82.434 1.60034 76.9111C1.60034 71.3883 6.07744 66.9111 11.6003 66.9111H16.6013C22.1241 66.9111 26.6013 71.3882 26.6013 76.9111C26.6013 82.434 22.1241 86.9111 16.6013 86.9111Z" fill="#77A9A7"/>
<path id="Vector_6" d="M16.6014 87.0611C15.0844 87.0706 13.5673 87.1513 12.0503 87.3204C10.5235 87.4902 8.82055 87.4989 7.21525 86.9936C5.61185 86.5023 4.08185 85.5961 2.88495 84.3326C1.68255 83.0737 0.832345 81.4753 0.368745 79.7794C-0.0818549 78.0763 -0.126855 76.2692 0.274445 74.5564C0.678245 72.8451 1.48234 71.2431 2.59074 69.9126C3.68584 68.572 5.10255 67.508 6.67785 66.857C8.24795 66.19 9.96504 65.9674 11.6004 66.0899C13.1174 66.2196 14.6345 66.3534 16.1515 66.4018C17.6999 66.4377 19.315 66.6937 20.7818 67.299C22.2614 67.8827 23.6451 68.7586 24.8407 69.8955C26.04 71.0296 26.9692 72.5004 27.4905 74.1301C28.0024 75.762 28.0879 77.5399 27.6947 79.2177C27.3017 80.8976 26.409 82.43 25.2463 83.6259C24.0859 84.8364 22.6393 85.6744 21.1634 86.2298C19.6753 86.7716 18.1414 87.048 16.6014 87.0611ZM16.6014 86.7612C18.097 86.7642 19.5897 86.3322 20.8245 85.539C22.075 84.7684 23.057 83.6562 23.7376 82.4527C25.1017 80.0384 25.5316 77.3686 25.0707 74.7466C24.8352 73.4455 24.3767 72.1255 23.5808 70.9693C22.7987 69.8063 21.6917 68.8277 20.3954 68.1864C19.0846 67.5415 17.6307 67.3453 16.1515 67.4207C14.6345 67.469 13.1174 67.6028 11.6004 67.7326C10.2002 67.8652 8.89075 68.351 7.73805 69.019C6.58705 69.6939 5.57505 70.5802 4.82915 71.6536C4.08115 72.721 3.57045 73.934 3.34405 75.1919C3.14115 76.4531 3.17595 77.7539 3.47375 78.9887C4.05134 81.4743 5.70134 83.6729 8.01134 85.1659C9.18365 85.9108 10.5496 86.3717 12.0504 86.5021C13.5673 86.6709 15.0843 86.7516 16.6014 86.7612Z" fill="#1E5654"/>
</g>
<g id="NOX">
<g id="Bonds DOWN">
<path id="Vector_7" d="M52.4986 81.0011C46.1334 81.0011 35.6021 74.2316 35.6021 66.5177C35.6021 65.965 36.0494 65.5177 36.6021 65.5177C37.1548 65.5177 37.6021 65.965 37.6021 66.5177C37.6021 72.8331 47.0279 79.0011 52.4986 79.0011C53.6684 79.0011 54.5698 78.7306 55.1772 78.1964C55.8237 77.629 56.1508 76.7228 56.1508 75.506C56.1508 74.9533 56.5981 74.506 57.1508 74.506C57.7035 74.506 58.1508 74.9533 58.1508 75.506C58.1508 77.3234 57.5943 78.7345 56.4976 79.6984C55.5152 80.5636 54.1695 81.0011 52.4986 81.0011Z" fill="url(#paint0_linear_938_22840)"/>
<path id="Vector_8" d="M75.2409 70.67C73.112 70.67 70.3034 69.0538 67.9108 66.4532C65.3297 63.6485 63.8503 60.3634 63.8503 57.4425C63.8503 56.8898 64.2976 56.4425 64.8503 56.4425C65.403 56.4425 65.8503 56.8898 65.8503 57.4425C65.8503 62.7218 71.9763 68.67 75.2409 68.67C75.8434 68.67 76.1013 68.4415 76.2429 68.2696C76.5417 67.9053 76.6999 67.2637 76.6999 66.4122C76.6999 65.8595 77.1472 65.4122 77.6999 65.4122C78.2526 65.4122 78.6999 65.8595 78.6999 66.4122C78.6999 67.7511 78.3923 68.8038 77.7868 69.5401C77.1784 70.2794 76.2985 70.67 75.2409 70.67Z" fill="url(#paint1_linear_938_22840)"/>
<path id="Vector_9" d="M44.3472 64.1192C43.7945 64.1192 43.3472 63.6718 43.3472 63.1191C43.3472 62.5664 43.7945 62.1191 44.3472 62.1191C47.4185 62.1191 48.4048 60.8632 48.4048 56.9521C48.4048 56.3994 48.8521 55.9521 49.4048 55.9521C49.9575 55.9521 50.4048 56.3994 50.4048 56.9521C50.4049 60.4961 49.6851 64.1192 44.3472 64.1192Z" fill="url(#paint2_linear_938_22840)"/>
</g>
<g id="transmembrane units">
<g id="Group">
<path id="Vector_10" d="M31.6023 16.1556V66.1556C31.6023 67.1315 33.8408 67.9226 36.6023 67.9226C39.3638 67.9226 41.6023 67.1315 41.6023 66.1556V16.1556H31.6023Z" fill="url(#paint3_linear_938_22840)"/>
<path id="Vector_11" d="M36.6023 17.9228C39.3637 17.9228 41.6023 17.1316 41.6023 16.1556C41.6023 15.1797 39.3637 14.3885 36.6023 14.3885C33.8409 14.3885 31.6023 15.1797 31.6023 16.1556C31.6023 17.1316 33.8409 17.9228 36.6023 17.9228Z" fill="url(#paint4_linear_938_22840)"/>
</g>
<g id="Group_2">
<path id="Vector_12" d="M72.699 16.1556V66.1556C72.699 67.1315 74.9375 67.9226 77.699 67.9226C80.4605 67.9226 82.699 67.1315 82.699 66.1556V16.1556H72.699Z" fill="url(#paint5_linear_938_22840)"/>
<path id="Vector_13" d="M77.699 17.9228C80.4604 17.9228 82.699 17.1316 82.699 16.1556C82.699 15.1797 80.4604 14.3885 77.699 14.3885C74.9376 14.3885 72.699 15.1797 72.699 16.1556C72.699 17.1316 74.9376 17.9228 77.699 17.9228Z" fill="url(#paint6_linear_938_22840)"/>
</g>
<g id="Group_3">
<path id="Vector_14" d="M44.3013 7.16699V57.167C44.3013 58.1429 46.5398 58.934 49.3013 58.934C52.0628 58.934 54.3013 58.1429 54.3013 57.167V7.16699H44.3013Z" fill="url(#paint7_linear_938_22840)"/>
<path id="Vector_15" d="M49.3013 8.93422C52.0627 8.93422 54.3013 8.14307 54.3013 7.16712C54.3013 6.19118 52.0627 5.40002 49.3013 5.40002C46.5398 5.40002 44.3013 6.19118 44.3013 7.16712C44.3013 8.14307 46.5398 8.93422 49.3013 8.93422Z" fill="url(#paint8_linear_938_22840)"/>
</g>
<g id="Group_4">
<path id="Vector_16" d="M60.0002 7.16699V57.167C60.0002 58.1429 62.2387 58.934 65.0002 58.934C67.7617 58.934 70.0002 58.1429 70.0002 57.167V7.16699H60.0002Z" fill="url(#paint9_linear_938_22840)"/>
<path id="Vector_17" d="M65.0002 8.93422C67.7617 8.93422 70.0002 8.14307 70.0002 7.16712C70.0002 6.19118 67.7617 5.40002 65.0002 5.40002C62.2388 5.40002 60.0002 6.19118 60.0002 7.16712C60.0002 8.14307 62.2388 8.93422 65.0002 8.93422Z" fill="url(#paint10_linear_938_22840)"/>
</g>
<g id="Group_5">
<path id="Vector_18" d="M52.1509 25.144V75.144C52.1509 76.1199 54.3894 76.911 57.1509 76.911C59.9124 76.911 62.1509 76.1199 62.1509 75.144V25.144H52.1509Z" fill="url(#paint11_linear_938_22840)"/>
<path id="Vector_19" d="M57.1509 26.9113C59.9123 26.9113 62.1509 26.1201 62.1509 25.1442C62.1509 24.1682 59.9123 23.3771 57.1509 23.3771C54.3895 23.3771 52.1509 24.1682 52.1509 25.1442C52.1509 26.1201 54.3895 26.9113 57.1509 26.9113Z" fill="url(#paint12_linear_938_22840)"/>
</g>
</g>
<g id="Bonds UP">
<path id="Vector_20" d="M65.0005 8.167C64.4478 8.167 64.0005 7.7197 64.0005 7.167C64.0005 3.6172 60.4497 2 57.1509 2C53.8521 2 50.3013 3.6172 50.3013 7.167C50.3013 7.7197 49.854 8.167 49.3013 8.167C48.7486 8.167 48.3013 7.7197 48.3013 7.167C48.3013 2.4619 52.7534 0 57.1509 0C61.5484 0 66.0005 2.4619 66.0005 7.167C66.0005 7.7197 65.5532 8.167 65.0005 8.167Z" fill="url(#paint13_linear_938_22840)"/>
<path id="Vector_21" d="M36.602 16.7793C36.0493 16.7793 35.602 16.332 35.602 15.7793C35.602 14.1924 34.9204 12.9121 33.5766 11.9736C32.3373 11.1084 30.5805 10.6123 28.7553 10.6123H28.7524C28.2006 10.6123 27.7524 10.165 27.7524 9.6123C27.7524 9.0605 28.1997 8.6123 28.7524 8.6123H28.7553C31.0131 8.6123 33.1323 9.2236 34.7211 10.334C36.6059 11.6504 37.602 13.5332 37.602 15.7793C37.602 16.332 37.1548 16.7793 36.602 16.7793Z" fill="url(#paint14_linear_938_22840)"/>
<path id="Vector_22" d="M57.1509 26.1446C56.5982 26.1446 56.1509 25.6973 56.1509 25.1446C56.1509 17.4298 66.6821 10.6602 73.0484 10.6602C74.7183 10.6602 76.064 11.0987 77.0464 11.9629C78.1441 12.9277 78.6997 14.3379 78.6997 16.1553C78.6997 16.708 78.2524 17.1553 77.6997 17.1553C77.147 17.1553 76.6997 16.708 76.6997 16.1553C76.6997 14.9385 76.3726 14.0332 75.7261 13.4649C75.1187 12.9307 74.2183 12.6602 73.0484 12.6602C67.5767 12.6602 58.1509 18.8291 58.1509 25.1446C58.1509 25.6974 57.7037 26.1446 57.1509 26.1446Z" fill="url(#paint15_linear_938_22840)"/>
</g>
</g>
<g id="p22">
<g id="transmembrane units_2">
<path id="Vector_23" d="M16.6013 26.1561V66.1555C16.6013 67.1314 18.8398 67.9225 21.6013 67.9225C24.3628 67.9225 26.6013 67.1314 26.6013 66.1555V26.1561H16.6013Z" fill="url(#paint16_linear_938_22840)"/>
<path id="Vector_24" d="M21.6013 27.9232C24.3627 27.9232 26.6013 27.1321 26.6013 26.1561C26.6013 25.1802 24.3627 24.389 21.6013 24.389C18.8399 24.389 16.6013 25.1802 16.6013 26.1561C16.6013 27.1321 18.8399 27.9232 21.6013 27.9232Z" fill="url(#paint17_linear_938_22840)"/>
</g>
<g id="transmembrane units_3">
<path id="Vector_25" d="M1.60034 26.1561V66.1555C1.60034 67.1314 3.83884 67.9225 6.60034 67.9225C9.36184 67.9225 11.6003 67.1314 11.6003 66.1555V26.1561H1.60034Z" fill="url(#paint18_linear_938_22840)"/>
<path id="Vector_26" d="M6.60034 27.9232C9.36177 27.9232 11.6003 27.1321 11.6003 26.1561C11.6003 25.1802 9.36177 24.389 6.60034 24.389C3.83892 24.389 1.60034 25.1802 1.60034 26.1561C1.60034 27.1321 3.83892 27.9232 6.60034 27.9232Z" fill="url(#paint19_linear_938_22840)"/>
</g>
<path id="Bond" d="M21.6012 26.903C21.0485 26.903 20.6012 26.4557 20.6012 25.903C20.6012 22.3532 17.4057 20.736 14.1068 20.736C10.8079 20.736 7.61328 22.3532 7.61328 25.903C7.61328 26.4557 7.16598 26.903 6.61328 26.903C6.06058 26.903 5.61328 26.4557 5.61328 25.903C5.61328 21.1979 9.70928 18.736 14.1068 18.736C18.5043 18.736 22.6012 21.1979 22.6012 25.903C22.6012 26.4557 22.154 26.903 21.6012 26.903Z" fill="url(#paint20_linear_938_22840)"/>
</g>
</g>
<defs>
<linearGradient id="paint0_linear_938_22840" x1="35.6021" y1="73.2594" x2="58.1508" y2="73.2594" gradientUnits="userSpaceOnUse">
<stop stop-color="#D16A00"/>
<stop offset="1" stop-color="#ED9942"/>
</linearGradient>
<linearGradient id="paint1_linear_938_22840" x1="63.8503" y1="63.5563" x2="78.6999" y2="63.5563" gradientUnits="userSpaceOnUse">
<stop stop-color="#ED9942"/>
<stop offset="1" stop-color="#D16A00"/>
</linearGradient>
<linearGradient id="paint2_linear_938_22840" x1="43.3472" y1="60.0357" x2="50.4049" y2="60.0357" gradientUnits="userSpaceOnUse">
<stop stop-color="#ED9942"/>
<stop offset="1" stop-color="#D16A00"/>
</linearGradient>
<linearGradient id="paint3_linear_938_22840" x1="31.4845" y1="42.0391" x2="42.5979" y2="42.0391" gradientUnits="userSpaceOnUse">
<stop stop-color="#5000D1"/>
<stop offset="0.0191" stop-color="#5E17D1"/>
<stop offset="0.0503" stop-color="#7237D1"/>
<stop offset="0.0844" stop-color="#8251D1"/>
<stop offset="0.1217" stop-color="#8E66D1"/>
<stop offset="0.1639" stop-color="#9774D1"/>
<stop offset="0.215" stop-color="#9C7CD1"/>
<stop offset="0.3" stop-color="#9E7FD1"/>
<stop offset="0.3982" stop-color="#9977D1"/>
<stop offset="0.5464" stop-color="#8D63D1"/>
<stop offset="0.7262" stop-color="#7841D1"/>
<stop offset="0.9291" stop-color="#5B12D1"/>
<stop offset="1" stop-color="#5000D1"/>
</linearGradient>
<linearGradient id="paint4_linear_938_22840" x1="32.7089" y1="18.4346" x2="41.1634" y2="13.486" gradientUnits="userSpaceOnUse">
<stop stop-color="#9D77DB"/>
<stop offset="1" stop-color="#4300AF"/>
</linearGradient>
<linearGradient id="paint5_linear_938_22840" x1="72.5811" y1="42.0391" x2="83.6945" y2="42.0391" gradientUnits="userSpaceOnUse">
<stop stop-color="#5000D1"/>
<stop offset="0.0191" stop-color="#5E17D1"/>
<stop offset="0.0503" stop-color="#7237D1"/>
<stop offset="0.0844" stop-color="#8251D1"/>
<stop offset="0.1217" stop-color="#8E66D1"/>
<stop offset="0.1639" stop-color="#9774D1"/>
<stop offset="0.215" stop-color="#9C7CD1"/>
<stop offset="0.3" stop-color="#9E7FD1"/>
<stop offset="0.3982" stop-color="#9977D1"/>
<stop offset="0.5464" stop-color="#8D63D1"/>
<stop offset="0.7262" stop-color="#7841D1"/>
<stop offset="0.9291" stop-color="#5B12D1"/>
<stop offset="1" stop-color="#5000D1"/>
</linearGradient>
<linearGradient id="paint6_linear_938_22840" x1="73.8057" y1="18.4346" x2="82.2602" y2="13.486" gradientUnits="userSpaceOnUse">
<stop stop-color="#9D77DB"/>
<stop offset="1" stop-color="#4300AF"/>
</linearGradient>
<linearGradient id="paint7_linear_938_22840" x1="44.1835" y1="33.0505" x2="55.2969" y2="33.0505" gradientUnits="userSpaceOnUse">
<stop stop-color="#5000D1"/>
<stop offset="0.0191" stop-color="#5E17D1"/>
<stop offset="0.0503" stop-color="#7237D1"/>
<stop offset="0.0844" stop-color="#8251D1"/>
<stop offset="0.1217" stop-color="#8E66D1"/>
<stop offset="0.1639" stop-color="#9774D1"/>
<stop offset="0.215" stop-color="#9C7CD1"/>
<stop offset="0.3" stop-color="#9E7FD1"/>
<stop offset="0.3982" stop-color="#9977D1"/>
<stop offset="0.5464" stop-color="#8D63D1"/>
<stop offset="0.7262" stop-color="#7841D1"/>
<stop offset="0.9291" stop-color="#5B12D1"/>
<stop offset="1" stop-color="#5000D1"/>
</linearGradient>
<linearGradient id="paint8_linear_938_22840" x1="45.408" y1="9.44592" x2="53.8624" y2="4.49742" gradientUnits="userSpaceOnUse">
<stop stop-color="#9D77DB"/>
<stop offset="1" stop-color="#4300AF"/>
</linearGradient>
<linearGradient id="paint9_linear_938_22840" x1="59.8824" y1="33.0505" x2="70.9958" y2="33.0505" gradientUnits="userSpaceOnUse">
<stop stop-color="#5000D1"/>
<stop offset="0.0191" stop-color="#5E17D1"/>
<stop offset="0.0503" stop-color="#7237D1"/>
<stop offset="0.0844" stop-color="#8251D1"/>
<stop offset="0.1217" stop-color="#8E66D1"/>
<stop offset="0.1639" stop-color="#9774D1"/>
<stop offset="0.215" stop-color="#9C7CD1"/>
<stop offset="0.3" stop-color="#9E7FD1"/>
<stop offset="0.3982" stop-color="#9977D1"/>
<stop offset="0.5464" stop-color="#8D63D1"/>
<stop offset="0.7262" stop-color="#7841D1"/>
<stop offset="0.9291" stop-color="#5B12D1"/>
<stop offset="1" stop-color="#5000D1"/>
</linearGradient>
<linearGradient id="paint10_linear_938_22840" x1="61.1069" y1="9.44592" x2="69.5613" y2="4.49743" gradientUnits="userSpaceOnUse">
<stop stop-color="#9D77DB"/>
<stop offset="1" stop-color="#4300AF"/>
</linearGradient>
<linearGradient id="paint11_linear_938_22840" x1="52.0331" y1="51.0275" x2="63.1465" y2="51.0275" gradientUnits="userSpaceOnUse">
<stop stop-color="#5000D1"/>
<stop offset="0.0191" stop-color="#5E17D1"/>
<stop offset="0.0503" stop-color="#7237D1"/>
<stop offset="0.0844" stop-color="#8251D1"/>
<stop offset="0.1217" stop-color="#8E66D1"/>
<stop offset="0.1639" stop-color="#9774D1"/>
<stop offset="0.215" stop-color="#9C7CD1"/>
<stop offset="0.3" stop-color="#9E7FD1"/>
<stop offset="0.3982" stop-color="#9977D1"/>
<stop offset="0.5464" stop-color="#8D63D1"/>
<stop offset="0.7262" stop-color="#7841D1"/>
<stop offset="0.9291" stop-color="#5B12D1"/>
<stop offset="1" stop-color="#5000D1"/>
</linearGradient>
<linearGradient id="paint12_linear_938_22840" x1="53.2575" y1="27.423" x2="61.712" y2="22.4744" gradientUnits="userSpaceOnUse">
<stop stop-color="#9D77DB"/>
<stop offset="1" stop-color="#4300AF"/>
</linearGradient>
<linearGradient id="paint13_linear_938_22840" x1="48.3012" y1="4.0835" x2="66.0005" y2="4.0835" gradientUnits="userSpaceOnUse">
<stop stop-color="#ED9942"/>
<stop offset="1" stop-color="#D16A00"/>
</linearGradient>
<linearGradient id="paint14_linear_938_22840" x1="27.7524" y1="12.6958" x2="37.602" y2="12.6958" gradientUnits="userSpaceOnUse">
<stop stop-color="#ED9942"/>
<stop offset="1" stop-color="#D16A00"/>
</linearGradient>
<linearGradient id="paint15_linear_938_22840" x1="56.1509" y1="18.4024" x2="78.6998" y2="18.4024" gradientUnits="userSpaceOnUse">
<stop stop-color="#D16A00"/>
<stop offset="1" stop-color="#ED9942"/>
</linearGradient>
<linearGradient id="paint16_linear_938_22840" x1="16.4834" y1="47.0393" x2="27.5968" y2="47.0393" gradientUnits="userSpaceOnUse">
<stop stop-color="#0050D1"/>
<stop offset="0.0191" stop-color="#175ED1"/>
<stop offset="0.0503" stop-color="#3772D1"/>
<stop offset="0.0844" stop-color="#5182D1"/>
<stop offset="0.1217" stop-color="#668ED1"/>
<stop offset="0.1639" stop-color="#7497D1"/>
<stop offset="0.215" stop-color="#7C9CD1"/>
<stop offset="0.3" stop-color="#7F9ED1"/>
<stop offset="0.3982" stop-color="#7799D1"/>
<stop offset="0.5464" stop-color="#638DD1"/>
<stop offset="0.7262" stop-color="#4178D1"/>
<stop offset="0.9291" stop-color="#125BD1"/>
<stop offset="1" stop-color="#0050D1"/>
</linearGradient>
<linearGradient id="paint17_linear_938_22840" x1="17.708" y1="28.435" x2="26.1624" y2="23.4864" gradientUnits="userSpaceOnUse">
<stop stop-color="#779DDB"/>
<stop offset="1" stop-color="#0043AF"/>
</linearGradient>
<linearGradient id="paint18_linear_938_22840" x1="1.48254" y1="47.0393" x2="12.5959" y2="47.0393" gradientUnits="userSpaceOnUse">
<stop stop-color="#0050D1"/>
<stop offset="0.0191" stop-color="#175ED1"/>
<stop offset="0.0503" stop-color="#3772D1"/>
<stop offset="0.0844" stop-color="#5182D1"/>
<stop offset="0.1217" stop-color="#668ED1"/>
<stop offset="0.1639" stop-color="#7497D1"/>
<stop offset="0.215" stop-color="#7C9CD1"/>
<stop offset="0.3" stop-color="#7F9ED1"/>
<stop offset="0.3982" stop-color="#7799D1"/>
<stop offset="0.5464" stop-color="#638DD1"/>
<stop offset="0.7262" stop-color="#4178D1"/>
<stop offset="0.9291" stop-color="#125BD1"/>
<stop offset="1" stop-color="#0050D1"/>
</linearGradient>
<linearGradient id="paint19_linear_938_22840" x1="2.70694" y1="28.435" x2="11.1614" y2="23.4864" gradientUnits="userSpaceOnUse">
<stop stop-color="#779DDB"/>
<stop offset="1" stop-color="#0043AF"/>
</linearGradient>
<linearGradient id="paint20_linear_938_22840" x1="5.61338" y1="22.8195" x2="22.6012" y2="22.8195" gradientUnits="userSpaceOnUse">
<stop stop-color="#ED9942"/>
<stop offset="1" stop-color="#D16A00"/>
</linearGradient>
</defs>
</svg>
