<svg width="31" height="49" viewBox="0 0 31 49" fill="none" xmlns="http://www.w3.org/2000/svg">
<g id="R-ICO-013993">
<path id="Vector" d="M28.2593 35.1442L25.8784 34.1907C24.6305 33.6909 23.8123 32.482 23.8123 31.1377V20.2816C23.8123 18.844 22.7799 17.518 21.3477 17.3938C19.7439 17.2546 18.3995 18.5149 18.3995 20.0896V30.4806C18.3995 31.0748 18.0807 31.632 17.5516 31.9025C16.6621 32.3572 16.021 33.273 16.021 34.3947V42.343C16.021 43.5096 16.731 44.5587 17.814 44.9924L26.1373 48.3256C28.0121 49.0764 30.0522 47.6958 30.0522 45.6762V37.7936C30.0523 36.627 29.3423 35.5779 28.2593 35.1442Z" fill="url(#paint0_linear_938_22950)"/>
<path id="Vector_2" d="M15.026 2.00433V3.58433C15.026 4.69083 15.923 5.58773 17.0294 5.58773H19.3338C20.0532 5.58773 20.5028 6.36653 20.1431 6.98953L15.7961 14.5186C15.7961 14.5186 15.6052 14.9423 15.0259 14.9423V27.271C15.0259 30.3032 21.351 31.2545 21.351 25.7252C21.351 13.1208 28.1991 12.3478 28.1991 5.92673C28.1991 0.226331 22.4991 -0.0165695 17.0267 0.000730491C15.9213 0.00423049 15.0259 0.898831 15.026 2.00433Z" fill="url(#paint1_linear_938_22950)"/>
<path id="Vector_3" d="M1.793 35.1442L4.1739 34.1907C5.4218 33.6909 6.24 32.482 6.24 31.1377V20.2816C6.24 18.844 7.2724 17.518 8.7046 17.3938C10.3084 17.2546 11.6528 18.5149 11.6528 20.0896V30.4806C11.6528 31.0748 11.9716 31.632 12.5007 31.9025C13.3902 32.3572 14.0313 33.273 14.0313 34.3947V42.343C14.0313 43.5096 13.3213 44.5587 12.2383 44.9924L3.915 48.3256C2.0401 49.0764 0 47.6958 0 45.6762V37.7936C0 36.627 0.71 35.5779 1.793 35.1442Z" fill="url(#paint2_linear_938_22950)"/>
<path id="Vector_4" d="M15.0261 2.00433V3.58433C15.0261 4.69083 14.1291 5.58773 13.0227 5.58773H10.7183C9.99893 5.58773 9.54933 6.36653 9.90903 6.98953L14.256 14.5186C14.256 14.5186 14.4469 14.9423 15.0262 14.9423V27.271C15.0262 30.3032 8.70113 31.2545 8.70113 25.7252C8.70113 13.1208 1.85303 12.3478 1.85303 5.92673C1.85303 0.226331 7.55303 -0.0165695 13.0254 0.000730491C14.1307 0.00423049 15.0261 0.898831 15.0261 2.00433Z" fill="url(#paint3_linear_938_22950)"/>
</g>
<defs>
<linearGradient id="paint0_linear_938_22950" x1="23.0367" y1="17.3833" x2="23.0367" y2="48.533" gradientUnits="userSpaceOnUse">
<stop stop-color="#0A425C"/>
<stop offset="1" stop-color="#00B8CC"/>
</linearGradient>
<linearGradient id="paint1_linear_938_22950" x1="21.6126" y1="29.7126" x2="21.6126" y2="3.18782e-05" gradientUnits="userSpaceOnUse">
<stop stop-color="#00A7BA"/>
<stop offset="1" stop-color="#A29439"/>
</linearGradient>
<linearGradient id="paint2_linear_938_22950" x1="7.0156" y1="17.3833" x2="7.0156" y2="48.533" gradientUnits="userSpaceOnUse">
<stop stop-color="#0A425C"/>
<stop offset="1" stop-color="#00B8CC"/>
</linearGradient>
<linearGradient id="paint3_linear_938_22950" x1="8.43953" y1="29.7126" x2="8.43953" y2="3.18782e-05" gradientUnits="userSpaceOnUse">
<stop stop-color="#00A7BA"/>
<stop offset="1" stop-color="#A29439"/>
</linearGradient>
</defs>
</svg>
