<svg width="66" height="23" viewBox="0 0 66 23" fill="none" xmlns="http://www.w3.org/2000/svg">
<g id="R-ICO-012543">
<g id="CDKAL1">
<path d="M1.00635 11.5C1.00635 5.97715 5.4835 1.5 11.0063 1.5H54.0063C59.5292 1.5 64.0063 5.97715 64.0063 11.5C64.0063 17.0228 59.5292 21.5 54.0063 21.5H11.0063C5.4835 21.5 1.00635 17.0228 1.00635 11.5Z" fill="url(#paint0_linear_938_23239)"/>
<path d="M48.2147 2.99266C35.8119 2.87443 23.4092 2.52283 11.0063 1.64001C11.0063 1.54664 11.0063 1.45328 11.0063 1.35991C23.4092 0.477089 35.8119 0.125486 48.2147 0.00726104C50.1452 -0.00449872 52.0758 -0.00123847 54.0063 0.0117507C58.9631 -0.0329878 63.5939 3.56546 64.8543 8.26836C65.1543 9.32015 65.2949 10.4132 65.2763 11.5C65.3191 17.5276 59.7331 22.658 54.0069 22.2659C54.0067 22.2659 54.0065 22.2658 54.0063 22.2658C47.8051 22.0221 41.6033 21.8466 35.4022 21.953C29.2008 22.056 22.9989 22.4645 16.7975 22.6648C14.8671 22.7155 12.9367 22.7418 11.0063 22.7493C6.14988 22.844 1.57128 19.2874 0.38116 14.666C0.0985621 13.6324 -0.0265745 12.5617 0.00464332 11.5C0.0274742 5.60538 5.6095 0.75794 11.0063 1.35991C11.0063 1.45328 11.0063 1.54664 11.0063 1.64001C5.75023 1.98283 1.72594 6.74127 2.00792 11.5C2.03864 12.3721 2.19072 13.2301 2.45944 14.0475C3.62125 17.7037 7.24787 20.2889 11.0063 20.2507C12.9367 20.2583 14.8671 20.2846 16.7975 20.3353C22.9989 20.5356 29.2008 20.9428 35.4022 21.0457C41.6034 21.1521 47.805 20.978 54.0063 20.7342C54.0065 20.7342 54.0067 20.7342 54.0068 20.7342C58.9336 20.6004 62.9526 16.1253 62.7365 11.5C62.7184 10.6534 62.5819 9.81815 62.3308 9.01915C61.2397 5.44413 57.6648 2.90021 54.0063 2.98829C52.0758 3.00128 50.1452 3.0045 48.2147 2.99266Z" fill="#0047AB"/>
<text id="CDKAL1_2" fill="white" xml:space="preserve" style="white-space: pre" font-family="Arial" font-size="12" font-weight="bold" letter-spacing="0em"><tspan x="8.15479" y="15.6602">CDKAL1</tspan></text>
</g>
</g>
<defs>
<linearGradient id="paint0_linear_938_23239" x1="32.5063" y1="1.5" x2="32.5063" y2="21.5" gradientUnits="userSpaceOnUse">
<stop stop-color="#0047AB"/>
<stop offset="1" stop-color="#FFFF7B"/>
</linearGradient>
</defs>
</svg>
