<svg width="100" height="62" viewBox="0 0 100 62" fill="none" xmlns="http://www.w3.org/2000/svg">
<g id="R-ICO-012931">
<g id="LEFT">
<g id="KIDNEY" opacity="0.8">
<g id="Group">
<path id="Vector" d="M24.673 44.5414C23.1674 43.7917 22.6342 42.1205 23.2597 40.6762C23.6488 39.7798 23.761 38.7116 23.4288 37.427C23.371 37.2044 23.2692 36.9481 23.1303 36.6789C22.5125 35.4779 22.472 34.0725 23.17 32.9086C23.4478 32.4444 23.6238 31.9707 23.6816 31.5385C23.7593 30.9647 23.6859 30.3953 23.4797 29.8414C22.8861 28.2487 23.0923 26.2332 24.6574 25.3221C26.5754 24.2066 27.9895 22.6302 28.3769 20.7571C29.4717 15.4571 28.0473 10.761 21.8344 8.90167C14.9882 6.85343 8.6442 9.34428 5.41136 13.6901C3.1362 16.7478 0.810141 19.9876 0.0810908 29.3453C-0.30371 34.2882 0.776493 38.3838 1.31918 41.8642C2.19577 47.4818 4.22676 52.2685 4.68489 53.7974C5.64517 56.9991 8.9315 59.8127 13.6259 60.9731C20.5627 62.6875 26.911 60.1405 29.0835 55.2883C30.8945 51.2461 29.3673 46.8787 24.673 44.5414Z" fill="#6B294B"/>
</g>
<g id="Group_2">
<path id="Vector_2" d="M29.0789 55.2883C31.2522 50.4351 28.4275 45.1152 21.4907 43.4C14.5539 41.6848 7.16852 44.2291 4.99518 49.0823C2.82183 53.9354 6.68364 59.2588 13.6204 60.974C20.5572 62.6892 26.9055 60.1414 29.0789 55.2883Z" fill="url(#paint0_radial_938_24554)"/>
</g>
<g id="Group_3">
<path id="Vector_3" d="M23.423 37.4273C22.3575 34.0279 17.8702 31.965 11.4813 32.8122C5.09237 33.6603 0.776737 37.1028 1.84227 40.5022C2.90781 43.9016 8.95073 45.9697 15.3405 45.1215C21.7294 44.2743 24.4886 40.8266 23.423 37.4273Z" fill="url(#paint1_radial_938_24554)"/>
</g>
<g id="Group_4">
<path id="Vector_4" d="M23.6771 31.5386C24.1404 28.1107 19.232 24.8408 12.7155 24.2351C6.19886 23.6295 0.539014 25.9176 0.076563 29.3454C-0.385888 32.7732 4.52161 36.0432 11.0391 36.6488C17.5557 37.2545 23.2146 34.9664 23.6771 31.5386Z" fill="url(#paint2_radial_938_24554)"/>
</g>
<g id="Group_5">
<path id="Vector_5" d="M28.5176 20.1463C29.006 17.4424 29.4839 11.3279 21.8276 8.90172C15.016 6.74304 7.50544 9.73085 5.33209 14.584C3.15874 19.4371 7.02055 24.7605 13.9573 26.4757C20.8949 28.1901 27.572 25.3783 28.5176 20.1463Z" fill="url(#paint3_radial_938_24554)"/>
</g>
</g>
<g id="ADRENAL GLAND">
<path id="Vector_6" d="M31.3538 11.4375C31.1053 11.4366 30.8827 11.0311 30.8836 10.7188C30.8861 9.72228 30.0812 8.91213 29.0855 8.90954C28.8862 8.90868 28.6878 8.52647 28.6886 8.25814C28.6904 7.82503 28.5368 7.42987 28.2814 7.12013C28.089 6.88459 28.1201 6.53085 28.3461 6.32724C28.7085 6.00024 28.938 5.52916 28.9397 5.00114C28.9423 4.00549 28.1373 3.19534 27.1417 3.19189C26.1676 3.18844 24.681 3.56547 24.6827 2.97965C24.6853 1.98313 23.8804 1.17298 22.8847 1.17039C22.0866 1.1678 21.3817 1.67598 21.1678 2.40158C21.0478 2.81054 20.4698 2.76309 20.4706 2.30926C20.4741 1.31361 19.6691 0.503462 18.6735 0.500011C17.677 0.49656 16.8668 1.30154 16.8642 2.29805C16.8625 2.75101 16.262 2.93651 15.954 3.1522C15.6408 3.37135 14.7159 3.56116 14.1033 3.60171C13.7763 3.62328 13.5115 3.63622 13.0059 3.94769C12.5572 4.22464 12.2475 4.76043 11.7747 4.914C10.936 5.18664 10.408 4.83549 9.97146 4.83376C8.97495 4.83117 8.16479 5.63529 8.16221 6.6318C8.16048 7.0908 8.31751 7.75687 8.15789 7.75687C7.16224 7.75342 6.35209 8.55839 6.34864 9.55404C6.34605 10.5506 7.15103 11.3607 8.14668 11.3633C8.41759 11.3642 8.6747 11.2313 8.90592 11.038C9.42704 10.6032 10.1432 10.6204 10.6902 11.0242C10.9878 11.2442 11.3562 11.3745 11.754 11.3754C12.0861 11.3762 12.3976 11.2028 12.6659 10.9716C13.0801 10.6144 13.6737 10.6463 14.0455 11.0467C14.3734 11.3995 14.841 11.6204 15.3604 11.6221C15.7141 11.623 16.0334 11.5039 16.2974 11.3495C16.6597 11.1381 17.1196 11.258 17.3387 11.6161C17.6545 12.1338 18.224 12.4806 18.8745 12.4832C19.129 12.484 19.3568 12.4513 19.5544 12.4021C19.9763 12.2977 20.4465 12.434 20.6432 12.8214C20.9426 13.4089 21.5414 13.817 22.2428 13.8188C23.103 13.8214 22.7536 14.3106 22.7907 14.635C22.8968 15.5832 23.4283 16.339 24.3713 16.4787C25.0615 16.5805 25.687 16.2906 26.0658 15.7989C26.335 15.4494 26.8 15.377 27.1857 15.5918C27.4402 15.7333 27.7327 15.8144 28.0459 15.8161C28.6602 15.8178 29.2003 15.5107 29.5247 15.0413C29.7309 14.7437 30.1545 14.6401 30.4703 14.8179C30.7283 14.9628 31.0251 15.0456 31.3417 15.0465C32.3382 15.05 33.1475 14.245 33.1509 13.2485C33.1544 12.252 32.3494 11.4409 31.3538 11.4375Z" fill="url(#paint4_radial_938_24554)" stroke="url(#paint5_linear_938_24554)" stroke-miterlimit="10"/>
<path id="Vector_7" d="M11.7583 11.3746C12.7542 11.3746 13.5615 10.5673 13.5615 9.5714C13.5615 8.57551 12.7542 7.76819 11.7583 7.76819C10.7624 7.76819 9.95508 8.57551 9.95508 9.5714C9.95508 10.5673 10.7624 11.3746 11.7583 11.3746Z" fill="url(#paint6_radial_938_24554)"/>
<path id="Vector_8" d="M15.3686 11.6221C16.3645 11.6221 17.1719 10.8147 17.1719 9.81884C17.1719 8.82295 16.3645 8.01562 15.3686 8.01562C14.3728 8.01562 13.5654 8.82295 13.5654 9.81884C13.5654 10.8147 14.3728 11.6221 15.3686 11.6221Z" fill="url(#paint7_radial_938_24554)"/>
<path id="Vector_9" d="M18.8818 12.483C19.8777 12.483 20.685 11.6757 20.685 10.6798C20.685 9.68391 19.8777 8.87659 18.8818 8.87659C17.8859 8.87659 17.0786 9.68391 17.0786 10.6798C17.0786 11.6757 17.8859 12.483 18.8818 12.483Z" fill="url(#paint8_radial_938_24554)"/>
<path id="Vector_10" d="M22.2436 13.8185C23.2395 13.8185 24.0469 13.0111 24.0469 12.0152C24.0469 11.0194 23.2395 10.212 22.2436 10.212C21.2478 10.212 20.4404 11.0194 20.4404 12.0152C20.4404 13.0111 21.2478 13.8185 22.2436 13.8185Z" fill="url(#paint9_radial_938_24554)"/>
<path id="Vector_11" d="M24.645 16.4984C25.6409 16.4984 26.4482 15.6911 26.4482 14.6952C26.4482 13.6993 25.6409 12.892 24.645 12.892C23.6491 12.892 22.8418 13.6993 22.8418 14.6952C22.8418 15.6911 23.6491 16.4984 24.645 16.4984Z" fill="url(#paint10_radial_938_24554)"/>
<path id="Vector_12" d="M25.7065 13.2235C26.7024 13.2235 27.5097 12.4162 27.5097 11.4203C27.5097 10.4244 26.7024 9.61707 25.7065 9.61707C24.7106 9.61707 23.9033 10.4244 23.9033 11.4203C23.9033 12.4162 24.7106 13.2235 25.7065 13.2235Z" fill="url(#paint11_radial_938_24554)"/>
<path id="Vector_13" d="M23.874 11.0476C24.8699 11.0476 25.6772 10.2403 25.6772 9.24438C25.6772 8.24849 24.8699 7.44116 23.874 7.44116C22.8781 7.44116 22.0708 8.24849 22.0708 9.24438C22.0708 10.2403 22.8781 11.0476 23.874 11.0476Z" fill="url(#paint12_radial_938_24554)"/>
<path id="Vector_14" d="M19.8721 10.0328C20.8679 10.0328 21.6753 9.22549 21.6753 8.2296C21.6753 7.23372 20.8679 6.42639 19.8721 6.42639C18.8762 6.42639 18.0688 7.23372 18.0688 8.2296C18.0688 9.22549 18.8762 10.0328 19.8721 10.0328Z" fill="url(#paint13_radial_938_24554)"/>
<path id="Vector_15" d="M21.8813 8.03538C22.8772 8.03538 23.6846 7.22806 23.6846 6.23217C23.6846 5.23628 22.8772 4.42896 21.8813 4.42896C20.8855 4.42896 20.0781 5.23628 20.0781 6.23217C20.0781 7.22806 20.8855 8.03538 21.8813 8.03538Z" fill="url(#paint14_radial_938_24554)"/>
<path id="Vector_16" d="M18.8779 7.0233C19.8738 7.0233 20.6811 6.21597 20.6811 5.22008C20.6811 4.2242 19.8738 3.41687 18.8779 3.41687C17.882 3.41687 17.0747 4.2242 17.0747 5.22008C17.0747 6.21597 17.882 7.0233 18.8779 7.0233Z" fill="url(#paint15_radial_938_24554)"/>
<path id="Vector_17" d="M15.8657 9.01805C16.8616 9.01805 17.6689 8.21072 17.6689 7.21483C17.6689 6.21895 16.8616 5.41162 15.8657 5.41162C14.8698 5.41162 14.0625 6.21895 14.0625 7.21483C14.0625 8.21072 14.8698 9.01805 15.8657 9.01805Z" fill="url(#paint16_radial_938_24554)"/>
<path id="Vector_18" d="M16.8599 11.0249C17.8557 11.0249 18.6631 10.2176 18.6631 9.22167C18.6631 8.22578 17.8557 7.41846 16.8599 7.41846C15.864 7.41846 15.0566 8.22578 15.0566 9.22167C15.0566 10.2176 15.864 11.0249 16.8599 11.0249Z" fill="url(#paint17_radial_938_24554)"/>
<path id="Vector_19" d="M13.8559 10.6637C14.8518 10.6637 15.6592 9.85635 15.6592 8.86046C15.6592 7.86458 14.8518 7.05725 13.8559 7.05725C12.8601 7.05725 12.0527 7.86458 12.0527 8.86046C12.0527 9.85635 12.8601 10.6637 13.8559 10.6637Z" fill="url(#paint18_radial_938_24554)"/>
<path id="Vector_20" d="M10.7217 10.8053C11.7176 10.8053 12.5249 9.99795 12.5249 9.00207C12.5249 8.00618 11.7176 7.19885 10.7217 7.19885C9.72578 7.19885 8.91846 8.00618 8.91846 9.00207C8.91846 9.99795 9.72578 10.8053 10.7217 10.8053Z" fill="url(#paint19_radial_938_24554)"/>
<path id="Vector_21" d="M12.0615 8.55406C13.0574 8.55406 13.8647 7.74673 13.8647 6.75085C13.8647 5.75496 13.0574 4.94763 12.0615 4.94763C11.0656 4.94763 10.2583 5.75496 10.2583 6.75085C10.2583 7.74673 11.0656 8.55406 12.0615 8.55406Z" fill="url(#paint20_radial_938_24554)"/>
<path id="Vector_22" d="M14.0669 7.20921C15.0628 7.20921 15.8701 6.40188 15.8701 5.406C15.8701 4.41011 15.0628 3.60278 14.0669 3.60278C13.071 3.60278 12.2637 4.41011 12.2637 5.406C12.2637 6.40188 13.071 7.20921 14.0669 7.20921Z" fill="url(#paint21_radial_938_24554)"/>
<path id="Vector_23" d="M16.8555 6.56089C17.8513 6.56089 18.6587 5.75357 18.6587 4.75768C18.6587 3.76179 17.8513 2.95447 16.8555 2.95447C15.8596 2.95447 15.0522 3.76179 15.0522 4.75768C15.0522 5.75357 15.8596 6.56089 16.8555 6.56089Z" fill="url(#paint22_radial_938_24554)"/>
<path id="Vector_24" d="M16.8555 6.56089C17.8513 6.56089 18.6587 5.75357 18.6587 4.75768C18.6587 3.76179 17.8513 2.95447 16.8555 2.95447C15.8596 2.95447 15.0522 3.76179 15.0522 4.75768C15.0522 5.75357 15.8596 6.56089 16.8555 6.56089Z" fill="url(#paint23_radial_938_24554)"/>
<path id="Vector_25" d="M26.8862 10.0554C27.8821 10.0554 28.6894 9.24808 28.6894 8.25219C28.6894 7.2563 27.8821 6.44897 26.8862 6.44897C25.8903 6.44897 25.083 7.2563 25.083 8.25219C25.083 9.24808 25.8903 10.0554 26.8862 10.0554Z" fill="url(#paint24_radial_938_24554)"/>
<path id="Vector_26" d="M9.96337 8.4409C10.9593 8.4409 11.7666 7.63357 11.7666 6.63769C11.7666 5.6418 10.9593 4.83447 9.96337 4.83447C8.96748 4.83447 8.16016 5.6418 8.16016 6.63769C8.16016 7.63357 8.96748 8.4409 9.96337 8.4409Z" fill="url(#paint25_radial_938_24554)"/>
<path id="Vector_27" d="M13.7002 8.55931C14.6961 8.55931 15.5034 7.75198 15.5034 6.75609C15.5034 5.76021 14.6961 4.95288 13.7002 4.95288C12.7043 4.95288 11.897 5.76021 11.897 6.75609C11.897 7.75198 12.7043 8.55931 13.7002 8.55931Z" fill="url(#paint26_radial_938_24554)"/>
<path id="Vector_28" d="M17.7446 9.15867C18.7405 9.15867 19.5478 8.35135 19.5478 7.35546C19.5478 6.35957 18.7405 5.55225 17.7446 5.55225C16.7487 5.55225 15.9414 6.35957 15.9414 7.35546C15.9414 8.35135 16.7487 9.15867 17.7446 9.15867Z" fill="url(#paint27_radial_938_24554)"/>
<path id="Vector_29" d="M21.54 10.2814C22.5359 10.2814 23.3432 9.47403 23.3432 8.47814C23.3432 7.48225 22.5359 6.67493 21.54 6.67493C20.5441 6.67493 19.7368 7.48225 19.7368 8.47814C19.7368 9.47403 20.5441 10.2814 21.54 10.2814Z" fill="url(#paint28_radial_938_24554)"/>
<path id="Vector_30" d="M24.0679 8.00438C25.0638 8.00438 25.8711 7.19705 25.8711 6.20116C25.8711 5.20528 25.0638 4.39795 24.0679 4.39795C23.072 4.39795 22.2646 5.20528 22.2646 6.20116C22.2646 7.19705 23.072 8.00438 24.0679 8.00438Z" fill="url(#paint29_radial_938_24554)"/>
<path id="Vector_31" d="M20.4619 7.0327C21.4578 7.0327 22.2651 6.22537 22.2651 5.22948C22.2651 4.2336 21.4578 3.42627 20.4619 3.42627C19.466 3.42627 18.6587 4.2336 18.6587 5.22948C18.6587 6.22537 19.466 7.0327 20.4619 7.0327Z" fill="url(#paint30_radial_938_24554)"/>
<path id="Vector_32" d="M19.771 6.18651C20.7669 6.18651 21.5742 5.37918 21.5742 4.38329C21.5742 3.3874 20.7669 2.58008 19.771 2.58008C18.7751 2.58008 17.9678 3.3874 17.9678 4.38329C17.9678 5.37918 18.7751 6.18651 19.771 6.18651Z" fill="url(#paint31_radial_938_24554)"/>
<path id="Vector_33" d="M23.689 6.43773C24.6848 6.43773 25.4922 5.6304 25.4922 4.63451C25.4922 3.63862 24.6848 2.8313 23.689 2.8313C22.6931 2.8313 21.8857 3.63862 21.8857 4.63451C21.8857 5.6304 22.6931 6.43773 23.689 6.43773Z" fill="url(#paint32_radial_938_24554)"/>
<path id="Vector_34" d="M25.8711 7.05015C26.867 7.05015 27.6743 6.24283 27.6743 5.24694C27.6743 4.25105 26.867 3.44373 25.8711 3.44373C24.8752 3.44373 24.0679 4.25105 24.0679 5.24694C24.0679 6.24283 24.8752 7.05015 25.8711 7.05015Z" fill="url(#paint33_radial_938_24554)"/>
<path id="Vector_35" d="M25.3232 9.35032C26.3191 9.35032 27.1264 8.543 27.1264 7.54711C27.1264 6.55122 26.3191 5.7439 25.3232 5.7439C24.3273 5.7439 23.52 6.55122 23.52 7.54711C23.52 8.543 24.3273 9.35032 25.3232 9.35032Z" fill="url(#paint34_radial_938_24554)"/>
<path id="Vector_36" d="M25.0747 11.6532C26.0706 11.6532 26.8779 10.8459 26.8779 9.84997C26.8779 8.85408 26.0706 8.04675 25.0747 8.04675C24.0788 8.04675 23.2715 8.85408 23.2715 9.84997C23.2715 10.8459 24.0788 11.6532 25.0747 11.6532Z" fill="url(#paint35_radial_938_24554)"/>
<path id="Vector_37" d="M22.8506 13.214C23.8465 13.214 24.6538 12.4066 24.6538 11.4108C24.6538 10.4149 23.8465 9.60754 22.8506 9.60754C21.8547 9.60754 21.0474 10.4149 21.0474 11.4108C21.0474 12.4066 21.8547 13.214 22.8506 13.214Z" fill="url(#paint36_radial_938_24554)"/>
<path id="Vector_38" d="M25.0664 14.6964C26.0623 14.6964 26.8696 13.8891 26.8696 12.8932C26.8696 11.8973 26.0623 11.09 25.0664 11.09C24.0705 11.09 23.2632 11.8973 23.2632 12.8932C23.2632 13.8891 24.0705 14.6964 25.0664 14.6964Z" fill="url(#paint37_radial_938_24554)"/>
<path id="Vector_39" d="M27.5098 14.315C28.5056 14.315 29.313 13.5077 29.313 12.5118C29.313 11.5159 28.5056 10.7086 27.5098 10.7086C26.5139 10.7086 25.7065 11.5159 25.7065 12.5118C25.7065 13.5077 26.5139 14.315 27.5098 14.315Z" fill="url(#paint38_radial_938_24554)"/>
<path id="Vector_40" d="M27.2778 12.5099C28.2737 12.5099 29.081 11.7025 29.081 10.7067C29.081 9.71077 28.2737 8.90344 27.2778 8.90344C26.2819 8.90344 25.4746 9.71077 25.4746 10.7067C25.4746 11.7025 26.2819 12.5099 27.2778 12.5099Z" fill="url(#paint39_radial_938_24554)"/>
<path id="Vector_41" d="M29.313 13.8412C30.3089 13.8412 31.1162 13.0338 31.1162 12.038C31.1162 11.0421 30.3089 10.2347 29.313 10.2347C28.3171 10.2347 27.5098 11.0421 27.5098 12.038C27.5098 13.0338 28.3171 13.8412 29.313 13.8412Z" fill="url(#paint40_radial_938_24554)"/>
<path id="Vector_42" d="M27.1221 11.0581C28.1179 11.0581 28.9253 10.2508 28.9253 9.25487C28.9253 8.25899 28.1179 7.45166 27.1221 7.45166C26.1262 7.45166 25.3188 8.25899 25.3188 9.25487C25.3188 10.2508 26.1262 11.0581 27.1221 11.0581Z" fill="url(#paint41_radial_938_24554)"/>
<path id="Vector_43" d="M18.667 4.10643C19.6629 4.10643 20.4702 3.2991 20.4702 2.30321C20.4702 1.30733 19.6629 0.5 18.667 0.5C17.6711 0.5 16.8638 1.30733 16.8638 2.30321C16.8638 3.2991 17.6711 4.10643 18.667 4.10643Z" fill="url(#paint42_radial_938_24554)"/>
<path id="Vector_44" d="M22.8799 4.77678C23.8758 4.77678 24.6831 3.96945 24.6831 2.97356C24.6831 1.97768 23.8758 1.17035 22.8799 1.17035C21.884 1.17035 21.0767 1.97768 21.0767 2.97356C21.0767 3.96945 21.884 4.77678 22.8799 4.77678Z" fill="url(#paint43_radial_938_24554)"/>
<path id="Vector_45" d="M27.1348 6.79844C28.1306 6.79844 28.938 5.99112 28.938 4.99523C28.938 3.99934 28.1306 3.19202 27.1348 3.19202C26.1389 3.19202 25.3315 3.99934 25.3315 4.99523C25.3315 5.99112 26.1389 6.79844 27.1348 6.79844Z" fill="url(#paint44_radial_938_24554)"/>
<path id="Vector_46" d="M28.0532 15.8143C29.0491 15.8143 29.8564 15.007 29.8564 14.0111C29.8564 13.0152 29.0491 12.2079 28.0532 12.2079C27.0573 12.2079 26.25 13.0152 26.25 14.0111C26.25 15.007 27.0573 15.8143 28.0532 15.8143Z" fill="url(#paint45_radial_938_24554)"/>
<path id="Vector_47" d="M29.081 12.5162C30.0769 12.5162 30.8843 11.7089 30.8843 10.713C30.8843 9.71712 30.0769 8.90979 29.081 8.90979C28.0852 8.90979 27.2778 9.71712 27.2778 10.713C27.2778 11.7089 28.0852 12.5162 29.081 12.5162Z" fill="url(#paint46_radial_938_24554)"/>
<path id="Vector_48" d="M31.3476 15.0449C32.3435 15.0449 33.1509 14.2376 33.1509 13.2417C33.1509 12.2458 32.3435 11.4385 31.3476 11.4385C30.3518 11.4385 29.5444 12.2458 29.5444 13.2417C29.5444 14.2376 30.3518 15.0449 31.3476 15.0449Z" fill="url(#paint47_radial_938_24554)"/>
<path id="Vector_49" d="M8.15185 11.3635C9.14773 11.3635 9.95506 10.5562 9.95506 9.56029C9.95506 8.56441 9.14773 7.75708 8.15185 7.75708C7.15596 7.75708 6.34863 8.56441 6.34863 9.56029C6.34863 10.5562 7.15596 11.3635 8.15185 11.3635Z" fill="url(#paint48_radial_938_24554)"/>
</g>
</g>
<g id="FIGHT">
<g id="KIDNEY_2" opacity="0.8">
<g id="Group_6">
<path id="Vector_50" d="M75.2453 44.4096C76.756 43.6694 77.2996 42.0016 76.6827 40.5539C76.3005 39.654 76.1944 38.5859 76.5343 37.3029C76.593 37.0812 76.6965 36.8249 76.8371 36.5566C77.4626 35.3599 77.5118 33.9545 76.8216 32.7863C76.5464 32.3203 76.3738 31.8458 76.3186 31.4127C76.2453 30.8381 76.322 30.2695 76.5317 29.7173C77.1356 28.129 76.9424 26.1118 75.3833 25.1912C73.4723 24.0627 72.0685 22.4777 71.6932 20.6021C70.632 15.2951 72.0866 10.6076 78.3116 8.78885C85.1707 6.78461 91.4992 9.31515 94.7045 13.6817C96.9589 16.7532 99.2651 20.0085 99.9338 29.3714C100.288 34.3168 99.1806 38.4056 98.6155 41.8826C97.7035 47.4932 95.6414 52.267 95.173 53.7933C94.192 56.989 90.8884 59.781 86.1862 60.9121C79.2391 62.5824 72.9072 59.9949 70.7649 55.128C68.9806 51.0738 70.5362 46.7167 75.2453 44.4096Z" fill="#6B294B"/>
</g>
<g id="Group_7">
<path id="Vector_51" d="M70.7688 55.1281C68.6265 50.262 71.4849 44.9593 78.4329 43.289C85.3809 41.6187 92.749 44.2096 94.8913 49.0757C97.0336 53.9426 93.1382 59.2418 86.1902 60.9122C79.2422 62.5825 72.9103 59.995 70.7688 55.1281Z" fill="url(#paint49_radial_938_24554)"/>
</g>
<g id="Group_8">
<path id="Vector_52" d="M76.5392 37.303C77.6263 33.9105 82.1275 31.8761 88.5103 32.7648C94.894 33.6534 99.1872 37.1235 98.0993 40.516C97.0113 43.9084 90.9554 45.9377 84.5726 45.049C78.1889 44.1604 75.4512 40.6955 76.5392 37.303Z" fill="url(#paint50_radial_938_24554)"/>
</g>
<g id="Group_9">
<path id="Vector_53" d="M76.3254 31.4126C75.8836 27.9821 80.8127 24.7441 87.3336 24.1799C93.8545 23.6156 99.4988 25.9399 99.9397 29.3704C100.381 32.8008 95.4515 36.0397 88.9306 36.6031C82.4097 37.1673 76.7663 34.8438 76.3254 31.4126Z" fill="url(#paint51_radial_938_24554)"/>
</g>
<g id="Group_10">
<path id="Vector_54" d="M71.5575 19.9903C71.0864 17.2838 70.6472 11.1667 78.3182 8.78884C85.1437 6.6733 92.6344 9.70943 94.7766 14.5755C96.9189 19.4425 93.0235 24.7417 86.0755 26.412C79.1284 28.0824 72.4694 25.2283 71.5575 19.9903Z" fill="url(#paint52_radial_938_24554)"/>
</g>
</g>
<g id="ADRENAL GLAND_2">
<path id="Vector_55" d="M66.794 15.6053C66.945 16.5898 67.8656 17.2662 68.85 17.1152C69.1632 17.0669 69.4445 16.9409 69.6774 16.7597C69.9639 16.538 70.3979 16.5768 70.6455 16.8408C71.0363 17.2567 71.6152 17.4802 72.2235 17.387C72.5324 17.3395 72.8102 17.2161 73.0406 17.0384C73.39 16.7692 73.8611 16.7718 74.1786 17.0772C74.6264 17.5078 75.2881 17.701 75.9559 17.4983C76.8687 17.2205 77.282 16.3948 77.2466 15.4414C77.2345 15.1153 76.8161 14.683 77.6668 14.5536C78.3596 14.4475 78.8919 13.9557 79.1007 13.3302C79.2379 12.9178 79.6831 12.7124 80.1154 12.7538C80.3181 12.7728 80.5476 12.772 80.7996 12.7331C81.4432 12.6348 81.9548 12.2068 82.1895 11.6477C82.3526 11.2604 82.7891 11.074 83.1791 11.2293C83.4647 11.3432 83.7977 11.4139 84.1471 11.3604C84.6605 11.2819 85.0902 10.9938 85.3628 10.596C85.6717 10.1456 86.2541 10.0249 86.7157 10.3173C87.015 10.5063 87.3489 10.6314 87.6768 10.5814C88.0702 10.521 88.4153 10.3372 88.6768 10.0758C89.1573 9.59606 89.8631 9.47182 90.4429 9.82555C90.7 9.98258 90.9743 10.0758 91.2418 10.0343C92.2262 9.88336 92.9027 8.96277 92.7517 7.97834C92.6007 6.99391 91.6801 6.31749 90.6957 6.46847C90.5378 6.49263 90.5947 5.81017 90.5257 5.35635C90.3747 4.37191 89.4541 3.69549 88.4697 3.84648C88.0383 3.91291 87.5672 4.33827 86.6984 4.19332C86.2083 4.11308 85.8227 3.62906 85.3378 3.42199C84.7916 3.18904 84.5276 3.21579 84.2015 3.24253C83.5898 3.29257 82.6468 3.24253 82.3051 3.0717C81.9695 2.90432 81.3474 2.80942 81.2784 2.36163C81.1274 1.3772 80.2068 0.700778 79.2224 0.851765C78.238 1.00275 77.5615 1.92334 77.7125 2.90777C77.7815 3.35642 77.2164 3.48843 77.037 3.1019C76.7177 2.41599 75.9455 2.01825 75.1561 2.13904C74.1717 2.29002 73.4961 3.21061 73.6471 4.19504C73.7351 4.77483 72.2088 4.62212 71.2468 4.76966C70.2615 4.92064 69.586 5.84123 69.737 6.82566C69.8164 7.34678 70.1132 7.77904 70.5204 8.04909C70.774 8.21647 70.8577 8.56244 70.7016 8.823C70.4945 9.16725 70.4013 9.58053 70.4669 10.0093C70.5074 10.2742 70.3677 10.6823 70.171 10.7125C69.1874 10.8626 68.511 11.7832 68.6619 12.7685C68.7094 13.0774 68.5489 13.5122 68.3039 13.5493C67.3195 13.7003 66.643 14.62 66.794 15.6053Z" fill="url(#paint53_radial_938_24554)" stroke="url(#paint54_linear_938_24554)" stroke-miterlimit="10"/>
<path id="Vector_56" d="M87.4033 10.6009C88.3992 10.6009 89.2065 9.79361 89.2065 8.79772C89.2065 7.80183 88.3992 6.99451 87.4033 6.99451C86.4074 6.99451 85.6001 7.80183 85.6001 8.79772C85.6001 9.79361 86.4074 10.6009 87.4033 10.6009Z" fill="url(#paint55_radial_938_24554)"/>
<path id="Vector_57" d="M83.8725 11.3815C84.8684 11.3815 85.6758 10.5741 85.6758 9.57824C85.6758 8.58235 84.8684 7.77502 83.8725 7.77502C82.8767 7.77502 82.0693 8.58235 82.0693 9.57824C82.0693 10.5741 82.8767 11.3815 83.8725 11.3815Z" fill="url(#paint56_radial_938_24554)"/>
<path id="Vector_58" d="M80.5278 12.7538C81.5237 12.7538 82.331 11.9464 82.331 10.9506C82.331 9.95466 81.5237 9.14734 80.5278 9.14734C79.5319 9.14734 78.7246 9.95466 78.7246 10.9506C78.7246 11.9464 79.5319 12.7538 80.5278 12.7538Z" fill="url(#paint57_radial_938_24554)"/>
<path id="Vector_59" d="M77.3979 14.5737C78.3938 14.5737 79.2012 13.7664 79.2012 12.7705C79.2012 11.7746 78.3938 10.9673 77.3979 10.9673C76.402 10.9673 75.5947 11.7746 75.5947 12.7705C75.5947 13.7664 76.402 14.5737 77.3979 14.5737Z" fill="url(#paint58_radial_938_24554)"/>
<path id="Vector_60" d="M75.4219 17.5785C76.4178 17.5785 77.2251 16.7711 77.2251 15.7753C77.2251 14.7794 76.4178 13.972 75.4219 13.972C74.426 13.972 73.6187 14.7794 73.6187 15.7753C73.6187 16.7711 74.426 17.5785 75.4219 17.5785Z" fill="url(#paint59_radial_938_24554)"/>
<path id="Vector_61" d="M73.8843 14.4973C74.8802 14.4973 75.6875 13.69 75.6875 12.6941C75.6875 11.6982 74.8802 10.8909 73.8843 10.8909C72.8884 10.8909 72.0811 11.6982 72.0811 12.6941C72.0811 13.69 72.8884 14.4973 73.8843 14.4973Z" fill="url(#paint60_radial_938_24554)"/>
<path id="Vector_62" d="M75.3755 12.0749C76.3714 12.0749 77.1787 11.2676 77.1787 10.2717C77.1787 9.27583 76.3714 8.46851 75.3755 8.46851C74.3796 8.46851 73.5723 9.27583 73.5723 10.2717C73.5723 11.2676 74.3796 12.0749 75.3755 12.0749Z" fill="url(#paint61_radial_938_24554)"/>
<path id="Vector_63" d="M79.1841 10.4773C80.18 10.4773 80.9873 9.66995 80.9873 8.67406C80.9873 7.67818 80.18 6.87085 79.1841 6.87085C78.1882 6.87085 77.3809 7.67818 77.3809 8.67406C77.3809 9.66995 78.1882 10.4773 79.1841 10.4773Z" fill="url(#paint62_radial_938_24554)"/>
<path id="Vector_64" d="M76.9004 8.79954C77.8963 8.79954 78.7036 7.99222 78.7036 6.99633C78.7036 6.00044 77.8963 5.19312 76.9004 5.19312C75.9045 5.19312 75.0972 6.00044 75.0972 6.99633C75.0972 7.99222 75.9045 8.79954 76.9004 8.79954Z" fill="url(#paint63_radial_938_24554)"/>
<path id="Vector_65" d="M79.7187 7.3535C80.7146 7.3535 81.522 6.54617 81.522 5.55028C81.522 4.5544 80.7146 3.74707 79.7187 3.74707C78.7229 3.74707 77.9155 4.5544 77.9155 5.55028C77.9155 6.54617 78.7229 7.3535 79.7187 7.3535Z" fill="url(#paint64_radial_938_24554)"/>
<path id="Vector_66" d="M82.9922 8.88011C83.9881 8.88011 84.7954 8.07278 84.7954 7.07689C84.7954 6.08101 83.9881 5.27368 82.9922 5.27368C81.9963 5.27368 81.189 6.08101 81.189 7.07689C81.189 8.07278 81.9963 8.88011 82.9922 8.88011Z" fill="url(#paint65_radial_938_24554)"/>
<path id="Vector_67" d="M82.3057 11.0128C83.3015 11.0128 84.1089 10.2055 84.1089 9.20959C84.1089 8.2137 83.3015 7.40637 82.3057 7.40637C81.3098 7.40637 80.5024 8.2137 80.5024 9.20959C80.5024 10.2055 81.3098 11.0128 82.3057 11.0128Z" fill="url(#paint66_radial_938_24554)"/>
<path id="Vector_68" d="M85.2251 10.2097C86.221 10.2097 87.0283 9.40237 87.0283 8.40648C87.0283 7.4106 86.221 6.60327 85.2251 6.60327C84.2292 6.60327 83.4219 7.4106 83.4219 8.40648C83.4219 9.40237 84.2292 10.2097 85.2251 10.2097Z" fill="url(#paint67_radial_938_24554)"/>
<path id="Vector_69" d="M88.3467 9.88426C89.3426 9.88426 90.1499 9.07693 90.1499 8.08105C90.1499 7.08516 89.3426 6.27783 88.3467 6.27783C87.3508 6.27783 86.5435 7.08516 86.5435 8.08105C86.5435 9.07693 87.3508 9.88426 88.3467 9.88426Z" fill="url(#paint68_radial_938_24554)"/>
<path id="Vector_70" d="M86.687 7.85691C87.6829 7.85691 88.4902 7.04959 88.4902 6.0537C88.4902 5.05781 87.6829 4.25049 86.687 4.25049C85.6911 4.25049 84.8838 5.05781 84.8838 6.0537C84.8838 7.04959 85.6911 7.85691 86.687 7.85691Z" fill="url(#paint69_radial_938_24554)"/>
<path id="Vector_71" d="M84.5049 6.8242C85.5008 6.8242 86.3081 6.01687 86.3081 5.02099C86.3081 4.0251 85.5008 3.21777 84.5049 3.21777C83.509 3.21777 82.7017 4.0251 82.7017 5.02099C82.7017 6.01687 83.509 6.8242 84.5049 6.8242Z" fill="url(#paint70_radial_938_24554)"/>
<path id="Vector_72" d="M81.6484 6.59727C82.6443 6.59727 83.4516 5.78995 83.4516 4.79406C83.4516 3.79817 82.6443 2.99084 81.6484 2.99084C80.6525 2.99084 79.8452 3.79817 79.8452 4.79406C79.8452 5.78995 80.6525 6.59727 81.6484 6.59727Z" fill="url(#paint71_radial_938_24554)"/>
<path id="Vector_73" d="M81.6484 6.59727C82.6443 6.59727 83.4516 5.78995 83.4516 4.79406C83.4516 3.79817 82.6443 2.99084 81.6484 2.99084C80.6525 2.99084 79.8452 3.79817 79.8452 4.79406C79.8452 5.78995 80.6525 6.59727 81.6484 6.59727Z" fill="url(#paint72_radial_938_24554)"/>
<path id="Vector_74" d="M72.2495 11.5388C73.2454 11.5388 74.0527 10.7315 74.0527 9.73559C74.0527 8.7397 73.2454 7.93237 72.2495 7.93237C71.2536 7.93237 70.4463 8.7397 70.4463 9.73559C70.4463 10.7315 71.2536 11.5388 72.2495 11.5388Z" fill="url(#paint73_radial_938_24554)"/>
<path id="Vector_75" d="M88.7427 7.43406C89.7386 7.43406 90.5459 6.62674 90.5459 5.63085C90.5459 4.63496 89.7386 3.82764 88.7427 3.82764C87.7468 3.82764 86.9395 4.63496 86.9395 5.63085C86.9395 6.62674 87.7468 7.43406 88.7427 7.43406Z" fill="url(#paint74_radial_938_24554)"/>
<path id="Vector_76" d="M85.0649 8.10545C86.0608 8.10545 86.8681 7.29812 86.8681 6.30224C86.8681 5.30635 86.0608 4.49902 85.0649 4.49902C84.069 4.49902 83.2617 5.30635 83.2617 6.30224C83.2617 7.29812 84.069 8.10545 85.0649 8.10545Z" fill="url(#paint75_radial_938_24554)"/>
<path id="Vector_77" d="M81.1558 9.29759C82.1516 9.29759 82.959 8.49026 82.959 7.49438C82.959 6.49849 82.1516 5.69116 81.1558 5.69116C80.1599 5.69116 79.3525 6.49849 79.3525 7.49438C79.3525 8.49026 80.1599 9.29759 81.1558 9.29759Z" fill="url(#paint76_radial_938_24554)"/>
<path id="Vector_78" d="M77.5703 10.9707C78.5662 10.9707 79.3735 10.1634 79.3735 9.16747C79.3735 8.17158 78.5662 7.36426 77.5703 7.36426C76.5744 7.36426 75.7671 8.17158 75.7671 9.16747C75.7671 10.1634 76.5744 10.9707 77.5703 10.9707Z" fill="url(#paint77_radial_938_24554)"/>
<path id="Vector_79" d="M74.7353 9.09337C75.7312 9.09337 76.5385 8.28604 76.5385 7.29015C76.5385 6.29426 75.7312 5.48694 74.7353 5.48694C73.7395 5.48694 72.9321 6.29426 72.9321 7.29015C72.9321 8.28604 73.7395 9.09337 74.7353 9.09337Z" fill="url(#paint78_radial_938_24554)"/>
<path id="Vector_80" d="M78.1562 7.59776C79.1521 7.59776 79.9595 6.79043 79.9595 5.79455C79.9595 4.79866 79.1521 3.99133 78.1562 3.99133C77.1604 3.99133 76.353 4.79866 76.353 5.79455C76.353 6.79043 77.1604 7.59776 78.1562 7.59776Z" fill="url(#paint79_radial_938_24554)"/>
<path id="Vector_81" d="M78.7119 6.65941C79.7078 6.65941 80.5151 5.85208 80.5151 4.85619C80.5151 3.8603 79.7078 3.05298 78.7119 3.05298C77.716 3.05298 76.9087 3.8603 76.9087 4.85619C76.9087 5.85208 77.716 6.65941 78.7119 6.65941Z" fill="url(#paint80_radial_938_24554)"/>
<path id="Vector_82" d="M74.874 7.48826C75.8699 7.48826 76.6772 6.68094 76.6772 5.68505C76.6772 4.68916 75.8699 3.88184 74.874 3.88184C73.8781 3.88184 73.0708 4.68916 73.0708 5.68505C73.0708 6.68094 73.8781 7.48826 74.874 7.48826Z" fill="url(#paint81_radial_938_24554)"/>
<path id="Vector_83" d="M72.8057 8.41771C73.8015 8.41771 74.6089 7.61038 74.6089 6.61449C74.6089 5.6186 73.8015 4.81128 72.8057 4.81128C71.8098 4.81128 71.0024 5.6186 71.0024 6.61449C71.0024 7.61038 71.8098 8.41771 72.8057 8.41771Z" fill="url(#paint82_radial_938_24554)"/>
<path id="Vector_84" d="M73.6904 10.6105C74.6863 10.6105 75.4936 9.80313 75.4936 8.80724C75.4936 7.81135 74.6863 7.00403 73.6904 7.00403C72.6945 7.00403 71.8872 7.81135 71.8872 8.80724C71.8872 9.80313 72.6945 10.6105 73.6904 10.6105Z" fill="url(#paint83_radial_938_24554)"/>
<path id="Vector_85" d="M74.2759 12.8512C75.2718 12.8512 76.0791 12.0439 76.0791 11.048C76.0791 10.0521 75.2718 9.24475 74.2759 9.24475C73.28 9.24475 72.4727 10.0521 72.4727 11.048C72.4727 12.0439 73.28 12.8512 74.2759 12.8512Z" fill="url(#paint84_radial_938_24554)"/>
<path id="Vector_86" d="M76.707 14.0655C77.7029 14.0655 78.5102 13.2582 78.5102 12.2623C78.5102 11.2664 77.7029 10.4591 76.707 10.4591C75.7111 10.4591 74.9038 11.2664 74.9038 12.2623C74.9038 13.2582 75.7111 14.0655 76.707 14.0655Z" fill="url(#paint85_radial_938_24554)"/>
<path id="Vector_87" d="M74.7353 15.8591C75.7312 15.8591 76.5386 15.0518 76.5386 14.0559C76.5386 13.06 75.7312 12.2527 74.7353 12.2527C73.7395 12.2527 72.9321 13.06 72.9321 14.0559C72.9321 15.0518 73.7395 15.8591 74.7353 15.8591Z" fill="url(#paint86_radial_938_24554)"/>
<path id="Vector_88" d="M72.2666 15.8443C73.2625 15.8443 74.0698 15.037 74.0698 14.0411C74.0698 13.0452 73.2625 12.2379 72.2666 12.2379C71.2707 12.2379 70.4634 13.0452 70.4634 14.0411C70.4634 15.037 71.2707 15.8443 72.2666 15.8443Z" fill="url(#paint87_radial_938_24554)"/>
<path id="Vector_89" d="M72.2285 14.0249C73.2244 14.0249 74.0317 13.2176 74.0317 12.2217C74.0317 11.2258 73.2244 10.4185 72.2285 10.4185C71.2326 10.4185 70.4253 11.2258 70.4253 12.2217C70.4253 13.2176 71.2326 14.0249 72.2285 14.0249Z" fill="url(#paint88_radial_938_24554)"/>
<path id="Vector_90" d="M70.4087 15.6432C71.4046 15.6432 72.2119 14.8358 72.2119 13.84C72.2119 12.8441 71.4046 12.0367 70.4087 12.0367C69.4128 12.0367 68.6055 12.8441 68.6055 13.84C68.6055 14.8358 69.4128 15.6432 70.4087 15.6432Z" fill="url(#paint89_radial_938_24554)"/>
<path id="Vector_91" d="M72.1655 12.5668C73.1614 12.5668 73.9687 11.7594 73.9687 10.7635C73.9687 9.76765 73.1614 8.96033 72.1655 8.96033C71.1696 8.96033 70.3623 9.76765 70.3623 10.7635C70.3623 11.7594 71.1696 12.5668 72.1655 12.5668Z" fill="url(#paint90_radial_938_24554)"/>
<path id="Vector_92" d="M79.4956 4.43821C80.4915 4.43821 81.2988 3.63089 81.2988 2.635C81.2988 1.63911 80.4915 0.831787 79.4956 0.831787C78.4997 0.831787 77.6924 1.63911 77.6924 2.635C77.6924 3.63089 78.4997 4.43821 79.4956 4.43821Z" fill="url(#paint91_radial_938_24554)"/>
<path id="Vector_93" d="M75.4302 5.72465C76.4261 5.72465 77.2334 4.91733 77.2334 3.92144C77.2334 2.92555 76.4261 2.11823 75.4302 2.11823C74.4343 2.11823 73.627 2.92555 73.627 3.92144C73.627 4.91733 74.4343 5.72465 75.4302 5.72465Z" fill="url(#paint92_radial_938_24554)"/>
<path id="Vector_94" d="M71.521 8.35606C72.5169 8.35606 73.3242 7.54873 73.3242 6.55285C73.3242 5.55696 72.5169 4.74963 71.521 4.74963C70.5251 4.74963 69.7178 5.55696 69.7178 6.55285C69.7178 7.54873 70.5251 8.35606 71.521 8.35606Z" fill="url(#paint93_radial_938_24554)"/>
<path id="Vector_95" d="M71.9507 17.4078C72.9466 17.4078 73.7539 16.6005 73.7539 15.6046C73.7539 14.6087 72.9466 13.8014 71.9507 13.8014C70.9548 13.8014 70.1475 14.6087 70.1475 15.6046C70.1475 16.6005 70.9548 17.4078 71.9507 17.4078Z" fill="url(#paint94_radial_938_24554)"/>
<path id="Vector_96" d="M70.4424 14.2982C71.4383 14.2982 72.2456 13.4909 72.2456 12.495C72.2456 11.4991 71.4383 10.6918 70.4424 10.6918C69.4465 10.6918 68.6392 11.4991 68.6392 12.495C68.6392 13.4909 69.4465 14.2982 70.4424 14.2982Z" fill="url(#paint95_radial_938_24554)"/>
<path id="Vector_97" d="M68.5762 17.135C69.5721 17.135 70.3794 16.3277 70.3794 15.3318C70.3794 14.3359 69.5721 13.5286 68.5762 13.5286C67.5803 13.5286 66.7729 14.3359 66.7729 15.3318C66.7729 16.3277 67.5803 17.135 68.5762 17.135Z" fill="url(#paint96_radial_938_24554)"/>
<path id="Vector_98" d="M90.9712 10.0549C91.9671 10.0549 92.7744 9.24759 92.7744 8.2517C92.7744 7.25581 91.9671 6.44849 90.9712 6.44849C89.9753 6.44849 89.168 7.25581 89.168 8.2517C89.168 9.24759 89.9753 10.0549 90.9712 10.0549Z" fill="url(#paint97_radial_938_24554)"/>
</g>
</g>
</g>
<defs>
<radialGradient id="paint0_radial_938_24554" cx="0" cy="0" r="1" gradientTransform="matrix(9.65033 2.386 -3.02301 6.75088 16.0227 50.2133)" gradientUnits="userSpaceOnUse">
<stop stop-color="#CC629C"/>
<stop offset="0.9995" stop-color="#6B294B"/>
</radialGradient>
<radialGradient id="paint1_radial_938_24554" cx="0" cy="0" r="1" gradientTransform="matrix(8.77038 -1.16425 1.46306 4.66601 10.8877 38.4321)" gradientUnits="userSpaceOnUse">
<stop stop-color="#CC629C"/>
<stop offset="0.9995" stop-color="#6B294B"/>
</radialGradient>
<radialGradient id="paint2_radial_938_24554" cx="0" cy="0" r="1" gradientTransform="matrix(9.23307 0.858027 -0.655896 4.85631 10.453 29.1523)" gradientUnits="userSpaceOnUse">
<stop stop-color="#CC629C"/>
<stop offset="0.9995" stop-color="#6B294B"/>
</radialGradient>
<radialGradient id="paint3_radial_938_24554" cx="0" cy="0" r="1" gradientTransform="matrix(9.49659 2.34799 -2.97485 6.64333 15.9894 15.6049)" gradientUnits="userSpaceOnUse">
<stop stop-color="#CC629C"/>
<stop offset="0.9995" stop-color="#6B294B"/>
</radialGradient>
<radialGradient id="paint4_radial_938_24554" cx="0" cy="0" r="1" gradientTransform="matrix(15.2336 0.50606 -0.25303 7.60309 17.8257 5.99085)" gradientUnits="userSpaceOnUse">
<stop stop-color="#FFBE79"/>
<stop offset="0.9995" stop-color="#854F17"/>
</radialGradient>
<linearGradient id="paint5_linear_938_24554" x1="23.7445" y1="-3.12329" x2="17.6977" y2="19.1576" gradientUnits="userSpaceOnUse">
<stop stop-color="#FFBE79"/>
<stop offset="0.9995" stop-color="#854F17"/>
</linearGradient>
<radialGradient id="paint6_radial_938_24554" cx="0" cy="0" r="1" gradientUnits="userSpaceOnUse" gradientTransform="translate(11.5171 8.84661) rotate(0.183346) scale(2.19924)">
<stop stop-color="#A86927" stop-opacity="0"/>
<stop offset="0.9995" stop-color="#854F17"/>
</radialGradient>
<radialGradient id="paint7_radial_938_24554" cx="0" cy="0" r="1" gradientUnits="userSpaceOnUse" gradientTransform="translate(15.1276 9.09437) rotate(0.183346) scale(2.19924)">
<stop stop-color="#A86927" stop-opacity="0"/>
<stop offset="0.9995" stop-color="#854F17"/>
</radialGradient>
<radialGradient id="paint8_radial_938_24554" cx="0" cy="0" r="1" gradientUnits="userSpaceOnUse" gradientTransform="translate(18.6406 9.95537) rotate(0.183346) scale(2.19924)">
<stop stop-color="#A86927" stop-opacity="0"/>
<stop offset="0.9995" stop-color="#854F17"/>
</radialGradient>
<radialGradient id="paint9_radial_938_24554" cx="0" cy="0" r="1" gradientUnits="userSpaceOnUse" gradientTransform="translate(22.0025 11.2904) rotate(0.183346) scale(2.19924 2.19924)">
<stop stop-color="#A86927" stop-opacity="0"/>
<stop offset="0.9995" stop-color="#854F17"/>
</radialGradient>
<radialGradient id="paint10_radial_938_24554" cx="0" cy="0" r="1" gradientUnits="userSpaceOnUse" gradientTransform="translate(24.4048 13.9703) rotate(0.183346) scale(2.19924)">
<stop stop-color="#A86927" stop-opacity="0"/>
<stop offset="0.9995" stop-color="#854F17"/>
</radialGradient>
<radialGradient id="paint11_radial_938_24554" cx="0" cy="0" r="1" gradientUnits="userSpaceOnUse" gradientTransform="translate(25.4656 10.6953) rotate(0.183346) scale(2.19924)">
<stop stop-color="#A86927" stop-opacity="0"/>
<stop offset="0.9995" stop-color="#854F17"/>
</radialGradient>
<radialGradient id="paint12_radial_938_24554" cx="0" cy="0" r="1" gradientUnits="userSpaceOnUse" gradientTransform="translate(23.6331 8.52039) rotate(0.183346) scale(2.19924)">
<stop stop-color="#A86927" stop-opacity="0"/>
<stop offset="0.9995" stop-color="#854F17"/>
</radialGradient>
<radialGradient id="paint13_radial_938_24554" cx="0" cy="0" r="1" gradientUnits="userSpaceOnUse" gradientTransform="translate(19.6309 7.50487) rotate(0.183346) scale(2.19924)">
<stop stop-color="#A86927" stop-opacity="0"/>
<stop offset="0.9995" stop-color="#854F17"/>
</radialGradient>
<radialGradient id="paint14_radial_938_24554" cx="0" cy="0" r="1" gradientUnits="userSpaceOnUse" gradientTransform="translate(21.6406 5.50694) rotate(0.183346) scale(2.19924)">
<stop stop-color="#A86927" stop-opacity="0"/>
<stop offset="0.9995" stop-color="#854F17"/>
</radialGradient>
<radialGradient id="paint15_radial_938_24554" cx="0" cy="0" r="1" gradientUnits="userSpaceOnUse" gradientTransform="translate(18.6369 4.49559) rotate(0.183346) scale(2.19924)">
<stop stop-color="#A86927" stop-opacity="0"/>
<stop offset="0.9995" stop-color="#854F17"/>
</radialGradient>
<radialGradient id="paint16_radial_938_24554" cx="0" cy="0" r="1" gradientUnits="userSpaceOnUse" gradientTransform="translate(15.6243 6.49021) rotate(0.183346) scale(2.19924)">
<stop stop-color="#A86927" stop-opacity="0"/>
<stop offset="0.9995" stop-color="#854F17"/>
</radialGradient>
<radialGradient id="paint17_radial_938_24554" cx="0" cy="0" r="1" gradientUnits="userSpaceOnUse" gradientTransform="translate(16.619 8.49767) rotate(0.183346) scale(2.19924)">
<stop stop-color="#A86927" stop-opacity="0"/>
<stop offset="0.9995" stop-color="#854F17"/>
</radialGradient>
<radialGradient id="paint18_radial_938_24554" cx="0" cy="0" r="1" gradientUnits="userSpaceOnUse" gradientTransform="translate(13.6153 8.13547) rotate(0.183346) scale(2.19924)">
<stop stop-color="#A86927" stop-opacity="0"/>
<stop offset="0.9995" stop-color="#854F17"/>
</radialGradient>
<radialGradient id="paint19_radial_938_24554" cx="0" cy="0" r="1" gradientUnits="userSpaceOnUse" gradientTransform="translate(10.4806 8.27739) rotate(0.183346) scale(2.19924)">
<stop stop-color="#A86927" stop-opacity="0"/>
<stop offset="0.9995" stop-color="#854F17"/>
</radialGradient>
<radialGradient id="paint20_radial_938_24554" cx="0" cy="0" r="1" gradientUnits="userSpaceOnUse" gradientTransform="translate(11.8207 6.02612) rotate(0.183346) scale(2.19924)">
<stop stop-color="#A86927" stop-opacity="0"/>
<stop offset="0.9995" stop-color="#854F17"/>
</radialGradient>
<radialGradient id="paint21_radial_938_24554" cx="0" cy="0" r="1" gradientUnits="userSpaceOnUse" gradientTransform="translate(13.8261 4.68078) rotate(0.183346) scale(2.19924)">
<stop stop-color="#A86927" stop-opacity="0"/>
<stop offset="0.9995" stop-color="#854F17"/>
</radialGradient>
<radialGradient id="paint22_radial_938_24554" cx="0" cy="0" r="1" gradientUnits="userSpaceOnUse" gradientTransform="translate(16.6151 4.03275) rotate(0.183346) scale(2.19924)">
<stop stop-color="#A86927" stop-opacity="0"/>
<stop offset="0.9995" stop-color="#854F17"/>
</radialGradient>
<radialGradient id="paint23_radial_938_24554" cx="0" cy="0" r="1" gradientUnits="userSpaceOnUse" gradientTransform="translate(16.6151 4.03275) rotate(0.183346) scale(2.19924)">
<stop stop-color="#A86927" stop-opacity="0"/>
<stop offset="0.9995" stop-color="#854F17"/>
</radialGradient>
<radialGradient id="paint24_radial_938_24554" cx="0" cy="0" r="1" gradientUnits="userSpaceOnUse" gradientTransform="translate(26.6451 7.52747) rotate(0.183346) scale(2.19924)">
<stop stop-color="#A86927" stop-opacity="0"/>
<stop offset="0.9995" stop-color="#854F17"/>
</radialGradient>
<radialGradient id="paint25_radial_938_24554" cx="0" cy="0" r="1" gradientUnits="userSpaceOnUse" gradientTransform="translate(9.72206 5.9123) rotate(0.183346) scale(2.19924)">
<stop stop-color="#A86927" stop-opacity="0"/>
<stop offset="0.9995" stop-color="#854F17"/>
</radialGradient>
<radialGradient id="paint26_radial_938_24554" cx="0" cy="0" r="1" gradientUnits="userSpaceOnUse" gradientTransform="translate(13.4594 6.03144) rotate(0.183346) scale(2.19924)">
<stop stop-color="#A86927" stop-opacity="0"/>
<stop offset="0.9995" stop-color="#854F17"/>
</radialGradient>
<radialGradient id="paint27_radial_938_24554" cx="0" cy="0" r="1" gradientUnits="userSpaceOnUse" gradientTransform="translate(17.5037 6.63081) rotate(0.183346) scale(2.19924)">
<stop stop-color="#A86927" stop-opacity="0"/>
<stop offset="0.9995" stop-color="#854F17"/>
</radialGradient>
<radialGradient id="paint28_radial_938_24554" cx="0" cy="0" r="1" gradientUnits="userSpaceOnUse" gradientTransform="translate(21.299 7.75357) rotate(0.183346) scale(2.19924)">
<stop stop-color="#A86927" stop-opacity="0"/>
<stop offset="0.9995" stop-color="#854F17"/>
</radialGradient>
<radialGradient id="paint29_radial_938_24554" cx="0" cy="0" r="1" gradientUnits="userSpaceOnUse" gradientTransform="translate(23.8272 5.47603) rotate(0.183346) scale(2.19924 2.19924)">
<stop stop-color="#A86927" stop-opacity="0"/>
<stop offset="0.9995" stop-color="#854F17"/>
</radialGradient>
<radialGradient id="paint30_radial_938_24554" cx="0" cy="0" r="1" gradientUnits="userSpaceOnUse" gradientTransform="translate(20.2209 4.50488) rotate(0.183346) scale(2.19924)">
<stop stop-color="#A86927" stop-opacity="0"/>
<stop offset="0.9995" stop-color="#854F17"/>
</radialGradient>
<radialGradient id="paint31_radial_938_24554" cx="0" cy="0" r="1" gradientUnits="userSpaceOnUse" gradientTransform="translate(19.5301 3.65907) rotate(0.183346) scale(2.19924)">
<stop stop-color="#A86927" stop-opacity="0"/>
<stop offset="0.9995" stop-color="#854F17"/>
</radialGradient>
<radialGradient id="paint32_radial_938_24554" cx="0" cy="0" r="1" gradientUnits="userSpaceOnUse" gradientTransform="translate(23.4473 3.90988) rotate(0.183346) scale(2.19924)">
<stop stop-color="#A86927" stop-opacity="0"/>
<stop offset="0.9995" stop-color="#854F17"/>
</radialGradient>
<radialGradient id="paint33_radial_938_24554" cx="0" cy="0" r="1" gradientUnits="userSpaceOnUse" gradientTransform="translate(25.6301 4.5224) rotate(0.183346) scale(2.19924)">
<stop stop-color="#A86927" stop-opacity="0"/>
<stop offset="0.9995" stop-color="#854F17"/>
</radialGradient>
<radialGradient id="paint34_radial_938_24554" cx="0" cy="0" r="1" gradientUnits="userSpaceOnUse" gradientTransform="translate(25.0826 6.8217) rotate(0.183346) scale(2.19924)">
<stop stop-color="#A86927" stop-opacity="0"/>
<stop offset="0.9995" stop-color="#854F17"/>
</radialGradient>
<radialGradient id="paint35_radial_938_24554" cx="0" cy="0" r="1" gradientUnits="userSpaceOnUse" gradientTransform="translate(24.8345 9.12551) rotate(0.183346) scale(2.19924)">
<stop stop-color="#A86927" stop-opacity="0"/>
<stop offset="0.9995" stop-color="#854F17"/>
</radialGradient>
<radialGradient id="paint36_radial_938_24554" cx="0" cy="0" r="1" gradientUnits="userSpaceOnUse" gradientTransform="translate(22.6097 10.6861) rotate(0.183346) scale(2.19924)">
<stop stop-color="#A86927" stop-opacity="0"/>
<stop offset="0.9995" stop-color="#854F17"/>
</radialGradient>
<radialGradient id="paint37_radial_938_24554" cx="0" cy="0" r="1" gradientUnits="userSpaceOnUse" gradientTransform="translate(24.8259 12.1679) rotate(0.183346) scale(2.19924)">
<stop stop-color="#A86927" stop-opacity="0"/>
<stop offset="0.9995" stop-color="#854F17"/>
</radialGradient>
<radialGradient id="paint38_radial_938_24554" cx="0" cy="0" r="1" gradientUnits="userSpaceOnUse" gradientTransform="translate(27.2688 11.7866) rotate(0.183346) scale(2.19924)">
<stop stop-color="#A86927" stop-opacity="0"/>
<stop offset="0.9995" stop-color="#854F17"/>
</radialGradient>
<radialGradient id="paint39_radial_938_24554" cx="0" cy="0" r="1" gradientUnits="userSpaceOnUse" gradientTransform="translate(27.0366 9.98235) rotate(0.183346) scale(2.19924)">
<stop stop-color="#A86927" stop-opacity="0"/>
<stop offset="0.9995" stop-color="#854F17"/>
</radialGradient>
<radialGradient id="paint40_radial_938_24554" cx="0" cy="0" r="1" gradientUnits="userSpaceOnUse" gradientTransform="translate(29.0718 11.3133) rotate(0.183346) scale(2.19924)">
<stop stop-color="#A86927" stop-opacity="0"/>
<stop offset="0.9995" stop-color="#854F17"/>
</radialGradient>
<radialGradient id="paint41_radial_938_24554" cx="0" cy="0" r="1" gradientUnits="userSpaceOnUse" gradientTransform="translate(26.8812 8.53092) rotate(0.183346) scale(2.19924)">
<stop stop-color="#A86927" stop-opacity="0"/>
<stop offset="0.9995" stop-color="#854F17"/>
</radialGradient>
<radialGradient id="paint42_radial_938_24554" cx="0" cy="0" r="1" gradientUnits="userSpaceOnUse" gradientTransform="translate(18.4258 1.57888) rotate(0.183346) scale(2.19924)">
<stop stop-color="#A86927" stop-opacity="0"/>
<stop offset="0.9995" stop-color="#854F17"/>
</radialGradient>
<radialGradient id="paint43_radial_938_24554" cx="0" cy="0" r="1" gradientUnits="userSpaceOnUse" gradientTransform="translate(22.6392 2.24891) rotate(0.183346) scale(2.19924)">
<stop stop-color="#A86927" stop-opacity="0"/>
<stop offset="0.9995" stop-color="#854F17"/>
</radialGradient>
<radialGradient id="paint44_radial_938_24554" cx="0" cy="0" r="1" gradientUnits="userSpaceOnUse" gradientTransform="translate(26.8937 4.27128) rotate(0.183346) scale(2.19924)">
<stop stop-color="#A86927" stop-opacity="0"/>
<stop offset="0.9995" stop-color="#854F17"/>
</radialGradient>
<radialGradient id="paint45_radial_938_24554" cx="0" cy="0" r="1" gradientUnits="userSpaceOnUse" gradientTransform="translate(27.8118 13.2867) rotate(0.183346) scale(2.19924)">
<stop stop-color="#A86927" stop-opacity="0"/>
<stop offset="0.9995" stop-color="#854F17"/>
</radialGradient>
<radialGradient id="paint46_radial_938_24554" cx="0" cy="0" r="1" gradientUnits="userSpaceOnUse" gradientTransform="translate(28.8398 9.98843) rotate(0.183346) scale(2.19924)">
<stop stop-color="#A86927" stop-opacity="0"/>
<stop offset="0.9995" stop-color="#854F17"/>
</radialGradient>
<radialGradient id="paint47_radial_938_24554" cx="0" cy="0" r="1" gradientUnits="userSpaceOnUse" gradientTransform="translate(31.1061 12.5166) rotate(0.183346) scale(2.19924)">
<stop stop-color="#A86927" stop-opacity="0"/>
<stop offset="0.9995" stop-color="#854F17"/>
</radialGradient>
<radialGradient id="paint48_radial_938_24554" cx="0" cy="0" r="1" gradientUnits="userSpaceOnUse" gradientTransform="translate(7.91066 8.83517) rotate(0.183346) scale(2.19924)">
<stop stop-color="#A86927" stop-opacity="0"/>
<stop offset="0.9995" stop-color="#854F17"/>
</radialGradient>
<radialGradient id="paint49_radial_938_24554" cx="0" cy="0" r="1" gradientTransform="matrix(-9.66552 2.32422 2.98047 6.77012 80.6535 49.1197)" gradientUnits="userSpaceOnUse">
<stop stop-color="#CC629C"/>
<stop offset="0.9995" stop-color="#6B294B"/>
</radialGradient>
<radialGradient id="paint50_radial_938_24554" cx="0" cy="0" r="1" gradientTransform="matrix(-8.76339 -1.22022 -1.49304 4.65702 85.3928 39.3879)" gradientUnits="userSpaceOnUse">
<stop stop-color="#CC629C"/>
<stop offset="0.9995" stop-color="#6B294B"/>
</radialGradient>
<radialGradient id="paint51_radial_938_24554" cx="0" cy="0" r="1" gradientTransform="matrix(-9.23823 0.799244 0.624957 4.86044 86.4724 29.6017)" gradientUnits="userSpaceOnUse">
<stop stop-color="#CC629C"/>
<stop offset="0.9995" stop-color="#6B294B"/>
</radialGradient>
<radialGradient id="paint52_radial_938_24554" cx="0" cy="0" r="1" gradientTransform="matrix(-9.51154 2.28719 2.93299 6.66226 80.624 15.2111)" gradientUnits="userSpaceOnUse">
<stop stop-color="#CC629C"/>
<stop offset="0.9995" stop-color="#6B294B"/>
</radialGradient>
<radialGradient id="paint53_radial_938_24554" cx="0" cy="0" r="1" gradientTransform="matrix(-14.9913 2.75894 1.37642 7.48267 81.1027 6.1103)" gradientUnits="userSpaceOnUse">
<stop stop-color="#FFBE79"/>
<stop offset="0.9995" stop-color="#854F17"/>
</radialGradient>
<linearGradient id="paint54_linear_938_24554" x1="73.8931" y1="-1.83681" x2="83.1773" y2="19.3035" gradientUnits="userSpaceOnUse">
<stop stop-color="#FFBE79"/>
<stop offset="0.9995" stop-color="#854F17"/>
</linearGradient>
<radialGradient id="paint55_radial_938_24554" cx="0" cy="0" r="1" gradientUnits="userSpaceOnUse" gradientTransform="translate(87.7983 8.22083) rotate(171.292) scale(2.19929 2.19929)">
<stop stop-color="#A86927" stop-opacity="0"/>
<stop offset="0.9995" stop-color="#854F17"/>
</radialGradient>
<radialGradient id="paint56_radial_938_24554" cx="0" cy="0" r="1" gradientUnits="userSpaceOnUse" gradientTransform="translate(84.2672 9.00122) rotate(171.292) scale(2.19929 2.19929)">
<stop stop-color="#A86927" stop-opacity="0"/>
<stop offset="0.9995" stop-color="#854F17"/>
</radialGradient>
<radialGradient id="paint57_radial_938_24554" cx="0" cy="0" r="1" gradientUnits="userSpaceOnUse" gradientTransform="translate(80.9224 10.3733) rotate(171.292) scale(2.19929 2.19929)">
<stop stop-color="#A86927" stop-opacity="0"/>
<stop offset="0.9995" stop-color="#854F17"/>
</radialGradient>
<radialGradient id="paint58_radial_938_24554" cx="0" cy="0" r="1" gradientUnits="userSpaceOnUse" gradientTransform="translate(77.7928 12.1926) rotate(171.292) scale(2.19929)">
<stop stop-color="#A86927" stop-opacity="0"/>
<stop offset="0.9995" stop-color="#854F17"/>
</radialGradient>
<radialGradient id="paint59_radial_938_24554" cx="0" cy="0" r="1" gradientUnits="userSpaceOnUse" gradientTransform="translate(75.8159 15.1986) rotate(171.292) scale(2.19929 2.19929)">
<stop stop-color="#A86927" stop-opacity="0"/>
<stop offset="0.9995" stop-color="#854F17"/>
</radialGradient>
<radialGradient id="paint60_radial_938_24554" cx="0" cy="0" r="1" gradientUnits="userSpaceOnUse" gradientTransform="translate(74.2789 12.1169) rotate(171.292) scale(2.19929)">
<stop stop-color="#A86927" stop-opacity="0"/>
<stop offset="0.9995" stop-color="#854F17"/>
</radialGradient>
<radialGradient id="paint61_radial_938_24554" cx="0" cy="0" r="1" gradientUnits="userSpaceOnUse" gradientTransform="translate(75.7698 9.69382) rotate(171.292) scale(2.19929 2.19929)">
<stop stop-color="#A86927" stop-opacity="0"/>
<stop offset="0.9995" stop-color="#854F17"/>
</radialGradient>
<radialGradient id="paint62_radial_938_24554" cx="0" cy="0" r="1" gradientUnits="userSpaceOnUse" gradientTransform="translate(79.5783 8.09711) rotate(171.292) scale(2.19929 2.19929)">
<stop stop-color="#A86927" stop-opacity="0"/>
<stop offset="0.9995" stop-color="#854F17"/>
</radialGradient>
<radialGradient id="paint63_radial_938_24554" cx="0" cy="0" r="1" gradientUnits="userSpaceOnUse" gradientTransform="translate(77.2954 6.41874) rotate(171.292) scale(2.19929 2.19929)">
<stop stop-color="#A86927" stop-opacity="0"/>
<stop offset="0.9995" stop-color="#854F17"/>
</radialGradient>
<radialGradient id="paint64_radial_938_24554" cx="0" cy="0" r="1" gradientUnits="userSpaceOnUse" gradientTransform="translate(80.1139 4.97345) rotate(171.292) scale(2.19929 2.19929)">
<stop stop-color="#A86927" stop-opacity="0"/>
<stop offset="0.9995" stop-color="#854F17"/>
</radialGradient>
<radialGradient id="paint65_radial_938_24554" cx="0" cy="0" r="1" gradientUnits="userSpaceOnUse" gradientTransform="translate(83.3869 6.49904) rotate(171.292) scale(2.19929 2.19929)">
<stop stop-color="#A86927" stop-opacity="0"/>
<stop offset="0.9995" stop-color="#854F17"/>
</radialGradient>
<radialGradient id="paint66_radial_938_24554" cx="0" cy="0" r="1" gradientUnits="userSpaceOnUse" gradientTransform="translate(82.7005 8.63179) rotate(171.292) scale(2.19929 2.19929)">
<stop stop-color="#A86927" stop-opacity="0"/>
<stop offset="0.9995" stop-color="#854F17"/>
</radialGradient>
<radialGradient id="paint67_radial_938_24554" cx="0" cy="0" r="1" gradientUnits="userSpaceOnUse" gradientTransform="translate(85.62 7.82887) rotate(171.292) scale(2.19929 2.19929)">
<stop stop-color="#A86927" stop-opacity="0"/>
<stop offset="0.9995" stop-color="#854F17"/>
</radialGradient>
<radialGradient id="paint68_radial_938_24554" cx="0" cy="0" r="1" gradientUnits="userSpaceOnUse" gradientTransform="translate(88.7415 7.50398) rotate(171.292) scale(2.19929 2.19929)">
<stop stop-color="#A86927" stop-opacity="0"/>
<stop offset="0.9995" stop-color="#854F17"/>
</radialGradient>
<radialGradient id="paint69_radial_938_24554" cx="0" cy="0" r="1" gradientUnits="userSpaceOnUse" gradientTransform="translate(87.0827 5.47648) rotate(171.292) scale(2.19929 2.19929)">
<stop stop-color="#A86927" stop-opacity="0"/>
<stop offset="0.9995" stop-color="#854F17"/>
</radialGradient>
<radialGradient id="paint70_radial_938_24554" cx="0" cy="0" r="1" gradientUnits="userSpaceOnUse" gradientTransform="translate(84.9001 4.44353) rotate(171.292) scale(2.19929)">
<stop stop-color="#A86927" stop-opacity="0"/>
<stop offset="0.9995" stop-color="#854F17"/>
</radialGradient>
<radialGradient id="paint71_radial_938_24554" cx="0" cy="0" r="1" gradientUnits="userSpaceOnUse" gradientTransform="translate(82.0436 4.21628) rotate(171.292) scale(2.19929 2.19929)">
<stop stop-color="#A86927" stop-opacity="0"/>
<stop offset="0.9995" stop-color="#854F17"/>
</radialGradient>
<radialGradient id="paint72_radial_938_24554" cx="0" cy="0" r="1" gradientUnits="userSpaceOnUse" gradientTransform="translate(82.0436 4.21628) rotate(171.292) scale(2.19929 2.19929)">
<stop stop-color="#A86927" stop-opacity="0"/>
<stop offset="0.9995" stop-color="#854F17"/>
</radialGradient>
<radialGradient id="paint73_radial_938_24554" cx="0" cy="0" r="1" gradientUnits="userSpaceOnUse" gradientTransform="translate(72.6441 9.1584) rotate(171.292) scale(2.19929 2.19929)">
<stop stop-color="#A86927" stop-opacity="0"/>
<stop offset="0.9995" stop-color="#854F17"/>
</radialGradient>
<radialGradient id="paint74_radial_938_24554" cx="0" cy="0" r="1" gradientUnits="userSpaceOnUse" gradientTransform="translate(89.1377 5.05361) rotate(171.292) scale(2.19929 2.19929)">
<stop stop-color="#A86927" stop-opacity="0"/>
<stop offset="0.9995" stop-color="#854F17"/>
</radialGradient>
<radialGradient id="paint75_radial_938_24554" cx="0" cy="0" r="1" gradientUnits="userSpaceOnUse" gradientTransform="translate(85.4596 5.72512) rotate(171.292) scale(2.19929 2.19929)">
<stop stop-color="#A86927" stop-opacity="0"/>
<stop offset="0.9995" stop-color="#854F17"/>
</radialGradient>
<radialGradient id="paint76_radial_938_24554" cx="0" cy="0" r="1" gradientUnits="userSpaceOnUse" gradientTransform="translate(81.5502 6.91636) rotate(171.292) scale(2.19929)">
<stop stop-color="#A86927" stop-opacity="0"/>
<stop offset="0.9995" stop-color="#854F17"/>
</radialGradient>
<radialGradient id="paint77_radial_938_24554" cx="0" cy="0" r="1" gradientUnits="userSpaceOnUse" gradientTransform="translate(77.9653 8.59001) rotate(171.292) scale(2.19929 2.19929)">
<stop stop-color="#A86927" stop-opacity="0"/>
<stop offset="0.9995" stop-color="#854F17"/>
</radialGradient>
<radialGradient id="paint78_radial_938_24554" cx="0" cy="0" r="1" gradientUnits="userSpaceOnUse" gradientTransform="translate(75.1299 6.71244) rotate(171.292) scale(2.19929 2.19929)">
<stop stop-color="#A86927" stop-opacity="0"/>
<stop offset="0.9995" stop-color="#854F17"/>
</radialGradient>
<radialGradient id="paint79_radial_938_24554" cx="0" cy="0" r="1" gradientUnits="userSpaceOnUse" gradientTransform="translate(78.5513 5.21751) rotate(171.292) scale(2.19929)">
<stop stop-color="#A86927" stop-opacity="0"/>
<stop offset="0.9995" stop-color="#854F17"/>
</radialGradient>
<radialGradient id="paint80_radial_938_24554" cx="0" cy="0" r="1" gradientUnits="userSpaceOnUse" gradientTransform="translate(79.1066 4.27815) rotate(171.292) scale(2.19929 2.19929)">
<stop stop-color="#A86927" stop-opacity="0"/>
<stop offset="0.9995" stop-color="#854F17"/>
</radialGradient>
<radialGradient id="paint81_radial_938_24554" cx="0" cy="0" r="1" gradientUnits="userSpaceOnUse" gradientTransform="translate(75.2689 5.10741) rotate(171.292) scale(2.19929 2.19929)">
<stop stop-color="#A86927" stop-opacity="0"/>
<stop offset="0.9995" stop-color="#854F17"/>
</radialGradient>
<radialGradient id="paint82_radial_938_24554" cx="0" cy="0" r="1" gradientUnits="userSpaceOnUse" gradientTransform="translate(73.2008 6.03696) rotate(171.292) scale(2.19929)">
<stop stop-color="#A86927" stop-opacity="0"/>
<stop offset="0.9995" stop-color="#854F17"/>
</radialGradient>
<radialGradient id="paint83_radial_938_24554" cx="0" cy="0" r="1" gradientUnits="userSpaceOnUse" gradientTransform="translate(74.0852 8.22919) rotate(171.292) scale(2.19929 2.19929)">
<stop stop-color="#A86927" stop-opacity="0"/>
<stop offset="0.9995" stop-color="#854F17"/>
</radialGradient>
<radialGradient id="paint84_radial_938_24554" cx="0" cy="0" r="1" gradientUnits="userSpaceOnUse" gradientTransform="translate(74.67 10.4709) rotate(171.292) scale(2.19929 2.19929)">
<stop stop-color="#A86927" stop-opacity="0"/>
<stop offset="0.9995" stop-color="#854F17"/>
</radialGradient>
<radialGradient id="paint85_radial_938_24554" cx="0" cy="0" r="1" gradientUnits="userSpaceOnUse" gradientTransform="translate(77.1016 11.6849) rotate(171.292) scale(2.19929 2.19929)">
<stop stop-color="#A86927" stop-opacity="0"/>
<stop offset="0.9995" stop-color="#854F17"/>
</radialGradient>
<radialGradient id="paint86_radial_938_24554" cx="0" cy="0" r="1" gradientUnits="userSpaceOnUse" gradientTransform="translate(75.1293 13.4784) rotate(171.292) scale(2.19929 2.19929)">
<stop stop-color="#A86927" stop-opacity="0"/>
<stop offset="0.9995" stop-color="#854F17"/>
</radialGradient>
<radialGradient id="paint87_radial_938_24554" cx="0" cy="0" r="1" gradientUnits="userSpaceOnUse" gradientTransform="translate(72.6616 13.4631) rotate(171.292) scale(2.19929)">
<stop stop-color="#A86927" stop-opacity="0"/>
<stop offset="0.9995" stop-color="#854F17"/>
</radialGradient>
<radialGradient id="paint88_radial_938_24554" cx="0" cy="0" r="1" gradientUnits="userSpaceOnUse" gradientTransform="translate(72.623 11.6447) rotate(171.292) scale(2.19929 2.19929)">
<stop stop-color="#A86927" stop-opacity="0"/>
<stop offset="0.9995" stop-color="#854F17"/>
</radialGradient>
<radialGradient id="paint89_radial_938_24554" cx="0" cy="0" r="1" gradientUnits="userSpaceOnUse" gradientTransform="translate(70.8029 13.2627) rotate(171.292) scale(2.19929)">
<stop stop-color="#A86927" stop-opacity="0"/>
<stop offset="0.9995" stop-color="#854F17"/>
</radialGradient>
<radialGradient id="paint90_radial_938_24554" cx="0" cy="0" r="1" gradientUnits="userSpaceOnUse" gradientTransform="translate(72.5593 10.1854) rotate(171.292) scale(2.19929 2.19929)">
<stop stop-color="#A86927" stop-opacity="0"/>
<stop offset="0.9995" stop-color="#854F17"/>
</radialGradient>
<radialGradient id="paint91_radial_938_24554" cx="0" cy="0" r="1" gradientUnits="userSpaceOnUse" gradientTransform="translate(79.8911 2.0574) rotate(171.292) scale(2.19929 2.19929)">
<stop stop-color="#A86927" stop-opacity="0"/>
<stop offset="0.9995" stop-color="#854F17"/>
</radialGradient>
<radialGradient id="paint92_radial_938_24554" cx="0" cy="0" r="1" gradientUnits="userSpaceOnUse" gradientTransform="translate(75.8251 3.34443) rotate(171.292) scale(2.19929 2.19929)">
<stop stop-color="#A86927" stop-opacity="0"/>
<stop offset="0.9995" stop-color="#854F17"/>
</radialGradient>
<radialGradient id="paint93_radial_938_24554" cx="0" cy="0" r="1" gradientUnits="userSpaceOnUse" gradientTransform="translate(71.9152 5.97451) rotate(171.292) scale(2.19929 2.19929)">
<stop stop-color="#A86927" stop-opacity="0"/>
<stop offset="0.9995" stop-color="#854F17"/>
</radialGradient>
<radialGradient id="paint94_radial_938_24554" cx="0" cy="0" r="1" gradientUnits="userSpaceOnUse" gradientTransform="translate(72.345 15.0268) rotate(171.292) scale(2.19929)">
<stop stop-color="#A86927" stop-opacity="0"/>
<stop offset="0.9995" stop-color="#854F17"/>
</radialGradient>
<radialGradient id="paint95_radial_938_24554" cx="0" cy="0" r="1" gradientUnits="userSpaceOnUse" gradientTransform="translate(70.8369 11.9176) rotate(171.292) scale(2.19929)">
<stop stop-color="#A86927" stop-opacity="0"/>
<stop offset="0.9995" stop-color="#854F17"/>
</radialGradient>
<radialGradient id="paint96_radial_938_24554" cx="0" cy="0" r="1" gradientUnits="userSpaceOnUse" gradientTransform="translate(68.9705 14.7543) rotate(171.292) scale(2.19929)">
<stop stop-color="#A86927" stop-opacity="0"/>
<stop offset="0.9995" stop-color="#854F17"/>
</radialGradient>
<radialGradient id="paint97_radial_938_24554" cx="0" cy="0" r="1" gradientUnits="userSpaceOnUse" gradientTransform="translate(91.3661 7.6748) rotate(171.292) scale(2.19929 2.19929)">
<stop stop-color="#A86927" stop-opacity="0"/>
<stop offset="0.9995" stop-color="#854F17"/>
</radialGradient>
</defs>
</svg>
