<svg width="58" height="166" viewBox="0 0 58 166" fill="none" xmlns="http://www.w3.org/2000/svg">
<g id="R-ICO-013065">
<path id="Vector" d="M38.0835 165.451C36.2944 165.451 34.564 164.488 33.665 162.799L17.1254 131.711C16.7406 130.988 16.5395 130.181 16.5395 129.362V99.5225L0.5859 69.5361C0.2012 68.813 0 68.0063 0 67.1875V5C0 2.2388 2.2388 0 5 0C7.7612 0 10 2.2388 10 5V65.9399L25.9536 95.9262C26.3384 96.6493 26.5395 97.456 26.5395 98.2748V128.115L42.4931 158.101C43.79 160.54 42.8652 163.567 40.4277 164.864C39.6792 165.263 38.8755 165.451 38.0835 165.451Z" fill="url(#paint0_linear_938_24334)"/>
<path id="Vector_2" d="M19.3792 165.451C18.5867 165.451 17.7835 165.263 17.035 164.864C14.5975 163.567 13.6727 160.54 14.9696 158.102L30.9232 128.115V98.2749C30.9232 97.4561 31.1244 96.6494 31.5091 95.9263L47.4622 65.94V5C47.4622 2.2388 49.701 0 52.4622 0C55.2234 0 57.4622 2.2388 57.4622 5V67.1875C57.4622 68.0063 57.261 68.813 56.8763 69.5361L40.9232 99.522V129.362C40.9232 130.181 40.722 130.988 40.3373 131.711L23.7977 162.799C22.8987 164.488 21.1683 165.451 19.3792 165.451Z" fill="url(#paint1_linear_938_24334)"/>
</g>
<defs>
<linearGradient id="paint0_linear_938_24334" x1="0" y1="82.7256" x2="43.0799" y2="82.7256" gradientUnits="userSpaceOnUse">
<stop stop-color="#0F82BC"/>
<stop offset="0.1073" stop-color="#1582BB"/>
<stop offset="0.2455" stop-color="#2581B8"/>
<stop offset="0.4009" stop-color="#3F80B2"/>
<stop offset="0.5687" stop-color="#647FAB"/>
<stop offset="0.7466" stop-color="#947DA1"/>
<stop offset="0.9301" stop-color="#CD7B96"/>
<stop offset="1" stop-color="#E57A91"/>
</linearGradient>
<linearGradient id="paint1_linear_938_24334" x1="35.9225" y1="0" x2="35.9225" y2="165.451" gradientUnits="userSpaceOnUse">
<stop stop-color="#0F82BC"/>
<stop offset="1" stop-color="#E57A91"/>
</linearGradient>
</defs>
</svg>
