<svg width="329" height="185" viewBox="0 0 329 185" fill="none" xmlns="http://www.w3.org/2000/svg">
<g id="R-ICO-014859">
<g id="BOTTOM">
<path id="Vector" d="M240.896 129.158C264.084 129.158 247.393 65.3916 280.776 65.3916H287.273C264.084 65.3916 280.775 129.158 247.393 129.158H240.896Z" fill="url(#paint0_linear_938_25837)"/>
<path id="Vector_2" d="M81.377 119.158C104.566 119.158 87.8743 65.3867 121.257 65.3867H127.754C104.566 65.3867 121.257 119.158 87.8743 119.158H81.377Z" fill="url(#paint1_linear_938_25837)"/>
<path id="Vector_3" d="M161.135 119.158C184.323 119.158 167.632 55.3862 201.015 55.3862H207.512C184.323 55.3862 201.015 119.158 167.632 119.158H161.135Z" fill="url(#paint2_linear_938_25837)"/>
<path id="Vector_4" d="M1.61523 119.162C24.8039 119.162 8.11254 65.3916 41.4952 65.3916H47.9925C24.8038 65.3916 41.4952 119.162 8.11249 119.162H1.61523Z" fill="url(#paint3_linear_938_25837)"/>
<path id="Vector_5" d="M280.775 119.162C303.964 119.162 287.273 65.3916 320.655 65.3916L327.153 65.4306C303.964 65.3916 320.655 119.162 287.273 119.162H280.775Z" fill="url(#paint4_linear_938_25837)"/>
<path id="Vector_6" d="M41.4951 119.163C64.6838 119.163 47.9924 55.3911 81.3751 55.3911L87.8724 55.4301C64.6837 55.3911 81.3751 119.163 47.9924 119.163H41.4951Z" fill="url(#paint5_linear_938_25837)"/>
<path id="Vector_7" d="M121.258 129.163C144.447 129.163 127.755 65.3916 161.138 65.3916L167.635 65.4306C144.447 65.3916 161.138 129.163 127.755 129.163H121.258Z" fill="url(#paint6_linear_938_25837)"/>
<path id="Vector_8" d="M201.016 119.162C224.204 119.162 207.513 65.3916 240.896 65.3916L247.393 65.4306C224.204 65.3916 240.896 119.162 207.513 119.162H201.016Z" fill="url(#paint7_linear_938_25837)"/>
</g>
<g id="BOTTOM OUTLINE">
<path id="Vector_9" d="M8.11267 120.778H1.6153C0.723295 120.778 0 120.055 0 119.163C0 118.271 0.723295 117.547 1.6153 117.547C10.2203 117.547 12.5574 109.257 15.3841 95.6031C16.9284 88.1432 18.5251 80.4295 22.1454 74.3782C26.4135 67.2443 32.7432 63.7764 41.4954 63.7764H47.9925C48.8845 63.7764 49.6078 64.4996 49.6078 65.3917C49.6078 66.2838 48.8845 67.007 47.9925 67.007C39.3875 67.007 37.0504 75.2973 34.2239 88.9512C32.6796 96.411 31.0828 104.125 27.4625 110.176C23.1945 117.31 16.8651 120.778 8.11267 120.778ZM39.2458 67.1003C24.3186 68.3766 21.3873 82.5399 18.5474 96.2581C16.8401 104.506 15.0929 112.946 10.362 117.454C25.2894 116.178 28.2206 102.014 31.0605 88.2964C32.768 80.0484 34.5152 71.6085 39.2458 67.1003Z" fill="#3D9799"/>
<path id="Vector_10" d="M87.8723 120.773H81.375C80.483 120.773 79.7598 120.049 79.7598 119.157C79.7598 118.265 80.4831 117.542 81.375 117.542C89.98 117.542 92.3171 109.252 95.1438 95.5979C96.6881 88.1379 98.2849 80.4242 101.905 74.3728C106.173 67.239 112.503 63.771 121.255 63.771H127.752C128.644 63.771 129.368 64.4942 129.368 65.3863C129.368 66.2784 128.644 67.0016 127.752 67.0016C119.147 67.0016 116.81 75.2919 113.984 88.9458C112.439 96.4056 110.843 104.12 107.222 110.171C102.954 117.305 96.6249 120.773 87.8723 120.773ZM119.005 67.095C104.078 68.3713 101.147 82.5347 98.3071 96.2528C96.5997 104.501 94.8526 112.941 90.1217 117.449C105.049 116.173 107.981 102.009 110.82 88.291C112.528 80.0432 114.275 71.6032 119.005 67.095Z" fill="#3D9799"/>
<path id="Vector_11" d="M161.136 119.158C184.324 119.158 167.633 55.3862 201.016 55.3862H207.513C184.324 55.3862 201.016 119.158 167.633 119.158H161.136Z" stroke="#3D9799" stroke-width="3.24" stroke-miterlimit="10" stroke-linecap="round" stroke-linejoin="round"/>
<path id="Vector_12" d="M287.279 120.778H280.782C279.89 120.778 279.167 120.055 279.167 119.163C279.167 118.271 279.89 117.547 280.782 117.547C290.482 117.547 292.628 109.099 295.01 95.1844C296.273 87.8035 297.579 80.1715 301.07 74.2035C305.174 67.1872 311.583 63.7764 320.662 63.7764L327.169 63.8153C328.06 63.8206 328.778 64.5461 328.775 65.437C328.771 66.3266 328.049 67.0459 327.16 67.0459C327.151 67.0461 327.143 67.0459 327.134 67.0459C318.548 67.0459 316.214 75.3273 313.39 88.9611C311.846 96.4179 310.249 104.129 306.628 110.178C302.36 117.311 296.031 120.778 287.279 120.778ZM318.457 67.0836C311.72 67.57 307.046 70.3851 303.859 75.8347C300.665 81.2957 299.409 88.6334 298.194 95.7296C296.752 104.151 295.277 112.77 290.29 117.377C304.555 115.69 307.436 101.783 310.227 88.3061C311.939 80.0363 313.693 71.5733 318.457 67.0836Z" fill="#993D61"/>
<path id="Vector_13" d="M207.513 120.778H201.016C200.124 120.778 199.4 120.055 199.4 119.163C199.4 118.271 200.124 117.547 201.016 117.547C210.715 117.547 212.861 109.099 215.243 95.1844C216.506 87.8035 217.813 80.1715 221.303 74.2035C225.407 67.1872 231.816 63.7764 240.895 63.7764L247.402 63.8153C248.293 63.8206 249.011 64.5461 249.008 65.437C249.005 66.3266 248.282 67.0459 247.393 67.0459C247.384 67.0461 247.376 67.0459 247.368 67.0459C238.782 67.0459 236.447 75.3273 233.623 88.9611C232.079 96.4179 230.482 104.129 226.862 110.178C222.593 117.311 216.264 120.778 207.513 120.778ZM238.691 67.0836C231.954 67.57 227.28 70.3851 224.092 75.8347C220.898 81.2957 219.642 88.6334 218.427 95.7296C216.985 104.151 215.51 112.77 210.523 117.377C224.788 115.69 227.669 101.783 230.46 88.3061C232.173 80.0363 233.926 71.5733 238.691 67.0836Z" fill="#993D61"/>
<path id="Vector_14" d="M121.258 129.163C144.447 129.163 127.755 65.3916 161.138 65.3916L167.635 65.4306C144.447 65.3916 161.138 129.163 127.755 129.163H121.258Z" stroke="#993D61" stroke-width="3.24" stroke-miterlimit="10" stroke-linecap="round" stroke-linejoin="round"/>
<path id="Vector_15" d="M41.4951 119.163C64.6838 119.163 47.9924 55.3911 81.3751 55.3911L87.8724 55.4301C64.6837 55.3911 81.3751 119.163 47.9924 119.163H41.4951Z" stroke="#993D61" stroke-width="3.24" stroke-miterlimit="10" stroke-linecap="round" stroke-linejoin="round"/>
<path id="Vector_16" d="M240.896 129.158C264.084 129.158 247.393 65.3916 280.776 65.3916H287.273C264.084 65.3916 280.775 129.158 247.393 129.158H240.896Z" stroke="#3D9799" stroke-width="3.24" stroke-miterlimit="10" stroke-linecap="round" stroke-linejoin="round"/>
</g>
<g id="TOP" opacity="0.7">
<path id="Vector_17" d="M47.9925 119.163C24.8038 119.163 41.4952 65.3921 8.11249 65.3921H1.61523C24.8039 65.3921 8.11254 119.163 41.4952 119.163H47.9925Z" fill="url(#paint8_linear_938_25837)"/>
<path id="Vector_18" d="M81.3779 182.934C104.567 182.934 87.8752 129.164 121.258 129.164L127.755 129.203C104.567 129.164 121.258 182.934 87.8752 182.934H81.3779Z" fill="url(#paint9_linear_938_25837)"/>
<path id="Vector_19" d="M167.635 119.158C144.447 119.158 161.138 65.3872 127.755 65.3872H121.258C144.447 65.3872 127.755 119.158 161.138 119.158H167.635Z" fill="url(#paint10_linear_938_25837)"/>
<path id="Vector_20" d="M201.016 55.3865C224.204 55.3865 207.513 1.61572 240.896 1.61572H247.393C224.204 1.61572 240.896 55.3865 207.513 55.3865H201.016Z" fill="url(#paint11_linear_938_25837)"/>
<path id="Vector_21" d="M207.513 119.163C184.324 119.163 201.016 65.3921 167.633 65.3921H161.136C184.324 65.3921 167.633 119.163 201.016 119.163H207.513Z" fill="url(#paint12_linear_938_25837)"/>
<path id="Vector_22" d="M87.8724 119.158C64.6837 119.158 81.3751 65.3921 47.9924 65.3921H41.4951C64.6838 65.3921 47.9924 119.158 81.3751 119.158H87.8724Z" fill="url(#paint13_linear_938_25837)"/>
<path id="Vector_23" d="M287.273 119.163C264.084 119.163 280.776 65.3921 247.393 65.3921H240.896C264.084 65.3921 247.393 119.163 280.776 119.163H287.273Z" fill="url(#paint14_linear_938_25837)"/>
<path id="Vector_24" d="M327.153 119.163C303.964 119.163 320.655 65.3921 287.273 65.3921H280.775C303.964 65.3921 287.273 119.163 320.655 119.163H327.153Z" fill="url(#paint15_linear_938_25837)"/>
</g>
<g id="TOP OUTLINE">
<path id="Vector_25" d="M86.2573 120.778H79.7598C71.0075 120.778 64.6781 117.31 60.41 110.176C56.7896 104.125 55.1929 96.4109 53.6486 88.9511C50.8221 75.2972 48.4849 67.007 39.8799 67.007C38.9879 67.007 38.2646 66.2838 38.2646 65.3917C38.2646 64.4996 38.9879 63.7764 39.8799 63.7764H46.3771C55.1294 63.7764 61.4588 67.2442 65.7269 74.3781C69.3473 80.4295 70.944 88.1433 72.4883 95.6031C75.3151 109.257 77.6523 117.547 86.2573 117.547C87.1493 117.547 87.8725 118.27 87.8725 119.163C87.8725 120.055 87.1493 120.778 86.2573 120.778ZM48.6268 67.1003C53.3575 71.6084 55.1046 80.0482 56.812 88.2961C59.6519 102.014 62.583 116.178 77.5104 117.454C72.7796 112.946 71.0325 104.506 69.3251 96.258C66.4852 82.5401 63.5542 68.3767 48.6268 67.1003Z" fill="#3D9799"/>
<path id="Vector_26" d="M207.513 57.0017H201.016C200.123 57.0017 199.4 56.2785 199.4 55.3864C199.4 54.4943 200.123 53.7711 201.016 53.7711C209.621 53.7711 211.958 45.4806 214.784 31.8269C216.329 24.3669 217.925 16.6532 221.546 10.6018C225.814 3.46791 232.143 0 240.896 0H247.393C248.285 0 249.008 0.723195 249.008 1.6153C249.008 2.5074 248.285 3.23059 247.393 3.23059C238.788 3.23059 236.451 11.5209 233.624 25.1748C232.08 32.6346 230.483 40.3485 226.863 46.3999C222.595 53.5338 216.265 57.0017 207.513 57.0017ZM238.646 3.32401C223.719 4.60031 220.788 18.7637 217.948 32.4819C216.24 40.7296 214.493 49.1699 209.762 53.6778C224.69 52.4017 227.621 38.2381 230.461 24.5201C232.168 16.2722 233.915 7.83221 238.646 3.32401Z" fill="#3D9799"/>
<path id="Vector_27" d="M167.635 120.773H161.138C152.386 120.773 146.056 117.305 141.788 110.171C138.168 104.12 136.571 96.4061 135.026 88.9463C132.2 75.2924 129.863 67.0021 121.258 67.0021C120.366 67.0021 119.643 66.2788 119.643 65.3868C119.643 64.4948 120.366 63.7715 121.258 63.7715H127.755C136.507 63.7715 142.837 67.2395 147.105 74.3733C150.725 80.4246 152.322 88.1384 153.866 95.5982C156.693 109.252 159.03 117.542 167.635 117.542C168.527 117.542 169.25 118.266 169.25 119.158C169.25 120.05 168.527 120.773 167.635 120.773ZM130.005 67.0955C134.735 71.6035 136.483 80.0435 138.19 88.2914C141.03 102.01 143.961 116.173 158.888 117.449C154.158 112.941 152.41 104.501 150.703 96.2532C147.863 82.5352 144.932 68.3718 130.005 67.0955Z" fill="#3D9799"/>
<path id="Vector_28" d="M327.168 120.778H320.671C311.919 120.778 305.589 117.31 301.321 110.176C297.701 104.125 296.104 96.4109 294.56 88.9511C291.733 75.2972 289.396 67.007 280.791 67.007C279.899 67.007 279.176 66.2838 279.176 65.3917C279.176 64.4996 279.899 63.7764 280.791 63.7764H287.288C296.04 63.7764 302.37 67.2442 306.638 74.3781C310.258 80.4295 311.855 88.1433 313.4 95.6031C316.226 109.257 318.563 117.547 327.168 117.547C328.06 117.547 328.784 118.27 328.784 119.163C328.784 120.055 328.06 120.778 327.168 120.778ZM289.538 67.1003C294.269 71.6084 296.016 80.0482 297.723 88.2961C300.563 102.014 303.494 116.178 318.422 117.454C313.691 112.946 311.944 104.506 310.236 96.258C307.396 82.5401 304.465 68.3767 289.538 67.1003Z" fill="#3D9799"/>
<path id="Vector_29" d="M47.9926 120.778H41.4952C32.7429 120.778 26.4135 117.31 22.1454 110.176C18.525 104.125 16.9282 96.4109 15.3841 88.9511C12.5576 75.2974 10.2203 67.007 1.6153 67.007C0.723295 67.007 0 66.2838 0 65.3917C0 64.4996 0.723295 63.7764 1.6153 63.7764H8.11267C16.865 63.7764 23.1945 67.2442 27.4626 74.3781C31.083 80.4295 32.6797 88.1433 34.224 95.6031C37.0505 109.257 39.3876 117.547 47.9926 117.547C48.8846 117.547 49.6078 118.27 49.6078 119.163C49.6078 120.055 48.8846 120.778 47.9926 120.778ZM10.3621 67.1003C15.0929 71.6084 16.8401 80.0485 18.5475 88.2964C21.3874 102.014 24.3186 116.178 39.2458 117.454C34.5151 112.946 32.7681 104.506 31.0607 96.2581C28.2207 82.54 25.2895 68.3767 10.3621 67.1003Z" fill="#993D61"/>
<path id="Vector_30" d="M87.8723 184.549H81.3536C80.4616 184.549 79.7598 183.822 79.7598 182.93C79.7598 182.038 80.4616 181.319 81.3536 181.319C89.9704 181.319 92.3111 173.025 95.1422 159.365C96.6879 151.907 98.2861 144.195 101.907 138.146C106.176 131.014 112.505 127.548 121.255 127.548H127.752C128.644 127.548 129.368 128.271 129.368 129.163C129.368 130.055 128.644 130.778 127.752 130.778C119.147 130.778 116.81 139.069 113.984 152.723C112.439 160.183 110.842 167.896 107.222 173.948C102.954 181.081 96.6245 184.549 87.8723 184.549ZM119.006 130.872C104.081 132.147 101.148 146.307 98.3055 160.021C96.5952 168.273 94.845 176.717 90.1069 181.227C105.047 179.958 107.98 165.79 110.82 152.068C112.528 143.82 114.275 135.38 119.006 130.872Z" fill="#993D61"/>
<path id="Vector_31" d="M287.288 120.778H280.791C272.039 120.778 265.71 117.31 261.441 110.176C257.821 104.125 256.224 96.4109 254.68 88.9511C251.854 75.2974 249.516 67.007 240.911 67.007C240.019 67.007 239.296 66.2838 239.296 65.3917C239.296 64.4996 240.019 63.7764 240.911 63.7764H247.409C256.161 63.7764 262.49 67.2442 266.758 74.3781C270.379 80.4295 271.975 88.1433 273.52 95.6031C276.346 109.257 278.684 117.547 287.289 117.547C288.181 117.547 288.904 118.27 288.904 119.163C288.904 120.055 288.18 120.778 287.288 120.778ZM249.658 67.1003C254.389 71.6084 256.136 80.0485 257.843 88.2964C260.683 102.014 263.614 116.178 278.542 117.454C273.811 112.946 272.064 104.506 270.356 96.2581C267.517 82.54 264.585 68.3767 249.658 67.1003Z" fill="#993D61"/>
<path id="Vector_32" d="M207.518 120.778H201.021C192.268 120.778 185.939 117.31 181.671 110.176C178.051 104.125 176.454 96.4109 174.91 88.9511C172.083 75.2974 169.746 67.007 161.141 67.007C160.249 67.007 159.525 66.2838 159.525 65.3917C159.525 64.4996 160.249 63.7764 161.141 63.7764H167.638C176.39 63.7764 182.72 67.2442 186.988 74.3781C190.608 80.4295 192.205 88.1433 193.75 95.6031C196.576 109.257 198.913 117.547 207.518 117.547C208.41 117.547 209.133 118.27 209.133 119.163C209.133 120.055 208.41 120.778 207.518 120.778ZM169.887 67.1003C174.618 71.6084 176.365 80.0485 178.073 88.2964C180.913 102.014 183.844 116.178 198.771 117.454C194.041 112.946 192.293 104.506 190.586 96.2581C187.746 82.54 184.815 68.3767 169.887 67.1003Z" fill="#993D61"/>
</g>
</g>
<defs>
<linearGradient id="paint0_linear_938_25837" x1="264.084" y1="129.248" x2="264.084" y2="66.2333" gradientUnits="userSpaceOnUse">
<stop stop-color="#042224"/>
<stop offset="0.1" stop-color="#139BA2"/>
<stop offset="0.25" stop-color="#90A1A2"/>
<stop offset="0.6" stop-color="#0E9BA2"/>
<stop offset="1" stop-color="#042224"/>
</linearGradient>
<linearGradient id="paint1_linear_938_25837" x1="104.566" y1="119.233" x2="104.566" y2="66.0964" gradientUnits="userSpaceOnUse">
<stop stop-color="#042224"/>
<stop offset="0.1" stop-color="#139BA2"/>
<stop offset="0.25" stop-color="#90A1A2"/>
<stop offset="0.6" stop-color="#0E9BA2"/>
<stop offset="1" stop-color="#042224"/>
</linearGradient>
<linearGradient id="paint2_linear_938_25837" x1="184.323" y1="119.248" x2="184.323" y2="56.2279" gradientUnits="userSpaceOnUse">
<stop stop-color="#042224"/>
<stop offset="0.1" stop-color="#139BA2"/>
<stop offset="0.25" stop-color="#90A1A2"/>
<stop offset="0.6" stop-color="#0E9BA2"/>
<stop offset="1" stop-color="#042224"/>
</linearGradient>
<linearGradient id="paint3_linear_938_25837" x1="24.8039" y1="119.238" x2="24.8039" y2="66.1013" gradientUnits="userSpaceOnUse">
<stop stop-color="#042224"/>
<stop offset="0.1" stop-color="#139BA2"/>
<stop offset="0.25" stop-color="#90A1A2"/>
<stop offset="0.6" stop-color="#0E9BA2"/>
<stop offset="1" stop-color="#042224"/>
</linearGradient>
<linearGradient id="paint4_linear_938_25837" x1="303.964" y1="119.238" x2="303.964" y2="66.1013" gradientUnits="userSpaceOnUse">
<stop stop-color="#240410"/>
<stop offset="0.1" stop-color="#A20E44"/>
<stop offset="0.25" stop-color="#A29097"/>
<stop offset="0.6" stop-color="#A20E44"/>
<stop offset="1" stop-color="#240410"/>
</linearGradient>
<linearGradient id="paint5_linear_938_25837" x1="64.6838" y1="119.253" x2="64.6838" y2="56.2328" gradientUnits="userSpaceOnUse">
<stop stop-color="#240410"/>
<stop offset="0.1" stop-color="#A20E44"/>
<stop offset="0.25" stop-color="#A29097"/>
<stop offset="0.6" stop-color="#A20E44"/>
<stop offset="1" stop-color="#240410"/>
</linearGradient>
<linearGradient id="paint6_linear_938_25837" x1="144.447" y1="129.253" x2="144.447" y2="66.2333" gradientUnits="userSpaceOnUse">
<stop stop-color="#240410"/>
<stop offset="0.1" stop-color="#A20E44"/>
<stop offset="0.25" stop-color="#A29097"/>
<stop offset="0.6" stop-color="#A20E44"/>
<stop offset="1" stop-color="#240410"/>
</linearGradient>
<linearGradient id="paint7_linear_938_25837" x1="224.204" y1="119.238" x2="224.204" y2="66.1013" gradientUnits="userSpaceOnUse">
<stop stop-color="#240410"/>
<stop offset="0.1" stop-color="#A20E44"/>
<stop offset="0.25" stop-color="#A29097"/>
<stop offset="0.6" stop-color="#A20E44"/>
<stop offset="1" stop-color="#240410"/>
</linearGradient>
<linearGradient id="paint8_linear_938_25837" x1="24.8038" y1="65.3162" x2="24.8038" y2="118.909" gradientUnits="userSpaceOnUse">
<stop stop-color="#240410"/>
<stop offset="0.1" stop-color="#A20E44"/>
<stop offset="0.25" stop-color="#A29097"/>
<stop offset="0.6" stop-color="#A20E44"/>
<stop offset="1" stop-color="#240410"/>
</linearGradient>
<linearGradient id="paint9_linear_938_25837" x1="104.567" y1="183.01" x2="104.567" y2="129.873" gradientUnits="userSpaceOnUse">
<stop stop-color="#240410"/>
<stop offset="0.4" stop-color="#A20E44"/>
<stop offset="0.75" stop-color="#A29097"/>
<stop offset="0.9" stop-color="#A20E44"/>
<stop offset="1" stop-color="#240410"/>
</linearGradient>
<linearGradient id="paint10_linear_938_25837" x1="144.446" y1="65.3112" x2="144.446" y2="118.904" gradientUnits="userSpaceOnUse">
<stop stop-color="#042224"/>
<stop offset="0.1" stop-color="#0E9BA2"/>
<stop offset="0.1237" stop-color="#179BA2"/>
<stop offset="0.1623" stop-color="#2F9DA2"/>
<stop offset="0.2111" stop-color="#579EA2"/>
<stop offset="0.2676" stop-color="#8EA1A2"/>
<stop offset="0.27" stop-color="#90A1A2"/>
<stop offset="0.315" stop-color="#8DA1A2"/>
<stop offset="0.3421" stop-color="#85A0A2"/>
<stop offset="0.3644" stop-color="#77A0A2"/>
<stop offset="0.3841" stop-color="#629FA2"/>
<stop offset="0.4021" stop-color="#489EA2"/>
<stop offset="0.4187" stop-color="#289CA2"/>
<stop offset="0.43" stop-color="#0E9BA2"/>
<stop offset="1" stop-color="#042224"/>
</linearGradient>
<linearGradient id="paint11_linear_938_25837" x1="224.204" y1="55.4625" x2="224.204" y2="2.32552" gradientUnits="userSpaceOnUse">
<stop stop-color="#042224"/>
<stop offset="0.57" stop-color="#0E9BA2"/>
<stop offset="0.5813" stop-color="#289CA2"/>
<stop offset="0.5979" stop-color="#489EA2"/>
<stop offset="0.6159" stop-color="#629FA2"/>
<stop offset="0.6356" stop-color="#77A0A2"/>
<stop offset="0.6579" stop-color="#85A0A2"/>
<stop offset="0.685" stop-color="#8DA1A2"/>
<stop offset="0.73" stop-color="#90A1A2"/>
<stop offset="0.7324" stop-color="#8EA1A2"/>
<stop offset="0.7889" stop-color="#579EA2"/>
<stop offset="0.8377" stop-color="#2F9DA2"/>
<stop offset="0.8763" stop-color="#179BA2"/>
<stop offset="0.9" stop-color="#0E9BA2"/>
<stop offset="1" stop-color="#042224"/>
</linearGradient>
<linearGradient id="paint12_linear_938_25837" x1="184.324" y1="65.3162" x2="184.324" y2="118.909" gradientUnits="userSpaceOnUse">
<stop stop-color="#240410"/>
<stop offset="0.1" stop-color="#A20E44"/>
<stop offset="0.25" stop-color="#A29097"/>
<stop offset="0.6" stop-color="#A20E44"/>
<stop offset="1" stop-color="#240410"/>
</linearGradient>
<linearGradient id="paint13_linear_938_25837" x1="64.6837" y1="65.3162" x2="64.6837" y2="118.904" gradientUnits="userSpaceOnUse">
<stop stop-color="#042224"/>
<stop offset="0.1" stop-color="#0E9BA2"/>
<stop offset="0.1237" stop-color="#179BA2"/>
<stop offset="0.1623" stop-color="#2F9DA2"/>
<stop offset="0.2111" stop-color="#579EA2"/>
<stop offset="0.2676" stop-color="#8EA1A2"/>
<stop offset="0.27" stop-color="#90A1A2"/>
<stop offset="0.315" stop-color="#8DA1A2"/>
<stop offset="0.3421" stop-color="#85A0A2"/>
<stop offset="0.3644" stop-color="#77A0A2"/>
<stop offset="0.3841" stop-color="#629FA2"/>
<stop offset="0.4021" stop-color="#489EA2"/>
<stop offset="0.4187" stop-color="#289CA2"/>
<stop offset="0.43" stop-color="#0E9BA2"/>
<stop offset="1" stop-color="#042224"/>
</linearGradient>
<linearGradient id="paint14_linear_938_25837" x1="264.084" y1="65.3162" x2="264.084" y2="118.909" gradientUnits="userSpaceOnUse">
<stop stop-color="#240410"/>
<stop offset="0.1" stop-color="#A20E44"/>
<stop offset="0.25" stop-color="#A29097"/>
<stop offset="0.6" stop-color="#A20E44"/>
<stop offset="1" stop-color="#240410"/>
</linearGradient>
<linearGradient id="paint15_linear_938_25837" x1="303.964" y1="65.3162" x2="303.964" y2="118.909" gradientUnits="userSpaceOnUse">
<stop stop-color="#042224"/>
<stop offset="0.1" stop-color="#0E9BA2"/>
<stop offset="0.1237" stop-color="#179BA2"/>
<stop offset="0.1623" stop-color="#2F9DA2"/>
<stop offset="0.2111" stop-color="#579EA2"/>
<stop offset="0.2676" stop-color="#8EA1A2"/>
<stop offset="0.27" stop-color="#90A1A2"/>
<stop offset="0.315" stop-color="#8DA1A2"/>
<stop offset="0.3421" stop-color="#85A0A2"/>
<stop offset="0.3644" stop-color="#77A0A2"/>
<stop offset="0.3841" stop-color="#629FA2"/>
<stop offset="0.4021" stop-color="#489EA2"/>
<stop offset="0.4187" stop-color="#289CA2"/>
<stop offset="0.43" stop-color="#0E9BA2"/>
<stop offset="1" stop-color="#042224"/>
</linearGradient>
</defs>
</svg>
