<svg width="65" height="24" viewBox="0 0 65 24" fill="none" xmlns="http://www.w3.org/2000/svg">
<g id="R-ICO-013844">
<g id="CHEMICAL_HEX">
<g id="LEFT_CORNER">
<mask id="mask0_938_24919" style="mask-type:luminance" maskUnits="userSpaceOnUse" x="0" y="0" width="10" height="24">
<rect id="MASK" width="10" height="24" transform="matrix(-1 0 0 1 10 0)" fill="white"/>
</mask>
<g mask="url(#mask0_938_24919)">
<g id="CORNER">
<mask id="path-2-outside-1_938_24919" maskUnits="userSpaceOnUse" x="0" y="0" width="12" height="24" fill="black">
<rect fill="white" width="12" height="24"/>
<path d="M2 12C2 12 6.04738 5.90524 8 2H10V22H8C6.04738 18.0948 2 12 2 12Z"/>
</mask>
<path d="M2 12C2 12 6.04738 5.90524 8 2H10V22H8C6.04738 18.0948 2 12 2 12Z" fill="#D66175"/>
<path d="M2 12C2 12 6.04738 5.90524 8 2H10V22H8C6.04738 18.0948 2 12 2 12Z" stroke="#D62744" stroke-width="4" stroke-miterlimit="3.99933" stroke-linejoin="round" mask="url(#path-2-outside-1_938_24919)"/>
</g>
</g>
</g>
<g id="RIGHT CORNER">
<mask id="mask1_938_24919" style="mask-type:luminance" maskUnits="userSpaceOnUse" x="55" y="0" width="10" height="24">
<rect id="MASK_2" width="10" height="24" transform="matrix(1 -8.74228e-08 -8.74228e-08 -1 55 24)" fill="white"/>
</mask>
<g mask="url(#mask1_938_24919)">
<g id="CORNER_2">
<mask id="path-4-outside-2_938_24919" maskUnits="userSpaceOnUse" x="53" y="0" width="12" height="24" fill="black">
<rect fill="white" x="53" width="12" height="24"/>
<path d="M63 12C63 12 58.9526 5.90524 57 2H55V22H57C58.9526 18.0948 63 12 63 12Z"/>
</mask>
<path d="M63 12C63 12 58.9526 5.90524 57 2H55V22H57C58.9526 18.0948 63 12 63 12Z" fill="#D66175"/>
<path d="M63 12C63 12 58.9526 5.90524 57 2H55V22H57C58.9526 18.0948 63 12 63 12Z" stroke="#D62744" stroke-width="4" stroke-miterlimit="3.99933" stroke-linejoin="round" mask="url(#path-4-outside-2_938_24919)"/>
</g>
</g>
</g>
<g id="centre">
<g clip-path="url(#clip0_938_24919)">
<mask id="path-5-outside-3_938_24919" maskUnits="userSpaceOnUse" x="8" y="0" width="49" height="24" fill="black">
<rect fill="white" x="8" width="49" height="24"/>
<path d="M8 2H57V22H8V2Z"/>
</mask>
<path d="M8 2H57V22H8V2Z" fill="#D66175"/>
<text id="Chemical" fill="white" xml:space="preserve" style="white-space: pre" font-family="Arial" font-size="12" font-weight="bold" letter-spacing="0em"><tspan x="8.1543" y="16.1602">Mal-CoA</tspan></text>
</g>
<path d="M8 2V4H57V2V0H8V2ZM57 22V20H8V22V24H57V22Z" fill="#D62744" mask="url(#path-5-outside-3_938_24919)"/>
</g>
</g>
</g>
<defs>
<clipPath id="clip0_938_24919">
<path d="M8 2H57V22H8V2Z" fill="white"/>
</clipPath>
</defs>
</svg>
