<svg width="40" height="23" viewBox="0 0 40 23" fill="none" xmlns="http://www.w3.org/2000/svg">
<g id="R-ICO-013489">
<g id="TTP">
<path d="M1.20459 11.3239C1.20459 5.80101 5.68174 1.32385 11.2046 1.32385H28.2046C33.7274 1.32385 38.2046 5.80101 38.2046 11.3239C38.2046 16.8467 33.7274 21.3239 28.2046 21.3239H11.2046C5.68174 21.3239 1.20459 16.8467 1.20459 11.3239Z" fill="url(#paint0_linear_938_23678)"/>
<path d="M33.819 4.93203C32.3062 3.54897 30.2993 2.71907 28.2046 2.64096C22.5379 2.44179 16.8713 2.08381 11.2046 1.46386C11.2046 1.37049 11.2046 1.27713 11.2046 1.18376C16.8713 0.563815 22.5379 0.205828 28.2046 0.00666308C30.9231 -0.0909828 33.7004 0.884869 35.7902 2.68996C38.2689 4.80873 39.6985 8.09297 39.6084 11.3239C39.5815 12.6919 39.3043 14.0535 38.7964 15.3161C37.1437 19.6204 32.5716 22.4355 28.205 22.0897C28.2048 22.0897 28.2047 22.0897 28.2046 22.0897C24.17 21.846 20.1349 21.6705 16.1004 21.7768C14.4685 21.8185 12.8365 21.9101 11.2046 22.0177C8.6402 22.1897 5.92824 21.4043 3.83518 19.7112C1.36585 17.7209 -0.0915226 14.4988 0.00467825 11.3239C0.0331404 9.97994 0.315948 8.64407 0.830012 7.41388C2.51134 3.22076 7.08372 0.596002 11.2046 1.18376C11.2046 1.27713 11.2046 1.37049 11.2046 1.46386C7.19985 1.94068 3.96004 4.747 2.85892 8.17888C2.52399 9.19669 2.37451 10.2629 2.40442 11.3239C2.46588 13.8282 3.56293 16.2247 5.37342 17.9617C6.88304 19.457 8.95571 20.4772 11.2046 20.6292C12.8365 20.7365 14.4685 20.8279 16.1004 20.8696C20.135 20.9759 24.1699 20.8018 28.2046 20.5581C28.2047 20.5581 28.2048 20.5581 28.2049 20.5581C31.9636 20.3227 35.2027 17.7073 36.3328 14.3872C36.6741 13.4017 36.8292 12.361 36.8009 11.3239C36.7454 8.87513 35.6202 6.54067 33.819 4.93203Z" fill="#603780"/>
<text id="TTP_2" fill="white" xml:space="preserve" style="white-space: pre" font-family="Arial" font-size="12" font-weight="bold" letter-spacing="0em"><tspan x="8.3667" y="15.484">TTP</tspan></text>
</g>
</g>
<defs>
<linearGradient id="paint0_linear_938_23678" x1="19.7046" y1="1.32385" x2="19.7046" y2="21.3239" gradientUnits="userSpaceOnUse">
<stop stop-color="#603780"/>
<stop offset="1" stop-color="#EE6C23"/>
</linearGradient>
</defs>
</svg>
