<svg width="68" height="151" viewBox="0 0 68 151" fill="none" xmlns="http://www.w3.org/2000/svg">
<g id="R-ICO-013952">
<path id="BG" d="M48.4597 150.976H19.009C8.5106 150.976 0 142.465 0 131.967L5.5909 10.6227C5.5909 4.7559 10.3468 0 16.2135 0H52.9324C57.8728 0 61.8778 4.005 61.8778 8.9454L67.4687 131.967C67.4687 142.465 58.9581 150.976 48.4597 150.976Z" fill="url(#paint0_linear_938_25240)"/>
<path id="FG" d="M48.4597 150.976H19.009C8.5106 150.976 0 142.465 0 131.967L5.5909 10.6227C5.5909 4.7559 10.3468 0 16.2135 0H52.9324C57.8728 0 61.8778 4.005 61.8778 8.9454L67.4687 131.967C67.4687 142.465 58.9581 150.976 48.4597 150.976Z" fill="url(#paint1_linear_938_25240)"/>
</g>
<defs>
<linearGradient id="paint0_linear_938_25240" x1="-0.131155" y1="75.7717" x2="65.604" y2="75.1938" gradientUnits="userSpaceOnUse">
<stop stop-color="#746B03"/>
<stop offset="0.0706" stop-color="#987A0C"/>
<stop offset="0.1581" stop-color="#BD8916"/>
<stop offset="0.2457" stop-color="#DA951E"/>
<stop offset="0.3324" stop-color="#EE9D24"/>
<stop offset="0.4177" stop-color="#FBA227"/>
<stop offset="0.5" stop-color="#FFA428"/>
<stop offset="0.5823" stop-color="#FBA227"/>
<stop offset="0.6676" stop-color="#EE9D24"/>
<stop offset="0.7543" stop-color="#DA951E"/>
<stop offset="0.8419" stop-color="#BD8916"/>
<stop offset="0.9294" stop-color="#987A0C"/>
<stop offset="1" stop-color="#746B03"/>
</linearGradient>
<linearGradient id="paint1_linear_938_25240" x1="32.0991" y1="-0.197561" x2="33.9792" y2="151.971" gradientUnits="userSpaceOnUse">
<stop stop-color="#746B03"/>
<stop offset="0.0612" stop-color="#8B8002" stop-opacity="0.8776"/>
<stop offset="0.1367" stop-color="#9F9301" stop-opacity="0.7266"/>
<stop offset="0.2226" stop-color="#ADA000" stop-opacity="0.5548"/>
<stop offset="0.3268" stop-color="#B5A800" stop-opacity="0.3464"/>
<stop offset="0.5" stop-color="#B8AA00" stop-opacity="0"/>
<stop offset="0.6732" stop-color="#B5A800" stop-opacity="0.3464"/>
<stop offset="0.7774" stop-color="#ADA000" stop-opacity="0.5548"/>
<stop offset="0.8633" stop-color="#9F9301" stop-opacity="0.7266"/>
<stop offset="0.9388" stop-color="#8B8002" stop-opacity="0.8776"/>
<stop offset="1" stop-color="#746B03"/>
</linearGradient>
</defs>
</svg>
