<svg width="44" height="31" viewBox="0 0 44 31" fill="none" xmlns="http://www.w3.org/2000/svg">
<g id="R-ICO-014082">
<g id="botA">
<g id="Vector">
<path d="M2.06518 8.23718L21.0652 0.320513C21.5575 0.115385 22.1113 0.115385 22.6036 0.320513L41.6036 8.23718C42.3489 8.54772 42.8344 9.27593 42.8344 10.0833V19.9167C42.8344 20.7241 42.3489 21.4523 41.6036 21.7628L22.6036 29.6795C22.1113 29.8846 21.5575 29.8846 21.0652 29.6795L2.06518 21.7628C1.31989 21.4523 0.834412 20.7241 0.834412 19.9167V10.0833C0.834412 9.27593 1.31989 8.54772 2.06518 8.23718Z" fill="url(#paint0_linear_938_23157)"/>
<path d="M41.8393 14.2102C41.8507 12.8346 41.8652 11.459 41.8837 10.0833C41.8992 9.67051 41.6431 9.25457 41.2516 9.0822C34.9623 6.33759 28.7128 3.4974 22.5315 0.493579C22.1035 0.280338 21.5771 0.241754 21.1011 0.40667C21.0771 0.349215 21.0532 0.291759 21.0293 0.234304C21.5247 -0.00973084 22.1323 -0.048315 22.6758 0.147395C29.1612 2.42137 35.5784 4.85894 41.9558 7.39211C43.0267 7.80984 43.7874 8.91922 43.7852 10.0833C43.8036 11.459 43.8182 12.8346 43.8296 14.2102C43.8396 16.1123 43.8332 18.0145 43.8179 19.9167C43.8245 21.0935 43.0588 22.2209 41.973 22.6493C40.0369 23.4304 38.0981 24.2048 36.1603 24.9817C31.7331 26.7673 27.2756 28.4801 22.8004 30.1506C22.8003 30.1507 22.8001 30.1507 22.8 30.1508C22.1831 30.3909 21.4793 30.3695 20.8888 30.1029C17.0199 28.3456 13.1322 26.6329 9.18763 25.0577C6.76038 24.087 4.30952 23.1727 1.85681 22.2629C0.916378 21.9178 0.219409 20.9569 0.199728 19.9167C0.146378 18.5409 0.0963567 17.1651 0.0578625 15.7894C0.0146061 13.8874 -0.00200909 11.9853 0.000174105 10.0833C-0.0115522 8.96541 0.71402 7.88793 1.74883 7.47794C3.68258 6.69165 5.62354 5.92266 7.56774 5.1614C12.0141 3.42122 16.494 1.76102 21.0293 0.234304C21.0532 0.291759 21.0771 0.349215 21.1011 0.40667C16.8236 2.55192 12.4901 4.56387 8.12373 6.49577C6.21421 7.34022 4.30147 8.17695 2.38151 8.99636C1.95386 9.17648 1.66254 9.62433 1.66859 10.0833C1.67078 11.9853 1.65416 13.8873 1.61091 15.7894C1.57241 17.1651 1.52246 18.5409 1.46922 19.9167C1.43183 20.4533 1.75176 21.0176 2.27368 21.2624C4.64685 22.3631 7.02191 23.4593 9.42025 24.4994C13.3164 26.1911 17.2696 27.7462 21.2416 29.2561C21.6226 29.3984 22.0527 29.3771 22.4073 29.2083C22.4074 29.2082 22.4075 29.2081 22.4077 29.2081C26.7449 27.2067 31.0999 25.2477 35.4852 23.3615C37.4012 22.5325 39.3164 21.7011 41.2343 20.8763C41.6109 20.7146 41.8621 20.3167 41.8509 19.9167C41.8356 18.0145 41.8292 16.1123 41.8393 14.2102Z" fill="#1C7874"/>
</g>
<text id="T" fill="white" xml:space="preserve" style="white-space: pre" font-family="Arial" font-size="12" font-weight="bold" letter-spacing="0em"><tspan x="8.16449" y="19.1602">botA</tspan></text>
</g>
</g>
<defs>
<linearGradient id="paint0_linear_938_23157" x1="21.8344" y1="0" x2="21.8344" y2="30" gradientUnits="userSpaceOnUse">
<stop stop-color="#31D4CD"/>
<stop offset="1" stop-color="#1C7874"/>
</linearGradient>
</defs>
</svg>
