<svg width="46" height="23" viewBox="0 0 46 23" fill="none" xmlns="http://www.w3.org/2000/svg">
<g id="R-ICO-014100">
<g id="IFIT2">
<path d="M1.15869 11.4224C1.15869 5.89952 5.63584 1.42236 11.1587 1.42236H34.1587C39.6815 1.42236 44.1587 5.89952 44.1587 11.4224C44.1587 16.9452 39.6815 21.4224 34.1587 21.4224H11.1587C5.63584 21.4224 1.15869 16.9452 1.15869 11.4224Z" fill="url(#paint0_linear_938_23862)"/>
<path d="M37.6344 3.65468C36.5538 3.14946 35.3667 2.87197 34.1587 2.84231C26.492 2.67532 18.8254 2.30864 11.1587 1.56237C11.1587 1.469 11.1587 1.37564 11.1587 1.28227C18.8254 0.536001 26.492 0.169325 34.1587 0.00233459C35.7569 -0.030146 37.3763 0.285534 38.8555 0.930466C42.9363 2.67495 45.6668 7.04822 45.5209 11.4224C45.5057 12.2175 45.4077 13.0117 45.2277 13.7857C44.1433 18.8792 39.0846 22.5664 34.1591 22.1882C34.159 22.1882 34.1588 22.1882 34.1587 22.1882C29.6241 21.9445 25.089 21.769 20.5545 21.8753C17.4227 21.9465 14.2906 22.1633 11.1587 22.3567C9.62765 22.4453 8.05119 22.2013 6.59561 21.6149C2.58236 20.0239 -0.1695 15.7191 0.00815642 11.4224C0.0281047 10.6419 0.131491 9.86371 0.316739 9.10775C1.44365 4.12967 6.51119 0.659614 11.1587 1.28227C11.1587 1.37564 11.1587 1.469 11.1587 1.56237C6.64221 2.02332 3.0812 5.55263 2.4377 9.55856C2.33109 10.1749 2.289 10.7999 2.30914 11.4224C2.3932 14.8386 4.50417 17.9946 7.54858 19.4891C8.65286 20.053 9.88318 20.4022 11.1587 20.4878C14.2906 20.6808 17.4226 20.897 20.5545 20.9681C25.0891 21.0744 29.624 20.9003 34.1587 20.6566C34.1588 20.6566 34.1589 20.6566 34.159 20.6566C38.3972 20.4395 41.9659 17.1281 42.6524 13.2382C42.7644 12.6397 42.8119 12.0304 42.7965 11.4224C42.7442 8.08334 40.6113 4.99553 37.6344 3.65468Z" fill="#192404"/>
<text id="IFIT2_2" fill="white" xml:space="preserve" style="white-space: pre" font-family="Arial" font-size="12" font-weight="bold" letter-spacing="0em"><tspan x="8.64307" y="15.5825">IFIT2</tspan></text>
</g>
</g>
<defs>
<linearGradient id="paint0_linear_938_23862" x1="22.6587" y1="1.42236" x2="22.6587" y2="21.4224" gradientUnits="userSpaceOnUse">
<stop stop-color="#DEC313"/>
<stop offset="1" stop-color="#192404"/>
</linearGradient>
</defs>
</svg>
