<svg width="41" height="77" viewBox="0 0 41 77" fill="none" xmlns="http://www.w3.org/2000/svg">
<g id="R-ICO-013967">
<path id="Beta" d="M1.5783 0C0.7066 0 0 0.7066 0 1.5782V75.3452C0 76.2166 0.7063 76.9232 1.5777 76.9234L17.516 76.9287C18.3878 76.929 19.0948 76.2223 19.0948 75.3505V15.7372C19.0948 14.9441 18.5042 14.285 17.7188 14.1751C10.3198 13.1395 4.4458 7.9347 3.1287 1.297C2.9802 0.5487 2.3411 0 1.5783 0Z" fill="url(#paint0_linear_938_22970)"/>
<path id="Alpha" d="M21.7664 15.7368V75.3497C21.7664 76.2215 22.4733 76.9282 23.3451 76.9279L39.2805 76.9235C40.152 76.9233 40.8583 76.2167 40.8583 75.3453V1.5782C40.8583 0.7066 40.1517 0 39.28 0C38.5171 0 37.8781 0.5487 37.7296 1.297C36.4126 7.9339 30.5399 13.1382 23.1422 14.1747C22.3569 14.2847 21.7664 14.9438 21.7664 15.7368Z" fill="url(#paint1_linear_938_22970)"/>
</g>
<defs>
<linearGradient id="paint0_linear_938_22970" x1="9.5474" y1="0.3689" x2="9.5474" y2="77.2977" gradientUnits="userSpaceOnUse">
<stop offset="0.0015" stop-color="#7000BF"/>
<stop offset="0.2061" stop-color="#95219F"/>
<stop offset="0.4273" stop-color="#B73E84"/>
<stop offset="0.639" stop-color="#CF536F"/>
<stop offset="0.835" stop-color="#DD6063"/>
<stop offset="1" stop-color="#E2645F"/>
</linearGradient>
<linearGradient id="paint1_linear_938_22970" x1="31.3123" y1="0.3689" x2="31.3123" y2="77.2968" gradientUnits="userSpaceOnUse">
<stop offset="0.0015" stop-color="#7000BF"/>
<stop offset="0.2061" stop-color="#95219F"/>
<stop offset="0.4273" stop-color="#B73E84"/>
<stop offset="0.639" stop-color="#CF536F"/>
<stop offset="0.835" stop-color="#DD6063"/>
<stop offset="1" stop-color="#E2645F"/>
</linearGradient>
</defs>
</svg>
