<svg width="178" height="239" viewBox="0 0 178 239" fill="none" xmlns="http://www.w3.org/2000/svg">
<g id="R-ICO-014866">
<g id="R-ICO-012656">
<g id="NUCLEUS">
<path id="Vector" d="M70.5706 131.353C88.5972 131.353 103.211 116.739 103.211 98.7128C103.211 80.6862 88.5972 66.0728 70.5706 66.0728C52.544 66.0728 37.9307 80.6862 37.9307 98.7128C37.9307 116.739 52.544 131.353 70.5706 131.353Z" fill="url(#paint0_radial_938_25824)"/>
<path id="Vector_2" d="M70.5704 132.553C51.9104 132.553 36.7305 117.373 36.7305 98.7126C36.7305 80.0526 51.9104 64.8726 70.5704 64.8726C89.2304 64.8726 104.41 80.0526 104.41 98.7126C104.41 117.373 89.2304 132.553 70.5704 132.553ZM70.5704 67.2727C53.2304 67.2727 39.1306 81.3727 39.1306 98.7127C39.1306 116.053 53.2305 130.153 70.5704 130.153C87.9103 130.153 102.01 116.053 102.01 98.7127C102.01 81.3727 87.9104 67.2727 70.5704 67.2727Z" fill="#5656A5"/>
</g>
<g id="CELL" opacity="0.7">
<path id="BG" opacity="0.5" d="M177.993 88.9967C177.993 39.8452 138.148 0 88.9967 0C39.8451 0 0 39.8452 0 88.9967C0 113.208 10.1212 134.626 25.5252 151.001C29.8584 155.607 43.1561 153.365 45.5302 150.561C48.9783 146.488 61.2959 142.335 69.0586 145.052C77.0669 147.854 85.286 157.316 86.1998 165.778C86.4799 168.372 95.2779 177.963 101.578 177.111C144.809 171.268 177.993 133.878 177.993 88.9967Z" fill="url(#paint1_linear_938_25824)"/>
<path id="CYTOPLASM" d="M157.025 88.9966C157.025 51.4256 126.567 20.9683 88.9962 20.9683C51.4252 20.9683 20.9678 51.4256 20.9678 88.9966C20.9678 110.662 31.2522 129.767 46.8762 142.421C50.4331 145.301 54.092 145.361 55.7975 144.752C58.9452 143.627 65.9741 143.666 70.924 145.79C75.808 147.885 80.3845 151.987 82.2247 154.885C84.4442 158.379 89.9563 157.02 90.4347 157.01C127.341 156.244 157.025 126.087 157.025 88.9966Z" fill="url(#paint2_linear_938_25824)" stroke="black" stroke-miterlimit="10"/>
<path id="ZONA PELLUCIDA" d="M165.496 88.9966C165.496 46.0992 130.188 11.4486 87.048 12.5208C46.5982 13.5261 13.6277 46.4124 12.5252 86.8597C11.9816 106.805 19.0742 125.086 31.092 138.992C32.6503 140.796 36.249 141.904 38.309 140.706C41.0124 139.133 44.1519 136.831 47.2247 135.01C53.9747 131.01 65.4153 131.411 72.3914 133.843C79.4428 136.301 88.9747 143.093 92.808 150.426C94.9047 154.438 96.5986 158.37 97.7032 161.111C98.59 163.31 100.898 164.614 103.229 164.175C138.678 157.505 165.496 126.383 165.496 88.9966Z" fill="url(#paint3_radial_938_25824)"/>
<path id="CORONA RADIATA" d="M99.7452 177.018C96.7764 177.018 94.1969 174.816 93.8028 171.793C93.7047 171.04 93.7505 170.302 93.9189 169.606C93.5966 169.714 93.2613 169.795 92.9141 169.848C89.6358 170.347 86.5795 168.092 86.0815 164.816C86.0473 164.59 86.0074 164.363 85.961 164.137C85.4625 161.704 86.5137 159.314 88.4385 157.988C86.0923 158.69 83.4605 157.903 81.9116 155.829C81.7446 155.605 81.5742 155.383 81.4009 155.163C79.6773 152.978 79.7158 149.966 81.3135 147.842C79.2627 149.544 76.2476 149.72 73.9834 148.091C73.7534 147.926 73.5244 147.766 73.2959 147.61C71.249 146.219 70.3344 143.785 70.7787 141.5C69.601 143.437 67.3706 144.623 64.9683 144.346C64.7041 144.315 64.4356 144.289 64.1626 144.267C61.4512 144.042 59.3109 142.047 58.7831 139.513C58.6474 142.08 56.8594 144.367 54.2349 145.018C53.9732 145.083 53.7134 145.151 53.4551 145.224C51.231 145.85 48.9473 145.138 47.4634 143.568C48.124 145.432 47.851 147.583 46.5483 149.26C46.2099 149.695 45.8448 150.116 45.462 150.51C43.1534 152.889 39.355 152.945 36.9775 150.636C36.5444 150.216 36.189 149.747 35.9102 149.245C35.7081 149.783 35.4248 150.299 35.0577 150.779C33.046 153.411 29.2794 153.913 26.6471 151.899C26.213 151.567 25.7892 151.203 25.3868 150.818C22.9937 148.525 22.9122 144.728 25.2042 142.335C25.2149 142.323 25.2257 142.312 25.2369 142.301C22.5601 144.118 18.9063 143.485 17.0025 140.844C16.793 140.554 16.5855 140.263 16.3804 139.97C14.5098 137.306 15.1094 133.648 17.7027 131.714C14.773 133.097 11.2584 131.9 9.78906 128.991C9.62886 128.674 9.47068 128.357 9.31448 128.039C7.87898 125.115 9.03957 121.592 11.9039 120.086C8.79647 120.991 5.51375 119.259 4.51855 116.157C4.41015 115.82 4.30378 115.481 4.19928 115.142C3.23788 112.028 4.93856 108.727 8.00686 107.689C4.79446 108.094 1.82566 105.872 1.32766 102.654C1.27296 102.301 1.22028 101.947 1.16998 101.592C0.71198 98.3661 2.91018 95.3759 6.10208 94.8339C2.86378 94.7382 0.272454 92.078 0.282254 88.8188C0.283254 88.4672 0.286155 88.1147 0.290555 87.7617C0.333555 84.5112 2.95368 81.8989 6.18118 81.8418C3.01178 81.2471 0.865263 78.2378 1.36236 75.0278C1.41706 74.6728 1.47467 74.3183 1.53427 73.9643C2.07427 70.7597 5.06358 68.5756 8.25888 69.017C5.21688 67.9359 3.56408 64.6259 4.55768 61.5302C4.66658 61.1918 4.77686 60.8544 4.88916 60.518C5.91996 57.4311 9.21725 55.7372 12.3116 56.6728C9.46635 55.1274 8.35306 51.5874 9.82916 48.6831C9.98786 48.3706 10.148 48.0586 10.3097 47.7476C11.8077 44.8707 15.3097 43.7154 18.215 45.1036C15.6759 43.1324 15.1354 39.4884 17.0295 36.8595C17.2395 36.5685 17.4509 36.2789 17.6643 35.9908C19.6003 33.38 23.2517 32.7921 25.9026 34.6329C23.6868 32.2857 23.7229 28.586 26.0169 26.2828C26.2674 26.0313 26.5189 25.7813 26.7723 25.5328C29.097 23.2516 32.8064 23.2467 35.137 25.4932C33.3055 22.8262 33.9186 19.169 36.55 17.251C36.8391 17.0401 37.1292 16.8311 37.4207 16.624C40.0769 14.7378 43.7425 15.3208 45.6883 17.9087C44.2913 14.9839 45.4735 11.4619 48.3782 9.981C48.6951 9.8194 49.0124 9.66019 49.3307 9.50199C52.257 8.05079 55.7966 9.2085 57.3074 12.0855C56.3767 8.9742 58.096 5.67189 61.2014 4.66259C61.5387 4.55269 61.8772 4.44529 62.217 4.33939C65.3215 3.36969 68.6173 5.04889 69.674 8.09919C69.2657 4.90189 71.467 1.93509 74.6725 1.41899C75.027 1.36189 75.382 1.30769 75.7374 1.25539C78.9513 0.786194 81.9449 2.95269 82.5152 6.12699C82.5987 2.90289 85.2286 0.305194 88.4771 0.285194L88.9961 0.283691L89.5435 0.285194C92.794 0.303794 95.4258 2.90339 95.5074 6.13039C96.087 2.95219 99.0919 0.78569 102.309 1.27639C102.659 1.32909 103.008 1.38379 103.357 1.44049C106.565 1.96249 108.763 4.93899 108.343 8.13969C109.414 5.09329 112.716 3.42679 115.818 4.41259C116.157 4.51999 116.495 4.62939 116.832 4.74069C119.922 5.76069 121.625 9.0512 120.702 12.1489C122.233 9.3047 125.757 8.17429 128.667 9.62789C128.987 9.78759 129.305 9.94969 129.623 10.1137C132.503 11.602 133.67 15.0995 132.294 18.0073C134.256 15.4551 137.903 14.9004 140.541 16.7866C140.829 16.9927 141.116 17.2007 141.402 17.4101C144.022 19.3305 144.629 22.977 142.806 25.6376C145.135 23.4135 148.827 23.4213 151.146 25.6928C151.402 25.9443 151.657 26.1972 151.91 26.4516C154.202 28.7582 154.233 32.4604 152.012 34.8051C154.662 32.9584 158.315 33.54 160.255 36.1469C160.469 36.4345 160.681 36.7236 160.891 37.0136C162.802 39.6523 162.254 43.3222 159.685 45.2919C162.589 43.873 166.116 45.0107 167.63 47.891C167.798 48.2098 167.963 48.5302 168.126 48.8519C169.605 51.7621 168.484 55.3114 165.625 56.8509C168.726 55.8865 172.052 57.5745 173.091 60.6741C173.204 61.011 173.316 61.3484 173.425 61.6868C174.424 64.7796 172.778 68.0926 169.74 69.18C172.926 68.7459 175.921 70.9168 176.466 74.1185C176.526 74.4725 176.584 74.8265 176.639 75.1815C177.141 78.3919 174.998 81.4046 171.828 82.0033C175.052 82.0678 177.665 84.6825 177.703 87.931C177.708 88.2855 177.71 88.6414 177.71 88.9974C177.71 89.3021 177.687 89.6009 177.643 89.8934C177.681 90.1883 177.698 90.4891 177.691 90.7953C177.684 91.1478 177.675 91.4994 177.665 91.851C177.564 95.0995 174.898 97.665 171.671 97.665C171.671 97.665 171.668 97.665 171.666 97.665C174.824 98.3247 176.908 101.378 176.345 104.578C176.282 104.933 176.217 105.287 176.15 105.639C175.542 108.832 172.512 110.952 169.32 110.444C172.34 111.592 173.919 114.943 172.853 118.017C172.736 118.353 172.618 118.688 172.498 119.022C171.4 122.071 168.089 123.684 165.027 122.706C167.808 124.319 168.832 127.861 167.304 130.72C167.138 131.033 166.969 131.344 166.799 131.653C165.237 134.5 161.704 135.578 158.828 134.12C161.336 136.146 161.799 139.813 159.839 142.403C159.625 142.686 159.41 142.968 159.193 143.248C157.202 145.817 153.539 146.327 150.928 144.432C153.101 146.823 152.993 150.523 150.653 152.782C150.399 153.027 150.143 153.271 149.887 153.514C147.523 155.75 143.816 155.687 141.528 153.401C143.308 156.098 142.632 159.739 139.972 161.611C139.679 161.817 139.386 162.02 139.091 162.223C136.402 164.065 132.745 163.42 130.845 160.798C132.194 163.743 130.958 167.245 128.033 168.681C127.712 168.838 127.39 168.994 127.067 169.148C124.12 170.548 120.604 169.337 119.138 166.443C120.015 169.566 118.246 172.836 115.129 173.797C114.786 173.903 114.443 174.006 114.099 174.107C110.981 175.026 107.708 173.293 106.702 170.223C107.06 173.434 104.8 176.369 101.579 176.824C101.229 176.873 100.879 176.921 100.528 176.967C100.265 177.001 100.003 177.018 99.7452 177.018ZM100.747 164.882C103.336 164.882 105.635 166.559 106.439 169.003C106.126 166.168 107.877 163.431 110.708 162.596C111.004 162.509 111.299 162.42 111.594 162.329C114.428 161.458 117.413 162.785 118.709 165.34C117.936 162.581 119.236 159.583 121.913 158.31C122.191 158.178 122.468 158.044 122.744 157.909C125.401 156.604 128.555 157.444 130.239 159.761C129.048 157.156 129.866 153.996 132.308 152.323C132.562 152.149 132.814 151.974 133.066 151.797C135.484 150.095 138.725 150.43 140.75 152.448C139.179 150.063 139.496 146.823 141.644 144.792L142.319 144.148C144.443 142.098 147.689 141.928 150 143.6C148.081 141.485 147.896 138.235 149.706 135.899C149.895 135.655 150.082 135.41 150.269 135.163C152.046 132.814 155.219 132.141 157.757 133.425C155.545 131.634 154.861 128.463 156.279 125.879C156.427 125.609 156.574 125.338 156.72 125.065C158.105 122.471 161.124 121.309 163.83 122.173C161.374 120.745 160.211 117.725 161.207 114.957C161.311 114.667 161.414 114.376 161.515 114.084C162.482 111.298 165.297 109.678 168.111 110.121C165.446 109.105 163.809 106.295 164.362 103.394C164.418 103.095 164.474 102.796 164.526 102.496C165.039 99.5853 167.571 97.5364 170.428 97.536C167.635 96.9496 165.579 94.43 165.67 91.4784L165.694 90.5477C165.7 90.2855 165.722 90.0277 165.759 89.7752C165.727 89.5203 165.709 89.2606 165.709 88.9969C165.709 88.6878 165.707 88.3797 165.704 88.0721C165.669 85.119 167.774 82.639 170.578 82.1068C167.725 82.0472 165.239 79.951 164.783 77.0336C164.736 76.7323 164.687 76.4311 164.636 76.1308C164.141 73.2197 165.832 70.4418 168.517 69.4785C165.698 69.8598 162.913 68.1836 162.006 65.376C161.91 65.0796 161.812 64.7842 161.714 64.4893C160.772 61.6807 162.024 58.6651 164.545 57.3042C161.803 58.1543 158.771 56.9316 157.428 54.2881C157.289 54.0161 157.15 53.7446 157.008 53.4746C155.629 50.852 156.385 47.6738 158.658 45.9282C156.085 47.1836 152.908 46.4492 151.171 44.0512C150.992 43.8032 150.811 43.5561 150.628 43.3095C148.862 40.9365 149.112 37.6874 151.076 35.6098C148.731 37.2426 145.482 37.0073 143.398 34.9101C143.183 34.6938 142.967 34.4789 142.749 34.2656C140.638 32.1982 140.378 28.9541 141.99 26.5971C139.926 28.5644 136.687 28.8329 134.307 27.0873C134.058 26.9052 133.809 26.7245 133.557 26.5448C131.163 24.8314 130.406 21.6815 131.619 19.1097C129.884 21.3651 126.733 22.1263 124.115 20.7743C123.844 20.6347 123.573 20.497 123.301 20.3607C120.658 19.0389 119.416 16.0296 120.229 13.2919C118.874 15.8041 115.874 17.0619 113.069 16.1347C112.776 16.038 112.482 15.9433 112.187 15.8495C109.377 14.9574 107.683 12.1879 108.051 9.36319C107.104 12.0507 104.342 13.7543 101.43 13.2846C101.124 13.2348 100.818 13.1869 100.511 13.1401C97.5921 12.6977 95.4856 10.2231 95.4109 7.37199C94.8988 10.1694 92.4481 12.2846 89.5096 12.2846C89.4979 12.2846 89.4867 12.2846 89.4749 12.2846L88.9958 12.2831L88.5491 12.2846C88.5369 12.2846 88.5247 12.2846 88.512 12.2846C85.5691 12.2846 83.1154 10.1625 82.6086 7.35829C82.5324 10.2187 80.4114 12.6962 77.4832 13.1269C77.1814 13.1713 76.8801 13.2177 76.5793 13.2661C73.6628 13.7383 70.8978 12.0166 69.9593 9.31829C70.3182 12.1474 68.6112 14.913 65.7938 15.7929C65.4989 15.8852 65.2044 15.9789 64.9109 16.0741C62.0911 16.9911 59.0842 15.7064 57.7488 13.1688C58.5676 15.9159 57.3173 18.9354 54.6615 20.2523C54.3832 20.39 54.1058 20.5296 53.829 20.6708C51.1947 22.0146 48.0331 21.225 46.3144 18.9413C47.5449 21.5248 46.7802 24.6952 44.3666 26.4086C44.1161 26.5863 43.8671 26.766 43.619 26.9467C41.2308 28.6884 37.9867 28.4081 35.9286 26.4277C37.5429 28.7832 37.286 32.0273 35.1771 34.0966C34.9569 34.3129 34.7375 34.5307 34.5193 34.7499C32.4378 36.8388 29.1996 37.0751 26.8568 35.4535C28.8114 37.5277 29.0614 40.7665 27.3046 43.1366C27.1234 43.3807 26.9433 43.6263 26.7655 43.8734C25.0428 46.263 21.89 47.0096 19.3217 45.7865C21.5639 47.5311 22.3119 50.68 20.953 53.2899L20.5262 54.12C19.1903 56.7484 16.1849 57.9701 13.4554 57.1498C15.9613 58.5141 17.2064 61.517 16.2718 64.3173C16.1741 64.6098 16.0775 64.9032 15.9832 65.1977C15.0809 68.0102 12.3011 69.6938 9.47097 69.3115C12.1609 70.2695 13.8582 73.0464 13.367 75.9599C13.3162 76.2602 13.2674 76.561 13.2205 76.8622C12.7679 79.7885 10.2718 81.8915 7.40945 81.9447C10.22 82.4745 12.3284 84.9613 12.2894 87.9193L12.2821 88.8534C12.2733 91.8143 10.1215 94.268 7.29968 94.7499C10.163 94.8368 12.6342 96.9716 13.0507 99.9042C13.0942 100.21 13.1391 100.515 13.186 100.818C13.6386 103.741 11.8989 106.498 9.19137 107.416C12.0273 107.056 14.793 108.777 15.665 111.601C15.7568 111.898 15.8496 112.194 15.9443 112.489C16.8476 115.304 15.5634 118.296 13.0366 119.628C15.7822 118.831 18.7832 120.096 20.0859 122.749C20.2226 123.028 20.3613 123.305 20.5009 123.582C21.8339 126.222 21.0317 129.38 18.7416 131.09C21.3319 129.871 24.5009 130.653 26.2016 133.076C26.3784 133.327 26.5566 133.577 26.7358 133.826C28.4638 136.223 28.1679 139.464 26.1777 141.512C28.4692 139.96 31.6088 140.16 33.6874 142.152C33.7685 142.229 33.852 142.302 33.9379 142.368C34.6147 142.886 35.1502 143.519 35.5389 144.219C35.8206 143.469 36.2577 142.763 36.8514 142.152C36.9281 142.073 37.0009 141.989 37.0707 141.899C39.1029 139.283 42.8725 138.809 45.4896 140.841C45.7372 141.033 45.9661 141.241 46.175 141.462C46.1301 141.336 46.0892 141.207 46.0525 141.077C45.1536 137.887 47.0104 134.573 50.1999 133.674C50.5793 133.567 50.9612 133.467 51.345 133.372C54.5623 132.573 57.8157 134.535 58.6131 137.75C58.6321 137.827 58.6497 137.904 58.6658 137.981C58.6692 137.918 58.6731 137.855 58.6785 137.792C58.9529 134.49 61.8533 132.032 65.1536 132.308C65.5525 132.341 65.9451 132.379 66.3304 132.423C69.6229 132.799 71.9866 135.773 71.6107 139.065C71.5921 139.226 71.5677 139.384 71.5375 139.54C71.5917 139.451 71.6479 139.362 71.7074 139.275C73.5707 136.536 77.3031 135.824 80.0428 137.687C80.3573 137.9 80.6732 138.121 80.9891 138.349C83.6795 140.283 84.2917 144.033 82.3572 146.723C82.3303 146.76 82.3036 146.797 82.2758 146.833C82.3154 146.801 82.3554 146.769 82.3959 146.736C84.9965 144.684 88.7699 145.129 90.8227 147.731C91.0615 148.034 91.2963 148.34 91.5268 148.648C93.5092 151.303 92.9642 155.063 90.3094 157.046C90.244 157.094 90.1782 157.141 90.1117 157.187C90.2826 157.136 90.4569 157.092 90.6351 157.056C93.8778 156.391 97.0521 158.483 97.7166 161.73C97.804 162.157 97.8802 162.586 97.9456 163.015C98.0662 163.81 98.0252 164.591 97.847 165.326C98.2078 165.206 98.5853 165.118 98.9764 165.067C99.285 165.027 99.5926 164.985 99.8993 164.942C100.184 164.902 100.467 164.882 100.747 164.882Z" fill="url(#paint4_linear_938_25824)"/>
<path id="LIGHT" opacity="0.85" d="M165.496 88.9966C165.496 46.0992 130.188 11.4486 87.048 12.5208C46.5982 13.5261 13.6277 46.4124 12.5252 86.8597C11.9816 106.805 19.0742 125.086 31.092 138.992C32.6503 140.796 36.249 141.904 38.309 140.706C41.0124 139.133 44.1519 136.831 47.2247 135.01C53.9747 131.01 65.4153 131.411 72.3914 133.843C79.4428 136.301 88.9747 143.093 92.808 150.426C94.9047 154.438 96.5986 158.37 97.7032 161.111C98.59 163.31 100.898 164.614 103.229 164.175C138.678 157.505 165.496 126.383 165.496 88.9966Z" fill="url(#paint5_radial_938_25824)"/>
</g>
</g>
<g id="R-ICO-013390">
<path id="Vector_3" opacity="0.7" d="M74.0374 173.864C78.5566 160.902 76.1208 148.269 68.5968 145.645C61.0728 143.022 51.3097 151.402 46.7905 164.363C42.2713 177.324 44.707 189.958 52.2311 192.581C59.755 195.205 69.5181 186.825 74.0374 173.864Z" fill="url(#paint6_linear_938_25824)"/>
<path id="Vector_4" d="M74.0374 173.864C78.5566 160.902 76.1208 148.269 68.5968 145.645C61.0728 143.022 51.3097 151.402 46.7905 164.363C42.2713 177.324 44.707 189.958 52.2311 192.581C59.755 195.205 69.5181 186.825 74.0374 173.864Z" fill="url(#paint7_radial_938_25824)"/>
<path id="Vector_5" opacity="0.7" d="M74.0374 173.864C78.5566 160.902 76.1208 148.269 68.5968 145.645C61.0728 143.022 51.3097 151.402 46.7905 164.363C42.2713 177.324 44.707 189.958 52.2311 192.581C59.755 195.205 69.5181 186.825 74.0374 173.864Z" fill="url(#paint8_radial_938_25824)"/>
<g id="Group">
<path id="Vector_6" opacity="0.7" d="M56.6509 192.993C55.4372 194.7 54.3845 196.493 53.5522 198.421C52.6963 200.36 52.1318 202.386 51.4193 204.803C51.0435 205.996 50.6047 207.405 49.6187 208.801C48.6358 210.218 47.0618 211.211 45.6941 211.635L45.4454 211.721L45.3529 211.748C45.2888 211.766 45.2123 211.801 45.1354 211.833C44.9759 211.912 44.801 212.003 44.6179 212.132C44.2525 212.376 43.8688 212.696 43.4933 213.05C42.74 213.763 42.0076 214.598 41.3073 215.474C38.5059 219.016 36.0587 223.035 33.6063 227.006C32.3816 229.001 31.1663 231.007 29.9042 232.99C29.2713 233.98 28.6287 234.965 27.9479 235.926C27.2597 236.876 26.565 237.845 25.6855 238.626C26.4602 237.747 27.0216 236.717 27.5841 235.699C28.1371 234.674 28.651 233.626 29.1553 232.574C30.1603 230.466 31.1196 228.333 32.0942 226.201C34.0608 221.938 35.9801 217.658 38.504 213.504C39.1453 212.467 39.8363 211.439 40.6658 210.431C41.0844 209.928 41.5396 209.429 42.0894 208.945C42.3583 208.703 42.6697 208.467 43.0081 208.24C43.1853 208.129 43.3633 208.018 43.5652 207.916L43.8736 207.766L44.0272 207.678C44.8238 207.235 45.2157 206.761 45.4659 206.179C45.7249 205.584 45.8952 204.69 46.0208 203.609C46.2628 201.452 46.5029 198.858 47.1127 196.349C47.7034 193.82 48.6117 191.341 49.7225 188.992L49.7443 188.946C50.6931 186.94 53.0883 186.083 55.0942 187.032C57.1001 187.981 57.9571 190.376 57.0083 192.382C56.9089 192.593 56.7801 192.808 56.6509 192.993Z" fill="url(#paint9_linear_938_25824)"/>
<path id="Vector_7" d="M56.6509 192.993C55.4372 194.7 54.3845 196.493 53.5522 198.421C52.6963 200.36 52.1318 202.386 51.4193 204.803C51.0435 205.996 50.6047 207.405 49.6187 208.801C48.6358 210.218 47.0618 211.211 45.6941 211.635L45.4454 211.721L45.3529 211.748C45.2888 211.766 45.2123 211.801 45.1354 211.833C44.9759 211.912 44.801 212.003 44.6179 212.132C44.2525 212.376 43.8688 212.696 43.4933 213.05C42.74 213.763 42.0076 214.598 41.3073 215.474C38.5059 219.016 36.0587 223.035 33.6063 227.006C32.3816 229.001 31.1663 231.007 29.9042 232.99C29.2713 233.98 28.6287 234.965 27.9479 235.926C27.2597 236.876 26.565 237.845 25.6855 238.626C26.4602 237.747 27.0216 236.717 27.5841 235.699C28.1371 234.674 28.651 233.626 29.1553 232.574C30.1603 230.466 31.1196 228.333 32.0942 226.201C34.0608 221.938 35.9801 217.658 38.504 213.504C39.1453 212.467 39.8363 211.439 40.6658 210.431C41.0844 209.928 41.5396 209.429 42.0894 208.945C42.3583 208.703 42.6697 208.467 43.0081 208.24C43.1853 208.129 43.3633 208.018 43.5652 207.916L43.8736 207.766L44.0272 207.678C44.8238 207.235 45.2157 206.761 45.4659 206.179C45.7249 205.584 45.8952 204.69 46.0208 203.609C46.2628 201.452 46.5029 198.858 47.1127 196.349C47.7034 193.82 48.6117 191.341 49.7225 188.992L49.7443 188.946C50.6931 186.94 53.0883 186.083 55.0942 187.032C57.1001 187.981 57.9571 190.376 57.0083 192.382C56.9089 192.593 56.7801 192.808 56.6509 192.993Z" fill="url(#paint10_radial_938_25824)"/>
<path id="Vector_8" opacity="0.7" d="M56.6509 192.993C55.4372 194.7 54.3845 196.493 53.5522 198.421C52.6963 200.36 52.1318 202.386 51.4193 204.803C51.0435 205.996 50.6047 207.405 49.6187 208.801C48.6358 210.218 47.0618 211.211 45.6941 211.635L45.4454 211.721L45.3529 211.748C45.2888 211.766 45.2123 211.801 45.1354 211.833C44.9759 211.912 44.801 212.003 44.6179 212.132C44.2525 212.376 43.8688 212.696 43.4933 213.05C42.74 213.763 42.0076 214.598 41.3073 215.474C38.5059 219.016 36.0587 223.035 33.6063 227.006C32.3816 229.001 31.1663 231.007 29.9042 232.99C29.2713 233.98 28.6287 234.965 27.9479 235.926C27.2597 236.876 26.565 237.845 25.6855 238.626C26.4602 237.747 27.0216 236.717 27.5841 235.699C28.1371 234.674 28.651 233.626 29.1553 232.574C30.1603 230.466 31.1196 228.333 32.0942 226.201C34.0608 221.938 35.9801 217.658 38.504 213.504C39.1453 212.467 39.8363 211.439 40.6658 210.431C41.0844 209.928 41.5396 209.429 42.0894 208.945C42.3583 208.703 42.6697 208.467 43.0081 208.24C43.1853 208.129 43.3633 208.018 43.5652 207.916L43.8736 207.766L44.0272 207.678C44.8238 207.235 45.2157 206.761 45.4659 206.179C45.7249 205.584 45.8952 204.69 46.0208 203.609C46.2628 201.452 46.5029 198.858 47.1127 196.349C47.7034 193.82 48.6117 191.341 49.7225 188.992L49.7443 188.946C50.6931 186.94 53.0883 186.083 55.0942 187.032C57.1001 187.981 57.9571 190.376 57.0083 192.382C56.9089 192.593 56.7801 192.808 56.6509 192.993Z" fill="url(#paint11_radial_938_25824)"/>
</g>
</g>
</g>
<defs>
<radialGradient id="paint0_radial_938_25824" cx="0" cy="0" r="1" gradientUnits="userSpaceOnUse" gradientTransform="translate(62.0836 85.122) scale(42.899 42.899)">
<stop stop-color="#AFBAF7"/>
<stop offset="0.3111" stop-color="#6D96CE"/>
<stop offset="0.8032" stop-color="#285FCC"/>
</radialGradient>
<linearGradient id="paint1_linear_938_25824" x1="88.9966" y1="0.7416" x2="88.9966" y2="175.42" gradientUnits="userSpaceOnUse">
<stop stop-color="#998ABD"/>
<stop offset="0.5" stop-color="#70658A"/>
<stop offset="1" stop-color="#372E4A"/>
</linearGradient>
<linearGradient id="paint2_linear_938_25824" x1="88.9962" y1="21.5388" x2="88.9962" y2="155.936" gradientUnits="userSpaceOnUse">
<stop stop-color="#998ABD"/>
<stop offset="0.5" stop-color="#70658A"/>
<stop offset="1" stop-color="#372E4A"/>
</linearGradient>
<radialGradient id="paint3_radial_938_25824" cx="0" cy="0" r="1" gradientUnits="userSpaceOnUse" gradientTransform="translate(66.9801 63.15) scale(107.644 107.644)">
<stop offset="0.5669" stop-color="#CACACC" stop-opacity="0"/>
<stop offset="0.6219" stop-color="#BAB8BC" stop-opacity="0.1271"/>
<stop offset="0.7331" stop-color="#908791" stop-opacity="0.3838"/>
<stop offset="0.8886" stop-color="#4D3B4C" stop-opacity="0.7429"/>
<stop offset="1" stop-color="#1A0018"/>
</radialGradient>
<linearGradient id="paint4_linear_938_25824" x1="0.282254" y1="88.6504" x2="177.71" y2="88.6504" gradientUnits="userSpaceOnUse">
<stop stop-color="#998ABD"/>
<stop offset="0.5" stop-color="#70658A"/>
<stop offset="1" stop-color="#372E4A"/>
</linearGradient>
<radialGradient id="paint5_radial_938_25824" cx="0" cy="0" r="1" gradientUnits="userSpaceOnUse" gradientTransform="translate(66.9801 63.15) scale(107.644 107.644)">
<stop stop-color="#FDFDFF"/>
<stop offset="1" stop-color="#CACACC" stop-opacity="0"/>
</radialGradient>
<linearGradient id="paint6_linear_938_25824" x1="68.6923" y1="145.368" x2="52.5581" y2="191.643" gradientUnits="userSpaceOnUse">
<stop stop-color="#998ABD"/>
<stop offset="0.5" stop-color="#70658A"/>
<stop offset="1" stop-color="#372E4A"/>
</linearGradient>
<radialGradient id="paint7_radial_938_25824" cx="0" cy="0" r="1" gradientTransform="matrix(19.2485 6.71116 -11.561 33.159 59.9482 158.944)" gradientUnits="userSpaceOnUse">
<stop offset="0.5669" stop-color="#CACACC" stop-opacity="0"/>
<stop offset="0.693" stop-color="#908790" stop-opacity="0.2912"/>
<stop offset="0.8405" stop-color="#513F50" stop-opacity="0.6319"/>
<stop offset="0.9467" stop-color="#291127" stop-opacity="0.877"/>
<stop offset="1" stop-color="#1A0018"/>
</radialGradient>
<radialGradient id="paint8_radial_938_25824" cx="0" cy="0" r="1" gradientTransform="matrix(19.2485 6.71116 -11.561 33.159 59.1983 159.944)" gradientUnits="userSpaceOnUse">
<stop stop-color="#FDFDFF"/>
<stop offset="1" stop-color="#CACACC" stop-opacity="0"/>
</radialGradient>
<linearGradient id="paint9_linear_938_25824" x1="37.0589" y1="210.899" x2="45.6084" y2="215.835" gradientUnits="userSpaceOnUse">
<stop stop-color="#998ABD"/>
<stop offset="0.5" stop-color="#70658A"/>
<stop offset="1" stop-color="#372E4A"/>
</linearGradient>
<radialGradient id="paint10_radial_938_25824" cx="0" cy="0" r="1" gradientTransform="matrix(17.8742 11.5642 -27.4202 42.3843 29.3582 201.439)" gradientUnits="userSpaceOnUse">
<stop offset="0.4608" stop-color="#CACACC" stop-opacity="0"/>
<stop offset="0.6178" stop-color="#908790" stop-opacity="0.2912"/>
<stop offset="0.8015" stop-color="#513F50" stop-opacity="0.6319"/>
<stop offset="0.9337" stop-color="#291127" stop-opacity="0.877"/>
<stop offset="1" stop-color="#1A0018"/>
</radialGradient>
<radialGradient id="paint11_radial_938_25824" cx="0" cy="0" r="1" gradientTransform="matrix(17.8742 11.5642 -27.4202 42.3843 39.3517 204.13)" gradientUnits="userSpaceOnUse">
<stop stop-color="#FDFDFF"/>
<stop offset="1" stop-color="#CACACC" stop-opacity="0"/>
</radialGradient>
</defs>
</svg>
