<svg width="49" height="37" viewBox="0 0 49 37" fill="none" xmlns="http://www.w3.org/2000/svg">
<g id="R-ICO-013327">
<g id="RXR alpha">
<path d="M1.25146 11.3428C1.25146 5.81993 5.72862 1.34277 11.2515 1.34277H37.2515C42.7743 1.34277 47.2515 5.81993 47.2515 11.3428V25.3428C47.2515 30.8656 42.7743 35.3428 37.2515 35.3428H11.2515C5.72862 35.3428 1.25146 30.8656 1.25146 25.3428V11.3428Z" fill="url(#paint0_linear_938_23591)"/>
<path d="M44.2745 6.53982C42.7512 4.23431 40.0681 2.7333 37.2515 2.68126C28.5848 2.48675 19.9182 2.12558 11.2515 1.48278C11.2515 1.38941 11.2515 1.29605 11.2515 1.20268C19.9182 0.559883 28.5848 0.198713 37.2515 0.00420094C40.9295 -0.101855 44.6259 1.78285 46.7369 4.85197C48.0522 6.7376 48.7591 9.04971 48.7364 11.3428C48.7055 15.2942 48.6322 19.2458 48.568 23.1972C48.5581 23.9124 48.5466 24.6276 48.5334 25.3428C48.58 31.3782 42.9782 36.512 37.252 36.1086C37.2518 36.1086 37.2516 36.1086 37.2515 36.1086C31.3002 35.8649 25.3484 35.6894 19.3973 35.7957C16.6821 35.8427 13.9668 35.9533 11.2515 36.0787C7.77495 36.2624 4.15815 34.591 2.03614 31.6477C0.723326 29.84 -0.00149751 27.5899 0.000690103 25.3428C-0.0090518 21.3915 0.0646118 17.4402 0.167254 13.4889C0.185971 12.7735 0.206568 12.0581 0.229196 11.3428C0.24836 5.43611 5.85347 0.580663 11.2515 1.20268C11.2515 1.29605 11.2515 1.38941 11.2515 1.48278C5.99648 1.84565 1.99527 6.59611 2.27361 11.3428C2.29625 12.0581 2.31686 12.7735 2.33559 13.4889C2.43823 17.4402 2.5119 21.3914 2.50216 25.3428C2.494 27.0981 3.00072 28.8418 3.95772 30.3307C5.4699 32.7625 8.23312 34.4769 11.2515 34.6062C13.9668 34.7312 16.6821 34.8415 19.3973 34.8885C25.3485 34.9948 31.3001 34.8207 37.2515 34.577C37.2516 34.577 37.2518 34.577 37.2519 34.577C42.1786 34.432 46.182 29.9602 45.9696 25.3428C45.9564 24.6276 45.9449 23.9124 45.9351 23.1972C45.8708 19.2458 45.7974 15.2943 45.7665 11.3428C45.7541 9.63303 45.2293 7.95102 44.2745 6.53982Z" fill="#52C477"/>
<text id="RXR alpha_2" fill="white" xml:space="preserve" style="white-space: pre" font-family="Arial" font-size="12" font-weight="bold" letter-spacing="0em"><tspan x="11.5776" y="15.5029">RXR&#10;</tspan><tspan x="8.56592" y="29.5029">alpha</tspan></text>
</g>
</g>
<defs>
<linearGradient id="paint0_linear_938_23591" x1="24.2515" y1="1.34277" x2="24.2515" y2="35.3428" gradientUnits="userSpaceOnUse">
<stop stop-color="#52C477"/>
<stop offset="1" stop-color="#1F2B53"/>
</linearGradient>
</defs>
</svg>
