<svg width="101" height="101" viewBox="0 0 101 101" fill="none" xmlns="http://www.w3.org/2000/svg">
<g id="R-ICO-014852">
<g id="CONTENT" opacity="0.8">
<g id="R-ICO-013121">
<path id="Vector" d="M50.0417 81.3627C67.7928 81.3627 82.183 66.9725 82.183 49.2214C82.183 31.4702 67.7928 17.0801 50.0417 17.0801C32.2905 17.0801 17.9004 31.4702 17.9004 49.2214C17.9004 66.9725 32.2905 81.3627 50.0417 81.3627Z" fill="url(#paint0_radial_938_25829)"/>
<path id="Vector_2" d="M50.0416 82.5443C31.6667 82.5443 16.7188 67.5962 16.7188 49.2213C16.7188 30.8464 31.6668 15.8984 50.0416 15.8984C68.4165 15.8984 83.3646 30.8465 83.3646 49.2213C83.3646 67.5962 68.4165 82.5443 50.0416 82.5443ZM50.0416 18.2617C32.9665 18.2617 19.082 32.1463 19.082 49.2213C19.082 66.2964 32.9665 80.181 50.0416 80.181C67.1167 80.181 81.0013 66.2964 81.0013 49.2213C81.0012 32.1463 67.1167 18.2617 50.0416 18.2617Z" fill="#5656A5"/>
</g>
<g id="Group">
<path id="Vector_3" d="M56.6598 29.9352C55.984 31.3823 53.1106 31.4693 50.2419 30.1295C47.3732 28.7897 45.5955 26.5305 46.2714 25.0835" stroke="#AABA11" stroke-width="3" stroke-miterlimit="10" stroke-linecap="round" stroke-linejoin="round"/>
<path id="Vector_4" d="M52.6106 38.2411C52.16 39.7733 49.3323 40.2913 46.2949 39.398C43.2574 38.5047 41.1601 36.5385 41.6107 35.0063" stroke="#AABA11" stroke-width="3" stroke-miterlimit="10" stroke-linecap="round" stroke-linejoin="round"/>
<path id="Vector_5" d="M45.0265 53.0337C43.8972 54.163 41.1669 53.2636 38.9281 51.0248C36.6893 48.786 35.7898 46.0556 36.9191 44.9263" stroke="#AABA11" stroke-width="3" stroke-miterlimit="10" stroke-linecap="round" stroke-linejoin="round"/>
<path id="Vector_6" d="M34.0334 58.4438C32.9041 59.5731 30.1737 58.6737 27.9349 56.4349C25.6961 54.1961 24.7967 51.4657 25.926 50.3364" stroke="#AABA11" stroke-width="3" stroke-miterlimit="10" stroke-linecap="round" stroke-linejoin="round"/>
<path id="Vector_7" d="M22.8551 56.1764C22.3541 56.1764 21.8744 55.8927 21.648 55.4096C21.3353 54.7434 21.6224 53.9496 22.2886 53.6374C23.5841 53.0302 25.2089 52.5036 26.9287 51.9458C32.9714 49.9862 40.4918 47.5478 42.1998 39.5203C44.175 30.2367 49.0416 22.6907 52.6055 20.758C53.6165 20.2106 54.5412 20.0909 55.3519 20.4041C56.0385 20.6678 56.3807 21.439 56.1165 22.126C55.8519 22.8122 55.0812 23.1548 54.3941 22.8903C54.3815 22.8894 54.3681 22.8894 54.3546 22.8894C52.824 22.8894 47.0688 29.4405 44.8064 40.0756C42.7778 49.6082 34.0924 52.4248 27.7504 54.4807C26.1118 55.0125 24.5642 55.5138 23.4196 56.0508C23.2372 56.1365 23.0446 56.1764 22.8551 56.1764Z" fill="url(#paint1_linear_938_25829)"/>
<path id="Vector_8" d="M27.2964 58.8414C26.7955 58.8414 26.3157 58.5578 26.0894 58.0746C25.7767 57.4083 26.0637 56.6146 26.7299 56.3023C28.0254 55.6951 29.6503 55.1686 31.37 54.6108C37.4128 52.6512 44.9332 50.2128 46.6412 42.1853C48.6164 32.9017 53.4829 25.3557 57.0469 23.4231C58.0579 22.8757 58.9826 22.7559 59.7932 23.0691C60.4798 23.3328 60.822 24.104 60.5579 24.791C60.2933 25.4772 59.5226 25.8199 58.8355 25.5553C58.8229 25.5544 58.8094 25.5543 58.796 25.5543C57.2654 25.5543 51.5102 32.1054 49.2478 42.7405C47.2192 52.273 38.5337 55.0897 32.1918 57.1456C30.5531 57.6773 29.0056 58.1787 27.861 58.7157C27.6786 58.8016 27.486 58.8414 27.2964 58.8414Z" fill="url(#paint2_linear_938_25829)"/>
<path id="Vector_9" d="M41.6113 35.0061C42.0619 33.4739 44.8897 32.9559 47.9271 33.8492C50.9646 34.7425 53.0617 36.7087 52.6111 38.2409" stroke="#AABA11" stroke-width="3" stroke-miterlimit="10" stroke-linecap="round" stroke-linejoin="round"/>
<path id="Vector_10" d="M46.2705 25.0833C46.9463 23.6362 49.8197 23.5493 52.6884 24.8891C55.5571 26.2289 57.3348 28.4881 56.6589 29.9351" stroke="#AABA11" stroke-width="3" stroke-miterlimit="10" stroke-linecap="round" stroke-linejoin="round"/>
<path id="Vector_11" d="M36.9189 44.9265C38.0482 43.7972 40.7787 44.6966 43.0175 46.9354C45.2563 49.1742 46.1556 51.9046 45.0263 53.0339" stroke="#AABA11" stroke-width="3" stroke-miterlimit="10" stroke-linecap="round" stroke-linejoin="round"/>
<path id="Vector_12" d="M25.9258 50.3366C27.0551 49.2073 29.7855 50.1067 32.0243 52.3455C34.2631 54.5843 35.1625 57.3147 34.0332 58.444" stroke="#AABA11" stroke-width="3" stroke-miterlimit="10" stroke-linecap="round" stroke-linejoin="round"/>
</g>
<g id="Group_2">
<path id="Vector_13" d="M72.8461 36.0771C72.8461 37.5489 69.9758 38.7422 66.4352 38.7422C62.8946 38.7422 60.0244 37.5489 60.0244 36.0771" stroke="#AABA11" stroke-width="3" stroke-miterlimit="10" stroke-linecap="round" stroke-linejoin="round"/>
<path id="Vector_14" d="M65.0741 56.5934C64.4478 57.8084 61.6508 58.3887 58.4509 57.8982C54.9511 57.3616 52.2949 55.7473 52.518 54.2925" stroke="#AABA11" stroke-width="3" stroke-miterlimit="10" stroke-linecap="round" stroke-linejoin="round"/>
<path id="Vector_15" d="M64.3296 66.6914C64.5073 68.1525 61.8021 69.6835 58.2875 70.1111C55.2121 70.4852 52.536 69.8905 51.7959 68.7572" stroke="#AABA11" stroke-width="3" stroke-miterlimit="10" stroke-linecap="round" stroke-linejoin="round"/>
<path id="Vector_16" d="M70.421 46.1373C70.198 47.5921 67.18 48.3365 63.6803 47.8C60.1806 47.2634 57.5244 45.6491 57.7475 44.1943" stroke="#AABA11" stroke-width="3" stroke-miterlimit="10" stroke-linecap="round" stroke-linejoin="round"/>
<path id="Vector_17" d="M56.2066 74.1648C55.6888 74.1648 55.1965 73.8612 54.9805 73.3546C51.597 65.4173 52.5711 57.8479 58.2374 48.0438C62.1761 41.2299 62.1284 39.2243 62.013 34.3795C61.9739 32.7574 61.9263 30.7379 62.0342 28.1728C62.065 27.4381 62.6757 26.8551 63.4213 26.8977C64.1565 26.9289 64.7277 27.55 64.6964 28.2856C64.5923 30.7622 64.637 32.6507 64.6769 34.3162C64.7975 39.3752 64.8582 41.9152 60.5448 49.378C55.3457 58.3727 54.4144 65.2308 57.4319 72.3103C57.7203 72.9869 57.4054 73.7693 56.7288 74.0582C56.5584 74.131 56.381 74.1648 56.2066 74.1648Z" fill="url(#paint3_linear_938_25829)"/>
<path id="Vector_18" d="M62.4253 74.1648C61.9074 74.1648 61.4153 73.8612 61.1993 73.3546C57.8158 65.4173 58.7899 57.8479 64.4562 48.0438C68.3949 41.2299 68.3471 39.2243 68.2317 34.3795C68.1926 32.7574 68.145 30.7379 68.253 28.1728C68.2838 27.4381 68.8945 26.8551 69.6401 26.8977C70.3753 26.9289 70.9464 27.55 70.9151 28.2856C70.811 30.7622 70.8558 32.6507 70.8957 34.3162C71.0163 39.3752 71.0769 41.9152 66.7635 49.378C61.5643 58.3727 60.6332 65.2308 63.6507 72.3103C63.9392 72.9869 63.6242 73.7693 62.9475 74.0582C62.777 74.131 62.5997 74.1648 62.4253 74.1648Z" fill="url(#paint4_linear_938_25829)"/>
<path id="Vector_19" d="M51.7962 68.7572C51.6904 68.5953 51.6243 68.4224 51.602 68.2398C51.4243 66.7787 54.1294 65.2477 57.6441 64.8202C61.1588 64.3926 64.1522 65.2304 64.3299 66.6915" stroke="#AABA11" stroke-width="3" stroke-miterlimit="10" stroke-linecap="round" stroke-linejoin="round"/>
<path id="Vector_20" d="M57.7471 44.1944C57.9701 42.7396 60.9879 41.995 64.4877 42.5316C67.9874 43.0682 70.6437 44.6826 70.4207 46.1374" stroke="#AABA11" stroke-width="3" stroke-miterlimit="10" stroke-linecap="round" stroke-linejoin="round"/>
<path id="Vector_21" d="M60.0244 36.0771C60.0244 34.6052 62.8946 33.4121 66.4352 33.4121C69.9758 33.4121 72.8461 34.6053 72.8461 36.0771" stroke="#AABA11" stroke-width="3" stroke-miterlimit="10" stroke-linecap="round" stroke-linejoin="round"/>
<path id="Vector_22" d="M52.5176 54.2925C52.7406 52.8377 55.7585 52.0932 59.2582 52.6298C62.758 53.1664 65.4142 54.7807 65.1912 56.2355C65.172 56.3602 65.1324 56.4796 65.0737 56.5935" stroke="#AABA11" stroke-width="3" stroke-miterlimit="10" stroke-linecap="round" stroke-linejoin="round"/>
</g>
</g>
<g id="TOP" opacity="0.7">
<path id="BG" opacity="0.5" d="M50.0415 100.083C77.6787 100.083 100.083 77.6787 100.083 50.0415C100.083 22.4043 77.6787 0 50.0415 0C22.4043 0 0 22.4043 0 50.0415C0 77.6787 22.4043 100.083 50.0415 100.083Z" fill="url(#paint5_linear_938_25829)"/>
<path id="SHADOW" d="M50.0415 100.083C77.6787 100.083 100.083 77.6787 100.083 50.0415C100.083 22.4043 77.6787 0 50.0415 0C22.4043 0 0 22.4043 0 50.0415C0 77.6787 22.4043 100.083 50.0415 100.083Z" fill="url(#paint6_radial_938_25829)"/>
<path id="LIGHT" opacity="0.7" d="M50.0415 100.083C77.6787 100.083 100.083 77.6787 100.083 50.0415C100.083 22.4043 77.6787 0 50.0415 0C22.4043 0 0 22.4043 0 50.0415C0 77.6787 22.4043 100.083 50.0415 100.083Z" fill="url(#paint7_radial_938_25829)"/>
</g>
</g>
<defs>
<radialGradient id="paint0_radial_938_25829" cx="0" cy="0" r="1" gradientUnits="userSpaceOnUse" gradientTransform="translate(41.6843 35.8382) scale(42.2436)">
<stop stop-color="#AFBAF7"/>
<stop offset="0.3111" stop-color="#6D96CE"/>
<stop offset="0.8032" stop-color="#285FCC"/>
</radialGradient>
<linearGradient id="paint1_linear_938_25829" x1="21.5215" y1="38.2051" x2="56.2059" y2="38.2051" gradientUnits="userSpaceOnUse">
<stop stop-color="#E36023"/>
<stop offset="0.0795" stop-color="#D7591F"/>
<stop offset="0.3452" stop-color="#B34613"/>
<stop offset="0.595" stop-color="#9A380A"/>
<stop offset="0.8204" stop-color="#8A2F05"/>
<stop offset="1" stop-color="#852C03"/>
</linearGradient>
<linearGradient id="paint2_linear_938_25829" x1="25.9629" y1="40.8702" x2="60.6472" y2="40.8702" gradientUnits="userSpaceOnUse">
<stop stop-color="#E36023"/>
<stop offset="0.0795" stop-color="#D7591F"/>
<stop offset="0.3452" stop-color="#B34613"/>
<stop offset="0.595" stop-color="#9A380A"/>
<stop offset="0.8204" stop-color="#8A2F05"/>
<stop offset="1" stop-color="#852C03"/>
</linearGradient>
<linearGradient id="paint3_linear_938_25829" x1="53.0292" y1="50.5301" x2="64.7126" y2="50.5301" gradientUnits="userSpaceOnUse">
<stop stop-color="#8776E3"/>
<stop offset="0.9995" stop-color="#170385"/>
</linearGradient>
<linearGradient id="paint4_linear_938_25829" x1="59.248" y1="50.5301" x2="70.9314" y2="50.5301" gradientUnits="userSpaceOnUse">
<stop stop-color="#8776E3"/>
<stop offset="0.9995" stop-color="#170385"/>
</linearGradient>
<linearGradient id="paint5_linear_938_25829" x1="50.0415" y1="0.4189" x2="50.0415" y2="99.0976" gradientUnits="userSpaceOnUse">
<stop stop-color="#998ABD"/>
<stop offset="0.5" stop-color="#70658A"/>
<stop offset="1" stop-color="#372E4A"/>
</linearGradient>
<radialGradient id="paint6_radial_938_25829" cx="0" cy="0" r="1" gradientUnits="userSpaceOnUse" gradientTransform="translate(35.64 33.4043) scale(70.7089)">
<stop offset="0.5669" stop-color="#CACACC" stop-opacity="0"/>
<stop offset="0.6219" stop-color="#BAB8BC" stop-opacity="0.1271"/>
<stop offset="0.7331" stop-color="#908791" stop-opacity="0.3838"/>
<stop offset="0.8886" stop-color="#4D3B4C" stop-opacity="0.7429"/>
<stop offset="1" stop-color="#1A0018"/>
</radialGradient>
<radialGradient id="paint7_radial_938_25829" cx="0" cy="0" r="1" gradientUnits="userSpaceOnUse" gradientTransform="translate(35.64 33.4043) scale(70.7089)">
<stop stop-color="#FDFDFF"/>
<stop offset="1" stop-color="#CACACC" stop-opacity="0"/>
</radialGradient>
</defs>
</svg>
