<svg width="65" height="23" viewBox="0 0 65 23" fill="none" xmlns="http://www.w3.org/2000/svg">
<g id="R-ICO-013297">
<g id="RHOA,B">
<path d="M1.01306 11.5C1.01306 5.97715 5.49021 1.5 11.0131 1.5H53.0131C58.5359 1.5 63.0131 5.97715 63.0131 11.5C63.0131 17.0228 58.5359 21.5 53.0131 21.5H11.0131C5.49022 21.5 1.01306 17.0228 1.01306 11.5Z" fill="#94881D"/>
<path d="M47.7214 2.99266C35.4852 2.87443 23.2492 2.52283 11.0131 1.64001C11.0131 1.54664 11.0131 1.45328 11.0131 1.35991C23.2492 0.477089 35.4852 0.125486 47.7214 0.00726104C49.4853 -0.0036298 51.2491 -0.00163829 53.0131 0.00903296C58.0716 -0.0429289 62.7786 3.71084 63.9384 8.54079C64.188 9.50891 64.3037 10.5066 64.287 11.5C64.331 17.5302 58.7398 22.6617 53.0136 22.2659C53.0134 22.2659 53.0132 22.2658 53.0131 22.2658C46.8952 22.0221 40.7767 21.8466 34.6589 21.953C28.5408 22.056 22.4223 22.4645 16.3042 22.6648C14.5405 22.7118 12.7768 22.7378 11.0131 22.7474C6.05873 22.8544 1.40146 19.1447 0.31213 14.3992C0.0780672 13.448 -0.0237494 12.4707 0.00457132 11.5C0.0262803 5.60141 5.61585 0.751439 11.0131 1.35991C11.0131 1.45328 11.0131 1.54664 11.0131 1.64001C5.7573 1.98933 1.74055 6.74525 2.02142 11.5C2.04947 12.2963 2.17836 13.0801 2.40533 13.8333C3.49558 17.5913 7.17943 20.2872 11.0131 20.2527C12.7768 20.2623 14.5405 20.2883 16.3042 20.3353C22.4223 20.5356 28.5408 20.9428 34.6589 21.0457C40.7768 21.1521 46.8951 20.978 53.0131 20.7342C53.0132 20.7342 53.0134 20.7342 53.0135 20.7342C57.9403 20.5967 61.9542 16.1227 61.7392 11.5C61.7227 10.7268 61.6079 9.96371 61.3967 9.22776C60.3773 5.55386 56.7428 2.90148 53.0131 2.99101C51.2491 3.00167 49.4852 3.00363 47.7214 2.99266Z" fill="url(#paint0_linear_938_23569)"/>
<text id="RHOA,B_2" fill="white" xml:space="preserve" style="white-space: pre" font-family="Arial" font-size="12" font-weight="bold" letter-spacing="0em"><tspan x="8.32947" y="15.6602">RHOA,B</tspan></text>
</g>
</g>
<defs>
<linearGradient id="paint0_linear_938_23569" x1="32.0131" y1="1.5" x2="32.0131" y2="21.5" gradientUnits="userSpaceOnUse">
<stop stop-color="#94881D"/>
<stop offset="1" stop-color="#1C474A"/>
</linearGradient>
</defs>
</svg>
