<svg width="110" height="41" viewBox="0 0 110 41" fill="none" xmlns="http://www.w3.org/2000/svg">
<g id="R-ICO-014521">
<g id="R-ICO-012636">
<g id="BACK_BLUE">
<path id="Vector" d="M96.5245 41.0066C88.689 41.0066 94.3291 23.0066 83.049 23.0066H80.8535C88.689 23.0066 83.3518 41.0066 94.3291 41.0066H96.5245Z" fill="url(#paint0_linear_938_24695)"/>
<path id="Vector_2" d="M69.5731 41.0066C61.7376 41.0066 67.3777 23.0066 56.0976 23.0066H53.9021C61.7376 23.0066 56.4004 41.0066 67.3777 41.0066H69.5731Z" fill="url(#paint1_linear_938_24695)"/>
<path id="Vector_3" d="M42.6222 41.0066C34.7867 41.0066 40.4267 23.0066 29.1466 23.0066H26.9512C34.7867 23.0066 29.4494 41.0066 40.4267 41.0066H42.6222Z" fill="url(#paint2_linear_938_24695)"/>
<path id="Vector_4" d="M15.671 41.0066C7.83551 41.0066 13.4756 23.0066 2.19546 23.0066H0C7.83551 23.0066 2.49828 41.0066 13.4756 41.0066H15.671Z" fill="url(#paint3_linear_938_24695)"/>
</g>
<g id="BACK_RED">
<path id="Vector_5" d="M110 41.0066C102.164 41.0066 107.804 23.0066 96.5243 23.0066H94.3289C102.164 23.0066 96.5243 41.0066 107.804 41.0066H110Z" fill="url(#paint4_linear_938_24695)"/>
<path id="Vector_6" d="M83.0487 41.0066C75.2132 41.0066 80.8533 23.0066 69.5731 23.0066H67.3777C75.2132 23.0066 69.5731 41.0066 80.8533 41.0066H83.0487Z" fill="url(#paint5_linear_938_24695)"/>
<path id="Vector_7" d="M56.0978 41.0066C48.2623 41.0066 53.9023 23.0066 42.6222 23.0066H40.4268C48.2623 23.0066 42.6222 41.0066 53.9023 41.0066H56.0978Z" fill="url(#paint6_linear_938_24695)"/>
<path id="Vector_8" d="M29.1466 41.0066C21.3111 41.0066 26.9512 23.0066 15.671 23.0066H13.4756C21.3111 23.0066 15.671 41.0066 26.9512 41.0066H29.1466Z" fill="url(#paint7_linear_938_24695)"/>
</g>
<g id="FRONT_BLUE">
<path id="Vector_9" d="M94.3289 41.0066C102.164 41.0066 96.5243 23.0066 107.804 23.0066H110C102.164 23.0066 107.804 41.0066 96.5243 41.0066H94.3289Z" fill="url(#paint8_linear_938_24695)"/>
<path id="Vector_10" d="M67.3777 41.0066C75.2132 41.0066 69.5731 23.0066 80.8533 23.0066H83.0487C75.2132 23.0066 80.8533 41.0066 69.5731 41.0066H67.3777Z" fill="url(#paint9_linear_938_24695)"/>
<path id="Vector_11" d="M40.4268 41.0066C48.2623 41.0066 42.6222 23.0066 53.9023 23.0066H56.0978C48.2623 23.0066 53.9023 41.0066 42.6222 41.0066H40.4268Z" fill="url(#paint10_linear_938_24695)"/>
<path id="Vector_12" d="M13.4756 41.0066C21.3111 41.0066 15.671 23.0066 26.9512 23.0066H29.1466C21.3111 23.0066 26.9512 41.0066 15.671 41.0066H13.4756Z" fill="url(#paint11_linear_938_24695)"/>
</g>
<g id="FRONT_RED">
<path id="Vector_13" d="M80.8535 41.0066C88.689 41.0066 83.049 23.0066 94.3291 23.0066H96.5245C88.689 23.0066 94.3291 41.0066 83.049 41.0066H80.8535Z" fill="url(#paint12_linear_938_24695)"/>
<path id="Vector_14" d="M53.9021 41.0066C61.7376 41.0066 56.0976 23.0066 67.3777 23.0066H69.5731C61.7376 23.0066 67.3777 41.0066 56.0976 41.0066H53.9021Z" fill="url(#paint13_linear_938_24695)"/>
<path id="Vector_15" d="M26.9512 41.0066C34.7867 41.0066 29.1466 23.0066 40.4267 23.0066H42.6222C34.7867 23.0066 40.4267 41.0066 29.1466 41.0066H26.9512Z" fill="url(#paint14_linear_938_24695)"/>
<path id="Vector_16" d="M0 41.0066C7.83551 41.0066 2.19546 23.0066 13.4756 23.0066H15.671C7.83551 23.0066 13.4756 41.0066 2.19546 41.0066H0Z" fill="url(#paint15_linear_938_24695)"/>
</g>
</g>
<g id="5mC">
<g id="LEFT_CORNER">
<mask id="mask0_938_24695" style="mask-type:luminance" maskUnits="userSpaceOnUse" x="33" y="0" width="11" height="25">
<rect id="MASK" width="10" height="24" transform="matrix(-1 0 0 1 43.4873 0.25415)" fill="white"/>
</mask>
<g mask="url(#mask0_938_24695)">
<g id="CORNER">
<mask id="path-18-outside-1_938_24695" maskUnits="userSpaceOnUse" x="33.4873" y="0.25415" width="12" height="24" fill="black">
<rect fill="white" x="33.4873" y="0.25415" width="12" height="24"/>
<path d="M35.4873 12.2542C35.4873 12.2542 39.5347 6.15939 41.4873 2.25415H43.4873V22.2542H41.4873C39.5347 18.3489 35.4873 12.2542 35.4873 12.2542Z"/>
</mask>
<path d="M35.4873 12.2542C35.4873 12.2542 39.5347 6.15939 41.4873 2.25415H43.4873V22.2542H41.4873C39.5347 18.3489 35.4873 12.2542 35.4873 12.2542Z" fill="url(#paint16_linear_938_24695)"/>
<path d="M35.4873 12.2542C35.4873 12.2542 39.5347 6.15939 41.4873 2.25415H43.4873V22.2542H41.4873C39.5347 18.3489 35.4873 12.2542 35.4873 12.2542Z" stroke="#7377BF" stroke-width="4" stroke-miterlimit="3.99933" stroke-linejoin="round" mask="url(#path-18-outside-1_938_24695)"/>
</g>
</g>
</g>
<g id="RIGHT CORNER">
<mask id="mask1_938_24695" style="mask-type:luminance" maskUnits="userSpaceOnUse" x="66" y="0" width="11" height="25">
<rect id="MASK_2" width="10" height="24" transform="matrix(1 -8.74228e-08 -8.74228e-08 -1 66.4873 24.2542)" fill="white"/>
</mask>
<g mask="url(#mask1_938_24695)">
<g id="CORNER_2">
<mask id="path-20-outside-2_938_24695" maskUnits="userSpaceOnUse" x="64.4873" y="0.25415" width="12" height="24" fill="black">
<rect fill="white" x="64.4873" y="0.25415" width="12" height="24"/>
<path d="M74.4873 12.2542C74.4873 12.2542 70.4399 6.15939 68.4873 2.25415H66.4873V22.2542H68.4873C70.4399 18.3489 74.4873 12.2542 74.4873 12.2542Z"/>
</mask>
<path d="M74.4873 12.2542C74.4873 12.2542 70.4399 6.15939 68.4873 2.25415H66.4873V22.2542H68.4873C70.4399 18.3489 74.4873 12.2542 74.4873 12.2542Z" fill="url(#paint17_linear_938_24695)"/>
<path d="M74.4873 12.2542C74.4873 12.2542 70.4399 6.15939 68.4873 2.25415H66.4873V22.2542H68.4873C70.4399 18.3489 74.4873 12.2542 74.4873 12.2542Z" stroke="#7377BF" stroke-width="4" stroke-miterlimit="3.99933" stroke-linejoin="round" mask="url(#path-20-outside-2_938_24695)"/>
</g>
</g>
</g>
<g id="5hmC">
<mask id="path-21-outside-3_938_24695" maskUnits="userSpaceOnUse" x="41.4873" y="0.25415" width="27" height="24" fill="black">
<rect fill="white" x="41.4873" y="0.25415" width="27" height="24"/>
<path d="M41.4873 2.25415H68.4873V22.2542H41.4873V2.25415Z"/>
</mask>
<path d="M41.4873 2.25415H68.4873V22.2542H41.4873V2.25415Z" fill="url(#paint18_linear_938_24695)"/>
<path d="M41.4873 2.25415V4.25415H68.4873V2.25415V0.25415H41.4873V2.25415ZM68.4873 22.2542V20.2542H41.4873V22.2542V24.2542H68.4873V22.2542Z" fill="#7377BF" mask="url(#path-21-outside-3_938_24695)"/>
<text id="Chemical" fill="white" xml:space="preserve" style="white-space: pre" font-family="Arial" font-size="12" font-weight="bold" letter-spacing="0em"><tspan x="41.9736" y="16.4143">5mC</tspan></text>
</g>
</g>
</g>
<defs>
<linearGradient id="paint0_linear_938_24695" x1="88.689" y1="40.9812" x2="88.689" y2="23.032" gradientUnits="userSpaceOnUse">
<stop stop-color="#042224"/>
<stop offset="0.0941" stop-color="#0E98A2"/>
<stop offset="0.3113" stop-color="#C7D0D1"/>
<stop offset="0.4279" stop-color="#0E98A2"/>
<stop offset="1" stop-color="#042224"/>
</linearGradient>
<linearGradient id="paint1_linear_938_24695" x1="61.7376" y1="40.9812" x2="61.7376" y2="23.032" gradientUnits="userSpaceOnUse">
<stop stop-color="#042224"/>
<stop offset="0.0941" stop-color="#0E98A2"/>
<stop offset="0.3113" stop-color="#C7D0D1"/>
<stop offset="0.4279" stop-color="#0E98A2"/>
<stop offset="1" stop-color="#042224"/>
</linearGradient>
<linearGradient id="paint2_linear_938_24695" x1="34.7867" y1="40.9812" x2="34.7867" y2="23.032" gradientUnits="userSpaceOnUse">
<stop stop-color="#042224"/>
<stop offset="0.0941" stop-color="#0E98A2"/>
<stop offset="0.3113" stop-color="#C7D0D1"/>
<stop offset="0.4279" stop-color="#0E98A2"/>
<stop offset="1" stop-color="#042224"/>
</linearGradient>
<linearGradient id="paint3_linear_938_24695" x1="7.83551" y1="40.9812" x2="7.83551" y2="23.032" gradientUnits="userSpaceOnUse">
<stop stop-color="#042224"/>
<stop offset="0.0941" stop-color="#0E98A2"/>
<stop offset="0.3113" stop-color="#C7D0D1"/>
<stop offset="0.4279" stop-color="#0E98A2"/>
<stop offset="1" stop-color="#042224"/>
</linearGradient>
<linearGradient id="paint4_linear_938_24695" x1="102.164" y1="40.9812" x2="102.164" y2="23.032" gradientUnits="userSpaceOnUse">
<stop stop-color="#24040E"/>
<stop offset="0.1131" stop-color="#A20E40"/>
<stop offset="0.273" stop-color="#E3B5C5"/>
<stop offset="0.6019" stop-color="#A20E40"/>
<stop offset="1" stop-color="#24040E"/>
</linearGradient>
<linearGradient id="paint5_linear_938_24695" x1="75.2132" y1="40.9812" x2="75.2132" y2="23.032" gradientUnits="userSpaceOnUse">
<stop stop-color="#24040E"/>
<stop offset="0.1131" stop-color="#A20E40"/>
<stop offset="0.273" stop-color="#E3B5C5"/>
<stop offset="0.6019" stop-color="#A20E40"/>
<stop offset="1" stop-color="#24040E"/>
</linearGradient>
<linearGradient id="paint6_linear_938_24695" x1="48.2623" y1="40.9812" x2="48.2623" y2="23.032" gradientUnits="userSpaceOnUse">
<stop stop-color="#24040E"/>
<stop offset="0.1131" stop-color="#A20E40"/>
<stop offset="0.273" stop-color="#E3B5C5"/>
<stop offset="0.6019" stop-color="#A20E40"/>
<stop offset="1" stop-color="#24040E"/>
</linearGradient>
<linearGradient id="paint7_linear_938_24695" x1="21.3111" y1="40.9812" x2="21.3111" y2="23.032" gradientUnits="userSpaceOnUse">
<stop stop-color="#24040E"/>
<stop offset="0.1131" stop-color="#A20E40"/>
<stop offset="0.273" stop-color="#E3B5C5"/>
<stop offset="0.6019" stop-color="#A20E40"/>
<stop offset="1" stop-color="#24040E"/>
</linearGradient>
<linearGradient id="paint8_linear_938_24695" x1="102.164" y1="23.0321" x2="102.164" y2="40.9811" gradientUnits="userSpaceOnUse">
<stop stop-color="#0D6A71"/>
<stop offset="0.0919" stop-color="#1398A2"/>
<stop offset="0.2499" stop-color="#C8D0D1"/>
<stop offset="0.5868" stop-color="#0E98A2"/>
<stop offset="0.8143" stop-color="#084E53"/>
<stop offset="1" stop-color="#042224"/>
</linearGradient>
<linearGradient id="paint9_linear_938_24695" x1="75.2132" y1="23.0321" x2="75.2132" y2="40.9811" gradientUnits="userSpaceOnUse">
<stop stop-color="#0D6A71"/>
<stop offset="0.0919" stop-color="#1398A2"/>
<stop offset="0.2499" stop-color="#C8D0D1"/>
<stop offset="0.5868" stop-color="#0E98A2"/>
<stop offset="0.8143" stop-color="#084E53"/>
<stop offset="1" stop-color="#042224"/>
</linearGradient>
<linearGradient id="paint10_linear_938_24695" x1="48.2623" y1="23.0321" x2="48.2623" y2="40.9811" gradientUnits="userSpaceOnUse">
<stop stop-color="#0D6A71"/>
<stop offset="0.0919" stop-color="#1398A2"/>
<stop offset="0.2499" stop-color="#C8D0D1"/>
<stop offset="0.5868" stop-color="#0E98A2"/>
<stop offset="0.8143" stop-color="#084E53"/>
<stop offset="1" stop-color="#042224"/>
</linearGradient>
<linearGradient id="paint11_linear_938_24695" x1="21.3111" y1="23.0321" x2="21.3111" y2="40.9811" gradientUnits="userSpaceOnUse">
<stop stop-color="#0D6A71"/>
<stop offset="0.0919" stop-color="#1398A2"/>
<stop offset="0.2499" stop-color="#C8D0D1"/>
<stop offset="0.5868" stop-color="#0E98A2"/>
<stop offset="0.8143" stop-color="#084E53"/>
<stop offset="1" stop-color="#042224"/>
</linearGradient>
<linearGradient id="paint12_linear_938_24695" x1="88.689" y1="23.0321" x2="88.689" y2="40.9811" gradientUnits="userSpaceOnUse">
<stop stop-color="#A21343"/>
<stop offset="0.2499" stop-color="#D8C0C8"/>
<stop offset="0.7688" stop-color="#A20E40"/>
</linearGradient>
<linearGradient id="paint13_linear_938_24695" x1="61.7376" y1="23.0321" x2="61.7376" y2="40.9811" gradientUnits="userSpaceOnUse">
<stop stop-color="#A21343"/>
<stop offset="0.2499" stop-color="#D8C0C8"/>
<stop offset="0.7688" stop-color="#A20E40"/>
</linearGradient>
<linearGradient id="paint14_linear_938_24695" x1="34.7867" y1="23.0321" x2="34.7867" y2="40.9811" gradientUnits="userSpaceOnUse">
<stop stop-color="#A21343"/>
<stop offset="0.2499" stop-color="#D8C0C8"/>
<stop offset="0.7688" stop-color="#A20E40"/>
</linearGradient>
<linearGradient id="paint15_linear_938_24695" x1="7.83551" y1="23.0321" x2="7.83551" y2="40.9811" gradientUnits="userSpaceOnUse">
<stop stop-color="#A21343"/>
<stop offset="0.2499" stop-color="#D8C0C8"/>
<stop offset="0.7688" stop-color="#A20E40"/>
</linearGradient>
<linearGradient id="paint16_linear_938_24695" x1="39.4873" y1="2.25415" x2="39.4873" y2="22.2542" gradientUnits="userSpaceOnUse">
<stop stop-color="#4E537F"/>
<stop offset="1" stop-color="#7377BF"/>
</linearGradient>
<linearGradient id="paint17_linear_938_24695" x1="70.4873" y1="2.25415" x2="70.4873" y2="22.2542" gradientUnits="userSpaceOnUse">
<stop stop-color="#4E537F"/>
<stop offset="1" stop-color="#7377BF"/>
</linearGradient>
<linearGradient id="paint18_linear_938_24695" x1="54.9873" y1="2.25415" x2="54.9873" y2="22.2542" gradientUnits="userSpaceOnUse">
<stop stop-color="#4E537F"/>
<stop offset="1" stop-color="#7377BF"/>
</linearGradient>
</defs>
</svg>
