<svg width="52" height="23" viewBox="0 0 52 23" fill="none" xmlns="http://www.w3.org/2000/svg">
<g id="R-ICO-014633">
<g id="OMA1">
<path d="M1.11499 11.478C1.11499 5.95518 5.59214 1.47803 11.115 1.47803H40.115C45.6378 1.47803 50.115 5.95518 50.115 11.478C50.115 17.0009 45.6378 21.478 40.115 21.478H11.115C5.59214 21.478 1.11499 17.0009 1.11499 11.478Z" fill="url(#paint0_linear_938_24128)"/>
<path d="M41.143 3.03201C40.8028 2.98637 40.461 2.96088 40.115 2.95536C30.4483 2.82348 20.7817 2.46554 11.115 1.61803C11.115 1.52467 11.115 1.4313 11.115 1.33794C20.7817 0.490431 30.4483 0.132492 40.115 0.00061512C40.5779 -0.00484776 41.0386 0.017364 41.4993 0.067959C47.1284 0.603186 51.6668 5.94117 51.4432 11.478C51.4392 11.7074 51.4286 11.9331 51.4112 12.1609C51.1059 17.9658 45.6094 22.6649 40.1155 22.2439C40.1153 22.2439 40.1151 22.2439 40.115 22.2439C35.0804 22.0002 30.0453 21.8247 25.0108 21.931C20.379 22.0257 15.7468 22.3791 11.115 22.591C10.6663 22.6094 10.2185 22.6003 9.76932 22.5625C4.27908 22.1782 -0.270664 16.9132 0.0125607 11.478C0.0185411 11.2533 0.0311966 11.0323 0.0506424 10.8095C0.415129 5.12109 5.93156 0.6698 11.115 1.33794C11.115 1.4313 11.115 1.52467 11.115 1.61803C6.07758 2.05842 2.24316 6.41488 2.21514 10.9385C2.21061 11.1187 2.21139 11.2971 2.21734 11.478C2.30138 15.8348 5.80072 19.6431 10.0475 20.2496C10.3996 20.308 10.7544 20.3467 11.115 20.3651C15.7469 20.5769 20.379 20.929 25.0108 21.0238C30.0454 21.1301 35.0803 20.956 40.115 20.7123C40.1151 20.7123 40.1153 20.7123 40.1154 20.7122C44.8419 20.5183 48.695 16.4106 48.783 12.0042C48.7895 11.8286 48.7908 11.6546 48.7869 11.478C48.7625 7.22272 45.2509 3.48728 41.143 3.03201Z" fill="#C548CC"/>
<text id="OMA1_2" fill="white" xml:space="preserve" style="white-space: pre" font-family="Arial" font-size="12" font-weight="bold" letter-spacing="0em"><tspan x="8.27124" y="15.6382">OMA1</tspan></text>
</g>
</g>
<defs>
<linearGradient id="paint0_linear_938_24128" x1="25.615" y1="1.47803" x2="25.615" y2="21.478" gradientUnits="userSpaceOnUse">
<stop stop-color="#911767"/>
<stop offset="1" stop-color="#C548CC"/>
</linearGradient>
</defs>
</svg>
