<svg width="74" height="23" viewBox="0 0 74 23" fill="none" xmlns="http://www.w3.org/2000/svg">
<g id="R-ICO-013589">
<g id="CSNK1A1">
<path d="M0.9552 11.5C0.9552 5.97715 5.43235 1.5 10.9552 1.5H61.9552C67.4781 1.5 71.9552 5.97715 71.9552 11.5C71.9552 17.0228 67.4781 21.5 61.9552 21.5H10.9552C5.43235 21.5 0.9552 17.0228 0.9552 11.5Z" fill="url(#paint0_linear_938_23717)"/>
<path d="M52.1635 2.99266C38.4274 2.87443 24.6913 2.52283 10.9552 1.64001C10.9552 1.54664 10.9552 1.45328 10.9552 1.35991C24.6913 0.477089 38.4274 0.125486 52.1635 0.00726104C55.4273 -0.0106907 58.6913 0.00635898 61.9552 0.0395879C66.1075 0.0332921 70.0948 2.52922 71.9438 6.17695C72.7994 7.81486 73.2293 9.66832 73.194 11.5C73.2312 17.508 67.6821 22.6323 61.9558 22.2659C61.9556 22.2659 61.9554 22.2658 61.9552 22.2658C55.0873 22.0221 48.2188 21.8466 41.3511 21.953C34.483 22.056 27.6144 22.4645 20.7463 22.6648C17.4826 22.7422 14.2189 22.7628 10.9552 22.7464C6.87906 22.7729 2.95358 20.3036 1.17178 16.7142C0.34949 15.1013 -0.0506864 13.2856 0.00520074 11.5C0.0340626 5.63561 5.56058 0.804255 10.9552 1.35991C10.9552 1.45328 10.9552 1.54664 10.9552 1.64001C5.69686 1.93653 1.61709 6.71099 1.90506 11.5C1.95622 12.9818 2.36512 14.4273 3.08452 15.6929C4.6594 18.5129 7.78711 20.3038 10.9552 20.2537C14.2189 20.2373 17.4826 20.2579 20.7463 20.3353C27.6144 20.5356 34.483 20.9428 41.3511 21.0457C48.2189 21.1521 55.0872 20.978 61.9552 20.7342C61.9554 20.7342 61.9556 20.7342 61.9557 20.7342C66.8824 20.626 70.9382 16.1448 70.7164 11.5C70.6859 10.0647 70.307 8.65738 69.6212 7.41697C68.1139 4.65494 65.0475 2.89008 61.9552 2.96044C58.6913 2.9937 55.4273 3.01074 52.1635 2.99266Z" fill="#AD84BC"/>
<text id="CSNK1A1_2" fill="white" xml:space="preserve" style="white-space: pre" font-family="Arial" font-size="12" font-weight="bold" letter-spacing="0em"><tspan x="8.42981" y="15.6602">CSNK1A1</tspan></text>
</g>
</g>
<defs>
<linearGradient id="paint0_linear_938_23717" x1="36.4552" y1="1.5" x2="36.4552" y2="21.5" gradientUnits="userSpaceOnUse">
<stop stop-color="#AD84BC"/>
<stop offset="1" stop-color="#461E7D"/>
</linearGradient>
</defs>
</svg>
