<svg width="111" height="7" viewBox="0 0 111 7" fill="none" xmlns="http://www.w3.org/2000/svg">
<g id="R-ICO-012816">
<path id="Heparan sulfate" d="M109.516 1C106.2 1 103.093 1.8924 100.421 3.4501C97.7665 4.9795 94.7135 5.8988 91.4301 5.8988C88.177 5.8988 85.1244 5.0399 82.4869 3.5365C79.7988 1.9527 76.69 1 73.3442 1C70.06 1 66.9802 1.8754 64.3255 3.4056C61.654 4.9625 58.5732 5.8988 55.2582 5.8988C51.9417 5.8988 48.8588 4.9612 46.1864 3.403C43.5327 1.8744 40.4545 1 37.1721 1C33.8562 1 30.7487 1.8924 28.0766 3.4501C25.4224 4.9795 22.3694 5.8988 19.086 5.8988C15.8329 5.8988 12.7803 5.0399 10.1428 3.5365C7.4547 1.9527 4.3458 1 1 1" stroke="url(#paint0_linear_938_24872)" stroke-width="2" stroke-miterlimit="10" stroke-linecap="round" stroke-linejoin="round"/>
</g>
<defs>
<linearGradient id="paint0_linear_938_24872" x1="1.60144e-08" y1="3.4494" x2="110.516" y2="3.4494" gradientUnits="userSpaceOnUse">
<stop stop-color="#AB4141"/>
<stop offset="0.5" stop-color="#D16B6B"/>
<stop offset="1" stop-color="#781212"/>
</linearGradient>
</defs>
</svg>
