<svg width="47" height="26" viewBox="0 0 47 26" fill="none" xmlns="http://www.w3.org/2000/svg">
<g id="R-ICO-013957">
<g id="Mutant protein">
<mask id="path-1-outside-1_938_24404" maskUnits="userSpaceOnUse" x="-0.998962" y="-0.999512" width="48" height="27" fill="black">
<rect fill="white" x="-0.998962" y="-0.999512" width="48" height="27"/>
<path d="M41.4063 17.9844C41.0941 18.7376 41.6781 20.3411 41.1254 20.9628C40.4649 21.7058 39.2535 20.8547 38.4726 20.8468C36.5036 20.8268 36.3091 23.2772 34.7177 23.3306C33.0952 23.3014 32.4255 21.9467 31.0249 21.4446C29.6305 20.9447 28.6137 21.4464 27.4329 22.1226C23.9521 24.1156 23.5337 20.8384 20.2754 20.6842C17.2611 20.5414 16.6549 23.2966 13.769 21.3203C12.6686 20.5668 11.6489 19.9143 10.2353 20.1425C10.1223 20.1607 9.23576 20.5047 8.49716 20.8466C8.03366 21.0611 7.48696 20.8171 7.32696 20.3321C7.10456 19.6577 6.88156 18.9155 6.43186 18.5584C6.17136 18.3516 5.36756 18.1939 4.58766 18.0705C3.89736 17.9613 3.46646 17.2768 3.65466 16.6037C3.75836 16.233 3.82976 15.8526 3.78116 15.4421C3.66266 14.4405 3.20926 13.9457 2.67296 13.5038C2.95246 13.2027 3.08606 12.7717 2.95896 12.3373C2.75306 11.6334 2.44196 11.045 2.09966 10.3584C1.85496 9.86769 2.08306 9.27029 2.59096 9.06369C3.42586 8.72409 4.25936 8.46299 4.71226 7.49679C4.81546 7.27639 4.94656 6.48769 4.99796 5.78229C5.05366 5.01779 5.78326 4.48289 6.52476 4.67699C7.29646 4.87909 8.04716 5.08719 8.95136 4.41969C9.63806 3.91269 9.99286 2.52929 10.8056 2.30429C12.1224 1.93999 13.6819 3.93389 15.0449 4.06079C17.1216 4.25399 17.8581 2.58359 19.6011 2.09929C21.8144 1.48429 22.9711 3.94149 25.1424 3.93779C27.0659 3.93439 28.0969 1.92659 29.9742 2.04009C31.7546 2.14759 32.5974 4.14509 34.4501 4.21829C35.2466 4.24979 35.862 3.81579 36.4804 3.44179C37.1205 3.05459 37.9533 3.31789 38.246 4.00629C38.6132 4.87009 39.1261 5.96429 39.3603 6.13959C39.6694 6.37089 40.711 6.44099 41.5536 6.54729C42.1215 6.61889 42.4715 7.19909 42.2844 7.73999C42.078 8.33639 41.804 8.93429 41.9029 9.59619C41.9479 9.89769 42.6547 10.7579 43.0861 11.2521C43.2526 11.4427 43.2671 11.7073 43.1578 11.9355C42.9621 12.3442 43.0218 12.9166 43.2901 13.349C43.6623 13.949 44.0895 14.4915 44.2248 15.1964C44.4994 16.6261 42.0224 16.4979 41.4063 17.9844Z"/>
</mask>
<path d="M41.4063 17.9844C41.0941 18.7376 41.6781 20.3411 41.1254 20.9628C40.4649 21.7058 39.2535 20.8547 38.4726 20.8468C36.5036 20.8268 36.3091 23.2772 34.7177 23.3306C33.0952 23.3014 32.4255 21.9467 31.0249 21.4446C29.6305 20.9447 28.6137 21.4464 27.4329 22.1226C23.9521 24.1156 23.5337 20.8384 20.2754 20.6842C17.2611 20.5414 16.6549 23.2966 13.769 21.3203C12.6686 20.5668 11.6489 19.9143 10.2353 20.1425C10.1223 20.1607 9.23576 20.5047 8.49716 20.8466C8.03366 21.0611 7.48696 20.8171 7.32696 20.3321C7.10456 19.6577 6.88156 18.9155 6.43186 18.5584C6.17136 18.3516 5.36756 18.1939 4.58766 18.0705C3.89736 17.9613 3.46646 17.2768 3.65466 16.6037C3.75836 16.233 3.82976 15.8526 3.78116 15.4421C3.66266 14.4405 3.20926 13.9457 2.67296 13.5038C2.95246 13.2027 3.08606 12.7717 2.95896 12.3373C2.75306 11.6334 2.44196 11.045 2.09966 10.3584C1.85496 9.86769 2.08306 9.27029 2.59096 9.06369C3.42586 8.72409 4.25936 8.46299 4.71226 7.49679C4.81546 7.27639 4.94656 6.48769 4.99796 5.78229C5.05366 5.01779 5.78326 4.48289 6.52476 4.67699C7.29646 4.87909 8.04716 5.08719 8.95136 4.41969C9.63806 3.91269 9.99286 2.52929 10.8056 2.30429C12.1224 1.93999 13.6819 3.93389 15.0449 4.06079C17.1216 4.25399 17.8581 2.58359 19.6011 2.09929C21.8144 1.48429 22.9711 3.94149 25.1424 3.93779C27.0659 3.93439 28.0969 1.92659 29.9742 2.04009C31.7546 2.14759 32.5974 4.14509 34.4501 4.21829C35.2466 4.24979 35.862 3.81579 36.4804 3.44179C37.1205 3.05459 37.9533 3.31789 38.246 4.00629C38.6132 4.87009 39.1261 5.96429 39.3603 6.13959C39.6694 6.37089 40.711 6.44099 41.5536 6.54729C42.1215 6.61889 42.4715 7.19909 42.2844 7.73999C42.078 8.33639 41.804 8.93429 41.9029 9.59619C41.9479 9.89769 42.6547 10.7579 43.0861 11.2521C43.2526 11.4427 43.2671 11.7073 43.1578 11.9355C42.9621 12.3442 43.0218 12.9166 43.2901 13.349C43.6623 13.949 44.0895 14.4915 44.2248 15.1964C44.4994 16.6261 42.0224 16.4979 41.4063 17.9844Z" fill="#BA1149"/>
<path d="M41.4063 17.9844C41.0941 18.7376 41.6781 20.3411 41.1254 20.9628C40.4649 21.7058 39.2535 20.8547 38.4726 20.8468C36.5036 20.8268 36.3091 23.2772 34.7177 23.3306C33.0952 23.3014 32.4255 21.9467 31.0249 21.4446C29.6305 20.9447 28.6137 21.4464 27.4329 22.1226C23.9521 24.1156 23.5337 20.8384 20.2754 20.6842C17.2611 20.5414 16.6549 23.2966 13.769 21.3203C12.6686 20.5668 11.6489 19.9143 10.2353 20.1425C10.1223 20.1607 9.23576 20.5047 8.49716 20.8466C8.03366 21.0611 7.48696 20.8171 7.32696 20.3321C7.10456 19.6577 6.88156 18.9155 6.43186 18.5584C6.17136 18.3516 5.36756 18.1939 4.58766 18.0705C3.89736 17.9613 3.46646 17.2768 3.65466 16.6037C3.75836 16.233 3.82976 15.8526 3.78116 15.4421C3.66266 14.4405 3.20926 13.9457 2.67296 13.5038C2.95246 13.2027 3.08606 12.7717 2.95896 12.3373C2.75306 11.6334 2.44196 11.045 2.09966 10.3584C1.85496 9.86769 2.08306 9.27029 2.59096 9.06369C3.42586 8.72409 4.25936 8.46299 4.71226 7.49679C4.81546 7.27639 4.94656 6.48769 4.99796 5.78229C5.05366 5.01779 5.78326 4.48289 6.52476 4.67699C7.29646 4.87909 8.04716 5.08719 8.95136 4.41969C9.63806 3.91269 9.99286 2.52929 10.8056 2.30429C12.1224 1.93999 13.6819 3.93389 15.0449 4.06079C17.1216 4.25399 17.8581 2.58359 19.6011 2.09929C21.8144 1.48429 22.9711 3.94149 25.1424 3.93779C27.0659 3.93439 28.0969 1.92659 29.9742 2.04009C31.7546 2.14759 32.5974 4.14509 34.4501 4.21829C35.2466 4.24979 35.862 3.81579 36.4804 3.44179C37.1205 3.05459 37.9533 3.31789 38.246 4.00629C38.6132 4.87009 39.1261 5.96429 39.3603 6.13959C39.6694 6.37089 40.711 6.44099 41.5536 6.54729C42.1215 6.61889 42.4715 7.19909 42.2844 7.73999C42.078 8.33639 41.804 8.93429 41.9029 9.59619C41.9479 9.89769 42.6547 10.7579 43.0861 11.2521C43.2526 11.4427 43.2671 11.7073 43.1578 11.9355C42.9621 12.3442 43.0218 12.9166 43.2901 13.349C43.6623 13.949 44.0895 14.4915 44.2248 15.1964C44.4994 16.6261 42.0224 16.4979 41.4063 17.9844Z" stroke="#8E0E3F" stroke-width="4" stroke-linejoin="round" mask="url(#path-1-outside-1_938_24404)"/>
</g>
</g>
</svg>
