<svg width="10" height="23" viewBox="0 0 10 23" fill="none" xmlns="http://www.w3.org/2000/svg">
<g id="R-ICO-014837">
<path id="Vector" d="M2.4757 22.7357C1.1084 22.7357 0 21.8802 0 20.4385V2.2973C0 0.8596 1.1084 0 2.4757 0C3.843 0 4.951 0.8596 4.9514 2.2973V20.4385C4.9514 21.8802 3.843 22.7357 2.4757 22.7357Z" fill="url(#paint0_linear_938_23115)"/>
<path id="Vector_2" d="M7.42785 22.7357C6.06055 22.7357 4.95215 21.8802 4.95215 20.4384V2.2973C4.95225 0.8596 6.06065 0 7.42785 0C8.79505 0 9.90355 0.8596 9.90355 2.2973V20.4385C9.90355 21.8802 8.79515 22.7357 7.42785 22.7357Z" fill="url(#paint1_linear_938_23115)"/>
</g>
<defs>
<linearGradient id="paint0_linear_938_23115" x1="0" y1="11.3678" x2="4.9514" y2="11.3678" gradientUnits="userSpaceOnUse">
<stop stop-color="#57BBBB"/>
<stop offset="1" stop-color="#26276B"/>
</linearGradient>
<linearGradient id="paint1_linear_938_23115" x1="4.95225" y1="11.3678" x2="9.90355" y2="11.3678" gradientUnits="userSpaceOnUse">
<stop stop-color="#57BBBB"/>
<stop offset="1" stop-color="#26276B"/>
</linearGradient>
</defs>
</svg>
