<svg width="36" height="20" viewBox="0 0 36 20" fill="none" xmlns="http://www.w3.org/2000/svg">
<g id="R-ICO-013562">
<path id="Vector" d="M17.5081 9.9186C27.1776 9.9186 35.0162 7.69825 35.0162 4.9593C35.0162 2.22035 27.1776 0 17.5081 0C7.83864 0 0 2.22035 0 4.9593C0 7.69825 7.83864 9.9186 17.5081 9.9186Z" fill="url(#paint0_radial_938_24382)"/>
<path id="Vector_2" d="M17.5081 19.781C27.1776 19.781 35.0162 17.5607 35.0162 14.8217C35.0162 12.0828 27.1776 9.86243 17.5081 9.86243C7.83864 9.86243 0 12.0828 0 14.8217C0 17.5607 7.83864 19.781 17.5081 19.781Z" fill="url(#paint1_radial_938_24382)"/>
</g>
<defs>
<radialGradient id="paint0_radial_938_24382" cx="0" cy="0" r="1" gradientUnits="userSpaceOnUse" gradientTransform="translate(13.9401 3.6094) rotate(-90) scale(11.0335 16.1707)">
<stop stop-color="#BEFFB2"/>
<stop offset="0.036" stop-color="#B3F6A7"/>
<stop offset="0.1994" stop-color="#87D07A"/>
<stop offset="0.3639" stop-color="#63B054"/>
<stop offset="0.527" stop-color="#469837"/>
<stop offset="0.6882" stop-color="#328623"/>
<stop offset="0.8469" stop-color="#267C16"/>
<stop offset="1" stop-color="#227812"/>
</radialGradient>
<radialGradient id="paint1_radial_938_24382" cx="0" cy="0" r="1" gradientUnits="userSpaceOnUse" gradientTransform="translate(13.9401 13.4718) rotate(-90) scale(11.0335 16.1707)">
<stop stop-color="#BEFFB2"/>
<stop offset="0.036" stop-color="#B3F6A7"/>
<stop offset="0.1994" stop-color="#87D07A"/>
<stop offset="0.3639" stop-color="#63B054"/>
<stop offset="0.527" stop-color="#469837"/>
<stop offset="0.6882" stop-color="#328623"/>
<stop offset="0.8469" stop-color="#267C16"/>
<stop offset="1" stop-color="#227812"/>
</radialGradient>
</defs>
</svg>
