<svg width="88" height="49" viewBox="0 0 88 49" fill="none" xmlns="http://www.w3.org/2000/svg">
<g id="R-ICO-013029">
<path id="MT1,2" d="M62.7744 48.5161C49.3984 48.5161 38.5161 37.6343 38.5161 24.2583C38.5161 16.3965 32.1201 10 24.2578 10C16.396 10 10 16.3965 10 24.2583C10 27.0195 7.7612 29.2583 5 29.2583C2.2388 29.2583 0 27.0195 0 24.2583C0 10.8823 10.8818 0 24.2578 0C37.6338 0 48.5166 10.8823 48.5166 24.2583C48.5166 32.1201 54.9121 38.5161 62.7744 38.5161C70.6357 38.5161 77.0322 32.1201 77.0322 24.2583C77.0322 21.4971 79.2705 19.2583 82.0322 19.2583C84.7939 19.2583 87.0322 21.4971 87.0322 24.2583C87.0322 37.6343 76.1504 48.5161 62.7744 48.5161Z" fill="url(#paint0_linear_938_24333)"/>
</g>
<defs>
<linearGradient id="paint0_linear_938_24333" x1="0" y1="24.2581" x2="87.0322" y2="24.2581" gradientUnits="userSpaceOnUse">
<stop stop-color="#7EBE88"/>
<stop offset="1" stop-color="#1D6100"/>
</linearGradient>
</defs>
</svg>
