<svg width="66" height="37" viewBox="0 0 66 37" fill="none" xmlns="http://www.w3.org/2000/svg">
<g id="R-ICO-014685">
<g id="BCKDH">
<path d="M1.21826 11.4829C1.21826 5.96006 5.69541 1.48291 11.2183 1.48291H54.2183C59.7411 1.48291 64.2183 5.96006 64.2183 11.4829V25.4829C64.2183 31.0058 59.7411 35.4829 54.2183 35.4829H11.2183C5.69541 35.4829 1.21826 31.0058 1.21826 25.4829V11.4829Z" fill="url(#paint0_linear_938_24146)"/>
<path d="M55.2462 3.03688C54.9058 2.99274 54.564 2.96896 54.2183 2.96534C39.8849 2.83772 25.5516 2.48161 11.2183 1.62292C11.2183 1.52955 11.2183 1.43619 11.2183 1.34282C25.5516 0.484128 39.8849 0.128012 54.2183 0.000393987C54.6814 -0.00315964 55.142 0.0207555 55.6025 0.0728279C61.2177 0.616865 65.8151 5.89415 65.6348 11.4829C65.6038 14.0177 65.5681 16.5526 65.5347 19.0874C65.5111 21.2192 65.4775 23.3511 65.4353 25.4829C65.4708 31.4775 59.9453 36.5991 54.2189 36.2488C54.2187 36.2488 54.2185 36.2488 54.2183 36.2487C46.8504 36.005 39.4818 35.8296 32.1141 35.9359C25.149 36.0332 18.1834 36.4036 11.2183 36.6131C10.7689 36.6252 10.3211 36.6102 9.87248 36.5673C4.40651 36.1302 -0.175908 30.9777 0.00541496 25.4829C0.0354671 22.9483 0.0808692 20.4137 0.13405 17.8791C0.179109 15.747 0.235063 13.615 0.304009 11.4829C0.334815 5.63937 5.82475 0.816378 11.2183 1.34282C11.2183 1.43619 11.2183 1.52955 11.2183 1.62292C5.95881 1.89024 1.84248 6.67301 2.13237 11.4829C2.20132 13.615 2.25729 15.7471 2.30239 17.8791C2.35557 20.4137 2.40097 22.9483 2.43103 25.4829C2.41316 29.78 5.8797 33.7007 10.1507 34.2544C10.5034 34.3079 10.8584 34.3407 11.2183 34.3528C18.1834 34.5621 25.149 34.9313 32.1141 35.0287C39.482 35.135 46.8503 34.9609 54.2183 34.7172C54.2185 34.7171 54.2187 34.7171 54.2188 34.7171C59.1453 34.625 63.2248 30.1411 63.0013 25.4829C62.959 23.3511 62.9255 21.2192 62.9019 19.0874C62.8686 16.5526 62.8328 14.0178 62.8018 11.4829C62.8206 7.27932 59.368 3.48321 55.2462 3.03688Z" fill="#7DE65E"/>
<text id="BCKDH_2" fill="white" xml:space="preserve" style="white-space: pre" font-family="Arial" font-size="12" font-weight="bold" letter-spacing="0em"><tspan x="11.0386" y="15.6431">BCKDH&#10;</tspan><tspan x="8.35498" y="29.6431">complex</tspan></text>
</g>
</g>
<defs>
<linearGradient id="paint0_linear_938_24146" x1="32.7183" y1="1.48291" x2="32.7183" y2="35.4829" gradientUnits="userSpaceOnUse">
<stop stop-color="#7DE65E"/>
<stop offset="1" stop-color="#00A7C0"/>
</linearGradient>
</defs>
</svg>
