<svg width="49" height="23" viewBox="0 0 49 23" fill="none" xmlns="http://www.w3.org/2000/svg">
<g id="R-ICO-012408">
<g id="AKT1">
<path d="M1.13623 11.4541C1.13623 5.93127 5.61338 1.45412 11.1362 1.45412H37.1362C42.6591 1.45412 47.1362 5.93127 47.1362 11.4541C47.1362 16.977 42.6591 21.4541 37.1362 21.4541H11.1362C5.61338 21.4541 1.13623 16.977 1.13623 11.4541Z" fill="url(#paint0_linear_938_23174)"/>
<path d="M39.414 3.25475C38.6767 3.03885 37.9121 2.92234 37.1362 2.90683C28.4696 2.75748 19.8029 2.39366 11.1362 1.59413C11.1362 1.50076 11.1362 1.4074 11.1362 1.31403C19.8029 0.514496 28.4696 0.150676 37.1362 0.00132346C38.1693 -0.0144361 39.2059 0.110579 40.2112 0.377758C45.0959 1.62514 48.6613 6.50221 48.4805 11.4541C48.4711 11.9671 48.428 12.4744 48.3504 12.9813C47.6302 18.4428 42.3446 22.6183 37.1367 22.22C37.1365 22.22 37.1364 22.22 37.1362 22.22C32.3516 21.9762 27.5666 21.8008 22.782 21.9071C18.9002 21.9906 15.0181 22.2753 11.1362 22.4867C10.1403 22.5361 9.13224 22.448 8.14838 22.2144C3.36633 21.1232 -0.216231 16.3167 0.0101823 11.4541C0.0235019 10.9509 0.07064 10.454 0.152197 9.95846C0.922874 4.61345 6.22254 0.66987 11.1362 1.31403C11.1362 1.4074 11.1362 1.50076 11.1362 1.59413C6.36096 2.04518 2.65569 5.9755 2.30104 10.2486C2.26152 10.6507 2.249 11.0508 2.2622 11.4541C2.34932 15.3361 5.10583 18.837 8.77053 19.9694C9.52949 20.219 10.3229 20.3724 11.1362 20.4215C15.0181 20.6326 18.9002 20.9163 22.782 20.9999C27.5666 21.1062 32.3516 20.9321 37.1362 20.6884C37.1364 20.6884 37.1365 20.6884 37.1366 20.6883C41.6174 20.4824 45.3354 16.7849 45.7412 12.6289C45.7847 12.2378 45.8013 11.8479 45.792 11.4541C45.7506 7.6612 42.9761 4.23081 39.414 3.25475Z" fill="#9900A8"/>
<text id="AKT1_2" fill="white" xml:space="preserve" style="white-space: pre" font-family="Arial" font-size="12" font-weight="bold" letter-spacing="0em"><tspan x="8.45654" y="15.6143">AKT1</tspan></text>
</g>
</g>
<defs>
<linearGradient id="paint0_linear_938_23174" x1="24.1362" y1="1.45412" x2="24.1362" y2="21.4541" gradientUnits="userSpaceOnUse">
<stop stop-color="#9900A8"/>
<stop offset="1" stop-color="#3F1741"/>
</linearGradient>
</defs>
</svg>
