<svg width="89" height="188" viewBox="0 0 89 188" fill="none" xmlns="http://www.w3.org/2000/svg">
<g id="R-ICO-014877">
<g id="DUCT">
<path id="BG_1_" d="M58.9784 104.472C58.7698 105.206 58.572 106.661 60.455 108.438C61.5905 109.51 63.2387 110.466 65.0961 111.13C66.5971 111.666 68.1092 111.97 69.4684 112.007C70.4734 112.035 71.3011 112.096 72.0744 112.199C72.2734 112.224 72.4145 112.234 72.4548 112.235C72.5405 112.237 72.6591 112.252 72.7835 112.277C72.9804 112.317 73.197 112.376 73.429 112.456C73.8697 112.605 74.348 112.815 74.8617 113.118C75.6446 113.58 78.3692 115.988 77.0988 119.133C75.8285 122.278 77.4489 121.983 79.495 116.099C81.0425 111.649 92.7863 71.7434 86.1131 43.0441C84.0418 34.1361 82.3785 25.9895 81.682 22.994L79.9297 15.4579C79.4006 13.1824 78.4192 10.8772 77.4022 9.08714C76.2661 7.08589 74.5718 5.62829 72.8399 4.24884C70.8934 2.68719 67.8639 1.62669 66.6504 1.41179C65.6359 1.23209 63.4261 0.977241 62.5826 0.835741C62.0657 0.749141 61.639 0.677691 61.3744 0.630891C61.0885 0.580591 60.7688 0.493991 60.4302 0.402291C60.0321 0.294341 59.6204 0.182791 59.2161 0.119141C57.7606 -0.109159 55.9798 -0.00715908 54.2018 0.406241C49.2452 1.55874 47.103 4.10219 47.5499 6.02454C47.5676 6.09839 47.5904 6.18234 47.6262 6.28129C53.5721 22.0926 58.6799 35.7604 61.3573 47.2752C64.4004 60.3623 66.9994 76.2517 58.9784 104.472Z" fill="url(#paint0_linear_938_24585)"/>
<g id="BODY_1_">
<path id="Vector" d="M79.0502 28.7752C78.4816 28.2928 77.8751 27.8426 77.2279 27.4405C76.5685 27.0384 75.8692 26.6871 75.1351 26.3951C74.4005 26.1039 73.632 25.8732 72.8248 25.7231C72.0095 25.5792 71.1922 25.485 70.1947 25.6127C69.7073 25.7649 68.9029 25.7869 68.4046 25.6753C67.0671 25.3757 65.2488 25.4153 63.3212 25.8635C59.6893 26.708 57.0452 28.6834 57.4155 30.2756C57.7857 31.8679 61.0301 32.4741 64.662 31.6296C66.2881 31.2515 67.716 30.6467 68.7641 29.9511C69.4443 29.4997 70.1841 29.1553 70.9314 28.8264C70.9346 28.825 70.9377 28.8236 70.941 28.8222C71.136 28.7349 71.4124 28.6645 71.6939 28.609C71.9827 28.5614 72.2856 28.5195 72.5985 28.5086C73.2227 28.476 73.872 28.5109 74.5202 28.6053C75.169 28.7003 75.8194 28.8528 76.46 29.0614C77.0982 29.276 77.7251 29.5456 78.3393 29.8597L78.3582 29.8695C78.6507 30.0192 79.0268 29.9297 79.2123 29.6231C79.3792 29.3473 79.2961 28.9838 79.0502 28.7752Z" fill="#CCA433"/>
<path id="Vector_2" d="M78.9364 35.104C78.0662 34.6239 77.1289 34.2216 76.1233 33.9469C75.6159 33.8075 75.0922 33.6981 74.5435 33.6318C74.0308 33.5716 73.5066 33.5415 72.9015 33.6058C72.8992 33.606 72.8944 33.607 72.8872 33.6088C72.2068 33.7744 71.502 33.8311 70.8107 33.7192C69.4825 33.5041 67.7369 33.6185 65.9031 34.1132C62.303 35.0844 59.7297 37.1512 60.1554 38.7295C60.5812 40.3078 63.8448 40.8 67.445 39.8289C69.0221 39.4034 70.4015 38.7677 71.4182 38.0549C72.1621 37.5333 72.9633 37.1012 73.7855 36.7147L73.7875 36.7138C74.0228 36.5997 74.3249 36.4989 74.6346 36.4249C75.0266 36.3292 75.4452 36.2642 75.873 36.2273C76.7309 36.151 77.6259 36.1947 78.5237 36.3342L78.5427 36.3373C78.8248 36.3806 79.1173 36.2352 79.2421 35.9523C79.38 35.6396 79.2356 35.2691 78.9364 35.104Z" fill="#CCA433"/>
<path id="Vector_3" d="M79.9296 15.458C79.4611 13.4431 78.7542 11.447 77.7038 9.59804C76.6555 7.75169 75.2551 6.06379 73.5622 4.71534C71.8737 3.36084 69.9122 2.35419 67.8435 1.72819C66.8075 1.41604 65.7448 1.19384 64.657 1.07579C64.1124 1.01749 63.5622 0.984185 62.9975 0.986435C62.512 0.992535 62.0356 1.01029 61.4874 1.10059L61.3109 1.13189C60.5294 1.27049 59.7321 1.25679 58.948 1.13364C57.6665 0.932335 56.0346 1.00679 54.3154 1.40654C50.6834 2.25104 48.0393 4.22644 48.4096 5.81869C48.7798 7.41099 52.0242 8.01719 55.6561 7.17269C57.5278 6.73749 59.1365 6.00189 60.2058 5.17319C60.7484 4.75269 61.3751 4.45409 62.0511 4.33484L62.154 4.31668C62.4206 4.26693 62.7512 4.23299 63.0721 4.21819C63.4963 4.19809 63.936 4.20509 64.3766 4.23348C65.2595 4.29114 66.149 4.43709 67.0175 4.65919C68.7553 5.10599 70.4129 5.86904 71.8592 6.93199C73.3096 7.99059 74.5452 9.34799 75.5172 10.9011C76.1782 11.9577 76.7195 13.1008 77.1552 14.2954C76.6243 13.717 76.0528 13.1719 75.4387 12.6728C73.9217 11.4361 72.1645 10.4798 70.2861 9.87524C69.3458 9.57449 68.3772 9.35534 67.3801 9.23909C66.8812 9.18048 66.3754 9.14794 65.8547 9.14924C65.4083 9.15294 64.963 9.17323 64.4604 9.25753L64.3207 9.28284C63.5402 9.42439 62.7433 9.41158 61.9599 9.28749C60.6769 9.08424 59.0409 9.15799 57.3172 9.55879C53.6852 10.4033 51.0411 12.3787 51.4114 13.9709C51.7816 15.5632 55.026 16.1694 58.6579 15.3249C60.5108 14.8941 62.1058 14.1689 63.1751 13.3504C63.7849 12.8837 64.4942 12.5616 65.2542 12.4515C65.2769 12.4482 65.2949 12.4456 65.3073 12.4437C65.4995 12.4151 65.7139 12.3949 65.927 12.3854C66.2977 12.3679 66.6841 12.3744 67.0724 12.4031C67.8502 12.4587 68.6367 12.5994 69.4045 12.8083C70.9418 13.2299 72.4053 13.9418 73.6966 14.9035C74.9902 15.8638 76.1126 17.0716 77.0285 18.4451C77.7841 19.5723 78.4013 20.8078 78.9006 22.1033C78.4138 21.5695 77.8922 21.0621 77.3269 20.6002C75.9788 19.4832 74.4235 18.5811 72.7316 18.007C71.8857 17.7198 71.0084 17.5121 70.1009 17.3985C69.6474 17.3403 69.1852 17.3098 68.708 17.3126C68.3333 17.3152 67.9564 17.3328 67.5451 17.3961C67.5387 17.3971 67.5301 17.3989 67.5194 17.4014C66.7646 17.5788 65.9825 17.6346 65.2216 17.4858C63.9036 17.228 62.1615 17.2827 60.319 17.7111C56.687 18.5556 54.0429 20.531 54.4132 22.1233C54.7834 23.7156 58.0278 24.3218 61.6597 23.4773C63.5093 23.0472 65.102 22.3238 66.1712 21.5071C66.7688 21.0506 67.461 20.7303 68.2038 20.6128C68.2091 20.6119 68.2137 20.6112 68.2174 20.6106C68.3916 20.582 68.589 20.5623 68.7868 20.5534C69.1033 20.5365 69.4364 20.5416 69.7721 20.5698C70.4442 20.6228 71.1278 20.7494 71.7957 20.9429C73.1345 21.3297 74.4065 21.9877 75.5431 22.8456C76.1157 23.2703 76.648 23.7558 77.1456 24.2802C77.6502 24.7982 78.103 25.3728 78.5306 25.969C79.3744 27.1721 80.0753 28.4991 80.6403 29.8982L81.0391 30.9608L81.3911 32.0459L81.6991 33.1497L81.9804 34.3059L83.1023 38.9371C83.1023 38.9371 84.099 43.1627 84.1645 43.4974C88.9182 67.7758 88.8503 103.097 66.0382 141.766C61.6962 148.698 55.2949 156.402 48.2397 163.095C38.9697 171.888 29.9976 177.612 22.9139 179.259C22.7805 179.29 22.6476 179.32 22.5154 179.347C18.3278 180.239 14.8826 179.655 12.2755 177.612C0.0329618 168.018 3.72696 160.68 3.88676 160.379C4.15271 159.895 3.97601 159.287 3.49181 159.021C3.00831 158.756 2.40041 158.933 2.13386 159.416C1.93346 159.781 -2.62134 168.478 11.0418 179.186C14.1373 181.612 18.1376 182.324 22.9319 181.304C23.0799 181.272 23.2274 181.239 23.3765 181.204C37.1103 178.011 54.2384 161.779 64.3374 147.803C68.0445 142.672 71.0888 136.877 71.5069 136.088C90.8977 99.4798 90.6742 66.2733 86.1128 43.0443C85.1064 37.9181 82.4882 26.4616 79.9296 15.458Z" fill="url(#paint1_linear_938_24585)"/>
<path id="Vector_4" d="M79.4398 42.8354C78.8367 42.5585 78.2007 42.3187 77.5217 42.1444C77.1742 42.055 76.8157 41.9814 76.4387 41.9318C76.0926 41.887 75.733 41.8609 75.3294 41.8819C74.3608 41.9321 72.7922 41.9205 72.5149 41.9024C71.3098 41.8237 69.8628 41.9735 68.3563 42.3799C64.7561 43.3511 62.1828 45.4179 62.6086 46.9962C63.0343 48.5745 66.298 49.0667 69.8981 48.0956C71.3549 47.7026 72.6428 47.1302 73.6322 46.4833C74.3975 45.983 75.1796 45.5082 75.9926 45.0899C76.1126 45.0282 76.1948 44.9812 76.2089 44.9718C76.3469 44.8803 76.5158 44.792 76.6953 44.7147C76.9394 44.6088 77.2051 44.5167 77.481 44.4381C78.034 44.2797 78.6275 44.1798 79.2377 44.1244L79.2625 44.1222C79.5037 44.0997 79.7258 43.9461 79.8219 43.7006C79.9538 43.3638 79.7685 42.9863 79.4398 42.8354Z" fill="#CCA433"/>
<path id="Vector_5" d="M81.5523 52.5138C80.9754 52.1858 80.3626 51.8918 79.7013 51.6594C79.3628 51.5402 79.012 51.4359 78.6407 51.3539C78.2998 51.2793 77.9438 51.2221 77.5399 51.208C76.5706 51.1742 75.0089 51.0269 74.7341 50.9848C73.5404 50.8021 72.0859 50.826 70.5498 51.1005C66.8791 51.7563 64.1365 53.5925 64.424 55.2018C64.7115 56.811 67.9203 57.584 71.591 56.9282C73.0763 56.6628 74.409 56.204 75.4507 55.6453C76.2564 55.2131 77.0767 54.8078 77.9228 54.4614C78.0476 54.4103 78.1336 54.3706 78.1485 54.3625C78.2939 54.2832 78.4698 54.2099 78.6553 54.1484C78.9076 54.064 79.1803 53.9953 79.462 53.9409C80.0266 53.831 80.6266 53.7828 81.2392 53.7804H81.2642C81.5064 53.7789 81.741 53.6451 81.8579 53.4088C82.0186 53.0847 81.8667 52.6926 81.5523 52.5138Z" fill="#CCA433"/>
<path id="Vector_6" d="M82.8186 62.3392C82.2723 61.9624 81.6872 61.6165 81.0485 61.3277C80.7216 61.1797 80.3812 61.0454 80.0184 60.9315C79.6852 60.8276 79.3355 60.7399 78.9343 60.6909C77.9716 60.5732 76.4285 60.2913 76.1584 60.2256C74.985 59.9402 73.5339 59.8381 71.9798 59.9785C68.2661 60.3141 65.3748 61.9059 65.522 63.534C65.6691 65.1621 68.7989 66.21 72.5126 65.8744C74.0153 65.7387 75.3827 65.397 76.4689 64.9305C77.309 64.5697 78.1613 64.237 79.0342 63.9652C79.163 63.9251 79.2521 63.8929 79.2677 63.8861C79.4193 63.8197 79.601 63.7619 79.7911 63.7167C80.0498 63.6545 80.3274 63.6097 80.6127 63.5799C81.1847 63.5192 81.7866 63.5232 82.3972 63.5739L82.422 63.5761C82.6635 63.5955 82.9087 63.4825 83.0457 63.2573C83.2337 62.9483 83.1163 62.5445 82.8186 62.3392Z" fill="#CCA433"/>
<path id="Vector_7" d="M83.2296 72.2371C82.718 71.8145 82.1651 71.4191 81.5538 71.0761C81.2409 70.9004 80.9134 70.7371 80.5618 70.5922C80.2389 70.4599 79.8981 70.3422 79.5027 70.2587C78.5538 70.0581 77.0409 69.6436 76.7775 69.5548C75.6333 69.1689 74.1963 68.9415 72.636 68.9469C68.9072 68.9596 65.8889 70.2952 65.8945 71.9299C65.9001 73.5647 68.9274 74.8796 72.6562 74.8668C74.1651 74.8617 75.5569 74.6397 76.6794 74.269C77.5476 73.9823 78.4255 73.7246 79.3187 73.5294C79.4505 73.5006 79.542 73.4763 79.5581 73.4709C79.715 73.4179 79.9009 73.3761 80.0942 73.3475C80.3573 73.3079 80.6378 73.2873 80.9246 73.2823C81.4998 73.2714 82.099 73.3275 82.7029 73.4308L82.7275 73.4352C82.9664 73.4754 83.2205 73.3841 83.3764 73.1716C83.5904 72.8799 83.5085 72.4675 83.2296 72.2371Z" fill="#CCA433"/>
<path id="Vector_8" d="M82.7823 82.1333C82.3092 81.668 81.7926 81.2263 81.2132 80.8316C80.9167 80.6294 80.6046 80.4384 80.2669 80.2637C79.9566 80.1039 79.6273 79.9572 79.2406 79.8397C78.3126 79.5577 76.8413 79.0138 76.5866 78.9025C75.48 78.4189 74.0682 78.068 72.5132 77.9383C68.7973 77.6281 65.6748 78.6973 65.5388 80.3264C65.4028 81.9555 68.3049 83.5276 72.0208 83.8377C73.5245 83.9632 74.9303 83.8626 76.0806 83.5905C76.9704 83.38 77.8673 83.1993 78.7741 83.0822C78.9078 83.0649 79.0012 83.0486 79.0176 83.0446C79.1785 83.0054 79.3674 82.9798 79.5624 82.9681C79.828 82.9514 80.1092 82.9551 80.3953 82.975C80.9693 83.014 81.5614 83.1217 82.1541 83.2769L82.1782 83.2834C82.4127 83.3442 82.6737 83.2752 82.8475 83.077C83.0861 82.8049 83.0402 82.387 82.7823 82.1333Z" fill="#CCA433"/>
<path id="Vector_9" d="M81.4798 91.9537C81.0487 91.4491 80.5723 90.9643 80.0293 90.521C79.7514 90.2939 79.457 90.0766 79.1357 89.8733C78.8405 89.6873 78.525 89.5125 78.15 89.362C77.2499 89.0008 75.8312 88.3315 75.5871 88.1986C74.5266 87.6211 73.1504 87.1492 71.6126 86.8853C67.9375 86.2546 64.7341 87.0495 64.4576 88.6607C64.1811 90.2719 66.9362 92.0893 70.6113 92.72C72.0984 92.9752 73.5077 92.9967 74.6772 92.8252C75.5819 92.6926 76.4911 92.5902 77.4046 92.552C77.5393 92.5464 77.6337 92.5383 77.6505 92.5357C77.8141 92.5105 78.0045 92.5014 78.1998 92.5066C78.4658 92.513 78.7456 92.541 79.029 92.5856C79.5974 92.6741 80.178 92.8326 80.755 93.0386L80.7785 93.0471C81.0068 93.128 81.2729 93.0819 81.4632 92.8994C81.7243 92.649 81.7147 92.2287 81.4798 91.9537Z" fill="#CCA433"/>
<path id="Vector_10" d="M79.3311 101.625C78.9454 101.085 78.5128 100.56 78.0102 100.072C77.7531 99.8214 77.4786 99.5794 77.176 99.349C76.898 99.1381 76.5989 98.9368 76.2382 98.7543C75.3728 98.3165 74.0174 97.5269 73.7857 97.3733C72.7792 96.7061 71.449 96.117 69.9398 95.7209C66.3331 94.7743 63.0729 95.2889 62.658 96.8701C62.243 98.4513 64.8304 100.5 68.4371 101.447C69.8965 101.83 71.2986 101.973 72.4787 101.904C73.3914 101.85 74.3061 101.827 75.2194 101.868C75.3542 101.874 75.4489 101.874 75.4658 101.873C75.631 101.862 75.8215 101.869 76.0156 101.891C76.2801 101.921 76.5564 101.973 76.8349 102.042C77.3935 102.179 77.9582 102.387 78.5152 102.643L78.5378 102.653C78.7583 102.754 79.0274 102.731 79.2328 102.565C79.5145 102.339 79.5414 101.919 79.3311 101.625Z" fill="#CCA433"/>
<path id="Vector_11" d="M76.3546 111.073C76.0171 110.501 75.6314 109.942 75.1731 109.411C74.9385 109.14 74.686 108.875 74.4046 108.619C74.1459 108.385 73.8653 108.159 73.5218 107.946C72.6976 107.434 71.4156 106.53 71.1981 106.357C70.2531 105.606 68.9789 104.903 67.5097 104.378C63.9985 103.123 60.706 103.353 60.1557 104.893C59.6054 106.432 62.0056 108.697 65.5168 109.953C66.9376 110.461 68.3221 110.725 69.5037 110.758C70.4176 110.783 71.3309 110.839 72.2373 110.959C72.371 110.977 72.4653 110.985 72.4823 110.985C72.6479 110.989 72.837 111.013 73.0285 111.051C73.2894 111.104 73.5602 111.18 73.8316 111.272C74.3762 111.458 74.9207 111.714 75.4536 112.016L75.4752 112.029C75.6862 112.148 75.9562 112.148 76.1752 112.001C76.4755 111.8 76.5386 111.384 76.3546 111.073Z" fill="#CCA433"/>
</g>
<g id="SHINE_2_">
<path id="Vector_12" d="M61.5619 2.76038C61.9322 4.35268 59.288 6.32808 55.6561 7.17258C52.0242 8.01708 48.7798 7.41088 48.4096 5.81863C48.0394 4.22638 50.6835 2.25093 54.3154 1.40648C57.9473 0.561935 61.1917 1.16808 61.5619 2.76038Z" fill="url(#paint2_radial_938_24585)"/>
<path id="Vector_13" d="M64.5639 10.9128C64.9341 12.5051 62.29 14.4804 58.6581 15.3249C55.0261 16.1694 51.7817 15.5632 51.4115 13.971C51.0413 12.3787 53.6854 10.4033 57.3173 9.55878C60.9492 8.71428 64.1936 9.32048 64.5639 10.9128Z" fill="url(#paint3_radial_938_24585)"/>
<path id="Vector_14" d="M67.5658 19.0651C67.9361 20.6574 65.292 22.6328 61.66 23.4773C58.0281 24.3218 54.7837 23.7156 54.4135 22.1233C54.0432 20.531 56.6874 18.5556 60.3193 17.7111C63.9512 16.8666 67.1956 17.4728 67.5658 19.0651Z" fill="url(#paint4_radial_938_24585)"/>
<path id="Vector_15" d="M70.5678 27.217C70.9381 28.8093 68.2939 30.7846 64.662 31.6291C61.03 32.4736 57.7856 31.8674 57.4154 30.2752C57.0452 28.6829 59.6894 26.7075 63.3213 25.863C66.9532 25.0185 70.1976 25.6247 70.5678 27.217Z" fill="url(#paint5_radial_938_24585)"/>
<path id="Vector_16" d="M73.1927 35.2123C73.6184 36.7906 71.0451 38.8574 67.445 39.8286C63.8448 40.7997 60.5812 40.3075 60.1554 38.7292C59.7297 37.1508 62.303 35.0841 65.9031 34.1129C69.5033 33.1417 72.7669 33.6339 73.1927 35.2123Z" fill="url(#paint6_radial_938_24585)"/>
<path id="Vector_17" d="M75.6458 43.4789C76.0716 45.0572 73.4983 47.124 69.8981 48.0952C66.298 49.0663 63.0344 48.5741 62.6086 46.9958C62.1828 45.4174 64.7561 43.3507 68.3563 42.3795C71.9564 41.4083 75.22 41.9005 75.6458 43.4789Z" fill="url(#paint7_radial_938_24585)"/>
<path id="Vector_18" d="M77.7168 52.8266C78.0043 54.4358 75.2617 56.2721 71.591 56.9279C67.9203 57.5837 64.7116 56.8108 64.424 55.2015C64.1365 53.5922 66.8791 51.756 70.5498 51.1002C74.2205 50.4444 77.4293 51.2173 77.7168 52.8266Z" fill="url(#paint8_radial_938_24585)"/>
<path id="Vector_19" d="M78.9705 62.3185C79.1176 63.9466 76.2263 65.5385 72.5126 65.874C68.7989 66.2096 65.6691 65.1617 65.522 63.5336C65.3749 61.9055 68.2662 60.3136 71.9798 59.9781C75.6936 59.6425 78.8234 60.6904 78.9705 62.3185Z" fill="url(#paint9_radial_938_24585)"/>
<path id="Vector_20" d="M79.3977 71.8833C79.4033 73.518 76.385 74.8536 72.6562 74.8663C68.9274 74.8791 65.9001 73.5642 65.8945 71.9294C65.8889 70.2947 68.9072 68.9591 72.636 68.9464C76.3648 68.9336 79.3921 70.2485 79.3977 71.8833Z" fill="url(#paint10_radial_938_24585)"/>
<path id="Vector_21" d="M78.9953 81.4496C78.8593 83.0787 75.7367 84.1479 72.0208 83.8377C68.3049 83.5276 65.4028 81.9555 65.5388 80.3264C65.6747 78.6973 68.7973 77.6281 72.5132 77.9383C76.2291 78.2484 79.1312 79.8205 78.9953 81.4496Z" fill="url(#paint11_radial_938_24585)"/>
<path id="Vector_22" d="M77.7663 90.9447C77.4898 92.5559 74.2864 93.3507 70.6113 92.72C66.9362 92.0893 64.1811 90.2719 64.4576 88.6607C64.7341 87.0495 67.9375 86.2546 71.6126 86.8853C75.2877 87.516 78.0428 89.3335 77.7663 90.9447Z" fill="url(#paint12_radial_938_24585)"/>
<path id="Vector_23" d="M75.7189 100.298C75.3039 101.879 72.0438 102.393 68.4371 101.447C64.8304 100.5 62.243 98.4513 62.658 96.87C63.073 95.2888 66.3331 94.7743 69.9398 95.7208C73.5465 96.6674 76.1339 98.7165 75.7189 100.298Z" fill="url(#paint13_radial_938_24585)"/>
<path id="Vector_24" d="M72.8708 109.438C72.3205 110.978 69.028 111.208 65.5168 109.953C62.0056 108.697 59.6054 106.432 60.1557 104.893C60.706 103.353 63.9985 103.123 67.5097 104.378C71.0209 105.633 73.4211 107.899 72.8708 109.438Z" fill="url(#paint14_radial_938_24585)"/>
</g>
</g>
<path id="CLOACA" d="M18.6732 169.791C22.4112 173.786 21.8105 180.422 17.3316 184.612C12.8526 188.802 6.19143 188.959 2.45348 184.963C-1.28452 180.967 -0.683818 174.332 3.79513 170.142C8.27408 165.952 14.9353 165.795 18.6732 169.791Z" fill="url(#paint15_radial_938_24585)"/>
<path id="Vector_25" d="M55.0452 165.061C54.4424 165.061 53.8377 164.844 53.358 164.405C52.3394 163.473 52.2696 161.892 53.2017 160.873C64.1998 148.858 70.7916 141.047 78.3729 120.261C78.8458 118.964 80.2801 118.295 81.5782 118.769C82.8753 119.243 83.5433 120.678 83.0701 121.975C75.564 142.554 69.3287 150.659 56.8902 164.249C56.397 164.788 55.7222 165.061 55.0452 165.061Z" fill="#D6633E"/>
</g>
<defs>
<linearGradient id="paint0_linear_938_24585" x1="83.1258" y1="119.65" x2="55.3339" y2="0.139001" gradientUnits="userSpaceOnUse">
<stop offset="0.75" stop-color="#FFE094"/>
<stop offset="1" stop-color="#FFE094" stop-opacity="0.2"/>
</linearGradient>
<linearGradient id="paint1_linear_938_24585" x1="59.9159" y1="173.327" x2="22.0663" y2="10.5654" gradientUnits="userSpaceOnUse">
<stop offset="0.83" stop-color="#CCA433"/>
<stop offset="0.95" stop-color="white" stop-opacity="0.2"/>
</linearGradient>
<radialGradient id="paint2_radial_938_24585" cx="0" cy="0" r="1" gradientTransform="matrix(6.49049 -1.50934 0.663043 2.85209 54.9827 4.2856)" gradientUnits="userSpaceOnUse">
<stop stop-color="white"/>
<stop offset="1" stop-color="white" stop-opacity="0"/>
</radialGradient>
<radialGradient id="paint3_radial_938_24585" cx="0" cy="0" r="1" gradientTransform="matrix(6.49049 -1.50934 0.663043 2.85208 57.9845 12.4377)" gradientUnits="userSpaceOnUse">
<stop stop-color="white"/>
<stop offset="1" stop-color="white" stop-opacity="0"/>
</radialGradient>
<radialGradient id="paint4_radial_938_24585" cx="0" cy="0" r="1" gradientTransform="matrix(6.49049 -1.50934 0.663043 2.85209 60.9861 20.5898)" gradientUnits="userSpaceOnUse">
<stop stop-color="#FFF4D9"/>
<stop offset="1" stop-color="#FFF5DB" stop-opacity="0"/>
</radialGradient>
<radialGradient id="paint5_radial_938_24585" cx="0" cy="0" r="1" gradientTransform="matrix(6.4905 -1.50934 0.663044 2.85208 63.9878 28.7413)" gradientUnits="userSpaceOnUse">
<stop stop-color="#E5CF97"/>
<stop offset="1" stop-color="#CCA133" stop-opacity="0"/>
</radialGradient>
<radialGradient id="paint6_radial_938_24585" cx="0" cy="0" r="1" gradientTransform="matrix(6.43386 -1.73524 0.763 2.82743 66.6787 36.9793)" gradientUnits="userSpaceOnUse">
<stop stop-color="#E5CF97"/>
<stop offset="1" stop-color="#CCA133" stop-opacity="0"/>
</radialGradient>
<radialGradient id="paint7_radial_938_24585" cx="0" cy="0" r="1" gradientTransform="matrix(6.43386 -1.73524 0.763 2.82743 69.1323 45.246)" gradientUnits="userSpaceOnUse">
<stop stop-color="#E5CF97"/>
<stop offset="1" stop-color="#CCA133" stop-opacity="0"/>
</radialGradient>
<radialGradient id="paint8_radial_938_24585" cx="0" cy="0" r="1" gradientUnits="userSpaceOnUse" gradientTransform="translate(71.0692 54.0105) rotate(-10.1311) scale(6.6637 2.9284)">
<stop stop-color="#E5CF97"/>
<stop offset="1" stop-color="#CCA133" stop-opacity="0"/>
</radialGradient>
<radialGradient id="paint9_radial_938_24585" cx="0" cy="0" r="1" gradientTransform="matrix(6.63643 -0.599738 0.263218 2.91672 72.2372 62.9257)" gradientUnits="userSpaceOnUse">
<stop stop-color="#E5CF97"/>
<stop offset="1" stop-color="#CCA133" stop-opacity="0"/>
</radialGradient>
<radialGradient id="paint10_radial_938_24585" cx="0" cy="0" r="1" gradientTransform="matrix(6.66374 -0.0226567 0.00999562 2.92805 72.6469 71.9066)" gradientUnits="userSpaceOnUse">
<stop stop-color="#E5CF97"/>
<stop offset="1" stop-color="#CCA133" stop-opacity="0"/>
</radialGradient>
<radialGradient id="paint11_radial_938_24585" cx="0" cy="0" r="1" gradientTransform="matrix(6.64043 0.554424 -0.243893 2.91805 72.2597 80.8904)" gradientUnits="userSpaceOnUse">
<stop stop-color="#E5CF97"/>
<stop offset="1" stop-color="#CCA133" stop-opacity="0"/>
</radialGradient>
<radialGradient id="paint12_radial_938_24585" cx="0" cy="0" r="1" gradientTransform="matrix(6.56779 1.12684 -0.495117 2.88607 71.1144 89.7958)" gradientUnits="userSpaceOnUse">
<stop stop-color="#E5CF97"/>
<stop offset="1" stop-color="#CCA133" stop-opacity="0"/>
</radialGradient>
<radialGradient id="paint13_radial_938_24585" cx="0" cy="0" r="1" gradientTransform="matrix(6.44518 1.69126 -0.743674 2.83276 69.1803 98.5799)" gradientUnits="userSpaceOnUse">
<stop stop-color="#E5CF97"/>
<stop offset="1" stop-color="#CCA133" stop-opacity="0"/>
</radialGradient>
<radialGradient id="paint14_radial_938_24585" cx="0" cy="0" r="1" gradientTransform="matrix(6.27459 2.24302 -0.985569 2.75746 66.5097 107.161)" gradientUnits="userSpaceOnUse">
<stop stop-color="#E5CF97"/>
<stop offset="1" stop-color="#CCA133" stop-opacity="0"/>
</radialGradient>
<radialGradient id="paint15_radial_938_24585" cx="0" cy="0" r="1" gradientUnits="userSpaceOnUse" gradientTransform="translate(10.566 177.373) rotate(-13.0912) scale(10.525 10.525)">
<stop stop-color="#FFE8AB"/>
<stop offset="0.3071" stop-color="#EBCD7C"/>
<stop offset="0.6113" stop-color="#DAB754"/>
<stop offset="0.8522" stop-color="#D0A93C"/>
<stop offset="1" stop-color="#CCA433"/>
</radialGradient>
</defs>
</svg>
