<svg width="58" height="78" viewBox="0 0 58 78" fill="none" xmlns="http://www.w3.org/2000/svg">
<g id="R-ICO-012552">
<g id="Group">
<path id="Vector" d="M31.5479 77.8301C29.9112 77.8301 28.4151 77.2569 27.336 76.2158C26.1358 75.0576 25.501 73.3916 25.501 71.3974C25.501 70.8447 25.9483 70.3974 26.501 70.3974C27.0537 70.3974 27.501 70.8447 27.501 71.3974C27.501 74.665 29.5918 75.83 31.5479 75.83C34.4346 75.83 37.502 73.495 37.502 69.1679C37.502 68.6152 37.9493 68.1679 38.502 68.1679C39.0547 68.1679 39.502 68.6152 39.502 69.1679C39.502 74.5898 35.458 77.8301 31.5479 77.8301Z" fill="url(#paint0_linear_938_22832)"/>
<path id="Vector_2" d="M46.1767 73.1611C45.705 73.1611 44.8466 72.9531 44.3867 71.5644C44.1308 70.791 44.0068 69.7167 44.0068 68.2802C44.0068 67.7275 44.4541 67.2802 45.0068 67.2802C45.5595 67.2802 46.0068 67.7275 46.0068 68.2802C46.0068 69.9003 46.1875 70.6718 46.3134 71.0116C47.329 70.0546 49.2568 65.5399 49.2568 60.1473C49.2568 59.5946 49.7041 59.1473 50.2568 59.1473C50.8095 59.1473 51.2568 59.5946 51.2568 60.1473C51.2567 65.8838 48.8651 73.1611 46.1767 73.1611Z" fill="url(#paint1_linear_938_22832)"/>
<path id="Vector_3" d="M48.9864 64.1777C43.8956 64.1777 36.501 60.5136 36.501 54.7724C36.501 54.2197 36.9483 53.7724 37.501 53.7724C38.0537 53.7724 38.501 54.2197 38.501 54.7724C38.501 58.8749 44.2373 62.1777 48.9864 62.1777C50.377 62.1777 51.5245 61.8818 52.3057 61.3222C53.1104 60.746 53.502 59.9111 53.502 58.7724C53.502 58.2197 53.9493 57.7724 54.502 57.7724C55.0547 57.7724 55.502 58.2197 55.502 58.7724C55.502 60.5517 54.7999 61.996 53.4708 62.9482C52.3478 63.7529 50.797 64.1777 48.9864 64.1777Z" fill="url(#paint2_linear_938_22832)"/>
<path id="Vector_4" d="M24.42 62.9629C23.045 62.9629 21.8634 62.5781 21.002 61.8486C20.3165 61.2685 19.5 60.1777 19.5 58.2724C19.5 57.7197 19.9473 57.2724 20.5 57.2724C21.0527 57.2724 21.5 57.7197 21.5 58.2724C21.5 59.1865 21.7666 59.8759 22.2939 60.3222C22.789 60.7411 23.5244 60.9628 24.4199 60.9628C27.3076 60.9628 31.5019 58.5517 31.5019 54.7724C31.5019 54.2197 31.9492 53.7724 32.5019 53.7724C33.0546 53.7724 33.5019 54.2197 33.5019 54.7724C33.5021 59.8477 28.212 62.9629 24.42 62.9629Z" fill="url(#paint3_linear_938_22832)"/>
<path id="Vector_5" d="M9.30562 70.2305C8.66012 70.2305 8.11712 69.8643 7.81442 69.2246C7.60252 68.7754 7.49902 68.1777 7.49902 67.3975C7.49902 66.8448 7.94632 66.3975 8.49902 66.3975C9.05172 66.3975 9.49902 66.8448 9.49902 67.3975C9.49902 67.6983 9.51952 67.9151 9.54392 68.0664C10.7421 67.1064 13.5009 62.4726 13.5009 58.3682C13.5009 57.8155 13.9482 57.3682 14.5009 57.3682C15.0536 57.3682 15.5009 57.8155 15.5009 58.3682C15.5009 63.2461 11.8534 70.2305 9.30562 70.2305Z" fill="url(#paint4_linear_938_22832)"/>
<path id="Vector_6" d="M15.6367 77.3105C10.1513 77.3105 2.5 73.875 2.5 68.2802C2.5 67.7275 2.9473 67.2802 3.5 67.2802C4.0527 67.2802 4.5 67.7275 4.5 68.2802C4.5 72.1747 10.5928 75.3105 15.6367 75.3105C17.1455 75.3105 18.3945 75.0234 19.248 74.4814C20.0908 73.9453 20.5009 73.1865 20.5009 72.1611C20.5009 71.6084 20.9482 71.1611 21.5009 71.1611C22.0536 71.1611 22.5009 71.6084 22.5009 72.1611C22.5009 73.8769 21.747 75.2627 20.3212 76.1689C19.1465 76.916 17.5264 77.3105 15.6367 77.3105Z" fill="url(#paint5_linear_938_22832)"/>
</g>
<g id="Group_2">
<g id="Group_3">
<path id="Vector_7" d="M41.0019 5.6505L34.001 3.9274V53.9274L34.0126 53.9302C34.0088 53.9304 34.0048 53.9303 34.001 53.9305L38.0021 57.1671C39.7954 56.865 41.0019 56.3003 41.0019 55.6536C41.0019 55.6525 41.0014 55.6515 41.0014 55.6504L41.0019 5.6505Z" fill="url(#paint6_linear_938_22832)"/>
<path id="Vector_8" d="M34.001 3.9274C34.3265 3.9115 34.6608 3.9032 35.0018 3.9032C38.3155 3.9032 41.0019 4.6855 41.0019 5.6505C41.0019 6.2972 39.7954 6.8619 38.0021 7.164L34.001 3.9274Z" fill="url(#paint7_linear_938_22832)"/>
</g>
<g id="Group_4">
<path id="Vector_9" d="M36.0021 7.3736L29.002 5.6505V55.6505C29.002 55.6515 29.002 55.6527 29.002 55.6536C29.002 56.6186 31.6883 57.4009 35.002 57.4009C35.3428 57.4009 35.6768 57.3926 36.0021 57.3767L35.9965 57.3721L36.0021 57.3735V7.3736Z" fill="url(#paint8_linear_938_22832)"/>
<path id="Vector_10" d="M36.0022 7.37359C35.677 7.38949 35.3428 7.39779 35.0021 7.39779C31.6884 7.39779 29.002 6.61549 29.002 5.65049C29.002 5.00379 30.2086 4.43909 32.002 4.13699L36.0022 7.37359Z" fill="url(#paint9_linear_938_22832)"/>
</g>
<path id="Vector_11" d="M32.5029 6.7676C31.9502 6.7676 31.5029 6.3203 31.5029 5.7676C31.5029 2.0215 33.4833 0 35.3476 0C36.8027 0 38.5029 1.2539 38.5029 4.7891C38.5029 5.3418 38.0556 5.7891 37.5029 5.7891C36.9502 5.7891 36.5029 5.3418 36.5029 4.7891C36.5029 3.7881 36.3261 2.96 36.0049 2.458C35.8105 2.1543 35.5888 2 35.3476 2C34.5937 2 33.5029 3.3418 33.5029 5.7676C33.5029 6.3203 33.0556 6.7676 32.5029 6.7676Z" fill="url(#paint10_linear_938_22832)"/>
</g>
<g id="Group_5">
<g id="Group_6">
<path id="Vector_12" d="M58.0028 9.65071L51.002 7.92761V57.9276L51.0135 57.9304C51.0097 57.9306 51.0058 57.9305 51.002 57.9307L55.0031 61.1673C56.7964 60.8652 58.0028 60.3005 58.0028 59.6538C58.0028 59.6527 58.0023 59.6517 58.0023 59.6506L58.0028 9.65071Z" fill="url(#paint11_linear_938_22832)"/>
<path id="Vector_13" d="M51.002 7.92761C51.3275 7.91171 51.6618 7.90341 52.0028 7.90341C55.3165 7.90341 58.0028 8.68571 58.0028 9.65071C58.0028 10.2974 56.7964 10.8621 55.0031 11.1642L51.002 7.92761Z" fill="url(#paint12_linear_938_22832)"/>
</g>
<g id="Group_7">
<path id="Vector_14" d="M53.003 11.3738L46.0029 9.6507V59.6507C46.0029 59.6517 46.0029 59.6529 46.0029 59.6538C46.0029 60.6188 48.6892 61.4011 52.0029 61.4011C52.3437 61.4011 52.6777 61.3928 53.003 61.3769L52.9974 61.3723L53.003 61.3737V11.3738Z" fill="url(#paint13_linear_938_22832)"/>
<path id="Vector_15" d="M53.0031 11.3739C52.6779 11.3898 52.3437 11.3981 52.003 11.3981C48.6893 11.3981 46.0029 10.6158 46.0029 9.6508C46.0029 9.0041 47.2095 8.4394 49.0029 8.1373L53.0031 11.3739Z" fill="url(#paint14_linear_938_22832)"/>
</g>
<path id="Vector_16" d="M49.5029 10.7812C48.9502 10.7812 48.5029 10.3339 48.5029 9.7812C48.5029 8.1708 48.8779 6.7597 49.5859 5.6992C50.3017 4.6279 51.3076 4.0137 52.3466 4.0137C53.8027 4.0137 55.5019 5.2686 55.5019 8.8028C55.5019 9.3555 55.0546 9.8028 54.5019 9.8028C53.9492 9.8028 53.5019 9.3555 53.5019 8.8028C53.5019 6.9717 52.9208 6.0137 52.3466 6.0137C51.5937 6.0137 50.5028 7.3555 50.5028 9.7813C50.5029 10.334 50.0557 10.7812 49.5029 10.7812Z" fill="url(#paint15_linear_938_22832)"/>
</g>
<g id="Group_8">
<g id="Group_9">
<path id="Vector_17" d="M47.0019 18.6513L40.001 16.9282V66.9282L40.0126 66.931C40.0088 66.9312 40.0048 66.9311 40.001 66.9313L44.0021 70.1679C45.7954 69.8658 47.0019 69.3011 47.0019 68.6544C47.0019 68.6533 47.0014 68.6523 47.0014 68.6512L47.0019 18.6513Z" fill="url(#paint16_linear_938_22832)"/>
<path id="Vector_18" d="M40.001 16.9282C40.3265 16.9123 40.6608 16.904 41.0018 16.904C44.3155 16.904 47.0019 17.6863 47.0019 18.6513C47.0019 19.298 45.7954 19.8627 44.0021 20.1648L40.001 16.9282Z" fill="url(#paint17_linear_938_22832)"/>
</g>
<g id="Group_10">
<path id="Vector_19" d="M42.0021 20.3744L35.002 18.6513V68.6513C35.002 68.6523 35.002 68.6535 35.002 68.6544C35.002 69.6194 37.6883 70.4017 41.002 70.4017C41.3428 70.4017 41.6768 70.3934 42.0021 70.3775L41.9965 70.3729L42.0021 70.3743V20.3744Z" fill="url(#paint18_linear_938_22832)"/>
<path id="Vector_20" d="M42.0022 20.3744C41.677 20.3903 41.3428 20.3986 41.0021 20.3986C37.6884 20.3986 35.002 19.6163 35.002 18.6513C35.002 18.0046 36.2086 17.4399 38.002 17.1378L42.0022 20.3744Z" fill="url(#paint19_linear_938_22832)"/>
</g>
<path id="Vector_21" d="M38.502 19.7686C37.9493 19.7686 37.502 19.3213 37.502 18.7686C37.502 15.0225 39.4825 13.001 41.3458 13.001C42.8019 13.001 44.5011 14.2549 44.5011 17.7901C44.5011 18.3428 44.0538 18.7901 43.5011 18.7901C42.9484 18.7901 42.5011 18.3428 42.5011 17.7901C42.5011 16.7891 42.3243 15.961 42.0031 15.459C41.8088 15.1553 41.5871 15.001 41.3459 15.001C40.592 15.001 39.5021 16.3428 39.5021 18.7686C39.502 19.3213 39.0547 19.7686 38.502 19.7686Z" fill="url(#paint20_linear_938_22832)"/>
</g>
<g id="Group_11">
<g id="Group_12">
<path id="Vector_22" d="M23.0009 8.65071L16 6.92761V56.9276L16.0116 56.9304C16.0078 56.9306 16.0038 56.9305 16 56.9307L20.0011 60.1673C21.7944 59.8652 23.0009 59.3005 23.0009 58.6538C23.0009 58.6527 23.0004 58.6517 23.0004 58.6506L23.0009 8.65071Z" fill="url(#paint21_linear_938_22832)"/>
<path id="Vector_23" d="M16 6.92761C16.3255 6.91171 16.6598 6.90341 17.0008 6.90341C20.3145 6.90341 23.0009 7.68571 23.0009 8.65071C23.0009 9.29741 21.7944 9.86211 20.0011 10.1642L16 6.92761Z" fill="url(#paint22_linear_938_22832)"/>
</g>
<g id="Group_13">
<path id="Vector_24" d="M18.0011 10.3738L11.001 8.6507V58.6507C11.001 58.6517 11.001 58.6529 11.001 58.6538C11.001 59.6188 13.6873 60.4011 17.001 60.4011C17.3418 60.4011 17.6758 60.3928 18.0011 60.3769L17.9955 60.3723L18.0011 60.3737V10.3738Z" fill="url(#paint23_linear_938_22832)"/>
<path id="Vector_25" d="M18.0012 10.3738C17.676 10.3897 17.3418 10.398 17.0011 10.398C13.6874 10.398 11.001 9.61571 11.001 8.65071C11.001 8.00401 12.2076 7.43931 14.001 7.13721L18.0012 10.3738Z" fill="url(#paint24_linear_938_22832)"/>
</g>
<path id="Vector_26" d="M14.502 9.9043C13.9493 9.9043 13.502 9.457 13.502 8.9043C13.502 5.1582 15.4825 3.1367 17.3458 3.1367C18.8019 3.1367 20.5011 4.3906 20.5011 7.9258C20.5011 8.4785 20.0538 8.9258 19.5011 8.9258C18.9484 8.9258 18.5011 8.4785 18.5011 7.9258C18.5011 6.9248 18.3243 6.0967 18.0031 5.5947C17.8088 5.291 17.5871 5.1367 17.3459 5.1367C16.592 5.1367 15.5021 6.4785 15.5021 8.9043C15.502 9.457 15.0547 9.9043 14.502 9.9043Z" fill="url(#paint25_linear_938_22832)"/>
</g>
<g id="Group_14">
<g id="Group_15">
<path id="Vector_27" d="M11.9999 17.6512L4.99902 15.9281V65.9281L5.01062 65.9309C5.00682 65.9311 5.00282 65.931 4.99902 65.9312L9.00012 69.1678C10.7934 68.8657 11.9999 68.301 11.9999 67.6543C11.9999 67.6532 11.9994 67.6522 11.9994 67.6511L11.9999 17.6512Z" fill="url(#paint26_linear_938_22832)"/>
<path id="Vector_28" d="M4.99902 15.9282C5.32452 15.9123 5.65882 15.904 5.99982 15.904C9.31352 15.904 11.9999 16.6863 11.9999 17.6513C11.9999 18.298 10.7934 18.8627 9.00012 19.1648L4.99902 15.9282Z" fill="url(#paint27_linear_938_22832)"/>
</g>
<g id="Group_16">
<path id="Vector_29" d="M7.0001 19.3743L0 17.6512V67.6512C0 67.6522 0 67.6534 0 67.6543C0 68.6193 2.6863 69.4016 6 69.4016C6.3408 69.4016 6.6748 69.3933 7.0001 69.3774L6.9945 69.3728L7.0001 69.3742V19.3743Z" fill="url(#paint28_linear_938_22832)"/>
<path id="Vector_30" d="M7.0002 19.3744C6.675 19.3903 6.3408 19.3986 6.0001 19.3986C2.6863 19.3985 0 18.6162 0 17.6512C0 17.0045 1.2066 16.4398 3 16.1377L7.0002 19.3744Z" fill="url(#paint29_linear_938_22832)"/>
</g>
<path id="Vector_31" d="M3.5 18.7686C2.9473 18.7686 2.5 18.3213 2.5 17.7686C2.5 14.0225 4.4805 12.001 6.3438 12.001C7.7999 12.001 9.4991 13.2549 9.4991 16.7901C9.4991 17.3428 9.0518 17.7901 8.4991 17.7901C7.9464 17.7901 7.4991 17.3428 7.4991 16.7901C7.4991 15.7891 7.3223 14.961 7.0011 14.459C6.8068 14.1553 6.5851 14.001 6.3439 14.001C5.59 14.001 4.5001 15.3428 4.5001 17.7686C4.5 18.3213 4.0527 18.7686 3.5 18.7686Z" fill="url(#paint30_linear_938_22832)"/>
</g>
<g id="Group_17">
<g id="Group_18">
<path id="Vector_32" d="M30.0009 21.6515L23 19.9284V69.9284L23.0116 69.9312C23.0078 69.9314 23.0038 69.9313 23 69.9315L27.0011 73.1681C28.7944 72.866 30.0009 72.3013 30.0009 71.6546C30.0009 71.6535 30.0004 71.6525 30.0004 71.6514L30.0009 21.6515Z" fill="url(#paint31_linear_938_22832)"/>
<path id="Vector_33" d="M23 19.9284C23.3255 19.9125 23.6598 19.9042 24.0008 19.9042C27.3145 19.9042 30.0009 20.6865 30.0009 21.6515C30.0009 22.2982 28.7944 22.8629 27.0011 23.165L23 19.9284Z" fill="url(#paint32_linear_938_22832)"/>
</g>
<g id="Group_19">
<path id="Vector_34" d="M25.0011 23.3746L18.001 21.6515V71.6515C18.001 71.6525 18.001 71.6537 18.001 71.6546C18.001 72.6196 20.6873 73.4019 24.001 73.4019C24.3418 73.4019 24.6758 73.3936 25.0011 73.3777L24.9955 73.3731L25.0011 73.3745V23.3746Z" fill="url(#paint33_linear_938_22832)"/>
<path id="Vector_35" d="M25.0012 23.3746C24.676 23.3905 24.3418 23.3988 24.0011 23.3988C20.6874 23.3988 18.001 22.6165 18.001 21.6515C18.001 21.0048 19.2076 20.4401 21.001 20.138L25.0012 23.3746Z" fill="url(#paint34_linear_938_22832)"/>
</g>
<path id="Vector_36" d="M21.501 22.7822C20.9483 22.7822 20.501 22.3349 20.501 21.7822C20.501 20.1718 20.876 18.7607 21.584 17.7002C22.2998 16.6289 23.3067 16.0147 24.3457 16.0147C25.8008 16.0147 27.501 17.2696 27.501 20.8038C27.501 21.3565 27.0537 21.8038 26.501 21.8038C25.9483 21.8038 25.501 21.3565 25.501 20.8038C25.501 18.9727 24.9199 18.0147 24.3457 18.0147C23.5918 18.0147 22.501 19.3565 22.501 21.7823C22.501 22.335 22.0537 22.7822 21.501 22.7822Z" fill="url(#paint35_linear_938_22832)"/>
</g>
</g>
<defs>
<linearGradient id="paint0_linear_938_22832" x1="25.501" y1="72.999" x2="39.502" y2="72.999" gradientUnits="userSpaceOnUse">
<stop stop-color="#A246D4"/>
<stop offset="1" stop-color="#6A1D93"/>
</linearGradient>
<linearGradient id="paint1_linear_938_22832" x1="44.0067" y1="66.1543" x2="51.2567" y2="66.1543" gradientUnits="userSpaceOnUse">
<stop stop-color="#A246D4"/>
<stop offset="1" stop-color="#6A1D93"/>
</linearGradient>
<linearGradient id="paint2_linear_938_22832" x1="36.5011" y1="58.9751" x2="55.5021" y2="58.9751" gradientUnits="userSpaceOnUse">
<stop stop-color="#6A1D93"/>
<stop offset="1" stop-color="#A246D4"/>
</linearGradient>
<linearGradient id="paint3_linear_938_22832" x1="19.5001" y1="58.3677" x2="33.5021" y2="58.3677" gradientUnits="userSpaceOnUse">
<stop stop-color="#A246D4"/>
<stop offset="1" stop-color="#6A1D93"/>
</linearGradient>
<linearGradient id="paint4_linear_938_22832" x1="7.49892" y1="63.7993" x2="15.5009" y2="63.7993" gradientUnits="userSpaceOnUse">
<stop stop-color="#A246D4"/>
<stop offset="1" stop-color="#6A1D93"/>
</linearGradient>
<linearGradient id="paint5_linear_938_22832" x1="2.5" y1="72.2954" x2="22.501" y2="72.2954" gradientUnits="userSpaceOnUse">
<stop stop-color="#A246D4"/>
<stop offset="1" stop-color="#6A1D93"/>
</linearGradient>
<linearGradient id="paint6_linear_938_22832" x1="34.001" y1="30.5472" x2="41.0019" y2="30.5472" gradientUnits="userSpaceOnUse">
<stop offset="0.56" stop-color="#785A00"/>
<stop offset="0.5771" stop-color="#8C6900"/>
<stop offset="0.5986" stop-color="#9D7600"/>
<stop offset="0.6255" stop-color="#A87E00"/>
<stop offset="0.6632" stop-color="#AF8400"/>
<stop offset="0.7679" stop-color="#B18500"/>
<stop offset="1" stop-color="#785A00"/>
</linearGradient>
<linearGradient id="paint7_linear_938_22832" x1="35.3393" y1="6.2455" x2="39.9077" y2="3.6079" gradientUnits="userSpaceOnUse">
<stop stop-color="#CC9900"/>
<stop offset="1" stop-color="#987200"/>
</linearGradient>
<linearGradient id="paint8_linear_938_22832" x1="29.002" y1="31.5257" x2="36.0021" y2="31.5257" gradientUnits="userSpaceOnUse">
<stop stop-color="#785A00"/>
<stop offset="0.0797" stop-color="#967100"/>
<stop offset="0.1634" stop-color="#AE8200"/>
<stop offset="0.2526" stop-color="#BF8F00"/>
<stop offset="0.3499" stop-color="#C99700"/>
<stop offset="0.4711" stop-color="#CC9900"/>
<stop offset="1" stop-color="#987200"/>
</linearGradient>
<linearGradient id="paint9_linear_938_22832" x1="30.096" y1="7.69289" x2="34.6639" y2="5.05559" gradientUnits="userSpaceOnUse">
<stop stop-color="#CC9900"/>
<stop offset="1" stop-color="#987200"/>
</linearGradient>
<linearGradient id="paint10_linear_938_22832" x1="31.5029" y1="3.3838" x2="38.5029" y2="3.3838" gradientUnits="userSpaceOnUse">
<stop stop-color="#6A1D93"/>
<stop offset="1" stop-color="#A246D4"/>
</linearGradient>
<linearGradient id="paint11_linear_938_22832" x1="51.002" y1="34.5475" x2="58.0028" y2="34.5475" gradientUnits="userSpaceOnUse">
<stop offset="0.56" stop-color="#785A00"/>
<stop offset="0.5771" stop-color="#8C6900"/>
<stop offset="0.5986" stop-color="#9D7600"/>
<stop offset="0.6255" stop-color="#A87E00"/>
<stop offset="0.6632" stop-color="#AF8400"/>
<stop offset="0.7679" stop-color="#B18500"/>
<stop offset="1" stop-color="#785A00"/>
</linearGradient>
<linearGradient id="paint12_linear_938_22832" x1="52.3404" y1="10.2458" x2="56.9088" y2="7.60821" gradientUnits="userSpaceOnUse">
<stop stop-color="#CC9900"/>
<stop offset="1" stop-color="#987200"/>
</linearGradient>
<linearGradient id="paint13_linear_938_22832" x1="46.0029" y1="35.526" x2="53.003" y2="35.526" gradientUnits="userSpaceOnUse">
<stop offset="0.0003" stop-color="#785A00"/>
<stop offset="0.08" stop-color="#967100"/>
<stop offset="0.1636" stop-color="#AE8200"/>
<stop offset="0.2527" stop-color="#BF8F00"/>
<stop offset="0.35" stop-color="#C99700"/>
<stop offset="0.4711" stop-color="#CC9900"/>
<stop offset="1" stop-color="#987200"/>
</linearGradient>
<linearGradient id="paint14_linear_938_22832" x1="47.0969" y1="11.6932" x2="51.6648" y2="9.0559" gradientUnits="userSpaceOnUse">
<stop stop-color="#CC9900"/>
<stop offset="1" stop-color="#987200"/>
</linearGradient>
<linearGradient id="paint15_linear_938_22832" x1="48.5029" y1="7.3975" x2="55.502" y2="7.3975" gradientUnits="userSpaceOnUse">
<stop stop-color="#6A1D93"/>
<stop offset="1" stop-color="#A246D4"/>
</linearGradient>
<linearGradient id="paint16_linear_938_22832" x1="40.001" y1="43.5481" x2="47.0019" y2="43.5481" gradientUnits="userSpaceOnUse">
<stop offset="0.56" stop-color="#785A00"/>
<stop offset="0.5771" stop-color="#8C6900"/>
<stop offset="0.5986" stop-color="#9D7600"/>
<stop offset="0.6255" stop-color="#A87E00"/>
<stop offset="0.6632" stop-color="#AF8400"/>
<stop offset="0.7679" stop-color="#B18500"/>
<stop offset="1" stop-color="#785A00"/>
</linearGradient>
<linearGradient id="paint17_linear_938_22832" x1="41.3394" y1="19.2463" x2="45.9078" y2="16.6087" gradientUnits="userSpaceOnUse">
<stop stop-color="#CC9900"/>
<stop offset="1" stop-color="#987200"/>
</linearGradient>
<linearGradient id="paint18_linear_938_22832" x1="35.002" y1="44.5265" x2="42.0021" y2="44.5265" gradientUnits="userSpaceOnUse">
<stop stop-color="#785A00"/>
<stop offset="0.0797" stop-color="#967100"/>
<stop offset="0.1634" stop-color="#AE8200"/>
<stop offset="0.2526" stop-color="#BF8F00"/>
<stop offset="0.3499" stop-color="#C99700"/>
<stop offset="0.4711" stop-color="#CC9900"/>
<stop offset="1" stop-color="#987200"/>
</linearGradient>
<linearGradient id="paint19_linear_938_22832" x1="36.096" y1="20.6937" x2="40.6639" y2="18.0565" gradientUnits="userSpaceOnUse">
<stop stop-color="#CC9900"/>
<stop offset="1" stop-color="#987200"/>
</linearGradient>
<linearGradient id="paint20_linear_938_22832" x1="37.502" y1="16.3848" x2="44.501" y2="16.3848" gradientUnits="userSpaceOnUse">
<stop stop-color="#6A1D93"/>
<stop offset="1" stop-color="#A246D4"/>
</linearGradient>
<linearGradient id="paint21_linear_938_22832" x1="16" y1="33.5474" x2="23.0009" y2="33.5474" gradientUnits="userSpaceOnUse">
<stop offset="0.56" stop-color="#007678"/>
<stop offset="0.5771" stop-color="#00898C"/>
<stop offset="0.5986" stop-color="#009A9D"/>
<stop offset="0.6255" stop-color="#00A5A8"/>
<stop offset="0.6632" stop-color="#00ACAF"/>
<stop offset="0.7679" stop-color="#00AEB1"/>
<stop offset="1" stop-color="#007678"/>
</linearGradient>
<linearGradient id="paint22_linear_938_22832" x1="17.3384" y1="9.24571" x2="21.9068" y2="6.60811" gradientUnits="userSpaceOnUse">
<stop stop-color="#00C9CC"/>
<stop offset="1" stop-color="#009698"/>
</linearGradient>
<linearGradient id="paint23_linear_938_22832" x1="11.001" y1="34.5259" x2="18.0011" y2="34.5259" gradientUnits="userSpaceOnUse">
<stop stop-color="#007678"/>
<stop offset="0.0797" stop-color="#009496"/>
<stop offset="0.1634" stop-color="#00ABAE"/>
<stop offset="0.2526" stop-color="#00BCBF"/>
<stop offset="0.3499" stop-color="#00C6C9"/>
<stop offset="0.4711" stop-color="#00C9CC"/>
<stop offset="1" stop-color="#009698"/>
</linearGradient>
<linearGradient id="paint24_linear_938_22832" x1="12.095" y1="10.6931" x2="16.6629" y2="8.05581" gradientUnits="userSpaceOnUse">
<stop stop-color="#00C9CC"/>
<stop offset="1" stop-color="#009698"/>
</linearGradient>
<linearGradient id="paint25_linear_938_22832" x1="13.502" y1="6.5205" x2="20.501" y2="6.5205" gradientUnits="userSpaceOnUse">
<stop stop-color="#6A1D93"/>
<stop offset="1" stop-color="#A246D4"/>
</linearGradient>
<linearGradient id="paint26_linear_938_22832" x1="4.99902" y1="42.548" x2="11.9999" y2="42.548" gradientUnits="userSpaceOnUse">
<stop offset="0.56" stop-color="#007678"/>
<stop offset="0.5771" stop-color="#00898C"/>
<stop offset="0.5986" stop-color="#009A9D"/>
<stop offset="0.6255" stop-color="#00A5A8"/>
<stop offset="0.6632" stop-color="#00ACAF"/>
<stop offset="0.7679" stop-color="#00AEB1"/>
<stop offset="1" stop-color="#007678"/>
</linearGradient>
<linearGradient id="paint27_linear_938_22832" x1="6.33742" y1="18.2463" x2="10.9058" y2="15.6087" gradientUnits="userSpaceOnUse">
<stop stop-color="#00C9CC"/>
<stop offset="1" stop-color="#009698"/>
</linearGradient>
<linearGradient id="paint28_linear_938_22832" x1="-2.60804e-05" y1="43.5265" x2="7.0001" y2="43.5265" gradientUnits="userSpaceOnUse">
<stop stop-color="#007678"/>
<stop offset="0.0797" stop-color="#009496"/>
<stop offset="0.1634" stop-color="#00ABAE"/>
<stop offset="0.2526" stop-color="#00BCBF"/>
<stop offset="0.3499" stop-color="#00C6C9"/>
<stop offset="0.4711" stop-color="#00C9CC"/>
<stop offset="1" stop-color="#009698"/>
</linearGradient>
<linearGradient id="paint29_linear_938_22832" x1="1.094" y1="19.6937" x2="5.6619" y2="17.0564" gradientUnits="userSpaceOnUse">
<stop stop-color="#00C9CC"/>
<stop offset="1" stop-color="#009698"/>
</linearGradient>
<linearGradient id="paint30_linear_938_22832" x1="2.5" y1="15.3848" x2="9.499" y2="15.3848" gradientUnits="userSpaceOnUse">
<stop stop-color="#6A1D93"/>
<stop offset="1" stop-color="#A246D4"/>
</linearGradient>
<linearGradient id="paint31_linear_938_22832" x1="23.0001" y1="46.5483" x2="30.0009" y2="46.5483" gradientUnits="userSpaceOnUse">
<stop offset="0.56" stop-color="#007678"/>
<stop offset="0.5771" stop-color="#00898C"/>
<stop offset="0.5986" stop-color="#009A9D"/>
<stop offset="0.6255" stop-color="#00A5A8"/>
<stop offset="0.6632" stop-color="#00ACAF"/>
<stop offset="0.7679" stop-color="#00AEB1"/>
<stop offset="1" stop-color="#007678"/>
</linearGradient>
<linearGradient id="paint32_linear_938_22832" x1="24.3383" y1="22.2465" x2="28.9068" y2="19.6089" gradientUnits="userSpaceOnUse">
<stop stop-color="#00C9CC"/>
<stop offset="1" stop-color="#009698"/>
</linearGradient>
<linearGradient id="paint33_linear_938_22832" x1="18.001" y1="47.5267" x2="25.0011" y2="47.5267" gradientUnits="userSpaceOnUse">
<stop stop-color="#007678"/>
<stop offset="0.0797" stop-color="#009496"/>
<stop offset="0.1634" stop-color="#00ABAE"/>
<stop offset="0.2526" stop-color="#00BCBF"/>
<stop offset="0.3499" stop-color="#00C6C9"/>
<stop offset="0.4711" stop-color="#00C9CC"/>
<stop offset="1" stop-color="#009698"/>
</linearGradient>
<linearGradient id="paint34_linear_938_22832" x1="19.0951" y1="23.6939" x2="23.6629" y2="21.0567" gradientUnits="userSpaceOnUse">
<stop stop-color="#00C9CC"/>
<stop offset="1" stop-color="#009698"/>
</linearGradient>
<linearGradient id="paint35_linear_938_22832" x1="20.501" y1="19.3984" x2="27.501" y2="19.3984" gradientUnits="userSpaceOnUse">
<stop stop-color="#6A1D93"/>
<stop offset="1" stop-color="#A246D4"/>
</linearGradient>
</defs>
</svg>
