<svg width="63" height="29" viewBox="0 0 63 29" fill="none" xmlns="http://www.w3.org/2000/svg">
<g id="R-ICO-013247">
<g id="Protein aggregated">
<path d="M45.4882 27.9245C44.3163 27.9245 43.7734 26.9431 43.4482 26.3571C43.3457 26.1725 43.1738 25.862 43.0839 25.7985C42.8222 25.821 42.7001 25.8854 42.4579 26.0124C42.119 26.1901 41.6561 26.4343 40.8261 26.4343C39.8642 26.4343 39.3427 25.9714 38.997 25.6657C38.7363 25.4333 38.6855 25.4001 38.495 25.4001C37.4237 25.4001 36.87 24.6901 36.5399 24.2653C36.4071 24.0954 36.3299 24.0046 36.2772 23.9557C36.16 24.1539 36.0184 24.5133 35.9266 24.7477C35.575 25.6393 35.0946 26.86 33.8309 26.86C33.5291 26.86 33.4286 26.9215 33.1864 27.07C32.8387 27.2829 32.3632 27.5749 31.4979 27.5749C30.6737 27.5749 30.2127 27.3386 29.8758 27.1667C29.6307 27.0417 29.5071 26.9782 29.1649 26.9782C28.3539 26.9782 27.8983 26.7585 27.5653 26.5973C27.3148 26.4762 27.1893 26.4157 26.8358 26.4157C26.6068 26.4157 26.5414 26.4684 26.2987 26.6647C25.9569 26.9411 25.4408 27.359 24.5038 27.359C23.1854 27.359 22.7401 25.9371 22.3822 24.7945C22.2723 24.4449 22.1005 23.8951 21.9584 23.6392C21.7118 23.6587 21.5741 23.7134 21.3725 23.7945C21.0331 23.9293 20.6103 24.0982 19.8344 24.0982C19.7021 24.0982 19.6684 24.107 19.3886 24.4C19.06 24.7428 18.5092 25.318 17.4985 25.318C16.5713 25.318 16.0566 24.9186 15.7158 24.6539C15.4682 24.4615 15.4013 24.4098 15.1592 24.4098C14.0821 24.4098 13.5283 23.6901 13.1973 23.2594C13.1133 23.15 13.0513 23.0729 13.0035 23.0192C12.8336 23.2819 12.6212 23.6803 12.4766 23.9508C11.8863 25.0582 11.376 26.0143 10.4258 26.0143H10.3125L10.1489 25.9831C9.05373 25.7321 8.95413 24.4772 8.85793 23.2643C8.83253 22.9459 8.79343 22.4518 8.73533 22.1891L8.68063 22.1627C8.21973 21.9439 7.87643 21.7809 7.37053 21.3922C7.17963 21.4078 6.90663 21.4733 6.66253 21.5318C6.26023 21.6285 5.84463 21.7281 5.44523 21.7281C4.76453 21.7281 4.38173 21.4283 4.18063 21.1773C4.05123 21.0152 3.90913 20.856 3.76653 20.6949C3.38473 20.2652 2.95203 19.7779 2.66253 19.1812C2.57463 19.0005 2.47403 18.816 2.37203 18.6275C2.08543 18.1002 1.76123 17.5025 1.61033 16.8463C1.56683 16.6559 1.43893 16.3805 1.31543 16.1139C1.06493 15.5729 0.781232 14.9596 0.781232 14.2868V13.2868H1.11573C0.684531 12.7541 0.322731 12.1594 0.481431 11.4684C0.634731 10.8009 1.11083 10.2506 1.53073 9.76477C1.73533 9.52747 1.96773 9.25887 2.04733 9.09437C2.47603 8.21157 3.55463 8.21157 4.07323 8.21157C4.24513 8.21157 4.42433 8.21647 4.60353 8.22137C4.76413 8.22567 5.09223 8.23007 5.09903 8.23007C4.98723 7.90587 4.82513 7.50697 4.70993 7.22327C4.13663 5.81307 3.64153 4.59487 4.52293 3.88977C5.18503 3.36047 6.35053 2.66617 7.05023 2.32627L7.25723 2.22567L7.56823 2.20757C8.39733 2.20757 8.97983 2.93557 10.1151 4.44977C10.349 4.76127 10.6771 5.19977 10.9554 5.53327C10.9764 5.48447 10.9964 5.43807 11.014 5.39757C11.3299 4.66177 11.763 3.65387 12.8197 3.65387C12.8671 3.61387 13.0336 3.34187 13.1327 3.17927C13.4603 2.64457 14.0082 1.74907 15.1517 1.74907C15.5057 1.74907 15.6317 1.68857 15.8822 1.56747C16.2147 1.40727 16.6703 1.18807 17.4813 1.18807C18.8177 1.18807 19.2381 2.65247 19.6087 3.94487C19.6575 4.11527 19.7186 4.32767 19.784 4.53767C19.8685 4.24177 19.9476 3.92637 20.0086 3.68217C20.3885 2.16557 20.7811 0.597168 22.1443 0.597168C23.4993 0.597168 23.9129 2.17477 24.2781 3.56687C24.385 3.97407 24.5476 4.59517 24.697 4.94577C24.7468 4.89937 24.8117 4.83107 24.9035 4.73047C25.2165 4.38667 25.7302 3.82227 26.6613 3.76807C26.7824 3.59477 26.9445 3.18897 27.0466 2.93307C27.3791 2.10157 27.8811 0.845168 29.1413 0.845168C30.5192 0.845168 30.8898 2.44477 31.2819 4.13867C31.403 4.66017 31.592 5.47757 31.7633 5.86277C31.9215 5.83547 32.0319 5.78127 32.1979 5.69967C32.5094 5.54687 32.9293 5.34077 33.6481 5.31437C33.7711 5.13177 33.9342 4.71087 34.0368 4.44527C34.3874 3.54047 34.8679 2.30167 36.1354 2.30167C36.5368 2.30167 36.7008 2.23967 36.9489 2.14587C37.2858 2.01887 37.7038 1.86117 38.4704 1.86117C39.6433 1.86117 40.1872 2.84307 40.5124 3.42997C40.6149 3.61597 40.7878 3.92707 40.8776 3.99097C40.8932 3.99047 40.9079 3.99047 40.9225 3.99047C41.9098 3.99047 42.4518 4.72237 42.777 5.16237C43.0026 5.46707 43.0768 5.54567 43.1403 5.54567C43.6559 5.54567 43.8952 5.51247 44.1715 5.47337C44.4781 5.43037 44.8258 5.38207 45.4801 5.38207C45.524 5.34107 45.693 5.06127 45.7936 4.89427C46.1207 4.34937 46.6696 3.43727 47.82 3.43727C48.6052 3.43727 49.2888 3.59787 49.9509 3.75317L50.0339 3.77267C50.2673 3.64567 50.7068 3.28977 50.9831 3.06567C51.7624 2.43437 52.4352 1.88937 53.1569 1.88937C53.363 1.88937 53.5583 1.93327 53.737 2.02027C54.6462 2.46167 54.655 3.59257 54.6638 4.78977C54.6667 5.11157 54.6706 5.61347 54.7107 5.87817C54.863 5.93967 55.0945 6.00217 55.2625 6.04757C55.8299 6.19987 56.535 6.39037 56.9959 6.96607C57.533 7.63747 57.3641 8.48557 57.2283 9.16727C57.2019 9.29667 57.1658 9.47827 57.1453 9.62917C57.4744 9.70197 57.9939 9.76737 58.3406 9.81077C59.7859 9.99197 61.034 10.1487 61.2771 11.2122C61.4705 12.0516 60.8523 12.6595 60.0056 13.2864H60.3494V14.2864C60.3494 14.4666 60.4803 14.8738 60.5848 15.2005C60.8065 15.89 61.036 16.6028 60.8827 17.2708C60.6786 18.1585 59.7714 18.5442 58.8944 18.9173C58.6337 19.0286 58.2118 19.2073 58.0565 19.3206C57.6883 20.0804 57.3133 20.8401 56.8143 21.4632C56.6678 21.6458 56.3329 21.9525 55.7313 21.9525C55.161 21.9525 54.5028 21.6693 53.8055 21.3685C53.6981 21.3226 53.5692 21.2669 53.4354 21.2113C53.5409 21.6312 53.6805 22.1117 53.7831 22.4662C54.3769 24.517 54.7685 25.8724 53.6649 26.4066C53.4979 26.4877 53.3163 26.5287 53.1258 26.5287C52.3201 26.5287 51.6561 25.809 50.7381 24.8119C50.4315 24.4789 49.9432 23.9486 49.6805 23.7494C49.6473 23.7514 49.6151 23.7523 49.5828 23.7523C48.9441 23.7523 48.4871 23.4066 48.1531 23.1537C48.1228 23.1312 48.0877 23.1049 48.0525 23.0785C47.8972 23.4935 47.7351 24.1889 47.6277 24.6508C47.2353 26.3346 46.8651 27.9245 45.4882 27.9245Z" fill="#E0A734"/>
<path d="M54.5585 1.35977C55.9319 2.58865 55.5662 3.89372 55.6437 4.78257C55.6444 5.12897 55.6475 5.52955 55.6729 5.7324L55.0751 4.9758C55.1505 5.00796 55.338 5.06307 55.5154 5.11175C56.1483 5.28432 57.0974 5.55275 57.7416 6.3691C58.5582 7.39252 58.2963 8.64485 58.1469 9.35026C58.1149 9.49999 58.086 9.64335 58.0694 9.7547L57.3467 8.71865C57.6572 8.78863 58.064 8.84335 58.4551 8.89643C59.0312 8.97788 59.6313 9.04089 60.3106 9.24454C60.9404 9.40229 61.9701 10.0209 62.1405 11.0148C62.3257 11.6966 62.0246 12.5321 61.6485 12.9576C61.2762 13.4142 60.8845 13.7013 60.5143 13.9733L60.0056 12.4316C60.1202 12.433 60.2348 12.4345 60.3494 12.436L61.1911 12.4274L61.1998 13.2864C61.1956 13.6197 61.1912 13.953 61.1867 14.2864C61.1748 14.191 61.208 14.4045 61.2434 14.5187C61.2801 14.6537 61.3241 14.7986 61.37 14.9493C61.561 15.6168 61.8803 16.4331 61.6562 17.4483C61.2548 18.9142 59.9462 19.2671 59.1883 19.608C59.0451 19.6662 58.9072 19.7223 58.7764 19.7791C58.6562 19.8294 58.4896 19.9142 58.4896 19.9141L58.7177 19.641C58.3407 20.3803 57.9486 21.1694 57.3526 21.8942C56.9518 22.3931 56.2932 22.6374 55.7313 22.6181C54.7987 22.5723 54.1814 22.2084 53.5583 21.9415C53.4364 21.8862 53.3173 21.8318 53.1992 21.7796L54.0324 21.0613C54.1255 21.4687 54.2357 21.884 54.3469 22.303C54.5275 22.9965 54.7271 23.687 54.8395 24.4568C54.8891 24.8425 54.929 25.2548 54.8147 25.7239C54.7162 26.1968 54.3029 26.6693 53.8759 26.8424C53.6407 26.9521 53.3772 27.0041 53.1258 26.9985C51.6714 26.8431 51.1446 25.7715 50.4528 25.0745C50.1291 24.7054 49.7895 24.3022 49.4724 24.0238L49.7012 24.0931C49.6616 24.0946 49.6218 24.0947 49.5828 24.0938C48.9397 24.0887 48.3763 23.7262 47.9759 23.3878C47.9444 23.3628 47.9115 23.3365 47.8787 23.3103L48.3239 23.18C48.1374 23.6502 48.0004 24.1839 47.8597 24.7047C47.6744 25.3866 47.5015 26.0851 47.1922 26.7505C46.9141 27.4024 46.2748 28.0881 45.4882 28.0178C45.4882 27.9556 45.4882 27.8933 45.4882 27.8311C46.9693 27.731 47.0947 25.8742 47.3957 24.5967C47.5046 24.0614 47.6016 23.5299 47.7811 22.9769L47.9214 22.613L48.2264 22.8466C48.2606 22.8706 48.2947 22.8946 48.3282 22.9179C48.7481 23.228 49.1541 23.4319 49.5828 23.4107C49.609 23.4097 49.6344 23.408 49.6598 23.4055L49.7906 23.399L49.8886 23.4749C50.3448 23.8316 50.6653 24.1883 51.0235 24.5492C51.7091 25.2393 52.4686 26.0987 53.1258 26.0588C53.2461 26.0539 53.3549 26.0241 53.4534 25.971C54.2831 25.6404 53.5948 23.9033 53.2193 22.6294C53.0892 22.2148 52.9577 21.7956 52.8384 21.3613L52.5482 20.1654L53.6716 20.6429C53.8011 20.6935 53.9283 20.7452 54.0508 20.7946C54.6673 21.0455 55.2999 21.3016 55.7313 21.2868C55.9879 21.2787 56.1639 21.181 56.2765 21.0316C56.7141 20.4595 57.0499 19.746 57.3953 19.0001L57.6235 18.727C58.0731 18.4338 58.298 18.3698 58.5997 18.2269C59.4259 17.88 60.0824 17.4821 60.1092 17.0929C60.1972 16.7057 60.0298 16.1149 59.7999 15.4528C59.7495 15.3022 59.6971 15.1463 59.6464 14.9784C59.5983 14.7893 59.537 14.6973 59.5121 14.2864C59.5076 13.953 59.5032 13.6197 59.499 13.2864L60.3494 14.1368C60.2348 14.1383 60.1202 14.1398 60.0056 14.1412L57.4104 14.1285L59.497 12.5994C59.8175 12.3559 60.1124 12.1044 60.2783 11.8829C60.4463 11.6447 60.4478 11.5765 60.4141 11.411C60.4931 11.1014 59.3636 10.8222 58.226 10.7251C57.8181 10.6763 57.4221 10.6365 56.9439 10.5397L56.0984 10.3436L56.2212 9.50363C56.2475 9.30501 56.2794 9.14103 56.3105 8.98002C56.4696 8.23328 56.4495 7.7715 56.25 7.56278C56.0521 7.3122 55.6493 7.13979 55.0112 6.98386C54.816 6.93075 54.6295 6.88895 54.3463 6.78059L53.8246 6.56371L53.7485 6.02394C53.6817 5.5054 53.6933 5.17659 53.6839 4.7986C53.7025 3.87367 53.5503 2.97576 53.3684 2.95499C53.3505 2.94201 53.3295 2.92928 53.3021 2.91621C53.2603 2.89698 53.2199 2.88684 53.1569 2.88681C52.924 2.84475 52.2426 3.31289 51.6126 3.84269C51.2827 4.10143 51.0462 4.32974 50.5115 4.65038L50.1658 4.83397L49.8054 4.74541C49.7777 4.73888 49.7501 4.73235 49.7224 4.72582C49.0222 4.55741 48.4162 4.43153 47.82 4.43199C47.3712 4.43175 47.0689 4.66977 46.6381 5.4012C46.5866 5.48592 46.5341 5.57191 46.4783 5.66102C46.4501 5.70586 46.4214 5.75114 46.3883 5.80157C46.3716 5.82701 46.3541 5.85328 46.3314 5.88573C46.2919 5.93358 46.3356 5.908 46.1506 6.09991L45.8574 6.36814L45.4801 6.36429C45.0654 6.36213 44.7195 6.37983 44.307 6.43929C43.954 6.49384 43.5004 6.52016 43.1403 6.51504C42.8102 6.5122 42.605 6.37248 42.5157 6.3107C42.4183 6.23961 42.3754 6.19419 42.3366 6.15538C42.2639 6.08001 42.2248 6.03047 42.1869 5.98351C42.1135 5.8912 42.0571 5.81419 42.0006 5.73723C41.5795 5.14299 41.3047 4.95046 40.9225 4.94119C40.9074 4.94106 40.9046 4.94109 40.9081 4.94089L40.578 4.9481L40.3266 4.76533C40.1451 4.62659 40.1269 4.57986 40.079 4.52633C40.0397 4.47698 40.0125 4.43834 39.9877 4.40217C39.9391 4.33063 39.9021 4.27023 39.8671 4.21166C39.7981 4.09555 39.7392 3.98753 39.6843 3.88633C39.2742 3.10443 38.9464 2.78889 38.4704 2.78598C38.0178 2.78496 37.7146 2.82813 37.2708 2.99962C37.0275 3.11286 36.4428 3.22915 36.1354 3.20734C35.6501 3.1454 35.2328 3.74772 34.8572 4.76314C34.8248 4.84487 34.7907 4.93104 34.7551 5.01818C34.6524 5.25584 34.5983 5.43993 34.3721 5.80203L34.1152 6.17513L33.6802 6.18667C33.268 6.20176 32.9916 6.26617 32.5772 6.47276C32.4538 6.53155 32.1967 6.66306 31.9091 6.7074L31.2417 6.81557L30.9802 6.21104C30.6906 5.47139 30.6045 4.92857 30.4634 4.32874C30.1926 2.98311 29.7586 1.49404 29.1413 1.63626C28.5856 1.57419 28.1187 2.23364 27.7398 3.21026C27.6073 3.51055 27.5382 3.75346 27.2617 4.18759L27.051 4.48258L26.7039 4.49923C26.2157 4.51939 25.8557 4.7206 25.4203 5.20091C25.3462 5.27871 25.2803 5.35107 25.17 5.45334L24.4349 6.12487L24.0588 5.21773C23.8472 4.66878 23.7509 4.21165 23.6315 3.73662C23.3449 2.49797 22.9511 1.13573 22.1443 1.19068C21.32 1.06525 20.85 2.47884 20.5309 3.6987C20.5212 3.7343 20.5115 3.76997 20.5018 3.80569C20.4245 4.09095 20.3454 4.38057 20.2562 4.6725L19.7971 6.2545L19.3152 4.68367C19.2558 4.47947 19.2013 4.27672 19.1481 4.07678C18.8434 2.91048 18.4657 1.57213 17.4813 1.59977C16.9701 1.58926 16.5246 1.67941 16.0494 1.91452C15.8452 2.03056 15.4179 2.14681 15.1517 2.12294C14.4176 2.08875 13.8495 2.62457 13.4219 3.35644C13.3718 3.43653 13.3203 3.51839 13.2668 3.60098C13.1975 3.69719 13.2095 3.72177 13.0342 3.90796L12.9379 3.98754L12.8197 3.98634C12.0882 3.94184 11.6279 4.7122 11.2952 5.51828C11.275 5.56385 11.2552 5.60875 11.2354 5.65374L11.0339 6.11017L10.7214 5.72854C10.4241 5.36458 10.1518 4.99417 9.87932 4.62684C9.18244 3.75421 8.50343 2.52027 7.56823 2.48894L7.58458 2.48847C7.4809 2.49437 7.37723 2.50029 7.27356 2.50624L7.38008 2.47845C7.31105 2.51193 7.24203 2.54542 7.17302 2.57892C6.31404 3.01064 5.45154 3.52852 4.70202 4.11379C4.18862 4.48885 4.3036 5.24439 4.54263 5.93759C4.67341 6.3256 4.8369 6.7124 5.0011 7.1049C5.14023 7.43774 5.28113 7.77186 5.40827 8.12343L5.55458 8.56166L5.09903 8.55717C4.92378 8.557 4.76551 8.55687 4.5946 8.5549C4.41766 8.55249 4.24343 8.55015 4.07323 8.55268C3.32421 8.54349 2.61171 8.71907 2.38828 9.25994C2.19253 9.6203 2.01204 9.79267 1.82952 10.0224C1.39938 10.5337 1.00849 11.0388 0.904926 11.5656C0.801521 12.0278 1.07814 12.5119 1.48683 12.9864L2.11273 13.7718L1.11573 13.7642C1.00423 13.7667 0.892732 13.7691 0.781232 13.7716L1.26609 13.2868C1.27353 13.6201 1.28104 13.9534 1.28862 14.2868C1.30069 14.7936 1.53222 15.3139 1.81593 15.8821C1.93144 16.128 2.05908 16.3379 2.16592 16.7193C2.3033 17.2529 2.58995 17.7762 2.91225 18.3338C3.01554 18.5149 3.12351 18.7018 3.22829 18.906C3.46875 19.3717 3.84233 19.7941 4.26821 20.2491C4.41173 20.4045 4.56353 20.5667 4.71585 20.75C4.87617 20.9321 5.111 21.0223 5.44523 21.0135C5.73647 21.0061 6.09364 20.9177 6.48986 20.8134C6.73096 20.7537 6.95286 20.6831 7.30926 20.6424L7.60649 20.6212L7.82885 20.7957C8.17383 21.0524 8.48744 21.2228 8.90947 21.4116C8.94409 21.4276 8.9788 21.4435 9.01432 21.4598C9.03718 21.4705 9.05552 21.479 9.07387 21.4876L9.41963 21.6589L9.49583 22.0209C9.59323 22.4947 9.61051 22.8306 9.6474 23.2013C9.71397 24.2809 9.94707 25.2251 10.3321 25.1836L10.3026 25.1774C10.3572 25.1875 10.4118 25.1976 10.4664 25.2076L10.3125 25.1931C10.3503 25.1929 10.3881 25.1926 10.4258 25.1924C10.7315 25.2893 11.2907 24.4605 11.7413 23.5588C11.9124 23.2397 12.077 22.9216 12.3029 22.566L12.9118 21.6449L13.6268 22.4644C13.7276 22.579 13.7908 22.6629 13.8592 22.7512C14.3046 23.3506 14.6378 23.5701 15.1592 23.5787C15.29 23.5736 15.6251 23.6056 15.8558 23.7423C16.0682 23.8636 16.1375 23.9345 16.2246 23.9991C16.6819 24.3709 16.9966 24.4862 17.4985 24.4974C18.0097 24.494 18.3484 24.329 18.8063 23.8417C18.8756 23.7709 18.9402 23.702 19.0487 23.6042C19.1082 23.5548 19.1687 23.4895 19.3476 23.3983C19.5409 23.2964 19.8016 23.2932 19.8344 23.2957C20.2992 23.2974 20.6284 23.2459 21.0812 23.061C21.2474 22.9891 21.6222 22.8669 21.8967 22.8581L22.4072 22.8229L22.6434 23.2588C22.9096 23.7977 22.9873 24.1551 23.118 24.5632C23.4369 25.7031 23.8684 26.6927 24.5038 26.6285C24.6605 26.6311 24.8099 26.6183 24.9511 26.5892C25.2718 26.5215 25.5186 26.3886 25.8556 26.1167C25.9397 26.0533 26.0083 25.9862 26.1916 25.8765C26.3869 25.7509 26.7102 25.7108 26.8358 25.7196C27.113 25.6942 27.6811 25.8593 27.8634 25.9807C28.314 26.2204 28.6774 26.3085 29.1649 26.3198C29.4427 26.2935 29.9967 26.4699 30.1691 26.5915C30.626 26.8494 30.9995 26.9477 31.4979 26.9602C32.0137 26.9701 32.4057 26.8716 32.8843 26.5765C32.983 26.5212 33.0982 26.4412 33.2983 26.3697C33.5006 26.2995 33.691 26.2939 33.8309 26.2961C34.5747 26.3688 35.0854 25.5457 35.472 24.5684C35.589 24.2967 35.6896 24.0348 35.8759 23.7183L36.1778 23.2194L36.5944 23.6139C36.7495 23.7719 36.8095 23.8684 36.8988 23.9848C37.3268 24.6066 37.8214 24.9958 38.495 25.0112C38.5945 25.0006 38.8835 25.0678 38.9881 25.1656C39.1035 25.2515 39.1693 25.3193 39.244 25.3886C39.7027 25.8519 40.2035 26.1109 40.8261 26.1278C41.3593 26.15 41.8493 26.0478 42.3427 25.7926C42.5285 25.6981 42.8138 25.5759 43.0647 25.575L43.1487 25.5687L43.2133 25.6153C43.4767 25.8876 43.5035 26.0508 43.6228 26.2601C43.993 27.055 44.5803 27.8179 45.4882 27.8311C45.4882 27.8933 45.4882 27.9556 45.4882 28.0178C44.4863 28.0999 43.6967 27.2324 43.2737 26.4539C43.1698 26.2796 43.0082 26.0248 42.9546 25.9816L43.1031 26.0218C42.9048 26.0429 42.7766 26.115 42.5731 26.2321C42.0782 26.5409 41.4312 26.7329 40.8261 26.7407C40.0782 26.7912 39.2639 26.4228 38.7512 25.9437C38.6777 25.8821 38.5998 25.8174 38.5554 25.7904C38.5026 25.7684 38.5908 25.7933 38.495 25.7888C37.558 25.857 36.6483 25.192 36.1804 24.5447C36.102 24.4499 35.9992 24.3287 35.9601 24.2974L36.6785 24.193C36.5804 24.38 36.4773 24.6623 36.3816 24.9258C36.1967 25.4269 36.0008 25.9765 35.6151 26.4905C35.2511 27.009 34.5273 27.438 33.8309 27.4237C33.6306 27.4413 33.7323 27.4171 33.4888 27.5632C32.9747 27.9318 32.1777 28.1987 31.4979 28.1894C30.8676 28.2155 30.1127 28.0315 29.5825 27.7417C29.3226 27.6184 29.3876 27.6428 29.1649 27.6364C28.5443 27.6597 27.7982 27.4894 27.267 27.2136C27.0025 27.0941 27.069 27.1184 26.8358 27.1117C26.7593 27.1184 26.8733 27.1066 26.8938 27.0886C26.9023 27.0826 26.8167 27.1492 26.7419 27.2126C26.3891 27.5231 25.8388 27.8771 25.2685 27.9995C25.0126 28.0597 24.7548 28.0869 24.5038 28.0893C23.631 28.1436 22.7576 27.4737 22.4118 26.8503C22.0223 26.2199 21.8347 25.5953 21.6462 25.025C21.5255 24.6533 21.3799 24.2137 21.2735 24.0195L22.0202 24.4202C21.8875 24.4353 21.8714 24.4429 21.667 24.5266C21.1494 24.7616 20.4229 24.9088 19.8344 24.9006C19.7749 24.9025 19.9395 24.9031 20.0491 24.8442C20.1444 24.7943 20.1335 24.7895 20.1235 24.8019C20.0944 24.8286 20.0304 24.8949 19.972 24.9571C19.4811 25.553 18.4553 26.1809 17.4985 26.1385C16.697 26.1759 15.7377 25.7742 15.2072 25.3087C15.1287 25.2465 15.0375 25.1831 15.0672 25.2034C15.1152 25.236 15.2359 25.2446 15.1592 25.2408C14.058 25.3032 12.9836 24.449 12.5358 23.7678C12.4782 23.6928 12.4157 23.6136 12.3803 23.5739L13.7041 23.4723C13.5465 23.7185 13.3781 24.0334 13.2115 24.3436C12.9677 24.7928 12.7279 25.2701 12.3525 25.7672C12.0106 26.2425 11.2883 26.8643 10.4258 26.8361C10.3881 26.8358 10.3503 26.8356 10.3125 26.8354L10.1587 26.8209C10.1042 26.8101 10.0498 26.7994 9.9953 26.7887L9.96573 26.7824C9.10237 26.6358 8.45455 25.7251 8.31685 25.0997C8.13123 24.4442 8.10915 23.868 8.06849 23.3269C8.04467 22.9792 8.01814 22.592 7.97488 22.3573L8.39681 22.8905C8.3787 22.8814 8.36058 22.8724 8.34246 22.8634C8.31189 22.8483 8.27689 22.8311 8.24113 22.8135C7.81232 22.6085 7.30679 22.3114 6.91224 21.9886L7.4318 22.1419C7.30835 22.1476 7.06243 22.1999 6.83471 22.2502C6.4317 22.3368 5.98059 22.4477 5.44523 22.4426C4.83304 22.4469 4.0788 22.182 3.64615 21.6055C3.53311 21.4566 3.40214 21.3027 3.26397 21.1397C2.85803 20.6635 2.40403 20.1233 2.09636 19.4559C2.01889 19.2858 1.92665 19.1068 1.83112 18.9202C1.53498 18.3445 1.20872 17.7073 1.05466 16.9741C1.03052 16.8431 0.91644 16.5791 0.814689 16.3458C0.560561 15.7621 0.259371 15.0727 0.273426 14.2868C0.280985 13.9534 0.288483 13.6201 0.295896 13.2868L0.290998 12.8064L0.781232 12.8014C0.892732 12.8039 1.00423 12.8064 1.11573 12.8088L0.744255 13.5875C0.325763 13.0566 -0.170624 12.2515 0.0573551 11.371C0.263333 10.5673 0.787881 10.006 1.23173 9.50633C1.41208 9.30493 1.62825 9.0645 1.70549 8.92896C2.17916 7.96295 3.31795 7.83971 4.07323 7.86965C4.25666 7.87226 4.43596 7.87981 4.61267 7.88702C4.77166 7.89325 4.94444 7.89789 5.09903 7.90213L4.78901 8.33698C4.67987 8.0088 4.54916 7.67572 4.41793 7.34184C4.26235 6.94557 4.10211 6.54684 3.96759 6.12506C3.73583 5.4257 3.51076 4.29037 4.34325 3.66515C5.16388 3.0381 6.01628 2.53327 6.92716 2.07292C6.99611 2.03938 7.06509 2.00581 7.13406 1.97222L7.24086 1.94436C7.34452 1.93824 7.44818 1.93211 7.55184 1.92594L7.56823 1.92547C8.31821 1.91904 8.85 2.45428 9.24227 2.88351C9.64524 3.33542 9.99512 3.80606 10.3515 4.27253C10.6278 4.63555 10.9031 4.9983 11.1898 5.33768L10.675 5.4126C10.6942 5.36708 10.7134 5.32146 10.733 5.27542C11.0391 4.50598 11.6067 3.31019 12.8197 3.32107L12.6051 3.39953C12.5578 3.44611 12.6649 3.30387 12.6991 3.24162C12.747 3.16386 12.7948 3.08366 12.8429 3.00261C13.2395 2.24975 14.0725 1.34255 15.1517 1.37503C15.3964 1.36974 15.4715 1.3456 15.7145 1.22052C16.2217 0.942109 16.885 0.774895 17.4813 0.77631C18.2849 0.722681 19.0405 1.35564 19.3525 1.96441C19.702 2.58104 19.8819 3.21324 20.0692 3.81281C20.1295 4.00917 20.1897 4.20237 20.2528 4.39168L19.3119 4.40285C19.3845 4.12771 19.45 3.84537 19.5155 3.55898C19.5238 3.52258 19.5321 3.4864 19.5405 3.45013C19.6912 2.80492 19.8322 2.13714 20.1462 1.4533C20.4092 0.794947 21.2007 -0.0357757 22.1443 0.00367934C23.0908 -0.0614116 23.917 0.752288 24.218 1.40944C24.5693 2.09076 24.7427 2.76227 24.9248 3.39723C25.0532 3.84986 25.1863 4.33101 25.3352 4.67381L24.2241 4.4382C24.2585 4.40401 24.3264 4.32882 24.3873 4.25944C24.8308 3.6956 25.7094 3.06506 26.6188 3.03692L26.061 3.34856C26.1134 3.26322 26.2539 2.9227 26.3532 2.65642C26.5449 2.15975 26.7594 1.59113 27.1806 1.05181C27.5766 0.508646 28.3776 0.0323803 29.1413 0.0541044C29.6505 0.0361094 30.2648 0.250203 30.6549 0.619165C31.0525 0.98125 31.2732 1.39281 31.4442 1.77262C31.7749 2.53846 31.9291 3.25847 32.1005 3.94918C32.2374 4.5089 32.3888 5.14508 32.5464 5.51451L31.6176 5.01819C31.6387 5.01366 31.6642 5.0048 31.8181 4.92694C32.297 4.66283 33.0181 4.45328 33.6161 4.44213L32.9242 4.82674C32.943 4.80036 33.0544 4.55331 33.1251 4.36715C33.1552 4.28985 33.1852 4.2105 33.2162 4.12827C33.4103 3.6233 33.6196 3.03923 34.0543 2.46462C34.4587 1.88467 35.3336 1.36496 36.1354 1.39604C36.3854 1.38548 36.3569 1.39555 36.6263 1.29247C37.1453 1.06896 37.884 0.928391 38.4704 0.936386C39.906 0.864533 40.9573 2.18023 41.3395 2.97169C41.3937 3.06853 41.4438 3.15631 41.4905 3.23213C41.5134 3.26934 41.536 3.3041 41.5508 3.32486C41.5579 3.3348 41.5636 3.34165 41.5592 3.33579C41.5467 3.32582 41.5652 3.32227 41.4286 3.21661L40.8472 3.04106C40.8806 3.03988 40.9077 3.03987 40.9225 3.03975C42.1197 2.98546 43.1293 3.94689 43.5539 4.58816C43.6037 4.65442 43.6549 4.72157 43.6937 4.76882C43.7116 4.79096 43.7306 4.81118 43.7202 4.79964C43.7128 4.79282 43.7023 4.77805 43.6416 4.73334C43.5885 4.69737 43.4252 4.57937 43.1403 4.57628C43.4703 4.57403 43.7071 4.55929 44.0349 4.5076C44.489 4.43501 45.0191 4.39953 45.4801 4.39982L44.8097 4.66421C44.6583 4.82218 44.7292 4.7559 44.7178 4.76408C44.7226 4.75695 44.7319 4.74289 44.7416 4.72781C44.7614 4.69708 44.7841 4.66055 44.8071 4.62318C44.8532 4.54792 44.901 4.46809 44.9499 4.38602C45.3368 3.61513 46.4357 2.37563 47.82 2.44252C48.6676 2.43674 49.4817 2.61524 50.1791 2.78042C50.2071 2.78697 50.2348 2.79344 50.2625 2.79991L49.5563 2.89495C49.7008 2.81182 50.0675 2.52223 50.3532 2.28902C51.0241 1.80996 51.6578 0.98699 53.1569 0.891961C53.4937 0.891161 53.8543 0.967676 54.173 1.12486C54.3046 1.18903 54.4347 1.26703 54.5585 1.35977Z" fill="#997D0B"/>
</g>
</g>
</svg>
