<svg width="209" height="25" viewBox="0 0 209 25" fill="none" xmlns="http://www.w3.org/2000/svg">
<g id="R-ICO-014580">
<g id="R-ICO-013027">
<g id="Back">
<path id="Vector" d="M31.8467 17.116C46.0898 17.116 35.5302 7.11597 56.8476 7.11597L60.3329 7.12322C46.8075 7.12322 55.7916 17.116 35.8375 17.116H31.8467Z" fill="url(#paint0_linear_938_25570)"/>
<path id="Vector_2" d="M80.8379 17.116C95.081 17.116 84.5214 7.11597 105.839 7.11597L109.324 7.12322C95.7987 7.12322 104.783 17.116 84.8287 17.116H80.8379Z" fill="url(#paint1_linear_938_25570)"/>
<path id="Vector_3" d="M129.828 17.116C144.071 17.116 133.512 7.11597 154.829 7.11597L158.314 7.12322C144.789 7.12322 153.773 17.116 133.819 17.116H129.828Z" fill="url(#paint2_linear_938_25570)"/>
<path id="Vector_4" d="M178.819 17.116C193.062 17.116 182.503 7.11597 203.82 7.11597L207.306 7.12322C193.78 7.12322 202.764 17.116 182.81 17.116H178.819Z" fill="url(#paint3_linear_938_25570)"/>
</g>
<g id="Front">
<path id="Vector_5" d="M35.7919 17.116C21.5488 17.116 30.8711 7.11597 11.2965 7.11597H7.30566C20.8311 7.11597 11.2965 17.116 31.8011 17.116H35.7919Z" fill="url(#paint4_linear_938_25570)"/>
<path id="Vector_6" d="M84.7831 17.116C70.54 17.116 79.8624 7.11597 60.2877 7.11597H56.2969C69.8223 7.11597 60.2877 17.116 80.7923 17.116H84.7831Z" fill="url(#paint5_linear_938_25570)"/>
<path id="Vector_7" d="M133.773 17.116C119.53 17.116 128.853 7.11597 109.278 7.11597H105.287C118.813 7.11597 109.278 17.116 129.783 17.116H133.773Z" fill="url(#paint6_linear_938_25570)"/>
<path id="Vector_8" d="M182.765 17.116C168.521 17.116 177.844 7.11597 158.269 7.11597H154.278C167.804 7.11597 158.269 17.116 178.774 17.116H182.765Z" fill="url(#paint7_linear_938_25570)"/>
</g>
</g>
<g id="R-ICO-013207">
<g id="A">
<path id="Vector_9" d="M111.899 6.2181V18.0252L121.455 23.2321L130.981 18.0252V6.2181L121.476 1L111.899 6.2181Z" fill="#73BABF" stroke="url(#paint8_linear_938_25570)" stroke-width="2" stroke-miterlimit="10" stroke-linecap="round" stroke-linejoin="round"/>
<text id="A_2" fill="white" xml:space="preserve" style="white-space: pre" font-family="Arial" font-size="12" font-weight="bold" letter-spacing="0em"><tspan x="116.756" y="15.4126">A</tspan></text>
</g>
<g id="A_3">
<path id="Vector_10" d="M130.98 6.2181V18.0252L140.536 23.2321L150.062 18.0252V6.2181L140.557 1L130.98 6.2181Z" fill="#73BABF" stroke="url(#paint9_linear_938_25570)" stroke-width="2" stroke-miterlimit="10" stroke-linecap="round" stroke-linejoin="round"/>
<text id="A_4" fill="white" xml:space="preserve" style="white-space: pre" font-family="Arial" font-size="12" font-weight="bold" letter-spacing="0em"><tspan x="135.837" y="15.4126">A</tspan></text>
</g>
<g id="A_5">
<path id="Vector_11" d="M150.062 6.2181V18.0252L159.618 23.2321L169.144 18.0252V6.2181L159.639 1L150.062 6.2181Z" fill="#73BABF" stroke="url(#paint10_linear_938_25570)" stroke-width="2" stroke-miterlimit="10" stroke-linecap="round" stroke-linejoin="round"/>
<text id="A_6" fill="white" xml:space="preserve" style="white-space: pre" font-family="Arial" font-size="12" font-weight="bold" letter-spacing="0em"><tspan x="154.919" y="15.4126">A</tspan></text>
</g>
<g id="A_7">
<path id="Vector_12" d="M169.144 6.2181V18.0252L178.699 23.2321L188.225 18.0252V6.2181L178.72 1L169.144 6.2181Z" fill="#73BABF" stroke="url(#paint11_linear_938_25570)" stroke-width="2" stroke-miterlimit="10" stroke-linecap="round" stroke-linejoin="round"/>
<text id="A_8" fill="white" xml:space="preserve" style="white-space: pre" font-family="Arial" font-size="12" font-weight="bold" letter-spacing="0em"><tspan x="174" y="15.4126">A</tspan></text>
</g>
<g id="A_9">
<path id="Vector_13" d="M188.225 6.2181V18.0252L197.78 23.2321L207.306 18.0252V6.2181L197.801 1L188.225 6.2181Z" fill="#73BABF" stroke="url(#paint12_linear_938_25570)" stroke-width="2" stroke-miterlimit="10" stroke-linecap="round" stroke-linejoin="round"/>
<text id="A_10" fill="white" xml:space="preserve" style="white-space: pre" font-family="Arial" font-size="12" font-weight="bold" letter-spacing="0em"><tspan x="193.081" y="15.4126">A</tspan></text>
</g>
</g>
<path id="Vector_14" d="M10.3727 2.23218H4.23945L1.17285 7.23218L4.23945 12.2322H10.3727L13.4394 7.23218L10.3727 2.23218Z" fill="url(#paint13_linear_938_25570)" stroke="#BD728C" stroke-width="2" stroke-miterlimit="10"/>
</g>
<defs>
<linearGradient id="paint0_linear_938_25570" x1="46.0898" y1="17.1018" x2="46.0898" y2="7.13009" gradientUnits="userSpaceOnUse">
<stop stop-color="#241A04"/>
<stop offset="0.1959" stop-color="#A28746"/>
<stop offset="0.3113" stop-color="#E2E0DC"/>
<stop offset="0.4279" stop-color="#A2760E"/>
<stop offset="1" stop-color="#241A04"/>
</linearGradient>
<linearGradient id="paint1_linear_938_25570" x1="95.081" y1="17.1018" x2="95.081" y2="7.13009" gradientUnits="userSpaceOnUse">
<stop stop-color="#241A04"/>
<stop offset="0.1959" stop-color="#A28746"/>
<stop offset="0.3113" stop-color="#E2E0DC"/>
<stop offset="0.4279" stop-color="#A2760E"/>
<stop offset="1" stop-color="#241A04"/>
</linearGradient>
<linearGradient id="paint2_linear_938_25570" x1="144.071" y1="17.1018" x2="144.071" y2="7.13009" gradientUnits="userSpaceOnUse">
<stop stop-color="#241A04"/>
<stop offset="0.1959" stop-color="#A28746"/>
<stop offset="0.3113" stop-color="#E2E0DC"/>
<stop offset="0.4279" stop-color="#A2760E"/>
<stop offset="1" stop-color="#241A04"/>
</linearGradient>
<linearGradient id="paint3_linear_938_25570" x1="193.062" y1="17.1018" x2="193.062" y2="7.13009" gradientUnits="userSpaceOnUse">
<stop stop-color="#241A04"/>
<stop offset="0.1959" stop-color="#A28746"/>
<stop offset="0.3113" stop-color="#E2E0DC"/>
<stop offset="0.4279" stop-color="#A2760E"/>
<stop offset="1" stop-color="#241A04"/>
</linearGradient>
<linearGradient id="paint4_linear_938_25570" x1="21.5488" y1="7.13009" x2="21.5488" y2="17.1018" gradientUnits="userSpaceOnUse">
<stop stop-color="#71530D"/>
<stop offset="0.0919" stop-color="#A27713"/>
<stop offset="0.2499" stop-color="#E2E0DC"/>
<stop offset="0.5868" stop-color="#A2760E"/>
<stop offset="1" stop-color="#241A04"/>
</linearGradient>
<linearGradient id="paint5_linear_938_25570" x1="70.54" y1="7.13009" x2="70.54" y2="17.1018" gradientUnits="userSpaceOnUse">
<stop stop-color="#71530D"/>
<stop offset="0.0919" stop-color="#A27713"/>
<stop offset="0.2499" stop-color="#E2E0DC"/>
<stop offset="0.5868" stop-color="#A2760E"/>
<stop offset="1" stop-color="#241A04"/>
</linearGradient>
<linearGradient id="paint6_linear_938_25570" x1="119.53" y1="7.13009" x2="119.53" y2="17.1018" gradientUnits="userSpaceOnUse">
<stop stop-color="#71530D"/>
<stop offset="0.0919" stop-color="#A27713"/>
<stop offset="0.2499" stop-color="#E2E0DC"/>
<stop offset="0.5868" stop-color="#A2760E"/>
<stop offset="1" stop-color="#241A04"/>
</linearGradient>
<linearGradient id="paint7_linear_938_25570" x1="168.521" y1="7.13009" x2="168.521" y2="17.1018" gradientUnits="userSpaceOnUse">
<stop stop-color="#71530D"/>
<stop offset="0.0919" stop-color="#A27713"/>
<stop offset="0.2499" stop-color="#E2E0DC"/>
<stop offset="0.5868" stop-color="#A2760E"/>
<stop offset="1" stop-color="#241A04"/>
</linearGradient>
<linearGradient id="paint8_linear_938_25570" x1="121.44" y1="24.2321" x2="121.44" y2="4.7281e-08" gradientUnits="userSpaceOnUse">
<stop stop-color="#041330"/>
<stop offset="1" stop-color="#73BABF"/>
</linearGradient>
<linearGradient id="paint9_linear_938_25570" x1="140.521" y1="24.2321" x2="140.521" y2="4.7281e-08" gradientUnits="userSpaceOnUse">
<stop stop-color="#041330"/>
<stop offset="1" stop-color="#73BABF"/>
</linearGradient>
<linearGradient id="paint10_linear_938_25570" x1="159.603" y1="24.2321" x2="159.603" y2="4.7281e-08" gradientUnits="userSpaceOnUse">
<stop stop-color="#041330"/>
<stop offset="1" stop-color="#73BABF"/>
</linearGradient>
<linearGradient id="paint11_linear_938_25570" x1="178.684" y1="24.2321" x2="178.684" y2="4.7281e-08" gradientUnits="userSpaceOnUse">
<stop stop-color="#041330"/>
<stop offset="1" stop-color="#73BABF"/>
</linearGradient>
<linearGradient id="paint12_linear_938_25570" x1="197.765" y1="24.2321" x2="197.765" y2="4.7281e-08" gradientUnits="userSpaceOnUse">
<stop stop-color="#041330"/>
<stop offset="1" stop-color="#73BABF"/>
</linearGradient>
<linearGradient id="paint13_linear_938_25570" x1="7.30605" y1="12.2322" x2="7.30605" y2="2.23218" gradientUnits="userSpaceOnUse">
<stop stop-color="#301B24"/>
<stop offset="1" stop-color="#BD728C"/>
</linearGradient>
</defs>
</svg>
