<svg width="86" height="23" viewBox="0 0 86 23" fill="none" xmlns="http://www.w3.org/2000/svg">
<g id="R-ICO-014548">
<g id="PIK3CA,B,G">
<path d="M0.887207 11.5C0.887207 5.97715 5.36436 1.5 10.8872 1.5H73.8872C79.4101 1.5 83.8872 5.97715 83.8872 11.5C83.8872 17.0228 79.4101 21.5 73.8872 21.5H10.8872C5.36436 21.5 0.887207 17.0228 0.887207 11.5Z" fill="url(#paint0_linear_938_24085)"/>
<path d="M58.0955 2.99266C42.3593 2.87443 26.6233 2.52283 10.8872 1.64001C10.8872 1.54664 10.8872 1.45328 10.8872 1.35991C26.6233 0.477089 42.3593 0.125486 58.0955 0.00726104C63.3592 -0.0180111 68.6232 0.0260845 73.8872 0.087034C76.8604 0.101672 79.7964 1.35869 81.8561 3.46512C83.9614 5.57261 85.1527 8.55307 85.0838 11.5C85.119 17.4821 79.6144 22.6023 73.8879 22.2659C73.8877 22.2659 73.8875 22.2658 73.8872 22.2658C66.0194 22.0221 58.1508 21.8466 50.2831 21.953C42.415 22.056 34.5463 22.4645 26.6783 22.6648C21.4146 22.7738 16.1509 22.7701 10.8872 22.7094C7.96635 22.6949 5.08597 21.4482 3.08239 19.3705C1.03727 17.2875 -0.0949133 14.3649 0.00619322 11.5C0.037443 5.67582 5.49448 0.858945 10.8872 1.35991C10.8872 1.45328 10.8872 1.54664 10.8872 1.64001C5.62697 1.88186 1.47776 6.67072 1.76807 11.5C1.84206 13.9083 2.89695 16.2176 4.60924 17.8309C6.29375 19.4395 8.591 20.3313 10.8872 20.2907C16.1509 20.23 21.4145 20.2263 26.6783 20.3353C34.5463 20.5356 42.415 20.9428 50.2831 21.0457C58.1509 21.1521 66.0192 20.978 73.8872 20.7342C73.8874 20.7342 73.8876 20.7342 73.8878 20.7342C78.8141 20.656 82.9144 16.1706 82.6907 11.5C82.6489 9.17426 81.6536 6.9233 80.002 5.33447C78.3736 3.75405 76.1315 2.87213 73.8872 2.91294C68.6233 2.97396 63.3592 3.01811 58.0955 2.99266Z" fill="#A5834F"/>
<text id="PIK3CA,B,G_2" fill="white" xml:space="preserve" style="white-space: pre" font-family="Arial" font-size="12" font-weight="bold" letter-spacing="0em"><tspan x="8.02197" y="15.6602">PIK3CA,B,G</tspan></text>
</g>
</g>
<defs>
<linearGradient id="paint0_linear_938_24085" x1="42.3872" y1="1.5" x2="42.3872" y2="21.5" gradientUnits="userSpaceOnUse">
<stop stop-color="#291741"/>
<stop offset="1" stop-color="#A5834F"/>
</linearGradient>
</defs>
</svg>
