<svg width="37" height="24" viewBox="0 0 37 24" fill="none" xmlns="http://www.w3.org/2000/svg">
<g id="R-ICO-012783">
<g id="CHEMICAL_HEX">
<g id="LEFT_CORNER">
<mask id="mask0_938_24879" style="mask-type:luminance" maskUnits="userSpaceOnUse" x="0" y="0" width="10" height="24">
<rect id="MASK" width="10" height="24" transform="matrix(-1 0 0 1 10 0)" fill="white"/>
</mask>
<g mask="url(#mask0_938_24879)">
<g id="CORNER">
<mask id="path-2-outside-1_938_24879" maskUnits="userSpaceOnUse" x="0" y="0" width="12" height="24" fill="black">
<rect fill="white" width="12" height="24"/>
<path d="M2 12C2 12 6.04738 5.90524 8 2H10V22H8C6.04738 18.0948 2 12 2 12Z"/>
</mask>
<path d="M2 12C2 12 6.04738 5.90524 8 2H10V22H8C6.04738 18.0948 2 12 2 12Z" fill="#D18F1C"/>
<path d="M2 12C2 12 6.04738 5.90524 8 2H10V22H8C6.04738 18.0948 2 12 2 12Z" stroke="url(#paint0_linear_938_24879)" stroke-width="4" stroke-miterlimit="3.99933" stroke-linejoin="round" mask="url(#path-2-outside-1_938_24879)"/>
</g>
</g>
</g>
<g id="RIGHT CORNER">
<mask id="mask1_938_24879" style="mask-type:luminance" maskUnits="userSpaceOnUse" x="27" y="0" width="10" height="24">
<rect id="MASK_2" width="10" height="24" transform="matrix(1 -8.74228e-08 -8.74228e-08 -1 27 24)" fill="white"/>
</mask>
<g mask="url(#mask1_938_24879)">
<g id="CORNER_2">
<mask id="path-4-outside-2_938_24879" maskUnits="userSpaceOnUse" x="25" y="0" width="12" height="24" fill="black">
<rect fill="white" x="25" width="12" height="24"/>
<path d="M35 12C35 12 30.9526 5.90524 29 2H27V22H29C30.9526 18.0948 35 12 35 12Z"/>
</mask>
<path d="M35 12C35 12 30.9526 5.90524 29 2H27V22H29C30.9526 18.0948 35 12 35 12Z" fill="#D18F1C"/>
<path d="M35 12C35 12 30.9526 5.90524 29 2H27V22H29C30.9526 18.0948 35 12 35 12Z" stroke="url(#paint1_linear_938_24879)" stroke-width="4" stroke-miterlimit="3.99933" stroke-linejoin="round" mask="url(#path-4-outside-2_938_24879)"/>
</g>
</g>
</g>
<g id="centre">
<mask id="path-5-outside-3_938_24879" maskUnits="userSpaceOnUse" x="8" y="0" width="21" height="24" fill="black">
<rect fill="white" x="8" width="21" height="24"/>
<path d="M8 2H29V22H8V2Z"/>
</mask>
<path d="M8 2H29V22H8V2Z" fill="#D18F1C"/>
<path d="M8 2V4H29V2V0H8V2ZM29 22V20H8V22V24H29V22Z" fill="url(#paint2_linear_938_24879)" mask="url(#path-5-outside-3_938_24879)"/>
<text id="Chemical" fill="white" xml:space="preserve" style="white-space: pre" font-family="Arial" font-size="12" font-weight="bold" letter-spacing="0em"><tspan x="8.1582" y="16.1602">GPI</tspan></text>
</g>
</g>
</g>
<defs>
<linearGradient id="paint0_linear_938_24879" x1="6" y1="2" x2="6" y2="22" gradientUnits="userSpaceOnUse">
<stop stop-color="#4A2F00"/>
<stop offset="1" stop-color="#D18F1C"/>
</linearGradient>
<linearGradient id="paint1_linear_938_24879" x1="31" y1="2" x2="31" y2="22" gradientUnits="userSpaceOnUse">
<stop stop-color="#4A2F00"/>
<stop offset="1" stop-color="#D18F1C"/>
</linearGradient>
<linearGradient id="paint2_linear_938_24879" x1="18.5" y1="2" x2="18.5" y2="22" gradientUnits="userSpaceOnUse">
<stop stop-color="#4A2F00"/>
<stop offset="1" stop-color="#D18F1C"/>
</linearGradient>
</defs>
</svg>
