<svg width="34" height="24" viewBox="0 0 34 24" fill="none" xmlns="http://www.w3.org/2000/svg">
<g id="R-ICO-013287">
<g id="CHEMICAL_HEX">
<g id="LEFT_CORNER">
<mask id="mask0_938_25010" style="mask-type:luminance" maskUnits="userSpaceOnUse" x="0" y="0" width="10" height="24">
<rect id="MASK" width="10" height="24" transform="matrix(-1 0 0 1 10 0)" fill="white"/>
</mask>
<g mask="url(#mask0_938_25010)">
<g id="CORNER">
<mask id="path-2-outside-1_938_25010" maskUnits="userSpaceOnUse" x="0" y="0" width="12" height="24" fill="black">
<rect fill="white" width="12" height="24"/>
<path d="M2 12C2 12 6.04738 5.90524 8 2H10V22H8C6.04738 18.0948 2 12 2 12Z"/>
</mask>
<path d="M2 12C2 12 6.04738 5.90524 8 2H10V22H8C6.04738 18.0948 2 12 2 12Z" fill="#C4C426"/>
<path d="M2 12C2 12 6.04738 5.90524 8 2H10V22H8C6.04738 18.0948 2 12 2 12Z" stroke="url(#paint0_linear_938_25010)" stroke-width="4" stroke-miterlimit="3.99933" stroke-linejoin="round" mask="url(#path-2-outside-1_938_25010)"/>
</g>
</g>
</g>
<g id="RIGHT CORNER">
<mask id="mask1_938_25010" style="mask-type:luminance" maskUnits="userSpaceOnUse" x="24" y="0" width="10" height="24">
<rect id="MASK_2" width="10" height="24" transform="matrix(1 -8.74228e-08 -8.74228e-08 -1 24 24)" fill="white"/>
</mask>
<g mask="url(#mask1_938_25010)">
<g id="CORNER_2">
<mask id="path-4-outside-2_938_25010" maskUnits="userSpaceOnUse" x="22" y="0" width="12" height="24" fill="black">
<rect fill="white" x="22" width="12" height="24"/>
<path d="M32 12C32 12 27.9526 5.90524 26 2H24V22H26C27.9526 18.0948 32 12 32 12Z"/>
</mask>
<path d="M32 12C32 12 27.9526 5.90524 26 2H24V22H26C27.9526 18.0948 32 12 32 12Z" fill="#C4C426"/>
<path d="M32 12C32 12 27.9526 5.90524 26 2H24V22H26C27.9526 18.0948 32 12 32 12Z" stroke="url(#paint1_linear_938_25010)" stroke-width="4" stroke-miterlimit="3.99933" stroke-linejoin="round" mask="url(#path-4-outside-2_938_25010)"/>
</g>
</g>
</g>
<g id="centre">
<g clip-path="url(#clip0_938_25010)">
<mask id="path-5-outside-3_938_25010" maskUnits="userSpaceOnUse" x="8" y="0" width="18" height="24" fill="black">
<rect fill="white" x="8" width="18" height="24"/>
<path d="M8 2H26V22H8V2Z"/>
</mask>
<path d="M8 2H26V22H8V2Z" fill="#C4C426"/>
<text id="Chemical" fill="white" xml:space="preserve" style="white-space: pre" font-family="Arial" font-size="12" font-weight="bold" letter-spacing="0em"><tspan x="8.32812" y="16.1602">RA</tspan></text>
</g>
<path d="M8 2V4H26V2V0H8V2ZM26 22V20H8V22V24H26V22Z" fill="url(#paint2_linear_938_25010)" mask="url(#path-5-outside-3_938_25010)"/>
</g>
</g>
</g>
<defs>
<linearGradient id="paint0_linear_938_25010" x1="6" y1="2" x2="6" y2="22" gradientUnits="userSpaceOnUse">
<stop stop-color="#C4C426"/>
<stop offset="1" stop-color="#3D3D0C"/>
</linearGradient>
<linearGradient id="paint1_linear_938_25010" x1="28" y1="2" x2="28" y2="22" gradientUnits="userSpaceOnUse">
<stop stop-color="#C4C426"/>
<stop offset="1" stop-color="#3D3D0C"/>
</linearGradient>
<linearGradient id="paint2_linear_938_25010" x1="17" y1="2" x2="17" y2="22" gradientUnits="userSpaceOnUse">
<stop stop-color="#C4C426"/>
<stop offset="1" stop-color="#3D3D0C"/>
</linearGradient>
<clipPath id="clip0_938_25010">
<path d="M8 2H26V22H8V2Z" fill="white"/>
</clipPath>
</defs>
</svg>
