<svg width="44" height="31" viewBox="0 0 44 31" fill="none" xmlns="http://www.w3.org/2000/svg">
<g id="R-ICO-014107">
<g id="cya">
<g id="Vector">
<path d="M2.06524 8.23718L21.0652 0.320513C21.5576 0.115385 22.1114 0.115385 22.6037 0.320513L41.6037 8.23718C42.349 8.54772 42.8345 9.27593 42.8345 10.0833V19.9167C42.8345 20.7241 42.349 21.4523 41.6037 21.7628L22.6037 29.6795C22.1114 29.8846 21.5576 29.8846 21.0652 29.6795L2.06524 21.7628C1.31995 21.4523 0.834473 20.7241 0.834473 19.9167V10.0833C0.834473 9.27593 1.31995 8.54772 2.06524 8.23718Z" fill="url(#paint0_linear_938_23159)"/>
<path d="M41.8394 14.2102C41.8507 12.8346 41.8653 11.459 41.8837 10.0833C41.8993 9.67051 41.6431 9.25457 41.2516 9.0822C34.9623 6.33759 28.7129 3.4974 22.5316 0.493579C22.1035 0.280338 21.5772 0.241754 21.1011 0.40667C21.0772 0.349215 21.0533 0.291759 21.0293 0.234304C21.5248 -0.00973084 22.1324 -0.048315 22.6758 0.147395C29.1612 2.42137 35.5784 4.85894 41.9558 7.39211C43.0268 7.80984 43.7875 8.91922 43.7853 10.0833C43.8037 11.459 43.8183 12.8346 43.8296 14.2102C43.8397 16.1123 43.8333 18.0145 43.8179 19.9167C43.8245 21.0935 43.0589 22.2209 41.9731 22.6493C40.037 23.4304 38.0981 24.2048 36.1603 24.9817C31.7332 26.7673 27.2756 28.4801 22.8005 30.1506C22.8003 30.1507 22.8002 30.1507 22.8001 30.1508C22.1832 30.3909 21.4793 30.3695 20.8888 30.1029C17.02 28.3456 13.1322 26.6329 9.18769 25.0577C6.76044 24.087 4.30958 23.1727 1.85687 22.2629C0.916439 21.9178 0.21947 20.9569 0.199789 19.9167C0.146439 18.5409 0.0964178 17.1651 0.0579235 15.7894C0.0146671 13.8874 -0.00194806 11.9853 0.00023514 10.0833C-0.0114912 8.96541 0.714081 7.88793 1.74889 7.47794C3.68264 6.69165 5.6236 5.92266 7.5678 5.1614C12.0142 3.42122 16.4941 1.76102 21.0293 0.234304C21.0533 0.291759 21.0772 0.349215 21.1011 0.40667C16.8236 2.55192 12.4902 4.56387 8.12379 6.49577C6.21427 7.34022 4.30153 8.17695 2.38157 8.99636C1.95392 9.17648 1.66261 9.62433 1.66866 10.0833C1.67084 11.9853 1.65422 13.8873 1.61097 15.7894C1.57247 17.1651 1.52253 18.5409 1.46928 19.9167C1.43189 20.4533 1.75182 21.0176 2.27374 21.2624C4.64691 22.3631 7.02197 23.4593 9.42032 24.4994C13.3164 26.1911 17.2697 27.7462 21.2416 29.2561C21.6226 29.3984 22.0528 29.3771 22.4074 29.2083C22.4075 29.2082 22.4076 29.2081 22.4077 29.2081C26.745 27.2067 31.1 25.2477 35.4852 23.3615C37.4013 22.5325 39.3164 21.7011 41.2343 20.8763C41.611 20.7146 41.8622 20.3167 41.851 19.9167C41.8356 18.0145 41.8293 16.1123 41.8394 14.2102Z" fill="#009494"/>
</g>
<text id="T" fill="white" xml:space="preserve" style="white-space: pre" font-family="Arial" font-size="12" font-weight="bold" letter-spacing="0em"><tspan x="11.8149" y="19.1602">cya</tspan></text>
</g>
</g>
<defs>
<linearGradient id="paint0_linear_938_23159" x1="21.8345" y1="0" x2="21.8345" y2="30" gradientUnits="userSpaceOnUse">
<stop stop-color="#FFFF73"/>
<stop offset="1" stop-color="#009494"/>
</linearGradient>
</defs>
</svg>
