<svg width="65" height="23" viewBox="0 0 65 23" fill="none" xmlns="http://www.w3.org/2000/svg">
<g id="R-ICO-012701">
<g id="FAM20C">
<path d="M1.0127 11.5C1.0127 5.97715 5.48985 1.5 11.0127 1.5H53.0127C58.5355 1.5 63.0127 5.97715 63.0127 11.5C63.0127 17.0228 58.5355 21.5 53.0127 21.5H11.0127C5.48985 21.5 1.0127 17.0228 1.0127 11.5Z" fill="url(#paint0_linear_938_23314)"/>
<path d="M47.721 2.99266C35.4849 2.87443 23.2488 2.52283 11.0127 1.64001C11.0127 1.54664 11.0127 1.45328 11.0127 1.35991C23.2488 0.477089 35.4849 0.125486 47.721 0.00726104C49.4849 -0.0036298 51.2488 -0.00163829 53.0127 0.00903296C58.0712 -0.0429289 62.7783 3.71084 63.938 8.54079C64.1877 9.50891 64.3034 10.5066 64.2866 11.5C64.3306 17.5302 58.7395 22.6617 53.0133 22.2659C53.0131 22.2659 53.0129 22.2658 53.0127 22.2658C46.8948 22.0221 40.7763 21.8466 34.6585 21.953C28.5405 22.056 22.4219 22.4645 16.3038 22.6648C14.5401 22.7118 12.7764 22.7378 11.0127 22.7474C6.05836 22.8544 1.40109 19.1447 0.311764 14.3992C0.077701 13.448 -0.0241156 12.4707 0.00420511 11.5C0.0259141 5.60141 5.61548 0.751439 11.0127 1.35991C11.0127 1.45328 11.0127 1.54664 11.0127 1.64001C5.75693 1.98933 1.74019 6.74525 2.02106 11.5C2.0491 12.2963 2.17799 13.0801 2.40496 13.8333C3.49521 17.5913 7.17906 20.2872 11.0127 20.2527C12.7764 20.2623 14.5401 20.2883 16.3038 20.3353C22.4219 20.5356 28.5405 20.9428 34.6585 21.0457C40.7764 21.1521 46.8947 20.978 53.0127 20.7342C53.0129 20.7342 53.013 20.7342 53.0132 20.7342C57.9399 20.5967 61.9538 16.1227 61.7389 11.5C61.7224 10.7268 61.6075 9.96371 61.3963 9.22776C60.377 5.55386 56.7425 2.90148 53.0127 2.99101C51.2488 3.00167 49.4849 3.00363 47.721 2.99266Z" fill="#35855B"/>
<text id="FAM20C_2" fill="white" xml:space="preserve" style="white-space: pre" font-family="Arial" font-size="12" font-weight="bold" letter-spacing="0em"><tspan x="8.3291" y="15.6602">FAM20C</tspan></text>
</g>
</g>
<defs>
<linearGradient id="paint0_linear_938_23314" x1="32.0127" y1="1.5" x2="32.0127" y2="21.5" gradientUnits="userSpaceOnUse">
<stop stop-color="#35855B"/>
<stop offset="1" stop-color="#E39226"/>
</linearGradient>
</defs>
</svg>
