<svg width="72" height="23" viewBox="0 0 72 23" fill="none" xmlns="http://www.w3.org/2000/svg">
<g id="R-ICO-014406">
<g id="UNC93B1">
<path d="M0.967285 11.5C0.967285 5.97715 5.44444 1.5 10.9673 1.5H59.9673C65.4901 1.5 69.9673 5.97715 69.9673 11.5C69.9673 17.0228 65.4901 21.5 59.9673 21.5H10.9673C5.44444 21.5 0.967285 17.0228 0.967285 11.5Z" fill="url(#paint0_linear_938_24024)"/>
<path d="M51.1756 2.99266C37.7728 2.87443 24.3701 2.52283 10.9673 1.64001C10.9673 1.54664 10.9673 1.45328 10.9673 1.35991C24.3701 0.477089 37.7728 0.125486 51.1756 0.00726104C54.1061 -0.00925815 57.0367 0.00386083 59.9673 0.0319518C64.3193 0.0186403 68.4725 2.76803 70.2099 6.68278C70.9025 8.1905 71.2445 9.85515 71.2137 11.5C71.2519 17.5127 65.6941 22.6382 59.9679 22.2659C59.9677 22.2659 59.9675 22.2658 59.9673 22.2658C53.2661 22.0221 46.5642 21.8466 39.8631 21.953C33.1618 22.056 26.4598 22.4645 19.7584 22.6648C16.828 22.736 13.8977 22.7591 10.9673 22.7496C6.6966 22.7889 2.60415 20.0695 0.935091 16.2188C0.271587 14.7349 -0.0447047 13.1043 0.00479442 11.5C0.0325747 5.62831 5.5722 0.793543 10.9673 1.35991C10.9673 1.45328 10.9673 1.54664 10.9673 1.64001C5.70941 1.94724 1.64274 6.71829 1.92963 11.5C1.97586 12.8281 2.30834 14.1283 2.89665 15.2947C4.39474 18.3253 7.65287 20.2998 10.9673 20.2505C13.8976 20.241 16.828 20.2641 19.7584 20.3353C26.4598 20.5356 33.1617 20.9428 39.8631 21.0457C46.5643 21.1521 53.266 20.978 59.9673 20.7342C59.9675 20.7342 59.9676 20.7342 59.9678 20.7342C64.8945 20.6201 68.9417 16.1401 68.7209 11.5C68.6934 10.2129 68.3869 8.94712 67.828 7.80473C66.3986 4.83773 63.2008 2.89268 59.9673 2.96808C57.0367 2.99619 54.1061 3.0093 51.1756 2.99266Z" fill="#D0AEB7"/>
<text id="UNC93B1_2" fill="white" xml:space="preserve" style="white-space: pre" font-family="Arial" font-size="12" font-weight="bold" letter-spacing="0em"><tspan x="8.104" y="15.6602">UNC93B1</tspan></text>
</g>
</g>
<defs>
<linearGradient id="paint0_linear_938_24024" x1="35.4673" y1="1.5" x2="35.4673" y2="21.5" gradientUnits="userSpaceOnUse">
<stop stop-color="#D0AEB7"/>
<stop offset="1" stop-color="#BC000A"/>
</linearGradient>
</defs>
</svg>
