<svg width="56" height="23" viewBox="0 0 56 23" fill="none" xmlns="http://www.w3.org/2000/svg">
<g id="R-ICO-014429">
<g id="NTHL1">
<path d="M1.07617 11.5005C1.07617 5.97764 5.55332 1.50049 11.0762 1.50049H44.0762C49.599 1.50049 54.0762 5.97764 54.0762 11.5005C54.0762 17.0233 49.599 21.5005 44.0762 21.5005H11.0762C5.55332 21.5005 1.07617 17.0233 1.07617 11.5005Z" fill="url(#paint0_linear_938_24035)"/>
<path d="M43.2845 2.99314C32.5484 2.87492 21.8123 2.52332 11.0762 1.64049C11.0762 1.54713 11.0762 1.45376 11.0762 1.3604C21.8123 0.477578 32.5484 0.125974 43.2845 0.00774932C43.5484 0.0058924 43.8123 0.00441003 44.0762 0.00328124C50.062 -0.154233 55.3962 5.19012 55.384 11.0532C55.3877 11.2017 55.3886 11.3508 55.3864 11.5005C55.4466 17.5549 49.8032 22.7002 44.0767 22.2663C44.0765 22.2663 44.0763 22.2663 44.0762 22.2663C38.7082 22.0226 33.3398 21.8471 27.972 21.9535C22.6039 22.0564 17.2354 22.465 11.8674 22.6653C11.6036 22.6733 11.3399 22.6807 11.0762 22.6875C5.24413 22.9686 -0.0819464 17.6938 0.00050056 11.9392C-0.00134993 11.7935 -0.0003016 11.6472 0.00368667 11.5005C0.0100366 5.56442 5.67455 0.684331 11.0762 1.3604C11.0762 1.45376 11.0762 1.54713 11.0762 1.64049C5.82479 2.05738 1.88296 6.78333 2.14856 11.5005C2.15256 11.6193 2.15878 11.7374 2.16719 11.8547C2.42417 16.4676 6.53873 20.2706 11.0762 20.3135C11.3399 20.3204 11.6036 20.3277 11.8674 20.3357C17.2354 20.5361 22.6039 20.9433 27.972 21.0462C33.3399 21.1526 38.7082 20.9784 44.0762 20.7347C44.0763 20.7347 44.0765 20.7347 44.0766 20.7347C49.0031 20.5592 52.9648 16.099 52.766 11.5005C52.7639 11.3849 52.7595 11.2699 52.7531 11.1557C52.5669 6.6512 48.4598 2.91715 44.0762 2.99765C43.8123 2.99651 43.5484 2.99501 43.2845 2.99314Z" fill="#009756"/>
<text id="NTHL1_2" fill="white" xml:space="preserve" style="white-space: pre" font-family="Arial" font-size="12" font-weight="bold" letter-spacing="0em"><tspan x="8.22852" y="15.6606">NTHL1</tspan></text>
</g>
</g>
<defs>
<linearGradient id="paint0_linear_938_24035" x1="27.5762" y1="1.50049" x2="27.5762" y2="21.5005" gradientUnits="userSpaceOnUse">
<stop stop-color="#009756"/>
<stop offset="1" stop-color="#3F237A"/>
</linearGradient>
</defs>
</svg>
