<svg width="115" height="23" viewBox="0 0 115 23" fill="none" xmlns="http://www.w3.org/2000/svg">
<g id="R-ICO-013227">
<g id="PREPROINSULIN">
<path d="M0.759766 11.5C0.759766 5.97715 5.23692 1.5 10.7598 1.5H103.76C109.283 1.5 113.76 5.97715 113.76 11.5C113.76 17.0228 109.283 21.5 103.76 21.5H10.7598C5.23692 21.5 0.759766 17.0228 0.759766 11.5Z" fill="#73A628"/>
<path d="M72.9679 2.99266C52.2318 2.87443 31.4959 2.52283 10.7598 1.64001C10.7598 1.54664 10.7598 1.45328 10.7598 1.35991C31.4959 0.477089 52.2318 0.125486 72.9679 0.00726104C83.2316 -0.0301344 93.4959 0.0843533 103.76 0.180586C103.878 0.181564 103.996 0.184367 104.114 0.188969C110.025 0.280336 115.11 5.70657 114.874 11.5C114.916 17.4332 109.488 22.5532 103.761 22.2659C103.76 22.2659 103.76 22.2658 103.76 22.2658C93.392 22.0221 83.0233 21.8466 72.6557 21.953C62.2877 22.056 51.9188 22.4645 41.5507 22.6648C31.2871 22.826 21.0235 22.7406 10.7598 22.5888C10.6439 22.5873 10.5285 22.584 10.4136 22.5789C4.62223 22.4519 -0.282643 17.101 0.0129328 11.5C0.0355286 5.7536 5.3684 0.949233 10.7598 1.35991C10.7598 1.45328 10.7598 1.54664 10.7598 1.64001C5.49814 1.79159 1.22484 6.59291 1.50646 11.5C1.55939 16.3286 5.84376 20.4541 10.4802 20.4116C10.573 20.4129 10.6662 20.4128 10.7598 20.4112C21.0234 20.2595 31.287 20.1741 41.5507 20.3353C51.9188 20.5356 62.2876 20.9428 72.6557 21.0457C83.0234 21.1521 93.3919 20.978 103.76 20.7342C103.76 20.7342 103.76 20.7342 103.761 20.7342C108.686 20.7049 112.862 16.2194 112.646 11.5C112.653 6.86467 108.55 2.81479 104.033 2.82061C103.942 2.81878 103.851 2.81835 103.76 2.81933C93.4961 2.91557 83.2316 3.03033 72.9679 2.99266Z" fill="#DEB510"/>
<text id="PREPROINSULIN_2" fill="white" xml:space="preserve" style="white-space: pre" font-family="Arial" font-size="12" font-weight="bold" letter-spacing="0em"><tspan x="7.89453" y="15.6602">PREPROINSULIN</tspan></text>
</g>
</g>
</svg>
