<svg width="90" height="37" viewBox="0 0 90 37" fill="none" xmlns="http://www.w3.org/2000/svg">
<g id="R-ICO-013408">
<g id="SUBSTRATE PROTEIN">
<path d="M1.11719 11.5C1.11719 5.97715 5.59434 1.5 11.1172 1.5H78.1172C83.64 1.5 88.1172 5.97715 88.1172 11.5V25.5C88.1172 31.0228 83.64 35.5 78.1172 35.5H11.1172C5.59434 35.5 1.11719 31.0228 1.11719 25.5V11.5Z" fill="url(#paint0_linear_938_23630)"/>
<path d="M67.3254 2.99266C48.5893 2.87443 29.8533 2.52283 11.1172 1.64001C11.1172 1.54664 11.1172 1.45328 11.1172 1.35991C29.8533 0.477089 48.5893 0.125486 67.3254 0.00726104C70.9226 -0.00724423 74.5199 0.00110257 78.1172 0.0223721C84.2404 -0.0907835 89.6579 5.46707 89.4504 11.5C89.4448 12.0348 89.4392 12.5697 89.4337 13.1045C89.3976 17.2363 89.3385 21.3682 89.2607 25.5C89.2993 31.4505 83.8451 36.5696 78.118 36.2659C78.1178 36.2659 78.1175 36.2658 78.1172 36.2658C68.7494 36.0221 59.3807 35.8466 50.0131 35.953C40.6451 36.056 31.2762 36.4645 21.9082 36.6648C18.3112 36.7273 14.7142 36.7528 11.1172 36.7516C5.11145 36.8968 -0.229913 31.417 0.00718796 25.5C0.0155469 24.9654 0.0241545 24.4309 0.0329763 23.8963C0.10166 19.7643 0.195659 15.6321 0.322402 11.5C0.349768 5.72587 5.72561 0.918951 11.1172 1.35991C11.1172 1.45328 11.1172 1.54664 11.1172 1.64001C5.85579 1.82187 1.62543 6.62064 1.91183 11.5C2.03856 15.6322 2.13257 19.7643 2.20132 23.8963C2.21014 24.4309 2.21874 24.9654 2.2271 25.5C2.20518 30.2363 6.46968 34.3623 11.1172 34.2485C14.7142 34.2473 18.3112 34.2727 21.9082 34.3353C31.2763 34.5356 40.645 34.9428 50.0131 35.0457C59.3809 35.1521 68.7493 34.978 78.1172 34.7342C78.1174 34.7342 78.1177 34.7342 78.1179 34.7342C83.0436 34.6885 87.194 30.2022 86.9737 25.5C86.8959 21.3682 86.8368 17.2363 86.8008 13.1045C86.7953 12.5697 86.7897 12.0348 86.784 11.5C86.8356 6.87981 82.6472 2.83174 78.1172 2.97767C74.5199 2.99895 70.9226 3.00727 67.3254 2.99266Z" fill="#823AC9"/>
<text id="SUBSTRATE PROTEIN_2" fill="white" xml:space="preserve" style="white-space: pre" font-family="Arial" font-size="12" font-weight="bold" letter-spacing="0em"><tspan x="8.37695" y="15.6602">SUBSTRATE&#10;</tspan><tspan x="17.9336" y="29.6602">PROTEIN</tspan></text>
</g>
</g>
<defs>
<linearGradient id="paint0_linear_938_23630" x1="44.6172" y1="1.5" x2="44.6172" y2="35.5" gradientUnits="userSpaceOnUse">
<stop stop-color="#823AC9"/>
<stop offset="1" stop-color="#BFBF00"/>
</linearGradient>
</defs>
</svg>
