<svg width="101" height="101" viewBox="0 0 101 101" fill="none" xmlns="http://www.w3.org/2000/svg">
<g id="R-ICO-014777">
<path id="BG" d="M100.171 6.72991L83.343 0.666427C79.1273 -0.849071 74.3047 1.34527 71.0225 4.17486C64.0359 10.1981 51.6155 14.3403 47.4247 19.8998C41.4716 27.7972 34.2161 36.7029 26.0744 43.5968C20.9848 47.9064 9.96301 57.4755 4.63542 64.2285C3.16933 66.0868 0.171387 70.7525 0.171387 77.2112C0.171387 85.6096 5.26225 92.9342 12.8088 96.8046" fill="#F7E6C4"/>
<path id="SECTION BG" d="M10.3645 84.6096C8.66156 86.993 10.8167 94.9699 12.8086 96.8045C16.6446 100.338 31.6892 101.702 40.9588 96.7963C52.2154 90.8392 61.1722 82.1484 79.3261 63.9112C79.3261 63.9112 91.5395 59.9279 100.171 54.4492V6.72998C100.171 6.72998 77.3102 13.5938 69.3294 22.9062C67.716 23.6207 66.621 24.8036 65.9668 26.3848C65.9668 26.3848 47.0904 42.7979 43.8919 48.7426C40.6934 54.6872 40.3911 55.4851 40.3911 55.4851C39.9244 55.7585 39.1736 56.4377 39.1414 57.2888C29.0892 64.5055 12.8686 80.2088 10.3645 84.6096Z" fill="#DBC499"/>
<path id="NAIL BED" d="M12.0278 82.878C11.4878 84.3518 16.379 86.132 17.5511 85.7261C18.7232 85.3202 54.9869 57.9266 56.3541 56.0756C60.3348 50.6864 58.4269 44.254 57.797 43.7191C57.1671 43.1842 14.936 74.9415 12.0278 82.878Z" fill="#FAD8A2"/>
<g id="TENDONS">
<g id="BOTTOM">
<path id="BG_2" d="M100.172 42.6484C99.7321 42.8134 89.255 46.764 86.4992 49.3432C71.1077 63.7466 65.1037 65.2987 60.2798 66.5456C59.9237 66.6379 59.575 66.7279 59.2309 66.8213C54.2098 68.1823 38.6316 73.3574 34.0432 75.5456L33.821 75.6514L34.7604 83.4139L35.1777 83.2412C36.7205 82.6027 42.38 79.9074 48.3719 77.0536C54.5663 74.1036 60.9715 71.053 63.3191 70.0413C68.2558 67.9149 81.5555 58.9808 86.774 52.3477C88.8669 49.6877 100.058 46.1185 100.172 46.0823V42.6484Z" fill="#DAD8D5"/>
<g id="STRIPES">
<path id="Vector" d="M35.0465 82.9246C38.1724 81.631 58.5601 71.7182 63.1835 69.7266C67.8069 67.735 81.2049 58.8718 86.5046 52.1357C88.6874 49.3613 100.171 45.7222 100.171 45.7222" stroke="#F0EFEE" stroke-width="0.171346" stroke-miterlimit="10"/>
<path id="Vector_2" d="M34.8326 81.1573C38.3193 79.6425 57.5128 70.9123 62.2178 69.0831C66.9228 67.2539 78.578 60.5646 86.5619 51.5003C88.9262 48.816 100.171 45.0454 100.171 45.0454" stroke="#F0EFEE" stroke-width="0.171346" stroke-miterlimit="10"/>
<path id="Vector_3" d="M34.6188 79.3897C38.4661 77.6534 56.4655 70.1059 61.2521 68.4392C66.0388 66.7724 75.8469 62.1767 86.6191 50.8645C89.122 48.236 100.172 44.3682 100.172 44.3682" stroke="#F0EFEE" stroke-width="0.171346" stroke-miterlimit="10"/>
<path id="Vector_4" d="M34.4048 77.6225C38.6129 75.665 55.418 69.3 60.2862 67.7957C65.1545 66.2913 73.0267 63.7 86.6761 50.2291C89.3005 47.6391 100.171 43.6914 100.171 43.6914" stroke="#F0EFEE" stroke-width="0.171346" stroke-miterlimit="10"/>
<path id="Vector_5" d="M34.191 75.8548C38.7599 73.6759 54.3708 68.4936 59.3206 67.1517C64.2705 65.8098 70.1281 65.1324 86.7335 49.5932C89.4715 47.031 100.172 43.0142 100.172 43.0142" stroke="#F0EFEE" stroke-width="0.171346" stroke-miterlimit="10"/>
</g>
</g>
<g id="TOP">
<path id="BG_3" d="M100.171 20.4536C98.2493 21.8747 94.7868 22.6547 91.0133 24.177C81.5758 27.9845 68.651 31.4858 64.3507 43.4155L63.743 45.1012L70.0947 37.9162L70.1345 37.8612C72.9459 33.0116 87.662 28.9416 100.171 25.2719V20.4536Z" fill="#DAD8D5"/>
<g id="STRIPES_2">
<path id="Vector_6" d="M64.673 43.5316C70.6316 27.0009 93.3524 25.9205 100.171 20.8794" stroke="#F0EFEE" stroke-width="0.171346" stroke-miterlimit="10"/>
<path id="Vector_7" d="M66.3949 41.584C71.1495 29.2143 90.284 27.1454 100.172 22.2178" stroke="#F0EFEE" stroke-width="0.171346" stroke-miterlimit="10"/>
<path id="Vector_8" d="M68.1165 39.6365C71.667 31.4278 87.2153 28.3704 100.172 23.5562" stroke="#F0EFEE" stroke-width="0.171346" stroke-miterlimit="10"/>
<path id="Vector_9" d="M69.8381 37.6889C72.1847 33.6412 84.1468 29.5953 100.172 24.8945" stroke="#F0EFEE" stroke-width="0.171346" stroke-miterlimit="10"/>
</g>
</g>
</g>
<g id="BONES">
<path id="Articulation" d="M70.2329 37.2133C71.1058 35.8178 72.2609 35.9709 72.8509 36.3196C73.4409 36.6683 73.7393 35.4303 75.8155 33.9427C77.6111 32.6561 79.5451 31.605 80.8108 31.1461C81.0702 31.052 81.3399 31.2528 81.327 31.5284C81.1729 34.8098 80.3211 51.6483 78.9865 53.4626C77.5069 55.4739 76.2462 55.6756 75.7145 56.8441C75.1827 58.0127 73.7387 57.9455 72.882 58.1582C72.0252 58.3708 71.2244 58.5363 70.5962 60.1953C69.968 61.8544 67.0493 63.9277 67.8772 61.4628C68.7051 58.9978 67.5354 57.0631 67.1406 55.7918C66.7458 54.5205 68.3315 40.2529 70.2329 37.2133Z" fill="#8E7B5D"/>
<path id="BONE" d="M100.171 26.8403V42.0763C90.0572 45.5665 80.3913 52.7699 77.4154 55.192C72.654 59.0675 68.609 57.578 68.374 51.8708C68.1392 46.1703 71.8031 38.4064 76.5644 34.5309C79.2339 32.3581 81.6783 31.8717 83.3522 32.8683C84.6639 33.6493 87.9094 34.6261 100.171 26.8403Z" fill="#E0DBC5" stroke="#A2A099" stroke-width="0.342692" stroke-miterlimit="10"/>
<path id="BONE_2" d="M71.1908 37.2559C73.8598 37.2793 69.6312 41.7065 68.3631 47.0217C67.0951 52.3369 67.8689 54.7662 69.2293 56.3579C70.5897 57.9496 58.153 66.4972 56.0084 68.7908C53.8638 71.0843 51.5847 72.765 47.162 74.248C42.7393 75.7309 36.0275 77.1885 35.3773 80.2409C34.727 83.2934 36.2811 81.976 33.2896 84.0174C30.298 86.0588 22.0755 89.9636 19.7179 88.5289C17.3605 87.0941 15.4671 86.8446 17.8955 82.8555C20.3239 78.8663 23.4945 77.8555 24.3971 77.7403C25.2997 77.625 26.1968 77.3685 28.2939 75.6542C30.391 73.9399 40.9076 64.3654 43.8911 62.1122C46.8745 59.8589 46.9341 61.4124 52.882 56.4116C58.8298 51.4108 60.1053 50.1057 62.487 46.7182C64.8687 43.3305 68.556 37.2329 71.1908 37.2559Z" fill="#E0DBC5" stroke="#A2A099" stroke-width="0.342692" stroke-miterlimit="10"/>
<g id="Soft tissue">
<g id="Group">
<path id="Vector_10" d="M75.056 56.7508C74.5153 57.2585 73.7875 57.5239 73.0405 57.5896C72.2943 57.6593 71.5035 57.5597 70.7938 57.2265C70.0859 56.896 69.4694 56.3566 69.0469 55.7067C68.6133 55.0614 68.3465 54.3321 68.1975 53.5989C67.9037 52.1202 68.0206 50.6594 68.2411 49.2405C68.4724 47.8196 68.8693 46.4415 69.3521 45.1011C70.3248 42.4207 71.7196 39.9123 73.4255 37.639C74.2878 36.5057 75.223 35.4368 76.2944 34.4713C76.8503 33.9869 77.4283 33.6051 78.0639 33.2527C78.6945 32.9069 79.3731 32.6299 80.0693 32.4834C80.1186 32.4719 80.1678 32.5024 80.1794 32.5517C80.1897 32.5958 80.1643 32.6408 80.1239 32.6578C78.83 33.1694 77.8264 34.1572 76.7989 35.0349C75.8125 35.9683 74.9203 37.0354 74.1165 38.1487C72.5131 40.3888 71.2455 42.8673 70.2966 45.4431C69.8367 46.7358 69.462 48.0606 69.249 49.4043C69.0404 50.7409 68.9608 52.1201 69.1984 53.3973C69.4386 54.6666 70.0809 55.8541 71.182 56.4523C71.7239 56.7515 72.3568 56.9082 73.006 56.9029C73.6583 56.8963 74.3013 56.7737 75.0263 56.6882C75.0462 56.6856 75.0645 56.6996 75.0671 56.7195C75.0687 56.7314 75.0639 56.7431 75.056 56.7508Z" fill="#F2F7C0"/>
</g>
</g>
<g id="Soft tissue_2">
<path id="Vector_11" d="M70.8781 37.2859C71.1045 37.1575 71.3806 37.1023 71.6876 37.2574C71.8337 37.3426 71.9628 37.4956 72.0172 37.6565C72.0737 37.8176 72.0787 37.9705 72.0708 38.108C72.0237 38.6534 71.8333 39.0753 71.6583 39.5046C71.2899 40.3484 70.8711 41.1403 70.4789 41.9439C69.6926 43.5442 68.9428 45.1573 68.502 46.8553C68.0697 48.5627 67.7374 50.3267 67.7617 52.0673C67.7831 52.9346 67.9017 53.7986 68.2024 54.5929C68.347 54.9924 68.551 55.3651 68.7845 55.7183C68.9043 55.9022 69.0252 56.0479 69.1802 56.2459C69.2693 56.3729 69.3282 56.5032 69.3529 56.6604C69.3802 56.813 69.3527 56.9956 69.2589 57.1324C69.1972 57.2222 69.0744 57.245 68.9845 57.1834C68.948 57.1583 68.9226 57.1232 68.9094 57.0843L68.8814 57.0023C68.8346 56.8649 68.7642 56.7514 68.6724 56.625C68.5469 56.4729 68.3812 56.2732 68.2535 56.082C67.9874 55.6918 67.7532 55.274 67.5857 54.8312C67.2387 53.9485 67.1005 53.0092 67.0657 52.0871C67.0192 50.2339 67.3346 48.4305 67.7637 46.6615C68.2372 44.8826 68.9908 43.2109 69.8205 41.6121C70.231 40.8111 70.6659 40.0227 71.0306 39.2279C71.2053 38.8362 71.3795 38.4185 71.4118 38.0653C71.4175 37.8813 71.4032 37.8009 71.3526 37.7078C71.2894 37.5958 71.0934 37.4943 70.8775 37.3551C70.8584 37.3438 70.8521 37.3193 70.8633 37.3003C70.8667 37.2947 70.8728 37.2892 70.8781 37.2859Z" fill="#F2F7C0"/>
</g>
<g id="TEXTURE">
<g id="DARK_1_">
<path id="Vector_12" d="M36.4017 70.3338C36.4021 70.4766 36.3019 70.6504 36.1775 70.7222C36.0533 70.794 35.9523 70.7363 35.9519 70.5934C35.9515 70.4508 36.0518 70.2769 36.1761 70.2052C36.3004 70.1334 36.4013 70.1911 36.4017 70.3338Z" fill="#8C835C"/>
<path id="Vector_13" d="M47.019 72.5525C47.0194 72.6954 46.9192 72.8692 46.7948 72.941C46.6705 73.0127 46.5696 72.955 46.5692 72.8122C46.5688 72.6695 46.6691 72.4957 46.7934 72.4239C46.9177 72.3522 47.0186 72.4098 47.019 72.5525Z" fill="#8C835C"/>
<path id="Vector_14" d="M44.3206 70.9124C44.3209 71.0552 44.2207 71.2291 44.0964 71.3008C43.972 71.3726 43.8711 71.3149 43.8707 71.1721C43.8703 71.0294 43.9706 70.8555 44.0949 70.7838C44.2192 70.712 44.3202 70.7697 44.3206 70.9124Z" fill="#8C835C"/>
<path id="Vector_15" d="M45.9568 67.7258C45.9572 67.8687 45.8569 68.0425 45.7326 68.1143C45.6083 68.186 45.5073 68.1284 45.507 67.9855C45.5066 67.8428 45.6068 67.669 45.7311 67.5973C45.8555 67.5255 45.9564 67.5832 45.9568 67.7258Z" fill="#8C835C"/>
<path id="Vector_16" d="M40.4403 65.8225C40.4407 65.9654 40.3404 66.1392 40.2161 66.211C40.0918 66.2827 39.9909 66.2251 39.9905 66.0822C39.9901 65.9395 40.0904 65.7657 40.2147 65.6939C40.339 65.6222 40.4399 65.6799 40.4403 65.8225Z" fill="#8C835C"/>
<path id="Vector_17" d="M46.1017 65.0881C46.1021 65.231 46.0018 65.4048 45.8775 65.4766C45.7532 65.5483 45.6522 65.4907 45.6519 65.3478C45.6515 65.2052 45.7517 65.0313 45.876 64.9596C46.0004 64.8878 46.1013 64.9455 46.1017 65.0881Z" fill="#8C835C"/>
<path id="Vector_18" d="M42.7994 67.4988C42.7998 67.6416 42.6996 67.8155 42.5752 67.8872C42.4509 67.959 42.35 67.9013 42.3496 67.7585C42.3492 67.6158 42.4495 67.442 42.5738 67.3702C42.6981 67.2984 42.799 67.3562 42.7994 67.4988Z" fill="#8C835C"/>
<path id="Vector_19" d="M38.1562 75.1775C38.1566 75.3203 38.0564 75.4942 37.9321 75.5659C37.8077 75.6377 37.7068 75.58 37.7064 75.4372C37.706 75.2945 37.8063 75.1207 37.9306 75.0489C38.0549 74.9772 38.1558 75.0349 38.1562 75.1775Z" fill="#8C835C"/>
<path id="Vector_20" d="M40.6654 72.263C40.6658 72.4058 40.5655 72.5797 40.4412 72.6514C40.3169 72.7232 40.216 72.6655 40.2156 72.5226C40.2152 72.38 40.3154 72.2061 40.4398 72.1344C40.5641 72.0626 40.665 72.1203 40.6654 72.263Z" fill="#8C835C"/>
<path id="Vector_21" d="M40.6654 73.6282C40.6658 73.771 40.5655 73.9449 40.4412 74.0166C40.3169 74.0884 40.216 74.0307 40.2156 73.8879C40.2152 73.7452 40.3154 73.5714 40.4398 73.4996C40.5641 73.4279 40.665 73.4855 40.6654 73.6282Z" fill="#8C835C"/>
<path id="Vector_22" d="M42.4386 73.1062C42.439 73.2491 42.3387 73.4229 42.2144 73.4947C42.0901 73.5664 41.9892 73.5087 41.9888 73.3659C41.9884 73.2232 42.0886 73.0494 42.213 72.9776C42.3373 72.9059 42.4382 72.9636 42.4386 73.1062Z" fill="#8C835C"/>
<path id="Vector_23" d="M20.2082 82.222C20.2086 82.3648 20.1084 82.5386 19.9841 82.6104C19.8597 82.6821 19.7588 82.6245 19.7584 82.4816C19.758 82.339 19.8583 82.1651 19.9826 82.0934C20.1069 82.0216 20.2079 82.0793 20.2082 82.222Z" fill="#8C835C"/>
<path id="Vector_24" d="M25.7827 85.8855C25.7831 86.0284 25.6828 86.2022 25.5585 86.274C25.4342 86.3457 25.3333 86.288 25.3329 86.1452C25.3325 86.0025 25.4328 85.8287 25.5571 85.7569C25.6814 85.6852 25.7823 85.7428 25.7827 85.8855Z" fill="#8C835C"/>
<path id="Vector_25" d="M22.879 83.6917C22.8794 83.8345 22.7792 84.0084 22.6548 84.0801C22.5305 84.1519 22.4296 84.0942 22.4292 83.9514C22.4288 83.8087 22.5291 83.6348 22.6534 83.5631C22.7777 83.4913 22.8786 83.549 22.879 83.6917Z" fill="#8C835C"/>
<path id="Vector_26" d="M26.6223 80.7942C26.6227 80.9371 26.5224 81.1109 26.3981 81.1827C26.2738 81.2544 26.1729 81.1967 26.1725 81.0539C26.1721 80.9112 26.2724 80.7374 26.3967 80.6656C26.521 80.5939 26.6219 80.6515 26.6223 80.7942Z" fill="#8C835C"/>
<path id="Vector_27" d="M23.465 80.5676C23.4654 80.7105 23.3651 80.8843 23.2408 80.9561C23.1164 81.0278 23.0155 80.9702 23.0151 80.8273C23.0147 80.6847 23.115 80.5108 23.2393 80.4391C23.3637 80.3673 23.4646 80.425 23.465 80.5676Z" fill="#8C835C"/>
<path id="Vector_28" d="M19.9833 85.3313C19.9837 85.4742 19.8834 85.648 19.7591 85.7198C19.6348 85.7915 19.5338 85.7339 19.5334 85.591C19.5331 85.4483 19.6333 85.2745 19.7576 85.2027C19.882 85.131 19.9829 85.1886 19.9833 85.3313Z" fill="#8C835C"/>
<path id="Vector_29" d="M21.3308 86.6966C21.3312 86.8394 21.2309 87.0132 21.1066 87.085C20.9823 87.1568 20.8814 87.0991 20.881 86.9562C20.8806 86.8136 20.9809 86.6397 21.1052 86.568C21.2295 86.4962 21.3304 86.5539 21.3308 86.6966Z" fill="#8C835C"/>
<path id="Vector_30" d="M23.1041 86.1746C23.1045 86.3174 23.0043 86.4913 22.8799 86.563C22.7556 86.6348 22.6547 86.5771 22.6543 86.4343C22.6539 86.2916 22.7542 86.1177 22.8785 86.046C23.0028 85.9742 23.1037 86.0319 23.1041 86.1746Z" fill="#8C835C"/>
<path id="Vector_31" d="M29.2842 77.4109C29.2846 77.5537 29.1843 77.7276 29.06 77.7993C28.9357 77.8711 28.8347 77.8134 28.8344 77.6706C28.834 77.528 28.9342 77.3541 29.0585 77.2823C29.1829 77.2106 29.2838 77.2683 29.2842 77.4109Z" fill="#8C835C"/>
<path id="Vector_32" d="M33.2673 80.9514C33.2677 81.0943 33.1675 81.2681 33.0431 81.3399C32.9188 81.4116 32.8179 81.354 32.8175 81.2111C32.8171 81.0685 32.9174 80.8946 33.0417 80.8228C33.166 80.7511 33.2669 80.8088 33.2673 80.9514Z" fill="#8C835C"/>
<path id="Vector_33" d="M34.0623 79.1697C34.0626 79.3125 33.9624 79.4864 33.8381 79.5581C33.7137 79.6299 33.6128 79.5722 33.6124 79.4294C33.612 79.2867 33.7123 79.1129 33.8366 79.0411C33.9609 78.9693 34.0619 79.0271 34.0623 79.1697Z" fill="#8C835C"/>
<path id="Vector_34" d="M33.2673 73.9178C33.2677 74.0606 33.1675 74.2344 33.0431 74.3062C32.9188 74.3779 32.8179 74.3203 32.8175 74.1774C32.8171 74.0348 32.9174 73.8609 33.0417 73.7892C33.166 73.7174 33.2669 73.7751 33.2673 73.9178Z" fill="#8C835C"/>
<path id="Vector_35" d="M32.5411 75.7561C32.5415 75.899 32.4413 76.0728 32.3169 76.1446C32.1926 76.2163 32.0917 76.1586 32.0913 76.0158C32.0909 75.8732 32.1912 75.6993 32.3155 75.6275C32.4398 75.5558 32.5407 75.6135 32.5411 75.7561Z" fill="#8C835C"/>
<path id="Vector_36" d="M30.4067 80.5203C30.4071 80.6631 30.3069 80.837 30.1825 80.9087C30.0582 80.9805 29.9573 80.9228 29.9569 80.78C29.9565 80.6374 30.0568 80.4635 30.1811 80.3917C30.3054 80.3199 30.4063 80.3776 30.4067 80.5203Z" fill="#8C835C"/>
<path id="Vector_37" d="M30.4067 81.8855C30.4071 82.0284 30.3069 82.2022 30.1825 82.274C30.0582 82.3457 29.9573 82.2881 29.9569 82.1452C29.9565 82.0026 30.0568 81.8287 30.1811 81.7569C30.3054 81.6852 30.4063 81.7428 30.4067 81.8855Z" fill="#8C835C"/>
<path id="Vector_38" d="M32.3162 83.0838C32.3165 83.2266 32.2163 83.4004 32.092 83.4722C31.9676 83.544 31.8667 83.4863 31.8663 83.3434C31.8659 83.2008 31.9662 83.0269 32.0905 82.9552C32.2148 82.8834 32.3158 82.9411 32.3162 83.0838Z" fill="#8C835C"/>
<path id="Vector_39" d="M50.1655 61.0584C50.1659 61.2012 50.0657 61.3751 49.9413 61.4468C49.817 61.5186 49.7161 61.4609 49.7157 61.318C49.7153 61.1754 49.8156 61.0015 49.9399 60.9298C50.0642 60.858 50.1651 60.9157 50.1655 61.0584Z" fill="#8C835C"/>
<path id="Vector_40" d="M53.9237 68.4798C53.9241 68.6226 53.8238 68.7964 53.6995 68.8682C53.5752 68.9399 53.4743 68.8823 53.4739 68.7394C53.4735 68.5968 53.5737 68.4229 53.6981 68.3512C53.8224 68.2794 53.9233 68.3371 53.9237 68.4798Z" fill="#8C835C"/>
<path id="Vector_41" d="M54.9434 62.8172C54.9437 62.96 54.8435 63.1338 54.7192 63.2056C54.5948 63.2774 54.4939 63.2197 54.4935 63.0768C54.4931 62.9342 54.5934 62.7603 54.7177 62.6886C54.842 62.6168 54.943 62.6745 54.9434 62.8172Z" fill="#8C835C"/>
<path id="Vector_42" d="M56.5796 59.6306C56.58 59.7735 56.4797 59.9473 56.3554 60.0191C56.2311 60.0908 56.1302 60.0332 56.1298 59.8903C56.1294 59.7476 56.2296 59.5738 56.354 59.502C56.4783 59.4303 56.5792 59.488 56.5796 59.6306Z" fill="#8C835C"/>
<path id="Vector_43" d="M53.4222 59.4041C53.4226 59.5469 53.3224 59.7208 53.198 59.7925C53.0737 59.8643 52.9728 59.8066 52.9724 59.6638C52.972 59.5211 53.0723 59.3472 53.1966 59.2755C53.3209 59.2037 53.4219 59.2614 53.4222 59.4041Z" fill="#8C835C"/>
<path id="Vector_44" d="M47.469 67.7258C47.4694 67.8687 47.3691 68.0425 47.2448 68.1143C47.1205 68.186 47.0196 68.1284 47.0192 67.9855C47.0188 67.8428 47.119 67.669 47.2434 67.5973C47.3677 67.5255 47.4686 67.5832 47.469 67.7258Z" fill="#8C835C"/>
<path id="Vector_45" d="M51.2878 65.533C51.2882 65.6758 51.188 65.8497 51.0636 65.9214C50.9394 65.9932 50.8384 65.9355 50.838 65.7927C50.8376 65.65 50.9379 65.4761 51.0622 65.4044C51.1865 65.3326 51.2875 65.3903 51.2878 65.533Z" fill="#8C835C"/>
<path id="Vector_46" d="M56.5796 65.011C56.58 65.1538 56.4797 65.3277 56.3554 65.3994C56.2311 65.4712 56.1302 65.4135 56.1298 65.2707C56.1294 65.128 56.2296 64.9542 56.354 64.8824C56.4783 64.8107 56.5792 64.8684 56.5796 65.011Z" fill="#8C835C"/>
<path id="Vector_47" d="M58.433 56.7595C58.4334 56.9024 58.3331 57.0762 58.2088 57.148C58.0845 57.2197 57.9835 57.1621 57.9832 57.0192C57.9828 56.8766 58.083 56.7027 58.2073 56.631C58.3317 56.5592 58.4326 56.6169 58.433 56.7595Z" fill="#8C835C"/>
<path id="Vector_48" d="M63.436 61.0584C63.4364 61.2012 63.3362 61.3751 63.2118 61.4468C63.0875 61.5186 62.9866 61.4609 62.9862 61.318C62.9858 61.1754 63.0861 61.0015 63.2104 60.9298C63.3347 60.858 63.4356 60.9157 63.436 61.0584Z" fill="#8C835C"/>
<path id="Vector_49" d="M66.0148 58.5183C66.0152 58.6612 65.9149 58.835 65.7906 58.9068C65.6663 58.9785 65.5653 58.9209 65.5649 58.778C65.5646 58.6353 65.6648 58.4615 65.7891 58.3897C65.9135 58.318 66.0144 58.3757 66.0148 58.5183Z" fill="#8C835C"/>
<path id="Vector_50" d="M64.8473 55.3318C64.8477 55.4747 64.7474 55.6485 64.6231 55.7203C64.4988 55.792 64.3979 55.7343 64.3975 55.5915C64.3971 55.4488 64.4973 55.275 64.6217 55.2032C64.746 55.1315 64.8468 55.1891 64.8473 55.3318Z" fill="#8C835C"/>
<path id="Vector_51" d="M62.6498 52.8792C62.6502 53.022 62.5499 53.1959 62.4256 53.2676C62.3013 53.3394 62.2003 53.2817 62.2 53.1389C62.1996 52.9962 62.2998 52.8223 62.4241 52.7506C62.5485 52.6788 62.6494 52.7365 62.6498 52.8792Z" fill="#8C835C"/>
<path id="Vector_52" d="M59.5555 59.8689C59.5559 60.0118 59.4557 60.1856 59.3314 60.2574C59.207 60.3291 59.1061 60.2714 59.1057 60.1286C59.1053 59.9859 59.2056 59.8121 59.3299 59.7403C59.4542 59.6686 59.5551 59.7263 59.5555 59.8689Z" fill="#8C835C"/>
<path id="Vector_53" d="M57.4136 63.3963C57.414 63.5391 57.3137 63.713 57.1894 63.7847C57.0651 63.8565 56.9641 63.7988 56.9637 63.6559C56.9634 63.5133 57.0636 63.3394 57.1879 63.2677C57.3123 63.1959 57.4132 63.2536 57.4136 63.3963Z" fill="#8C835C"/>
<path id="Vector_54" d="M61.329 60.7122C61.3294 60.855 61.2291 61.0289 61.1048 61.1006C60.9805 61.1724 60.8795 61.1147 60.8792 60.9719C60.8788 60.8292 60.979 60.6553 61.1033 60.5836C61.2277 60.5118 61.3285 60.5695 61.329 60.7122Z" fill="#8C835C"/>
<path id="Vector_55" d="M67.8335 44.1819C67.8339 44.3248 67.7336 44.4986 67.6093 44.5703C67.485 44.6421 67.3841 44.5844 67.3837 44.4416C67.3833 44.2989 67.4835 44.1251 67.6079 44.0533C67.7322 43.9816 67.8331 44.0392 67.8335 44.1819Z" fill="#8C835C"/>
<path id="Vector_56" d="M81.0975 41.6604C81.0979 41.8033 80.9977 41.9771 80.8733 42.0489C80.749 42.1206 80.6481 42.0629 80.6477 41.9201C80.6473 41.7774 80.7476 41.6036 80.8719 41.5318C80.9962 41.4601 81.0971 41.5177 81.0975 41.6604Z" fill="#8C835C"/>
<path id="Vector_57" d="M81.8925 39.8787C81.8928 40.0215 81.7926 40.1954 81.6683 40.2671C81.544 40.3389 81.443 40.2812 81.4426 40.1384C81.4422 39.9957 81.5425 39.8218 81.6668 39.7501C81.7911 39.6783 81.8921 39.736 81.8925 39.8787Z" fill="#8C835C"/>
<path id="Vector_58" d="M83.5284 36.6922C83.5288 36.835 83.4286 37.0089 83.3043 37.0806C83.18 37.1524 83.079 37.0947 83.0786 36.9518C83.0782 36.8092 83.1785 36.6353 83.3028 36.5636C83.4271 36.4918 83.5281 36.5495 83.5284 36.6922Z" fill="#8C835C"/>
<path id="Vector_59" d="M80.3711 36.4651C80.3715 36.608 80.2712 36.7818 80.1469 36.8536C80.0226 36.9253 79.9217 36.8676 79.9213 36.7248C79.9209 36.5821 80.0211 36.4083 80.1455 36.3365C80.2698 36.2648 80.3707 36.3224 80.3711 36.4651Z" fill="#8C835C"/>
<path id="Vector_60" d="M74.8102 40.2009C74.8106 40.3438 74.7103 40.5176 74.586 40.5894C74.4617 40.6611 74.3607 40.6035 74.3604 40.4606C74.36 40.3179 74.4602 40.1441 74.5845 40.0724C74.7088 40.0006 74.8097 40.0583 74.8102 40.2009Z" fill="#8C835C"/>
<path id="Vector_61" d="M64.8473 48.6565C64.8477 48.7994 64.7474 48.9732 64.6231 49.045C64.4988 49.1167 64.3979 49.059 64.3975 48.9162C64.3971 48.7735 64.4973 48.5997 64.6217 48.5279C64.746 48.4562 64.8468 48.5139 64.8473 48.6565Z" fill="#8C835C"/>
<path id="Vector_62" d="M76.5834 41.0447C76.5838 41.1875 76.4835 41.3614 76.3592 41.4331C76.2349 41.5049 76.1339 41.4472 76.1335 41.3044C76.1332 41.1617 76.2334 40.9879 76.3577 40.9161C76.4821 40.8444 76.583 40.902 76.5834 41.0447Z" fill="#8C835C"/>
<path id="Vector_63" d="M71.8229 46.7263C71.8233 46.8692 71.723 47.043 71.5987 47.1148C71.4744 47.1865 71.3734 47.1289 71.373 46.986C71.3727 46.8433 71.4729 46.6695 71.5972 46.5978C71.7215 46.526 71.8224 46.5837 71.8229 46.7263Z" fill="#8C835C"/>
<path id="Vector_64" d="M75.806 53.6936C75.8064 53.8365 75.7062 54.0103 75.5818 54.0821C75.4576 54.1538 75.3566 54.0962 75.3562 53.9533C75.3558 53.8106 75.4561 53.6368 75.5804 53.565C75.7047 53.4933 75.8056 53.551 75.806 53.6936Z" fill="#8C835C"/>
<path id="Vector_65" d="M76.6007 51.9119C76.6011 52.0547 76.5008 52.2286 76.3765 52.3003C76.2522 52.3721 76.1513 52.3144 76.1509 52.1716C76.1505 52.0289 76.2507 51.8551 76.3751 51.7833C76.4993 51.7115 76.6003 51.7692 76.6007 51.9119Z" fill="#8C835C"/>
<path id="Vector_66" d="M78.2369 45.2986C78.2373 45.4415 78.1371 45.6153 78.0127 45.6871C77.8885 45.7588 77.7875 45.7011 77.7871 45.5583C77.7867 45.4156 77.887 45.2418 78.0113 45.17C78.1356 45.0983 78.2365 45.1559 78.2369 45.2986Z" fill="#8C835C"/>
<path id="Vector_67" d="M66.2397 45.3611C66.2401 45.504 66.1399 45.6778 66.0156 45.7496C65.8913 45.8213 65.7903 45.7636 65.7899 45.6208C65.7895 45.4781 65.8898 45.3043 66.0141 45.2325C66.1384 45.1608 66.2394 45.2184 66.2397 45.3611Z" fill="#8C835C"/>
<path id="Vector_68" d="M72.9452 49.8357C72.9456 49.9786 72.8453 50.1524 72.721 50.2242C72.5967 50.2959 72.4958 50.2382 72.4954 50.0954C72.495 49.9527 72.5952 49.7789 72.7196 49.7071C72.8438 49.6354 72.9447 49.6931 72.9452 49.8357Z" fill="#8C835C"/>
<path id="Vector_69" d="M72.9452 51.2009C72.9456 51.3438 72.8453 51.5176 72.721 51.5894C72.5967 51.6611 72.4958 51.6035 72.4954 51.4606C72.495 51.3179 72.5952 51.1441 72.7196 51.0724C72.8438 51.0006 72.9447 51.0583 72.9452 51.2009Z" fill="#8C835C"/>
<path id="Vector_70" d="M74.7186 50.679C74.719 50.8218 74.6188 50.9957 74.4944 51.0674C74.3701 51.1392 74.2692 51.0815 74.2688 50.9387C74.2684 50.796 74.3687 50.6221 74.493 50.5504C74.6173 50.4786 74.7182 50.5363 74.7186 50.679Z" fill="#8C835C"/>
<path id="Vector_71" d="M79.4397 44.1819C79.4401 44.3248 79.3398 44.4986 79.2155 44.5703C79.0912 44.6421 78.9903 44.5844 78.9899 44.4416C78.9895 44.2989 79.0897 44.1251 79.2141 44.0533C79.3383 43.9816 79.4393 44.0392 79.4397 44.1819Z" fill="#8C835C"/>
<path id="Vector_72" d="M83.4229 47.7224C83.4232 47.8653 83.323 48.0391 83.1987 48.1109C83.0744 48.1826 82.9734 48.125 82.973 47.9821C82.9726 47.8394 83.0729 47.6656 83.1972 47.5938C83.3215 47.5221 83.4225 47.5798 83.4229 47.7224Z" fill="#8C835C"/>
<path id="Vector_73" d="M84.2178 45.9407C84.2182 46.0835 84.1179 46.2574 83.9936 46.3291C83.8693 46.4009 83.7683 46.3432 83.7679 46.2004C83.7676 46.0577 83.8678 45.8839 83.9921 45.8121C84.1165 45.7404 84.2174 45.798 84.2178 45.9407Z" fill="#8C835C"/>
<path id="Vector_74" d="M87.5674 46.1814C87.5678 46.3243 87.4675 46.4981 87.3432 46.5699C87.2189 46.6416 87.1179 46.5839 87.1176 46.4411C87.1172 46.2984 87.2174 46.1246 87.3418 46.0528C87.466 45.9811 87.567 46.0387 87.5674 46.1814Z" fill="#8C835C"/>
<path id="Vector_75" d="M82.6967 42.5276C82.697 42.6705 82.5968 42.8443 82.4725 42.9161C82.3481 42.9878 82.2472 42.9301 82.2468 42.7873C82.2464 42.6446 82.3467 42.4708 82.471 42.399C82.5953 42.3273 82.6962 42.3849 82.6967 42.5276Z" fill="#8C835C"/>
<path id="Vector_76" d="M79.1916 48.6624C79.192 48.8052 79.0918 48.9791 78.9675 49.0508C78.8432 49.1226 78.7422 49.0649 78.7418 48.9221C78.7414 48.7794 78.8417 48.6056 78.966 48.5338C79.0903 48.462 79.1912 48.5197 79.1916 48.6624Z" fill="#8C835C"/>
<path id="Vector_77" d="M79.1916 50.0276C79.192 50.1704 79.0918 50.3443 78.9675 50.416C78.8432 50.4878 78.7422 50.4301 78.7418 50.2873C78.7414 50.1446 78.8417 49.9707 78.966 49.899C79.0903 49.8273 79.1912 49.885 79.1916 50.0276Z" fill="#8C835C"/>
<path id="Vector_78" d="M80.9648 49.5056C80.9652 49.6485 80.865 49.8223 80.7406 49.8941C80.6163 49.9658 80.5154 49.9082 80.515 49.7653C80.5146 49.6226 80.6149 49.4488 80.7392 49.377C80.8635 49.3053 80.9644 49.363 80.9648 49.5056Z" fill="#8C835C"/>
<path id="Vector_79" d="M86.3037 36.9993C86.3041 37.1421 86.2038 37.316 86.0795 37.3877C85.9552 37.4595 85.8543 37.4018 85.8539 37.259C85.8535 37.1163 85.9537 36.9425 86.0781 36.8707C86.2023 36.7989 86.3033 36.8566 86.3037 36.9993Z" fill="#8C835C"/>
<path id="Vector_80" d="M90.2869 40.5398C90.2872 40.6827 90.187 40.8565 90.0627 40.9283C89.9383 41 89.8374 40.9423 89.837 40.7995C89.8366 40.6568 89.9369 40.483 90.0612 40.4112C90.1855 40.3395 90.2864 40.3971 90.2869 40.5398Z" fill="#8C835C"/>
<path id="Vector_81" d="M98.6833 40.9993C98.6837 41.1421 98.5835 41.316 98.4592 41.3877C98.3349 41.4595 98.2339 41.4018 98.2335 41.259C98.2331 41.1163 98.3334 40.9425 98.4577 40.8707C98.582 40.7989 98.683 40.8566 98.6833 40.9993Z" fill="#8C835C"/>
<path id="Vector_82" d="M92.7178 35.5716C92.7182 35.7144 92.6179 35.8882 92.4936 35.96C92.3693 36.0318 92.2683 35.9741 92.2679 35.8312C92.2676 35.6886 92.3678 35.5147 92.4921 35.443C92.6164 35.3712 92.7174 35.4289 92.7178 35.5716Z" fill="#8C835C"/>
<path id="Vector_83" d="M98.4587 31.282C98.4591 31.4249 98.3589 31.5987 98.2345 31.6704C98.1103 31.7422 98.0093 31.6845 98.0089 31.5417C98.0085 31.399 98.1088 31.2252 98.2331 31.1534C98.3574 31.0817 98.4583 31.1393 98.4587 31.282Z" fill="#8C835C"/>
<path id="Vector_84" d="M87.4263 40.1087C87.4267 40.2515 87.3264 40.4253 87.2021 40.4971C87.0778 40.5689 86.9768 40.5112 86.9764 40.3683C86.9761 40.2257 87.0763 40.0518 87.2006 39.9801C87.3249 39.9083 87.4259 39.966 87.4263 40.1087Z" fill="#8C835C"/>
<path id="Vector_85" d="M89.1396 44.9006C89.14 45.0435 89.0398 45.2173 88.9154 45.2891C88.7912 45.3608 88.6902 45.3032 88.6898 45.1603C88.6894 45.0176 88.7897 44.8438 88.914 44.772C89.0383 44.7003 89.1393 44.758 89.1396 44.9006Z" fill="#8C835C"/>
<path id="Vector_86" d="M90.9128 44.3787C90.9132 44.5215 90.813 44.6954 90.6886 44.7671C90.5644 44.8389 90.4634 44.7812 90.463 44.6384C90.4626 44.4957 90.5629 44.3219 90.6872 44.2501C90.8115 44.1783 90.9125 44.236 90.9128 44.3787Z" fill="#8C835C"/>
<path id="Vector_87" d="M92.2694 38.1795C92.2698 38.3223 92.1695 38.4962 92.0452 38.5679C91.9209 38.6397 91.82 38.582 91.8196 38.4392C91.8192 38.2965 91.9194 38.1226 92.0438 38.0509C92.168 37.9791 92.269 38.0368 92.2694 38.1795Z" fill="#8C835C"/>
<path id="Vector_88" d="M96.2526 40.3489C96.253 40.4917 96.1527 40.6656 96.0284 40.7373C95.9041 40.8091 95.8031 40.7514 95.8027 40.6086C95.8023 40.4659 95.9026 40.2921 96.0269 40.2203C96.1512 40.1485 96.2521 40.2063 96.2526 40.3489Z" fill="#8C835C"/>
<path id="Vector_89" d="M97.0475 38.5672C97.0479 38.71 96.9476 38.8838 96.8233 38.9556C96.699 39.0274 96.598 38.9697 96.5977 38.8268C96.5973 38.6842 96.6975 38.5103 96.8219 38.4386C96.9461 38.3668 97.0471 38.4245 97.0475 38.5672Z" fill="#8C835C"/>
<path id="Vector_90" d="M98.6833 36.7517C98.6837 36.8946 98.5835 37.0684 98.4592 37.1402C98.3349 37.2119 98.2339 37.1543 98.2335 37.0114C98.2331 36.8687 98.3334 36.6949 98.4577 36.6231C98.582 36.5514 98.683 36.6091 98.6833 36.7517Z" fill="#8C835C"/>
<path id="Vector_91" d="M95.5264 36.5247C95.5268 36.6675 95.4265 36.8414 95.3022 36.9131C95.1779 36.9849 95.0769 36.9272 95.0765 36.7844C95.0762 36.6417 95.1764 36.4678 95.3007 36.3961C95.4251 36.3243 95.526 36.382 95.5264 36.5247Z" fill="#8C835C"/>
<path id="Vector_92" d="M90.0619 35.2825C90.0623 35.4253 89.962 35.5992 89.8377 35.6709C89.7134 35.7427 89.6124 35.685 89.6121 35.5422C89.6117 35.3995 89.7119 35.2256 89.8363 35.1539C89.9605 35.0821 90.0615 35.1399 90.0619 35.2825Z" fill="#8C835C"/>
<path id="Vector_93" d="M93.392 42.6541C93.3923 42.7969 93.2921 42.9708 93.1678 43.0425C93.0434 43.1143 92.9425 43.0566 92.9421 42.9138C92.9418 42.7711 93.042 42.5972 93.1663 42.5255C93.2906 42.4537 93.3915 42.5114 93.392 42.6541Z" fill="#8C835C"/>
<path id="Vector_94" d="M95.1652 40.761C95.1655 40.9039 95.0653 41.0777 94.941 41.1495C94.8166 41.2212 94.7157 41.1635 94.7153 41.0207C94.7149 40.878 94.8152 40.7042 94.9395 40.6324C95.0638 40.5607 95.1647 40.6183 95.1652 40.761Z" fill="#8C835C"/>
</g>
<g id="MEDIUM_1_">
<path id="Vector_95" d="M38.3812 69.1257C38.3816 69.2686 38.2814 69.4424 38.157 69.5142C38.0327 69.5859 37.9318 69.5283 37.9314 69.3854C37.931 69.2428 38.0313 69.0689 38.1556 68.9972C38.2799 68.9254 38.3808 68.9831 38.3812 69.1257Z" fill="#D9CD9A"/>
<path id="Vector_96" d="M47.019 69.1257C47.0194 69.2686 46.9192 69.4424 46.7948 69.5142C46.6705 69.5859 46.5696 69.5283 46.5692 69.3854C46.5688 69.2428 46.6691 69.0689 46.7934 68.9972C46.9177 68.9254 47.0186 68.9831 47.019 69.1257Z" fill="#D9CD9A"/>
<path id="Vector_97" d="M44.3206 67.4856C44.3209 67.6285 44.2207 67.8023 44.0964 67.8741C43.972 67.9458 43.8711 67.8881 43.8707 67.7453C43.8703 67.6026 43.9706 67.4288 44.0949 67.357C44.2192 67.2853 44.3202 67.343 44.3206 67.4856Z" fill="#D9CD9A"/>
<path id="Vector_98" d="M45.9568 64.2991C45.9572 64.4419 45.8569 64.6158 45.7326 64.6875C45.6083 64.7593 45.5073 64.7016 45.507 64.5588C45.5066 64.4161 45.6068 64.2422 45.7311 64.1705C45.8555 64.0987 45.9564 64.1565 45.9568 64.2991Z" fill="#D9CD9A"/>
<path id="Vector_99" d="M45.7318 72.8172C45.7322 72.96 45.6319 73.1339 45.5076 73.2056C45.3833 73.2774 45.2824 73.2197 45.282 73.0769C45.2816 72.9342 45.3819 72.7603 45.5062 72.6886C45.6305 72.6168 45.7314 72.6745 45.7318 72.8172Z" fill="#D9CD9A"/>
<path id="Vector_100" d="M46.1017 61.6614C46.1021 61.8042 46.0018 61.9781 45.8775 62.0498C45.7532 62.1216 45.6522 62.0639 45.6519 61.9211C45.6515 61.7784 45.7517 61.6046 45.876 61.5328C46.0004 61.461 46.1013 61.5188 46.1017 61.6614Z" fill="#D9CD9A"/>
<path id="Vector_101" d="M42.7994 64.0725C42.7998 64.2154 42.6996 64.3892 42.5752 64.461C42.4509 64.5327 42.35 64.4751 42.3496 64.3322C42.3492 64.1895 42.4495 64.0157 42.5738 63.9439C42.6981 63.8722 42.799 63.9299 42.7994 64.0725Z" fill="#D9CD9A"/>
<path id="Vector_102" d="M38.1562 71.7507C38.1566 71.8936 38.0564 72.0674 37.9321 72.1392C37.8078 72.2109 37.7068 72.1533 37.7064 72.0104C37.706 71.8678 37.8063 71.6939 37.9306 71.6222C38.0549 71.5504 38.1558 71.6081 38.1562 71.7507Z" fill="#D9CD9A"/>
<path id="Vector_103" d="M39.3131 67.7884C39.3135 67.9312 39.2132 68.105 39.0889 68.1768C38.9646 68.2485 38.8637 68.1909 38.8633 68.048C38.8629 67.9054 38.9631 67.7315 39.0875 67.6598C39.2118 67.588 39.3127 67.6457 39.3131 67.7884Z" fill="#D9CD9A"/>
<path id="Vector_104" d="M40.6654 70.2014C40.6658 70.3443 40.5655 70.5181 40.4412 70.5899C40.3169 70.6616 40.216 70.604 40.2156 70.4611C40.2152 70.3184 40.3154 70.1446 40.4398 70.0728C40.5641 70.0011 40.665 70.0588 40.6654 70.2014Z" fill="#D9CD9A"/>
<path id="Vector_105" d="M42.4386 69.6795C42.439 69.8223 42.3387 69.9961 42.2144 70.0679C42.0901 70.1397 41.9892 70.082 41.9888 69.9391C41.9884 69.7965 42.0886 69.6226 42.213 69.5509C42.3373 69.4791 42.4382 69.5368 42.4386 69.6795Z" fill="#D9CD9A"/>
<path id="Vector_106" d="M26.8473 84.4798C26.8477 84.6226 26.7474 84.7964 26.6231 84.8682C26.4988 84.9399 26.3979 84.8823 26.3975 84.7394C26.3971 84.5968 26.4973 84.4229 26.6217 84.3512C26.746 84.2794 26.8469 84.3371 26.8473 84.4798Z" fill="#D9CD9A"/>
<path id="Vector_107" d="M25.7827 82.4588C25.7831 82.6016 25.6828 82.7754 25.5585 82.8472C25.4342 82.919 25.3333 82.8613 25.3329 82.7184C25.3325 82.5758 25.4328 82.4019 25.5571 82.3302C25.6814 82.2584 25.7823 82.3161 25.7827 82.4588Z" fill="#D9CD9A"/>
<path id="Vector_108" d="M22.879 80.2649C22.8794 80.4078 22.7792 80.5816 22.6548 80.6534C22.5305 80.7251 22.4296 80.6674 22.4292 80.5246C22.4288 80.3819 22.5291 80.2081 22.6534 80.1363C22.7777 80.0646 22.8786 80.1223 22.879 80.2649Z" fill="#D9CD9A"/>
<path id="Vector_109" d="M26.6223 77.3679C26.6227 77.5108 26.5224 77.6846 26.3981 77.7564C26.2738 77.8281 26.1729 77.7705 26.1725 77.6276C26.1721 77.485 26.2724 77.3111 26.3967 77.2394C26.521 77.1676 26.6219 77.2253 26.6223 77.3679Z" fill="#D9CD9A"/>
<path id="Vector_110" d="M25.558 79.657C25.5584 79.7998 25.4581 79.9737 25.3338 80.0454C25.2095 80.1172 25.1085 80.0595 25.1082 79.9167C25.1078 79.774 25.208 79.6002 25.3323 79.5284C25.4567 79.4567 25.5576 79.5144 25.558 79.657Z" fill="#D9CD9A"/>
<path id="Vector_111" d="M19.9833 81.9046C19.9837 82.0474 19.8834 82.2213 19.7591 82.293C19.6348 82.3648 19.5338 82.3071 19.5334 82.1642C19.5331 82.0216 19.6333 81.8477 19.7576 81.776C19.882 81.7042 19.9829 81.7619 19.9833 81.9046Z" fill="#D9CD9A"/>
<path id="Vector_112" d="M21.3308 83.2703C21.3312 83.4131 21.2309 83.587 21.1066 83.6587C20.9823 83.7305 20.8814 83.6728 20.881 83.53C20.8806 83.3873 20.9809 83.2135 21.1052 83.1417C21.2295 83.0699 21.3304 83.1276 21.3308 83.2703Z" fill="#D9CD9A"/>
<path id="Vector_113" d="M23.1041 82.7478C23.1045 82.8907 23.0043 83.0645 22.8799 83.1363C22.7556 83.208 22.6547 83.1503 22.6543 83.0075C22.6539 82.8648 22.7542 82.691 22.8785 82.6192C23.0028 82.5475 23.1037 82.6052 23.1041 82.7478Z" fill="#D9CD9A"/>
<path id="Vector_114" d="M29.0594 81.9329C29.0598 82.0757 28.9596 82.2496 28.8353 82.3213C28.7109 82.3931 28.61 82.3354 28.6096 82.1926C28.6092 82.0499 28.7095 81.876 28.8338 81.8043C28.9581 81.7325 29.0591 81.7902 29.0594 81.9329Z" fill="#D9CD9A"/>
<path id="Vector_115" d="M33.2673 77.5247C33.2677 77.6675 33.1675 77.8414 33.0431 77.9131C32.9188 77.9849 32.8179 77.9272 32.8175 77.7844C32.8171 77.6417 32.9174 77.4678 33.0417 77.3961C33.166 77.3243 33.2669 77.3821 33.2673 77.5247Z" fill="#D9CD9A"/>
<path id="Vector_116" d="M34.0623 75.7429C34.0626 75.8858 33.9624 76.0596 33.8381 76.1314C33.7137 76.2031 33.6128 76.1455 33.6124 76.0026C33.612 75.86 33.7123 75.6861 33.8366 75.6143C33.9609 75.5426 34.0619 75.6003 34.0623 75.7429Z" fill="#D9CD9A"/>
<path id="Vector_117" d="M35.496 74.4964C35.4964 74.6392 35.3961 74.8131 35.2718 74.8848C35.1475 74.9566 35.0465 74.8989 35.0461 74.756C35.0458 74.6134 35.146 74.4395 35.2703 74.3678C35.3947 74.296 35.4956 74.3537 35.496 74.4964Z" fill="#D9CD9A"/>
<path id="Vector_118" d="M33.4209 72.4685C33.4213 72.6114 33.321 72.7852 33.1967 72.857C33.0724 72.9287 32.9715 72.8711 32.9711 72.7282C32.9707 72.5855 33.0709 72.4117 33.1953 72.3399C33.3196 72.2682 33.4205 72.3259 33.4209 72.4685Z" fill="#D9CD9A"/>
<path id="Vector_119" d="M30.4067 77.0935C30.4071 77.2364 30.3069 77.4102 30.1825 77.482C30.0582 77.5537 29.9573 77.4961 29.9569 77.3532C29.9565 77.2105 30.0568 77.0367 30.1811 76.9649C30.3054 76.8932 30.4063 76.9509 30.4067 77.0935Z" fill="#D9CD9A"/>
<path id="Vector_120" d="M30.4067 78.4588C30.4071 78.6016 30.3069 78.7755 30.1825 78.8472C30.0582 78.919 29.9573 78.8613 29.9569 78.7184C29.9565 78.5758 30.0568 78.4019 30.1811 78.3302C30.3054 78.2584 30.4063 78.3161 30.4067 78.4588Z" fill="#D9CD9A"/>
<path id="Vector_121" d="M32.3162 79.657C32.3165 79.7998 32.2163 79.9737 32.092 80.0454C31.9676 80.1172 31.8667 80.0595 31.8663 79.9167C31.8659 79.774 31.9662 79.6002 32.0905 79.5284C32.2148 79.4567 32.3158 79.5144 32.3162 79.657Z" fill="#D9CD9A"/>
<path id="Vector_122" d="M49.4629 68.5467C49.4633 68.6895 49.363 68.8633 49.2387 68.9351C49.1144 69.0068 49.0135 68.9492 49.0131 68.8063C49.0127 68.6637 49.1129 68.4898 49.2373 68.4181C49.3616 68.3463 49.4624 68.404 49.4629 68.5467Z" fill="#D9CD9A"/>
<path id="Vector_123" d="M53.9237 65.053C53.9241 65.1958 53.8238 65.3697 53.6995 65.4414C53.5752 65.5132 53.4743 65.4555 53.4739 65.3127C53.4735 65.17 53.5737 64.9962 53.6981 64.9244C53.8224 64.8526 53.9233 64.9104 53.9237 65.053Z" fill="#D9CD9A"/>
<path id="Vector_124" d="M54.9434 59.3904C54.9437 59.5332 54.8435 59.7071 54.7192 59.7788C54.5948 59.8506 54.4939 59.7929 54.4935 59.6501C54.4931 59.5074 54.5934 59.3336 54.7177 59.2618C54.842 59.1901 54.943 59.2477 54.9434 59.3904Z" fill="#D9CD9A"/>
<path id="Vector_125" d="M56.5796 56.2044C56.58 56.3472 56.4797 56.5211 56.3554 56.5928C56.2311 56.6646 56.1302 56.6069 56.1298 56.4641C56.1294 56.3214 56.2296 56.1475 56.354 56.0758C56.4783 56.004 56.5792 56.0617 56.5796 56.2044Z" fill="#D9CD9A"/>
<path id="Vector_126" d="M51.5128 68.8362C51.5132 68.9791 51.4129 69.1529 51.2886 69.2246C51.1643 69.2964 51.0634 69.2387 51.063 69.0959C51.0626 68.9532 51.1629 68.7794 51.2872 68.7076C51.4115 68.6359 51.5124 68.6935 51.5128 68.8362Z" fill="#D9CD9A"/>
<path id="Vector_127" d="M47.469 64.2991C47.4694 64.4419 47.3691 64.6158 47.2448 64.6875C47.1205 64.7593 47.0196 64.7016 47.0192 64.5588C47.0188 64.4161 47.119 64.2422 47.2434 64.1705C47.3677 64.0987 47.4686 64.1565 47.469 64.2991Z" fill="#D9CD9A"/>
<path id="Vector_128" d="M51.2878 62.1067C51.2882 62.2496 51.188 62.4234 51.0636 62.4952C50.9393 62.5669 50.8384 62.5092 50.838 62.3664C50.8376 62.2237 50.9379 62.0499 51.0622 61.9781C51.1865 61.9064 51.2875 61.964 51.2878 62.1067Z" fill="#D9CD9A"/>
<path id="Vector_129" d="M56.5796 61.5843C56.58 61.7271 56.4797 61.9009 56.3554 61.9727C56.2311 62.0444 56.1302 61.9868 56.1298 61.8439C56.1294 61.7013 56.2296 61.5274 56.354 61.4557C56.4783 61.3839 56.5792 61.4416 56.5796 61.5843Z" fill="#D9CD9A"/>
<path id="Vector_130" d="M58.433 53.3328C58.4334 53.4756 58.3331 53.6495 58.2088 53.7212C58.0845 53.793 57.9835 53.7353 57.9832 53.5925C57.9828 53.4498 58.083 53.276 58.2073 53.2042C58.3317 53.1324 58.4326 53.1901 58.433 53.3328Z" fill="#D9CD9A"/>
<path id="Vector_131" d="M63.436 57.6316C63.4364 57.7744 63.3362 57.9483 63.2118 58.02C63.0875 58.0918 62.9866 58.0341 62.9862 57.8913C62.9858 57.7486 63.0861 57.5748 63.2104 57.503C63.3347 57.4313 63.4356 57.489 63.436 57.6316Z" fill="#D9CD9A"/>
<path id="Vector_132" d="M66.0148 55.0916C66.0152 55.2344 65.9149 55.4083 65.7906 55.48C65.6663 55.5518 65.5653 55.4941 65.5649 55.3513C65.5646 55.2086 65.6648 55.0347 65.7891 54.963C65.9135 54.8912 66.0144 54.9489 66.0148 55.0916Z" fill="#D9CD9A"/>
<path id="Vector_133" d="M64.8473 51.9051C64.8477 52.0479 64.7474 52.2217 64.6231 52.2935C64.4988 52.3653 64.3979 52.3076 64.3975 52.1647C64.3971 52.0221 64.4973 51.8482 64.6217 51.7765C64.746 51.7047 64.8468 51.7624 64.8473 51.9051Z" fill="#D9CD9A"/>
<path id="Vector_134" d="M62.6498 49.4529C62.6502 49.5957 62.5499 49.7696 62.4256 49.8413C62.3013 49.9131 62.2003 49.8554 62.2 49.7126C62.1996 49.5699 62.2998 49.3961 62.4241 49.3243C62.5485 49.2526 62.6494 49.3102 62.6498 49.4529Z" fill="#D9CD9A"/>
<path id="Vector_135" d="M61.5537 55.6214C61.5541 55.7642 61.4538 55.938 61.3295 56.0098C61.2052 56.0815 61.1043 56.0239 61.1039 55.881C61.1035 55.7384 61.2038 55.5645 61.3281 55.4928C61.4524 55.421 61.5533 55.4787 61.5537 55.6214Z" fill="#D9CD9A"/>
<path id="Vector_136" d="M57.4136 59.9695C57.414 60.1124 57.3137 60.2862 57.1894 60.3579C57.0651 60.4297 56.9641 60.372 56.9637 60.2292C56.9634 60.0865 57.0636 59.9127 57.1879 59.8409C57.3123 59.7692 57.4132 59.8268 57.4136 59.9695Z" fill="#D9CD9A"/>
<path id="Vector_137" d="M61.329 57.2854C61.3294 57.4283 61.2291 57.6021 61.1048 57.6739C60.9805 57.7456 60.8795 57.6879 60.8792 57.5451C60.8788 57.4024 60.979 57.2286 61.1033 57.1568C61.2277 57.0851 61.3285 57.1427 61.329 57.2854Z" fill="#D9CD9A"/>
<path id="Vector_138" d="M67.8335 40.7556C67.8339 40.8985 67.7336 41.0723 67.6093 41.1441C67.485 41.2158 67.3841 41.1582 67.3837 41.0153C67.3833 40.8726 67.4835 40.6988 67.6079 40.627C67.7322 40.5553 67.8331 40.613 67.8335 40.7556Z" fill="#D9CD9A"/>
<path id="Vector_139" d="M81.0975 38.2337C81.0979 38.3765 80.9977 38.5504 80.8733 38.6221C80.749 38.6939 80.6481 38.6362 80.6477 38.4934C80.6473 38.3507 80.7476 38.1768 80.8719 38.1051C80.9962 38.0333 81.0971 38.091 81.0975 38.2337Z" fill="#D9CD9A"/>
<path id="Vector_140" d="M81.8925 36.4519C81.8928 36.5948 81.7926 36.7686 81.6683 36.8404C81.544 36.9121 81.443 36.8545 81.4426 36.7116C81.4422 36.5689 81.5425 36.3951 81.6668 36.3233C81.7911 36.2516 81.8921 36.3093 81.8925 36.4519Z" fill="#D9CD9A"/>
<path id="Vector_141" d="M82.9216 34.3474C82.922 34.4903 82.8218 34.6641 82.6974 34.7359C82.5731 34.8076 82.4722 34.75 82.4718 34.6071C82.4714 34.4644 82.5717 34.2906 82.696 34.2188C82.8203 34.1471 82.9212 34.2048 82.9216 34.3474Z" fill="#D9CD9A"/>
<path id="Vector_142" d="M80.3711 33.0384C80.3715 33.1812 80.2712 33.355 80.1469 33.4268C80.0226 33.4986 79.9217 33.4409 79.9213 33.298C79.9209 33.1554 80.0211 32.9815 80.1455 32.9098C80.2698 32.838 80.3707 32.8957 80.3711 33.0384Z" fill="#D9CD9A"/>
<path id="Vector_143" d="M77.0037 36.1136C77.004 36.2564 76.9038 36.4302 76.7795 36.502C76.6552 36.5737 76.5542 36.5161 76.5538 36.3732C76.5534 36.2306 76.6537 36.0567 76.778 35.985C76.9023 35.9132 77.0033 35.9709 77.0037 36.1136Z" fill="#D9CD9A"/>
<path id="Vector_144" d="M64.8473 45.2302C64.8477 45.3731 64.7474 45.5469 64.6231 45.6187C64.4988 45.6904 64.3979 45.6328 64.3975 45.4899C64.3971 45.3472 64.4973 45.1734 64.6217 45.1016C64.746 45.0299 64.8468 45.0876 64.8473 45.2302Z" fill="#D9CD9A"/>
<path id="Vector_145" d="M76.5834 37.6179C76.5838 37.7608 76.4835 37.9346 76.3592 38.0064C76.2349 38.0781 76.1339 38.0205 76.1335 37.8776C76.1332 37.735 76.2334 37.5611 76.3577 37.4894C76.4821 37.4176 76.583 37.4753 76.5834 37.6179Z" fill="#D9CD9A"/>
<path id="Vector_146" d="M71.8229 43.2996C71.8233 43.4424 71.723 43.6163 71.5987 43.688C71.4744 43.7598 71.3734 43.7021 71.373 43.5593C71.3727 43.4166 71.4729 43.2427 71.5972 43.171C71.7215 43.0992 71.8224 43.1569 71.8229 43.2996Z" fill="#D9CD9A"/>
<path id="Vector_147" d="M75.806 50.2669C75.8064 50.4097 75.7062 50.5836 75.5818 50.6553C75.4576 50.7271 75.3566 50.6694 75.3562 50.5266C75.3558 50.3839 75.4561 50.21 75.5804 50.1383C75.7047 50.0665 75.8056 50.1242 75.806 50.2669Z" fill="#D9CD9A"/>
<path id="Vector_148" d="M76.6007 48.4851C76.6011 48.628 76.5008 48.8018 76.3765 48.8736C76.2522 48.9453 76.1513 48.8877 76.1509 48.7448C76.1505 48.6021 76.2507 48.4283 76.3751 48.3565C76.4993 48.2848 76.6003 48.3425 76.6007 48.4851Z" fill="#D9CD9A"/>
<path id="Vector_149" d="M78.2369 41.8719C78.2373 42.0147 78.1371 42.1885 78.0127 42.2603C77.8885 42.332 77.7875 42.2744 77.7871 42.1315C77.7867 41.9889 77.887 41.815 78.0113 41.7433C78.1356 41.6715 78.2365 41.7292 78.2369 41.8719Z" fill="#D9CD9A"/>
<path id="Vector_150" d="M66.4645 43.0437C66.4649 43.1866 66.3646 43.3604 66.2403 43.4322C66.116 43.5039 66.015 43.4463 66.0146 43.3034C66.0143 43.1607 66.1145 42.9869 66.2388 42.9151C66.3632 42.8434 66.4641 42.9011 66.4645 43.0437Z" fill="#D9CD9A"/>
<path id="Vector_151" d="M72.9452 46.4089C72.9456 46.5518 72.8453 46.7256 72.721 46.7974C72.5967 46.8691 72.4958 46.8115 72.4954 46.6686C72.495 46.526 72.5952 46.3521 72.7196 46.2804C72.8438 46.2086 72.9447 46.2663 72.9452 46.4089Z" fill="#D9CD9A"/>
<path id="Vector_152" d="M72.9452 47.7742C72.9456 47.917 72.8453 48.0909 72.721 48.1626C72.5967 48.2344 72.4958 48.1767 72.4954 48.0339C72.495 47.8912 72.5952 47.7173 72.7196 47.6456C72.8438 47.5738 72.9447 47.6316 72.9452 47.7742Z" fill="#D9CD9A"/>
<path id="Vector_153" d="M74.7186 47.2522C74.719 47.3951 74.6188 47.5689 74.4944 47.6407C74.3701 47.7124 74.2692 47.6547 74.2688 47.5119C74.2684 47.3692 74.3687 47.1954 74.493 47.1236C74.6173 47.0519 74.7182 47.1095 74.7186 47.2522Z" fill="#D9CD9A"/>
<path id="Vector_154" d="M79.4397 40.7556C79.4401 40.8985 79.3398 41.0723 79.2155 41.1441C79.0912 41.2158 78.9903 41.1582 78.9899 41.0153C78.9895 40.8726 79.0897 40.6988 79.2141 40.627C79.3383 40.5553 79.4393 40.613 79.4397 40.7556Z" fill="#D9CD9A"/>
<path id="Vector_155" d="M83.4229 44.2962C83.4232 44.439 83.323 44.6129 83.1987 44.6846C83.0744 44.7564 82.9734 44.6987 82.973 44.5558C82.9726 44.4132 83.0729 44.2393 83.1972 44.1676C83.3215 44.0958 83.4225 44.1535 83.4229 44.2962Z" fill="#D9CD9A"/>
<path id="Vector_156" d="M84.2178 42.5144C84.2182 42.6573 84.1179 42.8311 83.9936 42.9029C83.8693 42.9746 83.7683 42.917 83.7679 42.7741C83.7676 42.6314 83.8678 42.4576 83.9921 42.3858C84.1165 42.3141 84.2174 42.3718 84.2178 42.5144Z" fill="#D9CD9A"/>
<path id="Vector_157" d="M87.5674 42.7547C87.5678 42.8975 87.4675 43.0713 87.3432 43.1431C87.2189 43.2149 87.1179 43.1572 87.1176 43.0143C87.1172 42.8717 87.2174 42.6978 87.3418 42.6261C87.466 42.5543 87.567 42.612 87.5674 42.7547Z" fill="#D9CD9A"/>
<path id="Vector_158" d="M84.4427 40.3494C84.4431 40.4922 84.3429 40.6661 84.2185 40.7378C84.0943 40.8096 83.9933 40.7519 83.9929 40.6091C83.9925 40.4664 84.0928 40.2925 84.2171 40.2208C84.3414 40.149 84.4424 40.2068 84.4427 40.3494Z" fill="#D9CD9A"/>
<path id="Vector_159" d="M81.0975 44.0896C81.0979 44.2325 80.9977 44.4063 80.8733 44.4781C80.749 44.5498 80.6481 44.4921 80.6477 44.3493C80.6473 44.2066 80.7476 44.0328 80.8719 43.961C80.9962 43.8893 81.0971 43.947 81.0975 44.0896Z" fill="#D9CD9A"/>
<path id="Vector_160" d="M79.1916 46.6008C79.192 46.7437 79.0918 46.9175 78.9675 46.9893C78.8432 47.061 78.7422 47.0034 78.7418 46.8605C78.7414 46.7179 78.8417 46.544 78.966 46.4723C79.0903 46.4005 79.1912 46.4582 79.1916 46.6008Z" fill="#D9CD9A"/>
<path id="Vector_161" d="M80.9648 46.0789C80.9652 46.2217 80.865 46.3956 80.7406 46.4673C80.6163 46.5391 80.5154 46.4814 80.515 46.3386C80.5146 46.1959 80.6149 46.022 80.7392 45.9503C80.8635 45.8785 80.9644 45.9362 80.9648 46.0789Z" fill="#D9CD9A"/>
<path id="Vector_162" d="M86.0787 34.45C86.0791 34.5928 85.9789 34.7667 85.8545 34.8384C85.7303 34.9102 85.6293 34.8525 85.6289 34.7096C85.6285 34.567 85.7288 34.3931 85.8531 34.3214C85.9774 34.2496 86.0783 34.3073 86.0787 34.45Z" fill="#D9CD9A"/>
<path id="Vector_163" d="M90.2869 37.1131C90.2872 37.2559 90.187 37.4297 90.0627 37.5015C89.9384 37.5733 89.8374 37.5156 89.837 37.3727C89.8366 37.2301 89.9369 37.0562 90.0612 36.9845C90.1855 36.9127 90.2864 36.9704 90.2869 37.1131Z" fill="#D9CD9A"/>
<path id="Vector_164" d="M98.6833 37.5725C98.6837 37.7154 98.5835 37.8892 98.4592 37.961C98.3349 38.0327 98.2339 37.9751 98.2335 37.8322C98.2331 37.6895 98.3334 37.5157 98.4577 37.4439C98.582 37.3722 98.683 37.4299 98.6833 37.5725Z" fill="#D9CD9A"/>
<path id="Vector_165" d="M74.9434 43.5891C74.9437 43.732 74.8435 43.9058 74.7192 43.9776C74.5948 44.0493 74.4939 43.9917 74.4935 43.8488C74.4931 43.7061 74.5934 43.5323 74.7177 43.4605C74.842 43.3888 74.9429 43.4465 74.9434 43.5891Z" fill="#D9CD9A"/>
<path id="Vector_166" d="M93.8417 31.5715C93.8421 31.7144 93.7418 31.8882 93.6175 31.96C93.4932 32.0317 93.3922 31.9741 93.3918 31.8312C93.3915 31.6886 93.4917 31.5147 93.616 31.443C93.7403 31.3712 93.8412 31.4289 93.8417 31.5715Z" fill="#D9CD9A"/>
<path id="Vector_167" d="M87.4263 36.6819C87.4267 36.8247 87.3264 36.9986 87.2021 37.0703C87.0778 37.1421 86.9768 37.0844 86.9764 36.9416C86.9761 36.7989 87.0763 36.6251 87.2006 36.5533C87.3249 36.4816 87.4259 36.5393 87.4263 36.6819Z" fill="#D9CD9A"/>
<path id="Vector_168" d="M89.1396 41.4739C89.14 41.6167 89.0398 41.7906 88.9154 41.8623C88.7912 41.9341 88.6902 41.8764 88.6898 41.7336C88.6894 41.5909 88.7897 41.4171 88.914 41.3453C89.0383 41.2735 89.1393 41.3313 89.1396 41.4739Z" fill="#D9CD9A"/>
<path id="Vector_169" d="M90.9128 40.9519C90.9132 41.0948 90.813 41.2686 90.6886 41.3404C90.5644 41.4121 90.4634 41.3545 90.463 41.2116C90.4626 41.0689 90.5629 40.8951 90.6872 40.8233C90.8115 40.7516 90.9125 40.8093 90.9128 40.9519Z" fill="#D9CD9A"/>
<path id="Vector_170" d="M92.2694 34.7527C92.2698 34.8956 92.1695 35.0694 92.0452 35.1412C91.9209 35.2129 91.82 35.1552 91.8196 35.0124C91.8192 34.8697 91.9194 34.6959 92.0438 34.6241C92.168 34.5524 92.269 34.61 92.2694 34.7527Z" fill="#D9CD9A"/>
<path id="Vector_171" d="M96.2526 36.9226C96.253 37.0655 96.1527 37.2393 96.0284 37.3111C95.9041 37.3828 95.8031 37.3251 95.8027 37.1823C95.8023 37.0396 95.9026 36.8658 96.0269 36.794C96.1512 36.7223 96.2521 36.78 96.2526 36.9226Z" fill="#D9CD9A"/>
<path id="Vector_172" d="M97.0475 35.1404C97.0479 35.2832 96.9476 35.4571 96.8233 35.5288C96.699 35.6006 96.598 35.5429 96.5977 35.4001C96.5973 35.2574 96.6975 35.0836 96.8219 35.0118C96.9461 34.94 97.0471 34.9978 97.0475 35.1404Z" fill="#D9CD9A"/>
<path id="Vector_173" d="M98.6833 33.325C98.6837 33.4678 98.5835 33.6417 98.4592 33.7134C98.3349 33.7852 98.2339 33.7275 98.2335 33.5847C98.2331 33.442 98.3334 33.2681 98.4577 33.1964C98.582 33.1246 98.683 33.1823 98.6833 33.325Z" fill="#D9CD9A"/>
<path id="Vector_174" d="M95.5264 33.0979C95.5268 33.2408 95.4265 33.4146 95.3022 33.4864C95.1779 33.5581 95.0769 33.5005 95.0765 33.3576C95.0762 33.2149 95.1764 33.0411 95.3007 32.9693C95.4251 32.8976 95.526 32.9552 95.5264 33.0979Z" fill="#D9CD9A"/>
<path id="Vector_175" d="M78.012 38.2781C78.0123 38.4209 77.9121 38.5948 77.7878 38.6665C77.6635 38.7383 77.5625 38.6806 77.5621 38.5378C77.5617 38.3951 77.662 38.2213 77.7863 38.1495C77.9106 38.0778 78.0115 38.1354 78.012 38.2781Z" fill="#D9CD9A"/>
<path id="Vector_176" d="M93.392 39.2273C93.3923 39.3702 93.2921 39.544 93.1678 39.6157C93.0434 39.6875 92.9425 39.6298 92.9421 39.487C92.9418 39.3443 93.042 39.1705 93.1663 39.0987C93.2906 39.027 93.3915 39.0847 93.392 39.2273Z" fill="#D9CD9A"/>
<path id="Vector_177" d="M95.1652 37.3347C95.1655 37.4776 95.0653 37.6514 94.941 37.7232C94.8166 37.7949 94.7157 37.7373 94.7153 37.5944C94.7149 37.4517 94.8152 37.2779 94.9395 37.2061C95.0638 37.1344 95.1647 37.1921 95.1652 37.3347Z" fill="#D9CD9A"/>
</g>
<g id="LIGHT_1_">
<path id="Vector_178" d="M37.6959 71.5242C37.6963 71.667 37.5961 71.8409 37.4717 71.9126C37.3474 71.9844 37.2465 71.9267 37.2461 71.7839C37.2457 71.6412 37.346 71.4674 37.4703 71.3956C37.5946 71.3238 37.6955 71.3815 37.6959 71.5242Z" fill="#FFFBF3"/>
<path id="Vector_179" d="M46.3337 71.5242C46.3341 71.667 46.2339 71.8409 46.1095 71.9126C45.9852 71.9844 45.8843 71.9267 45.8839 71.7839C45.8835 71.6412 45.9838 71.4674 46.1081 71.3956C46.2324 71.3238 46.3333 71.3815 46.3337 71.5242Z" fill="#FFFBF3"/>
<path id="Vector_180" d="M43.8604 72.8899C43.8607 73.0328 43.7605 73.2066 43.6362 73.2784C43.5118 73.3501 43.4109 73.2924 43.4105 73.1496C43.4101 73.0069 43.5104 72.8331 43.6347 72.7613C43.759 72.6896 43.8599 72.7473 43.8604 72.8899Z" fill="#FFFBF3"/>
<path id="Vector_181" d="M45.2715 66.698C45.2719 66.8409 45.1716 67.0147 45.0473 67.0865C44.923 67.1582 44.822 67.1005 44.8217 66.9577C44.8213 66.815 44.9215 66.6412 45.0458 66.5694C45.1702 66.4977 45.2711 66.5553 45.2715 66.698Z" fill="#FFFBF3"/>
<path id="Vector_182" d="M36.1766 72.8899C36.177 73.0328 36.0768 73.2066 35.9524 73.2784C35.8282 73.3501 35.7272 73.2924 35.7268 73.1496C35.7264 73.0069 35.8267 72.8331 35.951 72.7613C36.0753 72.6896 36.1762 72.7473 36.1766 72.8899Z" fill="#FFFBF3"/>
<path id="Vector_183" d="M44.3206 64.01C44.3209 64.1529 44.2207 64.3267 44.0964 64.3985C43.972 64.4702 43.8711 64.4126 43.8707 64.2697C43.8703 64.127 43.9706 63.9532 44.0949 63.8814C44.2192 63.8097 44.3202 63.8674 44.3206 64.01Z" fill="#FFFBF3"/>
<path id="Vector_184" d="M42.1141 66.471C42.1145 66.6138 42.0143 66.7877 41.8899 66.8594C41.7656 66.9312 41.6647 66.8735 41.6643 66.7307C41.6639 66.588 41.7642 66.4141 41.8885 66.3424C42.0128 66.2706 42.1137 66.3283 42.1141 66.471Z" fill="#FFFBF3"/>
<path id="Vector_185" d="M36.6949 76.804C36.6953 76.9468 36.5951 77.1207 36.4708 77.1924C36.3464 77.2642 36.2455 77.2065 36.2451 77.0636C36.2447 76.921 36.345 76.7471 36.4693 76.6754C36.5936 76.6036 36.6945 76.6614 36.6949 76.804Z" fill="#FFFBF3"/>
<path id="Vector_186" d="M39.5382 75.0178C39.5386 75.1607 39.4383 75.3345 39.314 75.4063C39.1897 75.478 39.0888 75.4204 39.0884 75.2775C39.088 75.1349 39.1883 74.961 39.3126 74.8892C39.4369 74.8175 39.5378 74.8752 39.5382 75.0178Z" fill="#FFFBF3"/>
<path id="Vector_187" d="M39.9797 72.6004C39.9801 72.7432 39.8799 72.9171 39.7555 72.9888C39.6312 73.0606 39.5303 73.0029 39.5299 72.8601C39.5295 72.7174 39.6298 72.5435 39.7541 72.4718C39.8784 72.4 39.9793 72.4577 39.9797 72.6004Z" fill="#FFFBF3"/>
<path id="Vector_188" d="M41.7533 72.0784C41.7537 72.2212 41.6534 72.3951 41.5291 72.4668C41.4048 72.5386 41.3039 72.4809 41.3035 72.3381C41.3031 72.1954 41.4033 72.0216 41.5277 71.9498C41.652 71.878 41.7529 71.9357 41.7533 72.0784Z" fill="#FFFBF3"/>
<path id="Vector_189" d="M27.5161 85.7254C27.5165 85.8682 27.4162 86.0421 27.2919 86.1138C27.1676 86.1856 27.0667 86.1279 27.0663 85.9851C27.0659 85.8424 27.1662 85.6685 27.2905 85.5968C27.4148 85.525 27.5157 85.5827 27.5161 85.7254Z" fill="#FFFBF3"/>
<path id="Vector_190" d="M25.0974 84.8572C25.0978 85 24.9975 85.1739 24.8732 85.2456C24.7489 85.3174 24.648 85.2597 24.6476 85.1169C24.6472 84.9742 24.7475 84.8004 24.8718 84.7286C24.9961 84.6568 25.097 84.7146 25.0974 84.8572Z" fill="#FFFBF3"/>
<path id="Vector_191" d="M21.1058 82.6404C21.1062 82.7832 21.006 82.9571 20.8816 83.0288C20.7573 83.1006 20.6564 83.0429 20.656 82.9001C20.6556 82.7574 20.7559 82.5836 20.8802 82.5118C21.0045 82.44 21.1054 82.4978 21.1058 82.6404Z" fill="#FFFBF3"/>
<path id="Vector_192" d="M27.1982 78.7483C27.1986 78.8911 27.0984 79.065 26.974 79.1367C26.8497 79.2085 26.7488 79.1508 26.7484 79.008C26.748 78.8654 26.8483 78.6915 26.9726 78.6197C27.0969 78.548 27.1979 78.6057 27.1982 78.7483Z" fill="#FFFBF3"/>
<path id="Vector_193" d="M24.8724 82.0559C24.8728 82.1988 24.7726 82.3726 24.6482 82.4444C24.5239 82.5161 24.423 82.4585 24.4226 82.3156C24.4222 82.173 24.5225 81.9991 24.6468 81.9273C24.7711 81.8556 24.872 81.9133 24.8724 82.0559Z" fill="#FFFBF3"/>
<path id="Vector_194" d="M19.298 84.3035C19.2984 84.4463 19.1981 84.6202 19.0738 84.6919C18.9495 84.7637 18.8485 84.706 18.8481 84.5632C18.8478 84.4205 18.948 84.2466 19.0723 84.1749C19.1967 84.1031 19.2976 84.1609 19.298 84.3035Z" fill="#FFFBF3"/>
<path id="Vector_195" d="M19.8674 86.697C19.8678 86.8399 19.7676 87.0137 19.6432 87.0855C19.5189 87.1572 19.418 87.0996 19.4176 86.9567C19.4172 86.8141 19.5175 86.6402 19.6418 86.5685C19.7661 86.4967 19.867 86.5544 19.8674 86.697Z" fill="#FFFBF3"/>
<path id="Vector_196" d="M23.6901 85.1468C23.6904 85.2896 23.5902 85.4634 23.4659 85.5352C23.3415 85.607 23.2406 85.5493 23.2402 85.4064C23.2398 85.2638 23.3401 85.0899 23.4644 85.0182C23.5888 84.9464 23.6897 85.0041 23.6901 85.1468Z" fill="#FFFBF3"/>
<path id="Vector_197" d="M27.2914 82.5115C27.2918 82.6543 27.1915 82.8282 27.0672 82.8999C26.9429 82.9717 26.8419 82.914 26.8416 82.7712C26.8412 82.6285 26.9414 82.4547 27.0657 82.3829C27.1901 82.3112 27.2909 82.3688 27.2914 82.5115Z" fill="#FFFBF3"/>
<path id="Vector_198" d="M33.6017 82.3509C33.6021 82.4937 33.5018 82.6675 33.3775 82.7393C33.2532 82.8111 33.1522 82.7534 33.1519 82.6105C33.1515 82.4679 33.2517 82.294 33.376 82.2223C33.5004 82.1505 33.6013 82.2082 33.6017 82.3509Z" fill="#FFFBF3"/>
<path id="Vector_199" d="M31.6309 78.2512C31.6312 78.3941 31.531 78.5679 31.4067 78.6397C31.2823 78.7114 31.1814 78.6538 31.181 78.5109C31.1806 78.3683 31.2809 78.1944 31.4052 78.1227C31.5295 78.0509 31.6304 78.1086 31.6309 78.2512Z" fill="#FFFBF3"/>
<path id="Vector_200" d="M34.8107 76.8953C34.8111 77.0381 34.7108 77.212 34.5865 77.2837C34.4622 77.3555 34.3612 77.2978 34.3608 77.155C34.3605 77.0123 34.4607 76.8384 34.585 76.7667C34.7094 76.6949 34.8103 76.7527 34.8107 76.8953Z" fill="#FFFBF3"/>
<path id="Vector_201" d="M31.8558 74.7283C31.8562 74.8711 31.756 75.045 31.6316 75.1167C31.5073 75.1885 31.4064 75.1308 31.406 74.988C31.4056 74.8454 31.5059 74.6715 31.6302 74.5997C31.7545 74.5279 31.8554 74.5856 31.8558 74.7283Z" fill="#FFFBF3"/>
<path id="Vector_202" d="M27.072 79.7815C27.0724 79.9244 26.9721 80.0982 26.8478 80.17C26.7235 80.2417 26.6226 80.184 26.6222 80.0412C26.6218 79.8986 26.7221 79.7247 26.8464 79.6529C26.9707 79.5812 27.0716 79.6388 27.072 79.7815Z" fill="#FFFBF3"/>
<path id="Vector_203" d="M29.0594 79.9754C29.0598 80.1182 28.9596 80.292 28.8353 80.3638C28.7109 80.4356 28.61 80.3779 28.6096 80.235C28.6092 80.0924 28.7095 79.9185 28.8338 79.8468C28.9581 79.775 29.0591 79.8327 29.0594 79.9754Z" fill="#FFFBF3"/>
<path id="Vector_204" d="M31.6309 82.0559C31.6312 82.1988 31.531 82.3726 31.4067 82.4444C31.2823 82.5161 31.1814 82.4585 31.181 82.3156C31.1806 82.173 31.2809 81.9991 31.4052 81.9273C31.5295 81.8556 31.6304 81.9133 31.6309 82.0559Z" fill="#FFFBF3"/>
<path id="Vector_205" d="M45.7321 70.2581C45.7324 70.4009 45.6322 70.5748 45.5079 70.6465C45.3835 70.7183 45.2826 70.6606 45.2822 70.5178C45.2818 70.3751 45.3821 70.2012 45.5064 70.1295C45.6307 70.0577 45.7317 70.1155 45.7321 70.2581Z" fill="#FFFBF3"/>
<path id="Vector_206" d="M49.2382 66.471C49.2385 66.6138 49.1383 66.7877 49.014 66.8594C48.8896 66.9312 48.7887 66.8735 48.7883 66.7307C48.7879 66.588 48.8882 66.4141 49.0125 66.3424C49.1368 66.2706 49.2378 66.3283 49.2382 66.471Z" fill="#FFFBF3"/>
<path id="Vector_207" d="M54.2581 61.7893C54.2584 61.9322 54.1582 62.106 54.0339 62.1778C53.9095 62.2495 53.8086 62.1919 53.8082 62.049C53.8078 61.9063 53.9081 61.7325 54.0324 61.6607C54.1567 61.589 54.2577 61.6467 54.2581 61.7893Z" fill="#FFFBF3"/>
<path id="Vector_208" d="M53.4222 58.1067C53.4226 58.2496 53.3224 58.4234 53.198 58.4952C53.0737 58.5669 52.9728 58.5092 52.9724 58.3664C52.972 58.2237 53.0723 58.0499 53.1966 57.9781C53.3209 57.9064 53.4219 57.964 53.4222 58.1067Z" fill="#FFFBF3"/>
<path id="Vector_209" d="M49.0132 70.7805C49.0136 70.9234 48.9133 71.0972 48.789 71.169C48.6647 71.2407 48.5637 71.1831 48.5634 71.0402C48.563 70.8976 48.6632 70.7237 48.7875 70.652C48.9119 70.5802 49.0128 70.6379 49.0132 70.7805Z" fill="#FFFBF3"/>
<path id="Vector_210" d="M46.7834 66.698C46.7838 66.8409 46.6836 67.0147 46.5593 67.0865C46.4349 67.1582 46.334 67.1005 46.3336 66.9577C46.3332 66.815 46.4335 66.6412 46.5578 66.5694C46.6821 66.4977 46.7831 66.5553 46.7834 66.698Z" fill="#FFFBF3"/>
<path id="Vector_211" d="M47.9187 62.2405C47.9191 62.3833 47.8188 62.5572 47.6945 62.6289C47.5702 62.7007 47.4693 62.643 47.4689 62.5002C47.4685 62.3575 47.5687 62.1837 47.6931 62.1119C47.8174 62.0401 47.9183 62.0979 47.9187 62.2405Z" fill="#FFFBF3"/>
<path id="Vector_212" d="M53.4222 67.2097C53.4226 67.3526 53.3224 67.5264 53.198 67.5982C53.0737 67.6699 52.9728 67.6123 52.9724 67.4694C52.972 67.3267 53.0723 67.1529 53.1966 67.0812C53.3209 67.0094 53.4219 67.0671 53.4222 67.2097Z" fill="#FFFBF3"/>
<path id="Vector_213" d="M57.7477 55.7312C57.7481 55.8741 57.6478 56.0479 57.5235 56.1197C57.3992 56.1914 57.2982 56.1337 57.2979 55.9909C57.2975 55.8482 57.3977 55.6744 57.522 55.6026C57.6464 55.5309 57.7473 55.5886 57.7477 55.7312Z" fill="#FFFBF3"/>
<path id="Vector_214" d="M62.7507 60.0305C62.7511 60.1734 62.6509 60.3472 62.5265 60.419C62.4022 60.4907 62.3013 60.4331 62.3009 60.2902C62.3005 60.1475 62.4008 59.9737 62.5251 59.902C62.6494 59.8302 62.7503 59.8879 62.7507 60.0305Z" fill="#FFFBF3"/>
<path id="Vector_215" d="M65.3295 57.49C65.3299 57.6328 65.2296 57.8067 65.1053 57.8784C64.981 57.9502 64.88 57.8925 64.8796 57.7497C64.8793 57.607 64.9795 57.4332 65.1038 57.3614C65.2281 57.2897 65.3291 57.3474 65.3295 57.49Z" fill="#FFFBF3"/>
<path id="Vector_216" d="M60.3347 54.593C60.3351 54.7359 60.2348 54.9097 60.1105 54.9815C59.9862 55.0532 59.8853 54.9956 59.8849 54.8527C59.8845 54.71 59.9848 54.5362 60.1091 54.4645C60.2334 54.3927 60.3343 54.4504 60.3347 54.593Z" fill="#FFFBF3"/>
<path id="Vector_217" d="M61.9642 51.8513C61.9646 51.9942 61.8644 52.168 61.74 52.2398C61.6157 52.3115 61.5148 52.2539 61.5144 52.111C61.514 51.9683 61.6143 51.7945 61.7386 51.7227C61.8629 51.651 61.9638 51.7087 61.9642 51.8513Z" fill="#FFFBF3"/>
<path id="Vector_218" d="M57.2978 58.5183C57.2982 58.6612 57.198 58.835 57.0737 58.9068C56.9493 58.9785 56.8484 58.9209 56.848 58.778C56.8476 58.6353 56.9479 58.4615 57.0722 58.3897C57.1965 58.318 57.2975 58.3757 57.2978 58.5183Z" fill="#FFFBF3"/>
<path id="Vector_219" d="M56.7283 62.3679C56.7287 62.5108 56.6284 62.6846 56.5041 62.7564C56.3798 62.8281 56.2788 62.7705 56.2784 62.6276C56.2781 62.4849 56.3783 62.3111 56.5026 62.2394C56.627 62.1676 56.7279 62.2253 56.7283 62.3679Z" fill="#FFFBF3"/>
<path id="Vector_220" d="M58.8829 64.1936C58.8833 64.3365 58.7831 64.5103 58.6587 64.5821C58.5345 64.6538 58.4335 64.5961 58.4331 64.4533C58.4327 64.3106 58.533 64.1368 58.6573 64.065C58.7816 63.9933 58.8825 64.051 58.8829 64.1936Z" fill="#FFFBF3"/>
<path id="Vector_221" d="M67.1482 43.1541C67.1486 43.2969 67.0483 43.4708 66.924 43.5425C66.7997 43.6143 66.6988 43.5566 66.6984 43.4138C66.698 43.2711 66.7982 43.0972 66.9226 43.0255C67.0469 42.9537 67.1478 43.0114 67.1482 43.1541Z" fill="#FFFBF3"/>
<path id="Vector_222" d="M80.4122 40.6326C80.4126 40.7754 80.3124 40.9493 80.188 41.021C80.0637 41.0928 79.9628 41.0351 79.9624 40.8923C79.962 40.7496 80.0623 40.5758 80.1866 40.504C80.3109 40.4322 80.4118 40.4899 80.4122 40.6326Z" fill="#FFFBF3"/>
<path id="Vector_223" d="M81.2069 38.8509C81.2073 38.9937 81.107 39.1675 80.9827 39.2393C80.8585 39.311 80.7575 39.2534 80.7571 39.1105C80.7567 38.9679 80.857 38.794 80.9813 38.7223C81.1056 38.6505 81.2065 38.7082 81.2069 38.8509Z" fill="#FFFBF3"/>
<path id="Vector_224" d="M81.0975 35.3748C81.0979 35.5176 80.9977 35.6915 80.8733 35.7632C80.749 35.835 80.6481 35.7773 80.6477 35.6345C80.6473 35.4918 80.7476 35.3179 80.8719 35.2462C80.9962 35.1744 81.0971 35.2321 81.0975 35.3748Z" fill="#FFFBF3"/>
<path id="Vector_225" d="M78.2814 36.7415C78.2818 36.8843 78.1815 37.0582 78.0572 37.1299C77.9329 37.2017 77.8319 37.144 77.8315 37.0012C77.8312 36.8585 77.9314 36.6846 78.0557 36.6129C78.18 36.5411 78.281 36.5989 78.2814 36.7415Z" fill="#FFFBF3"/>
<path id="Vector_226" d="M74.1246 39.1731C74.125 39.316 74.0248 39.4898 73.9004 39.5616C73.7762 39.6333 73.6752 39.5756 73.6748 39.4328C73.6744 39.2901 73.7747 39.1163 73.899 39.0445C74.0233 38.9728 74.1242 39.0304 74.1246 39.1731Z" fill="#FFFBF3"/>
<path id="Vector_227" d="M64.162 47.6287C64.1624 47.7715 64.0621 47.9454 63.9378 48.0171C63.8135 48.0889 63.7125 48.0312 63.7122 47.8884C63.7118 47.7457 63.812 47.5719 63.9364 47.5001C64.0607 47.4283 64.1616 47.486 64.162 47.6287Z" fill="#FFFBF3"/>
<path id="Vector_228" d="M77.0039 38.8509C77.0043 38.9937 76.904 39.1675 76.7797 39.2393C76.6554 39.311 76.5545 39.2534 76.5541 39.1105C76.5537 38.9679 76.6539 38.794 76.7783 38.7223C76.9026 38.6505 77.0035 38.7082 77.0039 38.8509Z" fill="#FFFBF3"/>
<path id="Vector_229" d="M71.1376 45.6985C71.138 45.8413 71.0377 46.0152 70.9134 46.0869C70.7891 46.1587 70.6881 46.101 70.6877 45.9582C70.6874 45.8155 70.7876 45.6417 70.9119 45.5699C71.0363 45.4982 71.1372 45.5559 71.1376 45.6985Z" fill="#FFFBF3"/>
<path id="Vector_230" d="M75.1205 52.6658C75.1209 52.8086 75.0206 52.9825 74.8963 53.0542C74.772 53.126 74.671 53.0683 74.6707 52.9255C74.6703 52.7828 74.7705 52.6089 74.8948 52.5372C75.0191 52.4654 75.1201 52.5232 75.1205 52.6658Z" fill="#FFFBF3"/>
<path id="Vector_231" d="M77.2286 50.1253C77.229 50.2681 77.1288 50.442 77.0044 50.5137C76.8802 50.5855 76.7792 50.5278 76.7788 50.3849C76.7784 50.2423 76.8787 50.0684 77.003 49.9967C77.1273 49.9249 77.2282 49.9826 77.2286 50.1253Z" fill="#FFFBF3"/>
<path id="Vector_232" d="M77.5516 44.2708C77.552 44.4136 77.4518 44.5875 77.3274 44.6592C77.2032 44.731 77.1022 44.6733 77.1018 44.5305C77.1014 44.3878 77.2017 44.2139 77.326 44.1422C77.4503 44.0704 77.5512 44.1281 77.5516 44.2708Z" fill="#FFFBF3"/>
<path id="Vector_233" d="M66.9235 46.8904C66.9238 47.0332 66.8236 47.2071 66.6993 47.2788C66.5749 47.3506 66.474 47.2929 66.4736 47.1501C66.4732 47.0074 66.5735 46.8336 66.6978 46.7618C66.8221 46.6901 66.9231 46.7477 66.9235 46.8904Z" fill="#FFFBF3"/>
<path id="Vector_234" d="M70.9126 49.5467C70.913 49.6895 70.8127 49.8633 70.6884 49.9351C70.5641 50.0068 70.4632 49.9492 70.4628 49.8063C70.4624 49.6637 70.5626 49.4898 70.687 49.4181C70.8113 49.3463 70.9122 49.404 70.9126 49.5467Z" fill="#FFFBF3"/>
<path id="Vector_235" d="M70.6876 53.2444C70.688 53.3872 70.5877 53.5611 70.4634 53.6328C70.3391 53.7046 70.2382 53.6469 70.2378 53.5041C70.2374 53.3614 70.3377 53.1876 70.462 53.1158C70.5863 53.0441 70.6872 53.1018 70.6876 53.2444Z" fill="#FFFBF3"/>
<path id="Vector_236" d="M74.0331 49.6511C74.0335 49.794 73.9332 49.9678 73.8089 50.0396C73.6846 50.1113 73.5836 50.0537 73.5833 49.9108C73.5829 49.7681 73.6831 49.5943 73.8074 49.5225C73.9317 49.4508 74.0327 49.5085 74.0331 49.6511Z" fill="#FFFBF3"/>
<path id="Vector_237" d="M76.6007 42.451C76.6011 42.5938 76.5008 42.7676 76.3765 42.8394C76.2522 42.9111 76.1513 42.8535 76.1509 42.7106C76.1505 42.568 76.2507 42.3941 76.3751 42.3224C76.4993 42.2506 76.6003 42.3083 76.6007 42.451Z" fill="#FFFBF3"/>
<path id="Vector_238" d="M82.7375 46.6946C82.7379 46.8374 82.6377 47.0113 82.5134 47.083C82.3891 47.1548 82.2881 47.0971 82.2877 46.9543C82.2873 46.8116 82.3876 46.6378 82.5119 46.566C82.6362 46.4942 82.7372 46.552 82.7375 46.6946Z" fill="#FFFBF3"/>
<path id="Vector_239" d="M85.3934 44.864C85.3938 45.0069 85.2936 45.1807 85.1692 45.2525C85.045 45.3242 84.944 45.2666 84.9436 45.1237C84.9432 44.981 85.0435 44.8072 85.1678 44.7354C85.2921 44.6637 85.393 44.7214 85.3934 44.864Z" fill="#FFFBF3"/>
<path id="Vector_240" d="M86.3037 46.7263C86.3041 46.8692 86.2038 47.043 86.0795 47.1148C85.9552 47.1865 85.8543 47.1289 85.8539 46.986C85.8535 46.8433 85.9537 46.6695 86.0781 46.5978C86.2023 46.526 86.3033 46.5837 86.3037 46.7263Z" fill="#FFFBF3"/>
<path id="Vector_241" d="M83.7574 42.7478C83.7578 42.8907 83.6576 43.0645 83.5332 43.1363C83.409 43.208 83.308 43.1504 83.3076 43.0075C83.3072 42.8648 83.4075 42.691 83.5318 42.6192C83.6561 42.5475 83.757 42.6052 83.7574 42.7478Z" fill="#FFFBF3"/>
<path id="Vector_242" d="M80.4122 46.4881C80.4126 46.6309 80.3124 46.8047 80.188 46.8765C80.0637 46.9483 79.9628 46.8906 79.9624 46.7477C79.962 46.6051 80.0623 46.4312 80.1866 46.3595C80.3109 46.2877 80.4118 46.3454 80.4122 46.4881Z" fill="#FFFBF3"/>
<path id="Vector_243" d="M78.5063 48.9998C78.5067 49.1426 78.4065 49.3165 78.2822 49.3882C78.1579 49.46 78.0569 49.4023 78.0565 49.2595C78.0561 49.1168 78.1564 48.9429 78.2807 48.8712C78.405 48.7994 78.506 48.8571 78.5063 48.9998Z" fill="#FFFBF3"/>
<path id="Vector_244" d="M80.2795 48.4778C80.2799 48.6206 80.1797 48.7945 80.0553 48.8662C79.931 48.938 79.8301 48.8803 79.8297 48.7375C79.8293 48.5948 79.9296 48.421 80.0539 48.3492C80.1782 48.2775 80.2792 48.3352 80.2795 48.4778Z" fill="#FFFBF3"/>
<path id="Vector_245" d="M85.6184 35.9715C85.6188 36.1143 85.5185 36.2881 85.3942 36.3599C85.2699 36.4316 85.169 36.374 85.1686 36.2311C85.1682 36.0885 85.2684 35.9146 85.3928 35.8429C85.517 35.7711 85.618 35.8288 85.6184 35.9715Z" fill="#FFFBF3"/>
<path id="Vector_246" d="M88.4648 39.0808C88.4652 39.2237 88.365 39.3975 88.2406 39.4693C88.1164 39.541 88.0154 39.4834 88.015 39.3405C88.0146 39.1978 88.1149 39.024 88.2392 38.9522C88.3635 38.8805 88.4644 38.9382 88.4648 39.0808Z" fill="#FFFBF3"/>
<path id="Vector_247" d="M97.9982 39.9715C97.9986 40.1143 97.8983 40.2881 97.774 40.3599C97.6497 40.4316 97.5487 40.374 97.5483 40.2311C97.548 40.0885 97.6482 39.9146 97.7725 39.8429C97.8968 39.7711 97.9978 39.8288 97.9982 39.9715Z" fill="#FFFBF3"/>
<path id="Vector_248" d="M73.1702 45.0095C73.1706 45.1524 73.0703 45.3262 72.946 45.398C72.8217 45.4697 72.7207 45.4121 72.7203 45.2692C72.7199 45.1266 72.8202 44.9527 72.9445 44.881C73.0688 44.8092 73.1697 44.8669 73.1702 45.0095Z" fill="#FFFBF3"/>
<path id="Vector_249" d="M92.2694 32.4412C92.2698 32.584 92.1695 32.7579 92.0452 32.8296C91.9209 32.9014 91.82 32.8437 91.8196 32.7009C91.8192 32.5582 91.9194 32.3844 92.0438 32.3126C92.168 32.2408 92.269 32.2985 92.2694 32.4412Z" fill="#FFFBF3"/>
<path id="Vector_250" d="M86.741 39.0808C86.7413 39.2237 86.6411 39.3975 86.5168 39.4693C86.3924 39.541 86.2915 39.4834 86.2911 39.3405C86.2908 39.1978 86.391 39.024 86.5153 38.9522C86.6397 38.8805 86.7406 38.9382 86.741 39.0808Z" fill="#FFFBF3"/>
<path id="Vector_251" d="M86.5287 43.6404C86.5291 43.7832 86.4288 43.9571 86.3045 44.0288C86.1802 44.1006 86.0792 44.0429 86.0789 43.9001C86.0785 43.7574 86.1787 43.5836 86.303 43.5118C86.4273 43.4401 86.5283 43.4977 86.5287 43.6404Z" fill="#FFFBF3"/>
<path id="Vector_252" d="M90.2275 43.3508C90.2279 43.4937 90.1277 43.6675 90.0033 43.7393C89.8791 43.811 89.7781 43.7534 89.7777 43.6105C89.7773 43.4679 89.8776 43.294 90.0019 43.2223C90.1262 43.1505 90.2271 43.2082 90.2275 43.3508Z" fill="#FFFBF3"/>
<path id="Vector_253" d="M88.6899 37.8289C88.6903 37.9717 88.5901 38.1455 88.4658 38.2173C88.3415 38.289 88.2405 38.2314 88.2401 38.0885C88.2397 37.9459 88.34 37.772 88.4643 37.7003C88.5886 37.6286 88.6896 37.6862 88.6899 37.8289Z" fill="#FFFBF3"/>
<path id="Vector_254" d="M95.5673 39.3211C95.5676 39.4639 95.4674 39.6378 95.3431 39.7095C95.2188 39.7813 95.1178 39.7236 95.1174 39.5808C95.117 39.4381 95.2173 39.2642 95.3416 39.1925C95.4659 39.1207 95.5669 39.1784 95.5673 39.3211Z" fill="#FFFBF3"/>
<path id="Vector_255" d="M96.3622 37.5393C96.3626 37.6822 96.2623 37.856 96.138 37.9278C96.0137 37.9995 95.9127 37.9419 95.9124 37.799C95.912 37.6563 96.0122 37.4825 96.1366 37.4107C96.2608 37.339 96.3617 37.3967 96.3622 37.5393Z" fill="#FFFBF3"/>
<path id="Vector_256" d="M99.1334 34.8513C99.1338 34.9942 99.0335 35.168 98.9092 35.2398C98.785 35.3115 98.684 35.2539 98.6836 35.111C98.6832 34.9683 98.7835 34.7945 98.9078 34.7228C99.0321 34.651 99.133 34.7087 99.1334 34.8513Z" fill="#FFFBF3"/>
<path id="Vector_257" d="M94.2549 34.2952C94.2553 34.438 94.155 34.6119 94.0307 34.6836C93.9064 34.7554 93.8054 34.6977 93.8051 34.5549C93.8047 34.4122 93.9049 34.2383 94.0292 34.1666C94.1536 34.0948 94.2545 34.1526 94.2549 34.2952Z" fill="#FFFBF3"/>
<path id="Vector_258" d="M77.3267 40.677C77.327 40.8199 77.2268 40.9937 77.1025 41.0655C76.9782 41.1372 76.8772 41.0796 76.8768 40.9367C76.8764 40.794 76.9767 40.6202 77.101 40.5484C77.2253 40.4767 77.3263 40.5344 77.3267 40.677Z" fill="#FFFBF3"/>
<path id="Vector_259" d="M92.7067 41.6262C92.7071 41.7691 92.6068 41.9429 92.4825 42.0147C92.3582 42.0864 92.2572 42.0288 92.2568 41.8859C92.2564 41.7433 92.3567 41.5694 92.481 41.4977C92.6053 41.4259 92.7063 41.4836 92.7067 41.6262Z" fill="#FFFBF3"/>
<path id="Vector_260" d="M94.4799 39.7332C94.4802 39.876 94.38 40.0499 94.2557 40.1216C94.1313 40.1934 94.0304 40.1357 94.03 39.9929C94.0296 39.8502 94.1299 39.6763 94.2542 39.6046C94.3785 39.5328 94.4795 39.5905 94.4799 39.7332Z" fill="#FFFBF3"/>
</g>
</g>
</g>
<g id="Nail">
<path id="Edge of nail" d="M11.6654 82.77C6.76366 78.8093 3.53537 74.0104 4.97562 70.2046C0.941108 74.1236 4.50239 80.0051 10.3648 84.6095C10.7769 83.9361 11.2104 83.3229 11.6654 82.77Z" fill="#FDF8EE"/>
<path id="Nail plate" d="M11.6654 82.77C6.76368 78.8094 3.53538 74.0105 4.97563 70.2046C5.05659 70.1274 5.13761 70.0502 5.22311 69.973C13.4788 62.6626 20.5018 57.575 26.3955 55.4985C26.4 55.4944 28.6957 54.788 29.7767 54.619C32.8593 54.1369 35.5821 54.6702 37.9671 56.364C38.3821 56.6588 38.7738 56.9669 39.1428 57.2875C27.4695 66.3258 18.5063 74.7775 11.6654 82.77Z" fill="url(#paint0_radial_938_24593)"/>
<path id="Lunula" opacity="0.8" d="M39.1428 57.2876C38.7739 56.9669 38.3821 56.6588 37.9672 56.3641C35.5822 54.6702 32.8594 54.1369 29.7768 54.619C28.6958 54.7881 27.3779 57.739 33.1887 61.0505C33.4327 61.1896 33.6739 61.3211 33.912 61.4452C35.5361 60.1006 37.29 58.7111 39.1428 57.2876Z" fill="#FDF9F1"/>
<g id="Group_2">
<path id="Vector_261" d="M40.4934 56.34C41.966 54.8039 52.7491 45.6794 56.6322 43.7322C58.2518 42.92 58.3446 44.7746 57.2898 45.7425C53.6908 49.0451 43.0529 56.0465 40.8041 57.2889L40.4934 56.34Z" fill="#FAC1D8"/>
<path id="Vector_262" d="M40.3263 56.3017C40.4885 56.1084 40.7082 55.8725 40.8682 55.7301L41.3747 55.2562L42.4026 54.3298C43.0912 53.7165 43.7859 53.111 44.4862 52.5118C45.8927 51.3208 47.3153 50.149 48.7551 48.9976C50.1978 47.8497 51.6558 46.7199 53.1557 45.6403C53.9039 45.0982 54.6677 44.575 55.4592 44.0837C55.6522 43.9554 55.8594 43.8429 56.065 43.7286C56.2773 43.6166 56.4579 43.4936 56.7044 43.3927C56.9433 43.2987 57.214 43.2148 57.5365 43.2691C57.873 43.3139 58.1606 43.6362 58.2208 43.9279C58.3558 44.5188 58.1566 45.0314 57.8861 45.4657C57.7517 45.6792 57.5572 45.8859 57.3808 46.033L56.854 46.4914C56.145 47.0918 55.4161 47.6602 54.6807 48.2191C53.2075 49.3329 51.7044 50.4011 50.1885 51.4496C47.1492 53.5393 44.0957 55.5906 40.887 57.4387L40.7071 57.5423L40.6413 57.342C40.5281 56.9979 40.4229 56.6466 40.3263 56.3017ZM40.6604 56.3779C40.7709 56.6655 40.8729 56.9469 40.9669 57.2354L40.7212 57.1387C42.2937 56.2107 43.8233 55.1749 45.3505 54.1552C46.8818 53.137 48.4009 52.1003 49.9059 51.0443C51.4104 49.988 52.9015 48.9122 54.3575 47.7954C55.0837 47.2353 55.8028 46.6662 56.4945 46.072L57.0061 45.6205C57.1807 45.4707 57.3026 45.336 57.4153 45.1607C57.6325 44.8307 57.7566 44.394 57.6742 44.0775C57.6281 43.9229 57.559 43.8489 57.4287 43.8219C57.2932 43.7954 57.1002 43.8354 56.9156 43.9111C56.7342 43.9822 56.5276 44.1133 56.3329 44.2152C56.1355 44.3232 55.937 44.4286 55.7456 44.554C54.9698 45.0281 54.2099 45.5405 53.464 46.0732C51.9683 47.134 50.5073 48.2499 49.0612 49.3841C47.6175 50.522 46.1905 51.6819 44.7784 52.8594C44.068 53.4429 43.3627 54.0329 42.6645 54.6301L40.6604 56.3779Z" fill="#E87DAD"/>
</g>
<path id="Nail root" d="M39.4845 58.3167C30.0208 65.1108 15.0902 79.4265 11.2845 84.7521C11.1593 84.9272 10.9194 84.9704 10.7389 84.853L10.3647 84.6096C12.8688 80.2087 29.0894 64.5054 39.1418 57.2886L56.5799 44.9971L39.4845 58.3167Z" fill="url(#paint1_linear_938_24593)"/>
</g>
<g id="OUTLINE">
<path id="Vector_263" d="M40.3913 55.4854L40.4931 56.3401L39.1416 57.289" stroke="#A67B2A" stroke-width="0.342692" stroke-miterlimit="10" stroke-linecap="round" stroke-linejoin="round"/>
<path id="Nail root_2" d="M39.4842 58.3167C30.0206 65.1108 15.09 79.4265 11.2843 84.7521C11.1591 84.9272 10.9191 84.9704 10.7386 84.853L10.3645 84.6096C12.8686 80.2087 29.0892 64.5054 39.1415 57.2886L56.5796 44.9971L39.4842 58.3167Z" stroke="#A67B2A" stroke-width="0.342692" stroke-miterlimit="10" stroke-linecap="round" stroke-linejoin="round"/>
<path id="Nail OUTLINE" d="M10.3646 84.6095C4.50222 80.0051 0.940998 74.1237 4.9755 70.2046C5.05646 70.1274 5.13748 70.0502 5.22299 69.973C13.4786 62.6626 20.5017 57.575 26.3954 55.4985C26.3999 55.4944 26.3999 55.4944 26.3999 55.4944C30.908 53.9056 34.7456 54.0763 37.9669 56.364C38.3618 56.6444 38.7355 56.9369 39.0886 57.2408C27.6015 66.2387 13.8566 79.1164 10.3646 84.6095Z" stroke="#A67B2A" stroke-width="0.342692" stroke-miterlimit="10" stroke-linecap="round" stroke-linejoin="round"/>
<g id="Wringkles">
<path id="Vector_264" d="M51.0903 20.8711L55.5 20.6662C56.9552 20.5986 58.3914 20.9888 59.5638 21.7704C61.6786 23.3958 63.8118 24.9388 65.9667 26.3848" stroke="#A67B2A" stroke-width="0.342692" stroke-miterlimit="10" stroke-linecap="round" stroke-linejoin="round"/>
<path id="Vector_265" d="M52.1152 16.7939C52.1152 16.7939 54.6194 16.3931 56.1805 16.2358C58.7401 15.9779 61.9713 17.849 62.2196 17.9744C64.7179 19.2368 67.2634 20.9882 69.3297 22.9061" stroke="#A67B2A" stroke-width="0.342692" stroke-miterlimit="10" stroke-linecap="round" stroke-linejoin="round"/>
</g>
<path id="BG OUTLINE" d="M100.171 6.72991L83.343 0.666427C79.1273 -0.849071 74.3047 1.34527 71.0225 4.17486C64.0359 10.1981 51.6155 14.3403 47.4247 19.8998C41.4716 27.7972 34.2161 36.7029 26.0744 43.5968C20.9848 47.9064 9.96301 57.4755 4.63542 64.2285C3.16933 66.0868 0.171387 70.7525 0.171387 77.2111C0.171387 85.6096 5.81649 93.3755 13.363 97.246" stroke="#A67B2A" stroke-width="0.342692" stroke-miterlimit="10" stroke-linecap="round" stroke-linejoin="round"/>
<path id="Cuticle OUTLINE" d="M16.317 60.2674C17.8692 58.8916 30.4937 48.3039 40.3914 55.4851" stroke="#A67B2A" stroke-width="0.342692" stroke-miterlimit="10" stroke-linecap="round" stroke-linejoin="round"/>
<path id="Section OUTLINE" d="M10.3645 84.6096C8.66156 86.993 10.8167 94.9699 12.8086 96.8045C16.6446 100.338 31.6892 101.702 40.9588 96.7963C52.2154 90.8392 61.1722 82.1484 79.3261 63.9112C79.3261 63.9112 91.5395 59.9279 100.171 54.4493V6.72998C100.171 6.72998 77.3102 13.5938 69.3294 22.9062C67.7161 23.6207 66.621 24.8036 65.9668 26.3848C65.9668 26.3848 47.0904 42.7979 43.8919 48.7426C40.6934 54.6872 40.3911 55.4851 40.3911 55.4851C39.9244 55.7585 39.1736 56.4377 39.1414 57.2888C29.0892 64.5055 12.8686 80.2088 10.3645 84.6096Z" stroke="#A67B2A" stroke-width="0.342692" stroke-miterlimit="10" stroke-linecap="round" stroke-linejoin="round"/>
</g>
</g>
<defs>
<radialGradient id="paint0_radial_938_24593" cx="0" cy="0" r="1" gradientTransform="matrix(-21.2958 24.44 21.5379 15.3109 33.9679 55.8129)" gradientUnits="userSpaceOnUse">
<stop offset="0.2" stop-color="#FDCC73"/>
<stop offset="0.8" stop-color="#FDE3B3"/>
<stop offset="1" stop-color="#FDD385"/>
</radialGradient>
<linearGradient id="paint1_linear_938_24593" x1="9.78722" y1="81.2328" x2="37.1385" y2="62.7195" gradientUnits="userSpaceOnUse">
<stop offset="0.0196" stop-color="#FDF8EE"/>
<stop offset="0.0217" stop-color="#FDCC73"/>
<stop offset="0.9393" stop-color="#FDCC73"/>
<stop offset="0.9405" stop-color="#FDF9F1"/>
</linearGradient>
</defs>
</svg>
