<svg width="60" height="136" viewBox="0 0 60 136" fill="none" xmlns="http://www.w3.org/2000/svg">
<g id="R-ICO-014664">
<g id="Group">
<path id="Vector" d="M15.5482 135.2C14.4939 135.2 13.6392 134.345 13.6392 133.291V99.6446C13.6392 91.8094 18.1768 87.495 22.5654 83.3227C26.8104 79.287 30.8205 75.4749 30.8205 68.3832V41.8315C30.8205 33.0334 33.314 29.0196 35.5129 25.4788C37.4769 22.3179 39.1725 19.5881 39.1725 13.5087C39.1725 12.4544 40.0273 11.5996 41.0816 11.5996C42.1358 11.5996 42.9906 12.4544 42.9906 13.5087C42.9906 20.6778 40.8383 24.1426 38.7568 27.4936C36.639 30.9025 34.6386 34.1226 34.6386 41.8315V68.3832C34.6386 77.1131 29.6227 81.882 25.1969 86.0897C21.0441 90.0383 17.4573 93.4476 17.4573 99.6446V133.291C17.4572 134.345 16.6025 135.2 15.5482 135.2Z" fill="url(#paint0_linear_938_23011)"/>
<path id="Vector_2" d="M57.9082 20.6062C52.9441 25.5702 46.134 24.928 40.1356 18.9296C34.1374 12.9314 33.4951 6.12129 38.4592 1.15716C40.0021 -0.385722 42.5041 -0.385722 44.047 1.15716C45.5899 2.70005 45.5899 5.20205 44.047 6.74494C43.3109 7.48105 41.5868 9.20512 45.7234 13.3417C49.8602 17.4785 51.5842 15.7545 52.3204 15.0183C53.8633 13.4755 56.3653 13.4755 57.9082 15.0183C59.4511 16.5612 59.4511 19.0632 57.9082 20.6062Z" fill="url(#paint1_radial_938_23011)"/>
<path id="Vector_3" d="M22.1325 124.089C15.1122 124.091 10.7496 118.823 10.7476 110.34C10.7455 101.857 15.1056 96.5862 22.1258 96.5845C24.3079 96.584 26.0774 98.3527 26.0779 100.535C26.0784 102.717 24.3097 104.486 22.1277 104.487C21.0867 104.487 18.6484 104.488 18.6499 110.338C18.6513 116.188 21.0895 116.187 22.1305 116.187C24.3126 116.187 26.0821 117.955 26.0826 120.137C26.0832 122.319 24.3144 124.089 22.1325 124.089Z" fill="url(#paint2_radial_938_23011)"/>
</g>
<g id="Group_2">
<path id="Vector_4" d="M43.5171 135.2C44.5714 135.2 45.4262 134.345 45.4262 133.291V99.6446C45.4262 91.8094 40.8885 87.495 36.4999 83.3227C32.2549 79.287 28.2448 75.4749 28.2448 68.3832V41.8315C28.2448 33.0334 25.7513 29.0196 23.5524 25.4788C21.5884 22.3179 19.8928 19.5881 19.8928 13.5087C19.8928 12.4544 19.0381 11.5996 17.9838 11.5996C16.9295 11.5996 16.0747 12.4544 16.0747 13.5087C16.0747 20.6778 18.227 24.1426 20.3085 27.4936C22.4263 30.9025 24.4267 34.1226 24.4267 41.8315V68.3832C24.4267 77.1131 29.4426 81.882 33.8684 86.0897C38.0212 90.0383 41.608 93.4476 41.608 99.6446V133.291C41.6081 134.345 42.4629 135.2 43.5171 135.2Z" fill="url(#paint3_linear_938_23011)"/>
<path id="Vector_5" d="M1.15713 20.6062C6.12118 25.5702 12.9313 24.928 18.9297 18.9296C24.9279 12.9314 25.5702 6.12129 20.6061 1.15716C19.0633 -0.385722 16.5613 -0.385722 15.0184 1.15716C13.4755 2.70005 13.4755 5.20205 15.0184 6.74494C15.7545 7.48105 17.4786 9.20512 13.342 13.3417C9.20523 17.4785 7.48116 15.7545 6.74497 15.0183C5.20209 13.4755 2.70009 13.4755 1.1572 15.0183C-0.385685 16.5612 -0.385758 19.0632 1.15713 20.6062Z" fill="url(#paint4_radial_938_23011)"/>
<path id="Vector_6" d="M36.9331 124.089C43.9533 124.091 48.316 118.823 48.318 110.34C48.3201 101.857 43.96 96.5862 36.9397 96.5845C34.7577 96.584 32.9881 98.3527 32.9876 100.535C32.9871 102.717 34.7558 104.486 36.9378 104.487C37.9788 104.487 40.4171 104.488 40.4157 110.338C40.4142 116.188 37.976 116.187 36.935 116.187C34.753 116.187 32.9834 117.955 32.9829 120.137C32.9823 122.319 34.751 124.089 36.9331 124.089Z" fill="url(#paint5_radial_938_23011)"/>
</g>
</g>
<defs>
<linearGradient id="paint0_linear_938_23011" x1="-0.413792" y1="81.0975" x2="57.0436" y2="65.7019" gradientUnits="userSpaceOnUse">
<stop stop-color="#270F85"/>
<stop offset="1" stop-color="#C8B6FF"/>
</linearGradient>
<radialGradient id="paint1_radial_938_23011" cx="0" cy="0" r="1" gradientUnits="userSpaceOnUse" gradientTransform="translate(49.7602 9.33465) rotate(-45) scale(15.3571)">
<stop stop-color="#D4E8FF"/>
<stop offset="1" stop-color="#465791"/>
</radialGradient>
<radialGradient id="paint2_radial_938_23011" cx="0" cy="0" r="1" gradientUnits="userSpaceOnUse" gradientTransform="translate(24.327 110.336) rotate(-0.0151552) scale(15.3576 15.3576)">
<stop stop-color="#D4E8FF"/>
<stop offset="1" stop-color="#465791"/>
</radialGradient>
<linearGradient id="paint3_linear_938_23011" x1="59.4791" y1="81.0975" x2="2.02176" y2="65.7019" gradientUnits="userSpaceOnUse">
<stop stop-color="#270F85"/>
<stop offset="1" stop-color="#C8B6FF"/>
</linearGradient>
<radialGradient id="paint4_radial_938_23011" cx="0" cy="0" r="1" gradientUnits="userSpaceOnUse" gradientTransform="translate(9.2886 9.29672) rotate(-135) scale(15.3571)">
<stop stop-color="#D4E8FF"/>
<stop offset="1" stop-color="#465791"/>
</radialGradient>
<radialGradient id="paint5_radial_938_23011" cx="0" cy="0" r="1" gradientUnits="userSpaceOnUse" gradientTransform="translate(34.7655 110.376) rotate(-179.985) scale(15.3576 15.3576)">
<stop stop-color="#D4E8FF"/>
<stop offset="1" stop-color="#465791"/>
</radialGradient>
</defs>
</svg>
