<svg width="51" height="23" viewBox="0 0 51 23" fill="none" xmlns="http://www.w3.org/2000/svg">
<g id="R-ICO-014828">
<g id="PROTEIN">
<path d="M1.12207 11.4707C1.12207 5.94786 5.59922 1.4707 11.1221 1.4707H39.1221C44.6449 1.4707 49.1221 5.94786 49.1221 11.4707C49.1221 16.9936 44.6449 21.4707 39.1221 21.4707H11.1221C5.59922 21.4707 1.12207 16.9936 1.12207 11.4707Z" fill="url(#paint0_linear_938_24194)"/>
<path d="M40.5709 3.08598C40.0949 2.99751 39.6103 2.94897 39.1221 2.94059C29.7887 2.80294 20.4554 2.44276 11.1221 1.61071C11.1221 1.51734 11.1221 1.42398 11.1221 1.33061C20.4554 0.498559 29.7887 0.138383 39.1221 0.000731468C39.7743 -0.00771546 40.4287 0.039569 41.0751 0.143471C46.4659 0.939469 50.6639 6.13052 50.4554 11.4707C50.4497 11.7946 50.4306 12.1146 50.3979 12.4357C49.9489 18.1291 44.5208 22.6497 39.1225 22.2366C39.1224 22.2366 39.1222 22.2365 39.1221 22.2365C34.1708 21.9928 29.2191 21.8173 24.2679 21.9237C19.8861 22.0148 15.5039 22.3452 11.1221 22.5589C10.491 22.5867 9.8548 22.5594 9.224 22.4746C3.95996 21.8322 -0.251536 16.7134 0.0118828 11.4707C0.0203286 11.1533 0.0421915 10.8398 0.0776354 10.5257C0.582969 4.949 6.02884 0.670789 11.1221 1.33061C11.1221 1.42398 11.1221 1.51734 11.1221 1.61071C6.17231 2.05477 2.37931 6.26641 2.23827 10.7084C2.22571 10.9627 2.22378 11.2155 2.23217 11.4707C2.31779 15.6675 5.55862 19.379 9.61754 20.1786C10.1093 20.2863 10.6124 20.3548 11.1221 20.3825C15.504 20.596 19.8861 20.9253 24.2679 21.0164C29.2191 21.1228 34.1707 20.9487 39.1221 20.7049C39.1222 20.7049 39.1223 20.7049 39.1225 20.7049C43.7668 20.5068 47.5764 16.5385 47.7744 12.2138C47.7897 11.9662 47.7944 11.7198 47.7888 11.4707C47.7582 7.37112 44.503 3.73172 40.5709 3.08598Z" fill="#189E7E"/>
<text id="P" fill="white" xml:space="preserve" style="white-space: pre" font-family="Arial" font-size="12" font-weight="bold" letter-spacing="0em"><tspan x="8.44043" y="15.6309">ARG1</tspan></text>
</g>
</g>
<defs>
<linearGradient id="paint0_linear_938_24194" x1="25.1221" y1="1.4707" x2="25.1221" y2="21.4707" gradientUnits="userSpaceOnUse">
<stop stop-color="#189E7E"/>
<stop offset="1" stop-color="#D9B440"/>
</linearGradient>
</defs>
</svg>
