<svg width="54" height="57" viewBox="0 0 54 57" fill="none" xmlns="http://www.w3.org/2000/svg">
<g id="R-ICO-014507">
<g id="Group">
<g id="BOTTOM LINKS">
<path id="Vector" d="M27.1332 51.5289C26.3714 51.8172 25.5153 51.9737 24.6677 51.9737C22.1624 51.9737 19.5833 50.6068 19.5833 46.5103" stroke="#E56060" stroke-miterlimit="10" stroke-linecap="round" stroke-linejoin="round"/>
<path id="Vector_2" d="M0.5 53.9717C3.0053 53.9717 5.5844 52.6048 5.5844 48.5083" stroke="#E56060" stroke-miterlimit="10" stroke-linecap="round" stroke-linejoin="round"/>
<path id="Vector_3" d="M17.5844 48.5083C17.5844 50.9386 11.5844 50.9672 11.5844 48.5083" stroke="#E56060" stroke-miterlimit="10" stroke-linecap="round" stroke-linejoin="round"/>
<path id="Vector_4" d="M13.5844 46.5103C13.5844 48.9406 7.58435 48.9692 7.58435 46.5103" stroke="#E56060" stroke-miterlimit="10" stroke-linecap="round" stroke-linejoin="round"/>
</g>
<g id="BACK">
<path id="Vector_5" d="M7.58435 46.5083C6.75575 46.5083 6.08435 45.8364 6.08435 45.0083V3.00732C6.08435 2.17922 6.75575 1.50732 7.58435 1.50732C8.41295 1.50732 9.08435 2.17922 9.08435 3.00732V45.0083C9.08435 45.8364 8.41295 46.5083 7.58435 46.5083Z" fill="url(#paint0_linear_938_24441)"/>
<path id="Vector_6" d="M13.5844 46.5083C12.7558 46.5083 12.0844 45.8364 12.0844 45.0083V3.00732C12.0844 2.17922 12.7558 1.50732 13.5844 1.50732C14.413 1.50732 15.0844 2.17922 15.0844 3.00732V45.0083C15.0844 45.8364 14.413 46.5083 13.5844 46.5083Z" fill="url(#paint1_linear_938_24441)"/>
<path id="Vector_7" d="M19.5844 46.5083C18.7558 46.5083 18.0844 45.8364 18.0844 45.0083V3.00732C18.0844 2.17922 18.7558 1.50732 19.5844 1.50732C20.413 1.50732 21.0844 2.17922 21.0844 3.00732V45.0083C21.0844 45.8364 20.413 46.5083 19.5844 46.5083Z" fill="url(#paint2_linear_938_24441)"/>
</g>
<g id="SHADE" opacity="0.5">
<path id="Vector_8" d="M8.08331 6.01032V46.4203C7.92331 46.4803 7.76331 46.5103 7.58331 46.5103C7.40331 46.5103 7.24331 46.4803 7.08331 46.4203V5.01032C7.08331 4.86032 7.06331 4.72032 7.01331 4.58032C7.63341 4.76032 8.08331 5.33032 8.08331 6.01032Z" fill="url(#paint3_linear_938_24441)"/>
<path id="Vector_9" d="M14.0833 6.01032V46.4203C13.9233 46.4803 13.7633 46.5103 13.5833 46.5103C13.4033 46.5103 13.2433 46.4803 13.0833 46.4203V5.01032C13.0833 4.86032 13.0633 4.72032 13.0133 4.58032C13.6334 4.76032 14.0833 5.33032 14.0833 6.01032Z" fill="url(#paint4_linear_938_24441)"/>
<path id="Vector_10" d="M20.0833 6.01032V46.4203C19.9233 46.4803 19.7633 46.5103 19.5833 46.5103C19.4033 46.5103 19.2433 46.4803 19.0833 46.4203V5.01032C19.0833 4.86032 19.0633 4.72032 19.0133 4.58032C19.6334 4.76032 20.0833 5.33032 20.0833 6.01032Z" fill="url(#paint5_linear_938_24441)"/>
</g>
<g id="FRONT">
<path id="Vector_11" d="M5.58435 48.5083C4.75575 48.5083 4.08435 47.8364 4.08435 47.0083V5.00732C4.08435 4.17922 4.75575 3.50732 5.58435 3.50732C6.41295 3.50732 7.08435 4.17922 7.08435 5.00732V47.0083C7.08435 47.8364 6.41295 48.5083 5.58435 48.5083Z" fill="url(#paint6_linear_938_24441)"/>
<path id="Vector_12" d="M11.5844 48.5083C10.7558 48.5083 10.0844 47.8364 10.0844 47.0083V5.00732C10.0844 4.17922 10.7558 3.50732 11.5844 3.50732C12.413 3.50732 13.0844 4.17922 13.0844 5.00732V47.0083C13.0844 47.8364 12.413 48.5083 11.5844 48.5083Z" fill="url(#paint7_linear_938_24441)"/>
<path id="Vector_13" d="M17.5844 48.5083C16.7558 48.5083 16.0844 47.8364 16.0844 47.0083V5.00732C16.0844 4.17922 16.7558 3.50732 17.5844 3.50732C18.413 3.50732 19.0844 4.17922 19.0844 5.00732V47.0083C19.0844 47.8364 18.413 48.5083 17.5844 48.5083Z" fill="url(#paint8_linear_938_24441)"/>
</g>
<g id="TOP LINKS">
<path id="Vector_14" d="M19.5844 1.5073C19.5844 -0.0847014 17.5844 -0.0465016 17.5844 3.5073" stroke="#E56060" stroke-miterlimit="10" stroke-linecap="round" stroke-linejoin="round"/>
<path id="Vector_15" d="M13.5844 1.5073C13.5844 -0.0847014 11.5844 -0.0465016 11.5844 3.5073" stroke="#E56060" stroke-miterlimit="10" stroke-linecap="round" stroke-linejoin="round"/>
<path id="Vector_16" d="M7.58435 1.5073C7.58435 -0.0847014 5.58435 -0.0465016 5.58435 3.5073" stroke="#E56060" stroke-miterlimit="10" stroke-linecap="round" stroke-linejoin="round"/>
</g>
<path id="Catalytic domain" d="M24.6677 56.4736C27.153 56.4736 29.1677 54.4589 29.1677 51.9736C29.1677 49.4884 27.153 47.4736 24.6677 47.4736C22.1824 47.4736 20.1677 49.4884 20.1677 51.9736C20.1677 54.4589 22.1824 56.4736 24.6677 56.4736Z" fill="url(#paint9_radial_938_24441)"/>
</g>
<g id="Group_2">
<g id="BOTTOM LINKS_2">
<path id="Vector_17" d="M48.8353 51.9737C46.33 51.9737 43.7509 50.6068 43.7509 46.5103" stroke="#E56060" stroke-miterlimit="10" stroke-linecap="round" stroke-linejoin="round"/>
<path id="Vector_18" d="M41.752 48.5083C41.752 50.9386 35.752 50.9672 35.752 48.5083" stroke="#E56060" stroke-miterlimit="10" stroke-linecap="round" stroke-linejoin="round"/>
<path id="Vector_19" d="M37.752 46.5103C37.752 48.9406 31.752 48.9692 31.752 46.5103" stroke="#E56060" stroke-miterlimit="10" stroke-linecap="round" stroke-linejoin="round"/>
<path id="Vector_20" d="M29.752 48.5083C29.752 49.8969 28.6229 50.9651 27.1331 51.529" stroke="#E56060" stroke-miterlimit="10" stroke-linecap="round" stroke-linejoin="round"/>
</g>
<g id="BACK_2">
<path id="Vector_21" d="M31.752 46.5083C30.9234 46.5083 30.252 45.8364 30.252 45.0083V3.00732C30.252 2.17922 30.9234 1.50732 31.752 1.50732C32.5806 1.50732 33.252 2.17922 33.252 3.00732V45.0083C33.252 45.8364 32.5806 46.5083 31.752 46.5083Z" fill="url(#paint10_linear_938_24441)"/>
<path id="Vector_22" d="M37.752 46.5083C36.9234 46.5083 36.252 45.8364 36.252 45.0083V3.00732C36.252 2.17922 36.9234 1.50732 37.752 1.50732C38.5806 1.50732 39.252 2.17922 39.252 3.00732V45.0083C39.252 45.8364 38.5806 46.5083 37.752 46.5083Z" fill="url(#paint11_linear_938_24441)"/>
<path id="Vector_23" d="M43.752 46.5083C42.9234 46.5083 42.252 45.8364 42.252 45.0083V3.00732C42.252 2.17922 42.9234 1.50732 43.752 1.50732C44.5806 1.50732 45.252 2.17922 45.252 3.00732V45.0083C45.252 45.8364 44.5806 46.5083 43.752 46.5083Z" fill="url(#paint12_linear_938_24441)"/>
</g>
<g id="SHADE_2" opacity="0.5">
<path id="Vector_24" d="M32.2509 6.01032V46.4203C32.0909 46.4803 31.9309 46.5103 31.7509 46.5103C31.5709 46.5103 31.4109 46.4803 31.2509 46.4203V5.01032C31.2509 4.86032 31.2309 4.72032 31.1809 4.58032C31.8009 4.76032 32.2509 5.33032 32.2509 6.01032Z" fill="url(#paint13_linear_938_24441)"/>
<path id="Vector_25" d="M38.2509 6.01032V46.4203C38.0909 46.4803 37.9309 46.5103 37.7509 46.5103C37.5709 46.5103 37.4109 46.4803 37.2509 46.4203V5.01032C37.2509 4.86032 37.2309 4.72032 37.1809 4.58032C37.8009 4.76032 38.2509 5.33032 38.2509 6.01032Z" fill="url(#paint14_linear_938_24441)"/>
<path id="Vector_26" d="M44.2509 6.01032V46.4203C44.0909 46.4803 43.9309 46.5103 43.7509 46.5103C43.5709 46.5103 43.4109 46.4803 43.2509 46.4203V5.01032C43.2509 4.86032 43.2309 4.72032 43.1809 4.58032C43.8009 4.76032 44.2509 5.33032 44.2509 6.01032Z" fill="url(#paint15_linear_938_24441)"/>
</g>
<g id="FRONT_2">
<path id="Vector_27" d="M29.752 48.5083C28.9234 48.5083 28.252 47.8364 28.252 47.0083V5.00732C28.252 4.17922 28.9234 3.50732 29.752 3.50732C30.5806 3.50732 31.252 4.17922 31.252 5.00732V47.0083C31.252 47.8364 30.5806 48.5083 29.752 48.5083Z" fill="url(#paint16_linear_938_24441)"/>
<path id="Vector_28" d="M35.752 48.5083C34.9234 48.5083 34.252 47.8364 34.252 47.0083V5.00732C34.252 4.17922 34.9234 3.50732 35.752 3.50732C36.5806 3.50732 37.252 4.17922 37.252 5.00732V47.0083C37.252 47.8364 36.5806 48.5083 35.752 48.5083Z" fill="url(#paint17_linear_938_24441)"/>
<path id="Vector_29" d="M41.752 48.5083C40.9234 48.5083 40.252 47.8364 40.252 47.0083V5.00732C40.252 4.17922 40.9234 3.50732 41.752 3.50732C42.5806 3.50732 43.252 4.17922 43.252 5.00732V47.0083C43.252 47.8364 42.5806 48.5083 41.752 48.5083Z" fill="url(#paint18_linear_938_24441)"/>
</g>
<g id="TOP LINKS_2">
<path id="Vector_30" d="M43.752 1.5073C43.752 -0.0847014 41.752 -0.0465016 41.752 3.5073" stroke="#E56060" stroke-miterlimit="10" stroke-linecap="round" stroke-linejoin="round"/>
<path id="Vector_31" d="M37.752 1.5073C37.752 -0.0847014 35.752 -0.0465016 35.752 3.5073" stroke="#E56060" stroke-miterlimit="10" stroke-linecap="round" stroke-linejoin="round"/>
<path id="Vector_32" d="M31.752 1.5073C31.752 -0.0847014 29.752 -0.0465016 29.752 3.5073" stroke="#E56060" stroke-miterlimit="10" stroke-linecap="round" stroke-linejoin="round"/>
<path id="Vector_33" d="M53.4775 49.0923C53.0149 50.2518 52.2278 51.0065 51.301 51.4515" stroke="#E56060" stroke-miterlimit="10" stroke-linecap="round" stroke-linejoin="round"/>
</g>
<path id="Catalytic domain_2" d="M48.8352 56.4736C51.3205 56.4736 53.3352 54.4589 53.3352 51.9736C53.3352 49.4884 51.3205 47.4736 48.8352 47.4736C46.3499 47.4736 44.3352 49.4884 44.3352 51.9736C44.3352 54.4589 46.3499 56.4736 48.8352 56.4736Z" fill="url(#paint19_radial_938_24441)"/>
</g>
</g>
<defs>
<linearGradient id="paint0_linear_938_24441" x1="6.08435" y1="24.0078" x2="9.08435" y2="24.0078" gradientUnits="userSpaceOnUse">
<stop stop-color="#A37F0B"/>
<stop offset="0.1489" stop-color="#E5B829"/>
<stop offset="0.2701" stop-color="#E5C560"/>
<stop offset="0.451" stop-color="#D6AB22"/>
<stop offset="1" stop-color="#A37F0B"/>
</linearGradient>
<linearGradient id="paint1_linear_938_24441" x1="12.0844" y1="24.0078" x2="15.0844" y2="24.0078" gradientUnits="userSpaceOnUse">
<stop stop-color="#A37F0B"/>
<stop offset="0.1489" stop-color="#E5B829"/>
<stop offset="0.2701" stop-color="#E5C560"/>
<stop offset="0.451" stop-color="#D6AB22"/>
<stop offset="1" stop-color="#A37F0B"/>
</linearGradient>
<linearGradient id="paint2_linear_938_24441" x1="18.0844" y1="24.0078" x2="21.0844" y2="24.0078" gradientUnits="userSpaceOnUse">
<stop stop-color="#A37F0B"/>
<stop offset="0.1489" stop-color="#E5B829"/>
<stop offset="0.2701" stop-color="#E5C560"/>
<stop offset="0.451" stop-color="#D6AB22"/>
<stop offset="1" stop-color="#A37F0B"/>
</linearGradient>
<linearGradient id="paint3_linear_938_24441" x1="7.01331" y1="25.5453" x2="8.08331" y2="25.5453" gradientUnits="userSpaceOnUse">
<stop offset="0.4" stop-color="#092E56"/>
<stop offset="1" stop-color="#092E56" stop-opacity="0"/>
</linearGradient>
<linearGradient id="paint4_linear_938_24441" x1="13.0133" y1="25.5453" x2="14.0833" y2="25.5453" gradientUnits="userSpaceOnUse">
<stop offset="0.4" stop-color="#092E56"/>
<stop offset="1" stop-color="#092E56" stop-opacity="0"/>
</linearGradient>
<linearGradient id="paint5_linear_938_24441" x1="19.0133" y1="25.5453" x2="20.0833" y2="25.5453" gradientUnits="userSpaceOnUse">
<stop offset="0.4" stop-color="#092E56"/>
<stop offset="1" stop-color="#092E56" stop-opacity="0"/>
</linearGradient>
<linearGradient id="paint6_linear_938_24441" x1="4.08435" y1="26.0078" x2="7.08435" y2="26.0078" gradientUnits="userSpaceOnUse">
<stop stop-color="#A37F0B"/>
<stop offset="0.1489" stop-color="#E5B829"/>
<stop offset="0.2701" stop-color="#E5C560"/>
<stop offset="0.451" stop-color="#D6AB22"/>
<stop offset="1" stop-color="#A37F0B"/>
</linearGradient>
<linearGradient id="paint7_linear_938_24441" x1="10.0844" y1="26.0078" x2="13.0844" y2="26.0078" gradientUnits="userSpaceOnUse">
<stop stop-color="#A37F0B"/>
<stop offset="0.1489" stop-color="#E5B829"/>
<stop offset="0.2701" stop-color="#E5C560"/>
<stop offset="0.451" stop-color="#D6AB22"/>
<stop offset="1" stop-color="#A37F0B"/>
</linearGradient>
<linearGradient id="paint8_linear_938_24441" x1="16.0844" y1="26.0078" x2="19.0844" y2="26.0078" gradientUnits="userSpaceOnUse">
<stop stop-color="#A37F0B"/>
<stop offset="0.1489" stop-color="#E5B829"/>
<stop offset="0.2701" stop-color="#E5C560"/>
<stop offset="0.451" stop-color="#D6AB22"/>
<stop offset="1" stop-color="#A37F0B"/>
</linearGradient>
<radialGradient id="paint9_radial_938_24441" cx="0" cy="0" r="1" gradientUnits="userSpaceOnUse" gradientTransform="translate(24.6677 51.9736) scale(4.5)">
<stop stop-color="#60CFE5"/>
<stop offset="0.451" stop-color="#22B8D6"/>
<stop offset="1" stop-color="#0B8AA3"/>
</radialGradient>
<linearGradient id="paint10_linear_938_24441" x1="30.252" y1="24.0078" x2="33.252" y2="24.0078" gradientUnits="userSpaceOnUse">
<stop stop-color="#A37F0B"/>
<stop offset="0.1489" stop-color="#E5B829"/>
<stop offset="0.2701" stop-color="#E5C560"/>
<stop offset="0.451" stop-color="#D6AB22"/>
<stop offset="1" stop-color="#A37F0B"/>
</linearGradient>
<linearGradient id="paint11_linear_938_24441" x1="36.252" y1="24.0078" x2="39.252" y2="24.0078" gradientUnits="userSpaceOnUse">
<stop stop-color="#A37F0B"/>
<stop offset="0.1489" stop-color="#E5B829"/>
<stop offset="0.2701" stop-color="#E5C560"/>
<stop offset="0.451" stop-color="#D6AB22"/>
<stop offset="1" stop-color="#A37F0B"/>
</linearGradient>
<linearGradient id="paint12_linear_938_24441" x1="42.252" y1="24.0078" x2="45.252" y2="24.0078" gradientUnits="userSpaceOnUse">
<stop stop-color="#A37F0B"/>
<stop offset="0.1489" stop-color="#E5B829"/>
<stop offset="0.2701" stop-color="#E5C560"/>
<stop offset="0.451" stop-color="#D6AB22"/>
<stop offset="1" stop-color="#A37F0B"/>
</linearGradient>
<linearGradient id="paint13_linear_938_24441" x1="31.1809" y1="25.5453" x2="32.2509" y2="25.5453" gradientUnits="userSpaceOnUse">
<stop offset="0.4" stop-color="#092E56"/>
<stop offset="1" stop-color="#092E56" stop-opacity="0"/>
</linearGradient>
<linearGradient id="paint14_linear_938_24441" x1="37.1809" y1="25.5453" x2="38.2509" y2="25.5453" gradientUnits="userSpaceOnUse">
<stop offset="0.4" stop-color="#092E56"/>
<stop offset="1" stop-color="#092E56" stop-opacity="0"/>
</linearGradient>
<linearGradient id="paint15_linear_938_24441" x1="43.1809" y1="25.5453" x2="44.2509" y2="25.5453" gradientUnits="userSpaceOnUse">
<stop offset="0.4" stop-color="#092E56"/>
<stop offset="1" stop-color="#092E56" stop-opacity="0"/>
</linearGradient>
<linearGradient id="paint16_linear_938_24441" x1="28.252" y1="26.0078" x2="31.252" y2="26.0078" gradientUnits="userSpaceOnUse">
<stop stop-color="#A37F0B"/>
<stop offset="0.1489" stop-color="#E5B829"/>
<stop offset="0.2701" stop-color="#E5C560"/>
<stop offset="0.451" stop-color="#D6AB22"/>
<stop offset="1" stop-color="#A37F0B"/>
</linearGradient>
<linearGradient id="paint17_linear_938_24441" x1="34.252" y1="26.0078" x2="37.252" y2="26.0078" gradientUnits="userSpaceOnUse">
<stop stop-color="#A37F0B"/>
<stop offset="0.1489" stop-color="#E5B829"/>
<stop offset="0.2701" stop-color="#E5C560"/>
<stop offset="0.451" stop-color="#D6AB22"/>
<stop offset="1" stop-color="#A37F0B"/>
</linearGradient>
<linearGradient id="paint18_linear_938_24441" x1="40.252" y1="26.0078" x2="43.252" y2="26.0078" gradientUnits="userSpaceOnUse">
<stop stop-color="#A37F0B"/>
<stop offset="0.1489" stop-color="#E5B829"/>
<stop offset="0.2701" stop-color="#E5C560"/>
<stop offset="0.451" stop-color="#D6AB22"/>
<stop offset="1" stop-color="#A37F0B"/>
</linearGradient>
<radialGradient id="paint19_radial_938_24441" cx="0" cy="0" r="1" gradientUnits="userSpaceOnUse" gradientTransform="translate(48.8352 51.9736) scale(4.5)">
<stop stop-color="#60CFE5"/>
<stop offset="0.451" stop-color="#22B8D6"/>
<stop offset="1" stop-color="#0B8AA3"/>
</radialGradient>
</defs>
</svg>
