<svg width="75" height="78" viewBox="0 0 75 78" fill="none" xmlns="http://www.w3.org/2000/svg">
<g id="R-ICO-014247">
<g id="BG">
<path id="Vector" d="M72.6533 36.9789C72.6533 38.7389 72.8933 42.6989 72.6533 44.3889C72.1833 47.7389 70.6233 51.5289 69.3334 54.5389C67.4734 58.8689 67.5734 63.7089 63.3634 64.8089C60.1034 65.6589 58.3033 69.2789 55.3634 70.9589C52.6334 72.5289 48.8334 72.0389 45.7134 72.8789C42.6034 73.7189 40.1834 75.8789 36.8034 75.8789C33.3534 75.8789 31.5234 74.3389 28.3535 73.4589C24.6935 72.4489 19.7535 71.9789 16.6435 69.9689C13.8435 68.1689 12.4335 65.3789 10.2134 62.9189C7.97336 60.4389 4.92336 58.2789 3.40326 55.2589C2.01326 52.4789 2.29326 49.6489 1.62326 46.5289C1.08326 43.9889 0.843262 41.2189 0.843262 38.5089C0.843262 34.8489 1.70326 32.5989 2.01326 29.1589C2.48326 23.9189 4.63326 22.3489 6.30326 19.5989C8.24316 16.4089 9.23336 13.0289 12.0133 10.5589C15.1633 7.75892 19.1233 8.13892 23.0832 6.51892C27.4232 4.75892 31.8332 1.13892 36.8032 1.13892C40.9833 1.13892 44.3032 2.93892 48.0532 4.20892C51.4732 5.36892 55.3832 5.88892 58.2832 7.92892C59.4832 8.77892 60.2932 10.7489 61.3832 11.7189C64.5731 14.5789 66.1632 17.4889 68.2132 21.2889C69.4432 23.5689 71.9031 25.4189 72.6531 27.9489C73.6433 31.3189 72.6533 33.3089 72.6533 36.9789Z" fill="url(#paint0_radial_938_25230)"/>
<path id="Vector_2" d="M73.5431 31.6288C74.4412 30.075 74.2952 27.9407 73.3364 26.4477C72.8056 25.621 71.9126 25.4069 71.3731 24.7288C70.7878 23.9932 70.4454 22.6379 69.9632 21.7888C69.0519 20.1836 67.9913 18.8792 66.878 17.4329C65.5465 15.7031 65.0538 13.4748 63.3132 11.8413C62.3557 10.9427 60.816 10.2186 60.0132 9.19879C59.4144 8.43809 59.2334 7.53809 58.4482 6.82879C57.5563 6.02309 56.4271 5.46279 55.3032 5.05879C53.3577 4.35939 51.2454 4.72249 49.3832 4.16879C48.5746 3.92829 47.7141 3.01759 46.9238 2.60679C45.7812 2.01289 44.5616 1.50159 43.3025 1.21219C42.2826 0.977789 41.2733 1.12829 40.2745 0.982589C39.2858 0.838289 38.3462 0.266889 37.2932 0.0988892C34.7769 -0.302611 32.5545 0.560289 30.5016 1.93049C27.6951 3.80369 23.8042 4.80089 20.6266 6.37959C19.5025 6.93809 19.0636 7.11599 17.8747 7.21889C16.548 7.33369 15.3224 7.38069 14.0607 7.86259C12.0216 8.64149 10.3836 10.1873 9.44295 12.1503C9.01045 13.0528 8.76805 13.8241 8.21775 14.6313C7.70555 15.3827 7.08495 16.0644 6.57915 16.8286C5.59745 18.312 4.57595 19.8582 3.73245 21.423C2.83765 23.0829 2.31535 24.9467 1.61115 26.6765C1.08175 27.9769 0.882147 29.3958 0.618147 30.7687C0.00254685 33.9701 -0.226453 36.825 0.271347 40.0676C0.762147 43.2647 0.493847 46.7582 0.893147 50.0687C1.15015 52.1996 1.58145 54.3478 2.84135 56.1343C3.50015 57.0685 4.44825 57.5943 5.15315 58.4387C5.83855 59.2598 6.28495 60.3461 6.98315 61.1987C8.31145 62.8208 9.79385 64.4002 11.2631 65.8987C12.0312 66.6821 13.0531 67.2605 13.7931 68.0287C14.5545 68.8191 15.0015 69.828 15.8775 70.5709C19.1817 73.373 23.857 73.6327 27.9338 74.3009C28.748 74.4344 29.7096 74.4918 30.4866 74.7378C31.3902 75.0238 32.1315 75.7266 33.0124 76.1488C35.0954 77.1473 37.4608 77.3682 39.6726 76.6858C41.6774 76.0672 43.1599 74.6431 45.0256 73.7988C46.8873 72.9563 49.0871 73.4594 51.1644 73.321C53.6377 73.1563 55.8192 72.4571 57.5932 70.6788C59.1102 69.1581 59.6142 67.507 61.5876 66.5332C63.1641 65.7553 64.9384 65.6911 66.3254 64.5109C68.0689 63.0273 68.7026 60.7083 69.2552 58.5811C69.8016 56.4786 70.1145 54.084 70.9251 52.0781C71.8132 49.8802 73.3242 48.1619 73.7164 45.6486C73.8817 44.5894 73.8811 43.5381 73.6892 42.4804C73.4176 40.9831 73.447 40.3304 73.7172 38.8543C74.1205 36.65 74.2847 33.7711 73.5431 31.6288ZM57.1731 68.3288C54.0258 70.7135 50.6679 70.5708 47.111 71.8127C45.2707 72.4553 43.4048 72.7618 41.5381 73.4038C39.7568 74.0164 38.1027 74.6278 36.1904 74.6474C31.8592 74.6917 28.4377 72.339 24.3449 71.2884C20.9045 70.4053 16.136 69.8318 14.0742 66.6927C13.0828 65.1834 12.4324 63.5403 11.2208 62.1523C9.82145 60.5492 8.06135 59.6142 6.46485 58.2719C3.60765 55.8695 3.74415 51.6559 3.18545 48.2158C2.97975 46.9491 2.61675 45.7223 2.29325 44.4825C1.67155 42.1 1.43835 40.5699 1.80695 38.1569C2.40195 34.262 2.93255 30.5425 3.22465 26.612C3.38745 24.421 5.27345 23.1761 6.55055 21.4788C7.72145 19.9226 8.53375 18.1754 9.08805 16.3122C9.67665 14.3337 10.4563 13.5137 12.056 12.1451C13.783 10.6676 15.6935 9.86039 17.7114 8.87919C19.4967 8.01099 21.2923 8.32869 23.2105 7.76929C25.2418 7.17689 27.1409 6.01049 28.7569 4.66259C30.9101 2.86659 34.7852 2.60289 37.5931 2.21379C38.4677 2.09259 39.2763 1.89489 40.072 2.12549C40.901 2.36569 41.7975 3.10929 42.6076 3.48399C44.7152 4.45889 46.6758 4.45999 48.808 5.06379C50.646 5.58429 52.5624 6.76789 54.4429 7.45879C55.7586 7.94219 58.1099 8.45999 59.088 9.59879C59.9886 10.6473 60.3504 12.3143 61.3888 13.4775C62.4481 14.6641 63.7826 15.6602 64.7964 16.8647C65.8511 18.1176 66.031 19.9612 66.8753 21.5028C67.8791 23.3356 70.0153 24.4033 70.7831 26.055C71.3783 27.3353 71.5556 28.891 72.0432 30.2188C72.4924 31.4423 72.4835 31.6961 72.0369 32.9425C71.674 33.9555 71.4419 35.0215 71.4032 36.0988C71.3216 38.3675 72.37 40.1638 71.858 42.3421C71.4464 44.0938 71.0602 45.866 70.701 47.6292C70.4877 48.6767 70.4832 49.8301 70.2279 50.8525C69.9705 51.883 69.2564 52.7733 68.7302 53.7338C67.4787 56.018 66.9378 58.527 65.8576 60.8731C65.093 62.5336 64.2342 63.1455 62.7085 63.9638C60.6208 65.0834 59.0758 66.9223 57.1731 68.3288Z" fill="#E07F28"/>
</g>
<g id="NUCLEUS">
<path id="Vector_3" d="M53.1551 43.6923C61.1301 43.6923 67.5951 37.2272 67.5951 29.2523C67.5951 21.2773 61.1301 14.8123 53.1551 14.8123C45.1801 14.8123 38.7151 21.2773 38.7151 29.2523C38.7151 37.2272 45.1801 43.6923 53.1551 43.6923Z" fill="url(#paint1_radial_938_25230)"/>
<path id="Vector_4" d="M53.155 44.5321C44.7249 44.5321 37.865 37.6721 37.865 29.2421C37.865 20.8121 44.725 13.9521 53.155 13.9521C61.585 13.9521 68.435 20.8121 68.435 29.2421C68.435 37.6721 61.585 44.5321 53.155 44.5321ZM53.155 15.6521C45.655 15.6521 39.555 21.7521 39.555 29.2521C39.555 36.7521 45.655 42.8521 53.155 42.8521C60.655 42.8521 66.755 36.7521 66.755 29.2521C66.755 21.7521 60.655 15.6521 53.155 15.6521Z" fill="#811628"/>
</g>
</g>
<defs>
<radialGradient id="paint0_radial_938_25230" cx="0" cy="0" r="1" gradientUnits="userSpaceOnUse" gradientTransform="translate(25.6836 30.8041) scale(36.3277 34.8092)">
<stop offset="0.0005" stop-color="#F8CEDB"/>
<stop offset="0.0711" stop-color="#F1BEBB"/>
<stop offset="0.1833" stop-color="#E7A98F"/>
<stop offset="0.3004" stop-color="#DF9669"/>
<stop offset="0.4212" stop-color="#D88749"/>
<stop offset="0.5468" stop-color="#D37C31"/>
<stop offset="0.6793" stop-color="#CF7320"/>
<stop offset="0.8233" stop-color="#CD6F16"/>
<stop offset="1" stop-color="#CC6D13"/>
</radialGradient>
<radialGradient id="paint1_radial_938_25230" cx="0" cy="0" r="1" gradientUnits="userSpaceOnUse" gradientTransform="translate(49.0284 23.2276) scale(14.2936 19.8081)">
<stop offset="0.0005" stop-color="#F8CEDB"/>
<stop offset="0.0716" stop-color="#F1B7C2"/>
<stop offset="0.1832" stop-color="#DF95A2"/>
<stop offset="0.3034" stop-color="#D07B88"/>
<stop offset="0.4329" stop-color="#C66675"/>
<stop offset="0.5765" stop-color="#BE5867"/>
<stop offset="0.7451" stop-color="#B84E5F"/>
<stop offset="1" stop-color="#B74B5C"/>
</radialGradient>
</defs>
</svg>
