<svg width="143" height="38" viewBox="0 0 143 38" fill="none" xmlns="http://www.w3.org/2000/svg">
<g id="R-ICO-014708">
<path id="Vector" d="M134.61 13.7558L131.675 15.5172C130.695 16.105 129.353 15.6673 128.676 14.5397C127.999 13.4121 128.245 12.0215 129.225 11.4337L132.16 9.67233C133.14 9.08453 134.483 9.52223 135.159 10.6498C135.836 11.7774 135.59 13.168 134.61 13.7558Z" fill="url(#paint0_linear_938_24454)"/>
<path id="Vector_2" d="M128.128 17.646L125.192 19.4074C124.213 19.9952 122.87 19.5575 122.194 18.4299C121.517 17.3023 121.763 15.9117 122.742 15.3239L125.678 13.5625C126.658 12.9747 128 13.4124 128.677 14.54C129.353 15.6677 129.108 17.0582 128.128 17.646Z" fill="url(#paint1_linear_938_24454)"/>
<path id="Vector_3" d="M121.645 21.5356L118.709 23.297C117.729 23.8848 116.387 23.4471 115.71 22.3195C115.034 21.1919 115.279 19.8013 116.259 19.2135L119.195 17.4521C120.174 16.8643 121.517 17.302 122.193 18.4296C122.87 19.5572 122.624 20.9478 121.645 21.5356Z" fill="url(#paint2_linear_938_24454)"/>
<path id="Vector_4" d="M115.161 25.4253L112.226 27.1867C111.246 27.7745 109.903 27.3368 109.227 26.2092C108.55 25.0816 108.796 23.691 109.775 23.1032L112.711 21.3418C113.691 20.754 115.033 21.1917 115.71 22.3193C116.386 23.4469 116.141 24.8375 115.161 25.4253Z" fill="url(#paint3_linear_938_24454)"/>
<path id="Vector_5" d="M108.679 29.3154L105.743 31.0768C104.764 31.6646 103.421 31.2269 102.744 30.0993C102.068 28.9717 102.314 27.5811 103.293 26.9933L106.229 25.2319C107.208 24.6441 108.551 25.0818 109.228 26.2094C109.904 27.337 109.658 28.7276 108.679 29.3154Z" fill="url(#paint4_linear_938_24454)"/>
<path id="Vector_6" d="M102.195 33.2054L100.6 34.1076C100.058 34.399 99.4981 34.6555 98.9471 34.9293C97.8057 35.4341 96.5003 34.8176 96.0427 33.5729C95.5927 32.3493 96.0001 31.0238 96.9482 30.6071C97.9072 30.1599 98.8139 29.6676 99.7451 29.122C100.725 28.5342 102.067 28.9719 102.744 30.0995C103.42 31.2271 103.175 32.6176 102.195 33.2054Z" fill="url(#paint5_linear_938_24454)"/>
<path id="Vector_7" d="M94.7807 36.5152C93.6038 36.8762 92.4058 37.1699 91.1949 37.3909C89.9674 37.6268 88.8499 36.6601 88.7169 35.3535C88.5835 34.0437 89.312 32.9064 90.3294 32.7081C91.3628 32.5199 92.3856 32.269 93.3902 31.9606C94.3826 31.664 95.5552 32.338 96.0434 33.5726C96.5237 34.7831 95.9763 36.1554 94.7807 36.5152Z" fill="url(#paint6_linear_938_24454)"/>
<path id="Vector_8" d="M86.7627 37.8992C85.5324 37.9553 84.2985 37.9389 83.069 37.8542C81.8222 37.7643 80.9791 36.5606 81.1773 35.271C81.3773 33.961 82.3692 33.0301 83.4006 33.1037C84.4479 33.1757 85.4995 33.1899 86.5485 33.142C87.5835 33.1007 88.5509 34.0521 88.7165 35.3535C88.8827 36.6609 88.0122 37.8471 86.7627 37.8992Z" fill="url(#paint7_linear_938_24454)"/>
<path id="Vector_9" d="M78.6477 37.2354C77.4418 36.9771 76.2513 36.6503 75.0817 36.2596C73.8921 35.8487 73.3919 34.5011 73.904 33.282C74.4107 32.077 75.6321 31.4122 76.6029 31.747C77.598 32.0789 78.6106 32.3569 79.6367 32.5771C80.6492 32.7836 81.345 33.9627 81.1778 35.2713C81.0127 36.5715 79.8729 37.4858 78.6477 37.2354Z" fill="url(#paint8_linear_938_24454)"/>
<path id="Vector_10" d="M71.011 34.6234C69.9221 34.1216 68.8514 33.5806 67.8013 33.0019C66.7394 32.4198 66.468 30.9955 67.162 29.8786C67.8558 28.7615 69.1581 28.316 70.1005 28.8316C71.0492 29.3545 72.0168 29.8433 73.0006 30.2968C73.9755 30.7479 74.3911 32.0592 73.9039 33.2818C73.4179 34.5025 72.1103 35.1312 71.011 34.6234Z" fill="url(#paint9_linear_938_24454)"/>
<path id="Vector_11" d="M64.0918 30.7391C63.0972 30.0695 62.1268 29.3641 61.1829 28.6249C60.2234 27.8734 60.1975 26.4403 61.0494 25.4429C61.9052 24.4405 63.2804 24.2203 64.1205 24.8768C64.9735 25.5447 65.8503 26.1821 66.7489 26.7871C67.6386 27.389 67.8387 28.7498 67.1621 29.8785C66.4867 31.0057 65.0953 31.4169 64.0918 30.7391Z" fill="url(#paint10_linear_938_24454)"/>
<path id="Vector_12" d="M57.9338 25.9347L55.313 23.7321C54.4384 22.9971 54.4153 21.5852 55.2614 20.5785C56.1075 19.5718 57.5023 19.3516 58.3769 20.0866L60.9977 22.2892C61.8722 23.0242 61.8953 24.4361 61.0493 25.4428C60.2033 26.4495 58.8084 26.6697 57.9338 25.9347Z" fill="url(#paint11_linear_938_24454)"/>
<path id="Vector_13" d="M52.1457 21.0705L49.5249 18.8679C48.6503 18.1329 48.6272 16.721 49.4733 15.7143C50.3194 14.7076 51.7142 14.4874 52.5888 15.2224L55.2096 17.425C56.0841 18.16 56.1072 19.5719 55.2612 20.5786C54.4152 21.5853 53.0202 21.8055 52.1457 21.0705Z" fill="url(#paint12_linear_938_24454)"/>
<path id="Vector_14" d="M46.3577 16.206L45.0519 15.1138L43.7851 14.0959C42.9275 13.4496 42.8275 12.0663 43.5792 10.9832C44.3267 9.90546 45.7336 9.60016 46.6995 10.3298L48.1014 11.4563L49.4216 12.5605C50.2961 13.2955 50.3192 14.7074 49.4732 15.7141C48.6272 16.7208 47.2322 16.941 46.3577 16.206Z" fill="url(#paint13_linear_938_24454)"/>
<path id="Vector_15" d="M40.5781 11.8321C39.6571 11.2621 38.7365 10.6899 37.7777 10.1846C36.8456 9.64978 36.5025 8.34458 37.076 7.14528C37.6362 5.97158 38.9985 5.40058 40.0511 6.00018C41.1115 6.56058 42.1318 7.19178 43.1501 7.82428C44.1557 8.49858 44.3546 9.90358 43.5797 10.9835C42.821 12.0402 41.4688 12.4321 40.5781 11.8321Z" fill="url(#paint14_linear_938_24454)"/>
<path id="Vector_16" d="M34.2489 8.46374C33.2607 8.02044 32.245 7.63834 31.2242 7.27784C30.2115 6.91894 29.6779 5.64344 30.0446 4.39044C30.417 3.11944 31.6561 2.37974 32.798 2.78334C33.9278 3.18204 35.0513 3.60644 36.1455 4.09564C37.2605 4.56884 37.6619 5.96594 37.0754 7.14504C36.4907 8.32064 35.2387 8.88194 34.2489 8.46374Z" fill="url(#paint15_linear_938_24454)"/>
<path id="Vector_17" d="M27.4658 6.14525C26.4179 5.86825 25.3546 5.66045 24.2915 5.45155C23.2303 5.28625 22.5017 4.09515 22.6643 2.78975C22.8268 1.48535 23.9291 0.574253 25.1251 0.763053C26.3021 0.992253 27.4785 1.22445 28.6385 1.52995C29.8158 1.81335 30.4313 3.14685 30.0449 4.39065C29.6521 5.65865 28.5108 6.39455 27.4658 6.14525Z" fill="url(#paint16_linear_938_24454)"/>
<path id="Vector_18" d="M20.3993 4.93441C19.3184 4.86121 18.2378 4.78151 17.1538 4.77741C16.0834 4.74681 15.1052 3.70291 15.1213 2.38101C15.1372 1.07311 16.0117 -0.0158882 17.2255 0.0158118C18.4251 0.0216118 19.6212 0.107212 20.8174 0.190612C22.021 0.322112 22.8479 1.48651 22.6644 2.78951C22.4811 4.09091 21.4667 5.05341 20.3993 4.93441Z" fill="url(#paint17_linear_938_24454)"/>
<path id="Vector_19" d="M13.0525 4.7621H9.62905C8.48665 4.7621 7.56055 3.6961 7.56055 2.3811C7.56055 1.066 8.48665 0 9.62905 0H13.0525C14.1949 0 15.121 1.066 15.121 2.381C15.121 3.696 14.1949 4.7621 13.0525 4.7621Z" fill="url(#paint18_linear_938_24454)"/>
<path id="Vector_20" d="M141.094 9.86619L138.158 11.6276C137.179 12.2154 135.836 11.7777 135.159 10.6501C134.483 9.52249 134.729 8.13189 135.708 7.54409L138.644 5.78269C139.623 5.19489 140.966 5.63259 141.643 6.76019C142.319 7.88779 142.073 9.27849 141.094 9.86619Z" fill="url(#paint19_linear_938_24454)"/>
<path id="Vector_21" d="M5.492 4.7621H2.0685C0.9261 4.7621 0 3.696 0 2.381C0 1.066 0.9261 0 2.0685 0H5.492C6.6344 0 7.5605 1.066 7.5605 2.381C7.5605 3.696 6.6344 4.7621 5.492 4.7621Z" fill="url(#paint20_linear_938_24454)"/>
</g>
<defs>
<linearGradient id="paint0_linear_938_24454" x1="130.713" y1="10.5078" x2="133.122" y2="14.6816" gradientUnits="userSpaceOnUse">
<stop stop-color="#00DFE2"/>
<stop offset="1" stop-color="#202A29"/>
</linearGradient>
<linearGradient id="paint1_linear_938_24454" x1="124.23" y1="14.3981" x2="126.64" y2="18.5719" gradientUnits="userSpaceOnUse">
<stop stop-color="#00DFE2"/>
<stop offset="1" stop-color="#202A29"/>
</linearGradient>
<linearGradient id="paint2_linear_938_24454" x1="117.747" y1="18.2876" x2="120.157" y2="22.4614" gradientUnits="userSpaceOnUse">
<stop stop-color="#00DFE2"/>
<stop offset="1" stop-color="#202A29"/>
</linearGradient>
<linearGradient id="paint3_linear_938_24454" x1="111.264" y1="22.1774" x2="113.673" y2="26.3512" gradientUnits="userSpaceOnUse">
<stop stop-color="#00DFE2"/>
<stop offset="1" stop-color="#202A29"/>
</linearGradient>
<linearGradient id="paint4_linear_938_24454" x1="104.775" y1="26.0572" x2="107.165" y2="30.1969" gradientUnits="userSpaceOnUse">
<stop stop-color="#00DFE2"/>
<stop offset="1" stop-color="#202A29"/>
</linearGradient>
<linearGradient id="paint5_linear_938_24454" x1="98.2926" y1="29.9667" x2="100.658" y2="34.0642" gradientUnits="userSpaceOnUse">
<stop stop-color="#00DFE2"/>
<stop offset="1" stop-color="#202A29"/>
</linearGradient>
<linearGradient id="paint6_linear_938_24454" x1="91.9792" y1="32.4122" x2="92.9105" y2="37.0174" gradientUnits="userSpaceOnUse">
<stop stop-color="#00DFE2"/>
<stop offset="1" stop-color="#202A29"/>
</linearGradient>
<linearGradient id="paint7_linear_938_24454" x1="84.9427" y1="33.0996" x2="84.9427" y2="37.932" gradientUnits="userSpaceOnUse">
<stop stop-color="#00DFE2"/>
<stop offset="1" stop-color="#202A29"/>
</linearGradient>
<linearGradient id="paint8_linear_938_24454" x1="78.1828" y1="32.2109" x2="76.7858" y2="36.7901" gradientUnits="userSpaceOnUse">
<stop stop-color="#00DFE2"/>
<stop offset="1" stop-color="#202A29"/>
</linearGradient>
<linearGradient id="paint9_linear_938_24454" x1="71.6315" y1="29.5211" x2="69.4066" y2="33.7123" gradientUnits="userSpaceOnUse">
<stop stop-color="#00DFE2"/>
<stop offset="1" stop-color="#202A29"/>
</linearGradient>
<linearGradient id="paint10_linear_938_24454" x1="65.6462" y1="25.8501" x2="62.435" y2="29.6771" gradientUnits="userSpaceOnUse">
<stop stop-color="#00DFE2"/>
<stop offset="1" stop-color="#202A29"/>
</linearGradient>
<linearGradient id="paint11_linear_938_24454" x1="59.6867" y1="21.1856" x2="56.6239" y2="24.8356" gradientUnits="userSpaceOnUse">
<stop stop-color="#00DFE2"/>
<stop offset="1" stop-color="#202A29"/>
</linearGradient>
<linearGradient id="paint12_linear_938_24454" x1="53.8986" y1="16.3214" x2="50.8358" y2="19.9713" gradientUnits="userSpaceOnUse">
<stop stop-color="#00DFE2"/>
<stop offset="1" stop-color="#202A29"/>
</linearGradient>
<linearGradient id="paint13_linear_938_24454" x1="48.1321" y1="11.4262" x2="45.0457" y2="15.1044" gradientUnits="userSpaceOnUse">
<stop stop-color="#00DFE2"/>
<stop offset="1" stop-color="#202A29"/>
</linearGradient>
<linearGradient id="paint14_linear_938_24454" x1="41.7676" y1="6.75568" x2="39.2063" y2="10.8434" gradientUnits="userSpaceOnUse">
<stop stop-color="#00DFE2"/>
<stop offset="1" stop-color="#202A29"/>
</linearGradient>
<linearGradient id="paint15_linear_938_24454" x1="34.4755" y1="3.44944" x2="32.768" y2="7.76994" gradientUnits="userSpaceOnUse">
<stop stop-color="#00DFE2"/>
<stop offset="1" stop-color="#202A29"/>
</linearGradient>
<linearGradient id="paint16_linear_938_24454" x1="26.9529" y1="1.06375" x2="25.8404" y2="5.72065" gradientUnits="userSpaceOnUse">
<stop stop-color="#00DFE2"/>
<stop offset="1" stop-color="#202A29"/>
</linearGradient>
<linearGradient id="paint17_linear_938_24454" x1="19.0467" y1="0.118712" x2="18.7621" y2="4.74971" gradientUnits="userSpaceOnUse">
<stop stop-color="#00DFE2"/>
<stop offset="1" stop-color="#202A29"/>
</linearGradient>
<linearGradient id="paint18_linear_938_24454" x1="11.3408" y1="0" x2="11.3408" y2="4.7621" gradientUnits="userSpaceOnUse">
<stop stop-color="#00DFE2"/>
<stop offset="1" stop-color="#202A29"/>
</linearGradient>
<linearGradient id="paint19_linear_938_24454" x1="137.196" y1="6.61829" x2="139.606" y2="10.7921" gradientUnits="userSpaceOnUse">
<stop stop-color="#00DFE2"/>
<stop offset="1" stop-color="#202A29"/>
</linearGradient>
<linearGradient id="paint20_linear_938_24454" x1="3.7803" y1="0" x2="3.7803" y2="4.7621" gradientUnits="userSpaceOnUse">
<stop stop-color="#00DFE2"/>
<stop offset="1" stop-color="#202A29"/>
</linearGradient>
</defs>
</svg>
