<svg width="47" height="91" viewBox="0 0 47 91" fill="none" xmlns="http://www.w3.org/2000/svg">
<g id="R-ICO-013020" opacity="0.8">
<path id="Vector" d="M43.0912 1.84505C37.2912 -2.45495 24.2912 1.34505 15.4912 7.24505C2.2912 16.145 -2.8088 48.045 1.4912 70.445C4.0912 84.045 9.6912 88.645 13.8912 90.045C15.0912 90.445 16.3912 90.645 17.6912 90.645C21.3912 90.645 25.2912 88.945 28.7912 85.845C34.3912 80.845 38.9912 71.4451 36.7912 61.945C33.0912 46.445 36.9912 36.345 41.3912 24.545C42.6912 21.045 44.0912 17.445 45.2912 13.545C47.3912 6.64505 45.2912 3.34505 43.0912 1.84505Z" fill="url(#paint0_linear_938_25644)"/>
<path id="Vector_2" d="M39.9912 19.945C38.4912 19.045 31.6912 18.845 27.9912 18.745C21.1912 18.545 18.9912 18.445 17.9912 17.145C17.6912 16.645 17.5912 16.045 17.6912 15.545C18.3912 13.345 21.7912 13.445 30.0912 13.845C34.0912 14.045 40.5912 14.345 41.9912 13.645C42.0912 13.245 42.1912 12.845 42.3912 12.545C43.5912 8.44498 43.2912 5.64498 41.2912 4.14498C37.1912 1.14498 25.8912 3.64498 17.1912 9.64498C13.7912 11.945 10.7912 16.345 8.3912 22.345C10.0912 22.945 15.3912 23.245 19.0912 23.345C27.3912 23.645 31.0912 24.045 32.3912 25.745C32.7912 26.245 32.9912 26.945 32.7912 27.645C32.0912 30.445 27.8912 29.945 21.5912 29.245C15.5912 28.545 6.3912 27.445 5.6912 31.045C4.0912 37.545 3.1912 44.745 3.0912 51.945C4.3912 52.745 10.3912 52.645 13.9912 52.545C22.0912 52.445 27.9912 52.345 28.2912 55.845C28.3912 56.545 28.0912 57.145 27.5912 57.645C26.1912 59.045 23.1912 58.945 17.4912 58.745C15.7912 58.645 13.7912 58.545 11.8912 58.545C8.2912 58.545 4.9912 58.845 3.7912 60.145C3.5912 60.445 3.2912 60.845 3.3912 61.645C3.6912 64.545 3.9912 67.245 4.4912 69.745C6.4912 80.345 10.7912 86.645 16.4912 87.445C21.9912 88.245 28.2912 83.845 31.8912 76.845C31.9912 76.745 31.8912 76.645 31.8912 76.645C30.9912 75.645 23.8912 76.245 20.4912 76.545C14.1912 77.045 10.6912 77.345 10.2912 74.945C10.1912 74.245 10.3912 73.545 10.7912 73.045C12.1912 71.245 15.9912 70.945 22.5912 70.545C26.1912 70.345 33.5912 69.845 34.2912 68.545C34.4912 66.545 34.2912 64.545 33.8912 62.545C32.5912 56.945 32.0912 51.745 32.4912 46.445C32.4912 46.145 32.4912 45.945 32.2912 45.745C30.6912 44.045 23.6912 43.945 18.9912 43.945C13.1912 43.945 10.0912 43.845 8.8912 42.445C8.4912 41.945 8.2912 41.345 8.3912 40.645C8.8912 37.245 14.2912 37.545 21.7912 37.845C25.0912 37.945 33.6912 38.345 34.0912 36.945C35.2912 32.345 36.8912 28.045 38.5912 23.445C39.0912 22.245 39.4912 21.145 39.9912 19.945Z" fill="#AD342D"/>
<g id="LIGHT">
<mask id="mask0_938_25644" style="mask-type:alpha" maskUnits="userSpaceOnUse" x="3" y="3" width="30" height="62">
<path id="MASK" d="M32.3912 3.245C29.3912 3.845 13.6912 5.445 8.39119 22.445C3.69119 37.545 1.99119 46.245 3.69119 64.345C3.69119 64.345 7.39119 26.445 18.3912 15.445C29.3912 4.44499 32.3912 3.245 32.3912 3.245Z" fill="url(#paint1_linear_938_25644)"/>
</mask>
<g mask="url(#mask0_938_25644)">
<path id="LIGHT_2" d="M32.3912 3.245C29.3912 3.845 13.6912 5.445 8.39119 22.445C3.69119 37.545 1.99119 46.245 3.69119 64.345C3.69119 64.345 7.39119 26.445 18.3912 15.445C29.3912 4.44499 32.3912 3.245 32.3912 3.245Z" fill="url(#paint2_radial_938_25644)"/>
</g>
</g>
</g>
<defs>
<linearGradient id="paint0_linear_938_25644" x1="39.9461" y1="42.6468" x2="-12.2425" y2="52.9977" gradientUnits="userSpaceOnUse">
<stop stop-color="#D86E66"/>
<stop offset="1" stop-color="#A33029"/>
</linearGradient>
<linearGradient id="paint1_linear_938_25644" x1="3.0473" y1="66.5738" x2="32.3912" y2="3.24499" gradientUnits="userSpaceOnUse">
<stop offset="0.05" stop-opacity="0"/>
<stop offset="0.5" stop-color="white"/>
<stop offset="0.95" stop-opacity="0"/>
</linearGradient>
<radialGradient id="paint2_radial_938_25644" cx="0" cy="0" r="1" gradientTransform="matrix(-22.5919 -6.65299 -12.9504 43.9662 26.3332 38.5421)" gradientUnits="userSpaceOnUse">
<stop offset="0.782" stop-color="white" stop-opacity="0"/>
<stop offset="0.8523" stop-color="#FFBA94"/>
<stop offset="0.9002" stop-color="white" stop-opacity="0"/>
</radialGradient>
</defs>
</svg>
