<svg width="50" height="23" viewBox="0 0 50 23" fill="none" xmlns="http://www.w3.org/2000/svg">
<g id="R-ICO-012750">
<g id="GAPs">
<path d="M1.12903 11.463C1.12903 5.9401 5.60618 1.46295 11.129 1.46295H38.129C43.6519 1.46295 48.129 5.9401 48.129 11.463C48.129 16.9858 43.6519 21.463 38.129 21.463H11.129C5.60618 21.463 1.12903 16.9858 1.12903 11.463Z" fill="url(#paint0_linear_938_23342)"/>
<path d="M39.9947 3.16049C39.3861 3.0152 38.7601 2.93632 38.129 2.92466C29.129 2.78118 20.1291 2.41903 11.129 1.60296C11.129 1.50959 11.129 1.41623 11.129 1.32286C20.1291 0.506789 29.129 0.144642 38.129 0.00115991C38.9708 -0.0107336 39.8177 0.0708388 40.6461 0.247021C45.7882 1.28073 49.6618 6.31715 49.4678 11.463C49.4603 11.881 49.4302 12.2963 49.3776 12.7091C48.7899 18.289 43.4325 22.6342 38.1295 22.2288C38.1293 22.2288 38.1292 22.2288 38.129 22.2288C33.2611 21.9851 28.3927 21.8096 23.5248 21.9159C19.393 22.0033 15.2609 22.3108 11.129 22.5244C10.316 22.5626 9.49253 22.5089 8.68307 22.3588C3.65568 21.4804 -0.233364 16.5154 0.010965 11.463C0.0218314 11.053 0.0553148 10.6463 0.111329 10.2426C0.752318 4.77935 6.12564 0.671236 11.129 1.32286C11.129 1.41623 11.129 1.50959 11.129 1.60296C6.26658 2.05074 2.51687 6.11962 2.26675 10.4789C2.24264 10.8062 2.23617 11.1339 2.24701 11.463C2.3338 15.5019 5.32687 19.1102 9.19143 20.0853C9.81914 20.2568 10.4689 20.3636 11.129 20.4015C15.2609 20.6148 19.393 20.9213 23.5248 21.0087C28.3928 21.115 33.261 20.9409 38.129 20.6972C38.1292 20.6972 38.1293 20.6972 38.1294 20.6972C42.6919 20.4949 46.4562 16.664 46.7604 12.4221C46.7879 12.1036 46.7979 11.7842 46.7904 11.463C46.7539 7.51706 43.7446 3.98007 39.9947 3.16049Z" fill="#00A800"/>
<text id="GAPs_2" fill="white" xml:space="preserve" style="white-space: pre" font-family="Arial" font-size="12" font-weight="bold" letter-spacing="0em"><tspan x="8.28137" y="15.6231">GAPs</tspan></text>
</g>
</g>
<defs>
<linearGradient id="paint0_linear_938_23342" x1="24.629" y1="1.46295" x2="24.629" y2="21.463" gradientUnits="userSpaceOnUse">
<stop stop-color="#00A800"/>
<stop offset="1" stop-color="#536BD5"/>
</linearGradient>
</defs>
</svg>
