<svg width="38" height="24" viewBox="0 0 38 24" fill="none" xmlns="http://www.w3.org/2000/svg">
<g id="R-ICO-014835">
<g id="CHEMICAL_OCT">
<g id="Rectangle 2">
<mask id="path-1-outside-1_938_25051" maskUnits="userSpaceOnUse" x="8.37939" y="0" width="22" height="24" fill="black">
<rect fill="white" x="8.37939" width="22" height="24"/>
<path d="M8.37939 2H29.6203V22H8.37939V2Z"/>
</mask>
<path d="M8.37939 2H29.6203V22H8.37939V2Z" fill="#A59521"/>
<path d="M8.37939 2V4H29.6203V2V0H8.37939V2ZM29.6203 22V20H8.37939V22V24H29.6203V22Z" fill="url(#paint0_linear_938_25051)" mask="url(#path-1-outside-1_938_25051)"/>
</g>
<g id="LEFT CORNER">
<mask id="mask0_938_25051" style="mask-type:luminance" maskUnits="userSpaceOnUse" x="0" y="0" width="10" height="24">
<rect id="MASK" width="10" height="24" transform="matrix(-1 8.74228e-08 8.74228e-08 1 10 0)" fill="white"/>
</mask>
<g mask="url(#mask0_938_25051)">
<g id="CORNER">
<mask id="path-4-outside-2_938_25051" maskUnits="userSpaceOnUse" x="-1.74846e-07" y="-9.61651e-07" width="13" height="24" fill="black">
<rect fill="white" x="-1.74846e-07" y="-9.61651e-07" width="13" height="24"/>
<path d="M8 22L2 16L2 8L8 2L11 2L11 22L8 22Z"/>
</mask>
<path d="M8 22L2 16L2 8L8 2L11 2L11 22L8 22Z" fill="#A59521"/>
<path d="M8 22L2 16L2 8L8 2L11 2L11 22L8 22Z" stroke="url(#paint1_linear_938_25051)" stroke-width="4" stroke-miterlimit="3.99933" stroke-linejoin="round" mask="url(#path-4-outside-2_938_25051)"/>
</g>
</g>
</g>
<g id="RIGHT CORNER">
<mask id="mask1_938_25051" style="mask-type:luminance" maskUnits="userSpaceOnUse" x="28" y="0" width="10" height="24">
<rect id="MASK_2" x="28.1558" width="9.84445" height="24" fill="white"/>
</mask>
<g mask="url(#mask1_938_25051)">
<g id="CORNER_2">
<mask id="path-6-outside-3_938_25051" maskUnits="userSpaceOnUse" x="25" y="-7.76718e-07" width="13" height="24" fill="black">
<rect fill="white" x="25" y="-7.76718e-07" width="13" height="24"/>
<path d="M30 22L36 16L36 8L30 2L27 2L27 22L30 22Z"/>
</mask>
<path d="M30 22L36 16L36 8L30 2L27 2L27 22L30 22Z" fill="#A59521"/>
<path d="M30 22L36 16L36 8L30 2L27 2L27 22L30 22Z" stroke="url(#paint2_linear_938_25051)" stroke-width="4" stroke-miterlimit="3.99933" stroke-linejoin="round" mask="url(#path-6-outside-3_938_25051)"/>
</g>
</g>
</g>
<text id="Ch" fill="white" xml:space="preserve" style="white-space: pre" font-family="Arial" font-size="12" font-weight="bold" letter-spacing="0em"><tspan x="3.37486" y="16.1602">L-Pro</tspan></text>
</g>
</g>
<defs>
<linearGradient id="paint0_linear_938_25051" x1="18.9999" y1="2" x2="18.9999" y2="22" gradientUnits="userSpaceOnUse">
<stop stop-color="#A59521"/>
<stop offset="1" stop-color="#6AA279"/>
</linearGradient>
<linearGradient id="paint1_linear_938_25051" x1="6.5" y1="2" x2="6.5" y2="22" gradientUnits="userSpaceOnUse">
<stop stop-color="#A59521"/>
<stop offset="1" stop-color="#6AA279"/>
</linearGradient>
<linearGradient id="paint2_linear_938_25051" x1="31.5" y1="2" x2="31.5" y2="22" gradientUnits="userSpaceOnUse">
<stop stop-color="#A59521"/>
<stop offset="1" stop-color="#6AA279"/>
</linearGradient>
</defs>
</svg>
