<svg width="96" height="42" viewBox="0 0 96 42" fill="none" xmlns="http://www.w3.org/2000/svg">
<g id="R-ICO-014071">
<path id="BG" d="M80.7294 22.0991C80.2988 20.737 81.2054 19.6595 80.2095 18.3562C79.9534 18.0211 79.2776 16.3571 78.8068 15.849C78.4464 15.46 76.8321 14.0983 76.4448 13.7573C75.393 12.8314 73.9705 12.4603 72.556 12.5437C71.843 12.5858 69.1322 12.206 68.3547 12.2603C66.7083 12.3754 65.3535 12.557 63.6836 12.3728C60.5328 12.0253 57.3229 12.0485 54.1703 12.3725C52.7614 12.5173 51.3666 12.6957 49.9444 12.6327C48.2869 12.5593 42.0816 12.5572 40.6131 12.5818C38.9689 12.6094 37.3789 12.1054 35.7269 12.1192C34.1646 12.1323 29.6882 12.4948 28.9494 12.3688C27.9768 12.2029 19.7335 12.0079 16.5025 12.2212C14.3036 12.3663 11.8853 12.5363 9.70447 12.9075C8.38207 13.1326 7.26147 13.7646 6.36807 14.7058C5.95197 15.1441 4.20007 17.4368 3.74907 18.1579C3.09477 19.204 2.91277 20.4667 3.16667 21.6524C3.30157 22.2822 3.88907 24.775 4.09047 25.3879C4.51307 26.6743 5.72407 27.1069 6.66127 27.9681C7.66777 28.8929 8.57718 29.6872 9.91038 30.186C12.6883 31.2252 22.2631 30.1455 23.8726 30.2576C25.5697 30.3758 27.2098 30.6588 28.9207 30.614C30.595 30.5702 37.3695 30.5847 39.0931 30.6766C42.2878 30.8469 45.3927 30.4956 48.5676 30.2721C50.3676 30.1454 52.0503 30.3964 53.8327 30.5574C55.5344 30.7112 62.6374 30.7226 64.5593 30.7417C66.2146 30.7581 71.1071 30.6145 71.9665 30.5824C72.8753 30.5484 73.5912 30.1472 74.3844 29.7842C75.0315 29.4881 75.7983 29.5813 76.4106 29.2718C77.0566 28.9452 78.3902 27.5443 78.7348 26.963C79.0629 26.4095 79.5239 26.0928 79.8929 25.5775C80.3916 24.8813 80.9521 22.8037 80.7294 22.0991Z" fill="url(#paint0_radial_938_25171)"/>
<path id="MEMBRANE" d="M64.8504 31.4928C64.742 31.4928 64.6419 31.4928 64.5516 31.4918L63.0819 31.482C60.1312 31.4634 55.1927 31.4332 53.7645 31.3043C53.3954 31.2711 53.0291 31.234 52.6659 31.1969C51.288 31.0582 49.9867 30.9254 48.6195 31.0201C47.9833 31.065 47.349 31.1148 46.7167 31.1646C44.2274 31.3609 41.6513 31.564 39.0526 31.4253C37.4169 31.3384 30.6781 31.3179 28.9398 31.3638C27.7577 31.3872 26.6092 31.2759 25.4989 31.1607C24.9423 31.1031 24.3846 31.0445 23.8202 31.0054C23.3969 30.9722 22.1996 31.0474 20.8139 31.1324C16.0429 31.4205 11.5976 31.6187 9.64741 30.8883C8.21381 30.3522 7.25631 29.5338 6.15371 28.5201C5.90081 28.2877 5.61761 28.0855 5.31831 27.8717C4.58201 27.3453 3.74751 26.7487 3.37791 25.6227C3.16501 24.9733 2.56741 22.4381 2.43311 21.8102C2.12841 20.3864 2.37011 18.9479 3.11331 17.7604C3.60211 16.9792 5.37891 14.6579 5.82371 14.1891C6.86371 13.0953 8.12691 12.4147 9.57861 12.1686C11.7158 11.8043 14.0498 11.6315 16.4531 11.4733C19.6631 11.2614 27.9497 11.4372 29.0752 11.6295C29.4341 11.69 31.4795 11.5768 32.832 11.5006C33.9863 11.4361 35.0766 11.3746 35.7207 11.3697C36.5835 11.3677 37.4375 11.4888 38.2529 11.6099C39.0639 11.731 39.8183 11.855 40.6001 11.8316C42.1357 11.8062 48.3013 11.8091 49.9775 11.8834C51.1596 11.9371 52.3247 11.8131 53.5542 11.6832L54.0938 11.6266C57.4151 11.2848 60.668 11.2868 63.7657 11.6276C65.0528 11.7692 66.1402 11.6813 67.3995 11.5817L68.3023 11.5124C68.7671 11.4782 69.6836 11.5671 70.6534 11.6608C71.3912 11.7311 72.2305 11.818 72.5118 11.7946C74.232 11.7018 75.8009 12.1911 76.9405 13.195L77.3951 13.5866C78.2696 14.3386 79.0782 15.0378 79.3575 15.3405C79.691 15.6999 80.0245 16.3532 80.4259 17.1696C80.5592 17.4411 80.7423 17.8132 80.8068 17.903C81.568 18.8991 81.4743 19.8356 81.3991 20.5885C81.3527 21.0533 81.3127 21.4547 81.445 21.8737C81.7643 22.8844 81.09 25.195 80.5021 26.0143C80.319 26.2711 80.1164 26.486 79.9137 26.6989C79.7023 26.9196 79.5201 27.11 79.38 27.3464C78.9762 28.0271 77.5524 29.5359 76.7487 29.9421C76.3288 30.154 75.8879 30.2204 75.4992 30.278C75.1999 30.3229 74.9172 30.3659 74.6974 30.4665L74.3717 30.6179C73.6617 30.9519 72.9279 31.2976 71.9947 31.3318C71.2069 31.362 66.744 31.4928 64.8504 31.4928ZM49.5721 29.4879C50.6864 29.4879 51.7655 29.5983 52.8172 29.7047C53.1751 29.7408 53.535 29.7779 53.8992 29.8102C55.2649 29.9342 60.3557 29.9655 63.0906 29.9821L64.5662 29.9919C66.2063 30.0163 71.1116 29.8649 71.9378 29.8337C72.5662 29.8093 73.1067 29.5554 73.7327 29.2605L74.0725 29.1023C74.4841 28.9138 74.905 28.8503 75.2766 28.7947C75.5803 28.7498 75.8669 28.7068 76.072 28.6033C76.5534 28.3601 77.7893 27.0867 78.0896 26.5808C78.3171 26.197 78.5891 25.9128 78.8293 25.6619C78.9841 25.4998 79.1418 25.3387 79.2819 25.1414C79.7057 24.5506 80.1364 22.742 80.0138 22.325C79.7887 21.6131 79.8512 20.99 79.9059 20.4393C79.9723 19.7772 80.0163 19.3387 79.6129 18.8114C79.4747 18.6307 79.3277 18.3368 79.0792 17.8309C78.836 17.3358 78.4679 16.5877 78.256 16.3592C78.0119 16.0946 76.9743 15.2039 76.4171 14.7244L75.9488 14.3201C75.1075 13.5799 73.92 13.2156 72.5992 13.2928C72.193 13.3162 71.4151 13.241 70.5094 13.1541C69.7242 13.0789 68.7467 12.9822 68.4069 13.0086L67.5187 13.077C66.2394 13.1795 65.0309 13.2772 63.6007 13.118C60.6075 12.7869 57.4606 12.7889 54.2467 13.119L53.7115 13.1747C52.481 13.3056 51.2095 13.4413 49.9107 13.3817C48.295 13.3104 42.107 13.3065 40.6251 13.3319C39.7364 13.3524 38.8673 13.2186 38.0313 13.0936C37.2378 12.9745 36.4722 12.8495 35.7325 12.87C35.1246 12.8749 34.0513 12.9354 32.9156 12.9989C30.6959 13.1219 29.3131 13.1913 28.8228 13.1083C27.9112 12.953 19.691 12.7636 16.5513 12.9696C14.189 13.1258 11.897 13.2958 9.82962 13.6473C8.70411 13.8387 7.72221 14.368 6.91111 15.2225C6.53561 15.618 4.80861 17.8787 4.38421 18.5565C3.84901 19.412 3.67672 20.4559 3.89931 21.496C4.03162 22.1151 4.61611 24.5868 4.80211 25.1552C5.01891 25.8144 5.53551 26.1835 6.19031 26.6513C6.51351 26.8827 6.84751 27.122 7.16781 27.4169C8.18151 28.3476 8.99061 29.0419 10.1727 29.4843C11.9837 30.163 17.4544 29.831 20.723 29.6347C22.2787 29.5409 23.4012 29.4706 23.9237 29.5097C24.5052 29.5497 25.0799 29.6093 25.6527 29.6689C26.7655 29.7841 27.8177 29.8906 28.9003 29.8642C30.5204 29.8212 37.3236 29.831 39.1322 29.9277C41.6351 30.0615 44.0458 29.8711 46.598 29.6699C47.2347 29.6201 47.8729 29.5693 48.514 29.5244C48.8705 29.4987 49.223 29.4879 49.5721 29.4879Z" fill="#5A9CD1"/>
<g id="TEXTURE">
<path id="Vector" d="M7.74387 24.5392C8.39092 24.5392 8.91547 24.0147 8.91547 23.3676C8.91547 22.7206 8.39092 22.196 7.74387 22.196C7.09681 22.196 6.57227 22.7206 6.57227 23.3676C6.57227 24.0147 7.09681 24.5392 7.74387 24.5392Z" fill="url(#paint1_radial_938_25171)"/>
<path id="Vector_2" d="M22.8854 17.0769C23.8247 17.0769 24.5862 16.3154 24.5862 15.3761C24.5862 14.4368 23.8247 13.6753 22.8854 13.6753C21.946 13.6753 21.1846 14.4368 21.1846 15.3761C21.1846 16.3154 21.946 17.0769 22.8854 17.0769Z" fill="url(#paint2_radial_938_25171)"/>
<path id="Vector_3" d="M28.2859 19.2626C28.9329 19.2626 29.4575 18.7381 29.4575 18.091C29.4575 17.444 28.9329 16.9194 28.2859 16.9194C27.6388 16.9194 27.1143 17.444 27.1143 18.091C27.1143 18.7381 27.6388 19.2626 28.2859 19.2626Z" fill="url(#paint3_radial_938_25171)"/>
<path id="Vector_4" d="M38.4411 25.9267C39.0882 25.9267 39.6127 25.4022 39.6127 24.7551C39.6127 24.108 39.0882 23.5835 38.4411 23.5835C37.7941 23.5835 37.2695 24.108 37.2695 24.7551C37.2695 25.4022 37.7941 25.9267 38.4411 25.9267Z" fill="url(#paint4_radial_938_25171)"/>
<path id="Vector_5" d="M40.4304 28.414C41.0774 28.414 41.602 27.8895 41.602 27.2424C41.602 26.5953 41.0774 26.0708 40.4304 26.0708C39.7833 26.0708 39.2588 26.5953 39.2588 27.2424C39.2588 27.8895 39.7833 28.414 40.4304 28.414Z" fill="url(#paint5_radial_938_25171)"/>
<path id="Vector_6" d="M26.988 29.4575C27.6351 29.4575 28.1596 28.9329 28.1596 28.2859C28.1596 27.6388 27.6351 27.1143 26.988 27.1143C26.3409 27.1143 25.8164 27.6388 25.8164 28.2859C25.8164 28.9329 26.3409 29.4575 26.988 29.4575Z" fill="url(#paint6_radial_938_25171)"/>
<path id="Vector_7" d="M39.2595 22.7255C39.9065 22.7255 40.4311 22.201 40.4311 21.5539C40.4311 20.9069 39.9065 20.3823 39.2595 20.3823C38.6124 20.3823 38.0879 20.9069 38.0879 21.5539C38.0879 22.201 38.6124 22.7255 39.2595 22.7255Z" fill="url(#paint7_radial_938_25171)"/>
<path id="Vector_8" d="M54.6325 22.488C55.2796 22.488 55.8041 21.9634 55.8041 21.3164C55.8041 20.6693 55.2796 20.1448 54.6325 20.1448C53.9855 20.1448 53.4609 20.6693 53.4609 21.3164C53.4609 21.9634 53.9855 22.488 54.6325 22.488Z" fill="url(#paint8_radial_938_25171)"/>
<path id="Vector_9" d="M61.9265 16.1013C62.5735 16.1013 63.0981 15.5767 63.0981 14.9297C63.0981 14.2826 62.5735 13.7581 61.9265 13.7581C61.2794 13.7581 60.7549 14.2826 60.7549 14.9297C60.7549 15.5767 61.2794 16.1013 61.9265 16.1013Z" fill="url(#paint9_radial_938_25171)"/>
<path id="Vector_10" d="M32.7312 16.5478C33.3782 16.5478 33.9028 16.0232 33.9028 15.3762C33.9028 14.7291 33.3782 14.2046 32.7312 14.2046C32.0841 14.2046 31.5596 14.7291 31.5596 15.3762C31.5596 16.0232 32.0841 16.5478 32.7312 16.5478Z" fill="url(#paint10_radial_938_25171)"/>
<path id="Vector_11" d="M18.1286 16.5478C18.7757 16.5478 19.3002 16.0232 19.3002 15.3762C19.3002 14.7291 18.7757 14.2046 18.1286 14.2046C17.4816 14.2046 16.957 14.7291 16.957 15.3762C16.957 16.0232 17.4816 16.5478 18.1286 16.5478Z" fill="url(#paint11_radial_938_25171)"/>
<path id="Vector_12" d="M11.9001 28.695C12.5472 28.695 13.0717 28.1705 13.0717 27.5234C13.0717 26.8763 12.5472 26.3518 11.9001 26.3518C11.2531 26.3518 10.7285 26.8763 10.7285 27.5234C10.7285 28.1705 11.2531 28.695 11.9001 28.695Z" fill="url(#paint12_radial_938_25171)"/>
<path id="Vector_13" d="M17.5486 26.3557C18.1956 26.3557 18.7202 25.8311 18.7202 25.1841C18.7202 24.537 18.1956 24.0125 17.5486 24.0125C16.9015 24.0125 16.377 24.537 16.377 25.1841C16.377 25.8311 16.9015 26.3557 17.5486 26.3557Z" fill="url(#paint13_radial_938_25171)"/>
<path id="Vector_14" d="M13.072 19.6943C13.719 19.6943 14.2436 19.1697 14.2436 18.5227C14.2436 17.8756 13.719 17.3511 13.072 17.3511C12.4249 17.3511 11.9004 17.8756 11.9004 18.5227C11.9004 19.1697 12.4249 19.6943 13.072 19.6943Z" fill="url(#paint14_radial_938_25171)"/>
<path id="Vector_15" d="M21.5654 25.4018C22.2946 25.4018 22.8857 24.8107 22.8857 24.0815C22.8857 23.3523 22.2946 22.7612 21.5654 22.7612C20.8362 22.7612 20.2451 23.3523 20.2451 24.0815C20.2451 24.8107 20.8362 25.4018 21.5654 25.4018Z" fill="url(#paint15_radial_938_25171)"/>
<path id="Vector_16" d="M35.4568 22.03C36.1038 22.03 36.6284 21.5054 36.6284 20.8584C36.6284 20.2113 36.1038 19.6868 35.4568 19.6868C34.8097 19.6868 34.2852 20.2113 34.2852 20.8584C34.2852 21.5054 34.8097 22.03 35.4568 22.03Z" fill="url(#paint16_radial_938_25171)"/>
<path id="Vector_17" d="M23.9918 29.0967C24.9311 29.0967 25.6926 28.3352 25.6926 27.3959C25.6926 26.4565 24.9311 25.6951 23.9918 25.6951C23.0525 25.6951 22.291 26.4565 22.291 27.3959C22.291 28.3352 23.0525 29.0967 23.9918 29.0967Z" fill="url(#paint17_radial_938_25171)"/>
<path id="Vector_18" d="M37.3301 17.0727C38.0592 17.0727 38.6504 16.4816 38.6504 15.7524C38.6504 15.0232 38.0592 14.4321 37.3301 14.4321C36.6009 14.4321 36.0098 15.0232 36.0098 15.7524C36.0098 16.4816 36.6009 17.0727 37.3301 17.0727Z" fill="url(#paint18_radial_938_25171)"/>
<path id="Vector_19" d="M27.9714 25.5827C28.6185 25.5827 29.143 25.0582 29.143 24.4111C29.143 23.764 28.6185 23.2395 27.9714 23.2395C27.3243 23.2395 26.7998 23.764 26.7998 24.4111C26.7998 25.0582 27.3243 25.5827 27.9714 25.5827Z" fill="url(#paint19_radial_938_25171)"/>
<path id="Vector_20" d="M39.3756 21.0774C40.3149 21.0774 41.0764 20.3159 41.0764 19.3766C41.0764 18.4373 40.3149 17.6758 39.3756 17.6758C38.4363 17.6758 37.6748 18.4373 37.6748 19.3766C37.6748 20.3159 38.4363 21.0774 39.3756 21.0774Z" fill="url(#paint20_radial_938_25171)"/>
<path id="Vector_21" d="M67.9551 17.4126C68.6843 17.4126 69.2754 16.8215 69.2754 16.0923C69.2754 15.3631 68.6843 14.772 67.9551 14.772C67.2259 14.772 66.6348 15.3631 66.6348 16.0923C66.6348 16.8215 67.2259 17.4126 67.9551 17.4126Z" fill="url(#paint21_radial_938_25171)"/>
<path id="Vector_22" d="M65.4079 20.0807C66.055 20.0807 66.5795 19.5562 66.5795 18.9091C66.5795 18.2621 66.055 17.7375 65.4079 17.7375C64.7609 17.7375 64.2363 18.2621 64.2363 18.9091C64.2363 19.5562 64.7609 20.0807 65.4079 20.0807Z" fill="url(#paint22_radial_938_25171)"/>
<path id="Vector_23" d="M75.9795 18.5556C76.7087 18.5556 77.2998 17.9645 77.2998 17.2353C77.2998 16.5062 76.7087 15.915 75.9795 15.915C75.2503 15.915 74.6592 16.5062 74.6592 17.2353C74.6592 17.9645 75.2503 18.5556 75.9795 18.5556Z" fill="url(#paint23_radial_938_25171)"/>
<path id="Vector_24" d="M73.4323 21.2236C74.0794 21.2236 74.6039 20.699 74.6039 20.052C74.6039 19.4049 74.0794 18.8804 73.4323 18.8804C72.7853 18.8804 72.2607 19.4049 72.2607 20.052C72.2607 20.699 72.7853 21.2236 73.4323 21.2236Z" fill="url(#paint24_radial_938_25171)"/>
<path id="Vector_25" d="M60.3848 21.1736C61.1139 21.1736 61.7051 20.5824 61.7051 19.8533C61.7051 19.1241 61.1139 18.533 60.3848 18.533C59.6556 18.533 59.0645 19.1241 59.0645 19.8533C59.0645 20.5824 59.6556 21.1736 60.3848 21.1736Z" fill="url(#paint25_radial_938_25171)"/>
<path id="Vector_26" d="M56.1247 25.9702C56.7718 25.9702 57.2963 25.4456 57.2963 24.7986C57.2963 24.1515 56.7718 23.627 56.1247 23.627C55.4777 23.627 54.9531 24.1515 54.9531 24.7986C54.9531 25.4456 55.4777 25.9702 56.1247 25.9702Z" fill="url(#paint26_radial_938_25171)"/>
<path id="Vector_27" d="M60.0035 26.3872C60.9429 26.3872 61.7043 25.6257 61.7043 24.6864C61.7043 23.7471 60.9429 22.9856 60.0035 22.9856C59.0642 22.9856 58.3027 23.7471 58.3027 24.6864C58.3027 25.6257 59.0642 26.3872 60.0035 26.3872Z" fill="url(#paint27_radial_938_25171)"/>
<path id="Vector_28" d="M50.8777 28.414C51.5247 28.414 52.0493 27.8895 52.0493 27.2424C52.0493 26.5953 51.5247 26.0708 50.8777 26.0708C50.2306 26.0708 49.7061 26.5953 49.7061 27.2424C49.7061 27.8895 50.2306 28.414 50.8777 28.414Z" fill="url(#paint28_radial_938_25171)"/>
<path id="Vector_29" d="M54.543 16.25C55.2721 16.25 55.8633 15.6589 55.8633 14.9297C55.8633 14.2005 55.2721 13.6094 54.543 13.6094C53.8138 13.6094 53.2227 14.2005 53.2227 14.9297C53.2227 15.6589 53.8138 16.25 54.543 16.25Z" fill="url(#paint29_radial_938_25171)"/>
<path id="Vector_30" d="M49.1472 17.7194C49.7942 17.7194 50.3188 17.1949 50.3188 16.5478C50.3188 15.9008 49.7942 15.3762 49.1472 15.3762C48.5001 15.3762 47.9756 15.9008 47.9756 16.5478C47.9756 17.1949 48.5001 17.7194 49.1472 17.7194Z" fill="url(#paint30_radial_938_25171)"/>
<path id="Vector_31" d="M9.24379 22.0672C9.70959 22.0672 10.0872 21.6896 10.0872 21.2238C10.0872 20.758 9.70959 20.3804 9.24379 20.3804C8.77799 20.3804 8.40039 20.758 8.40039 21.2238C8.40039 21.6896 8.77799 22.0672 9.24379 22.0672Z" fill="url(#paint31_radial_938_25171)"/>
<path id="Vector_32" d="M31.0368 19.4522C31.5026 19.4522 31.8802 19.0746 31.8802 18.6088C31.8802 18.143 31.5026 17.7654 31.0368 17.7654C30.571 17.7654 30.1934 18.143 30.1934 18.6088C30.1934 19.0746 30.571 19.4522 31.0368 19.4522Z" fill="url(#paint32_radial_938_25171)"/>
<path id="Vector_33" d="M18.7204 19.2134C19.1861 19.2134 19.5638 18.8358 19.5638 18.37C19.5638 17.9042 19.1861 17.5266 18.7204 17.5266C18.2546 17.5266 17.877 17.9042 17.877 18.37C17.877 18.8358 18.2546 19.2134 18.7204 19.2134Z" fill="url(#paint33_radial_938_25171)"/>
<path id="Vector_34" d="M16.1139 22.1599C16.5797 22.1599 16.9573 21.7823 16.9573 21.3165C16.9573 20.8507 16.5797 20.4731 16.1139 20.4731C15.6481 20.4731 15.2705 20.8507 15.2705 21.3165C15.2705 21.7823 15.6481 22.1599 16.1139 22.1599Z" fill="url(#paint34_radial_938_25171)"/>
<path id="Vector_35" d="M50.8873 21.7017C51.3531 21.7017 51.7307 21.3241 51.7307 20.8583C51.7307 20.3925 51.3531 20.0149 50.8873 20.0149C50.4216 20.0149 50.0439 20.3925 50.0439 20.8583C50.0439 21.3241 50.4216 21.7017 50.8873 21.7017Z" fill="url(#paint35_radial_938_25171)"/>
<path id="Vector_36" d="M68.5036 26.9424C68.9694 26.9424 69.347 26.5648 69.347 26.099C69.347 25.6332 68.9694 25.2556 68.5036 25.2556C68.0378 25.2556 67.6602 25.6332 67.6602 26.099C67.6602 26.5648 68.0378 26.9424 68.5036 26.9424Z" fill="url(#paint36_radial_938_25171)"/>
<path id="Vector_37" d="M75.8073 27.9087C76.2731 27.9087 76.6507 27.5311 76.6507 27.0653C76.6507 26.5995 76.2731 26.2219 75.8073 26.2219C75.3415 26.2219 74.9639 26.5995 74.9639 27.0653C74.9639 27.5311 75.3415 27.9087 75.8073 27.9087Z" fill="url(#paint37_radial_938_25171)"/>
<path id="Vector_38" d="M77.3004 23.9292C77.7662 23.9292 78.1438 23.5516 78.1438 23.0858C78.1438 22.62 77.7662 22.2424 77.3004 22.2424C76.8346 22.2424 76.457 22.62 76.457 23.0858C76.457 23.5516 76.8346 23.9292 77.3004 23.9292Z" fill="url(#paint38_radial_938_25171)"/>
<path id="Vector_39" d="M30.7155 29.6175C31.1813 29.6175 31.5589 29.2399 31.5589 28.7741C31.5589 28.3083 31.1813 27.9307 30.7155 27.9307C30.2497 27.9307 29.8721 28.3083 29.8721 28.7741C29.8721 29.2399 30.2497 29.6175 30.7155 29.6175Z" fill="url(#paint39_radial_938_25171)"/>
<path id="Vector_40" d="M47.1315 27.6277C47.5973 27.6277 47.9749 27.2501 47.9749 26.7843C47.9749 26.3185 47.5973 25.9409 47.1315 25.9409C46.6657 25.9409 46.2881 26.3185 46.2881 26.7843C46.2881 27.2501 46.6657 27.6277 47.1315 27.6277Z" fill="url(#paint40_radial_938_25171)"/>
<path id="Vector_41" d="M47.9752 23.4461C48.441 23.4461 48.8186 23.0685 48.8186 22.6027C48.8186 22.1369 48.441 21.7593 47.9752 21.7593C47.5094 21.7593 47.1318 22.1369 47.1318 22.6027C47.1318 23.0685 47.5094 23.4461 47.9752 23.4461Z" fill="url(#paint41_radial_938_25171)"/>
<path id="Vector_42" d="M56.9684 18.8838C57.4342 18.8838 57.8118 18.5062 57.8118 18.0404C57.8118 17.5746 57.4342 17.197 56.9684 17.197C56.5026 17.197 56.125 17.5746 56.125 18.0404C56.125 18.5062 56.5026 18.8838 56.9684 18.8838Z" fill="url(#paint42_radial_938_25171)"/>
<path id="Vector_43" d="M52.3795 25.1839C52.8453 25.1839 53.2229 24.8063 53.2229 24.3405C53.2229 23.8747 52.8453 23.4971 52.3795 23.4971C51.9137 23.4971 51.5361 23.8747 51.5361 24.3405C51.5361 24.8063 51.9137 25.1839 52.3795 25.1839Z" fill="url(#paint43_radial_938_25171)"/>
<path id="Vector_44" d="M68.0524 22.6028C68.5182 22.6028 68.8958 22.2252 68.8958 21.7594C68.8958 21.2936 68.5182 20.916 68.0524 20.916C67.5866 20.916 67.209 21.2936 67.209 21.7594C67.209 22.2252 67.5866 22.6028 68.0524 22.6028Z" fill="url(#paint44_radial_938_25171)"/>
<path id="Vector_45" d="M72.6715 18.9451C73.1373 18.9451 73.5149 18.5675 73.5149 18.1017C73.5149 17.6359 73.1373 17.2583 72.6715 17.2583C72.2057 17.2583 71.8281 17.6359 71.8281 18.1017C71.8281 18.5675 72.2057 18.9451 72.6715 18.9451Z" fill="url(#paint45_radial_938_25171)"/>
<path id="Vector_46" d="M8.91593 18.37C9.70333 18.37 10.3416 17.7316 10.3416 16.9443C10.3416 16.1569 9.70333 15.5186 8.91593 15.5186C8.12854 15.5186 7.49023 16.1569 7.49023 16.9443C7.49023 17.7316 8.12854 18.37 8.91593 18.37Z" fill="url(#paint46_radial_938_25171)"/>
<path id="Vector_47" d="M24.5859 22.284C25.3732 22.284 26.0116 21.6457 26.0116 20.8583C26.0116 20.0709 25.3732 19.4326 24.5859 19.4326C23.7985 19.4326 23.1602 20.0709 23.1602 20.8583C23.1602 21.6457 23.7985 22.284 24.5859 22.284Z" fill="url(#paint47_radial_938_25171)"/>
<path id="Vector_48" d="M31.8808 24.9227C32.6682 24.9227 33.3065 24.2844 33.3065 23.497C33.3065 22.7096 32.6682 22.0713 31.8808 22.0713C31.0934 22.0713 30.4551 22.7096 30.4551 23.497C30.4551 24.2844 31.0934 24.9227 31.8808 24.9227Z" fill="url(#paint48_radial_938_25171)"/>
<path id="Vector_49" d="M43.2343 27.2139C44.0217 27.2139 44.66 26.5756 44.66 25.7882C44.66 25.0009 44.0217 24.3625 43.2343 24.3625C42.4469 24.3625 41.8086 25.0009 41.8086 25.7882C41.8086 26.5756 42.4469 27.2139 43.2343 27.2139Z" fill="url(#paint49_radial_938_25171)"/>
<path id="Vector_50" d="M46.0859 20.8917C46.8732 20.8917 47.5116 20.2534 47.5116 19.466C47.5116 18.6786 46.8732 18.0403 46.0859 18.0403C45.2985 18.0403 44.6602 18.6786 44.6602 19.466C44.6602 20.2534 45.2985 20.8917 46.0859 20.8917Z" fill="url(#paint50_radial_938_25171)"/>
<path id="Vector_51" d="M53.457 19.7957C54.2443 19.7957 54.8827 19.1574 54.8827 18.37C54.8827 17.5826 54.2443 16.9443 53.457 16.9443C52.6696 16.9443 52.0312 17.5826 52.0312 18.37C52.0312 19.1574 52.6696 19.7957 53.457 19.7957Z" fill="url(#paint51_radial_938_25171)"/>
<path id="Vector_52" d="M71.0732 26.0313C71.8606 26.0313 72.4989 25.393 72.4989 24.6056C72.4989 23.8182 71.8606 23.1799 71.0732 23.1799C70.2858 23.1799 69.6475 23.8182 69.6475 24.6056C69.6475 25.393 70.2858 26.0313 71.0732 26.0313Z" fill="url(#paint52_radial_938_25171)"/>
</g>
<g id="HAIRS">
<g id="Group">
<path id="Vector_53" d="M76.1418 26.705C77.0033 26.705 77.7016 26.0067 77.7016 25.1452C77.7016 24.2838 77.0033 23.5854 76.1418 23.5854C75.2804 23.5854 74.582 24.2838 74.582 25.1452C74.582 26.0067 75.2804 26.705 76.1418 26.705Z" fill="url(#paint53_radial_938_25171)"/>
<path id="Vector_54" d="M26.9885 29.8457C27.85 29.8457 28.5483 29.1473 28.5483 28.2859C28.5483 27.4244 27.85 26.7261 26.9885 26.7261C26.1271 26.7261 25.4287 27.4244 25.4287 28.2859C25.4287 29.1473 26.1271 29.8457 26.9885 29.8457Z" fill="url(#paint54_radial_938_25171)"/>
<path id="Vector_55" d="M19.7698 19.2522C20.6312 19.2522 21.3296 18.5538 21.3296 17.6924C21.3296 16.8309 20.6312 16.1326 19.7698 16.1326C18.9083 16.1326 18.21 16.8309 18.21 17.6924C18.21 18.5538 18.9083 19.2522 19.7698 19.2522Z" fill="url(#paint55_radial_938_25171)"/>
<path id="Vector_56" d="M11.7893 25.9409C12.6507 25.9409 13.3491 25.2425 13.3491 24.3811C13.3491 23.5196 12.6507 22.8213 11.7893 22.8213C10.9278 22.8213 10.2295 23.5196 10.2295 24.3811C10.2295 25.2425 10.9278 25.9409 11.7893 25.9409Z" fill="url(#paint56_radial_938_25171)"/>
<path id="Vector_57" d="M39.3752 20.9365C40.2367 20.9365 40.935 20.2381 40.935 19.3767C40.935 18.5152 40.2367 17.8169 39.3752 17.8169C38.5138 17.8169 37.8154 18.5152 37.8154 19.3767C37.8154 20.2381 38.5138 20.9365 39.3752 20.9365Z" fill="url(#paint57_radial_938_25171)"/>
<path id="Vector_58" d="M60.0032 26.2463C60.8646 26.2463 61.563 25.548 61.563 24.6865C61.563 23.8251 60.8646 23.1267 60.0032 23.1267C59.1417 23.1267 58.4434 23.8251 58.4434 24.6865C58.4434 25.548 59.1417 26.2463 60.0032 26.2463Z" fill="url(#paint58_radial_938_25171)"/>
<path id="Vector_59" d="M55.7483 17.3574C56.6097 17.3574 57.3081 16.659 57.3081 15.7976C57.3081 14.9361 56.6097 14.2378 55.7483 14.2378C54.8868 14.2378 54.1885 14.9361 54.1885 15.7976C54.1885 16.659 54.8868 17.3574 55.7483 17.3574Z" fill="url(#paint59_radial_938_25171)"/>
</g>
<g id="Group_2">
<path id="Vector_60" d="M76.1418 26.705C77.0033 26.705 77.7016 26.0067 77.7016 25.1452C77.7016 24.2838 77.0033 23.5854 76.1418 23.5854C75.2804 23.5854 74.582 24.2838 74.582 25.1452C74.582 26.0067 75.2804 26.705 76.1418 26.705Z" fill="url(#paint60_radial_938_25171)"/>
<path id="Vector_61" d="M26.9885 29.8457C27.85 29.8457 28.5483 29.1473 28.5483 28.2859C28.5483 27.4244 27.85 26.7261 26.9885 26.7261C26.1271 26.7261 25.4287 27.4244 25.4287 28.2859C25.4287 29.1473 26.1271 29.8457 26.9885 29.8457Z" fill="url(#paint61_radial_938_25171)"/>
<path id="Vector_62" d="M19.7698 19.2522C20.6312 19.2522 21.3296 18.5538 21.3296 17.6924C21.3296 16.8309 20.6312 16.1326 19.7698 16.1326C18.9083 16.1326 18.21 16.8309 18.21 17.6924C18.21 18.5538 18.9083 19.2522 19.7698 19.2522Z" fill="url(#paint62_radial_938_25171)"/>
<path id="Vector_63" d="M11.7893 25.9409C12.6507 25.9409 13.3491 25.2425 13.3491 24.3811C13.3491 23.5196 12.6507 22.8213 11.7893 22.8213C10.9278 22.8213 10.2295 23.5196 10.2295 24.3811C10.2295 25.2425 10.9278 25.9409 11.7893 25.9409Z" fill="url(#paint63_radial_938_25171)"/>
<path id="Vector_64" d="M39.3752 20.9365C40.2367 20.9365 40.935 20.2381 40.935 19.3767C40.935 18.5152 40.2367 17.8169 39.3752 17.8169C38.5138 17.8169 37.8154 18.5152 37.8154 19.3767C37.8154 20.2381 38.5138 20.9365 39.3752 20.9365Z" fill="url(#paint64_radial_938_25171)"/>
<path id="Vector_65" d="M60.0032 26.2463C60.8646 26.2463 61.563 25.548 61.563 24.6865C61.563 23.8251 60.8646 23.1267 60.0032 23.1267C59.1417 23.1267 58.4434 23.8251 58.4434 24.6865C58.4434 25.548 59.1417 26.2463 60.0032 26.2463Z" fill="url(#paint65_radial_938_25171)"/>
<path id="Vector_66" d="M55.7483 17.3574C56.6097 17.3574 57.3081 16.659 57.3081 15.7976C57.3081 14.9361 56.6097 14.2378 55.7483 14.2378C54.8868 14.2378 54.1885 14.9361 54.1885 15.7976C54.1885 16.659 54.8868 17.3574 55.7483 17.3574Z" fill="url(#paint66_radial_938_25171)"/>
</g>
<g id="Group_3">
<path id="Vector_67" d="M77.79 14.1482C78.1927 13.827 78.5635 13.4745 78.8891 13.0882C79.41 12.4829 79.765 11.7454 79.8165 10.9755C79.8068 10.7849 79.8123 10.5915 79.7998 10.3981L79.6751 9.82589L79.4767 9.11959C79.4226 8.88199 79.3848 8.64119 79.3391 8.40319C79.1962 7.44339 79.2077 6.47149 79.3659 5.52749C79.5408 4.58859 79.8399 3.66329 80.3672 2.85779C80.6277 2.45589 80.9446 2.08469 81.3303 1.79099C81.7268 1.51209 82.1948 1.32629 82.6771 1.32349L82.6831 1.47259C82.2412 1.53079 81.8518 1.74809 81.5306 2.03569C81.2151 2.33519 80.9637 2.69759 80.7652 3.08819C80.3621 3.86819 80.1753 4.75209 80.1059 5.62319C80.0317 6.49709 80.0952 7.37979 80.2919 8.22139C80.3508 8.42939 80.4007 8.63929 80.4649 8.84399L80.6882 9.44639L80.9206 10.2021C80.9638 10.462 80.983 10.7287 81.0102 10.9945C81.0364 12.0689 80.6497 13.107 80.0788 13.9641C79.7799 14.4071 79.4223 14.8012 79.024 15.1432L77.79 14.1482Z" fill="url(#paint67_linear_938_25171)"/>
<path id="Vector_68" d="M19.6297 41.5028C20.1626 40.0996 21.1669 38.852 22.4151 37.9743C23.6506 37.0773 25.0568 36.4895 26.1847 35.6451C26.7508 35.2288 27.2303 34.7339 27.5388 34.1398C27.8459 33.5328 28.1226 32.8668 28.1974 32.2081C28.2704 31.5487 28.202 30.8932 27.9247 30.331C27.7975 30.0458 27.6145 29.7884 27.413 29.5515C27.2159 29.3269 26.9326 29.1003 26.735 28.9898L26.71 28.9758C26.3708 28.7861 26.2497 28.3574 26.4393 28.0183C26.629 27.6791 27.0577 27.558 27.3969 27.7476C27.4208 27.7609 27.4468 27.7779 27.4684 27.7934C27.8862 28.0984 28.1486 28.3886 28.4139 28.7447C28.6662 29.0936 28.8865 29.4684 29.0319 29.8756C29.3486 30.6829 29.3633 31.5712 29.2064 32.3714C29.0654 33.1891 28.726 33.9046 28.3329 34.5973C27.9242 35.3101 27.3142 35.883 26.6693 36.3185C25.3685 37.1952 23.9608 37.6804 22.7338 38.4517C21.4723 39.1719 20.463 40.2615 19.766 41.5642C19.7469 41.6008 19.7018 41.615 19.6651 41.5959C19.6312 41.578 19.6168 41.5376 19.6297 41.5028Z" fill="url(#paint68_linear_938_25171)"/>
<path id="Vector_69" d="M19.6072 18.3159C18.5792 18.3206 17.523 18.2617 16.4734 17.8997C16.216 17.7906 15.9599 17.6725 15.7051 17.5553C15.4556 17.4236 15.2248 17.2406 14.9875 17.0806C14.7577 16.9079 14.5697 16.6772 14.3642 16.4734C14.1716 16.2573 14.0348 15.9998 13.8729 15.7616C13.3253 14.7443 13.1845 13.6472 13.1614 12.615C13.1412 11.57 13.3183 10.576 13.4877 9.58902C13.6057 9.10492 13.7101 8.61722 13.8404 8.13952C13.9802 7.66512 14.1033 7.18542 14.2567 6.71772L14.7053 5.33112C14.8393 4.89912 14.9272 4.45472 14.8954 4.04392C14.8754 3.63042 14.715 3.26752 14.3941 3.01692C14.0755 2.76312 13.6283 2.62972 13.1723 2.56782C12.2493 2.45452 11.2692 2.56772 10.332 2.77172L10.3277 2.77262C10.2874 2.78132 10.2477 2.75582 10.239 2.71562C10.2309 2.67822 10.2522 2.64132 10.2876 2.62922C11.2179 2.30902 12.1878 2.08202 13.2102 2.10942C13.7166 2.13122 14.255 2.21682 14.7407 2.52342C14.9775 2.67892 15.1976 2.88662 15.3487 3.14152C15.4932 3.39452 15.6005 3.67502 15.6359 3.95182C15.721 4.50992 15.6479 5.04472 15.5352 5.54952L15.1927 6.97252C15.0781 7.44012 14.9953 7.91232 14.8952 8.38072C14.8051 8.85052 14.7421 9.32202 14.6645 9.79082C14.5583 10.7264 14.4472 11.6699 14.5199 12.5736C14.5661 13.4731 14.7311 14.3556 15.1392 15.0478C15.5275 15.7493 16.1691 16.2352 16.9614 16.5183C17.7656 16.7829 18.672 16.8563 19.5856 16.8856L19.627 16.8869C20.0216 16.8996 20.3312 17.2297 20.3185 17.6243C20.306 18.0094 19.9895 18.3137 19.6072 18.3159Z" fill="url(#paint69_linear_938_25171)"/>
<path id="Vector_70" d="M54.8406 15.7964C54.4933 14.413 54.0418 13.0272 53.2846 11.8934C52.8998 11.3228 52.4436 10.869 51.8638 10.4399C51.5743 10.2205 51.2027 9.95612 50.9444 9.53632C50.8035 9.33182 50.7456 9.10712 50.6728 8.88872C50.6444 8.67912 50.588 8.45712 50.5913 8.25882C50.5695 7.85302 50.6186 7.45792 50.6593 7.06482L50.7901 6.47932C50.8363 6.28552 50.9208 6.10042 50.9853 5.91232C51.2847 5.16592 51.7863 4.54272 52.2728 3.99262C52.7496 3.43672 53.2331 2.89672 53.3731 2.21012C53.5309 1.53082 53.3945 0.795324 53.1787 0.0996238L53.1778 0.0967238C53.1656 0.0574238 53.1876 0.0155238 53.2269 0.0033238C53.2641 -0.0081762 53.3036 0.0111238 53.3181 0.0464238C53.5976 0.732824 53.8203 1.48632 53.7124 2.27402C53.6196 3.07452 53.1201 3.73652 52.6971 4.32882C52.255 4.92232 51.8677 5.51102 51.6689 6.16432C51.6293 6.33032 51.569 6.48892 51.5447 6.65772L51.4757 7.16252C51.4721 7.50712 51.4568 7.84982 51.504 8.18232C51.5612 8.90072 51.8189 9.18762 52.461 9.59542C53.0999 10.0018 53.7482 10.5592 54.2283 11.1898C54.4958 11.4932 54.6947 11.8284 54.9231 12.1535C55.1148 12.4901 55.3198 12.8268 55.497 13.1695C55.8551 13.8564 56.1607 14.5571 56.4686 15.2609C56.659 15.6964 56.4604 16.2039 56.0249 16.3944C55.5894 16.5849 55.082 16.3862 54.8915 15.9507C54.8727 15.9077 54.8577 15.8641 54.8463 15.8201L54.8406 15.7964Z" fill="url(#paint70_linear_938_25171)"/>
<path id="Vector_71" d="M76.2673 24.5097C77.242 24.5998 78.2159 24.6855 79.1956 24.8854C80.1681 25.0893 81.1705 25.3277 82.1004 25.9412C82.5606 26.246 82.9641 26.7227 83.19 27.2393C83.419 27.7567 83.4978 28.2632 83.6083 28.7029C83.8273 29.5975 84.2718 30.3845 84.8662 30.9604C85.4621 31.5483 86.3094 31.8571 87.2056 31.975C87.431 31.9991 87.6604 32.0073 87.8892 32.0245L88.5843 32.0106L90.0113 31.8747C90.9851 31.7913 91.9875 31.8172 92.9344 32.1037C93.4086 32.2379 93.8597 32.4539 94.2684 32.7263C94.6765 33.002 95.0439 33.3377 95.2989 33.7758C95.3196 33.8112 95.3075 33.8568 95.2721 33.8774C95.238 33.8972 95.1947 33.8869 95.1731 33.8546L95.1669 33.8454C94.651 33.0713 93.7528 32.6029 92.8562 32.395C91.946 32.1787 90.9925 32.2116 90.068 32.3477L88.6452 32.6086L87.9047 32.6877C87.6544 32.6918 87.4034 32.7039 87.1506 32.6987C86.1476 32.6677 85.0615 32.3812 84.2324 31.6549C83.3973 30.9249 83.0357 29.8837 82.7449 28.9433C82.5977 28.4613 82.4952 28.0158 82.3071 27.6646C82.1157 27.318 81.857 27.0487 81.5008 26.847C80.8026 26.427 79.8892 26.2275 78.9867 26.0893C78.0771 25.9468 77.1326 25.9077 76.1949 25.8654L76.174 25.8644C75.7993 25.8475 75.5092 25.53 75.5261 25.1552C75.543 24.7805 75.8605 24.4904 76.2353 24.5073C76.2453 24.508 76.2576 24.5089 76.2673 24.5097Z" fill="url(#paint71_linear_938_25171)"/>
<path id="Vector_72" d="M11.3524 24.9024C10.4799 24.4976 9.55727 24.2176 8.63557 24.1692C7.71887 24.1284 6.80157 24.3224 6.04537 24.8149C4.52037 25.7842 3.74257 27.8378 4.17997 29.6602C4.27707 30.117 4.44387 30.5603 4.67467 30.9717L4.85937 31.2743L5.07057 31.5606C5.22617 31.7741 5.41267 32.0068 5.54187 32.2642C5.81577 32.7714 5.96267 33.3837 5.88227 33.9683C5.80367 34.5526 5.54767 35.0738 5.23207 35.5172C4.59367 36.4088 3.74367 37.0597 2.87127 37.6302C1.99027 38.1943 1.06497 38.6707 0.103169 39.0683C0.0650691 39.084 0.0214691 39.0659 0.00566912 39.0279C-0.00943089 38.9913 0.00666912 38.9497 0.0416691 38.9325L0.0443691 38.9312C0.965569 38.4815 1.85397 37.9513 2.67707 37.3484C3.49207 36.743 4.26867 36.0534 4.78507 35.2226C5.03607 34.8073 5.20677 34.3555 5.23197 33.9081C5.25667 33.4602 5.11627 33.0293 4.87317 32.6478C4.75587 32.4491 4.60477 32.2883 4.44357 32.0943L4.17257 31.7745L3.92927 31.4316C3.62137 30.9621 3.38387 30.4435 3.22887 29.8993C2.93037 28.8074 2.96577 27.6254 3.33657 26.5445C3.70587 25.4657 4.41657 24.4831 5.38137 23.8206C6.34077 23.144 7.53217 22.8494 8.67217 22.8625C9.81877 22.8811 10.9191 23.1813 11.9323 23.6076C12.2935 23.7596 12.4631 24.1755 12.3112 24.5367C12.1593 24.8979 11.7433 25.0675 11.3821 24.9155C11.3751 24.9126 11.3682 24.9095 11.3614 24.9064L11.3524 24.9024Z" fill="url(#paint72_linear_938_25171)"/>
<path id="Vector_73" d="M59.8304 25.1819C59.0583 24.9119 58.2554 24.8133 57.5297 25.012C56.8021 25.2078 56.1941 25.7446 55.7786 26.4187C55.348 27.0884 55.1026 27.9049 55.052 28.7324C55.0375 28.9393 55.0528 29.1471 55.0501 29.3555C55.0673 29.5622 55.1001 29.7675 55.1228 29.975L55.2745 30.5857C55.3468 30.829 55.4014 31.0761 55.4299 31.3256C55.5574 32.322 55.3443 33.3388 54.8426 34.204C54.5882 34.6344 54.2502 35.0244 53.837 35.3259C53.4223 35.624 52.9354 35.8305 52.4299 35.9108C51.4018 36.0595 50.419 35.6925 49.6395 35.174C48.8591 34.6359 48.2147 33.9593 47.6792 33.2182C47.655 33.1846 47.6626 33.1378 47.6961 33.1136C47.7259 33.092 47.7665 33.0959 47.7921 33.1205C48.4428 33.7459 49.141 34.3172 49.9055 34.7302C50.6689 35.1268 51.5215 35.3629 52.299 35.1762C53.8669 34.8598 54.8849 33.0411 54.6157 31.4407C54.5823 31.2413 54.5278 31.0478 54.4616 30.8597L54.2489 30.1614C54.207 29.9208 54.1568 29.6798 54.1245 29.4369C54.1122 29.1929 54.0839 28.9476 54.0876 28.7025C54.0989 27.7224 54.3314 26.7322 54.8349 25.8486C55.3452 24.9824 56.172 24.2129 57.2046 23.9151C58.2329 23.6037 59.3124 23.76 60.2344 24.1084C60.5307 24.2203 60.6801 24.5512 60.5682 24.8475C60.458 25.1391 60.1358 25.2884 59.8432 25.1864L59.8304 25.1819Z" fill="url(#paint73_linear_938_25171)"/>
<path id="Vector_74" d="M39.0789 19.9904C38.4905 19.793 37.8805 19.5618 37.3325 19.0859C37.0665 18.8458 36.8128 18.5427 36.6702 18.1845C36.5032 17.8338 36.4631 17.4545 36.4542 17.1055C36.458 16.4017 36.652 15.8052 36.8488 15.246C37.0526 14.6884 37.2831 14.1664 37.4971 13.6513C37.9208 12.6339 38.334 11.6035 38.2691 10.66C38.232 9.72099 37.5453 8.9783 36.6302 8.4757C35.7264 7.9629 34.6407 7.6446 33.5941 7.4445C32.5492 7.2422 31.4478 7.2347 30.5565 7.6974C30.1207 7.9298 29.7263 8.264 29.4715 8.7151C29.3164 8.9223 29.238 9.17729 29.1287 9.4168C29.0566 9.6709 28.9686 9.926 28.9263 10.1931C28.7403 11.2614 28.8117 12.3932 29.0306 13.4913C29.0392 13.5317 29.0135 13.5714 28.9732 13.58C28.9357 13.588 28.8985 13.5654 28.8865 13.53C28.5367 12.4495 28.3358 11.2985 28.4393 10.1249C28.4584 9.832 28.5284 9.54 28.5926 9.2494C28.6943 8.9666 28.7666 8.6706 28.9301 8.4066C29.0566 8.1244 29.2578 7.8853 29.4567 7.6422C29.5529 7.5179 29.6883 7.4318 29.8042 7.3253C29.9251 7.2238 30.0428 7.1155 30.1861 7.0497C31.2928 6.4081 32.5823 6.3839 33.7372 6.5458C34.9039 6.7362 36.0292 7.022 37.1135 7.5856C37.6542 7.8581 38.1738 8.238 38.6041 8.735C39.0362 9.233 39.3152 9.90369 39.3728 10.563C39.4372 11.2242 39.3338 11.8561 39.1792 12.4374C39.0235 13.0213 38.8183 13.5696 38.6124 14.1021C38.4049 14.6335 38.1916 15.1496 38.0194 15.6562C37.8501 16.159 37.7181 16.6655 37.7319 17.0951C37.7475 17.5267 37.8889 17.8332 38.199 18.0967C38.5112 18.3605 38.9766 18.5449 39.457 18.6919L39.492 18.7026C39.8492 18.8119 40.0501 19.1901 39.9408 19.5472C39.8315 19.9043 39.4534 20.1053 39.0962 19.996C39.0913 19.9945 39.0835 19.992 39.0789 19.9904Z" fill="url(#paint74_linear_938_25171)"/>
</g>
</g>
</g>
<defs>
<radialGradient id="paint0_radial_938_25171" cx="0" cy="0" r="1" gradientUnits="userSpaceOnUse" gradientTransform="translate(42.057 21.4267) scale(49.4422 16.6867)">
<stop stop-color="#A9C4DB"/>
<stop offset="0.8334" stop-color="#599AD3"/>
</radialGradient>
<radialGradient id="paint1_radial_938_25171" cx="0" cy="0" r="1" gradientUnits="userSpaceOnUse" gradientTransform="translate(7.44037 23.0573) scale(1.9449 1.78853)">
<stop stop-color="#9CD1FF" stop-opacity="0.8"/>
<stop offset="1" stop-color="#1268B3"/>
</radialGradient>
<radialGradient id="paint2_radial_938_25171" cx="0" cy="0" r="1" gradientUnits="userSpaceOnUse" gradientTransform="translate(22.4448 14.9271) scale(2.8233 2.59631)">
<stop stop-color="#9CD1FF" stop-opacity="0.8"/>
<stop offset="1" stop-color="#1268B3"/>
</radialGradient>
<radialGradient id="paint3_radial_938_25171" cx="0" cy="0" r="1" gradientUnits="userSpaceOnUse" gradientTransform="translate(27.9824 17.7806) scale(1.9449 1.78853)">
<stop stop-color="#9CD1FF" stop-opacity="0.8"/>
<stop offset="1" stop-color="#1268B3"/>
</radialGradient>
<radialGradient id="paint4_radial_938_25171" cx="0" cy="0" r="1" gradientUnits="userSpaceOnUse" gradientTransform="translate(38.1376 24.4448) scale(1.9449 1.78853)">
<stop stop-color="#9CD1FF" stop-opacity="0.8"/>
<stop offset="1" stop-color="#1268B3"/>
</radialGradient>
<radialGradient id="paint5_radial_938_25171" cx="0" cy="0" r="1" gradientUnits="userSpaceOnUse" gradientTransform="translate(40.127 26.9322) scale(1.9449 1.78853)">
<stop stop-color="#9CD1FF" stop-opacity="0.8"/>
<stop offset="1" stop-color="#1268B3"/>
</radialGradient>
<radialGradient id="paint6_radial_938_25171" cx="0" cy="0" r="1" gradientUnits="userSpaceOnUse" gradientTransform="translate(26.6845 27.9756) scale(1.9449 1.78853)">
<stop stop-color="#9CD1FF" stop-opacity="0.8"/>
<stop offset="1" stop-color="#1268B3"/>
</radialGradient>
<radialGradient id="paint7_radial_938_25171" cx="0" cy="0" r="1" gradientUnits="userSpaceOnUse" gradientTransform="translate(38.956 21.2435) scale(1.9449 1.78853)">
<stop stop-color="#9CD1FF" stop-opacity="0.8"/>
<stop offset="1" stop-color="#1268B3"/>
</radialGradient>
<radialGradient id="paint8_radial_938_25171" cx="0" cy="0" r="1" gradientUnits="userSpaceOnUse" gradientTransform="translate(54.329 21.006) scale(1.9449 1.78853)">
<stop stop-color="#9CD1FF" stop-opacity="0.8"/>
<stop offset="1" stop-color="#1268B3"/>
</radialGradient>
<radialGradient id="paint9_radial_938_25171" cx="0" cy="0" r="1" gradientUnits="userSpaceOnUse" gradientTransform="translate(61.623 14.6191) scale(1.9449 1.78853)">
<stop stop-color="#9CD1FF" stop-opacity="0.8"/>
<stop offset="1" stop-color="#1268B3"/>
</radialGradient>
<radialGradient id="paint10_radial_938_25171" cx="0" cy="0" r="1" gradientUnits="userSpaceOnUse" gradientTransform="translate(32.4277 15.0656) scale(1.9449 1.78853)">
<stop stop-color="#9CD1FF" stop-opacity="0.8"/>
<stop offset="1" stop-color="#1268B3"/>
</radialGradient>
<radialGradient id="paint11_radial_938_25171" cx="0" cy="0" r="1" gradientUnits="userSpaceOnUse" gradientTransform="translate(17.8251 15.0656) scale(1.9449 1.78853)">
<stop stop-color="#9CD1FF" stop-opacity="0.8"/>
<stop offset="1" stop-color="#1268B3"/>
</radialGradient>
<radialGradient id="paint12_radial_938_25171" cx="0" cy="0" r="1" gradientUnits="userSpaceOnUse" gradientTransform="translate(11.5966 27.2132) scale(1.9449 1.78853)">
<stop stop-color="#9CD1FF" stop-opacity="0.8"/>
<stop offset="1" stop-color="#1268B3"/>
</radialGradient>
<radialGradient id="paint13_radial_938_25171" cx="0" cy="0" r="1" gradientUnits="userSpaceOnUse" gradientTransform="translate(17.2451 24.8738) scale(1.9449 1.78853)">
<stop stop-color="#9CD1FF" stop-opacity="0.8"/>
<stop offset="1" stop-color="#1268B3"/>
</radialGradient>
<radialGradient id="paint14_radial_938_25171" cx="0" cy="0" r="1" gradientUnits="userSpaceOnUse" gradientTransform="translate(12.7685 18.2122) scale(1.9449 1.78853)">
<stop stop-color="#9CD1FF" stop-opacity="0.8"/>
<stop offset="1" stop-color="#1268B3"/>
</radialGradient>
<radialGradient id="paint15_radial_938_25171" cx="0" cy="0" r="1" gradientUnits="userSpaceOnUse" gradientTransform="translate(21.2234 23.7324) scale(2.1917 2.01549)">
<stop stop-color="#9CD1FF" stop-opacity="0.8"/>
<stop offset="1" stop-color="#1268B3"/>
</radialGradient>
<radialGradient id="paint16_radial_938_25171" cx="0" cy="0" r="1" gradientUnits="userSpaceOnUse" gradientTransform="translate(35.1533 20.548) scale(1.9449 1.78853)">
<stop stop-color="#9CD1FF" stop-opacity="0.8"/>
<stop offset="1" stop-color="#1268B3"/>
</radialGradient>
<radialGradient id="paint17_radial_938_25171" cx="0" cy="0" r="1" gradientUnits="userSpaceOnUse" gradientTransform="translate(23.5513 26.9473) scale(2.8233 2.59631)">
<stop stop-color="#9CD1FF" stop-opacity="0.8"/>
<stop offset="1" stop-color="#1268B3"/>
</radialGradient>
<radialGradient id="paint18_radial_938_25171" cx="0" cy="0" r="1" gradientUnits="userSpaceOnUse" gradientTransform="translate(36.9881 15.403) scale(2.1917 2.01549)">
<stop stop-color="#9CD1FF" stop-opacity="0.8"/>
<stop offset="1" stop-color="#1268B3"/>
</radialGradient>
<radialGradient id="paint19_radial_938_25171" cx="0" cy="0" r="1" gradientUnits="userSpaceOnUse" gradientTransform="translate(27.6679 24.1008) scale(1.9449 1.78853)">
<stop stop-color="#9CD1FF" stop-opacity="0.8"/>
<stop offset="1" stop-color="#1268B3"/>
</radialGradient>
<radialGradient id="paint20_radial_938_25171" cx="0" cy="0" r="1" gradientUnits="userSpaceOnUse" gradientTransform="translate(38.9351 18.9278) scale(2.8233 2.59631)">
<stop stop-color="#9CD1FF" stop-opacity="0.8"/>
<stop offset="1" stop-color="#1268B3"/>
</radialGradient>
<radialGradient id="paint21_radial_938_25171" cx="0" cy="0" r="1" gradientUnits="userSpaceOnUse" gradientTransform="translate(67.6131 15.7428) scale(2.1917 2.01549)">
<stop stop-color="#9CD1FF" stop-opacity="0.8"/>
<stop offset="1" stop-color="#1268B3"/>
</radialGradient>
<radialGradient id="paint22_radial_938_25171" cx="0" cy="0" r="1" gradientUnits="userSpaceOnUse" gradientTransform="translate(65.1044 18.5987) scale(1.9449 1.78853)">
<stop stop-color="#9CD1FF" stop-opacity="0.8"/>
<stop offset="1" stop-color="#1268B3"/>
</radialGradient>
<radialGradient id="paint23_radial_938_25171" cx="0" cy="0" r="1" gradientUnits="userSpaceOnUse" gradientTransform="translate(75.6375 16.886) scale(2.1917 2.01549)">
<stop stop-color="#9CD1FF" stop-opacity="0.8"/>
<stop offset="1" stop-color="#1268B3"/>
</radialGradient>
<radialGradient id="paint24_radial_938_25171" cx="0" cy="0" r="1" gradientUnits="userSpaceOnUse" gradientTransform="translate(73.1289 19.7415) scale(1.9449 1.78853)">
<stop stop-color="#9CD1FF" stop-opacity="0.8"/>
<stop offset="1" stop-color="#1268B3"/>
</radialGradient>
<radialGradient id="paint25_radial_938_25171" cx="0" cy="0" r="1" gradientUnits="userSpaceOnUse" gradientTransform="translate(60.0428 19.504) scale(2.1917 2.01549)">
<stop stop-color="#9CD1FF" stop-opacity="0.8"/>
<stop offset="1" stop-color="#1268B3"/>
</radialGradient>
<radialGradient id="paint26_radial_938_25171" cx="0" cy="0" r="1" gradientUnits="userSpaceOnUse" gradientTransform="translate(55.8212 24.4883) scale(1.9449 1.78853)">
<stop stop-color="#9CD1FF" stop-opacity="0.8"/>
<stop offset="1" stop-color="#1268B3"/>
</radialGradient>
<radialGradient id="paint27_radial_938_25171" cx="0" cy="0" r="1" gradientUnits="userSpaceOnUse" gradientTransform="translate(59.5629 24.2377) scale(2.8233 2.59631)">
<stop stop-color="#9CD1FF" stop-opacity="0.8"/>
<stop offset="1" stop-color="#1268B3"/>
</radialGradient>
<radialGradient id="paint28_radial_938_25171" cx="0" cy="0" r="1" gradientUnits="userSpaceOnUse" gradientTransform="translate(50.5742 26.9322) scale(1.9449 1.78853)">
<stop stop-color="#9CD1FF" stop-opacity="0.8"/>
<stop offset="1" stop-color="#1268B3"/>
</radialGradient>
<radialGradient id="paint29_radial_938_25171" cx="0" cy="0" r="1" gradientUnits="userSpaceOnUse" gradientTransform="translate(54.201 14.5802) scale(2.1917 2.01549)">
<stop stop-color="#9CD1FF" stop-opacity="0.8"/>
<stop offset="1" stop-color="#1268B3"/>
</radialGradient>
<radialGradient id="paint30_radial_938_25171" cx="0" cy="0" r="1" gradientUnits="userSpaceOnUse" gradientTransform="translate(48.8437 16.2373) scale(1.9449 1.78853)">
<stop stop-color="#9CD1FF" stop-opacity="0.8"/>
<stop offset="1" stop-color="#1268B3"/>
</radialGradient>
<radialGradient id="paint31_radial_938_25171" cx="0" cy="0" r="1" gradientUnits="userSpaceOnUse" gradientTransform="translate(9.02529 20.9991) scale(1.4001 1.28753)">
<stop stop-color="#9CD1FF" stop-opacity="0.8"/>
<stop offset="1" stop-color="#1268B3"/>
</radialGradient>
<radialGradient id="paint32_radial_938_25171" cx="0" cy="0" r="1" gradientUnits="userSpaceOnUse" gradientTransform="translate(30.8183 18.3841) scale(1.4001 1.28753)">
<stop stop-color="#9CD1FF" stop-opacity="0.8"/>
<stop offset="1" stop-color="#1268B3"/>
</radialGradient>
<radialGradient id="paint33_radial_938_25171" cx="0" cy="0" r="1" gradientUnits="userSpaceOnUse" gradientTransform="translate(18.5019 18.1453) scale(1.4001 1.28753)">
<stop stop-color="#9CD1FF" stop-opacity="0.8"/>
<stop offset="1" stop-color="#1268B3"/>
</radialGradient>
<radialGradient id="paint34_radial_938_25171" cx="0" cy="0" r="1" gradientUnits="userSpaceOnUse" gradientTransform="translate(15.8954 21.092) scale(1.4001 1.28753)">
<stop stop-color="#9CD1FF" stop-opacity="0.8"/>
<stop offset="1" stop-color="#1268B3"/>
</radialGradient>
<radialGradient id="paint35_radial_938_25171" cx="0" cy="0" r="1" gradientUnits="userSpaceOnUse" gradientTransform="translate(50.6688 20.6337) scale(1.4001 1.28753)">
<stop stop-color="#9CD1FF" stop-opacity="0.8"/>
<stop offset="1" stop-color="#1268B3"/>
</radialGradient>
<radialGradient id="paint36_radial_938_25171" cx="0" cy="0" r="1" gradientUnits="userSpaceOnUse" gradientTransform="translate(68.2851 25.8746) scale(1.4001 1.28753)">
<stop stop-color="#9CD1FF" stop-opacity="0.8"/>
<stop offset="1" stop-color="#1268B3"/>
</radialGradient>
<radialGradient id="paint37_radial_938_25171" cx="0" cy="0" r="1" gradientUnits="userSpaceOnUse" gradientTransform="translate(75.5888 26.8409) scale(1.4001 1.28753)">
<stop stop-color="#9CD1FF" stop-opacity="0.8"/>
<stop offset="1" stop-color="#1268B3"/>
</radialGradient>
<radialGradient id="paint38_radial_938_25171" cx="0" cy="0" r="1" gradientUnits="userSpaceOnUse" gradientTransform="translate(77.0819 22.8612) scale(1.4001 1.28753)">
<stop stop-color="#9CD1FF" stop-opacity="0.8"/>
<stop offset="1" stop-color="#1268B3"/>
</radialGradient>
<radialGradient id="paint39_radial_938_25171" cx="0" cy="0" r="1" gradientUnits="userSpaceOnUse" gradientTransform="translate(30.497 28.5497) scale(1.4001 1.28753)">
<stop stop-color="#9CD1FF" stop-opacity="0.8"/>
<stop offset="1" stop-color="#1268B3"/>
</radialGradient>
<radialGradient id="paint40_radial_938_25171" cx="0" cy="0" r="1" gradientUnits="userSpaceOnUse" gradientTransform="translate(46.913 26.5599) scale(1.4001 1.28753)">
<stop stop-color="#9CD1FF" stop-opacity="0.8"/>
<stop offset="1" stop-color="#1268B3"/>
</radialGradient>
<radialGradient id="paint41_radial_938_25171" cx="0" cy="0" r="1" gradientUnits="userSpaceOnUse" gradientTransform="translate(47.7567 22.3782) scale(1.4001 1.28753)">
<stop stop-color="#9CD1FF" stop-opacity="0.8"/>
<stop offset="1" stop-color="#1268B3"/>
</radialGradient>
<radialGradient id="paint42_radial_938_25171" cx="0" cy="0" r="1" gradientUnits="userSpaceOnUse" gradientTransform="translate(56.7499 17.8157) scale(1.4001 1.28753)">
<stop stop-color="#9CD1FF" stop-opacity="0.8"/>
<stop offset="1" stop-color="#1268B3"/>
</radialGradient>
<radialGradient id="paint43_radial_938_25171" cx="0" cy="0" r="1" gradientUnits="userSpaceOnUse" gradientTransform="translate(52.161 24.116) scale(1.4001 1.28753)">
<stop stop-color="#9CD1FF" stop-opacity="0.8"/>
<stop offset="1" stop-color="#1268B3"/>
</radialGradient>
<radialGradient id="paint44_radial_938_25171" cx="0" cy="0" r="1" gradientUnits="userSpaceOnUse" gradientTransform="translate(67.8339 21.5347) scale(1.4001 1.28753)">
<stop stop-color="#9CD1FF" stop-opacity="0.8"/>
<stop offset="1" stop-color="#1268B3"/>
</radialGradient>
<radialGradient id="paint45_radial_938_25171" cx="0" cy="0" r="1" gradientUnits="userSpaceOnUse" gradientTransform="translate(72.453 17.8771) scale(1.4001 1.28753)">
<stop stop-color="#9CD1FF" stop-opacity="0.8"/>
<stop offset="1" stop-color="#1268B3"/>
</radialGradient>
<radialGradient id="paint46_radial_938_25171" cx="0" cy="0" r="1" gradientUnits="userSpaceOnUse" gradientTransform="translate(8.54663 16.5673) scale(2.3666 2.17633)">
<stop stop-color="#9CD1FF" stop-opacity="0.8"/>
<stop offset="1" stop-color="#1268B3"/>
</radialGradient>
<radialGradient id="paint47_radial_938_25171" cx="0" cy="0" r="1" gradientUnits="userSpaceOnUse" gradientTransform="translate(24.2166 20.4815) scale(2.3666 2.17633)">
<stop stop-color="#9CD1FF" stop-opacity="0.8"/>
<stop offset="1" stop-color="#1268B3"/>
</radialGradient>
<radialGradient id="paint48_radial_938_25171" cx="0" cy="0" r="1" gradientUnits="userSpaceOnUse" gradientTransform="translate(31.5115 23.1203) scale(2.3666 2.17633)">
<stop stop-color="#9CD1FF" stop-opacity="0.8"/>
<stop offset="1" stop-color="#1268B3"/>
</radialGradient>
<radialGradient id="paint49_radial_938_25171" cx="0" cy="0" r="1" gradientUnits="userSpaceOnUse" gradientTransform="translate(42.865 25.4116) scale(2.3666 2.17633)">
<stop stop-color="#9CD1FF" stop-opacity="0.8"/>
<stop offset="1" stop-color="#1268B3"/>
</radialGradient>
<radialGradient id="paint50_radial_938_25171" cx="0" cy="0" r="1" gradientUnits="userSpaceOnUse" gradientTransform="translate(45.7166 19.0892) scale(2.3666 2.17633)">
<stop stop-color="#9CD1FF" stop-opacity="0.8"/>
<stop offset="1" stop-color="#1268B3"/>
</radialGradient>
<radialGradient id="paint51_radial_938_25171" cx="0" cy="0" r="1" gradientUnits="userSpaceOnUse" gradientTransform="translate(53.0877 17.9932) scale(2.3666 2.17633)">
<stop stop-color="#9CD1FF" stop-opacity="0.8"/>
<stop offset="1" stop-color="#1268B3"/>
</radialGradient>
<radialGradient id="paint52_radial_938_25171" cx="0" cy="0" r="1" gradientUnits="userSpaceOnUse" gradientTransform="translate(70.7039 24.2288) scale(2.3666 2.17633)">
<stop stop-color="#9CD1FF" stop-opacity="0.8"/>
<stop offset="1" stop-color="#1268B3"/>
</radialGradient>
<radialGradient id="paint53_radial_938_25171" cx="0" cy="0" r="1" gradientUnits="userSpaceOnUse" gradientTransform="translate(76.1418 25.1453) rotate(180) scale(1.5598)">
<stop offset="0.4469" stop-color="#0D4475"/>
<stop offset="0.5363" stop-color="#0E497D" stop-opacity="0.8383"/>
<stop offset="0.6753" stop-color="#105693" stop-opacity="0.5871"/>
<stop offset="0.8453" stop-color="#136AB7" stop-opacity="0.2797"/>
<stop offset="1" stop-color="#1781DD" stop-opacity="0"/>
</radialGradient>
<radialGradient id="paint54_radial_938_25171" cx="0" cy="0" r="1" gradientUnits="userSpaceOnUse" gradientTransform="translate(26.9885 28.2859) rotate(180) scale(1.5598)">
<stop offset="0.4469" stop-color="#0D4475"/>
<stop offset="0.5363" stop-color="#0E497D" stop-opacity="0.8383"/>
<stop offset="0.6753" stop-color="#105693" stop-opacity="0.5871"/>
<stop offset="0.8453" stop-color="#136AB7" stop-opacity="0.2797"/>
<stop offset="1" stop-color="#1781DD" stop-opacity="0"/>
</radialGradient>
<radialGradient id="paint55_radial_938_25171" cx="0" cy="0" r="1" gradientUnits="userSpaceOnUse" gradientTransform="translate(19.7698 17.6924) rotate(180) scale(1.5598)">
<stop offset="0.4469" stop-color="#0D4475"/>
<stop offset="0.5363" stop-color="#0E497D" stop-opacity="0.8383"/>
<stop offset="0.6753" stop-color="#105693" stop-opacity="0.5871"/>
<stop offset="0.8453" stop-color="#136AB7" stop-opacity="0.2797"/>
<stop offset="1" stop-color="#1781DD" stop-opacity="0"/>
</radialGradient>
<radialGradient id="paint56_radial_938_25171" cx="0" cy="0" r="1" gradientUnits="userSpaceOnUse" gradientTransform="translate(11.7893 24.3811) rotate(180) scale(1.5598)">
<stop offset="0.4469" stop-color="#0D4475"/>
<stop offset="0.5363" stop-color="#0E497D" stop-opacity="0.8383"/>
<stop offset="0.6753" stop-color="#105693" stop-opacity="0.5871"/>
<stop offset="0.8453" stop-color="#136AB7" stop-opacity="0.2797"/>
<stop offset="1" stop-color="#1781DD" stop-opacity="0"/>
</radialGradient>
<radialGradient id="paint57_radial_938_25171" cx="0" cy="0" r="1" gradientUnits="userSpaceOnUse" gradientTransform="translate(39.3752 19.3767) rotate(180) scale(1.5598)">
<stop offset="0.4469" stop-color="#0D4475"/>
<stop offset="0.5363" stop-color="#0E497D" stop-opacity="0.8383"/>
<stop offset="0.6753" stop-color="#105693" stop-opacity="0.5871"/>
<stop offset="0.8453" stop-color="#136AB7" stop-opacity="0.2797"/>
<stop offset="1" stop-color="#1781DD" stop-opacity="0"/>
</radialGradient>
<radialGradient id="paint58_radial_938_25171" cx="0" cy="0" r="1" gradientUnits="userSpaceOnUse" gradientTransform="translate(60.0032 24.6865) rotate(180) scale(1.5598)">
<stop offset="0.4469" stop-color="#0D4475"/>
<stop offset="0.5363" stop-color="#0E497D" stop-opacity="0.8383"/>
<stop offset="0.6753" stop-color="#105693" stop-opacity="0.5871"/>
<stop offset="0.8453" stop-color="#136AB7" stop-opacity="0.2797"/>
<stop offset="1" stop-color="#1781DD" stop-opacity="0"/>
</radialGradient>
<radialGradient id="paint59_radial_938_25171" cx="0" cy="0" r="1" gradientUnits="userSpaceOnUse" gradientTransform="translate(55.7483 15.7976) rotate(180) scale(1.5598 1.5598)">
<stop offset="0.4469" stop-color="#0D4475"/>
<stop offset="0.5363" stop-color="#0E497D" stop-opacity="0.8383"/>
<stop offset="0.6753" stop-color="#105693" stop-opacity="0.5871"/>
<stop offset="0.8453" stop-color="#136AB7" stop-opacity="0.2797"/>
<stop offset="1" stop-color="#1781DD" stop-opacity="0"/>
</radialGradient>
<radialGradient id="paint60_radial_938_25171" cx="0" cy="0" r="1" gradientUnits="userSpaceOnUse" gradientTransform="translate(76.1418 25.1453) rotate(180) scale(1.5598)">
<stop offset="0.699" stop-color="#589EDB" stop-opacity="0"/>
<stop offset="0.7607" stop-color="#589EDB"/>
<stop offset="0.865" stop-color="#D9EDFF"/>
<stop offset="0.8786" stop-color="#D1E8FD"/>
<stop offset="0.8999" stop-color="#BBDBF7"/>
<stop offset="0.926" stop-color="#97C5ED"/>
<stop offset="0.9558" stop-color="#66A7DF"/>
<stop offset="0.9585" stop-color="#61A4DE"/>
<stop offset="0.9977" stop-color="#61A4DE" stop-opacity="0"/>
</radialGradient>
<radialGradient id="paint61_radial_938_25171" cx="0" cy="0" r="1" gradientUnits="userSpaceOnUse" gradientTransform="translate(26.9885 28.2859) rotate(180) scale(1.5598)">
<stop offset="0.699" stop-color="#589EDB" stop-opacity="0"/>
<stop offset="0.7607" stop-color="#589EDB"/>
<stop offset="0.865" stop-color="#D9EDFF"/>
<stop offset="0.8786" stop-color="#D1E8FD"/>
<stop offset="0.8999" stop-color="#BBDBF7"/>
<stop offset="0.926" stop-color="#97C5ED"/>
<stop offset="0.9558" stop-color="#66A7DF"/>
<stop offset="0.9585" stop-color="#61A4DE"/>
<stop offset="0.9977" stop-color="#61A4DE" stop-opacity="0"/>
</radialGradient>
<radialGradient id="paint62_radial_938_25171" cx="0" cy="0" r="1" gradientUnits="userSpaceOnUse" gradientTransform="translate(19.7698 17.6924) rotate(180) scale(1.5598)">
<stop offset="0.699" stop-color="#589EDB" stop-opacity="0"/>
<stop offset="0.7607" stop-color="#589EDB"/>
<stop offset="0.865" stop-color="#D9EDFF"/>
<stop offset="0.8786" stop-color="#D1E8FD"/>
<stop offset="0.8999" stop-color="#BBDBF7"/>
<stop offset="0.926" stop-color="#97C5ED"/>
<stop offset="0.9558" stop-color="#66A7DF"/>
<stop offset="0.9585" stop-color="#61A4DE"/>
<stop offset="0.9977" stop-color="#61A4DE" stop-opacity="0"/>
</radialGradient>
<radialGradient id="paint63_radial_938_25171" cx="0" cy="0" r="1" gradientUnits="userSpaceOnUse" gradientTransform="translate(11.7893 24.3811) rotate(180) scale(1.5598)">
<stop offset="0.699" stop-color="#589EDB" stop-opacity="0"/>
<stop offset="0.7607" stop-color="#589EDB"/>
<stop offset="0.865" stop-color="#D9EDFF"/>
<stop offset="0.8786" stop-color="#D1E8FD"/>
<stop offset="0.8999" stop-color="#BBDBF7"/>
<stop offset="0.926" stop-color="#97C5ED"/>
<stop offset="0.9558" stop-color="#66A7DF"/>
<stop offset="0.9585" stop-color="#61A4DE"/>
<stop offset="0.9977" stop-color="#61A4DE" stop-opacity="0"/>
</radialGradient>
<radialGradient id="paint64_radial_938_25171" cx="0" cy="0" r="1" gradientUnits="userSpaceOnUse" gradientTransform="translate(39.3752 19.3767) rotate(180) scale(1.5598)">
<stop offset="0.699" stop-color="#589EDB" stop-opacity="0"/>
<stop offset="0.7607" stop-color="#589EDB"/>
<stop offset="0.865" stop-color="#D9EDFF"/>
<stop offset="0.8786" stop-color="#D1E8FD"/>
<stop offset="0.8999" stop-color="#BBDBF7"/>
<stop offset="0.926" stop-color="#97C5ED"/>
<stop offset="0.9558" stop-color="#66A7DF"/>
<stop offset="0.9585" stop-color="#61A4DE"/>
<stop offset="0.9977" stop-color="#61A4DE" stop-opacity="0"/>
</radialGradient>
<radialGradient id="paint65_radial_938_25171" cx="0" cy="0" r="1" gradientUnits="userSpaceOnUse" gradientTransform="translate(60.0032 24.6865) rotate(180) scale(1.5598)">
<stop offset="0.699" stop-color="#589EDB" stop-opacity="0"/>
<stop offset="0.7607" stop-color="#589EDB"/>
<stop offset="0.865" stop-color="#D9EDFF"/>
<stop offset="0.8786" stop-color="#D1E8FD"/>
<stop offset="0.8999" stop-color="#BBDBF7"/>
<stop offset="0.926" stop-color="#97C5ED"/>
<stop offset="0.9558" stop-color="#66A7DF"/>
<stop offset="0.9585" stop-color="#61A4DE"/>
<stop offset="0.9977" stop-color="#61A4DE" stop-opacity="0"/>
</radialGradient>
<radialGradient id="paint66_radial_938_25171" cx="0" cy="0" r="1" gradientUnits="userSpaceOnUse" gradientTransform="translate(55.7483 15.7976) rotate(180) scale(1.5598 1.5598)">
<stop offset="0.699" stop-color="#589EDB" stop-opacity="0"/>
<stop offset="0.7607" stop-color="#589EDB"/>
<stop offset="0.865" stop-color="#D9EDFF"/>
<stop offset="0.8786" stop-color="#D1E8FD"/>
<stop offset="0.8999" stop-color="#BBDBF7"/>
<stop offset="0.926" stop-color="#97C5ED"/>
<stop offset="0.9558" stop-color="#66A7DF"/>
<stop offset="0.9585" stop-color="#61A4DE"/>
<stop offset="0.9977" stop-color="#61A4DE" stop-opacity="0"/>
</radialGradient>
<linearGradient id="paint67_linear_938_25171" x1="82.6831" y1="8.23329" x2="77.79" y2="8.23329" gradientUnits="userSpaceOnUse">
<stop offset="0.2407" stop-color="#1781DD"/>
<stop offset="0.4356" stop-color="#177FDA"/>
<stop offset="0.5773" stop-color="#167AD1"/>
<stop offset="0.7022" stop-color="#1470C1"/>
<stop offset="0.8175" stop-color="#1263AA"/>
<stop offset="0.925" stop-color="#0F538E"/>
<stop offset="1" stop-color="#0D4475"/>
</linearGradient>
<linearGradient id="paint68_linear_938_25171" x1="22.8404" y1="41.6922" x2="27.2378" y2="28.7022" gradientUnits="userSpaceOnUse">
<stop offset="0.2407" stop-color="#1781DD"/>
<stop offset="0.4356" stop-color="#177FDA"/>
<stop offset="0.5773" stop-color="#167AD1"/>
<stop offset="0.7022" stop-color="#1470C1"/>
<stop offset="0.8175" stop-color="#1263AA"/>
<stop offset="0.925" stop-color="#0F538E"/>
<stop offset="1" stop-color="#0D4475"/>
</linearGradient>
<linearGradient id="paint69_linear_938_25171" x1="10.5079" y1="3.56592" x2="19.4038" y2="16.3538" gradientUnits="userSpaceOnUse">
<stop offset="0.2407" stop-color="#1781DD"/>
<stop offset="0.4356" stop-color="#177FDA"/>
<stop offset="0.5773" stop-color="#167AD1"/>
<stop offset="0.7022" stop-color="#1470C1"/>
<stop offset="0.8175" stop-color="#1263AA"/>
<stop offset="0.925" stop-color="#0F538E"/>
<stop offset="1" stop-color="#0D4475"/>
</linearGradient>
<linearGradient id="paint70_linear_938_25171" x1="51.5521" y1="1.41862" x2="54.3826" y2="16.2788" gradientUnits="userSpaceOnUse">
<stop offset="0.2407" stop-color="#1781DD"/>
<stop offset="0.4356" stop-color="#177FDA"/>
<stop offset="0.5773" stop-color="#167AD1"/>
<stop offset="0.7022" stop-color="#1470C1"/>
<stop offset="0.8175" stop-color="#1263AA"/>
<stop offset="0.925" stop-color="#0F538E"/>
<stop offset="1" stop-color="#0D4475"/>
</linearGradient>
<linearGradient id="paint71_linear_938_25171" x1="94.5816" y1="30.137" x2="76.34" y2="28.2647" gradientUnits="userSpaceOnUse">
<stop offset="0.2407" stop-color="#1781DD"/>
<stop offset="0.4356" stop-color="#177FDA"/>
<stop offset="0.5773" stop-color="#167AD1"/>
<stop offset="0.7022" stop-color="#1470C1"/>
<stop offset="0.8175" stop-color="#1263AA"/>
<stop offset="0.925" stop-color="#0F538E"/>
<stop offset="1" stop-color="#0D4475"/>
</linearGradient>
<linearGradient id="paint72_linear_938_25171" x1="1.76887" y1="36.2733" x2="9.60337" y2="22.2724" gradientUnits="userSpaceOnUse">
<stop offset="0.2407" stop-color="#1781DD"/>
<stop offset="0.4356" stop-color="#177FDA"/>
<stop offset="0.5773" stop-color="#167AD1"/>
<stop offset="0.7022" stop-color="#1470C1"/>
<stop offset="0.8175" stop-color="#1263AA"/>
<stop offset="0.925" stop-color="#0F538E"/>
<stop offset="1" stop-color="#0D4475"/>
</linearGradient>
<linearGradient id="paint73_linear_938_25171" x1="56.599" y1="33.8424" x2="54.2586" y2="29.1016" gradientUnits="userSpaceOnUse">
<stop offset="0.2407" stop-color="#1781DD"/>
<stop offset="0.4356" stop-color="#177FDA"/>
<stop offset="0.5773" stop-color="#167AD1"/>
<stop offset="0.7022" stop-color="#1470C1"/>
<stop offset="0.8175" stop-color="#1263AA"/>
<stop offset="0.925" stop-color="#0F538E"/>
<stop offset="1" stop-color="#0D4475"/>
</linearGradient>
<linearGradient id="paint74_linear_938_25171" x1="31.2038" y1="8.0726" x2="38.836" y2="17.2717" gradientUnits="userSpaceOnUse">
<stop offset="0.2407" stop-color="#1781DD"/>
<stop offset="0.4356" stop-color="#177FDA"/>
<stop offset="0.5773" stop-color="#167AD1"/>
<stop offset="0.7022" stop-color="#1470C1"/>
<stop offset="0.8175" stop-color="#1263AA"/>
<stop offset="0.925" stop-color="#0F538E"/>
<stop offset="1" stop-color="#0D4475"/>
</linearGradient>
</defs>
</svg>
