<svg width="86" height="23" viewBox="0 0 86 23" fill="none" xmlns="http://www.w3.org/2000/svg">
<g id="R-ICO-014620">
<g id="KRAB-ZFPs">
<path d="M0.887695 11.5C0.887695 5.97715 5.36485 1.5 10.8877 1.5H73.8877C79.4105 1.5 83.8877 5.97715 83.8877 11.5C83.8877 17.0228 79.4105 21.5 73.8877 21.5H10.8877C5.36485 21.5 0.887695 17.0228 0.887695 11.5Z" fill="url(#paint0_linear_938_24121)"/>
<path d="M58.0959 2.99266C42.3598 2.87443 26.6238 2.52283 10.8877 1.64001C10.8877 1.54664 10.8877 1.45328 10.8877 1.35991C26.6238 0.477089 42.3598 0.125486 58.0959 0.00726104C63.3597 -0.0180111 68.6237 0.0260845 73.8877 0.087034C76.8609 0.101672 79.7969 1.35869 81.8566 3.46512C83.9619 5.57261 85.1532 8.55307 85.0843 11.5C85.1195 17.4821 79.6149 22.6023 73.8884 22.2659C73.8882 22.2659 73.8879 22.2658 73.8877 22.2658C66.0199 22.0221 58.1513 21.8466 50.2836 21.953C42.4155 22.056 34.5468 22.4645 26.6788 22.6648C21.4151 22.7738 16.1514 22.7701 10.8877 22.7094C7.96684 22.6949 5.08646 21.4482 3.08288 19.3705C1.03776 17.2875 -0.094425 14.3649 0.0066815 11.5C0.0379313 5.67582 5.49496 0.858945 10.8877 1.35991C10.8877 1.45328 10.8877 1.54664 10.8877 1.64001C5.62746 1.88186 1.47825 6.67072 1.76856 11.5C1.84255 13.9083 2.89744 16.2176 4.60972 17.8309C6.29424 19.4395 8.59149 20.3313 10.8877 20.2907C16.1514 20.23 21.415 20.2263 26.6788 20.3353C34.5468 20.5356 42.4155 20.9428 50.2836 21.0457C58.1514 21.1521 66.0197 20.978 73.8877 20.7342C73.8879 20.7342 73.8881 20.7342 73.8883 20.7342C78.8146 20.656 82.9149 16.1706 82.6912 11.5C82.6494 9.17426 81.6541 6.9233 80.0025 5.33447C78.3741 3.75405 76.132 2.87213 73.8877 2.91294C68.6237 2.97396 63.3597 3.01811 58.0959 2.99266Z" fill="#F8764F"/>
<text id="KRAB-ZFPs_2" fill="white" xml:space="preserve" style="white-space: pre" font-family="Arial" font-size="12" font-weight="bold" letter-spacing="0em"><tspan x="8.36816" y="15.6602">KRAB-ZFPs</tspan></text>
</g>
</g>
<defs>
<linearGradient id="paint0_linear_938_24121" x1="42.3877" y1="1.5" x2="42.3877" y2="21.5" gradientUnits="userSpaceOnUse">
<stop stop-color="#DAC2C0"/>
<stop offset="1" stop-color="#F8764F"/>
</linearGradient>
</defs>
</svg>
