<svg width="42" height="23" viewBox="0 0 42 23" fill="none" xmlns="http://www.w3.org/2000/svg">
<g id="R-ICO-014079">
<g id="SVP">
<path d="M1.18936 11.363C1.18936 5.84019 5.66651 1.36304 11.1894 1.36304H30.1894C35.7122 1.36304 40.1894 5.84019 40.1894 11.363C40.1894 16.8859 35.7122 21.363 30.1894 21.363H11.1894C5.66651 21.363 1.18936 16.8859 1.18936 11.363Z" fill="url(#paint0_linear_938_23853)"/>
<path d="M35.1374 4.44173C33.7228 3.38888 31.984 2.77947 30.1894 2.72143C23.856 2.53206 17.5227 2.16844 11.1894 1.50304C11.1894 1.40968 11.1894 1.31631 11.1894 1.22295C17.5227 0.55755 23.856 0.193932 30.1894 0.00456464C32.5363 -0.0653039 34.9299 0.647981 36.8761 2.01485C39.874 4.09556 41.6857 7.75217 41.5785 11.363C41.5553 12.5403 41.3485 13.7119 40.9675 14.8206C39.4802 19.3935 34.7423 22.4843 30.1897 22.1289C30.1896 22.1289 30.1895 22.1289 30.1894 22.1289C25.9881 21.8852 21.7864 21.7097 17.5852 21.816C15.4533 21.8683 13.3213 21.9992 11.1894 22.1417C8.96356 22.2881 6.62845 21.7168 4.6933 20.4444C1.7218 18.503 -0.115742 14.9112 0.00567174 11.363C0.0324757 10.2067 0.245212 9.05794 0.632245 7.97679C2.15251 3.51666 6.89331 0.624736 11.1894 1.22295C11.1894 1.31631 11.1894 1.40968 11.1894 1.50304C7.01447 1.97522 3.66383 5.01088 2.69711 8.63862C2.45185 9.52799 2.34543 10.447 2.37297 11.363C2.44415 14.1691 3.83966 16.8264 6.05005 18.5507C7.47574 19.6983 9.27345 20.4495 11.1894 20.5838C13.3213 20.726 15.4533 20.8565 17.5852 20.9088C21.7864 21.0151 25.988 20.841 30.1894 20.5973C30.1895 20.5973 30.1896 20.5973 30.1897 20.5973C34.1078 20.3673 37.4603 17.5312 38.4603 14.0169C38.7118 13.1548 38.8243 12.2583 38.8003 11.363C38.7432 8.61948 37.3215 6.02675 35.1374 4.44173Z" fill="#19297C"/>
<text id="SVP_2" fill="white" xml:space="preserve" style="white-space: pre" font-family="Arial" font-size="12" font-weight="bold" letter-spacing="0em"><tspan x="8.6835" y="15.5232">SVP</tspan></text>
</g>
</g>
<defs>
<linearGradient id="paint0_linear_938_23853" x1="20.6894" y1="1.36304" x2="20.6894" y2="21.363" gradientUnits="userSpaceOnUse">
<stop stop-color="#C2AB00"/>
<stop offset="1" stop-color="#19297C"/>
</linearGradient>
</defs>
</svg>
