<svg width="45" height="23" viewBox="0 0 45 23" fill="none" xmlns="http://www.w3.org/2000/svg">
<g id="R-ICO-014428">
<g id="PROTEIN">
<path d="M1.49756 1.5H33.4976C39.0204 1.5 43.4976 5.97715 43.4976 11.5C43.4976 17.0228 39.0204 21.5 33.4976 21.5H1.49756V1.5Z" fill="url(#paint0_linear_938_23151)"/>
<path d="M4.64347 0.0073446C14.2615 0.125569 23.8795 0.477173 33.4976 1.35999C33.4976 1.45336 33.4976 1.54672 33.4976 1.64009C23.8795 2.52291 14.2615 2.87451 4.64347 2.99274C3.59484 3.00098 2.54621 3.00184 1.49756 2.99716L2.99472 1.5C2.97793 5.26048 2.88975 9.02107 2.81404 12.7815C2.76466 15.6877 2.67202 18.5938 2.54713 21.5L1.49756 20.4504C3.40027 20.5322 5.303 20.6278 7.20574 20.7341C12.0148 20.9779 16.8242 21.1534 21.6332 21.047C25.5879 20.9623 29.5428 20.671 33.4976 20.4588C34.2659 20.413 35.0184 20.2739 35.7388 20.0487C39.4627 18.9601 42.2866 15.4277 42.3738 11.5C42.3864 11.1183 42.3758 10.7393 42.3411 10.3588C42.0163 6.06061 38.2982 2.09023 33.4976 1.64009C33.4976 1.54672 33.4976 1.45336 33.4976 1.35999C38.4374 0.713679 43.7585 4.705 44.492 10.0844C44.5657 10.5533 44.6086 11.024 44.6212 11.5C44.8526 16.4178 41.1829 21.2708 36.3279 22.3026C35.3954 22.5097 34.4401 22.5873 33.4976 22.5412C29.5428 22.3293 25.5879 22.0389 21.6332 21.9543C16.8242 21.8479 12.0148 22.0221 7.20574 22.2658C5.30302 22.3722 3.40029 22.4678 1.49756 22.5495C0.904045 22.565 0.463438 22.0935 0.448011 21.5C0.323125 18.5938 0.230536 15.6877 0.181158 12.7815C0.105451 9.02114 0.0171034 5.2605 0.000369191 1.5C-0.0216376 0.653348 0.650906 0.0248173 1.49756 0.0028106C2.54621 -0.00185585 3.59485 -0.000953555 4.64347 0.0073446Z" fill="#A36BAC"/>
<text id="P" fill="white" xml:space="preserve" style="white-space: pre" font-family="Arial" font-size="12" font-weight="bold" letter-spacing="0em"><tspan x="8.81006" y="15.6602">F10a</tspan></text>
</g>
</g>
<defs>
<linearGradient id="paint0_linear_938_23151" x1="22.4976" y1="21.5" x2="22.4976" y2="1.5" gradientUnits="userSpaceOnUse">
<stop stop-color="#305F5B"/>
<stop offset="1" stop-color="#A36BAC"/>
</linearGradient>
</defs>
</svg>
