<svg width="489" height="64" viewBox="0 0 489 64" fill="none" xmlns="http://www.w3.org/2000/svg">
<g id="R-ICO-014850">
<g id="BOTTOM">
<path id="Vector" d="M440.559 58.7662C463.766 58.7662 447.077 5.00049 480.456 5.00049H486.953C463.766 5.00049 480.456 58.7662 447.077 58.7662H440.559Z" fill="url(#paint0_linear_938_25835)"/>
<path id="Vector_2" d="M321.03 58.7662C344.217 58.7662 327.527 5.03949 360.906 5.00049L367.403 5.03949C344.217 5.00049 360.906 58.7662 327.527 58.7662H321.03Z" fill="url(#paint1_linear_938_25835)"/>
<path id="Vector_3" d="M241.277 58.7662C264.464 58.7662 247.774 5.03949 281.154 5.00049L287.65 5.03949C264.464 5.00049 281.154 58.7662 247.774 58.7662H241.277Z" fill="url(#paint2_linear_938_25835)"/>
<path id="Vector_4" d="M400.783 58.7662C423.97 58.7662 407.28 5.00049 440.659 5.00049H447.156C423.97 5.00049 440.659 58.7662 407.28 58.7662H400.783Z" fill="url(#paint3_linear_938_25835)"/>
<path id="Vector_5" d="M1.61523 58.7662C24.8017 58.7662 8.11194 5.00049 41.4914 5.00049H47.9881C24.8017 5.00049 41.4914 58.7662 8.11194 58.7662H1.61523Z" fill="url(#paint4_linear_938_25835)"/>
<path id="Vector_6" d="M41.4912 58.7662C64.6776 58.7662 47.9879 5.00049 81.3674 5.00049L87.8641 5.03949C64.6777 5.00049 81.3674 58.7662 47.9879 58.7662H41.4912Z" fill="url(#paint5_linear_938_25835)"/>
<path id="Vector_7" d="M121.244 58.7662C144.431 58.7662 127.741 5.03949 161.12 5.00049H167.617C144.431 5.00049 161.12 58.7662 127.741 58.7662H121.244Z" fill="url(#paint6_linear_938_25835)"/>
<path id="Vector_8" d="M200.977 58.7662C224.163 58.7662 207.473 5.03949 240.853 5.00049H247.349C224.163 5.00049 240.853 58.7662 207.473 58.7662H200.977Z" fill="url(#paint7_linear_938_25835)"/>
</g>
<g id="BOTTOM LINE">
<path id="Vector_9" d="M447.076 60.3812H440.558C439.666 60.3812 438.943 59.6581 438.943 58.7662C438.943 57.8743 439.666 57.151 440.558 57.151C449.174 57.151 451.515 48.8578 454.346 35.1995C455.891 27.742 457.489 20.0309 461.11 13.9821C465.378 6.85146 471.706 3.38525 480.456 3.38525H486.953C487.845 3.38525 488.568 4.10845 488.568 5.00035C488.568 5.89225 487.845 6.61545 486.953 6.61545C478.349 6.61545 476.012 14.9052 473.185 28.5576C471.641 36.0169 470.045 43.7299 466.425 49.7806C462.157 56.9137 455.828 60.3812 447.076 60.3812ZM478.207 6.70856C463.284 7.98436 460.351 22.1423 457.509 35.855C455.799 44.1062 454.049 52.5501 449.311 57.0591C464.25 55.7906 467.182 41.6236 470.022 27.9026C471.73 19.6556 473.477 11.2165 478.207 6.70856Z" fill="#993D61"/>
<path id="Vector_10" d="M327.527 60.3812H321.03C320.138 60.3812 319.415 59.6581 319.415 58.7662C319.415 57.8743 320.138 57.151 321.03 57.151C329.635 57.151 331.972 48.8653 334.798 35.2197C336.342 27.7635 337.939 20.0536 341.559 14.0022C345.826 6.86815 352.154 3.39545 360.904 3.38525L367.413 3.42426C368.303 3.42956 369.022 4.15495 369.018 5.04565C369.015 5.93525 368.292 6.65445 367.403 6.65445C367.397 6.65345 367.387 6.65425 367.378 6.65445C358.793 6.65445 356.458 14.9351 353.635 28.5676C352.091 36.0237 350.494 43.7338 346.874 49.7829C342.606 56.9145 336.278 60.3812 327.527 60.3812ZM358.685 6.70825C343.738 7.98225 340.804 22.1515 337.961 35.8746C336.254 44.1174 334.508 52.5517 329.778 57.0575C344.701 55.7803 347.632 41.6237 350.472 27.9124C352.182 19.6538 353.934 11.2017 358.685 6.70825Z" fill="#3D9799"/>
<path id="Vector_11" d="M247.773 60.3812H241.276C240.384 60.3812 239.661 59.6581 239.661 58.7662C239.661 57.8743 240.384 57.151 241.276 57.151C249.881 57.151 252.218 48.8653 255.044 35.2197C256.588 27.7635 258.185 20.0536 261.805 14.0022C266.072 6.86815 272.4 3.39545 281.151 3.38525L287.659 3.42426C288.55 3.42956 289.268 4.15495 289.264 5.04565C289.261 5.93525 288.538 6.65445 287.649 6.65445C287.643 6.65345 287.633 6.65425 287.624 6.65445C279.039 6.65445 276.704 14.9351 273.881 28.5676C272.337 36.0237 270.74 43.7338 267.12 49.7829C262.852 56.9145 256.524 60.3812 247.773 60.3812ZM278.931 6.70825C263.984 7.98225 261.05 22.1515 258.207 35.8746C256.5 44.1174 254.754 52.5517 250.024 57.0575C264.947 55.7803 267.878 41.6237 270.718 27.9124C272.428 19.6538 274.18 11.2017 278.931 6.70825Z" fill="#3D9799"/>
<path id="Vector_12" d="M407.279 60.3813H400.782C399.89 60.3813 399.167 59.6582 399.167 58.7663C399.167 57.8744 399.89 57.1512 400.782 57.1512C409.387 57.1512 411.723 48.8615 414.55 35.2092C416.094 27.7499 417.69 20.0369 421.31 13.9861C425.578 6.85285 431.907 3.38525 440.658 3.38525H447.155C448.047 3.38525 448.77 4.10847 448.77 5.00037C448.77 5.89227 448.047 6.61546 447.155 6.61546C438.551 6.61546 436.214 14.9052 433.388 28.5576C431.843 36.0169 430.247 43.7298 426.627 49.7805C422.359 56.9137 416.03 60.3813 407.279 60.3813ZM438.409 6.70866C423.483 7.98486 420.552 22.1469 417.713 35.8638C416.005 44.1107 414.258 52.5502 409.528 57.0576C424.454 55.7816 427.385 41.6194 430.224 27.9027C431.932 19.6557 433.679 11.2166 438.409 6.70866Z" fill="#3D9799"/>
<path id="Vector_13" d="M8.1118 60.3813H1.6151C0.723197 60.3813 0 59.6582 0 58.7663C0 57.8744 0.723197 57.1512 1.6151 57.1512C10.2193 57.1512 12.5562 48.8615 15.3826 35.2092C16.9267 27.7499 18.5233 20.0369 22.1433 13.9861C26.411 6.85285 32.7399 3.38525 41.4914 3.38525H47.9879C48.8799 3.38525 49.603 4.10847 49.603 5.00037C49.603 5.89227 48.8798 6.61546 47.9879 6.61546C39.3838 6.61546 37.0468 14.905 34.2206 28.5576C32.6765 36.0167 31.0799 43.7298 27.4599 49.7805C23.1922 56.9137 16.8634 60.3813 8.1118 60.3813ZM39.242 6.70866C24.3162 7.98486 21.3852 22.1469 18.5456 35.8638C16.8384 44.1107 15.0914 52.5502 10.361 57.0576C25.287 55.7816 28.218 41.6194 31.0576 27.9027C32.7648 19.6557 34.5118 11.2166 39.242 6.70866Z" fill="#3D9799"/>
<path id="Vector_14" d="M47.9876 60.3813H41.4911C40.5991 60.3813 39.876 59.6582 39.876 58.7663C39.876 57.8744 40.5992 57.1512 41.4911 57.1512C51.1897 57.1512 53.3356 48.7034 55.717 34.7904C56.9804 27.4102 58.2868 19.7788 61.7771 13.8114C65.8805 6.79566 72.2885 3.38525 81.3673 3.38525L87.8737 3.42426C88.7645 3.42956 89.4825 4.15495 89.4792 5.04565C89.4758 5.93525 88.7535 6.65446 87.8641 6.65446C87.8558 6.65466 87.8471 6.65446 87.8389 6.65446C79.2538 6.65446 76.9193 14.9351 74.096 28.5676C72.5517 36.0237 70.9549 43.7338 67.3349 49.7829C63.0668 56.9146 56.7383 60.3813 47.9876 60.3813ZM79.1626 6.69196C72.4263 7.17836 67.7525 9.99315 64.5654 15.4422C61.3714 20.9027 60.1155 28.2397 58.9011 35.3352C57.4595 43.7562 55.984 52.3739 50.9978 56.9803C65.2612 55.2934 68.1418 41.388 70.9326 27.9125C72.6452 19.6435 74.3987 11.1813 79.1626 6.69196Z" fill="#993D61"/>
<path id="Vector_15" d="M127.741 60.3812H121.244C120.352 60.3812 119.629 59.6581 119.629 58.7662C119.629 57.8743 120.352 57.151 121.244 57.151C129.849 57.151 132.186 48.8653 135.012 35.2197C136.556 27.7635 138.153 20.0536 141.772 14.0022C146.04 6.86815 152.368 3.39545 161.118 3.38525H167.617C168.509 3.38525 169.232 4.10845 169.232 5.00035C169.232 5.89225 168.509 6.61545 167.617 6.61545C159.012 6.61545 156.676 14.9052 153.849 28.5578C152.305 36.0169 150.708 43.7299 147.089 49.7806C142.821 56.9137 136.492 60.3812 127.741 60.3812ZM158.868 6.71155C143.945 8.00585 141.015 22.1627 138.175 35.8747C136.468 44.1173 134.721 52.5517 129.992 57.0575C144.915 55.7799 147.847 41.6185 150.686 27.9028C152.393 19.6571 154.139 11.2197 158.868 6.71155Z" fill="#993D61"/>
<path id="Vector_16" d="M207.473 60.3812H200.976C200.085 60.3812 199.361 59.6581 199.361 58.7662C199.361 57.8743 200.085 57.151 200.976 57.151C209.581 57.151 211.918 48.8653 214.744 35.2197C216.288 27.7635 217.885 20.0536 221.505 14.0022C225.773 6.86815 232.1 3.39545 240.85 3.38525H247.349C248.241 3.38525 248.964 4.10845 248.964 5.00035C248.964 5.89225 248.241 6.61545 247.349 6.61545C238.745 6.61545 236.408 14.9052 233.582 28.5578C232.037 36.0169 230.441 43.7299 226.821 49.7806C222.553 56.9137 216.225 60.3812 207.473 60.3812ZM238.6 6.71155C223.678 8.00585 220.747 22.1627 217.907 35.8747C216.2 44.1173 214.454 52.5517 209.724 57.0575C224.648 55.7799 227.579 41.6185 230.418 27.9028C232.125 19.6571 233.872 11.2197 238.6 6.71155Z" fill="#993D61"/>
</g>
<g id="RAD51">
<g id="R-ICO-013276">
<path id="RAD51_2" d="M84.6162 10C87.3776 10 89.6162 7.76142 89.6162 5C89.6162 2.23858 87.3776 0 84.6162 0C81.8548 0 79.6162 2.23858 79.6162 5C79.6162 7.76142 81.8548 10 84.6162 10Z" fill="url(#paint8_radial_938_25835)"/>
</g>
<g id="R-ICO-013276_2">
<path id="RAD51_3" d="M97.6104 16.7529C100.372 16.7529 102.61 14.5144 102.61 11.7529C102.61 8.99151 100.372 6.75293 97.6104 6.75293C94.8489 6.75293 92.6104 8.99151 92.6104 11.7529C92.6104 14.5144 94.8489 16.7529 97.6104 16.7529Z" fill="url(#paint9_radial_938_25835)"/>
</g>
<g id="R-ICO-013276_3">
<path id="RAD51_4" d="M102.604 29.5063C105.366 29.5063 107.604 27.2678 107.604 24.5063C107.604 21.7449 105.366 19.5063 102.604 19.5063C99.8431 19.5063 97.6045 21.7449 97.6045 24.5063C97.6045 27.2678 99.8431 29.5063 102.604 29.5063Z" fill="url(#paint10_radial_938_25835)"/>
</g>
<g id="R-ICO-013276_4">
<path id="RAD51_5" d="M106.599 44.2593C109.36 44.2593 111.599 42.0207 111.599 39.2593C111.599 36.4979 109.36 34.2593 106.599 34.2593C103.837 34.2593 101.599 36.4979 101.599 39.2593C101.599 42.0207 103.837 44.2593 106.599 44.2593Z" fill="url(#paint11_radial_938_25835)"/>
</g>
<g id="R-ICO-013276_5">
<path id="RAD51_6" d="M112.593 57.0122C115.354 57.0122 117.593 54.7736 117.593 52.0122C117.593 49.2508 115.354 47.0122 112.593 47.0122C109.831 47.0122 107.593 49.2508 107.593 52.0122C107.593 54.7736 109.831 57.0122 112.593 57.0122Z" fill="url(#paint12_radial_938_25835)"/>
</g>
<g id="R-ICO-013276_6">
<path id="RAD51_7" d="M164.383 10C167.144 10 169.383 7.76142 169.383 5C169.383 2.23858 167.144 0 164.383 0C161.621 0 159.383 2.23858 159.383 5C159.383 7.76142 161.621 10 164.383 10Z" fill="url(#paint13_radial_938_25835)"/>
</g>
<g id="R-ICO-013276_7">
<path id="RAD51_8" d="M151.228 16.7529C153.989 16.7529 156.228 14.5144 156.228 11.7529C156.228 8.99151 153.989 6.75293 151.228 6.75293C148.466 6.75293 146.228 8.99151 146.228 11.7529C146.228 14.5144 148.466 16.7529 151.228 16.7529Z" fill="url(#paint14_radial_938_25835)"/>
</g>
<g id="R-ICO-013276_8">
<path id="RAD51_9" d="M146.229 29.5063C148.99 29.5063 151.229 27.2678 151.229 24.5063C151.229 21.7449 148.99 19.5063 146.229 19.5063C143.467 19.5063 141.229 21.7449 141.229 24.5063C141.229 27.2678 143.467 29.5063 146.229 29.5063Z" fill="url(#paint15_radial_938_25835)"/>
</g>
<g id="R-ICO-013276_9">
<path id="RAD51_10" d="M142.117 44.2593C144.879 44.2593 147.117 42.0207 147.117 39.2593C147.117 36.4979 144.879 34.2593 142.117 34.2593C139.356 34.2593 137.117 36.4979 137.117 39.2593C137.117 42.0207 139.356 44.2593 142.117 44.2593Z" fill="url(#paint16_radial_938_25835)"/>
</g>
<g id="R-ICO-013276_10">
<path id="RAD51_11" d="M136.262 57.0122C139.023 57.0122 141.262 54.7736 141.262 52.0122C141.262 49.2508 139.023 47.0122 136.262 47.0122C133.5 47.0122 131.262 49.2508 131.262 52.0122C131.262 54.7736 133.5 57.0122 136.262 57.0122Z" fill="url(#paint17_radial_938_25835)"/>
</g>
<g id="R-ICO-013276_11">
<path id="RAD51_12" d="M124.587 63.7656C127.348 63.7656 129.587 61.527 129.587 58.7656C129.587 56.0042 127.348 53.7656 124.587 53.7656C121.825 53.7656 119.587 56.0042 119.587 58.7656C119.587 61.527 121.825 63.7656 124.587 63.7656Z" fill="url(#paint18_radial_938_25835)"/>
</g>
<g id="R-ICO-013276_12">
<path id="RAD51_13" d="M244.088 10C246.849 10 249.088 7.76142 249.088 5C249.088 2.23858 246.849 0 244.088 0C241.326 0 239.088 2.23858 239.088 5C239.088 7.76142 241.326 10 244.088 10Z" fill="url(#paint19_radial_938_25835)"/>
</g>
<g id="R-ICO-013276_13">
<path id="RAD51_14" d="M230.934 16.7529C233.695 16.7529 235.934 14.5144 235.934 11.7529C235.934 8.99151 233.695 6.75293 230.934 6.75293C228.172 6.75293 225.934 8.99151 225.934 11.7529C225.934 14.5144 228.172 16.7529 230.934 16.7529Z" fill="url(#paint20_radial_938_25835)"/>
</g>
<g id="R-ICO-013276_14">
<path id="RAD51_15" d="M225.934 29.5063C228.695 29.5063 230.934 27.2678 230.934 24.5063C230.934 21.7449 228.695 19.5063 225.934 19.5063C223.172 19.5063 220.934 21.7449 220.934 24.5063C220.934 27.2678 223.172 29.5063 225.934 29.5063Z" fill="url(#paint21_radial_938_25835)"/>
</g>
<g id="R-ICO-013276_15">
<path id="RAD51_16" d="M221.822 44.2593C224.584 44.2593 226.822 42.0207 226.822 39.2593C226.822 36.4979 224.584 34.2593 221.822 34.2593C219.061 34.2593 216.822 36.4979 216.822 39.2593C216.822 42.0207 219.061 44.2593 221.822 44.2593Z" fill="url(#paint22_radial_938_25835)"/>
</g>
<g id="R-ICO-013276_16">
<path id="RAD51_17" d="M215.967 57.0122C218.728 57.0122 220.967 54.7736 220.967 52.0122C220.967 49.2508 218.728 47.0122 215.967 47.0122C213.205 47.0122 210.967 49.2508 210.967 52.0122C210.967 54.7736 213.205 57.0122 215.967 57.0122Z" fill="url(#paint23_radial_938_25835)"/>
</g>
<g id="R-ICO-013276_17">
<path id="RAD51_18" d="M204.293 63.7656C207.054 63.7656 209.293 61.527 209.293 58.7656C209.293 56.0042 207.054 53.7656 204.293 53.7656C201.532 53.7656 199.293 56.0042 199.293 58.7656C199.293 61.527 201.532 63.7656 204.293 63.7656Z" fill="url(#paint24_radial_938_25835)"/>
</g>
<g id="R-ICO-013276_18">
<path id="RAD51_19" d="M177.316 16.7529C180.078 16.7529 182.316 14.5144 182.316 11.7529C182.316 8.99151 180.078 6.75293 177.316 6.75293C174.555 6.75293 172.316 8.99151 172.316 11.7529C172.316 14.5144 174.555 16.7529 177.316 16.7529Z" fill="url(#paint25_radial_938_25835)"/>
</g>
<g id="R-ICO-013276_19">
<path id="RAD51_20" d="M182.311 29.5063C185.072 29.5063 187.311 27.2678 187.311 24.5063C187.311 21.7449 185.072 19.5063 182.311 19.5063C179.549 19.5063 177.311 21.7449 177.311 24.5063C177.311 27.2678 179.549 29.5063 182.311 29.5063Z" fill="url(#paint26_radial_938_25835)"/>
</g>
<g id="R-ICO-013276_20">
<path id="RAD51_21" d="M186.305 44.2593C189.066 44.2593 191.305 42.0207 191.305 39.2593C191.305 36.4979 189.066 34.2593 186.305 34.2593C183.543 34.2593 181.305 36.4979 181.305 39.2593C181.305 42.0207 183.543 44.2593 186.305 44.2593Z" fill="url(#paint27_radial_938_25835)"/>
</g>
<g id="R-ICO-013276_21">
<path id="RAD51_22" d="M192.299 57.0127C195.06 57.0127 197.299 54.7741 197.299 52.0127C197.299 49.2513 195.06 47.0127 192.299 47.0127C189.537 47.0127 187.299 49.2513 187.299 52.0127C187.299 54.7741 189.537 57.0127 192.299 57.0127Z" fill="url(#paint28_radial_938_25835)"/>
</g>
<g id="R-ICO-013276_22">
<path id="RAD51_23" d="M364.188 10C366.949 10 369.188 7.76142 369.188 5C369.188 2.23858 366.949 0 364.188 0C361.426 0 359.188 2.23858 359.188 5C359.188 7.76142 361.426 10 364.188 10Z" fill="url(#paint29_radial_938_25835)"/>
</g>
<g id="R-ICO-013276_23">
<path id="RAD51_24" d="M351.033 16.7529C353.795 16.7529 356.033 14.5144 356.033 11.7529C356.033 8.99151 353.795 6.75293 351.033 6.75293C348.272 6.75293 346.033 8.99151 346.033 11.7529C346.033 14.5144 348.272 16.7529 351.033 16.7529Z" fill="url(#paint30_radial_938_25835)"/>
</g>
<g id="R-ICO-013276_24">
<path id="RAD51_25" d="M346.033 29.5063C348.795 29.5063 351.033 27.2678 351.033 24.5063C351.033 21.7449 348.795 19.5063 346.033 19.5063C343.272 19.5063 341.033 21.7449 341.033 24.5063C341.033 27.2678 343.272 29.5063 346.033 29.5063Z" fill="url(#paint31_radial_938_25835)"/>
</g>
<g id="R-ICO-013276_25">
<path id="RAD51_26" d="M341.922 44.2593C344.683 44.2593 346.922 42.0207 346.922 39.2593C346.922 36.4979 344.683 34.2593 341.922 34.2593C339.16 34.2593 336.922 36.4979 336.922 39.2593C336.922 42.0207 339.16 44.2593 341.922 44.2593Z" fill="url(#paint32_radial_938_25835)"/>
</g>
<g id="R-ICO-013276_26">
<path id="RAD51_27" d="M336.066 57.0122C338.828 57.0122 341.066 54.7736 341.066 52.0122C341.066 49.2508 338.828 47.0122 336.066 47.0122C333.305 47.0122 331.066 49.2508 331.066 52.0122C331.066 54.7736 333.305 57.0122 336.066 57.0122Z" fill="url(#paint33_radial_938_25835)"/>
</g>
<g id="R-ICO-013276_27">
<path id="RAD51_28" d="M324.392 63.7656C327.153 63.7656 329.392 61.527 329.392 58.7656C329.392 56.0042 327.153 53.7656 324.392 53.7656C321.63 53.7656 319.392 56.0042 319.392 58.7656C319.392 61.527 321.63 63.7656 324.392 63.7656Z" fill="url(#paint34_radial_938_25835)"/>
</g>
<g id="R-ICO-013276_28">
<path id="RAD51_29" d="M376.918 16.7529C379.679 16.7529 381.918 14.5144 381.918 11.7529C381.918 8.99151 379.679 6.75293 376.918 6.75293C374.157 6.75293 371.918 8.99151 371.918 11.7529C371.918 14.5144 374.157 16.7529 376.918 16.7529Z" fill="url(#paint35_radial_938_25835)"/>
</g>
<g id="R-ICO-013276_29">
<path id="RAD51_30" d="M381.912 29.5063C384.674 29.5063 386.912 27.2678 386.912 24.5063C386.912 21.7449 384.674 19.5063 381.912 19.5063C379.151 19.5063 376.912 21.7449 376.912 24.5063C376.912 27.2678 379.151 29.5063 381.912 29.5063Z" fill="url(#paint36_radial_938_25835)"/>
</g>
<g id="R-ICO-013276_30">
<path id="RAD51_31" d="M385.906 44.2593C388.668 44.2593 390.906 42.0207 390.906 39.2593C390.906 36.4979 388.668 34.2593 385.906 34.2593C383.145 34.2593 380.906 36.4979 380.906 39.2593C380.906 42.0207 383.145 44.2593 385.906 44.2593Z" fill="url(#paint37_radial_938_25835)"/>
</g>
<g id="R-ICO-013276_31">
<path id="RAD51_32" d="M391.9 57.0122C394.662 57.0122 396.9 54.7736 396.9 52.0122C396.9 49.2508 394.662 47.0122 391.9 47.0122C389.139 47.0122 386.9 49.2508 386.9 52.0122C386.9 54.7736 389.139 57.0122 391.9 57.0122Z" fill="url(#paint38_radial_938_25835)"/>
</g>
<g id="R-ICO-013276_32">
<path id="RAD51_33" d="M403.895 63.7656C406.656 63.7656 408.895 61.527 408.895 58.7656C408.895 56.0042 406.656 53.7656 403.895 53.7656C401.133 53.7656 398.895 56.0042 398.895 58.7656C398.895 61.527 401.133 63.7656 403.895 63.7656Z" fill="url(#paint39_radial_938_25835)"/>
</g>
<g id="R-ICO-013276_33">
<path id="RAD51_34" d="M284.685 10C287.446 10 289.685 7.76142 289.685 5C289.685 2.23858 287.446 0 284.685 0C281.923 0 279.685 2.23858 279.685 5C279.685 7.76142 281.923 10 284.685 10Z" fill="url(#paint40_radial_938_25835)"/>
</g>
<g id="R-ICO-013276_34">
<path id="RAD51_35" d="M271.529 16.7529C274.291 16.7529 276.529 14.5144 276.529 11.7529C276.529 8.99151 274.291 6.75293 271.529 6.75293C268.768 6.75293 266.529 8.99151 266.529 11.7529C266.529 14.5144 268.768 16.7529 271.529 16.7529Z" fill="url(#paint41_radial_938_25835)"/>
</g>
<g id="R-ICO-013276_35">
<path id="RAD51_36" d="M266.53 29.5063C269.292 29.5063 271.53 27.2678 271.53 24.5063C271.53 21.7449 269.292 19.5063 266.53 19.5063C263.769 19.5063 261.53 21.7449 261.53 24.5063C261.53 27.2678 263.769 29.5063 266.53 29.5063Z" fill="url(#paint42_radial_938_25835)"/>
</g>
<g id="R-ICO-013276_36">
<path id="RAD51_37" d="M262.42 44.2593C265.181 44.2593 267.42 42.0207 267.42 39.2593C267.42 36.4979 265.181 34.2593 262.42 34.2593C259.658 34.2593 257.42 36.4979 257.42 39.2593C257.42 42.0207 259.658 44.2593 262.42 44.2593Z" fill="url(#paint43_radial_938_25835)"/>
</g>
<g id="R-ICO-013276_37">
<path id="RAD51_38" d="M256.563 57.0127C259.325 57.0127 261.563 54.7741 261.563 52.0127C261.563 49.2513 259.325 47.0127 256.563 47.0127C253.802 47.0127 251.563 49.2513 251.563 52.0127C251.563 54.7741 253.802 57.0127 256.563 57.0127Z" fill="url(#paint44_radial_938_25835)"/>
</g>
<g id="R-ICO-013276_38">
<path id="RAD51_39" d="M244.891 63.7656C247.652 63.7656 249.891 61.527 249.891 58.7656C249.891 56.0042 247.652 53.7656 244.891 53.7656C242.129 53.7656 239.891 56.0042 239.891 58.7656C239.891 61.527 242.129 63.7656 244.891 63.7656Z" fill="url(#paint45_radial_938_25835)"/>
</g>
<g id="R-ICO-013276_39">
<path id="RAD51_40" d="M297.415 16.7529C300.176 16.7529 302.415 14.5144 302.415 11.7529C302.415 8.99151 300.176 6.75293 297.415 6.75293C294.654 6.75293 292.415 8.99151 292.415 11.7529C292.415 14.5144 294.654 16.7529 297.415 16.7529Z" fill="url(#paint46_radial_938_25835)"/>
</g>
<g id="R-ICO-013276_40">
<path id="RAD51_41" d="M302.409 29.5063C305.171 29.5063 307.409 27.2678 307.409 24.5063C307.409 21.7449 305.171 19.5063 302.409 19.5063C299.648 19.5063 297.409 21.7449 297.409 24.5063C297.409 27.2678 299.648 29.5063 302.409 29.5063Z" fill="url(#paint47_radial_938_25835)"/>
</g>
<g id="R-ICO-013276_41">
<path id="RAD51_42" d="M306.403 44.2593C309.165 44.2593 311.403 42.0207 311.403 39.2593C311.403 36.4979 309.165 34.2593 306.403 34.2593C303.642 34.2593 301.403 36.4979 301.403 39.2593C301.403 42.0207 303.642 44.2593 306.403 44.2593Z" fill="url(#paint48_radial_938_25835)"/>
</g>
<g id="R-ICO-013276_42">
<path id="RAD51_43" d="M312.398 57.0127C315.16 57.0127 317.398 54.7741 317.398 52.0127C317.398 49.2513 315.16 47.0127 312.398 47.0127C309.637 47.0127 307.398 49.2513 307.398 52.0127C307.398 54.7741 309.637 57.0127 312.398 57.0127Z" fill="url(#paint49_radial_938_25835)"/>
</g>
</g>
<g id="TOP" opacity="0.7">
<path id="Vector_17" d="M47.9881 58.7662C24.8017 58.7662 41.4914 5.00049 8.11194 5.00049H1.61523C24.8016 5.00049 8.11194 58.7662 41.4914 58.7662H47.9881Z" fill="url(#paint50_linear_938_25835)"/>
<path id="Vector_18" d="M87.8641 58.7662C64.6777 58.7662 81.3674 5.00049 47.9879 5.00049H41.4912C64.6776 5.00049 47.9879 58.7662 81.3674 58.7662H87.8641Z" fill="url(#paint51_linear_938_25835)"/>
<path id="Vector_19" d="M127.74 58.7662C104.554 58.7662 121.243 5.00049 87.8639 5.00049H81.3672C104.554 5.00049 87.8639 58.7662 121.243 58.7662H127.74Z" fill="url(#paint52_linear_938_25835)"/>
<path id="Vector_20" d="M207.493 58.7662C184.306 58.7662 200.996 5.00049 167.617 5.00049H161.12C184.307 5.00049 167.617 58.7662 200.996 58.7662H207.493Z" fill="url(#paint53_linear_938_25835)"/>
<path id="Vector_21" d="M407.279 58.7662C384.093 58.7662 400.782 5.00049 367.403 5.00049H360.906C384.093 5.00049 367.403 58.7662 400.782 58.7662H407.279Z" fill="url(#paint54_linear_938_25835)"/>
<path id="Vector_22" d="M327.526 58.7662C304.34 58.7662 321.03 5.00049 287.65 5.00049H281.153C304.34 5.00049 287.65 58.7662 321.03 58.7662H327.526Z" fill="url(#paint55_linear_938_25835)"/>
<path id="Vector_23" d="M447.156 58.7662C423.97 58.7662 440.659 5.00049 407.28 5.00049H400.783C423.97 5.00049 407.28 58.7662 440.659 58.7662H447.156Z" fill="url(#paint56_linear_938_25835)"/>
<path id="Vector_24" d="M486.953 58.7662C463.767 58.7662 480.456 5.00049 447.077 5.00049H440.58C463.767 5.00049 447.077 58.7662 480.456 58.7662H486.953Z" fill="url(#paint57_linear_938_25835)"/>
</g>
<g id="TOP LINE">
<path id="Vector_25" d="M47.9879 60.3813H41.4912C32.7398 60.3813 26.411 56.9137 22.1433 49.7805C18.5233 43.7299 16.9265 36.0167 15.3826 28.5576C12.5564 14.9052 10.2192 6.61545 1.6151 6.61545C0.723197 6.61545 0 5.89225 0 5.00035C0 4.10845 0.723197 3.38525 1.6151 3.38525H8.1118C16.8632 3.38525 23.1922 6.85285 27.4599 13.9861C31.0799 20.0369 32.6765 27.7499 34.2206 35.209C37.0468 48.8616 39.3838 57.1509 47.9879 57.1509C48.8799 57.1509 49.603 57.8742 49.603 58.7661C49.6031 59.6581 48.8799 60.3813 47.9879 60.3813ZM10.361 6.70876C15.0914 11.2164 16.8384 19.6556 18.5456 27.9028C21.3853 41.6195 24.3162 55.7815 39.242 57.0577C34.5118 52.5501 32.7648 44.111 31.0576 35.8639C28.2179 22.1471 25.287 7.98496 10.361 6.70876Z" fill="#993D61"/>
<path id="Vector_26" d="M87.8639 60.3813H81.3672C72.6158 60.3813 66.2868 56.9137 62.0191 49.7805C58.3991 43.7297 56.8025 36.0167 55.2584 28.5576C52.4322 14.905 50.0953 6.61545 41.4911 6.61545C40.5991 6.61545 39.876 5.89225 39.876 5.00035C39.876 4.10845 40.5992 3.38525 41.4911 3.38525H47.9876C56.739 3.38525 63.068 6.85285 67.3357 13.9861C70.9557 20.0369 72.5523 27.7499 74.0964 35.209C76.9226 48.8616 79.2598 57.1509 87.8639 57.1509C88.7558 57.1509 89.479 57.8742 89.479 58.7661C89.479 59.6581 88.7558 60.3813 87.8639 60.3813ZM50.2369 6.70876C54.9671 11.2164 56.7141 19.6554 58.4213 27.9026C61.261 41.6195 64.1919 55.7815 79.1179 57.0577C74.3875 52.5501 72.6405 44.1107 70.9333 35.8636C68.0937 22.147 65.1627 7.98496 50.2369 6.70876Z" fill="#3D9799"/>
<path id="Vector_27" d="M127.741 60.3813H121.244C112.493 60.3813 106.164 56.9137 101.896 49.7805C98.2762 43.7297 96.6796 36.0167 95.1355 28.5576C92.3091 14.905 89.9723 6.61545 81.368 6.61545C80.476 6.61545 79.7529 5.89225 79.7529 5.00035C79.7529 4.10845 80.4761 3.38525 81.368 3.38525H87.8647C96.6161 3.38525 102.945 6.85285 107.213 13.9861C110.833 20.0369 112.429 27.7499 113.974 35.209C116.8 48.8616 119.137 57.1509 127.741 57.1509C128.633 57.1509 129.356 57.8742 129.356 58.7661C129.356 59.6581 128.633 60.3813 127.741 60.3813ZM90.1138 6.70876C94.844 11.2164 96.5912 19.6556 98.2986 27.9028C101.138 41.6195 104.069 55.7815 118.995 57.0577C114.265 52.5501 112.518 44.1107 110.81 35.8636C107.971 22.147 105.04 7.98496 90.1138 6.70876Z" fill="#993D61"/>
<path id="Vector_28" d="M407.279 60.3813H400.782C392.031 60.3813 385.702 56.9137 381.434 49.7805C377.814 43.7297 376.217 36.0167 374.673 28.5576C371.847 14.905 369.51 6.61545 360.906 6.61545C360.014 6.61545 359.291 5.89225 359.291 5.00035C359.291 4.10845 360.014 3.38525 360.906 3.38525H367.403C376.154 3.38525 382.483 6.85285 386.751 13.9861C390.371 20.0367 391.967 27.7496 393.511 35.2086C396.338 48.8612 398.674 57.1509 407.279 57.1509C408.171 57.1509 408.894 57.8742 408.894 58.7661C408.894 59.6581 408.171 60.3813 407.279 60.3813ZM369.652 6.70876C374.382 11.2164 376.129 19.6556 377.836 27.9026C380.676 41.6195 383.607 55.7815 398.533 57.0577C393.803 52.5499 392.055 44.1107 390.348 35.8636C387.509 22.147 384.578 7.98496 369.652 6.70876Z" fill="#3D9799"/>
<path id="Vector_29" d="M447.156 60.3813H440.659C431.908 60.3813 425.579 56.9137 421.311 49.7805C417.691 43.7297 416.095 36.0167 414.551 28.5576C411.724 14.905 409.387 6.61545 400.783 6.61545C399.891 6.61545 399.168 5.89225 399.168 5.00035C399.168 4.10845 399.891 3.38525 400.783 3.38525H407.28C416.031 3.38525 422.36 6.85285 426.628 13.9861C430.248 20.0369 431.844 27.7499 433.389 35.209C436.215 48.8616 438.552 57.1509 447.156 57.1509C448.048 57.1509 448.771 57.8742 448.771 58.7661C448.771 59.6581 448.048 60.3813 447.156 60.3813ZM409.529 6.70876C414.259 11.2164 416.006 19.6556 417.714 27.9028C420.553 41.6195 423.484 55.7815 438.41 57.0577C433.68 52.5501 431.933 44.1107 430.225 35.8636C427.386 22.147 424.455 7.98496 409.529 6.70876Z" fill="#993D61"/>
<path id="Vector_30" d="M486.953 60.3813H480.456C471.705 60.3813 465.376 56.9137 461.108 49.7805C457.488 43.7297 455.891 36.0167 454.347 28.5576C451.521 14.905 449.184 6.61545 440.58 6.61545C439.688 6.61545 438.965 5.89225 438.965 5.00035C438.965 4.10845 439.688 3.38525 440.58 3.38525H447.076C455.828 3.38525 462.157 6.85285 466.425 13.9861C470.045 20.0369 471.641 27.7499 473.185 35.209C476.012 48.8616 478.349 57.1509 486.953 57.1509C487.845 57.1509 488.568 57.8742 488.568 58.7661C488.568 59.6581 487.845 60.3813 486.953 60.3813ZM449.326 6.70876C454.056 11.2164 455.803 19.6554 457.51 27.9026C460.35 41.6195 463.281 55.7815 478.207 57.0577C473.476 52.5501 471.729 44.1107 470.022 35.8636C467.183 22.147 464.252 7.98496 449.326 6.70876Z" fill="#3D9799"/>
<path id="Vector_31" d="M68.9565 10.2077C68.4549 10.2077 67.9607 9.97466 67.6448 9.53676C67.1233 8.81316 67.2872 7.80376 68.0107 7.28206C71.598 4.69636 76.0917 3.38525 81.3673 3.38525L87.8738 3.42426C88.7657 3.42956 89.4846 4.15706 89.4793 5.04906C89.474 5.93786 88.7518 6.65456 87.8644 6.65456C87.861 6.65456 87.8578 6.65456 87.8544 6.65456L81.3578 6.61555C76.7195 6.61555 72.9682 7.69086 69.8995 9.90276C69.6138 10.1085 69.2836 10.2077 68.9565 10.2077Z" fill="#993D61"/>
<path id="Vector_32" d="M131.643 60.1657C130.395 60.3375 129.094 60.4238 127.741 60.4238L121.234 60.3848C120.342 60.3795 119.624 59.652 119.629 58.76C119.634 57.8712 120.356 57.1546 121.244 57.1546C121.247 57.1546 121.25 57.1546 121.254 57.1546L127.751 57.1936C128.776 57.1936 129.758 57.141 130.699 57.0353C134.014 56.6626 135.262 59.6674 131.643 60.1657Z" fill="#993D61"/>
<path id="Vector_33" d="M207.493 60.3813H200.996C192.245 60.3813 185.916 56.9137 181.648 49.7805C178.028 43.7297 176.431 36.0167 174.887 28.5576C172.061 14.905 169.724 6.61545 161.12 6.61545C160.228 6.61545 159.505 5.89225 159.505 5.00035C159.505 4.10845 160.228 3.38525 161.12 3.38525H167.617C176.368 3.38525 182.697 6.85285 186.965 13.9861C190.585 20.0369 192.181 27.7499 193.725 35.209C196.552 48.8616 198.889 57.1509 207.493 57.1509C208.385 57.1509 209.108 57.8742 209.108 58.7661C209.108 59.6581 208.385 60.3813 207.493 60.3813ZM169.866 6.70876C174.596 11.2164 176.343 19.6554 178.05 27.9026C180.89 41.6195 183.821 55.7815 198.747 57.0577C194.016 52.5501 192.269 44.1107 190.562 35.8636C187.723 22.147 184.792 7.98496 169.866 6.70876Z" fill="#993D61"/>
<path id="Vector_34" d="M156.406 3.76515C157.893 3.51225 159.459 3.38525 161.1 3.38525L167.607 3.42426C168.499 3.42956 169.218 4.15706 169.212 5.04906C169.207 5.93786 168.485 6.65456 167.597 6.65456C167.594 6.65456 167.591 6.65456 167.588 6.65456L161.091 6.61555C159.782 6.61555 158.544 6.70116 157.373 6.87366C154.39 7.31266 153.116 4.32485 156.406 3.76515Z" fill="#993D61"/>
<path id="Vector_35" d="M211.376 60.1657C210.128 60.3375 208.826 60.4238 207.473 60.4238L200.967 60.3848C200.075 60.3795 199.356 59.652 199.361 58.76C199.367 57.8712 200.089 57.1546 200.976 57.1546C200.98 57.1546 200.983 57.1546 200.986 57.1546L207.483 57.1936C208.508 57.1936 209.49 57.141 210.431 57.0353C213.746 56.6626 214.994 59.6674 211.376 60.1657Z" fill="#993D61"/>
<path id="Vector_36" d="M419.69 53.5586C420.191 53.5586 420.686 53.7916 421.002 54.2295C421.523 54.9531 421.359 55.9625 420.636 56.4842C417.048 59.0699 412.554 60.381 407.279 60.381L400.773 60.342C399.881 60.3367 399.162 59.6092 399.167 58.7172C399.172 57.8284 399.895 57.1117 400.782 57.1117C400.785 57.1117 400.788 57.1117 400.792 57.1117L407.289 57.1507C411.927 57.1507 415.678 56.0754 418.747 53.8635C419.032 53.6578 419.363 53.5586 419.69 53.5586Z" fill="#3D9799"/>
<path id="Vector_37" d="M356.699 3.68716C358.04 3.48616 359.443 3.38525 360.906 3.38525L367.413 3.42426C368.305 3.42956 369.024 4.15706 369.018 5.04906C369.013 5.93786 368.291 6.65456 367.403 6.65456C367.4 6.65456 367.397 6.65456 367.394 6.65456L360.897 6.61555C359.666 6.61555 358.498 6.69126 357.389 6.84366C354.316 7.26586 353.207 4.21076 356.699 3.68716Z" fill="#3D9799"/>
<path id="Vector_38" d="M327.526 60.3813H321.029C312.278 60.3813 305.949 56.9137 301.681 49.7805C298.062 43.7297 296.464 36.0167 294.92 28.5576C292.094 14.905 289.757 6.61545 281.153 6.61545C280.261 6.61545 279.538 5.89225 279.538 5.00035C279.538 4.10845 280.261 3.38525 281.153 3.38525H287.65C296.401 3.38525 302.73 6.85285 306.998 13.9861C310.618 20.0367 312.214 27.7496 313.758 35.2086C316.585 48.8612 318.922 57.1509 327.526 57.1509C328.418 57.1509 329.141 57.8742 329.141 58.7661C329.141 59.6581 328.418 60.3813 327.526 60.3813ZM289.899 6.70876C294.629 11.2164 296.376 19.6556 298.083 27.9026C300.923 41.6195 303.854 55.7815 318.78 57.0577C314.05 52.5499 312.302 44.1107 310.595 35.8636C307.756 22.147 304.825 7.98496 289.899 6.70876Z" fill="#3D9799"/>
<path id="Vector_39" d="M330.483 60.2358C329.527 60.3326 328.541 60.3812 327.526 60.3812L321.02 60.3422C320.128 60.3369 319.409 59.6094 319.414 58.7174C319.419 57.8286 320.142 57.1119 321.029 57.1119C321.032 57.1119 321.035 57.1119 321.039 57.1119L327.536 57.1509C328.53 57.1509 329.483 57.1015 330.398 57.0021C333.751 56.6378 334.497 59.8295 330.483 60.2358Z" fill="#3D9799"/>
<path id="Vector_40" d="M276.945 3.68716C278.286 3.48616 279.689 3.38525 281.152 3.38525L287.659 3.42426C288.551 3.42956 289.27 4.15706 289.264 5.04906C289.259 5.93786 288.537 6.65456 287.649 6.65456C287.646 6.65456 287.643 6.65456 287.639 6.65456L281.143 6.61555C279.912 6.61555 278.744 6.69126 277.635 6.84366C274.563 7.26586 273.454 4.21076 276.945 3.68716Z" fill="#3D9799"/>
</g>
</g>
<defs>
<linearGradient id="paint0_linear_938_25835" x1="463.756" y1="58.8421" x2="463.756" y2="5.71019" gradientUnits="userSpaceOnUse">
<stop stop-color="#240410"/>
<stop offset="0.1" stop-color="#A20E44"/>
<stop offset="0.25" stop-color="#A29097"/>
<stop offset="0.6" stop-color="#A20E44"/>
<stop offset="1" stop-color="#240410"/>
</linearGradient>
<linearGradient id="paint1_linear_938_25835" x1="344.217" y1="58.8421" x2="344.217" y2="5.71019" gradientUnits="userSpaceOnUse">
<stop stop-color="#042224"/>
<stop offset="0.1" stop-color="#139BA2"/>
<stop offset="0.25" stop-color="#90A1A2"/>
<stop offset="0.6" stop-color="#0E9BA2"/>
<stop offset="1" stop-color="#042224"/>
</linearGradient>
<linearGradient id="paint2_linear_938_25835" x1="264.464" y1="58.8421" x2="264.464" y2="5.71019" gradientUnits="userSpaceOnUse">
<stop stop-color="#042224"/>
<stop offset="0.1" stop-color="#139BA2"/>
<stop offset="0.25" stop-color="#90A1A2"/>
<stop offset="0.6" stop-color="#0E9BA2"/>
<stop offset="1" stop-color="#042224"/>
</linearGradient>
<linearGradient id="paint3_linear_938_25835" x1="423.97" y1="58.8421" x2="423.97" y2="5.71019" gradientUnits="userSpaceOnUse">
<stop stop-color="#042224"/>
<stop offset="0.1" stop-color="#139BA2"/>
<stop offset="0.25" stop-color="#90A1A2"/>
<stop offset="0.6" stop-color="#0E9BA2"/>
<stop offset="1" stop-color="#042224"/>
</linearGradient>
<linearGradient id="paint4_linear_938_25835" x1="24.8017" y1="58.8421" x2="24.8017" y2="5.71019" gradientUnits="userSpaceOnUse">
<stop stop-color="#042224"/>
<stop offset="0.1" stop-color="#139BA2"/>
<stop offset="0.25" stop-color="#90A1A2"/>
<stop offset="0.6" stop-color="#0E9BA2"/>
<stop offset="1" stop-color="#042224"/>
</linearGradient>
<linearGradient id="paint5_linear_938_25835" x1="64.6777" y1="58.8421" x2="64.6777" y2="5.71019" gradientUnits="userSpaceOnUse">
<stop stop-color="#240410"/>
<stop offset="0.1" stop-color="#A20E44"/>
<stop offset="0.25" stop-color="#A29097"/>
<stop offset="0.6" stop-color="#A20E44"/>
<stop offset="1" stop-color="#240410"/>
</linearGradient>
<linearGradient id="paint6_linear_938_25835" x1="144.431" y1="58.8421" x2="144.431" y2="5.71019" gradientUnits="userSpaceOnUse">
<stop stop-color="#240410"/>
<stop offset="0.1" stop-color="#A20E44"/>
<stop offset="0.25" stop-color="#A29097"/>
<stop offset="0.6" stop-color="#A20E44"/>
<stop offset="1" stop-color="#240410"/>
</linearGradient>
<linearGradient id="paint7_linear_938_25835" x1="224.163" y1="58.8421" x2="224.163" y2="5.71019" gradientUnits="userSpaceOnUse">
<stop stop-color="#240410"/>
<stop offset="0.1" stop-color="#A20E44"/>
<stop offset="0.25" stop-color="#A29097"/>
<stop offset="0.6" stop-color="#A20E44"/>
<stop offset="1" stop-color="#240410"/>
</linearGradient>
<radialGradient id="paint8_radial_938_25835" cx="0" cy="0" r="1" gradientUnits="userSpaceOnUse" gradientTransform="translate(83.4414 3.34138) scale(5.76389)">
<stop stop-color="#D89355"/>
<stop offset="1" stop-color="#541107"/>
</radialGradient>
<radialGradient id="paint9_radial_938_25835" cx="0" cy="0" r="1" gradientUnits="userSpaceOnUse" gradientTransform="translate(96.4355 10.0943) scale(5.76389)">
<stop stop-color="#D89355"/>
<stop offset="1" stop-color="#541107"/>
</radialGradient>
<radialGradient id="paint10_radial_938_25835" cx="0" cy="0" r="1" gradientUnits="userSpaceOnUse" gradientTransform="translate(101.43 22.8477) scale(5.76389)">
<stop stop-color="#D89355"/>
<stop offset="1" stop-color="#541107"/>
</radialGradient>
<radialGradient id="paint11_radial_938_25835" cx="0" cy="0" r="1" gradientUnits="userSpaceOnUse" gradientTransform="translate(105.424 37.6007) scale(5.76389)">
<stop stop-color="#D89355"/>
<stop offset="1" stop-color="#541107"/>
</radialGradient>
<radialGradient id="paint12_radial_938_25835" cx="0" cy="0" r="1" gradientUnits="userSpaceOnUse" gradientTransform="translate(111.418 50.3536) scale(5.76389)">
<stop stop-color="#D89355"/>
<stop offset="1" stop-color="#541107"/>
</radialGradient>
<radialGradient id="paint13_radial_938_25835" cx="0" cy="0" r="1" gradientUnits="userSpaceOnUse" gradientTransform="translate(163.208 3.34138) scale(5.76389)">
<stop stop-color="#D89355"/>
<stop offset="1" stop-color="#541107"/>
</radialGradient>
<radialGradient id="paint14_radial_938_25835" cx="0" cy="0" r="1" gradientUnits="userSpaceOnUse" gradientTransform="translate(150.053 10.0943) scale(5.76389)">
<stop stop-color="#D89355"/>
<stop offset="1" stop-color="#541107"/>
</radialGradient>
<radialGradient id="paint15_radial_938_25835" cx="0" cy="0" r="1" gradientUnits="userSpaceOnUse" gradientTransform="translate(145.054 22.8477) scale(5.76389)">
<stop stop-color="#D89355"/>
<stop offset="1" stop-color="#541107"/>
</radialGradient>
<radialGradient id="paint16_radial_938_25835" cx="0" cy="0" r="1" gradientUnits="userSpaceOnUse" gradientTransform="translate(140.942 37.6007) scale(5.76389)">
<stop stop-color="#D89355"/>
<stop offset="1" stop-color="#541107"/>
</radialGradient>
<radialGradient id="paint17_radial_938_25835" cx="0" cy="0" r="1" gradientUnits="userSpaceOnUse" gradientTransform="translate(135.087 50.3536) scale(5.76389)">
<stop stop-color="#D89355"/>
<stop offset="1" stop-color="#541107"/>
</radialGradient>
<radialGradient id="paint18_radial_938_25835" cx="0" cy="0" r="1" gradientUnits="userSpaceOnUse" gradientTransform="translate(123.412 57.107) scale(5.76389)">
<stop stop-color="#D89355"/>
<stop offset="1" stop-color="#541107"/>
</radialGradient>
<radialGradient id="paint19_radial_938_25835" cx="0" cy="0" r="1" gradientUnits="userSpaceOnUse" gradientTransform="translate(242.913 3.34138) scale(5.76389)">
<stop stop-color="#D89355"/>
<stop offset="1" stop-color="#541107"/>
</radialGradient>
<radialGradient id="paint20_radial_938_25835" cx="0" cy="0" r="1" gradientUnits="userSpaceOnUse" gradientTransform="translate(229.759 10.0943) scale(5.76389)">
<stop stop-color="#D89355"/>
<stop offset="1" stop-color="#541107"/>
</radialGradient>
<radialGradient id="paint21_radial_938_25835" cx="0" cy="0" r="1" gradientUnits="userSpaceOnUse" gradientTransform="translate(224.759 22.8477) scale(5.76389)">
<stop stop-color="#D89355"/>
<stop offset="1" stop-color="#541107"/>
</radialGradient>
<radialGradient id="paint22_radial_938_25835" cx="0" cy="0" r="1" gradientUnits="userSpaceOnUse" gradientTransform="translate(220.647 37.6007) scale(5.76389)">
<stop stop-color="#D89355"/>
<stop offset="1" stop-color="#541107"/>
</radialGradient>
<radialGradient id="paint23_radial_938_25835" cx="0" cy="0" r="1" gradientUnits="userSpaceOnUse" gradientTransform="translate(214.792 50.3536) scale(5.76389)">
<stop stop-color="#D89355"/>
<stop offset="1" stop-color="#541107"/>
</radialGradient>
<radialGradient id="paint24_radial_938_25835" cx="0" cy="0" r="1" gradientUnits="userSpaceOnUse" gradientTransform="translate(203.118 57.107) scale(5.76389)">
<stop stop-color="#D89355"/>
<stop offset="1" stop-color="#541107"/>
</radialGradient>
<radialGradient id="paint25_radial_938_25835" cx="0" cy="0" r="1" gradientUnits="userSpaceOnUse" gradientTransform="translate(176.142 10.0943) scale(5.76389)">
<stop stop-color="#D89355"/>
<stop offset="1" stop-color="#541107"/>
</radialGradient>
<radialGradient id="paint26_radial_938_25835" cx="0" cy="0" r="1" gradientUnits="userSpaceOnUse" gradientTransform="translate(181.136 22.8477) scale(5.76389)">
<stop stop-color="#D89355"/>
<stop offset="1" stop-color="#541107"/>
</radialGradient>
<radialGradient id="paint27_radial_938_25835" cx="0" cy="0" r="1" gradientUnits="userSpaceOnUse" gradientTransform="translate(185.13 37.6007) scale(5.76389)">
<stop stop-color="#D89355"/>
<stop offset="1" stop-color="#541107"/>
</radialGradient>
<radialGradient id="paint28_radial_938_25835" cx="0" cy="0" r="1" gradientUnits="userSpaceOnUse" gradientTransform="translate(191.124 50.3541) scale(5.76389)">
<stop stop-color="#D89355"/>
<stop offset="1" stop-color="#541107"/>
</radialGradient>
<radialGradient id="paint29_radial_938_25835" cx="0" cy="0" r="1" gradientUnits="userSpaceOnUse" gradientTransform="translate(363.013 3.34138) scale(5.76389)">
<stop stop-color="#D89355"/>
<stop offset="1" stop-color="#541107"/>
</radialGradient>
<radialGradient id="paint30_radial_938_25835" cx="0" cy="0" r="1" gradientUnits="userSpaceOnUse" gradientTransform="translate(349.858 10.0943) scale(5.76389)">
<stop stop-color="#D89355"/>
<stop offset="1" stop-color="#541107"/>
</radialGradient>
<radialGradient id="paint31_radial_938_25835" cx="0" cy="0" r="1" gradientUnits="userSpaceOnUse" gradientTransform="translate(344.858 22.8477) scale(5.76389)">
<stop stop-color="#D89355"/>
<stop offset="1" stop-color="#541107"/>
</radialGradient>
<radialGradient id="paint32_radial_938_25835" cx="0" cy="0" r="1" gradientUnits="userSpaceOnUse" gradientTransform="translate(340.747 37.6007) scale(5.76389)">
<stop stop-color="#D89355"/>
<stop offset="1" stop-color="#541107"/>
</radialGradient>
<radialGradient id="paint33_radial_938_25835" cx="0" cy="0" r="1" gradientUnits="userSpaceOnUse" gradientTransform="translate(334.892 50.3536) scale(5.76389)">
<stop stop-color="#D89355"/>
<stop offset="1" stop-color="#541107"/>
</radialGradient>
<radialGradient id="paint34_radial_938_25835" cx="0" cy="0" r="1" gradientUnits="userSpaceOnUse" gradientTransform="translate(323.217 57.107) scale(5.76389)">
<stop stop-color="#D89355"/>
<stop offset="1" stop-color="#541107"/>
</radialGradient>
<radialGradient id="paint35_radial_938_25835" cx="0" cy="0" r="1" gradientUnits="userSpaceOnUse" gradientTransform="translate(375.743 10.0943) scale(5.76389)">
<stop stop-color="#D89355"/>
<stop offset="1" stop-color="#541107"/>
</radialGradient>
<radialGradient id="paint36_radial_938_25835" cx="0" cy="0" r="1" gradientUnits="userSpaceOnUse" gradientTransform="translate(380.737 22.8477) scale(5.76389)">
<stop stop-color="#D89355"/>
<stop offset="1" stop-color="#541107"/>
</radialGradient>
<radialGradient id="paint37_radial_938_25835" cx="0" cy="0" r="1" gradientUnits="userSpaceOnUse" gradientTransform="translate(384.731 37.6007) scale(5.76389)">
<stop stop-color="#D89355"/>
<stop offset="1" stop-color="#541107"/>
</radialGradient>
<radialGradient id="paint38_radial_938_25835" cx="0" cy="0" r="1" gradientUnits="userSpaceOnUse" gradientTransform="translate(390.726 50.3536) scale(5.76389)">
<stop stop-color="#D89355"/>
<stop offset="1" stop-color="#541107"/>
</radialGradient>
<radialGradient id="paint39_radial_938_25835" cx="0" cy="0" r="1" gradientUnits="userSpaceOnUse" gradientTransform="translate(402.72 57.107) scale(5.76389)">
<stop stop-color="#D89355"/>
<stop offset="1" stop-color="#541107"/>
</radialGradient>
<radialGradient id="paint40_radial_938_25835" cx="0" cy="0" r="1" gradientUnits="userSpaceOnUse" gradientTransform="translate(283.51 3.34138) scale(5.76389)">
<stop stop-color="#D89355"/>
<stop offset="1" stop-color="#541107"/>
</radialGradient>
<radialGradient id="paint41_radial_938_25835" cx="0" cy="0" r="1" gradientUnits="userSpaceOnUse" gradientTransform="translate(270.354 10.0943) scale(5.76389)">
<stop stop-color="#D89355"/>
<stop offset="1" stop-color="#541107"/>
</radialGradient>
<radialGradient id="paint42_radial_938_25835" cx="0" cy="0" r="1" gradientUnits="userSpaceOnUse" gradientTransform="translate(265.355 22.8477) scale(5.76389)">
<stop stop-color="#D89355"/>
<stop offset="1" stop-color="#541107"/>
</radialGradient>
<radialGradient id="paint43_radial_938_25835" cx="0" cy="0" r="1" gradientUnits="userSpaceOnUse" gradientTransform="translate(261.245 37.6007) scale(5.76389)">
<stop stop-color="#D89355"/>
<stop offset="1" stop-color="#541107"/>
</radialGradient>
<radialGradient id="paint44_radial_938_25835" cx="0" cy="0" r="1" gradientUnits="userSpaceOnUse" gradientTransform="translate(255.389 50.3541) scale(5.76389)">
<stop stop-color="#D89355"/>
<stop offset="1" stop-color="#541107"/>
</radialGradient>
<radialGradient id="paint45_radial_938_25835" cx="0" cy="0" r="1" gradientUnits="userSpaceOnUse" gradientTransform="translate(243.716 57.107) scale(5.76389)">
<stop stop-color="#D89355"/>
<stop offset="1" stop-color="#541107"/>
</radialGradient>
<radialGradient id="paint46_radial_938_25835" cx="0" cy="0" r="1" gradientUnits="userSpaceOnUse" gradientTransform="translate(296.24 10.0943) scale(5.76389)">
<stop stop-color="#D89355"/>
<stop offset="1" stop-color="#541107"/>
</radialGradient>
<radialGradient id="paint47_radial_938_25835" cx="0" cy="0" r="1" gradientUnits="userSpaceOnUse" gradientTransform="translate(301.234 22.8477) scale(5.76389)">
<stop stop-color="#D89355"/>
<stop offset="1" stop-color="#541107"/>
</radialGradient>
<radialGradient id="paint48_radial_938_25835" cx="0" cy="0" r="1" gradientUnits="userSpaceOnUse" gradientTransform="translate(305.229 37.6007) scale(5.76389)">
<stop stop-color="#D89355"/>
<stop offset="1" stop-color="#541107"/>
</radialGradient>
<radialGradient id="paint49_radial_938_25835" cx="0" cy="0" r="1" gradientUnits="userSpaceOnUse" gradientTransform="translate(311.224 50.3541) scale(5.76389)">
<stop stop-color="#D89355"/>
<stop offset="1" stop-color="#541107"/>
</radialGradient>
<linearGradient id="paint50_linear_938_25835" x1="24.8016" y1="4.92459" x2="24.8016" y2="58.5125" gradientUnits="userSpaceOnUse">
<stop stop-color="#240410"/>
<stop offset="0.1" stop-color="#A20E44"/>
<stop offset="0.25" stop-color="#A29097"/>
<stop offset="0.6" stop-color="#A20E44"/>
<stop offset="1" stop-color="#240410"/>
</linearGradient>
<linearGradient id="paint51_linear_938_25835" x1="64.6776" y1="4.92459" x2="64.6776" y2="58.5125" gradientUnits="userSpaceOnUse">
<stop stop-color="#042224"/>
<stop offset="0.1" stop-color="#0E9BA2"/>
<stop offset="0.1237" stop-color="#179BA2"/>
<stop offset="0.1623" stop-color="#2F9DA2"/>
<stop offset="0.2111" stop-color="#579EA2"/>
<stop offset="0.2676" stop-color="#8EA1A2"/>
<stop offset="0.27" stop-color="#90A1A2"/>
<stop offset="0.315" stop-color="#8DA1A2"/>
<stop offset="0.3421" stop-color="#85A0A2"/>
<stop offset="0.3644" stop-color="#77A0A2"/>
<stop offset="0.3841" stop-color="#629FA2"/>
<stop offset="0.4021" stop-color="#489EA2"/>
<stop offset="0.4187" stop-color="#289CA2"/>
<stop offset="0.43" stop-color="#0E9BA2"/>
<stop offset="1" stop-color="#042224"/>
</linearGradient>
<linearGradient id="paint52_linear_938_25835" x1="104.554" y1="4.92459" x2="104.554" y2="58.5125" gradientUnits="userSpaceOnUse">
<stop stop-color="#240410"/>
<stop offset="0.1" stop-color="#A20E44"/>
<stop offset="0.25" stop-color="#A29097"/>
<stop offset="0.6" stop-color="#A20E44"/>
<stop offset="1" stop-color="#240410"/>
</linearGradient>
<linearGradient id="paint53_linear_938_25835" x1="184.307" y1="4.92459" x2="184.307" y2="58.5125" gradientUnits="userSpaceOnUse">
<stop stop-color="#240410"/>
<stop offset="0.1" stop-color="#A20E44"/>
<stop offset="0.25" stop-color="#A29097"/>
<stop offset="0.6" stop-color="#A20E44"/>
<stop offset="1" stop-color="#240410"/>
</linearGradient>
<linearGradient id="paint54_linear_938_25835" x1="384.093" y1="4.92459" x2="384.093" y2="58.5125" gradientUnits="userSpaceOnUse">
<stop stop-color="#042224"/>
<stop offset="0.1" stop-color="#0E9BA2"/>
<stop offset="0.1237" stop-color="#179BA2"/>
<stop offset="0.1623" stop-color="#2F9DA2"/>
<stop offset="0.2111" stop-color="#579EA2"/>
<stop offset="0.2676" stop-color="#8EA1A2"/>
<stop offset="0.27" stop-color="#90A1A2"/>
<stop offset="0.315" stop-color="#8DA1A2"/>
<stop offset="0.3421" stop-color="#85A0A2"/>
<stop offset="0.3644" stop-color="#77A0A2"/>
<stop offset="0.3841" stop-color="#629FA2"/>
<stop offset="0.4021" stop-color="#489EA2"/>
<stop offset="0.4187" stop-color="#289CA2"/>
<stop offset="0.43" stop-color="#0E9BA2"/>
<stop offset="1" stop-color="#042224"/>
</linearGradient>
<linearGradient id="paint55_linear_938_25835" x1="304.34" y1="4.92459" x2="304.34" y2="58.5125" gradientUnits="userSpaceOnUse">
<stop stop-color="#042224"/>
<stop offset="0.1" stop-color="#0E9BA2"/>
<stop offset="0.1237" stop-color="#179BA2"/>
<stop offset="0.1623" stop-color="#2F9DA2"/>
<stop offset="0.2111" stop-color="#579EA2"/>
<stop offset="0.2676" stop-color="#8EA1A2"/>
<stop offset="0.27" stop-color="#90A1A2"/>
<stop offset="0.315" stop-color="#8DA1A2"/>
<stop offset="0.3421" stop-color="#85A0A2"/>
<stop offset="0.3644" stop-color="#77A0A2"/>
<stop offset="0.3841" stop-color="#629FA2"/>
<stop offset="0.4021" stop-color="#489EA2"/>
<stop offset="0.4187" stop-color="#289CA2"/>
<stop offset="0.43" stop-color="#0E9BA2"/>
<stop offset="1" stop-color="#042224"/>
</linearGradient>
<linearGradient id="paint56_linear_938_25835" x1="423.97" y1="4.92459" x2="423.97" y2="58.5125" gradientUnits="userSpaceOnUse">
<stop stop-color="#240410"/>
<stop offset="0.1" stop-color="#A20E44"/>
<stop offset="0.25" stop-color="#A29097"/>
<stop offset="0.6" stop-color="#A20E44"/>
<stop offset="1" stop-color="#240410"/>
</linearGradient>
<linearGradient id="paint57_linear_938_25835" x1="463.767" y1="4.92459" x2="463.767" y2="58.5125" gradientUnits="userSpaceOnUse">
<stop stop-color="#042224"/>
<stop offset="0.1" stop-color="#0E9BA2"/>
<stop offset="0.1237" stop-color="#179BA2"/>
<stop offset="0.1623" stop-color="#2F9DA2"/>
<stop offset="0.2111" stop-color="#579EA2"/>
<stop offset="0.2676" stop-color="#8EA1A2"/>
<stop offset="0.27" stop-color="#90A1A2"/>
<stop offset="0.315" stop-color="#8DA1A2"/>
<stop offset="0.3421" stop-color="#85A0A2"/>
<stop offset="0.3644" stop-color="#77A0A2"/>
<stop offset="0.3841" stop-color="#629FA2"/>
<stop offset="0.4021" stop-color="#489EA2"/>
<stop offset="0.4187" stop-color="#289CA2"/>
<stop offset="0.43" stop-color="#0E9BA2"/>
<stop offset="1" stop-color="#042224"/>
</linearGradient>
</defs>
</svg>
