<svg width="50" height="23" viewBox="0 0 50 23" fill="none" xmlns="http://www.w3.org/2000/svg">
<g id="R-ICO-013708">
<g id="SPTB">
<path d="M1.12897 11.4629C1.12897 5.94004 5.60612 1.46289 11.129 1.46289H38.129C43.6518 1.46289 48.129 5.94004 48.129 11.4629C48.129 16.9857 43.6518 21.4629 38.129 21.4629H11.129C5.60612 21.4629 1.12897 16.9857 1.12897 11.4629Z" fill="url(#paint0_linear_938_23779)"/>
<path d="M39.9947 3.16043C39.3861 3.01514 38.7601 2.93626 38.129 2.9246C29.129 2.78112 20.129 2.41897 11.129 1.6029C11.129 1.50953 11.129 1.41617 11.129 1.3228C20.129 0.506728 29.129 0.144581 38.129 0.00109887C38.9708 -0.0107946 39.8177 0.0707778 40.646 0.24696C45.7882 1.28067 49.6617 6.31708 49.4677 11.4629C49.4602 11.881 49.4301 12.2962 49.3775 12.7091C48.7899 18.289 43.4324 22.6341 38.1294 22.2288C38.1293 22.2287 38.1291 22.2287 38.129 22.2287C33.261 21.985 28.3926 21.8095 23.5248 21.9159C19.393 22.0033 15.2609 22.3108 11.129 22.5243C10.3159 22.5625 9.49247 22.5088 8.68301 22.3587C3.65562 21.4803 -0.233425 16.5153 0.010904 11.4629C0.0217704 11.0529 0.0552537 10.6463 0.111268 10.2425C0.752257 4.77929 6.12558 0.671175 11.129 1.3228C11.129 1.41617 11.129 1.50953 11.129 1.6029C6.26652 2.05068 2.51681 6.11956 2.26669 10.4788C2.24258 10.8061 2.23611 11.1338 2.24695 11.4629C2.33374 15.5019 5.32681 19.1101 9.19137 20.0853C9.81908 20.2568 10.4688 20.3636 11.129 20.4015C15.2609 20.6147 19.393 20.9212 23.5248 21.0086C28.3927 21.115 33.261 20.9408 38.129 20.6971C38.1291 20.6971 38.1292 20.6971 38.1294 20.6971C42.6918 20.4949 46.4562 16.664 46.7603 12.422C46.7879 12.1036 46.7978 11.7841 46.7903 11.4629C46.7539 7.51699 43.7445 3.98001 39.9947 3.16043Z" fill="#E29700"/>
<text id="SPTB_2" fill="white" xml:space="preserve" style="white-space: pre" font-family="Arial" font-size="12" font-weight="bold" letter-spacing="0em"><tspan x="8.62115" y="15.623">SPTB</tspan></text>
</g>
</g>
<defs>
<linearGradient id="paint0_linear_938_23779" x1="24.629" y1="1.46289" x2="24.629" y2="21.4629" gradientUnits="userSpaceOnUse">
<stop stop-color="#E29700"/>
<stop offset="1" stop-color="#003AFF"/>
</linearGradient>
</defs>
</svg>
