<svg width="63" height="60" viewBox="0 0 63 60" fill="none" xmlns="http://www.w3.org/2000/svg">
<g id="R-ICO-014135">
<g id="Multivesicular body">
<mask id="path-1-inside-1_938_25701" fill="white">
<path d="M38.3543 59.3257C36.9529 59.3257 35.5906 59.0737 34.3074 58.5757C29.4324 56.687 18.4095 53.7739 13.7527 53.7739L13.4666 53.7759C10.5154 53.7759 6.94322 51.6968 4.36552 48.479C1.83332 45.3169 0.775219 41.7417 1.46362 38.6685C1.66142 37.7847 1.87962 36.9605 2.08662 36.1773C3.00702 32.7017 3.80192 29.6993 1.49242 26.0665C-1.77948 20.9199 0.257619 15.2739 8.30502 7.1865C14.3333 1.1323 17.929 1.041 23.3714 0.9033C24.9373 0.8637 26.7117 0.8188 28.6785 0.6118L29.6043 0.5132C32.1883 0.2378 34.4197 0 36.5379 0C40.5486 0 43.7469 0.9316 47.2313 3.1152C52.5848 6.4687 52.951 7.1704 55.3387 11.7353C56.4061 13.7773 57.6317 15.2968 58.7127 16.6376C60.6043 18.9838 62.0984 20.8363 62.1336 24.5482C62.1629 27.6361 60.3709 30.9154 58.4744 34.3871C56.4139 38.1596 54.284 42.059 54.0281 46.3773C53.7322 51.3725 46.4393 59.3257 38.3543 59.3257Z"/>
</mask>
<path d="M38.3543 59.3257C36.9529 59.3257 35.5906 59.0737 34.3074 58.5757C29.4324 56.687 18.4095 53.7739 13.7527 53.7739L13.4666 53.7759C10.5154 53.7759 6.94322 51.6968 4.36552 48.479C1.83332 45.3169 0.775219 41.7417 1.46362 38.6685C1.66142 37.7847 1.87962 36.9605 2.08662 36.1773C3.00702 32.7017 3.80192 29.6993 1.49242 26.0665C-1.77948 20.9199 0.257619 15.2739 8.30502 7.1865C14.3333 1.1323 17.929 1.041 23.3714 0.9033C24.9373 0.8637 26.7117 0.8188 28.6785 0.6118L29.6043 0.5132C32.1883 0.2378 34.4197 0 36.5379 0C40.5486 0 43.7469 0.9316 47.2313 3.1152C52.5848 6.4687 52.951 7.1704 55.3387 11.7353C56.4061 13.7773 57.6317 15.2968 58.7127 16.6376C60.6043 18.9838 62.0984 20.8363 62.1336 24.5482C62.1629 27.6361 60.3709 30.9154 58.4744 34.3871C56.4139 38.1596 54.284 42.059 54.0281 46.3773C53.7322 51.3725 46.4393 59.3257 38.3543 59.3257Z" fill="url(#paint0_radial_938_25701)" stroke="#27827F" stroke-width="4" mask="url(#path-1-inside-1_938_25701)"/>
</g>
</g>
<defs>
<radialGradient id="paint0_radial_938_25701" cx="0" cy="0" r="1" gradientUnits="userSpaceOnUse" gradientTransform="translate(19.506 22.9927) rotate(-172.444) scale(30.5217 30.5217)">
<stop stop-color="#9DCCEB"/>
<stop offset="0.1336" stop-color="#89B7D5"/>
<stop offset="0.3344" stop-color="#729FBC"/>
<stop offset="0.5421" stop-color="#618DAA"/>
<stop offset="0.7591" stop-color="#57829F"/>
<stop offset="1" stop-color="#547F9B"/>
</radialGradient>
</defs>
</svg>
