<svg width="72" height="23" viewBox="0 0 72 23" fill="none" xmlns="http://www.w3.org/2000/svg">
<g id="R-ICO-012741">
<g id="G-alpha-z">
<path d="M0.967514 11.5C0.967514 5.97715 5.44467 1.5 10.9675 1.5H59.9675C65.4904 1.5 69.9675 5.97715 69.9675 11.5C69.9675 17.0228 65.4904 21.5 59.9675 21.5H10.9675C5.44467 21.5 0.967514 17.0228 0.967514 11.5Z" fill="url(#paint0_linear_938_23336)"/>
<path d="M51.1758 2.99266C37.773 2.87443 24.3703 2.52283 10.9675 1.64001C10.9675 1.54664 10.9675 1.45328 10.9675 1.35991C24.3703 0.477089 37.773 0.125486 51.1758 0.00726104C54.1063 -0.00925815 57.0369 0.00386083 59.9675 0.0319518C64.3195 0.0186403 68.4727 2.76803 70.2101 6.68278C70.9027 8.1905 71.2448 9.85515 71.2139 11.5C71.2521 17.5127 65.6943 22.6382 59.9681 22.2659C59.9679 22.2659 59.9677 22.2658 59.9675 22.2658C53.2663 22.0221 46.5645 21.8466 39.8634 21.953C33.162 22.056 26.46 22.4645 19.7586 22.6648C16.8283 22.736 13.8979 22.7591 10.9675 22.7496C6.69683 22.7889 2.60438 20.0695 0.93532 16.2188C0.271816 14.7349 -0.0444758 13.1043 0.0050233 11.5C0.0328035 5.62831 5.57243 0.793543 10.9675 1.35991C10.9675 1.45328 10.9675 1.54664 10.9675 1.64001C5.70964 1.94724 1.64297 6.71829 1.92986 11.5C1.97609 12.8281 2.30857 14.1283 2.89688 15.2947C4.39497 18.3253 7.6531 20.2998 10.9675 20.2505C13.8979 20.241 16.8282 20.2641 19.7586 20.3353C26.46 20.5356 33.162 20.9428 39.8634 21.0457C46.5646 21.1521 53.2662 20.978 59.9675 20.7342C59.9677 20.7342 59.9679 20.7342 59.968 20.7342C64.8947 20.6201 68.942 16.1401 68.7212 11.5C68.6936 10.2129 68.3871 8.94712 67.8282 7.80473C66.3988 4.83773 63.201 2.89268 59.9675 2.96808C57.0369 2.99619 54.1063 3.0093 51.1758 2.99266Z" fill="#FF9914"/>
<text id="G-alpha-z_2" fill="white" xml:space="preserve" style="white-space: pre" font-family="Arial" font-size="12" font-weight="bold" letter-spacing="0em"><tspan x="8.11595" y="15.6602">G-alpha-z</tspan></text>
</g>
</g>
<defs>
<linearGradient id="paint0_linear_938_23336" x1="35.4675" y1="1.5" x2="35.4675" y2="21.5" gradientUnits="userSpaceOnUse">
<stop stop-color="#5C9200"/>
<stop offset="1" stop-color="#FF9914"/>
</linearGradient>
</defs>
</svg>
