<svg width="44" height="57" viewBox="0 0 44 57" fill="none" xmlns="http://www.w3.org/2000/svg">
<g id="R-ICO-012914">
<path id="Vector" d="M21.6827 53.1721C14.903 53.1471 2.39697 56.3219 2.39697 56.3219C16.8211 56.3751 16.9249 28.2319 16.9249 28.2319C16.9249 28.2319 17.0287 0.0848621 2.60457 0.0317621C2.60457 0.0317621 14.9014 3.27666 21.6459 3.30156C28.3903 3.26676 40.6823 0.00366211 40.6823 0.00366211C26.2583 0.0781621 26.4036 28.225 26.4036 28.225C26.4036 28.225 26.549 56.368 40.973 56.2935C40.973 56.2935 28.4623 53.1371 21.6827 53.1721Z" fill="url(#paint0_linear_938_22838)"/>
<g id="Group">
<path id="Vector_2" d="M29.6911 28.2043C29.804 50.0656 39.5357 47.171 40.9242 47.1639C42.3127 47.1567 43.2506 48.6418 43.2688 52.1707C43.2834 54.9894 42.783 56.2806 40.9713 56.29C26.5473 56.3645 26.4019 28.2214 26.4019 28.2214C26.4019 28.2214 26.2566 0.0745477 40.6806 4.77092e-05C42.4905 -0.00925229 43.2782 1.34105 43.2924 4.09015C43.3066 6.83925 42.1162 9.12235 40.7277 9.12955C39.3393 9.13675 29.5782 6.34305 29.6911 28.2043Z" fill="url(#paint1_linear_938_22838)"/>
<path id="Vector_3" d="M13.6371 28.2162C13.5565 50.0777 3.82046 47.1975 2.43196 47.1924C1.04346 47.1873 0.107764 48.6737 0.0947636 52.2025C0.0843636 55.0213 0.586663 56.3117 2.39826 56.3184C16.8224 56.3716 16.9262 28.2284 16.9262 28.2284C16.9262 28.2284 17.03 0.081423 2.60586 0.028223C0.795964 0.021523 0.0101636 1.37312 6.36297e-05 4.12222C-0.0100364 6.87132 1.18366 9.15272 2.57216 9.15782C3.96066 9.16292 13.7177 6.35482 13.6371 28.2162Z" fill="url(#paint2_linear_938_22838)"/>
</g>
</g>
<defs>
<linearGradient id="paint0_linear_938_22838" x1="21.8869" y1="3.21778" x2="21.7021" y2="53.1579" gradientUnits="userSpaceOnUse">
<stop stop-color="#D2A58A"/>
<stop offset="0.0308" stop-color="#CD9D81"/>
<stop offset="0.1696" stop-color="#BA7F5B"/>
<stop offset="0.2985" stop-color="#AC6840"/>
<stop offset="0.4124" stop-color="#A45B30"/>
<stop offset="0.4995" stop-color="#A1562A"/>
<stop offset="0.5867" stop-color="#A45B30"/>
<stop offset="0.7009" stop-color="#AC6840"/>
<stop offset="0.83" stop-color="#BA7F5B"/>
<stop offset="0.9692" stop-color="#CD9D81"/>
<stop offset="1" stop-color="#D2A58A"/>
</linearGradient>
<linearGradient id="paint1_linear_938_22838" x1="26.4019" y1="28.145" x2="43.2926" y2="28.145" gradientUnits="userSpaceOnUse">
<stop stop-color="#36728B"/>
<stop offset="1" stop-color="#7D401D"/>
</linearGradient>
<linearGradient id="paint2_linear_938_22838" x1="-3.63703e-05" y1="28.1733" x2="16.9262" y2="28.1733" gradientUnits="userSpaceOnUse">
<stop stop-color="#7D401D"/>
<stop offset="1" stop-color="#36728B"/>
</linearGradient>
</defs>
</svg>
