<svg width="104" height="23" viewBox="0 0 104 23" fill="none" xmlns="http://www.w3.org/2000/svg">
<g id="R-ICO-014467">
<g id="NCOR1/NCOR2">
<path d="M0.799805 11.5C0.799805 5.97715 5.27696 1.5 10.7998 1.5H92.7998C98.3227 1.5 102.8 5.97715 102.8 11.5C102.8 17.0228 98.3227 21.5 92.7998 21.5H10.7998C5.27696 21.5 0.799805 17.0228 0.799805 11.5Z" fill="#D83064"/>
<path d="M67.508 2.99266C48.6052 2.87443 29.7026 2.52283 10.7998 1.64001C10.7998 1.54664 10.7998 1.45328 10.7998 1.35991C29.7026 0.477089 48.6052 0.125486 67.508 0.00726104C75.9384 -0.0264338 84.3692 0.0631819 92.7998 0.151646C93.9573 0.161888 95.1134 0.34884 96.2127 0.707602C100.807 2.13688 104.094 6.76762 103.941 11.5C103.98 17.4489 98.5278 22.5681 92.8007 22.2659C92.8004 22.2659 92.8001 22.2658 92.7998 22.2658C83.3487 22.0221 73.8967 21.8466 64.4457 21.953C54.9943 22.056 45.5422 22.4645 36.0908 22.6648C27.6605 22.8101 19.2302 22.7551 10.7998 22.6318C9.66433 22.6173 8.53212 22.4285 7.45778 22.0712C2.96628 20.6391 -0.194523 16.0834 0.00927961 11.5C0.0362908 5.72834 5.40826 0.921721 10.7998 1.35991C10.7998 1.45328 10.7998 1.54664 10.7998 1.64001C5.53838 1.8191 1.30415 6.61818 1.59019 11.5C1.66676 15.4168 4.476 18.975 8.1109 20.0035C8.98276 20.2617 9.89086 20.3835 10.7998 20.3683C19.2301 20.245 27.6604 20.19 36.0908 20.3353C45.5422 20.5356 54.9943 20.9428 64.4457 21.0457C73.8968 21.1521 83.3485 20.978 92.7998 20.7342C92.8001 20.7342 92.8003 20.7342 92.8006 20.7342C97.7262 20.69 101.879 16.2037 101.659 11.5C101.633 7.73288 98.9506 4.25016 95.4194 3.21815C94.572 2.96114 93.6873 2.83731 92.7998 2.84828C84.3693 2.93679 75.9384 3.0266 67.508 2.99266Z" fill="#B50038"/>
<text id="NCOR1/NCOR2_2" fill="white" xml:space="preserve" style="white-space: pre" font-family="Arial" font-size="12" font-weight="bold" letter-spacing="0em"><tspan x="8.09473" y="15.6602">NCOR1/NCOR2</tspan></text>
</g>
</g>
</svg>
