<svg width="160" height="104" viewBox="0 0 160 104" fill="none" xmlns="http://www.w3.org/2000/svg">
<g id="R-ICO-014063">
<g id="C9_units">
<path id="_x3C_Path_x3E__31_" d="M93.7044 10.3238C93.7044 14.448 88.1455 19.0294 87.2539 26.6387C85.9091 38.1159 88.0949 45.2593 79.6339 45.2593C71.1731 45.2593 73.3588 38.1163 72.014 26.6392C71.1224 19.0297 65.5635 14.448 65.5635 10.3238C65.5635 5.73681 71.8631 2.01831 79.634 2.01831C87.4049 2.01831 93.7044 5.73681 93.7044 10.3238Z" fill="url(#paint0_radial_938_24413)"/>
<path id="_x3C_Path_x3E__30_" d="M110.687 12.3294C110.687 16.4536 105.128 21.035 104.236 28.6443C102.892 40.1215 105.077 47.2649 96.6164 47.2649C88.1555 47.2649 90.3413 40.1219 88.9965 28.6448C88.1049 21.0353 82.5459 16.4536 82.5459 12.3294C82.5459 7.74243 88.8455 4.02393 96.6164 4.02393C104.387 4.02393 110.687 7.74243 110.687 12.3294Z" fill="url(#paint1_radial_938_24413)"/>
<path id="_x3C_Path_x3E__29_" d="M121.697 16.9757C121.697 21.0999 116.138 25.6813 115.246 33.2906C113.901 44.7678 116.087 51.9112 107.626 51.9112C99.1653 51.9112 101.351 44.7682 100.006 33.2911C99.1146 25.6816 93.5557 21.0999 93.5557 16.9757C93.5557 12.3887 99.8553 8.67017 107.626 8.67017C115.397 8.67017 121.697 12.3887 121.697 16.9757Z" fill="url(#paint2_radial_938_24413)"/>
<path id="_x3C_Path_x3E__28_" d="M131.998 25.254C131.998 29.3782 126.44 33.9596 125.548 41.5689C124.203 53.0461 126.389 60.1895 117.928 60.1895C109.467 60.1895 111.653 53.0465 110.308 41.5694C109.416 33.9599 103.857 29.3782 103.857 25.254C103.857 20.667 110.157 16.9485 117.928 16.9485C125.699 16.9485 131.998 20.667 131.998 25.254Z" fill="url(#paint3_radial_938_24413)"/>
<path id="_x3C_Path_x3E__27_" d="M137.634 35.1207C137.634 39.2449 132.075 43.8263 131.184 51.4356C129.839 62.9128 132.025 70.0562 123.564 70.0562C115.103 70.0562 117.289 62.9132 115.944 51.4361C115.052 43.8266 109.493 39.2449 109.493 35.1207C109.493 30.5337 115.793 26.8152 123.564 26.8152C131.335 26.8152 137.634 30.5337 137.634 35.1207Z" fill="url(#paint4_radial_938_24413)"/>
<path id="_x3C_Path_x3E__26_" d="M133.801 46.9959C133.801 51.3372 127.95 56.1598 127.011 64.1696C125.595 76.251 127.896 84.0862 118.99 84.0862C110.084 84.0862 112.385 76.2513 110.969 64.1701C110.03 56.1601 104.179 51.3372 104.179 46.9959C104.179 42.1674 110.81 38.2532 118.99 38.2532C127.17 38.2532 133.801 42.1674 133.801 46.9959Z" fill="url(#paint5_radial_938_24413)"/>
<path id="_x3C_Path_x3E__25_" d="M76.7631 12.3294C76.7631 16.4536 71.2042 21.035 70.3126 28.6443C68.9678 40.1215 71.1536 47.2649 62.6926 47.2649C54.2318 47.2649 56.4175 40.1219 55.0727 28.6448C54.1811 21.0353 48.6221 16.4536 48.6221 12.3294C48.6221 7.74243 54.9217 4.02393 62.6926 4.02393C70.4635 4.02393 76.7631 7.74243 76.7631 12.3294Z" fill="url(#paint6_radial_938_24413)"/>
<path id="_x3C_Path_x3E__24_" d="M65.7533 16.9757C65.7533 21.0999 60.1944 25.6813 59.3028 33.2906C57.958 44.7678 60.1438 51.9112 51.6828 51.9112C43.222 51.9112 45.4077 44.7682 44.0629 33.2911C43.1713 25.6816 37.6123 21.0999 37.6123 16.9757C37.6123 12.3887 43.9119 8.67017 51.6828 8.67017C59.4537 8.67017 65.7533 12.3887 65.7533 16.9757Z" fill="url(#paint7_radial_938_24413)"/>
<path id="_x3C_Path_x3E__23_" d="M55.393 25.254C55.393 29.3782 49.8341 33.9596 48.9425 41.5689C47.5977 53.0461 49.7835 60.1895 41.3225 60.1895C32.8617 60.1895 35.0474 53.0465 33.7026 41.5694C32.811 33.9599 27.252 29.3782 27.252 25.254C27.252 20.667 33.5516 16.9485 41.3225 16.9485C49.0934 16.9485 55.393 20.667 55.393 25.254Z" fill="url(#paint8_radial_938_24413)"/>
<path id="_x3C_Path_x3E__22_" d="M49.6791 35.1207C49.6791 39.2449 44.1202 43.8263 43.2286 51.4356C41.8838 62.9128 44.0696 70.0562 35.6086 70.0562C27.1478 70.0562 29.3335 62.9132 27.9887 51.4361C27.0971 43.8266 21.5381 39.2449 21.5381 35.1207C21.5381 30.5337 27.8377 26.8152 35.6086 26.8152C43.3795 26.8152 49.6791 30.5337 49.6791 35.1207Z" fill="url(#paint9_radial_938_24413)"/>
<path id="_x3C_Path_x3E__21_" d="M55.1301 46.9959C55.1301 51.3372 49.2786 56.1598 48.3401 64.1696C46.9245 76.251 49.2253 84.0862 40.319 84.0862C31.4128 84.0862 33.7136 76.2513 32.2979 64.1701C31.3593 56.1601 25.5078 51.3372 25.5078 46.9959C25.5078 42.1674 32.139 38.2532 40.319 38.2532C48.499 38.2532 55.1301 42.1674 55.1301 46.9959Z" fill="url(#paint10_radial_938_24413)"/>
<path id="_x3C_Path_x3E__20_" d="M125.676 56.1745C125.676 60.5158 119.824 65.3384 118.886 73.3482C117.47 85.4295 119.771 93.2647 110.865 93.2647C101.959 93.2647 104.259 85.4299 102.844 73.3487C101.905 65.3387 96.0537 60.5158 96.0537 56.1746C96.0537 51.3462 102.685 47.4319 110.865 47.4319C119.045 47.4319 125.676 51.346 125.676 56.1745Z" fill="url(#paint11_radial_938_24413)"/>
<path id="_x3C_Path_x3E__19_" d="M111.184 63.4772C111.184 67.8185 105.332 72.6411 104.394 80.6509C102.978 92.7322 105.279 100.567 96.3726 100.567C87.4664 100.567 89.7672 92.7326 88.3516 80.6514C87.413 72.6414 81.5615 67.8185 81.5615 63.4773C81.5615 58.6489 88.1927 54.7346 96.3726 54.7346C104.553 54.7346 111.184 58.6487 111.184 63.4772Z" fill="url(#paint12_radial_938_24413)"/>
<path id="_x3C_Path_x3E__18_" d="M63.214 56.1745C63.214 60.5158 57.3625 65.3384 56.424 73.3482C55.0084 85.4295 57.3092 93.2647 48.4029 93.2647C39.4967 93.2647 41.7975 85.4299 40.3819 73.3487C39.4433 65.3387 33.5918 60.5158 33.5918 56.1746C33.5918 51.3462 40.223 47.4319 48.4029 47.4319C56.5828 47.4319 63.214 51.346 63.214 56.1745Z" fill="url(#paint13_radial_938_24413)"/>
<path id="_x3C_Path_x3E__17_" d="M77.7062 63.4772C77.7062 67.8185 71.8547 72.6411 70.9162 80.6509C69.5006 92.7322 71.8014 100.567 62.8951 100.567C53.9889 100.567 56.2897 92.7326 54.8741 80.6514C53.9355 72.6414 48.084 67.8185 48.084 63.4773C48.084 58.6489 54.7152 54.7346 62.8951 54.7346C71.075 54.7346 77.7062 58.6487 77.7062 63.4772Z" fill="url(#paint14_radial_938_24413)"/>
<path id="_x3C_Path_x3E__16_" d="M94.4445 66.2751C94.4445 70.6164 88.593 75.439 87.6545 83.4488C86.2389 95.5301 88.5397 103.365 79.6334 103.365C70.7272 103.365 73.028 95.5305 71.6124 83.4493C70.6738 75.4393 64.8223 70.6164 64.8223 66.2752C64.8223 61.4468 71.4535 57.5325 79.6334 57.5325C87.8133 57.5325 94.4445 61.4466 94.4445 66.2751Z" fill="url(#paint15_radial_938_24413)"/>
</g>
<path id="SHADE BOTTOM" d="M87.5781 83.4135C87.7072 82.3116 87.9373 81.2768 88.2243 80.2885C88.2393 80.3989 88.2617 80.5043 88.2748 80.616C89.6904 92.6972 87.3896 100.532 96.2958 100.532C103.535 100.532 103.37 95.356 103.815 86.9311C104.437 90.9389 105.976 93.2293 110.788 93.2293C116.665 93.2293 117.662 89.816 118.067 84.0238C118.338 84.0409 118.619 84.0507 118.914 84.0507C126.393 84.0507 125.97 78.5223 126.481 69.5959L126.48 69.5924C130.972 68.0462 130.156 62.35 130.864 53.8572C130.471 54.5365 130.687 54.1542 130.558 54.2845C130.197 54.6478 128.146 57.2423 124.907 58.9833C124.228 60.5738 122.576 63.3066 122.389 63.5078C121.701 64.248 117.517 69.4273 111.355 69.7334C111.167 69.7427 110.979 69.7521 110.788 69.7521C110.064 69.7521 109.367 69.6806 108.697 69.5578C108.332 70.1889 108.086 70.6051 107.887 70.8213C107.444 71.3023 105.681 73.4474 102.951 75.0881C101.128 76.1836 98.8753 77.0547 96.2957 77.0547C93.9896 77.0547 91.9441 76.3588 90.2341 75.4286L89.7234 75.1379C89.1339 75.716 88.3841 76.3835 87.4931 77.0334C85.4925 78.4926 82.7808 79.8526 79.5569 79.8526C76.333 79.8526 73.6213 78.4925 71.6207 77.0333C70.7296 76.3835 69.9798 75.7159 69.3904 75.1379L68.8797 75.4287C67.1696 76.3589 65.1242 77.0547 62.8181 77.0547C60.2385 77.0547 57.9858 76.1837 56.1631 75.0883C53.7667 73.648 52.115 71.819 51.4477 71.0683C51.0131 70.5793 50.7815 70.1877 50.4168 69.5577C49.7466 69.6805 49.0499 69.752 48.326 69.752C48.1484 69.752 47.9746 69.7427 47.8002 69.7346C41.3316 69.4366 37.0316 63.7603 36.6526 63.4346C36.5709 63.3644 34.8717 60.5515 34.1945 58.9553C31.0578 57.2535 29.0469 54.7602 28.6243 54.3121C28.4588 54.1366 28.5285 54.2648 28.1328 53.582C28.8905 62.3163 27.9793 68.1483 32.6785 69.6396C33.1852 78.5405 32.7745 84.0505 40.242 84.0505C40.5214 84.0505 40.7898 84.0427 41.0476 84.0274C41.4529 89.8174 42.4503 93.2291 48.3261 93.2291C53.1378 93.2291 54.6766 90.9388 55.2993 86.9309C55.2992 86.9281 55.299 86.9252 55.2988 86.9224L55.2993 86.9309C55.744 95.3559 55.5793 100.532 62.8181 100.532C71.7244 100.532 69.4236 92.6967 70.8392 80.6154C70.8523 80.5039 70.8747 80.3987 70.8896 80.2884C71.1766 81.2767 71.4068 82.3118 71.5359 83.4137C72.9515 95.4949 70.6507 103.33 79.5569 103.33C88.4633 103.33 86.1625 95.4948 87.5781 83.4135Z" fill="url(#paint16_radial_938_24413)"/>
<path id="SHADE TOP" d="M79.6338 2.01831C83.8974 2.01832 87.7166 3.13989 90.2969 4.90796C92.1972 4.34304 94.3443 4.02417 96.6172 4.02417C102.203 4.02424 107.029 5.94579 109.301 8.73022C116.282 9.21889 121.697 12.7229 121.697 16.9753C121.697 20.0123 118.684 23.2978 116.738 27.8572C112.417 29.2749 109.493 31.9959 109.493 35.1208C109.493 36.533 110.148 37.9972 111.041 39.6199C106.916 41.1719 104.18 43.8943 104.18 46.9958C104.18 47.4322 104.239 47.8732 104.347 48.322C103.493 48.5694 102.686 48.8652 101.935 49.2009C101.482 48.3547 101.196 47.3215 101.004 46.115C100.007 46.8688 98.6071 47.2653 96.6172 47.2654C88.1564 47.2654 90.3418 40.1221 88.9971 28.6453C88.7952 26.922 88.3519 25.3544 87.79 23.9119C87.5514 24.7765 87.3658 25.6836 87.2539 26.6384C85.9091 38.1156 88.0946 45.2594 79.6338 45.2595C71.173 45.2595 73.3584 38.1164 72.0137 26.6394C71.9044 25.7068 71.7238 24.8198 71.4932 23.9734C70.9429 25.3986 70.5115 26.946 70.3125 28.6443C68.9677 40.1213 71.153 47.2652 62.6924 47.2654C60.7014 47.2654 59.3003 46.8685 58.3037 46.114C58.11 47.3281 57.8213 48.3663 57.3643 49.2156C56.6148 48.8789 55.8098 48.5823 54.958 48.3337C55.0671 47.8807 55.1299 47.4361 55.1299 46.9958C55.1299 43.8656 52.3424 41.1213 48.1533 39.5769C49.0344 37.9711 49.6787 36.5208 49.6787 35.1208C49.6787 32.0345 46.8259 29.3437 42.5928 27.9119C40.6484 23.3242 37.6123 20.0243 37.6123 16.9753C37.6126 12.7233 43.0262 9.21931 50.0068 8.73022C52.2785 5.94538 57.1057 4.02417 62.6924 4.02417C64.9535 4.0242 67.0894 4.34069 68.9824 4.90015C71.5626 3.13672 75.3766 2.01831 79.6338 2.01831Z" fill="url(#paint17_radial_938_24413)"/>
<path id="PURPLE THROUGH" d="M135.862 15.0417C104.781 -2.90253 54.3901 -2.90253 23.31 15.0415C-7.77006 32.9857 -7.77006 62.079 23.3103 80.0232C28.8618 83.2282 35.0366 85.8501 41.5999 87.9102C45.587 89.1617 49.7161 90.2046 53.9461 91.0336C54.5001 91.1422 55.0572 91.2431 55.6143 91.3443C60.3277 92.2015 65.1492 92.7982 70.0174 93.1368C70.7774 93.1897 71.5367 93.245 72.2984 93.2852C77.1778 93.5427 82.0899 93.5422 86.9688 93.2814C87.7305 93.2406 88.4891 93.1837 89.2488 93.1304C94.1182 92.7884 98.9402 92.1876 103.654 91.3266C104.207 91.2256 104.76 91.1262 105.31 91.0181C109.547 90.1848 113.681 89.1353 117.673 87.878C124.198 85.8226 130.339 83.2119 135.862 80.0233C166.942 62.0793 166.942 32.986 135.862 15.0417ZM27.9912 28.1441C27.5437 27.1389 27.2522 26.1834 27.2522 25.2541C27.2522 21.4218 31.6553 18.2047 37.6338 17.2468C37.6289 17.1567 37.6121 17.0654 37.6121 16.9757C37.6121 12.7205 43.0362 9.21807 50.0242 8.73287C52.2969 5.94957 57.1072 4.02397 62.6919 4.02397C64.9553 4.02397 67.0864 4.34707 68.981 4.90757C71.5613 3.14107 75.3721 2.01827 79.6336 2.01827C83.9019 2.01827 87.7183 3.14447 90.2989 4.91587C92.2003 4.34997 94.3419 4.02397 96.6168 4.02397C102.202 4.02397 107.012 5.94947 109.285 8.73287C116.273 9.21807 121.697 12.7205 121.697 16.9757C121.697 17.0683 121.68 17.1625 121.674 17.2555C127.623 18.2248 131.998 21.4341 131.998 25.254C131.998 26.1908 131.702 27.1541 131.248 28.1682C134.048 29.2488 136.153 30.9015 137.092 32.8448C137.172 33.0119 137.244 33.181 137.307 33.3522C137.314 33.3705 137.322 33.3885 137.329 33.4069C137.357 33.4875 137.38 33.5691 137.405 33.6504C137.445 33.7805 137.481 33.9111 137.51 34.0433C137.532 34.1444 137.551 34.2462 137.567 34.3484C137.586 34.4692 137.599 34.5908 137.609 34.7131C137.617 34.8128 137.625 34.9126 137.628 35.0132C137.631 35.1995 137.627 35.3853 137.61 35.5699C137.608 35.5877 137.609 35.6052 137.607 35.623C137.579 35.8944 137.524 36.1691 137.455 36.4461C137.446 36.4828 137.438 36.5195 137.428 36.5563C137.355 36.8269 137.267 37.1011 137.162 37.3785C137.16 37.3827 137.158 37.3867 137.157 37.3909C137.155 37.3971 137.152 37.4034 137.15 37.4096C136.936 37.9672 136.669 38.5181 136.39 39.064C136.367 39.1081 136.343 39.1526 136.32 39.1969C136.063 39.6822 135.783 40.1797 135.486 40.6953C135.239 41.1241 134.982 41.5649 134.722 42.0182C134.617 42.2003 134.508 42.3811 134.405 42.5644C134.184 42.9602 133.783 43.6621 133.524 44.1968C133.421 44.4098 133.279 44.6855 133.279 44.6855C133.28 44.6879 133.281 44.6903 133.282 44.6926C133.279 44.6987 133.276 44.7044 133.273 44.7105C133.384 44.9518 133.473 45.1982 133.55 45.4469C133.568 45.5042 133.585 45.5618 133.601 45.6195C133.671 45.8707 133.729 46.1243 133.761 46.3822C133.763 46.397 133.765 46.4118 133.767 46.4267C133.78 46.5374 133.782 46.6497 133.787 46.7615C133.795 46.9278 133.791 47.0973 133.78 47.2687C133.777 47.3162 133.772 47.3641 133.769 47.4117C133.764 47.4773 133.762 47.5426 133.754 47.6085C133.729 47.8151 133.69 48.0239 133.643 48.2336C133.635 48.27 133.627 48.3064 133.619 48.3426C133.611 48.3779 133.606 48.4126 133.596 48.4479C133.541 48.6624 133.472 48.8799 133.396 49.0984C133.365 49.1885 133.341 49.2772 133.307 49.3681C133.261 49.4873 133.207 49.6092 133.157 49.7297C133.046 49.9969 132.924 50.2677 132.791 50.5422L132.79 50.5445C132.663 50.8063 132.505 51.0831 132.363 51.3522C131.919 52.1385 131.431 52.8658 130.979 53.4646C129.734 55.1171 128.793 57.1271 127.433 58.8856C120.756 67.5196 109.642 72.1558 99.3094 74.5763C87.5477 77.3316 75.074 77.5294 63.2113 75.2825C52.9606 73.341 42.2577 69.4521 34.6168 62.08C32.4776 60.016 30.6246 57.7225 29.1065 55.1935C28.8167 54.7107 28.5176 54.2354 28.2205 53.7594C28.2166 53.7111 28.2137 53.6656 28.2095 53.6171C27.9846 53.2292 27.7688 52.8551 27.5569 52.4841C27.492 52.3706 27.429 52.2584 27.366 52.1463C26.9207 51.356 26.5252 50.6016 26.2119 49.8727C26.1731 49.7822 26.136 49.6922 26.0998 49.6025C25.9543 49.2412 25.8234 48.8842 25.7285 48.534L25.7278 48.5314C25.6414 48.2118 25.5877 47.8974 25.5518 47.585C25.5474 47.5468 25.5469 47.509 25.5433 47.4708C25.5189 47.2228 25.5123 46.9818 25.5221 46.7435C25.5238 46.7111 25.5253 46.6787 25.5277 46.6464C25.5292 46.6183 25.5301 46.5901 25.5326 46.5621C25.5534 46.3319 25.5863 46.1038 25.6381 45.879C25.6593 45.7854 25.6874 45.693 25.7148 45.6006C25.7241 45.5676 25.7321 45.5343 25.7421 45.5014C25.7707 45.4075 25.8019 45.3143 25.8351 45.2214C25.8788 45.0996 25.9213 44.9774 25.9726 44.8573C25.9694 44.8506 25.966 44.8443 25.9628 44.8376C25.9635 44.8355 25.9638 44.8337 25.9648 44.8316L25.6474 44.1964C25.4343 43.7366 24.9741 42.9243 24.5231 42.1428C24.3173 41.7826 24.1142 41.4317 23.9147 41.0872C23.8195 40.9225 23.7194 40.7488 23.6266 40.5873C23.619 40.5741 23.6117 40.5612 23.6041 40.548C23.4669 40.3091 23.3338 40.0736 23.2044 39.8416C22.9036 39.3019 22.6275 38.7796 22.3895 38.2709C22.3802 38.2508 22.3717 38.2311 22.3624 38.2111C22.2621 37.9942 22.1705 37.7801 22.0858 37.568C22.0677 37.5233 22.0499 37.4786 22.0328 37.4341C21.9437 37.2025 21.8624 36.973 21.7955 36.7463C21.7796 36.6923 21.7669 36.6388 21.7525 36.585C21.7183 36.4587 21.6854 36.3327 21.659 36.2077C21.6185 36.0149 21.5867 35.8234 21.5667 35.6331C21.563 35.5992 21.564 35.5657 21.5611 35.5318C21.5462 35.3613 21.5418 35.1901 21.5447 35.0184C21.5469 34.9124 21.5554 34.8073 21.5642 34.7022C21.5737 34.5898 21.5857 34.478 21.6025 34.3669C21.6035 34.3601 21.6047 34.3533 21.6059 34.3465C21.6225 34.2412 21.6413 34.1363 21.6647 34.0322C21.6916 33.9117 21.7248 33.7926 21.7604 33.6737C21.7873 33.5839 21.8134 33.494 21.8444 33.405C21.8537 33.3788 21.8649 33.3531 21.8747 33.3269C21.9348 33.1674 22.0012 33.0093 22.0764 32.8532C23.0205 30.8919 25.154 29.2257 27.9912 28.1441Z" fill="url(#paint18_radial_938_24413)"/>
<g id="UNITS">
<path id="C5b" d="M33.859 21.7492C39.8648 21.7492 44.7336 16.8805 44.7336 10.8746C44.7336 4.86872 39.8648 0 33.859 0C27.8531 0 22.9844 4.86872 22.9844 10.8746C22.9844 16.8805 27.8531 21.7492 33.859 21.7492Z" fill="url(#paint19_radial_938_24413)"/>
<path id="C6" d="M24.859 32.7492C30.8649 32.7492 35.7336 27.8805 35.7336 21.8746C35.7336 15.8687 30.8649 11 24.859 11C18.8531 11 13.9844 15.8687 13.9844 21.8746C13.9844 27.8805 18.8531 32.7492 24.859 32.7492Z" fill="url(#paint20_radial_938_24413)"/>
<path id="C7" d="M25.859 45.7492C31.8649 45.7492 36.7336 40.8805 36.7336 34.8746C36.7336 28.8687 31.8649 24 25.859 24C19.8531 24 14.9844 28.8687 14.9844 34.8746C14.9844 40.8805 19.8531 45.7492 25.859 45.7492Z" fill="url(#paint21_radial_938_24413)"/>
<path id="C8" d="M33.859 54.7492C39.8648 54.7492 44.7336 49.8805 44.7336 43.8746C44.7336 37.8687 39.8648 33 33.859 33C27.8531 33 22.9844 37.8687 22.9844 43.8746C22.9844 49.8805 27.8531 54.7492 33.859 54.7492Z" fill="url(#paint22_radial_938_24413)"/>
</g>
</g>
<defs>
<radialGradient id="paint0_radial_938_24413" cx="0" cy="0" r="1" gradientUnits="userSpaceOnUse" gradientTransform="translate(79.5417 7.24851) scale(38.7347 38.7347)">
<stop stop-color="#54C5D4"/>
<stop offset="0.384615" stop-color="#27565D"/>
<stop offset="1" stop-color="#214D53"/>
</radialGradient>
<radialGradient id="paint1_radial_938_24413" cx="0" cy="0" r="1" gradientUnits="userSpaceOnUse" gradientTransform="translate(96.5241 9.25413) scale(38.7348 38.7347)">
<stop stop-color="#54C5D4"/>
<stop offset="0.384615" stop-color="#27565D"/>
<stop offset="1" stop-color="#214D53"/>
</radialGradient>
<radialGradient id="paint2_radial_938_24413" cx="0" cy="0" r="1" gradientUnits="userSpaceOnUse" gradientTransform="translate(107.534 13.9004) scale(38.7347 38.7347)">
<stop stop-color="#54C5D4"/>
<stop offset="0.384615" stop-color="#27565D"/>
<stop offset="1" stop-color="#214D53"/>
</radialGradient>
<radialGradient id="paint3_radial_938_24413" cx="0" cy="0" r="1" gradientUnits="userSpaceOnUse" gradientTransform="translate(117.836 22.1787) scale(38.7348 38.7347)">
<stop stop-color="#54C5D4"/>
<stop offset="0.384615" stop-color="#27565D"/>
<stop offset="1" stop-color="#214D53"/>
</radialGradient>
<radialGradient id="paint4_radial_938_24413" cx="0" cy="0" r="1" gradientUnits="userSpaceOnUse" gradientTransform="translate(123.471 32.0454) scale(38.7348 38.7347)">
<stop stop-color="#54C5D4"/>
<stop offset="0.384615" stop-color="#27565D"/>
<stop offset="1" stop-color="#214D53"/>
</radialGradient>
<radialGradient id="paint5_radial_938_24413" cx="0" cy="0" r="1" gradientUnits="userSpaceOnUse" gradientTransform="translate(118.893 43.7969) scale(40.7738 41.0566)">
<stop stop-color="#54C5D4"/>
<stop offset="0.384615" stop-color="#27565D"/>
<stop offset="1" stop-color="#214D53"/>
</radialGradient>
<radialGradient id="paint6_radial_938_24413" cx="0" cy="0" r="1" gradientUnits="userSpaceOnUse" gradientTransform="translate(62.6003 9.25413) scale(38.7348 38.7347)">
<stop stop-color="#54C5D4"/>
<stop offset="0.384615" stop-color="#27565D"/>
<stop offset="1" stop-color="#214D53"/>
</radialGradient>
<radialGradient id="paint7_radial_938_24413" cx="0" cy="0" r="1" gradientUnits="userSpaceOnUse" gradientTransform="translate(51.5906 13.9004) scale(38.7348 38.7347)">
<stop stop-color="#54C5D4"/>
<stop offset="0.384615" stop-color="#27565D"/>
<stop offset="1" stop-color="#214D53"/>
</radialGradient>
<radialGradient id="paint8_radial_938_24413" cx="0" cy="0" r="1" gradientUnits="userSpaceOnUse" gradientTransform="translate(41.2302 22.1787) scale(38.7348 38.7347)">
<stop stop-color="#54C5D4"/>
<stop offset="0.384615" stop-color="#27565D"/>
<stop offset="1" stop-color="#214D53"/>
</radialGradient>
<radialGradient id="paint9_radial_938_24413" cx="0" cy="0" r="1" gradientUnits="userSpaceOnUse" gradientTransform="translate(35.5163 32.0454) scale(38.7348 38.7347)">
<stop stop-color="#54C5D4"/>
<stop offset="0.384615" stop-color="#27565D"/>
<stop offset="1" stop-color="#214D53"/>
</radialGradient>
<radialGradient id="paint10_radial_938_24413" cx="0" cy="0" r="1" gradientUnits="userSpaceOnUse" gradientTransform="translate(40.2219 43.7969) scale(40.7738 41.0566)">
<stop stop-color="#54C5D4"/>
<stop offset="0.384615" stop-color="#27565D"/>
<stop offset="1" stop-color="#214D53"/>
</radialGradient>
<radialGradient id="paint11_radial_938_24413" cx="0" cy="0" r="1" gradientUnits="userSpaceOnUse" gradientTransform="translate(110.768 52.9756) scale(40.7736 41.0564)">
<stop stop-color="#54C5D4"/>
<stop offset="0.384615" stop-color="#27565D"/>
<stop offset="1" stop-color="#214D53"/>
</radialGradient>
<radialGradient id="paint12_radial_938_24413" cx="0" cy="0" r="1" gradientUnits="userSpaceOnUse" gradientTransform="translate(96.2755 60.2783) scale(40.7736 41.0564)">
<stop stop-color="#54C5D4"/>
<stop offset="0.384615" stop-color="#27565D"/>
<stop offset="1" stop-color="#214D53"/>
</radialGradient>
<radialGradient id="paint13_radial_938_24413" cx="0" cy="0" r="1" gradientUnits="userSpaceOnUse" gradientTransform="translate(48.3058 52.9756) scale(40.7736 41.0564)">
<stop stop-color="#54C5D4"/>
<stop offset="0.384615" stop-color="#27565D"/>
<stop offset="1" stop-color="#214D53"/>
</radialGradient>
<radialGradient id="paint14_radial_938_24413" cx="0" cy="0" r="1" gradientUnits="userSpaceOnUse" gradientTransform="translate(62.798 60.2783) scale(40.7736 41.0564)">
<stop stop-color="#54C5D4"/>
<stop offset="0.384615" stop-color="#27565D"/>
<stop offset="1" stop-color="#214D53"/>
</radialGradient>
<radialGradient id="paint15_radial_938_24413" cx="0" cy="0" r="1" gradientUnits="userSpaceOnUse" gradientTransform="translate(79.5363 63.0762) scale(40.7736 41.0564)">
<stop stop-color="#54C5D4"/>
<stop offset="0.384615" stop-color="#27565D"/>
<stop offset="1" stop-color="#214D53"/>
</radialGradient>
<radialGradient id="paint16_radial_938_24413" cx="0" cy="0" r="1" gradientUnits="userSpaceOnUse" gradientTransform="translate(79.6343 56.8457) rotate(90) scale(53.5 90.2351)">
<stop offset="0.494041" stop-color="#090744" stop-opacity="0"/>
<stop offset="1" stop-color="#090744"/>
</radialGradient>
<radialGradient id="paint17_radial_938_24413" cx="0" cy="0" r="1" gradientUnits="userSpaceOnUse" gradientTransform="translate(79.6548 17.8365) rotate(90) scale(49.5001 209.534)">
<stop offset="0.295674" stop-color="#090744" stop-opacity="0"/>
<stop offset="1" stop-color="#090744"/>
</radialGradient>
<radialGradient id="paint18_radial_938_24413" cx="0" cy="0" r="1" gradientUnits="userSpaceOnUse" gradientTransform="translate(79.5859 46.0648) scale(78.0555 47.3407)">
<stop offset="0.6678" stop-color="#584F93" stop-opacity="0"/>
<stop offset="0.6958" stop-color="#5A4F93"/>
<stop offset="0.9864" stop-color="#584F93" stop-opacity="0"/>
</radialGradient>
<radialGradient id="paint19_radial_938_24413" cx="0" cy="0" r="1" gradientUnits="userSpaceOnUse" gradientTransform="translate(33.859 10.8746) scale(10.8746)">
<stop stop-color="#54A0D3"/>
<stop offset="1" stop-color="#1F3F53"/>
</radialGradient>
<radialGradient id="paint20_radial_938_24413" cx="0" cy="0" r="1" gradientUnits="userSpaceOnUse" gradientTransform="translate(24.859 21.8746) scale(10.8746)">
<stop offset="0.001" stop-color="#9B5BA5"/>
<stop offset="0.3165" stop-color="#9759A0"/>
<stop offset="0.5063" stop-color="#8F5296"/>
<stop offset="0.6627" stop-color="#814888"/>
<stop offset="0.8011" stop-color="#6F3B76"/>
<stop offset="0.9263" stop-color="#582B61"/>
<stop offset="1" stop-color="#472053"/>
</radialGradient>
<radialGradient id="paint21_radial_938_24413" cx="0" cy="0" r="1" gradientUnits="userSpaceOnUse" gradientTransform="translate(25.859 34.8746) scale(10.8746)">
<stop offset="0.001" stop-color="#D37853"/>
<stop offset="0.2744" stop-color="#D07752"/>
<stop offset="0.4388" stop-color="#C7724F"/>
<stop offset="0.5744" stop-color="#B86A4A"/>
<stop offset="0.6944" stop-color="#A45F43"/>
<stop offset="0.804" stop-color="#8C5139"/>
<stop offset="0.9046" stop-color="#70412E"/>
<stop offset="0.9991" stop-color="#542F20"/>
<stop offset="1" stop-color="#532F20"/>
</radialGradient>
<radialGradient id="paint22_radial_938_24413" cx="0" cy="0" r="1" gradientUnits="userSpaceOnUse" gradientTransform="translate(33.859 43.8746) scale(10.8746)">
<stop stop-color="#68C077"/>
<stop offset="0.3026" stop-color="#66BA74"/>
<stop offset="0.4845" stop-color="#5FAF6C"/>
<stop offset="0.6345" stop-color="#559E61"/>
<stop offset="0.7672" stop-color="#478953"/>
<stop offset="0.8873" stop-color="#357042"/>
<stop offset="0.9988" stop-color="#215430"/>
<stop offset="1" stop-color="#205430"/>
</radialGradient>
</defs>
</svg>
