<svg width="23" height="79" viewBox="0 0 23 79" fill="none" xmlns="http://www.w3.org/2000/svg">
<g id="R-ICO-013345">
<path id="Vector" d="M22.9336 5.7185C22.9336 1.341 17.7997 0 11.4668 0C5.1339 0 0 1.341 0 5.7185C0 8.3167 1.809 11.3996 4.6036 13.4767C7.3598 15.5252 9.0401 18.997 9.0401 22.7415V75.9065C9.0401 77.3617 9.9744 78.6721 11.2492 78.7983C12.6872 78.9406 13.8932 77.6555 13.8932 76.0496V22.7417C13.8932 18.9972 15.5735 15.5254 18.3298 13.4769C21.1246 11.3997 22.9336 8.3168 22.9336 5.7185Z" fill="url(#paint0_linear_938_24370)"/>
<path id="Vector_2" d="M22.9336 5.7185C22.9336 1.341 17.7997 0 11.4668 0C5.1339 0 0 1.341 0 5.7185C0 8.3167 1.809 11.3996 4.6036 13.4767C7.3598 15.5252 9.0401 18.997 9.0401 22.7415V75.9065C9.0401 77.3617 9.9744 78.6721 11.2492 78.7983C12.6872 78.9406 13.8932 77.6555 13.8932 76.0496V22.7417C13.8932 18.9972 15.5735 15.5254 18.3298 13.4769C21.1246 11.3997 22.9336 8.3168 22.9336 5.7185Z" fill="url(#paint1_linear_938_24370)"/>
</g>
<defs>
<linearGradient id="paint0_linear_938_24370" x1="0" y1="39.4045" x2="22.9336" y2="39.4045" gradientUnits="userSpaceOnUse">
<stop offset="0.15" stop-color="#226664"/>
<stop offset="0.5" stop-color="#5EB6BF"/>
<stop offset="0.85" stop-color="#226664"/>
</linearGradient>
<linearGradient id="paint1_linear_938_24370" x1="11.4668" y1="0" x2="11.4668" y2="78.809" gradientUnits="userSpaceOnUse">
<stop offset="0.0005" stop-color="#226664"/>
<stop offset="0.1418" stop-color="#226664" stop-opacity="0.5"/>
<stop offset="1" stop-color="#226664" stop-opacity="0"/>
</linearGradient>
</defs>
</svg>
