<svg width="47" height="23" viewBox="0 0 47 23" fill="none" xmlns="http://www.w3.org/2000/svg">
<g id="R-ICO-014330">
<g id="IDUA">
<path d="M1.15137 11.4338C1.15137 5.91099 5.62852 1.43384 11.1514 1.43384H35.1514C40.6742 1.43384 45.1514 5.91099 45.1514 11.4338C45.1514 16.9567 40.6742 21.4338 35.1514 21.4338H11.1514C5.62852 21.4338 1.15137 16.9567 1.15137 11.4338Z" fill="url(#paint0_linear_938_23975)"/>
<path d="M38.2351 3.50218C37.2619 3.10606 36.215 2.89016 35.1514 2.86577C27.1514 2.70464 19.1514 2.33851 11.1514 1.57384C11.1514 1.48048 11.1514 1.38711 11.1514 1.29375C19.1514 0.529081 27.1514 0.162953 35.1514 0.00182223C36.5618 -0.0242189 37.987 0.218048 39.3177 0.719986C43.6699 2.32252 46.6644 6.86846 46.5074 11.4338C46.4942 12.1346 46.4169 12.8341 46.2758 13.5198C45.307 18.7383 40.1709 22.5843 35.1518 22.1997C35.1516 22.1997 35.1515 22.1997 35.1514 22.1997C30.5334 21.956 25.915 21.7805 21.2972 21.8868C17.9153 21.9622 14.5333 22.2015 11.1514 22.4029C9.79718 22.4776 8.41039 22.294 7.10355 21.8419C2.83024 20.3947 -0.184303 15.9179 0.00906813 11.4338C0.026884 10.7462 0.10921 10.0608 0.255228 9.3909C1.2691 4.28825 6.41563 0.664163 11.1514 1.29375C11.1514 1.38711 11.1514 1.48048 11.1514 1.57384C6.5491 2.03156 2.93837 5.69168 2.38684 9.78831C2.3062 10.3335 2.27566 10.8845 2.29358 11.4338C2.37916 15.0038 4.69486 18.2789 7.94841 19.671C8.9456 20.1171 10.0312 20.3917 11.1514 20.4647C14.5333 20.6656 17.9153 20.9042 21.2972 20.9796C25.9151 21.0859 30.5334 20.9118 35.1514 20.6681C35.1515 20.6681 35.1516 20.6681 35.1517 20.6681C39.4703 20.4546 43.0903 17.0173 43.6875 13.0371C43.7731 12.5074 43.8087 11.9704 43.7954 11.4338C43.7462 7.94487 41.4098 4.73881 38.2351 3.50218Z" fill="#002A63"/>
<text id="IDUA_2" fill="white" xml:space="preserve" style="white-space: pre" font-family="Arial" font-size="12" font-weight="bold" letter-spacing="0em"><tspan x="8.47363" y="15.594">IDUA</tspan></text>
</g>
</g>
<defs>
<linearGradient id="paint0_linear_938_23975" x1="23.1514" y1="1.43384" x2="23.1514" y2="21.4338" gradientUnits="userSpaceOnUse">
<stop stop-color="#ECBFFF"/>
<stop offset="1" stop-color="#002A63"/>
</linearGradient>
</defs>
</svg>
