<svg width="114" height="24" viewBox="0 0 114 24" fill="none" xmlns="http://www.w3.org/2000/svg">
<g id="R-ICO-013787">
<g id="CHEMICAL_HEX">
<g id="LEFT_CORNER">
<mask id="mask0_938_24963" style="mask-type:luminance" maskUnits="userSpaceOnUse" x="0" y="0" width="10" height="24">
<rect id="MASK" width="10" height="24" transform="matrix(-1 0 0 1 10 0)" fill="white"/>
</mask>
<g mask="url(#mask0_938_24963)">
<g id="CORNER">
<mask id="path-2-outside-1_938_24963" maskUnits="userSpaceOnUse" x="0" y="0" width="12" height="24" fill="black">
<rect fill="white" width="12" height="24"/>
<path d="M2 12C2 12 6.04738 5.90524 8 2H10V22H8C6.04738 18.0948 2 12 2 12Z"/>
</mask>
<path d="M2 12C2 12 6.04738 5.90524 8 2H10V22H8C6.04738 18.0948 2 12 2 12Z" fill="#740FB5"/>
<path d="M2 12C2 12 6.04738 5.90524 8 2H10V22H8C6.04738 18.0948 2 12 2 12Z" stroke="url(#paint0_linear_938_24963)" stroke-width="4" stroke-miterlimit="3.99933" stroke-linejoin="round" mask="url(#path-2-outside-1_938_24963)"/>
</g>
</g>
</g>
<g id="RIGHT CORNER">
<mask id="mask1_938_24963" style="mask-type:luminance" maskUnits="userSpaceOnUse" x="104" y="0" width="10" height="24">
<rect id="MASK_2" width="10" height="24" transform="matrix(1 -8.74228e-08 -8.74228e-08 -1 104 24)" fill="white"/>
</mask>
<g mask="url(#mask1_938_24963)">
<g id="CORNER_2">
<mask id="path-4-outside-2_938_24963" maskUnits="userSpaceOnUse" x="102" y="0" width="12" height="24" fill="black">
<rect fill="white" x="102" width="12" height="24"/>
<path d="M112 12C112 12 107.953 5.90524 106 2H104V22H106C107.953 18.0948 112 12 112 12Z"/>
</mask>
<path d="M112 12C112 12 107.953 5.90524 106 2H104V22H106C107.953 18.0948 112 12 112 12Z" fill="#740FB5"/>
<path d="M112 12C112 12 107.953 5.90524 106 2H104V22H106C107.953 18.0948 112 12 112 12Z" stroke="url(#paint1_linear_938_24963)" stroke-width="4" stroke-miterlimit="3.99933" stroke-linejoin="round" mask="url(#path-4-outside-2_938_24963)"/>
</g>
</g>
</g>
<g id="centre">
<mask id="path-5-outside-3_938_24963" maskUnits="userSpaceOnUse" x="8" y="0" width="98" height="24" fill="black">
<rect fill="white" x="8" width="98" height="24"/>
<path d="M8 2H106V22H8V2Z"/>
</mask>
<path d="M8 2H106V22H8V2Z" fill="#740FB5"/>
<path d="M8 2V4H106V2V0H8V2ZM106 22V20H8V22V24H106V22Z" fill="url(#paint2_linear_938_24963)" mask="url(#path-5-outside-3_938_24963)"/>
<text id="Chemical" fill="white" xml:space="preserve" style="white-space: pre" font-family="Arial" font-size="12" font-weight="bold" letter-spacing="0em"><tspan x="8.19727" y="16.1602">OXALOACETATE</tspan></text>
</g>
</g>
</g>
<defs>
<linearGradient id="paint0_linear_938_24963" x1="6" y1="2" x2="6" y2="22" gradientUnits="userSpaceOnUse">
<stop stop-color="#DA99FF"/>
<stop offset="1" stop-color="#740FB5"/>
</linearGradient>
<linearGradient id="paint1_linear_938_24963" x1="108" y1="2" x2="108" y2="22" gradientUnits="userSpaceOnUse">
<stop stop-color="#DA99FF"/>
<stop offset="1" stop-color="#740FB5"/>
</linearGradient>
<linearGradient id="paint2_linear_938_24963" x1="57" y1="2" x2="57" y2="22" gradientUnits="userSpaceOnUse">
<stop stop-color="#DA99FF"/>
<stop offset="1" stop-color="#740FB5"/>
</linearGradient>
</defs>
</svg>
