<svg width="198" height="187" viewBox="0 0 198 187" fill="none" xmlns="http://www.w3.org/2000/svg">
<g id="R-ICO-014002">
<path id="BG" d="M97.3346 12.3989C88.1649 3.56351 75.114 -1.21179 60.6325 0.265513C36.5056 2.72681 16.3595 21.7357 11.5077 44.8364C4.91612 47.7665 0.185118 54.4987 0.00441813 62.1356C-0.0919819 66.2205 1.39322 70.12 4.06022 72.9916L72.7915 141.737C73.2781 142.225 73.8006 142.679 74.3568 143.097C76.7907 144.923 79.6786 145.864 82.6645 145.864C83.1421 145.864 83.6226 145.831 84.1039 145.783C92.3705 161.305 109.364 170.805 129 168.802C156.75 165.971 179.246 141.252 179.245 113.59C179.245 100.657 174.327 89.3699 166.253 81.3068L97.3346 12.3989Z" fill="url(#paint0_linear_938_25700)"/>
<g id="TOP">
<g id="MYELIN LAYERS">
<path id="Vector" d="M128.997 68.6303C105.542 71.0231 85.8493 89.0547 80.3131 111.281C80.0275 112.428 79.2935 113.429 78.2649 114.011C72.524 117.259 68.5348 123.5 68.3692 130.5C68.2515 135.486 70.4897 140.195 74.357 143.097C76.7909 144.923 79.6788 145.864 82.6647 145.864C83.5799 145.863 84.4097 146.366 84.8686 147.158C93.389 161.862 109.951 170.745 129 168.802C156.75 165.971 179.246 141.252 179.245 113.59C179.244 85.9284 156.748 65.7992 128.997 68.6303Z" fill="#CFEEFF" stroke="#468ED7" stroke-miterlimit="10"/>
<path id="Vector_2" d="M167.134 89.2952C174.318 96.5133 178.689 106.595 178.69 118.147C178.69 142.967 158.513 165.175 133.622 167.749C120.316 169.126 108.357 164.613 100.107 156.323L97.0854 153.302C89.9021 146.083 85.5306 136.002 85.5303 124.449C85.5297 99.6296 105.707 77.4221 130.598 74.8475C143.904 73.4712 155.863 77.9838 164.113 86.2739L167.134 89.2952Z" fill="url(#paint1_linear_938_25700)" stroke="#468ED7" stroke-miterlimit="10"/>
<path id="Vector_3" d="M164.199 152.654C182.483 133.923 183.614 105.374 166.725 88.8885C149.836 72.4032 121.323 74.2241 103.039 92.9557C84.7551 111.687 83.6242 140.236 100.513 156.721C117.402 173.207 145.915 171.386 164.199 152.654Z" fill="#CFEEFF" stroke="#468ED7" stroke-miterlimit="10"/>
<path id="Vector_4" d="M167.939 97.2059C174.278 103.584 178.134 112.492 178.134 122.705C178.135 144.683 160.275 164.378 138.244 166.696C126.45 167.937 115.851 163.946 108.547 156.598L105.526 153.576C99.187 147.198 95.3308 138.29 95.3306 128.078C95.3302 106.1 113.19 86.4039 135.221 84.0858C147.015 82.8448 157.614 86.8358 164.918 94.1846L167.939 97.2059Z" fill="url(#paint2_linear_938_25700)" stroke="#468ED7" stroke-miterlimit="10"/>
<path id="Vector_5" d="M165.373 153.24C181.53 136.597 182.486 111.317 167.507 96.7744C152.528 82.2317 127.287 83.9339 111.129 100.576C94.9714 117.219 94.0159 142.499 108.995 157.042C123.974 171.584 149.215 169.882 165.373 153.24Z" fill="#CFEEFF" stroke="#468ED7" stroke-miterlimit="10"/>
<path id="Vector_6" d="M165.409 101.791C159.065 95.5794 149.961 92.2364 139.844 93.3244C120.672 95.3859 105.131 112.57 105.131 131.706C105.131 140.761 108.616 148.625 114.315 154.183C115.223 155.069 116.988 156.873 116.988 156.873C123.344 163.28 132.583 166.75 142.866 165.644C162.038 163.582 177.579 146.398 177.579 127.262C177.579 118.39 174.238 110.656 168.744 105.117C168.744 105.117 166.532 102.89 165.409 101.791Z" fill="url(#paint3_linear_938_25700)" stroke="#468ED7" stroke-miterlimit="10"/>
<path id="Vector_7" d="M166.53 153.81C180.559 139.259 181.34 117.25 168.273 104.651C155.206 92.0521 133.239 93.6349 119.21 108.186C105.18 122.737 104.4 144.747 117.467 157.345C130.534 169.944 152.5 168.361 166.53 153.81Z" fill="#CFEEFF" stroke="#468ED7" stroke-miterlimit="10"/>
<path id="Vector_8" d="M166.725 110.222C161.312 104.62 153.35 101.58 144.466 102.563C128.154 104.368 114.93 119.041 114.931 135.335C114.931 143.178 117.995 149.967 122.992 154.698C123.832 155.494 125.428 157.148 125.428 157.148C130.837 162.614 138.716 165.562 147.488 164.591C163.8 162.786 177.024 148.114 177.023 131.819C177.023 124.287 174.198 117.727 169.548 113.028C169.548 113.028 167.65 111.178 166.725 110.222Z" fill="url(#paint4_linear_938_25700)" stroke="#468ED7" stroke-miterlimit="10"/>
<path id="Vector_9" d="M167.691 154.391C179.597 141.933 180.206 123.193 169.053 112.535C157.9 101.877 139.207 103.337 127.302 115.795C115.397 128.253 114.788 146.993 125.941 157.651C137.094 168.309 155.786 166.849 167.691 154.391Z" fill="#CFEEFF" stroke="#468ED7" stroke-miterlimit="10"/>
</g>
<g id="AXON">
<path id="BG_2" d="M168.826 154.975C178.608 144.614 179.052 129.148 169.817 120.429C160.583 111.71 145.167 113.041 135.385 123.401C125.604 133.762 125.16 149.228 134.394 157.947C143.628 166.666 159.044 165.335 168.826 154.975Z" fill="#3880B2" stroke="#3880B2" stroke-width="2" stroke-miterlimit="10" stroke-linecap="round" stroke-linejoin="round"/>
<g id="CILINDERS">
<path id="Vector_10" d="M165.472 150.618C164.714 149.849 164.253 148.776 164.253 147.543C164.253 144.863 166.426 142.441 169.105 142.132C170.552 141.966 171.85 142.449 172.739 143.351L178.579 149.201C179.457 149.978 180 151.129 180 152.468C180 155.148 177.828 157.571 175.148 157.879C173.702 158.046 172.403 157.562 171.514 156.661L165.472 150.618Z" fill="#6DC3D1" stroke="#3880B2" stroke-width="0.75" stroke-miterlimit="10" stroke-linecap="round" stroke-linejoin="round"/>
<path id="Vector_11" d="M156.978 156.485C156.22 155.716 155.76 154.643 155.76 153.41C155.76 150.73 157.932 148.308 160.612 147.999C162.058 147.833 163.357 148.316 164.245 149.218L170.085 155.068C170.963 155.845 171.506 156.996 171.506 158.335C171.506 161.015 169.334 163.438 166.654 163.746C165.208 163.913 163.91 163.429 163.021 162.528L156.978 156.485Z" fill="#6DC3D1" stroke="#3880B2" stroke-width="0.75" stroke-miterlimit="10" stroke-linecap="round" stroke-linejoin="round"/>
<path id="Vector_12" d="M148.47 162.355C147.712 161.586 147.251 160.513 147.251 159.28C147.251 156.6 149.424 154.178 152.103 153.869C153.55 153.703 154.848 154.186 155.737 155.087L161.577 160.938C162.455 161.715 162.998 162.865 162.998 164.205C162.998 166.885 160.826 169.307 158.146 169.616C156.7 169.782 155.401 169.299 154.512 168.398L148.47 162.355Z" fill="#6DC3D1" stroke="#3880B2" stroke-width="0.75" stroke-miterlimit="10" stroke-linecap="round" stroke-linejoin="round"/>
<path id="Vector_13" d="M165.472 140.857C164.714 140.088 164.253 139.015 164.253 137.782C164.253 135.102 166.426 132.68 169.105 132.371C170.552 132.205 171.85 132.688 172.739 133.589L178.579 139.44C179.457 140.217 180 141.367 180 142.707C180 145.387 177.828 147.809 175.148 148.118C173.702 148.284 172.403 147.801 171.514 146.9L165.472 140.857Z" fill="#6DC3D1" stroke="#3880B2" stroke-width="0.75" stroke-miterlimit="10" stroke-linecap="round" stroke-linejoin="round"/>
<path id="Vector_14" d="M156.978 146.716C156.22 145.947 155.76 144.874 155.76 143.641C155.76 140.961 157.932 138.539 160.612 138.23C162.058 138.064 163.357 138.547 164.245 139.449L170.085 145.299C170.963 146.076 171.506 147.226 171.506 148.566C171.506 151.246 169.334 153.668 166.654 153.977C165.208 154.143 163.91 153.66 163.021 152.759L156.978 146.716Z" fill="#6DC3D1" stroke="#3880B2" stroke-width="0.75" stroke-miterlimit="10" stroke-linecap="round" stroke-linejoin="round"/>
<path id="Vector_15" d="M148.47 152.583C147.712 151.814 147.251 150.741 147.251 149.508C147.251 146.828 149.424 144.406 152.103 144.097C153.55 143.931 154.848 144.414 155.737 145.316L161.577 151.166C162.455 151.943 162.998 153.094 162.998 154.434C162.998 157.113 160.826 159.536 158.146 159.844C156.7 160.011 155.401 159.527 154.512 158.626L148.47 152.583Z" fill="#6DC3D1" stroke="#3880B2" stroke-width="0.75" stroke-miterlimit="10" stroke-linecap="round" stroke-linejoin="round"/>
<path id="Vector_16" d="M140.038 158.438C139.28 157.67 138.819 156.597 138.819 155.363C138.819 152.684 140.992 150.261 143.671 149.953C145.118 149.786 146.416 150.269 147.305 151.171L153.145 157.021C154.023 157.798 154.566 158.949 154.566 160.289C154.566 162.968 152.394 165.391 149.714 165.699C148.268 165.866 146.969 165.383 146.08 164.481L140.038 158.438Z" fill="#6DC3D1" stroke="#3880B2" stroke-width="0.75" stroke-miterlimit="10" stroke-linecap="round" stroke-linejoin="round"/>
<path id="Vector_17" d="M178.579 129.671L172.673 123.763L167.327 118.415C163.157 115.554 157.869 114.16 152.111 114.822C151.27 114.919 150.438 115.058 149.619 115.235L171.514 137.13C172.403 138.032 173.702 138.515 175.148 138.349C175.587 138.298 176.004 138.173 176.408 138.018C178.473 137.222 180 135.179 180 132.938C180 131.598 179.457 130.448 178.579 129.671Z" fill="url(#paint5_linear_938_25700)" stroke="#3880B2" stroke-width="0.75" stroke-miterlimit="10" stroke-linecap="round" stroke-linejoin="round"/>
<path id="Vector_18" d="M156.978 136.947C156.22 136.178 155.76 135.105 155.76 133.872C155.76 131.192 157.932 128.77 160.612 128.461C162.058 128.295 163.357 128.778 164.245 129.68L170.085 135.53C170.963 136.307 171.506 137.458 171.506 138.797C171.506 141.477 169.334 143.899 166.654 144.208C165.208 144.374 163.91 143.891 163.021 142.99L156.978 136.947Z" fill="#6DC3D1" stroke="#3880B2" stroke-width="0.75" stroke-miterlimit="10" stroke-linecap="round" stroke-linejoin="round"/>
<path id="Vector_19" d="M148.47 142.814C147.712 142.045 147.251 140.972 147.251 139.739C147.251 137.059 149.424 134.637 152.103 134.328C153.55 134.162 154.848 134.645 155.737 135.547L161.577 141.397C162.455 142.174 162.998 143.325 162.998 144.665C162.998 147.344 160.826 149.767 158.146 150.075C156.7 150.242 155.401 149.758 154.512 148.857L148.47 142.814Z" fill="#6DC3D1" stroke="#3880B2" stroke-width="0.75" stroke-miterlimit="10" stroke-linecap="round" stroke-linejoin="round"/>
<path id="Vector_20" d="M140.038 148.669C139.28 147.901 138.819 146.828 138.819 145.594C138.819 142.915 140.992 140.492 143.671 140.184C145.118 140.017 146.416 140.5 147.305 141.402L153.145 147.252C154.023 148.029 154.566 149.18 154.566 150.52C154.566 153.199 152.394 155.622 149.714 155.93C148.268 156.097 146.969 155.614 146.08 154.712L140.038 148.669Z" fill="#6DC3D1" stroke="#3880B2" stroke-width="0.75" stroke-miterlimit="10" stroke-linecap="round" stroke-linejoin="round"/>
<path id="Vector_21" d="M128.323 136.682C127.953 138.412 127.752 140.186 127.752 141.985C127.752 146.566 129.02 150.705 131.219 154.112L137.671 160.565C138.314 161.216 139.173 161.645 140.145 161.772C140.517 161.821 140.905 161.829 141.305 161.783C143.985 161.474 146.157 159.052 146.157 156.372C146.157 155.033 145.614 153.882 144.736 153.105L128.323 136.682Z" fill="url(#paint6_linear_938_25700)" stroke="#3880B2" stroke-width="0.75" stroke-miterlimit="10" stroke-linecap="round" stroke-linejoin="round"/>
<path id="Vector_22" d="M166.654 134.439C169.334 134.13 171.506 131.708 171.506 129.028C171.506 127.688 170.963 126.538 170.085 125.761L159.431 115.101C157.12 114.64 154.662 114.529 152.11 114.822C150.026 115.062 148.004 115.558 146.073 116.273L163.021 133.221C163.909 134.122 165.208 134.605 166.654 134.439Z" fill="url(#paint7_linear_938_25700)" stroke="#3880B2" stroke-width="0.75" stroke-miterlimit="10" stroke-linecap="round" stroke-linejoin="round"/>
<path id="Vector_23" d="M148.47 133.045C147.712 132.276 147.251 131.203 147.251 129.97C147.251 127.29 149.424 124.868 152.103 124.559C153.55 124.393 154.848 124.876 155.737 125.778L161.577 131.628C162.455 132.405 162.998 133.556 162.998 134.895C162.998 137.575 160.826 139.998 158.146 140.306C156.7 140.473 155.401 139.989 154.512 139.088L148.47 133.045Z" fill="#6DC3D1" stroke="#3880B2" stroke-width="0.75" stroke-miterlimit="10" stroke-linecap="round" stroke-linejoin="round"/>
<path id="Vector_24" d="M140.038 138.9C139.28 138.131 138.819 137.059 138.819 135.825C138.819 133.145 140.992 130.723 143.671 130.415C145.118 130.248 146.416 130.731 147.305 131.633L153.145 137.483C154.023 138.26 154.566 139.411 154.566 140.751C154.566 143.43 152.394 145.853 149.714 146.161C148.268 146.328 146.969 145.844 146.08 144.943L140.038 138.9Z" fill="#6DC3D1" stroke="#3880B2" stroke-width="0.75" stroke-miterlimit="10" stroke-linecap="round" stroke-linejoin="round"/>
<path id="Vector_25" d="M141.305 152.014C143.984 151.705 146.157 149.283 146.157 146.603C146.157 145.263 145.614 144.113 144.736 143.336L130.955 129.547C129.088 133.028 127.953 136.895 127.779 140.904L137.671 150.795C138.56 151.697 139.858 152.18 141.305 152.014Z" fill="url(#paint8_linear_938_25700)" stroke="#3880B2" stroke-width="0.75" stroke-miterlimit="10" stroke-linecap="round" stroke-linejoin="round"/>
<path id="Vector_26" d="M158.146 130.537C160.826 130.229 162.998 127.806 162.998 125.126C162.998 123.787 162.455 122.636 161.577 121.859L154.392 114.67C153.64 114.686 152.88 114.734 152.11 114.822C148.846 115.198 145.734 116.203 142.889 117.696L154.512 129.319C155.401 130.22 156.7 130.703 158.146 130.537Z" fill="url(#paint9_linear_938_25700)" stroke="#3880B2" stroke-width="0.75" stroke-miterlimit="10" stroke-linecap="round" stroke-linejoin="round"/>
<path id="Vector_27" d="M149.714 136.392C152.393 136.084 154.566 133.661 154.566 130.982C154.566 129.642 154.023 128.491 153.145 127.714L143.05 117.614C139.96 119.209 137.18 121.377 134.868 123.961L146.08 135.174C146.969 136.075 148.267 136.559 149.714 136.392Z" fill="url(#paint10_linear_938_25700)" stroke="#3880B2" stroke-width="0.75" stroke-miterlimit="10" stroke-linecap="round" stroke-linejoin="round"/>
<path id="Vector_28" d="M141.305 142.245C143.985 141.936 146.157 139.514 146.157 136.834C146.157 135.494 145.614 134.344 144.736 133.567L134.997 123.822C132.615 126.449 130.719 129.509 129.464 132.819L137.671 141.027C138.56 141.928 139.859 142.411 141.305 142.245Z" fill="url(#paint11_linear_938_25700)" stroke="#3880B2" stroke-width="0.75" stroke-miterlimit="10" stroke-linecap="round" stroke-linejoin="round"/>
</g>
<g id="TOPs">
<path id="Vector_29" d="M178.475 156.18C180.423 154.116 180.512 151.035 178.672 149.299C176.833 147.562 173.762 147.827 171.813 149.891C169.865 151.954 169.776 155.035 171.616 156.772C173.455 158.509 176.526 158.244 178.475 156.18Z" fill="#6DC3D1" stroke="#3880B2" stroke-width="0.75" stroke-miterlimit="10" stroke-linecap="round" stroke-linejoin="round"/>
<path id="Vector_30" d="M169.981 162.047C171.929 159.983 172.017 156.902 170.178 155.165C168.338 153.429 165.268 153.694 163.319 155.757C161.371 157.821 161.282 160.902 163.122 162.639C164.961 164.376 168.032 164.111 169.981 162.047Z" fill="#6DC3D1" stroke="#3880B2" stroke-width="0.75" stroke-miterlimit="10" stroke-linecap="round" stroke-linejoin="round"/>
<path id="Vector_31" d="M161.472 167.916C163.421 165.853 163.509 162.772 161.67 161.035C159.83 159.298 156.759 159.563 154.811 161.627C152.862 163.691 152.774 166.772 154.613 168.508C156.453 170.245 159.524 169.98 161.472 167.916Z" fill="#6DC3D1" stroke="#3880B2" stroke-width="0.75" stroke-miterlimit="10" stroke-linecap="round" stroke-linejoin="round"/>
<path id="Vector_32" d="M178.475 146.419C180.423 144.355 180.512 141.274 178.672 139.537C176.833 137.801 173.762 138.066 171.813 140.129C169.865 142.193 169.776 145.274 171.616 147.011C173.455 148.748 176.526 148.483 178.475 146.419Z" fill="#6DC3D1" stroke="#3880B2" stroke-width="0.75" stroke-miterlimit="10" stroke-linecap="round" stroke-linejoin="round"/>
<path id="Vector_33" d="M169.981 152.278C171.93 150.214 172.018 147.133 170.178 145.396C168.339 143.659 165.268 143.925 163.32 145.988C161.371 148.052 161.283 151.133 163.122 152.87C164.962 154.607 168.033 154.342 169.981 152.278Z" fill="#6DC3D1" stroke="#3880B2" stroke-width="0.75" stroke-miterlimit="10" stroke-linecap="round" stroke-linejoin="round"/>
<path id="Vector_34" d="M161.472 158.145C163.421 156.081 163.509 153 161.67 151.263C159.83 149.526 156.759 149.791 154.811 151.855C152.862 153.919 152.774 157 154.613 158.737C156.453 160.474 159.524 160.208 161.472 158.145Z" fill="#6DC3D1" stroke="#3880B2" stroke-width="0.75" stroke-miterlimit="10" stroke-linecap="round" stroke-linejoin="round"/>
<path id="Vector_35" d="M153.04 163.999C154.988 161.936 155.077 158.855 153.237 157.118C151.398 155.381 148.327 155.646 146.378 157.71C144.43 159.774 144.341 162.855 146.181 164.591C148.02 166.328 151.091 166.063 153.04 163.999Z" fill="#6DC3D1" stroke="#3880B2" stroke-width="0.75" stroke-miterlimit="10" stroke-linecap="round" stroke-linejoin="round"/>
<path id="Vector_36" d="M178.475 136.65C180.424 134.586 180.512 131.505 178.673 129.768C176.833 128.032 173.762 128.297 171.814 130.36C169.865 132.424 169.777 135.505 171.616 137.242C173.456 138.979 176.527 138.714 178.475 136.65Z" fill="#6DC3D1" stroke="#3880B2" stroke-width="0.75" stroke-miterlimit="10" stroke-linecap="round" stroke-linejoin="round"/>
<path id="Vector_37" d="M169.981 142.509C171.93 140.445 172.018 137.364 170.178 135.627C168.339 133.89 165.268 134.156 163.32 136.219C161.371 138.283 161.283 141.364 163.122 143.101C164.962 144.838 168.033 144.572 169.981 142.509Z" fill="#6DC3D1" stroke="#3880B2" stroke-width="0.75" stroke-miterlimit="10" stroke-linecap="round" stroke-linejoin="round"/>
<path id="Vector_38" d="M161.473 148.375C163.421 146.312 163.51 143.231 161.67 141.494C159.831 139.757 156.76 140.022 154.811 142.086C152.863 144.15 152.774 147.231 154.614 148.967C156.453 150.704 159.524 150.439 161.473 148.375Z" fill="#6DC3D1" stroke="#3880B2" stroke-width="0.75" stroke-miterlimit="10" stroke-linecap="round" stroke-linejoin="round"/>
<path id="Vector_39" d="M153.04 154.23C154.989 152.167 155.077 149.086 153.238 147.349C151.398 145.612 148.327 145.877 146.379 147.941C144.43 150.005 144.342 153.086 146.181 154.822C148.021 156.559 151.092 156.294 153.04 154.23Z" fill="#6DC3D1" stroke="#3880B2" stroke-width="0.75" stroke-miterlimit="10" stroke-linecap="round" stroke-linejoin="round"/>
<path id="Vector_40" d="M144.631 160.083C146.579 158.019 146.668 154.938 144.828 153.201C142.989 151.464 139.918 151.729 137.97 153.793C136.021 155.857 135.933 158.938 137.772 160.675C139.612 162.412 142.682 162.146 144.631 160.083Z" fill="#6DC3D1" stroke="#3880B2" stroke-width="0.75" stroke-miterlimit="10" stroke-linecap="round" stroke-linejoin="round"/>
<path id="Vector_41" d="M169.982 132.74C171.93 130.676 172.018 127.595 170.179 125.858C168.339 124.121 165.269 124.386 163.32 126.45C161.372 128.514 161.283 131.595 163.123 133.332C164.962 135.069 168.033 134.803 169.982 132.74Z" fill="#6DC3D1" stroke="#3880B2" stroke-width="0.75" stroke-miterlimit="10" stroke-linecap="round" stroke-linejoin="round"/>
<path id="Vector_42" d="M161.473 138.606C163.422 136.543 163.51 133.462 161.671 131.725C159.831 129.988 156.76 130.253 154.812 132.317C152.863 134.381 152.775 137.462 154.614 139.198C156.454 140.935 159.525 140.67 161.473 138.606Z" fill="#6DC3D1" stroke="#3880B2" stroke-width="0.75" stroke-miterlimit="10" stroke-linecap="round" stroke-linejoin="round"/>
<path id="Vector_43" d="M153.041 144.461C154.989 142.398 155.078 139.317 153.238 137.58C151.399 135.843 148.328 136.108 146.379 138.172C144.431 140.236 144.342 143.317 146.182 145.053C148.021 146.79 151.092 146.525 153.041 144.461Z" fill="#6DC3D1" stroke="#3880B2" stroke-width="0.75" stroke-miterlimit="10" stroke-linecap="round" stroke-linejoin="round"/>
<path id="Vector_44" d="M144.631 150.313C146.58 148.25 146.668 145.169 144.829 143.432C142.989 141.695 139.919 141.96 137.97 144.024C136.021 146.088 135.933 149.169 137.773 150.905C139.612 152.642 142.683 152.377 144.631 150.313Z" fill="#6DC3D1" stroke="#3880B2" stroke-width="0.75" stroke-miterlimit="10" stroke-linecap="round" stroke-linejoin="round"/>
<path id="Vector_45" d="M161.474 128.837C163.422 126.774 163.511 123.693 161.671 121.956C159.832 120.219 156.761 120.484 154.812 122.548C152.864 124.612 152.775 127.693 154.615 129.429C156.454 131.166 159.525 130.901 161.474 128.837Z" fill="#6DC3D1" stroke="#3880B2" stroke-width="0.75" stroke-miterlimit="10" stroke-linecap="round" stroke-linejoin="round"/>
<path id="Vector_46" d="M153.041 134.692C154.99 132.628 155.078 129.547 153.239 127.811C151.399 126.074 148.328 126.339 146.38 128.403C144.431 130.466 144.343 133.547 146.182 135.284C148.022 137.021 151.093 136.756 153.041 134.692Z" fill="#6DC3D1" stroke="#3880B2" stroke-width="0.75" stroke-miterlimit="10" stroke-linecap="round" stroke-linejoin="round"/>
<path id="Vector_47" d="M144.632 140.544C146.58 138.481 146.669 135.4 144.829 133.663C142.99 131.926 139.919 132.191 137.971 134.255C136.022 136.319 135.934 139.4 137.773 141.136C139.613 142.873 142.683 142.608 144.632 140.544Z" fill="#6DC3D1" stroke="#3880B2" stroke-width="0.75" stroke-miterlimit="10" stroke-linecap="round" stroke-linejoin="round"/>
</g>
</g>
<g id="AXON SHADE">
<g id="INNER_1_" opacity="0.7">
<path id="_x3C_Path_x3E__2_" d="M166.654 153.977C163.975 154.285 161.802 152.363 161.802 149.683C161.802 147.004 163.975 144.581 166.654 144.273C169.334 143.964 171.506 145.887 171.506 148.566C171.506 151.246 169.334 153.668 166.654 153.977ZM154.566 140.751C154.566 143.43 152.394 145.853 149.714 146.161C147.034 146.47 144.862 144.547 144.862 141.868C144.862 139.188 147.034 136.766 149.714 136.457C152.394 136.149 154.566 138.071 154.566 140.751ZM153.294 136.013C153.294 133.333 155.466 130.91 158.146 130.602C160.826 130.293 162.998 132.216 162.998 134.895C162.998 137.575 160.826 139.998 158.146 140.306C155.466 140.614 153.294 138.692 153.294 136.013ZM149.714 146.226C152.394 145.918 154.566 147.84 154.566 150.52C154.566 153.199 152.394 155.622 149.714 155.93C147.034 156.239 144.862 154.316 144.862 151.637C144.862 148.957 147.034 146.535 149.714 146.226ZM153.294 145.782C153.294 143.102 155.466 140.679 158.146 140.371C160.826 140.062 162.998 141.985 162.998 144.664C162.998 147.344 160.826 149.767 158.146 150.075C155.466 150.383 153.294 148.461 153.294 145.782ZM171.506 138.797C171.506 141.477 169.334 143.899 166.654 144.208C163.975 144.516 161.802 142.594 161.802 139.914C161.802 137.235 163.975 134.812 166.654 134.504C169.334 134.195 171.506 136.118 171.506 138.797ZM158.146 159.844C155.466 160.153 153.294 158.23 153.294 155.551C153.294 152.871 155.466 150.448 158.146 150.14C160.826 149.832 162.998 151.754 162.998 154.433C162.998 157.113 160.826 159.535 158.146 159.844ZM162.419 127.494C161.599 129.108 159.993 130.324 158.146 130.537C156.348 130.744 154.779 129.947 153.941 128.591L153.902 128.607C154.324 129.278 154.566 130.088 154.566 130.982C154.566 133.661 152.394 136.084 149.714 136.392C147.918 136.599 146.351 135.804 145.512 134.451L145.494 134.461C145.915 135.131 146.157 135.941 146.157 136.834C146.157 139.514 143.985 141.936 141.305 142.245V142.31C143.985 142.001 146.157 143.924 146.157 146.603C146.157 149.283 143.985 151.705 141.305 152.014V152.079C143.985 151.77 146.157 153.693 146.157 156.372C146.157 157.266 145.916 158.131 145.494 158.899L145.511 158.904C146.351 157.358 147.918 156.202 149.714 155.995C152.394 155.687 154.566 157.609 154.566 160.289C154.566 161.177 154.327 162.037 153.911 162.801H153.955C154.797 161.264 156.358 160.118 158.146 159.912C159.905 159.71 161.445 160.468 162.296 161.77L162.394 161.709C162.017 161.062 161.802 160.295 161.802 159.453C161.802 156.773 163.975 154.351 166.654 154.042C168.428 153.838 169.979 154.611 170.826 155.934L170.914 155.886C170.521 155.23 170.296 154.447 170.296 153.586C170.296 150.906 172.468 148.484 175.148 148.175V148.118C172.468 148.427 170.296 146.504 170.296 143.825C170.296 141.145 172.468 138.723 175.148 138.414V138.349C172.468 138.658 170.296 136.735 170.296 134.056C170.296 133.134 170.553 132.244 170.999 131.459L170.921 131.409C170.099 133.016 168.497 134.227 166.654 134.439C163.975 134.748 161.802 132.825 161.802 130.146C161.802 129.216 162.064 128.318 162.517 127.528" fill="#3880B2"/>
<path id="Vector_48" d="M153.929 162.764C153.357 163.827 152.44 164.708 151.341 165.226L154.513 168.397C154.542 168.427 154.576 168.453 154.606 168.482C153.795 167.708 153.294 166.604 153.294 165.322C153.294 164.426 153.537 163.558 153.961 162.789L153.929 162.764Z" fill="#3880B2"/>
<path id="Vector_49" d="M145.571 158.752C145.422 159.044 145.247 159.324 145.049 159.586C144.851 159.848 144.631 160.094 144.391 160.319C144.152 160.545 143.893 160.75 143.618 160.931C143.395 161.077 143.159 161.204 142.917 161.317L146.08 164.481C146.11 164.511 146.143 164.536 146.173 164.565C145.362 163.791 144.862 162.687 144.862 161.406C144.862 160.466 145.129 159.559 145.592 158.764L145.571 158.752Z" fill="#3880B2"/>
</g>
<path id="OUTER_1_" opacity="0.5" d="M150.591 114.053C137.447 115.92 126.898 127.892 126.898 141.122C126.898 145.565 128.088 149.593 130.167 152.939L131.91 154.638C131.5 153.973 131.265 153.174 131.265 152.293C131.265 150.251 132.527 148.358 134.313 147.437L132.507 145.623C131.735 144.853 131.265 143.77 131.265 142.524C131.265 140.482 132.527 138.589 134.313 137.668L132.548 135.894C131.752 135.122 131.265 134.023 131.265 132.755C131.265 130.075 133.437 127.653 136.117 127.344C137.436 127.192 138.633 127.581 139.507 128.335L140.184 129.011C139.857 128.396 139.674 127.681 139.674 126.902C139.674 124.223 141.846 121.8 144.526 121.492C145.848 121.34 147.046 121.73 147.921 122.487L148.648 123.216C148.302 122.588 148.106 121.852 148.106 121.047C148.106 118.591 149.932 116.42 152.3 115.826C152.759 115.714 153.167 115.673 153.613 115.673C154.689 115.695 155.653 116.07 156.385 116.715L159.762 120.042C160.292 119.783 160.867 119.608 161.466 119.539C162.788 119.386 163.987 119.777 164.862 120.534L168.271 123.945C168.797 123.689 169.366 123.517 169.96 123.448C171.373 123.286 172.641 123.747 173.527 124.609L171.818 122.9C167.605 116.761 160.283 113.157 151.904 113.902C151.431 113.945 150.983 113.994 150.591 114.053Z" fill="#3880B2"/>
</g>
<path id="MYELIN" d="M152.11 114.823C159.254 114 165.68 116.336 170.135 120.722L167.283 117.876L167.013 117.607C162.562 113.283 156.18 110.985 149.089 111.801C135.636 113.35 124.731 125.511 124.731 138.963C124.731 144.886 126.847 150.07 130.361 153.888L131.472 154.999L133.344 156.87C133.392 156.923 133.445 156.972 133.494 157.024C129.914 153.196 127.752 147.968 127.752 141.985C127.752 128.532 138.658 116.371 152.11 114.823Z" fill="url(#paint12_linear_938_25700)" stroke="#3880B2" stroke-width="1.5" stroke-miterlimit="10" stroke-linecap="round" stroke-linejoin="round"/>
</g>
<path id="NUCLEUS" d="M81.6831 118.281C81.772 117.629 81.1324 117.107 80.522 117.354C75.4457 119.407 71.8958 124.501 71.762 130.166C71.6099 136.602 76.9284 141.945 83.3925 140.937C83.9361 140.853 84.2559 140.286 84.0575 139.773C82.2493 135.096 81.2577 129.94 81.2576 124.449C81.2575 122.371 81.4064 120.312 81.6831 118.281Z" fill="#3574A8" stroke="#46A1D3" stroke-width="2" stroke-miterlimit="10" stroke-linecap="round" stroke-linejoin="round"/>
</g>
<defs>
<linearGradient id="paint0_linear_938_25700" x1="55.2036" y1="124.149" x2="132.15" y2="47.2033" gradientUnits="userSpaceOnUse">
<stop stop-color="#468ED7"/>
<stop offset="0.2093" stop-color="#8CC1EB"/>
<stop offset="0.219" stop-color="#83BAE8"/>
<stop offset="0.2519" stop-color="#68A7E1"/>
<stop offset="0.2856" stop-color="#5599DB"/>
<stop offset="0.3201" stop-color="#4A91D8"/>
<stop offset="0.3567" stop-color="#468ED7"/>
<stop offset="0.7173" stop-color="#D5F6FF"/>
<stop offset="0.7632" stop-color="#D1F3FE"/>
<stop offset="0.8107" stop-color="#C4EAFA"/>
<stop offset="0.859" stop-color="#B0DBF5"/>
<stop offset="0.9078" stop-color="#93C6EC"/>
<stop offset="0.9566" stop-color="#6EABE2"/>
<stop offset="1" stop-color="#468ED7"/>
</linearGradient>
<linearGradient id="paint1_linear_938_25700" x1="98.5961" y1="154.812" x2="165.624" y2="87.7844" gradientUnits="userSpaceOnUse">
<stop stop-color="#468ED7"/>
<stop offset="0.7173" stop-color="#D5F6FF"/>
<stop offset="0.7632" stop-color="#D1F3FE"/>
<stop offset="0.8107" stop-color="#C4EAFA"/>
<stop offset="0.859" stop-color="#B0DBF5"/>
<stop offset="0.9078" stop-color="#93C6EC"/>
<stop offset="0.9566" stop-color="#6EABE2"/>
<stop offset="1" stop-color="#468ED7"/>
</linearGradient>
<linearGradient id="paint2_linear_938_25700" x1="107.036" y1="155.087" x2="166.428" y2="95.6952" gradientUnits="userSpaceOnUse">
<stop stop-color="#468ED7"/>
<stop offset="0.7173" stop-color="#D5F6FF"/>
<stop offset="0.7632" stop-color="#D1F3FE"/>
<stop offset="0.8107" stop-color="#C4EAFA"/>
<stop offset="0.859" stop-color="#B0DBF5"/>
<stop offset="0.9078" stop-color="#93C6EC"/>
<stop offset="0.9566" stop-color="#6EABE2"/>
<stop offset="1" stop-color="#468ED7"/>
</linearGradient>
<linearGradient id="paint3_linear_938_25700" x1="115.477" y1="155.362" x2="167.235" y2="103.604" gradientUnits="userSpaceOnUse">
<stop stop-color="#468ED7"/>
<stop offset="0.7173" stop-color="#D5F6FF"/>
<stop offset="0.7632" stop-color="#D1F3FE"/>
<stop offset="0.8107" stop-color="#C4EAFA"/>
<stop offset="0.859" stop-color="#B0DBF5"/>
<stop offset="0.9078" stop-color="#93C6EC"/>
<stop offset="0.9566" stop-color="#6EABE2"/>
<stop offset="1" stop-color="#468ED7"/>
</linearGradient>
<linearGradient id="paint4_linear_938_25700" x1="123.917" y1="155.637" x2="168.037" y2="111.517" gradientUnits="userSpaceOnUse">
<stop stop-color="#468ED7"/>
<stop offset="0.7173" stop-color="#D5F6FF"/>
<stop offset="0.7632" stop-color="#D1F3FE"/>
<stop offset="0.8107" stop-color="#C4EAFA"/>
<stop offset="0.859" stop-color="#B0DBF5"/>
<stop offset="0.9078" stop-color="#93C6EC"/>
<stop offset="0.9566" stop-color="#6EABE2"/>
<stop offset="1" stop-color="#468ED7"/>
</linearGradient>
<linearGradient id="paint5_linear_938_25700" x1="162.182" y1="127.798" x2="169.449" y2="120.53" gradientUnits="userSpaceOnUse">
<stop stop-color="#6DC3D1"/>
<stop offset="0.7" stop-color="#BBEBF3"/>
<stop offset="1" stop-color="#6DC3D1"/>
</linearGradient>
<linearGradient id="paint6_linear_938_25700" x1="130.983" y1="153.877" x2="138.251" y2="146.609" gradientUnits="userSpaceOnUse">
<stop stop-color="#5598C4"/>
<stop offset="0.2" stop-color="#6DC3D1"/>
<stop offset="0.7" stop-color="#BBEBF3"/>
<stop offset="1" stop-color="#6DC3D1"/>
</linearGradient>
<linearGradient id="paint7_linear_938_25700" x1="156.166" y1="126.366" x2="163.434" y2="119.099" gradientUnits="userSpaceOnUse">
<stop stop-color="#6DC3D1"/>
<stop offset="0.7" stop-color="#BBEBF3"/>
<stop offset="1" stop-color="#6DC3D1"/>
</linearGradient>
<linearGradient id="paint8_linear_938_25700" x1="132.3" y1="145.424" x2="139.567" y2="138.157" gradientUnits="userSpaceOnUse">
<stop stop-color="#5598C4"/>
<stop offset="0.2" stop-color="#6DC3D1"/>
<stop offset="0.7" stop-color="#BBEBF3"/>
<stop offset="1" stop-color="#6DC3D1"/>
</linearGradient>
<linearGradient id="paint9_linear_938_25700" x1="150.32" y1="125.127" x2="157.588" y2="117.859" gradientUnits="userSpaceOnUse">
<stop stop-color="#5598C4"/>
<stop offset="0.2" stop-color="#6DC3D1"/>
<stop offset="0.7" stop-color="#BBEBF3"/>
<stop offset="1" stop-color="#6DC3D1"/>
</linearGradient>
<linearGradient id="paint10_linear_938_25700" x1="142.078" y1="131.172" x2="149.345" y2="123.904" gradientUnits="userSpaceOnUse">
<stop stop-color="#5598C4"/>
<stop offset="0.2" stop-color="#6DC3D1"/>
<stop offset="0.7" stop-color="#BBEBF3"/>
<stop offset="1" stop-color="#6DC3D1"/>
</linearGradient>
<linearGradient id="paint11_linear_938_25700" x1="134.321" y1="137.676" x2="141.589" y2="130.409" gradientUnits="userSpaceOnUse">
<stop stop-color="#5598C4"/>
<stop offset="0.2" stop-color="#6DC3D1"/>
<stop offset="0.7" stop-color="#BBEBF3"/>
<stop offset="1" stop-color="#6DC3D1"/>
</linearGradient>
<linearGradient id="paint12_linear_938_25700" x1="124.129" y1="147.66" x2="160.601" y2="111.188" gradientUnits="userSpaceOnUse">
<stop stop-color="#3880B2"/>
<stop offset="0.7" stop-color="#64B2E7"/>
<stop offset="1" stop-color="#3880B2"/>
</linearGradient>
</defs>
</svg>
