<svg width="57" height="23" viewBox="0 0 57 23" fill="none" xmlns="http://www.w3.org/2000/svg">
<g id="R-ICO-014724">
<g id="FKBP5">
<path d="M1.06934 11.502C1.06934 5.97911 5.54649 1.50195 11.0693 1.50195H45.0693C50.5922 1.50195 55.0693 5.97911 55.0693 11.502C55.0693 17.0248 50.5922 21.502 45.0693 21.502H11.0693C5.54649 21.502 1.06934 17.0248 1.06934 11.502Z" fill="url(#paint0_linear_938_24167)"/>
<path d="M43.7777 2.99461C32.8749 2.87638 21.9721 2.52478 11.0693 1.64196C11.0693 1.54859 11.0693 1.45523 11.0693 1.36186C21.9721 0.479043 32.8749 0.127439 43.7777 0.00921416C44.2082 0.00623071 44.6388 0.00421405 45.0693 0.00307763C50.9511 -0.13805 56.2218 5.01158 56.3626 10.7725C56.375 11.0168 56.3792 11.2573 56.3756 11.502C56.4333 17.5536 50.7963 22.6969 45.0698 22.2678C45.0697 22.2678 45.0695 22.2678 45.0693 22.2678C39.6181 22.0241 34.1663 21.8486 28.7152 21.9549C23.2638 22.0579 17.8119 22.4664 12.3605 22.6668C11.9301 22.6796 11.4997 22.6909 11.0693 22.7007C5.33412 22.9554 0.0784351 17.8719 0.00786555 12.2171C-0.00122726 11.9774 -0.00233686 11.7417 0.00419354 11.502C0.0128094 5.57019 5.66833 0.694223 11.0693 1.36186C11.0693 1.45523 11.0693 1.54859 11.0693 1.64196C5.81734 2.05043 1.86652 6.78048 2.13438 11.502C2.14097 11.6964 2.15339 11.8866 2.17181 12.0791C2.53731 16.6038 6.61347 20.2743 11.0693 20.3033C11.4997 20.3131 11.9301 20.3244 12.3605 20.3372C17.8119 20.5376 23.2638 20.9447 28.7152 21.0477C34.1664 21.154 39.618 20.9799 45.0693 20.7362C45.0695 20.7362 45.0696 20.7362 45.0698 20.7362C49.9963 20.5655 53.9644 16.1032 53.7632 11.502C53.7595 11.3128 53.7502 11.1276 53.7351 10.94C53.4404 6.52123 49.3787 2.91633 45.0693 3.0008C44.6388 2.99965 44.2082 2.99761 43.7777 2.99461Z" fill="#CDA2BF"/>
<text id="FKBP5_2" fill="white" xml:space="preserve" style="white-space: pre" font-family="Arial" font-size="12" font-weight="bold" letter-spacing="0em"><tspan x="8.3877" y="15.6621">FKBP5</tspan></text>
</g>
</g>
<defs>
<linearGradient id="paint0_linear_938_24167" x1="28.0693" y1="1.50195" x2="28.0693" y2="21.502" gradientUnits="userSpaceOnUse">
<stop stop-color="#DE8F69"/>
<stop offset="1" stop-color="#CDA2BF"/>
</linearGradient>
</defs>
</svg>
