<svg width="127" height="37" viewBox="0 0 127 37" fill="none" xmlns="http://www.w3.org/2000/svg">
<g id="R-ICO-013636">
<g id="DNA REPLICATION PROTEIN">
<path d="M0.973633 11.5C0.973633 5.97715 5.45079 1.5 10.9736 1.5H114.974C120.496 1.5 124.974 5.97715 124.974 11.5V25.5C124.974 31.0228 120.496 35.5 114.974 35.5H10.9736C5.45078 35.5 0.973633 31.0228 0.973633 25.5V11.5Z" fill="url(#paint0_linear_938_23733)"/>
<path d="M85.6817 2.99266C60.7789 2.87443 35.8764 2.52283 10.9736 1.64001C10.9736 1.54664 10.9736 1.45328 10.9736 1.35991C35.8764 0.477089 60.7789 0.125486 85.6817 0.00726104C95.4454 -0.0223607 105.21 0.0433178 114.974 0.119734C118.033 0.123451 121.061 1.4483 123.141 3.66677C125.134 5.75098 126.266 8.63253 126.225 11.5C126.177 16.1667 126.114 20.8333 126.038 25.5C126.09 31.4045 120.703 36.5276 114.975 36.2659C114.974 36.2659 114.974 36.2658 114.974 36.2658C102.523 36.0221 90.0704 35.8466 77.6196 35.953C65.1683 36.056 52.7159 36.4645 40.2645 36.6648C30.5009 36.7925 20.7373 36.7654 10.9736 36.6733C7.96934 36.6649 5.00255 35.3552 2.97484 33.1733C1.03313 31.1203 -0.0557767 28.2971 0.00214821 25.5C0.0818339 20.8333 0.182286 16.1667 0.308063 11.5C0.319123 5.80042 5.5821 0.996571 10.9736 1.35991C10.9736 1.45328 10.9736 1.54664 10.9736 1.64001C5.71215 1.74427 1.369 6.5461 1.63907 11.5C1.76483 16.1667 1.86528 20.8334 1.94498 25.5C1.97869 27.8091 2.93409 30.0559 4.53942 31.672C6.22101 33.389 8.59419 34.3645 10.9736 34.3268C20.7372 34.2346 30.5008 34.2076 40.2645 34.3353C52.7159 34.5356 65.1682 34.9428 77.6196 35.0457C90.0706 35.1521 102.522 34.978 114.974 34.7342C114.974 34.7342 114.974 34.7342 114.975 34.7342C119.899 34.7302 124.116 30.248 123.909 25.5C123.833 20.8333 123.77 16.1667 123.722 11.5C123.705 9.262 122.794 7.07422 121.241 5.48946C119.611 3.80825 117.299 2.84714 114.974 2.88021C105.21 2.95669 95.4454 3.0225 85.6817 2.99266Z" fill="#0052AF"/>
<text id="DNA REPLICATION PROTEIN_2" fill="white" xml:space="preserve" style="white-space: pre" font-family="Arial" font-size="12" font-weight="bold" letter-spacing="0em"><tspan x="8.27051" y="15.6602">DNA REPLICATION&#10;</tspan><tspan x="36.29" y="29.6602">PROTEIN</tspan></text>
</g>
</g>
<defs>
<linearGradient id="paint0_linear_938_23733" x1="62.9736" y1="1.5" x2="62.9736" y2="35.5" gradientUnits="userSpaceOnUse">
<stop stop-color="#A20E40"/>
<stop offset="1" stop-color="#06A2B2"/>
</linearGradient>
</defs>
</svg>
