<svg width="60" height="110" viewBox="0 0 60 110" fill="none" xmlns="http://www.w3.org/2000/svg">
<g id="R-ICO-014576">
<path id="BG" d="M42.5229 24.4084C40.0633 20.1715 38.0808 13.3144 35.0311 10.5631C34.6147 10.1875 34.4032 9.6347 34.4032 9.0739L33.4032 2C33.4032 0.8954 32.5078 0 31.4032 0H28.0861C26.9815 0 26.0861 0.8954 26.0861 2L25.0861 9.074C25.0861 9.6347 24.8746 10.1876 24.4582 10.5632C21.4085 13.3146 19.4158 20.166 16.9662 24.4088C-8.38888 68.3242 1.20442 93.5383 4.76722 98.1726C10.3201 105.396 19.438 109.743 29.7447 109.743C40.0507 109.743 49.1681 105.396 54.7211 98.1741C58.2846 93.5395 68.0173 68.3242 42.5229 24.4084Z" fill="url(#paint0_radial_938_25210)"/>
<path id="Membrane" d="M31.4032 1C31.9546 1 32.4032 1.4486 32.4032 2V2.0703L32.4131 2.14L33.4042 9.1507C33.4241 9.9907 33.7704 10.7726 34.3613 11.3057C36.1483 12.9179 37.6241 16.2641 39.0513 19.5003C39.8815 21.3827 40.74 23.3291 41.6581 24.9106C52.4647 43.5256 58.1375 60.7302 58.519 76.0466C58.8157 87.9588 55.6459 95.3307 53.9283 97.5645C48.466 104.669 39.6514 108.743 29.7446 108.743C19.8371 108.743 11.0222 104.668 5.55992 97.5631C1.16322 91.8441 -6.01968 66.2207 17.8323 24.9088C18.7398 23.3371 19.5917 21.406 20.4156 19.5385C21.85 16.2871 23.3333 12.925 25.1281 11.3057C25.719 10.7726 26.0653 9.9908 26.0852 9.1507L27.0763 2.14L27.0861 2.0704V2C27.0861 1.4486 27.5347 1 28.0861 1H31.4032ZM31.4032 0H28.0861C26.9815 0 26.0861 0.8954 26.0861 2L25.0861 9.074C25.0861 9.6347 24.8746 10.1876 24.4582 10.5632C21.4085 13.3146 19.4159 20.166 16.9662 24.4088C-8.38888 68.3242 1.20442 93.5383 4.76722 98.1726C10.3201 105.396 19.438 109.743 29.7447 109.743C40.0507 109.743 49.1681 105.396 54.7211 98.1741C58.2846 93.5396 68.0173 68.3242 42.5229 24.4085C40.0633 20.1716 38.0808 13.3145 35.0311 10.5632C34.6147 10.1876 34.4032 9.6348 34.4032 9.074L33.4032 2.0001C33.4033 0.8954 32.5078 0 31.4032 0Z" fill="#AD8442"/>
<g id="MITOCHONDRION">
<path id="BG_2" d="M27.0529 98.5766C23.8009 98.5766 20.5856 97.8286 17.9074 96.3237C13.4133 93.7983 10.8757 89.4917 10.7619 84.1977C10.5959 76.5004 12.9977 68.4916 15.6017 61.8315C15.2008 61.4458 14.8112 61.0385 14.4332 60.6098C11.1788 56.9184 9.45662 52.2446 10.046 48.7026C11.4586 40.2114 16.2682 34.6255 20.2887 33.4965C22.1852 32.9633 23.9249 33.4174 25.0656 34.7377C27.5182 37.5775 26.7648 43.8568 22.944 52.4203C22.6906 52.9877 22.4162 53.5951 22.1252 54.2377C21.2546 56.1615 20.2253 58.435 19.1916 60.9457C21.2258 62.4672 24.092 63.8402 27.6862 63.6996C28.5007 63.6576 29.2116 64.3109 29.2443 65.14C29.2765 65.9671 28.632 66.6644 27.8044 66.6976C24.3273 66.8255 20.9895 65.8314 18.049 63.8265C15.6886 70.0296 13.6135 77.2777 13.7609 84.1331C13.8766 89.5032 16.8786 92.304 19.3766 93.7083C24.048 96.3313 30.6837 96.2103 35.5119 93.4104C43.2092 88.9485 36.6598 74.553 36.593 74.4084C36.2449 73.6564 36.5725 72.7648 37.3244 72.4172C38.0729 72.0676 38.967 72.3967 39.3156 73.1486C39.6364 73.841 47.0544 90.1867 37.0168 96.006C34.0666 97.7163 30.5388 98.5766 27.0529 98.5766ZM21.8098 36.2758C21.6116 36.2758 21.3772 36.307 21.0998 36.3842C18.5026 37.1137 14.2736 41.5707 13.0051 49.1947C12.5652 51.8412 14.0432 55.6312 16.6838 58.6263C16.7331 58.682 16.7839 58.7386 16.8361 58.7962C17.7414 56.6478 18.6261 54.6927 19.3918 53.0013C19.6809 52.3636 19.9533 51.7611 20.2048 51.1976C24.0046 42.682 23.9753 38.0648 22.7951 36.6986C22.6921 36.5796 22.4299 36.2758 21.8098 36.2758Z" fill="#AD342D"/>
<g id="LIGHTS">
<path id="Vector" d="M25.9303 97.9253C25.9269 97.9253 25.9235 97.9253 25.92 97.9253C23.1798 97.896 20.5758 97.272 18.3897 96.1196C16.6265 95.188 15.1934 93.9497 14.129 92.438C13.8106 91.9859 13.919 91.3618 14.3707 91.0444C14.8219 90.727 15.4464 90.8344 15.7638 91.2856C16.6451 92.5376 17.8429 93.5688 19.3234 94.351C21.2287 95.3549 23.5172 95.8998 25.9411 95.9252C26.4933 95.9311 26.9362 96.3832 26.9304 96.9359C26.9244 97.4848 26.4777 97.9253 25.9303 97.9253Z" fill="url(#paint1_radial_938_25210)"/>
<path id="Vector_2" d="M23.6896 65.681C23.6149 65.681 23.5397 65.6732 23.464 65.6556C21.8815 65.2904 20.3361 64.641 18.8707 63.7269C18.1017 63.265 17.2252 62.5931 16.2057 61.68L16.0568 61.5404C14.5129 60.0619 13.2672 58.3783 12.4128 56.6322C12.1696 56.1361 12.3752 55.5375 12.8708 55.2943C13.3679 55.0511 13.9665 55.2572 14.2087 55.7533C14.9616 57.2904 16.0647 58.7787 17.3986 60.057L17.5509 60.2006C18.4508 61.0063 19.2501 61.6215 19.9152 62.0209C21.2072 62.8275 22.5475 63.391 23.9132 63.7064C24.4518 63.8304 24.7872 64.3675 24.6632 64.9056C24.5563 65.3685 24.1447 65.681 23.6896 65.681Z" fill="url(#paint2_radial_938_25210)"/>
</g>
<g id="SHADE">
<path id="Vector_3" d="M17.261 65.9728L18.0493 63.8266C17.1879 63.2484 16.3631 62.6006 15.602 61.8315L14.71 64.1948L17.261 65.9728Z" fill="url(#paint3_linear_938_25210)"/>
<path id="Vector_4" d="M20.0978 58.7963L19.1914 60.9457C18.33 60.3675 17.597 59.5654 16.8359 58.7963L17.7602 56.6475L20.0978 58.7963Z" fill="url(#paint4_linear_938_25210)"/>
</g>
</g>
<path id="NUCLEUS" d="M38.3031 64.0188C44.5704 64.0188 49.6511 58.9381 49.6511 52.6708C49.6511 46.4034 44.5704 41.3228 38.3031 41.3228C32.0358 41.3228 26.9551 46.4034 26.9551 52.6708C26.9551 58.9381 32.0358 64.0188 38.3031 64.0188Z" fill="url(#paint5_radial_938_25210)"/>
<g id="CONOID">
<path id="Vector_5" d="M29.769 13.0375C28.1826 13.0375 25.498 12.6889 25.498 11.3803C25.498 10.0727 28.1826 9.72412 29.769 9.72412C31.3554 9.72412 34.04 10.0727 34.04 11.3803C34.04 12.6888 31.3555 13.0375 29.769 13.0375ZM29.769 10.724C27.705 10.724 26.601 11.2201 26.4887 11.4271C26.601 11.5404 27.704 12.0375 29.769 12.0375C31.6909 12.0375 32.7793 11.6068 33.0117 11.3803C32.7788 11.1537 31.6899 10.724 29.769 10.724Z" fill="url(#paint6_linear_938_25210)"/>
<g id="Group">
<path id="Vector_6" d="M30.3434 10.5201C28.5763 10.5201 26.8849 9.94485 26.4127 9.24566C26.297 9.07376 26.3424 8.84035 26.5143 8.72515C26.6872 8.60795 26.9191 8.65386 27.0348 8.82576C27.4786 9.48596 30.5411 10.2975 32.6578 9.32186C32.8443 9.23396 33.0684 9.31696 33.1549 9.50546C33.2418 9.69396 33.1598 9.91656 32.9713 10.0035C32.1793 10.3687 31.2511 10.5201 30.3434 10.5201Z" fill="url(#paint7_linear_938_25210)"/>
<path id="Vector_7" d="M30.3165 9.44875C28.6236 9.44875 27.0055 8.87165 26.5592 8.17235C26.4474 7.99755 26.4987 7.76515 26.6735 7.65375C26.8483 7.54235 27.0807 7.59515 27.1911 7.76805C27.6066 8.41845 30.4933 9.21825 32.5016 8.25925C32.6906 8.16945 32.9127 8.24855 33.0016 8.43505C33.091 8.62255 33.0119 8.84615 32.8248 8.93505C32.067 9.29735 31.1817 9.44875 30.3165 9.44875Z" fill="url(#paint8_linear_938_25210)"/>
<path id="Vector_8" d="M30.2881 8.37755C28.6704 8.37755 27.1275 7.79945 26.7061 7.09925C26.5992 6.92155 26.6568 6.69105 26.834 6.58465C27.0132 6.47825 27.2422 6.53485 27.3486 6.71255C27.7339 7.35125 30.4443 8.14225 32.3447 7.19595C32.5327 7.10315 32.7549 7.17935 32.8476 7.36485C32.9399 7.55035 32.8642 7.77505 32.6787 7.86775C31.9546 8.22715 31.1118 8.37755 30.2881 8.37755Z" fill="url(#paint9_linear_938_25210)"/>
<path id="Vector_9" d="M30.2588 7.30718C28.7158 7.30718 27.2476 6.72608 26.8521 6.02498C26.7505 5.84428 26.814 5.61578 26.9947 5.51428C27.1754 5.40978 27.4039 5.47518 27.5054 5.65588C27.8599 6.28678 30.396 7.06118 32.1875 6.13338C32.3716 6.03868 32.5977 6.10998 32.6934 6.29358C32.7886 6.47718 32.7168 6.70378 32.5332 6.79948C31.8428 7.15778 31.041 7.30718 30.2588 7.30718Z" fill="url(#paint10_linear_938_25210)"/>
<path id="Vector_10" d="M30.2374 6.23196C29.628 6.23196 29.0475 6.13336 28.5733 5.98976C28.1163 5.85016 27.3033 5.53076 26.9981 4.94976C26.9019 4.76616 26.9722 4.53956 27.1558 4.44296C27.3399 4.34726 27.5669 4.41856 27.6621 4.60016C27.7568 4.78086 28.1094 5.06496 28.7915 5.27206C29.6406 5.52986 30.9976 5.63436 32.0293 5.07186C32.2109 4.97416 32.439 5.04256 32.5376 5.22326C32.6362 5.40486 32.5688 5.63246 32.3867 5.73206C31.7179 6.09426 30.9581 6.23196 30.2374 6.23196Z" fill="url(#paint11_linear_938_25210)"/>
<path id="Vector_11" d="M30.2109 5.15784C29.6518 5.15784 29.1186 5.06604 28.6816 4.93124C27.917 4.69494 27.3564 4.30914 27.1445 3.87364C27.0537 3.68714 27.1308 3.46344 27.3174 3.37264C27.5049 3.27884 27.728 3.35894 27.8184 3.54554C27.9073 3.72714 28.2442 4.01134 28.9029 4.21444C29.7213 4.46734 30.9302 4.54554 31.8712 4.01034C32.0499 3.90684 32.2799 3.97034 32.3824 4.15094C32.4849 4.33064 32.4224 4.55914 32.2423 4.66264C31.6123 5.02204 30.8926 5.15784 30.2109 5.15784Z" fill="url(#paint12_linear_938_25210)"/>
<path id="Vector_12" d="M30.3434 10.5201C28.5763 10.5201 26.8849 9.94485 26.4127 9.24566C26.297 9.07376 26.3424 8.84035 26.5143 8.72515C26.6872 8.60795 26.9191 8.65386 27.0348 8.82576C27.4786 9.48596 30.5411 10.2975 32.6578 9.32186C32.8443 9.23396 33.0684 9.31696 33.1549 9.50546C33.2418 9.69396 33.1598 9.91656 32.9713 10.0035C32.1793 10.3687 31.2511 10.5201 30.3434 10.5201Z" fill="url(#paint13_linear_938_25210)"/>
</g>
<path id="Vector_13" d="M29.7686 3.52197C29.336 3.52197 27.1768 3.46727 27.1768 2.38037C27.1768 1.29347 29.336 1.23877 29.7686 1.23877C30.2012 1.23877 32.3604 1.29347 32.3604 2.38037C32.3604 3.46727 30.2013 3.52197 29.7686 3.52197ZM28.5186 2.38037C28.8047 2.45657 29.23 2.52197 29.7686 2.52197C30.3072 2.52197 30.7325 2.45657 31.0186 2.38037C30.7325 2.30417 30.3067 2.23877 29.7686 2.23877C29.2305 2.23877 28.8048 2.30427 28.5186 2.38037Z" fill="url(#paint14_linear_938_25210)"/>
</g>
</g>
<defs>
<radialGradient id="paint0_radial_938_25210" cx="0" cy="0" r="1" gradientUnits="userSpaceOnUse" gradientTransform="translate(29.401 61.0612) scale(32.5835 50.4132)">
<stop stop-color="#E5DBCA"/>
<stop offset="1" stop-color="#E5C283"/>
</radialGradient>
<radialGradient id="paint1_radial_938_25210" cx="0" cy="0" r="1" gradientUnits="userSpaceOnUse" gradientTransform="translate(29.1273 89.5225) scale(16.3106 8.2026)">
<stop offset="0.8567" stop-color="#DE7B76" stop-opacity="0"/>
<stop offset="0.9277" stop-color="#DE7B76"/>
<stop offset="1" stop-color="#DE7B76" stop-opacity="0"/>
</radialGradient>
<radialGradient id="paint2_radial_938_25210" cx="0" cy="0" r="1" gradientTransform="matrix(6.88896 17.0623 -9.65816 3.89896 20.0547 48.5327)" gradientUnits="userSpaceOnUse">
<stop offset="0.857" stop-color="#DE7B76" stop-opacity="0"/>
<stop offset="0.9269" stop-color="#DE7B76"/>
<stop offset="0.9939" stop-color="#DE7B76" stop-opacity="0"/>
</radialGradient>
<linearGradient id="paint3_linear_938_25210" x1="15.7327" y1="64.9603" x2="16.7851" y2="63.3667" gradientUnits="userSpaceOnUse">
<stop stop-color="#AD342D" stop-opacity="0"/>
<stop offset="1" stop-color="#73231E"/>
</linearGradient>
<linearGradient id="paint4_linear_938_25210" x1="19.0932" y1="57.8559" x2="17.8303" y2="59.7803" gradientUnits="userSpaceOnUse">
<stop stop-color="#AD342D" stop-opacity="0"/>
<stop offset="1" stop-color="#73231E"/>
</linearGradient>
<radialGradient id="paint5_radial_938_25210" cx="0" cy="0" r="1" gradientUnits="userSpaceOnUse" gradientTransform="translate(40.5692 49.5238) scale(11.348)">
<stop stop-color="#B1B4E5"/>
<stop offset="0.0096" stop-color="#AEB1E4"/>
<stop offset="0.1611" stop-color="#868AD7"/>
<stop offset="0.3169" stop-color="#656ACC"/>
<stop offset="0.4759" stop-color="#4B51C3"/>
<stop offset="0.6395" stop-color="#393FBD"/>
<stop offset="0.8103" stop-color="#2E34B9"/>
<stop offset="1" stop-color="#2A31B8"/>
</radialGradient>
<linearGradient id="paint6_linear_938_25210" x1="29.769" y1="9.72402" x2="29.769" y2="13.0375" gradientUnits="userSpaceOnUse">
<stop stop-color="#F49B67"/>
<stop offset="1" stop-color="#C25515"/>
</linearGradient>
<linearGradient id="paint7_linear_938_25210" x1="26.3487" y1="9.59005" x2="33.1896" y2="9.59005" gradientUnits="userSpaceOnUse">
<stop stop-color="#676EF4"/>
<stop offset="1" stop-color="#151EC2"/>
</linearGradient>
<linearGradient id="paint8_linear_938_25210" x1="26.5" y1="8.52205" x2="33.0383" y2="8.52205" gradientUnits="userSpaceOnUse">
<stop stop-color="#676EF4"/>
<stop offset="1" stop-color="#0D137A"/>
</linearGradient>
<linearGradient id="paint9_linear_938_25210" x1="26.6523" y1="7.45425" x2="32.887" y2="7.45425" gradientUnits="userSpaceOnUse">
<stop stop-color="#676EF4"/>
<stop offset="1" stop-color="#0D137A"/>
</linearGradient>
<linearGradient id="paint10_linear_938_25210" x1="26.8037" y1="6.38568" x2="32.7355" y2="6.38568" gradientUnits="userSpaceOnUse">
<stop stop-color="#676EF4"/>
<stop offset="1" stop-color="#0D137A"/>
</linearGradient>
<linearGradient id="paint11_linear_938_25210" x1="26.9551" y1="5.31616" x2="32.5831" y2="5.31616" gradientUnits="userSpaceOnUse">
<stop stop-color="#676EF4"/>
<stop offset="1" stop-color="#0D137A"/>
</linearGradient>
<linearGradient id="paint12_linear_938_25210" x1="27.1064" y1="4.24554" x2="32.4316" y2="4.24554" gradientUnits="userSpaceOnUse">
<stop stop-color="#676EF4"/>
<stop offset="1" stop-color="#0D137A"/>
</linearGradient>
<linearGradient id="paint13_linear_938_25210" x1="26.3487" y1="9.59005" x2="33.1896" y2="9.59005" gradientUnits="userSpaceOnUse">
<stop stop-color="#676EF4"/>
<stop offset="1" stop-color="#0D137A"/>
</linearGradient>
<linearGradient id="paint14_linear_938_25210" x1="29.7686" y1="1.23877" x2="29.7686" y2="3.52197" gradientUnits="userSpaceOnUse">
<stop stop-color="#F49B67"/>
<stop offset="1" stop-color="#C25515"/>
</linearGradient>
</defs>
</svg>
