<svg width="64" height="23" viewBox="0 0 64 23" fill="none" xmlns="http://www.w3.org/2000/svg">
<g id="R-ICO-014418">
<g id="CHST14">
<path d="M1.02002 11.5C1.02002 5.97715 5.49717 1.5 11.02 1.5H52.02C57.5429 1.5 62.02 5.97715 62.02 11.5C62.02 17.0228 57.5429 21.5 52.02 21.5H11.02C5.49717 21.5 1.02002 17.0228 1.02002 11.5Z" fill="url(#paint0_linear_938_24029)"/>
<path d="M47.2284 2.99266C35.1589 2.87443 23.0895 2.52283 11.02 1.64001C11.02 1.54664 11.02 1.45328 11.02 1.35991C23.0895 0.477089 35.1589 0.125486 47.2284 0.00726104C48.8256 -0.00273693 50.4228 -0.00187826 52.02 0.00658572C57.1805 -0.0532221 61.9625 3.85956 63.0158 8.81501C63.2193 9.69605 63.313 10.6008 63.298 11.5C63.3432 17.5328 57.7468 22.6654 52.0206 22.2659C52.0204 22.2659 52.0202 22.2658 52.02 22.2658C45.9855 22.0221 39.9503 21.8466 33.9159 21.953C27.8811 22.056 21.8459 22.4645 15.8112 22.6648C14.2141 22.7079 12.6171 22.7334 11.02 22.7447C5.96784 22.8651 1.23285 18.9987 0.250103 14.1306C0.0604063 13.2652 -0.0208935 12.3788 0.00467408 11.5C0.0251634 5.59739 5.62243 0.744758 11.02 1.35991C11.02 1.45328 11.02 1.54664 11.02 1.64001C5.76464 1.99601 1.75558 6.74928 2.03524 11.5C2.06051 12.22 2.16847 12.9314 2.35689 13.6176C3.37137 17.4766 7.11081 20.2854 11.02 20.2554C12.6171 20.2667 14.2141 20.2922 15.8112 20.3353C21.8459 20.5356 27.8811 20.9428 33.9159 21.0457C39.9504 21.1521 45.9854 20.978 52.02 20.7342C52.0202 20.7342 52.0203 20.7342 52.0205 20.7342C56.9472 20.593 60.9559 16.1201 60.7422 11.5C60.7274 10.8007 60.632 10.108 60.4576 9.43776C59.5141 5.66579 55.8212 2.90284 52.02 2.99345C50.4228 3.0019 48.8255 3.00273 47.2284 2.99266Z" fill="#9A51BF"/>
<text id="CHST14_2" fill="white" xml:space="preserve" style="white-space: pre" font-family="Arial" font-size="12" font-weight="bold" letter-spacing="0em"><tspan x="8.49854" y="15.6602">CHST14</tspan></text>
</g>
</g>
<defs>
<linearGradient id="paint0_linear_938_24029" x1="31.52" y1="1.5" x2="31.52" y2="21.5" gradientUnits="userSpaceOnUse">
<stop stop-color="#9A51BF"/>
<stop offset="1" stop-color="#7B4A08"/>
</linearGradient>
</defs>
</svg>
