<svg width="117" height="23" viewBox="0 0 117 23" fill="none" xmlns="http://www.w3.org/2000/svg">
<g id="R-ICO-014426">
<path id="Flagellum" d="M54.41 16.6058C52.1334 16.8233 49.8207 17.1128 47.4242 17.3261C45.0366 17.538 42.5307 17.6716 39.9766 17.3598C37.4264 17.0886 34.9015 16.217 32.7189 14.9753L31.1525 13.9908C30.6807 13.6918 30.2078 13.3953 29.729 13.1323C28.7754 12.6 27.7988 12.1404 26.8545 11.92C25.9053 11.6916 25.0483 11.7783 24.0732 12.1659C23.1008 12.5541 22.0577 13.1504 20.9504 13.6314C18.7341 14.6236 16.3328 15.1865 13.9685 15.3565C9.2199 15.7291 4.5629 15.03 0 14.1547C4.6146 14.6492 9.3106 14.9395 13.8235 14.197C16.0784 13.8415 18.2242 13.1352 20.1761 12.0589C21.165 11.5311 22.0943 10.8787 23.2381 10.2992C24.3652 9.70088 25.9102 9.38488 27.2523 9.61698C28.6008 9.81508 29.7866 10.2798 30.9089 10.7828C31.4733 11.0346 32.0118 11.3119 32.5484 11.5922C33.0796 11.8566 33.5474 12.0496 34.0468 12.2731C36.0497 13.0455 38.1003 13.4371 40.2029 13.359C42.3004 13.3145 44.4442 12.9036 46.644 12.3837C48.8414 11.8667 51.0924 11.2519 53.4016 10.6912L53.4142 10.6882C55.0286 10.2962 56.6552 11.2871 57.0472 12.9016C57.4392 14.5161 56.4483 16.1426 54.8338 16.5346C54.6981 16.5674 54.5452 16.5919 54.41 16.6058Z" fill="#1970D1"/>
<path id="BG" d="M75.6285 0.796499C70.2155 1.2551 64.2871 2.2222 59.5022 4.1735C54.7976 6.0935 52.5404 11.466 54.4604 16.1706C56.3804 20.8752 61.7529 23.1324 66.4575 21.2124C70.3167 19.6372 77.8739 18.7228 86.1724 18.8277C95.5449 18.9451 101.327 20.2688 102.528 20.8533C107.077 23.1132 112.599 21.2572 114.863 16.7084C117.123 12.1553 115.267 6.6332 110.718 4.3733C103.95 1.008 91.508 0.493499 86.4771 0.427499C83.6734 0.392899 79.8056 0.442199 75.6285 0.796499Z" fill="url(#paint0_radial_938_25152)"/>
<path id="MEMBRANE" d="M110.908 3.99819C113.209 5.13929 114.927 7.11309 115.747 9.54729C116.563 11.9855 116.383 14.5931 115.242 16.8944C112.88 21.6454 107.093 23.586 102.35 21.2289C101.178 20.6578 95.483 19.3615 86.1732 19.2458C77.9206 19.1422 70.4306 20.0458 66.6179 21.6014C61.7062 23.6035 56.0776 21.239 54.0754 16.3274C53.1036 13.9476 53.1205 11.3314 54.113 8.96329C55.1055 6.59519 56.9655 4.75659 59.3453 3.78479C63.5172 2.08439 68.9824 0.937392 75.5937 0.377692C79.9174 0.0105919 83.8977 -0.0231081 86.48 0.00969193C86.9522 0.0141919 87.4911 0.0246919 88.0843 0.0408919C93.8315 0.197392 104.697 0.915592 110.908 3.99819ZM66.3043 20.8363C70.21 19.2415 77.8303 18.3121 86.1832 18.4184C95.6183 18.5375 101.488 19.8887 102.717 20.4865C107.052 22.6402 112.337 20.8656 114.491 16.527C115.535 14.4237 115.696 12.0413 114.95 9.81809C114.2 7.59059 112.631 5.79229 110.532 4.74869C103.838 1.42299 91.4796 0.910792 86.4696 0.845392C83.9082 0.813192 79.9572 0.847692 75.667 1.21149C69.1395 1.76519 63.7543 2.89329 59.6626 4.56249C55.1778 6.39239 53.019 11.5292 54.8488 16.014C56.2046 19.3364 59.3757 21.3832 62.7548 21.4752C63.9327 21.5074 65.138 21.302 66.3043 20.8363Z" fill="#4A6296"/>
</g>
<defs>
<radialGradient id="paint0_radial_938_25152" cx="0" cy="0" r="1" gradientUnits="userSpaceOnUse" gradientTransform="translate(84.4554 93.2089) rotate(1.55868) scale(94.3479)">
<stop offset="0.7221" stop-color="#7B9EE9"/>
<stop offset="0.8412" stop-color="#1970D1"/>
<stop offset="0.95" stop-color="#91C6E3"/>
<stop offset="1" stop-color="#7B9EE9"/>
</radialGradient>
</defs>
</svg>
