<svg width="78" height="101" viewBox="0 0 78 101" fill="none" xmlns="http://www.w3.org/2000/svg">
<g id="R-ICO-012715">
<path id="BG" d="M28.4457 77.3889L28.6748 77.6345C29.4887 78.5075 30.5954 80.8497 31.767 83.3295C32.4166 84.7041 33.0882 86.1258 33.7524 87.3907L33.7897 87.4616C35.1414 90.0357 36.5395 92.697 37.6632 94.3671C39.6016 97.248 41.9107 99.1008 44.5273 99.8744C45.3384 100.114 46.1758 100.246 47.0161 100.268C52.3799 100.403 54.7519 99.1084 56.8403 96.9772C57.7411 96.0575 58.4217 95.2595 59.2095 94.3359C60.3288 93.0242 61.5937 91.5427 63.84 89.3071C67.8453 85.321 73.2533 76.5113 74.6087 70.2436C75.0836 68.0471 75.5044 66.4661 75.8758 65.0709C76.5681 62.4721 77.0256 60.7555 77.1225 57.5643C77.2845 52.2354 76.8105 45.1633 73.6318 41.7357C71.3443 39.269 71.3775 38.6882 71.432 37.7257L71.4394 37.5909C71.4937 36.5265 71.6069 34.3098 74.3103 30.4891C75.7148 28.5032 76.976 24.8997 77.2053 23.799C78.2502 18.7767 79.1117 6.52617 64.5817 1.25933C59.3463 -0.636084 53.0384 0.26477 47.2795 3.7385C42.4174 6.67161 38.8267 10.9849 38.3445 14.4713C37.7747 18.593 38.4894 24.3508 39.4387 25.6401C40.4137 26.9653 41.2927 28.4213 40.4187 30.3576C40.2107 30.8189 39.9688 31.2296 39.7347 31.6271C39.2263 32.4894 38.8283 33.1644 39.1533 33.7389C39.5225 34.3899 39.9105 34.3608 40.1939 34.3394C40.32 34.3294 40.4073 34.3347 40.4749 34.3554C41.7691 34.7379 41.7745 35.5388 41.7788 36.1823L41.7832 36.5774C41.7922 37.6087 41.8414 37.9155 43.0112 38.2429L43.2332 38.3045L43.1512 38.5199C43.092 38.6751 43.0352 38.9159 43.0996 39.1808C43.1875 39.5395 43.4698 39.8471 43.9386 40.0945C45.3891 40.8607 45.3464 41.6957 45.3236 42.1443C45.3104 42.4017 45.7046 43.0263 46.2914 43.5115C46.7556 43.896 47.7098 44.4984 48.88 44.2127L49.0535 44.1703C55.5029 42.5936 56.6711 42.5948 56.9635 42.8029C57.1371 42.972 57.2021 43.1411 57.1836 43.3281C57.1556 43.6107 56.9125 44.0876 55.9119 44.7519C54.8678 45.4447 53.3343 48.9874 52.3197 51.3317L52.0953 51.849C51.2808 53.7235 49.3785 55.2483 48.5986 55.8168L48.3975 55.9634L48.2867 55.7409C47.5122 54.1827 46.3573 52.0716 45.9334 51.3593C45.4183 50.4937 44.0413 47.176 43.7371 45.9617C43.6627 45.6641 43.5951 45.364 43.5297 45.0739L43.5244 44.9849C43.8077 43.1133 42.7152 41.3074 42.1283 40.3373C41.9763 40.0859 41.8449 39.8688 41.7868 39.7295L41.7536 39.6502C41.4162 38.8384 41.0389 37.931 40.2525 37.923C39.7136 37.9177 39.4212 38.0303 39.1864 38.1208C39.0665 38.167 38.9633 38.2068 38.8488 38.2237C38.6604 38.2514 38.4235 38.2149 38.1943 38.1794C38.0092 38.1509 37.8201 38.122 37.6677 38.1291C37.4926 38.1378 37.3496 38.2114 37.2115 38.2826C37.0781 38.3511 36.9536 38.415 36.8059 38.4239C36.6946 38.4306 36.5562 38.4136 36.3959 38.394C36.1161 38.36 35.7686 38.318 35.4188 38.3867C35.1422 38.4409 34.8672 38.5404 34.6242 38.6283C34.3845 38.7152 34.1589 38.7968 33.9735 38.8207C33.8379 38.8381 33.6852 38.8327 33.5083 38.8264C33.2104 38.8155 32.8399 38.8019 32.4444 38.9116C31.8916 39.065 31.4338 39.3683 31.4293 41.5361C31.4261 42.8144 31.4432 43.6134 31.8185 43.9189C32.0045 44.0705 32.2616 44.104 32.6867 44.0293L32.8366 44.0031L32.9083 44.1374C33.064 44.4293 33.1717 44.574 33.2348 44.644C33.4311 44.8615 33.7314 45.0011 34.0218 45.1361C34.4048 45.3141 34.7668 45.4825 34.9026 45.8136L35.0168 46.0865C35.3859 46.9618 36.2501 49.0114 36.5842 50.6766C36.6432 50.9693 36.7174 51.4624 36.8113 52.0862C36.9717 53.1469 37.191 54.5974 37.4922 56.1615L37.5232 56.3212L37.3759 56.3909C36.5801 56.7671 35.8253 57.3913 35.3742 57.7645C35.1074 57.9849 34.877 58.1759 34.7002 58.2878C34.5433 58.3868 34.3274 58.4756 34.0989 58.5697C33.987 58.6157 33.8769 58.6627 33.7666 58.7113L33.6757 58.7511L33.5869 58.7065C33.4503 58.6357 33.0682 58.5621 32.039 58.841C31.4008 59.0132 30.7201 59.543 28.8709 61.3059L28.8048 61.3689L28.7134 61.3637C25.6201 61.1794 23.4717 63.4426 22.8442 64.9121C22.3072 66.1715 21.6618 67.6361 20.9776 69.147L20.9368 69.2068L19.7149 70.4634C18.3061 71.9139 17.881 72.3518 17.1461 72.996C15.4106 74.5168 14.9434 74.5411 14.4284 74.4051C14.3326 74.3793 14.2246 74.3504 14.0991 74.344C13.8695 74.3317 13.2505 74.1103 12.1769 73.7215C10.5467 73.1301 8.08498 72.236 6.07623 71.8952C4.01503 71.5453 3.20893 71.2857 2.82196 71.1614C2.56402 71.0809 2.42551 71.0374 2.23372 71.0303C1.71235 71.0129 1.15455 70.6698 1.12527 70.6508C1.12072 70.6525 0.563589 70.8551 0.356437 71.3244C0.241273 71.5845 0.251974 71.8788 0.387876 72.1986C0.762257 73.0827 1.65535 73.5767 2.02186 73.7484L2.17273 73.8186L2.13841 73.9816C2.08945 74.2139 1.99374 75.0154 2.81564 75.5825C3.27064 75.8974 4.33629 76.4245 5.57033 77.0344C7.07317 77.7775 8.75783 78.6108 9.49623 79.1544C10.5212 79.9072 11.6496 81.3431 12.0871 81.9256L12.3139 82.2278L11.9376 82.2606C11.2455 82.3215 10.4875 82.3757 9.77152 82.4266C8.38855 82.5252 7.08338 82.6182 6.48133 82.7399C5.91903 82.8537 5.28921 82.7085 4.68028 82.5678C3.84547 82.3749 3.05728 82.1927 2.55354 82.7078C2.32393 82.9422 2.20971 83.1867 2.22291 83.4155L2.23372 83.5995L2.05263 83.6336C1.89338 83.664 1.66999 83.7305 1.5108 83.8741C1.31474 84.0513 1.32095 84.3652 1.34202 84.5369L1.35931 84.6779L1.23484 84.746C1.09511 84.8231 0.971737 84.9085 0.878198 84.9928C0.765806 85.0939 0.730264 85.3313 0.782828 85.6278L0.799684 85.7234L0.738304 85.798C0.670436 85.8801 0.58671 86.0396 0.571795 86.3323C0.553386 86.6925 0.888455 87.0096 1.03345 87.1294L1.12693 87.2066L1.10681 87.3259C1.07382 87.5236 1.0971 87.8186 1.39574 88.1027C1.77523 88.462 2.74883 88.5203 3.03843 88.5298L3.15542 88.5331L3.21392 88.6347C3.36701 88.9014 3.81392 89.1656 4.40881 89.3415C4.7542 89.4436 5.054 89.4861 5.18652 89.4825C5.63171 89.4713 5.93622 89.4882 6.36655 89.6112C6.52447 89.6562 6.99045 89.6853 7.63547 89.7255C8.73571 89.7943 10.2264 89.8874 11.2179 90.131C11.7508 90.2633 12.5693 90.554 13.4355 90.8623C15.3276 91.5332 17.6513 92.3584 19.2305 92.4391C21.3782 92.5491 21.9736 90.8665 22.0948 89.4355C22.1084 89.2737 22.0908 89.017 22.0703 88.7207C21.9554 87.0574 21.7162 83.5966 25.2564 81.2974C26.7495 80.3275 27.782 79.118 28.3252 77.7026L28.4457 77.3889Z" fill="white"/>
<g id="OUTLINE">
<path id="Vector" d="M60.6912 43.0369C59.4852 44.093 57.9664 45.3025 57.2204 47.2969C56.4744 49.2914 55.6599 50.6386 55.2372 50.9557C54.8144 51.2728 49.0051 55.5484 48.8344 56.8948C48.6637 58.2411 48.739 60.0744 48.6455 60.5778" stroke="#0F82BC" stroke-width="0.554474" stroke-miterlimit="10"/>
<path id="Vector_2" d="M44.9301 68.3612C44.1871 68.8865 42.1385 71.8988 41.4395 72.9468" stroke="#0F82BC" stroke-width="0.554474" stroke-miterlimit="10"/>
<path id="Vector_3" d="M43.5188 45.0288C43.9068 42.6502 42.065 40.3972 41.7868 39.7296C41.455 38.9333 41.066 37.9309 40.2533 37.9231C39.4406 37.9153 39.1902 38.1735 38.8489 38.2237C38.5075 38.274 38.0076 38.1128 37.6679 38.1293C37.3283 38.1458 37.1117 38.4056 36.8058 38.4238C36.5 38.442 35.9663 38.2791 35.4187 38.3866C34.8712 38.494 34.3487 38.7721 33.9735 38.8206C33.5984 38.8691 33.063 38.74 32.4444 38.9115C31.8257 39.0831 31.4333 39.4695 31.4289 41.5359C31.4245 43.6022 31.4912 44.2832 32.7926 44.0112" stroke="#0F82BC" stroke-width="0.554474" stroke-miterlimit="10"/>
<path id="Vector_4" d="M41.7031 41.3515C42.0419 42.0125 42.5781 42.7854 42.9005 43.1068C43.2228 43.4283 43.4272 44.7261 43.7365 45.9616C44.0458 47.1971 45.4337 50.5206 45.9328 51.3593C46.4319 52.198 48.1663 55.3699 48.8334 56.8948" stroke="#0F82BC" stroke-width="0.554474" stroke-miterlimit="10"/>
<path id="Vector_5" d="M31.8838 41.2543C32.0683 42.2801 32.7857 44.1463 33.2344 44.6437C33.6832 45.141 34.6614 45.225 34.9022 45.8133C35.1431 46.4016 36.2061 48.7937 36.5838 50.6765C36.9616 52.5591 37.9533 62.4786 41.2458 66.127C43.5859 68.7202 44.4055 68.5928 46.5724 67.9586C48.7393 67.3245 55.1325 65.317 60.1203 62.0812C63.1692 60.1032 67.0914 58.2717 69.5711 56.1629" stroke="#0F82BC" stroke-width="0.554474" stroke-miterlimit="10"/>
<path id="Vector_6" d="M29.2421 71.6094C28.9267 72.474 28.6521 73.2053 28.717 73.9201C28.782 74.6348 29.4612 78.5657 25.2557 81.2974C21.0502 84.0291 22.1798 88.4235 22.0941 89.4354C22.0083 90.4474 21.595 92.5605 19.2297 92.4392C16.8644 92.3178 12.7898 90.5165 11.2173 90.131C9.64479 89.7454 6.79951 89.735 6.36546 89.6111C5.93142 89.4871 5.62729 89.4716 5.18632 89.4828C4.74534 89.4941 3.34175 89.1172 3.16848 88.5323C3.16848 88.5323 1.84722 88.5323 1.39499 88.1026C0.94276 87.6728 1.13594 87.2084 1.13594 87.2084C1.13594 87.2084 0.546809 86.8055 0.57104 86.3325C0.595326 85.8594 0.804973 85.7346 0.804973 85.7346C0.804973 85.7346 0.663748 85.1853 0.876888 84.993C1.09003 84.8006 1.36727 84.6794 1.36727 84.6794C1.36727 84.6794 1.22604 84.13 1.51021 83.8736C1.79438 83.6171 2.26917 83.6076 2.26917 83.6076C2.26917 83.6076 2.04738 83.2236 2.55251 82.7074C3.42331 81.8177 5.14562 83.0098 6.48074 82.7395C7.81586 82.4692 12.5993 82.3419 14.0747 81.9772C15.5502 81.6124 22.1506 66.5363 22.8438 64.9118C23.5369 63.2873 25.8936 60.9351 29.2231 61.4108C32.5527 61.8866 38.0481 69.0118 39.4534 70.6763C40.8587 72.3406 42.5698 73.9868 44.1882 76.7801C45.8066 79.5734 46.6392 83.817 46.8402 85.1824" stroke="#0F82BC" stroke-width="0.554474" stroke-miterlimit="10"/>
<path id="Vector_7" d="M28.4277 77.4037C29.6836 78.3508 31.7569 83.593 33.7519 87.3909C35.1457 90.0444 36.5294 92.6829 37.6627 94.3672C38.7959 96.0515 41.8386 100.137 47.0154 100.268C52.1921 100.398 54.6587 99.2028 56.8395 96.9771C59.0202 94.7513 60.0192 93.1087 63.8392 89.3069C67.6592 85.5052 73.2311 76.6099 74.608 70.2437C75.9848 63.8774 76.9736 62.4331 77.1217 57.5644C77.2698 52.6957 76.94 45.3039 73.631 41.7357C71.2396 39.157 71.3845 38.6392 71.4383 37.5917C71.492 36.5442 71.6086 34.3067 74.3096 30.489C75.6987 28.5257 76.9718 24.9169 77.2044 23.799C78.3754 18.172 78.634 6.35339 64.5808 1.25938C52.895 -2.97653 39.3164 7.43755 38.3438 14.4712C37.7781 18.5625 38.5029 24.3697 39.4378 25.6401C40.3728 26.9104 41.2999 28.404 40.4182 30.3577C39.7524 31.8331 38.6787 32.9012 39.153 33.7387C39.6441 34.6056 40.1661 34.2672 40.439 34.3451C41.8628 34.7516 41.7681 35.6515 41.7794 36.3173C41.8005 37.5631 41.6793 37.9176 43.2567 38.3077C43.2567 38.3077 42.5332 39.3527 43.938 40.0946C45.3427 40.8365 45.3495 41.6305 45.3232 42.1444C45.2968 42.6584 46.8845 44.7002 48.8796 44.2127C51.2983 43.6218 56.4989 42.3363 56.9891 42.8252C57.4794 43.3141 57.0315 44.0086 55.9113 44.7518C54.7911 45.495 53.1465 49.4298 52.0949 51.8492C51.0432 54.2686 48.2193 56.0819 48.2193 56.0819" stroke="#0F82BC" stroke-width="0.554474" stroke-miterlimit="10"/>
<path id="Vector_8" d="M28.8066 61.3667C30.6716 59.5861 31.3753 59.0201 32.039 58.8407C33.501 58.4456 33.6572 58.7597 33.6572 58.7597" stroke="#0F82BC" stroke-width="0.554474" stroke-miterlimit="10"/>
<path id="Vector_9" d="M20.9447 69.1986C18.4803 71.7275 18.0585 72.1959 17.1461 72.9956C14.8489 75.009 14.7559 74.3774 14.0995 74.3437C13.443 74.3101 9.24544 72.4336 6.07618 71.895C2.90691 71.3563 2.76608 71.0476 2.23417 71.03C1.70226 71.0124 1.12533 70.6507 1.12533 70.6507C1.12533 70.6507 -0.0875237 71.0773 0.387772 72.1986C0.863067 73.32 2.18521 73.8185 2.18521 73.8185C2.18521 73.8185 1.78643 74.8718 2.81559 75.5827C3.84475 76.2937 8.16738 78.1765 9.49629 79.1536C10.8252 80.1307 12.3089 82.2264 12.3089 82.2264" stroke="#0F82BC" stroke-width="0.554474" stroke-miterlimit="10"/>
<path id="Vector_10" d="M37.5243 56.3146C36.3103 56.8346 35.2506 57.9399 34.7 58.2877C34.1493 58.6356 32.8845 58.8528 32.6849 59.6888C32.5929 60.0739 32.6392 61.1908 32.8147 62.0461C32.9902 62.9013 34.1809 64.6996 34.5353 65.0604C34.8897 65.4212 35.8018 65.5815 36.0936 64.7816" stroke="#0F82BC" stroke-width="0.554474" stroke-miterlimit="10"/>
<path id="Vector_11" d="M34.6318 60.6217C34.6458 61.059 34.857 62.6159 35.3086 63.3848C35.7603 64.1538 36.4055 65.4055 36.7134 65.7851C37.0213 66.1647 37.3525 66.8002 38.0977 66.4564C38.6559 66.1989 38.5829 65.9776 38.5829 65.9776" stroke="#0F82BC" stroke-width="0.554474" stroke-miterlimit="10"/>
<path id="Vector_12" d="M36.7529 60.4213C36.9656 61.5781 37.1897 62.881 37.5949 63.8477C38 64.8143 38.0447 66.0717 39.0253 66.1038C40.0059 66.1359 40.0285 65.4277 39.9937 65.0439C39.9588 64.6602 39.8025 63.8852 39.8025 63.8852" stroke="#0F82BC" stroke-width="0.554474" stroke-miterlimit="10"/>
<path id="Vector_13" d="M57.5156 25.7C58.4144 24.7733 60.711 23.9337 61.9892 25.0937C63.2674 26.2537 64.3839 28.1196 63.8661 29.9172C63.3483 31.7147 62.2108 33.3589 61.1491 34.0949C60.0874 34.8309 58.5076 34.8107 57.884 33.9274" stroke="#0F82BC" stroke-width="0.554474" stroke-miterlimit="10"/>
<path id="Vector_14" d="M58.6264 27.7635C58.5269 27.3328 58.7788 27.1633 59.1365 27.3033C59.4941 27.4432 61.0891 28.9843 60.6166 30.1762C60.144 31.368 59.3401 31.6308 59.1426 31.9246" stroke="#0F82BC" stroke-width="0.554474" stroke-miterlimit="10"/>
<path id="Vector_15" d="M58.9973 28.8162C58.5604 29.037 58.3285 29.4899 58.7146 29.6921C59.1006 29.8943 59.2523 30.9574 58.8636 31.4239" stroke="#0F82BC" stroke-width="0.554474" stroke-miterlimit="10"/>
<path id="Vector_16" d="M41.5938 32.7236C41.8502 33.1684 42.4295 33.8176 42.0656 34.2965C41.7843 34.6667 41.5746 34.4814 41.16 34.25C40.7188 34.0039 40.3789 34.1338 40.3789 34.1338" stroke="#0F82BC" stroke-width="0.554474" stroke-miterlimit="10"/>
<path id="Vector_17" d="M41.1914 27.457C41.293 27.8473 41.3676 28.7631 41.69 28.8C42.0124 28.8368 42.8863 28.3952 43.1087 28.4066C43.331 28.418 43.331 28.418 43.331 28.418" stroke="#0F82BC" stroke-width="0.554474" stroke-miterlimit="10"/>
<path id="Vector_18" d="M55.96 46.6189C56.6276 45.6887 59.5484 42.4633 61.1057 41.6477C62.6629 40.8321 64.3541 40.0922 66.1333 40.3212" stroke="#0F82BC" stroke-width="0.554474" stroke-miterlimit="10"/>
<path id="Vector_19" d="M58.667 26.3474C59.0996 26.0549 60.9963 25.5341 61.7962 26.7235C62.5708 27.8751 63.1897 30.0416 61.2299 32.5219" stroke="#0F82BC" stroke-width="0.554474" stroke-miterlimit="10"/>
</g>
</g>
</svg>
