<svg width="71" height="23" viewBox="0 0 71 23" fill="none" xmlns="http://www.w3.org/2000/svg">
<g id="R-ICO-014420">
<g id="B3GALT6">
<path d="M0.973633 11.5C0.973633 5.97715 5.45079 1.5 10.9736 1.5H58.9736C64.4965 1.5 68.9736 5.97715 68.9736 11.5C68.9736 17.0228 64.4965 21.5 58.9736 21.5H10.9736C5.45079 21.5 0.973633 17.0228 0.973633 11.5Z" fill="url(#paint0_linear_938_24031)"/>
<path d="M50.6819 2.99266C37.4458 2.87443 24.2098 2.52283 10.9736 1.64001C10.9736 1.54664 10.9736 1.45328 10.9736 1.35991C24.2098 0.477089 37.4458 0.125486 50.6819 0.00726104C53.4458 -0.00851488 56.2097 0.00274026 58.9736 0.0282521C63.4256 0.0107985 67.6609 2.89247 69.3336 6.94032C69.9506 8.37881 70.2526 9.94878 70.2239 11.5C70.2626 17.5151 64.7004 22.6413 58.9742 22.2659C58.974 22.2659 58.9738 22.2658 58.9736 22.2658C52.3558 22.0221 45.7372 21.8466 39.1195 21.953C32.5014 22.056 25.8828 22.4645 19.2648 22.6648C16.5011 22.7328 13.7373 22.7569 10.9736 22.7507C6.60571 22.7974 2.43036 19.9475 0.82646 15.9666C0.23648 14.5512 -0.0415782 13.0133 0.00478739 11.5C0.0319307 5.6246 5.57829 0.787984 10.9736 1.35991C10.9736 1.45328 10.9736 1.54664 10.9736 1.64001C5.71601 1.9528 1.65608 6.72201 1.94234 11.5C1.98604 12.7512 2.28332 13.9785 2.81062 15.0921C4.26363 18.2278 7.58597 20.298 10.9736 20.2494C13.7373 20.2431 16.501 20.2673 19.2648 20.3353C25.8828 20.5356 32.5014 20.9428 39.1195 21.0457C45.7373 21.1521 52.3557 20.978 58.9736 20.7342C58.9738 20.7342 58.974 20.7342 58.9742 20.7342C63.9008 20.617 67.9437 16.1377 67.7234 11.5C67.6974 10.2871 67.4243 9.09233 66.9243 8.00208C65.5405 4.93278 62.2776 2.89389 58.9736 2.97178C56.2097 2.99731 53.4458 3.00855 50.6819 2.99266Z" fill="#DF5050"/>
<text id="B3GALT6_2" fill="white" xml:space="preserve" style="white-space: pre" font-family="Arial" font-size="12" font-weight="bold" letter-spacing="0em"><tspan x="8.06152" y="15.6602">B3GALT6</tspan></text>
</g>
</g>
<defs>
<linearGradient id="paint0_linear_938_24031" x1="34.9736" y1="1.5" x2="34.9736" y2="21.5" gradientUnits="userSpaceOnUse">
<stop stop-color="#DF5050"/>
<stop offset="1" stop-color="#49698D"/>
</linearGradient>
</defs>
</svg>
