<svg width="198" height="90" viewBox="0 0 198 90" fill="none" xmlns="http://www.w3.org/2000/svg">
<g id="R-ICO-013358">
<g id="BOTTOM">
<path id="Vector" d="M116.396 57.61C127.617 57.61 119.547 31.613 135.687 31.613H138.828C127.617 31.613 135.687 57.61 119.547 57.61H116.396Z" fill="url(#paint0_linear_938_25730)"/>
<path id="Vector_2" d="M154.968 57.61C166.179 57.61 158.11 31.613 174.249 31.613L177.391 31.6318C166.179 31.613 174.249 57.61 158.11 57.61H154.968Z" fill="url(#paint1_linear_938_25730)"/>
<path id="Vector_3" d="M174.249 57.61C185.46 57.61 177.39 31.6319 193.53 31.613L196.671 31.6318C185.46 31.613 193.53 57.61 177.39 57.61H174.249Z" fill="url(#paint2_linear_938_25730)"/>
<path id="Vector_4" d="M20.062 57.61C31.2732 57.61 23.2033 31.613 39.3431 31.613H42.4844C31.2732 31.613 39.3431 57.61 23.2033 57.61H20.062Z" fill="url(#paint3_linear_938_25730)"/>
<path id="Vector_5" d="M58.624 57.61C69.8352 57.61 61.7653 31.6319 77.9051 31.613L81.0464 31.6318C69.8352 31.613 77.9051 57.61 61.7653 57.61H58.624Z" fill="url(#paint4_linear_938_25730)"/>
<path id="Vector_6" d="M77.9053 57.61C89.1165 57.61 81.0466 31.6319 97.1864 31.613H100.328C89.1165 31.613 97.1864 57.61 81.0466 57.61H77.9053Z" fill="url(#paint5_linear_938_25730)"/>
<path id="Vector_7" d="M97.1865 57.61C108.398 57.61 100.328 31.613 116.468 31.613H119.609C108.398 31.613 116.468 57.61 100.328 57.61H97.1865Z" fill="url(#paint6_linear_938_25730)"/>
<path id="Vector_8" d="M0.780762 57.61C11.992 57.61 3.92206 31.6319 20.0619 31.613H23.2032C11.992 31.613 20.0619 57.61 3.92206 57.61H0.780762Z" fill="url(#paint7_linear_938_25730)"/>
<path id="Vector_9" d="M61.7657 26.778C50.5545 26.778 58.6244 0.799806 42.4846 0.781006H39.3433C50.5545 0.781006 42.4846 26.778 58.6244 26.778H61.7657Z" fill="url(#paint8_linear_938_25730)"/>
<path id="Vector_10" d="M158.109 88.4421C146.898 88.4421 154.968 62.4451 138.828 62.4451H135.687C146.898 62.4451 138.828 88.4421 154.968 88.4421H158.109Z" fill="url(#paint9_linear_938_25730)"/>
</g>
<g id="BOTTOM LINE">
<path id="Vector_11" d="M119.547 58.3912H116.396C115.964 58.3912 115.615 58.0415 115.615 57.6103C115.615 57.1791 115.964 56.8294 116.396 56.8294C120.562 56.8294 121.693 52.8194 123.062 46.2153C123.809 42.6094 124.582 38.8809 126.333 35.9561C128.397 32.5083 131.456 30.8323 135.687 30.8323H138.828C139.26 30.8323 139.609 31.182 139.609 31.6132C139.609 32.0444 139.26 32.3941 138.828 32.3941C134.668 32.3941 133.538 36.4024 132.172 43.0036C131.425 46.6103 130.653 50.3398 128.903 53.2655C126.839 56.7145 123.779 58.3912 119.547 58.3912ZM134.6 32.4391C127.384 33.056 125.966 39.9017 124.591 46.5321C123.765 50.5218 122.918 54.6046 120.628 56.7848C127.851 56.1714 129.269 49.3214 130.642 42.6869C131.468 38.6993 132.312 34.6188 134.6 32.4391Z" fill="#3D9799"/>
<path id="Vector_12" d="M158.11 58.3912H154.969C154.537 58.3912 154.188 58.0415 154.188 57.6103C154.188 57.1791 154.537 56.8294 154.969 56.8294C159.658 56.8294 160.696 52.7447 161.847 46.0174C162.458 42.4489 163.09 38.7589 164.777 35.8736C166.761 32.4814 169.86 30.8323 174.25 30.8323L177.396 30.8512C177.826 30.8538 178.174 31.2045 178.172 31.6352C178.17 32.0653 177.821 32.4131 177.391 32.4131C177.387 32.4132 177.383 32.4131 177.379 32.4131C173.228 32.4131 172.099 36.417 170.734 43.0086C169.987 46.6138 169.215 50.3418 167.465 53.2667C165.401 56.7149 162.341 58.3912 158.11 58.3912ZM173.184 32.431C169.926 32.6662 167.667 34.0272 166.126 36.662C164.581 39.3023 163.974 42.8499 163.387 46.2808C162.69 50.3526 161.976 54.5195 159.565 56.7468C166.462 55.9312 167.855 49.2075 169.204 42.6917C170.032 38.6934 170.88 34.6017 173.184 32.431Z" fill="#3D9799"/>
<path id="Vector_13" d="M177.391 58.3912H174.25C173.818 58.3912 173.469 58.0415 173.469 57.6103C173.469 57.1791 173.818 56.8294 174.25 56.8294C178.41 56.8294 179.54 52.823 180.907 46.225C181.653 42.6198 182.426 38.8918 184.176 35.9658C186.239 32.5164 189.299 30.8372 193.53 30.8323L196.677 30.8512C197.107 30.8538 197.455 31.2045 197.453 31.6352C197.451 32.0653 197.102 32.4131 196.672 32.4131C196.669 32.4126 196.664 32.413 196.66 32.4131C192.509 32.4131 191.38 36.417 190.015 43.0086C189.268 46.6138 188.496 50.3418 186.746 53.2667C184.682 56.7149 181.622 58.3912 177.391 58.3912ZM192.457 32.439C185.23 33.055 183.81 39.9061 182.436 46.5416C181.611 50.5272 180.766 54.6054 178.479 56.7841C185.695 56.1666 187.112 49.3214 188.485 42.6917C189.312 38.6984 190.16 34.6116 192.457 32.439Z" fill="#993D61"/>
<path id="Vector_14" d="M23.2036 58.3912H20.0622C19.6309 58.3912 19.2812 58.0415 19.2812 57.6103C19.2812 57.1791 19.631 56.8294 20.0622 56.8294C24.2225 56.8294 25.3525 52.8211 26.7191 46.2199C27.4657 42.6132 28.2377 38.8837 29.9881 35.958C32.0515 32.5089 35.1118 30.8323 39.3434 30.8323H42.4846C42.9159 30.8323 43.2655 31.182 43.2655 31.6132C43.2655 32.0444 42.9158 32.3941 42.4846 32.3941C38.3243 32.3941 37.1943 36.4023 35.8277 43.0036C35.0811 46.6102 34.3092 50.3398 32.5588 53.2655C30.4953 56.7145 27.4352 58.3912 23.2036 58.3912ZM38.2558 32.4391C31.0388 33.0562 29.6216 39.9039 28.2486 46.5363C27.423 50.5239 26.5784 54.6046 24.291 56.784C31.5082 56.167 32.9253 49.3192 34.2983 42.6869C35.1238 38.6993 35.9686 34.6188 38.2558 32.4391Z" fill="#993D61"/>
<path id="Vector_15" d="M61.7655 58.3912H58.6242C58.1929 58.3912 57.8433 58.0415 57.8433 57.6103C57.8433 57.1791 58.193 56.8294 58.6242 56.8294C62.785 56.8294 63.9149 52.823 65.2813 46.225C66.0279 42.6198 66.8001 38.8918 68.5504 35.9658C70.6137 32.5164 73.6735 30.8372 77.9044 30.8323L81.0514 30.8512C81.4819 30.8538 81.8293 31.2045 81.8276 31.6352C81.8259 32.0653 81.4766 32.4131 81.0466 32.4131C81.0437 32.4126 81.0386 32.413 81.0344 32.4131C76.8833 32.4131 75.7544 36.417 74.3893 43.0086C73.6427 46.6138 72.8707 50.3418 71.1202 53.2667C69.0566 56.7149 65.9966 58.3912 61.7655 58.3912ZM76.8311 32.439C69.6041 33.055 68.185 39.9061 66.8107 46.5416C65.9853 50.5272 65.1409 54.6054 62.8539 56.7841C70.0693 56.1666 71.4868 49.3214 72.86 42.6917C73.687 38.6984 74.5341 34.6116 76.8311 32.439Z" fill="#993D61"/>
<path id="Vector_16" d="M81.0468 58.3912H77.9055C77.4742 58.3912 77.1245 58.0415 77.1245 57.6103C77.1245 57.1791 77.4742 56.8294 77.9055 56.8294C82.0661 56.8294 83.1961 52.823 84.5626 46.225C85.3092 42.6198 86.0812 38.8918 87.8315 35.9658C89.895 32.5164 92.9548 30.8372 97.1855 30.8323H100.328C100.759 30.8323 101.109 31.182 101.109 31.6132C101.109 32.0444 100.759 32.3941 100.328 32.3941C96.1674 32.3941 95.0375 36.4024 93.6709 43.0037C92.9243 46.6103 92.1523 50.3398 90.402 53.2655C88.3384 56.7145 85.2783 58.3912 81.0468 58.3912ZM96.0974 32.4406C88.8822 33.0664 87.465 39.9117 86.0919 46.5417C85.2665 50.5272 84.4221 54.6054 82.1353 56.7841C89.3511 56.1664 90.7686 49.319 92.1414 42.6871C92.9667 38.7001 93.8111 34.6204 96.0974 32.4406Z" fill="#3D9799"/>
<path id="Vector_17" d="M100.327 58.3912H97.1862C96.7549 58.3912 96.4053 58.0415 96.4053 57.6103C96.4053 57.1791 96.755 56.8294 97.1862 56.8294C101.347 56.8294 102.476 52.8211 103.843 46.2199C104.59 42.6132 105.362 38.8837 107.112 35.958C109.176 32.5089 112.236 30.8323 116.467 30.8323H119.609C120.04 30.8323 120.39 31.182 120.39 31.6132C120.39 32.0444 120.04 32.3941 119.609 32.3941C115.448 32.3941 114.318 36.4024 112.952 43.0036C112.205 46.6103 111.433 50.3398 109.683 53.2655C107.619 56.7145 104.559 58.3912 100.327 58.3912ZM115.38 32.4391C108.163 33.0562 106.745 39.9039 105.373 46.5363C104.547 50.5239 103.702 54.6046 101.415 56.784C108.632 56.167 110.049 49.3192 111.422 42.6869C112.248 38.6993 113.093 34.6188 115.38 32.4391Z" fill="#993D61"/>
<path id="Vector_18" d="M3.9223 58.3912H0.7809C0.3497 58.3912 0 58.0415 0 57.6102C0 57.1789 0.3497 56.8293 0.7809 56.8293C4.9415 56.8293 6.0716 52.8229 7.438 46.2249C8.1846 42.6197 8.9566 38.8917 10.7069 35.9657C12.7704 32.5163 15.8302 30.8371 20.0609 30.8322H23.2032C23.6345 30.8322 23.9841 31.1819 23.9841 31.6131C23.9841 32.0443 23.6344 32.394 23.2032 32.394C19.0428 32.394 17.9129 36.4023 16.5463 43.0036C15.7997 46.6102 15.0277 50.3397 13.2774 53.2654C11.2139 56.7145 8.1538 58.3912 3.9223 58.3912ZM18.9729 32.4406C11.7577 33.0664 10.3405 39.9117 8.9674 46.5417C8.142 50.5272 7.2976 54.6054 5.0108 56.7841C12.2266 56.1664 13.6441 49.319 15.0169 42.6871C15.8422 38.7001 16.6867 34.6204 18.9729 32.4406Z" fill="#3D9799"/>
</g>
<g id="TOP" opacity="0.7">
<path id="Vector_19" d="M42.4844 57.61C31.2732 57.61 39.3431 31.613 23.2033 31.613H20.062C31.2732 31.613 23.2033 57.61 39.3431 57.61H42.4844Z" fill="url(#paint10_linear_938_25730)"/>
<path id="Vector_20" d="M61.7657 57.61C50.5545 57.61 58.6244 31.613 42.4846 31.613H39.3433C50.5545 31.613 42.4846 57.61 58.6244 57.61H61.7657Z" fill="url(#paint11_linear_938_25730)"/>
<path id="Vector_21" d="M81.0464 57.6101C69.8352 57.6101 77.9051 26.778 61.7653 26.778H58.624C69.8352 26.778 61.7653 57.6101 77.9051 57.6101H81.0464Z" fill="url(#paint12_linear_938_25730)"/>
<path id="Vector_22" d="M100.328 57.61C89.1165 57.61 97.1864 31.613 81.0466 31.613H77.9053C89.1165 31.613 81.0466 57.61 97.1864 57.61H100.328Z" fill="url(#paint13_linear_938_25730)"/>
<path id="Vector_23" d="M119.609 57.61C108.398 57.61 116.468 31.613 100.328 31.613H97.1865C108.398 31.613 100.328 57.61 116.468 57.61H119.609Z" fill="url(#paint14_linear_938_25730)"/>
<path id="Vector_24" d="M23.2032 57.61C11.992 57.61 20.0619 31.613 3.92206 31.613H0.780762C11.992 31.613 3.92206 57.61 20.0619 57.61H23.2032Z" fill="url(#paint15_linear_938_25730)"/>
<path id="Vector_25" d="M138.828 62.4451C127.617 62.4451 135.687 31.613 119.547 31.613H116.406C127.617 31.613 119.547 62.4451 135.687 62.4451H138.828Z" fill="url(#paint16_linear_938_25730)"/>
<path id="Vector_26" d="M158.109 57.61C146.898 57.61 154.968 31.613 138.828 31.613H135.687C146.898 31.613 138.828 57.61 154.968 57.61H158.109Z" fill="url(#paint17_linear_938_25730)"/>
<path id="Vector_27" d="M177.391 57.61C166.179 57.61 174.249 31.613 158.11 31.613H154.968C166.179 31.613 158.11 57.61 174.249 57.61H177.391Z" fill="url(#paint18_linear_938_25730)"/>
<path id="Vector_28" d="M196.671 57.61C185.46 57.61 193.53 31.613 177.39 31.613H174.249C185.46 31.613 177.39 57.61 193.53 57.61H196.671Z" fill="url(#paint19_linear_938_25730)"/>
</g>
<g id="TOP LINE">
<path id="Vector_29" d="M42.4846 58.391H39.3433C35.1118 58.391 32.0517 56.7143 29.9881 53.2653C28.2377 50.3397 27.4657 46.6102 26.7191 43.0035C25.3525 36.4022 24.2225 32.394 20.0622 32.394C19.6309 32.394 19.2812 32.0443 19.2812 31.6131C19.2812 31.1818 19.631 30.8322 20.0622 30.8322H23.2035C27.435 30.8322 30.4952 32.5089 32.5588 35.9579C34.3092 38.8836 35.0811 42.613 35.8277 46.2197C37.1943 52.8211 38.3243 56.8292 42.4846 56.8292C42.9159 56.8292 43.2655 57.1789 43.2655 57.6101C43.2656 58.0413 42.9159 58.391 42.4846 58.391ZM24.291 32.439C26.5784 34.6185 27.423 38.6992 28.2486 42.6868C29.6216 49.3191 31.0388 56.1668 38.2558 56.7839C35.9686 54.6044 35.1238 50.5238 34.2983 46.5362C32.9253 39.9038 31.5082 33.0561 24.291 32.439Z" fill="#3D9799"/>
<g id="Group">
<path id="Vector_30" d="M81.0464 58.3935H77.9052C68.4439 58.3935 66.7597 48.7457 65.2741 40.2338C64.0871 33.4337 63.0621 27.5611 58.6241 27.5611C58.1916 27.5611 57.8408 27.2103 57.8408 26.7778C57.8408 26.3453 58.1916 25.9945 58.6241 25.9945H61.7653C71.2266 25.9945 72.9108 35.6423 74.3964 44.1542C75.5834 50.9543 76.6084 56.8269 81.0464 56.8269C81.4789 56.8269 81.8297 57.1777 81.8297 57.6102C81.8297 58.0427 81.4789 58.3935 81.0464 58.3935ZM62.636 27.5954C65.0822 30.0237 65.9323 34.8948 66.8173 39.9645C68.2111 47.9499 69.6511 56.1976 77.0346 56.793C74.5884 54.3648 73.7383 49.4936 72.8533 44.4237C71.4594 36.4382 70.0194 28.1905 62.636 27.5954Z" fill="#3D9799"/>
</g>
<path id="Vector_31" d="M61.7658 58.391H58.6245C54.393 58.391 51.3328 56.7143 49.2692 53.2653C47.5188 50.3396 46.7468 46.6102 46.0002 43.0035C44.6336 36.4021 43.5037 32.394 39.3434 32.394C38.9121 32.394 38.5625 32.0443 38.5625 31.6131C38.5625 31.1818 38.9122 30.8322 39.3434 30.8322H42.4846C46.7161 30.8322 49.7763 32.5089 51.8399 35.9579C53.5903 38.8836 54.3623 42.613 55.1089 46.2197C56.4755 52.8211 57.6055 56.8292 61.7658 56.8292C62.1971 56.8292 62.5467 57.1789 62.5467 57.6101C62.5467 58.0413 62.1971 58.391 61.7658 58.391ZM43.5723 32.439C45.8595 34.6185 46.7042 38.6991 47.5297 42.6867C48.9027 49.3191 50.3199 56.1668 57.537 56.7839C55.2497 54.6044 54.405 50.5237 53.5795 46.5361C52.2064 39.9038 50.7892 33.0561 43.5723 32.439Z" fill="#993D61"/>
<path id="Vector_32" d="M100.328 58.391H97.1865C92.955 58.391 89.8949 56.7143 87.8313 53.2653C86.081 50.3396 85.3089 46.6102 84.5622 43.0035C83.1957 36.4021 82.0657 32.394 77.9055 32.394C77.4742 32.394 77.1245 32.0443 77.1245 31.6131C77.1245 31.1818 77.4742 30.8322 77.9055 30.8322H81.0468C85.2783 30.8322 88.3384 32.5089 90.402 35.9579C92.1523 38.8835 92.9243 42.6129 93.6709 46.2196C95.0376 52.821 96.1674 56.8292 100.328 56.8292C100.759 56.8292 101.109 57.1789 101.109 57.6101C101.109 58.0413 100.759 58.391 100.328 58.391ZM82.1344 32.439C84.4216 34.6185 85.2662 38.6992 86.0918 42.6867C87.4647 49.3191 88.8821 56.1668 96.099 56.7839C93.8118 54.6043 92.967 50.5237 92.1414 46.5361C90.7685 39.9038 89.3513 33.0561 82.1344 32.439Z" fill="#993D61"/>
<g id="Group_2">
<path id="Vector_33" d="M138.829 63.2283H135.687C126.226 63.2283 124.542 53.5809 123.056 45.0691C121.869 38.269 120.844 32.3964 116.406 32.3964C115.973 32.3964 115.623 32.0456 115.623 31.6131C115.623 31.1806 115.973 30.8298 116.406 30.8298H119.548C129.008 30.8298 130.693 40.4772 132.178 48.9888C133.365 55.7891 134.39 61.6617 138.829 61.6617C139.261 61.6617 139.612 62.0125 139.612 62.445C139.612 62.8775 139.261 63.2283 138.829 63.2283ZM120.418 32.4306C122.864 34.8589 123.714 39.7298 124.599 44.7997C125.993 52.7854 127.432 61.0333 134.816 61.6277C132.37 59.1995 131.52 54.3278 130.635 49.2584C129.241 41.2725 127.802 33.0248 120.418 32.4306Z" fill="#993D61"/>
</g>
<path id="Vector_34" d="M119.609 58.391H116.467C112.236 58.391 109.176 56.7143 107.112 53.2653C105.362 50.3396 104.59 46.6102 103.843 43.0035C102.476 36.4021 101.347 32.394 97.1862 32.394C96.7549 32.394 96.4053 32.0443 96.4053 31.6131C96.4053 31.1818 96.755 30.8322 97.1862 30.8322H100.327C104.559 30.8322 107.619 32.5089 109.683 35.9579C111.433 38.8836 112.205 42.613 112.952 46.2197C114.318 52.8211 115.448 56.8292 119.609 56.8292C120.04 56.8292 120.39 57.1789 120.39 57.6101C120.39 58.0413 120.04 58.391 119.609 58.391ZM101.415 32.439C103.702 34.6185 104.547 38.6992 105.373 42.6868C106.746 49.3191 108.163 56.1668 115.38 56.7839C113.093 54.6044 112.248 50.5237 111.422 46.5361C110.049 39.9038 108.632 33.0561 101.415 32.439Z" fill="#3D9799"/>
<path id="Vector_35" d="M23.2033 58.3911H20.062C15.8305 58.3911 12.7704 56.7144 10.7068 53.2654C8.9565 50.3397 8.1844 46.6103 7.4377 43.0036C6.0712 36.4022 4.9412 32.3941 0.781 32.3941C0.3497 32.394 0 32.0444 0 31.6131C0 31.1818 0.3497 30.8322 0.7809 30.8322H3.9222C8.1537 30.8322 11.2138 32.5089 13.2774 35.9579C15.0277 38.8835 15.7997 42.6129 16.5463 46.2196C17.913 52.821 19.0428 56.8292 23.2032 56.8292C23.6345 56.8292 23.9841 57.1789 23.9841 57.6101C23.9842 58.0414 23.6345 58.3911 23.2033 58.3911ZM5.0098 32.4391C7.297 34.6186 8.1416 38.6993 8.9672 42.6868C10.3401 49.3192 11.7575 56.1669 18.9744 56.784C16.6872 54.6044 15.8424 50.5238 15.0168 46.5362C13.6439 39.9039 12.2267 33.0562 5.0098 32.4391Z" fill="#993D61"/>
<path id="Vector_36" d="M158.11 58.391H154.968C150.737 58.391 147.677 56.7143 145.613 53.2653C143.863 50.3397 143.091 46.6102 142.344 43.0035C140.977 36.4022 139.847 32.394 135.687 32.394C135.256 32.394 134.906 32.0443 134.906 31.6131C134.906 31.1818 135.256 30.8322 135.687 30.8322H138.828C143.06 30.8322 146.12 32.5089 148.184 35.9579C149.934 38.8836 150.706 42.613 151.453 46.2197C152.819 52.8211 153.949 56.8292 158.11 56.8292C158.541 56.8292 158.89 57.1789 158.89 57.6101C158.891 58.0413 158.541 58.391 158.11 58.391ZM139.916 32.439C142.203 34.6185 143.048 38.6992 143.873 42.6868C145.246 49.3191 146.664 56.1668 153.881 56.7839C151.593 54.6044 150.749 50.5238 149.923 46.5362C148.55 39.9038 147.133 33.0561 139.916 32.439Z" fill="#3D9799"/>
<path id="Vector_37" d="M177.391 58.391H174.25C170.018 58.391 166.958 56.7143 164.894 53.2653C163.144 50.3396 162.372 46.6102 161.625 43.0035C160.259 36.4021 159.129 32.394 154.969 32.394C154.537 32.394 154.188 32.0443 154.188 31.6131C154.188 31.1818 154.537 30.8322 154.969 30.8322H158.11C162.341 30.8322 165.401 32.5089 167.465 35.9579C169.215 38.8836 169.987 42.613 170.734 46.2197C172.101 52.8211 173.231 56.8292 177.391 56.8292C177.822 56.8292 178.172 57.1789 178.172 57.6101C178.172 58.0413 177.822 58.391 177.391 58.391ZM159.197 32.439C161.484 34.6185 162.329 38.6991 163.155 42.6867C164.528 49.3191 165.945 56.1668 173.162 56.7839C170.875 54.6044 170.03 50.5237 169.204 46.5361C167.831 39.9038 166.414 33.0561 159.197 32.439Z" fill="#993D61"/>
<path id="Vector_38" d="M196.672 58.391H193.531C189.299 58.391 186.239 56.7143 184.176 53.2653C182.425 50.3396 181.653 46.6102 180.907 43.0035C179.54 36.4021 178.41 32.394 174.25 32.394C173.818 32.394 173.469 32.0443 173.469 31.6131C173.469 31.1818 173.818 30.8322 174.25 30.8322H177.391C181.622 30.8322 184.683 32.5089 186.746 35.9579C188.497 38.8836 189.269 42.613 190.015 46.2197C191.382 52.8211 192.512 56.8292 196.672 56.8292C197.103 56.8292 197.453 57.1789 197.453 57.6101C197.453 58.0413 197.103 58.391 196.672 58.391ZM178.478 32.439C180.766 34.6185 181.61 38.6992 182.436 42.6868C183.809 49.3191 185.226 56.1668 192.443 56.7839C190.156 54.6044 189.311 50.5237 188.486 46.5361C187.113 39.9038 185.696 33.0561 178.478 32.439Z" fill="#3D9799"/>
<path id="Vector_39" d="M61.7658 27.5589H58.6245C54.393 27.5589 51.3329 25.8822 49.2693 22.4332C47.5189 19.5076 46.7469 15.7781 46.0003 12.1714C44.6337 5.5701 43.5037 1.5619 39.3434 1.5619C38.9121 1.5619 38.5625 1.2122 38.5625 0.781C38.5625 0.3498 38.9121 0 39.3433 0H42.4846C46.7161 0 49.7763 1.6767 51.8399 5.1257C53.5903 8.0514 54.3623 11.7808 55.1089 15.3875C56.4755 21.9889 57.6054 25.997 61.7657 25.997C62.197 25.997 62.5466 26.3467 62.5466 26.7779C62.5467 27.2092 62.197 27.5589 61.7658 27.5589ZM43.5722 1.607C45.8595 3.7865 46.7042 7.8672 47.5297 11.8548C48.9027 18.4871 50.3199 25.3348 57.5369 25.9519C55.2497 23.7724 54.405 19.6918 53.5795 15.7042C52.2065 9.0717 50.7893 2.2241 43.5722 1.607Z" fill="#3D9799"/>
<path id="Vector_40" d="M158.109 89.2231H154.968C150.737 89.2231 147.677 87.5464 145.613 84.0974C143.863 81.1717 143.091 77.4423 142.344 73.8356C140.977 67.2342 139.847 63.2261 135.687 63.2261C135.256 63.2261 134.906 62.8764 134.906 62.4452C134.906 62.0139 135.256 61.6643 135.687 61.6643H138.828C143.06 61.6643 146.12 63.341 148.184 66.79C149.934 69.7156 150.706 73.445 151.453 77.0517C152.819 83.653 153.949 87.6613 158.109 87.6613C158.541 87.6613 158.89 88.011 158.89 88.4422C158.89 88.8734 158.541 89.2231 158.109 89.2231ZM139.916 63.2712C142.203 65.4507 143.048 69.5314 143.873 73.5189C145.246 80.1513 146.664 86.999 153.881 87.6161C151.593 85.4365 150.749 81.3559 149.923 77.3683C148.55 70.7359 147.133 63.8882 139.916 63.2712Z" fill="#993D61"/>
</g>
</g>
<defs>
<linearGradient id="paint0_linear_938_25730" x1="127.612" y1="57.6468" x2="127.612" y2="31.9562" gradientUnits="userSpaceOnUse">
<stop stop-color="#042224"/>
<stop offset="0.1" stop-color="#139BA2"/>
<stop offset="0.25" stop-color="#90A1A2"/>
<stop offset="0.6" stop-color="#0E9BA2"/>
<stop offset="1" stop-color="#042224"/>
</linearGradient>
<linearGradient id="paint1_linear_938_25730" x1="166.18" y1="57.6468" x2="166.18" y2="31.9562" gradientUnits="userSpaceOnUse">
<stop stop-color="#042224"/>
<stop offset="0.1" stop-color="#139BA2"/>
<stop offset="0.25" stop-color="#90A1A2"/>
<stop offset="0.6" stop-color="#0E9BA2"/>
<stop offset="1" stop-color="#042224"/>
</linearGradient>
<linearGradient id="paint2_linear_938_25730" x1="185.46" y1="57.6468" x2="185.46" y2="31.9562" gradientUnits="userSpaceOnUse">
<stop stop-color="#240410"/>
<stop offset="0.1" stop-color="#A20E44"/>
<stop offset="0.25" stop-color="#A29097"/>
<stop offset="0.6" stop-color="#A20E44"/>
<stop offset="1" stop-color="#240410"/>
</linearGradient>
<linearGradient id="paint3_linear_938_25730" x1="31.2732" y1="57.6468" x2="31.2732" y2="31.9562" gradientUnits="userSpaceOnUse">
<stop stop-color="#240410"/>
<stop offset="0.1" stop-color="#A20E44"/>
<stop offset="0.25" stop-color="#A29097"/>
<stop offset="0.6" stop-color="#A20E44"/>
<stop offset="1" stop-color="#240410"/>
</linearGradient>
<linearGradient id="paint4_linear_938_25730" x1="69.8352" y1="57.6468" x2="69.8352" y2="31.9562" gradientUnits="userSpaceOnUse">
<stop stop-color="#240410"/>
<stop offset="0.1" stop-color="#A20E44"/>
<stop offset="0.25" stop-color="#A29097"/>
<stop offset="0.6" stop-color="#A20E44"/>
<stop offset="1" stop-color="#240410"/>
</linearGradient>
<linearGradient id="paint5_linear_938_25730" x1="89.1165" y1="57.6468" x2="89.1165" y2="31.9562" gradientUnits="userSpaceOnUse">
<stop stop-color="#042224"/>
<stop offset="0.1" stop-color="#139BA2"/>
<stop offset="0.25" stop-color="#90A1A2"/>
<stop offset="0.6" stop-color="#0E9BA2"/>
<stop offset="1" stop-color="#042224"/>
</linearGradient>
<linearGradient id="paint6_linear_938_25730" x1="108.398" y1="57.6468" x2="108.398" y2="31.9562" gradientUnits="userSpaceOnUse">
<stop stop-color="#240410"/>
<stop offset="0.1" stop-color="#A20E44"/>
<stop offset="0.25" stop-color="#A29097"/>
<stop offset="0.6" stop-color="#A20E44"/>
<stop offset="1" stop-color="#240410"/>
</linearGradient>
<linearGradient id="paint7_linear_938_25730" x1="11.992" y1="57.6468" x2="11.992" y2="31.9562" gradientUnits="userSpaceOnUse">
<stop stop-color="#042224"/>
<stop offset="0.1" stop-color="#139BA2"/>
<stop offset="0.25" stop-color="#90A1A2"/>
<stop offset="0.6" stop-color="#0E9BA2"/>
<stop offset="1" stop-color="#042224"/>
</linearGradient>
<linearGradient id="paint8_linear_938_25730" x1="50.5545" y1="26.8147" x2="50.5545" y2="1.12411" gradientUnits="userSpaceOnUse">
<stop stop-color="#042224"/>
<stop offset="0.1" stop-color="#139BA2"/>
<stop offset="0.25" stop-color="#90A1A2"/>
<stop offset="0.6" stop-color="#0E9BA2"/>
<stop offset="1" stop-color="#042224"/>
</linearGradient>
<linearGradient id="paint9_linear_938_25730" x1="146.898" y1="88.4789" x2="146.898" y2="62.7883" gradientUnits="userSpaceOnUse">
<stop stop-color="#240410"/>
<stop offset="0.1" stop-color="#A20E44"/>
<stop offset="0.25" stop-color="#A29097"/>
<stop offset="0.6" stop-color="#A20E44"/>
<stop offset="1" stop-color="#240410"/>
</linearGradient>
<linearGradient id="paint10_linear_938_25730" x1="31.2732" y1="31.5763" x2="31.2732" y2="57.4874" gradientUnits="userSpaceOnUse">
<stop stop-color="#042224"/>
<stop offset="0.1" stop-color="#0E9BA2"/>
<stop offset="0.1237" stop-color="#179BA2"/>
<stop offset="0.1623" stop-color="#2F9DA2"/>
<stop offset="0.2111" stop-color="#579EA2"/>
<stop offset="0.2676" stop-color="#8EA1A2"/>
<stop offset="0.27" stop-color="#90A1A2"/>
<stop offset="0.315" stop-color="#8DA1A2"/>
<stop offset="0.3421" stop-color="#85A0A2"/>
<stop offset="0.3644" stop-color="#77A0A2"/>
<stop offset="0.3841" stop-color="#629FA2"/>
<stop offset="0.4021" stop-color="#489EA2"/>
<stop offset="0.4187" stop-color="#289CA2"/>
<stop offset="0.43" stop-color="#0E9BA2"/>
<stop offset="1" stop-color="#042224"/>
</linearGradient>
<linearGradient id="paint11_linear_938_25730" x1="50.5544" y1="31.5763" x2="50.5544" y2="57.4874" gradientUnits="userSpaceOnUse">
<stop stop-color="#240410"/>
<stop offset="0.1" stop-color="#A20E44"/>
<stop offset="0.25" stop-color="#A29097"/>
<stop offset="0.6" stop-color="#A20E44"/>
<stop offset="1" stop-color="#240410"/>
</linearGradient>
<linearGradient id="paint12_linear_938_25730" x1="69.8351" y1="26.7345" x2="69.8351" y2="57.4647" gradientUnits="userSpaceOnUse">
<stop stop-color="#042224"/>
<stop offset="0.1" stop-color="#0E9BA2"/>
<stop offset="0.1237" stop-color="#179BA2"/>
<stop offset="0.1623" stop-color="#2F9DA2"/>
<stop offset="0.2111" stop-color="#579EA2"/>
<stop offset="0.2676" stop-color="#8EA1A2"/>
<stop offset="0.27" stop-color="#90A1A2"/>
<stop offset="0.315" stop-color="#8DA1A2"/>
<stop offset="0.3421" stop-color="#85A0A2"/>
<stop offset="0.3644" stop-color="#77A0A2"/>
<stop offset="0.3841" stop-color="#629FA2"/>
<stop offset="0.4021" stop-color="#489EA2"/>
<stop offset="0.4187" stop-color="#289CA2"/>
<stop offset="0.43" stop-color="#0E9BA2"/>
<stop offset="1" stop-color="#042224"/>
</linearGradient>
<linearGradient id="paint13_linear_938_25730" x1="89.1164" y1="31.5763" x2="89.1164" y2="57.4874" gradientUnits="userSpaceOnUse">
<stop stop-color="#240410"/>
<stop offset="0.1" stop-color="#A20E44"/>
<stop offset="0.25" stop-color="#A29097"/>
<stop offset="0.6" stop-color="#A20E44"/>
<stop offset="1" stop-color="#240410"/>
</linearGradient>
<linearGradient id="paint14_linear_938_25730" x1="108.398" y1="31.5763" x2="108.398" y2="57.4874" gradientUnits="userSpaceOnUse">
<stop stop-color="#042224"/>
<stop offset="0.1" stop-color="#0E9BA2"/>
<stop offset="0.1237" stop-color="#179BA2"/>
<stop offset="0.1623" stop-color="#2F9DA2"/>
<stop offset="0.2111" stop-color="#579EA2"/>
<stop offset="0.2676" stop-color="#8EA1A2"/>
<stop offset="0.27" stop-color="#90A1A2"/>
<stop offset="0.315" stop-color="#8DA1A2"/>
<stop offset="0.3421" stop-color="#85A0A2"/>
<stop offset="0.3644" stop-color="#77A0A2"/>
<stop offset="0.3841" stop-color="#629FA2"/>
<stop offset="0.4021" stop-color="#489EA2"/>
<stop offset="0.4187" stop-color="#289CA2"/>
<stop offset="0.43" stop-color="#0E9BA2"/>
<stop offset="1" stop-color="#042224"/>
</linearGradient>
<linearGradient id="paint15_linear_938_25730" x1="11.992" y1="31.5763" x2="11.992" y2="57.4874" gradientUnits="userSpaceOnUse">
<stop stop-color="#240410"/>
<stop offset="0.1" stop-color="#A20E44"/>
<stop offset="0.25" stop-color="#A29097"/>
<stop offset="0.6" stop-color="#A20E44"/>
<stop offset="1" stop-color="#240410"/>
</linearGradient>
<linearGradient id="paint16_linear_938_25730" x1="127.617" y1="31.5695" x2="127.617" y2="62.2997" gradientUnits="userSpaceOnUse">
<stop stop-color="#240410"/>
<stop offset="0.1" stop-color="#A20E44"/>
<stop offset="0.25" stop-color="#A29097"/>
<stop offset="0.6" stop-color="#A20E44"/>
<stop offset="1" stop-color="#240410"/>
</linearGradient>
<linearGradient id="paint17_linear_938_25730" x1="146.898" y1="31.5763" x2="146.898" y2="57.4874" gradientUnits="userSpaceOnUse">
<stop stop-color="#042224"/>
<stop offset="0.1" stop-color="#0E9BA2"/>
<stop offset="0.1237" stop-color="#179BA2"/>
<stop offset="0.1623" stop-color="#2F9DA2"/>
<stop offset="0.2111" stop-color="#579EA2"/>
<stop offset="0.2676" stop-color="#8EA1A2"/>
<stop offset="0.27" stop-color="#90A1A2"/>
<stop offset="0.315" stop-color="#8DA1A2"/>
<stop offset="0.3421" stop-color="#85A0A2"/>
<stop offset="0.3644" stop-color="#77A0A2"/>
<stop offset="0.3841" stop-color="#629FA2"/>
<stop offset="0.4021" stop-color="#489EA2"/>
<stop offset="0.4187" stop-color="#289CA2"/>
<stop offset="0.43" stop-color="#0E9BA2"/>
<stop offset="1" stop-color="#042224"/>
</linearGradient>
<linearGradient id="paint18_linear_938_25730" x1="166.179" y1="31.5763" x2="166.179" y2="57.4874" gradientUnits="userSpaceOnUse">
<stop stop-color="#240410"/>
<stop offset="0.1" stop-color="#A20E44"/>
<stop offset="0.25" stop-color="#A29097"/>
<stop offset="0.6" stop-color="#A20E44"/>
<stop offset="1" stop-color="#240410"/>
</linearGradient>
<linearGradient id="paint19_linear_938_25730" x1="185.46" y1="31.5763" x2="185.46" y2="57.4874" gradientUnits="userSpaceOnUse">
<stop stop-color="#042224"/>
<stop offset="0.1" stop-color="#0E9BA2"/>
<stop offset="0.1237" stop-color="#179BA2"/>
<stop offset="0.1623" stop-color="#2F9DA2"/>
<stop offset="0.2111" stop-color="#579EA2"/>
<stop offset="0.2676" stop-color="#8EA1A2"/>
<stop offset="0.27" stop-color="#90A1A2"/>
<stop offset="0.315" stop-color="#8DA1A2"/>
<stop offset="0.3421" stop-color="#85A0A2"/>
<stop offset="0.3644" stop-color="#77A0A2"/>
<stop offset="0.3841" stop-color="#629FA2"/>
<stop offset="0.4021" stop-color="#489EA2"/>
<stop offset="0.4187" stop-color="#289CA2"/>
<stop offset="0.43" stop-color="#0E9BA2"/>
<stop offset="1" stop-color="#042224"/>
</linearGradient>
</defs>
</svg>
