<svg width="89" height="31" viewBox="0 0 89 31" fill="none" xmlns="http://www.w3.org/2000/svg">
<g id="R-ICO-014062">
<path id="Vector" d="M74.0351 0.0144561C71.1495 -0.108944 68.4325 0.564056 66.0818 1.83046C61.8806 4.09386 50.0094 4.73226 45.2373 4.73226H43.524C38.752 4.73226 26.8808 4.09396 22.6797 1.83056C20.3289 0.564056 17.6118 -0.109044 14.726 0.0144561C6.90074 0.349356 0.460739 6.69816 0.0246389 14.5186C-0.471961 23.4246 6.60284 30.8017 15.4007 30.8017C18.0516 30.8017 20.5441 30.1302 22.7204 28.9492C26.8681 26.6984 38.687 26.0694 43.4061 26.0694H45.3554C50.0744 26.0694 61.8934 26.6984 66.041 28.9492C68.2173 30.1302 70.7098 30.8017 73.3607 30.8017C82.1587 30.8017 89.2335 23.4245 88.7369 14.5184C88.3008 6.69796 81.8606 0.349256 74.0351 0.0144561Z" fill="url(#paint0_radial_938_25168)"/>
<g id="Mask group">
<mask id="mask0_938_25168" style="mask-type:alpha" maskUnits="userSpaceOnUse" x="24" y="2" width="55" height="11">
<path id="MASK" d="M44.1951 12.8554C43.2265 12.8554 42.3195 12.8504 41.4853 12.8462C40.8245 12.8427 40.216 12.8391 39.6684 12.8391C32.3944 12.8391 26.793 11.5408 26.5581 11.4856C25.0001 11.1191 24.0344 9.55902 24.4009 8.00112C24.7674 6.44392 26.3282 5.47462 27.8826 5.84322C27.9342 5.85522 33.102 7.04322 39.6684 7.04322C40.2259 7.04322 40.8443 7.04672 41.5164 7.05032C49.3309 7.08922 63.8747 7.16992 74.5023 2.69622C75.9768 2.07362 77.6769 2.76772 78.2974 4.24282C78.9186 5.71802 78.2259 7.41672 76.7508 8.03792C66.2188 12.4719 52.7823 12.8554 44.1951 12.8554Z" fill="url(#paint1_linear_938_25168)"/>
</mask>
<g mask="url(#mask0_938_25168)">
<path id="Vector_2" d="M44.1951 12.8554C43.2265 12.8554 42.3195 12.8504 41.4853 12.8462C40.8245 12.8427 40.216 12.8391 39.6684 12.8391C32.3944 12.8391 26.793 11.5408 26.5581 11.4856C25.0001 11.1191 24.0344 9.55902 24.4009 8.00112C24.7674 6.44392 26.3282 5.47462 27.8826 5.84322C27.9342 5.85522 33.102 7.04322 39.6684 7.04322C40.2259 7.04322 40.8443 7.04672 41.5164 7.05032C49.3309 7.08922 63.8747 7.16992 74.5023 2.69622C75.9768 2.07362 77.6769 2.76772 78.2974 4.24282C78.9186 5.71802 78.2259 7.41672 76.7508 8.03792C66.2188 12.4719 52.7823 12.8554 44.1951 12.8554Z" fill="url(#paint2_radial_938_25168)"/>
</g>
</g>
</g>
<defs>
<radialGradient id="paint0_radial_938_25168" cx="0" cy="0" r="1" gradientUnits="userSpaceOnUse" gradientTransform="translate(44.3808 15.4015) scale(45.715 23.0084)">
<stop offset="0.7655" stop-color="#DB3165"/>
<stop offset="0.7969" stop-color="#DD3862"/>
<stop offset="0.842" stop-color="#E24B5A"/>
<stop offset="0.8953" stop-color="#EA6A4D"/>
<stop offset="0.9546" stop-color="#F5953B"/>
<stop offset="1" stop-color="#FFBB2B"/>
</radialGradient>
<linearGradient id="paint1_linear_938_25168" x1="24.3232" y1="7.66159" x2="77.4568" y2="2.46777" gradientUnits="userSpaceOnUse">
<stop stop-opacity="0"/>
<stop offset="0.18" stop-color="white"/>
<stop offset="0.82" stop-color="white"/>
<stop offset="1" stop-opacity="0"/>
</linearGradient>
<radialGradient id="paint2_radial_938_25168" cx="0" cy="0" r="1" gradientUnits="userSpaceOnUse" gradientTransform="translate(45.259 -1.69194) scale(51.0063 14.9193)">
<stop offset="0.6342" stop-color="#FFEBA6" stop-opacity="0"/>
<stop offset="0.7539" stop-color="#FFEBA6"/>
<stop offset="0.9093" stop-color="#FFEBA6" stop-opacity="0"/>
</radialGradient>
</defs>
</svg>
