<svg width="78" height="23" viewBox="0 0 78 23" fill="none" xmlns="http://www.w3.org/2000/svg">
<g id="R-ICO-013312">
<g id="RNA POL I">
<path d="M0.931396 11.5C0.931396 5.97715 5.40855 1.5 10.9314 1.5H65.9314C71.4542 1.5 75.9314 5.97715 75.9314 11.5C75.9314 17.0228 71.4542 21.5 65.9314 21.5H10.9314C5.40855 21.5 0.931396 17.0228 0.931396 11.5Z" fill="url(#paint0_linear_938_23580)"/>
<path d="M54.1397 2.99266C39.7369 2.87443 25.3342 2.52283 10.9314 1.64001C10.9314 1.54664 10.9314 1.45328 10.9314 1.35991C25.3342 0.477089 39.7369 0.125486 54.1397 0.00726104C58.0702 -0.0133567 62.0008 0.0121951 65.9314 0.0554016C69.6869 0.0594231 73.3339 2.09005 75.338 5.20692C76.5622 7.06411 77.2007 9.29733 77.1555 11.5C77.1914 17.4989 71.6584 22.6213 65.9321 22.2659C65.9318 22.2659 65.9316 22.2658 65.9314 22.2658C58.7302 22.0221 51.5283 21.8466 44.3273 21.953C37.1259 22.056 29.9239 22.4645 22.7225 22.6648C18.7921 22.7537 14.8618 22.7676 10.9314 22.7368C7.2431 22.7438 3.6578 20.7336 1.71815 17.6643C0.535879 15.8334 -0.0642338 13.6452 0.00551331 11.5C0.0358642 5.64968 5.53756 0.824183 10.9314 1.35991C10.9314 1.45328 10.9314 1.54664 10.9314 1.64001C5.67228 1.91661 1.5677 6.69689 1.85713 11.5C1.91719 13.2884 2.50508 15.0255 3.51932 16.4571C5.19594 18.8591 8.05485 20.3123 10.9314 20.2633C14.8617 20.2325 18.7921 20.2464 22.7225 20.3353C29.9239 20.5356 37.1259 20.9428 44.3273 21.0457C51.5284 21.1521 58.7301 20.978 65.9314 20.7342C65.9316 20.7342 65.9318 20.7342 65.932 20.7342C70.8585 20.637 74.9304 16.1539 74.7073 11.5C74.6718 9.76949 74.1227 8.07785 73.1508 6.6727C71.5388 4.31781 68.7412 2.88454 65.9314 2.94461C62.0008 2.98786 58.0701 3.01343 54.1397 2.99266Z" fill="url(#paint1_linear_938_23580)"/>
<text id="RNA POL I_2" fill="white" xml:space="preserve" style="white-space: pre" font-family="Arial" font-size="12" font-weight="bold" letter-spacing="0em"><tspan x="8.40796" y="15.6602">RNA POL I</tspan></text>
</g>
</g>
<defs>
<linearGradient id="paint0_linear_938_23580" x1="38.4314" y1="1.5" x2="38.4314" y2="21.5" gradientUnits="userSpaceOnUse">
<stop stop-color="#0E98A2"/>
<stop offset="1" stop-color="#042224"/>
</linearGradient>
<linearGradient id="paint1_linear_938_23580" x1="38.4314" y1="1.5" x2="38.4314" y2="21.5" gradientUnits="userSpaceOnUse">
<stop stop-color="#B78520"/>
<stop offset="1" stop-color="#A2317B"/>
</linearGradient>
</defs>
</svg>
