<svg width="53" height="23" viewBox="0 0 53 23" fill="none" xmlns="http://www.w3.org/2000/svg">
<g id="R-ICO-014377">
<g id="MMUT">
<path d="M1.10815 11.4849C1.10815 5.96202 5.58531 1.48486 11.1082 1.48486H41.1082C46.631 1.48486 51.1082 5.96202 51.1082 11.4849C51.1082 17.0077 46.631 21.4849 41.1082 21.4849H11.1082C5.58531 21.4849 1.10815 17.0077 1.10815 11.4849Z" fill="url(#paint0_linear_938_24007)"/>
<path d="M41.7124 2.99858C41.5105 2.98175 41.3116 2.97197 41.1082 2.96896C31.1081 2.84279 21.1082 2.48733 11.1082 1.62487C11.1082 1.5315 11.1082 1.43814 11.1082 1.34477C21.1082 0.482317 31.1081 0.126853 41.1082 0.000681996C41.3808 -0.00225198 41.6483 0.00418043 41.9209 0.0204766C47.7752 0.272074 52.6716 5.75032 52.4314 11.4849C52.4291 11.6191 52.4245 11.7527 52.4177 11.8858C52.2617 17.7977 46.6986 22.6801 41.1086 22.2507C41.1085 22.2507 41.1083 22.2507 41.1082 22.2507C35.9902 22.007 30.8718 21.8315 25.754 21.9378C20.8722 22.0361 15.99 22.4123 11.1082 22.6207C10.8435 22.6307 10.5833 22.6314 10.3179 22.6221C4.61402 22.5179 -0.291031 17.1135 0.0133582 11.4849C0.01685 11.3535 0.022668 11.2227 0.0307686 11.0926C0.249085 5.29689 5.8342 0.667805 11.1082 1.34477C11.1082 1.43814 11.1082 1.5315 11.1082 1.62487C5.98281 2.06133 2.10874 6.56602 2.19779 11.1681C2.19769 11.2733 2.19938 11.3789 2.20287 11.4849C2.2845 16.0027 6.05384 19.9023 10.4806 20.2982C10.6899 20.3221 10.8965 20.339 11.1082 20.3491C15.99 20.5574 20.8722 20.9324 25.754 21.0306C30.8719 21.1369 35.9901 20.9628 41.1082 20.7191C41.1083 20.7191 41.1084 20.7191 41.1086 20.7191C45.9176 20.5294 49.8124 16.2791 49.7864 11.7939C49.7877 11.6913 49.7873 11.5883 49.785 11.4849C49.7676 7.07277 45.9887 3.2468 41.7124 2.99858Z" fill="#008A31"/>
<text id="MMUT_2" fill="white" xml:space="preserve" style="white-space: pre" font-family="Arial" font-size="12" font-weight="bold" letter-spacing="0em"><tspan x="8.10815" y="15.645">MMUT</tspan></text>
</g>
</g>
<defs>
<linearGradient id="paint0_linear_938_24007" x1="26.1082" y1="1.48486" x2="26.1082" y2="21.4849" gradientUnits="userSpaceOnUse">
<stop stop-color="#008A31"/>
<stop offset="1" stop-color="#9F3600"/>
</linearGradient>
</defs>
</svg>
