<svg width="180" height="137" viewBox="0 0 180 137" fill="none" xmlns="http://www.w3.org/2000/svg">
<g id="R-ICO-014760">
<g id="LEGS BACK">
<g id="LEG_11_">
<path id="Vector" d="M127.81 29.5761C127.62 29.5541 127.499 29.5593 127.38 29.5652C127.274 29.5761 127.171 29.5883 127.106 29.615C126.958 29.6621 126.892 29.7406 126.86 29.8327L126.624 30.3675L126.153 31.437L125.225 33.5818C124.617 35.0162 124.014 36.452 123.435 37.8976C122.849 39.34 122.296 40.7959 121.743 42.251C121.209 43.714 120.668 45.1741 120.196 46.6614C120.027 47.195 120.323 47.7647 120.856 47.9338C121.348 48.0895 121.87 47.851 122.081 47.3955C122.74 45.9812 123.329 44.5396 123.925 43.1009C124.501 41.6544 125.079 40.2085 125.622 38.7493C126.174 37.2931 126.7 35.8273 127.223 34.36L127.99 32.1523L128.366 31.0456L128.554 30.4922C128.593 30.403 128.597 30.3001 128.52 30.1659C128.49 30.1019 128.422 30.0234 128.352 29.9436C128.268 29.8588 128.183 29.7734 128.027 29.6607C127.962 29.6131 127.886 29.5851 127.81 29.5761Z" fill="#3F1F04"/>
<path id="Vector_2" d="M133.449 61.2764C132.857 58.7438 132.4 56.1714 132.016 53.5874C131.638 51.0022 131.319 48.4053 131.048 45.8022C130.771 43.1997 130.53 40.592 130.3 37.9812C130.067 35.3703 129.854 32.757 129.593 30.1357C129.561 29.8159 129.276 29.5824 128.957 29.6142C128.637 29.646 128.403 29.9311 128.435 30.2509C128.436 30.259 128.437 30.267 128.438 30.2749L128.439 30.2797C128.814 32.8596 129.089 35.464 129.342 38.0699C129.595 40.6765 129.823 43.2875 130.06 45.8994C130.304 48.5107 130.541 51.1244 130.813 53.7383C131.083 56.3528 131.37 58.9691 131.716 61.5921C131.779 62.075 132.222 62.4148 132.705 62.3511C133.188 62.2874 133.528 61.8444 133.464 61.3615C133.46 61.3332 133.455 61.3039 133.449 61.2764Z" fill="#3F1F04"/>
<path id="Vector_3" d="M129.067 29.577L127.815 29.5197C127.479 29.5043 127.195 29.7639 127.18 30.0994C127.164 30.4349 127.424 30.7193 127.759 30.7347C127.778 30.7355 127.797 30.7355 127.815 30.7347L129.067 30.6774C129.371 30.6635 129.606 30.4059 129.592 30.1021C129.579 29.8159 129.348 29.5908 129.067 29.577Z" fill="#FCF3E2"/>
<path id="Vector_4" d="M152.901 71.8708C151.428 71.3159 149.991 70.654 148.564 69.9672C147.141 69.2703 145.735 68.5326 144.338 67.7761C142.939 67.0233 141.546 66.2549 140.157 65.4792L135.98 63.1578C135.759 63.0345 135.481 63.1135 135.357 63.3342C135.234 63.5549 135.313 63.8338 135.534 63.9571C135.539 63.96 135.547 63.9641 135.552 63.9668C136.971 64.6768 138.37 65.4269 139.76 66.1962C141.153 66.9592 142.535 67.7454 143.916 68.5365L148.069 70.9053C148.762 71.3033 149.458 71.698 150.161 72.0826L151.215 72.6648L152.277 73.2411C152.643 73.44 153.101 73.3042 153.3 72.9378C153.499 72.5714 153.363 72.1132 152.997 71.9143C152.967 71.8983 152.937 71.8845 152.907 71.8728L152.901 71.8708Z" fill="#3F1F04"/>
<path id="Vector_5" d="M136.004 62.9643C135.83 62.6992 135.614 62.5136 135.384 62.3539C135.154 62.1939 134.901 62.0772 134.645 61.9647C134.39 61.8534 134.127 61.7552 133.855 61.6734C133.583 61.5934 133.303 61.5269 133.004 61.4977C132.762 61.4741 132.546 61.6513 132.523 61.8933C132.511 62.0143 132.55 62.1297 132.622 62.2167C132.814 62.4485 133.025 62.643 133.244 62.824C133.464 63.0032 133.692 63.1659 133.928 63.3156C134.164 63.4641 134.402 63.6083 134.664 63.7093C134.925 63.8106 135.2 63.8859 135.517 63.8818C135.844 63.8776 136.106 63.6089 136.101 63.2818C136.1 63.1643 136.064 63.0557 136.004 62.9643Z" fill="#FCF3E2"/>
<path id="Vector_6" d="M179.584 74.7986C179.294 74.7547 178.975 74.7429 178.67 74.7809C178.366 74.8186 178.086 74.8891 177.821 74.9632C177.293 75.1166 176.8 75.2836 176.296 75.432C175.296 75.7329 174.274 76.0213 173.275 76.2036C172.775 76.2928 172.288 76.3362 171.795 76.3356C171.302 76.3314 170.795 76.2859 170.278 76.2388C169.761 76.1898 169.238 76.1335 168.712 76.1118C168.187 76.0873 167.66 76.0703 167.136 76.0258C166.09 75.9309 165.056 75.7131 164.044 75.4723C163.54 75.3431 163.038 75.2385 162.574 75.0909C162.071 74.9342 161.561 74.7981 161.05 74.6656C160.54 74.5307 160.027 74.4057 159.518 74.2646C159.01 74.1234 158.506 73.9687 158 73.8177C156.989 73.5184 155.983 73.1997 154.982 72.8659C154.699 72.7714 154.394 72.9238 154.299 73.2063C154.205 73.4888 154.357 73.7945 154.639 73.889C154.649 73.8923 154.661 73.8958 154.671 73.8985C155.691 74.172 156.706 74.4605 157.716 74.7684C158.221 74.921 158.727 75.0699 159.229 75.2323C159.731 75.3948 160.229 75.5735 160.729 75.7422C161.229 75.9134 161.73 76.0809 162.236 76.2278C162.783 76.388 163.322 76.4739 163.854 76.5356C164.388 76.6002 164.918 76.6506 165.447 76.7015C165.976 76.756 166.502 76.8219 167.025 76.9041C167.549 76.991 168.069 77.0992 168.593 77.1914C169.116 77.2852 169.642 77.3408 170.176 77.3868C170.71 77.4318 171.257 77.4627 171.82 77.4355C172.382 77.4098 172.946 77.3239 173.478 77.1947C174.544 76.9372 175.546 76.6186 176.566 76.3104C177.071 76.1524 177.58 75.9862 178.068 75.8522C178.311 75.7862 178.546 75.7318 178.766 75.7149C178.987 75.6959 179.199 75.71 179.43 75.7523C179.692 75.8004 179.944 75.6267 179.992 75.3643C180.04 75.1019 179.867 74.8501 179.604 74.802C179.6 74.8012 179.596 74.8005 179.592 74.7998L179.584 74.7986Z" fill="#3F1F04"/>
<path id="Vector_7" d="M155.448 73.0054L153.318 71.8878C152.939 71.6888 152.47 71.8349 152.271 72.2141C152.072 72.5933 152.218 73.062 152.598 73.261C152.657 73.2923 152.723 73.3157 152.786 73.3304L155.131 73.8651C155.379 73.9218 155.627 73.7661 155.684 73.5173C155.731 73.3086 155.629 73.1005 155.448 73.0054Z" fill="#FCF3E2"/>
</g>
<g id="LEG_10_">
<path id="Vector_8" d="M107.363 21.8576C107.357 23.5113 107.31 25.1616 107.235 26.8095C107.155 28.4571 107.062 30.1037 106.942 31.748C106.828 33.3929 106.701 35.0366 106.555 36.6788C106.411 38.3212 106.246 39.9618 106.052 41.6002C106.015 41.9195 106.243 42.2089 106.562 42.2466C106.882 42.2843 107.171 42.0559 107.209 41.7366C107.21 41.7231 107.212 41.7082 107.212 41.6948C107.287 40.0468 107.39 38.401 107.514 36.7571C107.636 35.1129 107.777 33.4703 107.931 31.8288C108.079 30.1868 108.255 28.5469 108.443 26.9081C108.635 25.2697 108.856 23.6336 109.119 22.0009C109.196 21.5191 108.868 21.0659 108.386 20.9884C107.905 20.911 107.451 21.2388 107.374 21.7205C107.367 21.7648 107.363 21.8139 107.363 21.8576Z" fill="#3F1F04"/>
<path id="Vector_9" d="M111.262 41.0526L111.383 41.004L111.473 40.9592C111.53 40.9297 111.598 40.8987 111.647 40.8703C111.735 40.8145 111.82 40.7591 111.865 40.7087C111.971 40.6059 111.994 40.5134 111.978 40.426L111.933 39.8945L111.843 38.8315L111.646 36.7072C111.503 35.2925 111.356 33.8782 111.182 32.4672C111.017 31.0551 110.815 29.6478 110.615 28.2404C110.393 26.8358 110.18 25.4301 109.892 24.0348C109.779 23.4864 109.242 23.1336 108.694 23.2467C108.193 23.35 107.856 23.8062 107.887 24.3023L107.887 24.3072C107.976 25.7278 108.138 27.1382 108.293 28.5496C108.469 29.9582 108.643 31.3669 108.854 32.7708C109.057 34.1759 109.286 35.5776 109.519 36.9789L109.887 39.0786L110.079 40.1276L110.174 40.6521C110.181 40.7406 110.228 40.8242 110.358 40.8974C110.415 40.935 110.512 40.9676 110.612 40.9998C110.665 41.0154 110.74 41.0285 110.803 41.0429L110.902 41.0641L111.031 41.0815C111.111 41.0925 111.192 41.0806 111.262 41.0526Z" fill="#3F1F04"/>
<path id="Vector_10" d="M109.886 23.9051C109.886 23.6459 109.853 23.3958 109.805 23.1494C109.757 22.9032 109.694 22.6611 109.618 22.4223C109.542 22.1835 109.457 21.9471 109.339 21.7196C109.219 21.4925 109.083 21.2698 108.881 21.0645C108.529 20.7056 107.952 20.7006 107.593 21.0534C107.472 21.1722 107.39 21.3202 107.35 21.4729C107.277 21.7513 107.27 22.0122 107.279 22.2688C107.29 22.525 107.334 22.7722 107.387 23.0171C107.44 23.262 107.506 23.5035 107.587 23.741C107.668 23.9783 107.764 24.2118 107.893 24.4363C108.188 24.947 108.841 25.1222 109.351 24.8277C109.693 24.6309 109.884 24.2725 109.886 23.9051Z" fill="#FCF3E2"/>
</g>
<g id="LEG_9_">
<path id="Vector_11" d="M28.2717 3.75896L24.0815 0.0918629C23.9272 -0.0431371 23.6927 -0.0275371 23.5577 0.126763C23.4305 0.272063 23.4381 0.489663 23.5681 0.627163L27.4065 4.66106C27.6447 4.91136 28.0406 4.92116 28.2909 4.68306C28.5412 4.44486 28.551 4.04896 28.3129 3.79866C28.2999 3.78486 28.2856 3.77116 28.2717 3.75896Z" fill="#3F1F04"/>
<path id="Vector_12" d="M38.9096 15.6635C37.5851 14.3245 36.3435 12.9151 35.1223 11.4885C33.9093 10.0548 32.7171 8.60352 31.6085 7.08132C31.3629 6.74402 30.8904 6.66972 30.5532 6.91532C30.2159 7.16092 30.1416 7.63342 30.3872 7.97062C30.4087 8.00022 30.435 8.03072 30.4598 8.05622C31.7817 9.39742 33.02 10.8096 34.2375 12.2394C35.4466 13.6763 36.6356 15.1304 37.7415 16.6549C37.9907 16.9983 38.471 17.0748 38.8145 16.8256C39.1579 16.5764 39.2343 16.0961 38.9852 15.7526C38.9628 15.7218 38.9354 15.69 38.9096 15.6635Z" fill="#3F1F04"/>
<path id="Vector_13" d="M53.3453 28.3426C52.3688 27.6441 51.4153 26.9179 50.4691 26.1828C49.5237 25.4468 48.5891 24.6977 47.6605 23.9415C46.737 23.1791 45.8074 22.4239 44.9046 21.6367C44.0078 20.8421 43.1342 20.0196 42.3331 19.1095C42.0526 18.7908 41.5669 18.7598 41.2482 19.0403C40.9295 19.3208 40.8985 19.8065 41.179 20.1252C41.2328 20.1863 41.2972 20.2384 41.3635 20.2782C42.4058 20.8974 43.3755 21.6042 44.322 22.3388C45.2624 23.0808 46.1763 23.8549 47.096 24.6218C48.0107 25.3949 48.9195 26.175 49.8174 26.9683C50.7145 27.7625 51.6044 28.5655 52.4711 29.3963C52.7448 29.6586 53.1793 29.6494 53.4416 29.3757C53.7039 29.102 53.6947 28.6676 53.421 28.4053C53.398 28.3833 53.3705 28.3609 53.3453 28.3426Z" fill="#3F1F04"/>
<path id="Vector_14" d="M78.4714 44.7818C76.6895 43.7904 74.9222 42.7749 73.1718 41.7318C71.4193 40.6919 69.6765 39.6362 67.9421 38.5668C66.2087 37.4956 64.476 36.4232 62.761 35.3219L60.1869 33.6724C59.336 33.1109 58.4785 32.5601 57.6342 31.9878C57.2962 31.7587 56.8365 31.847 56.6074 32.185C56.3783 32.523 56.4666 32.9827 56.8046 33.2118C56.8246 33.2253 56.846 33.2382 56.8667 33.2496C57.7632 33.7362 58.6467 34.2442 59.5366 34.7415L62.1852 36.2685C63.952 37.2848 65.7011 38.3302 67.4495 39.3766C69.1969 40.4248 70.9359 41.4868 72.6653 42.5646C74.3967 43.6391 76.1112 44.7413 77.8111 45.8675C78.1038 46.0614 78.4984 45.9814 78.6923 45.6886C78.8863 45.3959 78.8062 45.0013 78.5134 44.8074C78.5 44.7985 78.4852 44.7895 78.4714 44.7818Z" fill="#3F1F04"/>
<path id="Vector_15" d="M99.1064 22.3257C97.9453 24.5555 96.6492 26.6986 95.3322 28.8283C94.6677 29.8893 93.9887 30.941 93.3016 31.9875L91.2205 35.1144L89.1139 38.2249L86.9783 41.3168C85.5358 43.366 84.0859 45.4104 82.5756 47.4161C82.2118 47.8993 82.3085 48.586 82.7917 48.9498C83.2749 49.3136 83.9615 49.2169 84.3254 48.7337C84.3575 48.691 84.3889 48.6412 84.4139 48.5957C85.6079 46.3871 86.8622 44.2171 88.124 42.0519L90.0449 38.8222L91.9947 35.6111L93.97 32.4164C94.635 31.3557 95.3081 30.3002 95.9958 29.2541C97.383 27.1694 98.7912 25.0982 100.334 23.1136C100.583 22.7942 100.525 22.3339 100.206 22.0855C99.8864 21.8371 99.4261 21.8947 99.1777 22.2141C99.1511 22.2487 99.1262 22.2884 99.1064 22.3257Z" fill="#3F1F04"/>
<path id="Vector_16" d="M105.979 41.3191L106.093 41.2561L106.177 41.2004C106.23 41.1639 106.295 41.1247 106.339 41.0905C106.42 41.024 106.498 40.9583 106.537 40.9022C106.631 40.7862 106.644 40.6903 106.618 40.604L106.513 40.0734L106.302 39.0123L105.867 36.8939C105.564 35.4846 105.258 34.0763 104.925 32.6743C104.601 31.2703 104.241 29.8752 103.883 28.4797C103.504 27.0893 103.133 25.6971 102.688 24.3229C102.516 23.7901 101.945 23.4978 101.412 23.67C100.925 23.8275 100.639 24.3191 100.725 24.8095C100.974 26.2321 101.296 27.6366 101.61 29.0431C101.945 30.4444 102.278 31.8461 102.647 33.2389C103.008 34.6338 103.395 36.0222 103.785 37.4097L104.389 39.4865L104.699 40.523L104.854 41.0412C104.871 41.1297 104.927 41.2086 105.064 41.2674C105.124 41.2987 105.224 41.3204 105.327 41.3413C105.382 41.3508 105.458 41.3553 105.522 41.3625L105.622 41.3724L105.752 41.375C105.834 41.3768 105.912 41.3557 105.979 41.3191Z" fill="#3F1F04"/>
<path id="Vector_17" d="M31.746 6.89176L28.3526 3.72146C28.0661 3.45376 27.6169 3.46906 27.3492 3.75556C27.1008 4.02136 27.0962 4.42736 27.3256 4.69826L30.3224 8.24586C30.6731 8.66106 31.294 8.71326 31.7092 8.36256C32.1244 8.01186 32.1766 7.39096 31.8259 6.97576C31.8019 6.94736 31.7724 6.91676 31.746 6.89176Z" fill="#FCF3E2"/>
<path id="Vector_18" d="M42.5441 19.0002L38.9103 15.5764C38.5783 15.2636 38.0555 15.2791 37.7427 15.6111C37.4424 15.9298 37.4465 16.4262 37.7408 16.742L41.1526 20.3871C41.5235 20.7834 42.1455 20.804 42.5418 20.433C42.9381 20.0621 42.9587 19.4401 42.5878 19.0438C42.5742 19.0295 42.5582 19.0136 42.5441 19.0002Z" fill="#FCF3E2"/>
<path id="Vector_19" d="M57.8923 31.8748L53.4478 28.2444C53.0945 27.9558 52.5743 28.0083 52.2857 28.3616C52.0072 28.7025 52.0481 29.2006 52.3687 29.4943L56.6083 33.362C57.0093 33.7278 57.6309 33.6993 57.9966 33.2983C58.3623 32.8973 58.3339 32.2758 57.9329 31.91C57.9204 31.8985 57.9052 31.8855 57.8923 31.8748Z" fill="#FCF3E2"/>
<path id="Vector_20" d="M83.9347 47.1275L78.5109 44.5865C78.0978 44.393 77.6061 44.571 77.4126 44.984C77.2256 45.3832 77.3876 45.857 77.7715 46.0629L83.0549 48.8842C83.5337 49.1399 84.129 48.959 84.3847 48.4802C84.6404 48.0014 84.4595 47.4061 83.9807 47.1504C83.9665 47.143 83.9492 47.1344 83.9347 47.1275Z" fill="#FCF3E2"/>
<path id="Vector_21" d="M102.515 23.6971L100.283 22.1149C99.9075 21.8489 99.3876 21.9375 99.1216 22.3128C98.8994 22.6263 98.9253 23.0411 99.1583 23.3241L100.898 25.4358C101.319 25.9463 102.074 26.0192 102.584 25.5986C103.095 25.178 103.168 24.4232 102.747 23.9127C102.679 23.8305 102.598 23.7564 102.515 23.6971Z" fill="#FCF3E2"/>
</g>
</g>
<g id="BODY">
<path id="Vector_22" d="M100.615 57.8791C97.3937 52.2809 83.661 59.7575 79.0653 66.9156C77.7157 69.0177 76.4557 72.0508 74.2114 73.1479C73.7033 73.3963 73.2234 73.692 72.8125 74.1115C72.3793 74.5537 72.0802 75.1249 72.0715 75.7439C72.045 77.6271 75.4624 79.4313 80.3632 78.2267C89.3333 76.022 102.472 61.6115 100.615 57.8791Z" fill="url(#paint0_radial_938_25823)"/>
<g id="THORAX_1_">
<path id="Vector_23" d="M116.477 66.3109C113.278 68.7673 103.851 67.9971 98.7443 57.5609C92.7995 45.4117 99.2612 38.1538 106.154 40.6897C113.046 43.2256 128.092 57.3915 116.477 66.3109Z" fill="url(#paint1_radial_938_25823)"/>
<path id="Vector_24" d="M123.469 63.9697C120.422 66.1753 111.442 65.4837 106.578 56.1132C100.915 45.2047 107.07 38.6879 113.636 40.9649C120.201 43.2418 134.534 55.9612 123.469 63.9697Z" fill="url(#paint2_radial_938_25823)"/>
<path id="Vector_25" d="M118.658 47.0284C115.847 49.7241 116.951 65.1016 125.486 61.9008C134.022 58.7 123.675 42.2173 118.658 47.0284Z" fill="url(#paint3_radial_938_25823)"/>
</g>
<g id="SPOTS_1_">
<path id="Vector_26" d="M111.283 42.1528C111.026 42.2444 110.55 42.3758 110.359 42.6943C110.168 43.0128 107.652 42.8217 107.652 42.4236C107.652 42.0255 109.623 40.299 110.432 40.92C111.241 41.5408 111.405 42.1091 111.283 42.1528Z" fill="#FCF3E2"/>
<path id="Vector_27" d="M109.215 44.0587C108.964 44.4082 108.13 44.9848 107.913 45.8385C107.696 46.6922 106.828 46.9093 105.786 46.2871C104.744 45.6649 105.366 43.7259 106.48 43.3786C107.594 43.0313 108.376 43.176 108.81 43.3786C109.244 43.5812 109.457 43.721 109.215 44.0587Z" fill="#FCF3E2"/>
<path id="Vector_28" d="M107.392 47.6159C107.295 48.021 107.175 48.2982 107.189 48.6745C107.204 49.0507 106.972 49.3835 105.974 49.3691C104.975 49.3546 104.454 49.3818 104.454 48.4928C104.454 47.6038 105.077 46.6707 106.075 47.0287C107.073 47.3867 107.439 47.4196 107.392 47.6159Z" fill="#FCF3E2"/>
<path id="Vector_29" d="M117.197 46.299C116.983 46.728 115.515 46.1607 114.893 45.9763C114.27 45.7919 112.657 45.8637 112.104 46.2081C111.551 46.5525 109.015 46.2759 109.015 46.0454C109.015 45.8149 109.195 45.4231 109.485 45.5383C109.776 45.6535 111.113 45.5613 111.666 45.4C112.219 45.2387 112.887 45.1039 112.219 44.9062C111.551 44.7085 110.882 43.8096 111.205 43.6713C111.528 43.533 111.551 43.994 112.104 44.017C112.657 44.04 112.887 44.1783 112.98 44.5241C113.072 44.8698 113.441 45.1499 113.878 44.9062C114.316 44.6625 115.261 44.939 115.653 45.2617C116.045 45.5844 115.953 46.0684 116.368 45.9301C116.783 45.7918 117.359 45.9763 117.197 46.299Z" fill="#FCF3E2"/>
<path id="Vector_30" d="M82.2213 77.0837C82.2551 76.5768 80.5315 74.4814 79.1121 74.549C77.6927 74.6166 77.0506 75.8332 77.6589 76.5429C78.2672 77.2526 79.5853 78.4355 80.9033 77.7595C82.2213 77.0837 82.2213 77.0837 82.2213 77.0837Z" fill="#FCF3E2"/>
<path id="Vector_31" d="M81.9172 73.1296C81.6233 72.597 82.8973 70.8991 83.7422 70.6963C84.5871 70.4935 86.8176 70.1218 87.2232 70.6963C87.6287 71.2708 87.3139 73.3324 86.0688 73.5013C84.8236 73.6703 82.4579 74.1097 81.9172 73.1296Z" fill="#FCF3E2"/>
<path id="Vector_32" d="M88.4241 69.2861C87.9237 68.7142 87.8837 66.9805 88.7123 66.6563C89.5409 66.3321 90.5136 65.3234 91.7024 65.6836C92.8912 66.0438 94.9807 65.8138 95.0167 66.217C95.0527 66.6203 94.5484 67.1759 92.9993 66.9161C91.4502 66.6563 91.7235 67.1246 91.6229 67.629C91.5223 68.1333 89.685 70.7272 88.4241 69.2861Z" fill="#FCF3E2"/>
<path id="Vector_33" d="M93.2515 64.1704C92.7144 63.5909 94.5124 61.575 95.377 61.6118C96.2416 61.6486 97.5025 62.4412 96.782 63.5219C96.0615 64.6026 94.6205 65.6474 93.2515 64.1704Z" fill="#FCF3E2"/>
<path id="Vector_34" d="M93.8639 61.0002C93.3493 61.7261 92.0987 63.1617 91.126 62.153C90.1533 61.1443 90.2254 60.0996 90.7297 59.8114C91.234 59.5232 92.1347 58.8747 92.6751 59.5232C93.2155 60.1717 94.1414 60.6088 93.8639 61.0002Z" fill="#FCF3E2"/>
<path id="Vector_35" d="M87.3899 66.4093C86.8545 66.8261 85.0578 67.1607 85.6647 63.8084C86.2716 60.4561 86.8495 61.9589 87.0807 62.797C87.3119 63.6351 87.8725 66.0337 87.3899 66.4093Z" fill="#FCF3E2"/>
<path id="Vector_36" d="M82.8037 69.2994C82.7183 69.8862 81.0987 70.5678 80.7519 69.7169C80.4051 68.8659 80.0583 66.7563 81.2721 66.0628C82.4858 65.3692 83.157 66.8707 82.8037 69.2994Z" fill="#FCF3E2"/>
<path id="Vector_37" d="M78.0644 73.0272C77.4126 73.7239 75.608 71.7557 76.764 70.5708C77.9199 69.386 78.9024 72.1313 78.0644 73.0272Z" fill="#FCF3E2"/>
<path id="Vector_38" d="M126.598 61.354C132.717 57.4266 120.483 45.5691 118.658 47.0285C117.418 47.7673 120.695 50.0747 123.478 53.0452C126.68 56.4633 129.174 60.1589 125.486 61.9009L126.598 61.354Z" fill="#FCF3E2"/>
</g>
<g id="WINGS_1_">
<path id="Vector_39" opacity="0.5" d="M54.9109 52.281C53.856 47.9771 64.2428 44.9127 70.126 43.8984C76.0092 42.8841 106.338 38.9281 106.845 44.4056C107.352 49.8831 108.498 52.7812 86.0687 54.4028C73.9943 55.2757 55.7223 55.5919 54.9109 52.281Z" fill="#7C7262"/>
<path id="Vector_40" opacity="0.5" d="M56.3105 50.415C55.2556 46.1111 65.6424 43.0467 71.5256 42.0324C77.4088 41.0181 111.618 37.1779 108.303 41.5675C104.469 46.6438 104.542 51.158 87.4683 52.5368C75.4016 53.5112 57.1219 53.7259 56.3105 50.415Z" fill="#7C7262"/>
</g>
</g>
<g id="LEGS FRONT">
<g id="LEG_8_">
<path id="Vector_41" d="M114.33 67.3188C114.091 66.3118 113.904 65.2967 113.728 64.2798C113.558 63.2619 113.401 62.2421 113.266 61.2188C113.126 60.1961 112.996 59.1719 112.885 58.1447C112.771 57.118 112.675 56.0882 112.605 55.0546C112.529 53.9593 111.581 53.1322 110.485 53.2074C109.39 53.2825 108.563 54.2314 108.638 55.3267C108.646 55.4431 108.667 55.5672 108.694 55.6768C108.947 56.6814 109.176 57.6898 109.386 58.7012C109.599 59.7122 109.794 60.7262 109.978 61.7416C110.167 62.7565 110.334 63.7748 110.488 64.7951C110.637 65.8164 110.774 66.8394 110.86 67.8706C110.941 68.8402 111.792 69.5606 112.762 69.4798C113.731 69.399 114.452 68.5475 114.371 67.578C114.364 67.4929 114.348 67.3999 114.33 67.3188Z" fill="#3F1F04"/>
<path id="Vector_42" d="M113.144 69.0263L113.263 68.9755L113.352 68.9296C113.408 68.8995 113.476 68.8675 113.524 68.8388C113.611 68.7828 113.694 68.7274 113.738 68.6786C113.842 68.5782 113.864 68.4914 113.846 68.4111L113.791 67.9207L113.681 66.9399L113.445 64.9809C113.276 63.6769 113.103 62.3736 112.903 61.0746C112.712 59.7742 112.485 58.4799 112.259 57.1852C112.012 55.894 111.773 54.6016 111.46 53.3214C111.327 52.7772 110.777 52.444 110.233 52.5771C109.74 52.6977 109.42 53.1602 109.464 53.6508C109.578 54.9638 109.767 56.2646 109.948 57.5666C110.15 58.8651 110.351 60.164 110.588 61.4568C110.816 62.751 111.071 64.0409 111.329 65.3301L111.736 67.2609L111.947 68.225L112.052 68.7071C112.061 68.7889 112.11 68.8642 112.24 68.9258C112.298 68.958 112.395 68.9836 112.495 69.0087C112.549 69.0206 112.623 69.0291 112.686 69.0395L112.785 69.0544L112.914 69.0643C112.995 69.0705 113.075 69.0558 113.144 69.0263Z" fill="#3F1F04"/>
<path id="Vector_43" d="M138.84 97.905C140.247 99.135 141.624 100.398 142.967 101.699C143.637 102.35 144.303 103.007 144.991 103.639C145.335 103.956 145.68 104.271 146.049 104.559C146.416 104.848 146.792 105.129 147.151 105.428C147.507 105.731 147.849 106.049 148.18 106.38L149.158 107.389C149.8 108.065 150.503 108.707 151.205 109.286C151.543 109.571 151.864 109.866 152.134 110.204C152.406 110.54 152.63 110.92 152.866 111.324C153.102 111.726 153.351 112.146 153.622 112.548C153.896 112.95 154.187 113.337 154.484 113.717C154.668 113.952 155.007 113.993 155.242 113.81C155.477 113.626 155.518 113.287 155.334 113.052C155.326 113.041 155.317 113.031 155.308 113.02L155.304 113.017C154.689 112.347 154.175 111.632 153.722 110.823C153.264 110.013 152.671 109.138 151.964 108.458C151.288 107.778 150.61 107.162 149.873 106.58L148.781 105.702C148.422 105.404 148.074 105.093 147.74 104.767C147.409 104.437 147.095 104.088 146.772 103.749C146.451 103.408 146.106 103.094 145.76 102.781C145.068 102.155 144.354 101.554 143.645 100.948C142.228 99.7324 140.845 98.4787 139.492 97.1925L139.491 97.1911C139.298 97.0072 138.992 97.0149 138.808 97.2083C138.624 97.4017 138.632 97.7076 138.825 97.8914C138.83 97.8957 138.836 97.9009 138.84 97.905Z" fill="#3F1F04"/>
<path id="Vector_44" d="M122.56 82.7729C123.787 83.7874 124.979 84.8391 126.172 85.8898C127.357 86.9483 128.532 88.0184 129.696 89.0991C130.864 90.1766 132.024 91.2618 133.172 92.3594C134.326 93.4518 135.47 94.5533 136.598 95.6727C136.778 95.8508 137.067 95.8498 137.246 95.6703C137.424 95.4909 137.423 95.201 137.243 95.0229C137.239 95.0183 137.233 95.0127 137.228 95.0084C136.05 93.9422 134.889 92.858 133.736 91.7647C132.579 90.6766 131.433 89.5761 130.295 88.4679C129.153 87.363 128.022 86.2473 126.901 85.1202C125.788 83.9852 124.674 82.8512 123.596 81.68C123.313 81.3734 122.836 81.3537 122.529 81.6361C122.223 81.9185 122.203 82.3959 122.485 82.7026C122.508 82.7269 122.535 82.7522 122.56 82.7729Z" fill="#3F1F04"/>
<path id="Vector_45" d="M136.375 95.8895L138.846 97.8758C139.044 98.0351 139.334 98.0036 139.493 97.8054C139.633 97.6312 139.625 97.3861 139.487 97.2212L137.451 94.7911C137.177 94.464 136.69 94.421 136.363 94.695C136.036 94.969 135.993 95.4563 136.267 95.7834C136.299 95.822 136.337 95.859 136.375 95.8895Z" fill="#FCF3E2"/>
<path id="Vector_46" d="M111.499 56.3132C111.788 57.318 112.068 58.2919 112.368 59.2728C112.663 60.2517 112.96 61.2283 113.266 62.2017C113.867 64.1513 114.51 66.086 115.17 68.0143C115.496 68.9798 115.852 69.9349 116.192 70.8957L116.731 72.3265C116.906 72.8052 117.087 73.2816 117.278 73.7543L117.838 75.1782L118.423 76.5927L118.711 77.3019L119.018 78.0038C119.225 78.4709 119.424 78.9414 119.624 79.4125C119.749 79.7087 120.091 79.8473 120.387 79.7221C120.683 79.5969 120.822 79.2552 120.696 78.959C120.692 78.948 120.687 78.9372 120.682 78.9266L120.674 78.9109C119.772 77.1088 118.913 75.2796 118.173 73.3992C117.416 71.5265 116.728 69.6243 116.111 67.6993C115.484 65.778 114.924 63.8339 114.433 61.8739C113.945 59.9178 113.522 57.9252 113.224 55.9551L113.221 55.9372C113.148 55.4549 112.698 55.1231 112.216 55.1961C111.734 55.2691 111.402 55.7192 111.475 56.2015C111.48 56.238 111.49 56.2785 111.499 56.3132Z" fill="#3F1F04"/>
<path id="Vector_47" d="M119.773 79.5208C119.907 79.8815 120.106 80.18 120.326 80.4582C120.546 80.7366 120.802 80.9813 121.06 81.2225C121.32 81.4629 121.591 81.693 121.875 81.9103C122.163 82.1238 122.455 82.3329 122.784 82.5076C122.993 82.6188 123.252 82.5394 123.364 82.3303C123.429 82.2065 123.427 82.0629 123.372 81.945C123.213 81.6089 123.017 81.3073 122.817 81.01C122.612 80.7165 122.395 80.4359 122.166 80.1655C121.937 79.896 121.704 79.6299 121.436 79.3976C121.168 79.1651 120.879 78.9529 120.524 78.8028C120.237 78.6809 119.904 78.8154 119.783 79.1031C119.724 79.2412 119.725 79.3906 119.773 79.5208Z" fill="#FCF3E2"/>
<path id="Vector_48" d="M109.624 54.0869C109.728 54.3468 109.86 54.5863 110.004 54.8173C110.148 55.0479 110.306 55.2693 110.474 55.4831C110.642 55.6969 110.817 55.9054 111.021 56.0935C111.226 56.2808 111.444 56.4583 111.718 56.5962C112.159 56.8184 112.697 56.641 112.919 56.1999C113.004 56.0304 113.03 55.8469 113.006 55.6723C112.963 55.3688 112.864 55.1049 112.753 54.8509C112.64 54.5977 112.498 54.3648 112.35 54.1371C112.201 53.9095 112.042 53.6895 111.87 53.4787C111.697 53.2683 111.512 53.0664 111.299 52.885C110.853 52.5046 110.183 52.5581 109.802 53.0046C109.538 53.3144 109.484 53.7332 109.624 54.0869Z" fill="#FCF3E2"/>
</g>
<g id="LEG_7_">
<path id="Vector_49" d="M104.35 65.0174C104.46 64.2293 104.62 63.4532 104.792 62.6798C104.969 61.9079 105.159 61.139 105.37 60.3752C105.578 59.6105 105.794 58.8479 106.029 58.0899C106.264 57.3317 106.508 56.5757 106.787 55.8284C107.174 54.7966 106.651 53.6469 105.619 53.2605C104.587 52.8741 103.437 53.3973 103.051 54.4291C102.994 54.5821 102.956 54.7478 102.937 54.9031C102.847 55.696 102.721 56.4802 102.585 57.2621C102.45 58.0443 102.297 58.8219 102.134 59.5973C101.975 60.3737 101.795 61.1449 101.602 61.9132C101.403 62.68 101.194 63.4442 100.934 64.1963C100.615 65.1176 101.104 66.1227 102.025 66.4413C102.946 66.7599 103.951 66.2713 104.27 65.35C104.307 65.2431 104.334 65.1255 104.35 65.0174Z" fill="#3F1F04"/>
<path id="Vector_50" d="M3.95822 39.3374L0.649819 35.5654C0.514619 35.4112 0.280019 35.3959 0.125819 35.5311C-0.0183813 35.6576 -0.0400813 35.8724 0.0682187 36.0256L2.97812 40.1129C3.17852 40.3944 3.56922 40.4602 3.85072 40.2597C4.13232 40.0593 4.19802 39.6686 3.99762 39.3871C3.98532 39.3699 3.97182 39.3529 3.95822 39.3374Z" fill="#3F1F04"/>
<path id="Vector_51" d="M15.8273 49.2463C14.363 48.3919 12.9613 47.4486 11.5748 46.4834C10.1946 45.5094 8.83022 44.513 7.52882 43.427C7.20832 43.1595 6.73162 43.2025 6.46412 43.523C6.19662 43.8435 6.23962 44.3202 6.56012 44.5877C6.59152 44.6139 6.62812 44.6392 6.66222 44.6595C8.12452 45.5167 9.52382 46.4636 10.9073 47.4328C12.2846 48.4109 13.6466 49.4108 14.946 50.4996C15.2715 50.7723 15.7563 50.7295 16.029 50.4041C16.3017 50.0787 16.259 49.5938 15.9335 49.3211C15.9009 49.2936 15.8628 49.2673 15.8273 49.2463Z" fill="#3F1F04"/>
<path id="Vector_52" d="M34.0264 56.9198C32.8475 56.5641 31.6835 56.1835 30.5199 55.7957C29.3571 55.4075 28.1983 55.0086 27.039 54.6093L23.5603 53.4022L22.6918 53.0852L21.8204 52.7595L20.9315 52.4302C20.7816 52.376 20.6233 52.3233 20.4612 52.2698C20.382 52.2427 20.2851 52.2218 20.1971 52.1951L20.1275 52.1765L20.0381 52.1618L19.8567 52.1367L19.8466 52.1353C19.4245 52.0768 19.035 52.3716 18.9765 52.7937C18.918 53.2158 19.2128 53.6053 19.6349 53.6638C19.7243 53.6762 19.8152 53.6719 19.8988 53.6547C19.9142 53.6515 19.9301 53.6472 19.9465 53.642L19.9717 53.6335C19.9835 53.6317 20.0011 53.632 20.0156 53.6312C20.0785 53.6294 20.1339 53.6248 20.2044 53.6298C20.3423 53.6363 20.4832 53.6472 20.6298 53.6689C20.9208 53.7023 21.2164 53.7624 21.5124 53.8196C21.8075 53.8831 22.1025 53.9533 22.3975 54.0266L23.2771 54.2697C24.4437 54.6203 25.5937 55.0328 26.7439 55.4428C27.8915 55.8612 29.0334 56.2969 30.1675 56.7538C31.3004 57.2121 32.4298 57.6863 33.539 58.1994L33.5402 58.2C33.8842 58.3592 34.2922 58.2093 34.4513 57.8653C34.6105 57.5213 34.4606 57.1134 34.1166 56.9542C34.088 56.9408 34.0554 56.9287 34.0264 56.9198Z" fill="#3F1F04"/>
<path id="Vector_53" d="M62.8757 63.2401C60.9071 62.9506 58.9437 62.6334 56.9863 62.2844C55.0282 61.9392 53.0735 61.5757 51.1218 61.1964C49.1704 60.8151 47.2193 60.4325 45.2745 60.0165L42.3567 59.3955C41.3866 59.1751 40.4142 58.9669 39.4465 58.7341C39.0495 58.6386 38.6502 58.883 38.5547 59.28C38.4592 59.677 38.7036 60.0763 39.1006 60.1718C39.1247 60.1776 39.1498 60.1822 39.1738 60.1856C40.16 60.3198 41.1417 60.4787 42.1256 60.6254L45.0699 61.1055C47.0331 61.4236 48.9901 61.7752 50.9468 62.128C52.9031 62.4829 54.8565 62.8535 56.8064 63.2424C58.7571 63.6275 60.7017 64.0444 62.6412 64.489C62.9835 64.5675 63.3246 64.3536 63.4031 64.0113C63.4815 63.669 63.2677 63.3279 62.9254 63.2494C62.9091 63.2458 62.8917 63.2426 62.8757 63.2401Z" fill="#3F1F04"/>
<path id="Vector_54" d="M90.8188 44.2716C89.158 46.1271 87.3879 47.8652 85.6008 49.585C84.7025 50.4398 83.7924 51.2819 82.8757 52.1169L80.1097 54.6049L77.3231 57.0707L74.513 59.5113C72.6244 61.122 70.7297 62.7263 68.7863 64.278C68.3136 64.6554 68.2364 65.3446 68.6138 65.8173C68.9912 66.29 69.6804 66.3672 70.1531 65.9898C70.1953 65.9561 70.2384 65.9153 70.2743 65.8771C71.9618 64.0502 73.6981 62.2758 75.4404 60.5079L78.0767 57.8805L80.7365 55.2783L83.4169 52.6983C84.3157 51.844 85.2211 50.9968 86.1382 50.1622C87.9821 48.5034 89.8429 46.8628 91.813 45.3397C92.1331 45.0922 92.192 44.632 91.9445 44.3119C91.697 43.9918 91.2368 43.9329 90.9167 44.1804C90.8818 44.2075 90.8474 44.2401 90.8188 44.2716Z" fill="#3F1F04"/>
<path id="Vector_55" d="M102.625 64.1026L102.365 63.5905L102.104 63.0338C101.929 62.6659 101.759 62.2804 101.591 61.902L100.6 59.6015C99.9467 58.0618 99.2929 56.5192 98.6676 54.9644L96.7843 50.3019C96.1556 48.7482 95.5435 47.1861 94.935 45.6255C94.6739 44.9558 93.9193 44.6245 93.2496 44.8857C92.5799 45.1469 92.2487 45.9014 92.5098 46.5711C92.5162 46.5875 92.5251 46.6086 92.532 46.6246L96.6026 55.8425L98.6407 60.4544L99.6777 62.7599C99.8589 63.1444 100.022 63.5289 100.207 63.9182L100.48 64.5009L100.789 65.1114C101.05 65.6274 101.679 65.8341 102.195 65.5732C102.711 65.3122 102.918 64.6824 102.657 64.1664L102.625 64.1026Z" fill="#3F1F04"/>
<path id="Vector_56" d="M7.84772 43.4117L4.01072 39.2694C3.74452 38.9819 3.29552 38.9647 3.00812 39.2309C2.73842 39.4807 2.70872 39.8938 2.92552 40.181L6.34332 44.6753C6.67212 45.1077 7.28922 45.1916 7.72152 44.8628C8.15392 44.534 8.23792 43.9169 7.90902 43.4846C7.88992 43.4595 7.86882 43.4345 7.84772 43.4117Z" fill="#FCF3E2"/>
<path id="Vector_57" d="M20.4262 52.0811L15.8477 49.1883C15.462 48.9447 14.9519 49.0598 14.7083 49.4454C14.4737 49.8168 14.5737 50.305 14.9257 50.5581L19.3292 53.711C19.7705 54.027 20.3844 53.9254 20.7004 53.4841C21.0164 53.0428 20.9148 52.4289 20.4735 52.1129C20.4587 52.1023 20.4413 52.0906 20.4262 52.0811Z" fill="#FCF3E2"/>
<path id="Vector_58" d="M39.6293 58.5307L34.051 56.7789C33.6158 56.6422 33.1522 56.8842 33.0156 57.3194C32.8836 57.7397 33.107 58.1872 33.5142 58.3404L38.9907 60.3887C39.4991 60.5788 40.0653 60.3209 40.2554 59.8125C40.4456 59.3041 40.1876 58.7379 39.6792 58.5478C39.6637 58.542 39.6449 58.5357 39.6293 58.5307Z" fill="#FCF3E2"/>
<path id="Vector_59" d="M69.7692 64.3289L63.0059 63.0588C62.5576 62.9746 62.126 63.2698 62.0418 63.718C61.9601 64.1532 62.2379 64.5732 62.6642 64.6743L69.3626 66.2511C69.8908 66.3755 70.4199 66.048 70.5442 65.5198C70.6686 64.9916 70.3411 64.4625 69.8129 64.3382C69.7997 64.335 69.7826 64.3314 69.7692 64.3289Z" fill="#FCF3E2"/>
<path id="Vector_60" d="M94.1043 44.7608L91.6553 44.053C91.2128 43.9251 90.7504 44.1801 90.6225 44.6227C90.5173 44.9868 90.6722 45.3646 90.9765 45.5583L93.1282 46.9253C93.6873 47.2805 94.4284 47.1152 94.7836 46.5561C95.1388 45.997 94.9735 45.2559 94.4144 44.9007C94.3174 44.839 94.2093 44.7917 94.1043 44.7608Z" fill="#FCF3E2"/>
</g>
<g id="LEG_6_">
<path id="Vector_61" d="M105.305 55.2228C105.424 56.1421 105.491 57.0637 105.546 57.9858C105.596 58.9082 105.632 59.8312 105.647 60.7551C105.666 61.6789 105.675 62.6031 105.665 63.5282C105.658 64.4531 105.632 65.3789 105.581 66.3058C105.521 67.4032 106.362 68.3414 107.459 68.4015C108.556 68.4616 109.495 67.6207 109.555 66.5234C109.562 66.3924 109.554 66.253 109.537 66.1278C109.403 65.2092 109.294 64.2895 109.204 63.3689C109.111 62.4485 109.037 61.5272 108.972 60.6055C108.904 59.684 108.857 58.7614 108.824 57.8383C108.796 56.9149 108.78 55.991 108.815 55.0648C108.853 54.0919 108.094 53.273 107.121 53.2357C106.148 53.1984 105.33 53.9568 105.292 54.9296C105.289 55.0258 105.294 55.1303 105.305 55.2228Z" fill="#3F1F04"/>
<path id="Vector_62" d="M75.051 114.81C74.2513 115.653 73.5423 116.557 72.8645 117.482C72.5276 117.946 72.1949 118.412 71.8828 118.892C71.5727 119.374 71.2895 119.874 71.0124 120.379C70.4702 121.396 69.8521 122.361 69.2366 123.325C68.9307 123.807 68.6098 124.282 68.2792 124.737C68.1948 124.847 68.1099 124.964 68.0259 125.068C67.9387 125.169 67.8671 125.266 67.768 125.371C67.5723 125.58 67.37 125.784 67.1643 125.984C66.7507 126.382 66.3193 126.763 65.8966 127.153C65.4723 127.541 65.0743 127.954 64.6776 128.368C63.8837 129.196 63.1136 130.047 62.3384 130.893C60.7859 132.584 59.1961 134.238 57.5746 135.862C57.3858 136.051 57.3856 136.357 57.5742 136.546C57.7628 136.734 58.0686 136.734 58.2574 136.546C58.2608 136.543 58.266 136.537 58.2693 136.534C59.8352 134.855 61.4329 133.207 63.0679 131.594C63.8865 130.789 64.7101 129.989 65.5099 129.166C65.9101 128.754 66.3089 128.342 66.6815 127.904C67.0557 127.468 67.4212 127.023 67.8044 126.596C67.9972 126.383 68.1933 126.174 68.396 125.97C68.4967 125.869 68.6022 125.74 68.7045 125.626C68.8033 125.509 68.8891 125.395 68.9821 125.28L70.0654 123.919C70.7847 123.016 71.4779 122.098 72.2412 121.228C72.6149 120.787 72.983 120.342 73.3202 119.877C73.6571 119.411 73.9696 118.928 74.2784 118.443C74.8909 117.47 75.467 116.473 75.9467 115.411C76.071 115.135 75.9486 114.812 75.6734 114.687C75.4559 114.589 75.2081 114.645 75.0524 114.808L75.051 114.81Z" fill="#3F1F04"/>
<path id="Vector_63" d="M86.3555 93.3561C86.2011 93.5734 86.0854 93.7637 85.9568 93.9663C85.83 94.1648 85.7092 94.3649 85.5892 94.565C85.3453 94.962 85.1211 95.3683 84.8924 95.77C84.4442 96.5789 84.019 97.396 83.6261 98.2276C83.2254 99.0552 82.8616 99.8986 82.5072 100.745C82.1671 101.579 81.803 102.401 81.4158 103.215C81.2252 103.623 81.0275 104.028 80.8298 104.433C80.6236 104.834 80.4226 105.237 80.2105 105.635C79.7982 106.436 79.3522 107.219 78.9017 107.996C78.446 108.771 77.9692 109.532 77.4659 110.263L77.0818 110.802C76.9503 110.975 76.8176 111.15 76.683 111.317L76.4782 111.557C76.4104 111.639 76.3424 111.717 76.2727 111.78C76.2044 111.846 76.134 111.921 76.0694 111.978C76.0102 112.018 75.9547 112.06 75.9018 112.103L75.7954 112.191C75.4256 112.495 75.3724 113.041 75.6765 113.411C75.9807 113.781 76.5271 113.834 76.8969 113.53C76.915 113.515 76.9335 113.498 76.9501 113.482C77.0637 113.372 77.1746 113.259 77.2818 113.146C77.3715 113.038 77.4435 112.936 77.524 112.831C77.606 112.725 77.6758 112.623 77.7409 112.522L77.942 112.217L78.3097 111.609L78.6546 111.001C79.1021 110.189 79.5222 109.374 79.9332 108.556C80.7491 106.919 81.5231 105.27 82.2685 103.606C82.6405 102.774 82.9922 101.93 83.348 101.09C83.6867 100.262 84.075 99.4552 84.4894 98.6639C84.9122 97.8769 85.3685 97.1081 85.8729 96.375C86.1207 96.0058 86.3888 95.6509 86.658 95.3008C86.7964 95.1286 86.9359 94.9578 87.0781 94.7916C87.2182 94.6295 87.375 94.4574 87.5086 94.3248C87.8049 94.0306 87.8066 93.5519 87.5123 93.2556C87.2181 92.9593 86.7394 92.9576 86.4431 93.2519C86.413 93.2818 86.3859 93.3136 86.3619 93.347L86.3555 93.3561Z" fill="#3F1F04"/>
<path id="Vector_64" d="M87.1062 57.9576C87.3154 60.6595 87.428 63.3626 87.5267 66.066C87.6148 68.7696 87.6725 71.4736 87.7017 74.1784C87.7227 75.5306 87.7339 76.8831 87.74 78.2358C87.7522 79.5883 87.7497 80.9412 87.7488 82.2941C87.7401 85.0001 87.7188 87.7066 87.6404 90.4151C87.627 90.8779 87.9913 91.2639 88.4541 91.2773C88.9169 91.2907 89.3029 90.9264 89.3163 90.4636C89.3171 90.4369 89.3166 90.4105 89.3149 90.3844L89.3136 90.3654C89.1322 87.6664 89.0079 84.9653 88.8962 82.2637C88.8438 80.9128 88.7899 79.5619 88.7505 78.2106C88.7052 76.8595 88.6649 75.5082 88.6343 74.1566C88.5605 71.4538 88.5152 68.7503 88.5003 66.0463C88.496 63.3421 88.5057 60.6377 88.6118 57.932L88.6119 57.929C88.6282 57.5127 88.304 57.162 87.8877 57.1456C87.4714 57.1293 87.1207 57.4535 87.1043 57.8698C87.1033 57.8992 87.104 57.9289 87.1062 57.9576Z" fill="#3F1F04"/>
<path id="Vector_65" d="M107.075 67.5472C107.123 67.3608 107.134 67.2397 107.144 67.1201C107.147 67.0126 107.148 66.9079 107.13 66.8381C107.101 66.6834 107.03 66.6036 106.939 66.5566L106.423 66.2311L105.389 65.5802L103.314 64.2921C101.925 63.4441 100.533 62.5996 99.1286 61.7783C97.7282 60.9495 96.3093 60.1529 94.8914 59.3546C93.4628 58.575 92.0381 57.7885 90.5762 57.0672C90.0743 56.8196 89.4667 57.0257 89.219 57.5276C88.9901 57.9916 89.1491 58.5459 89.5709 58.8226C90.9329 59.7185 92.3321 60.5494 93.7275 61.387C95.1335 62.206 96.5387 63.0266 97.9622 63.8151C99.3815 64.611 100.814 65.3838 102.249 66.153L104.41 67.2908L105.494 67.8528L106.036 68.1338C106.122 68.1879 106.227 68.2091 106.375 68.1556C106.445 68.1363 106.534 68.0822 106.626 68.0252C106.724 67.9562 106.823 67.8855 106.959 67.7497C107.017 67.6921 107.056 67.6207 107.075 67.5472Z" fill="#3F1F04"/>
<path id="Vector_66" d="M75.4855 112.69L75.0636 114.967C75.017 115.218 75.1829 115.46 75.434 115.506C75.6431 115.545 75.8455 115.436 75.9342 115.254L76.9463 113.171C77.1336 112.786 76.973 112.321 76.5876 112.134C76.2022 111.947 75.7379 112.107 75.5506 112.493C75.52 112.556 75.4981 112.625 75.4855 112.69Z" fill="#FCF3E2"/>
<path id="Vector_67" d="M87.7753 90.0758L86.2508 93.5355C86.0846 93.9128 86.2556 94.3533 86.6329 94.5196C87.0073 94.6846 87.4443 94.5169 87.6133 94.1456L89.1788 90.7042C89.3547 90.3177 89.1838 89.8617 88.7973 89.6859C88.4108 89.5101 87.9548 89.6809 87.779 90.0674L87.7753 90.0758Z" fill="#FCF3E2"/>
<path id="Vector_68" d="M90.0736 56.9622L87.8591 57.119C87.4031 57.1513 87.0596 57.5471 87.0919 58.0031C87.1214 58.4195 87.4542 58.7421 87.8591 58.7703L90.0736 58.927C90.6162 58.9654 91.0871 58.5567 91.1255 58.0142C91.1639 57.4717 90.7552 57.0007 90.2127 56.9623C90.1676 56.959 90.1174 56.9594 90.0736 56.9622Z" fill="#FCF3E2"/>
</g>
</g>
<g id="HEAD">
<path id="Vector_69" d="M131.322 76.0606C130.114 76.4087 127.904 73.9353 125.698 73.3821C123.493 72.8289 121.42 72.8018 121.613 70.7079C121.807 68.6139 122.123 63.5559 124.652 62.7129C127.181 61.8699 132.818 62.9687 133.819 68.6101C134.192 70.7118 132.53 71.8124 132.239 72.9055C131.749 74.7464 132.201 75.8073 131.322 76.0606Z" fill="url(#paint4_radial_938_25823)"/>
<g id="Group">
<path id="Vector_70" d="M140.324 90.2883C138.736 87.6518 137.06 85.0573 135.3 82.5336C133.539 80.0117 131.685 77.5498 129.645 75.296L129.638 75.2887C129.355 74.9758 129.379 74.4926 129.692 74.2094C130.005 73.9262 130.488 73.9502 130.771 74.2631L130.778 74.2706C132.865 76.6369 134.709 79.1591 136.459 81.7355C138.208 84.3142 139.86 86.9461 141.433 89.6346C141.612 89.9413 141.509 90.3355 141.202 90.5149C140.898 90.6928 140.505 90.5892 140.324 90.2883Z" fill="#3F1F04"/>
</g>
<path id="Vector_71" d="M131.322 76.0608C130.416 76.3218 128.946 74.9958 127.338 74.0831C126.802 73.7789 128.192 70.2926 130.621 70.2788C131.821 70.272 132.335 72.5442 132.239 72.9056C131.749 74.7466 132.201 75.8075 131.322 76.0608Z" fill="url(#paint5_radial_938_25823)"/>
<path id="SPOT_1_" d="M130.85 67.3344C130.138 67.6403 127.215 68.5093 126.01 66.2173C125.15 64.5817 126.236 64.2903 127.268 63.8097C128.301 63.3291 130.206 63.4181 130.971 64.1835C131.737 64.949 132.51 66.6223 130.85 67.3344Z" fill="#FCF3E2"/>
<path id="EYE_3_" d="M129.295 67.5949C129.005 66.9989 127.075 66.8945 126.41 66.0821C125.746 65.2697 123.373 65.1483 122.849 67.031C122.519 68.2152 122.353 71.4155 125.196 70.5662C128.04 69.7169 129.665 68.3532 129.295 67.5949Z" fill="url(#paint6_radial_938_25823)"/>
<path id="EYE_2_" d="M130.239 63.5626C130.719 63.1299 134.323 63.8044 133.345 67.5952C133.153 68.3405 132.846 67.1877 132.25 67.1685C131.655 67.1493 131.145 66.669 131.582 66.1118C132.02 65.5546 131.482 64.6174 130.963 64.4808C130.444 64.3441 129.976 63.7993 130.239 63.5626Z" fill="url(#paint7_radial_938_25823)"/>
<g id="ANTENNAE_1_">
<g id="Group_2">
<path id="Vector_72" d="M132.374 67.1612C135.04 65.5437 137.687 63.8142 140.31 62.0867C142.932 60.3498 145.537 58.5859 148.094 56.7586C149.37 55.843 150.641 54.9172 151.867 53.9423C152.478 53.4548 153.091 52.9609 153.652 52.4297C154.252 51.9115 154.681 51.3475 155.072 50.6412C155.864 49.289 156.596 47.8969 157.292 46.4894C157.966 45.0786 158.686 43.6546 159.115 42.1716L159.119 42.1587C159.137 42.097 159.202 42.0614 159.263 42.0793C159.324 42.0969 159.36 42.1602 159.343 42.2212C158.927 43.7757 158.24 45.193 157.59 46.6325C156.92 48.0611 156.214 49.4727 155.443 50.854C155.093 51.5371 154.573 52.2522 153.983 52.7729C153.412 53.3353 152.807 53.8435 152.198 54.3501C150.98 55.3599 149.724 56.3152 148.461 57.2609C145.933 59.1477 143.359 60.9686 140.767 62.7633C138.167 64.5534 135.577 66.3241 132.893 68.0291C132.657 68.1788 132.345 68.1091 132.195 67.8734C132.045 67.6377 132.115 67.3252 132.351 67.1755C132.353 67.1741 132.355 67.1727 132.357 67.1713L132.374 67.1612Z" fill="#3F1F04"/>
</g>
<g id="Group_3">
<path id="Vector_73" d="M129.104 68.8445C127.422 68.0806 125.817 67.2703 124.199 66.4307C122.592 65.5812 120.99 64.7251 119.455 63.7169C119.072 63.4602 118.692 63.2032 118.332 62.8854C117.951 62.5825 117.645 62.1187 117.487 61.6964C117.111 60.8385 116.867 59.9621 116.625 59.0835C116.166 57.3202 115.774 55.5555 115.513 53.7454C115.504 53.6817 115.548 53.6227 115.611 53.6135C115.674 53.6045 115.731 53.6465 115.743 53.7078L115.744 53.7178C116.064 55.481 116.52 57.2436 117.036 58.9655C117.304 59.8216 117.582 60.6862 117.963 61.4746C118.147 61.8933 118.368 62.1944 118.705 62.4491C119.033 62.7194 119.413 62.9598 119.79 63.193C121.317 64.1196 122.943 64.9163 124.565 65.7003C126.189 66.4716 127.847 67.2336 129.487 67.9089L129.506 67.9165C129.764 68.0228 129.887 68.3184 129.781 68.5767C129.675 68.835 129.379 68.9581 129.121 68.8518C129.116 68.8496 129.109 68.8466 129.104 68.8445Z" fill="#3F1F04"/>
</g>
</g>
</g>
</g>
<defs>
<radialGradient id="paint0_radial_938_25823" cx="0" cy="0" r="1" gradientTransform="matrix(-12.9816 10.4152 3.85288 4.8032 86.4092 67.2925)" gradientUnits="userSpaceOnUse">
<stop stop-color="#7B3C00"/>
<stop offset="0.2159" stop-color="#773A00"/>
<stop offset="0.4396" stop-color="#6A3401"/>
<stop offset="0.6669" stop-color="#562A02"/>
<stop offset="0.8953" stop-color="#391D04"/>
<stop offset="1" stop-color="#291505"/>
</radialGradient>
<radialGradient id="paint1_radial_938_25823" cx="0" cy="0" r="1" gradientTransform="matrix(-8.40194 5.3259 8.35041 13.5706 108.528 53.8535)" gradientUnits="userSpaceOnUse">
<stop stop-color="#7B3C00"/>
<stop offset="0.2159" stop-color="#773A00"/>
<stop offset="0.4396" stop-color="#6A3401"/>
<stop offset="0.6669" stop-color="#562A02"/>
<stop offset="0.8953" stop-color="#391D04"/>
<stop offset="1" stop-color="#291505"/>
</radialGradient>
<radialGradient id="paint2_radial_938_25823" cx="0" cy="0" r="1" gradientTransform="matrix(-8.00331 4.78174 7.9545 12.1848 115.944 52.7121)" gradientUnits="userSpaceOnUse">
<stop stop-color="#7B3C00"/>
<stop offset="0.2159" stop-color="#773A00"/>
<stop offset="0.4396" stop-color="#6A3401"/>
<stop offset="0.6669" stop-color="#562A02"/>
<stop offset="0.8953" stop-color="#391D04"/>
<stop offset="1" stop-color="#291505"/>
</radialGradient>
<radialGradient id="paint3_radial_938_25823" cx="0" cy="0" r="1" gradientTransform="matrix(-5.30511 1.10036 1.75103 8.44256 122.923 54.2845)" gradientUnits="userSpaceOnUse">
<stop stop-color="#7B3C00"/>
<stop offset="0.3262" stop-color="#783B00"/>
<stop offset="0.5223" stop-color="#703701"/>
<stop offset="0.6841" stop-color="#623002"/>
<stop offset="0.8271" stop-color="#4E2603"/>
<stop offset="0.9566" stop-color="#341A04"/>
<stop offset="1" stop-color="#291505"/>
</radialGradient>
<radialGradient id="paint4_radial_938_25823" cx="0" cy="0" r="1" gradientUnits="userSpaceOnUse" gradientTransform="translate(128.448 68.49) rotate(76.4557) scale(6.46577 9.09678)">
<stop offset="0.05" stop-color="#7B3C00"/>
<stop offset="1" stop-color="#291505"/>
</radialGradient>
<radialGradient id="paint5_radial_938_25823" cx="0" cy="0" r="1" gradientTransform="matrix(-2.17483 0.261996 0.374811 3.11153 130.412 73.0822)" gradientUnits="userSpaceOnUse">
<stop offset="0.05" stop-color="#7B3C00"/>
<stop offset="1" stop-color="#291505"/>
</radialGradient>
<radialGradient id="paint6_radial_938_25823" cx="0" cy="0" r="1" gradientTransform="matrix(-0.684648 2.20519 3.02146 0.937957 125.908 68.2494)" gradientUnits="userSpaceOnUse">
<stop stop-color="#4E054A"/>
<stop offset="0.3902" stop-color="#4B0548"/>
<stop offset="0.6248" stop-color="#430640"/>
<stop offset="0.8176" stop-color="#350832"/>
<stop offset="0.9878" stop-color="#210A1F"/>
<stop offset="1" stop-color="#1F0A1D"/>
</radialGradient>
<radialGradient id="paint7_radial_938_25823" cx="0" cy="0" r="1" gradientTransform="matrix(-0.441816 1.42305 1.9498 0.605279 131.791 65.7497)" gradientUnits="userSpaceOnUse">
<stop stop-color="#4E054A"/>
<stop offset="0.3902" stop-color="#4B0548"/>
<stop offset="0.6248" stop-color="#430640"/>
<stop offset="0.8176" stop-color="#350832"/>
<stop offset="0.9878" stop-color="#210A1F"/>
<stop offset="1" stop-color="#1F0A1D"/>
</radialGradient>
</defs>
</svg>
