<svg width="58" height="23" viewBox="0 0 58 23" fill="none" xmlns="http://www.w3.org/2000/svg">
<g id="R-ICO-013069">
<g id="NEDD8">
<path d="M1.06201 11.5021C1.06201 5.97923 5.53916 1.50208 11.062 1.50208H46.062C51.5849 1.50208 56.062 5.97923 56.062 11.5021C56.062 17.0249 51.5849 21.5021 46.062 21.5021H11.062C5.53916 21.5021 1.06201 17.0249 1.06201 11.5021Z" fill="url(#paint0_linear_938_23454)"/>
<path d="M44.2704 2.99473C33.2009 2.87651 22.1315 2.5249 11.062 1.64208C11.062 1.54872 11.062 1.45535 11.062 1.36199C22.1315 0.479165 33.2009 0.127561 44.2704 0.00933623C44.8676 0.00526023 45.4648 0.00298858 46.062 0.00230122C51.84 -0.123783 57.0453 4.83542 57.3338 10.4908C57.3593 10.8277 57.3693 11.1637 57.3643 11.5021C57.4197 17.551 51.7889 22.6924 46.0625 22.2679C46.0624 22.2679 46.0622 22.2679 46.062 22.2679C40.5274 22.0242 34.9923 21.8487 29.4578 21.955C23.9231 22.058 18.3879 22.4665 12.8532 22.6669C12.2561 22.6845 11.6591 22.6991 11.062 22.711C5.42394 22.9413 0.239793 18.045 0.0215929 12.4934C0.000715733 12.1628 -0.00499201 11.8334 0.00416112 11.5021C0.0148849 5.57458 5.66159 0.702521 11.062 1.36199C11.062 1.45535 11.062 1.54872 11.062 1.64208C5.80944 2.04238 1.8498 6.77632 2.11976 11.5021C2.12896 11.7713 2.14951 12.0368 2.18144 12.3017C2.6518 16.7366 6.68668 20.2765 11.062 20.2932C11.6591 20.3051 12.2561 20.3198 12.8532 20.3373C18.3879 20.5377 23.9231 20.9448 29.4578 21.0478C34.9924 21.1541 40.5273 20.98 46.062 20.7363C46.0622 20.7363 46.0623 20.7363 46.0625 20.7363C50.989 20.5702 54.9634 16.1061 54.7599 11.5021C54.7547 11.2402 54.7386 10.9816 54.7113 10.7234C54.3118 6.39205 50.2976 2.91443 46.062 3.00184C45.4648 3.00113 44.8676 2.99884 44.2704 2.99473Z" fill="#00A181"/>
<text id="NEDD8_2" fill="white" xml:space="preserve" style="white-space: pre" font-family="Arial" font-size="12" font-weight="bold" letter-spacing="0em"><tspan x="8.2124" y="15.6622">NEDD8</tspan></text>
</g>
</g>
<defs>
<linearGradient id="paint0_linear_938_23454" x1="28.562" y1="1.50208" x2="28.562" y2="21.5021" gradientUnits="userSpaceOnUse">
<stop stop-color="#00A181"/>
<stop offset="1" stop-color="#A6FF85"/>
</linearGradient>
</defs>
</svg>
