<svg width="65" height="67" viewBox="0 0 65 67" fill="none" xmlns="http://www.w3.org/2000/svg">
<g id="R-ICO-012897">
<g id="Vector">
<mask id="path-1-outside-1_938_24322" maskUnits="userSpaceOnUse" x="20.3851" y="0" width="24" height="14" fill="black">
<rect fill="white" x="20.3851" width="24" height="14"/>
<path d="M37.3851 12H27.3851C24.6237 12 22.3851 9.7614 22.3851 7C22.3851 4.2386 24.6237 2 27.3851 2H37.3851C40.1465 2 42.3851 4.2386 42.3851 7C42.385 9.7614 40.1465 12 37.3851 12Z"/>
</mask>
<path d="M37.3851 12H27.3851C24.6237 12 22.3851 9.7614 22.3851 7C22.3851 4.2386 24.6237 2 27.3851 2H37.3851C40.1465 2 42.3851 4.2386 42.3851 7C42.385 9.7614 40.1465 12 37.3851 12Z" fill="#73A628"/>
<path d="M37.3851 12H27.3851C24.6237 12 22.3851 9.7614 22.3851 7C22.3851 4.2386 24.6237 2 27.3851 2H37.3851C40.1465 2 42.3851 4.2386 42.3851 7C42.385 9.7614 40.1465 12 37.3851 12Z" stroke="#DEB510" stroke-width="4" mask="url(#path-1-outside-1_938_24322)"/>
</g>
<g id="Vector_2">
<mask id="path-2-outside-2_938_24322" maskUnits="userSpaceOnUse" x="44.7584" y="7.98804" width="20" height="24" fill="black">
<rect fill="white" x="44.7584" y="7.98804" width="20" height="24"/>
<path d="M53.3071 27.1558L48.4021 18.4414C47.0476 16.035 47.9004 12.9862 50.3068 11.6317C52.7132 10.2772 55.762 11.13 57.1165 13.5364L62.0215 22.2508C63.376 24.6572 62.5232 27.706 60.1168 29.0605C57.7104 30.415 54.6616 29.5622 53.3071 27.1558Z"/>
</mask>
<path d="M53.3071 27.1558L48.4021 18.4414C47.0476 16.035 47.9004 12.9862 50.3068 11.6317C52.7132 10.2772 55.762 11.13 57.1165 13.5364L62.0215 22.2508C63.376 24.6572 62.5232 27.706 60.1168 29.0605C57.7104 30.415 54.6616 29.5622 53.3071 27.1558Z" fill="#73A628"/>
<path d="M53.3071 27.1558L48.4021 18.4414C47.0476 16.035 47.9004 12.9862 50.3068 11.6317C52.7132 10.2772 55.762 11.13 57.1165 13.5364L62.0215 22.2508C63.376 24.6572 62.5232 27.706 60.1168 29.0605C57.7104 30.415 54.6616 29.5622 53.3071 27.1558Z" stroke="#DEB510" stroke-width="4" mask="url(#path-2-outside-2_938_24322)"/>
</g>
<g id="Vector_3">
<mask id="path-3-outside-3_938_24322" maskUnits="userSpaceOnUse" x="-0.999634" y="8.24353" width="20" height="24" fill="black">
<rect fill="white" x="-0.999634" y="8.24353" width="20" height="24"/>
<path d="M16.1847 18.6424L11.3888 27.4174C10.0645 29.8405 7.02646 30.7313 4.60336 29.4069C2.18026 28.0826 1.28946 25.0446 2.61386 22.6215L7.40976 13.8465C8.73406 11.4234 11.7721 10.5326 14.1952 11.857C16.6183 13.1814 17.509 16.2193 16.1847 18.6424Z"/>
</mask>
<path d="M16.1847 18.6424L11.3888 27.4174C10.0645 29.8405 7.02646 30.7313 4.60336 29.4069C2.18026 28.0826 1.28946 25.0446 2.61386 22.6215L7.40976 13.8465C8.73406 11.4234 11.7721 10.5326 14.1952 11.857C16.6183 13.1814 17.509 16.2193 16.1847 18.6424Z" fill="#73A628"/>
<path d="M16.1847 18.6424L11.3888 27.4174C10.0645 29.8405 7.02646 30.7313 4.60336 29.4069C2.18026 28.0826 1.28946 25.0446 2.61386 22.6215L7.40976 13.8465C8.73406 11.4234 11.7721 10.5326 14.1952 11.857C16.6183 13.1814 17.509 16.2193 16.1847 18.6424Z" stroke="#DEB510" stroke-width="4" mask="url(#path-3-outside-3_938_24322)"/>
</g>
<g id="Vector_4">
<mask id="path-4-outside-4_938_24322" maskUnits="userSpaceOnUse" x="20.2809" y="52.3892" width="24" height="14" fill="black">
<rect fill="white" x="20.2809" y="52.3892" width="24" height="14"/>
<path d="M27.2809 54.3892H37.2809C40.0423 54.3892 42.2809 56.6278 42.2809 59.3892C42.2809 62.1506 40.0423 64.3892 37.2809 64.3892H27.2809C24.5195 64.3892 22.2809 62.1506 22.2809 59.3892C22.2809 56.6278 24.5195 54.3892 27.2809 54.3892Z"/>
</mask>
<path d="M27.2809 54.3892H37.2809C40.0423 54.3892 42.2809 56.6278 42.2809 59.3892C42.2809 62.1506 40.0423 64.3892 37.2809 64.3892H27.2809C24.5195 64.3892 22.2809 62.1506 22.2809 59.3892C22.2809 56.6278 24.5195 54.3892 27.2809 54.3892Z" fill="#73A628"/>
<path d="M27.2809 54.3892H37.2809C40.0423 54.3892 42.2809 56.6278 42.2809 59.3892C42.2809 62.1506 40.0423 64.3892 37.2809 64.3892H27.2809C24.5195 64.3892 22.2809 62.1506 22.2809 59.3892C22.2809 56.6278 24.5195 54.3892 27.2809 54.3892Z" stroke="#DEB510" stroke-width="4" mask="url(#path-4-outside-4_938_24322)"/>
</g>
<g id="Vector_5">
<mask id="path-5-outside-5_938_24322" maskUnits="userSpaceOnUse" x="-0.999634" y="33.6849" width="20" height="24" fill="black">
<rect fill="white" x="-0.999634" y="33.6849" width="20" height="24"/>
<path d="M11.3585 39.2333L16.2635 47.9477C17.618 50.3541 16.7652 53.4029 14.3588 54.7574C11.9524 56.1119 8.90355 55.2591 7.54905 52.8527L2.64405 44.1383C1.28955 41.7319 2.14235 38.6831 4.54875 37.3286C6.95515 35.9741 10.004 36.8269 11.3585 39.2333Z"/>
</mask>
<path d="M11.3585 39.2333L16.2635 47.9477C17.618 50.3541 16.7652 53.4029 14.3588 54.7574C11.9524 56.1119 8.90355 55.2591 7.54905 52.8527L2.64405 44.1383C1.28955 41.7319 2.14235 38.6831 4.54875 37.3286C6.95515 35.9741 10.004 36.8269 11.3585 39.2333Z" fill="#73A628"/>
<path d="M11.3585 39.2333L16.2635 47.9477C17.618 50.3541 16.7652 53.4029 14.3588 54.7574C11.9524 56.1119 8.90355 55.2591 7.54905 52.8527L2.64405 44.1383C1.28955 41.7319 2.14235 38.6831 4.54875 37.3286C6.95515 35.9741 10.004 36.8269 11.3585 39.2333Z" stroke="#DEB510" stroke-width="4" mask="url(#path-5-outside-5_938_24322)"/>
</g>
<g id="Vector_6">
<mask id="path-6-outside-6_938_24322" maskUnits="userSpaceOnUse" x="44.8676" y="33.3689" width="20" height="24" fill="black">
<rect fill="white" x="44.8676" y="33.3689" width="20" height="24"/>
<path d="M48.481 47.7468L53.2769 38.9719C54.6012 36.5488 57.6392 35.658 60.0623 36.9824C62.4854 38.3067 63.3762 41.3447 62.0518 43.7678L57.2559 52.5427C55.9316 54.9658 52.8936 55.8566 50.4705 54.5322C48.0474 53.2078 47.1567 50.1699 48.481 47.7468Z"/>
</mask>
<path d="M48.481 47.7468L53.2769 38.9719C54.6012 36.5488 57.6392 35.658 60.0623 36.9824C62.4854 38.3067 63.3762 41.3447 62.0518 43.7678L57.2559 52.5427C55.9316 54.9658 52.8936 55.8566 50.4705 54.5322C48.0474 53.2078 47.1567 50.1699 48.481 47.7468Z" fill="#73A628"/>
<path d="M48.481 47.7468L53.2769 38.9719C54.6012 36.5488 57.6392 35.658 60.0623 36.9824C62.4854 38.3067 63.3762 41.3447 62.0518 43.7678L57.2559 52.5427C55.9316 54.9658 52.8936 55.8566 50.4705 54.5322C48.0474 53.2078 47.1567 50.1699 48.481 47.7468Z" stroke="#DEB510" stroke-width="4" mask="url(#path-6-outside-6_938_24322)"/>
</g>
</g>
</svg>
