<svg width="41" height="23" viewBox="0 0 41 23" fill="none" xmlns="http://www.w3.org/2000/svg">
<g id="R-ICO-013424">
<g id="TCF">
<path d="M1.19727 11.3445C1.19727 5.82164 5.67442 1.34448 11.1973 1.34448H29.1973C34.7201 1.34448 39.1973 5.82164 39.1973 11.3445C39.1973 16.8673 34.7201 21.3445 29.1973 21.3445H11.1973C5.67442 21.3445 1.19727 16.8673 1.19727 11.3445Z" fill="url(#paint0_linear_938_23637)"/>
<path d="M34.4851 4.67959C33.0147 3.46557 31.1416 2.75082 29.1973 2.68327C23.1973 2.48883 17.1973 2.12762 11.1973 1.48449C11.1973 1.39112 11.1973 1.29776 11.1973 1.20439C17.1973 0.56126 23.1973 0.200049 29.1973 0.00560915C31.7308 -0.0771385 34.3158 0.761839 36.3424 2.34228C39.0777 4.45235 40.6921 7.92342 40.5936 11.3445C40.5684 12.6175 40.3282 13.8825 39.8856 15.0707C38.3128 19.5094 33.6572 22.4609 29.1976 22.1103C29.1975 22.1103 29.1974 22.1103 29.1973 22.1103C25.0793 21.8666 20.961 21.6911 16.8431 21.7975C14.9612 21.8445 13.0792 21.9554 11.1973 22.081C8.8009 22.2408 6.27777 21.5668 4.25587 20.0897C1.53806 18.1138 -0.103132 14.7063 0.00539804 11.3445C0.0333287 10.094 0.279383 8.85332 0.728155 7.69512C2.33174 3.36836 6.98888 0.611465 11.1973 1.20439C11.1973 1.29776 11.1973 1.39112 11.1973 1.48449C7.10753 1.959 3.81174 4.87882 2.77568 8.40879C2.48697 9.36415 2.36025 10.3555 2.38905 11.3445C2.45566 13.9996 3.6971 16.5271 5.70522 18.2659C7.18024 19.5835 9.11559 20.463 11.1973 20.6072C13.0792 20.7326 14.9612 20.8432 16.8431 20.8902C20.961 20.9966 25.0792 20.8224 29.1973 20.5787C29.1974 20.5787 29.1975 20.5787 29.1976 20.5787C33.0359 20.346 36.3322 17.6214 37.3994 14.204C37.6944 13.2785 37.827 12.3111 37.801 11.3445C37.7443 8.74833 36.4757 6.2843 34.4851 4.67959Z" fill="#A63F3F"/>
<text id="TCF_2" fill="white" xml:space="preserve" style="white-space: pre" font-family="Arial" font-size="12" font-weight="bold" letter-spacing="0em"><tspan x="8.52539" y="15.5046">TCF</tspan></text>
</g>
</g>
<defs>
<linearGradient id="paint0_linear_938_23637" x1="20.1973" y1="1.34448" x2="20.1973" y2="21.3445" gradientUnits="userSpaceOnUse">
<stop stop-color="#A63F3F"/>
<stop offset="1" stop-color="#CAFF6E"/>
</linearGradient>
</defs>
</svg>
