<svg width="59" height="147" viewBox="0 0 59 147" fill="none" xmlns="http://www.w3.org/2000/svg">
<g id="R-ICO-012594">
<g id="UP">
<mask id="path-1-inside-1_938_22985" fill="white">
<path d="M16.3334 13.446C14.7044 13.446 13.1134 12.63 12.1894 11.146C10.7674 8.86 11.4674 5.854 13.7534 4.431C18.4124 1.533 23.7874 0 29.2974 0C34.8074 0 40.1834 1.532 44.8424 4.431C47.1284 5.854 47.8284 8.86 46.4064 11.146C44.9844 13.432 41.9794 14.134 39.6914 12.71C36.5794 10.774 32.9854 9.751 29.2974 9.751C25.6094 9.751 22.0154 10.774 18.9044 12.71C18.1024 13.208 17.2134 13.446 16.3334 13.446Z"/>
</mask>
<path d="M16.3334 13.446C14.7044 13.446 13.1134 12.63 12.1894 11.146C10.7674 8.86 11.4674 5.854 13.7534 4.431C18.4124 1.533 23.7874 0 29.2974 0C34.8074 0 40.1834 1.532 44.8424 4.431C47.1284 5.854 47.8284 8.86 46.4064 11.146C44.9844 13.432 41.9794 14.134 39.6914 12.71C36.5794 10.774 32.9854 9.751 29.2974 9.751C25.6094 9.751 22.0154 10.774 18.9044 12.71C18.1024 13.208 17.2134 13.446 16.3334 13.446Z" fill="url(#paint0_radial_938_22985)" stroke="#417799" stroke-width="2" mask="url(#path-1-inside-1_938_22985)"/>
</g>
<g id="LEFT">
<mask id="path-2-inside-2_938_22985" fill="white">
<path d="M21.2396 146.269C18.5476 146.269 16.3646 144.087 16.3646 141.394V55.7498C8.01259 52.1958 4.00659 46.1638 2.09459 41.4598C-1.23541 33.2678 -0.551409 22.8798 3.83659 14.9948C5.14659 12.6428 8.11459 11.7958 10.4676 13.1068C12.8196 14.4168 13.6656 17.3848 12.3556 19.7378C9.89159 24.1648 8.55559 31.4628 11.1266 37.7878C13.1006 42.6448 16.9736 45.9658 22.6366 47.6588C24.7006 48.2758 26.1146 50.1748 26.1146 52.3298V141.393C26.1146 144.087 23.9316 146.269 21.2396 146.269Z"/>
</mask>
<path d="M21.2396 146.269C18.5476 146.269 16.3646 144.087 16.3646 141.394V55.7498C8.01259 52.1958 4.00659 46.1638 2.09459 41.4598C-1.23541 33.2678 -0.551409 22.8798 3.83659 14.9948C5.14659 12.6428 8.11459 11.7958 10.4676 13.1068C12.8196 14.4168 13.6656 17.3848 12.3556 19.7378C9.89159 24.1648 8.55559 31.4628 11.1266 37.7878C13.1006 42.6448 16.9736 45.9658 22.6366 47.6588C24.7006 48.2758 26.1146 50.1748 26.1146 52.3298V141.393C26.1146 144.087 23.9316 146.269 21.2396 146.269Z" fill="url(#paint1_linear_938_22985)" stroke="#417799" stroke-width="2" mask="url(#path-2-inside-2_938_22985)"/>
</g>
<g id="RIGHT">
<mask id="path-3-inside-3_938_22985" fill="white">
<path d="M37.3604 110.974C34.6684 110.974 32.4854 108.792 32.4854 106.099V52.3308C32.4854 50.1768 33.8994 48.2768 35.9634 47.6598C41.6264 45.9658 45.4984 42.6448 47.4734 37.7888C50.0444 31.4638 48.7094 24.1658 46.2444 19.7378C44.9344 17.3858 45.7804 14.4168 48.1324 13.1078C50.4854 11.7978 53.4534 12.6428 54.7634 14.9958C59.1524 22.8798 59.8364 33.2688 56.5054 41.4608C54.5934 46.1648 50.5874 52.1958 42.2354 55.7498V106.099C42.2354 108.792 40.0524 110.974 37.3604 110.974Z"/>
</mask>
<path d="M37.3604 110.974C34.6684 110.974 32.4854 108.792 32.4854 106.099V52.3308C32.4854 50.1768 33.8994 48.2768 35.9634 47.6598C41.6264 45.9658 45.4984 42.6448 47.4734 37.7888C50.0444 31.4638 48.7094 24.1658 46.2444 19.7378C44.9344 17.3858 45.7804 14.4168 48.1324 13.1078C50.4854 11.7978 53.4534 12.6428 54.7634 14.9958C59.1524 22.8798 59.8364 33.2688 56.5054 41.4608C54.5934 46.1648 50.5874 52.1958 42.2354 55.7498V106.099C42.2354 108.792 40.0524 110.974 37.3604 110.974Z" fill="url(#paint2_linear_938_22985)" stroke="#417799" stroke-width="2" mask="url(#path-3-inside-3_938_22985)"/>
</g>
</g>
<defs>
<radialGradient id="paint0_radial_938_22985" cx="0" cy="0" r="1" gradientUnits="userSpaceOnUse" gradientTransform="translate(29.4286 29.9031) scale(30.4512 30.4512)">
<stop offset="0.7094" stop-color="#944678"/>
<stop offset="0.8883" stop-color="#C6A1B9"/>
<stop offset="0.9108" stop-color="#C49DB6"/>
<stop offset="0.9347" stop-color="#BD90AD"/>
<stop offset="0.9591" stop-color="#B17B9E"/>
<stop offset="0.9839" stop-color="#A15D89"/>
<stop offset="1" stop-color="#944678"/>
</radialGradient>
<linearGradient id="paint1_linear_938_22985" x1="32.1908" y1="76.2903" x2="11.079" y2="80.0129" gradientUnits="userSpaceOnUse">
<stop stop-color="#DABF68"/>
<stop offset="0.1783" stop-color="#DABC67"/>
<stop offset="0.3016" stop-color="#DAB363"/>
<stop offset="0.408" stop-color="#DAA45C"/>
<stop offset="0.4472" stop-color="#DA9C59"/>
<stop offset="0.6282" stop-color="#DA8A51"/>
<stop offset="0.9911" stop-color="#DA5A3E"/>
<stop offset="1" stop-color="#DA593D"/>
</linearGradient>
<linearGradient id="paint2_linear_938_22985" x1="28.3569" y1="58.9013" x2="56.465" y2="64.0119" gradientUnits="userSpaceOnUse">
<stop stop-color="#284A85"/>
<stop offset="0.1261" stop-color="#2F558D"/>
<stop offset="0.3485" stop-color="#4273A4"/>
<stop offset="0.6411" stop-color="#60A3C8"/>
<stop offset="0.9895" stop-color="#8AE5FA"/>
<stop offset="1" stop-color="#8BE7FC"/>
</linearGradient>
</defs>
</svg>
