<svg width="29" height="51" viewBox="0 0 29 51" fill="none" xmlns="http://www.w3.org/2000/svg">
<g id="R-ICO-014051">
<path id="Vector" d="M15.4233 51.002C6.6304 51.002 0 47.1328 0 42.001C0 36.8692 6.6304 33 15.4233 33C18.5405 33 21.5249 33.5049 24.0542 34.459C25.4702 35 26.4146 36.3711 26.4146 37.876C26.4146 39.2569 25.2955 40.376 23.9146 40.376C22.9019 40.376 22.0308 39.7744 21.6373 38.9092C19.8198 38.3213 17.6401 38 15.4233 38C8.9575 38 5 40.5908 5 42.001C5 43.4112 8.9575 46.002 15.4233 46.002C19.1142 46.002 22.6313 45.1055 24.603 43.6622C25.7173 42.8487 27.2807 43.089 28.0971 44.2032C28.9125 45.3175 28.6703 46.8809 27.5561 47.6973C24.687 49.7969 20.2651 51.002 15.4233 51.002Z" fill="url(#paint0_linear_938_24803)"/>
<path id="Vector_2" d="M15.4233 42.752C6.6304 42.752 0 38.8828 0 33.751C0 28.6192 6.6304 24.75 15.4233 24.75C18.5405 24.75 21.5249 25.2544 24.0542 26.209C25.4702 26.75 26.4146 28.1211 26.4146 29.626C26.4146 31.0069 25.2955 32.126 23.9146 32.126C22.9019 32.126 22.0298 31.5244 21.6373 30.6582C19.8209 30.0713 17.6402 29.75 15.4234 29.75C8.9575 29.75 5 32.3408 5 33.751C5 35.1612 8.9575 37.752 15.4233 37.752C17.6396 37.752 19.8169 37.4317 21.6372 36.8428C22.0308 35.9776 22.9018 35.376 23.9145 35.376C25.2954 35.376 26.4145 36.4951 26.4145 37.876C26.4145 39.3867 25.4653 40.7598 24.0512 41.2949C24.0356 41.3008 24.019 41.3066 24.0024 41.3125C21.4868 42.2539 18.522 42.752 15.4233 42.752Z" fill="url(#paint1_linear_938_24803)"/>
<path id="Vector_3" d="M15.4233 34.502C6.6304 34.502 0 30.6328 0 25.501C0 20.3696 6.6304 16.5 15.4233 16.5C18.5322 16.5 21.5161 17.0039 24.0512 17.958C25.4692 18.4976 26.4145 19.8696 26.4145 21.376C26.4145 22.7569 25.2954 23.876 23.9145 23.876C22.9028 23.876 22.0307 23.2744 21.6372 22.4097C19.8149 21.8218 17.6343 21.5 15.4233 21.5C8.9575 21.5 5 24.0903 5 25.501C5 26.9112 8.9575 29.502 15.4233 29.502C17.6396 29.502 19.8169 29.1817 21.6372 28.5928C22.0308 27.7276 22.9018 27.126 23.9145 27.126C25.2954 27.126 26.4145 28.2451 26.4145 29.626C26.4145 31.1338 25.4682 32.5059 24.059 33.041C21.5288 33.9971 18.5435 34.502 15.4233 34.502Z" fill="url(#paint2_linear_938_24803)"/>
<path id="Vector_4" d="M15.4233 26.252C6.6304 26.252 0 22.3823 0 17.251C0 12.1197 6.6304 8.25 15.4233 8.25C18.542 8.25 21.5268 8.7544 24.0542 9.709C25.4692 10.2476 26.4146 11.6196 26.4146 13.126C26.4146 14.5069 25.2955 15.626 23.9146 15.626C22.9019 15.626 22.0308 15.0239 21.6373 14.1587C19.8199 13.5713 17.6402 13.25 15.4234 13.25C8.9575 13.25 5 15.8403 5 17.251C5 18.6617 8.9575 21.252 15.4233 21.252C17.6386 21.252 19.8159 20.9312 21.6372 20.3428C22.0308 19.4776 22.9018 18.876 23.9145 18.876C25.2954 18.876 26.4145 19.9951 26.4145 21.376C26.4145 22.8823 25.4692 24.2544 24.061 24.7906C21.5269 25.7476 18.542 26.252 15.4233 26.252Z" fill="url(#paint3_linear_938_24803)"/>
<path id="Vector_5" d="M15.4233 18.002C6.6304 18.002 0 14.1323 0 9.001C0 3.8697 6.6304 0 15.4233 0C20.2837 0 24.7133 1.2256 27.5756 3.3633C28.682 4.189 28.9086 5.7559 28.0824 6.8618C27.2562 7.9697 25.6898 8.1948 24.5834 7.3691C22.6265 5.9077 19.1167 5 15.4233 5C8.9575 5 5 7.5903 5 9.001C5 10.4117 8.9575 13.002 15.4233 13.002C17.6377 13.002 19.8149 12.6817 21.6372 12.0933C22.0308 11.2276 22.9018 10.626 23.9145 10.626C25.2954 10.626 26.4145 11.7451 26.4145 13.126C26.4145 14.6309 25.4702 16.003 24.0639 16.5396C21.5269 17.4976 18.5415 18.002 15.4233 18.002Z" fill="url(#paint4_linear_938_24803)"/>
</g>
<defs>
<linearGradient id="paint0_linear_938_24803" x1="11.372" y1="33.1714" x2="15.5561" y2="48.7867" gradientUnits="userSpaceOnUse">
<stop offset="0.4" stop-color="#CC72E8"/>
<stop offset="0.8" stop-color="#FF8EFF"/>
</linearGradient>
<linearGradient id="paint1_linear_938_24803" x1="11.8568" y1="26.8014" x2="15.5451" y2="40.5576" gradientUnits="userSpaceOnUse">
<stop offset="0.4" stop-color="#9955D1"/>
<stop offset="0.8" stop-color="#CC72E8"/>
</linearGradient>
<linearGradient id="paint2_linear_938_24803" x1="12.0289" y1="19.1901" x2="15.4654" y2="32.0155" gradientUnits="userSpaceOnUse">
<stop offset="0.4" stop-color="#6639B9"/>
<stop offset="0.8" stop-color="#9955D1"/>
</linearGradient>
<linearGradient id="paint3_linear_938_24803" x1="11.3428" y1="8.3796" x2="16.3229" y2="26.9655" gradientUnits="userSpaceOnUse">
<stop offset="0.4" stop-color="#331CA2"/>
<stop offset="0.7" stop-color="#6639B9"/>
</linearGradient>
<linearGradient id="paint4_linear_938_24803" x1="12.2735" y1="-0.1198" x2="17.2535" y2="18.4661" gradientUnits="userSpaceOnUse">
<stop offset="0.4" stop-color="#00008B"/>
<stop offset="0.7" stop-color="#331CA2"/>
</linearGradient>
</defs>
</svg>
