<svg width="60" height="23" viewBox="0 0 60 23" fill="none" xmlns="http://www.w3.org/2000/svg">
<g id="R-ICO-014511">
<g id="PIK3R1">
<path d="M1.04773 11.5012C1.04773 5.97837 5.52488 1.50122 11.0477 1.50122H48.0477C53.5706 1.50122 58.0477 5.97837 58.0477 11.5012C58.0477 17.0241 53.5706 21.5012 48.0477 21.5012H11.0477C5.52488 21.5012 1.04773 17.0241 1.04773 11.5012Z" fill="url(#paint0_linear_938_24069)"/>
<path d="M45.2561 2.99388C33.8533 2.87565 22.4505 2.52405 11.0477 1.64123C11.0477 1.54786 11.0477 1.4545 11.0477 1.36113C22.4505 0.47831 33.8533 0.126707 45.2561 0.00848174C46.1866 0.00231636 47.1172 0.000279427 48.0477 0.00160873C53.6183 -0.0984919 58.689 4.49469 59.2556 9.92792C59.3217 10.4517 59.35 10.9751 59.3419 11.5012C59.3933 17.5447 53.7746 22.6827 48.0483 22.2671C48.0481 22.2671 48.0479 22.2671 48.0477 22.2671C42.3465 22.0233 36.6447 21.8479 30.9436 21.9542C25.2422 22.0572 19.5403 22.4657 13.8389 22.666C12.9085 22.6926 11.9781 22.7125 11.0477 22.7265C5.60497 22.914 0.566123 18.3777 0.0700244 13.043C0.0113078 12.529 -0.0101439 12.016 0.00429547 11.5012C0.018788 5.58217 5.64837 0.7173 11.0477 1.36113C11.0477 1.4545 11.0477 1.54786 11.0477 1.64123C5.79411 2.02589 1.81735 6.76699 2.09105 11.5012C2.1056 11.9207 2.14769 12.3336 2.21763 12.7439C2.88562 16.9929 6.83101 20.2797 11.0477 20.2761C11.9781 20.29 12.9085 20.3099 13.8389 20.3365C19.5403 20.5368 25.2421 20.944 30.9436 21.047C36.6448 21.1533 42.3464 20.9792 48.0477 20.7355C48.0479 20.7355 48.048 20.7355 48.0482 20.7354C52.9748 20.5782 56.9612 16.1107 56.7537 11.5012C56.7454 11.0934 56.7102 10.6913 56.6478 10.291C56.0508 6.14029 52.1368 2.90979 48.0477 3.00085C47.1172 3.00215 46.1866 3.00009 45.2561 2.99388Z" fill="#4FA5A1"/>
<text id="PIK3R1_2" fill="white" xml:space="preserve" style="white-space: pre" font-family="Arial" font-size="12" font-weight="bold" letter-spacing="0em"><tspan x="8.52429" y="15.6614">PIK3R1</tspan></text>
</g>
</g>
<defs>
<linearGradient id="paint0_linear_938_24069" x1="29.5477" y1="1.50122" x2="29.5477" y2="21.5012" gradientUnits="userSpaceOnUse">
<stop stop-color="#4FA5A1"/>
<stop offset="1" stop-color="#3F1741"/>
</linearGradient>
</defs>
</svg>
