<svg width="100" height="23" viewBox="0 0 100 23" fill="none" xmlns="http://www.w3.org/2000/svg">
<g id="R-ICO-012422">
<g id="ANGIOTENSIN">
<path d="M0.816406 11.5C0.816406 5.97715 5.29356 1.5 10.8164 1.5H88.8164C94.3393 1.5 98.8164 5.97715 98.8164 11.5C98.8164 17.0228 94.3393 21.5 88.8164 21.5H10.8164C5.29356 21.5 0.816406 17.0228 0.816406 11.5Z" fill="url(#paint0_linear_938_23177)"/>
<path d="M65.5246 2.99266C47.2885 2.87443 29.0525 2.52283 10.8164 1.64001C10.8164 1.54664 10.8164 1.45328 10.8164 1.35991C29.0525 0.477089 47.2885 0.125486 65.5246 0.00726104C73.2883 -0.0249038 81.0525 0.0552971 88.8164 0.139598C90.3516 0.152749 91.8877 0.481207 93.2903 1.10267C97.3517 2.84255 100.099 7.14683 99.968 11.5C100.006 17.4552 94.5442 22.5743 88.8172 22.2659C88.817 22.2659 88.8167 22.2658 88.8164 22.2658C79.6986 22.0221 70.5799 21.8466 61.4623 21.953C52.3443 22.056 43.2255 22.4645 34.1074 22.6648C26.3438 22.8035 18.5801 22.7596 10.8164 22.6481C9.30969 22.6302 7.80512 22.3009 6.43516 21.6844C2.46847 19.9503 -0.169276 15.7191 0.00852823 11.5C0.0368971 5.71829 5.42472 0.910332 10.8164 1.35991C10.8164 1.45328 10.8164 1.54664 10.8164 1.64001C5.55512 1.83049 1.33674 6.62823 1.62414 11.5C1.70438 15.0938 4.06379 18.4093 7.29291 19.6929C8.41028 20.15 9.61444 20.3723 10.8164 20.352C18.58 20.2404 26.3437 20.1966 34.1074 20.3353C43.2255 20.5356 52.3442 20.9428 61.4623 21.0457C70.5801 21.1521 79.6985 20.978 88.8164 20.7342C88.8167 20.7342 88.8169 20.7342 88.8171 20.7342C93.7429 20.6839 97.8861 16.1974 97.6649 11.5C97.6311 8.0409 95.3824 4.79895 92.2486 3.52071C91.1636 3.06811 89.9905 2.84473 88.8164 2.86033C81.0525 2.94469 73.2883 3.02506 65.5246 2.99266Z" fill="#6300C2"/>
<text id="ANGIOTENSIN_2" fill="white" xml:space="preserve" style="white-space: pre" font-family="Arial" font-size="12" font-weight="bold" letter-spacing="0em"><tspan x="8.12109" y="15.6602">ANGIOTENSIN</tspan></text>
</g>
</g>
<defs>
<linearGradient id="paint0_linear_938_23177" x1="49.8164" y1="1.5" x2="49.8164" y2="21.5" gradientUnits="userSpaceOnUse">
<stop stop-color="#6300C2"/>
<stop offset="1" stop-color="#DBA628"/>
</linearGradient>
</defs>
</svg>
