<svg width="62" height="100" viewBox="0 0 62 100" fill="none" xmlns="http://www.w3.org/2000/svg">
<g id="R-ICO-012570">
<path id="BG" d="M59.7219 68.2407C59.7245 68.2287 59.7235 68.2161 59.7258 68.2041C60.8906 62.5067 61.5056 56.3434 61.5056 50.0003C61.5056 37.6689 59.1952 26.0051 54.9995 17.1573C49.7997 6.1893 42.0297 0.446576 31.9078 0.0402834C31.5282 0.0156775 31.1437 0.000717163 30.7529 0.000717163C30.3621 0.000717163 29.9776 0.0156775 29.598 0.0402834C19.476 0.446576 11.706 6.1893 6.5061 17.1573C2.3104 26.0052 0 37.669 0 50.0004C0 56.3617 0.6149 62.5454 1.7862 68.2566C2.8854 73.6163 4.4749 78.5598 6.5061 82.8433C11.9033 94.2275 20.0614 99.9998 30.7529 99.9998C41.4443 99.9998 49.6024 94.2274 54.9996 82.8433C56.987 78.6524 58.5479 73.8268 59.6441 68.6008C59.6462 68.591 59.652 68.5826 59.654 68.5728C59.665 68.5201 59.6742 68.4657 59.6851 68.413C59.6971 68.3549 59.71 68.2989 59.7219 68.2407ZM30.7529 80.2305C27.9652 77.8686 24.1412 71.1464 22.5277 60.545C22.5275 60.5435 22.5277 60.542 22.5274 60.5406C22.5267 60.5364 22.5259 60.5323 22.5253 60.528C22.0441 57.3604 21.7601 53.8472 21.7601 50.0004C21.7601 33.2673 27.1311 22.8387 30.753 19.7702C34.3748 22.8387 39.7459 33.2673 39.7459 50.0004C39.7459 53.8376 39.4635 57.3434 38.9844 60.5049C38.9831 60.5119 38.9839 60.5193 38.9827 60.5264H38.981C37.3692 71.1384 33.5423 77.8672 30.7529 80.2305Z" fill="#7BB6F2"/>
<g id="LINES">
<path id="Vector" d="M38.5398 63.0324C38.1024 65.6701 41.5779 70.0666 47.5629 70.7477C53.7099 71.4473 59.3169 69.8961 59.9006 67.3251C59.9787 66.9438 60.0723 66.4258 60.1738 65.8349C59.6525 68.3309 53.9629 70.1349 47.8159 69.4352C41.8309 68.754 38.3573 64.6819 38.7789 61.7319L38.5398 63.0324Z" fill="#2369B0"/>
<path id="Vector_2" d="M2.02537 69.3823C1.68027 67.0176 5.16897 62.9329 11.2377 62.1057C17.4707 61.2562 22.827 62.4591 23.3222 64.7584L23.6452 66.0929C23.2102 63.8591 17.6781 62.4317 11.4451 63.2812C5.37637 64.1083 1.97357 67.8985 2.29127 70.5454C2.18997 70.1203 2.10107 69.7335 2.02537 69.3823Z" fill="#2369B0"/>
<path id="Vector_3" d="M29.2853 19.8377C23.5292 19.8377 18.9316 15.3303 18.9316 9.87162C18.9316 4.41295 23.4574 0.270694 29.2656 0.0561311C29.7027 0.0380212 30.2964 -0.00656472 30.7529 0.00081705C24.9968 0.00081705 20.3459 4.41285 20.3459 9.87162C20.3459 15.3304 24.9969 19.7703 30.7529 19.7703L30.6456 19.8629L29.2853 19.8377Z" fill="#2369B0"/>
</g>
<path id="SHADOW RIGHT" d="M61.511 50.0005C61.511 62.3318 59.2006 73.9956 55.0048 82.8435C49.6076 94.2277 41.4494 100 30.758 100C20.0666 100 11.9083 94.2276 6.51108 82.8435C2.31528 73.9956 0.00488281 62.3318 0.00488281 50.0005C0.00488281 37.6692 2.31528 26.0055 6.51108 17.1576C11.9083 5.77342 20.0665 0.000976562 30.758 0.000976562C41.4495 0.000976562 49.6077 5.77342 55.0048 17.1576C59.2006 26.0054 61.511 37.6691 61.511 50.0005ZM30.7531 80.2306C34.375 77.1621 39.746 66.7336 39.746 50.0005C39.746 33.2674 34.375 22.8389 30.7531 19.7703C27.1312 22.8389 21.7602 33.2674 21.7602 50.0005C21.7602 66.7336 27.1313 77.1621 30.7531 80.2306Z" fill="url(#paint0_radial_938_24309)"/>
<g id="SHADOW LEFT">
<mask id="mask0_938_24309" style="mask-type:alpha" maskUnits="userSpaceOnUse" x="0" y="0" width="39" height="101">
<ellipse id="MASK" cx="19.6445" cy="50.0769" rx="19" ry="50" fill="white"/>
</mask>
<g mask="url(#mask0_938_24309)">
<path id="SHADOW LEFT_2" d="M61.511 50.0005C61.511 62.3318 59.2006 73.9956 55.0048 82.8435C49.6076 94.2277 41.4494 100 30.758 100C20.0666 100 11.9083 94.2276 6.51108 82.8435C2.31528 73.9956 0.00488281 62.3318 0.00488281 50.0005C0.00488281 37.6692 2.31528 26.0055 6.51108 17.1576C11.9083 5.77342 20.0665 0.000976562 30.758 0.000976562C41.4495 0.000976562 49.6077 5.77342 55.0048 17.1576C59.2006 26.0054 61.511 37.6691 61.511 50.0005ZM30.7531 80.2306C34.375 77.1621 39.746 66.7336 39.746 50.0005C39.746 33.2674 34.375 22.8389 30.7531 19.7703C27.1312 22.8389 21.7602 33.2674 21.7602 50.0005C21.7602 66.7336 27.1313 77.1621 30.7531 80.2306Z" fill="url(#paint1_radial_938_24309)"/>
</g>
</g>
<path id="LIGHT" opacity="0.7" d="M61.511 50.0005C61.511 62.3318 59.2006 73.9956 55.0048 82.8435C49.6076 94.2276 41.4494 100 30.758 100C20.0666 100 11.9083 94.2275 6.51108 82.8435C2.31528 73.9956 0.00488281 62.3318 0.00488281 50.0005C0.00488281 37.6692 2.31528 26.0054 6.51108 17.1576C11.9083 5.7734 20.0665 0.000961304 30.758 0.000961304C41.4495 0.000961304 49.6077 5.7734 55.0048 17.1576C59.2006 26.0054 61.511 37.6691 61.511 50.0005ZM30.7531 80.2306C34.375 77.1621 39.746 66.7335 39.746 50.0005C39.746 33.2675 34.375 22.8389 30.7531 19.7703C27.1312 22.8389 21.7602 33.2674 21.7602 50.0005C21.7602 66.7336 27.1313 77.1621 30.7531 80.2306Z" fill="url(#paint2_radial_938_24309)"/>
</g>
<defs>
<radialGradient id="paint0_radial_938_24309" cx="0" cy="0" r="1" gradientUnits="userSpaceOnUse" gradientTransform="translate(30.7584 50.0004) rotate(-89.9276) scale(66.7698 33.1087)">
<stop offset="0.635979" stop-color="#0C0A50" stop-opacity="0"/>
<stop offset="1" stop-color="#0C0A50"/>
</radialGradient>
<radialGradient id="paint1_radial_938_24309" cx="0" cy="0" r="1" gradientTransform="matrix(0.300897 -67.3075 32.7704 0.0471153 29.5346 49.5047)" gradientUnits="userSpaceOnUse">
<stop offset="0.3176" stop-color="#0C0A50"/>
<stop offset="0.9312" stop-color="#0C0A50" stop-opacity="0"/>
</radialGradient>
<radialGradient id="paint2_radial_938_24309" cx="0" cy="0" r="1" gradientUnits="userSpaceOnUse" gradientTransform="translate(24.1821 49.8166) rotate(-90) scale(67.5867 33.6616)">
<stop offset="0.575" stop-color="white" stop-opacity="0.0837"/>
<stop offset="0.6557" stop-color="white"/>
<stop offset="0.75" stop-color="white" stop-opacity="0"/>
</radialGradient>
</defs>
</svg>
