<svg width="181" height="94" viewBox="0 0 181 94" fill="none" xmlns="http://www.w3.org/2000/svg">
<g id="R-ICO-014583">
<path id="BG" d="M172.435 91.712C170.706 89.3526 167.714 83.7743 159.503 82.215C151.292 80.6557 150.163 69.0895 134.507 67.168C124.547 65.9457 114.134 63.3717 104.781 57.2893C95.4292 51.2069 57.6002 38.9273 43.2403 37.7543C28.8804 36.5813 22.0906 42.2832 12.542 40.7757C10.4553 40.4463 6.1397 40.159 10.1379 36.2775C12.6688 33.8205 6.0227 29.558 3.5317 27.6568C0.720803 25.5114 0.768503 25.8597 0.434103 24.2812C0.0997028 22.7027 0.968703 19.2247 7.3592 24.097C17.7779 32.0405 50.3675 34.8543 61.6239 35.2186C72.8803 35.5829 91.784 39.3825 89.5546 28.8589C87.3251 18.3353 77.9521 10.4247 75.513 9.292C73.0739 8.1593 71.6584 4.4274 75.816 3.5466C79.9737 2.6658 83.3364 -3.3613 85.2201 3.9368C87.1038 11.2349 93.017 31.1708 101.639 32.9988C109.978 34.7669 114.618 31.2464 122.051 38.6516C129.485 46.0568 136.557 52.6223 142.349 54.8772C148.141 57.1321 155.108 60.6044 160.7 57.5871C166.292 54.5698 168.33 45.1581 170.13 51.9241C171.929 58.6901 178.062 58.9616 177.621 61.333C177.385 62.6022 172.42 63.3455 169.286 63.435C163.113 63.6114 159.833 67.7266 176.014 68.4542C181.058 68.681 181.574 75.604 178.34 75.1088C165.257 73.1051 169.493 78.1259 173.12 79.88C175.717 81.1363 180.991 82.4792 179.672 83.6705C178.354 84.8618 175.364 88.558 175.703 90.1582C176.042 91.7585 174.165 94.0714 172.435 91.712Z" fill="#EFA89A" stroke="#D37B13" stroke-width="0.7456" stroke-miterlimit="10"/>
<path id="Nucleus" d="M125.094 50.4125C126.49 47.3588 122.053 42.3354 115.182 39.1923C108.311 36.0493 101.609 35.9769 100.212 39.0306C98.815 42.0843 103.253 47.1078 110.123 50.2508C116.994 53.3938 123.697 53.4662 125.094 50.4125Z" fill="#F2CDC7" stroke="#D37B13" stroke-width="0.7456" stroke-miterlimit="10"/>
<path id="Nucleolus" d="M119.682 47.7701C120.277 46.4692 119.2 44.7012 117.276 43.8212C115.352 42.9411 113.31 43.2823 112.715 44.5832C112.12 45.8841 113.197 47.6521 115.121 48.5322C117.045 49.4122 119.087 49.071 119.682 47.7701Z" fill="#F48D7F" stroke="#D37B13" stroke-width="0.7456" stroke-miterlimit="10"/>
</g>
</svg>
