<svg width="17" height="100" viewBox="0 0 17 100" fill="none" xmlns="http://www.w3.org/2000/svg">
<g id="R-ICO-012545">
<path id="Vector" d="M8.38477 99.769C5.62307 99.769 3.38477 97.5307 3.38477 94.769V63.3882C3.38477 60.6265 5.62307 58.3882 8.38477 58.3882C11.1465 58.3882 13.3848 60.6265 13.3848 63.3882V94.769C13.3848 97.5307 11.1465 99.769 8.38477 99.769Z" fill="url(#paint0_linear_938_22976)"/>
<path id="Vector_2" d="M8.385 66.7732C13.0159 66.7732 16.77 63.0191 16.77 58.3882C16.77 53.7573 13.0159 50.0032 8.385 50.0032C3.75409 50.0032 0 53.7573 0 58.3882C0 63.0191 3.75409 66.7732 8.385 66.7732Z" fill="url(#paint1_radial_938_22976)"/>
<path id="Vector_3" d="M8.385 56.7725C13.0159 56.7725 16.77 53.0184 16.77 48.3875C16.77 43.7566 13.0159 40.0025 8.385 40.0025C3.75409 40.0025 0 43.7566 0 48.3875C0 53.0184 3.75409 56.7725 8.385 56.7725Z" fill="url(#paint2_radial_938_22976)"/>
<path id="Vector_4" d="M8.385 46.7719C13.0159 46.7719 16.77 43.0178 16.77 38.3869C16.77 33.756 13.0159 30.0019 8.385 30.0019C3.75409 30.0019 0 33.756 0 38.3869C0 43.0178 3.75409 46.7719 8.385 46.7719Z" fill="url(#paint3_radial_938_22976)"/>
<path id="Vector_5" d="M8.385 36.7713C13.0159 36.7713 16.77 33.0172 16.77 28.3863C16.77 23.7554 13.0159 20.0013 8.385 20.0013C3.75409 20.0013 0 23.7554 0 28.3863C0 33.0172 3.75409 36.7713 8.385 36.7713Z" fill="url(#paint4_radial_938_22976)"/>
<path id="Vector_6" d="M8.385 26.7706C13.0159 26.7706 16.77 23.0165 16.77 18.3856C16.77 13.7547 13.0159 10.0006 8.385 10.0006C3.75409 10.0006 0 13.7547 0 18.3856C0 23.0165 3.75409 26.7706 8.385 26.7706Z" fill="url(#paint5_radial_938_22976)"/>
<path id="Vector_7" d="M8.385 16.77C13.0159 16.77 16.77 13.0159 16.77 8.385C16.77 3.75409 13.0159 0 8.385 0C3.75409 0 0 3.75409 0 8.385C0 13.0159 3.75409 16.77 8.385 16.77Z" fill="url(#paint6_radial_938_22976)"/>
<path id="Vector_8" d="M13.3848 92.9953V94.769C13.3848 97.5307 11.1465 99.769 8.38477 99.769C5.62307 99.769 3.38477 97.5307 3.38477 94.769V92.9953" fill="url(#paint7_radial_938_22976)"/>
</g>
<defs>
<linearGradient id="paint0_linear_938_22976" x1="3.38477" y1="79.0786" x2="13.3848" y2="79.0786" gradientUnits="userSpaceOnUse">
<stop stop-color="#626622"/>
<stop offset="0.0346" stop-color="#7A7E32"/>
<stop offset="0.0842" stop-color="#969B45"/>
<stop offset="0.1339" stop-color="#AAAF53"/>
<stop offset="0.1834" stop-color="#B6BB5B"/>
<stop offset="0.2322" stop-color="#BABF5E"/>
<stop offset="1" stop-color="#626622"/>
</linearGradient>
<radialGradient id="paint1_radial_938_22976" cx="0" cy="0" r="1" gradientUnits="userSpaceOnUse" gradientTransform="translate(5.7184 55.0548) scale(8.385)">
<stop stop-color="#BABF5E"/>
<stop offset="1" stop-color="#626622"/>
</radialGradient>
<radialGradient id="paint2_radial_938_22976" cx="0" cy="0" r="1" gradientUnits="userSpaceOnUse" gradientTransform="translate(5.7184 45.0542) scale(8.385)">
<stop stop-color="#BABF5E"/>
<stop offset="1" stop-color="#626622"/>
</radialGradient>
<radialGradient id="paint3_radial_938_22976" cx="0" cy="0" r="1" gradientUnits="userSpaceOnUse" gradientTransform="translate(5.7184 35.0536) scale(8.385)">
<stop stop-color="#BABF5E"/>
<stop offset="1" stop-color="#626622"/>
</radialGradient>
<radialGradient id="paint4_radial_938_22976" cx="0" cy="0" r="1" gradientUnits="userSpaceOnUse" gradientTransform="translate(5.7184 25.0529) scale(8.385)">
<stop stop-color="#BABF5E"/>
<stop offset="1" stop-color="#626622"/>
</radialGradient>
<radialGradient id="paint5_radial_938_22976" cx="0" cy="0" r="1" gradientUnits="userSpaceOnUse" gradientTransform="translate(5.7184 15.0523) scale(8.385)">
<stop stop-color="#BABF5E"/>
<stop offset="1" stop-color="#626622"/>
</radialGradient>
<radialGradient id="paint6_radial_938_22976" cx="0" cy="0" r="1" gradientUnits="userSpaceOnUse" gradientTransform="translate(5.7184 5.0517) scale(8.385)">
<stop stop-color="#BABF5E"/>
<stop offset="1" stop-color="#626622"/>
</radialGradient>
<radialGradient id="paint7_radial_938_22976" cx="0" cy="0" r="1" gradientUnits="userSpaceOnUse" gradientTransform="translate(6.34647 91.945) scale(6.2198 8.7015)">
<stop stop-color="#BABF5E"/>
<stop offset="1" stop-color="#626622"/>
</radialGradient>
</defs>
</svg>
