<svg width="77" height="23" viewBox="0 0 77 23" fill="none" xmlns="http://www.w3.org/2000/svg">
<g id="R-ICO-013483">
<g id="TRYPSINS">
<path d="M0.937012 11.5C0.937012 5.97715 5.41416 1.5 10.937 1.5H64.937C70.4599 1.5 74.937 5.97715 74.937 11.5C74.937 17.0228 70.4599 21.5 64.937 21.5H10.937C5.41416 21.5 0.937012 17.0228 0.937012 11.5Z" fill="url(#paint0_linear_938_23672)"/>
<path d="M53.6453 2.99266C39.4092 2.87443 25.1731 2.52283 10.937 1.64001C10.937 1.54664 10.937 1.45328 10.937 1.35991C25.1731 0.477089 39.4092 0.125486 53.6453 0.00726104C57.4091 -0.0127136 61.1731 0.010646 64.937 0.0514109C68.7907 0.0530524 72.5248 2.19528 74.4981 5.44378C75.6251 7.2515 76.2073 9.38983 76.1648 11.5C76.2009 17.5011 70.6639 22.624 64.9377 22.2659C64.9374 22.2659 64.9372 22.2658 64.937 22.2658C57.8192 22.0221 50.7006 21.8466 43.5829 21.953C36.4648 22.056 29.3462 22.4645 22.2281 22.6648C18.4644 22.7509 14.7007 22.7667 10.937 22.7395C7.15261 22.7509 3.48054 20.6306 1.57243 17.4323C0.485179 15.6507 -0.0609472 13.5556 0.005207 11.5C0.0352619 5.64623 5.54299 0.819377 10.937 1.35991C10.937 1.45328 10.937 1.54664 10.937 1.64001C5.67807 1.92141 1.57953 6.70035 1.86867 11.5C1.92663 13.2118 2.4665 14.8761 3.40316 16.2704C5.06046 18.776 7.9882 20.3103 10.937 20.2606C14.7007 20.2334 18.4644 20.2492 22.2281 20.3353C29.3462 20.5356 36.4648 20.9428 43.5829 21.0457C50.7007 21.1521 57.819 20.978 64.937 20.7342C64.9372 20.7342 64.9374 20.7342 64.9376 20.7342C69.8642 20.6343 73.9322 16.1516 73.7093 11.5C73.675 9.84321 73.1715 8.22258 72.275 6.85451C70.6831 4.39869 67.817 2.88582 64.937 2.9486C61.1731 2.98941 57.4091 3.01278 53.6453 2.99266Z" fill="#A8A000"/>
<text id="TRYPSINS_2" fill="white" xml:space="preserve" style="white-space: pre" font-family="Arial" font-size="12" font-weight="bold" letter-spacing="0em"><tspan x="8.14209" y="15.6602">TRYPSINS</tspan></text>
</g>
</g>
<defs>
<linearGradient id="paint0_linear_938_23672" x1="37.937" y1="1.5" x2="37.937" y2="21.5" gradientUnits="userSpaceOnUse">
<stop stop-color="#A8A000"/>
<stop offset="1" stop-color="#2E5400"/>
</linearGradient>
</defs>
</svg>
