<svg width="51" height="23" viewBox="0 0 51 23" fill="none" xmlns="http://www.w3.org/2000/svg">
<g id="R-ICO-012554">
<g id="CGB3">
<path d="M1.12207 11.4709C1.12207 5.94807 5.59922 1.47092 11.1221 1.47092H39.1221C44.6449 1.47092 49.1221 5.94807 49.1221 11.4709C49.1221 16.9938 44.6449 21.4709 39.1221 21.4709H11.1221C5.59922 21.4709 1.12207 16.9938 1.12207 11.4709Z" fill="url(#paint0_linear_938_23245)"/>
<path d="M40.5709 3.08619C40.0949 2.99772 39.6103 2.94918 39.1221 2.9408C29.7887 2.80315 20.4554 2.44298 11.1221 1.61092C11.1221 1.51756 11.1221 1.42419 11.1221 1.33083C20.4554 0.498773 29.7887 0.138597 39.1221 0.000945091C39.7743 -0.00750184 40.4287 0.0397826 41.0751 0.143685C46.4659 0.939682 50.6639 6.13073 50.4554 11.4709C50.4497 11.7948 50.4306 12.1148 50.3979 12.4359C49.9489 18.1293 44.5208 22.6499 39.1225 22.2368C39.1224 22.2368 39.1222 22.2368 39.1221 22.2368C34.1708 21.993 29.2191 21.8176 24.2679 21.9239C19.8861 22.015 15.5039 22.3454 11.1221 22.5591C10.491 22.5869 9.8548 22.5596 9.224 22.4749C3.95996 21.8325 -0.251536 16.7136 0.0118828 11.4709C0.0203286 11.1535 0.0421915 10.8401 0.0776354 10.526C0.582969 4.94921 6.02884 0.671003 11.1221 1.33083C11.1221 1.42419 11.1221 1.51756 11.1221 1.61092C6.17231 2.05498 2.37931 6.26662 2.23827 10.7086C2.22571 10.963 2.22378 11.2157 2.23217 11.4709C2.31779 15.6677 5.55862 19.3792 9.61754 20.1788C10.1093 20.2865 10.6124 20.355 11.1221 20.3828C15.504 20.5962 19.8861 20.9255 24.2679 21.0167C29.2191 21.123 34.1707 20.9489 39.1221 20.7052C39.1222 20.7052 39.1223 20.7051 39.1225 20.7051C43.7668 20.5071 47.5764 16.5387 47.7744 12.214C47.7897 11.9664 47.7944 11.72 47.7888 11.4709C47.7582 7.37134 44.503 3.73193 40.5709 3.08619Z" fill="#5AB1F3"/>
<text id="CGB3_2" fill="white" xml:space="preserve" style="white-space: pre" font-family="Arial" font-size="12" font-weight="bold" letter-spacing="0em"><tspan x="8.44043" y="15.6311">CGB3</tspan></text>
</g>
</g>
<defs>
<linearGradient id="paint0_linear_938_23245" x1="25.1221" y1="1.47092" x2="25.1221" y2="21.4709" gradientUnits="userSpaceOnUse">
<stop stop-color="#5AB1F3"/>
<stop offset="1" stop-color="#B6D8F3"/>
</linearGradient>
</defs>
</svg>
