<svg width="23" height="158" viewBox="0 0 23 158" fill="none" xmlns="http://www.w3.org/2000/svg">
<g id="R-ICO-013346">
<g id="R-ICO-013345">
<path id="Vector" d="M22.9336 73.0906C22.9336 77.4681 17.7997 78.8091 11.4668 78.8091C5.1339 78.8091 0 77.4681 0 73.0906C0 70.4924 1.809 67.4095 4.6036 65.3324C7.3598 63.2839 9.0401 59.8121 9.0401 56.0676V2.90258C9.0401 1.44738 9.9744 0.136978 11.2492 0.0107803C12.6872 -0.131523 13.8932 1.15358 13.8932 2.75948V56.0674C13.8932 59.8119 15.5735 63.2837 18.3298 65.3322C21.1246 67.4094 22.9336 70.4923 22.9336 73.0906Z" fill="url(#paint0_linear_938_24371)"/>
<path id="Vector_2" d="M22.9336 73.0906C22.9336 77.4681 17.7997 78.8091 11.4668 78.8091C5.1339 78.8091 0 77.4681 0 73.0906C0 70.4924 1.809 67.4095 4.6036 65.3324C7.3598 63.2839 9.0401 59.8121 9.0401 56.0676V2.90258C9.0401 1.44738 9.9744 0.136978 11.2492 0.0107803C12.6872 -0.131523 13.8932 1.15358 13.8932 2.75948V56.0674C13.8932 59.8119 15.5735 63.2837 18.3298 65.3322C21.1246 67.4094 22.9336 70.4923 22.9336 73.0906Z" fill="url(#paint1_linear_938_24371)"/>
</g>
<g id="R-ICO-013198">
<path id="Vector_3" d="M22.9336 84.5344C22.9336 80.1569 17.7997 78.8159 11.4668 78.8159C5.1339 78.8159 0 80.1568 0 84.5344C0 87.1326 1.809 90.2155 4.6036 92.2926C7.3598 94.3411 9.0401 97.8129 9.0401 101.557V154.722C9.0401 156.178 9.9744 157.488 11.2492 157.614C12.6872 157.757 13.8932 156.471 13.8932 154.866V101.558C13.8932 97.8131 15.5735 94.3413 18.3298 92.2928C21.1246 90.2156 22.9336 87.1326 22.9336 84.5344Z" fill="url(#paint2_linear_938_24371)"/>
<path id="Vector_4" d="M22.9336 84.5344C22.9336 80.1569 17.7997 78.8159 11.4668 78.8159C5.1339 78.8159 0 80.1568 0 84.5344C0 87.1326 1.809 90.2155 4.6036 92.2926C7.3598 94.3411 9.0401 97.8129 9.0401 101.557V154.722C9.0401 156.178 9.9744 157.488 11.2492 157.614C12.6872 157.757 13.8932 156.471 13.8932 154.866V101.558C13.8932 97.8131 15.5735 94.3413 18.3298 92.2928C21.1246 90.2156 22.9336 87.1326 22.9336 84.5344Z" fill="url(#paint3_linear_938_24371)"/>
</g>
</g>
<defs>
<linearGradient id="paint0_linear_938_24371" x1="0" y1="39.4046" x2="22.9336" y2="39.4046" gradientUnits="userSpaceOnUse">
<stop offset="0.15" stop-color="#226664"/>
<stop offset="0.5" stop-color="#5EB6BF"/>
<stop offset="0.85" stop-color="#226664"/>
</linearGradient>
<linearGradient id="paint1_linear_938_24371" x1="11.4668" y1="78.8091" x2="11.4668" y2="8.45529e-05" gradientUnits="userSpaceOnUse">
<stop offset="0.0005" stop-color="#226664"/>
<stop offset="0.1418" stop-color="#226664" stop-opacity="0.5"/>
<stop offset="1" stop-color="#226664" stop-opacity="0"/>
</linearGradient>
<linearGradient id="paint2_linear_938_24371" x1="0" y1="118.22" x2="22.9336" y2="118.22" gradientUnits="userSpaceOnUse">
<stop offset="0.15" stop-color="#223664"/>
<stop offset="0.5" stop-color="#5E88BF"/>
<stop offset="0.85" stop-color="#223664"/>
</linearGradient>
<linearGradient id="paint3_linear_938_24371" x1="11.4668" y1="78.8159" x2="11.4668" y2="157.625" gradientUnits="userSpaceOnUse">
<stop stop-color="#223664"/>
<stop offset="0.14" stop-color="#223664" stop-opacity="0.5"/>
<stop offset="1" stop-color="#223664" stop-opacity="0"/>
</linearGradient>
</defs>
</svg>
