<svg width="109" height="99" viewBox="0 0 109 99" fill="none" xmlns="http://www.w3.org/2000/svg">
<g id="R-ICO-013391">
<g id="LEFT">
<path id="Vector" d="M39.2237 98.1752C39.2237 98.1752 0.5 99.3882 0.5 52.8845C0.5 6.3808 29.9352 0.5 39.6404 0.5" stroke="#395B2C" stroke-miterlimit="10" stroke-linecap="round" stroke-linejoin="round" stroke-dasharray="4 4"/>
<path id="Vector_2" d="M39.2676 78.6402C33.5776 78.6402 0.5 76.2632 0.5 52.8845C0.5 29.5058 17.9619 20.035 39.7072 20.035" stroke="#395B2C" stroke-miterlimit="10" stroke-linecap="round" stroke-linejoin="round" stroke-dasharray="4 4"/>
<path id="Vector_3" d="M39.2676 59.105C31.7026 59.105 0.5 59.138 0.5 52.8843C0.5 46.6306 6.0869 39.5699 39.7072 39.5699" stroke="#395B2C" stroke-miterlimit="10" stroke-linecap="round" stroke-linejoin="round" stroke-dasharray="4 4"/>
</g>
<g id="RIGHT">
<path id="Vector_4" d="M69.737 98.1752C69.737 98.1752 108.461 99.3882 108.461 52.8845C108.461 6.3808 79.0255 0.5 69.3203 0.5" stroke="#5B2C2C" stroke-miterlimit="10" stroke-linecap="round" stroke-linejoin="round" stroke-dasharray="4 4"/>
<path id="Vector_5" d="M69.6935 78.6402C75.3835 78.6402 108.461 76.2632 108.461 52.8845C108.461 29.5058 90.9992 20.035 69.2539 20.035" stroke="#5B2C2C" stroke-miterlimit="10" stroke-linecap="round" stroke-linejoin="round" stroke-dasharray="4 4"/>
<path id="Vector_6" d="M69.6935 59.105C77.2585 59.105 108.461 59.138 108.461 52.8843C108.461 46.6306 102.874 39.5699 69.2539 39.5699" stroke="#5B2C2C" stroke-miterlimit="10" stroke-linecap="round" stroke-linejoin="round" stroke-dasharray="4 4"/>
</g>
</g>
</svg>
