<svg width="74" height="88" viewBox="0 0 74 88" fill="none" xmlns="http://www.w3.org/2000/svg">
<g id="R-ICO-013657">
<path id="HTR2A" d="M54.97 86.846C73.6162 84.6334 73.6132 71.8752 73.8508 39.2435C74.0899 12.7455 72.8602 0.2329 66.2357 0.2345C59.3658 0.2361 58.142 12.504 57.6576 39.002C57.6595 46.8532 57.4197 70.6523 53.9854 73.1066C51.0406 70.6538 50.7901 48.8176 50.7881 40.4757L50.7875 37.7768C50.7823 15.6952 50.2879 0.2382 43.1727 0.2399C36.3029 0.2415 34.8338 13.0001 34.5946 39.0074C34.5965 46.8586 34.3567 70.6577 30.9224 73.112C27.7322 70.6592 27.7266 46.8602 27.7248 39.009C27.9638 12.511 26.734 -0.00159985 20.1096 1.53425e-07C14.9572 0.00120015 13.487 7.8528 12.7527 15.4589C12.0184 23.0649 12.0206 32.3883 11.7769 39.2582C11.7788 47.1094 11.539 70.9085 8.1047 73.3629C4.9145 70.91 4.9089 47.111 4.907 39.2597V2.9477L0 2.9489V39.2609C0.0016 46.1307 0.0038 55.4541 0.4963 63.0598C1.2342 70.6655 2.7081 78.271 7.8604 78.2698C13.0128 78.2686 14.483 70.417 15.2173 62.8109C15.9516 55.2049 15.9494 45.8815 16.1931 39.0116C16.1912 31.1604 16.431 7.3613 19.8653 4.9069C23.0555 7.3597 23.0611 31.1587 23.0629 39.0099C22.8238 65.5079 24.0535 78.0205 30.678 78.0189C37.5478 78.0173 39.0169 65.2587 39.2561 39.2514C39.2542 31.4002 39.494 7.6011 42.9283 5.1467C46.1185 7.5995 46.1237 29.681 46.1256 38.023L46.1262 40.7219C46.1313 62.3128 46.6257 78.0151 53.7409 78.0134C60.6107 78.0118 61.8346 65.7439 62.319 39.2459C62.3171 31.3947 62.5569 7.5956 65.9912 5.1412C69.1814 7.594 69.187 31.393 69.1888 39.2442C68.9521 75.8015 68.9537 82.426 48.5894 82.1855L48.5906 87.0925C50.5537 87.0924 53.0072 86.8465 54.97 86.846Z" fill="url(#paint0_linear_938_23042)"/>
</g>
<defs>
<linearGradient id="paint0_linear_938_23042" x1="36.9391" y1="87.0929" x2="36.9391" y2="0" gradientUnits="userSpaceOnUse">
<stop stop-color="#ED3D84"/>
<stop offset="1" stop-color="#DCE11E"/>
</linearGradient>
</defs>
</svg>
