<svg width="160" height="126" viewBox="0 0 160 126" fill="none" xmlns="http://www.w3.org/2000/svg">
<g id="R-ICO-012438" opacity="0.8">
<g id="BGs">
<path id="Vector" d="M134.721 26.3781C140.089 26.3781 150.252 12.9453 142.547 8.06865C130.603 0.509752 119.942 -2.59295 111.542 7.82785C109.316 10.5906 112.958 21.243 121.417 25.1021C129.875 28.9612 129.354 26.3781 134.721 26.3781Z" fill="url(#paint0_radial_938_25160)"/>
<path id="Vector_2" d="M101.442 85.3807C103.27 86.7744 105.621 88.1471 108.635 89.4748C112.627 91.2335 116.842 92.3803 121.057 92.9024C126.559 93.5842 126.607 79.4137 130.956 76.5372C137.82 71.9962 134.722 89.378 145.397 87.8939C151.629 87.0274 154.659 79.2358 156.484 72.2821C158.42 64.9013 159.659 46.7254 147.19 41.7131C134.722 36.7009 136.987 57.9195 129.654 64.2113C122.32 70.5032 113.987 56.3041 106.487 61.9708C102.54 64.953 97.23 69.7193 96.2992 74.9837C95.7027 78.3577 96.921 81.9351 101.442 85.3807Z" fill="url(#paint1_radial_938_25160)"/>
<path id="Vector_3" d="M66.0283 92.9028C61.9067 92.9351 56.0512 94.6143 54.3547 96.5806C51.6536 99.7112 56.4265 103.44 60.3979 102.618C63.9529 101.883 70.3021 98.6763 70.3021 94.8604C70.3021 93.4412 68.4688 92.8837 66.0283 92.9028Z" fill="url(#paint2_radial_938_25160)"/>
<path id="Vector_4" d="M34.9921 96.0445C25.4303 99.9479 12.6917 106.948 16.7405 112.702C24.9085 124.311 36.76 128.591 47.9911 116.983C52.5663 112.254 48.4253 92.3191 34.9921 96.0445Z" fill="url(#paint3_radial_938_25160)"/>
<path id="Vector_5" d="M50.7334 65.2915C58.0164 69.5894 75.0744 52.1771 70.3021 49.6194C49.7822 38.6218 55.0889 51.9838 42.6536 49.6194C22.397 45.7679 -0.257382 38.8352 1.53772 65.693C2.30632 77.1917 2.49032 84.2536 7.08612 93.6238C10.7677 101.13 12.3108 100.783 17.3988 98.7474C22.4868 96.7113 27.1758 88.9348 32.0179 84.075C36.8601 79.2153 36.2904 56.7683 50.7334 65.2915Z" fill="url(#paint4_radial_938_25160)"/>
<path id="Vector_6" d="M100.987 34.7797C105.52 28.9505 108.079 20.9574 104.511 18.3357C94.392 10.9011 79.9713 27.7519 75.2739 39.8268C74.6344 41.4707 79.3483 48.0896 85.6539 44.2111C91.9595 40.3326 96.455 40.6089 100.987 34.7797Z" fill="url(#paint5_radial_938_25160)"/>
</g>
<g id="Membranes">
<path id="Vector_7" d="M111.318 15.3066C112.262 17.595 113.768 19.9761 115.778 22.008C116.412 22.9036 117.16 23.73 117.997 24.4705C118.857 25.2238 119.826 25.8744 120.856 26.4058L122.34 27.1207C122.857 27.3327 123.363 27.5504 123.893 27.7458C124.953 28.1229 126.077 28.442 127.307 28.5584C128.531 28.6891 129.904 28.462 130.92 28.0787C131.928 27.7318 132.798 27.3868 133.778 27.1625C134.073 27.1432 134.378 27.1276 134.722 27.1276C136.648 27.1276 139.005 25.7011 141.073 23.5841C142.13 22.7275 143.1 21.7526 143.935 20.6542C144.842 19.4638 145.605 18.138 146.149 16.6724C146.674 15.2071 146.99 13.5647 146.722 11.8348C146.587 10.9796 146.293 10.1127 145.823 9.34592C145.35 8.58392 144.741 7.91752 144.054 7.39942C143.312 6.87962 142.728 6.56762 142.091 6.22742C141.462 5.88562 140.822 5.56252 140.174 5.25432C138.966 4.68612 137.724 4.16352 136.454 3.72632C133.424 2.22152 130.341 1.06932 127.289 0.595218C126.035 0.263218 124.734 0.0328178 123.396 0.00401777C120.275 -0.0735822 117.026 0.976018 114.513 2.88242C113.856 3.32822 113.3 3.87892 112.71 4.39022C112.183 4.95832 111.611 5.49132 111.15 6.10492C110.905 6.41712 110.684 6.67782 110.421 7.03162C110.078 7.52322 109.877 8.04272 109.787 8.51182C109.583 9.46452 109.647 10.3164 109.769 11.1252C110.036 12.6614 110.614 14.0346 111.318 15.3066ZM135.821 5.14622C136.889 5.85632 137.947 6.56932 138.997 7.29842L140.71 8.48322C141.271 8.88012 141.897 9.29312 142.278 9.62212C143.089 10.3614 143.613 11.2351 143.76 12.3102C144.103 14.4693 143.197 17.0687 141.963 19.3747C141.335 20.5275 140.632 21.675 139.797 22.7341C138.023 24.4877 136.111 25.6276 134.722 25.6276C134.341 25.6276 133.995 25.6419 133.666 25.6636C132.573 25.5624 131.405 25.6392 130.399 25.778C129.349 25.9166 128.563 25.9134 127.67 25.7362C126.787 25.5615 125.854 25.2711 124.909 24.9242C123.961 24.5886 123.004 24.1981 122.033 23.8226C121.125 23.4651 120.239 23.0426 119.363 22.5571C118.508 22.0883 117.68 21.5529 116.853 20.9716C115.019 19.1257 113.635 16.9629 112.757 14.8757C112.368 13.5409 112.147 12.1723 112.117 10.8991C112.117 10.2671 112.184 9.64722 112.343 9.19342C112.413 8.95492 112.534 8.81062 112.607 8.71102L113.288 7.98312C114.218 6.98382 115.214 6.07492 116.285 5.30152C118.401 3.70932 120.848 2.71392 123.519 2.35152C124.719 2.20042 125.964 2.15562 127.228 2.20122C129.835 2.63372 132.685 3.61542 135.821 5.14622Z" fill="#28687C"/>
<path id="Vector_8" d="M159.131 59.6315C158.931 56.7931 158.457 53.9362 157.468 51.1945C156.437 48.4869 154.91 45.8456 152.665 43.8811C151.557 42.9001 150.322 42.0519 148.979 41.4626C147.79 40.9493 146.555 40.5233 145.235 40.3543C143.68 40.0627 142.301 40.2027 141.066 40.7947C138.423 42.0612 136.933 45.1226 135.692 48.7502C135.086 49.9771 134.569 51.2427 134.069 52.4762C133.043 55.0758 132.154 57.6859 130.966 59.9753C130.384 61.1239 129.702 62.173 128.877 62.9809C128.057 63.8381 127.096 64.3847 125.993 64.6415C124.907 64.8639 123.648 64.7767 122.37 64.48C121.05 63.9996 119.698 63.2973 118.318 62.5768C117.503 62.1509 116.682 61.7244 115.858 61.3368C115.073 60.7755 114.23 60.2789 113.29 59.8765C112.313 59.4687 111.209 59.1902 110.031 59.1963C108.856 59.194 107.641 59.5284 106.619 60.1056C105.553 60.7374 104.873 61.3561 104.119 62.0162C103.383 62.6838 102.675 63.3863 102.022 64.1442C101.39 64.8794 100.794 65.6606 100.273 66.4898C98.0286 68.9194 96.559 71.2936 95.8686 73.5946C95.2078 75.184 94.9204 77.0462 95.2756 78.8564C95.5954 80.731 96.5404 82.4357 97.6924 83.8373C98.8562 85.2437 100.23 86.4047 101.669 87.3927C104.576 89.352 107.722 90.7233 111.002 91.6819C112.596 92.1462 114.223 92.4953 115.863 92.7094C117.542 93.1178 119.244 93.4333 120.964 93.6462C121.133 93.6677 121.297 93.6774 121.458 93.6774C123.371 93.6774 124.655 92.2163 125.662 90.1551C126.567 88.6597 127.227 87.0875 127.829 85.5361C128.477 83.9298 129.036 82.3204 129.702 80.8452C130.038 80.1138 130.387 79.4065 130.797 78.8308C131.001 78.5501 131.203 78.2743 131.418 78.0846C131.522 77.9709 131.63 77.9031 131.732 77.8236C131.836 77.7424 132.009 77.6616 132.142 77.5774C132.422 77.4147 132.671 77.3326 132.857 77.2824C133.02 77.2816 133.086 77.2659 133.179 77.3138C133.404 77.395 133.853 77.9418 134.196 78.6098C134.919 79.9699 135.515 81.652 136.389 83.2317C136.823 84.0258 137.289 84.8295 137.89 85.561C138.454 86.2357 139.116 86.8589 139.878 87.3377C141.248 88.3924 143.042 88.9778 145.5 88.6376C148.741 88.1866 151.128 86.0388 152.934 83.2275C154.483 81.0871 155.627 78.7061 156.526 76.2793C157.029 74.962 157.452 73.6458 157.833 72.2843C158.214 70.9003 158.499 69.512 158.719 68.1131C159.135 65.3129 159.271 62.4769 159.131 59.6315ZM145.294 87.1511C143.426 87.4103 142.04 87.0424 140.956 86.2905C140.941 86.2764 140.921 86.2674 140.907 86.253C139.771 85.2311 139.102 83.7768 138.518 82.2577C137.944 80.7144 137.516 79.0963 136.749 77.3522C136.542 76.9102 136.313 76.4677 135.982 76.0069C135.678 75.5555 135.204 75.0655 134.572 74.6981C133.903 74.3185 133.076 74.2439 132.39 74.336C131.732 74.459 131.172 74.6844 130.703 74.9457C130.472 75.089 130.255 75.1973 130.015 75.3752C129.774 75.5553 129.534 75.7403 129.344 75.9431C128.928 76.3404 128.618 76.7637 128.335 77.1894C127.791 78.0467 127.402 78.9038 127.079 79.7597C126.441 81.4698 126.005 83.159 125.607 84.8289C125.194 86.4225 124.845 88.0152 124.309 89.5014C123.479 91.1917 122.485 92.3174 121.148 92.1578C119.491 91.9525 117.85 91.6489 116.232 91.2558C114.726 90.7036 113.248 90.1191 111.799 89.4807C108.862 88.1456 105.955 86.6733 103.361 84.9162C100.795 83.1528 98.458 81.0383 97.5403 78.3008C97.1093 76.9813 97.027 75.5165 97.3031 74.0297C97.9227 71.9497 99.2711 69.7781 101.346 67.5309L103.619 65.8793L105.909 64.2278C106.664 63.6895 107.474 63.0642 108.077 62.7262C109.372 61.9701 110.866 61.83 112.627 62.1315C113.475 62.2669 114.351 62.485 115.255 62.7116C116.035 63.0791 116.824 63.4886 117.623 63.9058C118.965 64.6061 120.367 65.333 121.795 65.856C122.439 66.1899 123.13 66.4643 123.861 66.6933C124.614 66.8964 125.418 67.0171 126.253 66.9859C127.928 66.9161 129.596 66.1599 130.792 65.0854C132.05 64.0194 132.935 62.6942 133.624 61.3641C135.004 58.6786 135.704 55.8929 136.318 53.161C136.61 51.8252 136.863 50.5044 137.131 49.1836C138.257 45.901 139.572 43.1738 141.715 42.1469C142.567 41.7378 143.536 41.6144 144.64 41.7709C145.83 42.0233 146.991 42.575 148.072 43.2067C149.175 43.8575 150.179 44.6468 151.042 45.5678C152.759 47.4147 154.013 49.6708 154.785 52.1277C155.582 54.5765 156 57.1801 156.138 59.8088C156.324 62.4376 156.207 65.1039 155.911 67.7389C155.773 69.0574 155.572 70.3719 155.29 71.6481C154.981 72.9392 154.674 74.2672 154.31 75.5512C153.577 78.0874 152.713 80.5889 151.405 82.839C149.847 85.1119 147.865 86.7934 145.294 87.1511Z" fill="#28687C"/>
<path id="Vector_9" d="M71.2607 93.3055C70.6875 92.5217 69.9775 92.2227 69.3913 92.0478C68.7909 91.8701 68.235 91.8212 67.6991 91.8105C66.656 91.8143 65.6675 91.9582 64.7239 92.2146C62.991 92.3486 61.0706 92.7078 59.2963 93.2319C58.4735 93.2887 57.6544 93.4279 56.8424 93.645C56.003 93.8807 55.172 94.1954 54.3424 94.7116C53.9342 94.9651 53.4977 95.3146 53.1277 95.7585C52.9539 95.9816 52.79 96.2136 52.6317 96.4493C52.4995 96.7218 52.3753 97.0022 52.2619 97.2844C52.1766 97.5824 52.1344 97.9054 52.0894 98.2161C52.0755 98.5299 52.1066 98.8491 52.1358 99.1615C52.2029 99.46 52.3002 99.7487 52.3955 100.035C52.5198 100.295 52.6547 100.548 52.8013 100.792C53.4302 101.714 54.2627 102.322 55.1324 102.726C55.9891 103.13 56.929 103.333 57.8408 103.322C58.3149 103.417 58.7949 103.479 59.2724 103.479C59.705 103.479 60.1337 103.438 60.5497 103.352C61.3647 103.184 62.3623 102.871 63.4112 102.446C64.3725 102.254 65.3158 101.946 66.2237 101.559C68.0449 100.732 69.8744 99.5879 71.088 97.4889C71.3741 96.9565 71.5929 96.3484 71.7026 95.7001L71.7425 95.2006C71.7487 95.024 71.7755 94.9016 71.7438 94.6418C71.7147 94.1905 71.5355 93.6855 71.2607 93.3055ZM58.0799 101.848C57.4352 101.531 56.8659 101.151 56.3698 100.718C55.8717 100.279 55.4559 99.7923 55.2418 99.3289C55.0246 98.8567 55.0168 98.5215 55.1222 98.1868C55.1683 98.0983 55.2037 98.0079 55.231 97.9096C55.3014 97.8135 55.3748 97.7184 55.4335 97.6119C55.5528 97.4148 55.7433 97.2381 55.99 97.0233C56.4817 96.6093 57.1091 96.2077 57.7532 95.8122C58.3861 95.4254 59.0473 95.0523 59.7259 94.6655C61.3608 94.182 63.177 93.8311 64.8682 93.7063C65.7628 93.8196 66.6209 93.9514 67.4165 94.1524C67.8153 94.256 68.1919 94.3854 68.4782 94.5304C68.7682 94.676 68.9313 94.8548 68.8833 94.869C68.863 94.8817 68.8568 94.8346 68.8423 94.856C68.8497 94.8313 68.824 94.9432 68.813 95.0012L68.7811 95.2053C68.7187 95.4823 68.6158 95.7696 68.4484 96.0649C67.7828 97.2683 66.4571 98.4633 65.05 99.5217C64.3612 100.042 63.647 100.544 62.9039 101.039C61.9395 101.432 61.0135 101.725 60.246 101.883C59.5212 102.033 58.7832 101.996 58.0799 101.848Z" fill="#28687C"/>
<path id="Vector_10" d="M49.055 101.532C47.8156 99.0433 45.795 96.718 43.0746 95.5721C41.8117 95.0296 40.4357 94.8228 39.1184 94.8764C37.7485 94.7637 36.3022 94.903 34.792 95.322L34.709 95.3503C33.8059 95.719 32.687 96.1935 31.45 96.7533C30.3748 97.0461 29.3183 97.3968 28.2768 97.7892C26.1223 98.6192 24.0374 99.651 22.0716 100.93C20.1171 102.212 18.2381 103.733 16.7874 105.764C16.1275 106.721 15.5863 107.84 15.4082 109.07C15.0085 110.517 15.2477 111.884 16.1275 113.134C17.1373 114.57 18.198 115.874 19.2951 117.056C20.1892 118.269 21.1951 119.412 22.3269 120.448C24.7117 122.648 27.7126 124.413 31.0878 125.042C34.4535 125.681 38.0336 125.064 40.9467 123.486C42.3068 122.773 43.5361 121.888 44.6432 120.888C45.9582 119.937 47.2562 118.822 48.5308 117.505C49.4421 116.563 50.0356 115.129 50.323 113.435C50.6989 112.174 50.8933 110.863 50.9047 109.554C50.9229 106.803 50.3082 104.045 49.055 101.532ZM44.1851 119.376C42.8157 120.157 41.4316 120.836 40.0044 121.343C37.2526 122.31 34.4077 122.604 31.6429 122.094C28.8721 121.591 26.2451 120.275 23.7784 118.623C22.5698 117.797 21.4085 116.877 20.2655 115.899C19.2605 114.803 18.286 113.596 17.3541 112.271C16.7575 111.422 16.5978 110.534 16.8386 109.566C17.2256 108.71 17.891 107.976 18.5952 107.279C20.0971 105.861 21.8893 104.638 23.712 103.44C25.5421 102.246 27.4299 101.085 29.3271 99.8923C30.2413 99.3051 31.1622 98.721 32.08 98.1126C33.0939 97.6565 34.1399 97.2031 35.235 96.7555C36.5747 96.389 37.7793 96.2936 38.8721 96.3764C40.0158 96.634 41.0703 97.0489 41.994 97.6688C43.9058 98.8994 45.317 100.784 46.378 102.884C47.4327 104.992 48.1634 107.321 48.5597 109.718C48.7457 110.895 48.8758 112.095 48.8306 113.295C48.579 114.662 48.1129 115.779 47.4528 116.462C46.3767 117.574 45.2865 118.542 44.1851 119.376Z" fill="#28687C"/>
<path id="Vector_11" d="M70.9461 48.3296L70.3849 48.0565C68.8878 47.3336 67.3609 46.6509 65.7644 46.1155C64.1833 45.5503 62.5342 45.1171 60.8398 44.8945C60.8135 44.8914 60.7866 44.8897 60.7603 44.8867C56.1653 43.8331 53.9259 45.0647 51.9416 46.4802C50.8571 47.0562 49.8652 47.6213 48.8913 47.9688C46.87 48.7114 44.7737 48.5352 42.4363 48.0515C40.0038 47.5863 37.5517 47.2244 35.0828 46.9785C34.0425 46.8824 32.9994 46.8064 31.953 46.7546C26.4128 45.7218 20.9956 44.9497 16.2596 45.1873C16.2322 45.1871 16.205 45.1855 16.1776 45.1853C14.2253 45.1907 12.2427 45.41 10.2906 45.9523C8.35032 46.502 6.43842 47.474 4.89592 48.9138C3.32412 50.3291 2.18242 52.1723 1.46002 54.0992C0.719017 56.0275 0.330817 58.033 0.136417 60.0197C-0.0599827 62.0085 -0.0144827 63.9952 0.0870173 65.9466L0.433417 71.6633C0.737217 75.4803 1.08172 79.3589 1.95352 83.1956C2.83082 87.0249 4.22012 90.7513 6.05842 94.185C6.98272 95.89 7.90312 97.6274 9.34822 99.1989L9.95752 99.7574C10.1789 99.9329 10.428 100.093 10.6633 100.254C11.1863 100.537 11.77 100.764 12.3682 100.81C13.5205 100.914 14.5082 100.605 15.401 100.278C16.0958 100.057 16.8403 99.7787 17.6773 99.4438C20.8732 98.1646 23.871 94.7925 26.7701 91.2942C27.4587 90.7418 28.1108 90.1586 28.7429 89.5685C30.0436 88.3367 31.2485 87.0559 32.4288 85.8074L32.8681 85.3389L33.0943 85.0995L33.3842 84.7728C33.7321 84.3251 34.0299 83.8744 34.2513 83.4197C34.7113 82.5089 35.0089 81.6045 35.2319 80.6973C35.445 79.81 35.5978 78.9263 35.6932 78.0345C35.8781 77.458 36.0621 76.8732 36.2472 76.2778C36.6722 74.9101 37.115 73.4933 37.6084 72.1289C38.1456 71.171 38.6699 70.2301 39.2294 69.3411C40.3449 67.4997 41.6726 65.902 43.2089 65.2463C43.4067 65.1778 43.6009 65.1013 43.7958 65.0206C44.0018 64.9744 44.2168 64.9592 44.4257 64.9167L44.7425 64.8538L45.0801 64.8625C45.3057 64.8652 45.5314 64.8707 45.7611 64.8596C46.2326 64.9477 46.7092 64.9927 47.199 65.1063C47.6828 65.2668 48.1861 65.3665 48.6834 65.546C49.177 65.7431 49.677 65.937 50.1933 66.117C50.8013 66.3791 51.4738 66.5512 52.1113 66.5829C54.329 67.025 57.1122 66.3189 60.3023 64.4605C60.4184 64.3928 60.533 64.3169 60.6488 64.2471C62.1268 63.5506 63.533 62.705 64.8502 61.7361C66.2215 60.7409 67.5014 59.6177 68.6758 58.3696C69.8454 57.1121 70.9313 55.7654 71.7807 54.111C72.1722 53.2571 72.5941 52.3883 72.6055 51.0999C72.6239 50.4928 72.3982 49.6335 71.8394 49.0234C71.5843 48.6987 71.2145 48.4943 70.9461 48.3296ZM59.5471 63.1647C56.6518 64.8517 54.1377 65.4933 52.2804 65.076C51.8719 64.9062 51.5151 64.6948 51.1885 64.4211C50.7004 64.0739 50.1959 63.7404 49.6851 63.4103C49.1629 63.0957 48.5779 62.8537 48.0111 62.5889C47.4273 62.3458 46.7742 62.2122 46.1446 62.0401C44.8203 61.8765 43.3497 61.8719 42.027 62.4901C40.7428 63.081 39.6118 63.986 38.8776 65.0398C38.0912 66.0717 37.5356 67.1843 37.118 68.3077C36.7245 69.3868 36.4312 70.472 36.2168 71.5668C35.7054 72.9752 35.2511 74.4283 34.8146 75.8325C34.6291 76.4295 34.4451 77.0151 34.2606 77.5906C33.8265 78.3546 33.4264 79.119 33.0268 79.8594C32.6156 80.6179 32.2186 81.3633 31.7862 81.9983C31.3549 82.6787 30.986 82.9911 30.249 83.7478C28.9812 85.0947 27.8976 86.5534 26.9293 88.0732C26.4651 88.8127 26.0257 89.5633 25.6147 90.338C22.8374 93.6894 19.9845 96.9053 17.1203 98.0514C16.3291 98.3676 15.6454 98.6374 15.0277 98.845C14.1624 99.0827 13.3016 99.244 12.6086 99.104C11.9112 98.9875 11.341 98.5281 10.8068 97.8804C9.77092 96.5424 8.92842 94.8529 8.15932 93.1523C7.40412 91.4447 6.71832 89.7174 6.12292 87.966C5.53762 86.2104 5.08552 84.4179 4.73142 82.6019C3.99152 78.977 3.67562 75.2333 3.42412 71.4496L3.00882 65.7517C2.87892 63.8979 2.85272 62.0635 2.95962 60.2496C3.16882 56.649 4.13232 53.0619 6.51972 50.5877C8.77282 48.2332 12.1802 47.1232 15.6609 46.7196C16.4234 46.6637 17.1998 46.6265 18.004 46.6265C21.9455 46.6265 26.3553 47.2585 30.8747 48.0818C32.1371 48.5328 33.4066 48.931 34.6799 49.3026C37.0619 49.9796 39.4607 50.5406 41.8792 50.9982C42.4567 51.1129 43.175 51.2 43.8232 51.2898C44.5085 51.3125 45.1829 51.3837 45.8872 51.3033C47.2743 51.2121 48.7159 50.806 49.9175 50.0836C51.1002 49.3989 51.9936 48.4821 52.8438 47.6794C54.6257 46.4168 56.5787 45.403 60.6604 46.3888C62.092 46.9107 63.4741 47.5779 64.8471 48.2692C66.2591 49.0122 67.6675 49.774 69.061 50.5752L69.5856 50.8708C69.6488 50.9379 69.6617 50.9177 69.6447 50.9332C69.6225 50.9333 69.6608 50.9126 69.6426 51.1202C69.6555 51.4788 69.4098 52.1653 69.0984 52.7694C68.4674 54.0346 67.5296 55.2931 66.5494 56.4889C65.5641 57.6948 64.4687 58.8298 63.3502 59.9503C62.2438 60.9899 61.1072 62.0069 59.8979 62.9479C59.7808 63.0192 59.6651 63.0959 59.5471 63.1647Z" fill="#28687C"/>
<path id="Vector_12" d="M76.4402 40.261L76.4411 40.2542C76.4319 40.2731 76.4282 40.282 76.4402 40.261Z" fill="#28687C"/>
<path id="Vector_13" d="M99.7183 37.3229C100.34 36.7213 100.959 36.0382 101.579 35.2399C102.422 34.1563 103.178 33.0236 103.844 31.8781C104.602 30.92 105.278 29.8899 105.853 28.7945C106.471 27.6362 106.967 26.3956 107.297 25.0691C107.62 23.7447 107.808 22.3265 107.547 20.7951C107.39 20.0353 107.143 19.2424 106.657 18.5251C106.414 18.1647 106.151 17.8239 105.801 17.5484C105.641 17.4097 105.465 17.2462 105.311 17.1382L104.859 16.8535C103.652 16.1031 102.245 15.6236 100.834 15.4872C99.4698 15.3631 98.1569 15.5529 96.9428 15.9573C96.5302 16.0353 96.1127 16.1344 95.6899 16.2575C93.3307 16.9438 90.9439 18.3268 88.6425 20.1457C87.2543 21.0667 85.8934 22.062 84.6808 23.209C82.1275 25.4971 79.9858 28.193 78.125 31.0538C77.2271 32.5071 76.3638 33.9842 75.65 35.5446C75.2754 36.3132 74.9544 37.1138 74.6376 37.9103L74.2021 39.126L74.1506 39.2788C74.1333 39.3334 74.1197 39.3563 74.0866 39.5018C74.038 39.7242 73.9872 40.0116 74.006 40.1853C74.0223 40.3602 74.0451 40.5348 74.0737 40.7059C74.11 40.8588 74.1584 40.987 74.2031 41.127C74.5968 42.1762 75.1754 42.9153 75.8526 43.5755C76.4195 44.1107 77.0577 44.5453 77.7308 44.9091C78.6577 45.5166 80.0476 46.1626 81.771 46.1626C83.0347 46.1626 84.4771 45.8149 86.0464 44.8501C86.0856 44.8259 86.122 44.8079 86.1611 44.7841C86.9505 44.5179 87.7194 44.2413 88.485 43.9715C90.075 43.4062 91.6622 42.8679 93.281 42.1771C94.89 41.4981 96.5525 40.5937 97.9457 39.3375C98.6183 38.7344 99.2138 38.0564 99.7183 37.3229ZM96.587 37.4094C95.1499 38.1551 93.6688 38.7516 92.0949 39.4228C90.5322 40.0937 88.9118 40.8666 87.4178 41.8772C86.6984 42.3724 86.0117 42.9149 85.3701 43.51C85.3328 43.5328 85.2978 43.55 85.2604 43.573C82.4725 45.2855 80.2218 44.6511 78.8325 43.8304C78.2541 43.382 77.7399 42.8599 77.3288 42.2767C76.9149 41.6931 76.5426 41.0172 76.4509 40.4728C76.4439 40.4119 76.4253 40.3419 76.4225 40.2918C76.4327 40.2559 76.437 40.2236 76.435 40.1916C76.4361 40.1605 76.4569 40.2305 76.4409 40.2543C76.4494 40.2365 76.4628 40.2099 76.4732 40.1897L76.5413 40.0548L77.0622 38.9685C77.4437 38.2581 77.7789 37.5289 78.1882 36.8317C78.9485 35.4117 79.7997 34.0359 80.654 32.6665C82.4067 29.9539 84.2819 27.3106 86.361 24.8267C87.337 23.6504 88.3755 22.5328 89.4529 21.4344C91.6447 19.6735 93.9038 18.3393 96.1091 17.698C96.4831 17.5891 96.8471 17.5215 97.2113 17.4531C98.3389 17.418 99.4205 17.5136 100.425 17.8104C101.469 18.1206 102.432 18.5793 103.293 19.2294L103.617 19.4705C103.712 19.548 103.751 19.6153 103.824 19.6825C103.973 19.7961 104.07 19.9638 104.166 20.1304C104.38 20.4486 104.505 20.8741 104.597 21.3318C104.773 22.2671 104.695 23.3805 104.518 24.4908C104.343 25.6089 104.048 26.7506 103.685 27.8866C103.349 29.0026 102.939 30.1044 102.492 31.2133C101.871 32.2745 101.17 33.3227 100.395 34.3201C99.8305 35.0456 99.2704 35.667 98.7081 36.2148C97.9977 36.6486 97.2991 37.0521 96.587 37.4094Z" fill="#28687C"/>
</g>
<g id="NUCLEUS" opacity="0.8">
<g id="BGs_2">
<path id="Vector_14" d="M116.408 84.9116C119.476 83.5241 124.829 79.6043 122.974 74.1631C119.936 69.218 112.326 69.5999 106.896 70.8491C105.003 71.2966 103.558 75.3646 108.212 79.8476C111.377 82.8971 113.339 86.2991 116.408 84.9116Z" fill="url(#paint6_radial_938_25160)"/>
<path id="Vector_15" d="M34.3068 61.3552C35.1561 57.8062 34.0378 55.5816 30.8095 55.5143C27.5813 55.447 25.9924 56.1347 25.1055 59.5908C24.2185 63.0469 23.546 64.7955 27.4468 65.5353C31.3476 66.2752 34.0385 62.4764 34.3068 61.3552Z" fill="url(#paint7_radial_938_25160)"/>
<path id="Vector_16" d="M60.6841 56.5454C61.317 53.9007 60.4836 52.2429 58.0779 52.1927C55.6722 52.1426 53.0727 52.6809 53.8272 55.2305C54.4728 57.4121 54.1963 58.3623 57.1032 58.9136C60.0101 59.465 60.4841 57.3809 60.6841 56.5454Z" fill="url(#paint8_radial_938_25160)"/>
<path id="Vector_17" d="M97.367 28.8996C96.833 26.3501 96.4394 25.8055 94.0337 25.7554C91.628 25.7053 90.5905 25.8792 90.5101 27.5848C90.403 29.8574 90.911 30.5697 93.7861 31.2679C97.3891 32.1429 97.5432 29.7404 97.367 28.8996Z" fill="url(#paint9_radial_938_25160)"/>
</g>
<g id="Membranes_2">
<path id="Vector_18" d="M34.2765 56.4687C34.085 56.2205 33.8624 56.005 33.6127 55.8189C33.0661 55.2594 32.3261 54.9195 31.6018 54.7502C30.7926 54.5802 30.1065 54.5475 29.3291 54.5591C28.5657 54.5871 27.7315 54.7083 26.9199 55.115C26.1104 55.5281 25.4469 56.2384 25.0624 56.9756C24.6741 57.717 24.4722 58.4673 24.3581 59.201C24.2542 59.8917 24.1766 60.5572 24.1417 61.2673C23.8393 62.5902 23.7464 63.6263 24.283 64.4736C24.5485 64.8927 24.9484 65.2247 25.5069 65.4921C26.1075 65.9091 26.7497 66.1688 27.4128 66.3589C28.1483 66.5658 28.9439 66.5976 29.7213 66.4893C30.4944 66.355 31.2271 66.0655 31.885 65.6792C33.189 64.8741 34.1765 63.7415 34.7837 62.3466C34.9315 62.0178 35.0613 61.4793 35.0546 61.1728C35.0758 60.8347 35.0729 60.4935 35.0488 60.1533C35.2234 58.6052 34.9696 57.3662 34.2765 56.4687ZM25.1704 63.9117C24.8353 63.3828 24.9206 62.573 25.1646 61.5044C25.436 60.8959 25.7056 60.2521 25.9513 59.6351C26.1958 59.0267 26.4597 58.4507 26.777 57.9894C27.0967 57.5278 27.4447 57.2092 27.8761 56.984C28.3093 56.7555 28.8741 56.6279 29.4912 56.5396C30.1002 56.4591 30.8128 56.3931 31.3865 56.3816C31.962 56.3824 32.5167 56.46 33.0257 56.7008C33.182 56.8225 33.326 56.9556 33.4456 57.1106C33.9618 57.779 34.1477 58.7854 34.0047 60.0526C33.9114 60.3353 33.8104 60.614 33.7039 60.8894C33.5839 61.2341 33.495 61.3234 33.3249 61.5733C32.6443 62.4771 31.742 63.3071 30.8006 63.8817C30.3243 64.1677 29.8275 64.3871 29.3125 64.5448C28.7932 64.6746 28.256 64.7526 27.6883 64.7365C27.097 64.7188 26.4899 64.6577 25.9359 64.5347C25.5771 64.3586 25.3233 64.1534 25.1704 63.9117Z" fill="#554082"/>
<path id="Vector_19" d="M123.577 73.9577L123.517 73.8294C123.343 73.6118 123.154 73.408 122.954 73.2177C121.857 71.7839 120.376 70.8607 118.729 70.2987C118.003 69.9408 117.238 69.6261 116.448 69.4451C114.784 69.0205 113.07 68.9606 111.397 69.0828C110.561 69.1572 109.73 69.2673 108.914 69.4418C108.505 69.5262 108.099 69.6214 107.698 69.7317C107.496 69.7832 107.296 69.8453 107.096 69.9039C106.89 69.9719 106.734 70.0063 106.407 70.1387C105.333 70.6601 104.907 71.6494 104.765 72.5211C104.757 72.5472 104.747 72.5713 104.74 72.5977C104.53 73.3644 104.323 75.0262 105.463 77.1686C105.639 77.7589 105.9 78.3287 106.209 78.8525C106.54 79.4108 106.933 79.9276 107.361 80.4049L108.57 81.706C109.384 82.5595 110.238 83.4299 111.27 84.1899C111.766 84.5493 112.31 84.8848 112.921 85.1091C113.584 85.5168 114.27 85.7638 115.01 85.7638C115.519 85.7638 116.053 85.6483 116.623 85.3906C116.919 85.257 117.228 85.1031 117.545 84.9322C117.989 84.7749 118.424 84.5948 118.853 84.3923C120.052 83.7851 121.174 82.9775 122.117 81.9444C123.054 80.9166 123.822 79.6335 124.129 78.1852C124.435 76.7374 124.206 75.2014 123.577 73.9577ZM116.19 84.4334C115.209 84.8782 114.368 84.76 113.483 84.2205C113.096 83.8393 112.758 83.4139 112.396 82.9824C111.673 82.0924 110.94 81.1458 110.091 80.2592C109.676 79.8227 109.201 79.3725 108.76 78.9927C108.332 78.6233 107.918 78.2428 107.513 77.8484C107.12 77.4624 106.742 77.0642 106.376 76.6363C105.396 74.7547 105.617 73.3696 105.752 72.8745C105.754 72.8676 105.757 72.8613 105.759 72.8544C106.044 72.2217 106.573 71.753 106.988 71.6841L109.232 71.4078C110.012 71.3139 110.789 71.2391 111.565 71.1753C113.114 71.0609 114.659 70.978 116.194 71.0708C116.957 71.1043 117.712 71.183 118.471 71.3172C119.901 71.8216 121.178 72.622 122.118 73.8456C122.207 74.0195 122.292 74.194 122.37 74.3694C122.561 75.5474 122.514 76.6608 122.194 77.7006C121.868 78.7392 121.29 79.7093 120.565 80.6136C119.839 81.5185 118.977 82.361 118.046 83.1625L117.336 83.7617L116.958 84.053C116.695 84.192 116.436 84.3223 116.19 84.4334Z" fill="#554082"/>
<path id="Vector_20" d="M59.0414 51.472C58.2645 51.406 57.6391 51.5353 57.0063 51.6954C55.6379 51.782 54.6257 52.0928 53.9825 52.6368C53.5916 52.7917 53.2224 53.1297 52.9989 53.5646C52.769 54.0144 52.717 54.5147 52.7487 54.9528C52.7573 55.1705 52.8158 55.3966 52.8476 55.5714L52.9581 56.0261C53.1325 56.6199 53.2854 57.326 53.8857 58.0679C54.1856 58.4196 54.6092 58.6748 55.0101 58.7584C55.4733 59.0391 56.1044 59.259 57.0053 59.4299C57.3758 59.4996 57.7125 59.5318 58.0194 59.5318C58.0587 59.5318 58.0933 59.5268 58.1316 59.5258C58.8005 59.6398 59.6186 59.5176 60.286 59.0284C60.986 58.5165 61.3672 57.735 61.5778 57.0673C61.7772 56.4291 61.9306 55.7348 61.9332 54.9844C61.929 54.2452 61.7815 53.3875 61.2231 52.6568C60.6799 51.9156 59.7859 51.5381 59.0414 51.472ZM57.2008 58.3976C56.4143 58.2485 55.9033 58.0868 55.5518 57.868C55.3916 57.6211 55.3281 57.4135 55.2936 57.205C55.2193 56.797 55.1693 56.1643 54.9883 55.4915L54.8352 54.9902L54.7116 54.6432C54.641 54.4312 54.5899 54.2515 54.565 54.0699C54.5449 53.8962 54.5526 53.6843 54.6605 53.4323C55.1274 53.0402 55.97 52.802 57.1035 52.7351C57.6822 52.8313 58.2805 52.9214 58.702 53.088C59.1532 53.2718 59.4429 53.5039 59.5923 53.8002C59.7573 54.0856 59.8378 54.5037 59.8339 54.9892C59.8406 55.4757 59.7577 56.0038 59.6563 56.561C59.5594 57.0787 59.427 57.4834 59.1926 57.7985C58.9668 58.0997 58.5836 58.3511 58.0566 58.4796C57.8036 58.4823 57.5225 58.459 57.2008 58.3976Z" fill="#554082"/>
<path id="Vector_21" d="M98.2182 29.7369C98.2068 29.4967 98.1578 29.2668 98.0847 29.0425C98.0152 28.8169 97.9168 28.6643 97.8196 28.5153C97.6362 27.6875 97.4429 27.0513 97.1724 26.5713C97.1386 26.2391 96.9859 25.8772 96.7182 25.5802C96.1499 24.9747 95.4251 24.8078 94.8573 24.7479C94.2579 24.6942 93.7454 24.7694 93.2023 24.9238C92.9472 25.0051 92.6754 25.1091 92.4171 25.2566C91.7295 25.3167 91.1143 25.4783 90.6734 25.8697C90.3214 25.999 90.0213 26.3084 89.8438 26.6202C89.6582 26.9375 89.5676 27.2652 89.5167 27.5605C89.4694 27.8269 89.4453 28.0965 89.4538 28.3887C89.469 28.9473 89.6371 29.6635 90.1545 30.2106C90.4103 30.4759 90.7084 30.6397 91.0172 30.7197C91.4626 31.0618 92.0755 31.3304 92.8952 31.5712C93.217 31.7932 93.5191 31.9805 93.8963 32.1285C94.6372 32.4302 95.5352 32.62 96.5548 32.2776C97.0548 32.091 97.556 31.7242 97.8521 31.2333C98.1501 30.7461 98.2504 30.2127 98.2182 29.7369ZM91.5595 29.3433C91.5538 29.0382 91.5689 28.7357 91.5516 28.3101C91.5375 28.1065 91.5314 27.8796 91.5017 27.6505C91.472 27.4509 91.4424 27.2814 91.4097 27.1259C91.3792 26.973 91.3419 26.8416 91.3578 26.6555C91.5719 26.4642 91.9254 26.3559 92.5085 26.3069C92.7485 26.4123 92.9784 26.5019 93.2219 26.5749C93.7124 26.7272 94.2359 26.8003 94.6669 26.8386C95.1159 26.8809 95.4615 26.8802 95.736 26.9005C95.8822 26.8982 96.0594 26.9652 96.2685 27.0759C96.4748 27.4318 96.6229 27.952 96.7873 28.7022L96.7869 28.7045C96.7667 28.89 96.7557 29.0752 96.712 29.186C96.6723 29.3194 96.6298 29.4514 96.5757 29.5685C96.4706 29.806 96.348 29.9819 96.2272 30.0813C96.1086 30.1817 95.9964 30.2414 95.8261 30.3089C95.4735 30.437 94.8805 30.503 94.2241 30.5162C93.8941 30.5275 93.5535 30.544 93.1995 30.5699C92.4896 30.3664 92.0004 30.1597 91.6703 29.9041C91.5951 29.6844 91.5545 29.4998 91.5595 29.3433Z" fill="#554082"/>
</g>
</g>
<g id="LYSOSOMES">
<g id="R-ICO-012966">
<path id="Lysosome" d="M29.0532 78.8106C30.2848 78.8106 31.2832 77.8122 31.2832 76.5806C31.2832 75.349 30.2848 74.3506 29.0532 74.3506C27.8216 74.3506 26.8232 75.349 26.8232 76.5806C26.8232 77.8122 27.8216 78.8106 29.0532 78.8106Z" fill="url(#paint10_radial_938_25160)"/>
</g>
<g id="R-ICO-012966_2">
<path id="Lysosome_2" d="M39.9321 105.879C41.1637 105.879 42.1621 104.881 42.1621 103.649C42.1621 102.417 41.1637 101.419 39.9321 101.419C38.7006 101.419 37.7021 102.417 37.7021 103.649C37.7021 104.881 38.7006 105.879 39.9321 105.879Z" fill="url(#paint11_radial_938_25160)"/>
</g>
<g id="R-ICO-012966_3">
<path id="Lysosome_3" d="M60.9585 101.481C62.1901 101.481 63.1885 100.482 63.1885 99.2505C63.1885 98.0189 62.1901 97.0205 60.9585 97.0205C59.7269 97.0205 58.7285 98.0189 58.7285 99.2505C58.7285 100.482 59.7269 101.481 60.9585 101.481Z" fill="url(#paint12_radial_938_25160)"/>
</g>
<g id="R-ICO-012966_4">
<path id="Lysosome_4" d="M85.853 38.8692C87.0846 38.8692 88.083 37.8708 88.083 36.6392C88.083 35.4076 87.0846 34.4092 85.853 34.4092C84.6215 34.4092 83.623 35.4076 83.623 36.6392C83.623 37.8708 84.6215 38.8692 85.853 38.8692Z" fill="url(#paint13_radial_938_25160)"/>
</g>
<g id="R-ICO-012966_5">
<path id="Lysosome_5" d="M142.859 51.6573C144.091 51.6573 145.089 50.6589 145.089 49.4273C145.089 48.1957 144.091 47.1973 142.859 47.1973C141.627 47.1973 140.629 48.1957 140.629 49.4273C140.629 50.6589 141.627 51.6573 142.859 51.6573Z" fill="url(#paint14_radial_938_25160)"/>
</g>
<g id="R-ICO-012966_6">
<path id="Lysosome_6" d="M149.583 66.94C150.814 66.94 151.813 65.9416 151.813 64.71C151.813 63.4784 150.814 62.48 149.583 62.48C148.351 62.48 147.353 63.4784 147.353 64.71C147.353 65.9416 148.351 66.94 149.583 66.94Z" fill="url(#paint15_radial_938_25160)"/>
</g>
<g id="R-ICO-012966_7">
<path id="Lysosome_7" d="M144.184 82.9678C145.416 82.9678 146.414 81.9694 146.414 80.7378C146.414 79.5062 145.416 78.5078 144.184 78.5078C142.953 78.5078 141.954 79.5062 141.954 80.7378C141.954 81.9694 142.953 82.9678 144.184 82.9678Z" fill="url(#paint16_radial_938_25160)"/>
</g>
<g id="R-ICO-012966_8">
<path id="Lysosome_8" d="M122.034 11.5499C123.265 11.5499 124.264 10.5515 124.264 9.31986C124.264 8.08827 123.265 7.08986 122.034 7.08986C120.802 7.08986 119.804 8.08827 119.804 9.31986C119.804 10.5515 120.802 11.5499 122.034 11.5499Z" fill="url(#paint17_radial_938_25160)"/>
</g>
<g id="R-ICO-012966_9">
<path id="Lysosome_9" d="M133.549 20.4659C134.781 20.4659 135.779 19.4675 135.779 18.2359C135.779 17.0043 134.781 16.0059 133.549 16.0059C132.318 16.0059 131.319 17.0043 131.319 18.2359C131.319 19.4675 132.318 20.4659 133.549 20.4659Z" fill="url(#paint18_radial_938_25160)"/>
</g>
</g>
<g id="Split mitochondrion">
<g id="Mask group">
<mask id="mask0_938_25160" style="mask-type:alpha" maskUnits="userSpaceOnUse" x="9" y="64" width="14" height="19">
<path id="MASK" d="M9.03418 64.6401L11.7352 82.2512L22.2156 78.7938L18.2181 64.6402L9.03418 64.6401Z" fill="white"/>
</mask>
<g mask="url(#mask0_938_25160)">
<g id="R-ICO-013020" opacity="0.8">
<path id="Vector_22" d="M23.5455 84.7651C22.3982 86.0793 19.1335 85.8529 16.7518 84.9141C13.1767 83.4942 10.3273 76.2271 10.1868 70.7176C10.099 67.3731 11.1836 65.9984 12.1028 65.4512C12.3654 65.2949 12.662 65.1806 12.9689 65.1136C13.8423 64.9227 14.8506 65.1228 15.8367 65.674C17.4165 66.5654 18.9873 68.5471 18.9581 70.9031C18.8842 74.7528 20.3259 76.9358 21.9732 79.4943C22.4607 80.2534 22.9768 81.031 23.4613 81.8897C24.313 83.4102 23.9875 84.2975 23.5455 84.7651Z" fill="url(#paint19_linear_938_25160)"/>
<path id="Vector_23" d="M21.8797 80.6524C21.572 80.9422 19.9771 81.3402 19.1089 81.5547C17.514 81.9527 16.9998 82.0898 16.8309 82.4482C16.7858 82.5817 16.7932 82.7285 16.8426 82.8414C17.1213 83.3246 17.9187 83.1256 19.8574 82.603C20.7913 82.3495 22.3102 81.9433 22.6768 82.0364C22.721 82.1256 22.7652 82.2149 22.8279 82.2754C23.3227 83.1813 23.3963 83.8578 23.0016 84.315C22.1885 85.2347 19.3921 85.2275 17.0289 84.2599C16.1077 83.8924 15.1725 83.0085 14.2965 81.716C14.6668 81.4866 15.9024 81.1424 16.7707 80.9279C18.7145 80.429 19.5672 80.1437 19.7864 79.6753C19.8551 79.5366 19.8662 79.3611 19.7828 79.2062C19.4732 78.5813 18.5075 78.916 17.0565 79.4062C15.6762 79.881 13.5613 80.6152 13.2103 79.8016C12.4973 78.3497 11.9134 76.6965 11.5184 75.0021C11.784 74.7462 13.2055 74.4603 14.0605 74.2982C15.9777 73.9039 17.3756 73.6232 17.2659 72.7815C17.2534 72.6111 17.1516 72.485 17.0078 72.3927C16.6051 72.1345 15.9021 72.3128 14.5669 72.6541C14.1707 72.7654 13.7038 72.8922 13.2553 72.9902C12.4054 73.1759 11.611 73.2753 11.2607 73.0303C11.198 72.9698 11.1065 72.8909 11.0889 72.6969C11.0101 71.9968 10.9416 71.344 10.9307 70.7281C10.856 68.1227 11.546 66.4137 12.8503 65.9309C14.1073 65.4583 15.8215 66.1719 17.0324 67.6386C17.0611 67.6571 17.0427 67.6858 17.0427 67.6858C16.8818 67.9683 15.1749 68.1929 14.3568 68.2975C12.8438 68.5045 12.0022 68.6142 12.0316 69.2014C12.0441 69.3718 12.1274 69.5267 12.2476 69.6241C12.6709 69.9768 13.5834 69.8516 15.162 69.6055C16.0221 69.467 17.7948 69.2033 18.0271 69.4741C18.1774 69.9359 18.2334 70.4183 18.2421 70.9111C18.2242 72.3 18.3744 73.5533 18.7422 74.7838C18.7577 74.8546 18.768 74.9018 18.7311 74.9593C18.4411 75.4432 16.7939 75.8279 15.6844 76.0703C14.3153 76.3695 13.5887 76.5531 13.3776 76.9454C13.309 77.0841 13.2927 77.2361 13.3524 77.3961C13.6459 78.1729 14.9051 77.8236 16.66 77.3658C17.4339 77.172 19.4433 76.6339 19.61 76.9438C20.1305 77.9677 20.73 78.9002 21.3686 79.8984C21.5486 80.1559 21.6997 80.3949 21.8797 80.6524Z" fill="#AD342D"/>
</g>
</g>
</g>
<g id="Mask group_2">
<mask id="mask1_938_25160" style="mask-type:alpha" maskUnits="userSpaceOnUse" x="23" y="105" width="18" height="14">
<path id="MASK_2" d="M32.5549 105.879L23.3711 112.145L33.2029 118.304L40.0097 113.442L32.5549 105.879Z" fill="white"/>
</mask>
<g mask="url(#mask1_938_25160)">
<g id="R-ICO-013020_2" opacity="0.8">
<path id="Vector_24" d="M38.0171 114.218C37.3223 115.819 34.1426 116.593 31.5884 116.42C27.7511 116.151 22.8324 110.09 21.0281 104.882C19.9304 101.722 20.5472 100.083 21.2572 99.2829C21.4601 99.0543 21.708 98.8555 21.9801 98.6986C22.7546 98.2519 23.7761 98.1368 24.8829 98.3631C26.6587 98.7336 28.7563 100.146 29.4428 102.4C30.5396 106.091 32.5753 107.734 34.9208 109.672C35.6154 110.248 36.3431 110.832 37.0651 111.504C38.3377 112.695 38.2965 113.639 38.0171 114.218Z" fill="url(#paint20_linear_938_25160)"/>
<path id="Vector_25" d="M35.1829 110.804C34.9776 111.174 33.5784 112.036 32.8161 112.504C31.417 113.367 30.9686 113.653 30.9162 114.046C30.9138 114.187 30.9653 114.325 31.0466 114.417C31.4587 114.793 32.1583 114.362 33.8472 113.276C34.6603 112.751 35.9845 111.904 36.3621 111.881C36.4313 111.953 36.5005 112.025 36.5786 112.063C37.3247 112.777 37.6 113.399 37.3625 113.954C36.8665 115.077 34.1995 115.918 31.6542 115.713C30.6649 115.642 29.5058 115.083 28.2791 114.117C28.5625 113.786 29.6356 113.083 30.3979 112.616C32.0989 111.551 32.8251 111.02 32.8919 110.508C32.9153 110.355 32.8726 110.184 32.7463 110.062C32.2617 109.56 31.443 110.172 30.2089 111.079C29.0376 111.95 27.2448 113.291 26.6636 112.622C25.544 111.455 24.4864 110.056 23.5962 108.561C23.7717 108.237 25.0396 107.533 25.8052 107.12C27.5127 106.163 28.7596 105.471 28.3999 104.703C28.3363 104.544 28.2011 104.455 28.036 104.41C27.574 104.286 26.9582 104.67 25.7893 105.4C25.4455 105.626 25.039 105.888 24.6413 106.117C23.8878 106.552 23.1609 106.888 22.7528 106.76C22.6747 106.722 22.5636 106.674 22.488 106.495C22.2006 105.852 21.9375 105.25 21.7403 104.667C20.8792 102.207 21.0186 100.369 22.1151 99.5132C23.1697 98.6818 25.0195 98.8421 26.6181 99.8726C26.6511 99.8815 26.6422 99.9145 26.6422 99.9145C26.5746 100.232 25.0161 100.964 24.2682 101.312C22.8892 101.968 22.1205 102.327 22.3265 102.878C22.3901 103.037 22.5164 103.159 22.6605 103.215C23.1708 103.423 24.0024 103.027 25.4321 102.314C26.2098 101.921 27.819 101.133 28.1224 101.32C28.4058 101.715 28.6054 102.157 28.7631 102.624C29.1671 103.953 29.6902 105.102 30.4138 106.163C30.45 106.226 30.4742 106.268 30.4564 106.334C30.3268 106.883 28.8737 107.749 27.89 108.316C26.676 109.016 26.0393 109.412 25.9571 109.849C25.9338 110.002 25.9643 110.152 26.0698 110.287C26.5849 110.938 27.6789 110.223 29.2125 109.255C29.8911 108.836 31.6429 107.714 31.8956 107.958C32.7021 108.776 33.5561 109.483 34.4673 110.241C34.7168 110.431 34.9333 110.613 35.1829 110.804Z" fill="#AD342D"/>
</g>
</g>
</g>
</g>
</g>
<defs>
<radialGradient id="paint0_radial_938_25160" cx="0" cy="0" r="1" gradientTransform="matrix(15.9533 1.31903 -1.30623 15.7932 125.38 12.2066)" gradientUnits="userSpaceOnUse">
<stop stop-color="white"/>
<stop offset="0.998" stop-color="#6EA1B6"/>
</radialGradient>
<radialGradient id="paint1_radial_938_25160" cx="0" cy="0" r="1" gradientTransform="matrix(34.0224 3.62326 -1.36514 12.8097 117.102 62.5869)" gradientUnits="userSpaceOnUse">
<stop stop-color="white"/>
<stop offset="0.998" stop-color="#6EA1B6"/>
</radialGradient>
<radialGradient id="paint2_radial_938_25160" cx="0" cy="0" r="1" gradientTransform="matrix(8.52738 0.908135 -0.342158 3.21063 61.1231 95.9633)" gradientUnits="userSpaceOnUse">
<stop stop-color="white"/>
<stop offset="0.998" stop-color="#6EA1B6"/>
</radialGradient>
<radialGradient id="paint3_radial_938_25160" cx="0" cy="0" r="1" gradientTransform="matrix(18.6598 -2.41597 1.54103 11.8974 32.8421 106.53)" gradientUnits="userSpaceOnUse">
<stop stop-color="white"/>
<stop offset="0.998" stop-color="#6EA1B6"/>
</radialGradient>
<radialGradient id="paint4_radial_938_25160" cx="0" cy="0" r="1" gradientTransform="matrix(37.594 4.00362 -1.50845 14.1545 25.1503 68.0241)" gradientUnits="userSpaceOnUse">
<stop stop-color="white"/>
<stop offset="0.998" stop-color="#6EA1B6"/>
</radialGradient>
<radialGradient id="paint5_radial_938_25160" cx="0" cy="0" r="1" gradientTransform="matrix(17.6683 -4.30068 2.82408 11.6018 88.9903 25.7277)" gradientUnits="userSpaceOnUse">
<stop stop-color="white"/>
<stop offset="0.998" stop-color="#6EA1B6"/>
</radialGradient>
<radialGradient id="paint6_radial_938_25160" cx="0" cy="0" r="1" gradientUnits="userSpaceOnUse" gradientTransform="translate(113.647 75.0617) scale(7.278 6.29256)">
<stop stop-color="white"/>
<stop offset="1" stop-color="#655782"/>
</radialGradient>
<radialGradient id="paint7_radial_938_25160" cx="0" cy="0" r="1" gradientUnits="userSpaceOnUse" gradientTransform="translate(29.1793 58.8533) scale(5.4188 4.6851)">
<stop stop-color="white"/>
<stop offset="1" stop-color="#655782"/>
</radialGradient>
<radialGradient id="paint8_radial_938_25160" cx="0" cy="0" r="1" gradientUnits="userSpaceOnUse" gradientTransform="translate(57.0628 54.4414) scale(3.7237 3.21951)">
<stop stop-color="white"/>
<stop offset="1" stop-color="#655782"/>
</radialGradient>
<radialGradient id="paint9_radial_938_25160" cx="0" cy="0" r="1" gradientUnits="userSpaceOnUse" gradientTransform="translate(93.7358 27.6341) scale(3.317 2.86788)">
<stop stop-color="white"/>
<stop offset="1" stop-color="#655782"/>
</radialGradient>
<radialGradient id="paint10_radial_938_25160" cx="0" cy="0" r="1" gradientUnits="userSpaceOnUse" gradientTransform="translate(28.7583 75.9414) scale(2.24908)">
<stop stop-color="#D8BA5D"/>
<stop offset="1" stop-color="#1DA075"/>
</radialGradient>
<radialGradient id="paint11_radial_938_25160" cx="0" cy="0" r="1" gradientUnits="userSpaceOnUse" gradientTransform="translate(39.6372 103.01) scale(2.24908)">
<stop stop-color="#D8BA5D"/>
<stop offset="1" stop-color="#1DA075"/>
</radialGradient>
<radialGradient id="paint12_radial_938_25160" cx="0" cy="0" r="1" gradientUnits="userSpaceOnUse" gradientTransform="translate(60.6635 98.6113) scale(2.24908)">
<stop stop-color="#D8BA5D"/>
<stop offset="1" stop-color="#1DA075"/>
</radialGradient>
<radialGradient id="paint13_radial_938_25160" cx="0" cy="0" r="1" gradientUnits="userSpaceOnUse" gradientTransform="translate(85.5581 35.9999) scale(2.24908)">
<stop stop-color="#D8BA5D"/>
<stop offset="1" stop-color="#1DA075"/>
</radialGradient>
<radialGradient id="paint14_radial_938_25160" cx="0" cy="0" r="1" gradientUnits="userSpaceOnUse" gradientTransform="translate(142.564 48.788) scale(2.24908)">
<stop stop-color="#D8BA5D"/>
<stop offset="1" stop-color="#1DA075"/>
</radialGradient>
<radialGradient id="paint15_radial_938_25160" cx="0" cy="0" r="1" gradientUnits="userSpaceOnUse" gradientTransform="translate(149.288 64.0707) scale(2.24908)">
<stop stop-color="#D8BA5D"/>
<stop offset="1" stop-color="#1DA075"/>
</radialGradient>
<radialGradient id="paint16_radial_938_25160" cx="0" cy="0" r="1" gradientUnits="userSpaceOnUse" gradientTransform="translate(143.889 80.0986) scale(2.24908)">
<stop stop-color="#D8BA5D"/>
<stop offset="1" stop-color="#1DA075"/>
</radialGradient>
<radialGradient id="paint17_radial_938_25160" cx="0" cy="0" r="1" gradientUnits="userSpaceOnUse" gradientTransform="translate(121.739 8.68061) scale(2.24908)">
<stop stop-color="#D8BA5D"/>
<stop offset="1" stop-color="#1DA075"/>
</radialGradient>
<radialGradient id="paint18_radial_938_25160" cx="0" cy="0" r="1" gradientUnits="userSpaceOnUse" gradientTransform="translate(133.254 17.5966) scale(2.24908)">
<stop stop-color="#D8BA5D"/>
<stop offset="1" stop-color="#1DA075"/>
</radialGradient>
<linearGradient id="paint19_linear_938_25160" x1="20.6983" y1="75.2958" x2="7.84489" y2="75.5446" gradientUnits="userSpaceOnUse">
<stop stop-color="#D86E66"/>
<stop offset="1" stop-color="#A33029"/>
</linearGradient>
<linearGradient id="paint20_linear_938_25160" x1="32.4329" y1="106.058" x2="20.26" y2="110.192" gradientUnits="userSpaceOnUse">
<stop stop-color="#D86E66"/>
<stop offset="1" stop-color="#A33029"/>
</linearGradient>
</defs>
</svg>
