<svg width="122" height="37" viewBox="0 0 122 37" fill="none" xmlns="http://www.w3.org/2000/svg">
<g id="R-ICO-013626">
<g id="MITOCHONDRIAL FISSION PROTEIN">
<path d="M0.990723 11.5C0.990723 5.97715 5.46788 1.5 10.9907 1.5H109.991C115.514 1.5 119.991 5.97715 119.991 11.5V25.5C119.991 31.0228 115.514 35.5 109.991 35.5H10.9907C5.46787 35.5 0.990723 31.0228 0.990723 25.5V11.5Z" fill="url(#paint0_linear_938_23723)"/>
<path d="M83.1988 2.99266C59.1294 2.87443 35.0602 2.52283 10.9907 1.64001C10.9907 1.54664 10.9907 1.45328 10.9907 1.35991C35.0602 0.477089 59.1294 0.125486 83.1988 0.00726104C92.1292 -0.0207705 101.06 0.036541 109.991 0.107533C113.535 0.105217 117.008 1.89822 119.071 4.74516C120.506 6.68402 121.283 9.10179 121.253 11.5C121.206 16.1667 121.142 20.8333 121.064 25.5C121.114 31.4095 115.72 36.532 109.992 36.2659C109.991 36.2659 109.991 36.2658 109.991 36.2658C97.9564 36.0221 85.9208 35.8466 73.8867 35.953C61.852 36.056 49.8163 36.4645 37.7816 36.6648C28.8514 36.7857 19.9211 36.7679 10.9907 36.6875C7.50937 36.6863 4.1055 34.9149 2.09753 32.117C0.702246 30.2093 -0.0421182 27.8411 0.00200915 25.5C0.0813221 20.8334 0.182506 16.1667 0.310609 11.5C0.324022 5.79205 5.59927 0.988428 10.9907 1.35991C10.9907 1.45328 10.9907 1.54664 10.9907 1.64001C5.72917 1.75241 1.39828 6.55446 1.67071 11.5C1.79879 16.1667 1.89997 20.8334 1.9793 25.5C2.01039 27.427 2.6735 29.3141 3.83625 30.8214C5.51705 33.0335 8.24445 34.3607 10.9907 34.3126C19.921 34.2322 28.8512 34.2144 37.7816 34.3353C49.8163 34.5356 61.852 34.9428 73.8867 35.0457C85.921 35.1521 97.9562 34.978 109.991 34.7342C109.991 34.7342 109.991 34.7342 109.992 34.7342C114.916 34.7259 119.127 30.2429 118.917 25.5C118.84 20.8333 118.776 16.1667 118.729 11.5C118.712 9.63078 118.082 7.79399 116.959 6.3181C115.333 4.15416 112.674 2.84779 109.991 2.89243C101.06 2.96348 92.1292 3.02089 83.1988 2.99266Z" fill="#0052AF"/>
<text id="MITOCHONDRIAL FISSION PROTEIN_2" fill="white" xml:space="preserve" style="white-space: pre" font-family="Arial" font-size="12" font-weight="bold" letter-spacing="0em"><tspan x="9.57275" y="15.6602">MITOCHONDRIAL&#10;</tspan><tspan x="8.11963" y="29.6602">FISSION PROTEIN</tspan></text>
</g>
</g>
<defs>
<linearGradient id="paint0_linear_938_23723" x1="60.4907" y1="1.5" x2="60.4907" y2="35.5" gradientUnits="userSpaceOnUse">
<stop stop-color="#AD342D"/>
<stop offset="1" stop-color="#06A2B2"/>
</linearGradient>
</defs>
</svg>
