<svg width="44" height="57" viewBox="0 0 44 57" fill="none" xmlns="http://www.w3.org/2000/svg">
<g id="R-ICO-013511">
<path id="Vector" d="M21.6464 53.158C14.8667 53.128 2.3584 56.2935 2.3584 56.2935C16.7825 56.3573 16.907 28.2142 16.907 28.2142C16.907 28.2142 17.0316 0.06744 2.6075 0.00354004C2.6075 0.00354004 14.9019 3.25754 21.6463 3.28734C28.3907 3.25744 40.6851 0.00354004 40.6851 0.00354004C26.2611 0.06744 26.3857 28.2142 26.3857 28.2142C26.3857 28.2142 26.5103 56.3573 40.9344 56.2935C40.9344 56.2935 28.4261 53.128 21.6464 53.158Z" fill="url(#paint0_linear_938_22869)"/>
<g id="Group">
<path id="Vector_2" d="M29.6729 28.1962C29.7697 50.0576 39.5035 47.1702 40.892 47.1641C42.2805 47.158 43.2173 48.6437 43.2329 52.1725C43.2454 54.9913 42.744 56.282 40.9324 56.2901C26.5083 56.3539 26.3838 28.2108 26.3838 28.2108C26.3838 28.2108 26.2592 0.0639353 40.6833 3.53191e-05C42.4932 -0.00796468 43.28 1.34304 43.2921 4.09204C43.3043 6.84114 42.1122 9.12344 40.7237 9.12954C39.3352 9.13574 29.5762 6.33484 29.6729 28.1962Z" fill="#D7B532"/>
<path id="Vector_3" d="M13.6193 28.1962C13.5225 50.0576 3.78869 47.1702 2.40019 47.1641C1.01169 47.158 0.0748928 48.6437 0.0592928 52.1725C0.0467928 54.9912 0.548093 56.282 2.35979 56.29C16.7839 56.3538 16.9084 28.2107 16.9084 28.2107C16.9084 28.2107 17.033 0.0639353 2.60889 3.53191e-05C0.798993 -0.00796468 0.0122928 1.34304 9.28242e-05 4.09214C-0.0121072 6.84124 1.17999 9.12344 2.56849 9.12963C3.95699 9.13583 13.716 6.33484 13.6193 28.1962Z" fill="#D7B532"/>
</g>
</g>
<defs>
<linearGradient id="paint0_linear_938_22869" x1="21.8643" y1="3.2096" x2="21.6446" y2="53.1496" gradientUnits="userSpaceOnUse">
<stop stop-color="#D28AB5"/>
<stop offset="0.0936" stop-color="#C46F93"/>
<stop offset="0.214" stop-color="#B5516D"/>
<stop offset="0.3257" stop-color="#AA3C52"/>
<stop offset="0.4245" stop-color="#A32F42"/>
<stop offset="0.5" stop-color="#A12A3C"/>
<stop offset="0.5755" stop-color="#A32F42"/>
<stop offset="0.6743" stop-color="#AA3C52"/>
<stop offset="0.786" stop-color="#B5516D"/>
<stop offset="0.9064" stop-color="#C46F93"/>
<stop offset="1" stop-color="#D28AB5"/>
</linearGradient>
</defs>
</svg>
