<svg width="23" height="16" viewBox="0 0 23 16" fill="none" xmlns="http://www.w3.org/2000/svg">
<g id="R-ICO-013177">
<g id="Component">
<path id="Vector" d="M14.83 14.3589C18.6128 14.3589 21.6795 11.2923 21.6795 7.50941C21.6795 3.72654 18.6128 0.659912 14.83 0.659912C11.0471 0.659912 7.98047 3.72654 7.98047 7.50941C7.98047 11.2923 11.0471 14.3589 14.83 14.3589Z" fill="url(#paint0_linear_938_24794)"/>
<path id="Vector_2" d="M14.8294 15.0189C10.6889 15.0189 7.32056 11.6499 7.32056 7.5095C7.32056 3.3691 10.6889 0 14.8294 0C18.9699 0 22.3395 3.369 22.3395 7.5094C22.3395 11.6498 18.9698 15.0189 14.8294 15.0189ZM14.8294 1.32C11.4173 1.32 8.64056 4.0966 8.64056 7.5094C8.64056 10.9222 11.4172 13.6988 14.8294 13.6988C18.2428 13.6988 21.0195 10.9222 21.0195 7.5094C21.0195 4.0966 18.2428 1.32 14.8294 1.32Z" fill="#999999"/>
<path id="P" d="M11.9465 11.5956V3.00623H14.7297C15.7844 3.00623 16.4719 3.04923 16.7922 3.13513C17.2844 3.26403 17.6965 3.54433 18.0285 3.97593C18.3605 4.40753 18.5265 4.96523 18.5265 5.64883C18.5265 6.17613 18.4308 6.61953 18.2394 6.97893C18.048 7.33833 17.8048 7.62053 17.5099 7.82563C17.215 8.03073 16.9152 8.16643 16.6105 8.23283C16.1964 8.31483 15.5968 8.35583 14.8117 8.35583H13.6808V11.5955L11.9465 11.5956ZM13.6809 4.45943V6.89693H14.6301C15.3137 6.89693 15.7707 6.85203 16.0012 6.76213C16.2317 6.67223 16.4123 6.53163 16.5432 6.34023C16.6741 6.14883 16.7395 5.92613 16.7395 5.67223C16.7395 5.35973 16.6477 5.10193 16.4641 4.89883C16.2805 4.69573 16.0481 4.56873 15.7668 4.51793C15.5598 4.47883 15.1438 4.45933 14.5188 4.45933L13.6809 4.45943Z" fill="white"/>
<path id="Vector_3" d="M7.9806 6.84937H0V8.16937H7.9806V6.84937Z" fill="#999999"/>
</g>
</g>
<defs>
<linearGradient id="paint0_linear_938_24794" x1="14.8657" y1="1.15011" x2="14.7921" y2="14.2602" gradientUnits="userSpaceOnUse">
<stop stop-color="#8B0068"/>
<stop offset="0.0199" stop-color="#8F0466"/>
<stop offset="0.1872" stop-color="#AA2357"/>
<stop offset="0.3629" stop-color="#BF3B4C"/>
<stop offset="0.5485" stop-color="#CE4C43"/>
<stop offset="0.7506" stop-color="#D7563F"/>
<stop offset="1" stop-color="#DA593D"/>
</linearGradient>
</defs>
</svg>
