<svg width="64" height="100" viewBox="0 0 64 100" fill="none" xmlns="http://www.w3.org/2000/svg">
<g id="R-ICO-013222">
<g id="R-ICO-012905">
<path id="Vector" d="M31.8203 83.6347C31.7921 83.4663 31.7812 83.3636 31.7735 83.2223C31.4736 77.6846 33.521 74.0898 33.93 73.5654C43.2215 61.6503 37.4701 55.635 37.4701 55.635C37.4701 55.635 47.0989 60.4873 35.1345 73.1218C34.0888 74.0375 31.8131 78.8287 31.8203 83.6347Z" fill="url(#paint0_linear_938_25708)"/>
<g id="Group">
<path id="Vector_2" d="M22.3623 98.9593C34.3137 100.96 31.7959 83.444 31.7959 83.444L31.8687 83.5769C31.8687 83.5769 40.9669 102.074 24.1102 99.252L22.3623 98.9593Z" fill="url(#paint1_linear_938_25708)"/>
<path id="Vector_3" d="M25.1462 99.4254C14.3644 97.6201 19.8991 84.6319 21.0857 82.1069C21.1036 82.0687 21.2277 81.8496 21.4016 81.7392C21.5941 81.6171 21.4117 81.6311 21.4117 81.6311C21.4117 81.6311 21.0863 81.8824 20.8994 82.0802C18.9101 84.1853 7.98929 96.5528 23.3983 99.1328L25.1462 99.4254Z" fill="url(#paint2_linear_938_25708)"/>
</g>
<path id="Vector_4" d="M21.2583 81.8329C26.3801 78.6216 18.2411 70.9352 12.6682 71.8154L12.5088 71.8488C16.4731 72.3259 24.44 79.3659 21.1227 81.9061L21.2583 81.8329Z" fill="url(#paint3_linear_938_25708)"/>
</g>
<g id="Group_2">
<path id="Vector_5" d="M23.2918 40.8905C28.2149 37.6937 28.3441 51.4724 25.2892 56.0201L25.1946 56.1469C26.3961 52.4606 26.7658 39.0978 23.1719 40.9801L23.2918 40.8905Z" fill="url(#paint4_linear_938_25708)"/>
<path id="Vector_6" d="M37.2013 45.291C32.2782 42.0942 34.4188 51.0981 37.4737 55.6458C36.2722 51.9595 33.7341 43.5033 37.3281 45.3856L37.2013 45.291Z" fill="url(#paint5_linear_938_25708)"/>
<path id="Vector_7" d="M23.2919 28.4455C29.5055 31.5459 25.5742 17.6525 21.5923 15.8431L24.3845 17.4396C28.2993 19.8415 32.5879 33.0173 23.1651 28.3509L23.2919 28.4455Z" fill="url(#paint6_linear_938_25708)"/>
<path id="Vector_8" d="M39.7314 28.4455C33.5178 31.5459 37.4409 4.9189 41.4228 3.1095L38.6306 4.706C34.7158 7.1079 30.4354 33.0173 39.8582 28.3509L39.7314 28.4455Z" fill="url(#paint7_linear_938_25708)"/>
<path id="Vector_9" d="M39.8582 40.9851C43.7402 46.1958 38.7954 46.5252 37.328 45.3855L37.2012 45.2909C38.1854 46.047 41.3962 45.074 39.7314 40.8905L39.8582 40.9851Z" fill="url(#paint8_linear_938_25708)"/>
<g id="Group_3">
<path id="Vector_10" d="M59.5747 36.3188C59.5747 22.1453 39.7314 28.4455 39.7314 28.4455L39.8582 28.3509C39.8582 28.3509 59.5747 14.2552 59.5747 34.246V36.3188Z" fill="url(#paint9_linear_938_25708)"/>
<path id="Vector_11" d="M59.5747 33.0172C59.5747 47.1907 39.7314 40.8905 39.7314 40.8905L39.8582 40.9851C39.8582 40.9851 59.5747 55.0808 59.5747 35.09V33.0172Z" fill="url(#paint10_linear_938_25708)"/>
</g>
<g id="Group_4">
<path id="Vector_12" d="M3.44824 33.0172C3.44824 47.1907 23.2915 40.8905 23.2915 40.8905L23.1647 40.9851C23.1647 40.9851 3.44824 55.0808 3.44824 35.09V33.0172Z" fill="url(#paint11_linear_938_25708)"/>
<path id="Vector_13" d="M3.44824 36.3188C3.44824 22.1453 23.2915 28.4455 23.2915 28.4455L23.1647 28.3509C23.1647 28.3509 3.44824 14.2552 3.44824 34.246V36.3188Z" fill="url(#paint12_linear_938_25708)"/>
</g>
<path id="Vector_14" d="M12.5212 71.8888C7.1933 71.4795 5.91779 70.1698 9.37399 65.446C12.8703 60.6674 25.2535 56.1469 25.2535 56.1469L25.0966 56.1673C25.0966 56.1673 12.0823 60.2575 8.14339 64.7542C3.04529 70.5742 3.5336 73.2944 12.5212 71.8888Z" fill="url(#paint13_linear_938_25708)"/>
<path id="Vector_15" d="M0.652808 19.7383C-3.00199 13.8338 23.872 15.3091 26.0374 19.1091L24.1926 16.4743C21.4433 12.7952 -4.74869 10.8985 0.758608 19.8559L0.652808 19.7383Z" fill="url(#paint14_linear_938_25708)"/>
<path id="Vector_16" d="M62.8453 6.02622C66.3071 0.00652027 39.495 2.35082 37.4536 6.21892L39.2122 3.52582C41.841 -0.240279 67.9579 -2.98378 62.7434 6.14722L62.8453 6.02622Z" fill="url(#paint15_linear_938_25708)"/>
</g>
</g>
<defs>
<linearGradient id="paint0_linear_938_25708" x1="38.3792" y1="55.2599" x2="33.6535" y2="82.5995" gradientUnits="userSpaceOnUse">
<stop stop-color="#231D0F"/>
<stop offset="0.0941" stop-color="#907330"/>
<stop offset="0.1156" stop-color="#947737"/>
<stop offset="0.1462" stop-color="#9D8449"/>
<stop offset="0.1821" stop-color="#AE9868"/>
<stop offset="0.2222" stop-color="#C4B592"/>
<stop offset="0.2651" stop-color="#E1D9C8"/>
<stop offset="0.2725" stop-color="#E6E0D2"/>
<stop offset="0.3084" stop-color="#E5DECF"/>
<stop offset="0.3329" stop-color="#E0D8C6"/>
<stop offset="0.354" stop-color="#D8CEB7"/>
<stop offset="0.3733" stop-color="#CCBFA1"/>
<stop offset="0.3912" stop-color="#BDAC85"/>
<stop offset="0.4082" stop-color="#AB9563"/>
<stop offset="0.4241" stop-color="#967A3B"/>
<stop offset="0.4279" stop-color="#907330"/>
<stop offset="0.5065" stop-color="#796129"/>
<stop offset="0.652" stop-color="#54431E"/>
<stop offset="0.7874" stop-color="#392E16"/>
<stop offset="0.9076" stop-color="#292211"/>
<stop offset="1" stop-color="#231D0F"/>
</linearGradient>
<linearGradient id="paint1_linear_938_25708" x1="33.157" y1="83.5652" x2="27.3566" y2="99.8414" gradientUnits="userSpaceOnUse">
<stop stop-color="#231D0F"/>
<stop offset="0.0941" stop-color="#907330"/>
<stop offset="0.1156" stop-color="#947737"/>
<stop offset="0.1462" stop-color="#9D8449"/>
<stop offset="0.1821" stop-color="#AE9868"/>
<stop offset="0.2222" stop-color="#C4B592"/>
<stop offset="0.2651" stop-color="#E1D9C8"/>
<stop offset="0.2725" stop-color="#E6E0D2"/>
<stop offset="0.3084" stop-color="#E5DECF"/>
<stop offset="0.3329" stop-color="#E0D8C6"/>
<stop offset="0.354" stop-color="#D8CEB7"/>
<stop offset="0.3733" stop-color="#CCBFA1"/>
<stop offset="0.3912" stop-color="#BDAC85"/>
<stop offset="0.4082" stop-color="#AB9563"/>
<stop offset="0.4241" stop-color="#967A3B"/>
<stop offset="0.4279" stop-color="#907330"/>
<stop offset="0.5065" stop-color="#796129"/>
<stop offset="0.652" stop-color="#54431E"/>
<stop offset="0.7874" stop-color="#392E16"/>
<stop offset="0.9076" stop-color="#292211"/>
<stop offset="1" stop-color="#231D0F"/>
</linearGradient>
<linearGradient id="paint2_linear_938_25708" x1="19.403" y1="99.3533" x2="23.8304" y2="81.2865" gradientUnits="userSpaceOnUse">
<stop stop-color="#231D0F"/>
<stop offset="0.0941" stop-color="#907330"/>
<stop offset="0.1156" stop-color="#947737"/>
<stop offset="0.1462" stop-color="#9D8449"/>
<stop offset="0.1821" stop-color="#AE9868"/>
<stop offset="0.2222" stop-color="#C4B592"/>
<stop offset="0.2651" stop-color="#E1D9C8"/>
<stop offset="0.2725" stop-color="#E6E0D2"/>
<stop offset="0.3084" stop-color="#E5DECF"/>
<stop offset="0.3329" stop-color="#E0D8C6"/>
<stop offset="0.354" stop-color="#D8CEB7"/>
<stop offset="0.3733" stop-color="#CCBFA1"/>
<stop offset="0.3912" stop-color="#BDAC85"/>
<stop offset="0.4082" stop-color="#AB9563"/>
<stop offset="0.4241" stop-color="#967A3B"/>
<stop offset="0.4279" stop-color="#907330"/>
<stop offset="0.5065" stop-color="#796129"/>
<stop offset="0.652" stop-color="#54431E"/>
<stop offset="0.7874" stop-color="#392E16"/>
<stop offset="0.9076" stop-color="#292211"/>
<stop offset="1" stop-color="#231D0F"/>
</linearGradient>
<linearGradient id="paint3_linear_938_25708" x1="23.9278" y1="79.7853" x2="11.1854" y2="72.7846" gradientUnits="userSpaceOnUse">
<stop stop-color="#231D0F"/>
<stop offset="0.0941" stop-color="#907330"/>
<stop offset="0.1156" stop-color="#947737"/>
<stop offset="0.1462" stop-color="#9D8449"/>
<stop offset="0.1821" stop-color="#AE9868"/>
<stop offset="0.2222" stop-color="#C4B592"/>
<stop offset="0.2651" stop-color="#E1D9C8"/>
<stop offset="0.2725" stop-color="#E6E0D2"/>
<stop offset="0.3084" stop-color="#E5DECF"/>
<stop offset="0.3329" stop-color="#E0D8C6"/>
<stop offset="0.354" stop-color="#D8CEB7"/>
<stop offset="0.3733" stop-color="#CCBFA1"/>
<stop offset="0.3912" stop-color="#BDAC85"/>
<stop offset="0.4082" stop-color="#AB9563"/>
<stop offset="0.4241" stop-color="#967A3B"/>
<stop offset="0.4279" stop-color="#907330"/>
<stop offset="0.5065" stop-color="#796129"/>
<stop offset="0.652" stop-color="#54431E"/>
<stop offset="0.7874" stop-color="#392E16"/>
<stop offset="0.9076" stop-color="#292211"/>
<stop offset="1" stop-color="#231D0F"/>
</linearGradient>
<linearGradient id="paint4_linear_938_25708" x1="24.8934" y1="39.3214" x2="26.0845" y2="56.9137" gradientUnits="userSpaceOnUse">
<stop stop-color="#0F231B"/>
<stop offset="0.0941" stop-color="#30906B"/>
<stop offset="0.2725" stop-color="#C1D3CC"/>
<stop offset="0.4279" stop-color="#30906B"/>
<stop offset="1" stop-color="#0F231B"/>
</linearGradient>
<linearGradient id="paint5_linear_938_25708" x1="36.6395" y1="43.9818" x2="35.782" y2="56.6467" gradientUnits="userSpaceOnUse">
<stop stop-color="#0F231B"/>
<stop offset="0.0941" stop-color="#30906B"/>
<stop offset="0.2725" stop-color="#C1D3CC"/>
<stop offset="0.4279" stop-color="#30906B"/>
<stop offset="1" stop-color="#0F231B"/>
</linearGradient>
<linearGradient id="paint6_linear_938_25708" x1="24.5414" y1="30.1179" x2="25.5365" y2="15.4218" gradientUnits="userSpaceOnUse">
<stop stop-color="#0F231B"/>
<stop offset="0.0941" stop-color="#30906B"/>
<stop offset="0.2725" stop-color="#C1D3CC"/>
<stop offset="0.4279" stop-color="#30906B"/>
<stop offset="1" stop-color="#0F231B"/>
</linearGradient>
<linearGradient id="paint7_linear_938_25708" x1="39.0256" y1="30.4111" x2="37.095" y2="1.89812" gradientUnits="userSpaceOnUse">
<stop stop-color="#0F231B"/>
<stop offset="0.0941" stop-color="#30906B"/>
<stop offset="0.2725" stop-color="#C1D3CC"/>
<stop offset="0.4279" stop-color="#30906B"/>
<stop offset="1" stop-color="#0F231B"/>
</linearGradient>
<linearGradient id="paint8_linear_938_25708" x1="39.6744" y1="40.5714" x2="38.9652" y2="46.566" gradientUnits="userSpaceOnUse">
<stop stop-color="#0F231B"/>
<stop offset="0.0941" stop-color="#30906B"/>
<stop offset="0.2725" stop-color="#C1D3CC"/>
<stop offset="0.4279" stop-color="#30906B"/>
<stop offset="1" stop-color="#0F231B"/>
</linearGradient>
<linearGradient id="paint9_linear_938_25708" x1="39.587" y1="26.9445" x2="59.5966" y2="30.513" gradientUnits="userSpaceOnUse">
<stop stop-color="#0F231B"/>
<stop offset="0.0941" stop-color="#30906B"/>
<stop offset="0.2725" stop-color="#C1D3CC"/>
<stop offset="0.4279" stop-color="#30906B"/>
<stop offset="1" stop-color="#0F231B"/>
</linearGradient>
<linearGradient id="paint10_linear_938_25708" x1="60.5765" y1="39.7777" x2="38.8627" y2="38.1577" gradientUnits="userSpaceOnUse">
<stop stop-color="#0F231B"/>
<stop offset="0.0941" stop-color="#30906B"/>
<stop offset="0.2725" stop-color="#C1D3CC"/>
<stop offset="0.4279" stop-color="#30906B"/>
<stop offset="1" stop-color="#0F231B"/>
</linearGradient>
<linearGradient id="paint11_linear_938_25708" x1="23.4358" y1="42.3915" x2="3.42644" y2="38.823" gradientUnits="userSpaceOnUse">
<stop stop-color="#0F231B"/>
<stop offset="0.0941" stop-color="#30906B"/>
<stop offset="0.2725" stop-color="#C1D3CC"/>
<stop offset="0.4279" stop-color="#30906B"/>
<stop offset="1" stop-color="#0F231B"/>
</linearGradient>
<linearGradient id="paint12_linear_938_25708" x1="2.44614" y1="29.5582" x2="24.1602" y2="31.1783" gradientUnits="userSpaceOnUse">
<stop stop-color="#0F231B"/>
<stop offset="0.0941" stop-color="#30906B"/>
<stop offset="0.2725" stop-color="#C1D3CC"/>
<stop offset="0.4279" stop-color="#30906B"/>
<stop offset="1" stop-color="#0F231B"/>
</linearGradient>
<linearGradient id="paint13_linear_938_25708" x1="9.55749" y1="75.0657" x2="29.0927" y2="58.7443" gradientUnits="userSpaceOnUse">
<stop stop-color="#0F231B"/>
<stop offset="0.0941" stop-color="#30906B"/>
<stop offset="0.2725" stop-color="#C1D3CC"/>
<stop offset="0.4279" stop-color="#30906B"/>
<stop offset="1" stop-color="#0F231B"/>
</linearGradient>
<linearGradient id="paint14_linear_938_25708" x1="0.434585" y1="15.7712" x2="29.3827" y2="19.8134" gradientUnits="userSpaceOnUse">
<stop stop-color="#0F231B"/>
<stop offset="0.0941" stop-color="#30906B"/>
<stop offset="0.2725" stop-color="#C1D3CC"/>
<stop offset="0.4279" stop-color="#30906B"/>
<stop offset="1" stop-color="#0F231B"/>
</linearGradient>
<linearGradient id="paint15_linear_938_25708" x1="40.0249" y1="1.70432" x2="68.014" y2="7.47583" gradientUnits="userSpaceOnUse">
<stop stop-color="#0F231B"/>
<stop offset="0.0941" stop-color="#30906B"/>
<stop offset="0.2725" stop-color="#C1D3CC"/>
<stop offset="0.4279" stop-color="#30906B"/>
<stop offset="1" stop-color="#0F231B"/>
</linearGradient>
</defs>
</svg>
