<svg width="79" height="23" viewBox="0 0 79 23" fill="none" xmlns="http://www.w3.org/2000/svg">
<g id="R-ICO-013294">
<g id="RHO GEFs">
<path d="M0.925598 11.5C0.925598 5.97715 5.40275 1.5 10.9256 1.5H66.9256C72.4484 1.5 76.9256 5.97715 76.9256 11.5C76.9256 17.0228 72.4484 21.5 66.9256 21.5H10.9256C5.40275 21.5 0.925598 17.0228 0.925598 11.5Z" fill="url(#paint0_linear_938_23566)"/>
<path d="M54.6339 2.99266C40.0644 2.87443 25.4951 2.52283 10.9256 1.64001C10.9256 1.54664 10.9256 1.45328 10.9256 1.35991C25.4951 0.477089 40.0644 0.125486 54.6339 0.00726104C58.731 -0.0139852 62.8283 0.0137955 66.9256 0.0594004C70.5829 0.0654551 74.1427 1.98816 76.1717 4.97388C77.4963 6.87655 78.1941 9.20495 78.1462 11.5C78.1818 17.4967 72.6526 22.6188 66.9263 22.2659C66.926 22.2659 66.9258 22.2658 66.9256 22.2658C59.6411 22.0221 52.3559 21.8466 45.0715 21.953C37.7867 22.056 30.5014 22.4645 23.2167 22.6648C19.1197 22.7564 15.0226 22.7684 10.9256 22.7338C7.33346 22.737 3.83499 20.8333 1.86951 17.8926C0.589108 16.0162 -0.0679023 13.7347 0.00556564 11.5C0.0361652 5.6531 5.53193 0.828878 10.9256 1.35991C10.9256 1.45328 10.9256 1.54664 10.9256 1.64001C5.66631 1.91192 1.5558 6.69347 1.84548 11.5C1.90752 13.3651 2.54582 15.1752 3.64 16.6408C5.33151 18.9397 8.12141 20.3145 10.9256 20.2663C15.0226 20.2317 19.1196 20.2437 23.2167 20.3353C30.5014 20.5356 37.7867 20.9428 45.0715 21.0457C52.356 21.1521 59.641 20.978 66.9256 20.7342C66.9258 20.7342 66.926 20.7342 66.9262 20.7342C71.8527 20.6396 75.9284 16.1561 75.7051 11.5C75.6686 9.69579 75.0714 7.93294 74.0219 6.49377C72.394 4.23944 69.6651 2.88314 66.9256 2.94061C62.8283 2.98626 58.731 3.01406 54.6339 2.99266Z" fill="#1C474A"/>
<text id="RHO GEFs_2" fill="white" xml:space="preserve" style="white-space: pre" font-family="Arial" font-size="12" font-weight="bold" letter-spacing="0em"><tspan x="8.23419" y="15.6602">RHO GEFs</tspan></text>
</g>
</g>
<defs>
<linearGradient id="paint0_linear_938_23566" x1="38.9256" y1="1.5" x2="38.9256" y2="21.5" gradientUnits="userSpaceOnUse">
<stop stop-color="#536BD5"/>
<stop offset="1" stop-color="#1C474A"/>
</linearGradient>
</defs>
</svg>
