<svg width="132" height="98" viewBox="0 0 132 98" fill="none" xmlns="http://www.w3.org/2000/svg">
<g id="R-ICO-012426">
<path id="Vector" d="M75.5595 96.3916C87.9995 96.6016 81.1095 98.9016 96.0295 91.9816C108.34 86.2716 111.17 86.6116 113.08 80.6016C115.94 71.6016 117.77 74.9916 121.47 70.6116C127.67 63.2716 133.77 61.0316 128.63 52.9916C127.69 51.5216 126.63 45.2216 127.83 40.4316C128.41 38.1116 126.79 29.3416 123.06 30.3116C117.92 31.6616 114.1 19.5816 111.73 20.0316C108.27 20.6816 103.36 18.6616 103.58 15.8516C103.93 11.3416 97.0295 12.1116 94.4395 9.1016C92.4295 6.7616 87.0295 2.6316 82.9095 2.9016C80.3995 3.0616 70.5395 0.3416 67.7995 0.7416C64.8295 1.1716 60.0795 0.0215998 57.0695 0.7016C52.5495 1.7316 48.1195 1.6816 44.1795 3.2216C37.6095 5.7816 34.8295 5.2816 32.8195 8.9416C31.5295 11.2816 25.6695 12.9016 24.0695 14.9816C19.7495 20.6016 16.2595 24.5516 12.9395 25.5416C7.80951 27.0716 7.36951 35.1016 6.57951 38.4816C5.70951 42.1916 1.81951 45.4616 1.80951 47.9416C1.79951 51.1216 -1.81049 54.8916 5.07951 57.8916C7.83951 59.0916 6.96951 63.2516 6.77951 66.3816C6.58951 69.5116 11.8695 74.4716 15.7495 73.5916C19.6295 72.7116 21.7795 75.1916 22.4795 79.2716C23.3695 84.4416 27.2695 84.4816 30.0295 84.3316C35.1895 84.0416 37.7495 86.0516 39.5695 89.5516C42.3595 94.9216 44.3795 92.3716 51.6995 94.2816C59.0095 96.1916 59.3795 94.0316 65.0195 96.0716C70.6695 98.1116 69.6996 96.2916 75.5595 96.3916Z" fill="url(#paint0_radial_938_25157)"/>
<g id="Nucleus" opacity="0.5">
<path id="Vector_2" d="M75.7968 73.3068C86.9477 73.3068 95.9872 64.2672 95.9872 53.1164C95.9872 41.9655 86.9477 32.926 75.7968 32.926C64.646 32.926 55.6064 41.9655 55.6064 53.1164C55.6064 64.2672 64.646 73.3068 75.7968 73.3068Z" fill="url(#paint1_radial_938_25157)"/>
<path id="Vector_3" d="M75.797 74.0492C64.2543 74.0492 54.8643 64.6592 54.8643 53.1165C54.8643 41.5738 64.2543 32.1838 75.797 32.1838C87.3397 32.1838 96.7297 41.5738 96.7297 53.1165C96.7297 64.6592 87.3397 74.0492 75.797 74.0492ZM75.797 33.6683C65.0708 33.6683 56.3489 42.3903 56.3489 53.1165C56.3489 63.8427 65.0709 72.5647 75.797 72.5647C86.5231 72.5647 95.2452 63.8427 95.2452 53.1165C95.2452 42.3903 86.5231 33.6683 75.797 33.6683Z" fill="#5656A5"/>
</g>
<path id="MEMBRANE" d="M130.629 55.2716L130.129 54.2816C129.939 53.9616 129.739 53.6516 129.529 53.3416C129.319 53.0216 129.099 52.7316 128.959 52.4716C128.819 52.2116 128.699 51.9216 128.579 51.6216C128.099 49.9916 127.669 47.1516 127.789 44.2316C127.949 43.1616 128.149 42.1116 128.429 41.0816C128.499 40.8116 128.589 40.5916 128.669 40.2516C128.729 39.9416 128.759 39.6416 128.779 39.3516C128.809 38.7616 128.789 38.1916 128.749 37.6216C128.649 36.4816 128.409 35.3616 128.089 34.2416C127.709 33.1316 127.279 32.0216 126.419 30.9716C125.969 30.4716 125.409 29.9216 124.459 29.6616C123.999 29.5416 123.459 29.5316 123.019 29.6516L122.589 29.7516C122.469 29.7816 122.359 29.7816 122.239 29.8016C121.279 29.8416 120.199 29.2016 119.319 28.4716C118.009 27.1916 116.789 25.3116 115.709 23.6516C115.379 23.1416 115.069 22.6616 114.769 22.2216C114.459 21.6816 114.139 21.1516 113.739 20.6216C113.519 20.3316 113.259 20.0416 112.859 19.7616C112.649 19.6316 112.369 19.4716 111.959 19.4516C111.849 19.4516 111.749 19.4516 111.639 19.4616L111.489 19.4716L111.239 19.4916C109.879 19.5916 108.429 19.3216 107.189 18.7916C105.959 18.2816 104.889 17.4516 104.629 16.5216C104.549 16.2716 104.559 16.1016 104.539 15.7816C104.509 15.4016 104.569 15.0416 104.429 14.6516C104.299 13.8816 103.769 13.1216 103.089 12.6016C102.409 12.0616 101.629 11.7216 100.889 11.4416C100.139 11.1516 99.3894 10.9416 98.6694 10.7216C97.2494 10.2816 95.8894 9.8216 94.9394 8.9516C94.9094 8.9216 94.8694 8.8916 94.8494 8.8616C93.6594 7.4716 90.8694 5.0516 87.7894 3.6216C86.5894 2.9816 85.2594 2.4216 83.6994 2.2816C83.2894 2.2416 82.7994 2.2616 82.5594 2.2316C82.2494 2.2016 81.8994 2.1716 81.5494 2.1116C80.8494 2.0116 80.1294 1.8616 79.4194 1.7216L75.0794 0.8416C73.6094 0.5716 72.1494 0.3016 70.6194 0.1216C69.8494 0.0416 69.0794 -0.0284 68.2094 0.0116C67.6994 0.0516 67.4194 0.1016 67.0794 0.1416C66.7394 0.1816 66.3894 0.2016 66.0394 0.2116C64.6494 0.2416 63.1994 0.1716 61.7394 0.1616C60.0394 0.0416 58.3594 -0.00839999 56.9794 0.3116C55.3694 0.6816 53.7394 0.9116 52.1594 1.1216C50.6094 1.2416 49.0494 1.3816 47.4694 1.6416C46.6594 1.7716 45.8494 1.9416 45.0494 2.1816C44.6494 2.2916 44.2594 2.4316 43.8694 2.5616L42.7794 2.9416C41.3294 3.4516 39.8494 3.8916 38.3294 4.3316C36.8494 4.8016 35.1394 5.3116 33.8294 6.4216C33.1794 6.9616 32.7194 7.6116 32.3494 8.2516L32.0894 8.7116C32.0094 8.8216 31.9594 8.9416 31.8594 9.0616C31.6794 9.2916 31.4594 9.5216 31.2094 9.7416C30.1994 10.5916 28.9094 11.3316 27.6494 12.0916C25.9894 12.9616 24.4594 13.7916 23.7094 14.7716C22.8094 15.9516 21.9494 17.0316 21.1294 18.0316C20.2094 18.9916 19.2894 19.9316 18.3394 20.8516C17.3494 21.7816 16.3494 22.7116 15.2394 23.4716C14.6894 23.8616 14.1194 24.2116 13.5294 24.4816C13.2294 24.6316 12.9394 24.7116 12.6194 24.8316C12.2194 24.9916 11.7694 25.1216 11.4094 25.3416C9.90943 26.1916 8.98943 27.4316 8.35943 28.6516C7.74943 29.8916 7.34943 31.1516 7.09943 32.4216C6.83943 33.6516 6.70943 34.8816 6.59943 36.1016C6.57943 36.2016 6.55943 36.3016 6.54943 36.3916C6.41943 37.1516 6.28943 37.8416 6.15943 38.4016C5.82943 39.8316 5.00943 41.2216 4.15943 42.5016C3.51943 43.2716 2.87943 44.0516 2.27943 44.8816C1.66943 45.7416 1.07943 46.6816 0.969429 47.8916C0.929429 48.7516 0.649429 49.6416 0.379429 50.6016C0.149429 51.5616 -0.110571 52.6116 0.0494289 53.7216C0.229429 54.8316 0.899429 55.9116 1.85943 56.6416C2.74943 57.3916 3.88943 57.8316 4.90943 58.2316C6.60943 58.9816 6.72943 61.1916 6.57943 63.4416C6.40943 64.3816 6.20943 65.3216 6.08943 66.2816C5.93943 67.4416 6.39943 68.5216 6.94943 69.4916C7.52943 70.4516 8.29943 71.3116 9.18943 72.0816C10.1094 72.8316 11.1494 73.5016 12.4094 73.9416C13.0494 74.1416 13.7194 74.3116 14.4494 74.3316C14.8094 74.3416 15.1694 74.3516 15.5394 74.2716C15.7094 74.2416 15.9194 74.2016 16.0494 74.1716L16.4294 74.0716C17.4194 73.8616 18.4594 73.9016 19.3594 74.3516C20.6194 75.1216 21.5194 76.6916 21.9694 78.9216C21.9994 79.6216 22.0694 80.4116 22.2894 81.1616C22.5294 81.9616 22.9794 82.7516 23.6794 83.4516C24.3794 84.1416 25.3894 84.6416 26.4294 84.8816C27.4694 85.1116 28.5094 85.1316 29.4894 85.0716C29.9894 85.0316 30.4294 84.9916 30.8594 84.9616C31.2994 84.9416 31.7294 84.9316 32.1594 84.9316C33.0094 84.9416 33.8494 85.0516 34.6694 85.2616C36.5794 85.9916 37.9994 87.4116 39.1794 89.6816C39.1894 89.7016 39.1994 89.7216 39.2094 89.7416C39.7294 90.8816 40.2894 92.1016 41.6394 93.0316C42.3494 93.5016 43.2394 93.7716 44.0494 93.8916C44.8694 94.0216 45.6294 94.0716 46.3794 94.1516C47.8694 94.2816 49.2994 94.4816 50.7094 94.8316C52.1194 95.1516 53.6994 95.5716 55.2794 95.7116C56.8694 95.8816 58.5394 95.7916 59.9794 95.7016C61.3994 95.6316 62.7894 95.8216 64.1894 96.1916C64.3994 96.2616 64.6094 96.3316 64.8494 96.4116C66.9794 97.1816 68.2194 97.4216 69.2194 97.4216C69.9194 97.4216 70.4894 97.3016 71.1594 97.1716C72.1394 96.9716 73.3394 96.7316 75.5594 96.7716C75.7594 96.7716 75.9494 96.7816 76.1394 96.7816C78.5194 96.9016 80.7794 97.1916 83.1994 97.4816C83.8194 97.5516 84.5594 97.5616 85.2494 97.4416C85.5994 97.3816 85.9294 97.3016 86.2294 97.2016C86.5494 97.1116 86.8394 97.0016 87.1294 96.8916C88.2794 96.4516 89.3394 95.9616 90.4094 95.4816L96.7594 92.5516C98.8594 91.5716 100.989 90.6316 103.129 89.6916C104.199 89.2116 105.269 88.7416 106.339 88.2416C107.409 87.7416 108.479 87.2216 109.479 86.5616C110.479 85.9116 111.409 85.1116 112.039 84.1716C112.609 83.3516 112.969 82.4816 113.239 81.6116C113.349 81.3316 113.449 81.0316 113.549 80.7116C115.319 75.1416 116.629 74.4716 118.289 73.6216C118.729 73.3916 119.189 73.1516 119.689 72.8216C120.249 72.4916 120.789 72.1216 121.249 71.7016C121.559 71.4416 121.819 71.1516 122.089 70.8816L122.859 70.0816C124.889 67.9416 127.199 66.0116 129.199 63.6816C130.159 62.5016 131.019 61.1516 131.299 59.6416C131.569 58.1216 131.249 56.6116 130.629 55.2716ZM117.789 72.9516C116.029 73.8616 114.499 74.6416 112.639 80.5016C112.579 80.7016 112.509 80.8916 112.439 81.0816C111.729 82.9516 110.499 84.5516 108.599 85.5816C106.699 86.6416 104.469 87.4816 102.309 88.3816C100.139 89.2816 97.9794 90.2216 95.8394 91.1916C93.7294 92.1816 91.6094 93.1916 89.5294 94.2016C88.4894 94.7116 87.4494 95.2316 86.4194 95.6616C86.1594 95.7716 85.8994 95.8816 85.6494 95.9616C85.3894 96.0616 85.1494 96.1216 84.8994 96.1816C84.4094 96.2916 83.9094 96.3216 83.3294 96.2816C82.1694 96.2216 80.9194 96.0916 79.6994 96.0516C78.6194 96.0116 77.5294 96.0016 76.4594 96.0116C76.1794 96.0016 75.8994 95.9916 75.5894 95.9916C73.2594 95.9516 71.9794 96.2116 70.9494 96.4116C69.3994 96.7216 68.5494 96.8916 65.2394 95.6916C64.9194 95.5716 64.6094 95.4716 64.3194 95.3816C63.7094 95.1416 63.0694 94.9416 62.3994 94.7816C61.6194 94.5916 60.7894 94.5216 59.9894 94.4816C59.1894 94.4516 58.4294 94.4616 57.6994 94.4416C56.9694 94.4116 56.2494 94.3616 55.5394 94.2516C54.8294 94.1516 54.1094 94.0216 53.3994 93.8616L51.2194 93.3316C49.6894 92.9816 48.0994 92.7716 46.5394 92.6816C44.9794 92.5916 43.5194 92.6116 42.4994 92.0516C41.4794 91.4916 40.7194 90.4416 40.0394 89.3816C40.0394 89.3716 40.0294 89.3716 40.0294 89.3616C38.7194 86.8516 37.0894 85.2716 34.8994 84.4816C34.0994 84.1016 33.2094 83.8316 32.2994 83.7216C31.3394 83.5616 30.2594 83.5916 29.3994 83.5916C28.5194 83.5916 27.6794 83.5516 26.9194 83.3716C26.1694 83.2016 25.5194 82.8916 24.9794 82.4416C24.4194 82.0016 24.0294 81.4016 23.6694 80.7616C23.3594 80.0916 23.1094 79.4316 22.8594 78.6616C22.3694 76.3116 21.4094 74.6716 19.9994 73.7716L19.9894 73.7616C19.4994 73.3916 18.8694 73.1016 18.1994 72.9516C17.5194 72.8016 16.8194 72.8016 16.1394 72.8616L15.6394 72.9316C15.4794 72.9516 15.3894 72.9516 15.2594 72.9616C15.0294 73.0016 14.7894 72.9816 14.5494 72.9516C14.0694 72.9116 13.5794 72.7616 13.1094 72.5816C12.1594 72.2116 11.2694 71.6316 10.4994 70.9716C9.70943 70.3216 9.02943 69.5716 8.48943 68.7816C7.93943 67.9916 7.55943 67.1416 7.51943 66.3116C7.50943 65.3716 7.53943 64.3916 7.48943 63.4116C7.63943 60.9716 7.48943 58.5616 5.42943 57.5716C4.45943 57.0016 3.55943 56.4816 2.90943 55.7916C2.25943 55.1116 1.83943 54.3616 1.78943 53.5316C1.70943 52.7016 1.91943 51.8216 2.17943 50.8916C2.39943 49.9616 2.71943 48.9616 2.70943 47.8716C2.67943 47.1216 3.10943 46.2516 3.54943 45.3916C3.99943 44.5616 4.49943 43.7116 4.94943 42.8416C5.82943 41.5016 6.68943 40.0416 7.04943 38.5116C7.17943 37.9416 7.30943 37.2416 7.43943 36.4716C7.45943 36.3816 7.46943 36.2916 7.48943 36.2016C7.80943 35.0016 8.12943 33.8116 8.49943 32.6416C8.89943 31.4516 9.31943 30.2716 9.94943 29.2016C10.5494 28.1316 11.3494 27.1616 12.4094 26.5916C12.6594 26.4316 12.9594 26.3616 13.2394 26.2316C13.6194 26.0916 14.0494 25.9516 14.4094 25.7616C15.1494 25.4016 15.8094 24.9916 16.3994 24.5316C17.5694 23.6116 18.5794 22.6116 19.4694 21.5616C20.3394 20.5516 21.1394 19.5016 21.8794 18.4416C22.7094 17.4316 23.5694 16.3416 24.4794 15.1616C25.1194 14.3216 26.6294 13.5116 28.1394 12.7216C29.5094 12.1016 30.9194 11.5016 32.1994 10.5916C32.5194 10.3516 32.8394 10.0816 33.1294 9.7816C33.2794 9.6316 33.3894 9.4416 33.5094 9.2716L33.7894 8.8516C34.1394 8.3116 34.5494 7.8216 35.0594 7.4416C36.0394 6.6616 37.4394 6.2116 38.9494 5.7716C40.4394 5.3116 41.9894 4.8416 43.4694 4.2716L44.5694 3.8316C44.9094 3.7016 45.2494 3.5616 45.6094 3.4416C46.3194 3.2016 47.0494 2.9916 47.7994 2.8116C49.2494 2.4616 50.7594 2.1916 52.2794 1.8916C53.8894 1.6716 55.5394 1.4416 57.2094 1.0616C58.4294 0.7816 59.9994 0.8316 61.6094 0.9416C63.0394 1.1216 64.4794 1.3516 65.9994 1.4316C66.3894 1.4516 66.7894 1.4616 67.1894 1.4416C67.5994 1.4216 68.0494 1.3716 68.2894 1.3716C68.9094 1.3716 69.6294 1.4516 70.3294 1.5716C71.7494 1.7816 73.1994 2.0616 74.6394 2.3516C76.0894 2.6116 77.5394 2.9116 79.0294 3.1516C79.7694 3.2616 80.5194 3.3816 81.2994 3.4516C81.6894 3.4916 82.0794 3.5216 82.5194 3.5216C83.0294 3.5216 83.2794 3.4716 83.6094 3.4816C84.8494 3.5016 86.1694 3.8616 87.4094 4.3516C90.2094 5.6716 92.8794 7.9016 94.0794 9.3116C94.1494 9.3916 94.2294 9.4616 94.2994 9.5416C94.7494 10.0616 95.3394 10.4916 95.9494 10.8716C96.6394 11.2516 97.3694 11.5716 98.0794 11.8416C98.7894 12.1316 99.4994 12.3816 100.149 12.6616C100.799 12.9416 101.409 13.2516 101.819 13.6316C102.239 14.0116 102.549 14.4116 102.609 14.9216C102.699 15.1516 102.639 15.4416 102.659 15.7016C102.659 16.0316 102.649 16.5016 102.779 16.8716C103.029 17.6616 103.569 18.3316 104.209 18.8516C104.849 19.3716 105.589 19.7916 106.379 20.0816C107.949 20.6616 109.689 20.9416 111.429 20.6616L111.749 20.6016C111.789 20.5916 111.849 20.5816 111.879 20.5816C111.879 20.5716 111.939 20.5816 112.029 20.6316C112.239 20.7516 112.489 20.9616 112.719 21.1916C113.149 21.6216 113.539 22.1116 113.929 22.6016C114.259 23.0816 114.579 23.5716 114.849 24.0016C115.959 25.7216 117.219 27.6516 118.639 29.0216C119.019 29.4516 119.449 29.8616 119.979 30.2316C120.549 30.6216 121.299 30.9516 122.169 31.0016C122.379 31.0016 122.609 31.0116 122.819 30.9816L123.139 30.9316L123.299 30.9016L123.379 30.8916C123.579 30.8516 123.749 30.8816 123.919 30.9316C124.259 31.0316 124.629 31.3716 124.929 31.7716C125.539 32.5816 125.959 33.6016 126.259 34.6116C126.599 35.6316 126.819 36.6916 126.979 37.7416C127.059 38.2716 127.119 38.8016 127.139 39.3116C127.159 39.8516 127.109 40.2516 126.999 40.8616C126.849 41.9316 126.809 42.9916 126.869 44.0516C126.719 47.0716 127.139 50.0716 127.689 51.8616C127.759 52.1616 127.839 52.4616 127.949 52.7616C128.009 52.9316 128.129 53.1516 128.199 53.2916L128.429 53.7616L128.889 54.6816L129.249 55.6216C129.659 56.8816 129.869 58.1516 129.559 59.3516C129.289 60.5616 128.569 61.6916 127.659 62.7716C126.779 63.8716 125.709 64.9116 124.679 65.9916C123.659 67.0816 122.609 68.1716 121.689 69.3316C121.219 69.9216 120.769 70.4916 120.319 71.0216C119.869 71.5316 119.359 71.9916 118.769 72.4016C118.429 72.6216 118.109 72.7916 117.789 72.9516Z" fill="#AD253C"/>
</g>
<defs>
<radialGradient id="paint0_radial_938_25157" cx="0" cy="0" r="1" gradientUnits="userSpaceOnUse" gradientTransform="translate(44.5711 27.9156) scale(71.4003 58.6071)">
<stop stop-color="#FFDCAC"/>
<stop offset="0.0121" stop-color="#FED8AA"/>
<stop offset="0.1267" stop-color="#F6B89B"/>
<stop offset="0.2507" stop-color="#F09D8E"/>
<stop offset="0.3853" stop-color="#EB8884"/>
<stop offset="0.5361" stop-color="#E8797D"/>
<stop offset="0.7157" stop-color="#E67179"/>
<stop offset="1" stop-color="#E56E78"/>
</radialGradient>
<radialGradient id="paint1_radial_938_25157" cx="0" cy="0" r="1" gradientUnits="userSpaceOnUse" gradientTransform="translate(70.5468 44.7094) scale(26.5365 26.5365)">
<stop stop-color="#AFBAF7"/>
<stop offset="0.3111" stop-color="#6D96CE"/>
<stop offset="0.8032" stop-color="#285FCC"/>
</radialGradient>
</defs>
</svg>
