<svg width="144" height="134" viewBox="0 0 144 134" fill="none" xmlns="http://www.w3.org/2000/svg">
<g id="R-ICO-013200">
<path id="BG" d="M132.157 97.2223C118.03 90.2649 110.733 76.5476 113.344 62.8576C114.125 58.7601 114.523 54.4564 114.523 50.0177C114.523 22.3937 99.0933 0 71.9863 0C44.8793 0 29.4493 22.3937 29.4493 50.0177C29.4493 54.4565 29.8477 58.7602 30.6289 62.8576C33.2391 76.5476 25.9422 90.2649 11.8155 97.2223C4.3464 100.901 0 114.753 0 119.487C0 132.378 32.2293 133.38 71.9863 133.38C111.743 133.38 143.973 132.378 143.973 119.487C143.972 114.753 139.626 100.901 132.157 97.2223Z" fill="#FF919E"/>
<g id="LYSOSOMES">
<g id="R-ICO-012966">
<path id="Lysosome" d="M96.9821 98.2329C97.8869 98.2329 98.6204 97.4994 98.6204 96.5945C98.6204 95.6897 97.8869 94.9562 96.9821 94.9562C96.0773 94.9562 95.3438 95.6897 95.3438 96.5945C95.3438 97.4994 96.0773 98.2329 96.9821 98.2329Z" fill="url(#paint0_radial_938_25231)"/>
</g>
<g id="R-ICO-012966_2">
<path id="Lysosome_2" d="M110.346 95.7863C111.125 95.7863 111.757 95.1547 111.757 94.3757C111.757 93.5966 111.125 92.9651 110.346 92.9651C109.567 92.9651 108.936 93.5966 108.936 94.3757C108.936 95.1547 109.567 95.7863 110.346 95.7863Z" fill="url(#paint1_radial_938_25231)"/>
</g>
<g id="R-ICO-012966_3">
<path id="Lysosome_3" d="M107.694 104.199C108.497 104.199 109.149 103.547 109.149 102.744C109.149 101.94 108.497 101.289 107.694 101.289C106.891 101.289 106.239 101.94 106.239 102.744C106.239 103.547 106.891 104.199 107.694 104.199Z" fill="url(#paint2_radial_938_25231)"/>
</g>
</g>
<g id="R-ICO-013020" opacity="0.8">
<path id="Vector" d="M41.5004 89.0538C39.598 88.8279 37.1051 91.4163 35.8562 93.9347C33.9894 97.7239 37.019 105.742 40.9613 110.334C43.3524 113.123 45.2482 113.444 46.3999 113.213C46.729 113.147 47.0547 113.022 47.3541 112.85C48.2062 112.363 48.8802 111.457 49.2777 110.282C49.9083 108.393 49.7288 105.622 47.9702 103.724C45.0754 100.642 44.6424 97.8025 44.1005 94.5053C43.9386 93.5279 43.7866 92.5144 43.5489 91.4581C43.1232 89.5924 42.2047 89.1092 41.5004 89.0538Z" fill="url(#paint3_linear_938_25231)"/>
<path id="Vector_2" d="M43.1721 93.6304C42.7081 93.6209 41.1158 94.471 40.2506 94.9356C38.6583 95.7857 38.1385 96.0526 37.7368 95.885C37.6019 95.8094 37.4998 95.6844 37.4569 95.5561C37.3282 94.9572 38.1243 94.5322 40.0884 93.5304C41.0359 93.0493 42.5723 92.2618 42.8024 91.9161C42.7727 91.8108 42.743 91.7055 42.7496 91.61C42.4856 90.5077 42.0475 89.9025 41.3892 89.8206C40.0497 89.6701 37.7769 91.735 36.5642 94.2633C36.0843 95.2411 35.9734 96.6497 36.2114 98.3477C36.682 98.2618 37.942 97.6324 38.8073 97.1678C40.7582 96.143 41.6629 95.7475 42.1863 95.9677C42.3443 96.0301 42.4827 96.165 42.5288 96.3525C42.7367 97.0896 41.7036 97.5279 40.1605 98.197C38.6866 98.8266 36.423 99.7857 36.7362 100.707C37.2244 102.415 37.966 104.191 38.8919 105.863C39.2967 105.875 40.6652 105.062 41.4811 104.564C43.3332 103.474 44.6787 102.673 45.209 103.44C45.3243 103.588 45.3343 103.765 45.2851 103.946C45.1472 104.453 44.4431 104.826 43.1042 105.531C42.6995 105.732 42.2258 105.972 41.7882 106.223C40.9592 106.697 40.2388 107.201 40.1338 107.659C40.1273 107.754 40.1109 107.886 40.2393 108.057C40.6906 108.685 41.1155 109.267 41.5602 109.777C43.4177 111.955 45.2382 112.839 46.6563 112.272C48.0282 111.731 48.8992 109.888 48.8057 107.801C48.8155 107.765 48.7793 107.755 48.7793 107.755C48.4403 107.643 46.8843 108.717 46.1409 109.234C44.756 110.18 43.9895 110.71 43.5811 110.21C43.4658 110.062 43.4196 109.875 43.4459 109.707C43.531 109.108 44.3666 108.538 45.8337 107.576C46.6364 107.055 48.2746 105.965 48.2645 105.573C48.047 105.087 47.7373 104.652 47.3816 104.244C46.3442 103.126 45.5438 101.995 44.9374 100.721C44.8979 100.652 44.8715 100.606 44.7991 100.587C44.2066 100.406 42.5814 101.305 41.4991 101.925C40.1634 102.689 39.4364 103.075 38.9755 102.911C38.8175 102.848 38.6924 102.736 38.6232 102.562C38.2902 101.713 39.5733 101.07 41.34 100.151C42.1131 99.7392 44.1463 98.698 44.0539 98.3228C43.724 97.1054 43.5257 95.9043 43.311 94.6209C43.268 94.2787 43.2151 93.9727 43.1721 93.6304Z" fill="#AD342D"/>
<g id="LIGHT">
<mask id="mask0_938_25231" style="mask-type:alpha" maskUnits="userSpaceOnUse" x="36" y="90" width="5" height="19">
<path id="MASK" d="M39.2208 90.7863C38.609 91.3199 35.2044 93.7574 36.2244 98.3708C37.1321 102.467 37.8871 104.695 40.664 108.639C40.664 108.639 36.5212 99.4237 37.6047 95.4409C38.6881 91.458 39.2208 90.7863 39.2208 90.7863Z" fill="url(#paint4_linear_938_25231)"/>
</mask>
<g mask="url(#mask0_938_25231)">
<path id="LIGHT_2" d="M39.2208 90.7863C38.609 91.3199 35.2044 93.7574 36.2244 98.3708C37.1321 102.467 37.8871 104.695 40.664 108.639C40.664 108.639 36.5212 99.4237 37.6047 95.4409C38.6881 91.458 39.2208 90.7863 39.2208 90.7863Z" fill="url(#paint5_radial_938_25231)"/>
</g>
</g>
</g>
<g id="R-ICO-013121">
<g id="Nucleus">
<mask id="path-9-inside-1_938_25231" fill="white">
<path d="M72.8166 103.812C79.8016 103.812 85.4642 98.1495 85.4642 91.1645C85.4642 84.1794 79.8016 78.5168 72.8166 78.5168C65.8315 78.5168 60.1689 84.1794 60.1689 91.1645C60.1689 98.1495 65.8315 103.812 72.8166 103.812Z"/>
</mask>
<path d="M72.8166 103.812C79.8016 103.812 85.4642 98.1495 85.4642 91.1645C85.4642 84.1794 79.8016 78.5168 72.8166 78.5168C65.8315 78.5168 60.1689 84.1794 60.1689 91.1645C60.1689 98.1495 65.8315 103.812 72.8166 103.812Z" fill="url(#paint6_radial_938_25231)" stroke="#5656A5" stroke-width="1.89714" mask="url(#path-9-inside-1_938_25231)"/>
</g>
<g id="R-ICO-013619">
<g id="Nucleolus">
<mask id="path-10-inside-2_938_25231" fill="white">
<path d="M66.8691 98.8731C68.0915 98.8731 69.0824 97.8821 69.0824 96.6597C69.0824 95.4374 68.0915 94.4464 66.8691 94.4464C65.6467 94.4464 64.6558 95.4374 64.6558 96.6597C64.6558 97.8821 65.6467 98.8731 66.8691 98.8731Z"/>
</mask>
<path d="M66.8691 98.8731C68.0915 98.8731 69.0824 97.8821 69.0824 96.6597C69.0824 95.4374 68.0915 94.4464 66.8691 94.4464C65.6467 94.4464 64.6558 95.4374 64.6558 96.6597C64.6558 97.8821 65.6467 98.8731 66.8691 98.8731Z" fill="url(#paint7_radial_938_25231)" stroke="#4B4C96" stroke-width="0.442666" mask="url(#path-10-inside-2_938_25231)"/>
</g>
</g>
</g>
</g>
<defs>
<radialGradient id="paint0_radial_938_25231" cx="0" cy="0" r="1" gradientUnits="userSpaceOnUse" gradientTransform="translate(96.7654 96.1249) scale(1.65236)">
<stop stop-color="#D8BA5D"/>
<stop offset="1" stop-color="#1DA075"/>
</radialGradient>
<radialGradient id="paint1_radial_938_25231" cx="0" cy="0" r="1" gradientUnits="userSpaceOnUse" gradientTransform="translate(110.16 93.9713) scale(1.42266)">
<stop stop-color="#D8BA5D"/>
<stop offset="1" stop-color="#1DA075"/>
</radialGradient>
<radialGradient id="paint2_radial_938_25231" cx="0" cy="0" r="1" gradientUnits="userSpaceOnUse" gradientTransform="translate(107.502 102.327) scale(1.46712)">
<stop stop-color="#D8BA5D"/>
<stop offset="1" stop-color="#1DA075"/>
</radialGradient>
<linearGradient id="paint3_linear_938_25231" x1="46.1534" y1="98.8643" x2="35.4993" y2="108.126" gradientUnits="userSpaceOnUse">
<stop stop-color="#D86E66"/>
<stop offset="1" stop-color="#A33029"/>
</linearGradient>
<linearGradient id="paint4_linear_938_25231" x1="40.8095" y1="109.237" x2="39.2208" y2="90.7863" gradientUnits="userSpaceOnUse">
<stop offset="0.05" stop-opacity="0"/>
<stop offset="0.5" stop-color="white"/>
<stop offset="0.95" stop-opacity="0"/>
</linearGradient>
<radialGradient id="paint5_radial_938_25231" cx="0" cy="0" r="1" gradientTransform="matrix(-6.07936 1.44531 2.81204 11.8315 42.4776 99.7131)" gradientUnits="userSpaceOnUse">
<stop offset="0.782" stop-color="white" stop-opacity="0"/>
<stop offset="0.8523" stop-color="#FFBA94"/>
<stop offset="0.9002" stop-color="white" stop-opacity="0"/>
</radialGradient>
<radialGradient id="paint6_radial_938_25231" cx="0" cy="0" r="1" gradientUnits="userSpaceOnUse" gradientTransform="translate(69.5279 85.8981) scale(16.6229)">
<stop stop-color="#AFBAF7"/>
<stop offset="0.3111" stop-color="#6D96CE"/>
<stop offset="0.8032" stop-color="#285FCC"/>
</radialGradient>
<radialGradient id="paint7_radial_938_25231" cx="0" cy="0" r="1" gradientUnits="userSpaceOnUse" gradientTransform="translate(66.8707 96.6654) rotate(-15.5149) scale(2.747)">
<stop stop-color="#B0B7DC"/>
<stop offset="0.3" stop-color="#B697C6"/>
<stop offset="0.8032" stop-color="#525281"/>
</radialGradient>
</defs>
</svg>
