<svg width="50" height="23" viewBox="0 0 50 23" fill="none" xmlns="http://www.w3.org/2000/svg">
<g id="R-ICO-014923">
<g id="PROTEIN">
<path d="M1.12903 11.4629C1.12903 5.94004 5.60618 1.46289 11.129 1.46289H38.129C43.6519 1.46289 48.129 5.94004 48.129 11.4629C48.129 16.9857 43.6519 21.4629 38.129 21.4629H11.129C5.60618 21.4629 1.12903 16.9857 1.12903 11.4629Z" fill="url(#paint0_linear_938_24207)"/>
<path d="M39.9947 3.16043C39.3861 3.01514 38.7601 2.93626 38.129 2.9246C29.129 2.78112 20.1291 2.41897 11.129 1.6029C11.129 1.50953 11.129 1.41617 11.129 1.3228C20.1291 0.506728 29.129 0.144581 38.129 0.00109887C38.9708 -0.0107946 39.8177 0.0707778 40.6461 0.24696C45.7882 1.28067 49.6618 6.31708 49.4678 11.4629C49.4603 11.881 49.4302 12.2962 49.3776 12.7091C48.7899 18.289 43.4325 22.6341 38.1295 22.2288C38.1293 22.2287 38.1292 22.2287 38.129 22.2287C33.2611 21.985 28.3927 21.8095 23.5248 21.9159C19.393 22.0033 15.2609 22.3108 11.129 22.5243C10.316 22.5625 9.49253 22.5088 8.68307 22.3587C3.65568 21.4803 -0.233364 16.5153 0.010965 11.4629C0.0218314 11.0529 0.0553148 10.6463 0.111329 10.2425C0.752318 4.77929 6.12564 0.671175 11.129 1.3228C11.129 1.41617 11.129 1.50953 11.129 1.6029C6.26658 2.05068 2.51687 6.11956 2.26675 10.4788C2.24264 10.8061 2.23617 11.1338 2.24701 11.4629C2.3338 15.5019 5.32687 19.1101 9.19143 20.0853C9.81914 20.2568 10.4689 20.3636 11.129 20.4015C15.2609 20.6147 19.393 20.9212 23.5248 21.0086C28.3928 21.115 33.261 20.9408 38.129 20.6971C38.1292 20.6971 38.1293 20.6971 38.1294 20.6971C42.6919 20.4949 46.4562 16.664 46.7604 12.422C46.7879 12.1036 46.7979 11.7841 46.7904 11.4629C46.7539 7.51699 43.7446 3.98001 39.9947 3.16043Z" fill="#DB5361"/>
<text id="P" fill="white" xml:space="preserve" style="white-space: pre" font-family="Arial" font-size="12" font-weight="bold" letter-spacing="0em"><tspan x="8.28137" y="15.623">GBP1</tspan></text>
</g>
</g>
<defs>
<linearGradient id="paint0_linear_938_24207" x1="24.629" y1="1.46289" x2="24.629" y2="21.4629" gradientUnits="userSpaceOnUse">
<stop stop-color="#DB5361"/>
<stop offset="1" stop-color="#F4A9E8"/>
</linearGradient>
</defs>
</svg>
