<svg width="59" height="23" viewBox="0 0 59 23" fill="none" xmlns="http://www.w3.org/2000/svg">
<g id="R-ICO-014518">
<g id="BRCA2">
<path d="M1.05493 11.502C1.05493 5.97911 5.53208 1.50195 11.0549 1.50195H47.0549C52.5778 1.50195 57.0549 5.97911 57.0549 11.502C57.0549 17.0248 52.5778 21.502 47.0549 21.502H11.0549C5.53208 21.502 1.05493 17.0248 1.05493 11.502Z" fill="url(#paint0_linear_938_24070)"/>
<path d="M44.7633 2.99461C33.5271 2.87638 22.2911 2.52478 11.0549 1.64196C11.0549 1.54859 11.0549 1.45523 11.0549 1.36186C22.2911 0.479043 33.5271 0.127439 44.7633 0.00921416C45.5272 0.00407791 46.291 0.00180697 47.0549 0.0019604C52.7292 -0.110407 57.8677 4.66303 58.2983 10.2093C58.3416 10.6393 58.3597 11.0698 58.3531 11.502C58.4064 17.5481 52.7818 22.6878 47.0555 22.2678C47.0553 22.2678 47.0551 22.2678 47.0549 22.2678C41.437 22.0241 35.8186 21.8486 30.2008 21.9549C24.5827 22.0579 18.9642 22.4664 13.3461 22.6668C12.5824 22.6889 11.8187 22.7064 11.0549 22.7197C5.51433 22.9276 0.40261 18.2139 0.0424272 12.7688C0.00504637 12.3469 -0.00748158 11.925 0.00431824 11.502C0.0169975 5.57869 5.65506 0.710332 11.0549 1.36186C11.0549 1.45523 11.0549 1.54859 11.0549 1.64196C5.80182 2.03432 1.83354 6.77194 2.10544 11.502C2.11728 11.8461 2.14776 12.186 2.19684 12.5234C2.76814 16.8666 6.75926 20.2783 11.0549 20.2843C11.8187 20.2976 12.5824 20.3151 13.3461 20.3372C18.9642 20.5376 24.5827 20.9447 30.2008 21.0477C35.8187 21.154 41.4369 20.9799 47.0549 20.7362C47.0551 20.7362 47.0552 20.7362 47.0554 20.7362C51.982 20.5746 55.9625 16.1087 55.7568 11.502C55.7502 11.1672 55.7253 10.8362 55.6823 10.5072C55.1819 6.265 51.2171 2.91244 47.0549 3.00195C46.291 3.00208 45.5272 2.99978 44.7633 2.99461Z" fill="#8972D4"/>
<text id="BRCA2_2" fill="white" xml:space="preserve" style="white-space: pre" font-family="Arial" font-size="12" font-weight="bold" letter-spacing="0em"><tspan x="8.37134" y="15.6621">BRCA2</tspan></text>
</g>
</g>
<defs>
<linearGradient id="paint0_linear_938_24070" x1="29.0549" y1="1.50195" x2="29.0549" y2="21.502" gradientUnits="userSpaceOnUse">
<stop stop-color="#AA5F21"/>
<stop offset="1" stop-color="#8972D4"/>
</linearGradient>
</defs>
</svg>
