<svg width="130" height="69" viewBox="0 0 130 69" fill="none" xmlns="http://www.w3.org/2000/svg">
<g id="R-ICO-014689">
<g id="BG">
<path d="M128.057 22.8872C126.231 16.9138 132.399 7.80489 123.525 3.35159C123.539 3.35969 123.55 3.36839 123.564 3.37649C123.547 3.36819 123.53 3.35999 123.512 3.35179L123.47 3.35239C109.228 0.00829196 89.8823 2.30539 73.3132 1.85499C53.256 1.94159 32.518 1.13859 11.817 2.11919C11.8654 2.11439 11.9143 2.11249 11.9626 2.10799C11.8819 2.11829 11.8015 2.12909 11.7214 2.14029C11.7541 2.13409 11.7843 2.12529 11.817 2.11919C8.59694 2.58019 6.11824 3.14469 3.71554 5.07189L3.61574 5.07329C-0.644963 16.6263 3.23884 29.3305 1.99624 41.7381C3.57274 50.309 -2.32536 60.7973 6.45824 65.0582C6.44484 65.0501 6.43304 65.0414 6.41954 65.0333C6.43684 65.0417 6.45434 65.05 6.47184 65.0583L6.51674 65.0588C20.7605 68.4002 40.1016 66.1049 56.6703 66.5548C76.7275 66.4681 97.4655 67.2712 118.167 66.2905C118.118 66.2953 118.069 66.2972 118.021 66.3017C118.102 66.2914 118.182 66.2806 118.262 66.2694C118.229 66.2756 118.199 66.2844 118.167 66.2905C118.414 66.2671 118.654 66.2221 118.899 66.19L120.46 66.2057C130.873 63.5738 127.57 57.0766 128.017 51.4857C128.043 41.6156 127.901 33.0521 128.057 22.8872Z" fill="#C4F598"/>
<path d="M11.817 2.11919C32.518 1.13859 53.256 1.94159 73.3132 1.85499C89.8823 2.30539 109.228 0.00829196 123.47 3.35239L123.512 3.35179C123.53 3.35999 123.547 3.36819 123.564 3.37649C123.55 3.36839 123.539 3.35969 123.525 3.35159C132.399 7.80489 126.231 16.9138 128.057 22.8872C127.901 33.0521 128.043 41.6156 128.017 51.4857C127.57 57.0766 130.873 63.5738 120.46 66.2057L118.899 66.19C118.654 66.2221 118.414 66.2671 118.167 66.2905M11.817 2.11919C11.8654 2.11439 11.9143 2.11249 11.9626 2.10799C11.8819 2.11829 11.8015 2.12909 11.7214 2.14029C11.7541 2.13409 11.7843 2.12529 11.817 2.11919ZM11.817 2.11919C8.59694 2.58019 6.11824 3.14469 3.71554 5.07189L3.61574 5.07329C-0.644963 16.6263 3.23884 29.3305 1.99624 41.7381C3.57274 50.309 -2.32536 60.7973 6.45824 65.0582C6.44484 65.0501 6.43304 65.0414 6.41954 65.0333C6.43684 65.0417 6.45434 65.05 6.47184 65.0583L6.51674 65.0588C20.7605 68.4002 40.1016 66.1049 56.6703 66.5548C76.7275 66.4681 97.4655 67.2712 118.167 66.2905M118.167 66.2905C118.118 66.2953 118.069 66.2972 118.021 66.3017C118.102 66.2914 118.182 66.2806 118.262 66.2694C118.229 66.2756 118.199 66.2844 118.167 66.2905Z" stroke="#7FBB47" stroke-width="3" stroke-miterlimit="10"/>
</g>
<g id="R-ICO-013121" opacity="0.6">
<g id="Nucleus">
<mask id="path-3-inside-1_938_25239" fill="white">
<path d="M45.9913 51.358C55.4961 51.358 63.2013 43.6528 63.2013 34.148C63.2013 24.6432 55.4961 16.938 45.9913 16.938C36.4864 16.938 28.7812 24.6432 28.7812 34.148C28.7812 43.6528 36.4864 51.358 45.9913 51.358Z"/>
</mask>
<path d="M45.9913 51.358C55.4961 51.358 63.2013 43.6528 63.2013 34.148C63.2013 24.6432 55.4961 16.938 45.9913 16.938C36.4864 16.938 28.7812 24.6432 28.7812 34.148C28.7812 43.6528 36.4864 51.358 45.9913 51.358Z" fill="url(#paint0_radial_938_25239)" stroke="#5656A5" stroke-width="2.5815" mask="url(#path-3-inside-1_938_25239)"/>
</g>
<g id="R-ICO-013619">
<g id="Nucleolus">
<mask id="path-4-inside-2_938_25239" fill="white">
<path d="M37.8985 44.6373C39.5618 44.6373 40.9102 43.2889 40.9102 41.6255C40.9102 39.9622 39.5618 38.6138 37.8985 38.6138C36.2351 38.6138 34.8867 39.9622 34.8867 41.6255C34.8867 43.2889 36.2351 44.6373 37.8985 44.6373Z"/>
</mask>
<path d="M37.8985 44.6373C39.5618 44.6373 40.9102 43.2889 40.9102 41.6255C40.9102 39.9622 39.5618 38.6138 37.8985 38.6138C36.2351 38.6138 34.8867 39.9622 34.8867 41.6255C34.8867 43.2889 36.2351 44.6373 37.8985 44.6373Z" fill="url(#paint1_radial_938_25239)" stroke="#4B4C96" stroke-width="0.60235" mask="url(#path-4-inside-2_938_25239)"/>
</g>
</g>
</g>
</g>
<defs>
<radialGradient id="paint0_radial_938_25239" cx="0" cy="0" r="1" gradientUnits="userSpaceOnUse" gradientTransform="translate(41.5163 26.982) scale(22.6193)">
<stop stop-color="#AFBAF7"/>
<stop offset="0.3111" stop-color="#6D96CE"/>
<stop offset="0.8032" stop-color="#285FCC"/>
</radialGradient>
<radialGradient id="paint1_radial_938_25239" cx="0" cy="0" r="1" gradientUnits="userSpaceOnUse" gradientTransform="translate(37.9006 41.6332) rotate(-15.5149) scale(3.73793)">
<stop stop-color="#B0B7DC"/>
<stop offset="0.3" stop-color="#B697C6"/>
<stop offset="0.8032" stop-color="#525281"/>
</radialGradient>
</defs>
</svg>
