<svg width="99" height="101" viewBox="0 0 99 101" fill="none" xmlns="http://www.w3.org/2000/svg">
<g id="R-ICO-013350">
<path id="Vector" d="M42.9656 100.586C40.2044 100.586 37.9656 98.3476 37.9656 95.5859V34.3301C37.9656 23.5694 31.4597 14.6953 31.3938 14.6084C29.7244 12.4092 30.1545 9.27247 32.3543 7.60247C34.553 5.93357 37.6907 6.36417 39.3597 8.56337C39.7113 9.02627 47.9657 20.0673 47.9657 34.33V95.5859C47.9656 98.3477 45.7268 100.586 42.9656 100.586Z" fill="#CE5A36"/>
<path id="Vector_2" d="M30.7682 100.586C28.007 100.586 25.7682 98.3476 25.7682 95.5859V50.3184C25.7682 38.8135 16.8024 34.7774 16.7116 34.7383C14.1799 33.6358 13.0207 30.6895 14.1227 28.1582C15.2248 25.625 18.171 24.4687 20.7028 25.5684C21.318 25.837 35.7682 32.333 35.7682 50.3184V95.586C35.7682 98.3477 33.5295 100.586 30.7682 100.586Z" fill="#CE5A36"/>
<path id="Vector_3" d="M18.5711 100.586C15.8099 100.586 13.5711 98.3477 13.5711 95.586V66.3067C13.5711 65.3809 13.3982 64.751 13.0569 64.4327C12.3928 63.8126 10.8469 63.6807 10.5183 63.71C7.76336 63.8877 5.37426 61.8252 5.18136 59.0704C4.98846 56.3165 7.06566 53.9268 9.82006 53.7335C10.4324 53.6925 15.9124 53.422 19.8767 57.1192C21.5622 58.6905 23.571 61.5596 23.571 66.3067V95.586C23.5711 98.3478 21.3323 100.586 18.5711 100.586Z" fill="#CE5A36"/>
<path id="Vector_4" d="M35.9331 17.6279C35.5059 17.6279 35.0718 17.5732 34.6392 17.457L27.1665 15.46C25.8794 15.1162 24.7832 14.2735 24.1201 13.1172C23.1528 11.4307 23.1875 9.3711 24.2129 7.6074C26.0351 4.4727 33.832 0 37.4702 0C37.4751 0 37.4795 0 37.4839 0C39.5239 0.0059 41.3193 1.0176 42.2861 2.7041C42.9458 3.8545 43.1211 5.2197 42.7739 6.5L40.7558 13.9365C40.1518 16.1621 38.1352 17.6279 35.9331 17.6279Z" fill="#CE5A36"/>
<path id="Vector_5" d="M12.2762 37.3975C11.3324 37.3975 10.3992 37.1299 9.59073 36.6153C7.95063 35.5704 7.02483 33.7305 7.11323 31.6924C7.27093 28.0635 12.1083 20.4668 15.329 18.7891C17.1381 17.8477 19.1977 17.9092 20.8368 18.9522C21.9555 19.6651 22.745 20.792 23.0326 22.086L24.7025 29.6075C25.2992 32.296 23.6097 34.961 20.9237 35.5684L13.3788 37.2745C13.014 37.3564 12.6444 37.3975 12.2762 37.3975Z" fill="#CE5A36"/>
<path id="Vector_6" d="M6.07835 69.1826C6.07245 69.1826 6.06715 69.1826 6.06175 69.1826C-0.034452 69.1621 -0.00805201 61.2822 0.000747988 58.6924C0.00664799 56.9746 0.136448 55.3281 0.367448 54.0567C1.31915 48.8174 4.68875 48.2432 6.11405 48.2432C6.11995 48.2432 6.12575 48.2432 6.13165 48.2432C7.45785 48.2481 8.72785 48.7784 9.66245 49.7198L15.0931 55.1866C17.034 57.1397 17.0296 60.296 15.0828 62.2442L9.61555 67.7169C8.67745 68.6553 7.40495 69.1826 6.07835 69.1826Z" fill="#CE5A36"/>
<path id="Vector_7" d="M55.1631 100.586C57.9243 100.586 60.1631 98.3476 60.1631 95.5859V34.3301C60.1631 23.5694 66.669 14.6953 66.7349 14.6084C68.4043 12.4092 67.9742 9.27247 65.7745 7.60247C63.5758 5.93357 60.4381 6.36417 58.7691 8.56337C58.4175 9.02627 50.1631 20.0673 50.1631 34.33V95.5859C50.1631 98.3477 52.4018 100.586 55.1631 100.586Z" fill="#CE5A36"/>
<path id="Vector_8" d="M67.3599 100.586C70.1211 100.586 72.3599 98.3476 72.3599 95.5859V50.3184C72.3599 38.8135 81.3257 34.7774 81.4165 34.7383C83.9482 33.6358 85.1074 30.6895 84.0054 28.1582C82.9033 25.625 79.9571 24.4687 77.4253 25.5684C76.8101 25.837 62.3599 32.333 62.3599 50.3184V95.586C62.3599 98.3477 64.5987 100.586 67.3599 100.586Z" fill="#CE5A36"/>
<path id="Vector_9" d="M79.5575 100.586C82.3187 100.586 84.5575 98.3477 84.5575 95.586V66.3067C84.5575 65.3809 84.7304 64.751 85.0717 64.4327C85.7358 63.8126 87.2817 63.6807 87.6103 63.71C90.3652 63.8877 92.7543 61.8252 92.9472 59.0704C93.1401 56.3165 91.0629 53.9268 88.3085 53.7335C87.6962 53.6925 82.2162 53.422 78.2519 57.1192C76.5664 58.6905 74.5576 61.5596 74.5576 66.3067V95.586C74.5575 98.3478 76.7963 100.586 79.5575 100.586Z" fill="#CE5A36"/>
<path id="Vector_10" d="M62.1954 17.6279C62.6226 17.6279 63.0567 17.5732 63.4893 17.457L70.962 15.4599C72.2491 15.1161 73.3453 14.2734 74.0084 13.1171C74.9757 11.4306 74.941 9.371 73.9156 7.6073C72.0933 4.4727 64.2964 0 60.6583 0C60.6534 0 60.649 0 60.6446 0C58.6046 0.0059 56.8092 1.0176 55.8424 2.7041C55.1827 3.8545 55.0074 5.2197 55.3546 6.5L57.3727 13.9365C57.9766 16.1621 59.9932 17.6279 62.1954 17.6279Z" fill="#CE5A36"/>
<path id="Vector_11" d="M85.8523 37.3975C86.7961 37.3975 87.7293 37.1299 88.5378 36.6153C90.1779 35.5704 91.1037 33.7305 91.0153 31.6924C90.8576 28.0635 86.0202 20.4668 82.7995 18.7891C80.9904 17.8477 78.9308 17.9092 77.2917 18.9522C76.173 19.6651 75.3835 20.792 75.0959 22.086L73.426 29.6075C72.8293 32.296 74.5188 34.961 77.2048 35.5684L84.7497 37.2745C85.1145 37.3564 85.4841 37.3975 85.8523 37.3975Z" fill="#CE5A36"/>
<path id="Vector_12" d="M92.0501 69.1826C92.056 69.1826 92.0613 69.1826 92.0667 69.1826C98.1629 69.1621 98.1365 61.2822 98.1277 58.6924C98.1218 56.9746 97.992 55.3281 97.761 54.0567C96.8093 48.8174 93.4397 48.2432 92.0144 48.2432C92.0085 48.2432 92.0027 48.2432 91.9968 48.2432C90.6706 48.2481 89.4006 48.7784 88.466 49.7198L83.0353 55.1866C81.0944 57.1397 81.0988 60.296 83.0456 62.2442L88.5129 67.7169C89.4509 68.6553 90.7234 69.1826 92.0501 69.1826Z" fill="#CE5A36"/>
</g>
</svg>
