<svg width="98" height="101" viewBox="0 0 98 101" fill="none" xmlns="http://www.w3.org/2000/svg">
<g id="R-ICO-014676">
<path id="BG" d="M0.19043 43.4036C10.5402 53.4318 26.2708 61.8879 26.2708 61.8879C26.2708 61.8879 29.6933 68.1432 39.4679 77.4785C53.5766 90.9533 61.222 96.7104 69.4062 99.1265C73.0332 100.197 76.04 100.19 76.04 100.19C87.7062 100.19 97.1635 90.7331 97.1635 79.0669C97.1635 73.0077 94.6232 68.6307 93.3809 66.8872C88.8666 60.5519 79.5272 51.5746 75.2145 47.5316C68.3156 41.0641 62.1677 32.7092 57.1233 25.3002C52.0789 17.8912 32.9627 0.19043 32.9627 0.19043C16.1795 8.63425 3.89953 24.0548 0.19043 43.4036Z" fill="#F9E8C6"/>
<g id="Wringkles">
<path id="Vector" d="M54.017 26.2114L50.2805 26.0193C49.0474 25.9558 47.8305 26.3219 46.837 27.0551C43.1929 30.1561 39.4843 32.9373 35.6879 35.2835C34.7154 36.0012 33.8514 36.8553 33.1226 37.8195L31.3037 40.2258" stroke="#A87B2A" stroke-width="0.381222" stroke-miterlimit="10" stroke-linecap="round" stroke-linejoin="round"/>
<path id="Vector_2" d="M38.5623 29.7061C36.5797 31.1533 34.599 32.7782 32.5766 34.0281C31.4332 34.872 29.0682 37.6641 28.0156 39.7373" stroke="#A87B2A" stroke-width="0.381222" stroke-miterlimit="10" stroke-linecap="round" stroke-linejoin="round"/>
<path id="Vector_3" d="M53.1488 22.3862C53.1488 22.3862 51.0268 22.0102 49.7041 21.8627C47.5352 21.6208 44.7972 23.3762 44.5869 23.4938C42.1509 24.8566 39.662 26.8267 37.7998 28.9434" stroke="#A87B2A" stroke-width="0.381222" stroke-miterlimit="10" stroke-linecap="round" stroke-linejoin="round"/>
<path id="Vector_4" d="M20.6406 51.8037C20.6406 51.8037 23.397 57.6713 26.271 61.8877" stroke="#A87B2A" stroke-width="0.381222" stroke-miterlimit="10" stroke-linecap="round" stroke-linejoin="round"/>
</g>
<g id="Nail">
<path id="Tip" d="M69.96 91.1209C78.2822 93.4806 95.8605 80.5914 93.0929 72.4941C100.618 80.5875 76.9555 97.6017 69.96 91.1209Z" fill="#FFFAF0"/>
<path id="Nail_2" d="M93.0928 72.4939C93.0242 72.4214 92.9556 72.349 92.8831 72.2766C85.8876 65.4183 79.9367 60.6453 74.9426 58.6973C74.9388 58.6935 72.9936 58.0308 72.0776 57.8722C69.4656 57.4199 67.1584 57.9202 65.1375 59.5093C63.1303 61.0875 61.7643 63.0754 60.9703 65.3185C60.7057 66.0662 60.5046 66.8422 60.3645 67.6409C59.0722 74.9833 62.9226 84.2509 69.8647 91.0367C69.8952 91.0672 69.9257 91.0977 69.96 91.1206C78.2822 93.4804 95.8605 80.5911 93.0928 72.4939Z" fill="url(#paint0_radial_938_24605)"/>
<path id="Lunula" opacity="0.8" d="M69.1866 63.9059C64.2628 67.0125 60.7057 66.0662 60.9704 65.3185C61.7644 63.0755 63.1304 61.0876 65.1375 59.5093C67.1584 57.9202 69.4656 57.4199 72.0777 57.8722C72.9936 58.0307 74.1103 60.7992 69.1866 63.9059Z" fill="#FFFBF3"/>
<path id="OUTLINE" d="M93.0928 72.4939C93.0242 72.4214 92.9556 72.349 92.8831 72.2766C85.8876 65.4183 79.9367 60.6453 74.9426 58.6973C74.9388 58.6935 74.9388 58.6935 74.9388 58.6935C71.1189 57.2029 67.867 57.363 65.1375 59.5093C62.4612 61.6137 60.9249 64.4462 60.3645 67.6409C59.0722 74.9833 62.9226 84.2509 69.8647 91.0367C69.8952 91.0672 69.9257 91.0977 69.96 91.1206C76.9555 97.6014 100.618 80.5873 93.0928 72.4939Z" stroke="#A87B2A" stroke-width="0.381222" stroke-miterlimit="10" stroke-linecap="round" stroke-linejoin="round"/>
</g>
<path id="OUTLINE_2" d="M0.19043 43.4036C10.5402 53.4318 26.2708 61.8879 26.2708 61.8879C26.2708 61.8879 29.6933 68.1432 39.4679 77.4785C53.5766 90.9533 61.222 96.7104 69.4062 99.1265C73.0332 100.197 76.04 100.19 76.04 100.19C87.7062 100.19 97.1635 90.7331 97.1635 79.0669C97.1635 73.0077 94.6232 68.6307 93.3809 66.8872C88.8666 60.5519 79.5272 51.5746 75.2145 47.5316C68.3156 41.0641 62.1677 32.7092 57.1233 25.3002C52.0789 17.8912 32.9627 0.19043 32.9627 0.19043" stroke="#A87B2A" stroke-width="0.381222" stroke-miterlimit="10" stroke-linecap="round" stroke-linejoin="round"/>
</g>
<defs>
<radialGradient id="paint0_radial_938_24605" cx="0" cy="0" r="1" gradientTransform="matrix(21.7555 27.6447 -22.0053 17.3158 65.0989 59.3321)" gradientUnits="userSpaceOnUse">
<stop offset="0.2" stop-color="#FFCE73"/>
<stop offset="0.8" stop-color="#FFE5B5"/>
<stop offset="1" stop-color="#FFD588"/>
</radialGradient>
</defs>
</svg>
