<svg width="43" height="23" viewBox="0 0 43 23" fill="none" xmlns="http://www.w3.org/2000/svg">
<g id="R-ICO-012617">
<g id="DEK">
<path d="M1.18176 11.3801C1.18176 5.85725 5.65892 1.3801 11.1818 1.3801H31.1818C36.7046 1.3801 41.1818 5.85725 41.1818 11.3801C41.1818 16.9029 36.7046 21.3801 31.1818 21.3801H11.1818C5.65892 21.3801 1.18176 16.9029 1.18176 11.3801Z" fill="url(#paint0_linear_938_23266)"/>
<path d="M35.7779 4.21969C34.4306 3.31903 32.8291 2.806 31.1818 2.75622C24.5151 2.57219 17.8484 2.2069 11.1818 1.5201C11.1818 1.42674 11.1818 1.33337 11.1818 1.24001C17.8484 0.553211 24.5151 0.187916 31.1818 0.00389063C33.3432 -0.0544537 35.5425 0.543428 37.3933 1.70911C40.6583 3.73903 42.6803 7.57975 42.5638 11.3801C42.5426 12.4621 42.367 13.5384 42.0429 14.567C40.6474 19.2723 35.8278 22.5066 31.1822 22.146C31.182 22.146 31.1819 22.1459 31.1818 22.1459C26.8971 21.9022 22.6121 21.7267 18.3276 21.8331C15.9457 21.8903 13.5637 22.042 11.1818 22.1998C9.12647 22.3319 6.98208 21.8553 5.14733 20.7751C1.91815 18.889 -0.128569 15.1142 0.00633395 11.3801C0.0318161 10.3175 0.213279 9.2624 0.543371 8.25885C1.9741 3.6672 6.79802 0.636095 11.1818 1.24001C11.1818 1.33337 11.1818 1.42674 11.1818 1.5201C6.92167 1.98968 3.51687 5.14454 2.62425 8.86847C2.4187 9.69189 2.33118 10.5369 2.35711 11.3801C2.43223 14.3371 3.99172 17.1232 6.40794 18.8161C7.77139 19.8025 9.42812 20.4367 11.1818 20.5599C13.5637 20.7174 15.9457 20.8686 18.3276 20.9258C22.6122 21.0322 26.8971 20.8581 31.1818 20.6143C31.1819 20.6143 31.182 20.6143 31.1821 20.6143C35.1801 20.3874 38.588 17.4365 39.5163 13.8267C39.728 13.0282 39.8215 12.2041 39.7997 11.3801C39.743 8.4891 38.1583 5.76873 35.7779 4.21969Z" fill="#A8005E"/>
<text id="DEK_2" fill="white" xml:space="preserve" style="white-space: pre" font-family="Arial" font-size="12" font-weight="bold" letter-spacing="0em"><tspan x="8.50793" y="15.5403">DEK</tspan></text>
</g>
</g>
<defs>
<linearGradient id="paint0_linear_938_23266" x1="21.1818" y1="1.3801" x2="21.1818" y2="21.3801" gradientUnits="userSpaceOnUse">
<stop stop-color="#A8005E"/>
<stop offset="1" stop-color="#6BD1AC"/>
</linearGradient>
</defs>
</svg>
