<svg width="98" height="84" viewBox="0 0 98 84" fill="none" xmlns="http://www.w3.org/2000/svg">
<g id="R-ICO-012519">
<path id="CAVEOLIN" d="M47.9023 83.2323C47.1718 83.2328 46.3447 83.1298 45.4052 82.9003C38.6523 81.2528 39.2197 76.5829 39.5947 73.4931C39.9502 70.5634 39.9101 69.477 38.0635 68.7856C35.9405 67.9941 34.9405 69.0517 33 71.8471C31.3975 74.1552 28.9766 77.6406 24.6689 75.2201C18.3554 71.6742 20.4521 67.0682 21.8388 64.0204C23.2236 60.9769 23.6161 59.5902 21.8945 58.1102C20.125 56.5897 18.6396 57.2708 15.6709 59.1888C13.6523 60.493 11.5713 61.8436 9.2295 61.2806C7.6797 60.908 6.3623 59.7542 5.2022 57.7533C2.6036 53.2714 6.126 50.7108 8.6983 48.8412C11.6602 46.6879 13.4307 45.2133 12.5577 42.1635C11.7931 39.4902 10.3389 39.4438 7.3878 39.5898C5.4718 39.685 3.298 39.7944 1.7306 38.3037C0.5664 37.1957 0 35.4203 0 32.8759C0 25.6059 5.0645 25.3495 8.415 25.1796C10.8838 25.0546 12.0937 24.8857 12.5322 23.8842C14.2011 20.0683 12.3144 18.4443 10.1299 16.5639C8.7158 15.3466 7.2529 14.0883 7.2061 12.2045C7.1739 10.8935 7.8614 9.58582 9.3106 8.20692C11.3379 6.27722 13.1739 5.37632 14.9395 5.44572C17.2393 5.53902 18.7745 7.25872 20.0088 8.64002C21.5645 10.3812 22.1524 10.8373 23.0615 10.4779C25.0556 9.69322 26.2588 8.76602 26.6367 7.72162C27.1572 6.28412 26.1572 4.45942 25.2754 2.84952L24.9258 2.20552C24.5371 1.47412 24.8145 0.56592 25.5459 0.17672C26.2715 -0.21338 27.1846 0.0639197 27.5742 0.79632L27.9062 1.40762C28.9755 3.35882 30.4394 6.03062 29.458 8.74302C28.7646 10.6595 27.0312 12.14 24.1592 13.2699C21.1738 14.4476 19.2071 12.246 17.7715 10.6386C16.7822 9.53122 15.8477 8.48532 14.8174 8.44332C13.9492 8.40672 12.7471 9.07762 11.3789 10.3798C10.3057 11.4013 10.2002 11.9438 10.2051 12.1293C10.2188 12.6825 11.168 13.4999 12.0869 14.2899C14.3769 16.2611 17.8379 19.2401 15.2803 25.0863C14.0518 27.8978 11.0108 28.0516 8.5674 28.1757C4.8076 28.3661 3 28.6454 3 32.8759C3 34.5077 3.2764 35.6327 3.7988 36.1298C4.4336 36.7343 5.7968 36.6669 7.2383 36.5932C9.9209 36.4584 13.9873 36.2553 15.4424 41.3383C16.9365 46.5605 13.1944 49.2812 10.4619 51.2675C7.3418 53.5365 6.7021 54.3593 7.7978 56.2485C8.5136 57.4843 9.2314 58.1958 9.9316 58.3642C11.0117 58.623 12.4863 57.6743 14.0429 56.6689C16.6406 54.9912 20.1982 52.6958 23.8495 55.8354C27.4511 58.9306 25.785 62.5908 24.5692 65.2631C23.1092 68.4716 22.2274 70.4086 26.1376 72.6049C27.8437 73.5629 28.5663 72.9755 30.5351 70.1366C32.249 67.6669 34.5927 64.2836 39.1142 65.976C43.3378 67.5561 42.8954 71.1967 42.5722 73.8544C42.1855 77.0443 41.9511 78.9701 46.1161 79.9862C49.6796 80.8529 50.0722 79.5282 50.9403 76.6254C51.7352 73.9648 52.8251 70.3207 57.785 70.3207C63.3231 70.3207 64.326 74.1708 64.9901 76.7182C65.3583 78.1303 65.6756 79.3495 66.4901 79.8271C67.2508 80.2719 68.6688 80.2402 70.5917 79.7382C72.0956 79.3451 73.0556 78.81 73.371 78.1908C73.8124 77.3212 73.1894 75.7352 72.5868 74.2011C71.4725 71.3661 69.788 67.081 74.66 64.3168C78.992 61.8593 81.7518 64.2455 83.577 65.8236C84.5213 66.6395 85.3514 67.3553 86.0467 67.285C86.5233 67.2464 87.3748 66.8621 88.7244 65.2489C90.5017 63.1239 89.9178 62.4496 87.617 60.4374C85.618 58.6884 82.5955 56.0448 84.7811 51.4804C86.8709 47.1152 90.2245 46.5434 92.4432 46.1655C94.619 45.7944 94.8465 45.7558 94.5702 43.6557C94.3905 42.2831 93.6044 41.9951 90.7968 41.6518C88.2626 41.3417 84.7929 40.9174 83.9872 36.9902C82.9423 31.8964 85.2265 28.5231 89.7705 27.132C90.5625 26.8879 91.4014 27.3346 91.6445 28.1271C91.8867 28.9191 91.4414 29.758 90.6494 30.0001C84.8857 31.7647 86.5419 34.5116 86.9267 36.3876C87.2646 38.0375 88.416 38.3383 91.1611 38.6737C93.6406 38.9769 97.0361 39.3925 97.5449 43.265C98.1963 48.2279 95.0381 48.766 92.9472 49.1224C90.8691 49.4769 88.9062 49.8114 87.4863 52.7757C86.3388 55.1741 87.4189 56.2781 89.5927 58.1795C91.6523 59.9808 94.7646 62.7034 91.0253 67.1736C89.3612 69.1629 87.8564 70.1487 86.288 70.2752C84.3388 70.4358 82.8857 69.1902 81.6161 68.0931C79.6552 66.3983 78.5194 65.5765 76.1405 66.9261C73.7567 68.2782 74.0389 69.6942 75.3788 73.1038C76.1845 75.1546 77.0976 77.4788 76.0448 79.5501C75.3104 80.9954 73.7753 82.0062 71.3514 82.6404C68.5233 83.3811 66.4989 83.3089 64.9735 82.4153C63.0858 81.3093 62.5555 79.2722 62.0868 77.4744C61.3759 74.7449 60.8612 73.3206 57.785 73.3206C55.1805 73.3206 54.6327 74.7483 53.8143 77.4847C53.1094 79.8446 52.0957 83.2323 47.9023 83.2323Z" fill="url(#paint0_radial_938_24307)"/>
</g>
<defs>
<radialGradient id="paint0_radial_938_24307" cx="0" cy="0" r="1" gradientTransform="matrix(44.1342 24.6297 -19.8129 35.5065 47.9806 41.7832)" gradientUnits="userSpaceOnUse">
<stop offset="0.5923" stop-color="#00A0EC"/>
<stop offset="1" stop-color="#CFA01D"/>
</radialGradient>
</defs>
</svg>
