<svg width="61" height="21" viewBox="0 0 61 21" fill="none" xmlns="http://www.w3.org/2000/svg">
<g id="R-ICO-014921">
<g id="R-ICO-013248">
<mask id="path-1-inside-1_949_109881" fill="white">
<path d="M25 20.7821C23.6421 20.7821 22.3423 20.2299 21.3999 19.2518L14.958 12.5687L8.55856 19.0526C6.61906 21.0184 3.45356 21.0389 1.48776 19.0991C-0.477544 17.1595 -0.498538 13.9935 1.44136 12.0282L11.4414 1.89545C12.3877 0.935948 13.6484 0.370047 15.0293 0.407647C16.377 0.415447 17.6646 0.967247 18.6001 1.93795L25 8.57765L31.3999 1.93795C32.3423 0.959947 33.6421 0.407647 35 0.407647C36.3579 0.407647 37.6577 0.959847 38.6001 1.93795L45.0654 8.64544L51.6513 2.05905C53.6034 0.106949 56.7695 0.106949 58.7226 2.05905C60.6752 4.01165 60.6752 7.17775 58.7226 9.13035L48.5356 19.3178C47.5874 20.2665 46.3193 20.7973 44.9541 20.7822C43.6123 20.7695 42.3315 20.2183 41.3999 19.252L35 12.6123L28.6001 19.252C27.6577 20.2299 26.3579 20.7821 25 20.7821Z"/>
</mask>
<path d="M25 20.7821C23.6421 20.7821 22.3423 20.2299 21.3999 19.2518L14.958 12.5687L8.55856 19.0526C6.61906 21.0184 3.45356 21.0389 1.48776 19.0991C-0.477544 17.1595 -0.498538 13.9935 1.44136 12.0282L11.4414 1.89545C12.3877 0.935948 13.6484 0.370047 15.0293 0.407647C16.377 0.415447 17.6646 0.967247 18.6001 1.93795L25 8.57765L31.3999 1.93795C32.3423 0.959947 33.6421 0.407647 35 0.407647C36.3579 0.407647 37.6577 0.959847 38.6001 1.93795L45.0654 8.64544L51.6513 2.05905C53.6034 0.106949 56.7695 0.106949 58.7226 2.05905C60.6752 4.01165 60.6752 7.17775 58.7226 9.13035L48.5356 19.3178C47.5874 20.2665 46.3193 20.7973 44.9541 20.7822C43.6123 20.7695 42.3315 20.2183 41.3999 19.252L35 12.6123L28.6001 19.252C27.6577 20.2299 26.3579 20.7821 25 20.7821Z" fill="#E0A734" stroke="#997D0B" stroke-width="4" stroke-linejoin="round" mask="url(#path-1-inside-1_949_109881)"/>
</g>
</g>
</svg>
