<svg width="44" height="23" viewBox="0 0 44 23" fill="none" xmlns="http://www.w3.org/2000/svg">
<g id="R-ICO-012771">
<g id="PROTEIN">
<path d="M1.14136 11.5C1.14136 5.97715 5.61851 1.5 11.1414 1.5H42.1423V21.5H11.1414C5.61852 21.5 1.14136 17.0228 1.14136 11.5Z" fill="url(#paint0_linear_938_24317)"/>
<path d="M39.4959 2.99266C30.0444 2.87443 20.5929 2.52283 11.1414 1.64001C11.1414 1.54664 11.1414 1.45328 11.1414 1.35991C20.5929 0.477089 30.0444 0.125486 39.4959 0.00726104C40.378 0.000209928 41.2601 -0.00144124 42.1423 0.00116706C42.9898 0.0235858 43.6635 0.652429 43.6411 1.5C43.6297 5.34373 43.5375 9.18759 43.4587 13.0313C43.4099 15.8542 43.3189 18.6771 43.1961 21.5C43.1804 22.096 42.7382 22.5696 42.1423 22.5539C40.2395 22.4712 38.3368 22.3741 36.4341 22.2659C31.7083 22.0221 26.9821 21.8466 22.2564 21.953C18.5515 22.0337 14.8464 22.3022 11.1414 22.511C10.018 22.5691 8.87528 22.4507 7.77467 22.1479C3.16967 20.9198 -0.204599 16.2286 0.00959837 11.5C0.0245031 10.9319 0.0831941 10.3668 0.185204 9.81074C1.04471 4.54912 6.29089 0.721203 11.1414 1.35991C11.1414 1.45328 11.1414 1.54664 11.1414 1.64001C6.42754 2.0936 2.75501 5.92631 2.32859 10.1388C2.27635 10.5904 2.2581 11.0452 2.27303 11.5C2.36004 15.2713 4.95524 18.6936 8.47643 19.9266C9.32222 20.2394 10.22 20.4317 11.1414 20.4889C14.8464 20.6973 18.5515 20.965 22.2564 21.0457C26.9822 21.1521 31.7082 20.9779 36.4341 20.7342C38.3368 20.626 40.2395 20.5289 42.1423 20.4461L41.0884 21.5C40.9657 18.6771 40.8747 15.8542 40.8259 13.0313C40.7471 9.18765 40.6547 5.34375 40.6434 1.5L42.1423 2.99885C41.2601 3.00144 40.378 2.99976 39.4959 2.99266Z" fill="#FFC900"/>
<text id="P" fill="white" xml:space="preserve" style="white-space: pre" font-family="Arial" font-size="12" font-weight="bold" letter-spacing="0em"><tspan x="8.29415" y="15.6602">GLI3</tspan></text>
</g>
</g>
<defs>
<linearGradient id="paint0_linear_938_24317" x1="21.6418" y1="1.5" x2="21.6418" y2="21.5" gradientUnits="userSpaceOnUse">
<stop stop-color="#FFC900"/>
<stop offset="1" stop-color="#008CFF"/>
</linearGradient>
</defs>
</svg>
