<svg width="87" height="23" viewBox="0 0 87 23" fill="none" xmlns="http://www.w3.org/2000/svg">
<g id="R-ICO-014310">
<g id="C1GALT1C1">
<path d="M0.881836 11.5C0.881836 5.97715 5.35899 1.5 10.8818 1.5H74.8818C80.4047 1.5 84.8818 5.97715 84.8818 11.5C84.8818 17.0228 80.4047 21.5 74.8818 21.5H10.8818C5.35899 21.5 0.881836 17.0228 0.881836 11.5Z" fill="url(#paint0_linear_938_23960)"/>
<path d="M58.5901 2.99266C42.6873 2.87443 26.7846 2.52283 10.8818 1.64001C10.8818 1.54664 10.8818 1.45328 10.8818 1.35991C26.7846 0.477089 42.6873 0.125486 58.5901 0.00726104C64.0205 -0.0185381 69.4512 0.0279534 74.8818 0.0908678C77.7585 0.106176 80.603 1.28064 82.6476 3.26855C84.8737 5.38712 86.1475 8.46041 86.0752 11.5C86.1104 17.4802 80.6091 22.6001 74.8826 22.2659C74.8823 22.2659 74.8821 22.2658 74.8818 22.2658C66.9307 22.0221 58.9787 21.8466 51.0277 21.953C43.0763 22.056 35.1243 22.4645 27.1729 22.6648C21.7426 22.776 16.3122 22.7698 10.8818 22.7055C8.05584 22.6896 5.26582 21.5243 3.27607 19.563C1.11236 17.4684 -0.0994458 14.4544 0.00612772 11.5C0.0373394 5.67891 5.48921 0.862878 10.8818 1.35991C10.8818 1.45328 10.8818 1.54664 10.8818 1.64001C5.6215 1.87793 1.46713 6.66763 1.7574 11.5C1.83255 13.9858 2.95679 16.3662 4.7642 17.986C6.43267 19.5019 8.65791 20.3338 10.8818 20.2946C16.3122 20.2302 21.7425 20.224 27.1729 20.3353C35.1243 20.5356 43.0763 20.9428 51.0277 21.0457C58.9789 21.1521 66.9306 20.978 74.8818 20.7342C74.882 20.7342 74.8823 20.7342 74.8825 20.7342C79.8087 20.6581 83.9123 16.1726 83.6886 11.5C83.6466 9.09993 82.5849 6.77934 80.8405 5.18338C79.2269 3.69367 77.0556 2.87048 74.8818 2.90911C69.4512 2.97208 64.0205 3.01865 58.5901 2.99266Z" fill="#D0A688"/>
<text id="C1GALT1C1_2" fill="white" xml:space="preserve" style="white-space: pre" font-family="Arial" font-size="12" font-weight="bold" letter-spacing="0em"><tspan x="8.29395" y="15.6602">C1GALT1C1</tspan></text>
</g>
</g>
<defs>
<linearGradient id="paint0_linear_938_23960" x1="42.8818" y1="1.5" x2="42.8818" y2="21.5" gradientUnits="userSpaceOnUse">
<stop stop-color="white"/>
<stop offset="1" stop-color="#A30370"/>
</linearGradient>
</defs>
</svg>
