<svg width="30" height="24" viewBox="0 0 30 24" fill="none" xmlns="http://www.w3.org/2000/svg">
<g id="R-ICO-012622">
<g id="Dihydrouridine">
<g id="LEFT_CORNER">
<mask id="mask0_938_24844" style="mask-type:luminance" maskUnits="userSpaceOnUse" x="0" y="0" width="11" height="24">
<rect id="MASK" width="10" height="24" transform="matrix(-1 0 0 1 10.0001 0)" fill="white"/>
</mask>
<g mask="url(#mask0_938_24844)">
<g id="CORNER">
<mask id="path-2-outside-1_938_24844" maskUnits="userSpaceOnUse" x="0" y="0" width="12" height="24" fill="black">
<rect fill="white" width="12" height="24"/>
<path d="M2 12C2 12 6.04738 5.90524 8 2H10V22H8C6.04738 18.0948 2 12 2 12Z"/>
</mask>
<path d="M2 12C2 12 6.04738 5.90524 8 2H10V22H8C6.04738 18.0948 2 12 2 12Z" fill="url(#paint0_linear_938_24844)"/>
<path d="M2 12C2 12 6.04738 5.90524 8 2H10V22H8C6.04738 18.0948 2 12 2 12Z" stroke="#A2BF73" stroke-width="4" stroke-miterlimit="3.99933" stroke-linejoin="round" mask="url(#path-2-outside-1_938_24844)"/>
</g>
</g>
</g>
<g id="RIGHT CORNER">
<mask id="mask1_938_24844" style="mask-type:luminance" maskUnits="userSpaceOnUse" x="20" y="0" width="11" height="24">
<rect id="MASK_2" width="10" height="24" transform="matrix(1 -8.74228e-08 -8.74228e-08 -1 20.0001 24)" fill="white"/>
</mask>
<g mask="url(#mask1_938_24844)">
<g id="CORNER_2">
<mask id="path-4-outside-2_938_24844" maskUnits="userSpaceOnUse" x="18.0001" y="0" width="12" height="24" fill="black">
<rect fill="white" x="18.0001" width="12" height="24"/>
<path d="M28.0001 12C28.0001 12 23.9527 5.90524 22.0001 2H20.0001V22H22.0001C23.9527 18.0948 28.0001 12 28.0001 12Z"/>
</mask>
<path d="M28.0001 12C28.0001 12 23.9527 5.90524 22.0001 2H20.0001V22H22.0001C23.9527 18.0948 28.0001 12 28.0001 12Z" fill="url(#paint1_linear_938_24844)"/>
<path d="M28.0001 12C28.0001 12 23.9527 5.90524 22.0001 2H20.0001V22H22.0001C23.9527 18.0948 28.0001 12 28.0001 12Z" stroke="#A2BF73" stroke-width="4" stroke-miterlimit="3.99933" stroke-linejoin="round" mask="url(#path-4-outside-2_938_24844)"/>
</g>
</g>
</g>
<g id="centre">
<mask id="path-5-outside-3_938_24844" maskUnits="userSpaceOnUse" x="8.00012" y="0" width="14" height="24" fill="black">
<rect fill="white" x="8.00012" width="14" height="24"/>
<path d="M8.00012 2H22.0001V22H8.00012V2Z"/>
</mask>
<path d="M8.00012 2H22.0001V22H8.00012V2Z" fill="url(#paint2_linear_938_24844)"/>
<path d="M8.00012 2V4H22.0001V2V0H8.00012V2ZM22.0001 22V20H8.00012V22V24H22.0001V22Z" fill="#A2BF73" mask="url(#path-5-outside-3_938_24844)"/>
<text id="Chemical" fill="white" xml:space="preserve" style="white-space: pre" font-family="Arial" font-size="12" font-weight="bold" letter-spacing="0em"><tspan x="10.6642" y="16.1602">D</tspan></text>
</g>
</g>
</g>
<defs>
<linearGradient id="paint0_linear_938_24844" x1="6" y1="2" x2="6" y2="22" gradientUnits="userSpaceOnUse">
<stop stop-color="#A2BF73"/>
<stop offset="1" stop-color="#002C7A"/>
</linearGradient>
<linearGradient id="paint1_linear_938_24844" x1="24.0001" y1="2" x2="24.0001" y2="22" gradientUnits="userSpaceOnUse">
<stop stop-color="#A2BF73"/>
<stop offset="1" stop-color="#002C7A"/>
</linearGradient>
<linearGradient id="paint2_linear_938_24844" x1="15.0001" y1="2" x2="15.0001" y2="22" gradientUnits="userSpaceOnUse">
<stop stop-color="#A2BF73"/>
<stop offset="1" stop-color="#002C7A"/>
</linearGradient>
</defs>
</svg>
