<svg width="121" height="121" viewBox="0 0 121 121" fill="none" xmlns="http://www.w3.org/2000/svg">
<g id="R-ICO-014883" opacity="0.8">
<g id="Group" opacity="0.8">
<path id="Vector" d="M60.4716 118.799C92.6848 118.799 118.799 92.685 118.799 60.4717C118.799 28.2585 92.6848 2.14453 60.4716 2.14453C28.2584 2.14453 2.1444 28.2585 2.1444 60.4717C2.1444 92.685 28.2584 118.799 60.4716 118.799Z" fill="url(#paint0_radial_938_25839)"/>
<path id="Vector_2" d="M60.4716 120.943C27.1264 120.943 0 93.8168 0 60.4716C0 27.1264 27.1264 0 60.4716 0C93.8168 0 120.943 27.1264 120.943 60.4716C120.943 93.8168 93.8168 120.943 60.4716 120.943ZM60.4716 4.2888C29.4853 4.2888 4.2888 29.4853 4.2888 60.4716C4.2888 91.4579 29.4853 116.654 60.4716 116.654C91.4579 116.654 116.654 91.4579 116.654 60.4716C116.654 29.4853 91.4579 4.2888 60.4716 4.2888Z" fill="#5656A5"/>
</g>
<g id="Genetic data">
<path id="Vector_3" d="M61.778 74.1539C57.838 74.1539 53.5469 70.7663 48.9964 64.0565C48.4094 63.1918 48.6355 62.0153 49.5002 61.429C50.3662 60.8426 51.5414 61.0681 52.1277 61.9328C56.194 67.9281 59.8649 70.8981 62.4634 70.2896C65.5288 69.5751 68.1028 63.7781 69.3481 54.782C70.0854 49.4574 68.8714 45.125 65.7407 41.9062C61.117 37.1525 53.184 35.6725 47.3697 36.3124C45.9857 36.4651 45.6008 37.0583 45.4197 37.5584C44.6042 39.8077 46.6177 45.1065 51.3978 50.0794C52.1215 50.8327 52.0981 52.03 51.3448 52.7543C50.5909 53.4799 49.3936 53.4552 48.6692 52.7013C43.1253 46.9345 40.39 40.3306 41.8614 36.2692C42.6295 34.1492 44.4384 32.8287 46.9544 32.5515C53.6852 31.8087 62.9381 33.5986 68.453 39.2675C72.3832 43.3085 73.9889 48.853 73.0964 55.3017C71.5615 66.3845 68.182 72.8418 63.3224 73.9751C62.8146 74.0936 62.299 74.1527 61.778 74.1539Z" fill="url(#paint1_linear_938_25839)"/>
<path id="Vector_4" d="M70.6035 63.1192C68.8949 63.1192 66.9684 62.8704 64.7461 62.3062C58.9072 60.8231 53.1976 57.4133 48.6694 52.7016C47.9457 51.9489 47.9691 50.751 48.7224 50.0267C49.4751 49.3036 50.673 49.3258 51.398 50.0797C55.4427 54.2883 60.5142 57.3272 65.6775 58.6379C73.4559 60.6138 76.3729 58.0959 80.7841 54.2834C85.4195 50.2756 91.1882 45.2891 104.183 43.5362C107.198 43.1297 111.382 42.8981 112.925 45.573C113.957 47.3622 113.367 49.7083 111.171 52.5452C110.532 53.373 109.343 53.5233 108.517 52.884C107.69 52.2447 107.539 51.056 108.179 50.2294C109.702 48.2609 109.638 47.4769 109.631 47.4276C109.618 47.4559 109.162 47.0796 107.387 47.0796C106.7 47.0796 105.818 47.1338 104.689 47.2859C92.8106 48.8885 87.736 53.2757 83.2589 57.1461C79.6125 60.2983 76.3481 63.1192 70.6035 63.1192Z" fill="url(#paint2_linear_938_25839)"/>
<path id="Vector_5" d="M92.9453 66.8944C92.3152 66.8944 91.6993 66.5803 91.3402 66.0075C90.7853 65.1218 91.0532 63.954 91.9389 63.3985C99.2917 58.7914 105.362 53.8678 108.179 50.2289C108.818 49.403 110.008 49.2514 110.833 49.8908C111.659 50.5301 111.811 51.7182 111.171 52.5448C108.097 56.5175 101.659 61.7737 93.948 66.6062C93.6357 66.8008 93.2884 66.8944 92.9453 66.8944Z" fill="url(#paint3_linear_938_25839)"/>
<path id="Vector_6" d="M80.7852 102.563C76.552 102.563 71.5329 98.6479 65.4211 93.8807C58.4003 88.4039 50.442 82.1955 43.1766 81.954C39.0961 81.8247 35.9673 82.2016 33.8781 83.0898C32.9173 83.4963 31.8061 83.0516 31.3966 82.0883C30.9876 81.1262 31.436 80.0151 32.3975 79.6062C35.0342 78.4852 38.6023 78.0085 43.3023 78.1723C51.7989 78.4544 60.2727 85.0644 67.7487 90.8959C73.2526 95.1889 78.9486 99.6346 81.629 98.6355C83.0875 98.0972 83.8728 95.6175 84.2744 93.633C86.1049 84.5975 80.8831 82.257 76.6875 80.376C74.5774 79.4299 72.5843 78.5356 72.5442 76.4945C72.5017 74.3289 74.5971 72.6561 81.8877 69.0357C85.2629 67.3604 88.6443 65.4634 91.9389 63.3988C92.8264 62.8469 93.9924 63.113 94.5467 63.9975C95.1016 64.8832 94.8337 66.051 93.948 66.6065C90.5487 68.7364 87.0571 70.6937 83.5704 72.4257C79.4259 74.4829 77.6102 75.6359 76.8169 76.2604C77.2456 76.4784 77.7876 76.7211 78.2354 76.9219C82.492 78.83 90.4146 82.3826 87.9835 94.3844C87.1089 98.702 85.4601 101.254 82.9422 102.186C82.2462 102.442 81.528 102.563 80.7852 102.563Z" fill="url(#paint4_linear_938_25839)"/>
<path id="Vector_7" d="M60.3121 102.24C58.8197 102.24 57.2947 101.577 55.7635 100.259C54.9708 99.5778 54.8815 98.3841 55.5627 97.5908C56.2464 96.7987 57.4394 96.7088 58.2309 97.3912C59.1856 98.2116 59.977 98.5577 60.5886 98.4247C61.5476 98.2104 62.6975 96.7543 63.7427 94.4274C64.3851 92.996 64.6259 92.1411 64.7128 91.6632C63.0424 91.9514 59.1769 93.9002 56.263 95.3686C47.5792 99.7465 37.7362 104.708 33.1488 99.1343C29.9356 95.2331 26.3466 89.5974 27.494 84.9053C27.8943 83.2682 29.0701 81.0213 32.3973 79.6059C33.3587 79.1982 34.4699 79.6453 34.8788 80.6074C35.2877 81.5695 34.8394 82.6806 33.8779 83.0896C32.343 83.7412 31.4573 84.6294 31.1697 85.8046C30.5735 88.2424 32.3597 92.2237 36.0693 96.7298C38.7368 99.9621 48.2583 95.1666 54.5592 91.9897C61.2653 88.6095 65.3125 86.5696 67.5717 88.729C69.3462 90.4252 68.3767 93.3459 67.1941 95.9771C65.5644 99.6061 63.6729 101.614 61.4112 102.118C61.0475 102.199 60.6804 102.24 60.3121 102.24Z" fill="#BA1149"/>
<path id="Vector_8" d="M56.9966 100.717C56.5593 100.717 56.1201 100.567 55.7635 100.259C52.6691 97.5969 49.5982 92.3862 45.939 85.3808C45.259 84.0787 44.576 82.7508 43.8917 81.4192C41.6842 77.1262 39.4016 72.6867 37.1862 69.1156C34.6474 65.0247 30.9513 63.0291 26.7901 63.4861C22.7688 63.9296 18.9026 66.6532 17.7965 69.8227C17.1787 71.5941 17.5637 73.1856 18.9421 74.5542C19.5944 75.2009 20.0643 75.5865 20.3852 75.8168C20.4548 75.4522 20.5244 74.8941 20.5589 74.0553C20.6014 73.0119 21.505 72.1915 22.5261 72.242C23.5707 72.2851 24.3825 73.1659 24.3394 74.2105C24.2458 76.5054 23.8861 78.9543 21.9299 79.723C19.9417 80.5065 17.9572 78.9075 16.277 77.2396C13.8805 74.8622 13.1321 71.705 14.2235 68.5761C15.8033 64.0491 20.9136 60.3265 26.375 59.7241C31.9879 59.1131 37.1 61.801 40.4013 67.1201C42.6974 70.8205 45.0158 75.3291 47.2571 79.6898C47.9377 81.0128 48.617 82.3346 49.2933 83.6292C52.2848 89.356 55.4383 94.988 58.2309 97.3913C59.0236 98.0725 59.1129 99.2674 58.4317 100.059C58.0572 100.494 57.5281 100.717 56.9966 100.717Z" fill="url(#paint5_linear_938_25839)"/>
<path id="Vector_9" d="M22.4503 76.0251C22.4244 76.0251 22.3979 76.0251 22.3721 76.0239C21.3275 75.9808 20.5157 75.1 20.5588 74.0554C20.6617 71.5363 20.4116 67.6806 20.095 62.8013C19.6595 56.0915 19.1175 47.7402 19.1175 37.7821C19.1175 29.2048 21.2313 23.6344 25.3999 21.2256C28.9285 19.1863 33.7117 19.6994 38.87 22.6718C39.7754 23.1941 40.0864 24.3508 39.5648 25.2562C39.0425 26.1616 37.8852 26.4726 36.9804 25.951C34.7009 24.6366 30.4104 22.6983 27.2932 24.5024C24.4206 26.1623 22.9017 30.7546 22.9017 37.7822C22.9017 47.6178 23.4394 55.9007 23.8712 62.5563C24.1952 67.5477 24.4508 71.4908 24.3393 74.2107C24.2981 75.2281 23.4598 76.0251 22.4503 76.0251Z" fill="#BA1149"/>
<path id="Vector_10" d="M58.2574 49.2117C57.9316 49.2117 57.6076 49.184 57.2836 49.1267C54.868 48.6974 52.9771 46.6858 51.6646 43.148C49.2379 36.6063 43.2 29.5343 36.9805 25.9509C36.0751 25.4292 35.7641 24.2719 36.2857 23.3665C36.8074 22.4605 37.9641 22.1507 38.8701 22.6717C45.7863 26.6573 52.5065 34.5361 55.2123 41.8317C55.7709 43.3376 56.6985 45.1792 57.9451 45.4003C60.7537 45.8967 65.92 39.8718 70.0571 35.0258C71.4127 33.4386 72.814 31.7972 74.1677 30.3251C74.8742 29.5558 76.0715 29.5047 76.8408 30.213C77.6101 30.9201 77.6606 32.1168 76.9529 32.8861C75.6465 34.307 74.2681 35.9213 72.9353 37.4827C67.7955 43.5034 62.9223 49.2117 58.2574 49.2117Z" fill="url(#paint6_linear_938_25839)"/>
<path id="Vector_11" d="M100.776 76.025C100.653 76.025 100.528 76.0139 100.403 75.9879C99.3785 75.7835 98.714 74.7869 98.9191 73.7621C99.5449 70.6332 101.33 68.5576 102.633 67.0424C103.381 66.1727 104.155 65.2735 104.081 64.8288C104.008 64.3878 103.293 63.0414 98.2453 60.0727C89.4586 54.9039 85.6073 51.1536 84.9507 47.1286C84.3828 43.648 86.477 40.7618 88.1011 38.8938C90.667 35.9429 90.5475 31.605 88.9652 29.2787C87.6921 27.4038 85.6608 26.8908 83.098 27.798C81.1529 28.4841 78.6597 31.0303 76.953 32.8861C76.2472 33.6554 75.0492 33.7065 74.2799 32.9982C73.5106 32.2911 73.4601 31.0944 74.1678 30.3251C77.3576 26.8556 79.7234 24.9752 81.8385 24.2294C86.0157 22.7549 89.8479 23.8475 92.0948 27.1507C94.859 31.2151 94.3589 37.4643 90.9566 41.3772C89.1458 43.4596 88.4449 45.0456 88.6857 46.5195C89.1212 49.1901 92.7686 52.46 100.165 56.8109C105.219 59.7846 107.436 61.928 107.814 64.2106C108.178 66.3996 106.817 67.9813 105.502 69.51C104.302 70.9057 103.061 72.3482 102.629 74.5039C102.45 75.4029 101.66 76.025 100.776 76.025Z" fill="url(#paint7_linear_938_25839)"/>
</g>
</g>
<defs>
<radialGradient id="paint0_radial_938_25839" cx="0" cy="0" r="1" gradientUnits="userSpaceOnUse" gradientTransform="translate(45.3052 36.1849) scale(76.66)">
<stop stop-color="#AFBAF7"/>
<stop offset="0.3111" stop-color="#6D96CE"/>
<stop offset="0.8032" stop-color="#285FCC"/>
</radialGradient>
<linearGradient id="paint1_linear_938_25839" x1="41.4678" y1="53.2731" x2="73.3368" y2="53.2731" gradientUnits="userSpaceOnUse">
<stop stop-color="#E36023"/>
<stop offset="0.0795" stop-color="#D7591F"/>
<stop offset="0.3452" stop-color="#B34613"/>
<stop offset="0.595" stop-color="#9A380A"/>
<stop offset="0.8204" stop-color="#8A2F05"/>
<stop offset="1" stop-color="#852C03"/>
</linearGradient>
<linearGradient id="paint2_linear_938_25839" x1="48.1416" y1="53.2041" x2="113.418" y2="53.2041" gradientUnits="userSpaceOnUse">
<stop stop-color="#8776E3"/>
<stop offset="0.9995" stop-color="#170385"/>
</linearGradient>
<linearGradient id="paint3_linear_938_25839" x1="91.0511" y1="58.1947" x2="111.567" y2="58.1947" gradientUnits="userSpaceOnUse">
<stop stop-color="#E36023"/>
<stop offset="0.0795" stop-color="#D7591F"/>
<stop offset="0.3452" stop-color="#B34613"/>
<stop offset="0.595" stop-color="#9A380A"/>
<stop offset="0.8204" stop-color="#8A2F05"/>
<stop offset="1" stop-color="#852C03"/>
</linearGradient>
<linearGradient id="paint4_linear_938_25839" x1="31.2452" y1="82.8371" x2="94.8358" y2="82.8371" gradientUnits="userSpaceOnUse">
<stop stop-color="#8776E3"/>
<stop offset="0.9995" stop-color="#170385"/>
</linearGradient>
<linearGradient id="paint5_linear_938_25839" x1="13.7328" y1="80.1778" x2="58.8893" y2="80.1778" gradientUnits="userSpaceOnUse">
<stop stop-color="#8776E3"/>
<stop offset="0.9995" stop-color="#170385"/>
</linearGradient>
<linearGradient id="paint6_linear_938_25839" x1="36.0327" y1="35.8153" x2="77.4525" y2="35.8153" gradientUnits="userSpaceOnUse">
<stop stop-color="#8776E3"/>
<stop offset="0.9995" stop-color="#170385"/>
</linearGradient>
<linearGradient id="paint7_linear_938_25839" x1="73.6683" y1="49.8052" x2="107.874" y2="49.8052" gradientUnits="userSpaceOnUse">
<stop stop-color="#8776E3"/>
<stop offset="0.9995" stop-color="#170385"/>
</linearGradient>
</defs>
</svg>
