<svg width="139" height="63" viewBox="0 0 139 63" fill="none" xmlns="http://www.w3.org/2000/svg">
<g id="R-ICO-014627">
<path id="BG" d="M111.59 9.265C100.945 5.377 82.9767 0 68.6771 0C40.5936 0 20.2779 8.8805 13.1564 21.2182C12.6131 22.1594 11.7066 22.8248 10.6427 23.0467C4.3148 24.3669 0 26.9941 0 30.0211C0 32.9032 3.9122 35.4226 9.7487 36.7967C10.8055 37.0455 11.7416 37.6969 12.2553 38.6535C15.653 44.9804 23.432 50.149 34.0166 54.3552C44.9964 58.7184 58.9906 62.5672 74.2316 62.5672C89.1647 62.5672 102.901 56.9715 113.777 52.766C128.594 47.037 138.104 41.2471 138.104 31.2837C138.104 21.0098 127.205 14.9682 111.59 9.265Z" fill="url(#paint0_radial_938_25170)"/>
<path id="Vector" d="M10.8816 29.8303C10.8816 25.9178 4.3522 24.7465 2.095 26.5C0.7544 27.5413 0 28.7554 0 30.0211C0 31.6606 1.2659 33.179 3.4319 34.4434C4.8013 35.2427 10.8816 32.3864 10.8816 29.8303Z" fill="#BA3524"/>
<g id="Group">
<path id="Vector_2" d="M2.1042 26.4941C2.1014 26.4962 2.0978 26.4977 2.095 26.4999C0.7545 27.5412 0 28.7553 0 30.021C0 31.3315 0.8198 32.5622 2.2507 33.65C3.0511 32.748 3.5471 31.5108 3.5471 30.1432C3.5471 28.6976 2.9866 27.4061 2.1042 26.4941Z" fill="url(#paint1_radial_938_25170)"/>
<path id="Vector_3" d="M10.8816 29.8302C10.8816 28.1605 9.689 26.9948 8.1503 26.3379C7.6115 27.1619 7.2842 28.1676 7.2842 29.2645C7.2842 30.651 7.7931 31.9041 8.6131 32.8091C9.8853 31.9396 10.8816 30.8623 10.8816 29.8302Z" fill="url(#paint2_radial_938_25170)"/>
</g>
<path id="Vector_4" d="M84.5936 55.7332C110.684 55.7332 131.834 44.9233 131.834 31.5885C131.834 18.2538 110.684 7.44385 84.5936 7.44385C58.5036 7.44385 37.3535 18.2538 37.3535 31.5885C37.3535 44.9233 58.5036 55.7332 84.5936 55.7332Z" fill="url(#paint3_radial_938_25170)"/>
<g id="Group_2">
<path id="Vector_5" d="M23.8788 32.8658C21.8934 32.8658 20.2782 31.2506 20.2782 29.2647C20.2782 27.2793 21.8934 25.6641 23.8788 25.6641C25.8646 25.6641 27.4799 27.2793 27.4799 29.2647C27.4798 31.2506 25.8646 32.8658 23.8788 32.8658Z" fill="#BA3524"/>
<path id="Vector_6" d="M23.879 26.6641C25.313 26.6641 26.4797 27.8308 26.4797 29.2648C26.4797 30.6988 25.313 31.8655 23.879 31.8655C22.445 31.8655 21.2783 30.6988 21.2783 29.2648C21.2783 27.8308 22.445 26.6641 23.879 26.6641ZM23.879 24.6641C21.3381 24.6641 19.2783 26.7239 19.2783 29.2648C19.2783 31.8057 21.3381 33.8655 23.879 33.8655C26.4199 33.8655 28.4797 31.8057 28.4797 29.2648C28.4797 26.7239 26.4199 24.6641 23.879 24.6641Z" fill="#991F16"/>
</g>
<path id="Vector_7" d="M17.0903 31.2855C18.2063 31.2855 19.111 30.3808 19.111 29.2648C19.111 28.1488 18.2063 27.2441 17.0903 27.2441C15.9743 27.2441 15.0696 28.1488 15.0696 29.2648C15.0696 30.3808 15.9743 31.2855 17.0903 31.2855Z" fill="#BA3524"/>
<path id="Vector_8" d="M78.7828 9.05333C76.5894 9.94323 74.6331 12.3335 73.4585 14.2536C72.4215 15.9489 69.9061 17.5269 67.82 18.138C66.4485 18.5398 65.2125 18.4332 64.5759 19.9696C64.2729 20.7009 64.5223 21.3417 64.1146 21.7531C63.9497 21.9195 63.2246 21.8705 62.9633 22.0385C61.2217 23.1581 61.4971 27.5771 62.2696 29.1996C61.3659 29.5087 57.9962 31.512 56.9345 30.6449C56.4238 30.2278 56.1038 27.4882 56.0071 26.7728C55.7303 24.7236 57.3214 22.475 58.3518 20.6164C59.875 17.8688 62.3351 17.88 64.404 15.9845C64.9245 15.5076 65.0141 14.9523 65.6526 14.454C66.8814 13.4952 68.9072 13.6821 69.9639 12.585C70.2279 12.3109 70.9405 11.6282 70.393 11.198C69.9128 10.8207 69.7837 11.4913 69.4509 11.5075C67.8299 11.5864 65.9982 11.7325 64.5445 12.5104C63.5564 13.0392 63.1611 13.8051 62.4967 14.6109C61.5554 15.7526 60.1666 16.3731 58.8264 16.9905C57.2707 17.7073 55.8563 18.1534 55.4573 20.0727C55.2197 21.2156 55.529 22.208 54.9565 23.3606C54.5496 24.1798 53.5991 24.7256 53.2575 25.5381C52.6569 26.9666 53.3632 28.8843 53.7826 30.2452C52.6607 30.0336 51.5176 29.8446 50.3759 29.7952C49.7276 29.7672 48.1284 30.1515 47.6274 29.8814C47.1513 29.6247 46.8391 27.2052 46.6954 26.1984C46.5994 25.5254 46.4161 24.2681 46.7821 23.6076C47.4801 22.3478 46.7796 23.291 47.7663 22.9921C49.299 22.5279 50.7614 22.6127 50.4308 20.3714C50.185 18.705 49.6097 18.3661 51.813 17.7047C53.2779 17.2649 54.3254 17.4554 55.4615 16.4625C56.1468 15.8635 58.7749 13.8263 58.9513 13.1087C59.306 11.6654 56.1785 13.4902 55.6068 13.915C54.9642 14.3925 54.4971 15.2127 53.8815 15.6375C53.2408 16.0795 52.1568 16.1938 51.4418 16.4479C50.6367 16.734 49.7044 16.9748 49.0147 17.5014C48.6224 17.801 48.2562 18.1223 48.035 18.5718C47.8548 18.9381 47.9526 19.9101 47.7715 20.1074C47.3754 20.5387 46.1479 20.3544 45.5035 21.098C44.2581 22.5351 44.542 25.4103 44.4433 27.1626C44.3979 27.9688 44.5761 29.6602 44.1162 30.2622C43.5158 31.0481 39.6448 30.398 41.5597 31.7662C42.2425 32.2541 43.6315 31.5262 44.2099 31.9077C44.5593 32.1381 44.8595 33.4558 45.2708 33.8254C45.8588 34.3538 46.6063 34.3787 47.2149 34.8344C48.1312 35.5206 48.3063 36.6484 48.6223 37.6878C49.2589 39.7821 49.4225 42.3883 50.8928 44.0643C52.5798 45.9873 54.7729 46.5561 57.0462 47.4563C58.5728 48.0608 59.1894 49.2213 60.8935 49.563C61.1257 49.6096 63.702 50.17 63.844 49.9288C64.0711 49.5426 60.524 48.5889 60.3439 48.4323C59.1601 47.403 58.8186 46.0059 57.3382 44.9952C56.4914 44.4171 55.5446 43.9091 54.5696 43.5887C53.8794 43.3619 52.634 43.3604 52.0745 42.8438C51.3314 42.1576 51.6093 41.6059 51.6725 40.703C51.7691 39.324 51.7378 38.2249 51.1905 36.9304C50.7514 35.8916 50.0753 34.8281 49.3814 33.9443C49.0453 33.5163 47.7667 32.7268 47.5892 32.326C47.0725 31.1595 47.5584 30.9845 49.1477 31.0352C50.3069 31.0722 54.2777 32.0005 54.3867 32.9596C54.4292 33.333 53.821 33.8816 53.7041 34.234C53.3943 35.1677 53.4198 35.7297 53.8011 36.6664C54.3856 38.1023 55.2249 40.1805 56.2964 41.3269C57.9241 43.0684 59.5352 41.6146 61.5193 41.6782C63.266 41.7342 62.3983 42.4967 63.3823 43.8776C64.6936 45.7178 66.5578 46.1506 68.5861 46.6896C69.673 46.9785 70.4796 47.3439 71.3078 48.1414C71.539 48.3641 72.3598 49.8459 72.5784 49.8896C73.8338 50.1405 70.7244 46.5042 69.9681 46.0976C68.3371 45.2207 66.8292 45.1618 65.541 43.5828C64.4684 42.2681 64.7859 40.5682 62.9261 40.2483C61.7828 40.0517 60.2877 40.7821 59.1809 40.2421C58.224 39.7752 58.8327 39.9772 58.0958 39.1758C56.9291 37.907 55.1582 36.5199 55.8777 34.8827C56.6787 33.0599 57.5527 32.4578 59.5193 32.1226C60.5428 31.9481 61.5814 31.8564 62.6023 31.6678C61.9322 33.0006 62.7321 33.8701 63.501 35.0059C64.7582 36.863 64.8675 39.8278 66.8361 40.9786C68.1172 41.7274 69.8184 41.4932 71.0365 42.3309C72.038 43.0197 72.0578 44.0676 72.7098 44.931C74.0634 46.7233 76.8111 46.8925 77.9788 48.955C78.7803 50.3708 79.9322 52.5599 81.8974 52.842C83.4538 53.0654 81.531 51.7315 80.8602 51.2026C78.8694 49.6331 79.3278 47.4331 77.8162 45.4373C76.6543 43.9032 75.4524 43.8397 74.0534 42.9812C73.0499 42.3654 72.4372 41.0297 71.4866 40.2949C70.3338 39.4038 69.0235 38.9999 67.7233 38.408C66.7831 37.98 66.8577 38.099 66.4573 37.4019C66.0421 36.6791 64.9371 33.7657 64.9577 33.0955C65.0292 30.768 67.1337 29.9609 69.2283 29.914C70.9423 29.8756 71.7911 30.1579 72.4105 31.5223C72.7599 32.292 72.6792 33.4571 73.1178 34.1821C74.3373 36.198 77.1962 35.3545 77.9751 37.6706C78.8385 40.2377 77.3824 44.0749 80.3559 45.5289C81.482 46.0796 82.9953 45.8417 83.9998 46.6895C84.6446 47.2337 84.4939 47.8735 84.9223 48.498C85.5202 49.3695 85.6115 48.9065 86.5239 49.4438C87.5772 50.0641 88.0371 52.4138 89.11 52.7356C90.9066 53.2744 89.177 49.7174 88.2301 49.1231C87.787 48.845 86.3276 48.7089 86.0804 48.3458C85.4487 47.418 86.2272 46.3366 85.1191 45.2825C83.993 44.2113 82.1688 44.1487 80.9927 43.226C79.6851 42.2001 80.0779 40.8176 80.0989 39.2241C80.1227 37.4145 79.8229 36.5732 78.2917 35.5285C77.3192 34.8651 76.1016 33.828 75.2338 33.2908C75.2745 33.3207 75.2929 33.3594 75.2889 33.407C75.3308 32.6585 75.1849 31.941 74.9627 31.2313C76.6688 31.464 78.3069 31.6662 79.9841 32.0745C80.9685 32.3142 82.6677 32.3645 83.3072 33.0808C83.6227 33.4342 83.4868 34.757 83.7532 35.2863C84.4389 36.6485 85.4094 36.8091 86.6348 37.4314C88.4461 38.3514 89.6234 39.8908 90.299 41.8237C90.9571 43.7066 91.1523 45.7807 92.7627 47.185C94.3194 48.5425 95.9151 47.4434 97.0879 49.5029C97.3226 49.915 97.4431 51.3095 98.0666 51.2665C98.8091 51.2153 97.6872 49.3765 97.6425 49.2685C97.2596 48.3438 97.0502 47.3235 96.2812 46.6133C95.4341 45.831 94.7852 46.1545 93.9161 45.7454C92.1121 44.8961 92.209 42.9811 92.2026 41.2512C92.1926 38.5393 91.1122 36.9406 88.4915 36.2305C86.6254 35.7249 85.4959 35.5726 85.7342 33.3371C86.004 30.8064 89.5945 29.189 91.6392 30.8694C92.5501 31.618 93.2371 33.966 93.8168 34.981C94.363 35.9373 95.1476 36.784 95.5776 37.7818C96.06 38.9012 95.8417 39.9546 96.8309 40.8014C97.712 41.5557 98.3527 41.6124 99.1114 42.6304C99.8673 43.6446 100.375 44.8513 101.127 45.8518C102.669 47.903 105.016 46.8514 107.241 47.6066C107.287 47.6224 108.572 48.5708 108.766 48.2934C109.407 47.3763 105.775 46.7262 105.472 46.67C101.721 45.9755 102.908 45.579 101.339 42.4001C100.792 41.2928 100.118 40.2631 99.0647 39.5918C98.9425 39.514 97.9796 39.3921 97.8703 39.2783C97.1618 38.54 97.1813 36.9962 96.874 36.0458C96.3252 34.3485 95.5277 32.7559 94.7464 31.1572C96.7578 31.4651 98.8448 31.8908 100.833 32.2685C102.027 32.4954 101.988 32.0349 102.492 33.5762C102.685 34.166 102.682 34.591 102.749 35.1815C102.939 36.8632 103.065 39.0766 104.795 39.9621C105.825 40.4893 106.977 40.1159 108.038 40.767C109.812 41.8556 109.502 43.2465 110.497 44.765C111.18 45.8088 114.656 47.1556 115.461 45.539C115.996 44.4649 112.947 44.2337 112.238 43.5416C110.757 42.0952 110.244 40.6476 108.255 39.5365C105.867 38.2026 104.793 37.368 104.238 34.4721C103.995 33.2081 103.318 31.9792 104.044 31.1819C104.625 30.5444 106.328 30.1316 107.166 29.9648C108.767 29.6462 109.231 29.6049 109.784 31.1035C110.414 32.8104 110.653 34.6615 111.391 36.333C112.341 38.4848 113.901 38.6143 115.586 39.9546C116.506 40.6872 117.023 41.7614 118.185 42.234C118.896 42.5228 119.461 42.4133 120.09 42.4627C120.071 42.4613 121.743 42.5238 121.529 42.6256C122.545 42.1415 120.882 41.3155 120.037 41.1463C118.756 40.8897 118.269 41.6322 117.606 40.5932C117.467 40.3749 117.645 39.5765 117.516 39.2733C116.601 37.1295 113.849 38.2837 112.671 36.7815C112.05 35.99 112.283 34.5638 112.002 33.6476C111.649 32.4985 110.863 31.5077 110.975 30.2536C113.196 31.3862 115.842 32.2846 118.339 32.6306C120.486 32.9281 119.209 33.2594 120.085 34.7959C120.624 35.7413 121.636 35.6282 122.487 35.9761C123.102 36.2274 123.157 37.126 124.121 36.935C124.735 36.8132 123.266 36.0265 123.149 35.9111C122.716 35.4834 122.746 34.8467 122.108 34.5309C121.905 34.4307 120.845 34.4816 120.816 34.4454C119.946 33.3858 121.385 32.5183 122.361 32.2123C123.748 31.7769 124.994 31.1612 126.484 31.1954C128.002 31.2303 129.424 31.8588 130.923 32.0064C131.73 32.0858 137.556 32.8735 136.697 30.9988C136.586 30.7573 133.906 30.2079 133.678 30.1338C132.43 29.7286 131.265 29.0993 129.955 28.9501C128.582 28.7937 127.191 29.0859 125.835 29.2475C124.132 29.4504 122.345 29.3084 120.671 29.6968C120.282 27.8038 120.651 26.5426 120.766 24.6699C120.81 23.9434 122.058 21.6147 121.54 21.6484C120.169 21.7376 119.574 24.653 119.044 25.5592C118.063 27.24 117.88 28.0874 118.68 30.1448C116.346 30.4015 115.074 29.1017 112.983 28.5763C111.734 28.2626 110.904 28.8179 110.984 27.3265C111.03 26.4711 111.622 26.2851 112.08 25.7444C113.042 24.6086 112.949 23.6421 113.549 22.3772C113.721 22.0154 116.114 19.7897 115.449 19.3301C114.947 18.9832 112.759 21.104 112.554 21.4956C112.008 22.534 111.34 23.6179 110.864 24.6869C110.421 25.6833 110.242 27.5665 109.285 28.2448C108.797 28.5913 107.116 28.4206 106.41 28.5464C105.276 28.7485 104.138 29.051 103.027 29.3525C103.053 27.592 103.669 25.969 103.575 24.1825C103.486 22.5147 103.379 21.8294 104.558 20.623C105.346 19.8161 106.293 19.2886 106.988 18.3462C107.474 17.6877 109.037 14.8401 107.307 14.9783C106.093 15.0752 103.779 18.913 103.008 19.9962C101.189 22.5502 99.9524 26.7966 100.744 29.8761C98.763 29.9224 95.6211 30.1765 93.895 28.8846C91.9101 27.3991 93.3462 26.6011 94.5131 25.2481C96.2403 23.2455 96.55 21.1053 96.7952 18.5473C97.0037 16.3719 98.0018 16.3657 99.4671 14.8734C100.199 14.1277 100.949 13.0935 99.4935 12.9117C97.6136 12.6769 96.262 15.7935 96.0196 17.1661C95.5724 19.6986 94.8481 21.4069 92.9903 23.2998C91.6515 24.6639 89.6946 25.7187 90.2948 27.9528C88.7494 27.8098 85.9985 29.954 84.8253 29.5162C84.4398 29.3723 83.8798 27.1185 83.985 26.7583C84.1838 26.0777 85.8269 25.2751 86.2957 24.7504C87.2578 23.6734 87.2075 22.6798 87.6222 21.4327C88.3198 19.3348 89.7624 16.6371 90.9753 14.9569C91.5351 14.1815 92.3413 13.4261 93.0557 12.7604C93.1194 12.701 94.8062 11.3231 93.9979 11.3231C93.4966 11.3231 91.48 12.5678 90.844 12.8579C89.1838 13.6152 89.009 14.4742 88.6593 16.0582C88.02 18.9547 84.9518 20.5297 83.8623 23.2106C83.0237 25.2741 82.2818 26.2938 82.3458 28.542C82.403 30.5487 81.3508 30.3859 79.2501 30.1517C78.1302 30.0269 74.9864 29.3276 74.3892 28.4025C73.8989 27.643 73.8465 24.6269 74.3676 23.8689C74.8444 23.1753 76.0335 23.0949 76.6815 22.597C77.3751 22.0641 77.8659 21.3052 78.1474 20.4782C78.5286 19.3582 78.4037 18.2806 79.4547 17.5309C80.9279 16.4801 82.4076 15.977 83.548 14.3499C84.443 13.073 85.3127 12.389 86.5252 11.2369C86.6765 11.0931 87.7022 10.4003 87.6694 10.0842C87.5497 8.92833 83.0353 11.0976 82.5084 12.1984C81.9372 13.3919 82.4692 13.9094 81.0638 14.7642C79.0818 15.9697 77.4878 15.6313 77.1327 18.4466C76.981 19.6493 77.2426 19.5655 76.7041 20.2899C76.0432 21.1789 74.6327 22.0109 73.8443 22.8827C72.5067 24.3619 72.2325 26.102 72.1489 28.1189C71.0341 27.9981 69.9541 28.1534 68.845 28.25C68.0447 28.3197 65.9172 28.8665 65.2226 28.537C64.1639 28.0347 62.7463 24.7712 63.8527 23.8189C64.6463 23.1358 65.8269 24.3678 66.6037 22.9005C67.5876 21.0422 65.8219 20.3769 68.2325 19.2793C70.1132 18.4229 72.0706 18.5831 73.7 17.1058C74.8122 16.0974 74.6032 15.1047 75.3151 14.0147C76.0322 12.9167 77.8117 12.1257 78.7514 11.0887C79.1382 10.6618 81.122 9.03223 81.1139 8.87893C81.0827 8.29693 79.0316 8.96413 78.7828 9.05333Z" fill="url(#paint4_radial_938_25170)"/>
<g id="Group_3">
<path id="Vector_9" d="M34.9076 38.4772C36.0691 38.4772 37.0107 37.5356 37.0107 36.3741C37.0107 35.2126 36.0691 34.271 34.9076 34.271C33.7461 34.271 32.8045 35.2126 32.8045 36.3741C32.8045 37.5356 33.7461 38.4772 34.9076 38.4772Z" fill="url(#paint5_radial_938_25170)"/>
<path id="Vector_10" d="M33.9707 34.5971C35.6496 34.5971 37.0107 33.236 37.0107 31.5571C37.0107 29.8781 35.6496 28.5171 33.9707 28.5171C32.2918 28.5171 30.9307 29.8781 30.9307 31.5571C30.9307 33.236 32.2918 34.5971 33.9707 34.5971Z" fill="url(#paint6_radial_938_25170)"/>
<path id="Vector_11" d="M38.8745 38.9301C40.4187 38.9301 41.6706 37.6782 41.6706 36.134C41.6706 34.5897 40.4187 33.3379 38.8745 33.3379C37.3303 33.3379 36.0784 34.5897 36.0784 36.134C36.0784 37.6782 37.3303 38.9301 38.8745 38.9301Z" fill="url(#paint7_radial_938_25170)"/>
<path id="Vector_12" d="M38.2264 32.5977C39.8831 32.5977 41.2262 31.2547 41.2262 29.5979C41.2262 27.9412 39.8831 26.5981 38.2264 26.5981C36.5697 26.5981 35.2266 27.9412 35.2266 29.5979C35.2266 31.2547 36.5697 32.5977 38.2264 32.5977Z" fill="url(#paint8_radial_938_25170)"/>
<path id="Vector_13" d="M34.6908 28.9564C36.3475 28.9564 37.6905 27.6134 37.6905 25.9567C37.6905 24.3 36.3475 22.957 34.6908 22.957C33.0341 22.957 31.6911 24.3 31.6911 25.9567C31.6911 27.6134 33.0341 28.9564 34.6908 28.9564Z" fill="url(#paint9_radial_938_25170)"/>
<path id="Vector_14" d="M43.4609 28.9566C45.0633 28.9566 46.3623 27.6576 46.3623 26.0552C46.3623 24.4528 45.0633 23.1538 43.4609 23.1538C41.8585 23.1538 40.5595 24.4528 40.5595 26.0552C40.5595 27.6576 41.8585 28.9566 43.4609 28.9566Z" fill="url(#paint10_radial_938_25170)"/>
<path id="Vector_15" d="M42.4668 34.5973C43.8474 34.5973 44.9666 33.4781 44.9666 32.0975C44.9666 30.7169 43.8474 29.5977 42.4668 29.5977C41.0862 29.5977 39.967 30.7169 39.967 32.0975C39.967 33.4781 41.0862 34.5973 42.4668 34.5973Z" fill="url(#paint11_radial_938_25170)"/>
<path id="Vector_16" d="M48.5589 31.8567C49.5816 31.8567 50.4106 31.0277 50.4106 30.005C50.4106 28.9824 49.5816 28.1533 48.5589 28.1533C47.5362 28.1533 46.7072 28.9824 46.7072 30.005C46.7072 31.0277 47.5362 31.8567 48.5589 31.8567Z" fill="url(#paint12_radial_938_25170)"/>
<path id="Vector_17" d="M46.1516 31.3386C47.6377 31.3386 48.8424 30.1339 48.8424 28.6478C48.8424 27.1617 47.6377 25.957 46.1516 25.957C44.6655 25.957 43.4608 27.1617 43.4608 28.6478C43.4608 30.1339 44.6655 31.3386 46.1516 31.3386Z" fill="url(#paint13_radial_938_25170)"/>
<path id="Vector_18" d="M39.7448 25.524C41.3811 25.524 42.7075 24.1976 42.7075 22.5613C42.7075 20.9251 41.3811 19.5986 39.7448 19.5986C38.1086 19.5986 36.7821 20.9251 36.7821 22.5613C36.7821 24.1976 38.1086 25.524 39.7448 25.524Z" fill="url(#paint14_radial_938_25170)"/>
<path id="Vector_19" d="M39.1522 28.9565C40.543 28.9565 41.6705 27.829 41.6705 26.4382C41.6705 25.0474 40.543 23.9199 39.1522 23.9199C37.7614 23.9199 36.6339 25.0474 36.6339 26.4382C36.6339 27.829 37.7614 28.9565 39.1522 28.9565Z" fill="url(#paint15_radial_938_25170)"/>
<path id="Vector_20" d="M42.0224 31.3382C43.4234 31.3382 44.5592 30.2025 44.5592 28.8014C44.5592 27.4004 43.4234 26.2646 42.0224 26.2646C40.6214 26.2646 39.4856 27.4004 39.4856 28.8014C39.4856 30.2025 40.6214 31.3382 42.0224 31.3382Z" fill="url(#paint16_radial_938_25170)"/>
<path id="Vector_21" d="M38.0385 34.9675C39.5915 34.9675 40.8504 33.7086 40.8504 32.1556C40.8504 30.6027 39.5915 29.3438 38.0385 29.3438C36.4855 29.3438 35.2266 30.6027 35.2266 32.1556C35.2266 33.7086 36.4855 34.9675 38.0385 34.9675Z" fill="url(#paint17_radial_938_25170)"/>
<path id="Vector_22" d="M44.01 24.2056C45.1928 24.2056 46.1516 23.2467 46.1516 22.064C46.1516 20.8812 45.1928 19.9224 44.01 19.9224C42.8272 19.9224 41.8684 20.8812 41.8684 22.064C41.8684 23.2467 42.8272 24.2056 44.01 24.2056Z" fill="url(#paint18_radial_938_25170)"/>
</g>
</g>
<defs>
<radialGradient id="paint0_radial_938_25170" cx="0" cy="0" r="1" gradientUnits="userSpaceOnUse" gradientTransform="translate(74.044 30.8643) scale(62.6548 29.6295)">
<stop offset="0.4929" stop-color="#A03C2B"/>
<stop offset="1" stop-color="#801A09"/>
</radialGradient>
<radialGradient id="paint1_radial_938_25170" cx="0" cy="0" r="1" gradientUnits="userSpaceOnUse" gradientTransform="translate(1.7735 30.0717) scale(1.7352 2.86308)">
<stop stop-color="#B75548"/>
<stop offset="1" stop-color="#A03C2B"/>
</radialGradient>
<radialGradient id="paint2_radial_938_25170" cx="0" cy="0" r="1" gradientUnits="userSpaceOnUse" gradientTransform="translate(9.0829 29.5742) scale(1.4723 2.73627)">
<stop stop-color="#B75548"/>
<stop offset="1" stop-color="#A03C2B"/>
</radialGradient>
<radialGradient id="paint3_radial_938_25170" cx="0" cy="0" r="1" gradientUnits="userSpaceOnUse" gradientTransform="translate(84.5903 31.5887) scale(47.7781 23.4559)">
<stop stop-color="#B75548"/>
<stop offset="1" stop-color="#A03C2B"/>
</radialGradient>
<radialGradient id="paint4_radial_938_25170" cx="0" cy="0" r="1" gradientTransform="matrix(97.5042 -0.98489 0.243785 24.2712 41.0446 30.7529)" gradientUnits="userSpaceOnUse">
<stop offset="0.1419" stop-color="#C26961" stop-opacity="0.7337"/>
<stop offset="0.4994" stop-color="#C1665E" stop-opacity="0.428"/>
<stop offset="0.8047" stop-color="#BC5E53" stop-opacity="0.167"/>
<stop offset="1" stop-color="#B75548" stop-opacity="0"/>
</radialGradient>
<radialGradient id="paint5_radial_938_25170" cx="0" cy="0" r="1" gradientUnits="userSpaceOnUse" gradientTransform="translate(34.9076 36.3741) scale(2.1031)">
<stop stop-color="#781C0F"/>
<stop offset="0.9996" stop-color="#520E04"/>
</radialGradient>
<radialGradient id="paint6_radial_938_25170" cx="0" cy="0" r="1" gradientUnits="userSpaceOnUse" gradientTransform="translate(33.9707 31.5571) scale(3.04)">
<stop stop-color="#781C0F"/>
<stop offset="0.9996" stop-color="#520E04"/>
</radialGradient>
<radialGradient id="paint7_radial_938_25170" cx="0" cy="0" r="1" gradientUnits="userSpaceOnUse" gradientTransform="translate(38.8745 36.134) scale(2.7961)">
<stop stop-color="#781C0F"/>
<stop offset="0.9996" stop-color="#520E04"/>
</radialGradient>
<radialGradient id="paint8_radial_938_25170" cx="0" cy="0" r="1" gradientUnits="userSpaceOnUse" gradientTransform="translate(38.2264 29.5979) scale(2.9998)">
<stop stop-color="#781C0F"/>
<stop offset="0.9996" stop-color="#520E04"/>
</radialGradient>
<radialGradient id="paint9_radial_938_25170" cx="0" cy="0" r="1" gradientUnits="userSpaceOnUse" gradientTransform="translate(34.6908 25.9567) scale(2.9997)">
<stop stop-color="#781C0F"/>
<stop offset="0.9996" stop-color="#520E04"/>
</radialGradient>
<radialGradient id="paint10_radial_938_25170" cx="0" cy="0" r="1" gradientUnits="userSpaceOnUse" gradientTransform="translate(43.4609 26.0552) scale(2.9014)">
<stop stop-color="#781C0F"/>
<stop offset="0.9996" stop-color="#520E04"/>
</radialGradient>
<radialGradient id="paint11_radial_938_25170" cx="0" cy="0" r="1" gradientUnits="userSpaceOnUse" gradientTransform="translate(42.4668 32.0975) scale(2.4998)">
<stop stop-color="#781C0F"/>
<stop offset="0.9996" stop-color="#520E04"/>
</radialGradient>
<radialGradient id="paint12_radial_938_25170" cx="0" cy="0" r="1" gradientUnits="userSpaceOnUse" gradientTransform="translate(48.5589 30.005) scale(1.8517)">
<stop stop-color="#781C0F"/>
<stop offset="0.9996" stop-color="#520E04"/>
</radialGradient>
<radialGradient id="paint13_radial_938_25170" cx="0" cy="0" r="1" gradientUnits="userSpaceOnUse" gradientTransform="translate(46.1516 28.6478) scale(2.6908)">
<stop stop-color="#781C0F"/>
<stop offset="0.9996" stop-color="#520E04"/>
</radialGradient>
<radialGradient id="paint14_radial_938_25170" cx="0" cy="0" r="1" gradientUnits="userSpaceOnUse" gradientTransform="translate(39.7448 22.5613) scale(2.9627)">
<stop stop-color="#781C0F"/>
<stop offset="0.9996" stop-color="#520E04"/>
</radialGradient>
<radialGradient id="paint15_radial_938_25170" cx="0" cy="0" r="1" gradientUnits="userSpaceOnUse" gradientTransform="translate(39.1522 26.4382) scale(2.5183)">
<stop stop-color="#781C0F"/>
<stop offset="0.9996" stop-color="#520E04"/>
</radialGradient>
<radialGradient id="paint16_radial_938_25170" cx="0" cy="0" r="1" gradientUnits="userSpaceOnUse" gradientTransform="translate(42.0224 28.8014) scale(2.5368)">
<stop stop-color="#781C0F"/>
<stop offset="0.9996" stop-color="#520E04"/>
</radialGradient>
<radialGradient id="paint17_radial_938_25170" cx="0" cy="0" r="1" gradientUnits="userSpaceOnUse" gradientTransform="translate(38.0385 32.1556) scale(2.8119)">
<stop stop-color="#781C0F"/>
<stop offset="0.9996" stop-color="#520E04"/>
</radialGradient>
<radialGradient id="paint18_radial_938_25170" cx="0" cy="0" r="1" gradientUnits="userSpaceOnUse" gradientTransform="translate(44.01 22.064) scale(2.1416)">
<stop stop-color="#781C0F"/>
<stop offset="0.9996" stop-color="#520E04"/>
</radialGradient>
</defs>
</svg>
