<svg width="67" height="117" viewBox="0 0 67 117" fill="none" xmlns="http://www.w3.org/2000/svg">
<g id="R-ICO-013946">
<path id="Vector" d="M33.707 41.0259V74.4558" stroke="url(#paint0_linear_949_109886)" stroke-width="6.36167" stroke-miterlimit="10" stroke-linecap="round" stroke-linejoin="round"/>
<path id="Vector_2" d="M33.707 115.462C38.1485 115.462 41.7491 111.862 41.7491 107.42L41.7491 96.1667C41.7491 91.7252 38.1485 88.1246 33.707 88.1246C29.2656 88.1246 25.6649 91.7252 25.6649 96.1667L25.6649 107.42C25.6649 111.862 29.2654 115.462 33.707 115.462Z" fill="url(#paint1_linear_949_109886)"/>
<path id="Vector_3" d="M33.707 88.1247C38.1485 88.1247 41.7491 84.5241 41.7491 80.0826L41.7491 68.829C41.7491 64.3875 38.1485 60.7869 33.707 60.7869C29.2656 60.7869 25.6649 64.3875 25.6649 68.829L25.6649 80.0826C25.6649 84.5241 29.2656 88.1247 33.707 88.1247Z" fill="url(#paint2_linear_949_109886)"/>
<path id="Vector_4" d="M33.707 54.8217C38.1485 54.8217 41.7491 51.2211 41.7491 46.7796L41.7491 35.526C41.7491 31.0846 38.1485 27.4839 33.707 27.4839C29.2656 27.4839 25.6649 31.0846 25.6649 35.526L25.6649 46.7796C25.6649 51.2211 29.2656 54.8217 33.707 54.8217Z" fill="url(#paint3_linear_949_109886)"/>
<path id="Vector_5" d="M33.7069 27.4842C38.1484 27.4842 41.749 23.8836 41.749 19.4421L41.7491 8.18863C41.7491 3.74715 38.1485 0.146537 33.707 0.146537C29.2656 0.146537 25.6649 3.74715 25.6649 8.18863L25.6649 19.4422C25.6648 23.8836 29.2654 27.4842 33.7069 27.4842Z" fill="url(#paint4_linear_949_109886)"/>
</g>
<defs>
<linearGradient id="paint0_linear_949_109886" x1="33.7087" y1="37.8447" x2="33.7087" y2="77.6357" gradientUnits="userSpaceOnUse">
<stop stop-color="#52874A"/>
<stop offset="1" stop-color="#222F3D"/>
</linearGradient>
<linearGradient id="paint1_linear_949_109886" x1="33.7087" y1="88.1236" x2="33.7087" y2="115.461" gradientUnits="userSpaceOnUse">
<stop stop-color="#52874A"/>
<stop offset="1" stop-color="#222F3D"/>
</linearGradient>
<linearGradient id="paint2_linear_949_109886" x1="33.7087" y1="60.7863" x2="33.7087" y2="88.1237" gradientUnits="userSpaceOnUse">
<stop stop-color="#52874A"/>
<stop offset="1" stop-color="#222F3D"/>
</linearGradient>
<linearGradient id="paint3_linear_949_109886" x1="25.2071" y1="32.6528" x2="42.2071" y2="49.6527" gradientUnits="userSpaceOnUse">
<stop stop-color="#52874A"/>
<stop offset="1" stop-color="#222F3D"/>
</linearGradient>
<linearGradient id="paint4_linear_949_109886" x1="25.2069" y1="5.3154" x2="42.2068" y2="22.3153" gradientUnits="userSpaceOnUse">
<stop stop-color="#52874A"/>
<stop offset="1" stop-color="#222F3D"/>
</linearGradient>
</defs>
</svg>
