<svg width="62" height="23" viewBox="0 0 62 23" fill="none" xmlns="http://www.w3.org/2000/svg">
<g id="R-ICO-014276">
<g id="NFE2L2">
<path d="M1.03369 11.5C1.03369 5.97715 5.51084 1.5 11.0337 1.5H50.0337C55.5565 1.5 60.0337 5.97715 60.0337 11.5C60.0337 17.0228 55.5565 21.5 50.0337 21.5H11.0337C5.51084 21.5 1.03369 17.0228 1.03369 11.5Z" fill="url(#paint0_linear_938_23941)"/>
<path d="M46.242 2.99266C34.5059 2.87443 22.7698 2.52283 11.0337 1.64001C11.0337 1.54664 11.0337 1.45328 11.0337 1.35991C22.7698 0.477089 34.5059 0.125486 46.242 0.00726104C47.5059 -0.000875115 48.7698 -0.00182152 50.0337 0.00266945C55.3984 -0.0755014 60.3277 4.16876 61.1495 9.36829C61.275 10.0728 61.3313 10.7882 61.3197 11.5C61.3678 17.5381 55.7605 22.6732 50.0342 22.2659C50.0341 22.2659 50.0339 22.2658 50.0337 22.2658C44.1658 22.0221 38.2973 21.8466 32.4295 21.953C26.5615 22.056 20.6929 22.4645 14.8249 22.6648C13.5611 22.6999 12.2974 22.7233 11.0337 22.7369C5.78633 22.8881 0.897413 18.6952 0.14619 13.5887C0.0312126 12.8971 -0.0155445 12.1961 0.00443172 11.5C0.0221591 5.58925 5.63527 0.730826 11.0337 1.35991C11.0337 1.45328 11.0337 1.54664 11.0337 1.64001C5.77914 2.00993 1.78592 6.75744 2.06283 11.5C2.0827 12.0688 2.15401 12.6322 2.2761 13.1823C3.12576 17.2393 6.97215 20.282 11.0337 20.2632C12.2974 20.2768 13.5611 20.3002 14.8249 20.3353C20.6929 20.5356 26.5615 20.9428 32.4295 21.0457C38.2974 21.1521 44.1657 20.978 50.0337 20.7342C50.0338 20.7342 50.034 20.7342 50.0342 20.7342C54.9608 20.5852 58.9587 16.1148 58.7477 11.5C58.7363 10.9473 58.6746 10.3986 58.5632 9.86164C57.7846 5.89746 53.9781 2.90551 50.0337 2.99736C48.7698 3.00183 47.5059 3.00085 46.242 2.99266Z" fill="#FF5042"/>
<text id="NFE2L2_2" fill="white" xml:space="preserve" style="white-space: pre" font-family="Arial" font-size="12" font-weight="bold" letter-spacing="0em"><tspan x="8.18018" y="15.6602">NFE2L2</tspan></text>
</g>
</g>
<defs>
<linearGradient id="paint0_linear_938_23941" x1="30.5337" y1="1.5" x2="30.5337" y2="21.5" gradientUnits="userSpaceOnUse">
<stop stop-color="#FF5042"/>
<stop offset="1" stop-color="#B185B9"/>
</linearGradient>
</defs>
</svg>
