<svg width="161" height="111" viewBox="0 0 161 111" fill="none" xmlns="http://www.w3.org/2000/svg">
<g id="R-ICO-014561">
<g id="Group">
<g id="Group_2">
<path id="Vector" d="M137.358 28.4202C140.836 29.6614 143.837 31.0452 146.343 32.5358C146.628 32.7049 146.731 33.0617 146.594 33.3629L143.998 39.078C143.847 39.4122 143.459 39.5523 143.131 39.3869C140.548 38.0827 137.523 36.863 134.087 35.7497C133.717 35.63 133.527 35.2151 133.691 34.8633L136.544 28.7573C136.685 28.4539 137.043 28.3076 137.358 28.4202Z" fill="url(#paint0_linear_938_25209)"/>
<path id="Vector_2" d="M137.358 28.4202C140.836 29.6614 144.629 30.9884 147.135 32.479C147.419 32.6481 147.249 33.3336 147.112 33.6347C143.504 31.8609 139.926 30.2723 136.406 29.0517C136.63 28.4022 137.043 28.3076 137.358 28.4202Z" fill="url(#paint1_radial_938_25209)"/>
</g>
<g id="Group_3">
<path id="Vector_3" d="M147.287 33.1171C149.442 34.4922 151.187 35.9511 152.509 37.4673C152.735 37.727 152.79 38.0911 152.669 38.4139L150.681 43.7472C150.568 44.0497 150.198 44.1382 149.96 43.9194C148.435 42.5139 146.472 41.1644 144.098 39.8905C143.889 39.7783 143.796 39.5231 143.894 39.3072L146.617 33.3123C146.732 33.0602 147.053 32.9681 147.287 33.1171Z" fill="url(#paint2_linear_938_25209)"/>
<path id="Vector_4" d="M147.864 32.879C150.025 34.2441 151.921 36.015 153.224 37.5472C153.598 37.9878 153.386 38.3707 152.794 38.3707C150.603 36.2904 148.991 34.8307 146.617 33.3124C146.732 33.0602 147.269 32.5031 147.864 32.879Z" fill="url(#paint3_radial_938_25209)"/>
</g>
<g id="Group_4">
<path id="Vector_5" d="M153.177 38.2863C154.094 39.4909 154.748 40.7277 155.133 41.9839C155.21 42.236 155.194 42.5067 155.105 42.7548L153.374 47.5727C153.292 47.8007 152.989 47.8147 152.878 47.5993C152.356 46.5845 151.619 45.5883 150.677 44.6166C150.538 44.474 150.489 44.2641 150.558 44.078L152.691 38.3571C152.766 38.1547 153.046 38.1144 153.177 38.2863Z" fill="url(#paint4_linear_938_25209)"/>
<path id="Vector_6" d="M154.007 38.497C154.922 39.7029 155.578 40.9384 155.963 42.1946C156.04 42.4467 156.024 42.7174 155.935 42.9655L155.106 42.7549C154.875 41.3106 153.909 39.7463 152.732 38.2927C152.899 37.8097 153.567 37.9174 154.007 38.497Z" fill="url(#paint5_radial_938_25209)"/>
</g>
<g id="Group_5">
<path id="Vector_7" d="M153.138 50.8484C153.351 50.5615 153.983 50.5849 154.167 50.2969C154.776 49.3582 155.483 48.4197 155.775 47.481L154.328 52.9395L154.251 53.2283C154.125 53.7139 153.032 55.4696 152.807 55.9581C152.702 56.1271 152.219 55.9497 152.219 55.8009L153.138 50.8484Z" fill="url(#paint6_linear_938_25209)"/>
<path id="Vector_8" d="M155.35 42.8333C155.649 44.2664 155.597 45.7209 155.185 47.1777L155.097 47.4809C154.805 48.4196 154.36 49.3581 153.751 50.2968C153.664 49.6553 153.492 49.0188 153.239 48.3887C153.187 48.2572 153.18 48.1107 153.228 47.9773L155.073 42.8436C155.073 42.8436 155.258 42.391 155.35 42.8333Z" fill="url(#paint7_linear_938_25209)"/>
<g id="Group_6">
<path id="Vector_9" d="M156.012 42.7685C155.933 42.3873 155.551 42.4933 155.373 42.5218C155.202 42.5577 155.091 42.7263 155.126 42.8974C155.413 44.2833 155.36 45.694 154.967 47.0886L154.88 47.3861C154.593 48.3059 154.153 49.227 153.571 50.1245L153.571 50.1262C153.39 50.4074 153.41 50.4089 153.2 50.6914C153.096 50.8315 153.126 51.0298 153.267 51.1352C153.323 51.1773 153.593 51.2416 153.659 51.2416C153.755 51.2416 153.912 51.1526 153.975 51.0683C154.192 50.7757 154.18 50.7617 154.368 50.4692C154.674 49.9968 154.944 49.517 155.174 49.0333C155.406 48.5489 155.598 48.0601 155.752 47.5697L155.841 47.2635C156.263 45.7672 156.321 44.2548 156.012 42.7685Z" fill="url(#paint8_radial_938_25209)"/>
<path id="Vector_10" d="M156.012 42.7685C155.933 42.3873 155.551 42.4933 155.373 42.5218C155.202 42.5577 155.091 42.7263 155.126 42.8974C155.413 44.2833 155.36 45.694 154.967 47.0886L154.88 47.3861C154.593 48.3059 154.153 49.227 153.571 50.1245L153.571 50.1262C153.39 50.4074 153.41 50.4089 153.2 50.6914C153.096 50.8315 153.126 51.0298 153.267 51.1352C153.323 51.1773 153.593 51.2416 153.659 51.2416C153.755 51.2416 153.912 51.1526 153.975 51.0683C154.192 50.7757 154.18 50.7617 154.368 50.4692C154.674 49.9968 154.944 49.517 155.174 49.0333C155.406 48.5489 155.598 48.0601 155.752 47.5697L155.841 47.2635C156.262 45.7672 156.321 44.2548 156.012 42.7685Z" fill="url(#paint9_linear_938_25209)"/>
</g>
</g>
<path id="Vector_11" d="M122.859 24.637C127.736 25.5389 132.102 26.6507 135.935 27.929C136.397 28.0834 136.612 28.6096 136.406 29.0517L133.681 34.8843C133.51 35.252 133.102 35.4364 132.714 35.3176C128.959 34.1681 124.746 33.1412 120.11 32.263C119.605 32.1672 119.305 31.6345 119.499 31.1575L121.943 25.1351C122.089 24.775 122.477 24.5663 122.859 24.637Z" fill="url(#paint10_linear_938_25209)"/>
<path id="Vector_12" d="M107.17 21.6623C112.29 22.7212 117.119 23.6514 121.506 24.3936C122.066 24.516 122.107 24.7315 121.93 25.1679L119.402 31.3964C119.24 31.7948 118.827 32.0248 118.403 31.9496C118.061 31.8888 117.717 31.8289 117.371 31.7697C113.245 31.0663 108.719 30.1779 103.921 29.158C103.597 29.089 103.414 28.7359 103.551 28.4336L106.453 22.0234C106.577 21.7511 106.877 21.6018 107.17 21.6623Z" fill="url(#paint11_linear_938_25209)"/>
<path id="Vector_13" d="M105.768 21.3708C101.187 20.4125 96.3866 19.3575 91.4728 18.2471C91.0267 18.1463 90.5742 18.4009 90.433 18.8359L88.422 25.0335C88.3203 25.347 88.5111 25.6817 88.832 25.7572C93.6049 26.8816 98.2553 27.9408 102.686 28.8939C103.038 28.9695 103.39 28.7881 103.538 28.4604L106.284 22.3974C106.479 21.9664 106.232 21.4677 105.768 21.3708Z" fill="url(#paint12_linear_938_25209)"/>
<path id="Vector_14" d="M89.6927 17.8438C84.5671 16.6784 79.3325 15.4586 74.1054 14.2307C73.6605 14.1262 73.2061 14.3626 73.0364 14.787L70.7335 20.548C70.577 20.9395 70.803 21.3795 71.2123 21.4809C76.6695 22.8339 82.1198 24.1677 87.4315 25.4266C87.8868 25.5345 88.3443 25.2732 88.4887 24.8282L90.3675 19.0379C90.5365 18.517 90.2266 17.9652 89.6927 17.8438Z" fill="url(#paint13_linear_938_25209)"/>
<path id="Vector_15" d="M69.8013 21.1304C65.4256 20.0433 61.0527 18.947 56.7506 17.8703C56.4659 17.799 56.3219 17.4841 56.4511 17.2206L59.3509 11.3041C59.4924 11.0154 59.812 10.8621 60.125 10.9358C64.282 11.9145 68.5129 12.9152 72.7554 13.9131C73.0585 13.9844 73.2279 14.3087 73.1123 14.5979L70.6811 20.6799C70.5416 21.0286 70.1658 21.221 69.8013 21.1304Z" fill="url(#paint14_linear_938_25209)"/>
<path id="Vector_16" d="M55.628 17.5895C51.9818 16.6773 48.3909 15.781 44.897 14.9184C44.5826 14.8408 44.4134 14.5059 44.5312 14.2043L46.8209 8.34136C46.9255 8.07336 47.2072 7.92166 47.4876 7.98626C51.1595 8.83196 54.9521 9.71906 58.8147 10.6275C59.2115 10.7208 59.4218 11.1595 59.2424 11.5255L56.4584 17.2058C56.3078 17.5131 55.96 17.6726 55.628 17.5895Z" fill="url(#paint15_linear_938_25209)"/>
<path id="Vector_17" d="M43.6458 14.6099C39.6919 13.6364 35.8704 12.7093 32.2431 11.8548C31.9399 11.7834 31.7845 11.455 31.9131 11.1713L34.4335 5.60903C34.5659 5.31693 34.8775 5.15513 35.1908 5.22323C38.7467 5.99593 42.5087 6.84293 46.4148 7.73963C46.7219 7.81013 46.8999 8.13843 46.7853 8.43193L44.5552 14.1422C44.4141 14.5033 44.0222 14.7026 43.6458 14.6099Z" fill="url(#paint16_linear_938_25209)"/>
<path id="Vector_18" d="M31.1309 11.5934C26.7681 10.5724 22.7019 9.66273 19.0432 8.91133C18.7379 8.84863 18.5771 8.52313 18.7026 8.23783L21.0053 3.00593C21.1578 2.65943 21.5202 2.46033 21.8927 2.52803C25.5044 3.18503 29.5762 4.01263 33.9847 4.96193C34.3293 5.03613 34.5231 5.41133 34.3776 5.73233L31.8893 11.2239C31.759 11.5115 31.4384 11.6654 31.1309 11.5934Z" fill="url(#paint17_linear_938_25209)"/>
<path id="Vector_19" d="M17.8674 8.67275C13.7201 7.84005 10.1316 7.29135 7.29927 6.91055C2.37287 6.24825 3.95927 3.79015 3.95927 3.79015L4.88167 1.76085C5.26507 0.917453 6.12217 0.401353 7.04767 0.441653C10.2239 0.579753 15.6808 1.43225 20.612 2.29925C20.9464 2.35805 21.1333 2.71475 20.9965 3.02555L18.6989 8.24575C18.5585 8.56485 18.2092 8.74135 17.8674 8.67275Z" fill="url(#paint18_linear_938_25209)"/>
</g>
<g id="Group_7">
<g id="Group_8">
<path id="Vector_20" d="M148.586 55.8975C150.615 54.5551 152.265 53.18 153.424 51.7373C153.492 51.6523 153.619 51.7163 153.596 51.8228L152.691 55.9509C152.68 56.0013 152.663 56.0507 152.641 56.0974C151.754 57.979 150.239 59.4736 147.921 60.9944C147.821 61.06 147.682 60.9795 147.697 60.861L148.281 56.3796C148.307 56.1832 148.421 56.0067 148.586 55.8975Z" fill="url(#paint19_radial_938_25209)"/>
<path id="Vector_21" d="M153.596 51.8229C153.596 51.8229 153.706 51.3417 153.36 51.178C153.015 51.0144 152.913 51.1603 152.813 51.2876C152.176 52.1011 151.154 53.6742 148.567 55.4275C148.228 55.6568 148.132 55.8294 148.06 56.4686C147.91 57.802 153.351 52.9383 153.596 51.8229Z" fill="url(#paint20_radial_938_25209)"/>
<path id="Vector_22" d="M153.36 51.178C153.015 51.0144 152.913 51.1603 152.813 51.2876C152.176 52.101 151.154 53.6741 148.567 55.4275C148.317 55.5962 148.2 55.7371 148.127 56.0533C148.218 56.157 148.278 56.3246 148.248 56.6057C148.248 56.6107 148.251 56.6158 148.25 56.6207L147.708 60.7763C147.708 60.7762 147.708 60.7764 147.708 60.7763L147.697 60.8611C147.682 60.9796 147.821 61.0601 147.921 60.9945C150.239 59.4737 151.754 57.9791 152.641 56.0975C152.663 56.0509 152.68 56.0014 152.691 55.951L153.596 51.8229C153.596 51.8229 153.706 51.3416 153.36 51.178Z" fill="url(#paint21_linear_938_25209)"/>
</g>
<g id="Group_9">
<path id="Vector_23" d="M147.708 60.7763C147.676 61.0223 147.543 61.239 147.332 61.3702C145.584 62.46 143.42 63.5805 140.778 64.8816C139.59 65.4659 138.261 66.0033 136.805 66.4991C136.66 66.5486 136.507 66.4281 136.527 66.2759L137.086 61.9006C137.113 61.6837 137.268 61.5029 137.476 61.4355C138.996 60.9432 140.385 60.3951 141.628 59.7841C143.967 58.6332 146.099 57.4834 147.947 56.3111C148.099 56.2146 148.273 56.442 148.25 56.6206L147.708 60.7763Z" fill="url(#paint22_radial_938_25209)"/>
<path id="Vector_24" d="M137.467 60.674C142.215 59.0722 145.125 57.5626 147.607 55.9386C147.69 55.8848 148.36 55.7816 148.247 56.6416C148.135 57.5017 137.676 62.6589 136.857 62.114C136.857 62.114 136.775 60.9076 137.467 60.674Z" fill="url(#paint23_radial_938_25209)"/>
<path id="Vector_25" d="M148.248 56.6057C148.278 56.3246 148.218 56.157 148.127 56.0533C147.953 55.8559 147.66 55.9039 147.607 55.9386C145.124 57.5626 142.215 59.0722 137.467 60.674C137.212 60.76 137.063 60.9786 136.976 61.2197C137.07 61.3709 137.12 61.6291 137.064 62.0739L137.055 62.1426L136.527 66.2758C136.507 66.428 136.66 66.5484 136.805 66.499C138.261 66.0031 139.59 65.4658 140.778 64.8814C143.42 63.5804 145.584 62.4599 147.332 61.37C147.543 61.2388 147.676 61.0221 147.708 60.7762C147.708 60.7761 147.708 60.7763 147.708 60.7762L148.25 56.6204C148.251 56.6158 148.248 56.6107 148.248 56.6057Z" fill="url(#paint24_linear_938_25209)"/>
</g>
<g id="Group_10">
<path id="Vector_26" d="M124.079 69.4627C128.618 68.7231 132.668 67.8375 136.07 66.7423C136.328 66.6595 136.507 66.435 136.541 66.1669L137.064 62.0739C137.096 61.8249 136.871 61.6275 136.63 61.7C133.17 62.7427 129.083 63.5206 124.526 64.1129C124.287 64.1439 124.099 64.3374 124.08 64.5772L123.728 69.1453C123.713 69.3378 123.888 69.4938 124.079 69.4627Z" fill="url(#paint25_radial_938_25209)"/>
<path id="Vector_27" d="M124.653 63.8472C129.8 62.9987 133.058 62.1371 136.395 61.064C136.567 61.009 137.221 60.8424 137.064 62.074C136.998 62.5902 123.908 65.6297 123.962 64.6966C124.008 64.0901 123.914 63.9689 124.653 63.8472Z" fill="url(#paint26_radial_938_25209)"/>
<path id="Vector_28" d="M136.976 61.2196C136.81 60.9521 136.505 61.0286 136.395 61.0638C133.058 62.1369 129.8 62.9986 124.653 63.847C124.184 63.9243 124.051 64.0025 124.004 64.2038C124.045 64.2877 124.071 64.3922 124.067 64.5425C124.07 64.5663 124.079 64.5878 124.077 64.6129L124.062 64.8074L123.728 69.1452C123.713 69.3377 123.888 69.4938 124.079 69.4627C128.618 68.723 132.668 67.8375 136.07 66.7422C136.328 66.6595 136.507 66.4349 136.541 66.1669L137.055 62.1426L137.064 62.0739C137.121 61.629 137.07 61.3708 136.976 61.2196Z" fill="url(#paint27_linear_938_25209)"/>
</g>
<g id="Group_11">
<path id="Vector_29" d="M107.088 71.4982C112.939 70.9702 118.427 70.3565 123.36 69.578C123.561 69.5463 123.709 69.3806 123.725 69.1779L124.077 64.6129C124.095 64.3814 123.903 64.1925 123.673 64.2209C118.936 64.8057 113.713 65.2002 108.173 65.4902C107.799 65.5098 107.488 65.7916 107.438 66.1622L106.765 71.164C106.74 71.3522 106.899 71.5153 107.088 71.4982Z" fill="url(#paint28_radial_938_25209)"/>
<path id="Vector_30" d="M108.346 65.4875C114.089 65.2223 119.124 64.698 123.544 64.0322C123.961 63.9694 124.107 64.1362 124.069 64.6349C124.032 65.1336 112.444 66.1029 107.435 66.1868C107.435 66.1868 107.437 66.1092 107.457 66.0132C107.545 65.5904 107.728 65.5161 108.346 65.4875Z" fill="url(#paint29_radial_938_25209)"/>
<path id="Vector_31" d="M124.067 64.5427C124.07 64.3924 124.045 64.2879 124.004 64.204C123.931 64.0549 123.791 63.995 123.544 64.0322C120.422 64.5025 116.975 64.8963 113.206 65.184C111.558 65.2963 109.887 65.4006 108.173 65.4904C108.141 65.4921 108.113 65.5058 108.082 65.5112C107.684 65.555 107.53 65.6624 107.457 66.0133C107.437 66.1088 107.435 66.1864 107.435 66.1864L106.765 71.1641C106.74 71.3523 106.899 71.5155 107.088 71.4984C112.939 70.9704 118.427 70.3566 123.36 69.5781C123.561 69.5464 123.709 69.3808 123.725 69.1779L124.062 64.8076L124.077 64.6131C124.079 64.588 124.07 64.5665 124.067 64.5427Z" fill="url(#paint30_linear_938_25209)"/>
</g>
<g id="Group_12">
<path id="Vector_32" d="M89.2917 72.8598C95.1898 72.456 100.939 72.0441 106.385 71.5612C106.58 71.5439 106.735 71.3932 106.761 71.1985L107.454 66.0447C107.491 65.7734 107.277 65.5361 107.004 65.5496C101.482 65.8225 95.6612 65.999 89.7045 66.1624C89.3532 66.172 89.0659 66.4502 89.0481 66.8012L88.7672 72.3471C88.7524 72.6399 88.9993 72.8798 89.2917 72.8598Z" fill="url(#paint31_linear_938_25209)"/>
<path id="Vector_33" d="M89.2917 72.8598C95.1898 72.456 100.939 72.0441 106.385 71.5612C106.58 71.5439 106.735 71.3932 106.761 71.1985L107.454 66.0447C107.491 65.7734 107.277 65.5361 107.004 65.5496C101.482 65.8225 95.6612 65.999 89.7045 66.1624C89.3532 66.172 89.0659 66.4502 89.0481 66.8012L88.7672 72.3471C88.7524 72.6399 88.9993 72.8798 89.2917 72.8598Z" fill="url(#paint32_linear_938_25209)"/>
</g>
<g id="Group_13">
<path id="Vector_34" d="M71.1918 74.1177C76.8565 73.695 82.527 73.3206 88.076 72.9428C88.4561 72.9169 88.7538 72.611 88.7731 72.2305L89.0449 66.8635C89.0636 66.4947 88.767 66.1882 88.3979 66.1982C82.796 66.35 77.0852 66.4956 71.3995 66.7034C70.9746 66.7189 70.6382 67.0687 70.6382 67.4939V73.6041C70.6382 73.9038 70.8929 74.14 71.1918 74.1177Z" fill="url(#paint33_linear_938_25209)"/>
<path id="Vector_35" d="M71.1918 74.1177C76.8565 73.695 82.527 73.3206 88.076 72.9428C88.4561 72.9169 88.7538 72.611 88.7731 72.2305L89.0449 66.8635C89.0636 66.4947 88.767 66.1882 88.3979 66.1982C82.796 66.35 77.0852 66.4956 71.3995 66.7034C70.9746 66.7189 70.6382 67.0687 70.6382 67.4939V73.6041C70.6382 73.9038 70.8929 74.14 71.1918 74.1177Z" fill="url(#paint34_linear_938_25209)"/>
</g>
<g id="Group_14">
<path id="Vector_36" d="M52.3151 75.797C58.0648 75.1726 63.9779 74.6649 69.908 74.2143C70.3198 74.183 70.6382 73.8404 70.6382 73.4274V67.5118C70.6382 67.0861 70.2825 66.7448 69.8572 66.7613C64.2554 66.9779 58.6899 67.261 53.2893 67.6763C52.8828 67.7076 52.5576 68.0211 52.5054 68.4254L51.6434 75.1076C51.5926 75.5027 51.9191 75.84 52.3151 75.797Z" fill="url(#paint35_linear_938_25209)"/>
<path id="Vector_37" d="M52.3151 75.797C58.0648 75.1726 63.9779 74.6649 69.908 74.2143C70.3198 74.183 70.6382 73.8404 70.6382 73.4274V67.5118C70.6382 67.0861 70.2825 66.7448 69.8572 66.7613C64.2554 66.9779 58.6899 67.261 53.2893 67.6763C52.8828 67.7076 52.5576 68.0211 52.5054 68.4254L51.6434 75.1076C51.5926 75.5027 51.9191 75.84 52.3151 75.797Z" fill="url(#paint36_linear_938_25209)"/>
<path id="Vector_38" d="M52.3151 75.797C58.0648 75.1726 63.9779 74.6649 69.908 74.2143C70.3198 74.183 70.6382 73.8404 70.6382 73.4274V67.5118C70.6382 67.0861 70.2825 66.7448 69.8572 66.7613C64.2554 66.9779 58.6899 67.261 53.2893 67.6763C52.8828 67.7076 52.5576 68.0211 52.5054 68.4254L51.6434 75.1076C51.5926 75.5027 51.9191 75.84 52.3151 75.797Z" fill="url(#paint37_linear_938_25209)"/>
</g>
<g id="Group_15">
<path id="Vector_39" d="M32.4073 78.6835C38.1581 77.5715 44.3356 76.6954 50.7346 75.9722C51.2076 75.9187 51.5863 75.5503 51.6472 75.0781L52.4784 68.6351C52.5384 68.1698 52.15 67.7658 51.6824 67.8043C45.4179 68.3206 39.3956 69.0258 33.8202 70.0246C33.3181 70.1146 32.9323 70.5123 32.8471 71.0153L31.6715 77.9579C31.5976 78.3942 31.9729 78.7675 32.4073 78.6835Z" fill="url(#paint38_linear_938_25209)"/>
<path id="Vector_40" d="M32.4073 78.6835C38.1581 77.5715 44.3356 76.6954 50.7346 75.9722C51.2076 75.9187 51.5863 75.5503 51.6472 75.0781L52.4784 68.6351C52.5384 68.1698 52.15 67.7658 51.6824 67.8043C45.4179 68.3206 39.3956 69.0258 33.8202 70.0246C33.3181 70.1146 32.9323 70.5123 32.8471 71.0153L31.6715 77.9579C31.5976 78.3942 31.9729 78.7675 32.4073 78.6835Z" fill="url(#paint39_linear_938_25209)"/>
<path id="Vector_41" d="M32.4073 78.6835C38.1581 77.5715 44.3356 76.6954 50.7346 75.9722C51.2076 75.9187 51.5863 75.5503 51.6472 75.0781L52.4784 68.6351C52.5384 68.1698 52.15 67.7658 51.6824 67.8043C45.4179 68.3206 39.3956 69.0258 33.8202 70.0246C33.3181 70.1146 32.9323 70.5123 32.8471 71.0153L31.6715 77.9579C31.5976 78.3942 31.9729 78.7675 32.4073 78.6835Z" fill="url(#paint40_linear_938_25209)"/>
</g>
<g id="Group_16">
<path id="Vector_42" d="M30.7886 79.0411C27.3472 79.748 24.0715 80.5454 21.0078 81.4521C20.5789 81.579 20.1632 81.2441 20.1908 80.7976L20.6065 74.0804C20.6339 73.6379 20.9219 73.254 21.3431 73.1155C24.6978 72.0128 28.3642 71.1024 32.2683 70.3464C32.6992 70.263 33.0874 70.6386 33.0141 71.0714L31.8491 77.9508C31.7565 78.4977 31.3319 78.9295 30.7886 79.0411Z" fill="url(#paint41_linear_938_25209)"/>
<path id="Vector_43" d="M30.7886 79.0411C27.3472 79.748 24.0715 80.5454 21.0078 81.4521C20.5789 81.579 20.1632 81.2441 20.1908 80.7976L20.6065 74.0804C20.6339 73.6379 20.9219 73.254 21.3431 73.1155C24.6978 72.0128 28.3642 71.1024 32.2683 70.3464C32.6992 70.263 33.0874 70.6386 33.0141 71.0714L31.8491 77.9508C31.7565 78.4977 31.3319 78.9295 30.7886 79.0411Z" fill="url(#paint42_linear_938_25209)"/>
<path id="Vector_44" d="M20.6898 73.7221C20.808 73.4398 21.0413 73.2147 21.343 73.1156C24.6977 72.0129 28.3641 71.1025 32.2682 70.3465C32.5326 70.2831 32.7589 70.4564 32.7589 70.4564C29.7881 71.3482 24.1925 72.8362 21.8705 73.722C20.4021 74.2822 20.6898 73.7221 20.6898 73.7221Z" fill="url(#paint43_linear_938_25209)"/>
</g>
<g id="Group_17">
<path id="Vector_45" d="M19.3248 82.0268C17.0025 82.7704 14.8152 83.5829 12.7847 84.4733C12.4182 84.634 12.0168 84.3624 12.0281 83.9624L12.2018 77.8231C12.213 77.4271 12.4242 77.0631 12.7696 76.8692C14.9249 75.6592 17.3267 74.5963 19.937 73.6612C20.3579 73.5104 20.8049 73.8444 20.7773 74.2906L20.3818 80.6819C20.3432 81.305 19.9193 81.8364 19.3248 82.0268Z" fill="url(#paint44_linear_938_25209)"/>
<path id="Vector_46" d="M19.3248 82.0268C17.0025 82.7704 14.8152 83.5829 12.7847 84.4733C12.4182 84.634 12.0168 84.3624 12.0281 83.9624L12.2018 77.8231C12.213 77.4271 12.4242 77.0631 12.7696 76.8692C14.9249 75.6592 17.3267 74.5963 19.937 73.6612C20.3579 73.5104 20.8049 73.8444 20.7773 74.2906L20.3818 80.6819C20.3432 81.305 19.9193 81.8364 19.3248 82.0268Z" fill="url(#paint45_linear_938_25209)"/>
<path id="Vector_47" d="M12.2885 77.4139C12.3824 77.1868 12.5484 76.9932 12.7694 76.8692C14.9247 75.6592 17.3265 74.5963 19.9368 73.6612C20.282 73.5376 20.6446 73.7398 20.7488 74.0627C20.7637 74.1088 20.7667 74.2093 20.6485 74.2578C17.4701 75.5604 14.8946 76.7662 12.7958 77.8747C11.9315 78.3312 12.2885 77.4139 12.2885 77.4139Z" fill="url(#paint46_radial_938_25209)"/>
</g>
<g id="Group_18">
<path id="Vector_48" d="M11.4685 85.1787C10.0677 85.8483 8.75091 86.5593 7.52641 87.3151C7.22171 87.5032 6.83691 87.2889 6.83691 86.9308L6.83761 82.0056C6.83771 81.6288 6.98101 81.2671 7.25431 81.0077C7.53361 80.7425 7.83311 80.4743 8.15331 80.2028C9.22791 79.2849 10.4114 78.4308 11.6943 77.6358C12.0136 77.4379 12.4309 77.681 12.4203 78.0565L12.2525 83.989C12.2379 84.5011 11.9306 84.9579 11.4685 85.1787Z" fill="url(#paint47_linear_938_25209)"/>
<path id="Vector_49" d="M11.4685 85.1787C10.0677 85.8483 8.75091 86.5593 7.52641 87.3151C7.22171 87.5032 6.83691 87.2889 6.83691 86.9308L6.83761 82.0056C6.83771 81.6288 6.98101 81.2671 7.25431 81.0077C7.53361 80.7425 7.83311 80.4743 8.15331 80.2028C9.22791 79.2849 10.4114 78.4308 11.6943 77.6358C12.0136 77.4379 12.4309 77.681 12.4203 78.0565L12.2525 83.989C12.2379 84.5011 11.9306 84.9579 11.4685 85.1787Z" fill="url(#paint48_linear_938_25209)"/>
<path id="Vector_50" d="M6.86796 81.7087C6.92336 81.443 7.05386 81.1978 7.25416 81.0077C7.53346 80.7425 7.83296 80.4743 8.15316 80.2028C9.22776 79.2849 10.4113 78.4308 11.6942 77.6358C12.0135 77.4379 12.4308 77.681 12.4202 78.0565C12.4204 78.1716 12.2452 78.3195 12.1614 78.3692C10.1794 79.5432 8.70836 80.6508 7.65996 81.7088C7.21096 82.162 6.81256 81.9745 6.86796 81.7087Z" fill="url(#paint49_radial_938_25209)"/>
</g>
<g id="Group_19">
<path id="Vector_51" d="M6.57062 88.0932C6.10792 88.4064 5.66022 88.7269 5.22812 89.0549C4.36492 87.7697 4.16192 86.3545 4.74572 84.8238V84.8094C5.08402 83.9023 5.68292 82.9545 6.57172 81.9623C6.73352 81.7817 7.08592 81.778 7.08592 82.2744C7.08592 82.7708 7.08532 87.1373 7.08532 87.1373C7.08522 87.5216 6.88882 87.8778 6.57062 88.0932Z" fill="url(#paint50_linear_938_25209)"/>
<path id="Vector_52" d="M2.38199 99.3433C2.26879 99.6665 1.85309 99.7844 1.60409 99.5493C-0.0300081 98.0066 -0.474608 96.211 0.543892 94.1234L4.74559 84.8237C4.16169 86.3545 4.36479 87.7696 5.22799 89.0548C5.29129 89.1498 5.35819 89.2442 5.42859 89.3379C5.52829 89.4705 5.76169 89.6953 5.55099 90.2969C5.34019 90.8986 2.38199 99.3433 2.38199 99.3433Z" fill="url(#paint51_linear_938_25209)"/>
<path id="Vector_53" d="M6.28299 90.2242C6.34279 89.8517 6.30749 89.3823 6.10149 89.0552C5.32089 87.8159 4.67759 85.6074 6.94189 82.7757C6.98839 82.7175 7.08589 82.5974 7.08589 82.2747C7.08589 81.7783 6.73349 81.782 6.57169 81.9626C5.68299 82.9548 5.08399 83.9026 4.74569 84.8097C4.74569 84.8097 4.65419 85.0775 4.61649 85.203C4.20019 86.5889 4.43659 87.8766 5.22809 89.0551C5.29139 89.1501 5.35829 89.2445 5.42869 89.3382C5.51149 89.4483 5.68659 89.6221 5.62279 90.0224C5.60979 90.1041 5.55489 90.3241 5.87289 90.4192C6.19109 90.5144 6.26389 90.3429 6.28299 90.2242Z" fill="url(#paint52_radial_938_25209)"/>
<path id="Vector_54" d="M7.08555 82.2745C7.08555 81.7781 6.73315 81.7818 6.57145 81.9623C5.68275 82.9545 5.08385 83.9023 4.74545 84.8094C4.74545 84.8094 4.73735 84.8334 4.72605 84.8668L0.543848 94.1234C-0.474552 96.211 -0.0300523 98.0066 1.60405 99.5493C1.85305 99.7844 2.26875 99.6664 2.38205 99.3432C2.38205 99.3432 5.34025 90.8985 5.55095 90.2969C5.59725 90.1646 5.55475 90.3239 5.87275 90.4189C6.19085 90.514 6.26375 90.3425 6.28275 90.2238C6.34255 89.8513 6.30735 89.3819 6.10125 89.0548C5.32065 87.8155 4.67725 85.607 6.94165 82.7752C6.98815 82.7173 7.08555 82.5971 7.08555 82.2745Z" fill="url(#paint53_radial_938_25209)"/>
</g>
</g>
<g id="Group_20">
<g id="Group_21">
<path id="Vector_55" d="M12.9601 93.7302C9.85163 92.4125 8.06723 91.1963 7.04383 90.1614C6.39863 89.5088 5.64113 89.7729 5.40063 90.4595L2.21573 99.5512C2.11163 99.8485 2.20183 100.183 2.45823 100.366C4.13083 101.56 6.57153 102.589 9.62923 103.473C9.94083 103.563 10.2765 103.385 10.3711 103.075L12.8284 95.0147C13.4668 94.9727 13.2644 93.8592 12.9601 93.7302Z" fill="url(#paint54_linear_938_25209)"/>
<path id="Vector_56" d="M12.9601 93.7301C9.85159 92.4124 8.06719 91.1963 7.04389 90.1613C6.39869 89.5088 5.64119 89.7728 5.40069 90.4594C5.16009 91.1461 10.3361 94.5316 12.6507 95.0131C13.5144 95.1927 13.2911 93.8704 12.9601 93.7301Z" fill="url(#paint55_radial_938_25209)"/>
<path id="Vector_57" d="M12.9601 93.7302C9.85163 92.4125 8.06723 91.1963 7.04383 90.1614C6.39863 89.5088 5.64113 89.7729 5.40063 90.4595L2.21573 99.5512C2.11163 99.8485 2.20183 100.183 2.45823 100.366C4.13083 101.56 6.57153 102.589 9.62923 103.473C9.94083 103.563 10.2765 103.385 10.3711 103.075L12.8284 95.0147C13.4668 94.9727 13.2644 93.8592 12.9601 93.7302Z" fill="url(#paint56_linear_938_25209)"/>
</g>
<g id="Group_22">
<path id="Vector_58" d="M13.5679 94.3535C17.0482 95.5687 21.5352 96.6117 26.4414 97.505C26.8582 97.5809 27.1436 97.9772 27.0719 98.3948L25.82 105.679C25.7506 106.083 25.3701 106.362 24.9633 106.313C19.5274 105.659 14.5324 104.832 10.6103 103.794C10.2844 103.707 10.1042 103.366 10.2026 103.044L12.7195 94.7884C12.8302 94.4249 13.2091 94.2282 13.5679 94.3535Z" fill="url(#paint57_linear_938_25209)"/>
<path id="Vector_59" d="M26.4413 97.5049C20.8761 96.4253 16.8167 95.2856 13.8745 94.099C12.9602 93.7302 12.7879 94.5633 12.7193 94.7883C12.3784 95.9064 26.8051 99.9466 27.0718 98.3947C27.2083 97.6001 26.4413 97.5049 26.4413 97.5049Z" fill="url(#paint58_radial_938_25209)"/>
<path id="Vector_60" d="M13.5679 94.3535C17.0482 95.5687 21.5352 96.6117 26.4414 97.505C26.8582 97.5809 27.1436 97.9772 27.0719 98.3948L25.82 105.679C25.7506 106.083 25.3701 106.362 24.9633 106.313C19.5274 105.659 14.5324 104.832 10.6103 103.794C10.2844 103.707 10.1042 103.366 10.2026 103.044L12.7195 94.7884C12.8302 94.4249 13.2091 94.2282 13.5679 94.3535Z" fill="url(#paint59_linear_938_25209)"/>
</g>
<g id="Group_23">
<path id="Vector_61" d="M27.7527 97.7726C32.6758 98.6181 38.3523 99.322 44.1598 99.9053C44.61 99.9505 44.9327 100.366 44.8574 100.812L43.7881 107.145C43.7209 107.543 43.3611 107.828 42.958 107.806C37.101 107.487 31.3274 107.058 26.2537 106.487C25.8372 106.44 25.5532 106.051 25.6242 105.638L26.8676 98.4039C26.94 97.9823 27.3312 97.7002 27.7527 97.7726Z" fill="url(#paint60_linear_938_25209)"/>
<path id="Vector_62" d="M27.7527 97.7726C32.6758 98.6181 38.3523 99.322 44.1598 99.9053C44.61 99.9505 44.9327 100.366 44.8574 100.812L43.7881 107.145C43.7209 107.543 43.3611 107.828 42.958 107.806C37.101 107.487 31.3274 107.058 26.2537 106.487C25.8372 106.44 25.5532 106.051 25.6242 105.638L26.8676 98.4039C26.94 97.9823 27.3312 97.7002 27.7527 97.7726Z" fill="url(#paint61_linear_938_25209)"/>
</g>
<g id="Group_24">
<path id="Vector_63" d="M45.5207 100.059C50.6072 100.546 56.1356 100.944 61.5529 101.267C62.0094 101.294 62.3566 101.69 62.3205 102.145L61.8788 107.717C61.8452 108.14 61.485 108.465 61.06 108.456C55.4051 108.34 49.6076 108.157 44.2378 107.884C43.8237 107.863 43.5253 107.484 43.5944 107.075L44.6681 100.716C44.7374 100.306 45.1061 100.019 45.5207 100.059Z" fill="url(#paint62_linear_938_25209)"/>
<path id="Vector_64" d="M45.5207 100.059C50.6072 100.546 56.1356 100.944 61.5529 101.267C62.0094 101.294 62.3566 101.69 62.3205 102.145L61.8788 107.717C61.8452 108.14 61.485 108.465 61.06 108.456C55.4051 108.34 49.6076 108.157 44.2378 107.884C43.8237 107.863 43.5253 107.484 43.5944 107.075L44.6681 100.716C44.7374 100.306 45.1061 100.019 45.5207 100.059Z" fill="url(#paint63_linear_938_25209)"/>
</g>
<path id="Vector_65" d="M63.1966 101.367C68.1966 101.649 73.3547 101.868 78.379 102.036C78.7968 102.05 79.126 102.391 79.126 102.809V108.089C79.126 108.386 78.8876 108.627 78.5908 108.627C73.2918 108.625 67.8121 108.585 62.4671 108.486C62.0659 108.478 61.7547 108.133 61.7864 107.733L62.2236 102.219C62.2635 101.716 62.6933 101.339 63.1966 101.367Z" fill="url(#paint64_linear_938_25209)"/>
<path id="Vector_66" d="M79.8238 102.082C85.5616 102.262 91.2293 102.376 96.6618 102.438C97.0518 102.443 97.3462 102.784 97.2999 103.171L96.7346 107.891C96.6926 108.241 96.4027 108.507 96.0496 108.511C90.8194 108.577 85.3177 108.623 79.7041 108.627C79.3862 108.627 79.126 108.369 79.126 108.051V102.757C79.126 102.375 79.4427 102.07 79.8238 102.082Z" fill="url(#paint65_linear_938_25209)"/>
<path id="Vector_67" d="M97.9629 102.452C104.22 102.515 110.143 102.512 115.473 102.467C115.846 102.463 116.142 102.765 116.142 103.137L116.142 107.553C116.142 107.901 115.873 108.184 115.525 108.19C110.131 108.289 103.926 108.407 97.2513 108.496C96.9411 108.5 96.6938 108.23 96.7307 107.922L97.3184 103.015C97.3571 102.691 97.637 102.449 97.9629 102.452Z" fill="url(#paint66_linear_938_25209)"/>
<path id="Vector_68" d="M133.215 103.209C133.272 102.771 132.978 102.378 132.597 102.384C129.229 102.438 125.919 102.289 122.553 102.36C120.737 102.398 118.789 102.43 116.731 102.454C116.408 102.458 116.142 102.763 116.142 103.137L116.142 107.571C116.142 107.905 116.382 108.174 116.67 108.168C117.182 108.157 117.685 108.147 118.178 108.136C122.804 108.038 127.469 107.989 132.072 108.023C132.397 108.026 132.671 107.752 132.72 107.379L133.215 103.209Z" fill="url(#paint67_linear_938_25209)"/>
<path id="Vector_69" d="M146.999 103.515C142.98 102.84 137.977 102.389 133.356 102.459C133.107 102.463 132.897 102.683 132.859 102.979L132.351 107.462C132.307 107.81 132.531 108.124 132.823 108.127C137.468 108.178 142.037 108.324 146.419 108.607C146.709 108.626 146.959 108.376 147 108.029L147.541 104.285C147.588 103.883 147.331 103.571 146.999 103.515Z" fill="url(#paint68_linear_938_25209)"/>
<path id="Vector_70" d="M159.712 105.247C156.323 104.476 152.277 103.847 147.857 103.535C147.605 103.517 147.387 103.787 147.351 104.136L146.847 108.086C146.817 108.385 146.978 108.655 147.194 108.673C151.352 109.009 155.302 109.516 158.914 110.25C159.187 110.306 159.443 110.075 159.522 109.706L160.166 106.192C160.262 105.745 160.039 105.322 159.712 105.247Z" fill="url(#paint69_linear_938_25209)"/>
</g>
<g id="Group_25">
<path id="Vector_71" d="M10.1636 0.956825C10.1266 1.38333 9.23741 1.65453 8.17771 1.56253C7.11791 1.47053 6.28881 1.05013 6.32591 0.623625C6.36301 0.197125 7.25211 -0.0740749 8.31181 0.0179251C9.37151 0.109925 10.2006 0.530325 10.1636 0.956825Z" fill="url(#paint70_radial_938_25209)"/>
<path id="Vector_72" d="M8.30278 6.92772C8.21158 7.34602 7.29508 7.50142 6.25578 7.27482C5.21648 7.04822 4.44788 6.52532 4.53908 6.10702C4.63028 5.68872 5.54678 5.53332 6.58608 5.75992C7.62538 5.98652 8.39408 6.50932 8.30278 6.92772Z" fill="url(#paint71_radial_938_25209)"/>
<path id="Vector_73" d="M8.83597 3.70183C8.76797 4.12453 7.86137 4.33003 6.81117 4.16093C5.76097 3.99183 4.96477 3.51213 5.03287 3.08943C5.10097 2.66673 6.00747 2.46113 7.05767 2.63023C8.10787 2.79933 8.90407 3.27913 8.83597 3.70183Z" fill="url(#paint72_radial_938_25209)"/>
<path id="Vector_74" d="M5.03678 1.47778L3.95898 3.79008" stroke="#A87E7B" stroke-miterlimit="10" stroke-linecap="round" stroke-linejoin="round"/>
</g>
</g>
<defs>
<linearGradient id="paint0_linear_938_25209" x1="134.252" y1="31.23" x2="146.933" y2="37.2106" gradientUnits="userSpaceOnUse">
<stop stop-color="#FFF9B8"/>
<stop offset="1" stop-color="#A9A57B"/>
</linearGradient>
<radialGradient id="paint1_radial_938_25209" cx="0" cy="0" r="1" gradientTransform="matrix(1.36171 -4.05009 12.4558 4.1881 135.842 31.1844)" gradientUnits="userSpaceOnUse">
<stop offset="0.4116" stop-color="#FFF9B8"/>
<stop offset="1" stop-color="#A9A57B"/>
</radialGradient>
<linearGradient id="paint2_linear_938_25209" x1="143.97" y1="36.1787" x2="155.71" y2="42.1039" gradientUnits="userSpaceOnUse">
<stop stop-color="#FFF9B8"/>
<stop offset="1" stop-color="#A9A57B"/>
</linearGradient>
<radialGradient id="paint3_radial_938_25209" cx="0" cy="0" r="1" gradientTransform="matrix(1.8396 -2.52274 8.26977 6.03084 145.882 34.7243)" gradientUnits="userSpaceOnUse">
<stop offset="0.4496" stop-color="#FFF9B8"/>
<stop offset="1" stop-color="#A9A57B"/>
</radialGradient>
<linearGradient id="paint4_linear_938_25209" x1="150.906" y1="41.9703" x2="157.441" y2="45.016" gradientUnits="userSpaceOnUse">
<stop stop-color="#FFF9B8"/>
<stop offset="1" stop-color="#A9A57B"/>
</linearGradient>
<radialGradient id="paint5_radial_938_25209" cx="0" cy="0" r="1" gradientTransform="matrix(1.95511 -0.787226 1.68427 4.18315 153.058 40.4263)" gradientUnits="userSpaceOnUse">
<stop offset="0.5167" stop-color="#FFF9B8"/>
<stop offset="1" stop-color="#A9A57B"/>
</radialGradient>
<linearGradient id="paint6_linear_938_25209" x1="152.419" y1="51.2722" x2="153.656" y2="51.6117" gradientUnits="userSpaceOnUse">
<stop offset="0.3599" stop-color="#FFF9B8"/>
<stop offset="0.9387" stop-color="#A9A57B"/>
</linearGradient>
<linearGradient id="paint7_linear_938_25209" x1="153.025" y1="45.7656" x2="157.388" y2="47.8419" gradientUnits="userSpaceOnUse">
<stop stop-color="#FFF9B8"/>
<stop offset="1" stop-color="#A9A57B"/>
</linearGradient>
<radialGradient id="paint8_radial_938_25209" cx="0" cy="0" r="1" gradientUnits="userSpaceOnUse" gradientTransform="translate(143.298 44.6764) scale(12.7606 11.1974)">
<stop offset="0.916" stop-color="#FFF9B8"/>
<stop offset="1" stop-color="#A9A57B"/>
</radialGradient>
<linearGradient id="paint9_linear_938_25209" x1="154.303" y1="46.6786" x2="156.308" y2="47.8783" gradientUnits="userSpaceOnUse">
<stop offset="0.44" stop-color="#FFF9B8"/>
<stop offset="0.7947" stop-color="#A9A57B"/>
</linearGradient>
<linearGradient id="paint10_linear_938_25209" x1="121.143" y1="26.7891" x2="133.909" y2="32.9484" gradientUnits="userSpaceOnUse">
<stop stop-color="#FFF9B8"/>
<stop offset="1" stop-color="#A9A57B"/>
</linearGradient>
<linearGradient id="paint11_linear_938_25209" x1="105.781" y1="23.4156" x2="119.346" y2="29.9605" gradientUnits="userSpaceOnUse">
<stop stop-color="#FFF9B8"/>
<stop offset="1" stop-color="#A9A57B"/>
</linearGradient>
<linearGradient id="paint12_linear_938_25209" x1="89.8739" y1="19.9762" x2="103.66" y2="26.6278" gradientUnits="userSpaceOnUse">
<stop stop-color="#FFF9B8"/>
<stop offset="1" stop-color="#A9A57B"/>
</linearGradient>
<linearGradient id="paint13_linear_938_25209" x1="72.5286" y1="15.8342" x2="88.2947" y2="23.4411" gradientUnits="userSpaceOnUse">
<stop stop-color="#FFF9B8"/>
<stop offset="1" stop-color="#A9A57B"/>
</linearGradient>
<linearGradient id="paint14_linear_938_25209" x1="58.5394" y1="12.8923" x2="70.8835" y2="18.8482" gradientUnits="userSpaceOnUse">
<stop stop-color="#FFF9B8"/>
<stop offset="1" stop-color="#A9A57B"/>
</linearGradient>
<linearGradient id="paint15_linear_938_25209" x1="46.0364" y1="9.96306" x2="56.8735" y2="15.1919" gradientUnits="userSpaceOnUse">
<stop stop-color="#FFF9B8"/>
<stop offset="1" stop-color="#A9A57B"/>
</linearGradient>
<linearGradient id="paint16_linear_938_25209" x1="33.7188" y1="7.08963" x2="44.7748" y2="12.424" gradientUnits="userSpaceOnUse">
<stop stop-color="#FFF9B8"/>
<stop offset="1" stop-color="#A9A57B"/>
</linearGradient>
<linearGradient id="paint17_linear_938_25209" x1="20.5069" y1="4.03793" x2="32.0349" y2="9.60013" gradientUnits="userSpaceOnUse">
<stop stop-color="#FFF9B8"/>
<stop offset="1" stop-color="#A9A57B"/>
</linearGradient>
<linearGradient id="paint18_linear_938_25209" x1="5.38757" y1="0.711053" x2="18.5439" y2="7.05885" gradientUnits="userSpaceOnUse">
<stop stop-color="#FFF9B8"/>
<stop offset="1" stop-color="#A9A57B"/>
</linearGradient>
<radialGradient id="paint19_radial_938_25209" cx="0" cy="0" r="1" gradientTransform="matrix(4.4627 4.19446 -10.0774 10.7216 147.713 54.4048)" gradientUnits="userSpaceOnUse">
<stop offset="0.5005" stop-color="#A9A57B"/>
<stop offset="0.6057" stop-color="#ADA97E"/>
<stop offset="0.7148" stop-color="#BAB587"/>
<stop offset="0.8255" stop-color="#CEC995"/>
<stop offset="0.9369" stop-color="#EBE6AA"/>
<stop offset="1" stop-color="#FFF9B8"/>
</radialGradient>
<radialGradient id="paint20_radial_938_25209" cx="0" cy="0" r="1" gradientTransform="matrix(1.66117 2.23812 -7.44238 5.52423 147.982 53.7494)" gradientUnits="userSpaceOnUse">
<stop offset="0.5971" stop-color="#FFF9B8"/>
<stop offset="0.6428" stop-color="#EBE6AA"/>
<stop offset="0.7235" stop-color="#CEC995"/>
<stop offset="0.8038" stop-color="#BAB587"/>
<stop offset="0.8828" stop-color="#ADA97E"/>
<stop offset="0.9591" stop-color="#A9A57B"/>
</radialGradient>
<linearGradient id="paint21_linear_938_25209" x1="147.696" y1="56.0616" x2="153.613" y2="56.0616" gradientUnits="userSpaceOnUse">
<stop stop-color="#FFF9B8" stop-opacity="0.4"/>
<stop offset="0.8305" stop-color="#A9A57B" stop-opacity="0.2"/>
</linearGradient>
<radialGradient id="paint22_radial_938_25209" cx="0" cy="0" r="1" gradientTransform="matrix(1.98502 5.12949 -14.1938 5.49305 138.757 60.545)" gradientUnits="userSpaceOnUse">
<stop offset="0.498" stop-color="#A9A57B"/>
<stop offset="0.6038" stop-color="#ADA97E"/>
<stop offset="0.7134" stop-color="#BAB587"/>
<stop offset="0.8247" stop-color="#CEC995"/>
<stop offset="0.9366" stop-color="#EBE6AA"/>
<stop offset="1" stop-color="#FFF9B8"/>
</radialGradient>
<radialGradient id="paint23_radial_938_25209" cx="0" cy="0" r="1" gradientTransform="matrix(2.22976 4.02176 -14.0256 7.77727 143.823 54.1806)" gradientUnits="userSpaceOnUse">
<stop offset="0.7" stop-color="#FFF9B8"/>
<stop offset="0.7728" stop-color="#E2DCA3"/>
<stop offset="0.8659" stop-color="#C3BE8D"/>
<stop offset="0.945" stop-color="#B0AC80"/>
<stop offset="1" stop-color="#A9A57B"/>
</radialGradient>
<linearGradient id="paint24_linear_938_25209" x1="136.525" y1="61.2087" x2="148.256" y2="61.2087" gradientUnits="userSpaceOnUse">
<stop stop-color="#FFF9B8" stop-opacity="0.4"/>
<stop offset="0.2107" stop-color="#FBF5B5" stop-opacity="0.3157"/>
<stop offset="0.429" stop-color="#EEE9AC" stop-opacity="0.2284"/>
<stop offset="0.6508" stop-color="#DAD59E" stop-opacity="0.1397"/>
<stop offset="0.8736" stop-color="#BDB889" stop-opacity="0.0505"/>
<stop offset="1" stop-color="#A9A57B" stop-opacity="0"/>
</linearGradient>
<radialGradient id="paint25_radial_938_25209" cx="0" cy="0" r="1" gradientTransform="matrix(1.09368 5.34936 -22.6025 4.62151 129.721 63.4448)" gradientUnits="userSpaceOnUse">
<stop offset="0.498" stop-color="#A9A57B"/>
<stop offset="0.6038" stop-color="#ADA97E"/>
<stop offset="0.7134" stop-color="#BAB587"/>
<stop offset="0.8247" stop-color="#CEC995"/>
<stop offset="0.9366" stop-color="#EBE6AA"/>
<stop offset="1" stop-color="#FFF9B8"/>
</radialGradient>
<radialGradient id="paint26_radial_938_25209" cx="0" cy="0" r="1" gradientTransform="matrix(-1.01758 -4.72807 16.4587 -3.54266 128.285 59.5792)" gradientUnits="userSpaceOnUse">
<stop offset="0.8666" stop-color="#FFF9B8"/>
<stop offset="0.8798" stop-color="#EBE6AA"/>
<stop offset="0.9031" stop-color="#CEC995"/>
<stop offset="0.9263" stop-color="#BAB587"/>
<stop offset="0.9492" stop-color="#ADA97E"/>
<stop offset="0.9712" stop-color="#A9A57B"/>
</radialGradient>
<linearGradient id="paint27_linear_938_25209" x1="123.727" y1="65.2464" x2="137.088" y2="65.2464" gradientUnits="userSpaceOnUse">
<stop stop-color="#FFF9B8" stop-opacity="0.4"/>
<stop offset="0.2107" stop-color="#FBF5B5" stop-opacity="0.3157"/>
<stop offset="0.429" stop-color="#EEE9AC" stop-opacity="0.2284"/>
<stop offset="0.6508" stop-color="#DAD59E" stop-opacity="0.1397"/>
<stop offset="0.8736" stop-color="#BDB889" stop-opacity="0.0505"/>
<stop offset="1" stop-color="#A9A57B" stop-opacity="0"/>
</linearGradient>
<radialGradient id="paint28_radial_938_25209" cx="0" cy="0" r="1" gradientTransform="matrix(0.616303 6.61264 -31.6666 2.95268 114.514 64.7611)" gradientUnits="userSpaceOnUse">
<stop offset="0.498" stop-color="#A9A57B"/>
<stop offset="0.6038" stop-color="#ADA97E"/>
<stop offset="0.7134" stop-color="#BAB587"/>
<stop offset="0.8247" stop-color="#CEC995"/>
<stop offset="0.9366" stop-color="#EBE6AA"/>
<stop offset="1" stop-color="#FFF9B8"/>
</radialGradient>
<radialGradient id="paint29_radial_938_25209" cx="0" cy="0" r="1" gradientTransform="matrix(0.533961 5.90856 -24.5326 2.21771 115.089 59.9971)" gradientUnits="userSpaceOnUse">
<stop offset="0.8459" stop-color="#FFF9B8"/>
<stop offset="0.861" stop-color="#EBE6AA"/>
<stop offset="0.8876" stop-color="#CEC995"/>
<stop offset="0.9141" stop-color="#BAB587"/>
<stop offset="0.9401" stop-color="#ADA97E"/>
<stop offset="0.9653" stop-color="#A9A57B"/>
</radialGradient>
<linearGradient id="paint30_linear_938_25209" x1="106.763" y1="67.7605" x2="124.077" y2="67.7605" gradientUnits="userSpaceOnUse">
<stop stop-color="#FFF9B8" stop-opacity="0.4"/>
<stop offset="0.2107" stop-color="#FBF5B5" stop-opacity="0.3157"/>
<stop offset="0.429" stop-color="#EEE9AC" stop-opacity="0.2284"/>
<stop offset="0.6508" stop-color="#DAD59E" stop-opacity="0.1397"/>
<stop offset="0.8736" stop-color="#BDB889" stop-opacity="0.0505"/>
<stop offset="1" stop-color="#A9A57B" stop-opacity="0"/>
</linearGradient>
<linearGradient id="paint31_linear_938_25209" x1="107.557" y1="66.8762" x2="88.4742" y2="70.8517" gradientUnits="userSpaceOnUse">
<stop offset="0.3" stop-color="#A9A57B"/>
<stop offset="1" stop-color="#FFF9B8"/>
</linearGradient>
<linearGradient id="paint32_linear_938_25209" x1="97.9859" y1="65.589" x2="98.2418" y2="72.8482" gradientUnits="userSpaceOnUse">
<stop stop-color="#FFF9B8"/>
<stop offset="0.1549" stop-color="#FFF9B8" stop-opacity="0"/>
</linearGradient>
<linearGradient id="paint33_linear_938_25209" x1="89.1769" y1="67.8544" x2="70.2836" y2="71.7905" gradientUnits="userSpaceOnUse">
<stop offset="0.2" stop-color="#A9A57B"/>
<stop offset="1" stop-color="#FFF9B8"/>
</linearGradient>
<linearGradient id="paint34_linear_938_25209" x1="79.7216" y1="66.2399" x2="79.9597" y2="74.1054" gradientUnits="userSpaceOnUse">
<stop stop-color="#FFF9B8"/>
<stop offset="0.1549" stop-color="#FFF9B8" stop-opacity="0"/>
</linearGradient>
<linearGradient id="paint35_linear_938_25209" x1="70.8677" y1="69.0141" x2="51.2268" y2="73.1059" gradientUnits="userSpaceOnUse">
<stop stop-color="#A9A57B"/>
<stop offset="1" stop-color="#FFF9B8"/>
</linearGradient>
<linearGradient id="paint36_linear_938_25209" x1="51.3025" y1="70.1749" x2="53.115" y2="70.3801" gradientUnits="userSpaceOnUse">
<stop offset="0.1085" stop-color="#A9A57B"/>
<stop offset="0.2963" stop-color="#ADA97E" stop-opacity="0.7893"/>
<stop offset="0.4909" stop-color="#BAB587" stop-opacity="0.571"/>
<stop offset="0.6887" stop-color="#CEC995" stop-opacity="0.3492"/>
<stop offset="0.8873" stop-color="#EBE6AA" stop-opacity="0.1264"/>
<stop offset="1" stop-color="#FFF9B8" stop-opacity="0"/>
</linearGradient>
<linearGradient id="paint37_linear_938_25209" x1="60.8824" y1="66.8189" x2="61.3889" y2="75.7852" gradientUnits="userSpaceOnUse">
<stop stop-color="#FFF9B8"/>
<stop offset="0.1549" stop-color="#FFF9B8" stop-opacity="0"/>
</linearGradient>
<linearGradient id="paint38_linear_938_25209" x1="52.8597" y1="70.7958" x2="31.1168" y2="75.3256" gradientUnits="userSpaceOnUse">
<stop stop-color="#A9A57B"/>
<stop offset="1" stop-color="#FFF9B8"/>
</linearGradient>
<linearGradient id="paint39_linear_938_25209" x1="31.9816" y1="71.4508" x2="34.1946" y2="71.8471" gradientUnits="userSpaceOnUse">
<stop offset="0.049" stop-color="#A9A57B"/>
<stop offset="0.2494" stop-color="#ADA97E" stop-opacity="0.7893"/>
<stop offset="0.457" stop-color="#BAB587" stop-opacity="0.571"/>
<stop offset="0.6679" stop-color="#CEC995" stop-opacity="0.3492"/>
<stop offset="0.8798" stop-color="#EBE6AA" stop-opacity="0.1264"/>
<stop offset="1" stop-color="#FFF9B8" stop-opacity="0"/>
</linearGradient>
<linearGradient id="paint40_linear_938_25209" x1="41.3272" y1="67.9472" x2="42.8209" y2="78.6656" gradientUnits="userSpaceOnUse">
<stop offset="0.0634" stop-color="#FFF9B8"/>
<stop offset="0.1858" stop-color="#FFF9B8" stop-opacity="0"/>
</linearGradient>
<linearGradient id="paint41_linear_938_25209" x1="33.685" y1="74.4263" x2="19.4815" y2="77.3853" gradientUnits="userSpaceOnUse">
<stop stop-color="#A9A57B"/>
<stop offset="1" stop-color="#FFF9B8"/>
</linearGradient>
<linearGradient id="paint42_linear_938_25209" x1="20.2727" y1="75.5027" x2="21.4562" y2="75.5783" gradientUnits="userSpaceOnUse">
<stop stop-color="#A9A57B"/>
<stop offset="0.2107" stop-color="#ADA97E" stop-opacity="0.7893"/>
<stop offset="0.429" stop-color="#BAB587" stop-opacity="0.571"/>
<stop offset="0.6508" stop-color="#CEC995" stop-opacity="0.3492"/>
<stop offset="0.8736" stop-color="#EBE6AA" stop-opacity="0.1264"/>
<stop offset="1" stop-color="#FFF9B8" stop-opacity="0"/>
</linearGradient>
<linearGradient id="paint43_linear_938_25209" x1="26.8163" y1="72.4977" x2="26.5611" y2="71.6349" gradientUnits="userSpaceOnUse">
<stop offset="0.4098" stop-color="#FFF9B8" stop-opacity="0"/>
<stop offset="1" stop-color="#FFF9B8"/>
</linearGradient>
<linearGradient id="paint44_linear_938_25209" x1="21.5196" y1="77.9956" x2="11.2344" y2="80.1384" gradientUnits="userSpaceOnUse">
<stop stop-color="#A9A57B"/>
<stop offset="1" stop-color="#FFF9B8"/>
</linearGradient>
<linearGradient id="paint45_linear_938_25209" x1="11.7615" y1="78.9485" x2="13.1392" y2="78.9856" gradientUnits="userSpaceOnUse">
<stop offset="0.2203" stop-color="#A9A57B"/>
<stop offset="0.3846" stop-color="#ADA97E" stop-opacity="0.7893"/>
<stop offset="0.5548" stop-color="#BAB587" stop-opacity="0.571"/>
<stop offset="0.7277" stop-color="#CEC995" stop-opacity="0.3492"/>
<stop offset="0.9015" stop-color="#EBE6AA" stop-opacity="0.1264"/>
<stop offset="1" stop-color="#FFF9B8" stop-opacity="0"/>
</linearGradient>
<radialGradient id="paint46_radial_938_25209" cx="0" cy="0" r="1" gradientTransform="matrix(-1.42506 -3.07915 21.7481 -10.065 17.3475 78.2682)" gradientUnits="userSpaceOnUse">
<stop offset="0.7318" stop-color="#FFF9B8" stop-opacity="0"/>
<stop offset="1" stop-color="#FFF9B8"/>
</radialGradient>
<linearGradient id="paint47_linear_938_25209" x1="13.164" y1="81.735" x2="6.06521" y2="83.214" gradientUnits="userSpaceOnUse">
<stop stop-color="#A9A57B"/>
<stop offset="1" stop-color="#FFF9B8"/>
</linearGradient>
<linearGradient id="paint48_linear_938_25209" x1="6.55491" y1="82.4751" x2="7.64541" y2="82.4751" gradientUnits="userSpaceOnUse">
<stop offset="0.2203" stop-color="#A9A57B"/>
<stop offset="0.3846" stop-color="#ADA97E" stop-opacity="0.7893"/>
<stop offset="0.5548" stop-color="#BAB587" stop-opacity="0.571"/>
<stop offset="0.7277" stop-color="#CEC995" stop-opacity="0.3492"/>
<stop offset="0.9015" stop-color="#EBE6AA" stop-opacity="0.1264"/>
<stop offset="1" stop-color="#FFF9B8" stop-opacity="0"/>
</linearGradient>
<radialGradient id="paint49_radial_938_25209" cx="0" cy="0" r="1" gradientTransform="matrix(-1.47914 -2.02783 10.6954 -7.80083 10.38 81.5069)" gradientUnits="userSpaceOnUse">
<stop offset="0.7581" stop-color="#FFF9B8" stop-opacity="0"/>
<stop offset="1" stop-color="#FFF9B8"/>
</radialGradient>
<linearGradient id="paint50_linear_938_25209" x1="7.84382" y1="84.4059" x2="1.94572" y2="87.7197" gradientUnits="userSpaceOnUse">
<stop stop-color="#A9A57B"/>
<stop offset="0.0275" stop-color="#AFAB7F"/>
<stop offset="0.1825" stop-color="#CCC794"/>
<stop offset="0.348" stop-color="#E3DDA4"/>
<stop offset="0.5267" stop-color="#F3EDAF"/>
<stop offset="0.7281" stop-color="#FCF6B6"/>
<stop offset="1" stop-color="#FFF9B8"/>
</linearGradient>
<linearGradient id="paint51_linear_938_25209" x1="3.52479" y1="86.8515" x2="2.10349" y2="99.1699" gradientUnits="userSpaceOnUse">
<stop stop-color="#FFF9B8"/>
<stop offset="1" stop-color="#A9A57B"/>
</linearGradient>
<radialGradient id="paint52_radial_938_25209" cx="0" cy="0" r="1" gradientTransform="matrix(3.10502 0.587444 -0.838032 4.42969 7.56796 86.0301)" gradientUnits="userSpaceOnUse">
<stop offset="0.5483" stop-color="#A9A57B"/>
<stop offset="1" stop-color="#FFF9B8"/>
</radialGradient>
<radialGradient id="paint53_radial_938_25209" cx="0" cy="0" r="1" gradientTransform="matrix(2.11217 1.00139 -3.78558 7.98443 6.13491 90.2928)" gradientUnits="userSpaceOnUse">
<stop stop-color="#A9A57B"/>
<stop offset="0.209" stop-color="#B5B184" stop-opacity="0.791"/>
<stop offset="0.5877" stop-color="#D5D09A" stop-opacity="0.4123"/>
<stop offset="1" stop-color="#FFF9B8" stop-opacity="0"/>
</radialGradient>
<linearGradient id="paint54_linear_938_25209" x1="8.46683" y1="89.7951" x2="7.06673" y2="103.373" gradientUnits="userSpaceOnUse">
<stop stop-color="#FFF9B8"/>
<stop offset="1" stop-color="#A9A57B"/>
</linearGradient>
<radialGradient id="paint55_radial_938_25209" cx="0" cy="0" r="1" gradientTransform="matrix(-1.77469 2.83041 -7.77995 -4.87838 10.3537 90.2977)" gradientUnits="userSpaceOnUse">
<stop offset="0.394" stop-color="#A9A57B"/>
<stop offset="0.7458" stop-color="#FFF9B8"/>
<stop offset="1" stop-color="#FFF9B8" stop-opacity="0"/>
</radialGradient>
<linearGradient id="paint56_linear_938_25209" x1="3.59903" y1="95.2445" x2="11.8841" y2="97.8593" gradientUnits="userSpaceOnUse">
<stop offset="0.7321" stop-color="#FFF9B8" stop-opacity="0"/>
<stop offset="0.7885" stop-color="#FBF5B5" stop-opacity="0.2107"/>
<stop offset="0.847" stop-color="#EEE9AC" stop-opacity="0.429"/>
<stop offset="0.9064" stop-color="#DAD59E" stop-opacity="0.6508"/>
<stop offset="0.9661" stop-color="#BDB889" stop-opacity="0.8736"/>
<stop offset="1" stop-color="#A9A57B"/>
</linearGradient>
<linearGradient id="paint57_linear_938_25209" x1="19.0624" y1="93.8784" x2="18.2301" y2="107.077" gradientUnits="userSpaceOnUse">
<stop stop-color="#FFF9B8"/>
<stop offset="1" stop-color="#A9A57B"/>
</linearGradient>
<radialGradient id="paint58_radial_938_25209" cx="0" cy="0" r="1" gradientTransform="matrix(-1.48082 5.14062 -15.7386 -4.53289 18.5714 91.8026)" gradientUnits="userSpaceOnUse">
<stop offset="0.4681" stop-color="#A9A57B"/>
<stop offset="0.8109" stop-color="#FFF9B8"/>
<stop offset="1" stop-color="#FFF9B8" stop-opacity="0"/>
</radialGradient>
<linearGradient id="paint59_linear_938_25209" x1="12.5936" y1="99.3679" x2="26.664" y2="101.469" gradientUnits="userSpaceOnUse">
<stop offset="0.7321" stop-color="#FFF9B8" stop-opacity="0"/>
<stop offset="0.7885" stop-color="#FBF5B5" stop-opacity="0.2107"/>
<stop offset="0.847" stop-color="#EEE9AC" stop-opacity="0.429"/>
<stop offset="0.9064" stop-color="#DAD59E" stop-opacity="0.6508"/>
<stop offset="0.9661" stop-color="#BDB889" stop-opacity="0.8736"/>
<stop offset="1" stop-color="#A9A57B"/>
</linearGradient>
<linearGradient id="paint60_linear_938_25209" x1="26.4312" y1="101.794" x2="44.2266" y2="104.637" gradientUnits="userSpaceOnUse">
<stop stop-color="#FFF9B8"/>
<stop offset="1" stop-color="#A9A57B"/>
</linearGradient>
<linearGradient id="paint61_linear_938_25209" x1="34.2285" y1="97.6346" x2="36.0604" y2="107.747" gradientUnits="userSpaceOnUse">
<stop stop-color="#FFF9B8" stop-opacity="0"/>
<stop offset="1" stop-color="#A9A57B"/>
</linearGradient>
<linearGradient id="paint62_linear_938_25209" x1="44.4026" y1="103.218" x2="62.1278" y2="106.05" gradientUnits="userSpaceOnUse">
<stop stop-color="#FFF9B8"/>
<stop offset="1" stop-color="#A9A57B"/>
</linearGradient>
<linearGradient id="paint63_linear_938_25209" x1="52.0047" y1="97.8376" x2="53.5851" y2="109.153" gradientUnits="userSpaceOnUse">
<stop stop-color="#FFF9B8" stop-opacity="0"/>
<stop offset="0.2107" stop-color="#FBF5B5" stop-opacity="0.2107"/>
<stop offset="0.429" stop-color="#EEE9AC" stop-opacity="0.429"/>
<stop offset="0.6508" stop-color="#DAD59E" stop-opacity="0.6508"/>
<stop offset="0.8736" stop-color="#BDB889" stop-opacity="0.8736"/>
<stop offset="1" stop-color="#A9A57B"/>
</linearGradient>
<linearGradient id="paint64_linear_938_25209" x1="62.1327" y1="103.937" x2="79.3381" y2="106.685" gradientUnits="userSpaceOnUse">
<stop stop-color="#FFF9B8"/>
<stop offset="1" stop-color="#A9A57B"/>
</linearGradient>
<linearGradient id="paint65_linear_938_25209" x1="79.0984" y1="104.081" x2="96.8703" y2="106.92" gradientUnits="userSpaceOnUse">
<stop stop-color="#FFF9B8"/>
<stop offset="1" stop-color="#A9A57B"/>
</linearGradient>
<linearGradient id="paint66_linear_938_25209" x1="97.3582" y1="104.042" x2="116.209" y2="107.053" gradientUnits="userSpaceOnUse">
<stop stop-color="#FFF9B8"/>
<stop offset="1" stop-color="#A9A57B"/>
</linearGradient>
<linearGradient id="paint67_linear_938_25209" x1="116.186" y1="103.926" x2="132.829" y2="106.585" gradientUnits="userSpaceOnUse">
<stop stop-color="#FFF9B8"/>
<stop offset="1" stop-color="#BCB889"/>
</linearGradient>
<linearGradient id="paint68_linear_938_25209" x1="132.744" y1="104.677" x2="147.152" y2="106.979" gradientUnits="userSpaceOnUse">
<stop stop-color="#FFF9B8"/>
<stop offset="1" stop-color="#CFC995"/>
</linearGradient>
<linearGradient id="paint69_linear_938_25209" x1="147.207" y1="105.888" x2="159.878" y2="107.912" gradientUnits="userSpaceOnUse">
<stop stop-color="#FFF9B8"/>
<stop offset="1" stop-color="#D5D09A"/>
</linearGradient>
<radialGradient id="paint70_radial_938_25209" cx="0" cy="0" r="1" gradientTransform="matrix(1.8848 0.163641 -0.0749153 0.863418 8.24575 0.791978)" gradientUnits="userSpaceOnUse">
<stop offset="0.257" stop-color="#A9A57B"/>
<stop offset="0.3665" stop-color="#C1BD8C"/>
<stop offset="0.5203" stop-color="#DCD79F"/>
<stop offset="0.6766" stop-color="#F0EAAD"/>
<stop offset="0.8354" stop-color="#FBF5B5"/>
<stop offset="1" stop-color="#FFF9B8"/>
</radialGradient>
<radialGradient id="paint71_radial_938_25209" cx="0" cy="0" r="1" gradientTransform="matrix(1.84829 0.402953 -0.18464 0.84677 6.41933 6.52078)" gradientUnits="userSpaceOnUse">
<stop offset="0.257" stop-color="#A9A57B"/>
<stop offset="0.3665" stop-color="#C1BD8C"/>
<stop offset="0.5203" stop-color="#DCD79F"/>
<stop offset="0.6766" stop-color="#F0EAAD"/>
<stop offset="0.8354" stop-color="#FBF5B5"/>
<stop offset="1" stop-color="#FFF9B8"/>
</radialGradient>
<radialGradient id="paint72_radial_938_25209" cx="0" cy="0" r="1" gradientTransform="matrix(1.86777 0.300796 -0.137723 0.855661 6.93615 3.39955)" gradientUnits="userSpaceOnUse">
<stop offset="0.257" stop-color="#A9A57B"/>
<stop offset="0.3665" stop-color="#C1BD8C"/>
<stop offset="0.5203" stop-color="#DCD79F"/>
<stop offset="0.6766" stop-color="#F0EAAD"/>
<stop offset="0.8354" stop-color="#FBF5B5"/>
<stop offset="1" stop-color="#FFF9B8"/>
</radialGradient>
</defs>
</svg>
