<svg width="63" height="23" viewBox="0 0 63 23" fill="none" xmlns="http://www.w3.org/2000/svg">
<g id="R-ICO-014304">
<g id="YWHAB">
<path d="M1.02637 11.5C1.02637 5.97715 5.50352 1.5 11.0264 1.5H51.0264C56.5492 1.5 61.0264 5.97715 61.0264 11.5C61.0264 17.0228 56.5492 21.5 51.0264 21.5H11.0264C5.50352 21.5 1.02637 17.0228 1.02637 11.5Z" fill="url(#paint0_linear_938_23958)"/>
<path d="M46.7347 2.99266C34.8319 2.87443 22.9292 2.52283 11.0264 1.64001C11.0264 1.54664 11.0264 1.45328 11.0264 1.35991C22.9292 0.477089 34.8319 0.125486 46.7347 0.00726104C48.1652 -0.00181901 49.5958 -0.00194442 51.0264 0.00444937C56.2889 -0.0641148 61.1451 4.0123 62.0856 9.09096C62.2479 9.88467 62.3216 10.6949 62.3083 11.5C62.3549 17.5354 56.7531 22.6692 51.0269 22.2659C51.0267 22.2659 51.0266 22.2658 51.0264 22.2658C45.0751 22.0221 39.1233 21.8466 33.1722 21.953C27.2208 22.056 21.2689 22.4645 15.3175 22.6648C13.8871 22.704 12.4568 22.7286 11.0264 22.7412C5.87654 22.8764 1.06419 18.8488 0.194238 13.8603C0.0441342 13.0809 -0.0186632 12.2872 0.00409806 11.5C0.0232619 5.59334 5.62837 0.73789 11.0264 1.35991C11.0264 1.45328 11.0264 1.54664 11.0264 1.64001C5.77139 2.00287 1.77017 6.75334 2.04851 11.5C2.07108 12.144 2.15972 12.7816 2.31327 13.4005C3.24746 17.3592 7.04124 20.2837 11.0264 20.2589C12.4567 20.2715 13.8871 20.2961 15.3175 20.3353C21.2689 20.5356 27.2208 20.9428 33.1722 21.0457C39.1234 21.1521 45.075 20.978 51.0264 20.7342C51.0265 20.7342 51.0267 20.7342 51.0268 20.7342C55.9535 20.5892 59.9569 16.1175 59.7445 11.5C59.7314 10.8743 59.6538 10.2535 59.5126 9.64914C58.6494 5.78042 54.8991 2.90415 51.0264 2.99558C49.5958 3.00196 48.1652 3.0018 46.7347 2.99266Z" fill="#FFD200"/>
<text id="YWHAB_2" fill="white" xml:space="preserve" style="white-space: pre" font-family="Arial" font-size="12" font-weight="bold" letter-spacing="0em"><tspan x="8.35059" y="15.6602">YWHAB</tspan></text>
</g>
</g>
<defs>
<linearGradient id="paint0_linear_938_23958" x1="31.0264" y1="1.5" x2="31.0264" y2="21.5" gradientUnits="userSpaceOnUse">
<stop stop-color="#FFD200"/>
<stop offset="1" stop-color="#007575"/>
</linearGradient>
</defs>
</svg>
