<svg width="52" height="147" viewBox="0 0 52 147" fill="none" xmlns="http://www.w3.org/2000/svg">
<g id="R-ICO-014908">
<g id="DUCT">
<path id="BG_3_" d="M46.0315 20.4873C46.0315 18.1511 45.7346 15.9656 45.1494 13.9917C44.4961 11.7852 43.4231 9.6997 42.0486 7.96385C40.5063 6.00195 36.7139 3.95605 35.5806 3.4719C34.6331 3.0671 33.6204 2.64525 32.8308 2.3164C32.3469 2.115 31.9475 1.9487 31.7005 1.84325C31.4334 1.7295 31.1416 1.57275 30.8326 1.40675C30.4693 1.21145 30.0936 1.00955 29.7142 0.85595C28.3482 0.30395 26.5906 0 24.7652 0C19.6764 0 17.0138 1.9922 17.0138 3.9658C17.0143 4.04175 17.0174 4.12865 17.0299 4.23315C19.2403 20.9802 20.6163 35.4605 21.12 47.2717C21.1212 47.2998 21.1234 47.3279 21.1271 47.3557C21.434 49.7622 25.2494 51.0213 28.86 51.0213C30.5216 51.0213 32.0941 50.7774 33.4078 50.316C34.1171 50.067 34.8551 49.8652 35.6649 49.6995C35.8915 49.6531 36.0536 49.6072 36.0831 49.5975C36.1788 49.5654 36.3075 49.5372 36.4491 49.5167C36.6573 49.4859 36.8927 49.4686 37.149 49.4649C37.6327 49.4566 38.1656 49.5047 38.7633 49.609C40.8087 49.9676 43.6893 51.139 44.0999 51.7684C44.1275 52.2864 44.5496 52.7012 45.0738 52.7141C45.0824 52.7144 45.0907 52.7144 45.099 52.7144C45.6295 52.7144 46.0697 52.2984 46.0973 51.7657C46.0995 51.7198 46.1 51.6744 46.0983 51.6294L46.0315 20.4873Z" fill="#FFE094"/>
<g id="BODY_4_">
<path id="Vector" d="M46.5315 20.4874C46.5315 18.4186 46.2951 16.3144 45.6907 14.2755C45.0878 12.2397 44.1061 10.2786 42.7626 8.58175C41.4247 6.88005 39.7422 5.4553 37.869 4.37705C36.9306 3.83835 35.9458 3.38125 34.913 3.01995C34.3958 2.83985 33.8675 2.6828 33.3169 2.5571C32.8427 2.4531 32.3746 2.3625 31.8202 2.3263L31.6412 2.31685C30.8486 2.27485 30.0751 2.0809 29.3393 1.7834C28.1367 1.2971 26.5303 1 24.7652 1C21.0364 1 18.0136 2.32525 18.0136 3.95995C18.0136 5.5947 21.0364 6.91995 24.7652 6.91995C26.6869 6.91995 28.4203 6.5678 29.6495 6.00285C30.2732 5.71615 30.9513 5.56725 31.6368 5.60425L31.7411 5.6099C32.0121 5.6218 32.3417 5.66365 32.6577 5.72185C33.0754 5.79835 33.502 5.90475 33.9248 6.0322C34.7717 6.2883 35.6051 6.6319 36.4007 7.04495C37.9922 7.8737 39.4339 8.99235 40.6019 10.3552C41.7748 11.7148 42.6708 13.3167 43.2659 15.0497C43.6704 16.2285 43.9387 17.4646 44.0926 18.7268C43.7064 18.0431 43.2734 17.3828 42.7881 16.7576C41.5907 15.2094 40.0957 13.8801 38.4031 12.8657C37.5553 12.3598 36.6615 11.927 35.7166 11.5879C35.244 11.4178 34.7586 11.2716 34.2513 11.155C33.8157 11.0575 33.3773 10.9763 32.8687 10.9446L32.7268 10.9376C31.9346 10.8987 31.1612 10.7058 30.4263 10.4075C29.2226 9.91895 27.6125 9.62025 25.8428 9.62025C22.114 9.62025 19.0912 10.9454 19.0912 12.5802C19.0912 14.2149 22.114 15.5402 25.8428 15.5402C27.7451 15.5402 29.4629 15.1951 30.6898 14.64C31.3894 14.3236 32.1533 14.1705 32.9184 14.2354C32.9413 14.2374 32.9595 14.2388 32.972 14.2399C33.1656 14.2555 33.379 14.2844 33.5887 14.3234C33.9538 14.3902 34.3287 14.4841 34.7004 14.6C35.4454 14.8303 36.1796 15.1456 36.8802 15.5229C38.282 16.2817 39.5463 17.3066 40.5863 18.5357C41.6287 19.7641 42.4484 21.1946 43.0295 22.7399C43.5102 24.009 43.8315 25.3521 44.0244 26.7271C43.6712 26.0969 43.278 25.4845 42.832 24.9066C41.7719 23.5134 40.4613 22.2824 38.9434 21.3401C38.1845 20.8687 37.377 20.4678 36.5189 20.1516C36.0903 19.9922 35.6471 19.8578 35.1816 19.7524C34.8161 19.6701 34.4451 19.6019 34.03 19.5704C34.0236 19.5699 34.0148 19.5697 34.0039 19.5697C33.2285 19.5716 32.4541 19.4488 31.7467 19.1315C30.5213 18.5819 28.812 18.2407 26.9204 18.2407C23.1916 18.2407 20.1688 19.5659 20.1688 21.2006C20.1688 22.8354 23.1916 24.1606 26.9204 24.1606C28.8193 24.1606 30.5344 23.8167 31.7608 23.2634C32.4463 22.9541 33.193 22.7989 33.9431 22.8526C33.9485 22.8531 33.9531 22.8533 33.9569 22.8536C34.1331 22.8652 34.3298 22.8908 34.5245 22.9269C34.8366 22.9821 35.1599 23.0625 35.4805 23.166C36.1231 23.3699 36.7603 23.648 37.3669 23.9878C38.5834 24.6677 39.6733 25.5967 40.5861 26.6897C41.0476 27.233 41.4562 27.8265 41.8221 28.45C42.1962 29.0688 42.5072 29.731 42.7886 30.4086C43.338 31.7715 43.7202 33.2228 43.9536 34.7135L44.1014 35.8387L44.1985 36.9753L44.2485 38.1202L44.2606 39.3101L44.3044 44.0751C44.3044 44.0751 44.3183 48.4165 44.3063 48.7574C43.4203 73.982 35.0464 109.266 2.48891 142.339C2.10146 142.733 2.10636 143.366 2.50016 143.753C2.69476 143.945 2.94816 144.041 3.20156 144.041C3.46011 144.041 3.71841 143.941 3.91421 143.742C36.9485 110.185 45.4215 74.3568 46.3066 48.7574C46.4871 43.5362 46.5315 31.7845 46.5315 20.4874Z" fill="#CCA433"/>
<path id="Vector_2" d="M42.6585 33.2592C42.214 32.6605 41.7252 32.0847 41.1859 31.5464C40.6347 31.0055 40.0331 30.5049 39.3843 30.0543C38.7347 29.6043 38.0384 29.2055 37.2862 28.8765C36.5247 28.5516 35.7499 28.2748 34.7495 28.1732C34.2402 28.2111 33.4518 28.0503 32.9917 27.8288C31.7568 27.2341 29.9768 26.8608 27.9979 26.8608C24.2691 26.8608 21.2463 28.1861 21.2463 29.8208C21.2463 31.4556 24.2691 32.7808 27.9979 32.7808C29.6673 32.7808 31.1951 32.5152 32.3735 32.075C33.1383 31.7894 33.9369 31.6215 34.7392 31.4704C34.7426 31.4698 34.7461 31.4691 34.7495 31.4684C34.9593 31.4276 35.2444 31.4217 35.5312 31.4313C35.8233 31.4503 36.1278 31.4782 36.435 31.5383C37.0504 31.6479 37.6749 31.829 38.2849 32.0678C38.8952 32.3072 39.4942 32.6031 40.071 32.9514C40.644 33.305 41.1935 33.7095 41.7206 34.1546L41.7368 34.1684C41.9878 34.3804 42.3744 34.3785 42.6245 34.1218C42.8494 33.8909 42.8508 33.5181 42.6585 33.2592Z" fill="#CCA433"/>
<path id="Vector_3" d="M40.9698 39.8322C40.2547 39.142 39.4544 38.5094 38.5551 37.9823C38.1015 37.7155 37.6244 37.4736 37.112 37.2666C36.6326 37.0749 36.1344 36.9094 35.5334 36.8138C35.5311 36.8134 35.5262 36.8131 35.5188 36.813C34.8187 36.7957 34.1235 36.6668 33.4853 36.3787C32.2589 35.8252 30.5437 35.481 28.6444 35.481C24.9156 35.481 21.8928 36.8062 21.8928 38.441C21.8928 40.0757 24.9156 41.401 28.6444 41.401C30.2779 41.401 31.7752 41.1464 32.9425 40.723C33.7966 40.4132 34.6827 40.2046 35.5772 40.0457L35.5794 40.0453C35.8363 39.9964 36.1542 39.9778 36.4725 39.987C36.8759 39.9967 37.2969 40.043 37.7196 40.1188C38.5678 40.2685 39.4205 40.5438 40.251 40.9123L40.2685 40.9203C40.5296 41.0355 40.8499 40.9713 41.0441 40.7307C41.2586 40.4648 41.2156 40.0694 40.9698 39.8322Z" fill="#CCA433"/>
<path id="Vector_4" d="M39.4422 47.4279C38.932 47.0036 38.3805 46.6063 37.7703 46.2612C37.458 46.0844 37.1311 45.92 36.78 45.774C36.4576 45.6406 36.1171 45.5217 35.722 45.4368C34.7738 45.233 33.2623 44.8134 32.9992 44.7236C31.8563 44.3338 30.4202 44.1016 28.8598 44.1016C25.131 44.1016 22.1082 45.4268 22.1082 47.0616C22.1082 48.6963 25.131 50.0216 28.8598 50.0216C30.3687 50.0216 31.7613 49.8044 32.885 49.4375C33.7542 49.1538 34.633 48.8991 35.5269 48.7069C35.6587 48.6786 35.7504 48.6546 35.7665 48.6492C35.9235 48.5967 36.1096 48.5555 36.303 48.5276C36.5663 48.4889 36.8468 48.4693 37.1336 48.4653C37.7088 48.4563 38.3079 48.5144 38.9114 48.6199L38.9359 48.6243C39.1747 48.6654 39.4291 48.5749 39.5858 48.3629C39.8008 48.0719 39.7203 47.6592 39.4422 47.4279Z" fill="#CCA433"/>
</g>
<g id="SHINE_3_">
<path id="Vector_5" d="M24.7652 6.92C28.494 6.92 31.5168 5.59476 31.5168 3.96C31.5168 2.32524 28.494 1 24.7652 1C21.0364 1 18.0135 2.32524 18.0135 3.96C18.0135 5.59476 21.0364 6.92 24.7652 6.92Z" fill="url(#paint0_radial_938_24584)"/>
<path id="Vector_6" d="M25.8427 15.5401C29.5715 15.5401 32.5943 14.2149 32.5943 12.5801C32.5943 10.9454 29.5715 9.62012 25.8427 9.62012C22.1138 9.62012 19.091 10.9454 19.091 12.5801C19.091 14.2149 22.1138 15.5401 25.8427 15.5401Z" fill="url(#paint1_radial_938_24584)"/>
<path id="Vector_7" d="M26.9203 24.1607C30.6491 24.1607 33.6719 22.8355 33.6719 21.2007C33.6719 19.566 30.6491 18.2407 26.9203 18.2407C23.1915 18.2407 20.1686 19.566 20.1686 21.2007C20.1686 22.8355 23.1915 24.1607 26.9203 24.1607Z" fill="url(#paint2_radial_938_24584)"/>
<path id="Vector_8" d="M27.9977 32.7808C31.7265 32.7808 34.7493 31.4556 34.7493 29.8208C34.7493 28.1861 31.7265 26.8608 27.9977 26.8608C24.2689 26.8608 21.246 28.1861 21.246 29.8208C21.246 31.4556 24.2689 32.7808 27.9977 32.7808Z" fill="url(#paint3_radial_938_24584)"/>
<path id="Vector_9" d="M28.6443 41.401C32.3731 41.401 35.3959 40.0757 35.3959 38.441C35.3959 36.8062 32.3731 35.481 28.6443 35.481C24.9155 35.481 21.8926 36.8062 21.8926 38.441C21.8926 40.0757 24.9155 41.401 28.6443 41.401Z" fill="url(#paint4_radial_938_24584)"/>
<path id="Vector_10" d="M28.8597 50.0216C32.5886 50.0216 35.6114 48.6963 35.6114 47.0616C35.6114 45.4268 32.5886 44.1016 28.8597 44.1016C25.1309 44.1016 22.1081 45.4268 22.1081 47.0616C22.1081 48.6963 25.1309 50.0216 28.8597 50.0216Z" fill="url(#paint5_radial_938_24584)"/>
</g>
</g>
<path id="Vector_11" d="M2.50028 146.253C1.84353 146.253 1.18753 145.995 0.696828 145.484C-0.259472 144.488 -0.227472 142.906 0.768628 141.949C32.2786 111.694 40.9129 79.075 44.1634 66.7952C46.8534 56.6316 46.5226 36.7241 46.3448 26.0293C46.3097 23.9077 46.2792 22.0757 46.2792 20.7393C46.2792 19.3587 47.3986 18.2393 48.7792 18.2393C50.1598 18.2393 51.2792 19.3587 51.2792 20.7393C51.2792 22.0342 51.3092 23.8469 51.3441 25.9461C51.526 36.8831 51.8644 57.2412 48.997 68.0745C45.6483 80.7251 36.7533 114.33 4.23158 145.556C3.74683 146.021 3.12308 146.253 2.50028 146.253Z" fill="#D6633E"/>
</g>
<defs>
<radialGradient id="paint0_radial_938_24584" cx="0" cy="0" r="1" gradientUnits="userSpaceOnUse" gradientTransform="translate(24.7652 3.95948) scale(6.66375 2.92805)">
<stop stop-color="#E5CF97"/>
<stop offset="1" stop-color="#CCA133" stop-opacity="0"/>
</radialGradient>
<radialGradient id="paint1_radial_938_24584" cx="0" cy="0" r="1" gradientUnits="userSpaceOnUse" gradientTransform="translate(25.8427 12.5792) scale(6.66375 2.92805)">
<stop stop-color="#E5CF97"/>
<stop offset="1" stop-color="#CCA133" stop-opacity="0"/>
</radialGradient>
<radialGradient id="paint2_radial_938_24584" cx="0" cy="0" r="1" gradientUnits="userSpaceOnUse" gradientTransform="translate(26.9203 21.1994) scale(6.66375 2.92805)">
<stop stop-color="#E5CF97"/>
<stop offset="1" stop-color="#CCA133" stop-opacity="0"/>
</radialGradient>
<radialGradient id="paint3_radial_938_24584" cx="0" cy="0" r="1" gradientUnits="userSpaceOnUse" gradientTransform="translate(27.9977 29.8191) scale(6.66375 2.92805)">
<stop stop-color="#E5CF97"/>
<stop offset="1" stop-color="#CCA133" stop-opacity="0"/>
</radialGradient>
<radialGradient id="paint4_radial_938_24584" cx="0" cy="0" r="1" gradientUnits="userSpaceOnUse" gradientTransform="translate(28.6443 38.4388) scale(6.66375 2.92805)">
<stop stop-color="#E5CF97"/>
<stop offset="1" stop-color="#CCA133" stop-opacity="0"/>
</radialGradient>
<radialGradient id="paint5_radial_938_24584" cx="0" cy="0" r="1" gradientUnits="userSpaceOnUse" gradientTransform="translate(28.8597 47.059) scale(6.66375 2.92805)">
<stop stop-color="#E5CF97"/>
<stop offset="1" stop-color="#CCA133" stop-opacity="0"/>
</radialGradient>
</defs>
</svg>
