<svg width="128" height="61" viewBox="0 0 128 61" fill="none" xmlns="http://www.w3.org/2000/svg">
<g id="R-ICO-012402">
<g id="Actin filament">
<path id="Vector" d="M45.2192 39.8003C45.3847 39.8003 45.5485 39.8703 45.6631 40.007C45.8681 40.2521 45.8359 40.6169 45.5914 40.8214C43.8186 42.3078 40.4403 44.2201 36.5288 46.435C29.6541 50.3273 21.0987 55.1717 16.5377 60.3019C16.3259 60.5414 15.9605 60.5617 15.7216 60.3505C15.4827 60.1382 15.4612 59.7722 15.6736 59.5339C20.3616 54.2603 29.0096 49.3627 35.9583 45.4287C39.8212 43.242 43.1566 41.3535 44.8481 39.9359C44.9566 39.8444 45.0882 39.8003 45.2192 39.8003Z" fill="url(#paint0_linear_938_25569)"/>
<path id="Vector_2" d="M13.1986 34.0354C31.6174 34.0354 45.1805 36.7744 45.3363 36.8061C45.6492 36.8705 45.8508 37.1766 45.7864 37.4894C45.722 37.8023 45.4159 38.0045 45.1036 37.9401C44.9234 37.9028 26.8542 34.2591 4.10153 35.4213C3.81633 35.4699 3.51083 35.1931 3.49443 34.8735C3.47803 34.555 3.72373 34.2828 4.04283 34.267C7.19483 34.1043 10.2591 34.0354 13.1986 34.0354Z" fill="url(#paint1_linear_938_25569)"/>
<path id="Vector_3" d="M4.07195 18.0619C4.21425 18.0619 4.35715 18.1139 4.46895 18.22C8.85995 22.3608 42.5377 33.3475 45.2977 33.7247C45.6145 33.7676 45.8359 34.059 45.793 34.3753C45.7501 34.6916 45.4558 34.9231 45.1418 34.87C42.2921 34.4815 8.34945 23.4689 3.67495 19.0604C3.44285 18.8413 3.43215 18.4753 3.65125 18.2438C3.76475 18.1229 3.91835 18.0619 4.07195 18.0619Z" fill="url(#paint2_linear_938_25569)"/>
<path id="Vector_4" d="M44.574 24.4063C44.6745 24.4063 44.7756 24.4323 44.8677 24.4865C45.141 24.6491 45.2331 25.0004 45.0721 25.2749C44.5514 26.1593 42.4358 26.8878 37.7004 28.4511C29.9311 31.0151 18.1905 34.8904 12.0008 41.5499C11.7811 41.7826 11.4157 41.7961 11.1836 41.5793C10.9498 41.3613 10.9362 40.9965 11.1537 40.7615C17.5456 33.8851 29.4562 29.9544 37.3378 27.352C40.4874 26.3129 43.7443 25.2376 44.0747 24.6875C44.1837 24.5069 44.3769 24.4063 44.574 24.4063Z" fill="url(#paint3_linear_938_25569)"/>
<path id="Vector_5" d="M44.2619 17.5333C44.4025 17.5333 44.5234 17.5378 44.6256 17.5469C44.9436 17.5763 45.1779 17.8575 45.1491 18.1749C45.1197 18.4934 44.8391 18.7238 44.5205 18.699C41.4539 18.4223 18.1658 22.9392 9.76798 30.6435C9.53478 30.8592 9.16708 30.8446 8.95078 30.6085C8.73508 30.3736 8.75088 30.0076 8.98638 29.7919C17.5147 21.9666 39.9088 17.5333 44.2619 17.5333Z" fill="url(#paint4_linear_938_25569)"/>
<path id="Vector_6" d="M9.37797 4.53162C9.47057 4.53162 9.56487 4.55422 9.65247 4.60162L9.83597 4.70102C33.795 17.6643 42.3019 20.3853 45.2199 20.3853C45.5395 20.3853 45.7982 20.644 45.7982 20.9636C45.7982 21.2832 45.5395 21.5419 45.2199 21.5419C40.7815 21.5419 28.6913 16.2174 9.28527 5.71762L9.10227 5.61822C8.82107 5.46682 8.71667 5.11562 8.86857 4.83432C8.97357 4.64122 9.17237 4.53162 9.37797 4.53162Z" fill="url(#paint5_linear_938_25569)"/>
<path id="Vector_7" d="M44.5733 28.8024C44.7269 28.8024 44.8805 28.8634 44.9946 28.9843C45.2132 29.217 45.2024 29.5829 44.9698 29.8021C44.8354 29.9286 31.2966 42.5836 10.4539 55.2374C10.1794 55.4 9.82482 55.3142 9.65992 55.0431C9.49392 54.7698 9.58082 54.414 9.85422 54.2479C30.5862 41.6618 44.0437 29.0848 44.177 28.9595C44.2887 28.8543 44.431 28.8024 44.5733 28.8024Z" fill="url(#paint6_linear_938_25569)"/>
<path id="Vector_8" d="M44.5732 22.8499C44.8008 22.8499 45.0171 22.9854 45.1086 23.2091C45.2295 23.505 45.0877 23.8428 44.7923 23.9636C23.5842 32.6337 7.8367 28.1416 0.336803 24.6899C0.0465033 24.5566 -0.0805967 24.2132 0.0533033 23.923C0.187103 23.6327 0.530503 23.5051 0.820203 23.6395C8.1495 27.0111 23.5509 31.3992 44.3541 22.8929C44.4258 22.8634 44.5003 22.8499 44.5732 22.8499Z" fill="url(#paint7_linear_938_25569)"/>
<path id="Vector_9" d="M44.574 43.1409C44.8327 43.1409 45.0682 43.316 45.1342 43.578C45.2121 43.8875 45.0246 44.2015 44.7146 44.2794C27.9437 48.5083 5.67614 50.9187 2.25714 49.9259C1.95044 49.8355 1.77484 49.5148 1.86404 49.2087C1.95274 48.9026 2.27294 48.7332 2.58124 48.8145C5.46604 49.6628 27.1236 47.5223 44.4321 43.1591C44.4796 43.1466 44.5271 43.1409 44.574 43.1409Z" fill="url(#paint8_linear_938_25569)"/>
<path id="Vector_10" d="M44.5737 38.8922C44.8679 38.8922 45.1193 39.1158 45.1486 39.414C45.1797 39.7325 44.9476 40.0149 44.6296 40.0465C39.3068 40.5672 35.8398 41.6188 32.7811 42.5472C27.9869 44.0009 24.5239 45.0524 17.5955 42.6071C17.2945 42.5009 17.1364 42.17 17.2425 41.8695C17.3487 41.5668 17.6796 41.4098 17.9806 41.516C24.5504 43.8337 27.6921 42.8816 32.445 41.4403C35.4015 40.5435 39.0803 39.4275 44.5166 38.8944C44.5358 38.8933 44.555 38.8922 44.5737 38.8922Z" fill="url(#paint9_linear_938_25569)"/>
</g>
<g id="Adjacent membrane">
<path id="Vector_11" d="M48.6458 47.3996H47.4677C45.399 47.3996 43.7065 45.7071 43.7065 43.6384V16.953C43.7065 14.8843 45.399 13.1918 47.4677 13.1918H48.6458C50.7145 13.1918 52.407 14.8843 52.407 16.953V43.6384C52.407 45.7071 50.7144 47.3996 48.6458 47.3996Z" fill="url(#paint10_linear_938_25569)"/>
<path id="Vector_12" d="M43.7065 20.6959V17.5421C43.7065 15.1495 45.6641 13.1918 48.0568 13.1918C50.4494 13.1918 52.4071 15.1494 52.4071 17.5421V20.6959" fill="url(#paint11_radial_938_25569)"/>
<path id="Vector_13" d="M43.7065 39.8956V43.0494C43.7065 45.442 45.6641 47.3997 48.0568 47.3997C50.4494 47.3997 52.4071 45.4421 52.4071 43.0494V39.8956" fill="url(#paint12_radial_938_25569)"/>
</g>
<g id="Cadherins">
<path id="Vector_14" d="M76.1646 19.886H52.4066C51.7679 19.886 51.25 19.3687 51.25 18.7294C51.25 18.0901 51.7679 17.5728 52.4066 17.5728H76.1646C76.8033 17.5728 77.3212 18.0901 77.3212 18.7294C77.3212 19.3687 76.8034 19.886 76.1646 19.886Z" fill="url(#paint13_linear_938_25569)"/>
<path id="Vector_15" d="M76.1646 24.5125H52.4066C51.7679 24.5125 51.25 23.9952 51.25 23.3559C51.25 22.7166 51.7679 22.1993 52.4066 22.1993H76.1646C76.8033 22.1993 77.3212 22.7166 77.3212 23.3559C77.3212 23.9952 76.8034 24.5125 76.1646 24.5125Z" fill="url(#paint14_linear_938_25569)"/>
<path id="Vector_16" d="M76.1646 29.1389H52.4066C51.7679 29.1389 51.25 28.6216 51.25 27.9823C51.25 27.343 51.7679 26.8257 52.4066 26.8257H76.1646C76.8033 26.8257 77.3212 27.343 77.3212 27.9823C77.3212 28.6216 76.8034 29.1389 76.1646 29.1389Z" fill="url(#paint15_linear_938_25569)"/>
<path id="Vector_17" d="M76.1646 33.7654H52.4066C51.7679 33.7654 51.25 33.2481 51.25 32.6088C51.25 31.9695 51.7679 31.4522 52.4066 31.4522H76.1646C76.8033 31.4522 77.3212 31.9695 77.3212 32.6088C77.3212 33.2481 76.8034 33.7654 76.1646 33.7654Z" fill="url(#paint16_linear_938_25569)"/>
<path id="Vector_18" d="M76.1646 38.3929H52.4066C51.7679 38.3929 51.25 37.8756 51.25 37.2363C51.25 36.597 51.7679 36.0797 52.4066 36.0797H76.1646C76.8033 36.0797 77.3212 36.597 77.3212 37.2363C77.3212 37.8756 76.8034 38.3929 76.1646 38.3929Z" fill="url(#paint17_linear_938_25569)"/>
<path id="Vector_19" d="M76.1646 43.0194H52.4066C51.7679 43.0194 51.25 42.5021 51.25 41.8628C51.25 41.2235 51.7679 40.7062 52.4066 40.7062H76.1646C76.8033 40.7062 77.3212 41.2235 77.3212 41.8628C77.3212 42.5021 76.8034 43.0194 76.1646 43.0194Z" fill="url(#paint18_linear_938_25569)"/>
</g>
<g id="Adjacent membrane_2">
<path id="Vector_20" d="M79.408 47.3996H78.2299C76.1612 47.3996 74.4688 45.7071 74.4688 43.6384V16.953C74.4688 14.8843 76.1612 13.1918 78.2299 13.1918H79.408C81.4767 13.1918 83.1692 14.8843 83.1692 16.953V43.6384C83.1692 45.7071 81.4767 47.3996 79.408 47.3996Z" fill="url(#paint19_linear_938_25569)"/>
<path id="Vector_21" d="M74.4688 39.8956V43.0494C74.4688 45.442 76.4263 47.3997 78.819 47.3997C81.2116 47.3997 83.1693 45.4421 83.1693 43.0494V39.8956" fill="url(#paint20_radial_938_25569)"/>
<path id="Vector_22" d="M74.4688 20.6959V17.5421C74.4688 15.1495 76.4263 13.1918 78.819 13.1918C81.2116 13.1918 83.1693 15.1494 83.1693 17.5421V20.6959" fill="url(#paint21_radial_938_25569)"/>
</g>
<g id="Actin filament_2">
<path id="Vector_23" d="M81.9094 20.6959C81.7439 20.6959 81.5802 20.6259 81.4655 20.4892C81.2605 20.2441 81.2927 19.8793 81.5372 19.6748C83.31 18.1884 86.6883 16.2761 90.5998 14.0612C97.4745 10.1689 106.03 5.3245 110.591 0.194299C110.803 -0.0452007 111.168 -0.0655007 111.407 0.145699C111.646 0.357999 111.667 0.723999 111.455 0.962299C106.767 6.2359 98.119 11.1335 91.1703 15.0675C87.3074 17.2542 83.972 19.1427 82.2806 20.5603C82.172 20.6518 82.0404 20.6959 81.9094 20.6959Z" fill="url(#paint22_linear_938_25569)"/>
<path id="Vector_24" d="M113.93 26.4609C95.5111 26.4609 81.948 23.7219 81.7922 23.6902C81.4793 23.6258 81.2777 23.3197 81.3421 23.0069C81.4065 22.694 81.7126 22.4918 82.0249 22.5562C82.2051 22.5935 100.274 26.2372 123.027 25.075C123.312 25.0264 123.618 25.3032 123.634 25.6228C123.65 25.9413 123.405 26.2135 123.086 26.2293C119.934 26.392 116.869 26.4609 113.93 26.4609Z" fill="url(#paint23_linear_938_25569)"/>
<path id="Vector_25" d="M123.056 42.4343C122.914 42.4343 122.771 42.3823 122.659 42.2762C118.268 38.1354 84.5906 27.1488 81.8307 26.7715C81.5139 26.7286 81.2925 26.4372 81.3354 26.1209C81.3783 25.8046 81.6726 25.5731 81.9866 25.6262C84.8363 26.0147 118.779 37.0274 123.453 41.4359C123.686 41.655 123.696 42.021 123.477 42.2525C123.364 42.3733 123.21 42.4343 123.056 42.4343Z" fill="url(#paint24_linear_938_25569)"/>
<path id="Vector_26" d="M82.5549 36.0899C82.4544 36.0899 82.3533 36.0639 82.2612 36.0097C81.9879 35.8471 81.8958 35.4958 82.0568 35.2213C82.5775 34.3369 84.6931 33.6084 89.4285 32.0451C97.1978 29.4811 108.938 25.6058 115.128 18.9463C115.348 18.7136 115.713 18.7001 115.945 18.9169C116.179 19.1349 116.193 19.4997 115.975 19.7347C109.583 26.6111 97.6727 30.5418 89.7911 33.1442C86.6415 34.1833 83.3846 35.2586 83.0542 35.8087C82.9451 35.9894 82.752 36.0899 82.5549 36.0899Z" fill="url(#paint25_linear_938_25569)"/>
<path id="Vector_27" d="M82.8662 42.9629C82.7256 42.9629 82.6047 42.9584 82.5025 42.9493C82.1845 42.9199 81.9502 42.6387 81.979 42.3213C82.0084 42.0028 82.2891 41.7724 82.6076 41.7972C85.6742 42.0739 108.962 37.557 117.36 29.8527C117.593 29.637 117.961 29.6516 118.177 29.8877C118.393 30.1226 118.377 30.4886 118.142 30.7043C109.613 38.5296 87.2193 42.9629 82.8662 42.9629Z" fill="url(#paint26_linear_938_25569)"/>
<path id="Vector_28" d="M117.75 55.9646C117.658 55.9646 117.563 55.942 117.476 55.8946L117.292 55.7952C93.3333 42.8319 84.8264 40.1109 81.9084 40.1109C81.5888 40.1109 81.3301 39.8522 81.3301 39.5326C81.3301 39.213 81.5888 38.9543 81.9084 38.9543C86.3468 38.9543 98.437 44.2788 117.843 54.7786L118.026 54.878C118.307 55.0294 118.412 55.3806 118.26 55.6619C118.155 55.8551 117.956 55.9646 117.75 55.9646Z" fill="url(#paint27_linear_938_25569)"/>
<path id="Vector_29" d="M82.5554 31.6939C82.4018 31.6939 82.2482 31.6329 82.1341 31.512C81.9155 31.2793 81.9263 30.9134 82.1589 30.6942C82.2933 30.5677 95.8321 17.9127 116.675 5.2589C116.949 5.0963 117.304 5.1821 117.469 5.4532C117.635 5.7265 117.548 6.0823 117.275 6.2484C96.5426 18.8345 83.0852 31.4115 82.9519 31.5369C82.8401 31.6419 82.6978 31.6939 82.5554 31.6939Z" fill="url(#paint28_linear_938_25569)"/>
<path id="Vector_30" d="M82.5551 37.6463C82.3275 37.6463 82.1112 37.5108 82.0197 37.2871C81.8988 36.9912 82.0406 36.6534 82.336 36.5326C103.544 27.8625 119.292 32.3546 126.792 35.8063C127.082 35.9396 127.209 36.283 127.075 36.5732C126.941 36.8635 126.598 36.9911 126.308 36.8567C118.979 33.4851 103.577 29.097 82.7742 37.6033C82.7025 37.6328 82.628 37.6463 82.5551 37.6463Z" fill="url(#paint29_linear_938_25569)"/>
<path id="Vector_31" d="M82.5544 17.3553C82.2957 17.3553 82.0602 17.1802 81.9942 16.9182C81.9163 16.6087 82.1038 16.2947 82.4138 16.2168C99.1847 11.9879 121.452 9.5776 124.871 10.5704C125.178 10.6608 125.354 10.9815 125.264 11.2876C125.176 11.5937 124.855 11.7631 124.547 11.6818C121.662 10.8335 100.005 12.974 82.6963 17.3372C82.6487 17.3496 82.6013 17.3553 82.5544 17.3553Z" fill="url(#paint30_linear_938_25569)"/>
<path id="Vector_32" d="M82.5547 21.604C82.2605 21.604 82.0091 21.3804 81.9798 21.0822C81.9487 20.7637 82.1809 20.4813 82.4988 20.4497C87.8216 19.929 91.2886 18.8774 94.3473 17.949C99.1415 16.4953 102.605 15.4438 109.533 17.8891C109.834 17.9953 109.992 18.3262 109.886 18.6267C109.78 18.9294 109.449 19.0864 109.148 18.9802C102.578 16.6625 99.4363 17.6146 94.6834 19.0559C91.7269 19.9527 88.0481 21.0687 82.6118 21.6018C82.5925 21.6029 82.5733 21.604 82.5547 21.604Z" fill="url(#paint31_linear_938_25569)"/>
</g>
</g>
<defs>
<linearGradient id="paint0_linear_938_25569" x1="15.4172" y1="59.8354" x2="45.1276" y2="39.8116" gradientUnits="userSpaceOnUse">
<stop stop-color="#20C7E3"/>
<stop offset="1" stop-color="#072C33"/>
</linearGradient>
<linearGradient id="paint1_linear_938_25569" x1="3.45363" y1="34.1954" x2="45.7466" y2="36.9427" gradientUnits="userSpaceOnUse">
<stop stop-color="#20C7E3"/>
<stop offset="1" stop-color="#072C33"/>
</linearGradient>
<linearGradient id="paint2_linear_938_25569" x1="3.48395" y1="18.7534" x2="45.5521" y2="35.2338" gradientUnits="userSpaceOnUse">
<stop stop-color="#20C7E3"/>
<stop offset="1" stop-color="#072C33"/>
</linearGradient>
<linearGradient id="paint3_linear_938_25569" x1="10.7746" y1="40.5923" x2="44.5332" y2="24.0383" gradientUnits="userSpaceOnUse">
<stop stop-color="#20C7E3"/>
<stop offset="1" stop-color="#072C33"/>
</linearGradient>
<linearGradient id="paint4_linear_938_25569" x1="8.74838" y1="29.2256" x2="44.4588" y2="16.8643" gradientUnits="userSpaceOnUse">
<stop stop-color="#20C7E3"/>
<stop offset="1" stop-color="#072C33"/>
</linearGradient>
<linearGradient id="paint5_linear_938_25569" x1="8.69507" y1="5.38892" x2="45.4175" y2="21.7983" gradientUnits="userSpaceOnUse">
<stop stop-color="#20C7E3"/>
<stop offset="1" stop-color="#072C33"/>
</linearGradient>
<linearGradient id="paint6_linear_938_25569" x1="9.93652" y1="55.5717" x2="45.2132" y2="29.3311" gradientUnits="userSpaceOnUse">
<stop stop-color="#20C7E3"/>
<stop offset="1" stop-color="#072C33"/>
</linearGradient>
<linearGradient id="paint7_linear_938_25569" x1="0.272003" y1="26.4883" x2="44.8738" y2="25.6209" gradientUnits="userSpaceOnUse">
<stop stop-color="#20C7E3"/>
<stop offset="1" stop-color="#072C33"/>
</linearGradient>
<linearGradient id="paint8_linear_938_25569" x1="2.10574" y1="50.0504" x2="45.1895" y2="44.2673" gradientUnits="userSpaceOnUse">
<stop stop-color="#20C7E3"/>
<stop offset="1" stop-color="#072C33"/>
</linearGradient>
<linearGradient id="paint9_linear_938_25569" x1="17.1561" y1="42.9693" x2="45.0593" y2="40.6561" gradientUnits="userSpaceOnUse">
<stop stop-color="#20C7E3"/>
<stop offset="1" stop-color="#072C33"/>
</linearGradient>
<linearGradient id="paint10_linear_938_25569" x1="43.6646" y1="30.2957" x2="51.9895" y2="30.2957" gradientUnits="userSpaceOnUse">
<stop stop-color="#AD3753"/>
<stop offset="0.0369" stop-color="#BE4965"/>
<stop offset="0.0928" stop-color="#D05D78"/>
<stop offset="0.1564" stop-color="#DD6B86"/>
<stop offset="0.234" stop-color="#E5738F"/>
<stop offset="0.3645" stop-color="#E77691"/>
<stop offset="0.5577" stop-color="#E4748F"/>
<stop offset="0.6744" stop-color="#DC6E88"/>
<stop offset="0.7707" stop-color="#CE637C"/>
<stop offset="0.8559" stop-color="#B9546C"/>
<stop offset="0.9331" stop-color="#9F4057"/>
<stop offset="1" stop-color="#822A3F"/>
</linearGradient>
<radialGradient id="paint11_radial_938_25569" cx="0" cy="0" r="1" gradientTransform="matrix(0.0355354 6.7048 -4.65179 0.0248078 47.9336 19.8933)" gradientUnits="userSpaceOnUse">
<stop offset="0.3645" stop-color="#E77691"/>
<stop offset="0.5577" stop-color="#E4748F"/>
<stop offset="0.6744" stop-color="#DC6E88"/>
<stop offset="0.7707" stop-color="#CE637C"/>
<stop offset="0.8559" stop-color="#B9546C"/>
<stop offset="0.9331" stop-color="#9F4057"/>
<stop offset="1" stop-color="#822A3F"/>
</radialGradient>
<radialGradient id="paint12_radial_938_25569" cx="0" cy="0" r="1" gradientTransform="matrix(0.0355354 -6.7048 -4.65179 -0.0248078 47.9285 40.6945)" gradientUnits="userSpaceOnUse">
<stop offset="0.3645" stop-color="#E77691"/>
<stop offset="0.5577" stop-color="#E4748F"/>
<stop offset="0.6744" stop-color="#DC6E88"/>
<stop offset="0.7707" stop-color="#CE637C"/>
<stop offset="0.8559" stop-color="#B9546C"/>
<stop offset="0.9331" stop-color="#9F4057"/>
<stop offset="1" stop-color="#822A3F"/>
</radialGradient>
<linearGradient id="paint13_linear_938_25569" x1="64.2857" y1="17.5728" x2="64.2857" y2="19.886" gradientUnits="userSpaceOnUse">
<stop stop-color="#20C7E3"/>
<stop offset="1" stop-color="#072C33"/>
</linearGradient>
<linearGradient id="paint14_linear_938_25569" x1="64.2857" y1="22.1993" x2="64.2857" y2="24.5125" gradientUnits="userSpaceOnUse">
<stop stop-color="#20C7E3"/>
<stop offset="1" stop-color="#072C33"/>
</linearGradient>
<linearGradient id="paint15_linear_938_25569" x1="64.2857" y1="26.8257" x2="64.2857" y2="29.1389" gradientUnits="userSpaceOnUse">
<stop stop-color="#20C7E3"/>
<stop offset="1" stop-color="#072C33"/>
</linearGradient>
<linearGradient id="paint16_linear_938_25569" x1="64.2857" y1="31.4521" x2="64.2857" y2="33.7654" gradientUnits="userSpaceOnUse">
<stop stop-color="#20C7E3"/>
<stop offset="1" stop-color="#072C33"/>
</linearGradient>
<linearGradient id="paint17_linear_938_25569" x1="64.2857" y1="36.0797" x2="64.2857" y2="38.3929" gradientUnits="userSpaceOnUse">
<stop stop-color="#20C7E3"/>
<stop offset="1" stop-color="#072C33"/>
</linearGradient>
<linearGradient id="paint18_linear_938_25569" x1="64.2857" y1="40.7062" x2="64.2857" y2="43.0194" gradientUnits="userSpaceOnUse">
<stop stop-color="#20C7E3"/>
<stop offset="1" stop-color="#072C33"/>
</linearGradient>
<linearGradient id="paint19_linear_938_25569" x1="74.427" y1="30.2957" x2="82.7517" y2="30.2957" gradientUnits="userSpaceOnUse">
<stop stop-color="#AD3753"/>
<stop offset="0.0369" stop-color="#BE4965"/>
<stop offset="0.0928" stop-color="#D05D78"/>
<stop offset="0.1564" stop-color="#DD6B86"/>
<stop offset="0.234" stop-color="#E5738F"/>
<stop offset="0.3645" stop-color="#E77691"/>
<stop offset="0.5577" stop-color="#E4748F"/>
<stop offset="0.6744" stop-color="#DC6E88"/>
<stop offset="0.7707" stop-color="#CE637C"/>
<stop offset="0.8559" stop-color="#B9546C"/>
<stop offset="0.9331" stop-color="#9F4057"/>
<stop offset="1" stop-color="#822A3F"/>
</linearGradient>
<radialGradient id="paint20_radial_938_25569" cx="0" cy="0" r="1" gradientTransform="matrix(0.0355354 -6.7048 -4.65179 -0.0248078 78.691 40.6941)" gradientUnits="userSpaceOnUse">
<stop offset="0.3645" stop-color="#E77691"/>
<stop offset="0.5577" stop-color="#E4748F"/>
<stop offset="0.6744" stop-color="#DC6E88"/>
<stop offset="0.7707" stop-color="#CE637C"/>
<stop offset="0.8559" stop-color="#B9546C"/>
<stop offset="0.9331" stop-color="#9F4057"/>
<stop offset="1" stop-color="#822A3F"/>
</radialGradient>
<radialGradient id="paint21_radial_938_25569" cx="0" cy="0" r="1" gradientTransform="matrix(0.0355354 6.7048 -4.65179 0.0248078 78.696 19.8937)" gradientUnits="userSpaceOnUse">
<stop offset="0.3645" stop-color="#E77691"/>
<stop offset="0.5577" stop-color="#E4748F"/>
<stop offset="0.6744" stop-color="#DC6E88"/>
<stop offset="0.7707" stop-color="#CE637C"/>
<stop offset="0.8559" stop-color="#B9546C"/>
<stop offset="0.9331" stop-color="#9F4057"/>
<stop offset="1" stop-color="#822A3F"/>
</radialGradient>
<linearGradient id="paint22_linear_938_25569" x1="111.711" y1="0.660799" x2="82.0008" y2="20.6846" gradientUnits="userSpaceOnUse">
<stop stop-color="#20C7E3"/>
<stop offset="1" stop-color="#072C33"/>
</linearGradient>
<linearGradient id="paint23_linear_938_25569" x1="123.675" y1="26.3007" x2="81.3819" y2="23.5535" gradientUnits="userSpaceOnUse">
<stop stop-color="#20C7E3"/>
<stop offset="1" stop-color="#072C33"/>
</linearGradient>
<linearGradient id="paint24_linear_938_25569" x1="123.644" y1="41.7427" x2="81.5762" y2="25.2624" gradientUnits="userSpaceOnUse">
<stop stop-color="#20C7E3"/>
<stop offset="1" stop-color="#072C33"/>
</linearGradient>
<linearGradient id="paint25_linear_938_25569" x1="116.354" y1="19.9038" x2="82.5956" y2="36.4578" gradientUnits="userSpaceOnUse">
<stop stop-color="#20C7E3"/>
<stop offset="1" stop-color="#072C33"/>
</linearGradient>
<linearGradient id="paint26_linear_938_25569" x1="118.38" y1="31.2706" x2="82.6693" y2="43.6318" gradientUnits="userSpaceOnUse">
<stop stop-color="#20C7E3"/>
<stop offset="1" stop-color="#072C33"/>
</linearGradient>
<linearGradient id="paint27_linear_938_25569" x1="118.433" y1="55.1073" x2="81.7108" y2="38.6978" gradientUnits="userSpaceOnUse">
<stop stop-color="#20C7E3"/>
<stop offset="1" stop-color="#072C33"/>
</linearGradient>
<linearGradient id="paint28_linear_938_25569" x1="117.192" y1="4.9244" x2="81.9155" y2="31.165" gradientUnits="userSpaceOnUse">
<stop stop-color="#20C7E3"/>
<stop offset="1" stop-color="#072C33"/>
</linearGradient>
<linearGradient id="paint29_linear_938_25569" x1="126.856" y1="34.0078" x2="82.2545" y2="34.8753" gradientUnits="userSpaceOnUse">
<stop stop-color="#20C7E3"/>
<stop offset="1" stop-color="#072C33"/>
</linearGradient>
<linearGradient id="paint30_linear_938_25569" x1="125.023" y1="10.4458" x2="81.9388" y2="16.2288" gradientUnits="userSpaceOnUse">
<stop stop-color="#20C7E3"/>
<stop offset="1" stop-color="#072C33"/>
</linearGradient>
<linearGradient id="paint31_linear_938_25569" x1="109.972" y1="17.5269" x2="82.0689" y2="19.8401" gradientUnits="userSpaceOnUse">
<stop stop-color="#20C7E3"/>
<stop offset="1" stop-color="#072C33"/>
</linearGradient>
</defs>
</svg>
