<svg width="34" height="52" viewBox="0 0 34 52" fill="none" xmlns="http://www.w3.org/2000/svg">
<g id="R-ICO-013968">
<g id="Tracheal cartilages BOTTOM">
<path id="Vector" d="M14.8615 1.39062C12.4913 1.39062 10.771 2.13432 10.771 3.15897C10.771 4.18363 12.4913 4.92722 14.8615 4.92722C17.2316 4.92722 18.9519 4.18353 18.9519 3.15897C18.9519 2.13432 17.2316 1.39062 14.8615 1.39062Z" fill="url(#paint0_linear_938_24544)"/>
<path id="Vector_2" d="M14.7539 5.11475C12.3833 5.11475 10.6626 5.85844 10.6626 6.88309C10.6626 7.90775 12.3832 8.65134 14.7539 8.65134C17.1245 8.65134 18.8451 7.90765 18.8451 6.88309C18.8452 5.85844 17.1245 5.11475 14.7539 5.11475Z" fill="url(#paint1_linear_938_24544)"/>
<path id="Vector_3" d="M14.6693 8.46631C12.2882 8.46631 10.5601 9.21 10.5601 10.2347C10.5601 11.2593 12.2882 12.0029 14.6693 12.0029C17.0503 12.0029 18.7785 11.2592 18.7785 10.2347C18.7785 9.21 17.0503 8.46631 14.6693 8.46631Z" fill="url(#paint2_linear_938_24544)"/>
<path id="Vector_4" d="M14.6565 12.5627C12.2598 12.5627 10.5203 13.3064 10.5203 14.3311C10.5203 15.3557 12.2598 16.0993 14.6565 16.0993C17.0532 16.0993 18.7927 15.3556 18.7927 14.3311C18.7927 13.3064 17.0532 12.5627 14.6565 12.5627Z" fill="url(#paint3_linear_938_24544)"/>
<path id="Vector_5" d="M14.689 16.2866C12.2738 16.2866 10.521 17.0303 10.521 18.055C10.521 19.0796 12.2739 19.8232 14.689 19.8232C17.104 19.8232 18.8569 19.0795 18.8569 18.055C18.8569 17.0303 17.1041 16.2866 14.689 16.2866Z" fill="url(#paint4_linear_938_24544)"/>
<path id="Vector_6" d="M14.7281 19.6382C12.2974 19.6382 10.5332 20.3819 10.5332 21.4065C10.5332 22.4311 12.2974 23.1748 14.7281 23.1748C17.1588 23.1748 18.923 22.4311 18.923 21.4065C18.923 20.3819 17.1588 19.6382 14.7281 19.6382Z" fill="url(#paint5_linear_938_24544)"/>
<path id="Vector_7" d="M14.7584 23.3623C12.3182 23.3623 10.5471 24.106 10.5471 25.1307C10.5471 26.1552 12.3182 26.8989 14.7584 26.8989C17.1985 26.8989 18.9696 26.1552 18.9696 25.1307C18.9696 24.106 17.1985 23.3623 14.7584 23.3623Z" fill="url(#paint6_linear_938_24544)"/>
<path id="Vector_8" d="M14.7241 26.7139C12.2715 26.7139 10.4915 27.4576 10.4915 28.4822C10.4915 29.5068 12.2715 30.2505 14.7241 30.2505C17.1765 30.2505 18.9566 29.5068 18.9566 28.4822C18.9566 27.4576 17.1765 26.7139 14.7241 26.7139Z" fill="url(#paint7_linear_938_24544)"/>
<path id="Vector_9" d="M14.5856 30.4377C12.166 30.4377 10.4099 31.1814 10.4099 32.2061C10.4099 33.2306 12.166 33.9743 14.5856 33.9743C17.0052 33.9743 18.7613 33.2306 18.7613 32.2061C18.7612 31.1814 17.0051 30.4377 14.5856 30.4377Z" fill="url(#paint8_linear_938_24544)"/>
<path id="Vector_10" d="M14.5591 33.7896C12.1504 33.7896 10.4021 34.5332 10.4021 35.5579C10.4021 36.5825 12.1504 37.3262 14.5591 37.3262C16.9679 37.3262 18.7161 36.5825 18.7161 35.5579C18.7161 34.5332 16.9679 33.7896 14.5591 33.7896Z" fill="url(#paint9_radial_938_24544)"/>
<path id="Vector_11" d="M6.80093 45.5586C5.7671 43.9847 4.15704 42.6479 3.20946 43.2703C2.26188 43.8927 2.84936 45.9013 3.88319 47.4752C4.91702 49.0491 6.52708 50.3859 7.47466 49.7635C8.42224 49.1411 7.83476 47.1325 6.80093 45.5586Z" fill="url(#paint10_linear_938_24544)"/>
<path id="Vector_12" d="M9.66017 43.772C8.61045 42.174 6.98362 40.8116 6.03604 41.434C5.08846 42.0564 5.69281 44.0906 6.74243 45.6886C7.79215 47.2866 9.41899 48.6491 10.3666 48.0267C11.3141 47.4043 10.7099 45.37 9.66017 43.772Z" fill="url(#paint11_linear_938_24544)"/>
<path id="Vector_13" d="M14.6802 37.7985C12.8156 37.136 10.6292 37.0084 10.2496 38.0767C9.87006 39.145 11.6469 40.4254 13.5115 41.0879L14.6802 37.7985Z" fill="url(#paint12_radial_938_24544)"/>
<path id="Vector_14" d="M14.4574 40.9746C13.7569 43.1258 13.5942 45.6014 14.6721 45.9524C15.7502 46.3035 17.0762 44.2067 17.7767 42.0556C18.4771 39.9044 18.6399 37.4288 17.5619 37.0778C16.484 36.7267 15.1579 38.8234 14.4574 40.9746Z" fill="url(#paint13_radial_938_24544)"/>
<path id="Vector_15" d="M12.377 42.1563C11.2907 40.5024 9.62479 39.0806 8.67721 39.703C7.72963 40.3254 8.37296 42.4189 9.45929 44.0728C10.5456 45.7267 12.2115 47.1485 13.1591 46.5261C14.1067 45.9037 13.4635 43.8102 12.377 42.1563Z" fill="url(#paint14_linear_938_24544)"/>
<path id="Vector_16" d="M22.1754 43.8334C21.5588 45.7269 21.4852 47.9286 22.5632 48.2797C23.6412 48.6307 24.8782 46.8078 25.4947 44.9143C26.1112 43.0208 26.1849 40.819 25.1068 40.468C24.0289 40.117 22.792 41.9399 22.1754 43.8334Z" fill="url(#paint15_linear_938_24544)"/>
<path id="Vector_17" d="M17.5199 42.0573C16.8948 43.9768 16.8122 46.2063 17.8901 46.5573C18.9682 46.9084 20.2141 45.0577 20.8392 43.1382C21.4642 41.2186 21.5468 38.9891 20.4689 38.6381C19.3908 38.287 18.1449 40.1376 17.5199 42.0573Z" fill="url(#paint16_linear_938_24544)"/>
<path id="Vector_18" d="M26.5513 45.2549C25.9496 47.1028 25.8918 49.256 26.9698 49.6071C28.0479 49.9581 29.269 48.1836 29.8707 46.3358C30.4724 44.488 30.5302 42.3347 29.4521 41.9837C28.3742 41.6326 27.1531 43.407 26.5513 45.2549Z" fill="url(#paint17_linear_938_24544)"/>
</g>
<g id="TRACHEA">
<path id="BG" d="M32.8282 44.5745C31.3057 42.5141 26.3551 41.4341 23.9212 40.4562C22.7636 39.991 21.4334 39.633 20.3559 38.9959C17.3071 37.1931 18.441 32.9938 18.5161 29.9962C18.7098 22.2875 18.194 14.6032 18.44 6.89517C18.4713 5.90831 18.5687 3.56166 18.5338 2.17237C18.5301 2.03421 18.5978 1.56673 18.5978 1.44002C18.5978 0.644713 16.9298 0 14.8721 0C12.8143 0 11.1461 0.644713 11.1461 1.44002C11.1461 1.60246 11.1661 2.0124 11.1656 2.04052C11.1091 5.20942 10.9433 9.36606 10.9306 12.5421C10.9155 16.3067 10.9278 20.0714 10.9511 23.8358C10.9756 27.8117 10.7506 31.8028 10.8168 35.7674C10.8506 37.7964 10.8775 38.6792 9.19359 39.8522C7.80774 40.8177 6.34986 41.6917 4.93342 42.6124C4.00203 43.2178 3.0435 43.8433 2.11566 44.4508C-1.24459 46.6507 -0.300268 49.5053 2.83379 51.0922C4.44543 51.9084 7.12524 49.4167 8.82529 48.4563C10.4366 47.546 12.0576 46.6219 13.74 45.8463C15.3353 45.1108 16.9809 45.7525 18.623 46.3847C22.0654 47.7099 24.5744 48.5922 28.1521 49.5267C29.578 49.8991 30.8206 50.4648 32.12 49.1963C32.8019 48.5304 33.545 45.5445 32.8282 44.5745Z" fill="url(#paint18_radial_938_24544)"/>
<path id="SHINE" opacity="0.6" d="M32.8282 44.5745C31.3057 42.5141 26.3551 41.4341 23.9212 40.4562C22.7636 39.991 21.4334 39.633 20.3559 38.9959C17.3071 37.1931 18.441 32.9938 18.5161 29.9962C18.7098 22.2875 18.194 14.6032 18.44 6.89517C18.4713 5.90831 18.5687 3.56166 18.5338 2.17237C18.5301 2.03421 18.5978 1.56673 18.5978 1.44002C18.5978 0.644713 16.9298 0 14.8721 0C12.8143 0 11.1461 0.644713 11.1461 1.44002C11.1461 1.60246 11.1661 2.0124 11.1656 2.04052C11.1091 5.20942 10.9433 9.36606 10.9306 12.5421C10.9155 16.3067 10.9278 20.0714 10.9511 23.8358C10.9756 27.8117 10.7506 31.8028 10.8168 35.7674C10.8506 37.7964 10.8775 38.6792 9.19359 39.8522C7.80774 40.8177 6.34986 41.6917 4.93342 42.6124C4.00203 43.2178 3.0435 43.8433 2.11566 44.4508C-1.24459 46.6507 -0.300268 49.5053 2.83379 51.0922C4.44543 51.9084 7.12524 49.4167 8.82529 48.4563C10.4366 47.546 12.0576 46.6219 13.74 45.8463C15.3353 45.1108 16.9809 45.7525 18.623 46.3847C22.0654 47.7099 24.5744 48.5922 28.1521 49.5267C29.578 49.8991 30.8206 50.4648 32.12 49.1963C32.8019 48.5304 33.545 45.5445 32.8282 44.5745Z" fill="url(#paint19_linear_938_24544)"/>
<path id="TEXTURE" opacity="0.5" d="M32.8282 44.5745C31.3057 42.5141 26.3551 41.4341 23.9212 40.4562C22.7636 39.991 21.4334 39.633 20.3559 38.9959C17.3071 37.1931 18.441 32.9938 18.5161 29.9962C18.7098 22.2875 18.194 14.6032 18.44 6.89517C18.4713 5.90831 18.5687 3.56166 18.5338 2.17237C18.5301 2.03421 18.5978 1.56673 18.5978 1.44002C18.5978 0.644713 16.9298 0 14.8721 0C12.8143 0 11.1461 0.644713 11.1461 1.44002C11.1461 1.60246 11.1661 2.0124 11.1656 2.04052C11.1091 5.20942 10.9433 9.36606 10.9306 12.5421C10.9155 16.3067 10.9278 20.0714 10.9511 23.8358C10.9756 27.8117 10.7506 31.8028 10.8168 35.7674C10.8506 37.7964 10.8775 38.6792 9.19359 39.8522C7.80774 40.8177 6.34986 41.6917 4.93342 42.6124C4.00203 43.2178 3.0435 43.8433 2.11566 44.4508C-1.24459 46.6507 -0.300268 49.5053 2.83379 51.0922C4.44543 51.9084 7.12524 49.4167 8.82529 48.4563C10.4366 47.546 12.0576 46.6219 13.74 45.8463C15.3353 45.1108 16.9809 45.7525 18.623 46.3847C22.0654 47.7099 24.5744 48.5922 28.1521 49.5267C29.578 49.8991 30.8206 50.4648 32.12 49.1963C32.8019 48.5304 33.545 45.5445 32.8282 44.5745Z" fill="url(#paint20_radial_938_24544)"/>
<g id="TOP">
<path id="Vector_19" d="M14.8721 2.88004C16.9299 2.88004 18.598 2.23532 18.598 1.44002C18.598 0.644719 16.9299 0 14.8721 0C12.8144 0 11.1462 0.644719 11.1462 1.44002C11.1462 2.23532 12.8144 2.88004 14.8721 2.88004Z" fill="url(#paint21_radial_938_24544)"/>
<path id="Vector_20" d="M14.8724 2.73493C16.7227 2.73493 18.2227 2.15516 18.2227 1.43997C18.2227 0.72479 16.7227 0.14502 14.8724 0.14502C13.022 0.14502 11.522 0.72479 11.522 1.43997C11.522 2.15516 13.022 2.73493 14.8724 2.73493Z" fill="url(#paint22_radial_938_24544)"/>
</g>
</g>
<g id="Tracheal cartilages TOP">
<path id="Vector_21" d="M11.9058 5.91882C12.6599 6.23994 13.7031 6.41679 14.8433 6.41679C15.932 6.41679 16.9414 6.25425 17.6852 5.95918C18.502 5.6351 18.9519 5.1696 18.9519 4.64854C18.9519 4.61508 18.9475 4.58222 18.9424 4.54955L18.941 4.54038C18.9531 4.05761 18.9542 3.62467 18.9446 3.2173C18.9423 3.11822 18.8586 3.03828 18.7541 3.03532C18.7521 3.03532 18.7501 3.03522 18.748 3.03522C18.6462 3.03522 18.5607 3.10924 18.5523 3.20605C18.5352 3.40085 18.4157 3.58786 18.197 3.76194C17.7857 4.08938 17.0703 4.33886 16.1826 4.46419C15.7577 4.52429 15.3132 4.55469 14.8615 4.55469C14.4098 4.55469 13.9652 4.52429 13.5403 4.46419C12.6397 4.33699 11.9185 4.08247 11.5097 3.74773C11.2804 3.55993 11.1641 3.36177 11.1641 3.15888C11.1641 3.05674 11.0771 2.97364 10.9693 2.97266H10.9675C10.8605 2.97266 10.7731 3.05378 10.771 3.15532C10.7611 3.65132 10.7486 4.14731 10.7344 4.64331C10.7344 5.14601 11.1504 5.5972 11.9058 5.91882Z" fill="url(#paint23_linear_938_24544)"/>
<path id="Vector_22" d="M11.39 9.44764C12.137 9.88808 13.3468 10.1407 14.7091 10.1407C16.0414 10.1407 17.2356 9.89666 17.9854 9.47103C18.5215 9.16688 18.8049 8.78694 18.8049 8.37246C18.8152 7.89058 18.8282 7.40505 18.8445 6.91932C18.8456 6.91132 18.8462 6.90313 18.8462 6.89484C18.8462 6.79201 18.7591 6.70862 18.6507 6.70862H18.6461C18.646 6.70862 18.6463 6.70862 18.6461 6.70862H18.6449C18.6448 6.70862 18.645 6.70862 18.6449 6.70862H18.6437H18.6421C18.642 6.70862 18.6422 6.70862 18.6421 6.70862H18.641H18.6399C18.6398 6.70862 18.6401 6.70862 18.6399 6.70862C18.6398 6.70862 18.6388 6.70862 18.6387 6.70862H18.6377C18.6375 6.70862 18.6379 6.70862 18.6377 6.70862C18.6375 6.70862 18.6368 6.70862 18.6366 6.70862C18.535 6.71474 18.4529 6.79389 18.4513 6.89149C18.4478 7.10475 18.3207 7.30972 18.0736 7.50077C17.66 7.82042 16.9504 8.06447 16.0758 8.18792C15.6508 8.24792 15.2063 8.27842 14.7545 8.27842C14.3029 8.27842 13.8583 8.24802 13.4331 8.18792C12.5268 8.05993 11.8032 7.80344 11.3955 7.46574C11.1704 7.27932 11.0562 7.08304 11.0562 6.88251C11.0562 6.78086 10.9702 6.69797 10.8629 6.69629C10.8618 6.69629 10.8607 6.69629 10.8596 6.69629C10.7538 6.69629 10.6666 6.77593 10.6633 6.87649L10.659 7.00083C10.6435 7.45597 10.6281 7.91111 10.6135 8.36644C10.6129 8.77619 10.8817 9.14803 11.39 9.44764Z" fill="url(#paint24_linear_938_24544)"/>
<path id="Vector_23" d="M12.3169 13.205C12.9913 13.3928 13.8 13.4922 14.6555 13.4922C15.5113 13.4922 16.3203 13.3927 16.995 13.2047C18.1284 12.8886 18.7783 12.349 18.7783 11.724C18.7783 11.7069 18.7764 11.6902 18.7737 11.6735C18.7734 11.2052 18.7746 10.7259 18.7782 10.2466C18.779 10.144 18.6921 10.0601 18.5838 10.059C18.5831 10.059 18.5824 10.059 18.5817 10.059C18.4777 10.059 18.3923 10.1356 18.3856 10.233L18.3853 10.2385V10.2425C18.3821 10.4484 18.2599 10.6484 18.022 10.8369C17.6085 11.1646 16.8893 11.4142 15.9969 11.5396C15.5698 11.5997 15.123 11.6301 14.6693 11.6301C14.2155 11.6301 13.7688 11.5996 13.3416 11.5396C12.4395 11.4128 11.7159 11.1595 11.3043 10.8263C11.0712 10.6376 10.9531 10.4385 10.9531 10.2343C10.9531 10.1323 10.8664 10.0493 10.7588 10.0481C10.758 10.0481 10.7573 10.0481 10.7565 10.0481C10.6498 10.0481 10.5625 10.1288 10.56 10.2301C10.5482 10.7272 10.5387 11.2243 10.5325 11.7217C10.5324 12.3491 11.1828 12.889 12.3169 13.205Z" fill="url(#paint25_linear_938_24544)"/>
<path id="Vector_24" d="M11.7442 17.1108C12.5005 17.4195 13.5384 17.5895 14.6666 17.5895C15.807 17.5895 16.853 17.4158 17.6122 17.1006C18.3876 16.7786 18.8146 16.3242 18.8146 15.8212C18.8062 15.3218 18.7987 14.8253 18.7924 14.3287C18.7911 14.2267 18.7035 14.1448 18.5959 14.1448H18.5947C18.4867 14.1454 18.3993 14.2286 18.3993 14.331C18.3993 14.536 18.2794 14.7358 18.0431 14.925C17.6274 15.2576 16.8985 15.5104 15.9905 15.6368C15.5612 15.6966 15.1123 15.7269 14.6562 15.7269C14.1995 15.7269 13.7501 15.6965 13.3203 15.6366C12.4203 15.5111 11.6951 15.2612 11.2784 14.9329C11.0359 14.7418 10.913 14.5394 10.913 14.331C10.913 14.2282 10.825 14.1449 10.7166 14.1448C10.6082 14.1448 10.52 14.228 10.5198 14.3306C10.5189 14.8273 10.5183 15.3239 10.5183 15.8205C10.5183 15.8271 10.5187 15.8336 10.5194 15.8401C10.537 16.3495 10.9704 16.7951 11.7442 17.1108Z" fill="url(#paint26_linear_938_24544)"/>
<path id="Vector_25" d="M10.7175 17.8703C10.609 17.8705 10.521 17.9522 10.521 18.055V18.0587L10.5252 19.5451C10.5252 19.9572 10.8111 20.3355 11.3519 20.6386C12.1164 21.0671 13.3391 21.3128 14.7062 21.3128C16.0895 21.3128 17.3206 21.0624 18.0837 20.6259C18.6093 20.3252 18.8871 19.9513 18.8871 19.5445L18.877 19.0486L18.8568 18.0513C18.8548 17.9498 18.7673 17.8687 18.6603 17.8687H18.6584C18.5506 17.8696 18.4637 17.9527 18.4637 18.0549C18.4637 18.2581 18.3442 18.4566 18.1083 18.6451C17.6902 18.9792 16.9547 19.2332 16.0373 19.3602C15.6037 19.4203 15.1499 19.4508 14.6889 19.4508C14.2278 19.4508 13.7742 19.4203 13.3404 19.3602C12.4352 19.2349 11.7051 18.9856 11.2846 18.6582C11.0397 18.4676 10.9149 18.2653 10.9141 18.0572C10.9141 18.0547 10.9141 18.0521 10.9139 18.0495V18.0484C10.9139 18.0483 10.9139 18.0485 10.9139 18.0484C10.9139 18.0483 10.9139 18.0472 10.9139 18.0471C10.9076 17.9493 10.8221 17.8703 10.7175 17.8703Z" fill="url(#paint27_linear_938_24544)"/>
<path id="Vector_26" d="M10.5412 22.8972C10.5412 23.4059 10.9825 23.8641 11.7839 24.1865C12.5501 24.4947 13.6014 24.6644 14.7441 24.6644C15.8946 24.6644 16.951 24.4924 17.719 24.18C18.5107 23.858 18.9468 23.4021 18.9468 22.8961C18.9398 22.3967 18.9316 21.9 18.9226 21.4033C18.9208 21.3016 18.8333 21.2202 18.7261 21.2202H18.7244C18.6165 21.2211 18.5295 21.3042 18.5295 21.4064C18.5295 21.6103 18.4083 21.8096 18.1692 21.9985C17.7476 22.3316 17.0076 22.5849 16.0858 22.7117C15.649 22.7718 15.1921 22.8023 14.7277 22.8023C14.2634 22.8023 13.8065 22.7718 13.3698 22.7118C12.459 22.5866 11.7241 22.3376 11.3004 22.0108C11.0539 21.8207 10.9279 21.6191 10.9259 21.4117C10.9259 21.4085 10.9258 21.4054 10.9256 21.4024C10.9256 21.4023 10.9256 21.4025 10.9256 21.4024C10.9191 21.3048 10.8338 21.2238 10.7294 21.2238C10.6211 21.2241 10.533 21.3039 10.533 21.4065C10.533 21.4071 10.533 21.4146 10.533 21.4152L10.5412 22.8972Z" fill="url(#paint28_linear_938_24544)"/>
<path id="Vector_27" d="M18.7733 24.9443C18.6649 24.9446 18.5767 25.0279 18.5767 25.1306C18.5767 25.3419 18.4481 25.5469 18.1944 25.7398C17.7588 26.071 17.0047 26.3208 16.0708 26.443C15.6478 26.4983 15.2063 26.5265 14.7585 26.5265C14.3269 26.5265 13.9024 26.5008 13.4966 26.4501C12.5342 26.3299 11.7597 26.0756 11.3156 25.734C11.0665 25.5425 10.9402 25.3395 10.9402 25.1306C10.9402 25.0279 10.8526 24.9447 10.7442 24.9444C10.6362 24.9444 10.5477 25.0271 10.5471 25.1296C10.5439 25.6321 10.5376 26.1348 10.5293 26.6376C10.5303 27.044 10.8033 27.4135 11.3188 27.711C12.0874 28.1546 13.3383 28.409 14.7507 28.409C16.1425 28.409 17.383 28.1601 18.1539 27.7262C18.6891 27.4249 18.972 27.0495 18.972 26.6406C18.972 26.6381 18.9719 26.6349 18.9718 26.6314C18.9719 26.6278 18.972 26.6243 18.972 26.6206C18.9732 26.1235 18.9722 25.6265 18.9696 25.1297C18.9693 25.0271 18.8814 24.9443 18.7733 24.9443Z" fill="url(#paint29_linear_938_24544)"/>
<path id="Vector_28" d="M11.6414 31.2578C12.4205 31.5845 13.5035 31.7644 14.6908 31.7644C15.8172 31.7644 16.8599 31.6013 17.6269 31.305C18.4643 30.9816 18.9255 30.5167 18.9255 29.9961C18.9386 29.5021 18.9488 29.0037 18.9561 28.5053V28.5027L18.9564 28.4821C18.9564 28.3798 18.8693 28.2967 18.7613 28.2959H18.7598C18.6524 28.2959 18.5648 28.3776 18.5633 28.4795L18.5632 28.4898V28.4949L18.5631 28.4975C18.5569 28.709 18.422 28.9133 18.1621 29.1047C17.7097 29.4379 16.935 29.6859 15.9808 29.8032C15.577 29.8529 15.1541 29.878 14.724 29.878C14.2759 29.878 13.8341 29.8503 13.411 29.7955C12.4591 29.6724 11.6938 29.4184 11.2562 29.0806C11.0095 28.8901 10.8844 28.6888 10.8844 28.4822C10.8844 28.3802 10.7978 28.2971 10.69 28.296H10.6878C10.5811 28.296 10.4937 28.3768 10.4913 28.4781L10.4713 29.3231L10.4559 29.9676C10.4558 29.973 10.4559 29.9782 10.4562 29.9835C10.456 29.9876 10.4558 29.9919 10.4558 29.9963C10.4559 30.4893 10.877 30.9373 11.6414 31.2578Z" fill="url(#paint30_linear_938_24544)"/>
<path id="Vector_29" d="M11.212 34.79C11.9677 35.2183 13.1753 35.464 14.5252 35.464C15.9005 35.464 17.1212 35.2111 17.8745 34.7701C18.386 34.4707 18.6564 34.0992 18.6564 33.6957C18.6756 33.2246 18.7139 32.7523 18.749 32.3525C18.7572 32.3042 18.7613 32.2549 18.7613 32.2061C18.7613 32.1063 18.6783 32.0243 18.5731 32.0201C18.5702 32.02 18.5674 32.0199 18.5646 32.0199C18.463 32.0199 18.3776 32.0936 18.3689 32.1903L18.3586 32.3058C18.3227 32.4924 18.1857 32.6732 17.9515 32.8433C17.5244 33.1536 16.8089 33.3908 15.9368 33.5113C15.5021 33.5714 15.0475 33.6018 14.5856 33.6018C14.1237 33.6018 13.6691 33.5713 13.2344 33.5113C12.3178 33.3846 11.5819 33.1317 11.1624 32.799C10.9238 32.6099 10.8029 32.4104 10.8029 32.206C10.8029 32.1037 10.7158 32.0206 10.6078 32.0198H10.6063C10.499 32.0198 10.4114 32.1014 10.4098 32.2031C10.4019 32.7005 10.3962 33.1977 10.3938 33.6947C10.394 34.1083 10.6769 34.4866 11.212 34.79Z" fill="url(#paint31_linear_938_24544)"/>
<path id="Vector_30" d="M7.47043 49.5443C7.41546 49.4611 7.30138 49.4391 7.21562 49.4955C7.03888 49.6115 6.80262 49.6252 6.51338 49.5361C6.01659 49.3831 5.42705 48.9405 4.85339 48.2898C4.59355 47.995 4.34713 47.6711 4.12104 47.3269C3.90314 46.9953 3.71031 46.6548 3.54777 46.315C3.16241 45.5092 2.98379 44.7742 3.04507 44.2455C3.07941 43.9488 3.1853 43.7403 3.35988 43.6256C3.44564 43.5693 3.471 43.4562 3.41652 43.3728C3.36195 43.2897 3.24807 43.267 3.16221 43.3228C2.74063 43.5962 2.31726 43.8674 1.89282 44.137C1.55364 44.3609 1.38271 44.7736 1.39436 45.3332C1.41173 46.1676 1.83065 47.2688 2.54375 48.3544C3.24659 49.4244 4.08088 50.2412 4.83276 50.5956C5.35481 50.8415 5.81142 50.853 6.15307 50.6285C6.15525 50.6271 6.15781 50.6252 6.16068 50.6231C6.16373 50.6214 6.16679 50.6195 6.16985 50.6175C6.58591 50.3455 7.00079 50.072 7.41477 49.797C7.50024 49.7403 7.525 49.6274 7.47043 49.5443Z" fill="url(#paint32_linear_938_24544)"/>
<path id="Vector_31" d="M10.3608 47.8053C10.305 47.7208 10.1902 47.6977 10.1044 47.7541C9.92764 47.8701 9.6904 47.8824 9.39918 47.7902C8.89904 47.6321 8.30367 47.1806 7.7228 46.5189C7.45971 46.2192 7.20984 45.89 6.98029 45.5405C6.75904 45.2037 6.56295 44.8583 6.39726 44.5137C6.00439 43.6966 5.81985 42.9525 5.87768 42.4185C5.91015 42.1189 6.01505 41.9089 6.18953 41.7942C6.27528 41.7379 6.29995 41.6238 6.24469 41.5391C6.18933 41.4548 6.07485 41.4312 5.9889 41.4869C5.56731 41.7604 5.14385 42.0315 4.7194 42.301C4.38022 42.5249 4.21147 42.9408 4.22706 43.5064C4.25035 44.3499 4.67895 45.4658 5.403 46.5681C6.1166 47.6544 6.96046 48.4858 7.71836 48.8493C8.24456 49.1015 8.70334 49.1162 9.04509 48.8918C9.04726 48.8904 9.04983 48.8886 9.05269 48.8865C9.05575 48.8847 9.05881 48.8828 9.06187 48.8809C9.47793 48.6089 9.8928 48.3353 10.3068 48.0604C10.3922 48.0036 10.4162 47.8897 10.3608 47.8053Z" fill="url(#paint33_linear_938_24544)"/>
<path id="Vector_32" d="M13.1497 46.2992C13.0919 46.2117 12.9755 46.1863 12.8897 46.2426C12.713 46.3587 12.4735 46.3674 12.1776 46.2684C11.6697 46.0985 11.0608 45.6263 10.4631 44.9392C10.1924 44.6279 9.93467 44.2867 9.69714 43.925C9.46819 43.5764 9.2644 43.2194 9.0915 42.8637C8.68136 42.0204 8.483 41.2552 8.53284 40.709C8.56077 40.4027 8.6635 40.1893 8.83798 40.0745C8.92373 40.0181 8.94683 39.9016 8.88959 39.814C8.83226 39.7266 8.7163 39.7006 8.63034 39.7563C8.20866 40.0297 7.7852 40.3006 7.36056 40.5699C7.02137 40.7938 6.85756 41.2172 6.88233 41.7968C6.91943 42.6612 7.37042 43.8113 8.11974 44.9521C8.85821 46.0763 9.72437 46.9417 10.4961 47.3262C11.032 47.593 11.4958 47.6155 11.8374 47.391C11.8396 47.3897 11.8422 47.3878 11.845 47.3857C11.8481 47.3839 11.8511 47.3821 11.8542 47.3801C12.2703 47.1081 12.6851 46.8345 13.0991 46.5595C13.1844 46.5029 13.207 46.3865 13.1497 46.2992Z" fill="url(#paint34_linear_938_24544)"/>
<path id="Vector_33" d="M29.2819 42.1292C29.2503 42.2271 29.3036 42.3324 29.4012 42.3641C29.6022 42.4296 29.7593 42.6091 29.8682 42.8978C30.0551 43.3935 30.071 44.1514 29.9128 45.032C29.8412 45.4309 29.7381 45.8381 29.6065 46.2421C29.4797 46.6315 29.3305 47.0067 29.163 47.3572C28.7659 48.1885 28.2964 48.8087 27.8412 49.1038C27.5859 49.2693 27.3558 49.3204 27.1571 49.2557C27.0595 49.224 26.9546 49.2774 26.9225 49.375C26.8907 49.4725 26.9433 49.5779 27.0405 49.6101C27.5175 49.7685 27.9936 49.9299 28.4692 50.0931C28.856 50.218 29.2874 50.086 29.7218 49.713C30.3695 49.1567 30.979 48.1065 31.3941 46.8319C31.8031 45.5758 31.931 44.3793 31.7449 43.5492C31.6156 42.9729 31.3419 42.6014 30.9531 42.4749C30.9507 42.4741 30.9476 42.4732 30.9442 42.4723C30.9408 42.471 30.9374 42.4698 30.934 42.4686C30.4617 42.3136 29.9889 42.1606 29.5156 42.0092C29.4182 41.9779 29.3137 42.0316 29.2819 42.1292Z" fill="url(#paint35_linear_938_24544)"/>
<path id="Vector_34" d="M24.935 40.6179C24.9027 40.7183 24.9554 40.8256 25.053 40.8573C25.254 40.9228 25.4102 41.1051 25.5172 41.3995C25.7009 41.9049 25.7113 42.6796 25.5464 43.5811C25.4717 43.9893 25.3654 44.4064 25.2306 44.8205C25.1006 45.2195 24.9484 45.6041 24.7779 45.9637C24.3738 46.8165 23.8988 47.454 23.4404 47.7588C23.1832 47.9298 22.9522 47.9838 22.7535 47.9192C22.6559 47.8874 22.5504 47.9427 22.5175 48.0427C22.4849 48.1426 22.5369 48.25 22.6341 48.2823C23.1109 48.4407 23.5871 48.6022 24.0627 48.7656C24.4494 48.8906 24.8828 48.7524 25.321 48.3678C25.9742 47.7944 26.5929 46.7164 27.0181 45.4103C27.4372 44.1231 27.5741 42.899 27.3937 42.0517C27.2684 41.4635 26.9966 41.0857 26.6079 40.9591C26.6054 40.9583 26.6023 40.9574 26.5989 40.9565C26.5955 40.9552 26.5922 40.954 26.5887 40.9529C26.1164 40.7978 25.6436 40.6449 25.1703 40.4935C25.0727 40.4624 24.9676 40.518 24.935 40.6179Z" fill="url(#paint36_linear_938_24544)"/>
<path id="Vector_35" d="M20.2962 38.7905C20.2633 38.8922 20.3157 39.0007 20.4133 39.0325C20.6143 39.0979 20.77 39.2819 20.876 39.5795C21.0579 40.0904 21.0651 40.8747 20.8963 41.7881C20.8198 42.2018 20.7117 42.6243 20.5751 43.0441C20.4433 43.4487 20.2893 43.8388 20.1172 44.2035C19.7091 45.0685 19.2308 45.7159 18.7705 46.0264C18.5123 46.2006 18.2807 46.2562 18.0822 46.1915C17.9846 46.1597 17.8787 46.2162 17.8453 46.3176C17.8124 46.4189 17.864 46.5274 17.9612 46.5597C18.438 46.7182 18.9141 46.8799 19.3897 47.0433C19.7764 47.1682 20.211 47.0266 20.6513 46.6354C21.3077 46.0522 21.9315 44.9582 22.3627 43.6342C22.7876 42.3293 22.9296 41.0893 22.7524 40.2323C22.6292 39.6372 22.3587 39.2558 21.97 39.1292C21.9675 39.1284 21.9645 39.1275 21.961 39.1266C21.9577 39.1253 21.9543 39.1241 21.9508 39.123C21.4785 38.9679 21.0057 38.815 20.5323 38.6636C20.4347 38.6324 20.3292 38.6891 20.2962 38.7905Z" fill="url(#paint37_linear_938_24544)"/>
<path id="Vector_36" d="M19.8152 38.7651C19.7505 38.3553 19.6247 38.0401 19.4446 37.8305C19.2744 37.5863 19.1031 37.3092 18.9218 36.5341C18.8486 36.221 18.7586 35.8762 18.7145 35.5351C18.7023 35.4413 18.6181 35.3716 18.5196 35.3716C18.5156 35.3716 18.5115 35.3717 18.5074 35.3719C18.4038 35.3779 18.3229 35.4593 18.3229 35.5578C18.3229 35.7204 18.2457 35.8817 18.0933 36.0371C17.7171 36.4209 16.9194 36.722 15.9046 36.863C15.4718 36.9232 15.0189 36.9537 14.559 36.9537C14.099 36.9537 13.6462 36.9232 13.2132 36.863C12.3173 36.7384 11.5925 36.4917 11.1727 36.1683C10.9283 35.9801 10.8014 35.7798 10.7955 35.5733C10.7954 35.5726 10.7954 35.5719 10.7953 35.5712C10.791 35.4714 10.7045 35.382 10.5987 35.382H10.5975C10.4895 35.3827 10.4021 35.4557 10.4021 35.558L10.4025 35.5784V35.5811L10.4056 35.7707L10.4065 35.8153C10.4147 36.2805 10.4217 36.6822 10.4056 37.0393C10.4054 38.0719 12.2342 38.8156 14.754 38.8156C15.4403 38.8156 15.668 38.7265 16.2225 38.5949C16.9125 38.4313 16.6225 38.8697 16.5604 39.1556C16.4983 39.4414 15.808 40.4404 15.4042 40.7642C15.0004 41.0879 14.5493 41.1173 14.1425 40.9981C13.9656 40.9464 13.7886 40.8891 13.6121 40.8264C13.2192 40.6868 12.8412 40.5252 12.4887 40.3461C11.6525 39.9215 11.0323 39.4312 10.7423 38.9658C10.5795 38.7047 10.5326 38.4726 10.6024 38.2757C10.6369 38.179 10.5849 38.0722 10.4863 38.0369C10.3879 38.0018 10.2796 38.0512 10.2449 38.1475C10.0739 38.62 10.1685 38.3445 9.99265 38.8156C9.85745 39.1989 9.98249 39.6353 10.3524 40.0825C10.9037 40.7492 11.3366 41.2367 12.5357 41.9854C14.0297 42.9183 15.5707 44.1587 15.3095 45.0956C15.2194 45.4186 14.987 45.5415 14.8795 45.5403C14.7769 45.5393 14.6727 45.5749 14.6354 45.6887C14.5984 45.8022 14.6469 45.9207 14.7441 45.953C15.2209 46.1119 14.9807 46.0315 15.4558 46.1959C15.8427 46.3208 16.2872 46.1483 16.7466 45.6987C17.4313 45.0286 18.1013 43.7932 18.5843 42.3094C19.0603 40.8469 19.964 39.7093 19.8152 38.7651ZM17.7564 42.0415C17.5156 42.3015 16.6205 42.0071 15.9148 41.7317C17.1722 40.8581 18.3284 39.0793 18.5987 37.7738C18.6691 37.4338 18.7804 37.6257 18.7744 37.7854C18.6647 40.6931 18.1995 41.5635 17.7564 42.0415Z" fill="url(#paint38_radial_938_24544)"/>
<path id="Vector_37" d="M18.7744 37.7852C18.6648 40.6929 18.1994 41.5633 17.7564 42.0413C17.6639 42.1412 17.4748 42.1592 17.2371 42.1281C17.2252 42.1265 17.4297 42.11 17.5922 41.8961C18.1781 41.1254 18.5341 39.5534 18.5125 38.1113C18.5125 38.1113 18.576 37.8831 18.5987 37.7736C18.6692 37.4336 18.7804 37.6254 18.7744 37.7852Z" fill="url(#paint39_radial_938_24544)"/>
</g>
</g>
<defs>
<linearGradient id="paint0_linear_938_24544" x1="10.771" y1="3.15897" x2="18.9519" y2="3.15897" gradientUnits="userSpaceOnUse">
<stop stop-color="#A3A394"/>
<stop offset="0.0502" stop-color="#B7B7AD"/>
<stop offset="0.1201" stop-color="#CDCDC9"/>
<stop offset="0.1813" stop-color="#DBDBDA"/>
<stop offset="0.2267" stop-color="#E0E0E0"/>
<stop offset="0.3893" stop-color="#D2D2CE"/>
<stop offset="0.714" stop-color="#ACACA0"/>
<stop offset="0.7892" stop-color="#A3A394"/>
<stop offset="0.8361" stop-color="#9E9E8F"/>
<stop offset="0.8946" stop-color="#8E8E81"/>
<stop offset="0.9589" stop-color="#75756A"/>
<stop offset="1" stop-color="#616158"/>
</linearGradient>
<linearGradient id="paint1_linear_938_24544" x1="10.6626" y1="6.88309" x2="18.8452" y2="6.88309" gradientUnits="userSpaceOnUse">
<stop stop-color="#A3A394"/>
<stop offset="0.0502" stop-color="#B7B7AD"/>
<stop offset="0.1201" stop-color="#CDCDC9"/>
<stop offset="0.1813" stop-color="#DBDBDA"/>
<stop offset="0.2267" stop-color="#E0E0E0"/>
<stop offset="0.3893" stop-color="#D2D2CE"/>
<stop offset="0.714" stop-color="#ACACA0"/>
<stop offset="0.7892" stop-color="#A3A394"/>
<stop offset="0.8361" stop-color="#9E9E8F"/>
<stop offset="0.8946" stop-color="#8E8E81"/>
<stop offset="0.9589" stop-color="#75756A"/>
<stop offset="1" stop-color="#616158"/>
</linearGradient>
<linearGradient id="paint2_linear_938_24544" x1="10.5601" y1="10.2347" x2="18.7785" y2="10.2347" gradientUnits="userSpaceOnUse">
<stop stop-color="#A3A394"/>
<stop offset="0.0502" stop-color="#B7B7AD"/>
<stop offset="0.1201" stop-color="#CDCDC9"/>
<stop offset="0.1813" stop-color="#DBDBDA"/>
<stop offset="0.2267" stop-color="#E0E0E0"/>
<stop offset="0.3893" stop-color="#D2D2CE"/>
<stop offset="0.714" stop-color="#ACACA0"/>
<stop offset="0.7892" stop-color="#A3A394"/>
<stop offset="0.8361" stop-color="#9E9E8F"/>
<stop offset="0.8946" stop-color="#8E8E81"/>
<stop offset="0.9589" stop-color="#75756A"/>
<stop offset="1" stop-color="#616158"/>
</linearGradient>
<linearGradient id="paint3_linear_938_24544" x1="10.5202" y1="14.3311" x2="18.7927" y2="14.3311" gradientUnits="userSpaceOnUse">
<stop stop-color="#A3A394"/>
<stop offset="0.0502" stop-color="#B7B7AD"/>
<stop offset="0.1201" stop-color="#CDCDC9"/>
<stop offset="0.1813" stop-color="#DBDBDA"/>
<stop offset="0.2267" stop-color="#E0E0E0"/>
<stop offset="0.3893" stop-color="#D2D2CE"/>
<stop offset="0.714" stop-color="#ACACA0"/>
<stop offset="0.7892" stop-color="#A3A394"/>
<stop offset="0.8361" stop-color="#9E9E8F"/>
<stop offset="0.8946" stop-color="#8E8E81"/>
<stop offset="0.9589" stop-color="#75756A"/>
<stop offset="1" stop-color="#616158"/>
</linearGradient>
<linearGradient id="paint4_linear_938_24544" x1="10.521" y1="18.055" x2="18.8569" y2="18.055" gradientUnits="userSpaceOnUse">
<stop stop-color="#A3A394"/>
<stop offset="0.0502" stop-color="#B7B7AD"/>
<stop offset="0.1201" stop-color="#CDCDC9"/>
<stop offset="0.1813" stop-color="#DBDBDA"/>
<stop offset="0.2267" stop-color="#E0E0E0"/>
<stop offset="0.3893" stop-color="#D2D2CE"/>
<stop offset="0.714" stop-color="#ACACA0"/>
<stop offset="0.7892" stop-color="#A3A394"/>
<stop offset="0.8361" stop-color="#9E9E8F"/>
<stop offset="0.8946" stop-color="#8E8E81"/>
<stop offset="0.9589" stop-color="#75756A"/>
<stop offset="1" stop-color="#616158"/>
</linearGradient>
<linearGradient id="paint5_linear_938_24544" x1="10.5332" y1="21.4065" x2="18.923" y2="21.4065" gradientUnits="userSpaceOnUse">
<stop stop-color="#A3A394"/>
<stop offset="0.0502" stop-color="#B7B7AD"/>
<stop offset="0.1201" stop-color="#CDCDC9"/>
<stop offset="0.1813" stop-color="#DBDBDA"/>
<stop offset="0.2267" stop-color="#E0E0E0"/>
<stop offset="0.3893" stop-color="#D2D2CE"/>
<stop offset="0.714" stop-color="#ACACA0"/>
<stop offset="0.7892" stop-color="#A3A394"/>
<stop offset="0.8361" stop-color="#9E9E8F"/>
<stop offset="0.8946" stop-color="#8E8E81"/>
<stop offset="0.9589" stop-color="#75756A"/>
<stop offset="1" stop-color="#616158"/>
</linearGradient>
<linearGradient id="paint6_linear_938_24544" x1="10.5471" y1="25.1307" x2="18.9696" y2="25.1307" gradientUnits="userSpaceOnUse">
<stop stop-color="#A3A394"/>
<stop offset="0.0502" stop-color="#B7B7AD"/>
<stop offset="0.1201" stop-color="#CDCDC9"/>
<stop offset="0.1813" stop-color="#DBDBDA"/>
<stop offset="0.2267" stop-color="#E0E0E0"/>
<stop offset="0.3893" stop-color="#D2D2CE"/>
<stop offset="0.714" stop-color="#ACACA0"/>
<stop offset="0.7892" stop-color="#A3A394"/>
<stop offset="0.8361" stop-color="#9E9E8F"/>
<stop offset="0.8946" stop-color="#8E8E81"/>
<stop offset="0.9589" stop-color="#75756A"/>
<stop offset="1" stop-color="#616158"/>
</linearGradient>
<linearGradient id="paint7_linear_938_24544" x1="10.4915" y1="28.4821" x2="18.9566" y2="28.4821" gradientUnits="userSpaceOnUse">
<stop stop-color="#A3A394"/>
<stop offset="0.0502" stop-color="#B7B7AD"/>
<stop offset="0.1201" stop-color="#CDCDC9"/>
<stop offset="0.1813" stop-color="#DBDBDA"/>
<stop offset="0.2267" stop-color="#E0E0E0"/>
<stop offset="0.3893" stop-color="#D2D2CE"/>
<stop offset="0.714" stop-color="#ACACA0"/>
<stop offset="0.7892" stop-color="#A3A394"/>
<stop offset="0.8361" stop-color="#9E9E8F"/>
<stop offset="0.8946" stop-color="#8E8E81"/>
<stop offset="0.9589" stop-color="#75756A"/>
<stop offset="1" stop-color="#616158"/>
</linearGradient>
<linearGradient id="paint8_linear_938_24544" x1="10.4099" y1="32.206" x2="18.7612" y2="32.206" gradientUnits="userSpaceOnUse">
<stop stop-color="#A3A394"/>
<stop offset="0.0502" stop-color="#B7B7AD"/>
<stop offset="0.1201" stop-color="#CDCDC9"/>
<stop offset="0.1813" stop-color="#DBDBDA"/>
<stop offset="0.2267" stop-color="#E0E0E0"/>
<stop offset="0.3893" stop-color="#D2D2CE"/>
<stop offset="0.714" stop-color="#ACACA0"/>
<stop offset="0.7892" stop-color="#A3A394"/>
<stop offset="0.8361" stop-color="#9E9E8F"/>
<stop offset="0.8946" stop-color="#8E8E81"/>
<stop offset="0.9589" stop-color="#75756A"/>
<stop offset="1" stop-color="#616158"/>
</linearGradient>
<radialGradient id="paint9_radial_938_24544" cx="0" cy="0" r="1" gradientUnits="userSpaceOnUse" gradientTransform="translate(8.99899 36.9816) scale(11.4782 11.4782)">
<stop offset="0.0248" stop-color="#616158"/>
<stop offset="0.1639" stop-color="#A3A394"/>
<stop offset="0.2023" stop-color="#B7B7AD"/>
<stop offset="0.2558" stop-color="#CDCDC9"/>
<stop offset="0.3026" stop-color="#DBDBDA"/>
<stop offset="0.3373" stop-color="#E0E0E0"/>
<stop offset="0.4918" stop-color="#D2D2CE"/>
<stop offset="0.8001" stop-color="#ACACA0"/>
<stop offset="0.8716" stop-color="#A3A394"/>
<stop offset="0.9002" stop-color="#9E9E8F"/>
<stop offset="0.9358" stop-color="#8E8E81"/>
<stop offset="0.975" stop-color="#75756A"/>
<stop offset="1" stop-color="#616158"/>
</radialGradient>
<linearGradient id="paint10_linear_938_24544" x1="3.20815" y1="43.2695" x2="7.47334" y2="49.7628" gradientUnits="userSpaceOnUse">
<stop stop-color="#A3A394"/>
<stop offset="0.0502" stop-color="#B7B7AD"/>
<stop offset="0.1201" stop-color="#CDCDC9"/>
<stop offset="0.1813" stop-color="#DBDBDA"/>
<stop offset="0.2267" stop-color="#E0E0E0"/>
<stop offset="0.3893" stop-color="#D2D2CE"/>
<stop offset="0.714" stop-color="#ACACA0"/>
<stop offset="0.7892" stop-color="#A3A394"/>
<stop offset="0.8361" stop-color="#9E9E8F"/>
<stop offset="0.8946" stop-color="#8E8E81"/>
<stop offset="0.9589" stop-color="#75756A"/>
<stop offset="1" stop-color="#616158"/>
</linearGradient>
<linearGradient id="paint11_linear_938_24544" x1="6.06546" y1="41.3994" x2="10.3959" y2="47.992" gradientUnits="userSpaceOnUse">
<stop stop-color="#A3A394"/>
<stop offset="0.0502" stop-color="#B7B7AD"/>
<stop offset="0.1201" stop-color="#CDCDC9"/>
<stop offset="0.1813" stop-color="#DBDBDA"/>
<stop offset="0.2267" stop-color="#E0E0E0"/>
<stop offset="0.3893" stop-color="#D2D2CE"/>
<stop offset="0.714" stop-color="#ACACA0"/>
<stop offset="0.7892" stop-color="#A3A394"/>
<stop offset="0.8361" stop-color="#9E9E8F"/>
<stop offset="0.8946" stop-color="#8E8E81"/>
<stop offset="0.9589" stop-color="#75756A"/>
<stop offset="1" stop-color="#616158"/>
</linearGradient>
<radialGradient id="paint12_radial_938_24544" cx="0" cy="0" r="1" gradientUnits="userSpaceOnUse" gradientTransform="translate(8.99896 36.9816) scale(11.4782 11.4782)">
<stop offset="0.0248" stop-color="#616158"/>
<stop offset="0.1639" stop-color="#A3A394"/>
<stop offset="0.2023" stop-color="#B7B7AD"/>
<stop offset="0.2558" stop-color="#CDCDC9"/>
<stop offset="0.3026" stop-color="#DBDBDA"/>
<stop offset="0.3373" stop-color="#E0E0E0"/>
<stop offset="0.4918" stop-color="#D2D2CE"/>
<stop offset="0.8001" stop-color="#ACACA0"/>
<stop offset="0.8716" stop-color="#A3A394"/>
<stop offset="0.9002" stop-color="#9E9E8F"/>
<stop offset="0.9358" stop-color="#8E8E81"/>
<stop offset="0.975" stop-color="#75756A"/>
<stop offset="1" stop-color="#616158"/>
</radialGradient>
<radialGradient id="paint13_radial_938_24544" cx="0" cy="0" r="1" gradientUnits="userSpaceOnUse" gradientTransform="translate(8.99898 36.9814) scale(11.4782 11.4782)">
<stop offset="0.0248" stop-color="#616158"/>
<stop offset="0.1639" stop-color="#A3A394"/>
<stop offset="0.2023" stop-color="#B7B7AD"/>
<stop offset="0.2558" stop-color="#CDCDC9"/>
<stop offset="0.3026" stop-color="#DBDBDA"/>
<stop offset="0.3373" stop-color="#E0E0E0"/>
<stop offset="0.4918" stop-color="#D2D2CE"/>
<stop offset="0.8001" stop-color="#ACACA0"/>
<stop offset="0.8716" stop-color="#A3A394"/>
<stop offset="0.9002" stop-color="#9E9E8F"/>
<stop offset="0.9358" stop-color="#8E8E81"/>
<stop offset="0.975" stop-color="#75756A"/>
<stop offset="1" stop-color="#616158"/>
</radialGradient>
<linearGradient id="paint14_linear_938_24544" x1="8.69766" y1="39.6771" x2="13.1795" y2="46.5002" gradientUnits="userSpaceOnUse">
<stop stop-color="#A3A394"/>
<stop offset="0.0502" stop-color="#B7B7AD"/>
<stop offset="0.1201" stop-color="#CDCDC9"/>
<stop offset="0.1813" stop-color="#DBDBDA"/>
<stop offset="0.2267" stop-color="#E0E0E0"/>
<stop offset="0.3893" stop-color="#D2D2CE"/>
<stop offset="0.714" stop-color="#ACACA0"/>
<stop offset="0.7892" stop-color="#A3A394"/>
<stop offset="0.8361" stop-color="#9E9E8F"/>
<stop offset="0.8946" stop-color="#8E8E81"/>
<stop offset="0.9589" stop-color="#75756A"/>
<stop offset="1" stop-color="#616158"/>
</linearGradient>
<linearGradient id="paint15_linear_938_24544" x1="22.5203" y1="48.3223" x2="25.0635" y2="40.511" gradientUnits="userSpaceOnUse">
<stop stop-color="#616158"/>
<stop offset="0.2149" stop-color="#A3A394"/>
<stop offset="0.25" stop-color="#A8A89A"/>
<stop offset="0.5869" stop-color="#D3D3CF"/>
<stop offset="0.5914" stop-color="#D2D2CE"/>
<stop offset="0.7695" stop-color="#B0B0A4"/>
<stop offset="0.8608" stop-color="#A3A394"/>
<stop offset="1" stop-color="#616158"/>
</linearGradient>
<linearGradient id="paint16_linear_938_24544" x1="17.8737" y1="46.5683" x2="20.4522" y2="38.6488" gradientUnits="userSpaceOnUse">
<stop stop-color="#616158"/>
<stop offset="0.2149" stop-color="#A3A394"/>
<stop offset="0.25" stop-color="#A8A89A"/>
<stop offset="0.5869" stop-color="#D3D3CF"/>
<stop offset="0.5914" stop-color="#D2D2CE"/>
<stop offset="0.7695" stop-color="#B0B0A4"/>
<stop offset="0.8608" stop-color="#A3A394"/>
<stop offset="1" stop-color="#616158"/>
</linearGradient>
<linearGradient id="paint17_linear_938_24544" x1="26.9559" y1="49.6054" x2="29.4381" y2="41.9816" gradientUnits="userSpaceOnUse">
<stop stop-color="#616158"/>
<stop offset="0.2149" stop-color="#A3A394"/>
<stop offset="0.25" stop-color="#A8A89A"/>
<stop offset="0.5869" stop-color="#D3D3CF"/>
<stop offset="0.5914" stop-color="#D2D2CE"/>
<stop offset="0.7695" stop-color="#B0B0A4"/>
<stop offset="0.8608" stop-color="#A3A394"/>
<stop offset="1" stop-color="#616158"/>
</linearGradient>
<radialGradient id="paint18_radial_938_24544" cx="0" cy="0" r="1" gradientUnits="userSpaceOnUse" gradientTransform="translate(15.24 1.69098) scale(56.2575 56.2575)">
<stop stop-color="#D57983"/>
<stop offset="0.155" stop-color="#D0767F"/>
<stop offset="0.3408" stop-color="#C16B75"/>
<stop offset="0.5427" stop-color="#A95B63"/>
<stop offset="0.7558" stop-color="#87434A"/>
<stop offset="0.9757" stop-color="#5C262B"/>
<stop offset="1" stop-color="#572227"/>
</radialGradient>
<linearGradient id="paint19_linear_938_24544" x1="-6.55908e-05" y1="25.627" x2="33.1205" y2="25.627" gradientUnits="userSpaceOnUse">
<stop offset="0.3342" stop-color="#D57983"/>
<stop offset="0.363" stop-color="#EBAFB5"/>
<stop offset="0.3851" stop-color="#FAD1D5"/>
<stop offset="0.3969" stop-color="#FFDEE1"/>
<stop offset="0.4762" stop-color="#D57983"/>
<stop offset="0.5003" stop-color="#AF5C65"/>
<stop offset="0.5256" stop-color="#8E424C"/>
<stop offset="0.5468" stop-color="#7A333C"/>
<stop offset="0.561" stop-color="#732D36"/>
</linearGradient>
<radialGradient id="paint20_radial_938_24544" cx="0" cy="0" r="1" gradientUnits="userSpaceOnUse" gradientTransform="translate(14.7793 -6.05377) rotate(90) scale(49.0262 42.6381)">
<stop offset="0.05" stop-color="#CE757F"/>
<stop offset="0.1946" stop-color="#210D0F"/>
<stop offset="0.2198" stop-color="#CE757F"/>
<stop offset="0.2583" stop-color="#210D0F"/>
<stop offset="0.2946" stop-color="#CE757F"/>
<stop offset="0.3341" stop-color="#210D0F"/>
<stop offset="0.3641" stop-color="#CE757F"/>
<stop offset="0.4035" stop-color="#210D0F"/>
<stop offset="0.4469" stop-color="#CE757F"/>
<stop offset="0.4875" stop-color="#210D0F"/>
<stop offset="0.5198" stop-color="#CE757F"/>
<stop offset="0.5607" stop-color="#210D0F"/>
<stop offset="0.5898" stop-color="#CE757F"/>
<stop offset="0.6305" stop-color="#210D0F"/>
<stop offset="0.6673" stop-color="#CE757F"/>
<stop offset="0.6728" stop-color="#BB6972"/>
<stop offset="0.6841" stop-color="#884B52"/>
<stop offset="0.7" stop-color="#381B1E"/>
<stop offset="0.7043" stop-color="#210D0F"/>
<stop offset="0.7355" stop-color="#CF767F"/>
<stop offset="0.7409" stop-color="#BC6A73"/>
<stop offset="0.7518" stop-color="#8A4C52"/>
<stop offset="0.7671" stop-color="#3A1C1F"/>
<stop offset="0.7718" stop-color="#210D0F"/>
<stop offset="0.8122" stop-color="#D57983"/>
<stop offset="0.8166" stop-color="#D07680"/>
<stop offset="0.8219" stop-color="#C16D76"/>
<stop offset="0.8276" stop-color="#A95F67"/>
<stop offset="0.8337" stop-color="#874A51"/>
<stop offset="0.84" stop-color="#5C3035"/>
<stop offset="0.8464" stop-color="#271113"/>
<stop offset="0.8471" stop-color="#210D0F"/>
<stop offset="0.86" stop-color="#603338"/>
<stop offset="0.8825" stop-color="#D57983"/>
</radialGradient>
<radialGradient id="paint21_radial_938_24544" cx="0" cy="0" r="1" gradientUnits="userSpaceOnUse" gradientTransform="translate(14.8721 1.44) scale(3.71887 1.44701)">
<stop offset="0.8186" stop-color="#D5AEB2"/>
<stop offset="0.873" stop-color="#D5A9AD"/>
<stop offset="0.9408" stop-color="#D5999F"/>
<stop offset="1" stop-color="#D5868D"/>
</radialGradient>
<radialGradient id="paint22_radial_938_24544" cx="0" cy="0" r="1" gradientUnits="userSpaceOnUse" gradientTransform="translate(14.8724 4.26827) scale(4.96981 4.35355)">
<stop offset="0.4287" stop-color="#732D36"/>
<stop offset="0.4711" stop-color="#803740"/>
<stop offset="0.6067" stop-color="#A5545D"/>
<stop offset="0.7331" stop-color="#BF6872"/>
<stop offset="0.8457" stop-color="#CF757F"/>
<stop offset="0.933" stop-color="#D57983"/>
</radialGradient>
<linearGradient id="paint23_linear_938_24544" x1="10.7345" y1="4.69472" x2="18.9519" y2="4.69472" gradientUnits="userSpaceOnUse">
<stop stop-color="#A3A394"/>
<stop offset="0.0502" stop-color="#B7B7AD"/>
<stop offset="0.1201" stop-color="#CDCDC9"/>
<stop offset="0.1813" stop-color="#DBDBDA"/>
<stop offset="0.2267" stop-color="#E0E0E0"/>
<stop offset="0.3893" stop-color="#D2D2CE"/>
<stop offset="0.714" stop-color="#ACACA0"/>
<stop offset="0.7892" stop-color="#A3A394"/>
<stop offset="0.8361" stop-color="#9E9E8F"/>
<stop offset="0.8946" stop-color="#8E8E81"/>
<stop offset="0.9589" stop-color="#75756A"/>
<stop offset="1" stop-color="#616158"/>
</linearGradient>
<linearGradient id="paint24_linear_938_24544" x1="10.613" y1="8.41875" x2="18.8462" y2="8.41875" gradientUnits="userSpaceOnUse">
<stop stop-color="#A3A394"/>
<stop offset="0.0502" stop-color="#B7B7AD"/>
<stop offset="0.1201" stop-color="#CDCDC9"/>
<stop offset="0.1813" stop-color="#DBDBDA"/>
<stop offset="0.2267" stop-color="#E0E0E0"/>
<stop offset="0.3893" stop-color="#D2D2CE"/>
<stop offset="0.714" stop-color="#ACACA0"/>
<stop offset="0.7892" stop-color="#A3A394"/>
<stop offset="0.8361" stop-color="#9E9E8F"/>
<stop offset="0.8946" stop-color="#8E8E81"/>
<stop offset="0.9589" stop-color="#75756A"/>
<stop offset="1" stop-color="#616158"/>
</linearGradient>
<linearGradient id="paint25_linear_938_24544" x1="10.5324" y1="11.7702" x2="18.7783" y2="11.7702" gradientUnits="userSpaceOnUse">
<stop stop-color="#A3A394"/>
<stop offset="0.0502" stop-color="#B7B7AD"/>
<stop offset="0.1201" stop-color="#CDCDC9"/>
<stop offset="0.1813" stop-color="#DBDBDA"/>
<stop offset="0.2267" stop-color="#E0E0E0"/>
<stop offset="0.3893" stop-color="#D2D2CE"/>
<stop offset="0.714" stop-color="#ACACA0"/>
<stop offset="0.7892" stop-color="#A3A394"/>
<stop offset="0.8361" stop-color="#9E9E8F"/>
<stop offset="0.8946" stop-color="#8E8E81"/>
<stop offset="0.9589" stop-color="#75756A"/>
<stop offset="1" stop-color="#616158"/>
</linearGradient>
<linearGradient id="paint26_linear_938_24544" x1="10.5185" y1="15.8671" x2="18.8146" y2="15.8671" gradientUnits="userSpaceOnUse">
<stop stop-color="#A3A394"/>
<stop offset="0.0502" stop-color="#B7B7AD"/>
<stop offset="0.1201" stop-color="#CDCDC9"/>
<stop offset="0.1813" stop-color="#DBDBDA"/>
<stop offset="0.2267" stop-color="#E0E0E0"/>
<stop offset="0.3893" stop-color="#D2D2CE"/>
<stop offset="0.714" stop-color="#ACACA0"/>
<stop offset="0.7892" stop-color="#A3A394"/>
<stop offset="0.8361" stop-color="#9E9E8F"/>
<stop offset="0.8946" stop-color="#8E8E81"/>
<stop offset="0.9589" stop-color="#75756A"/>
<stop offset="1" stop-color="#616158"/>
</linearGradient>
<linearGradient id="paint27_linear_938_24544" x1="10.5209" y1="19.5908" x2="18.8871" y2="19.5908" gradientUnits="userSpaceOnUse">
<stop stop-color="#A3A394"/>
<stop offset="0.0502" stop-color="#B7B7AD"/>
<stop offset="0.1201" stop-color="#CDCDC9"/>
<stop offset="0.1813" stop-color="#DBDBDA"/>
<stop offset="0.2267" stop-color="#E0E0E0"/>
<stop offset="0.3893" stop-color="#D2D2CE"/>
<stop offset="0.714" stop-color="#ACACA0"/>
<stop offset="0.7892" stop-color="#A3A394"/>
<stop offset="0.8361" stop-color="#9E9E8F"/>
<stop offset="0.8946" stop-color="#8E8E81"/>
<stop offset="0.9589" stop-color="#75756A"/>
<stop offset="1" stop-color="#616158"/>
</linearGradient>
<linearGradient id="paint28_linear_938_24544" x1="10.533" y1="22.9424" x2="18.9468" y2="22.9424" gradientUnits="userSpaceOnUse">
<stop stop-color="#A3A394"/>
<stop offset="0.0502" stop-color="#B7B7AD"/>
<stop offset="0.1201" stop-color="#CDCDC9"/>
<stop offset="0.1813" stop-color="#DBDBDA"/>
<stop offset="0.2267" stop-color="#E0E0E0"/>
<stop offset="0.3893" stop-color="#D2D2CE"/>
<stop offset="0.714" stop-color="#ACACA0"/>
<stop offset="0.7892" stop-color="#A3A394"/>
<stop offset="0.8361" stop-color="#9E9E8F"/>
<stop offset="0.8946" stop-color="#8E8E81"/>
<stop offset="0.9589" stop-color="#75756A"/>
<stop offset="1" stop-color="#616158"/>
</linearGradient>
<linearGradient id="paint29_linear_938_24544" x1="10.5295" y1="26.6767" x2="18.9727" y2="26.6767" gradientUnits="userSpaceOnUse">
<stop stop-color="#A3A394"/>
<stop offset="0.0502" stop-color="#B7B7AD"/>
<stop offset="0.1201" stop-color="#CDCDC9"/>
<stop offset="0.1813" stop-color="#DBDBDA"/>
<stop offset="0.2267" stop-color="#E0E0E0"/>
<stop offset="0.3893" stop-color="#D2D2CE"/>
<stop offset="0.714" stop-color="#ACACA0"/>
<stop offset="0.7892" stop-color="#A3A394"/>
<stop offset="0.8361" stop-color="#9E9E8F"/>
<stop offset="0.8946" stop-color="#8E8E81"/>
<stop offset="0.9589" stop-color="#75756A"/>
<stop offset="1" stop-color="#616158"/>
</linearGradient>
<linearGradient id="paint30_linear_938_24544" x1="10.4559" y1="30.0302" x2="18.9566" y2="30.0302" gradientUnits="userSpaceOnUse">
<stop stop-color="#A3A394"/>
<stop offset="0.0502" stop-color="#B7B7AD"/>
<stop offset="0.1201" stop-color="#CDCDC9"/>
<stop offset="0.1813" stop-color="#DBDBDA"/>
<stop offset="0.2267" stop-color="#E0E0E0"/>
<stop offset="0.3893" stop-color="#D2D2CE"/>
<stop offset="0.714" stop-color="#ACACA0"/>
<stop offset="0.7892" stop-color="#A3A394"/>
<stop offset="0.8361" stop-color="#9E9E8F"/>
<stop offset="0.8946" stop-color="#8E8E81"/>
<stop offset="0.9589" stop-color="#75756A"/>
<stop offset="1" stop-color="#616158"/>
</linearGradient>
<linearGradient id="paint31_linear_938_24544" x1="10.394" y1="33.7419" x2="18.7614" y2="33.7419" gradientUnits="userSpaceOnUse">
<stop stop-color="#A3A394"/>
<stop offset="0.0502" stop-color="#B7B7AD"/>
<stop offset="0.1201" stop-color="#CDCDC9"/>
<stop offset="0.1813" stop-color="#DBDBDA"/>
<stop offset="0.2267" stop-color="#E0E0E0"/>
<stop offset="0.3893" stop-color="#D2D2CE"/>
<stop offset="0.714" stop-color="#ACACA0"/>
<stop offset="0.7892" stop-color="#A3A394"/>
<stop offset="0.8361" stop-color="#9E9E8F"/>
<stop offset="0.8946" stop-color="#8E8E81"/>
<stop offset="0.9589" stop-color="#75756A"/>
<stop offset="1" stop-color="#616158"/>
</linearGradient>
<linearGradient id="paint32_linear_938_24544" x1="1.85877" y1="44.1577" x2="6.12196" y2="50.648" gradientUnits="userSpaceOnUse">
<stop stop-color="#A3A394"/>
<stop offset="0.0502" stop-color="#B7B7AD"/>
<stop offset="0.1201" stop-color="#CDCDC9"/>
<stop offset="0.1813" stop-color="#DBDBDA"/>
<stop offset="0.2267" stop-color="#E0E0E0"/>
<stop offset="0.3893" stop-color="#D2D2CE"/>
<stop offset="0.714" stop-color="#ACACA0"/>
<stop offset="0.7892" stop-color="#A3A394"/>
<stop offset="0.8361" stop-color="#9E9E8F"/>
<stop offset="0.8946" stop-color="#8E8E81"/>
<stop offset="0.9589" stop-color="#75756A"/>
<stop offset="1" stop-color="#616158"/>
</linearGradient>
<linearGradient id="paint33_linear_938_24544" x1="4.7161" y1="42.2879" x2="9.04447" y2="48.8774" gradientUnits="userSpaceOnUse">
<stop stop-color="#A3A394"/>
<stop offset="0.0502" stop-color="#B7B7AD"/>
<stop offset="0.1201" stop-color="#CDCDC9"/>
<stop offset="0.1813" stop-color="#DBDBDA"/>
<stop offset="0.2267" stop-color="#E0E0E0"/>
<stop offset="0.3893" stop-color="#D2D2CE"/>
<stop offset="0.714" stop-color="#ACACA0"/>
<stop offset="0.7892" stop-color="#A3A394"/>
<stop offset="0.8361" stop-color="#9E9E8F"/>
<stop offset="0.8946" stop-color="#8E8E81"/>
<stop offset="0.9589" stop-color="#75756A"/>
<stop offset="1" stop-color="#616158"/>
</linearGradient>
<linearGradient id="paint34_linear_938_24544" x1="7.3483" y1="40.5655" x2="11.828" y2="47.3854" gradientUnits="userSpaceOnUse">
<stop stop-color="#A3A394"/>
<stop offset="0.0502" stop-color="#B7B7AD"/>
<stop offset="0.1201" stop-color="#CDCDC9"/>
<stop offset="0.1813" stop-color="#DBDBDA"/>
<stop offset="0.2267" stop-color="#E0E0E0"/>
<stop offset="0.3893" stop-color="#D2D2CE"/>
<stop offset="0.714" stop-color="#ACACA0"/>
<stop offset="0.7892" stop-color="#A3A394"/>
<stop offset="0.8361" stop-color="#9E9E8F"/>
<stop offset="0.8946" stop-color="#8E8E81"/>
<stop offset="0.9589" stop-color="#75756A"/>
<stop offset="1" stop-color="#616158"/>
</linearGradient>
<linearGradient id="paint35_linear_938_24544" x1="28.4927" y1="50.1035" x2="30.9737" y2="42.4833" gradientUnits="userSpaceOnUse">
<stop stop-color="#616158"/>
<stop offset="0.2149" stop-color="#A3A394"/>
<stop offset="0.25" stop-color="#A8A89A"/>
<stop offset="0.5869" stop-color="#D3D3CF"/>
<stop offset="0.5914" stop-color="#D2D2CE"/>
<stop offset="0.7695" stop-color="#B0B0A4"/>
<stop offset="0.8608" stop-color="#A3A394"/>
<stop offset="1" stop-color="#616158"/>
</linearGradient>
<linearGradient id="paint36_linear_938_24544" x1="24.0569" y1="48.8204" x2="26.599" y2="41.0128" gradientUnits="userSpaceOnUse">
<stop stop-color="#616158"/>
<stop offset="0.2149" stop-color="#A3A394"/>
<stop offset="0.25" stop-color="#A8A89A"/>
<stop offset="0.5869" stop-color="#D3D3CF"/>
<stop offset="0.5914" stop-color="#D2D2CE"/>
<stop offset="0.7695" stop-color="#B0B0A4"/>
<stop offset="0.8608" stop-color="#A3A394"/>
<stop offset="1" stop-color="#616158"/>
</linearGradient>
<linearGradient id="paint37_linear_938_24544" x1="19.4105" y1="47.0664" x2="21.9877" y2="39.1507" gradientUnits="userSpaceOnUse">
<stop stop-color="#616158"/>
<stop offset="0.2149" stop-color="#A3A394"/>
<stop offset="0.25" stop-color="#A8A89A"/>
<stop offset="0.5869" stop-color="#D3D3CF"/>
<stop offset="0.5914" stop-color="#D2D2CE"/>
<stop offset="0.7695" stop-color="#B0B0A4"/>
<stop offset="0.8608" stop-color="#A3A394"/>
<stop offset="1" stop-color="#616158"/>
</linearGradient>
<radialGradient id="paint38_radial_938_24544" cx="0" cy="0" r="1" gradientUnits="userSpaceOnUse" gradientTransform="translate(8.99889 36.9815) scale(11.4782 11.4782)">
<stop offset="0.0248" stop-color="#616158"/>
<stop offset="0.1639" stop-color="#A3A394"/>
<stop offset="0.2023" stop-color="#B7B7AD"/>
<stop offset="0.2558" stop-color="#CDCDC9"/>
<stop offset="0.3026" stop-color="#DBDBDA"/>
<stop offset="0.3373" stop-color="#E0E0E0"/>
<stop offset="0.4918" stop-color="#D2D2CE"/>
<stop offset="0.8001" stop-color="#ACACA0"/>
<stop offset="0.8716" stop-color="#A3A394"/>
<stop offset="0.9002" stop-color="#9E9E8F"/>
<stop offset="0.9358" stop-color="#8E8E81"/>
<stop offset="0.975" stop-color="#75756A"/>
<stop offset="1" stop-color="#616158"/>
</radialGradient>
<radialGradient id="paint39_radial_938_24544" cx="0" cy="0" r="1" gradientTransform="matrix(1.66365 0.352354 -0.763718 3.60653 17.3767 38.9886)" gradientUnits="userSpaceOnUse">
<stop offset="0.2759" stop-color="#A3A394"/>
<stop offset="0.4371" stop-color="#9E9E8F"/>
<stop offset="0.6379" stop-color="#8E8E81"/>
<stop offset="0.8589" stop-color="#75756A"/>
<stop offset="1" stop-color="#616158"/>
</radialGradient>
</defs>
</svg>
