<svg width="110" height="59" viewBox="0 0 110 59" fill="none" xmlns="http://www.w3.org/2000/svg">
<g id="R-ICO-013609">
<path id="Vector" d="M75.8814 41.7902C79.8181 41.7902 83.0094 38.5989 83.0094 34.6622C83.0094 30.7255 79.8181 27.5342 75.8814 27.5342C71.9447 27.5342 68.7534 30.7255 68.7534 34.6622C68.7534 38.5989 71.9447 41.7902 75.8814 41.7902Z" fill="url(#paint0_radial_938_25694)"/>
<path id="Vector_2" d="M26.129 51.2584C30.0657 51.2584 33.257 48.0671 33.257 44.1304C33.257 40.1938 30.0657 37.0024 26.129 37.0024C22.1923 37.0024 19.001 40.1938 19.001 44.1304C19.001 48.0671 22.1923 51.2584 26.129 51.2584Z" fill="url(#paint1_radial_938_25694)"/>
<path id="Vector_3" d="M21.129 45.258C25.0657 45.258 28.257 42.0666 28.257 38.13C28.257 34.1933 25.0657 31.002 21.129 31.002C17.1923 31.002 14.001 34.1933 14.001 38.13C14.001 42.0666 17.1923 45.258 21.129 45.258Z" fill="url(#paint2_radial_938_25694)"/>
<path id="Vector_4" d="M73.4859 30.6923C77.4226 30.6923 80.6139 27.501 80.6139 23.5643C80.6139 19.6276 77.4226 16.4363 73.4859 16.4363C69.5492 16.4363 66.3579 19.6276 66.3579 23.5643C66.3579 27.501 69.5492 30.6923 73.4859 30.6923Z" fill="url(#paint3_radial_938_25694)"/>
<path id="Vector_5" d="M35.7217 50.8436C39.6584 50.8436 42.8498 47.6523 42.8498 43.7156C42.8498 39.779 39.6584 36.5876 35.7217 36.5876C31.7851 36.5876 28.5938 39.779 28.5938 43.7156C28.5938 47.6523 31.7851 50.8436 35.7217 50.8436Z" fill="url(#paint4_radial_938_25694)"/>
<path id="Vector_6" d="M29.7213 39.8429C33.6579 39.8429 36.8493 36.6516 36.8493 32.7149C36.8493 28.7782 33.6579 25.5869 29.7213 25.5869C25.7846 25.5869 22.5933 28.7782 22.5933 32.7149C22.5933 36.6516 25.7846 39.8429 29.7213 39.8429Z" fill="url(#paint5_radial_938_25694)"/>
<path id="Vector_7" d="M43.8116 31.0736C47.7483 31.0736 50.9396 27.8823 50.9396 23.9456C50.9396 20.0089 47.7483 16.8176 43.8116 16.8176C39.8749 16.8176 36.6836 20.0089 36.6836 23.9456C36.6836 27.8823 39.8749 31.0736 43.8116 31.0736Z" fill="url(#paint6_radial_938_25694)"/>
<path id="Vector_8" d="M54.316 32.8966C58.2527 32.8966 61.444 29.7053 61.444 25.7686C61.444 21.8319 58.2527 18.6406 54.316 18.6406C50.3793 18.6406 47.188 21.8319 47.188 25.7686C47.188 29.7053 50.3793 32.8966 54.316 32.8966Z" fill="url(#paint7_radial_938_25694)"/>
<path id="Vector_9" d="M7.128 31.257C11.0647 31.257 14.256 28.0657 14.256 24.129C14.256 20.1923 11.0647 17.001 7.128 17.001C3.19131 17.001 0 20.1923 0 24.129C0 28.0657 3.19131 31.257 7.128 31.257Z" fill="url(#paint8_radial_938_25694)"/>
<path id="Vector_10" d="M45.0704 39.4076C49.0071 39.4076 52.1984 36.2163 52.1984 32.2796C52.1984 28.3429 49.0071 25.1516 45.0704 25.1516C41.1337 25.1516 37.9424 28.3429 37.9424 32.2796C37.9424 36.2163 41.1337 39.4076 45.0704 39.4076Z" fill="url(#paint9_radial_938_25694)"/>
<path id="Vector_11" d="M45.1656 51.3273C49.1023 51.3273 52.2936 48.136 52.2936 44.1993C52.2936 40.2626 49.1023 37.0713 45.1656 37.0713C41.2289 37.0713 38.0376 40.2626 38.0376 44.1993C38.0376 48.136 41.2289 51.3273 45.1656 51.3273Z" fill="url(#paint10_radial_938_25694)"/>
<path id="Vector_12" d="M8.128 22.2565C12.0647 22.2565 15.256 19.0652 15.256 15.1285C15.256 11.1918 12.0647 8.00049 8.128 8.00049C4.19131 8.00049 1 11.1918 1 15.1285C1 19.0652 4.19131 22.2565 8.128 22.2565Z" fill="url(#paint11_radial_938_25694)"/>
<path id="Vector_13" d="M14.1285 37.2575C18.0652 37.2575 21.2565 34.0662 21.2565 30.1295C21.2565 26.1928 18.0652 23.0015 14.1285 23.0015C10.1918 23.0015 7.00049 26.1928 7.00049 30.1295C7.00049 34.0662 10.1918 37.2575 14.1285 37.2575Z" fill="url(#paint12_radial_938_25694)"/>
<path id="Vector_14" d="M11.1285 14.256C15.0652 14.256 18.2565 11.0647 18.2565 7.128C18.2565 3.19131 15.0652 0 11.1285 0C7.1918 0 4.00049 3.19131 4.00049 7.128C4.00049 11.0647 7.1918 14.256 11.1285 14.256Z" fill="url(#paint13_radial_938_25694)"/>
<path id="Vector_15" d="M21.129 15.256C25.0657 15.256 28.257 12.0647 28.257 8.128C28.257 4.19131 25.0657 1 21.129 1C17.1923 1 14.001 4.19131 14.001 8.128C14.001 12.0647 17.1923 15.256 21.129 15.256Z" fill="url(#paint14_radial_938_25694)"/>
<path id="Vector_16" d="M15.1285 26.2567C19.0652 26.2567 22.2565 23.0654 22.2565 19.1287C22.2565 15.192 19.0652 12.0007 15.1285 12.0007C11.1918 12.0007 8.00049 15.192 8.00049 19.1287C8.00049 23.0654 11.1918 26.2567 15.1285 26.2567Z" fill="url(#paint15_radial_938_25694)"/>
<path id="Vector_17" d="M23.129 23.2565C27.0657 23.2565 30.257 20.0652 30.257 16.1285C30.257 12.1918 27.0657 9.00049 23.129 9.00049C19.1923 9.00049 16.001 12.1918 16.001 16.1285C16.001 20.0652 19.1923 23.2565 23.129 23.2565Z" fill="url(#paint16_radial_938_25694)"/>
<path id="Vector_18" d="M30.2589 18.2902C34.1955 18.2902 37.3869 15.0989 37.3869 11.1622C37.3869 7.22549 34.1955 4.03418 30.2589 4.03418C26.3222 4.03418 23.1309 7.22549 23.1309 11.1622C23.1309 15.0989 26.3222 18.2902 30.2589 18.2902Z" fill="url(#paint17_radial_938_25694)"/>
<path id="Vector_19" d="M36.2593 21.2904C40.196 21.2904 43.3873 18.0991 43.3873 14.1624C43.3873 10.2257 40.196 7.03442 36.2593 7.03442C32.3227 7.03442 29.1313 10.2257 29.1313 14.1624C29.1313 18.0991 32.3227 21.2904 36.2593 21.2904Z" fill="url(#paint18_radial_938_25694)"/>
<path id="Vector_20" d="M54.1597 43.1493C58.0964 43.1493 61.2877 39.958 61.2877 36.0213C61.2877 32.0846 58.0964 28.8933 54.1597 28.8933C50.2231 28.8933 47.0317 32.0846 47.0317 36.0213C47.0317 39.958 50.2231 43.1493 54.1597 43.1493Z" fill="url(#paint19_radial_938_25694)"/>
<path id="Vector_21" d="M64.2081 47.5988C68.1448 47.5988 71.3361 44.4075 71.3361 40.4708C71.3361 36.5341 68.1448 33.3428 64.2081 33.3428C60.2714 33.3428 57.0801 36.5341 57.0801 40.4708C57.0801 44.4075 60.2714 47.5988 64.2081 47.5988Z" fill="url(#paint20_radial_938_25694)"/>
<path id="Vector_22" d="M92.21 41.5983C96.1467 41.5983 99.338 38.407 99.338 34.4703C99.338 30.5336 96.1467 27.3423 92.21 27.3423C88.2734 27.3423 85.082 30.5336 85.082 34.4703C85.082 38.407 88.2734 41.5983 92.21 41.5983Z" fill="url(#paint21_radial_938_25694)"/>
<path id="Vector_23" d="M102.211 46.5985C106.147 46.5985 109.339 43.4072 109.339 39.4705C109.339 35.5338 106.147 32.3425 102.211 32.3425C98.2738 32.3425 95.0825 35.5338 95.0825 39.4705C95.0825 43.4072 98.2738 46.5985 102.211 46.5985Z" fill="url(#paint22_radial_938_25694)"/>
<path id="Vector_24" d="M87.2095 46.5985C91.1462 46.5985 94.3375 43.4072 94.3375 39.4705C94.3375 35.5338 91.1462 32.3425 87.2095 32.3425C83.2729 32.3425 80.0815 35.5338 80.0815 39.4705C80.0815 43.4072 83.2729 46.5985 87.2095 46.5985Z" fill="url(#paint23_radial_938_25694)"/>
<path id="Vector_25" d="M56.2076 53.599C60.1443 53.599 63.3356 50.4077 63.3356 46.471C63.3356 42.5343 60.1443 39.343 56.2076 39.343C52.2709 39.343 49.0796 42.5343 49.0796 46.471C49.0796 50.4077 52.2709 53.599 56.2076 53.599Z" fill="url(#paint24_radial_938_25694)"/>
<path id="Vector_26" d="M21.7208 34.8427C25.6575 34.8427 28.8488 31.6514 28.8488 27.7147C28.8488 23.778 25.6575 20.5867 21.7208 20.5867C17.7841 20.5867 14.5928 23.778 14.5928 27.7147C14.5928 31.6514 17.7841 34.8427 21.7208 34.8427Z" fill="url(#paint25_radial_938_25694)"/>
<path id="Vector_27" d="M27.7213 30.8424C31.6579 30.8424 34.8493 27.6511 34.8493 23.7144C34.8493 19.7777 31.6579 16.5864 27.7213 16.5864C23.7846 16.5864 20.5933 19.7777 20.5933 23.7144C20.5933 27.6511 23.7846 30.8424 27.7213 30.8424Z" fill="url(#paint26_radial_938_25694)"/>
<path id="Vector_28" d="M35.0216 34.9584C38.9582 34.9584 42.1496 31.7671 42.1496 27.8304C42.1496 23.8937 38.9582 20.7024 35.0216 20.7024C31.0849 20.7024 27.8936 23.8937 27.8936 27.8304C27.8936 31.7671 31.0849 34.9584 35.0216 34.9584Z" fill="url(#paint27_radial_938_25694)"/>
<path id="Vector_29" d="M36.5318 44.9594C40.4685 44.9594 43.6598 41.7681 43.6598 37.8314C43.6598 33.8947 40.4685 30.7034 36.5318 30.7034C32.5951 30.7034 29.4038 33.8947 29.4038 37.8314C29.4038 41.7681 32.5951 44.9594 36.5318 44.9594Z" fill="url(#paint28_radial_938_25694)"/>
<path id="Vector_30" d="M96.21 51.599C100.147 51.599 103.338 48.4077 103.338 44.471C103.338 40.5343 100.147 37.343 96.21 37.343C92.2733 37.343 89.082 40.5343 89.082 44.471C89.082 48.4077 92.2733 51.599 96.21 51.599Z" fill="url(#paint29_radial_938_25694)"/>
<path id="Vector_31" d="M86.2095 55.5993C90.1462 55.5993 93.3375 52.4079 93.3375 48.4713C93.3375 44.5346 90.1462 41.3433 86.2095 41.3433C82.2729 41.3433 79.0815 44.5346 79.0815 48.4713C79.0815 52.4079 82.2729 55.5993 86.2095 55.5993Z" fill="url(#paint30_radial_938_25694)"/>
<path id="Vector_32" d="M78.2091 58.5995C82.1457 58.5995 85.3371 55.4082 85.3371 51.4715C85.3371 47.5348 82.1457 44.3435 78.2091 44.3435C74.2724 44.3435 71.0811 47.5348 71.0811 51.4715C71.0811 55.4082 74.2724 58.5995 78.2091 58.5995Z" fill="url(#paint31_radial_938_25694)"/>
<path id="Vector_33" d="M77.2091 51.599C81.1457 51.599 84.3371 48.4077 84.3371 44.471C84.3371 40.5343 81.1457 37.343 77.2091 37.343C73.2724 37.343 70.0811 40.5343 70.0811 44.471C70.0811 48.4077 73.2724 51.599 77.2091 51.599Z" fill="url(#paint32_radial_938_25694)"/>
<path id="Vector_34" d="M68.2086 55.5993C72.1453 55.5993 75.3366 52.4079 75.3366 48.4713C75.3366 44.5346 72.1453 41.3433 68.2086 41.3433C64.2719 41.3433 61.0806 44.5346 61.0806 48.4713C61.0806 52.4079 64.2719 55.5993 68.2086 55.5993Z" fill="url(#paint33_radial_938_25694)"/>
<path id="Vector_35" d="M62.8541 27.3451C66.7908 27.3451 69.9821 24.1538 69.9821 20.2171C69.9821 16.2804 66.7908 13.0891 62.8541 13.0891C58.9174 13.0891 55.7261 16.2804 55.7261 20.2171C55.7261 24.1538 58.9174 27.3451 62.8541 27.3451Z" fill="url(#paint34_radial_938_25694)"/>
<path id="Vector_36" d="M64.3648 37.3461C68.3015 37.3461 71.4928 34.1548 71.4928 30.2181C71.4928 26.2814 68.3015 23.0901 64.3648 23.0901C60.4281 23.0901 57.2368 26.2814 57.2368 30.2181C57.2368 34.1548 60.4281 37.3461 64.3648 37.3461Z" fill="url(#paint35_radial_938_25694)"/>
</g>
<defs>
<radialGradient id="paint0_radial_938_25694" cx="0" cy="0" r="1" gradientTransform="matrix(-4.98801 6.73842 -6.63866 -4.91423 77.9354 34.6796)" gradientUnits="userSpaceOnUse">
<stop stop-color="#CED7E6"/>
<stop offset="1" stop-color="#F45546"/>
</radialGradient>
<radialGradient id="paint1_radial_938_25694" cx="0" cy="0" r="1" gradientTransform="matrix(-4.988 6.73842 -6.63866 -4.91423 28.183 44.1479)" gradientUnits="userSpaceOnUse">
<stop stop-color="#CED7E6"/>
<stop offset="1" stop-color="#F45546"/>
</radialGradient>
<radialGradient id="paint2_radial_938_25694" cx="0" cy="0" r="1" gradientTransform="matrix(-4.988 6.73842 -6.63866 -4.91423 23.183 38.1474)" gradientUnits="userSpaceOnUse">
<stop stop-color="#CED7E6"/>
<stop offset="1" stop-color="#F45546"/>
</radialGradient>
<radialGradient id="paint3_radial_938_25694" cx="0" cy="0" r="1" gradientTransform="matrix(-4.98801 6.73842 -6.63866 -4.91423 75.5399 23.5817)" gradientUnits="userSpaceOnUse">
<stop stop-color="#CED7E6"/>
<stop offset="1" stop-color="#F45546"/>
</radialGradient>
<radialGradient id="paint4_radial_938_25694" cx="0" cy="0" r="1" gradientTransform="matrix(-4.988 6.73842 -6.63866 -4.91423 37.7757 43.7331)" gradientUnits="userSpaceOnUse">
<stop stop-color="#CED7E6"/>
<stop offset="1" stop-color="#F45546"/>
</radialGradient>
<radialGradient id="paint5_radial_938_25694" cx="0" cy="0" r="1" gradientTransform="matrix(-4.988 6.73842 -6.63866 -4.91423 31.7752 32.7324)" gradientUnits="userSpaceOnUse">
<stop stop-color="#CED7E6"/>
<stop offset="1" stop-color="#F45546"/>
</radialGradient>
<radialGradient id="paint6_radial_938_25694" cx="0" cy="0" r="1" gradientTransform="matrix(-4.988 6.73842 -6.63866 -4.91423 45.8656 23.9631)" gradientUnits="userSpaceOnUse">
<stop stop-color="#CED7E6"/>
<stop offset="1" stop-color="#F45546"/>
</radialGradient>
<radialGradient id="paint7_radial_938_25694" cx="0" cy="0" r="1" gradientTransform="matrix(-4.988 6.73842 -6.63866 -4.91423 56.37 25.7861)" gradientUnits="userSpaceOnUse">
<stop stop-color="#CED7E6"/>
<stop offset="1" stop-color="#F45546"/>
</radialGradient>
<radialGradient id="paint8_radial_938_25694" cx="0" cy="0" r="1" gradientTransform="matrix(-4.988 6.73842 -6.63866 -4.91423 9.18198 24.1464)" gradientUnits="userSpaceOnUse">
<stop stop-color="#CED7E6"/>
<stop offset="1" stop-color="#F45546"/>
</radialGradient>
<radialGradient id="paint9_radial_938_25694" cx="0" cy="0" r="1" gradientTransform="matrix(-4.988 6.73842 -6.63866 -4.91423 47.1244 32.2971)" gradientUnits="userSpaceOnUse">
<stop stop-color="#CED7E6"/>
<stop offset="1" stop-color="#F45546"/>
</radialGradient>
<radialGradient id="paint10_radial_938_25694" cx="0" cy="0" r="1" gradientTransform="matrix(-4.988 6.73841 -6.63866 -4.91423 47.2196 44.2167)" gradientUnits="userSpaceOnUse">
<stop stop-color="#CED7E6"/>
<stop offset="1" stop-color="#F45546"/>
</radialGradient>
<radialGradient id="paint11_radial_938_25694" cx="0" cy="0" r="1" gradientTransform="matrix(-4.988 6.73842 -6.63866 -4.91423 10.182 15.146)" gradientUnits="userSpaceOnUse">
<stop stop-color="#CED7E6"/>
<stop offset="1" stop-color="#F45546"/>
</radialGradient>
<radialGradient id="paint12_radial_938_25694" cx="0" cy="0" r="1" gradientTransform="matrix(-4.988 6.73842 -6.63866 -4.91423 16.1825 30.1469)" gradientUnits="userSpaceOnUse">
<stop stop-color="#CED7E6"/>
<stop offset="1" stop-color="#F45546"/>
</radialGradient>
<radialGradient id="paint13_radial_938_25694" cx="0" cy="0" r="1" gradientTransform="matrix(-4.988 6.73842 -6.63866 -4.91423 13.1825 7.14546)" gradientUnits="userSpaceOnUse">
<stop stop-color="#CED7E6"/>
<stop offset="1" stop-color="#F45546"/>
</radialGradient>
<radialGradient id="paint14_radial_938_25694" cx="0" cy="0" r="1" gradientTransform="matrix(-4.988 6.73842 -6.63866 -4.91423 23.183 8.14546)" gradientUnits="userSpaceOnUse">
<stop stop-color="#CED7E6"/>
<stop offset="1" stop-color="#F45546"/>
</radialGradient>
<radialGradient id="paint15_radial_938_25694" cx="0" cy="0" r="1" gradientTransform="matrix(-4.988 6.73842 -6.63866 -4.91423 17.1825 19.1462)" gradientUnits="userSpaceOnUse">
<stop stop-color="#CED7E6"/>
<stop offset="1" stop-color="#F45546"/>
</radialGradient>
<radialGradient id="paint16_radial_938_25694" cx="0" cy="0" r="1" gradientTransform="matrix(-4.988 6.73842 -6.63866 -4.91423 25.183 16.146)" gradientUnits="userSpaceOnUse">
<stop stop-color="#CED7E6"/>
<stop offset="1" stop-color="#F45546"/>
</radialGradient>
<radialGradient id="paint17_radial_938_25694" cx="0" cy="0" r="1" gradientTransform="matrix(-4.988 6.73842 -6.63866 -4.91423 32.3128 11.1796)" gradientUnits="userSpaceOnUse">
<stop stop-color="#CED7E6"/>
<stop offset="1" stop-color="#F45546"/>
</radialGradient>
<radialGradient id="paint18_radial_938_25694" cx="0" cy="0" r="1" gradientTransform="matrix(-4.988 6.73842 -6.63866 -4.91423 38.3133 14.1799)" gradientUnits="userSpaceOnUse">
<stop stop-color="#CED7E6"/>
<stop offset="1" stop-color="#F45546"/>
</radialGradient>
<radialGradient id="paint19_radial_938_25694" cx="0" cy="0" r="1" gradientTransform="matrix(-4.988 6.73842 -6.63866 -4.91423 56.2137 36.0388)" gradientUnits="userSpaceOnUse">
<stop stop-color="#CED7E6"/>
<stop offset="1" stop-color="#F45546"/>
</radialGradient>
<radialGradient id="paint20_radial_938_25694" cx="0" cy="0" r="1" gradientTransform="matrix(-4.988 6.73841 -6.63866 -4.91423 66.2621 40.4882)" gradientUnits="userSpaceOnUse">
<stop stop-color="#CED7E6"/>
<stop offset="1" stop-color="#F45546"/>
</radialGradient>
<radialGradient id="paint21_radial_938_25694" cx="0" cy="0" r="1" gradientTransform="matrix(-4.98801 6.73842 -6.63866 -4.91423 94.264 34.4877)" gradientUnits="userSpaceOnUse">
<stop stop-color="#CED7E6"/>
<stop offset="1" stop-color="#F45546"/>
</radialGradient>
<radialGradient id="paint22_radial_938_25694" cx="0" cy="0" r="1" gradientTransform="matrix(-4.988 6.73842 -6.63865 -4.91423 104.264 39.488)" gradientUnits="userSpaceOnUse">
<stop stop-color="#CED7E6"/>
<stop offset="1" stop-color="#F45546"/>
</radialGradient>
<radialGradient id="paint23_radial_938_25694" cx="0" cy="0" r="1" gradientTransform="matrix(-4.988 6.73842 -6.63865 -4.91423 89.2635 39.488)" gradientUnits="userSpaceOnUse">
<stop stop-color="#CED7E6"/>
<stop offset="1" stop-color="#F45546"/>
</radialGradient>
<radialGradient id="paint24_radial_938_25694" cx="0" cy="0" r="1" gradientTransform="matrix(-4.988 6.73842 -6.63866 -4.91423 58.2616 46.4885)" gradientUnits="userSpaceOnUse">
<stop stop-color="#CED7E6"/>
<stop offset="1" stop-color="#F45546"/>
</radialGradient>
<radialGradient id="paint25_radial_938_25694" cx="0" cy="0" r="1" gradientTransform="matrix(-4.988 6.73842 -6.63866 -4.91423 23.7748 27.7321)" gradientUnits="userSpaceOnUse">
<stop stop-color="#CED7E6"/>
<stop offset="1" stop-color="#F45546"/>
</radialGradient>
<radialGradient id="paint26_radial_938_25694" cx="0" cy="0" r="1" gradientTransform="matrix(-4.988 6.73842 -6.63866 -4.91423 29.7752 23.7319)" gradientUnits="userSpaceOnUse">
<stop stop-color="#CED7E6"/>
<stop offset="1" stop-color="#F45546"/>
</radialGradient>
<radialGradient id="paint27_radial_938_25694" cx="0" cy="0" r="1" gradientTransform="matrix(-4.988 6.73842 -6.63866 -4.91423 37.0755 27.8479)" gradientUnits="userSpaceOnUse">
<stop stop-color="#CED7E6"/>
<stop offset="1" stop-color="#F45546"/>
</radialGradient>
<radialGradient id="paint28_radial_938_25694" cx="0" cy="0" r="1" gradientTransform="matrix(-4.988 6.73842 -6.63866 -4.91423 38.5858 37.8488)" gradientUnits="userSpaceOnUse">
<stop stop-color="#CED7E6"/>
<stop offset="1" stop-color="#F45546"/>
</radialGradient>
<radialGradient id="paint29_radial_938_25694" cx="0" cy="0" r="1" gradientTransform="matrix(-4.988 6.73842 -6.63865 -4.91423 98.264 44.4885)" gradientUnits="userSpaceOnUse">
<stop stop-color="#CED7E6"/>
<stop offset="1" stop-color="#F45546"/>
</radialGradient>
<radialGradient id="paint30_radial_938_25694" cx="0" cy="0" r="1" gradientTransform="matrix(-4.988 6.73842 -6.63865 -4.91423 88.2635 48.4887)" gradientUnits="userSpaceOnUse">
<stop stop-color="#CED7E6"/>
<stop offset="1" stop-color="#F45546"/>
</radialGradient>
<radialGradient id="paint31_radial_938_25694" cx="0" cy="0" r="1" gradientTransform="matrix(-4.98801 6.73842 -6.63866 -4.91423 80.263 51.489)" gradientUnits="userSpaceOnUse">
<stop stop-color="#CED7E6"/>
<stop offset="1" stop-color="#F45546"/>
</radialGradient>
<radialGradient id="paint32_radial_938_25694" cx="0" cy="0" r="1" gradientTransform="matrix(-4.98801 6.73842 -6.63866 -4.91423 79.263 44.4885)" gradientUnits="userSpaceOnUse">
<stop stop-color="#CED7E6"/>
<stop offset="1" stop-color="#F45546"/>
</radialGradient>
<radialGradient id="paint33_radial_938_25694" cx="0" cy="0" r="1" gradientTransform="matrix(-4.988 6.73842 -6.63866 -4.91423 70.2625 48.4887)" gradientUnits="userSpaceOnUse">
<stop stop-color="#CED7E6"/>
<stop offset="1" stop-color="#F45546"/>
</radialGradient>
<radialGradient id="paint34_radial_938_25694" cx="0" cy="0" r="1" gradientTransform="matrix(-4.988 6.73842 -6.63865 -4.91423 64.9081 20.2346)" gradientUnits="userSpaceOnUse">
<stop stop-color="#CED7E6"/>
<stop offset="1" stop-color="#F45546"/>
</radialGradient>
<radialGradient id="paint35_radial_938_25694" cx="0" cy="0" r="1" gradientTransform="matrix(-4.988 6.73842 -6.63865 -4.91423 66.4188 30.2356)" gradientUnits="userSpaceOnUse">
<stop stop-color="#CED7E6"/>
<stop offset="1" stop-color="#F45546"/>
</radialGradient>
</defs>
</svg>
