<svg width="86" height="150" viewBox="0 0 86 150" fill="none" xmlns="http://www.w3.org/2000/svg">
<g id="R-ICO-014839" opacity="0.7">
<path id="BG" d="M82.0601 106.351C79.8872 101.813 75.814 82.2587 74.152 78.1714C71.5762 71.8366 68.4484 66.4134 61.849 58.3426C58.4627 54.2013 58.9638 53.1121 56.9603 47.4451C55.071 42.1011 55.2742 34.7585 54.9855 30.5345C54.8634 28.7485 54.9431 26.9579 55.1473 25.1795C55.2548 24.2433 55.3114 23.2749 55.3114 22.2831C55.3114 14.1879 48.8862 6.81492 40.8413 5.14092C31.6506 3.22842 32.4838 11.7034 32.4838 19.7986C32.4838 22.3206 32.8474 24.6931 33.4874 26.7649C34.357 29.5802 34.4227 32.5739 33.6852 35.4267C33.3887 36.5736 33.114 37.7572 32.8646 38.9711C32.6343 32.2094 30.9861 26.2592 28.532 22.3877C27.7066 21.0856 27.1565 19.6308 26.844 18.1212C26.7273 17.5574 26.5966 16.9893 26.4511 16.4182C23.8806 6.32092 20.829 -0.25648 12.9704 0.38262C7.95694 0.79032 3.60684 3.84952 8.79894 20.9122C9.76864 24.0988 10.7976 27.0673 12.1765 29.519C11.2968 32.8035 10.7952 36.5827 10.7952 40.605C10.7952 45.0032 11.3943 49.1113 12.4326 52.5988C13.2856 55.464 13.2809 58.5272 12.3377 61.364C12.2023 61.7712 12.0934 62.4728 12.0117 63.2745C11.7311 66.0272 9.83924 68.1013 8.55104 70.5501C2.98534 81.1299 0.339844 84.9498 0.339844 95.7871C0.339844 98.9046 0.613844 101.907 1.12084 104.72C2.16864 110.534 1.95954 116.494 0.739544 122.274C0.478044 123.513 0.339844 124.804 0.339844 126.131C0.339844 135.434 7.13254 142.975 15.5118 142.975C23.8911 142.975 30.6838 135.434 30.6838 126.131C30.6838 124.651 30.5113 123.215 30.1877 121.848C29.2484 117.879 29.2596 113.733 30.4647 109.836C31.7511 105.676 32.4839 100.886 32.4839 95.7871C32.4839 91.8142 32.4708 89.9528 31.6396 86.513C30.2954 80.9499 32.0138 81.2223 33.7408 81.0067C33.9075 80.9859 34.0621 80.9638 34.1988 80.9404C36.5302 80.5422 38.9932 83.7398 39.3366 86.0799C39.6507 88.2207 39.8748 88.777 40.5644 90.9647C40.7924 91.688 41.0373 92.3987 41.2981 93.096C43.7725 99.7117 44.4703 106.88 43.0072 113.79C42.4962 116.203 42.2231 118.747 42.2231 121.374C42.2231 136.996 51.8775 149.661 63.7868 149.661C75.6961 149.661 85.3505 136.996 85.3505 121.374C85.3506 115.854 84.1448 110.704 82.0601 106.351Z" fill="#E7C6AB" stroke="#C79773" stroke-width="0.6789" stroke-miterlimit="10" stroke-linecap="round" stroke-linejoin="round"/>
<g id="SHINE">
<path id="Vector" d="M31.9394 99.5395C30.692 108.181 25.8837 114.637 21.1998 113.961C16.5159 113.285 13.7301 105.732 14.9775 97.0909C16.2249 88.4499 21.0332 81.993 25.7171 82.6692C30.401 83.3454 33.1869 90.8985 31.9394 99.5395Z" fill="url(#paint0_radial_938_24606)"/>
<path id="Vector_2" d="M15.7951 91.2026C14.7864 98.1898 10.6901 103.381 6.64565 102.797C2.60125 102.213 0.140253 96.0754 1.14895 89.0882C2.15765 82.1011 6.25395 76.9102 10.2984 77.494C14.3428 78.0778 16.8038 84.2154 15.7951 91.2026Z" fill="url(#paint1_radial_938_24606)"/>
<path id="Vector_3" d="M24.691 42.0325C25.2612 49.069 22.6598 55.0215 18.8806 55.3278C15.1014 55.6341 11.5755 50.1781 11.0052 43.1416C10.435 36.1051 13.0364 30.1526 16.8156 29.8463C20.5948 29.5401 24.1208 34.996 24.691 42.0325Z" fill="url(#paint2_radial_938_24606)"/>
<path id="Vector_4" d="M29.7578 122.21C31.7428 129.499 29.637 136.421 25.0543 137.669C20.4716 138.917 15.1474 134.018 13.1623 126.728C11.1773 119.439 13.2831 112.517 17.8658 111.269C22.4485 110.021 27.7728 114.92 29.7578 122.21Z" fill="url(#paint3_radial_938_24606)"/>
<path id="Vector_5" d="M28.677 111.554C28.0942 119.087 23.783 124.897 19.0476 124.531C14.3122 124.164 10.9458 117.761 11.5285 110.228C12.1112 102.695 16.4225 96.8855 21.1579 97.2518C25.8933 97.6181 29.2597 104.022 28.677 111.554Z" fill="url(#paint4_radial_938_24606)"/>
<path id="Vector_6" d="M10.1529 126.952C10.2702 132.776 8.20511 137.542 5.54031 137.595C2.87551 137.649 0.620214 132.971 0.502814 127.146C0.385414 121.321 2.45061 116.556 5.11541 116.502C7.78021 116.449 10.0355 121.127 10.1529 126.952Z" fill="url(#paint5_radial_938_24606)"/>
<path id="Vector_7" d="M11.4372 117.295C11.5872 124.744 9.54857 130.826 6.88377 130.88C4.21897 130.934 1.93707 124.938 1.78707 117.489C1.63707 110.04 3.67567 103.958 6.34047 103.904C9.00527 103.85 11.2872 109.846 11.4372 117.295Z" fill="url(#paint6_radial_938_24606)"/>
<path id="Vector_8" d="M20.032 68.6613C15.3007 67.9783 11.855 64.7247 12.3358 61.3941C12.8166 58.0636 17.0418 55.9173 21.7731 56.6003C26.5044 57.2833 29.9501 60.5369 29.4693 63.8675C28.9885 67.1981 24.7633 69.3443 20.032 68.6613Z" fill="url(#paint7_radial_938_24606)"/>
<path id="Vector_9" d="M29.1229 63.0708C26.4433 67.7121 22.148 70.2488 19.5291 68.7368C16.9102 67.2248 16.9595 62.2366 19.6391 57.5953C22.3187 52.954 26.614 50.4173 29.2329 51.9293C31.8518 53.4413 31.8026 58.4295 29.1229 63.0708Z" fill="url(#paint8_radial_938_24606)"/>
<path id="Vector_10" d="M20.3244 82.7915C23.6895 82.7915 26.4174 80.0635 26.4174 76.6985C26.4174 73.3334 23.6895 70.6055 20.3244 70.6055C16.9594 70.6055 14.2314 73.3334 14.2314 76.6985C14.2314 80.0635 16.9594 82.7915 20.3244 82.7915Z" fill="url(#paint9_radial_938_24606)"/>
<path id="Vector_11" d="M32.3429 36.6926C32.9131 43.7291 31.42 49.5918 29.0078 49.7873C26.5957 49.9828 24.178 44.437 23.6077 37.4005C23.0374 30.364 24.5306 24.5013 26.9428 24.3058C29.355 24.1103 31.7727 29.6561 32.3429 36.6926Z" fill="url(#paint10_radial_938_24606)"/>
<path id="Vector_12" d="M16.9935 15.7152C19.2898 21.9348 19.3108 27.6562 17.0406 28.4944C14.7704 29.3326 11.0684 24.9701 8.77222 18.7506C6.47602 12.5311 6.45482 6.80951 8.72512 5.97131C10.9954 5.13311 14.6972 9.4956 16.9935 15.7152Z" fill="url(#paint11_radial_938_24606)"/>
<path id="Vector_13" d="M25.5571 13.9203C27.2723 18.566 26.9862 22.9511 24.918 23.7147C22.8498 24.4783 19.7829 21.3311 18.0677 16.6854C16.3525 12.0397 16.6386 7.65463 18.7067 6.89103C20.7748 6.12743 23.8419 9.27463 25.5571 13.9203Z" fill="url(#paint12_radial_938_24606)"/>
<path id="Vector_14" d="M74.6682 139.372C74.1861 145.603 68.9523 150.28 62.9781 149.818C57.0039 149.356 52.5517 143.93 53.0338 137.698C53.5159 131.466 58.7497 126.789 64.7239 127.251C70.6981 127.713 75.1503 133.14 74.6682 139.372Z" fill="url(#paint13_radial_938_24606)"/>
<path id="Vector_15" d="M58.2506 122.298C59.1063 129.889 56.3571 136.43 52.1101 136.909C47.8631 137.387 43.7266 131.622 42.8709 124.032C42.0152 116.441 44.7644 109.9 49.0114 109.421C53.2584 108.943 57.395 114.708 58.2506 122.298Z" fill="url(#paint14_radial_938_24606)"/>
<path id="Vector_16" d="M74.6682 139.372C74.1861 145.603 68.9523 150.28 62.9781 149.818C57.0039 149.356 52.5517 143.93 53.0338 137.698C53.5159 131.466 58.7497 126.789 64.7239 127.251C70.6981 127.713 75.1503 133.14 74.6682 139.372Z" fill="url(#paint15_radial_938_24606)"/>
<path id="Vector_17" d="M79.2127 108.85C85.0916 119.032 85.6507 129.716 80.4615 132.712C75.2723 135.708 66.2997 129.882 60.4208 119.699C54.5419 109.517 53.9828 98.8333 59.172 95.8373C64.3612 92.8413 73.3337 98.6672 79.2127 108.85Z" fill="url(#paint16_radial_938_24606)"/>
<path id="Vector_18" d="M66.5712 75.9102C74.7988 81.766 79.2516 89.6282 76.5166 93.4708C73.7817 97.3134 64.8948 95.6814 56.6672 89.8256C48.4396 83.9698 43.9868 76.1076 46.7218 72.265C49.4568 68.4224 58.3435 70.0544 66.5712 75.9102Z" fill="url(#paint17_radial_938_24606)"/>
<path id="Vector_19" d="M72.6248 85.4093C78.2252 91.2775 80.5435 98.1551 77.8028 100.771C75.0621 103.386 68.3003 100.75 62.6998 94.8813C57.0994 89.0131 54.7811 82.1355 57.5218 79.5199C60.2626 76.9043 67.0244 79.541 72.6248 85.4093Z" fill="url(#paint18_radial_938_24606)"/>
<path id="Vector_20" d="M60.6803 69.9653C69.7525 73.8019 75.9107 79.7407 74.435 83.2301C72.9593 86.7195 64.4087 86.438 55.3365 82.6014C46.2643 78.7648 40.1061 72.826 41.5817 69.3366C43.0573 65.8472 51.6081 66.1287 60.6803 69.9653Z" fill="url(#paint19_radial_938_24606)"/>
<path id="Vector_21" d="M54.6507 90.7423C57.0161 98.5083 56.023 105.69 52.4324 106.784C48.8418 107.878 44.0135 102.469 41.6481 94.7027C39.2827 86.9367 40.2758 79.7546 43.8664 78.661C47.457 77.5674 52.2853 82.9764 54.6507 90.7423Z" fill="url(#paint20_radial_938_24606)"/>
<path id="Vector_22" d="M51.0327 83.0285C52.7573 90.3803 51.617 96.9355 48.4859 97.67C45.3548 98.4045 41.4185 93.0401 39.6939 85.6883C37.9693 78.3365 39.1096 71.7813 42.2407 71.0468C45.3719 70.3123 49.3082 75.6767 51.0327 83.0285Z" fill="url(#paint21_radial_938_24606)"/>
<path id="Vector_23" d="M45.6241 45.0233C44.7113 53.09 40.9479 59.2873 37.2183 58.8653C33.4887 58.4433 31.2051 51.5618 32.1179 43.4951C33.0307 35.4284 36.7941 29.2311 40.5237 29.6531C44.2533 30.0751 46.5368 36.9566 45.6241 45.0233Z" fill="url(#paint22_radial_938_24606)"/>
<path id="Vector_24" d="M41.7746 22.6022C42.7802 28.1702 41.644 33.0365 39.2369 33.4712C36.8298 33.9059 34.0633 29.7445 33.0577 24.1764C32.0521 18.6084 33.1883 13.7422 35.5954 13.3075C38.0026 12.8728 40.7691 17.0342 41.7746 22.6022Z" fill="url(#paint23_radial_938_24606)"/>
<path id="Vector_25" d="M52.6779 14.2577C55.3246 19.2586 55.0788 24.5783 52.1287 26.1396C49.1787 27.7009 44.6416 24.9126 41.9949 19.9117C39.3482 14.9108 39.594 9.59106 42.5441 8.02976C45.4942 6.46846 50.0312 9.25686 52.6779 14.2577Z" fill="url(#paint24_radial_938_24606)"/>
<path id="Vector_26" d="M55.7952 42.7741C56.4989 51.4575 54.3725 58.7154 51.0457 58.985C47.7189 59.2546 44.4515 52.4338 43.7478 43.7504C43.0441 35.067 45.1705 27.8091 48.4973 27.5395C51.8242 27.2698 55.0915 34.0906 55.7952 42.7741Z" fill="url(#paint25_radial_938_24606)"/>
<path id="Vector_27" d="M57.6371 57.0264C62.713 58.541 66.1378 62.0813 65.2866 64.9339C64.4354 67.7864 59.6306 68.871 54.5547 67.3564C49.4788 65.8418 46.054 62.3015 46.9052 59.4489C47.7563 56.5963 52.5612 55.5117 57.6371 57.0264Z" fill="url(#paint26_radial_938_24606)"/>
<path id="Vector_28" d="M63.3159 63.2839C68.7901 67.3928 72.2876 71.9763 71.1279 73.5214C69.9682 75.0665 64.5903 72.9881 59.1161 68.8791C53.6419 64.7701 50.1444 60.1867 51.3041 58.6416C52.4639 57.0965 57.8418 59.1749 63.3159 63.2839Z" fill="url(#paint27_radial_938_24606)"/>
<path id="Vector_29" d="M45.4646 65.798C43.7141 69.9374 40.1729 72.3957 37.5553 71.2887C34.9377 70.1817 34.2347 65.9287 35.9853 61.7892C37.7359 57.6497 41.277 55.1915 43.8946 56.2985C46.5122 57.4055 47.2152 61.6585 45.4646 65.798Z" fill="url(#paint28_radial_938_24606)"/>
<path id="Vector_30" d="M39.2155 57.9024C38.7102 62.3683 36.4469 65.7788 34.1602 65.5201C31.8736 65.2614 30.4295 61.4313 30.9348 56.9655C31.4401 52.4996 33.7034 49.0891 35.9901 49.3478C38.2768 49.6065 39.7208 53.4366 39.2155 57.9024Z" fill="url(#paint29_radial_938_24606)"/>
<path id="Vector_31" d="M39.2306 50.3159C38.8899 54.7973 36.7536 58.2888 34.459 58.1144C32.1644 57.94 30.5804 54.1657 30.9211 49.6842C31.2618 45.2028 33.3981 41.7113 35.6927 41.8857C37.9873 42.0601 39.5712 45.8344 39.2306 50.3159Z" fill="url(#paint30_radial_938_24606)"/>
<path id="Vector_32" d="M37.3116 74.083C38.0193 77.0999 36.3499 80.0718 33.5829 80.7209C30.8159 81.37 27.9991 79.4504 27.2914 76.4335C26.5837 73.4166 28.2531 70.4447 31.0201 69.7956C33.7872 69.1466 36.6039 71.0661 37.3116 74.083Z" fill="url(#paint31_radial_938_24606)"/>
<path id="Vector_33" d="M36.2472 71.2207C36.9549 74.2376 35.2855 77.2095 32.5185 77.8586C29.7515 78.5077 26.9347 76.5881 26.227 73.5712C25.5193 70.5543 27.1887 67.5824 29.9557 66.9333C32.7227 66.2842 35.5395 68.2037 36.2472 71.2207Z" fill="url(#paint32_radial_938_24606)"/>
<path id="Vector_34" d="M35.6612 68.893C36.3689 71.9099 34.6995 74.8818 31.9325 75.5309C29.1655 76.18 26.3487 74.2604 25.641 71.2435C24.9333 68.2266 26.6027 65.2547 29.3697 64.6056C32.1367 63.9566 34.9535 65.8761 35.6612 68.893Z" fill="url(#paint33_radial_938_24606)"/>
<path id="Vector_35" d="M16.0465 134.767C16.7542 137.784 15.6145 140.631 13.5009 141.127C11.3873 141.623 9.10024 139.579 8.39254 136.562C7.68484 133.545 8.82454 130.698 10.9381 130.202C13.0517 129.706 15.3388 131.75 16.0465 134.767Z" fill="url(#paint34_radial_938_24606)"/>
<path id="Vector_36" d="M15.4139 136.228C18.5035 136.467 20.8984 138.079 20.7631 139.827C20.6278 141.576 18.0135 142.8 14.924 142.561C11.8344 142.322 9.4395 140.711 9.5748 138.962C9.7101 137.213 12.3244 135.989 15.4139 136.228Z" fill="url(#paint35_radial_938_24606)"/>
</g>
<g id="TEXTURE">
<path id="Vector_37" d="M14.2547 129.857C13.6654 128.76 13.056 127.626 12.5065 123.724C12.1943 121.506 12.0928 121.315 11.7127 121.341C11.295 121.367 11.2757 121.724 11.2433 123.622C11.1985 126.246 10.7371 127.017 10.2031 127.91C9.99228 128.262 9.77448 128.626 9.56668 129.118C9.13128 130.147 9.19788 130.447 9.33468 130.619C9.42898 130.737 9.57568 130.792 9.72738 130.765C10.1134 130.696 10.4098 130.098 10.5241 129.755C10.6572 129.355 11.215 128.623 11.8525 128.584C12.537 128.538 13.0657 129.348 13.3884 130.03C14.0305 131.387 14.3278 131.636 14.5222 131.636C14.5818 131.636 14.6317 131.613 14.6789 131.591C15.0247 131.428 14.8602 131.075 14.6694 130.667C14.5334 130.375 14.3917 130.112 14.2547 129.857Z" fill="#C79773"/>
<path id="Vector_38" d="M10.7599 110.609C10.7656 110.791 10.913 110.935 11.0946 110.938H11.0993C11.2787 110.938 11.4275 110.798 11.438 110.619C11.4397 110.591 11.4581 110.254 11.4286 109.731C11.4598 106.431 12.3174 105.153 12.6276 104.798C12.6861 104.748 12.7414 104.695 12.7934 104.636C12.9087 104.507 12.9085 104.312 12.7928 104.183C12.6772 104.055 12.4831 104.033 12.3424 104.135C12.3295 104.144 12.2643 104.193 12.1669 104.297C11.4055 104.894 9.76542 104.299 8.60282 103.714C8.29642 103.497 7.96782 103.313 7.61772 103.161C7.45552 103.091 7.26602 103.157 7.18322 103.314C7.10022 103.47 7.15132 103.664 7.30052 103.759C7.32492 103.775 7.69172 104.007 8.23202 104.283C10.263 105.734 10.6737 108.465 10.7492 109.802C10.7478 110.06 10.7511 110.329 10.7599 110.609Z" fill="#C79773"/>
<path id="Vector_39" d="M23.0419 82.485C22.5715 82.7392 22.1148 83.0356 21.6721 83.3742C21.0282 83.7817 20.195 84.2952 19.2686 84.8323C18.6211 85.2074 18.0896 85.2966 17.5453 85.1202C17.1432 84.9903 16.6907 84.113 16.3331 83.1469C16.0874 82.2806 15.8719 81.6393 15.8501 81.5747C15.792 81.4024 15.6087 81.3077 15.4339 81.3574C15.2594 81.4081 15.1557 81.5873 15.1988 81.7639C15.2595 82.0127 15.4312 82.677 15.6969 83.3968C16.0552 84.6682 16.4689 86.3919 16.4089 87.393C16.3304 88.7023 15.9343 90.2577 15.5514 91.7616C15.3499 92.5527 15.1416 93.3707 14.9809 94.147C14.7284 95.3667 14.5075 96.473 14.3237 97.4137C13.8806 99.3468 13.7087 100.672 13.7059 100.693C13.6827 100.876 13.8095 101.044 13.9916 101.072C14.0089 101.074 14.026 101.075 14.043 101.075C14.2049 101.075 14.3477 100.959 14.3768 100.795C14.38 100.777 14.5909 99.5919 14.9611 97.6915C15.855 93.7679 17.9196 87.1209 22.0859 83.9156C22.886 83.4083 23.3849 83.0706 23.3938 83.0647C23.5435 82.9631 23.5873 82.7622 23.4935 82.6075C23.3997 82.453 23.2013 82.399 23.0419 82.485Z" fill="#C79773"/>
<path id="Vector_40" d="M13.5193 73.7625C13.5503 73.8257 13.6035 73.969 13.6502 74.2676C13.6606 74.4306 13.6796 74.5988 13.7084 74.773C13.7357 74.9386 13.8791 75.0572 14.0429 75.0572C14.0567 75.0572 14.0707 75.0563 14.0847 75.0546C14.2654 75.0323 14.3963 74.8716 14.3816 74.6902C14.3665 74.5038 14.3477 74.3404 14.3259 74.1969C14.2946 73.6507 14.3782 73.1796 14.5346 72.7625C14.5644 72.7009 14.5944 72.6364 14.6245 72.5691C14.7857 72.209 15 71.8723 15.2518 71.5638C15.2672 71.545 15.2828 71.5262 15.2984 71.5075C16.253 70.3711 17.7131 69.6276 18.863 69.5113C20.6675 69.3288 22.0019 69.6634 22.0151 69.6668C22.1963 69.7136 22.3806 69.6049 22.4279 69.4242C22.4753 69.2436 22.368 69.0586 22.1876 69.0103C22.0951 68.9854 19.9029 68.4046 18.286 68.5193C17.7428 68.5593 17.2495 68.3009 16.8755 68.0094C16.6982 67.7456 16.4368 67.4773 16.0851 67.1954C15.9534 67.0897 15.7646 67.0969 15.6413 67.2119C15.5181 67.3269 15.4977 67.5148 15.5936 67.6534C15.6166 67.6866 15.8972 68.0856 16.3632 68.4702C16.437 68.5989 16.4769 68.7207 16.4838 68.8366C16.5093 69.2656 16.0596 69.7232 15.5391 70.253C14.9834 70.8186 14.305 71.509 13.9283 72.4574C13.7088 72.915 13.5688 73.0611 13.5223 73.1009C13.4965 73.1077 13.4715 73.1171 13.4474 73.1291C13.3153 73.1952 13.241 73.3393 13.2639 73.4852C13.2851 73.6216 13.3868 73.7306 13.5193 73.7625Z" fill="#C79773"/>
<path id="Vector_41" d="M26.2384 50.8956C26.2288 50.8942 26.1833 50.8879 26.1085 50.8829C25.7487 50.8378 25.507 50.6663 25.4236 49.6644C25.2964 48.1375 25.153 46.4071 25.0399 45.0412C25.0196 44.1619 24.9412 43.3309 24.8362 42.5822C24.8107 42.4004 24.6447 42.2726 24.4624 42.292C24.2799 42.3123 24.1466 42.4741 24.1617 42.6573C24.1617 42.6573 24.247 43.6907 24.3651 45.1165C24.4435 48.8872 23.3474 51.3877 22.3116 52.8967C22.1321 53.1582 21.9493 53.3981 21.7671 53.618C21.4603 53.9603 21.1329 54.31 20.8018 54.6241C20.0221 55.3241 19.4187 55.622 19.4091 55.6267C19.2437 55.7063 19.1715 55.9031 19.2463 56.0708C19.3025 56.1968 19.4264 56.2721 19.5564 56.2721C19.5997 56.2721 19.6437 56.2638 19.686 56.2462C20.1961 56.0352 20.7188 55.6349 21.2256 55.1595C21.5588 54.8624 21.9217 54.497 22.2874 54.0552C22.4908 53.8277 22.6871 53.6015 22.8744 53.3859C23.304 52.8912 23.675 52.464 23.9229 52.2625C24.8163 51.5368 25.8012 51.5439 26.0696 51.5612C26.1007 51.5649 26.1325 51.5679 26.165 51.5702C26.3475 51.5824 26.5071 51.45 26.5268 51.2685C26.5466 51.0867 26.4192 50.9221 26.2384 50.8956Z" fill="#C79773"/>
<path id="Vector_42" d="M19.0273 28.5304C19.048 28.526 19.0684 28.5214 19.0889 28.5168C19.309 28.4729 20.2306 28.3278 21.0101 28.7964C21.433 29.0506 21.7537 29.449 21.9673 29.9845C22.0549 30.3119 22.1334 30.5119 22.1403 30.5292C22.1929 30.6616 22.3201 30.7434 22.4557 30.7434C22.4899 30.7434 22.5249 30.7382 22.5591 30.7272C22.7291 30.6728 22.828 30.4961 22.7853 30.3228C22.7391 30.1352 22.6842 29.9576 22.6203 29.7898C22.3845 28.8851 22.0711 26.9022 23.276 25.3569C23.5203 25.1237 23.6885 24.913 23.7303 24.8592C23.8391 24.7193 23.8219 24.5192 23.6908 24.3999C23.56 24.2808 23.3591 24.2821 23.2298 24.4036C23.0658 24.5578 22.9148 24.7212 22.7767 24.8936C22.4604 25.189 22.0667 25.4654 21.7834 25.4201C21.6174 25.3934 21.4752 25.2301 21.36 24.9344C21.3444 24.89 21.3335 24.863 21.3307 24.8565C21.2601 24.6866 21.0668 24.6036 20.8953 24.6699C20.7235 24.736 20.6358 24.9269 20.6975 25.1004C20.7049 25.1212 20.7124 25.1417 20.7202 25.162C20.7861 25.3541 21.0057 26.1087 20.6561 26.7705C20.3807 27.2915 19.8087 27.6549 18.9553 27.8512C18.9073 27.861 18.878 27.8683 18.8708 27.8701C18.6919 27.9164 18.5829 28.0972 18.6254 28.277C18.6682 28.4566 18.8466 28.5699 19.0273 28.5304Z" fill="#C79773"/>
<path id="Vector_43" d="M17.8486 16.401C17.8835 16.401 17.919 16.3956 17.954 16.3842C18.1308 16.3265 18.2283 16.1372 18.1725 15.9598L17.3287 13.2711C17.0405 12.3527 16.5802 11.4744 15.9607 10.6603C15.3332 9.83577 15.5375 9.57817 16.0835 8.88947C16.1574 8.79637 16.2349 8.69867 16.3139 8.59457C16.4093 8.46887 16.4056 8.29407 16.3048 8.17257C16.2039 8.05077 16.0328 8.01497 15.8917 8.08567C15.1137 8.47467 14.6687 8.41937 13.7479 7.25987C13.5575 7.00017 13.4389 6.85237 13.4167 6.82487C13.3009 6.68177 13.0915 6.65747 12.9456 6.76967C12.7996 6.88227 12.7702 7.09087 12.8793 7.23947C12.9874 7.38667 13.0935 7.52837 13.1988 7.66297C13.9767 8.73277 16.0549 11.8252 17.5273 16.1705C17.5751 16.3117 17.707 16.401 17.8486 16.401Z" fill="#C79773"/>
<path id="Vector_44" d="M39.5725 15.4713C39.6346 15.5801 39.7488 15.6426 39.8675 15.6426C39.9125 15.6426 39.9582 15.6336 40.0019 15.6147C40.1608 15.5461 40.2425 15.3691 40.1919 15.2038C40.1861 15.185 40.1631 15.1156 40.1107 15.0187C39.9797 14.6162 40.2485 14.0913 40.5483 13.6799C40.6157 13.6029 40.6823 13.5246 40.7486 13.4467C40.8456 13.3327 40.9414 13.22 41.0366 13.1162C41.1602 12.9812 41.1547 12.7725 41.0241 12.6445C40.8932 12.5161 40.6846 12.5149 40.5522 12.6411C40.527 12.6651 40.2956 12.8888 40.0465 13.2222C39.7633 13.5456 39.463 13.8471 39.202 13.869C38.7625 13.9058 38.3474 13.8946 37.9957 13.8645C37.6165 13.7854 37.228 13.726 36.8853 13.6874C36.7084 13.6688 36.5471 13.787 36.5139 13.9612C36.4806 14.1355 36.5873 14.306 36.7586 14.3524C36.7878 14.3603 37.2363 14.4796 37.9009 14.5387C38.397 14.6453 38.8143 14.7759 39.0552 14.907C39.2982 15.0392 39.4279 15.1997 39.491 15.3017C39.5135 15.3586 39.5405 15.4153 39.5725 15.4713Z" fill="#C79773"/>
<path id="Vector_45" d="M41.8392 24.5835C41.8716 25.0058 41.895 25.4238 41.9178 25.8276C41.9295 26.036 41.941 26.2391 41.9532 26.4363C41.9536 28.0905 41.6296 29.5719 40.6275 30.1042C40.479 30.183 40.4118 30.3585 40.468 30.517C40.5241 30.6754 40.6888 30.7688 40.8541 30.7366C40.8583 30.7358 41.2837 30.6565 41.7491 30.8627C42.2277 31.0747 42.5846 31.5047 42.8144 32.1445C42.903 32.5385 42.9949 32.8157 43.0011 32.8344C43.0484 32.9758 43.1802 33.0664 43.3229 33.0664C43.3517 33.0664 43.3809 33.0627 43.4099 33.0551C43.583 33.0093 43.6907 32.8369 43.6562 32.6612C43.6059 32.4061 43.5419 32.1685 43.465 31.9488C43.2754 31.0673 43.2055 29.9417 43.7837 29.749C43.9491 29.6938 44.0458 29.5226 44.0075 29.3527C43.9694 29.1825 43.8092 29.0708 43.6357 29.0899C43.4007 29.1187 43.2829 29.0456 43.2148 28.9888C42.8227 28.6602 42.7086 27.6213 42.6331 26.4271C42.6335 25.7808 42.586 25.1242 42.5139 24.5C42.4188 23.2718 42.2485 21.9997 41.8108 20.884C41.7447 20.7155 41.558 20.6286 41.3866 20.6862C41.2151 20.7438 41.1189 20.9259 41.1681 21.1C41.3917 21.8938 41.6817 23.2002 41.8392 24.5835Z" fill="#C79773"/>
<path id="Vector_46" d="M45.4951 58.431C44.7675 57.1529 44.5726 56.66 45.0432 55.1746C45.3698 54.1438 45.221 51.6897 45.2145 51.5858C45.2029 51.4006 45.042 51.2594 44.8593 51.2679C44.674 51.2768 44.5301 51.433 44.5365 51.6184C44.6306 54.3982 42.3288 56.1842 40.857 57.0384C40.4375 57.2037 40.0171 57.4117 39.6113 57.6585C39.4614 57.7497 39.4057 57.9401 39.4828 58.0977C39.5598 58.2553 39.7442 58.3277 39.9084 58.2658C39.9432 58.2525 40.4755 58.0475 41.1927 57.634C42.0403 57.3107 42.8648 57.1873 43.5041 57.3059C43.9408 57.387 44.5298 58.1481 44.8991 58.7559C44.9538 58.8521 45.0108 58.9514 45.07 59.0545C45.1328 59.1637 45.247 59.2251 45.3648 59.2251C45.4203 59.2251 45.4767 59.2114 45.5288 59.1826C45.691 59.0928 45.7512 58.8894 45.664 58.7258C45.6419 58.685 45.5833 58.5774 45.4951 58.431Z" fill="#C79773"/>
<path id="Vector_47" d="M63.9112 95.5913C63.8911 95.5755 63.8694 95.5619 63.8461 95.5508C63.554 95.4125 63.0919 95.2011 62.5488 94.9795C61.8735 94.6042 60.8497 94.0181 59.2983 93.1029C56.9968 91.7456 54.5998 88.9551 52.3665 85.0333C50.6671 82.049 49.6524 79.4408 49.6423 79.4148C49.5756 79.2421 49.3828 79.1549 49.209 79.2185C49.0351 79.2822 48.9444 79.4735 49.0052 79.6485C50.0722 82.7251 53.2143 88.4565 55.666 91.2348C57.682 93.5197 57.8181 94.4044 57.8264 94.539C57.7617 94.6888 57.8256 94.8386 57.9661 94.9289C58.1121 95.022 58.3158 94.9609 58.4247 94.8269C58.7314 94.4492 60.4458 94.8756 62.2299 95.5874C63.2296 96.1429 63.6401 96.3191 63.8445 96.3191C63.9722 96.3191 64.0193 96.25 64.0797 96.162C64.1524 96.056 64.2272 95.8407 63.9112 95.5913Z" fill="#C79773"/>
<path id="Vector_48" d="M54.3931 105.671C55.3081 103.99 56.0574 102.121 56.6244 100.105C56.7994 99.5041 56.8861 99.1203 56.8944 99.0832C56.9347 98.9022 56.8224 98.7225 56.642 98.6793C56.4612 98.6361 56.2801 98.7458 56.2341 98.9254L56.1617 99.209C56.1254 99.3517 56.0881 99.4934 56.0498 99.6347C55.4716 101.696 53.486 107.655 49.6619 108.543C49.4855 108.584 49.3724 108.756 49.405 108.934C49.4372 109.113 49.6065 109.233 49.7837 109.21C49.8107 109.207 52.3001 108.896 53.154 110.426C53.199 110.529 53.2471 110.635 53.2986 110.744C53.3564 110.866 53.478 110.939 53.6057 110.939C53.6495 110.938 53.6941 110.93 53.7369 110.912C53.9042 110.842 53.9867 110.652 53.924 110.482C53.877 110.354 53.8222 110.233 53.7592 110.117C52.9345 108.22 53.3213 107.547 54.0524 106.275C54.1612 106.085 54.2759 105.886 54.3931 105.671Z" fill="#C79773"/>
<path id="Vector_49" d="M63.4062 123.658C62.0077 122.593 60.4955 120.811 59.4569 119.459C59.3829 119.323 59.3018 119.19 59.2138 119.062C58.0689 117.394 58.0586 117.393 57.8007 117.443C57.6687 117.467 57.5625 117.568 57.5313 117.699C57.4948 117.853 57.4859 117.889 58.0554 118.699C58.2129 118.923 58.4986 119.322 58.8795 119.819C59.3701 120.752 59.4853 121.914 59.201 123.142C58.992 124.045 58.3094 125.509 57.5211 127.015C57.1908 127.568 56.8314 128.209 56.4135 128.954C55.876 129.913 55.207 131.105 54.3756 132.511C54.2807 132.671 54.3326 132.877 54.4918 132.974C54.5467 133.007 54.6074 133.023 54.6672 133.023C54.7809 133.023 54.892 132.966 54.9561 132.862C55.0668 132.683 56.7538 129.954 58.134 127.31C58.8118 126.177 59.334 125.475 60.0024 124.985C61.7891 123.676 62.9954 124.207 63.0532 124.234C63.2091 124.309 63.3977 124.254 63.4891 124.107C63.581 123.958 63.5451 123.764 63.4062 123.658Z" fill="#C79773"/>
<path id="Vector_50" d="M85.6898 121.374C85.6898 117.51 85.0946 113.718 83.9562 110.206C83.9533 110.19 83.9508 110.175 83.9456 110.16C83.923 110.093 83.8989 110.025 83.8759 109.958C83.6308 109.222 83.3621 108.497 83.069 107.788C82.7351 106.952 82.3711 106.105 81.9786 105.252C81.9241 105.133 81.8788 105.022 81.8401 104.912C81.5522 104.098 81.2603 103.202 80.9611 102.216C79.9459 98.8212 78.779 94.154 77.7066 89.8642C76.6734 85.7317 75.6865 81.7847 74.9546 79.4486C74.9541 79.4467 74.9541 79.4448 74.9536 79.4429C74.9528 79.4405 74.952 79.438 74.9512 79.4352C74.9452 79.416 74.9385 79.3966 74.9324 79.3773C74.762 78.8372 74.6057 78.3864 74.4663 78.0436C74.4516 78.0075 74.4367 77.972 74.422 77.936C74.1865 77.3294 73.9117 76.6823 73.5791 75.9515C73.5776 75.9481 73.5752 75.9453 73.5736 75.942C70.914 69.9428 67.6498 64.9008 62.1118 58.1279C61.9246 57.8989 61.7508 57.6807 61.5868 57.4697C61.3178 57.1147 61.0695 56.781 60.8968 56.54C60.8963 56.5393 60.8958 56.5386 60.8953 56.5379C60.6107 56.1401 59.9466 54.9213 59.5348 54.099C59.3772 53.6721 59.2223 53.3541 59.167 53.2444C58.942 52.6169 58.7429 51.949 58.51 51.167C58.2106 50.1616 57.8381 48.9104 57.2802 47.3321C55.8217 43.2066 55.6269 37.9301 55.4706 33.6903C55.4278 32.5337 55.3875 31.4414 55.324 30.5114C55.3181 30.4253 55.3146 30.3378 55.3096 30.2511C55.318 30.129 55.3349 29.7563 55.2723 29.3121C55.272 29.2971 55.2712 29.2824 55.271 29.2674C55.2664 28.9988 55.2667 28.7246 55.2706 28.4464C55.2713 28.3905 55.2727 28.3342 55.2737 28.2781C55.2858 27.6829 55.3161 27.0681 55.3668 26.4335C55.3687 26.4103 55.3708 26.3868 55.3728 26.3635C55.3967 26.0724 55.4253 25.7767 55.4572 25.478C55.4666 25.3911 55.4745 25.3058 55.4845 25.2181C55.5948 24.2564 55.6507 23.2689 55.6507 22.283C55.6507 18.3138 54.1239 14.3365 51.3514 11.0838C48.6102 7.86773 44.9023 5.63913 40.9104 4.80853C38.1781 4.23973 36.1601 4.52923 34.741 5.69283C32.0552 7.89503 32.0937 12.7682 32.1345 17.9276C32.1394 18.5502 32.1444 19.1755 32.1444 19.7985C32.1444 22.2641 32.4966 24.7076 33.163 26.8649C34.0123 29.6146 34.0792 32.5457 33.3565 35.3416C33.2544 35.7368 33.1548 36.1362 33.0583 36.5384C32.6404 31.7005 31.4784 27.2548 29.7484 23.8523C29.7442 23.8416 29.7411 23.8306 29.7358 23.8201C29.7152 23.7799 29.6947 23.7431 29.6742 23.7038C29.6312 23.6208 29.5874 23.5394 29.5437 23.4577C29.5294 23.4315 29.5152 23.4057 29.5009 23.3798C29.2813 22.973 29.055 22.5787 28.8187 22.2058C28.7429 22.0862 28.6709 21.9635 28.5994 21.8404C28.5658 21.7827 28.533 21.725 28.5002 21.6674C28.1973 21.1248 27.9361 20.5493 27.7152 19.9453C27.6828 19.8484 27.6475 19.75 27.6097 19.6502C27.4361 19.1367 27.2906 18.604 27.1764 18.0522C27.0578 17.4793 26.9245 16.9013 26.7801 16.3341C24.0983 5.80074 20.8495 -0.597465 12.9428 0.0441349C10.3491 0.255135 8.6217 1.11733 7.5063 2.75763C7.4741 2.80513 7.4444 2.85503 7.4134 2.90353C7.4096 2.90883 7.4049 2.91323 7.4014 2.91894C7.4012 2.91923 7.4008 2.91973 7.4006 2.92014C7.3888 2.93874 7.3781 2.95844 7.3664 2.97724C7.3326 3.03184 7.2995 3.08714 7.2671 3.14323C7.2385 3.19273 7.2105 3.24303 7.183 3.29363C7.1572 3.34113 7.1315 3.38883 7.1067 3.43754C7.0717 3.50574 7.0381 3.57554 7.005 3.64574C6.9891 3.67964 6.9728 3.71314 6.9573 3.74753C6.9153 3.84053 6.8752 3.93573 6.8364 4.03233C6.8301 4.04794 6.8235 4.06304 6.8173 4.07873C6.6359 4.53933 6.4896 5.03963 6.3776 5.58853C6.3664 5.63784 6.3616 5.66923 6.3606 5.67553C6.3603 5.67743 6.3606 5.67923 6.3603 5.68113C5.6916 9.11153 6.3932 14.1737 8.4738 21.0112C9.1511 23.2374 9.9647 25.7221 11.0015 27.9581C11.0029 27.9617 11.0035 27.9654 11.005 27.9689C11.0331 28.0342 11.0632 28.0961 11.0944 28.1561C11.2637 28.5141 11.439 28.8647 11.6204 29.2069C11.6556 29.3226 11.6872 29.4409 11.7079 29.5631C11.7486 29.803 11.6764 30.0986 11.6066 30.3846C11.5927 30.4417 11.5789 30.4982 11.566 30.5537C11.5506 30.6129 11.5447 30.6506 11.5433 30.6596C11.5428 30.6634 11.5432 30.667 11.5428 30.6708C10.8313 33.7587 10.4554 37.1638 10.4554 40.6053C10.4554 44.886 11.0265 49.0669 12.1069 52.6961C12.3774 53.6047 12.558 54.5236 12.6503 55.4423C12.6504 55.4482 12.6493 55.4539 12.6497 55.4599C12.6585 55.5946 12.6697 55.723 12.6834 55.8454C12.6946 55.9982 12.7033 56.1515 12.7093 56.3051C12.7093 56.3057 12.7094 56.3064 12.7094 56.307C12.7518 57.3858 12.6667 58.4852 12.455 59.5859C12.4549 59.5866 12.4549 59.5873 12.4548 59.5881C12.3429 60.1514 12.1975 60.7088 12.0151 61.2572C11.8818 61.6583 11.767 62.3255 11.6736 63.2403C11.6279 63.6881 11.5367 64.1169 11.4119 64.5333C11.3703 64.6648 11.0862 65.5297 10.5098 66.5982C10.1965 67.1652 9.8466 67.7259 9.4889 68.2974C9.0675 68.9707 8.6318 69.6669 8.2501 70.3922C7.9741 70.9169 7.7056 71.4243 7.4439 71.9174C7.4228 71.9523 7.3776 72.0308 7.3255 72.1403C7.1226 72.5223 6.9229 72.8978 6.7287 73.2627C6.405 73.871 6.0943 74.4552 5.7939 75.0234C5.4898 75.5348 5.1798 76.1508 4.8477 76.8306C4.847 76.832 4.8468 76.8335 4.8461 76.835C1.6195 83.0902 0.0001 87.4034 0.0001 95.7874C0.0001 96.6317 0.022 97.4719 0.0618 98.3074C0.0617 98.311 0.0608 98.3144 0.0608 98.318C0.0708 99.6301 0.3388 101.817 0.4977 103.004C0.7486 104.878 0.8658 105.665 0.9852 105.997C1.7682 111.222 1.5757 116.667 0.407 122.204C0.1369 123.484 0 124.805 0 126.131C0 130.458 1.4541 134.413 3.8453 137.437C3.8546 137.459 3.8658 137.48 3.8799 137.499C4.4374 138.284 5.2674 139.103 6.1763 139.844C6.2429 139.899 6.3108 139.953 6.3782 140.008C6.4008 140.026 6.4234 140.044 6.4461 140.061C6.8518 140.386 7.2721 140.69 7.7058 140.971C8.5845 141.551 9.4423 142.009 10.1229 142.248C10.1228 142.248 10.123 142.249 10.1229 142.248C10.1232 142.248 10.1237 142.249 10.124 142.249C10.1302 142.251 10.1366 142.25 10.1429 142.252C11.8166 142.938 13.625 143.314 15.5113 143.314C18.2572 143.314 20.8367 142.516 23.0764 141.124C23.0907 141.119 23.1054 141.115 23.1193 141.108C24.1127 140.59 26.25 138.737 27.1588 137.479C27.1692 137.465 27.1731 137.448 27.1809 137.433C29.57 134.409 31.0228 130.456 31.0228 126.131C31.0228 124.654 30.8528 123.186 30.5176 121.77C29.5567 117.709 29.6503 113.617 30.7885 109.937C32.1194 105.633 32.8228 100.74 32.8228 95.7873C32.8228 91.912 32.8228 89.9667 31.969 86.4335C31.9683 86.4308 31.9678 86.4283 31.9671 86.4256C31.9259 86.225 31.8797 86.026 31.8306 85.8282C31.8189 85.7744 31.807 85.7202 31.7959 85.6674C31.7844 85.6126 31.7733 85.5585 31.7625 85.5049C31.7478 85.4322 31.7337 85.3605 31.7202 85.2899C31.7102 85.2376 31.7004 85.1857 31.6911 85.1346C31.6784 85.0651 31.6667 84.997 31.6552 84.9295C31.647 84.8807 31.6386 84.8318 31.631 84.7841C31.6201 84.7158 31.6104 84.6496 31.6008 84.5835C31.5945 84.54 31.5878 84.4958 31.582 84.4532C31.5724 84.382 31.5643 84.3133 31.5563 84.2448C31.5523 84.2104 31.5476 84.1749 31.544 84.1412C31.5333 84.0406 31.5241 83.9427 31.517 83.8482C31.5167 83.8441 31.5166 83.8404 31.5163 83.8363C31.5096 83.746 31.5047 83.6586 31.5014 83.5739C31.5002 83.544 31.5002 83.516 31.4994 83.4868C31.4979 83.4294 31.4965 83.3722 31.4966 83.3174C31.4967 83.2849 31.4977 83.2539 31.4984 83.2223C31.4994 83.1736 31.5005 83.1251 31.5029 83.0786C31.5045 83.0468 31.5068 83.0161 31.509 82.9853C31.5121 82.9419 31.5156 82.899 31.52 82.8577C31.5232 82.8277 31.5268 82.7985 31.5307 82.7696C31.5359 82.7301 31.5418 82.6916 31.5483 82.6541C31.553 82.6266 31.558 82.5995 31.5634 82.5731C31.5708 82.5367 31.5792 82.5018 31.5879 82.4674C31.5941 82.443 31.6001 82.4185 31.6069 82.3951C31.6169 82.361 31.628 82.3287 31.6393 82.2968C31.6466 82.2762 31.6535 82.2548 31.6613 82.2351C31.6747 82.2015 31.6895 82.1703 31.7046 82.1393C31.712 82.124 31.7187 82.1075 31.7265 82.0929C31.7501 82.0485 31.7753 82.0067 31.8025 81.9681C31.8401 81.9149 31.8822 81.8679 31.9272 81.8249C31.9421 81.8107 31.9589 81.7992 31.9745 81.786C32.0064 81.7592 32.0386 81.7327 32.0736 81.7098C32.0937 81.6966 32.1153 81.6852 32.1364 81.6732C32.17 81.6541 32.204 81.6355 32.2399 81.6191C32.2635 81.6084 32.2879 81.5986 32.3125 81.589C32.3492 81.5746 32.3865 81.561 32.4252 81.5488C32.451 81.5406 32.477 81.5328 32.5037 81.5255C32.5444 81.5144 32.5862 81.5042 32.6287 81.4948C32.6553 81.489 32.6817 81.4829 32.7089 81.4776C32.756 81.4685 32.8043 81.4604 32.8533 81.4528C32.8776 81.449 32.9014 81.4448 32.9262 81.4413C32.9879 81.4326 33.051 81.4246 33.1151 81.4172C33.1278 81.4157 33.1399 81.414 33.1526 81.4126C33.1789 81.4096 33.2064 81.4068 33.233 81.404C33.3957 81.3885 33.5617 81.3706 33.7325 81.3493C33.7447 81.3478 33.756 81.347 33.7682 81.3454C33.7727 81.3448 33.7771 81.3443 33.7815 81.3437C33.7812 81.3438 33.7818 81.3437 33.7815 81.3437C33.9536 81.3224 34.1141 81.2994 34.2556 81.2753C34.5429 81.2259 34.8239 81.2436 35.0901 81.3019C35.1392 81.3224 35.2178 81.3469 35.32 81.3625C35.7319 81.4918 36.0983 81.7093 36.3806 81.9145C36.7595 82.1895 37.1244 82.5437 37.4569 82.9427C37.5183 83.0181 37.5796 83.0924 37.6408 83.1729C37.6422 83.1747 37.6436 83.1765 37.645 83.1782C37.7602 83.3878 37.8944 83.575 38.042 83.7452C38.5337 84.5178 38.8886 85.3679 39.0003 86.1294C39.2827 88.0534 39.4991 88.734 40.022 90.3784L40.2403 91.0669C40.4675 91.788 40.7164 92.5106 40.9798 93.2153C42.702 97.8197 43.5206 102.587 43.417 107.272C43.4054 107.347 43.3836 107.533 43.4018 107.772C43.3292 109.778 43.0883 111.767 42.6747 113.72C42.1496 116.201 41.8833 118.776 41.8833 121.374C41.8833 137.159 51.709 150 63.7864 150C68.9926 150 73.7795 147.613 77.5421 143.633C77.5664 143.619 77.5899 143.603 77.6108 143.582C77.6274 143.566 77.6439 143.549 77.6599 143.532C77.9646 143.218 79.6137 141.466 81.237 138.68C81.3978 138.458 81.471 138.268 81.4773 138.251C81.482 138.238 81.4844 138.226 81.4875 138.213C84.1286 133.484 85.6898 127.663 85.6898 121.374ZM63.7866 149.322C52.0835 149.322 42.5623 136.784 42.5623 121.374C42.5623 118.823 42.8237 116.295 43.339 113.861C43.4916 113.14 43.6199 112.414 43.7269 111.685C43.7273 111.683 43.7284 111.682 43.7288 111.68C43.9056 110.715 44.2999 110.086 44.9006 109.808C45.1364 109.7 45.3626 109.667 45.5246 109.66C45.6199 109.669 45.718 109.674 45.8192 109.676C45.8214 109.676 45.8237 109.676 45.8261 109.676C45.9996 109.676 46.1458 109.545 46.1635 109.371C46.1817 109.195 46.0621 109.035 45.8884 109.003C45.8752 109 45.7461 108.976 45.547 108.981C44.9945 108.928 44.5927 108.751 44.3504 108.453C44.1933 108.26 44.1221 108.038 44.0925 107.844C44.0961 107.664 44.0972 107.482 44.0959 107.299C44.0959 107.299 44.0959 107.299 44.0959 107.299C44.203 102.524 43.3699 97.6669 41.6159 92.9776C41.3566 92.284 41.1117 91.5726 40.888 90.863L40.6693 90.1727C40.1434 88.5192 39.9467 87.9004 39.6724 86.0309C39.5479 85.1827 39.1699 84.2575 38.6404 83.416C38.6365 83.4091 38.6337 83.4018 38.6293 83.3951C38.6113 83.3679 38.5932 83.3425 38.5752 83.3157C38.4595 83.1375 38.3378 82.9633 38.2095 82.795C37.8254 82.0634 37.6656 81.0376 37.7456 79.7791C37.7803 79.2329 37.8586 78.6655 37.9744 78.0901C38.0423 77.8634 38.1079 77.6252 38.1712 77.3755C38.3535 76.658 38.5621 75.9861 38.7737 75.3735C39.3782 73.8059 40.1966 72.3394 41.1006 71.2579C41.5133 70.8499 41.9082 70.4405 42.0398 70.3033C42.1648 70.1731 42.166 69.9677 42.0426 69.8361C41.9189 69.7045 41.714 69.6924 41.5761 69.8088C41.2547 70.0797 40.9382 70.4023 40.631 70.7666C40.2022 71.1909 39.8132 71.5576 39.6834 71.6364C39.1203 71.9777 37.9745 71.4438 37.3031 71.0467C37.2592 71.0196 37.2151 70.9925 37.1709 70.9655C37.1491 70.9522 37.1286 70.9397 37.1094 70.928C37.0411 70.8845 36.9815 70.8446 36.9325 70.8101C36.8339 70.741 36.7062 70.729 36.5967 70.7788C36.4871 70.8286 36.4121 70.9326 36.3996 71.0523C36.3847 71.1934 36.4273 71.2747 36.5419 71.3649C36.5439 71.3663 36.5457 71.3681 36.5479 71.3696C36.5935 71.4049 36.65 71.4417 36.7184 71.4843C36.7992 71.5368 36.9023 71.6014 37.0226 71.672C38.9725 72.8917 38.8568 73.2463 38.8506 73.2612C38.612 73.845 38.3356 74.5472 38.0671 75.3427C37.7527 76.1853 37.4986 77.0508 37.3227 77.9009C36.7262 79.892 36.0983 80.4664 35.7578 80.6296C35.6546 80.6791 35.5671 80.6957 35.5007 80.6983C35.4193 80.6768 35.3377 80.6588 35.2559 80.6442C35.2527 80.6436 35.2495 80.6438 35.2463 80.6433C35.0285 80.595 34.8121 80.5676 34.5991 80.5676C34.4483 80.5676 34.2991 80.5803 34.1519 80.6048C34.1514 80.6049 34.151 80.6048 34.1505 80.6049L34.1444 80.6058C34.1436 80.6059 34.1428 80.606 34.142 80.6061C34.1409 80.6063 34.1397 80.6064 34.1386 80.6066L33.7039 80.6693C33.7022 80.6695 33.7006 80.6698 33.6989 80.67C33.5745 80.6856 33.4501 80.6984 33.327 80.7112C33.2492 80.7193 33.1712 80.7276 33.0932 80.7364C33.0395 80.7414 32.9855 80.7466 32.9328 80.751C32.8746 80.7558 32.8172 80.7601 32.7602 80.7641C32.6848 80.7694 32.6105 80.7739 32.5371 80.7777C32.4835 80.7805 32.4303 80.7829 32.3777 80.7849C32.304 80.7877 32.2314 80.7894 32.1597 80.7906C32.1101 80.7914 32.0606 80.792 32.0119 80.792C31.9402 80.792 31.87 80.7907 31.8004 80.7889C31.7541 80.7877 31.7078 80.7865 31.6624 80.7845C31.5928 80.7814 31.5248 80.7769 31.4573 80.7719C31.4145 80.7687 31.3714 80.7658 31.3295 80.7619C31.2616 80.7555 31.1954 80.7474 31.1296 80.7389C31.0904 80.7338 31.0508 80.7293 31.0123 80.7234C30.9458 80.7134 30.8812 80.7013 30.8168 80.6889C30.7812 80.6821 30.745 80.6759 30.7101 80.6684C30.6446 80.6542 30.5812 80.6377 30.5178 80.621C30.4862 80.6126 30.4538 80.6052 30.4226 80.5962C30.3563 80.577 30.2921 80.555 30.2281 80.5327C30.2021 80.5236 30.1752 80.5157 30.1496 80.5061C30.0787 80.4796 30.0101 80.4501 29.942 80.4196C29.9249 80.4119 29.907 80.4054 29.8901 80.3975C29.7198 80.3177 29.5583 80.225 29.405 80.1182C29.3999 80.1146 29.3952 80.1105 29.3901 80.1069C29.3198 80.0573 29.2511 80.0051 29.1841 79.9495C29.1641 79.9329 29.1451 79.9142 29.1254 79.897C29.0744 79.8526 29.0236 79.8079 28.9745 79.7597C28.9503 79.7359 28.9271 79.7099 28.9033 79.6852C28.8602 79.6405 28.8171 79.5958 28.7754 79.5481C28.75 79.519 28.7256 79.4876 28.7007 79.4573C28.6622 79.4104 28.6237 79.3636 28.5864 79.314C28.5609 79.2801 28.5363 79.244 28.5114 79.2087C28.4762 79.1589 28.441 79.1091 28.4069 79.0566C28.3819 79.0181 28.3575 78.9777 28.333 78.9377C28.3004 78.8846 28.2679 78.8312 28.2363 78.7755C28.2119 78.7325 28.1881 78.6878 28.1642 78.6432C28.1338 78.5865 28.1036 78.5293 28.0741 78.47C28.0504 78.4225 28.0272 78.3734 28.0041 78.3242C27.9756 78.2637 27.9474 78.2023 27.9197 78.1392C27.8969 78.0874 27.8745 78.0343 27.8522 77.9806C27.8252 77.9156 27.7985 77.8496 27.7722 77.782C27.7504 77.726 27.7288 77.6689 27.7075 77.6111C27.6819 77.5417 27.6566 77.4708 27.6316 77.3987C27.6107 77.3383 27.5899 77.2773 27.5694 77.215C27.5449 77.1407 27.5208 77.0646 27.4969 76.9875C27.4769 76.923 27.4569 76.8581 27.4373 76.7916C27.4138 76.712 27.3907 76.6303 27.3677 76.5479C27.3486 76.4794 27.3295 76.411 27.3107 76.3406C27.2879 76.2552 27.2655 76.1672 27.2432 76.0789C27.225 76.0067 27.2067 75.935 27.1887 75.8608C27.1665 75.7692 27.1448 75.6747 27.123 75.58C27.1056 75.5042 27.088 75.4292 27.0709 75.3515C27.0492 75.2532 27.0279 75.1514 27.0065 75.0498C26.9899 74.9709 26.9731 74.8932 26.9567 74.8123C26.935 74.7053 26.9137 74.5944 26.8923 74.484C26.8768 74.4038 26.8611 74.3253 26.8457 74.2432C26.8233 74.1237 26.8012 73.9997 26.7791 73.8763C26.7651 73.7982 26.751 73.7222 26.7371 73.6425C26.7129 73.5035 26.6889 73.3593 26.6649 73.2154C26.6534 73.1462 26.6417 73.0797 26.6303 73.0094C26.595 72.793 26.5599 72.5716 26.5249 72.3442C26.4969 72.1624 26.3286 72.0349 26.1468 72.0591C25.9644 72.0822 25.8334 72.2465 25.8517 72.4295C26.0578 74.5011 26.4767 76.6264 27.1321 78.9265C27.3215 79.5911 27.1803 79.7095 27.096 79.7802C26.8021 80.0267 26.8644 80.2714 26.9684 80.4332C27.1321 80.6878 27.4014 80.6749 27.5625 80.6666C27.8015 80.6552 28.1627 80.637 28.7681 81.288C28.8278 81.3521 28.8885 81.4159 28.9496 81.4802C29.2418 81.7875 29.5439 82.1052 29.7901 82.5247C30.2114 83.242 30.7645 84.3796 31.1514 85.9015C31.1614 85.948 31.1726 85.9965 31.183 86.0438C31.1918 86.0836 31.2005 86.1232 31.2096 86.1635C31.2412 86.3036 31.2741 86.4459 31.3096 86.5927C32.1444 90.0474 32.1444 91.9655 32.1444 95.7871C32.1444 100.673 31.4514 105.496 30.1403 109.736C28.9664 113.532 28.8686 117.748 29.8573 121.926C30.1804 123.291 30.3443 124.706 30.3443 126.131C30.3443 130.322 28.9304 134.151 26.6085 137.065C25.4541 137.999 24.1658 138.377 22.7767 138.187C21.3503 137.991 19.9857 137.239 18.8129 136.271C18.7465 136.216 18.6807 136.161 18.6161 136.106C17.702 135.319 16.9136 134.409 16.3161 133.548C16.2233 133.415 16.0486 133.366 15.9 133.432C15.7512 133.497 15.67 133.659 15.7064 133.818C15.8446 134.42 16.8629 135.504 18.151 136.597C18.2671 136.697 18.3851 136.795 18.5051 136.892C19.7037 137.873 21.0766 138.826 22.1793 139.407C22.563 139.609 22.897 140.017 22.9085 140.298C22.9107 140.352 22.9031 140.409 22.8487 140.466C20.6832 141.843 18.1797 142.635 15.5116 142.635C13.5455 142.635 11.6692 142.204 9.9506 141.427C6.9109 139.785 8.9441 133.431 8.9659 133.364C9.0239 133.187 8.928 132.996 8.7511 132.937C8.5739 132.878 8.3827 132.972 8.3222 133.149C8.2478 133.366 8.1734 133.588 8.0986 133.811C7.4851 135.64 6.7898 137.713 5.8502 137.904C5.4721 137.981 5.014 137.729 4.4892 137.161C2.1224 134.236 0.6791 130.368 0.6791 126.131C0.6791 124.852 0.8111 123.578 1.0715 122.344C2.2599 116.714 2.4533 111.174 1.6514 105.858C1.6512 105.855 1.6515 105.853 1.6512 105.851C1.4735 104.242 1.7083 103.107 2.3126 102.654C2.547 102.478 2.8102 102.425 3.0683 102.439C3.2328 102.484 3.392 102.522 3.5422 102.559C3.6277 102.579 3.711 102.599 3.7914 102.62C3.963 102.663 4.1408 102.567 4.1971 102.399C4.2534 102.23 4.17 102.046 4.0057 101.978C3.7256 101.861 3.4517 101.791 3.1901 101.768C2.1042 101.459 0.9587 100.841 0.7426 98.3232C0.7018 97.4825 0.679 96.637 0.679 95.7872C0.679 87.5223 2.1891 83.4538 5.4522 77.1391C5.4524 77.1387 5.4527 77.1385 5.4529 77.1381L6.4576 75.2368C6.7591 74.7485 7.0641 74.3601 7.3306 74.2464C7.6502 74.11 8.0141 74.0293 8.3142 73.9818C8.5125 73.9804 8.7352 73.9566 8.983 73.9106C9.1575 73.8781 9.2776 73.7166 9.2584 73.5401C9.2392 73.3636 9.0863 73.2316 8.9096 73.2377C8.8885 73.2384 8.6251 73.2482 8.2653 73.3021C8.0099 73.2973 7.8689 73.2388 7.8193 73.1667C7.7271 73.0328 7.8055 72.7234 7.9219 72.4661L8.0406 72.2415C8.0404 72.2418 8.0408 72.2412 8.0406 72.2415C8.3035 71.7461 8.5737 71.2355 8.8511 70.7082C9.2208 70.0054 9.6497 69.3202 10.0645 68.6574C10.2709 68.3277 10.4783 67.9955 10.6802 67.6589C11.2745 66.9088 11.76 66.6111 12.1244 66.7762C12.1482 66.788 12.1638 66.7944 12.1684 66.7961C12.3378 66.8616 12.5286 66.7829 12.602 66.6168C12.6753 66.4507 12.605 66.2563 12.4423 66.1757C12.4313 66.1703 12.4204 66.165 12.4094 66.1599C12.3215 66.1112 11.8643 65.7991 12.076 64.6765C12.0762 64.6752 12.0761 64.674 12.0763 64.6727C12.2053 64.2339 12.3009 63.781 12.3491 63.3089C12.4361 62.4556 12.5435 61.8201 12.6595 61.471C12.8503 60.897 13.0027 60.3136 13.12 59.7241C13.2291 59.3163 13.6035 58.2097 14.0768 57.8004C14.1318 57.7529 14.1722 57.7197 14.2002 57.6966C14.3704 57.5566 14.4196 57.4044 14.3465 57.2442C14.328 57.2041 14.223 57.0057 13.9515 57.0524C13.9037 57.0603 13.8499 57.0697 13.7759 57.0112C13.6794 56.935 13.4638 56.6698 13.3617 55.7978C13.2823 54.6957 13.082 53.5917 12.7576 52.502C11.6956 48.9349 11.1343 44.821 11.1343 40.605C11.1343 37.1453 11.52 33.7262 12.2479 30.6399C12.3426 30.3636 12.6886 29.6881 13.8639 29.3718C13.9667 29.3532 14.0615 29.3303 14.1462 29.3049C14.3202 29.2528 14.4223 29.073 14.3781 28.897C14.3339 28.7209 14.1592 28.6112 13.981 28.6471C13.9032 28.663 13.8279 28.6803 13.755 28.6986C13.3664 28.7684 12.4965 28.8326 11.9288 28.1846C11.7941 27.9296 11.6713 27.7474 11.6176 27.6712C10.5981 25.4726 9.7936 23.016 9.1234 20.8132C7.0694 14.0638 6.3706 9.11543 7.0166 5.82383C7.0202 5.81234 7.0271 5.80264 7.0295 5.79053C7.0337 5.76973 7.0378 5.74893 7.042 5.72833C7.0736 5.59394 7.189 5.21323 7.5051 5.06653C7.7372 4.95903 8.057 4.98813 8.4451 5.14963C8.7103 5.30793 8.9283 5.40423 8.9835 5.42783C9.1477 5.49813 9.3375 5.42903 9.4188 5.27073C9.5002 5.11213 9.4452 4.91783 9.2929 4.82533C9.114 4.71693 8.9413 4.62603 8.7749 4.55273C8.4184 4.33573 8.009 4.01943 7.9081 3.69373C7.8666 3.55953 7.886 3.43393 7.9652 3.30063C7.9992 3.24683 8.0321 3.19174 8.0676 3.13973C9.0583 1.68273 10.6249 0.914235 12.9977 0.721235C20.4617 0.114135 23.4605 6.04803 26.122 16.502C26.2639 17.0594 26.3949 17.6273 26.5114 18.1901C26.6274 18.7506 26.7752 19.2923 26.9499 19.816C26.951 19.8201 26.9511 19.8243 26.9524 19.8284C27.0096 20.0159 27.0699 20.1941 27.1329 20.3646C27.3302 21.041 27.5274 22.1189 26.942 22.517C26.8444 22.5647 26.7868 22.6042 26.7796 22.6093C26.6353 22.71 26.5919 22.9043 26.6796 23.0569C26.7672 23.2091 26.9569 23.2698 27.1167 23.1956C27.1748 23.1687 27.2303 23.1386 27.2829 23.1056C27.4238 23.0429 27.6789 22.9654 27.9788 23.0388C28.4035 23.1423 28.7928 23.5124 29.1363 24.1385C29.1365 24.1389 29.1368 24.1391 29.137 24.1395C31.1088 28.006 32.3263 33.2819 32.5238 38.9458C32.0746 41.2944 31.6719 43.0936 31.3164 44.6815C30.7285 47.3076 30.3247 49.1124 30.2303 51.1731C30.2203 51.2527 30.1965 51.3293 30.1425 51.3623C29.9908 51.4547 29.6228 51.3731 29.3247 51.2562C29.2504 51.2192 29.1729 51.1845 29.0917 51.152C28.9232 51.0847 28.7321 51.1617 28.657 51.3264C28.5818 51.4913 28.6494 51.6861 28.8105 51.769C28.853 51.7909 28.938 51.8327 29.0506 51.8787C30.0515 52.3984 30.2343 53.4429 30.2666 53.744C30.2676 53.7578 30.2688 53.7716 30.2698 53.7854C30.3033 54.2694 30.3511 54.7803 30.4142 55.3268C31.0699 61.01 29.3624 63.2587 29.3461 63.2793C29.2288 63.4255 29.2522 63.6391 29.3983 63.7566C29.461 63.8069 29.536 63.8313 29.6106 63.8313C29.71 63.8313 29.8084 63.7879 29.8755 63.7044C29.9536 63.607 31.7812 61.2517 31.0886 55.2491C31.0283 54.7266 30.9825 54.2375 30.9501 53.7733C30.9497 53.7668 30.949 53.7592 30.9484 53.7505C30.9256 53.4209 30.9101 53.1046 30.9006 52.7976C30.8993 52.7503 30.8977 52.7035 30.8967 52.6556C30.895 52.5868 30.8935 52.5182 30.8924 52.4504C30.8881 52.0518 30.894 51.6366 30.911 51.1986C31.0045 49.1828 31.4012 47.4098 31.9788 44.8297C32.3194 43.3085 32.7431 41.4154 33.1969 39.0396C33.4414 37.8495 33.7163 36.6624 34.0138 35.5118C34.768 32.594 34.6982 29.5347 33.8116 26.6649C33.1649 24.5715 32.8232 22.1973 32.8232 19.7987C32.8232 19.1738 32.8183 18.5468 32.8133 17.9224C32.7738 12.9298 32.7365 8.21424 35.1714 6.21783C36.4217 5.19283 38.2538 4.94933 40.7719 5.47333C44.617 6.27353 48.1907 8.42253 50.8346 11.5244C53.5024 14.6545 54.9717 18.4754 54.9717 22.2833C54.9717 23.2434 54.9172 24.2048 54.8099 25.141C54.8097 25.1425 54.8096 25.144 54.8094 25.1455C54.804 25.1927 54.7987 25.2398 54.7935 25.2868C54.6072 26.5081 53.173 27.1619 52.5149 27.4001C52.3983 27.4324 52.2783 27.4711 52.1554 27.5163C51.9855 27.5788 51.8945 27.7634 51.9484 27.9361C52.0023 28.109 52.1832 28.2084 52.3575 28.1635C52.3828 28.1569 52.527 28.1185 52.7407 28.0422C53.2926 27.8977 53.7236 27.9412 54.0251 28.1719C54.3623 28.4303 54.5232 28.9111 54.593 29.3581C54.594 29.4078 54.5975 29.4547 54.5988 29.504C54.6047 29.7262 54.6134 29.9467 54.6249 30.1656C54.627 30.2037 54.6272 30.244 54.6295 30.2819C54.6299 30.2883 54.6317 30.2942 54.6324 30.3004C54.6374 30.386 54.6409 30.4725 54.6467 30.5576C54.7095 31.4769 54.7497 32.5642 54.7921 33.7152C54.9502 38.0011 55.1469 43.3351 56.6399 47.5583C57.1922 49.1204 57.5466 50.3105 57.8592 51.3605C58.0898 52.1351 58.2906 52.8087 58.5197 53.4492C58.5354 53.5376 58.5838 53.6792 58.7066 53.9465C58.7952 54.1707 58.8891 54.393 58.9915 54.6162C59.2381 55.3779 59.4043 56.2903 59.0867 56.8187C58.963 57.0243 58.7666 57.1622 58.4919 57.2349C58.1689 57.2535 57.9646 57.2971 57.9338 57.304C57.7639 57.3422 57.6504 57.5027 57.6712 57.6755C57.6917 57.8465 57.8366 57.9747 58.0082 57.9747C58.01 57.9747 58.0119 57.9747 58.0139 57.9747C58.2239 57.9711 58.4176 57.949 58.5949 57.9086C59.3586 57.8757 60.8447 58.0145 62.1692 59.3308C62.4501 59.6837 62.6026 59.8584 62.7059 59.9448C68.1046 66.7112 70.8453 71.4359 72.9468 76.1954C72.9472 76.1966 72.9472 76.1978 72.9476 76.1989C72.9815 76.3011 72.991 76.3656 72.993 76.4024C72.8018 76.4182 71.9227 76.3006 68.5451 74.0489C65.0787 71.7379 55.7957 68.2407 55.4022 68.0929C55.2285 68.028 55.0344 68.1139 54.9669 68.2868C54.899 68.4595 54.9825 68.6545 55.1542 68.7249C55.2507 68.7644 64.8196 72.6861 66.6229 73.8273C73.5062 78.1834 74.2585 79.5496 74.3071 79.651C75.0288 81.9534 76.015 85.8983 77.0476 90.0291C77.7083 92.6718 78.4048 95.4576 79.0815 98.0072C79.0818 98.0088 79.0817 98.0104 79.0821 98.0121C79.2567 98.7774 79.5188 100.9 78.6462 101.525C78.229 101.824 77.5435 101.764 76.6338 101.355C76.0156 100.984 75.6049 100.796 75.5435 100.768C75.3801 100.695 75.1881 100.761 75.1046 100.919C75.0211 101.078 75.0744 101.273 75.2267 101.367C75.5894 101.591 75.9308 101.778 76.2515 101.928C77.9838 102.979 81.5513 105.616 83.2751 110.307C84.4147 113.782 85.0107 117.541 85.0107 121.374C85.0107 127.753 83.3782 133.638 80.636 138.347C80.5058 138.507 80.311 138.674 80.0404 138.73C79.4385 138.855 78.6224 138.415 77.6819 137.459C74.9042 134.636 66.8771 126.33 66.7963 126.246C66.6676 126.113 66.4563 126.108 66.3209 126.234C66.1855 126.36 66.1759 126.571 66.2994 126.709C66.5796 127.021 67.0368 127.496 67.616 128.098C70.8399 131.446 79.2902 140.223 77.2804 142.931C73.6102 146.921 68.9073 149.322 63.7866 149.322Z" fill="#C79773"/>
</g>
</g>
<defs>
<radialGradient id="paint0_radial_938_24606" cx="0" cy="0" r="1" gradientTransform="matrix(7.9186 1.39172 -2.67571 15.2221 23.4593 98.3114)" gradientUnits="userSpaceOnUse">
<stop stop-color="#F8DCC7"/>
<stop offset="1" stop-color="#F8DCC7" stop-opacity="0"/>
</radialGradient>
<radialGradient id="paint1_radial_938_24606" cx="0" cy="0" r="1" gradientTransform="matrix(6.83955 1.18852 -2.1896 12.3052 8.46856 90.1472)" gradientUnits="userSpaceOnUse">
<stop stop-color="#F8DCC7"/>
<stop offset="1" stop-color="#F8DCC7" stop-opacity="0"/>
</radialGradient>
<radialGradient id="paint2_radial_938_24606" cx="0" cy="0" r="1" gradientTransform="matrix(6.43343 -0.321429 0.631055 12.4816 17.8494 42.5878)" gradientUnits="userSpaceOnUse">
<stop stop-color="#F8DCC7"/>
<stop offset="0.9993" stop-color="#F8DCC7" stop-opacity="0"/>
</radialGradient>
<radialGradient id="paint3_radial_938_24606" cx="0" cy="0" r="1" gradientTransform="matrix(8.08231 -2.25553 3.62831 13.0003 21.4603 124.467)" gradientUnits="userSpaceOnUse">
<stop stop-color="#F8DCC7"/>
<stop offset="1" stop-color="#F8DCC7" stop-opacity="0"/>
</radialGradient>
<radialGradient id="paint4_radial_938_24606" cx="0" cy="0" r="1" gradientTransform="matrix(8.37012 0.59409 -0.955746 13.4635 20.1035 110.892)" gradientUnits="userSpaceOnUse">
<stop stop-color="#F8DCC7"/>
<stop offset="1" stop-color="#F8DCC7" stop-opacity="0"/>
</radialGradient>
<radialGradient id="paint5_radial_938_24606" cx="0" cy="0" r="1" gradientTransform="matrix(4.67876 0.824999 -0.868321 10.3214 5.32593 127.046)" gradientUnits="userSpaceOnUse">
<stop stop-color="#F8DCC7"/>
<stop offset="1" stop-color="#F8DCC7" stop-opacity="0"/>
</radialGradient>
<radialGradient id="paint6_radial_938_24606" cx="0" cy="0" r="1" gradientTransform="matrix(4.68394 1.08116 -0.810402 13.1943 6.61106 117.391)" gradientUnits="userSpaceOnUse">
<stop stop-color="#F8DCC7"/>
<stop offset="1" stop-color="#F8DCC7" stop-opacity="0"/>
</radialGradient>
<radialGradient id="paint7_radial_938_24606" cx="0" cy="0" r="1" gradientTransform="matrix(-0.949707 5.63645 -8.32382 -1.54188 20.9066 62.644)" gradientUnits="userSpaceOnUse">
<stop stop-color="#F8DCC7"/>
<stop offset="1" stop-color="#E7C6AB" stop-opacity="0"/>
</radialGradient>
<radialGradient id="paint8_radial_938_24606" cx="0" cy="0" r="1" gradientTransform="matrix(4.37157 2.69847 -5.00332 8.0614 24.3806 60.3328)" gradientUnits="userSpaceOnUse">
<stop stop-color="#F8DCC7"/>
<stop offset="1" stop-color="#E7C6AB" stop-opacity="0"/>
</radialGradient>
<radialGradient id="paint9_radial_938_24606" cx="0" cy="0" r="1" gradientTransform="matrix(1.77167 5.43374 -5.7392 1.62103 20.3214 76.7118)" gradientUnits="userSpaceOnUse">
<stop stop-color="#F8DCC7"/>
<stop offset="1" stop-color="#F8DCC7" stop-opacity="0"/>
</radialGradient>
<radialGradient id="paint10_radial_938_24606" cx="0" cy="0" r="1" gradientTransform="matrix(4.03209 -0.930962 1.73488 12.3441 27.9841 37.045)" gradientUnits="userSpaceOnUse">
<stop stop-color="#F8DCC7"/>
<stop offset="1" stop-color="#F8DCC7" stop-opacity="0"/>
</radialGradient>
<radialGradient id="paint11_radial_938_24606" cx="0" cy="0" r="1" gradientTransform="matrix(3.64471 -1.94801 4.73395 10.7099 12.8743 17.2371)" gradientUnits="userSpaceOnUse">
<stop stop-color="#F8DCC7"/>
<stop offset="1" stop-color="#F8DCC7" stop-opacity="0"/>
</radialGradient>
<radialGradient id="paint12_radial_938_24606" cx="0" cy="0" r="1" gradientTransform="matrix(3.35244 -1.68767 3.64887 7.95796 21.8098 15.3005)" gradientUnits="userSpaceOnUse">
<stop stop-color="#F8DCC7"/>
<stop offset="1" stop-color="#F8DCC7" stop-opacity="0"/>
</radialGradient>
<radialGradient id="paint13_radial_938_24606" cx="0" cy="0" r="1" gradientTransform="matrix(10.5577 0.77282 -0.75436 11.1409 63.8503 138.535)" gradientUnits="userSpaceOnUse">
<stop stop-color="#F8DCC7"/>
<stop offset="1" stop-color="#F8DCC7" stop-opacity="0"/>
</radialGradient>
<radialGradient id="paint14_radial_938_24606" cx="0" cy="0" r="1" gradientTransform="matrix(7.49745 -0.898687 1.60438 13.5508 50.5615 123.166)" gradientUnits="userSpaceOnUse">
<stop stop-color="#F8DCC7"/>
<stop offset="1" stop-color="#F8DCC7" stop-opacity="0"/>
</radialGradient>
<radialGradient id="paint15_radial_938_24606" cx="0" cy="0" r="1" gradientTransform="matrix(10.5577 0.77282 -0.75436 11.1409 63.8503 138.535)" gradientUnits="userSpaceOnUse">
<stop stop-color="#F8DCC7"/>
<stop offset="1" stop-color="#F8DCC7" stop-opacity="0"/>
</radialGradient>
<radialGradient id="paint16_radial_938_24606" cx="0" cy="0" r="1" gradientTransform="matrix(9.12616 -5.36443 10.5954 18.1365 69.8141 114.274)" gradientUnits="userSpaceOnUse">
<stop stop-color="#F8DCC7"/>
<stop offset="1" stop-color="#F8DCC7" stop-opacity="0"/>
</radialGradient>
<radialGradient id="paint17_radial_938_24606" cx="0" cy="0" r="1" gradientTransform="matrix(4.7737 -6.82952 14.7474 10.3924 61.6184 82.867)" gradientUnits="userSpaceOnUse">
<stop stop-color="#F8DCC7"/>
<stop offset="1" stop-color="#F8DCC7" stop-opacity="0"/>
</radialGradient>
<radialGradient id="paint18_radial_938_24606" cx="0" cy="0" r="1" gradientTransform="matrix(4.80299 -4.66213 10.0535 10.4364 67.6626 90.1451)" gradientUnits="userSpaceOnUse">
<stop stop-color="#F8DCC7"/>
<stop offset="1" stop-color="#F8DCC7" stop-opacity="0"/>
</radialGradient>
<radialGradient id="paint19_radial_938_24606" cx="0" cy="0" r="1" gradientTransform="matrix(2.54304 -6.19146 16.2329 6.79132 58.0098 76.2822)" gradientUnits="userSpaceOnUse">
<stop stop-color="#F8DCC7"/>
<stop offset="1" stop-color="#F8DCC7" stop-opacity="0"/>
</radialGradient>
<radialGradient id="paint20_radial_938_24606" cx="0" cy="0" r="1" gradientTransform="matrix(6.32689 -1.98617 4.29037 13.8537 48.1485 92.7216)" gradientUnits="userSpaceOnUse">
<stop stop-color="#F8DCC7"/>
<stop offset="1" stop-color="#F8DCC7" stop-opacity="0"/>
</radialGradient>
<radialGradient id="paint21_radial_938_24606" cx="0" cy="0" r="1" gradientTransform="matrix(5.51967 -1.34929 3.13659 13.1203 45.3642 84.3584)" gradientUnits="userSpaceOnUse">
<stop stop-color="#F8DCC7"/>
<stop offset="1" stop-color="#F8DCC7" stop-opacity="0"/>
</radialGradient>
<radialGradient id="paint22_radial_938_24606" cx="0" cy="0" r="1" gradientTransform="matrix(6.59541 0.688909 -1.56326 14.4184 38.868 44.2575)" gradientUnits="userSpaceOnUse">
<stop stop-color="#F8DCC7"/>
<stop offset="1" stop-color="#F8DCC7" stop-opacity="0"/>
</radialGradient>
<radialGradient id="paint23_radial_938_24606" cx="0" cy="0" r="1" gradientTransform="matrix(4.24537 -0.806871 1.8394 9.93922 37.4195 23.3846)" gradientUnits="userSpaceOnUse">
<stop stop-color="#F8DCC7"/>
<stop offset="1" stop-color="#F8DCC7" stop-opacity="0"/>
</radialGradient>
<radialGradient id="paint24_radial_938_24606" cx="0" cy="0" r="1" gradientTransform="matrix(5.19313 -2.79325 4.78085 8.90547 47.3387 17.0835)" gradientUnits="userSpaceOnUse">
<stop stop-color="#F8DCC7"/>
<stop offset="1" stop-color="#F8DCC7" stop-opacity="0"/>
</radialGradient>
<radialGradient id="paint25_radial_938_24606" cx="0" cy="0" r="1" gradientTransform="matrix(5.87253 -0.537304 1.31673 15.5074 49.7705 43.2632)" gradientUnits="userSpaceOnUse">
<stop stop-color="#F8DCC7"/>
<stop offset="1" stop-color="#F8DCC7" stop-opacity="0"/>
</radialGradient>
<radialGradient id="paint26_radial_938_24606" cx="0" cy="0" r="1" gradientTransform="matrix(1.46798 -5.04981 9.08294 2.65481 56.1029 62.1781)" gradientUnits="userSpaceOnUse">
<stop stop-color="#F8DCC7"/>
<stop offset="1" stop-color="#F8DCC7" stop-opacity="0"/>
</radialGradient>
<radialGradient id="paint27_radial_938_24606" cx="0" cy="0" r="1" gradientTransform="matrix(2.01077 -2.75849 9.80016 7.31246 61.2046 66.0831)" gradientUnits="userSpaceOnUse">
<stop stop-color="#F8DCC7"/>
<stop offset="1" stop-color="#F8DCC7" stop-opacity="0"/>
</radialGradient>
<radialGradient id="paint28_radial_938_24606" cx="0" cy="0" r="1" gradientTransform="matrix(4.63692 1.9266 -3.08037 7.41438 40.7267 63.7926)" gradientUnits="userSpaceOnUse">
<stop stop-color="#F8DCC7"/>
<stop offset="1" stop-color="#F8DCC7" stop-opacity="0"/>
</radialGradient>
<radialGradient id="paint29_radial_938_24606" cx="0" cy="0" r="1" gradientTransform="matrix(4.04367 0.425429 -0.861766 7.98245 35.0788 57.43)" gradientUnits="userSpaceOnUse">
<stop stop-color="#F8DCC7"/>
<stop offset="1" stop-color="#F8DCC7" stop-opacity="0"/>
</radialGradient>
<radialGradient id="paint30_radial_938_24606" cx="0" cy="0" r="1" gradientTransform="matrix(4.05626 0.276906 -0.567238 8.00846 35.0766 50.0003)" gradientUnits="userSpaceOnUse">
<stop stop-color="#F8DCC7"/>
<stop offset="1" stop-color="#F8DCC7" stop-opacity="0"/>
</radialGradient>
<radialGradient id="paint31_radial_938_24606" cx="0" cy="0" r="1" gradientTransform="matrix(4.88362 -1.16804 1.31405 5.37785 32.3061 75.2571)" gradientUnits="userSpaceOnUse">
<stop stop-color="#F8DCC7"/>
<stop offset="1" stop-color="#F8DCC7" stop-opacity="0"/>
</radialGradient>
<radialGradient id="paint32_radial_938_24606" cx="0" cy="0" r="1" gradientTransform="matrix(4.88362 -1.16804 1.31405 5.37786 31.2412 72.3948)" gradientUnits="userSpaceOnUse">
<stop stop-color="#F8DCC7"/>
<stop offset="1" stop-color="#F8DCC7" stop-opacity="0"/>
</radialGradient>
<radialGradient id="paint33_radial_938_24606" cx="0" cy="0" r="1" gradientTransform="matrix(4.88362 -1.16804 1.31405 5.37786 30.6552 70.0673)" gradientUnits="userSpaceOnUse">
<stop stop-color="#F8DCC7"/>
<stop offset="1" stop-color="#F8DCC7" stop-opacity="0"/>
</radialGradient>
<radialGradient id="paint34_radial_938_24606" cx="0" cy="0" r="1" gradientTransform="matrix(3.72901 -0.897009 1.3023 5.38037 12.2237 135.659)" gradientUnits="userSpaceOnUse">
<stop stop-color="#F8DCC7"/>
<stop offset="1" stop-color="#F8DCC7" stop-opacity="0"/>
</radialGradient>
<radialGradient id="paint35_radial_938_24606" cx="0" cy="0" r="1" gradientTransform="matrix(0.217329 -3.09128 5.52134 0.395221 15.1377 139.363)" gradientUnits="userSpaceOnUse">
<stop stop-color="#F8DCC7"/>
<stop offset="1" stop-color="#F8DCC7" stop-opacity="0"/>
</radialGradient>
</defs>
</svg>
