<svg width="69" height="23" viewBox="0 0 69 23" fill="none" xmlns="http://www.w3.org/2000/svg">
<g id="R-ICO-014519">
<g id="PRKACA">
<path d="M0.986572 11.5C0.986572 5.97715 5.46373 1.5 10.9866 1.5H56.9866C62.5094 1.5 66.9866 5.97715 66.9866 11.5C66.9866 17.0228 62.5094 21.5 56.9866 21.5H10.9866C5.46372 21.5 0.986572 17.0228 0.986572 11.5Z" fill="url(#paint0_linear_938_24071)"/>
<path d="M49.6949 2.99266C36.7921 2.87443 23.8894 2.52283 10.9866 1.64001C10.9866 1.54664 10.9866 1.45328 10.9866 1.35991C23.8894 0.477089 36.7921 0.125486 49.6949 0.00726104C52.1254 -0.00697064 54.556 0.000795841 56.9866 0.0211823C61.6389 -0.0059067 66.0362 3.15131 67.5618 7.46404C68.0393 8.75513 68.2691 10.134 68.2446 11.5C68.2848 17.52 62.7134 22.6477 56.9872 22.2659C56.987 22.2659 56.9868 22.2658 56.9866 22.2658C50.5354 22.0221 44.0835 21.8466 37.6324 21.953C31.181 22.056 24.7291 22.4645 18.2777 22.6648C15.8473 22.7262 13.417 22.7518 10.9866 22.7516C6.42426 22.8153 2.08455 19.6937 0.628577 15.4537C0.174111 14.184 -0.0353456 12.8333 0.00479954 11.5C0.030457 5.61704 5.59068 0.776434 10.9866 1.35991C10.9866 1.45328 10.9866 1.54664 10.9866 1.64001C5.7295 1.96434 1.68342 6.72959 1.96821 11.5C2.00683 12.5996 2.24004 13.6792 2.65422 14.6801C4.00384 18.0256 7.45205 20.2944 10.9866 20.2484C13.4169 20.2483 15.8473 20.2739 18.2777 20.3353C24.7291 20.5356 31.181 20.9428 37.6324 21.0457C44.0836 21.1521 50.5353 20.978 56.9866 20.7342C56.9867 20.7342 56.9869 20.7342 56.9871 20.7342C61.9138 20.6106 65.9474 16.1328 65.7286 11.5C65.7057 10.4335 65.493 9.38248 65.1021 8.40325C63.8225 5.13005 60.4315 2.89622 56.9866 2.97886C54.556 2.99925 52.1254 3.00699 49.6949 2.99266Z" fill="#6385FF"/>
<text id="PRKACA_2" fill="white" xml:space="preserve" style="white-space: pre" font-family="Arial" font-size="12" font-weight="bold" letter-spacing="0em"><tspan x="8.30493" y="15.6602">PRKACA</tspan></text>
</g>
</g>
<defs>
<linearGradient id="paint0_linear_938_24071" x1="33.9866" y1="1.5" x2="33.9866" y2="21.5" gradientUnits="userSpaceOnUse">
<stop stop-color="#001F7A"/>
<stop offset="1" stop-color="#6385FF"/>
</linearGradient>
</defs>
</svg>
