<svg width="59" height="23" viewBox="0 0 59 23" fill="none" xmlns="http://www.w3.org/2000/svg">
<g id="R-ICO-012488">
<g id="BUB1B">
<path d="M1.05493 11.5019C1.05493 5.97908 5.53208 1.50192 11.0549 1.50192H47.0549C52.5778 1.50192 57.0549 5.97908 57.0549 11.5019C57.0549 17.0248 52.5778 21.5019 47.0549 21.5019H11.0549C5.53208 21.5019 1.05493 17.0248 1.05493 11.5019Z" fill="url(#paint0_linear_938_23204)"/>
<path d="M44.7633 2.99458C33.5271 2.87635 22.2911 2.52475 11.0549 1.64193C11.0549 1.54856 11.0549 1.4552 11.0549 1.36183C22.2911 0.479012 33.5271 0.127409 44.7633 0.00918365C45.5272 0.00404739 46.291 0.00177646 47.0549 0.00192988C52.7292 -0.110438 57.8677 4.663 58.2983 10.2093C58.3416 10.6393 58.3597 11.0698 58.3531 11.5019C58.4064 17.5481 52.7818 22.6878 47.0555 22.2678C47.0553 22.2678 47.0551 22.2678 47.0549 22.2678C41.437 22.024 35.8186 21.8486 30.2008 21.9549C24.5827 22.0579 18.9642 22.4664 13.3461 22.6667C12.5824 22.6889 11.8187 22.7064 11.0549 22.7197C5.51433 22.9275 0.40261 18.2139 0.0424272 12.7688C0.00504637 12.3469 -0.00748158 11.925 0.00431824 11.5019C0.0169975 5.57866 5.65506 0.710301 11.0549 1.36183C11.0549 1.4552 11.0549 1.54856 11.0549 1.64193C5.80182 2.03429 1.83354 6.77191 2.10544 11.5019C2.11728 11.8461 2.14776 12.186 2.19684 12.5234C2.76814 16.8665 6.75926 20.2783 11.0549 20.2843C11.8187 20.2976 12.5824 20.315 13.3461 20.3372C18.9642 20.5375 24.5827 20.9447 30.2008 21.0477C35.8187 21.154 41.4369 20.9799 47.0549 20.7362C47.0551 20.7362 47.0552 20.7362 47.0554 20.7361C51.982 20.5745 55.9625 16.1087 55.7568 11.5019C55.7502 11.1672 55.7253 10.8362 55.6823 10.5072C55.1819 6.26497 51.2171 2.91241 47.0549 3.00192C46.291 3.00205 45.5272 2.99975 44.7633 2.99458Z" fill="#529BEB"/>
<text id="BUB1B_2" fill="white" xml:space="preserve" style="white-space: pre" font-family="Arial" font-size="12" font-weight="bold" letter-spacing="0em"><tspan x="8.37134" y="15.6621">BUB1B</tspan></text>
</g>
</g>
<defs>
<linearGradient id="paint0_linear_938_23204" x1="29.0549" y1="1.50192" x2="29.0549" y2="21.5019" gradientUnits="userSpaceOnUse">
<stop stop-color="#9A2282"/>
<stop offset="1" stop-color="#529BEB"/>
</linearGradient>
</defs>
</svg>
