<svg width="37" height="23" viewBox="0 0 37 23" fill="none" xmlns="http://www.w3.org/2000/svg">
<g id="R-ICO-014691">
<g id="pp">
<path d="M1.2251 11.2485C1.2251 5.72569 5.70225 1.24854 11.2251 1.24854H25.2251C30.7479 1.24854 35.2251 5.72569 35.2251 11.2485C35.2251 16.7714 30.7479 21.2485 25.2251 21.2485H11.2251C5.70225 21.2485 1.2251 16.7714 1.2251 11.2485Z" fill="url(#paint0_linear_938_24148)"/>
<path d="M31.7326 5.76852C30.177 3.83989 27.7794 2.60398 25.2251 2.48542C20.5584 2.27517 15.8918 1.93281 11.2251 1.38854C11.2251 1.29518 11.2251 1.20181 11.2251 1.10845C15.8918 0.564177 20.5584 0.221816 25.2251 0.0115716C28.491 -0.144596 31.8442 1.30816 34.0151 3.84416C35.7703 5.87361 36.7185 8.58527 36.6521 11.2485C36.6209 12.9041 36.2169 14.5507 35.4875 16.0236C33.6308 19.9197 29.3165 22.3468 25.2254 22.0144C25.2253 22.0144 25.2252 22.0144 25.2251 22.0144C21.4405 21.7707 17.6555 21.5952 13.8709 21.7015C12.989 21.7255 12.107 21.7661 11.2251 21.8168C8.16764 22.0089 4.8936 20.8422 2.68561 18.4413C0.919441 16.5204 -0.0589848 13.8654 0.00252295 11.2485C0.0297927 9.62214 0.437861 8.00458 1.17312 6.57194C3.0527 2.78415 7.36394 0.535238 11.2251 1.10845C11.2251 1.20181 11.2251 1.29518 11.2251 1.38854C7.47264 1.87191 4.40802 4.35464 3.13857 7.48775C2.64514 8.68543 2.41715 9.9709 2.44759 11.2485C2.4914 13.305 3.2114 15.2987 4.46667 16.9397C5.98505 19.0037 8.46251 20.5251 11.2251 20.6792C12.107 20.7298 12.989 20.7703 13.8709 20.7943C17.6555 20.9006 21.4404 20.7265 25.2251 20.4828C25.2252 20.4828 25.2253 20.4828 25.2254 20.4828C28.7478 20.2397 31.8083 17.9357 33.101 14.9115C33.6004 13.7539 33.8325 12.4973 33.7981 11.2485C33.7493 9.23823 32.9988 7.30101 31.7326 5.76852Z" fill="#A08E00"/>
<text id="pp_2" fill="white" xml:space="preserve" style="white-space: pre" font-family="Arial" font-size="12" font-weight="bold" letter-spacing="0em"><tspan x="10.8892" y="15.4087">pp</tspan></text>
</g>
</g>
<defs>
<linearGradient id="paint0_linear_938_24148" x1="18.2251" y1="1.24854" x2="18.2251" y2="21.2485" gradientUnits="userSpaceOnUse">
<stop stop-color="#A2CFCC"/>
<stop offset="1" stop-color="#A08E00"/>
</linearGradient>
</defs>
</svg>
