<svg width="80" height="152" viewBox="0 0 80 152" fill="none" xmlns="http://www.w3.org/2000/svg">
<g id="R-ICO-014093">
<path id="BG" d="M35.3403 124.243C34.9658 118.758 36.1032 112.162 37.1442 106.315C38.0733 101.096 39.0339 95.6989 39.2904 88.9331C39.5788 81.3779 38.1429 75.1798 36.878 69.7132C35.8695 65.3577 34.8601 61.7282 34.8601 57.4285C34.8601 56.7587 34.8277 55.7094 34.7784 54.8332C34.7094 53.9049 34.6183 52.9795 34.467 52.0619C34.2068 50.4844 33.0163 49.3583 31.4624 49.1257C29.3376 48.8076 26.9236 49.5818 25.2917 50.9622C24.4696 51.6576 24.553 53.0801 24.4616 54.0566C24.3812 54.9161 24.0197 55.4519 23.2438 55.9819C23.2257 55.9631 23.2075 55.9443 23.1894 55.9255C23.8952 54.9587 24.0059 53.7332 24.152 52.6177C24.1388 52.6464 24.1256 52.6751 24.1124 52.7038C23.5453 51.9678 22.662 51.7732 21.7792 51.942C21.0066 52.0897 20.6063 52.4514 20.2015 53.1642C19.7758 53.9138 19.4318 54.7068 19.12 55.5096C18.4135 57.329 17.5462 61.2453 14.7922 60.3698C15.2068 60.1871 15.6251 60.0089 16.0199 59.7856C16.2471 59.6571 16.6683 59.2502 16.8326 59.296C18.0018 58.2169 18.3116 56.2037 18.8925 54.7947C18.1126 53.0844 15.3822 52.9878 13.7758 52.8744C11.8887 52.7413 10.2945 53.5141 8.7896 54.6589C8.7719 54.6393 8.7543 54.6197 8.7366 54.6001C9.5004 53.786 10.3499 52.8836 11.4078 52.6045C12.4022 52.3421 13.5308 52.355 14.5916 52.4815C17.0475 52.7744 19.5391 52.4141 21.7504 51.3063C23.2061 50.5771 24.6506 49.7829 25.9085 48.7373C26.4024 48.3268 27.6079 47.3246 27.2775 46.4865C27.1224 46.0931 26.0335 45.7254 25.601 45.5664C25.2977 45.4548 25.293 45.4541 24.9758 45.3207C23.8534 44.8487 22.6934 44.4611 21.4845 44.2803C21.4845 44.254 21.4845 44.2278 21.4844 44.2015C22.608 44.0284 23.7844 44.0731 24.8344 44.5422C25.4849 44.8328 25.9179 45.2238 26.6015 45.5305C28.659 46.4539 31.5072 45.7293 32.2854 43.4074C32.9218 41.5086 32.1344 39.4139 31.1629 37.7784C30.0295 35.8706 28.4202 33.6834 25.9064 33.8346C24.8564 33.8978 24.1507 34.5081 23.3791 35.0352C22.2994 35.7727 21.2045 36.5214 20.6029 37.7262L20.5277 37.7058C20.6025 36.5465 21.7164 35.7591 22.2646 34.8243C22.5254 34.3796 22.8252 34.0018 22.4909 33.64C22.341 33.4778 21.9592 33.4392 21.6618 33.3943C19.1014 33.0083 16.383 33.3942 14.5662 35.3384C13.843 36.1124 13.2365 37.6974 13.2277 38.7818C13.2229 39.375 13.6422 39.9833 13.8543 40.5601C14.0798 41.1733 14.293 41.8153 14.4197 42.4556C14.582 43.2758 14.4376 44.1199 14.1036 44.8863C14.0217 45.0741 13.9639 45.2446 13.8565 45.4903C13.7037 45.8399 13.6821 46.5971 13.5053 46.8196C13.1855 46.4106 13.1151 45.8754 13.2455 45.381C13.385 44.8523 13.6656 44.7381 13.8637 44.3024C14.4664 42.977 13.5977 41.0771 13.0531 39.8581C12.8655 40.486 12.4195 41.3668 11.9993 41.7653C11.2816 42.446 10.0198 42.2672 9.1396 42.1148C9.141 42.0885 9.1423 42.0622 9.1437 42.0359C9.9389 41.9787 11.1627 41.726 11.758 41.2268C12.6678 40.464 12.6425 39.1316 12.8659 38.09C12.9883 37.5191 13.1636 36.9605 13.3875 36.4213C13.648 35.7937 13.9483 35.5601 13.6258 34.9102C13.1258 33.9027 11.6009 33.9384 10.6413 34.1269C8.8106 34.4866 7.2629 36.0078 5.2632 35.692C4.3637 35.55 3.4782 35.2894 2.5588 35.2884C1.7803 35.2877 0.8313 35.5956 0 35.8122C1.3467 34.4675 2.8163 34.7221 4.5049 35.0496C5.2808 35.2001 5.9227 35.3384 6.705 35.142C7.6316 34.9094 8.8581 34.5028 9.6419 33.9408C9.8707 33.7768 10.3005 33.4313 10.2415 33.0929C10.1786 32.7318 9.62 32.632 9.3191 32.4148C8.3076 31.6848 7.7957 30.6684 7.2495 29.5874C6.8257 28.7487 6.3393 28.0414 5.6212 27.5392C4.6242 26.842 3.4038 26.5138 2.2499 26.1799C2.2536 26.1539 2.2573 26.1279 2.261 26.1019C3.8486 26.0979 5.6802 26.3991 6.5684 27.6639C7.8959 29.5544 8.5122 31.8299 10.8937 32.6301C12.8036 33.2719 15.3181 33.3575 17.2402 32.7554C17.8019 32.5795 18.9819 32.0526 18.9842 31.2759C18.9857 30.7964 18.0678 30.1779 17.7901 29.8754C16.3586 28.316 16.1561 25.6518 14.2954 24.5139C15.3424 24.364 16.178 26.1472 16.5998 26.8606C17.3037 28.0509 17.979 29.3746 18.9114 30.3206C19.8084 31.2308 20.911 32.1612 22.2183 32.3504C23.5796 32.5474 25.1399 32.1146 26.2697 31.8138C27.3995 31.513 31.6069 29.7973 32.0217 25.5355C32.2646 23.0407 31.7702 21.435 30.7336 19.6685C29.6981 17.9039 27.8773 17.1381 25.9969 16.6914C24.6521 16.3719 22.9816 16.0345 21.6842 16.3061C20.462 16.562 19.2468 16.844 18.0184 17.0681C17.7325 17.1203 17.4487 17.1847 17.1624 17.2355C15.9635 17.4481 15.1238 16.9882 14.4234 16.0147C14.4419 15.9962 14.4604 15.9776 14.4789 15.9591C15.0942 16.4004 15.6154 16.862 16.412 16.8962C17.4203 16.9395 18.5631 16.4784 19.5317 16.2205C20.9314 15.8479 22.3527 15.6729 23.5223 14.7234C24.6027 13.8464 23.8726 12.5078 23.2268 11.7698C22.2772 10.6845 21.5107 9.3997 19.8243 9.4524C19.8174 9.4276 19.8106 9.4027 19.8038 9.3779C20.9339 8.7505 22.3734 9.8548 23.1077 10.6401C23.7244 11.2996 24.2312 12.2156 24.5597 13.0882C24.9991 14.2551 25.4265 15.4664 26.5467 16.1349C27.6986 16.8224 29.0934 17.1812 30.4043 17.4243C30.9827 17.5316 31.7664 17.7263 32.2805 17.3315C32.7431 16.9763 32.7855 16.2787 32.7752 15.7407C32.7509 14.4631 31.9521 13.3308 30.9881 12.5493C30.1088 11.8364 29.0649 11.3528 28.1784 10.6322C27.144 9.7915 26.2332 8.6953 25.8293 7.404C25.0785 5.0037 26.2383 2.3659 25 0.0435C25.0221 0.029 25.0441 0.0145 25.0662 0C25.8831 1.0267 26.2357 2.299 26.2328 3.597C26.2304 4.6742 25.965 5.4103 26.1354 6.4899C26.8067 5.3942 27.6991 4.9464 28.6597 4.1763C28.9266 3.9624 29.1946 3.7046 29.3491 3.4277C29.5199 3.1217 29.6407 2.4024 30.111 2.2316C30.4784 3.4489 29.316 4.3222 28.4112 4.9528C27.9948 5.243 27.5505 5.4764 27.1969 5.8485C26.9451 6.1135 26.7385 6.4209 26.5474 6.7313C26.2125 7.275 26.3613 7.5401 26.6495 8.0929C27.4198 9.5705 28.7912 10.6229 30.1979 11.4563C31.7647 12.3845 33.2431 13.8295 33.2513 15.783C33.9817 14.2129 35.2439 12.9193 36.398 11.658C36.7348 11.2899 36.8637 11.0999 36.796 10.5863C36.7433 10.186 36.5875 9.8051 36.4183 9.4413C36.0971 8.751 35.7182 7.8903 35.2764 7.2734C35.124 7.0605 34.8853 6.9389 34.7801 6.6598C34.6773 6.3868 34.6871 5.908 34.8224 5.6538C35.2343 4.8795 35.7082 5.6235 35.7839 6.133C35.8472 6.5586 35.6601 6.7928 35.7415 7.1462C35.8403 7.5751 36.2104 8.0432 36.4223 8.4248C36.8123 9.1274 37.2149 9.8715 37.2908 10.6861C38.004 9.9108 39.4975 7.9984 39.5698 7.8814C39.7554 7.5809 39.9396 7.279 40.0908 6.9593C40.4556 6.1882 40.603 5.3659 40.4821 4.5171C40.506 4.5075 40.5299 4.4978 40.5538 4.4882C41.1603 5.3332 40.7237 6.625 40.4652 7.5151C41.2869 7.1008 42.2742 7.1066 43.1635 7.2445C44.1027 7.3902 44.7424 7.4709 45.6989 7.5013C45.4415 8.0832 44.878 8.1164 44.3937 7.9975C43.7318 7.8351 42.956 7.6444 42.2179 7.65C40.0573 7.6664 38.9586 9.5777 37.6224 11.0309C35.6585 13.1668 30.7963 17.6133 34.2809 19.5827C41.1749 23.479 47.05 20.0479 48.6136 19.6321C49.4818 19.4013 50.5606 19.3053 51.1857 18.6073C51.6284 18.113 51.9788 17.3661 51.9928 16.69C52.0196 15.397 51.405 13.9764 51.2611 12.7952C51.0409 10.9878 53.006 9.958 53.7678 8.5728C53.7924 8.5821 53.817 8.5913 53.8416 8.6006C53.5985 9.7086 52.5773 10.3372 52.1826 11.3817C51.7829 12.4396 51.8786 13.3601 52.0806 14.4169C52.2729 15.4226 52.7032 18.0464 54.1066 17.5709C56.4706 16.77 58.8589 15.0701 60.4071 13.1377C61.1421 12.2203 61.4542 11.468 61.5895 10.3016C61.6336 9.9217 61.808 8.7883 61.7319 7.8654C61.8162 6.4615 62.3952 5.4226 63.409 4.4363C63.4291 4.4535 63.4491 4.4706 63.4692 4.4878C62.6739 5.6134 62.3443 7.0294 62.2734 8.3205C62.2302 9.107 62.1296 9.9048 62.0241 10.6859C61.9474 11.2537 61.4502 12.3061 61.9485 12.7914C62.8163 13.6366 65.3232 12.1576 66.1016 11.7806C66.8404 11.4227 67.7998 10.8359 68.1718 10.1359C68.4021 9.7025 68.633 9.2089 69.1626 8.9745C69.0922 10.9494 66.8597 12.0074 65.2082 12.7241C64.5187 13.0233 63.3512 13.3803 62.6019 13.4399C62.4379 13.453 62.3154 13.4858 62.1009 13.6222C61.7951 13.8167 61.5472 14.09 61.2252 14.2749C60.6856 14.5849 59.9851 14.6937 59.5461 15.1139C59.277 15.3715 58.8963 15.8873 58.9787 16.2964C59.1213 17.004 60.0133 16.8248 60.5301 16.9453C61.4918 17.1696 62.2973 17.7337 63.1165 18.2527C63.597 18.5571 64.1057 18.8148 64.6317 19.0315C65.0705 19.2123 65.5192 19.375 65.977 19.5047C66.1646 19.5578 66.7219 19.4793 66.8491 19.4588C67.7004 19.3779 68.6539 19.374 69.4399 19.3686C69.2388 20.6275 66.929 20.6042 66.2865 20.4181C65.644 20.232 65.0356 19.7184 64.3944 19.4458C64.0214 19.2872 63.3603 18.7538 63.0996 19.2816C62.8237 19.84 63.537 20.6213 63.8977 20.9552C64.2846 21.3135 64.7052 21.6359 65.0937 21.9934C65.2794 22.1643 65.4606 22.2659 65.6195 22.3496C65.8339 22.4625 65.9112 22.403 66.0769 22.6075C66.3238 22.9123 66.3868 23.5342 66.2003 23.8862C66.0523 24.1657 65.7374 24.1697 65.6375 24.4632C65.6518 24.2259 65.509 23.8122 65.4378 23.5892C65.3138 23.2011 65.1449 22.6947 64.8735 22.4403C64.1897 21.7993 63.512 21.2896 62.9468 20.5531C62.5927 20.0916 62.2016 19.8044 61.7545 19.4114C60.934 18.6901 59.9683 17.6498 58.9624 17.2525C56.9072 16.4408 54.5075 18.8271 53.1879 20.1075C52.6394 20.6397 51.3498 21.7437 52.1141 22.5682C52.7132 23.2146 54.2439 23.1769 55.0509 23.0824C55.377 23.0442 55.6503 22.9847 55.8823 22.8374C56.0466 22.733 56.0483 22.6236 56.2855 22.5634C56.7202 22.453 57.3112 22.559 57.7226 22.7124C57.9453 22.7955 58.3868 22.9729 58.5456 23.1794C58.5703 23.2115 58.9297 23.3654 58.8399 23.7197C58.8276 23.7427 58.3183 23.7733 57.8261 23.6764C57.3054 23.5739 56.792 23.6389 56.2766 23.5646C56.1691 23.5491 56.0266 23.4098 55.9619 23.4035C55.6216 23.3706 55.1402 23.5599 54.792 23.5848C54.1676 23.6295 52.8336 23.4881 52.4702 24.1502C52.2765 24.5032 51.9937 24.7887 51.8026 25.1496C51.5058 25.7101 51.3395 26.2998 51.1691 26.9057C51.0916 26.8623 51.0823 32.6226 52.4656 34.7676C53.6884 36.6637 55.4575 38.1656 57.6143 38.8766C58.6649 39.2229 59.3681 39.333 60.4014 38.866C61.2131 38.4992 61.9841 37.9427 62.5886 37.2859C62.958 36.8845 63.1138 36.4122 63.3075 35.9105C63.5533 35.2736 63.5645 34.6225 63.5996 33.9471C63.6124 33.6994 63.609 33.4458 63.5583 33.2622C63.5111 33.0912 63.4284 33.0142 63.4286 32.8014C63.4291 31.8694 64.1502 30.9397 64.9616 30.5668C65.7399 30.2091 66.2029 30.5181 67.0005 30.503C67.0018 30.5294 67.0032 30.5559 67.0045 30.5824C66.2085 30.6467 65.4283 31.1392 64.9314 31.7987C64.4087 32.4924 64.0995 33.4464 64.0631 34.2659C64.5156 33.9064 64.956 33.5822 65.5526 33.5406C66.1217 33.5009 66.6363 33.7861 67.199 33.7664C67.3439 33.7613 67.752 33.3692 67.9348 33.2177C68.1293 33.0565 68.9686 32.9523 69.1395 33.1113C69.5566 33.4994 68.7788 34.1385 68.4127 34.1901C68.1898 34.2215 68.0275 34.1381 67.8141 34.1487C67.5029 34.1642 67.2228 34.2749 66.8999 34.2451C66.3885 34.1979 65.9262 33.93 65.3999 34.0361C64.8527 34.1465 64.4695 34.5975 64.0254 34.8829C63.9438 35.8199 63.5849 36.921 62.927 37.6222C62.3733 38.2123 62.1757 38.947 62.6967 39.6607C63.5087 40.7731 65.656 41.2345 66.9631 41.4338C67.906 41.5776 68.9329 41.6362 69.8692 41.4118C70.9761 41.1465 72.0489 40.3246 72.9482 39.6576C74.91 38.2028 74.4371 35.8308 75.1549 33.7761C75.6337 32.4056 76.6742 31.5864 78.1278 31.7355C77.2937 32.2597 76.2679 32.5439 75.797 33.459C75.3887 34.2525 75.2692 35.2111 75.2079 36.0849C75.139 37.0689 74.8015 37.9613 74.337 38.8247C75.3521 38.4776 76.3157 38.3468 77.3608 38.6179C78.2618 38.8516 79.0426 39.6242 80.0001 39.9345C79.9969 39.9603 79.9938 39.9861 79.9906 40.0119C78.7608 40.1031 77.8698 39.1732 76.844 38.9774C76.1756 38.8498 75.488 38.9739 74.8437 39.1633C74.1406 39.37 73.7099 39.6935 73.1267 40.1188C72.0804 40.8818 70.9554 41.4036 69.8732 42.0086C69.2949 42.3319 68.9292 43.2022 68.9733 43.9008C69.0022 44.3594 69.4197 44.8765 69.6358 45.2806C69.847 45.6756 70.0182 46.0294 70.3138 46.3593C70.7063 46.7973 71.1716 47.5147 71.6703 47.8237C72.038 48.0515 72.7419 47.9921 73.1796 48.0385C74.0346 48.1292 74.5051 48.0909 75.3098 47.7036C76.0769 47.3344 76.9987 47.2941 77.6666 48.0563C77.6507 48.0769 77.6349 48.0975 77.619 48.1181C77.2203 47.9216 76.7825 47.898 76.3501 47.9589C76.1426 47.9881 74.542 48.6113 74.5966 48.621C73.9514 48.9507 71.7714 48.4912 71.3531 49.0923C71.3053 49.1609 71.3096 49.2545 71.3312 49.3353C71.5287 50.0725 71.79 50.7872 72.1331 51.4642C72.4688 52.1266 72.8803 52.753 73.3772 53.3061C73.3593 53.3256 73.3414 53.345 73.3236 53.3645C72.0649 52.4164 71.3181 50.7777 70.8479 49.4227C70.2369 47.6618 69.2106 45.9455 67.9158 44.6146C65.3835 42.0116 61.619 40.9345 58.0715 40.6979C56.5655 40.5975 54.9092 40.6796 53.4455 41.0954C51.9162 41.5298 50.0305 42.5331 49.4961 44.1496C48.9629 45.7626 49.8438 47.6828 50.6857 49.0471C51.5083 50.3802 52.9712 51.2132 54.5326 50.6774C56.7059 49.9316 58.6656 46.7702 61.2695 48.1245C61.2598 48.149 61.2501 48.1736 61.2404 48.1981C60.0576 47.8656 58.993 48.3117 58.0765 49.0528C57.6767 49.3761 57.3191 49.7596 56.8934 50.0491C56.4592 50.3443 56.0942 50.4258 55.6159 50.6875C54.8917 51.0837 53.0975 51.5455 53.374 52.735C53.5549 53.5134 54.6858 53.9638 55.3218 54.2055C57.4761 55.0239 59.8913 54.0014 62.0251 54.8863C63.4178 55.4639 64.6835 57.0654 64.8161 58.5646C64.7915 58.5725 64.7669 58.5805 64.7423 58.5884C64.3313 57.8935 63.7118 57.1351 63.3098 56.5468C62.7915 55.7881 62.0314 55.2725 61.1198 55.1069C60.0917 54.9201 59.0151 54.9949 57.9805 55.0345C57.2827 55.0612 56.6351 54.9639 55.9474 54.8959C55.6944 54.8708 54.7985 54.7394 54.6575 55.1057C54.5962 55.2651 54.722 55.6192 54.7736 55.7679C54.9489 56.2737 55.1989 56.774 55.4375 57.2522C55.987 58.3534 56.6795 59.5489 57.7013 60.2736C59.3766 61.4617 62.5298 61.6909 62.6727 64.1872C62.648 64.1948 62.6233 64.2024 62.5986 64.21C62.226 63.5823 61.5343 62.8191 60.9749 62.4569C59.932 61.7817 58.6922 61.4719 57.6378 60.8043C57.9735 62.0656 57.6208 63.2585 57.7794 64.5128C57.8591 65.1438 57.8581 65.642 57.7194 66.3549C57.0978 66.0316 57.2718 64.5167 57.275 63.9464C57.2824 62.641 57.6193 61.1245 56.7059 60.0408C55.7073 58.8559 55.1978 57.5374 54.445 56.2153C54.0997 55.6089 53.6952 54.7301 53.1286 54.1267C53.1539 54.1223 51.293 51.7427 50.0312 51.9275C48.2482 52.1886 47.7638 53.9761 47.8625 55.5073C47.9187 56.3799 47.8819 57.5094 48.1986 58.3159C48.5057 59.0978 49.0427 59.7707 49.5671 60.4168C50.1363 61.1181 51.6622 62.5428 51.0526 63.5812C50.3546 61.8019 48.7808 60.5963 47.9097 58.8293C47.6993 60.1514 47.4348 61.8408 45.8912 62.3688C45.8773 62.3471 45.8634 62.3253 45.8495 62.3036C46.524 61.5997 47.058 60.5395 47.2607 59.6594C47.5242 58.5155 47.8169 56.9463 47.4106 55.8011C47.0287 54.7247 45.6007 54.1723 44.5327 54.2487C43.8215 54.2995 42.7676 54.4279 42.1938 55.0733C42.1724 55.058 42.1509 55.0426 42.1295 55.0273C42.6178 54.1699 43.4433 53.6049 44.4547 53.6985C45.1744 53.7651 46.0092 53.9797 46.7343 53.4578C48.3498 52.2948 47.972 49.6363 46.0116 49.1659C44.82 48.88 43.5094 49.3768 42.4763 49.9499C41.7362 50.3605 40.7882 50.8647 39.9617 51.3103C39.3843 51.6216 38.8291 51.9642 38.3507 52.4173C37.6619 53.0695 36.7374 54.135 36.6743 55.1008C36.32 59.9198 37.1208 64.4678 38.2614 69.3935C39.5468 74.9457 41.0001 81.2339 40.7099 88.9878C40.4492 95.8518 39.4799 101.298 38.5422 106.564C37.5273 112.268 36.5753 117.702 36.7861 123.992C36.791 124.139 36.8083 124.283 36.8324 124.427C36.9889 125.366 37.0559 126.58 37.563 127.339C38.3376 128.498 39.725 128.744 41.3804 128.605C43.6704 128.413 45.8007 126.007 47.7669 123.487C48.9014 122.034 49.8196 121.342 50.8054 120.847C51.0964 120.65 51.3912 120.46 51.6926 120.28C52.1424 120.011 52.7393 119.553 53.2593 119.434C53.7684 119.317 54.5338 119.666 54.4471 120.294C54.3834 120.755 53.6228 120.916 53.2542 121.119C52.392 121.595 51.4727 121.984 50.5433 122.351C49.9587 122.758 49.3773 123.315 48.6839 124.203C46.5594 126.925 44.2063 129.381 41.4994 129.762C39.3726 130.061 38.5019 129.577 37.8244 128.923C38.0216 129.857 39.0273 131.499 39.0797 131.537C41.0562 132.96 44.846 134.589 46.7037 133.566C47.0919 133.352 47.4752 133.115 47.881 132.865C49.7524 131.711 51.8737 130.403 54.8218 131.304C55.1286 131.398 55.3018 131.724 55.2079 132.03C55.114 132.337 54.7889 132.51 54.4817 132.416C52.0366 131.669 50.3147 132.731 48.4916 133.855C48.0917 134.102 47.6781 134.357 47.265 134.585C47.0185 134.72 46.7527 134.822 46.4732 134.895C46.8292 135.472 47.0807 136.138 47.3255 136.792C47.737 137.891 48.1258 138.929 48.9218 139.282C50.6461 140.046 52.8209 140.163 52.8427 140.164C53.1632 140.18 53.4107 140.454 53.3945 140.774C53.3786 141.094 53.106 141.342 52.7854 141.326C52.7066 141.322 51.179 141.241 49.5785 140.759C48.3559 140.39 46.9684 139.074 46.4981 137.887C46.0682 136.802 45.7446 135.686 45.1289 135.041C43.1027 134.999 40.2995 133.864 39.096 132.946C37.8925 132.028 37.6496 131.51 37.4888 131.082C37.0292 132.736 36.4499 134.609 36.8598 136.332C36.9178 136.576 37.0515 136.811 37.1797 137.041C37.5417 137.386 37.8756 137.744 38.1981 138.091C39.1252 139.088 39.9258 139.948 40.9583 140.032C42.4408 140.153 43.1896 141.659 43.0121 144.166C42.9894 144.486 42.7113 144.727 42.3909 144.704C42.0703 144.682 41.8297 144.402 41.8518 144.083C41.8847 143.617 41.992 141.284 40.8636 141.191C39.3512 141.068 38.3528 139.964 37.2824 138.814C37.2821 138.815 37.2827 138.814 37.2824 138.814C37.1725 139.523 37.0685 140.234 36.9487 140.941C36.7372 142.189 35.9781 143.163 35.4591 144.291C34.8164 145.687 34.4838 147.202 35.2513 148.626C35.4664 149.025 36.0457 149.712 35.7905 150.213C35.5237 150.737 34.9244 150.411 34.6311 150.092C32.8345 148.139 34.036 145.312 35.0565 143.323C35.44 142.575 35.7306 141.788 35.9649 140.981C36.1849 140.223 36.513 139.405 36.3833 138.59C36.2524 137.768 35.8748 136.998 35.7577 136.157C35.6434 135.335 35.6213 134.504 35.612 133.675C34.8719 135.331 33.5288 136.36 32.1462 137.441C30.9632 138.367 30.0757 139.753 29.5422 141.146C28.8768 142.884 29.3481 144.521 29.5293 146.3C29.6184 147.176 29.768 147.978 29.5502 148.851C29.3616 149.606 28.9841 150.296 28.5818 150.957C28.2831 151.409 27.5705 151.558 27.3149 150.989C27.1098 150.532 27.4027 150.068 27.6394 149.699C27.9184 149.263 28.3211 148.818 28.5359 148.349C28.7889 147.797 28.5982 147.104 28.539 146.528C28.2372 143.592 27.9282 140.833 29.9497 138.425C28.7153 138.955 27.3581 138.35 26.1558 138.959C25.1556 139.466 24.2757 140.18 23.5963 141.074C22.8931 141.999 22.3873 143.081 22.1587 144.221C21.9992 145.016 22.0067 145.823 21.8838 146.619C21.8297 146.969 21.7038 147.656 21.2721 147.756C19.6158 148.141 21.0161 143.363 21.383 142.631C22.3545 140.691 23.9729 139.07 25.9733 138.205C24.9893 137.976 23.9694 137.74 22.9529 137.853C21.61 138.003 20.8669 138.827 20.0679 139.834C19.7989 140.173 18.672 141.943 18.2933 140.701C18.0044 139.754 19.4381 138.393 20.0858 137.871C22.2016 136.166 24.7769 137.241 27.1305 137.631C29.0273 137.946 30.762 137.239 32.1719 136.019C33.4588 134.906 34.5448 133.505 35.0799 131.874C35.3061 131.185 35.7948 129.736 34.8861 129.337C34.21 129.04 33.0209 129.679 32.3226 129.82C31.2549 130.037 30.3344 129.786 29.3329 129.296C28.3632 128.823 27.288 128.608 26.2088 128.59C25.2292 128.575 24.2022 128.569 23.2602 128.875C22.4325 129.144 21.929 129.751 21.4184 130.426C20.8212 131.215 20.3414 132.096 20.0797 133.054C19.9274 133.612 20.0619 135.41 19.175 135.334C18.122 135.244 18.7062 133.273 18.8946 132.706C19.235 131.682 19.8453 130.771 20.5736 129.982C19.6196 130.153 18.7769 129.771 18.0685 129.188C17.5173 128.734 16.9633 128.572 16.2438 128.657C15.8622 128.702 13.8818 129.247 14.4181 128.16C14.655 127.679 15.3322 127.572 15.8114 127.523C17.4081 127.362 18.867 128.454 20.3176 128.924C21.2431 129.223 21.6623 128.659 22.4335 128.271C23.3751 127.796 24.4907 127.62 25.5235 127.482C23.9704 125.924 22.0448 124.449 19.9181 123.784C18.9185 123.472 17.9081 123.527 16.8946 123.347C16.3282 123.246 15.2016 122.803 16.0373 122.177C16.7528 121.641 18.0145 122.091 18.783 122.305C19.9159 122.62 20.9952 123.108 22.0303 123.661C24.1149 124.773 25.7454 126.512 27.7906 127.693C29.2938 128.561 31.0684 129.264 32.7914 128.609C33.5687 128.313 34.4491 127.704 34.9229 127.004C35.3299 126.403 35.4266 125.507 35.3403 124.243Z" fill="#6AACE2"/>
<g id="Myelin shealths">
<path id="Vector" d="M39.5534 66.0586C37.9327 63.7407 34.5971 65.4476 34.334 66.6181C33.9511 67.9504 34.6593 70.9357 35.6306 72.7747C36.7658 75.1827 40.1751 73.8994 40.6245 72.34C41.2184 70.9413 40.1722 67.1405 39.5534 66.0586Z" fill="url(#paint0_radial_938_25190)"/>
<path id="Vector_2" d="M41.7075 76.0366C40.092 73.534 36.7683 75.397 36.4693 76.4486C36.2745 77.0764 36.2705 78.0981 36.4418 79.197C36.573 80.2955 36.8938 81.4729 37.2288 82.4245C37.642 83.6528 38.7259 84.0866 39.7891 84.0301C40.8663 83.9735 41.9246 83.3948 42.2373 82.6389C42.4277 82.3086 42.5388 81.8028 42.5902 81.2095C42.6338 80.6178 42.5886 79.9453 42.5182 79.2739C42.3719 77.9317 41.9969 76.6326 41.7075 76.0366Z" fill="url(#paint1_radial_938_25190)"/>
<path id="Vector_3" d="M42.7928 86.6241C42.2499 85.2033 41.0366 84.8246 39.9406 84.9098C38.8369 84.9976 37.8163 85.5245 37.5764 86.014C37.2652 86.5802 37.0461 87.5698 37.0056 88.6639C36.9186 89.7754 36.9794 91.0155 37.1468 92.0319C37.4839 94.6445 41.1246 94.5234 42.0289 93.1711C42.2769 92.8871 42.4789 92.4206 42.6386 91.8595C42.7855 91.2973 42.8824 90.6401 42.943 89.9787C43.0817 88.6672 42.9447 87.2658 42.7928 86.6241Z" fill="url(#paint2_radial_938_25190)"/>
<path id="Vector_4" d="M42.0653 96.9772C41.2529 94.1211 37.5285 94.9085 36.9358 95.8327C36.1746 96.913 35.7951 99.8119 35.9914 101.903C36.16 104.583 39.8082 104.607 40.7969 103.341C41.8744 102.294 42.2998 98.2797 42.0653 96.9772Z" fill="url(#paint3_radial_938_25190)"/>
<path id="Vector_5" d="M40.54 107.234C40.0097 104.382 36.2454 104.688 35.5484 105.596C34.6721 106.61 34.038 109.609 34.1963 111.788C34.2445 113.183 35.2046 113.874 36.2645 114.052C37.3253 114.23 38.4702 113.922 38.9726 113.322C40.0116 112.328 40.6436 108.533 40.54 107.234Z" fill="url(#paint4_radial_938_25190)"/>
<path id="Vector_6" d="M38.9973 116.879C38.5483 115.552 37.4429 115.021 36.3313 114.967C35.2274 114.91 34.134 115.337 33.8464 115.854C33.0621 117.006 32.878 120.234 33.4606 122.383C34.1294 125.167 37.7159 124.256 38.447 122.943C38.851 122.357 39.0467 121.149 39.0947 119.934C39.1784 118.718 39.1179 117.487 38.9973 116.879Z" fill="url(#paint5_radial_938_25190)"/>
<path id="Vector_7" d="M38.2742 56.5875C37.7324 55.3921 36.5554 54.9251 35.4528 54.9393C34.3497 54.947 33.3131 55.4819 33.0575 56.0566C32.701 56.7086 32.6071 57.8816 32.6843 59.1543C32.7493 59.782 32.8537 60.4359 32.996 61.0601C33.1636 61.6727 33.3637 62.2587 33.5864 62.7695C34.7164 65.3879 38.1109 63.9009 38.5919 62.4832C38.739 62.157 38.8308 61.6969 38.8425 61.1673C38.8505 60.9029 38.8407 60.6213 38.821 60.3325C38.8152 60.0468 38.7969 59.7535 38.7684 59.461C38.7403 59.1686 38.7005 58.8767 38.6562 58.5949C38.6289 58.3163 38.5935 58.047 38.5521 57.796C38.4731 57.2948 38.3509 56.8628 38.2742 56.5875Z" fill="url(#paint6_radial_938_25190)"/>
</g>
<g id="R-ICO-013121" opacity="0.75">
<g id="Nucleus">
<mask id="path-9-inside-1_938_25190" fill="white">
<path d="M43.3051 38.9141C46.6188 38.9141 49.3051 36.2278 49.3051 32.9141C49.3051 29.6004 46.6188 26.9141 43.3051 26.9141C39.9913 26.9141 37.3051 29.6004 37.3051 32.9141C37.3051 36.2278 39.9913 38.9141 43.3051 38.9141Z"/>
</mask>
<path d="M43.3051 38.9141C46.6188 38.9141 49.3051 36.2278 49.3051 32.9141C49.3051 29.6004 46.6188 26.9141 43.3051 26.9141C39.9913 26.9141 37.3051 29.6004 37.3051 32.9141C37.3051 36.2278 39.9913 38.9141 43.3051 38.9141Z" fill="url(#paint7_radial_938_25190)" stroke="#5656A5" stroke-width="0.9" mask="url(#path-9-inside-1_938_25190)"/>
</g>
</g>
</g>
<defs>
<radialGradient id="paint0_radial_938_25190" cx="0" cy="0" r="1" gradientUnits="userSpaceOnUse" gradientTransform="translate(37.5145 69.509) rotate(90) scale(3.9986 3.9986)">
<stop stop-color="#D5F6FF"/>
<stop offset="1" stop-color="#6AACE2"/>
</radialGradient>
<radialGradient id="paint1_radial_938_25190" cx="0" cy="0" r="1" gradientUnits="userSpaceOnUse" gradientTransform="translate(39.4626 79.4121) rotate(90) scale(3.9534)">
<stop stop-color="#D5F6FF"/>
<stop offset="1" stop-color="#6AACE2"/>
</radialGradient>
<radialGradient id="paint2_radial_938_25190" cx="0" cy="0" r="1" gradientUnits="userSpaceOnUse" gradientTransform="translate(39.9832 89.5059) rotate(90) scale(3.8944)">
<stop stop-color="#D5F6FF"/>
<stop offset="1" stop-color="#6AACE2"/>
</radialGradient>
<radialGradient id="paint3_radial_938_25190" cx="0" cy="0" r="1" gradientUnits="userSpaceOnUse" gradientTransform="translate(39.034 99.5689) rotate(90) scale(3.9111)">
<stop stop-color="#D5F6FF"/>
<stop offset="1" stop-color="#6AACE2"/>
</radialGradient>
<radialGradient id="paint4_radial_938_25190" cx="0" cy="0" r="1" gradientUnits="userSpaceOnUse" gradientTransform="translate(37.3614 109.53) rotate(90) scale(3.9417 3.9417)">
<stop stop-color="#D5F6FF"/>
<stop offset="1" stop-color="#6AACE2"/>
</radialGradient>
<radialGradient id="paint5_radial_938_25190" cx="0" cy="0" r="1" gradientUnits="userSpaceOnUse" gradientTransform="translate(36.126 119.582) rotate(90) scale(3.8983)">
<stop stop-color="#D5F6FF"/>
<stop offset="1" stop-color="#6AACE2"/>
</radialGradient>
<radialGradient id="paint6_radial_938_25190" cx="0" cy="0" r="1" gradientUnits="userSpaceOnUse" gradientTransform="translate(35.7522 59.5736) rotate(90) scale(3.94)">
<stop stop-color="#D5F6FF"/>
<stop offset="1" stop-color="#6AACE2"/>
</radialGradient>
<radialGradient id="paint7_radial_938_25190" cx="0" cy="0" r="1" gradientUnits="userSpaceOnUse" gradientTransform="translate(41.7449 30.4157) scale(7.88585)">
<stop stop-color="#AFBAF7"/>
<stop offset="0.3111" stop-color="#6D96CE"/>
<stop offset="0.8032" stop-color="#285FCC"/>
</radialGradient>
</defs>
</svg>
