<svg width="68" height="74" viewBox="0 0 68 74" fill="none" xmlns="http://www.w3.org/2000/svg">
<g id="R-ICO-014588">
<g id="BOTTOM bonds">
<path id="Vector" d="M37.2939 73.0362C31.1718 73.0362 23.7783 67.8966 23.7783 61.5137C23.7783 60.4092 24.6738 59.5137 25.7783 59.5137C26.8828 59.5137 27.7783 60.4092 27.7783 61.5137C27.7783 65.4942 33.0996 69.0362 37.2939 69.0362C38.2524 69.0362 39.5957 68.8399 40.5488 67.9053C41.455 67.0166 41.9145 65.584 41.9145 63.6475C41.9145 62.543 42.81 61.6475 43.9145 61.6475C45.019 61.6475 45.9145 62.543 45.9145 63.6475C45.9145 66.6993 45.0512 69.0928 43.3491 70.7618C41.8315 72.2491 39.7377 73.0362 37.2939 73.0362Z" fill="#454389"/>
<path id="Vector_2" d="M57.0186 66.0381C52.2134 66.0381 52.0791 52.3252 52.0791 52.1865C52.0791 51.082 52.9746 50.1865 54.0791 50.1865C55.1836 50.1865 56.0791 51.082 56.0791 52.1865C56.0791 54.2851 56.2764 56.1699 56.5503 57.7353C56.917 57.2861 57.4751 56.999 58.1006 56.999C59.2051 56.999 60.1006 57.8945 60.1006 58.999C60.1006 60.8769 59.9815 62.291 59.7359 63.3213C59.1734 65.6855 57.792 66.0381 57.0186 66.0381Z" fill="#454389"/>
</g>
<g id="Group">
<path id="Vector_3" d="M35.9155 53.4951C41.1733 53.4951 45.4355 51.9355 45.4355 50.0117C45.4355 48.0879 41.1733 46.5283 35.9155 46.5283C30.6578 46.5283 26.3955 48.0879 26.3955 50.0117C26.3955 51.9355 30.6578 53.4951 35.9155 53.4951Z" fill="url(#paint0_linear_938_22986)"/>
<path id="Vector_4" d="M49.4355 9.86094C49.4355 7.93714 45.1732 6.37744 39.9155 6.37744C34.6578 6.37744 30.3955 7.93704 30.3955 9.86094C28.2939 20.3968 26.3955 41.0338 26.3955 50.0118C26.3955 51.9356 30.6578 53.4952 35.9155 53.4952C41.1732 53.4952 45.4355 51.9356 45.4355 50.0118C45.4355 40.9513 46.9308 20.6413 49.3091 10.4022C49.3847 10.2253 49.4355 10.0455 49.4355 9.86094Z" fill="url(#paint1_radial_938_22986)"/>
<path id="Vector_5" d="M39.9155 13.3442C45.1733 13.3442 49.4355 11.7847 49.4355 9.86084C49.4355 7.93701 45.1733 6.37744 39.9155 6.37744C34.6578 6.37744 30.3955 7.93701 30.3955 9.86084C30.3955 11.7847 34.6578 13.3442 39.9155 13.3442Z" fill="url(#paint2_linear_938_22986)"/>
<path id="Vector_6" d="M39.915 11.0104C41.6501 11.0104 43.0566 10.4958 43.0566 9.86093C43.0566 9.22607 41.6501 8.71143 39.915 8.71143C38.18 8.71143 36.7734 9.22607 36.7734 9.86093C36.7734 10.4958 38.18 11.0104 39.915 11.0104Z" fill="#292469"/>
</g>
<g id="Group_2">
<path id="Vector_7" d="M21.7554 58.1694C27.0131 58.1694 31.2754 56.6099 31.2754 54.686C31.2754 52.7622 27.0131 51.2026 21.7554 51.2026C16.4976 51.2026 12.2354 52.7622 12.2354 54.686C12.2354 56.6099 16.4976 58.1694 21.7554 58.1694Z" fill="url(#paint3_linear_938_22986)"/>
<path id="Vector_8" d="M23.3905 9.86084C18.1327 9.86084 13.8705 11.4204 13.8705 13.3443C12.5165 24.8467 11.7926 43.3436 12.2354 54.6861C12.2354 56.6099 16.4977 58.1696 21.7554 58.1696C27.0131 58.1696 31.2754 56.61 31.2754 54.6861C31.2754 42.2918 31.5297 27.3549 32.9105 13.3443C32.9105 11.4204 28.6483 9.86084 23.3905 9.86084Z" fill="url(#paint4_radial_938_22986)"/>
<path id="Vector_9" d="M23.3901 16.8276C28.6479 16.8276 32.9101 15.2681 32.9101 13.3442C32.9101 11.4204 28.6479 9.86084 23.3901 9.86084C18.1324 9.86084 13.8701 11.4204 13.8701 13.3442C13.8701 15.2681 18.1324 16.8276 23.3901 16.8276Z" fill="url(#paint5_linear_938_22986)"/>
<path id="Vector_10" d="M23.3906 14.4938C25.1257 14.4938 26.5322 13.9792 26.5322 13.3443C26.5322 12.7095 25.1257 12.1948 23.3906 12.1948C21.6556 12.1948 20.249 12.7095 20.249 13.3443C20.249 13.9792 21.6556 14.4938 23.3906 14.4938Z" fill="#292469"/>
</g>
<g id="Group_3">
<path id="Vector_11" d="M54.0796 55.6697C59.3373 55.6697 63.5996 54.1101 63.5996 52.1863C63.5996 50.2625 59.3373 48.7029 54.0796 48.7029C48.8218 48.7029 44.5596 50.2625 44.5596 52.1863C44.5596 54.1101 48.8218 55.6697 54.0796 55.6697Z" fill="url(#paint6_linear_938_22986)"/>
<path id="Vector_12" d="M56.4394 9.86084C51.1816 9.86084 46.9194 11.4204 46.9194 13.3443C45.7697 22.5004 44.5596 43.1174 44.5596 52.1862C44.5596 54.1101 48.8219 55.6697 54.0796 55.6697C59.3373 55.6697 63.5996 54.1101 63.5996 52.1862C63.5996 41.4992 65.1874 19.5068 65.9594 13.3443C65.9594 11.4204 61.6972 9.86084 56.4394 9.86084Z" fill="url(#paint7_radial_938_22986)"/>
<path id="Vector_13" d="M56.4389 16.8276C61.6967 16.8276 65.9589 15.2681 65.9589 13.3442C65.9589 11.4204 61.6967 9.86084 56.4389 9.86084C51.1812 9.86084 46.9189 11.4204 46.9189 13.3442C46.9189 15.2681 51.1812 16.8276 56.4389 16.8276Z" fill="url(#paint8_linear_938_22986)"/>
<path id="Vector_14" d="M56.4395 14.4938C58.1745 14.4938 59.5811 13.9792 59.5811 13.3443C59.5811 12.7095 58.1745 12.1948 56.4395 12.1948C54.7044 12.1948 53.2979 12.7095 53.2979 13.3443C53.2979 13.9792 54.7044 14.4938 56.4395 14.4938Z" fill="#292469"/>
</g>
<g id="Group_4">
<path id="Vector_15" d="M39.9155 60.3113C45.1733 60.3113 49.4355 58.7517 49.4355 56.8279C49.4355 54.9041 45.1733 53.3445 39.9155 53.3445C34.6578 53.3445 30.3955 54.9041 30.3955 56.8279C30.3955 58.7517 34.6578 60.3113 39.9155 60.3113Z" fill="url(#paint9_linear_938_22986)"/>
<path id="Vector_16" d="M39.9155 13.3445C34.6577 13.3445 30.3955 14.9041 30.3955 16.8279C30.3955 22.2534 30.3955 50.6953 30.3955 56.8279C30.3955 58.7518 34.6578 60.3114 39.9155 60.3114C45.1732 60.3114 49.4355 58.7518 49.4355 56.8279C49.4355 49.712 49.4355 25.6949 49.4355 16.8279C49.4355 14.904 45.1732 13.3445 39.9155 13.3445Z" fill="url(#paint10_radial_938_22986)"/>
<path id="Vector_17" d="M39.9155 20.3113C45.1733 20.3113 49.4355 18.7517 49.4355 16.8279C49.4355 14.9041 45.1733 13.3445 39.9155 13.3445C34.6578 13.3445 30.3955 14.9041 30.3955 16.8279C30.3955 18.7517 34.6578 20.3113 39.9155 20.3113Z" fill="url(#paint11_linear_938_22986)"/>
<path id="Vector_18" d="M39.915 17.9775C41.6501 17.9775 43.0566 17.4628 43.0566 16.828C43.0566 16.1931 41.6501 15.6785 39.915 15.6785C38.18 15.6785 36.7734 16.1931 36.7734 16.828C36.7734 17.4628 38.18 17.9775 39.915 17.9775Z" fill="#292469"/>
</g>
<g id="Group_5">
<path id="Vector_19" d="M58.1011 62.4827C63.3588 62.4827 67.6211 60.9231 67.6211 58.9993C67.6211 57.0754 63.3588 55.5159 58.1011 55.5159C52.8433 55.5159 48.5811 57.0754 48.5811 58.9993C48.5811 60.9231 52.8433 62.4827 58.1011 62.4827Z" fill="url(#paint12_linear_938_22986)"/>
<path id="Vector_20" d="M65.9589 20.3111C65.9589 18.3873 61.6966 16.8276 56.4389 16.8276C51.1812 16.8276 46.9189 18.3872 46.9189 20.3111C46.9189 30.801 46.9189 43.2357 48.5806 58.9993C48.5806 60.9231 52.8429 62.4828 58.1006 62.4828C63.3583 62.4828 67.6206 60.9232 67.6206 58.9993C65.9589 43.2357 65.9589 30.801 65.9589 20.3111Z" fill="url(#paint13_radial_938_22986)"/>
<path id="Vector_21" d="M56.4389 23.7944C61.6967 23.7944 65.9589 22.2349 65.9589 20.311C65.9589 18.3872 61.6967 16.8276 56.4389 16.8276C51.1812 16.8276 46.9189 18.3872 46.9189 20.311C46.9189 22.2349 51.1812 23.7944 56.4389 23.7944Z" fill="url(#paint14_linear_938_22986)"/>
<path id="Vector_22" d="M56.4385 21.4606C58.1735 21.4606 59.5801 20.946 59.5801 20.3111C59.5801 19.6763 58.1735 19.1616 56.4385 19.1616C54.7034 19.1616 53.2969 19.6763 53.2969 20.3111C53.2969 20.946 54.7034 21.4606 56.4385 21.4606Z" fill="#292469"/>
</g>
<g id="Group_6">
<path id="Vector_23" d="M25.7788 64.9968C31.0365 64.9968 35.2988 63.4373 35.2988 61.5134C35.2988 59.5896 31.0365 58.03 25.7788 58.03C20.521 58.03 16.2588 59.5896 16.2588 61.5134C16.2588 63.4373 20.521 64.9968 25.7788 64.9968Z" fill="url(#paint15_linear_938_22986)"/>
<path id="Vector_24" d="M35.3157 61.7176C35.3068 61.6685 35.2996 61.6184 35.2909 61.5692C35.2917 61.5504 35.2986 61.5322 35.2986 61.5132C35.2986 61.3544 35.2595 61.1994 35.2033 61.0462C32.8465 47.4656 32.9105 32.3187 32.9105 20.3111C32.9105 18.3873 28.648 16.8276 23.3903 16.8276C18.1326 16.8276 13.8703 18.3872 13.8703 20.3111C13.8703 32.5159 13.7983 47.9675 16.2756 61.7176H16.2868C16.5774 63.5458 20.7094 64.9967 25.7787 64.9967C30.8479 64.9967 34.9799 63.5458 35.2705 61.7176H35.3157Z" fill="url(#paint16_radial_938_22986)"/>
<path id="Vector_25" d="M23.3901 23.7944C28.6479 23.7944 32.9101 22.2349 32.9101 20.311C32.9101 18.3872 28.6479 16.8276 23.3901 16.8276C18.1324 16.8276 13.8701 18.3872 13.8701 20.311C13.8701 22.2349 18.1324 23.7944 23.3901 23.7944Z" fill="url(#paint17_linear_938_22986)"/>
<path id="Vector_26" d="M23.3906 21.4606C25.1257 21.4606 26.5322 20.946 26.5322 20.3111C26.5322 19.6763 25.1257 19.1616 23.3906 19.1616C21.6556 19.1616 20.249 19.6763 20.249 20.3111C20.249 20.946 21.6556 21.4606 23.3906 21.4606Z" fill="#292469"/>
</g>
<g id="Group_7">
<path id="Vector_27" d="M43.9155 67.1306C49.1733 67.1306 53.4355 65.571 53.4355 63.6472C53.4355 61.7234 49.1733 60.1638 43.9155 60.1638C38.6578 60.1638 34.3955 61.7234 34.3955 63.6472C34.3955 65.571 38.6578 67.1306 43.9155 67.1306Z" fill="url(#paint18_linear_938_22986)"/>
<path id="Vector_28" d="M53.3142 63.118C49.6466 47.6373 49.4355 34.1659 49.4355 23.7948C49.4355 21.8709 45.1732 20.3113 39.9155 20.3113C34.6578 20.3113 30.3955 21.8709 30.3955 23.7948C30.3955 34.2847 30.6426 48.252 34.4329 63.9564L34.4382 63.9563C34.8664 65.7351 38.943 67.1307 43.9156 67.1307C49.1734 67.1307 53.4356 65.5711 53.4356 63.6472C53.4356 63.4668 53.3865 63.2911 53.3142 63.118Z" fill="url(#paint19_radial_938_22986)"/>
<path id="Vector_29" d="M39.9155 27.2781C45.1733 27.2781 49.4355 25.7185 49.4355 23.7947C49.4355 21.8709 45.1733 20.3113 39.9155 20.3113C34.6578 20.3113 30.3955 21.8709 30.3955 23.7947C30.3955 25.7185 34.6578 27.2781 39.9155 27.2781Z" fill="url(#paint20_linear_938_22986)"/>
<path id="Vector_30" d="M39.916 24.9443C41.6511 24.9443 43.0576 24.4296 43.0576 23.7948C43.0576 23.1599 41.6511 22.6453 39.916 22.6453C38.181 22.6453 36.7744 23.1599 36.7744 23.7948C36.7744 24.4296 38.181 24.9443 39.916 24.9443Z" fill="#292469"/>
</g>
<g id="TOP bonds">
<path id="Vector_31" d="M56.4394 14.4939C55.542 14.4939 54.4394 14.2308 54.4394 14.2308C54.4394 14.2308 54.4394 13.5518 54.4394 13.3447C54.4394 8.3994 49.5517 4 45.6992 4C44.623 4 43.7685 4.3711 43.1596 5.1016C42.3451 6.0801 41.915 7.7256 41.915 9.8614C41.915 10.0666 41.915 10.7475 41.915 10.7475C41.915 10.7475 40.8143 11.0106 39.915 11.0106C38.931 11.0106 37.915 10.7557 37.915 10.7557C37.915 10.7557 37.915 9.982 37.915 9.8615C37.915 6.7345 38.6455 4.2726 40.0859 2.5422C41.4706 0.8789 43.4116 0 45.6992 0C51.4697 0 58.4394 5.9531 58.4394 13.3447V14.2268C58.4394 14.2268 57.3908 14.4939 56.4394 14.4939Z" fill="#454389"/>
<path id="Vector_32" d="M39.9152 17.9773C38.9063 17.9773 37.915 17.7142 37.915 17.7142C37.915 17.7142 37.915 16.9237 37.915 16.8281C37.915 12.2754 32.9961 8.22461 29.1186 8.22461C28.0234 8.22461 27.1621 8.56051 26.5595 9.22361C25.7949 10.0644 25.3906 11.4902 25.3906 13.3447C25.3906 13.5338 25.3906 14.2308 25.3906 14.2308C25.3906 14.2308 24.306 14.4939 23.3906 14.4939C22.5004 14.4939 21.3906 14.2362 21.3906 14.2362C21.3906 14.2362 21.3906 13.559 21.3906 13.3447C21.3906 10.4375 22.1338 8.14551 23.5996 6.53321C24.9726 5.02251 26.8808 4.22461 29.1186 4.22461C34.9145 4.22461 41.915 9.84671 41.915 16.8281C41.915 16.8971 41.915 17.7135 41.915 17.7135C41.915 17.7135 40.9506 17.9773 39.9152 17.9773Z" fill="#454389"/>
<path id="Vector_33" d="M39.915 24.9442C38.8149 24.9442 37.915 24.6811 37.915 24.6811C37.9152 24.4539 37.915 23.9661 37.915 23.7949C37.915 18.6719 39.7988 15.5683 41.3794 13.8672C43.3994 11.6924 46.2065 10.4453 49.0811 10.4453C53.7315 10.4453 58.4395 13.834 58.4395 20.3115C58.4395 20.4135 58.4395 21.1961 58.4395 21.1961C58.4395 21.1961 57.4419 21.4608 56.4395 21.4608C55.4297 21.4608 54.4395 21.1978 54.4395 21.1978C54.4395 21.1978 54.4395 20.4063 54.4395 20.3116C54.4395 16.2598 51.7481 14.4454 49.0811 14.4454C47.3145 14.4454 45.5757 15.2276 44.3101 16.5899C42.7432 18.2764 41.9151 20.7676 41.9151 23.795V24.6812C41.9151 24.6812 41.0729 24.9442 39.915 24.9442Z" fill="#454389"/>
<path id="Vector_34" d="M23.3907 21.4606C22.4835 21.4606 21.3907 21.1975 21.3907 21.1975V20.3113C21.3907 18.3884 19.088 14.9343 15.337 13.6756C12.4859 12.7195 8.13491 12.8397 3.59531 18.8426C2.92931 19.7235 1.67441 19.8973 0.793515 19.2313C-0.0873852 18.5653 -0.261185 17.3114 0.404815 16.4305C4.99901 10.3553 10.9058 7.96861 16.6094 9.88361C21.4517 11.5086 25.3906 16.1863 25.3906 20.3113V21.1916C25.3906 21.1916 24.2881 21.4606 23.3907 21.4606Z" fill="#454389"/>
</g>
</g>
<defs>
<linearGradient id="paint0_linear_938_22986" x1="27.5073" y1="53.1931" x2="44.3237" y2="46.8302" gradientUnits="userSpaceOnUse">
<stop stop-color="#292469"/>
<stop offset="0.1597" stop-color="#53456D"/>
<stop offset="0.3309" stop-color="#786271"/>
<stop offset="0.5024" stop-color="#957974"/>
<stop offset="0.6721" stop-color="#A98976"/>
<stop offset="0.8389" stop-color="#B69378"/>
<stop offset="1" stop-color="#BA9678"/>
</linearGradient>
<radialGradient id="paint1_radial_938_22986" cx="0" cy="0" r="1" gradientUnits="userSpaceOnUse" gradientTransform="translate(51.1568 46.3056) scale(26.1618 68.0259)">
<stop stop-color="#292469"/>
<stop offset="0.4887" stop-color="#BA9678"/>
<stop offset="0.5349" stop-color="#A98876"/>
<stop offset="0.6917" stop-color="#725D71"/>
<stop offset="0.827" stop-color="#4A3E6C"/>
<stop offset="0.9343" stop-color="#322B6A"/>
<stop offset="1" stop-color="#292469"/>
</radialGradient>
<linearGradient id="paint2_linear_938_22986" x1="30.3954" y1="9.86084" x2="49.4355" y2="9.86084" gradientUnits="userSpaceOnUse">
<stop stop-color="#292469"/>
<stop offset="0.1597" stop-color="#53456D"/>
<stop offset="0.3309" stop-color="#786271"/>
<stop offset="0.5024" stop-color="#957974"/>
<stop offset="0.6721" stop-color="#A98976"/>
<stop offset="0.8389" stop-color="#B69378"/>
<stop offset="1" stop-color="#BA9678"/>
</linearGradient>
<linearGradient id="paint3_linear_938_22986" x1="13.3471" y1="57.8674" x2="30.1636" y2="51.5045" gradientUnits="userSpaceOnUse">
<stop stop-color="#292469"/>
<stop offset="0.1597" stop-color="#53456D"/>
<stop offset="0.3309" stop-color="#786271"/>
<stop offset="0.5024" stop-color="#957974"/>
<stop offset="0.6721" stop-color="#A98976"/>
<stop offset="0.8389" stop-color="#B69378"/>
<stop offset="1" stop-color="#BA9678"/>
</linearGradient>
<radialGradient id="paint4_radial_938_22986" cx="0" cy="0" r="1" gradientUnits="userSpaceOnUse" gradientTransform="translate(29.1819 33.4104) scale(18.82 79.4693)">
<stop offset="0.0995" stop-color="#292469"/>
<stop offset="0.1617" stop-color="#53456D"/>
<stop offset="0.2283" stop-color="#786271"/>
<stop offset="0.2951" stop-color="#957974"/>
<stop offset="0.3611" stop-color="#A98976"/>
<stop offset="0.426" stop-color="#B69378"/>
<stop offset="0.4887" stop-color="#BA9678"/>
<stop offset="0.5711" stop-color="#B69378"/>
<stop offset="0.6564" stop-color="#A98976"/>
<stop offset="0.7431" stop-color="#957974"/>
<stop offset="0.8308" stop-color="#786271"/>
<stop offset="0.9184" stop-color="#53456D"/>
<stop offset="1" stop-color="#292469"/>
</radialGradient>
<linearGradient id="paint5_linear_938_22986" x1="13.8701" y1="13.3442" x2="32.9101" y2="13.3442" gradientUnits="userSpaceOnUse">
<stop stop-color="#292469"/>
<stop offset="0.1597" stop-color="#53456D"/>
<stop offset="0.3309" stop-color="#786271"/>
<stop offset="0.5024" stop-color="#957974"/>
<stop offset="0.6721" stop-color="#A98976"/>
<stop offset="0.8389" stop-color="#B69378"/>
<stop offset="1" stop-color="#BA9678"/>
</linearGradient>
<linearGradient id="paint6_linear_938_22986" x1="45.6714" y1="55.3678" x2="62.4878" y2="49.0048" gradientUnits="userSpaceOnUse">
<stop stop-color="#292469"/>
<stop offset="0.1597" stop-color="#53456D"/>
<stop offset="0.3309" stop-color="#786271"/>
<stop offset="0.5024" stop-color="#957974"/>
<stop offset="0.6721" stop-color="#A98976"/>
<stop offset="0.8389" stop-color="#B69378"/>
<stop offset="1" stop-color="#BA9678"/>
</linearGradient>
<radialGradient id="paint7_radial_938_22986" cx="0" cy="0" r="1" gradientUnits="userSpaceOnUse" gradientTransform="translate(63.3949 37.6715) scale(18.7075 60.6347)">
<stop stop-color="#292469"/>
<stop offset="0.4887" stop-color="#BA9678"/>
<stop offset="0.5349" stop-color="#A98876"/>
<stop offset="0.6917" stop-color="#725D71"/>
<stop offset="0.827" stop-color="#4A3E6C"/>
<stop offset="0.9343" stop-color="#322B6A"/>
<stop offset="1" stop-color="#292469"/>
</radialGradient>
<linearGradient id="paint8_linear_938_22986" x1="46.9189" y1="13.3442" x2="65.9589" y2="13.3442" gradientUnits="userSpaceOnUse">
<stop stop-color="#292469"/>
<stop offset="0.1597" stop-color="#53456D"/>
<stop offset="0.3309" stop-color="#786271"/>
<stop offset="0.5024" stop-color="#957974"/>
<stop offset="0.6721" stop-color="#A98976"/>
<stop offset="0.8389" stop-color="#B69378"/>
<stop offset="1" stop-color="#BA9678"/>
</linearGradient>
<linearGradient id="paint9_linear_938_22986" x1="31.5073" y1="60.0094" x2="48.3237" y2="53.6464" gradientUnits="userSpaceOnUse">
<stop stop-color="#292469"/>
<stop offset="0.1597" stop-color="#53456D"/>
<stop offset="0.3309" stop-color="#786271"/>
<stop offset="0.5024" stop-color="#957974"/>
<stop offset="0.6721" stop-color="#A98976"/>
<stop offset="0.8389" stop-color="#B69378"/>
<stop offset="1" stop-color="#BA9678"/>
</linearGradient>
<radialGradient id="paint10_radial_938_22986" cx="0" cy="0" r="1" gradientUnits="userSpaceOnUse" gradientTransform="translate(49.8463 35.7208) scale(20.358 74.4716)">
<stop stop-color="#292469"/>
<stop offset="0.4887" stop-color="#BA9678"/>
<stop offset="0.5349" stop-color="#A98876"/>
<stop offset="0.6917" stop-color="#725D71"/>
<stop offset="0.827" stop-color="#4A3E6C"/>
<stop offset="0.9343" stop-color="#322B6A"/>
<stop offset="1" stop-color="#292469"/>
</radialGradient>
<linearGradient id="paint11_linear_938_22986" x1="30.3954" y1="16.8279" x2="49.4355" y2="16.8279" gradientUnits="userSpaceOnUse">
<stop stop-color="#292469"/>
<stop offset="0.1597" stop-color="#53456D"/>
<stop offset="0.3309" stop-color="#786271"/>
<stop offset="0.5024" stop-color="#957974"/>
<stop offset="0.6721" stop-color="#A98976"/>
<stop offset="0.8389" stop-color="#B69378"/>
<stop offset="1" stop-color="#BA9678"/>
</linearGradient>
<linearGradient id="paint12_linear_938_22986" x1="49.6929" y1="62.1808" x2="66.5093" y2="55.8178" gradientUnits="userSpaceOnUse">
<stop stop-color="#292469"/>
<stop offset="0.1597" stop-color="#53456D"/>
<stop offset="0.3309" stop-color="#786271"/>
<stop offset="0.5024" stop-color="#957974"/>
<stop offset="0.6721" stop-color="#A98976"/>
<stop offset="0.8389" stop-color="#B69378"/>
<stop offset="1" stop-color="#BA9678"/>
</linearGradient>
<radialGradient id="paint13_radial_938_22986" cx="0" cy="0" r="1" gradientTransform="matrix(21.4979 -0.832553 4.57151 118.027 70.0034 39.0461)" gradientUnits="userSpaceOnUse">
<stop stop-color="#292469"/>
<stop offset="0.0958" stop-color="#53456D"/>
<stop offset="0.1985" stop-color="#786271"/>
<stop offset="0.3014" stop-color="#957974"/>
<stop offset="0.4032" stop-color="#A98976"/>
<stop offset="0.5034" stop-color="#B69378"/>
<stop offset="0.6" stop-color="#BA9678"/>
<stop offset="0.6644" stop-color="#B69378"/>
<stop offset="0.7312" stop-color="#A98976"/>
<stop offset="0.799" stop-color="#957974"/>
<stop offset="0.8677" stop-color="#786271"/>
<stop offset="0.9361" stop-color="#53456D"/>
<stop offset="1" stop-color="#292469"/>
</radialGradient>
<linearGradient id="paint14_linear_938_22986" x1="46.9189" y1="20.311" x2="65.9589" y2="20.311" gradientUnits="userSpaceOnUse">
<stop stop-color="#292469"/>
<stop offset="0.1597" stop-color="#53456D"/>
<stop offset="0.3309" stop-color="#786271"/>
<stop offset="0.5024" stop-color="#957974"/>
<stop offset="0.6721" stop-color="#A98976"/>
<stop offset="0.8389" stop-color="#B69378"/>
<stop offset="1" stop-color="#BA9678"/>
</linearGradient>
<linearGradient id="paint15_linear_938_22986" x1="17.3706" y1="64.6949" x2="34.187" y2="58.3319" gradientUnits="userSpaceOnUse">
<stop stop-color="#292469"/>
<stop offset="0.1597" stop-color="#53456D"/>
<stop offset="0.3309" stop-color="#786271"/>
<stop offset="0.5024" stop-color="#957974"/>
<stop offset="0.6721" stop-color="#A98976"/>
<stop offset="0.8389" stop-color="#B69378"/>
<stop offset="1" stop-color="#BA9678"/>
</linearGradient>
<radialGradient id="paint16_radial_938_22986" cx="0" cy="0" r="1" gradientUnits="userSpaceOnUse" gradientTransform="translate(32.3132 27.2756) scale(20.4423 79.7965)">
<stop stop-color="#292469"/>
<stop offset="0.0958" stop-color="#53456D"/>
<stop offset="0.1985" stop-color="#786271"/>
<stop offset="0.3014" stop-color="#957974"/>
<stop offset="0.4032" stop-color="#A98976"/>
<stop offset="0.5034" stop-color="#B69378"/>
<stop offset="0.6" stop-color="#BA9678"/>
<stop offset="0.6644" stop-color="#B69378"/>
<stop offset="0.7312" stop-color="#A98976"/>
<stop offset="0.799" stop-color="#957974"/>
<stop offset="0.8677" stop-color="#786271"/>
<stop offset="0.9361" stop-color="#53456D"/>
<stop offset="1" stop-color="#292469"/>
</radialGradient>
<linearGradient id="paint17_linear_938_22986" x1="13.8701" y1="20.311" x2="32.9101" y2="20.311" gradientUnits="userSpaceOnUse">
<stop stop-color="#292469"/>
<stop offset="0.1597" stop-color="#53456D"/>
<stop offset="0.3309" stop-color="#786271"/>
<stop offset="0.5024" stop-color="#957974"/>
<stop offset="0.6721" stop-color="#A98976"/>
<stop offset="0.8389" stop-color="#B69378"/>
<stop offset="1" stop-color="#BA9678"/>
</linearGradient>
<linearGradient id="paint18_linear_938_22986" x1="35.5073" y1="66.8287" x2="52.3237" y2="60.4657" gradientUnits="userSpaceOnUse">
<stop stop-color="#292469"/>
<stop offset="0.1597" stop-color="#53456D"/>
<stop offset="0.3309" stop-color="#786271"/>
<stop offset="0.5024" stop-color="#957974"/>
<stop offset="0.6721" stop-color="#A98976"/>
<stop offset="0.8389" stop-color="#B69378"/>
<stop offset="1" stop-color="#BA9678"/>
</linearGradient>
<radialGradient id="paint19_radial_938_22986" cx="0" cy="0" r="1" gradientTransform="matrix(24.9521 -1.80123 5.13101 71.0961 54.8697 38.9009)" gradientUnits="userSpaceOnUse">
<stop stop-color="#292469"/>
<stop offset="0.0958" stop-color="#53456D"/>
<stop offset="0.1985" stop-color="#786271"/>
<stop offset="0.3014" stop-color="#957974"/>
<stop offset="0.4032" stop-color="#A98976"/>
<stop offset="0.5034" stop-color="#B69378"/>
<stop offset="0.6" stop-color="#BA9678"/>
<stop offset="0.6644" stop-color="#B69378"/>
<stop offset="0.7312" stop-color="#A98976"/>
<stop offset="0.799" stop-color="#957974"/>
<stop offset="0.8677" stop-color="#786271"/>
<stop offset="0.9361" stop-color="#53456D"/>
<stop offset="1" stop-color="#292469"/>
</radialGradient>
<linearGradient id="paint20_linear_938_22986" x1="30.3954" y1="23.7947" x2="49.4355" y2="23.7947" gradientUnits="userSpaceOnUse">
<stop stop-color="#292469"/>
<stop offset="0.1597" stop-color="#53456D"/>
<stop offset="0.3309" stop-color="#786271"/>
<stop offset="0.5024" stop-color="#957974"/>
<stop offset="0.6721" stop-color="#A98976"/>
<stop offset="0.8389" stop-color="#B69378"/>
<stop offset="1" stop-color="#BA9678"/>
</linearGradient>
</defs>
</svg>
