<svg width="27" height="179" viewBox="0 0 27 179" fill="none" xmlns="http://www.w3.org/2000/svg">
<g id="R-ICO-013066">
<path id="Vector" d="M3.092 178.333C1.3845 178.333 0 176.949 0 175.241V136.785C0 136.278 0.1244 135.78 0.3623 135.333L10.2279 116.789V98.3358C10.2279 97.8291 10.3523 97.3309 10.5902 96.8834L20.8182 77.6594C21.6202 76.1518 23.492 75.5793 25.0002 76.3821C26.5075 77.1841 27.0794 79.0565 26.2775 80.5641L16.4119 99.107V117.56C16.4119 118.067 16.2875 118.565 16.0496 119.013L6.184 137.556V175.241C6.184 176.949 4.7995 178.333 3.092 178.333Z" fill="url(#paint0_linear_938_24335)"/>
<path id="Vector_2" d="M23.5507 102.314C22.4444 102.314 21.3742 101.719 20.8183 100.674L10.5903 81.4495C10.3524 81.0023 10.228 80.5035 10.228 79.9971V61.5443L0.3623 43.0008C0.1244 42.5537 0 42.0548 0 41.5485V3.092C0 1.3844 1.3844 0 3.092 0C4.7996 0 6.184 1.3844 6.184 3.092V40.777L16.0496 59.3204C16.2875 59.7676 16.4119 60.2664 16.4119 60.7728V79.2259L26.2775 97.7693C27.0795 99.2772 26.5076 101.149 25.0002 101.951C24.5374 102.198 24.0404 102.314 23.5507 102.314Z" fill="url(#paint1_linear_938_24335)"/>
</g>
<defs>
<linearGradient id="paint0_linear_938_24335" x1="0" y1="127.176" x2="26.6404" y2="127.176" gradientUnits="userSpaceOnUse">
<stop stop-color="#0F82BC"/>
<stop offset="0.0965" stop-color="#1882BA"/>
<stop offset="0.2533" stop-color="#3081B5"/>
<stop offset="0.4507" stop-color="#577FAD"/>
<stop offset="0.681" stop-color="#8E7DA3"/>
<stop offset="0.9363" stop-color="#D37B95"/>
<stop offset="1" stop-color="#E57A91"/>
</linearGradient>
<linearGradient id="paint1_linear_938_24335" x1="13.3202" y1="0" x2="13.3202" y2="102.314" gradientUnits="userSpaceOnUse">
<stop stop-color="#0F82BC"/>
<stop offset="1" stop-color="#E57A91"/>
</linearGradient>
</defs>
</svg>
