<svg width="70" height="16" viewBox="0 0 70 16" fill="none" xmlns="http://www.w3.org/2000/svg">
<g id="R-ICO-012344">
<g id="Group">
<path id="Vector" d="M60.0001 11.6706C60.0001 11.6706 46.5276 11.6706 40.879 11.6706C38.0546 11.6706 34.1965 11.3232 29.5714 8.00004C34.202 4.67295 38.0525 4.32944 40.8788 4.32944C47.5358 4.32944 60.0001 4.32944 60.0001 4.32944V11.6706Z" fill="url(#paint0_linear_938_25876)"/>
<path id="Vector_2" d="M29.5712 7.99995C24.9406 4.67286 21.0932 4.32935 18.2669 4.32935C11.6099 4.32935 0.32843 4.32935 0.32843 4.32935V11.6707C0.32843 11.6707 12.6181 11.6707 18.2668 11.6707C21.0911 11.6707 24.9462 11.3231 29.5712 7.99995Z" fill="url(#paint1_linear_938_25876)"/>
<path id="Vector_3" d="M60 12H40.8789C37.7629 12 33.9605 11.5566 29.383 8.26734C24.9566 5.08741 21.2799 4.65849 18.267 4.65849H0V4H18.267C21.3842 4 25.1882 4.44339 29.7658 7.73236C34.1921 10.9126 37.8674 11.3415 40.8789 11.3415H60V12Z" fill="url(#paint2_linear_938_25876)"/>
<path id="Vector_4" d="M60 4.65849H40.8787C37.8659 4.65849 34.1891 5.08741 29.7627 8.26734C25.1853 11.5566 21.3827 12 18.2668 12H0V4.0001H0.657174V11.3415H18.2669C21.2785 11.3415 24.9537 10.9126 29.3801 7.73236C33.9577 4.44339 37.7616 4 40.8788 4H60V4.65849Z" fill="url(#paint3_linear_938_25876)"/>
</g>
<path id="Vector_5" d="M60 0L70 8L60 16V0Z" fill="#BA1149"/>
</g>
<defs>
<linearGradient id="paint0_linear_938_25876" x1="29.5714" y1="8.00004" x2="60.0001" y2="8.00004" gradientUnits="userSpaceOnUse">
<stop stop-color="#FF9CBD"/>
<stop offset="1" stop-color="#BA1149"/>
</linearGradient>
<linearGradient id="paint1_linear_938_25876" x1="0.32843" y1="8" x2="29.5712" y2="8" gradientUnits="userSpaceOnUse">
<stop stop-color="#FF9CBD"/>
<stop offset="1" stop-color="#BA1149"/>
</linearGradient>
<linearGradient id="paint2_linear_938_25876" x1="0" y1="8" x2="60" y2="8" gradientUnits="userSpaceOnUse">
<stop stop-color="#FF9CBD"/>
<stop offset="1" stop-color="#BA1149"/>
</linearGradient>
<linearGradient id="paint3_linear_938_25876" x1="0" y1="8" x2="60" y2="8" gradientUnits="userSpaceOnUse">
<stop stop-color="#FF9CBD"/>
<stop offset="1" stop-color="#BA1149"/>
</linearGradient>
</defs>
</svg>
