<svg width="42" height="23" viewBox="0 0 42 23" fill="none" xmlns="http://www.w3.org/2000/svg">
<g id="R-ICO-012948">
<g id="LCK">
<path d="M1.18945 11.3632C1.18945 5.84031 5.66661 1.36316 11.1895 1.36316H30.1895C35.7123 1.36316 40.1895 5.84031 40.1895 11.3632C40.1895 16.886 35.7123 21.3632 30.1895 21.3632H11.1895C5.6666 21.3632 1.18945 16.886 1.18945 11.3632Z" fill="url(#paint0_linear_938_23406)"/>
<path d="M35.1375 4.44185C33.7229 3.38901 31.9841 2.77959 30.1895 2.72155C23.8561 2.53218 17.5228 2.16856 11.1895 1.50316C11.1895 1.4098 11.1895 1.31644 11.1895 1.22307C17.5228 0.557673 23.8561 0.194054 30.1895 0.00468671C32.5364 -0.0651819 34.93 0.648104 36.8762 2.01497C39.8741 4.09568 41.6858 7.75229 41.5786 11.3632C41.5554 12.5404 41.3486 13.712 40.9676 14.8207C39.4803 19.3936 34.7424 22.4844 30.1898 22.129C30.1897 22.129 30.1896 22.129 30.1895 22.129C25.9882 21.8853 21.7865 21.7098 17.5852 21.8161C15.4534 21.8684 13.3214 21.9993 11.1895 22.1418C8.96365 22.2882 6.62854 21.7169 4.69339 20.4445C1.72189 18.5031 -0.115651 14.9113 0.00576329 11.3632C0.0325673 10.2068 0.245303 9.05806 0.632336 7.97691C2.1526 3.51678 6.8934 0.624858 11.1895 1.22307C11.1895 1.31644 11.1895 1.4098 11.1895 1.50316C7.01456 1.97534 3.66393 5.01101 2.6972 8.63874C2.45194 9.52812 2.34552 10.4471 2.37306 11.3632C2.44425 14.1692 3.83975 16.8265 6.05015 18.5509C7.47583 19.6984 9.27354 20.4497 11.1895 20.584C13.3214 20.7261 15.4534 20.8567 17.5852 20.9089C21.7865 21.0152 25.9881 20.8411 30.1895 20.5974C30.1896 20.5974 30.1897 20.5974 30.1898 20.5974C34.1079 20.3674 37.4604 17.5313 38.4604 14.017C38.7119 13.1549 38.8244 12.2585 38.8004 11.3632C38.7433 8.6196 37.3216 6.02687 35.1375 4.44185Z" fill="#FF4900"/>
<text id="LCK_2" fill="white" xml:space="preserve" style="white-space: pre" font-family="Arial" font-size="12" font-weight="bold" letter-spacing="0em"><tspan x="8.34961" y="15.5233">LCK</tspan></text>
</g>
</g>
<defs>
<linearGradient id="paint0_linear_938_23406" x1="20.6895" y1="1.36316" x2="20.6895" y2="21.3632" gradientUnits="userSpaceOnUse">
<stop stop-color="#FF4900"/>
<stop offset="1" stop-color="#A4A500"/>
</linearGradient>
</defs>
</svg>
