<svg width="33" height="172" viewBox="0 0 33 172" fill="none" xmlns="http://www.w3.org/2000/svg">
<g id="R-ICO-013510">
<path id="Vector" d="M28.5 127.003H6.5C4.3 127.003 2.5 128.803 2.5 131.003V168.003C2.5 170.203 4.3 172.003 6.5 172.003H28.5C30.7 172.003 32.5 170.203 32.5 168.003V131.003C32.5 128.803 30.7 127.003 28.5 127.003Z" fill="url(#paint0_linear_938_23068)"/>
<path id="Vector_2" d="M28.5 82.0027H6.5C4.3 82.0027 2.5 83.8027 2.5 86.0027V123.003C2.5 125.203 4.3 127.003 6.5 127.003H28.5C30.7 127.003 32.5 125.203 32.5 123.003V86.0027C32.5 83.8027 30.7 82.0027 28.5 82.0027Z" fill="url(#paint1_linear_938_23068)"/>
<g id="Group">
<path id="Vector_3" d="M28.0693 84.5029C26.6884 84.5029 25.5693 83.3838 25.5693 82.0029V76.2124C23.7661 76.7334 21.8857 77.0024 20 77.0024C8.9722 77.0024 0 68.0302 0 57.0024C0 48.6621 5.1313 41.498 12.4028 38.5014C5.1313 35.5044 0 28.3403 0 20C0 8.9722 8.9722 0 20 0C23.209 0 26.3999 0.7788 29.228 2.252C30.4526 2.8902 30.9277 4.3999 30.29 5.6246C29.6513 6.8487 28.1406 7.3224 26.9174 6.6866C24.77 5.5674 22.4424 5 20 5C11.729 5 5 11.729 5 20C5 28.271 11.729 35 20 35C22.4023 35 24.6943 34.4507 26.8145 33.3667C26.9957 33.2617 27.1924 33.1782 27.4019 33.1201C28.4839 32.8198 29.6353 33.2793 30.2129 34.2431C30.458 34.6508 30.5791 35.1166 30.5693 35.5839V41.4682C30.5693 42.8491 29.4502 43.9682 28.0693 43.9682C27.6674 43.9682 27.2695 43.8715 26.9131 43.686C24.7661 42.5688 22.44 42.0024 20 42.0024C11.729 42.0024 5 48.7314 5 57.0024C5 65.2734 11.729 72.0024 20 72.0024C22.4409 72.0024 24.7676 71.435 26.9165 70.3169C27.6914 69.9136 28.6211 69.9443 29.3677 70.397C30.1148 70.8501 30.5708 71.6607 30.5708 72.5347L30.5693 82.0035C30.5693 83.3838 29.4497 84.5029 28.0693 84.5029Z" fill="url(#paint2_linear_938_23068)"/>
</g>
</g>
<defs>
<linearGradient id="paint0_linear_938_23068" x1="17.5" y1="127.003" x2="17.5" y2="172.003" gradientUnits="userSpaceOnUse">
<stop stop-color="#222164"/>
<stop offset="1" stop-color="#AF5077"/>
</linearGradient>
<linearGradient id="paint1_linear_938_23068" x1="17.5" y1="82.0027" x2="17.5" y2="127.003" gradientUnits="userSpaceOnUse">
<stop stop-color="#222164"/>
<stop offset="1" stop-color="#AF5077"/>
</linearGradient>
<linearGradient id="paint2_linear_938_23068" x1="0" y1="42.2515" x2="30.5733" y2="42.2515" gradientUnits="userSpaceOnUse">
<stop stop-color="#918922"/>
<stop offset="1" stop-color="#491232"/>
</linearGradient>
</defs>
</svg>
