<svg width="45" height="23" viewBox="0 0 45 23" fill="none" xmlns="http://www.w3.org/2000/svg">
<g id="R-ICO-014408">
<g id="AMN">
<path d="M1.1665 11.4094C1.1665 5.88658 5.64366 1.40942 11.1665 1.40942H33.1665C38.6894 1.40942 43.1665 5.88658 43.1665 11.4094C43.1665 16.9323 38.6894 21.4094 33.1665 21.4094H11.1665C5.64366 21.4094 1.1665 16.9323 1.1665 11.4094Z" fill="url(#paint0_linear_938_24026)"/>
<path d="M37.0255 3.82528C35.8455 3.19899 34.521 2.85192 33.1665 2.81616C25.8332 2.64338 18.4999 2.27662 11.1665 1.54943C11.1665 1.45606 11.1665 1.3627 11.1665 1.26933C18.4999 0.542145 25.8332 0.175386 33.1665 0.00260043C34.9541 -0.0371096 36.7649 0.361771 38.3819 1.1658C42.1898 3.02847 44.6706 7.22656 44.5351 11.4094C44.5179 12.3001 44.3966 13.1888 44.1732 14.0491C42.979 19.0149 37.999 22.5473 33.1669 22.1753C33.1668 22.1753 33.1666 22.1753 33.1665 22.1753C28.7152 21.9315 24.2635 21.7561 19.8123 21.8624C16.9305 21.9291 14.0485 22.1238 11.1665 22.3072C9.45814 22.4099 7.69445 22.0974 6.09973 21.3607C2.34824 19.6491 -0.155066 15.5186 0.00768495 11.4094C0.0296375 10.5351 0.156679 9.66411 0.385654 8.82414C1.61977 3.97322 6.60703 0.653247 11.1665 1.26933C11.1665 1.3627 11.1665 1.45606 11.1665 1.54943C6.73561 2.01342 3.22565 5.41497 2.49459 9.3282C2.35854 10.0143 2.303 10.7132 2.32524 11.4094C2.407 14.6722 4.32385 17.707 7.15822 19.2855C8.36059 19.9794 9.73252 20.4129 11.1665 20.5113C14.0485 20.6943 16.9305 20.8885 19.8123 20.9552C24.2636 21.0615 28.7152 20.8874 33.1665 20.6437C33.1666 20.6437 33.1667 20.6437 33.1669 20.6436C37.3249 20.4231 40.8409 17.2347 41.6124 13.437C41.7542 12.771 41.8154 12.0896 41.7979 11.4094C41.7434 8.22006 39.8035 5.25275 37.0255 3.82528Z" fill="#2B7878"/>
<text id="AMN_2" fill="white" xml:space="preserve" style="white-space: pre" font-family="Arial" font-size="12" font-weight="bold" letter-spacing="0em"><tspan x="8.49658" y="15.5696">AMN</tspan></text>
</g>
</g>
<defs>
<linearGradient id="paint0_linear_938_24026" x1="22.1665" y1="1.40942" x2="22.1665" y2="21.4094" gradientUnits="userSpaceOnUse">
<stop stop-color="#2B7878"/>
<stop offset="1" stop-color="#C982E1"/>
</linearGradient>
</defs>
</svg>
