<svg width="103" height="37" viewBox="0 0 103 37" fill="none" xmlns="http://www.w3.org/2000/svg">
<g id="R-ICO-013637">
<g id="RNA SPLICING PROTEIN">
<path d="M1.05957 11.5C1.05957 5.97715 5.53672 1.5 11.0596 1.5H91.0596C96.5824 1.5 101.06 5.97715 101.06 11.5V25.5C101.06 31.0228 96.5824 35.5 91.0596 35.5H11.0596C5.53673 35.5 1.05957 31.0228 1.05957 25.5V11.5Z" fill="url(#paint0_linear_938_23734)"/>
<path d="M73.7677 2.99266C52.8649 2.87443 31.9623 2.52283 11.0596 1.64001C11.0596 1.54664 11.0596 1.45328 11.0596 1.35991C31.9623 0.477089 52.8649 0.125486 73.7677 0.00726104C79.5315 -0.0135719 85.2955 0.0127332 91.0596 0.0567596C96.4909 -0.00602257 101.485 4.33121 102.225 9.64712C102.322 10.2602 102.367 10.8806 102.362 11.5C102.32 16.1667 102.255 20.8333 102.171 25.5C102.214 31.4319 96.788 36.552 91.0605 36.2659C91.0602 36.2659 91.0599 36.2658 91.0596 36.2658C80.6085 36.0221 70.1564 35.8466 59.7055 35.953C49.2541 36.056 38.8019 36.4645 28.3505 36.6648C22.5869 36.7546 16.8232 36.7679 11.0596 36.7358C5.72512 36.8091 0.819171 32.5273 0.12358 27.3161C0.0326341 26.7147 -0.00796366 26.1066 0.000977516 25.5C0.0767143 20.8334 0.179299 16.1667 0.316439 11.5C0.3386 5.75574 5.66821 0.951492 11.0596 1.35991C11.0596 1.45328 11.0596 1.54664 11.0596 1.64001C5.79794 1.78933 1.52138 6.59077 1.80256 11.5C1.93969 16.1667 2.04227 20.8334 2.11806 25.5C2.12695 25.9928 2.17535 26.4821 2.26301 26.9632C2.95526 31.128 6.91086 34.3713 11.0596 34.2643C16.8232 34.2322 22.5868 34.2455 28.3505 34.3353C38.8019 34.5356 49.2541 34.9428 59.7055 35.0457C70.1566 35.1521 80.6083 34.978 91.0596 34.7342C91.0598 34.7342 91.0601 34.7342 91.0604 34.7342C95.9856 34.7061 100.164 30.2207 99.9477 25.5C99.864 20.8333 99.799 16.1667 99.757 11.5C99.7521 11.0206 99.7087 10.5442 99.6271 10.0754C98.9804 6.01464 95.1121 2.82557 91.0596 2.94325C85.2955 2.98732 79.5315 3.01364 73.7677 2.99266Z" fill="#0052AF"/>
<text id="RNA SPLICING PROTEIN_2" fill="white" xml:space="preserve" style="white-space: pre" font-family="Arial" font-size="12" font-weight="bold" letter-spacing="0em"><tspan x="8.25098" y="15.6602">RNA SPLICING&#10;</tspan><tspan x="24.376" y="29.6602">PROTEIN</tspan></text>
</g>
</g>
<defs>
<linearGradient id="paint0_linear_938_23734" x1="51.0596" y1="1.5" x2="51.0596" y2="35.5" gradientUnits="userSpaceOnUse">
<stop stop-color="#A68510"/>
<stop offset="1" stop-color="#06A2B2"/>
</linearGradient>
</defs>
</svg>
