<svg width="17" height="89" viewBox="0 0 17 89" fill="none" xmlns="http://www.w3.org/2000/svg">
<g id="R-ICO-014869">
<g id="R-ICO-014810">
<path id="DNA damaged base 2" d="M6.50766 87.8699L6.52836 87.8935C6.98266 88.4125 7.79006 88.4124 8.24416 87.8933L9.50526 86.4518C10.1164 85.7534 10.6388 84.446 10.8813 83.1427L16.2432 48.9296L10.4794 3.74063C10.4794 1.67463 9.46786 -0.000167847 8.22006 -0.000167847H2.25966C1.01196 -0.000167847 0.000364304 1.67473 0.000364304 3.74083L5.76286 48.9294L-0.000236511 83.3726C-0.000236511 84.6023 0.364664 85.7534 0.975964 86.4518L2.22136 87.8747C2.67556 88.3937 3.48306 88.3936 3.93716 87.8745L3.94076 87.8703C4.64656 87.0634 5.80166 87.0633 6.50766 87.8699Z" fill="#00331E"/>
</g>
</g>
</svg>
