<svg width="15" height="111" viewBox="0 0 15 111" fill="none" xmlns="http://www.w3.org/2000/svg">
<g id="R-ICO-013013">
<path id="MICA" d="M8.989 109.597C4.175 107.915 1.0001 104.414 9.5766 96.081C14.8353 90.9708 13.5067 86.0981 9.6678 85.0098C0.4147 82.3865 1.02 80.9397 1.0192 71.2743V64.6049C1.0192 54.8327 10.3389 60.4202 10.3396 52.367C10.3396 49.8751 8.2494 47.6973 5.6699 47.6973C3.0904 47.6973 1.0002 45.6071 1.0002 43.0276C1.0002 40.4481 3.0904 38.3578 5.6699 38.3579C8.2494 38.358 10.3397 36.2677 10.3396 33.6882C10.3396 31.1087 8.2494 29.0185 5.6699 29.0185C3.0904 29.0185 1.0002 26.9283 1.0002 24.3488C1.0002 21.7693 3.0904 19.679 5.6699 19.6791C8.2494 19.6791 10.3397 17.5889 10.3396 15.0094C10.3396 12.4299 8.2494 10.3397 5.6699 10.3397C4.4749 10.3397 3.2792 9.88364 2.3677 8.97214C0.5441 7.14854 0.5441 4.19144 2.3677 2.36774C4.1913 0.544038 7.1484 0.544137 8.9721 2.36774C9.8843 3.27994 10.3396 4.47494 10.3397 5.66994" stroke="url(#paint0_linear_938_24331)" stroke-width="2" stroke-miterlimit="10" stroke-linecap="round" stroke-linejoin="round"/>
</g>
<defs>
<linearGradient id="paint0_linear_938_24331" x1="-0.00609996" y1="55.291" x2="14.0435" y2="55.291" gradientUnits="userSpaceOnUse">
<stop stop-color="#FF74B9"/>
<stop offset="1" stop-color="#250000"/>
</linearGradient>
</defs>
</svg>
