<svg width="52" height="23" viewBox="0 0 52 23" fill="none" xmlns="http://www.w3.org/2000/svg">
<g id="R-ICO-014401">
<g id="MTRR">
<path d="M1.11475 11.4783C1.11475 5.95542 5.5919 1.47827 11.1147 1.47827H40.1147C45.6376 1.47827 50.1147 5.95542 50.1147 11.4783C50.1147 17.0011 45.6376 21.4783 40.1147 21.4783H11.1147C5.5919 21.4783 1.11475 17.0011 1.11475 11.4783Z" fill="url(#paint0_linear_938_24021)"/>
<path d="M41.1427 3.03225C40.8025 2.98662 40.4607 2.96112 40.1147 2.9556C30.4481 2.82372 20.7814 2.46578 11.1147 1.61828C11.1147 1.52491 11.1147 1.43155 11.1147 1.33818C20.7814 0.490675 30.4481 0.132736 40.1147 0.000859261C40.5777 -0.00460362 41.0383 0.0176082 41.4991 0.0682031C47.1281 0.60343 51.6666 5.94142 51.4429 11.4783C51.439 11.7076 51.4284 11.9334 51.4109 12.1611C51.1057 17.9661 45.6092 22.6651 40.1152 22.2441C40.1151 22.2441 40.1149 22.2441 40.1147 22.2441C35.0801 22.0004 30.0451 21.8249 25.0106 21.9312C20.3788 22.026 15.7466 22.3793 11.1147 22.5913C10.6661 22.6097 10.2182 22.6005 9.76908 22.5627C4.27883 22.1784 -0.270908 16.9134 0.0123166 11.4783C0.018297 11.2536 0.0309525 11.0325 0.0503982 10.8097C0.414885 5.12133 5.93132 0.670044 11.1147 1.33818C11.1147 1.43155 11.1147 1.52491 11.1147 1.61828C6.07734 2.05867 2.24292 6.41512 2.2149 10.9387C2.21037 11.1189 2.21115 11.2973 2.21709 11.4783C2.30113 15.835 5.80048 19.6433 10.0472 20.2498C10.3993 20.3083 10.7542 20.3469 11.1147 20.3653C15.7466 20.5771 20.3787 20.9293 25.0106 21.024C30.0451 21.1303 35.0801 20.9562 40.1147 20.7125C40.1149 20.7125 40.115 20.7125 40.1151 20.7125C44.8417 20.5185 48.6947 16.4108 48.7827 12.0044C48.7893 11.8288 48.7905 11.6549 48.7866 11.4783C48.7622 7.22296 45.2507 3.48752 41.1427 3.03225Z" fill="#7588FF"/>
<text id="MTRR_2" fill="white" xml:space="preserve" style="white-space: pre" font-family="Arial" font-size="12" font-weight="bold" letter-spacing="0em"><tspan x="8.27686" y="15.6384">MTRR</tspan></text>
</g>
</g>
<defs>
<linearGradient id="paint0_linear_938_24021" x1="25.6147" y1="1.47827" x2="25.6147" y2="21.4783" gradientUnits="userSpaceOnUse">
<stop stop-color="#7588FF"/>
<stop offset="1" stop-color="#4D0000"/>
</linearGradient>
</defs>
</svg>
