<svg width="187" height="150" viewBox="0 0 187 150" fill="none" xmlns="http://www.w3.org/2000/svg">
<g id="R-ICO-013996">
<g id="R-ICO-013989" opacity="0.5">
<g id="Group">
<path id="Vector" d="M34.7525 63.8517C50.8235 63.8517 63.8517 50.8235 63.8517 34.7525C63.8517 18.6815 50.8235 5.65332 34.7525 5.65332C18.6815 5.65332 5.65332 18.6815 5.65332 34.7525C5.65332 50.8235 18.6815 63.8517 34.7525 63.8517Z" fill="#0C6DA8"/>
<path id="Vector_2" d="M34.7528 68.5057C16.1417 68.5057 1 53.3641 1 34.7528C1 16.1416 16.1417 1 34.7528 1C53.364 1 68.5056 16.1417 68.5056 34.7528C68.5056 53.364 53.3641 68.5057 34.7528 68.5057ZM34.7528 10.3076C21.2739 10.3076 10.3075 21.2739 10.3075 34.7529C10.3075 48.2325 21.2738 59.1982 34.7528 59.1982C48.2318 59.1982 59.1981 48.2324 59.1981 34.7528C59.1981 21.2739 48.2318 10.3076 34.7528 10.3076Z" fill="#2D95C9" stroke="#0A4B6B" stroke-width="2" stroke-miterlimit="10"/>
</g>
<g id="Group_2">
<path id="Vector_3" d="M110.074 70.1416C131.761 70.1416 149.342 61.3608 149.342 50.5293C149.342 39.6977 131.761 30.917 110.074 30.917C88.387 30.917 70.8062 39.6977 70.8062 50.5293C70.8062 61.3608 88.387 70.1416 110.074 70.1416Z" fill="#0C6DA8"/>
<path id="Vector_4" d="M110.074 74.7957C85.0348 74.7957 66.1528 64.3637 66.1528 50.5296C66.1528 36.6954 85.0348 26.2634 110.074 26.2634C135.113 26.2634 153.996 36.6954 153.996 50.5296C153.996 64.3637 135.113 74.7957 110.074 74.7957ZM110.074 35.571C90.2632 35.571 75.4604 43.4684 75.4604 50.5296C75.4604 57.5907 90.2632 65.4881 110.074 65.4881C129.885 65.4881 144.688 57.5907 144.688 50.5296C144.688 43.4684 129.885 35.571 110.074 35.571Z" fill="#2D95C9" stroke="#0A4B6B" stroke-width="2" stroke-miterlimit="10"/>
</g>
<g id="Group_3">
<path id="Vector_5" d="M145.983 144.006C165.462 144.006 181.253 128.215 181.253 108.736C181.253 89.2566 165.462 73.4656 145.983 73.4656C126.504 73.4656 110.713 89.2566 110.713 108.736C110.713 128.215 126.504 144.006 145.983 144.006Z" fill="#0C6DA8"/>
<path id="Vector_6" d="M106.059 108.735C106.059 86.722 123.969 68.812 145.983 68.812C167.998 68.812 185.908 86.722 185.908 108.735C185.908 130.75 167.998 148.66 145.983 148.66C123.969 148.66 106.059 130.75 106.059 108.735ZM115.367 108.735C115.367 125.617 129.101 139.352 145.983 139.352C162.865 139.352 176.6 125.617 176.6 108.735C176.6 91.8537 162.865 78.1196 145.983 78.1196C129.101 78.1196 115.367 91.8537 115.367 108.735Z" fill="#2D95C9" stroke="#0A4B6B" stroke-width="2" stroke-miterlimit="10"/>
</g>
<g id="Group_4">
<path id="Vector_7" d="M61.8315 125.987C83.5186 125.987 101.099 113.815 101.099 98.799C101.099 83.7834 83.5186 71.6108 61.8315 71.6108C40.1443 71.6108 22.5635 83.7834 22.5635 98.799C22.5635 113.815 40.1443 125.987 61.8315 125.987Z" fill="#0C6DA8"/>
<path id="Vector_8" d="M17.9097 98.7995C17.9097 81.2414 37.6129 66.9568 61.8316 66.9568C86.0496 66.9568 105.753 81.2414 105.753 98.7995C105.753 116.356 86.0497 130.641 61.8316 130.641C37.613 130.641 17.9097 116.356 17.9097 98.7995ZM27.2172 98.7995C27.2172 111.014 43.0685 121.334 61.8317 121.334C80.5941 121.334 96.4454 111.014 96.4454 98.7995C96.4454 86.5847 80.5941 76.2643 61.8317 76.2643C43.0685 76.2643 27.2172 86.5847 27.2172 98.7995Z" fill="#2D95C9" stroke="#0A4B6B" stroke-width="2" stroke-miterlimit="10"/>
</g>
</g>
<g id="R-ICO-013994">
<g id="PROTEIN">
<path d="M76.8428 88.376H100.843C106.366 88.376 110.843 92.8531 110.843 98.376C110.843 103.899 106.366 108.376 100.843 108.376H76.8428V88.376Z" fill="url(#paint0_linear_938_25741)"/>
<path d="M75.3501 89.2301C75.3542 88.9454 75.3585 88.6607 75.3631 88.376C75.3379 87.5394 76.0062 86.9216 76.8428 86.8963C84.8428 87.0263 92.8428 87.3835 100.843 88.236C100.843 88.3293 100.843 88.4227 100.843 88.5161C92.8428 89.3685 84.8428 89.7257 76.8428 89.8557L78.3225 88.376C78.3271 88.6607 78.3314 88.9454 78.3355 89.2301C78.3733 93.3725 78.2561 97.5151 78.1593 101.658C78.1151 103.897 78.0363 106.136 77.9307 108.376L76.8428 107.288C78.7455 107.378 80.6482 107.487 82.551 107.61C86.6934 107.854 90.8361 108.029 94.9784 107.923C96.9331 107.874 98.888 107.758 100.843 107.627C102.876 107.485 104.771 106.644 106.233 105.377C108.3 103.64 109.585 101.075 109.653 98.376C109.682 97.4083 109.561 96.4379 109.285 95.5016C108.269 91.9433 104.957 88.9899 100.843 88.5161C100.843 88.4227 100.843 88.3293 100.843 88.236C105.077 87.6415 109.758 90.4376 111.338 94.803C111.768 95.939 112.005 97.1529 112.032 98.376C112.144 101.792 110.447 105.253 107.656 107.221C105.658 108.638 103.19 109.281 100.843 109.126C98.888 108.995 96.9332 108.879 94.9784 108.83C90.8361 108.724 86.6934 108.898 82.551 109.142C80.6483 109.265 78.7455 109.374 76.8428 109.464C76.2276 109.482 75.7734 108.991 75.7548 108.376C75.6493 106.136 75.5705 103.897 75.5264 101.658C75.4296 97.5151 75.3121 93.3725 75.3501 89.2301Z" fill="#AE37F2"/>
</g>
<g id="PROTEIN_2">
<path d="M65.3428 47.251H89.3428C94.8656 47.251 99.3428 51.7281 99.3428 57.251C99.3428 62.7738 94.8656 67.251 89.3428 67.251H65.3428V47.251Z" fill="url(#paint1_linear_938_25741)"/>
<path d="M63.8501 48.1051C63.8542 47.8204 63.8585 47.5357 63.8631 47.251C63.8379 46.4144 64.5062 45.7966 65.3428 45.7713C73.3428 45.9013 81.3428 46.2585 89.3428 47.111C89.3428 47.2043 89.3428 47.2977 89.3428 47.3911C81.3428 48.2435 73.3428 48.6007 65.3428 48.7307L66.8225 47.251C66.8271 47.5357 66.8314 47.8204 66.8355 48.1051C66.8733 52.2475 66.7561 56.3901 66.6593 60.5325C66.6151 62.772 66.5363 65.0115 66.4307 67.251L65.3428 66.163C67.2455 66.2527 69.1482 66.3617 71.051 66.4851C75.1934 66.7288 79.3361 66.9043 83.4784 66.798C85.4331 66.7494 87.388 66.6328 89.3428 66.5021C91.3762 66.3602 93.2712 65.519 94.7333 64.2518C96.8 62.5154 98.0853 59.9501 98.1533 57.251C98.1817 56.2833 98.0611 55.3129 97.7854 54.3766C96.769 50.8183 93.4573 47.8649 89.3428 47.3911C89.3428 47.2977 89.3428 47.2043 89.3428 47.111C93.5767 46.5165 98.2582 49.3126 99.8381 53.678C100.268 54.814 100.505 56.0279 100.532 57.251C100.644 60.6671 98.9474 64.1283 96.1561 66.0964C94.1578 67.5126 91.6899 68.1562 89.3428 68.0005C87.388 67.8702 85.4332 67.7538 83.4784 67.7052C79.3361 67.5989 75.1934 67.773 71.051 68.0168C69.1483 68.1403 67.2455 68.2493 65.3428 68.3389C64.7276 68.3575 64.2734 67.8661 64.2548 67.251C64.1493 65.0115 64.0705 62.772 64.0264 60.5325C63.9296 56.3901 63.8121 52.2475 63.8501 48.1051Z" fill="#AE37F2"/>
</g>
<g id="PROTEIN_3">
<path d="M35.6704 101.289C35.6704 95.766 40.1476 91.2888 45.6704 91.2888H69.6704V111.289H45.6704C40.1476 111.289 35.6704 106.812 35.6704 101.289Z" fill="url(#paint2_linear_938_25741)"/>
<path d="M68.1778 92.1429C68.1818 91.8582 68.1862 91.5735 68.1908 91.2888L69.6704 92.7684C61.6704 92.6385 53.6704 92.2813 45.6704 91.4288C45.6704 91.3355 45.6704 91.2421 45.6704 91.1487C53.6704 90.2962 61.6704 89.9391 69.6704 89.8091C70.5071 89.8344 71.1754 90.4521 71.1501 91.2888C71.1547 91.5735 71.1591 91.8582 71.1632 92.1429C71.2009 96.2853 71.0837 100.428 70.9869 104.57C70.9427 106.81 70.8639 109.049 70.7584 111.289C70.7398 111.904 70.2856 112.395 69.6704 112.377C67.7677 112.287 65.8649 112.178 63.9622 112.055C59.8198 111.811 55.6771 111.635 51.5348 111.742C49.58 111.79 47.6252 111.907 45.6704 112.038C43.3235 112.194 40.8553 111.551 38.8571 110.134C36.0657 108.166 34.3687 104.705 34.4809 101.289C34.5086 100.066 34.7446 98.8519 35.175 97.7158C36.7548 93.3503 41.4365 90.5543 45.6704 91.1487C45.6704 91.2421 45.6704 91.3355 45.6704 91.4288C41.5559 91.9026 38.244 94.8561 37.2277 98.4144C36.952 99.3508 36.8314 100.321 36.8598 101.289C36.9279 103.988 38.2131 106.553 40.2798 108.29C41.742 109.557 43.6372 110.398 45.6704 110.539C47.6252 110.67 49.58 110.786 51.5348 110.835C55.6771 110.941 59.8197 110.767 63.9622 110.523C65.8649 110.4 67.7677 110.291 69.6704 110.201L68.5825 111.289C68.4769 109.049 68.3982 106.81 68.354 104.57C68.2572 100.428 68.1397 96.2853 68.1778 92.1429Z" fill="#DF8528"/>
</g>
<g id="PROTEIN_4">
<path d="M19.6475 24.4114H43.6475C49.1703 24.4114 53.6475 28.8885 53.6475 34.4114C53.6475 39.9342 49.1703 44.4114 43.6475 44.4114H19.6475V24.4114Z" fill="url(#paint3_linear_938_25741)"/>
<path d="M18.1548 25.2655C18.1589 24.9808 18.1632 24.6961 18.1678 24.4114C18.1426 23.5748 18.8108 22.957 19.6475 22.9317C27.6475 23.0617 35.6474 23.4189 43.6475 24.2714C43.6475 24.3647 43.6475 24.4581 43.6475 24.5515C35.6474 25.4039 27.6475 25.7611 19.6475 25.8911L21.1272 24.4114C21.1318 24.6961 21.1361 24.9808 21.1402 25.2655C21.178 29.4079 21.0608 33.5505 20.9639 37.6929C20.9198 39.9324 20.841 42.1719 20.7354 44.4114L19.6475 43.3234C21.5502 43.4131 23.4529 43.5221 25.3557 43.6455C29.4981 43.8892 33.6408 44.0647 37.7831 43.9584C39.7378 43.9098 41.6926 43.7932 43.6475 43.6625C45.6809 43.5206 47.5759 42.6794 49.038 41.4122C51.1047 39.6758 52.3899 37.1105 52.458 34.4114C52.4864 33.4437 52.3658 32.4733 52.0901 31.537C51.0737 27.9787 47.762 25.0253 43.6475 24.5515C43.6475 24.4581 43.6475 24.3647 43.6475 24.2714C47.8814 23.6769 52.5629 26.4731 54.1428 30.8384C54.5731 31.9744 54.8092 33.1883 54.8369 34.4114C54.9491 37.8275 53.2521 41.2887 50.4608 43.2568C48.4625 44.673 45.9946 45.3166 43.6475 45.1609C41.6926 45.0306 39.7378 44.9142 37.7831 44.8656C33.6408 44.7593 29.4981 44.9334 25.3557 45.1772C23.453 45.3007 21.5502 45.4097 19.6475 45.4993C19.0323 45.5179 18.5781 45.0265 18.5595 44.4114C18.454 42.1719 18.3752 39.9324 18.3311 37.6929C18.2342 33.5505 18.1167 29.4079 18.1548 25.2655Z" fill="#C3378F"/>
</g>
<g id="PROTEIN_5">
<path d="M129.11 101.298H153.11C158.633 101.298 163.11 105.775 163.11 111.298C163.11 116.821 158.633 121.298 153.11 121.298H129.11V101.298Z" fill="url(#paint4_linear_938_25741)"/>
<path d="M127.618 102.152C127.622 101.867 127.626 101.583 127.631 101.298C127.605 100.461 128.274 99.8435 129.11 99.8182C137.11 99.9482 145.11 100.305 153.11 101.158C153.11 101.251 153.11 101.345 153.11 101.438C145.11 102.29 137.11 102.648 129.11 102.778L130.59 101.298C130.595 101.583 130.599 101.867 130.603 102.152C130.641 106.294 130.524 110.437 130.427 114.579C130.383 116.819 130.304 119.058 130.198 121.298L129.11 120.21C131.013 120.3 132.916 120.409 134.819 120.532C138.961 120.776 143.104 120.951 147.246 120.845C149.201 120.796 151.156 120.68 153.11 120.549C155.144 120.407 157.039 119.566 158.501 118.299C160.568 116.562 161.853 113.997 161.921 111.298C161.949 110.33 161.829 109.36 161.553 108.424C160.537 104.865 157.225 101.912 153.11 101.438C153.11 101.345 153.11 101.251 153.11 101.158C157.344 100.563 162.026 103.36 163.606 107.725C164.036 108.861 164.272 110.075 164.3 111.298C164.412 114.714 162.715 118.175 159.924 120.143C157.925 121.559 155.457 122.203 153.11 122.047C151.156 121.917 149.201 121.801 147.246 121.752C143.104 121.646 138.961 121.82 134.819 122.064C132.916 122.187 131.013 122.296 129.11 122.386C128.495 122.404 128.041 121.913 128.022 121.298C127.917 119.058 127.838 116.819 127.794 114.579C127.697 110.437 127.58 106.294 127.618 102.152Z" fill="#758407"/>
</g>
<g id="PROTEIN_6">
<path d="M109.841 40.0586H133.841C139.364 40.0586 143.841 44.5357 143.841 50.0586C143.841 55.5814 139.364 60.0586 133.841 60.0586H109.841V40.0586Z" fill="url(#paint5_linear_938_25741)"/>
<path d="M108.349 40.9127C108.353 40.628 108.357 40.3433 108.362 40.0586C108.336 39.222 109.005 38.6042 109.841 38.579C117.841 38.709 125.841 39.0661 133.841 39.9186C133.841 40.012 133.841 40.1053 133.841 40.1987C125.841 41.0512 117.841 41.4083 109.841 41.5383L111.321 40.0586C111.326 40.3433 111.33 40.628 111.334 40.9127C111.372 45.0551 111.255 49.1977 111.158 53.3401C111.114 55.5796 111.035 57.8191 110.929 60.0586L109.841 58.9706C111.744 59.0603 113.647 59.1693 115.55 59.2927C119.692 59.5365 123.835 59.712 127.977 59.6056C129.932 59.557 131.886 59.4404 133.841 59.3097C135.875 59.1678 137.77 58.3266 139.232 57.0594C141.299 55.323 142.584 52.7577 142.652 50.0586C142.68 49.0909 142.56 48.1206 142.284 47.1843C141.268 43.6259 137.956 40.6725 133.841 40.1987C133.841 40.1053 133.841 40.012 133.841 39.9186C138.075 39.3241 142.757 42.1203 144.337 46.4856C144.767 47.6216 145.003 48.8355 145.031 50.0586C145.143 53.4747 143.446 56.9359 140.655 58.904C138.656 60.3202 136.188 60.9638 133.841 60.8081C131.886 60.6778 129.932 60.5614 127.977 60.5129C123.835 60.4065 119.692 60.5806 115.55 60.8244C113.647 60.9479 111.744 61.0569 109.841 61.1465C109.226 61.1651 108.772 60.6737 108.753 60.0586C108.648 57.8191 108.569 55.5796 108.525 53.3401C108.428 49.1978 108.311 45.0551 108.349 40.9127Z" fill="#758407"/>
</g>
</g>
</g>
<defs>
<linearGradient id="paint0_linear_938_25741" x1="93.8428" y1="88.376" x2="93.8428" y2="108.376" gradientUnits="userSpaceOnUse">
<stop stop-color="#1FB4D9"/>
<stop offset="1" stop-color="#AE37F2"/>
</linearGradient>
<linearGradient id="paint1_linear_938_25741" x1="82.3428" y1="47.251" x2="82.3428" y2="67.251" gradientUnits="userSpaceOnUse">
<stop stop-color="#1FB4D9"/>
<stop offset="1" stop-color="#AE37F2"/>
</linearGradient>
<linearGradient id="paint2_linear_938_25741" x1="52.6704" y1="91.2888" x2="52.6704" y2="111.289" gradientUnits="userSpaceOnUse">
<stop stop-color="#67EBA1"/>
<stop offset="1" stop-color="#DF8528"/>
</linearGradient>
<linearGradient id="paint3_linear_938_25741" x1="36.6475" y1="24.4114" x2="36.6475" y2="44.4114" gradientUnits="userSpaceOnUse">
<stop stop-color="#F8EB75"/>
<stop offset="1" stop-color="#C3378F"/>
</linearGradient>
<linearGradient id="paint4_linear_938_25741" x1="146.11" y1="101.298" x2="146.11" y2="121.298" gradientUnits="userSpaceOnUse">
<stop stop-color="#ED6DB0"/>
<stop offset="1" stop-color="#758407"/>
</linearGradient>
<linearGradient id="paint5_linear_938_25741" x1="126.841" y1="40.0586" x2="126.841" y2="60.0586" gradientUnits="userSpaceOnUse">
<stop stop-color="#ED6DB0"/>
<stop offset="1" stop-color="#758407"/>
</linearGradient>
</defs>
</svg>
