<svg width="58" height="23" viewBox="0 0 58 23" fill="none" xmlns="http://www.w3.org/2000/svg">
<g id="R-ICO-012463">
<g id="BAZ2A">
<path d="M1.0625 11.5021C1.0625 5.97928 5.53965 1.50213 11.0625 1.50213H46.0625C51.5853 1.50213 56.0625 5.97928 56.0625 11.5021C56.0625 17.025 51.5853 21.5021 46.0625 21.5021H11.0625C5.53965 21.5021 1.0625 17.025 1.0625 11.5021Z" fill="url(#paint0_linear_938_23194)"/>
<path d="M44.2709 2.99478C33.2014 2.87656 22.132 2.52496 11.0625 1.64213C11.0625 1.54877 11.0625 1.4554 11.0625 1.36204C22.132 0.479218 33.2014 0.127614 44.2709 0.00938964C44.8681 0.00531363 45.4653 0.00304198 46.0625 0.00235462C51.8404 -0.123729 57.0458 4.83548 57.3343 10.4908C57.3598 10.8277 57.3698 11.1638 57.3647 11.5021C57.4202 17.551 51.7894 22.6924 46.063 22.268C46.0628 22.268 46.0627 22.268 46.0625 22.268C40.5279 22.0243 34.9928 21.8488 29.4583 21.9551C23.9236 22.0581 18.3884 22.4666 12.8537 22.667C12.2566 22.6845 11.6596 22.6992 11.0625 22.7111C5.42443 22.9413 0.240281 18.045 0.0220811 12.4934C0.00120401 12.1629 -0.00450373 11.8335 0.0046494 11.5021C0.0153732 5.57463 5.66208 0.702575 11.0625 1.36204C11.0625 1.4554 11.0625 1.54877 11.0625 1.64213C5.80993 2.04243 1.85029 6.77637 2.12025 11.5021C2.12945 11.7713 2.15 12.0369 2.18193 12.3018C2.65229 16.7366 6.68717 20.2765 11.0625 20.2932C11.6596 20.3052 12.2566 20.3198 12.8537 20.3374C18.3884 20.5377 23.9236 20.9449 29.4583 21.0479C34.9929 21.1542 40.5278 20.9801 46.0625 20.7364C46.0626 20.7364 46.0628 20.7364 46.0629 20.7364C50.9895 20.5703 54.9639 16.1061 54.7603 11.5021C54.7552 11.2402 54.739 10.9817 54.7117 10.7234C54.3123 6.39211 50.2981 2.91448 46.0625 3.00189C45.4653 3.00119 44.8681 2.99889 44.2709 2.99478Z" fill="#E36600"/>
<text id="BAZ2A_2" fill="white" xml:space="preserve" style="white-space: pre" font-family="Arial" font-size="12" font-weight="bold" letter-spacing="0em"><tspan x="8.54688" y="15.6623">BAZ2A</tspan></text>
</g>
</g>
<defs>
<linearGradient id="paint0_linear_938_23194" x1="28.5625" y1="1.50213" x2="28.5625" y2="21.5021" gradientUnits="userSpaceOnUse">
<stop stop-color="#E36600"/>
<stop offset="1" stop-color="#75FF50"/>
</linearGradient>
</defs>
</svg>
