<svg width="46" height="46" viewBox="0 0 46 46" fill="none" xmlns="http://www.w3.org/2000/svg">
<g id="R-ICO-012567">
<path id="Vector" d="M22.553 45.106C35.0087 45.106 45.106 35.0087 45.106 22.553C45.106 10.0973 35.0087 0 22.553 0C10.0973 0 0 10.0973 0 22.553C0 35.0087 10.0973 45.106 22.553 45.106Z" fill="url(#paint0_radial_938_25284)"/>
<path id="Vector_2" d="M30.3162 42.7372C32.6536 42.7372 34.5484 40.8424 34.5484 38.505C34.5484 36.1676 32.6536 34.2728 30.3162 34.2728C27.9788 34.2728 26.084 36.1676 26.084 38.505C26.084 40.8424 27.9788 42.7372 30.3162 42.7372Z" fill="url(#paint1_radial_938_25284)"/>
<path id="Vector_3" d="M23.7849 44.46C26.1223 44.46 28.0171 42.5652 28.0171 40.2278C28.0171 37.8904 26.1223 35.9956 23.7849 35.9956C21.4476 35.9956 19.5527 37.8904 19.5527 40.2278C19.5527 42.5652 21.4476 44.46 23.7849 44.46Z" fill="url(#paint2_radial_938_25284)"/>
<path id="Vector_4" d="M17.6472 43.687C19.9846 43.687 21.8794 41.7922 21.8794 39.4548C21.8794 37.1174 19.9846 35.2226 17.6472 35.2226C15.3099 35.2226 13.415 37.1174 13.415 39.4548C13.415 41.7922 15.3099 43.687 17.6472 43.687Z" fill="url(#paint3_radial_938_25284)"/>
<path id="Vector_5" d="M12.8201 41.25C15.1575 41.25 17.0523 39.3552 17.0523 37.0178C17.0523 34.6804 15.1575 32.7856 12.8201 32.7856C10.4827 32.7856 8.58789 34.6804 8.58789 37.0178C8.58789 39.3552 10.4827 41.25 12.8201 41.25Z" fill="url(#paint4_radial_938_25284)"/>
<path id="Vector_6" d="M9.22536 38.0585C11.5627 38.0585 13.4576 36.1637 13.4576 33.8263C13.4576 31.4889 11.5627 29.5941 9.22536 29.5941C6.88798 29.5941 4.99316 31.4889 4.99316 33.8263C4.99316 36.1637 6.88798 38.0585 9.22536 38.0585Z" fill="url(#paint5_radial_938_25284)"/>
<path id="Vector_7" d="M6.27126 33.456C8.60864 33.456 10.5035 31.5612 10.5035 29.2238C10.5035 26.8864 8.60864 24.9916 6.27126 24.9916C3.93388 24.9916 2.03906 26.8864 2.03906 29.2238C2.03906 31.5612 3.93388 33.456 6.27126 33.456Z" fill="url(#paint6_radial_938_25284)"/>
<path id="Vector_8" d="M4.99294 26.7852C7.33032 26.7852 9.22514 24.8904 9.22514 22.553C9.22514 20.2156 7.33032 18.3208 4.99294 18.3208C2.65556 18.3208 0.760742 20.2156 0.760742 22.553C0.760742 24.8904 2.65556 26.7852 4.99294 26.7852Z" fill="url(#paint7_radial_938_25284)"/>
<path id="Vector_9" d="M6.27126 20.397C8.60864 20.397 10.5035 18.5022 10.5035 16.1648C10.5035 13.8274 8.60864 11.9326 6.27126 11.9326C3.93388 11.9326 2.03906 13.8274 2.03906 16.1648C2.03906 18.5022 3.93388 20.397 6.27126 20.397Z" fill="url(#paint8_radial_938_25284)"/>
<path id="Vector_10" d="M9.85622 14.7016C12.1936 14.7016 14.0884 12.8068 14.0884 10.4694C14.0884 8.13203 12.1936 6.23721 9.85622 6.23721C7.51884 6.23721 5.62402 8.13203 5.62402 10.4694C5.62402 12.8068 7.51884 14.7016 9.85622 14.7016Z" fill="url(#paint9_radial_938_25284)"/>
<path id="Vector_11" d="M14.0886 11.1199C16.426 11.1199 18.3208 9.22507 18.3208 6.88769C18.3208 4.55031 16.426 2.65549 14.0886 2.65549C11.7513 2.65549 9.85645 4.55031 9.85645 6.88769C9.85645 9.22507 11.7513 11.1199 14.0886 11.1199Z" fill="url(#paint10_radial_938_25284)"/>
<path id="Vector_12" d="M19.7849 9.11049C22.1223 9.11049 24.0171 7.21567 24.0171 4.87829C24.0171 2.54091 22.1223 0.646088 19.7849 0.646088C17.4476 0.646088 15.5527 2.54091 15.5527 4.87829C15.5527 7.21567 17.4476 9.11049 19.7849 9.11049Z" fill="url(#paint11_radial_938_25284)"/>
<path id="Vector_13" d="M25.5535 9.42039C27.8909 9.42039 29.7857 7.52557 29.7857 5.18819C29.7857 2.85081 27.8909 0.955994 25.5535 0.955994C23.2161 0.955994 21.3213 2.85081 21.3213 5.18819C21.3213 7.52557 23.2161 9.42039 25.5535 9.42039Z" fill="url(#paint12_radial_938_25284)"/>
<path id="Vector_14" d="M31.1629 11.576C33.5002 11.576 35.3951 9.68118 35.3951 7.3438C35.3951 5.00642 33.5002 3.1116 31.1629 3.1116C28.8255 3.1116 26.9307 5.00642 26.9307 7.3438C26.9307 9.68118 28.8255 11.576 31.1629 11.576Z" fill="url(#paint13_radial_938_25284)"/>
<path id="Vector_15" d="M35.9959 15.352C38.3333 15.352 40.2281 13.4572 40.2281 11.1198C40.2281 8.78242 38.3333 6.8876 35.9959 6.8876C33.6585 6.8876 31.7637 8.78242 31.7637 11.1198C31.7637 13.4572 33.6585 15.352 35.9959 15.352Z" fill="url(#paint14_radial_938_25284)"/>
<path id="Vector_16" d="M39.114 20.7849C41.4514 20.7849 43.3462 18.8901 43.3462 16.5527C43.3462 14.2153 41.4514 12.3205 39.114 12.3205C36.7767 12.3205 34.8818 14.2153 34.8818 16.5527C34.8818 18.8901 36.7767 20.7849 39.114 20.7849Z" fill="url(#paint15_radial_938_25284)"/>
<path id="Vector_17" d="M40.2273 26.7852C42.5647 26.7852 44.4595 24.8904 44.4595 22.553C44.4595 20.2156 42.5647 18.3208 40.2273 18.3208C37.8899 18.3208 35.9951 20.2156 35.9951 22.553C35.9951 24.8904 37.8899 26.7852 40.2273 26.7852Z" fill="url(#paint16_radial_938_25284)"/>
<path id="Vector_18" d="M39.114 32.7856C41.4514 32.7856 43.3462 30.8908 43.3462 28.5534C43.3462 26.216 41.4514 24.3212 39.114 24.3212C36.7767 24.3212 34.8818 26.216 34.8818 28.5534C34.8818 30.8908 36.7767 32.7856 39.114 32.7856Z" fill="url(#paint17_radial_938_25284)"/>
<path id="Vector_19" d="M35.3953 39.0007C37.7327 39.0007 39.6275 37.1059 39.6275 34.7685C39.6275 32.4311 37.7327 30.5363 35.3953 30.5363C33.0579 30.5363 31.1631 32.4311 31.1631 34.7685C31.1631 37.1059 33.0579 39.0007 35.3953 39.0007Z" fill="url(#paint18_radial_938_25284)"/>
<path id="Vector_20" d="M28.0174 37.6882C30.3547 37.6882 32.2496 35.7934 32.2496 33.456C32.2496 31.1186 30.3547 29.2238 28.0174 29.2238C25.68 29.2238 23.7852 31.1186 23.7852 33.456C23.7852 35.7934 25.68 37.6882 28.0174 37.6882Z" fill="url(#paint19_radial_938_25284)"/>
<path id="Vector_21" d="M21.8797 39.0007C24.217 39.0007 26.1119 37.1059 26.1119 34.7685C26.1119 32.4311 24.217 30.5363 21.8797 30.5363C19.5423 30.5363 17.6475 32.4311 17.6475 34.7685C17.6475 37.1059 19.5423 39.0007 21.8797 39.0007Z" fill="url(#paint20_radial_938_25284)"/>
<path id="Vector_22" d="M15.5808 38.0585C17.9182 38.0585 19.813 36.1637 19.813 33.8263C19.813 31.4889 17.9182 29.5941 15.5808 29.5941C13.2435 29.5941 11.3486 31.4889 11.3486 33.8263C11.3486 36.1637 13.2435 38.0585 15.5808 38.0585Z" fill="url(#paint21_radial_938_25284)"/>
<path id="Vector_23" d="M11.9744 32.4158C14.3118 32.4158 16.2066 30.521 16.2066 28.1836C16.2066 25.8462 14.3118 23.9514 11.9744 23.9514C9.63701 23.9514 7.74219 25.8462 7.74219 28.1836C7.74219 30.521 9.63701 32.4158 11.9744 32.4158Z" fill="url(#paint22_radial_938_25284)"/>
<path id="Vector_24" d="M9.22536 26.7852C11.5627 26.7852 13.4576 24.8904 13.4576 22.553C13.4576 20.2156 11.5627 18.3208 9.22536 18.3208C6.88798 18.3208 4.99316 20.2156 4.99316 22.553C4.99316 24.8904 6.88798 26.7852 9.22536 26.7852Z" fill="url(#paint23_radial_938_25284)"/>
<path id="Vector_25" d="M11.9744 20.7849C14.3118 20.7849 16.2066 18.8901 16.2066 16.5527C16.2066 14.2153 14.3118 12.3205 11.9744 12.3205C9.63701 12.3205 7.74219 14.2153 7.74219 16.5527C7.74219 18.8901 9.63701 20.7849 11.9744 20.7849Z" fill="url(#paint24_radial_938_25284)"/>
<path id="Vector_26" d="M16.7234 15.8082C19.0608 15.8082 20.9556 13.9134 20.9556 11.576C20.9556 9.23863 19.0608 7.34381 16.7234 7.34381C14.386 7.34381 12.4912 9.23863 12.4912 11.576C12.4912 13.9134 14.386 15.8082 16.7234 15.8082Z" fill="url(#paint25_radial_938_25284)"/>
<path id="Vector_27" d="M23.3797 14.3606C25.717 14.3606 27.6119 12.4658 27.6119 10.1284C27.6119 7.79103 25.717 5.89621 23.3797 5.89621C21.0423 5.89621 19.1475 7.79103 19.1475 10.1284C19.1475 12.4658 21.0423 14.3606 23.3797 14.3606Z" fill="url(#paint26_radial_938_25284)"/>
<path id="Vector_28" d="M30.3162 16.1648C32.6536 16.1648 34.5484 14.27 34.5484 11.9326C34.5484 9.59523 32.6536 7.70041 30.3162 7.70041C27.9788 7.70041 26.084 9.59523 26.084 11.9326C26.084 14.27 27.9788 16.1648 30.3162 16.1648Z" fill="url(#paint27_radial_938_25284)"/>
<path id="Vector_29" d="M33.7859 21.2921C36.1233 21.2921 38.0181 19.3973 38.0181 17.0599C38.0181 14.7225 36.1233 12.8277 33.7859 12.8277C31.4485 12.8277 29.5537 14.7225 29.5537 17.0599C29.5537 19.3973 31.4485 21.2921 33.7859 21.2921Z" fill="url(#paint28_radial_938_25284)"/>
<path id="Vector_30" d="M35.3953 27.7897C37.7327 27.7897 39.6275 25.8949 39.6275 23.5575C39.6275 21.2201 37.7327 19.3253 35.3953 19.3253C33.0579 19.3253 31.1631 21.2201 31.1631 23.5575C31.1631 25.8949 33.0579 27.7897 35.3953 27.7897Z" fill="url(#paint29_radial_938_25284)"/>
<path id="Vector_31" d="M32.5535 33.456C34.8909 33.456 36.7857 31.5612 36.7857 29.2238C36.7857 26.8864 34.8909 24.9916 32.5535 24.9916C30.2161 24.9916 28.3213 26.8864 28.3213 29.2238C28.3213 31.5612 30.2161 33.456 32.5535 33.456Z" fill="url(#paint30_radial_938_25284)"/>
<path id="Vector_32" d="M25.5535 32.7856C27.8909 32.7856 29.7857 30.8908 29.7857 28.5534C29.7857 26.216 27.8909 24.3212 25.5535 24.3212C23.2161 24.3212 21.3213 26.216 21.3213 28.5534C21.3213 30.8908 23.2161 32.7856 25.5535 32.7856Z" fill="url(#paint31_radial_938_25284)"/>
<path id="Vector_33" d="M18.5525 32.7856C20.8899 32.7856 22.7847 30.8908 22.7847 28.5534C22.7847 26.216 20.8899 24.3212 18.5525 24.3212C16.2151 24.3212 14.3203 26.216 14.3203 28.5534C14.3203 30.8908 16.2151 32.7856 18.5525 32.7856Z" fill="url(#paint32_radial_938_25284)"/>
<path id="Vector_34" d="M15.5525 26.7852C17.8899 26.7852 19.7847 24.8904 19.7847 22.553C19.7847 20.2156 17.8899 18.3208 15.5525 18.3208C13.2151 18.3208 11.3203 20.2156 11.3203 22.553C11.3203 24.8904 13.2151 26.7852 15.5525 26.7852Z" fill="url(#paint33_radial_938_25284)"/>
<path id="Vector_35" d="M19.5525 20.7849C21.8899 20.7849 23.7847 18.8901 23.7847 16.5527C23.7847 14.2153 21.8899 12.3205 19.5525 12.3205C17.2151 12.3205 15.3203 14.2153 15.3203 16.5527C15.3203 18.8901 17.2151 20.7849 19.5525 20.7849Z" fill="url(#paint34_radial_938_25284)"/>
<path id="Vector_36" d="M26.5535 20.7849C28.8909 20.7849 30.7857 18.8901 30.7857 16.5527C30.7857 14.2153 28.8909 12.3205 26.5535 12.3205C24.2161 12.3205 22.3213 14.2153 22.3213 16.5527C22.3213 18.8901 24.2161 20.7849 26.5535 20.7849Z" fill="url(#paint35_radial_938_25284)"/>
<path id="Vector_37" d="M29.5535 26.7852C31.8909 26.7852 33.7857 24.8904 33.7857 22.553C33.7857 20.2156 31.8909 18.3208 29.5535 18.3208C27.2161 18.3208 25.3213 20.2156 25.3213 22.553C25.3213 24.8904 27.2161 26.7852 29.5535 26.7852Z" fill="url(#paint36_radial_938_25284)"/>
<path id="Vector_38" d="M22.5535 26.7852C24.8909 26.7852 26.7857 24.8904 26.7857 22.553C26.7857 20.2156 24.8909 18.3208 22.5535 18.3208C20.2161 18.3208 18.3213 20.2156 18.3213 22.553C18.3213 24.8904 20.2161 26.7852 22.5535 26.7852Z" fill="url(#paint37_radial_938_25284)"/>
<path id="Vector_39" opacity="0.3" d="M22.553 45.106C35.0087 45.106 45.106 35.0087 45.106 22.553C45.106 10.0973 35.0087 0 22.553 0C10.0973 0 0 10.0973 0 22.553C0 35.0087 10.0973 45.106 22.553 45.106Z" fill="#EEFF9C"/>
</g>
<defs>
<radialGradient id="paint0_radial_938_25284" cx="0" cy="0" r="1" gradientUnits="userSpaceOnUse" gradientTransform="translate(18.3909 12.8414) scale(22.553)">
<stop stop-color="#FFFF9A"/>
<stop offset="1" stop-color="#D9A435"/>
</radialGradient>
<radialGradient id="paint1_radial_938_25284" cx="0" cy="0" r="1" gradientUnits="userSpaceOnUse" gradientTransform="translate(29.5352 36.6826) scale(4.2322)">
<stop stop-color="#FFFF9A"/>
<stop offset="1" stop-color="#D9A435"/>
</radialGradient>
<radialGradient id="paint2_radial_938_25284" cx="0" cy="0" r="1" gradientUnits="userSpaceOnUse" gradientTransform="translate(23.0039 38.4053) scale(4.2322 4.2322)">
<stop stop-color="#FFFF9A"/>
<stop offset="1" stop-color="#D9A435"/>
</radialGradient>
<radialGradient id="paint3_radial_938_25284" cx="0" cy="0" r="1" gradientUnits="userSpaceOnUse" gradientTransform="translate(16.8662 37.6324) scale(4.2322)">
<stop stop-color="#FFFF9A"/>
<stop offset="1" stop-color="#D9A435"/>
</radialGradient>
<radialGradient id="paint4_radial_938_25284" cx="0" cy="0" r="1" gradientUnits="userSpaceOnUse" gradientTransform="translate(12.039 35.1953) scale(4.2322)">
<stop stop-color="#FFFF9A"/>
<stop offset="1" stop-color="#D9A435"/>
</radialGradient>
<radialGradient id="paint5_radial_938_25284" cx="0" cy="0" r="1" gradientUnits="userSpaceOnUse" gradientTransform="translate(8.44426 32.0038) scale(4.2322)">
<stop stop-color="#FFFF9A"/>
<stop offset="1" stop-color="#D9A435"/>
</radialGradient>
<radialGradient id="paint6_radial_938_25284" cx="0" cy="0" r="1" gradientUnits="userSpaceOnUse" gradientTransform="translate(5.49026 27.4014) scale(4.2322)">
<stop stop-color="#FFFF9A"/>
<stop offset="1" stop-color="#D9A435"/>
</radialGradient>
<radialGradient id="paint7_radial_938_25284" cx="0" cy="0" r="1" gradientUnits="userSpaceOnUse" gradientTransform="translate(4.21184 20.7306) scale(4.2322)">
<stop stop-color="#FFFF9A"/>
<stop offset="1" stop-color="#D9A435"/>
</radialGradient>
<radialGradient id="paint8_radial_938_25284" cx="0" cy="0" r="1" gradientUnits="userSpaceOnUse" gradientTransform="translate(5.49026 14.3424) scale(4.2322)">
<stop stop-color="#FFFF9A"/>
<stop offset="1" stop-color="#D9A435"/>
</radialGradient>
<radialGradient id="paint9_radial_938_25284" cx="0" cy="0" r="1" gradientUnits="userSpaceOnUse" gradientTransform="translate(9.07512 8.64691) scale(4.2322)">
<stop stop-color="#FFFF9A"/>
<stop offset="1" stop-color="#D9A435"/>
</radialGradient>
<radialGradient id="paint10_radial_938_25284" cx="0" cy="0" r="1" gradientUnits="userSpaceOnUse" gradientTransform="translate(13.3076 5.06519) scale(4.2322)">
<stop stop-color="#FFFF9A"/>
<stop offset="1" stop-color="#D9A435"/>
</radialGradient>
<radialGradient id="paint11_radial_938_25284" cx="0" cy="0" r="1" gradientUnits="userSpaceOnUse" gradientTransform="translate(19.0038 3.05579) scale(4.2322)">
<stop stop-color="#FFFF9A"/>
<stop offset="1" stop-color="#D9A435"/>
</radialGradient>
<radialGradient id="paint12_radial_938_25284" cx="0" cy="0" r="1" gradientUnits="userSpaceOnUse" gradientTransform="translate(24.7725 3.36579) scale(4.2322)">
<stop stop-color="#FFFF9A"/>
<stop offset="1" stop-color="#D9A435"/>
</radialGradient>
<radialGradient id="paint13_radial_938_25284" cx="0" cy="0" r="1" gradientUnits="userSpaceOnUse" gradientTransform="translate(30.3819 5.5214) scale(4.2322 4.2322)">
<stop stop-color="#FFFF9A"/>
<stop offset="1" stop-color="#D9A435"/>
</radialGradient>
<radialGradient id="paint14_radial_938_25284" cx="0" cy="0" r="1" gradientUnits="userSpaceOnUse" gradientTransform="translate(35.2148 9.2974) scale(4.2322)">
<stop stop-color="#FFFF9A"/>
<stop offset="1" stop-color="#D9A435"/>
</radialGradient>
<radialGradient id="paint15_radial_938_25284" cx="0" cy="0" r="1" gradientUnits="userSpaceOnUse" gradientTransform="translate(38.3329 14.7302) scale(4.2322 4.2322)">
<stop stop-color="#FFFF9A"/>
<stop offset="1" stop-color="#D9A435"/>
</radialGradient>
<radialGradient id="paint16_radial_938_25284" cx="0" cy="0" r="1" gradientUnits="userSpaceOnUse" gradientTransform="translate(39.4462 20.7306) scale(4.2322)">
<stop stop-color="#FFFF9A"/>
<stop offset="1" stop-color="#D9A435"/>
</radialGradient>
<radialGradient id="paint17_radial_938_25284" cx="0" cy="0" r="1" gradientUnits="userSpaceOnUse" gradientTransform="translate(38.3329 26.731) scale(4.2322)">
<stop stop-color="#FFFF9A"/>
<stop offset="1" stop-color="#D9A435"/>
</radialGradient>
<radialGradient id="paint18_radial_938_25284" cx="0" cy="0" r="1" gradientUnits="userSpaceOnUse" gradientTransform="translate(34.6143 32.946) scale(4.2322)">
<stop stop-color="#FFFF9A"/>
<stop offset="1" stop-color="#D9A435"/>
</radialGradient>
<radialGradient id="paint19_radial_938_25284" cx="0" cy="0" r="1" gradientUnits="userSpaceOnUse" gradientTransform="translate(27.2364 31.6336) scale(4.2322)">
<stop stop-color="#FFFF9A"/>
<stop offset="1" stop-color="#D9A435"/>
</radialGradient>
<radialGradient id="paint20_radial_938_25284" cx="0" cy="0" r="1" gradientUnits="userSpaceOnUse" gradientTransform="translate(21.0987 32.946) scale(4.2322)">
<stop stop-color="#FFFF9A"/>
<stop offset="1" stop-color="#D9A435"/>
</radialGradient>
<radialGradient id="paint21_radial_938_25284" cx="0" cy="0" r="1" gradientUnits="userSpaceOnUse" gradientTransform="translate(14.7998 32.0038) scale(4.2322 4.2322)">
<stop stop-color="#FFFF9A"/>
<stop offset="1" stop-color="#D9A435"/>
</radialGradient>
<radialGradient id="paint22_radial_938_25284" cx="0" cy="0" r="1" gradientUnits="userSpaceOnUse" gradientTransform="translate(11.1934 26.3612) scale(4.2322)">
<stop stop-color="#FFFF9A"/>
<stop offset="1" stop-color="#D9A435"/>
</radialGradient>
<radialGradient id="paint23_radial_938_25284" cx="0" cy="0" r="1" gradientUnits="userSpaceOnUse" gradientTransform="translate(8.44426 20.7306) scale(4.2322)">
<stop stop-color="#FFFF9A"/>
<stop offset="1" stop-color="#D9A435"/>
</radialGradient>
<radialGradient id="paint24_radial_938_25284" cx="0" cy="0" r="1" gradientUnits="userSpaceOnUse" gradientTransform="translate(11.1934 14.7302) scale(4.2322)">
<stop stop-color="#FFFF9A"/>
<stop offset="1" stop-color="#D9A435"/>
</radialGradient>
<radialGradient id="paint25_radial_938_25284" cx="0" cy="0" r="1" gradientUnits="userSpaceOnUse" gradientTransform="translate(15.9423 9.75351) scale(4.2322)">
<stop stop-color="#FFFF9A"/>
<stop offset="1" stop-color="#D9A435"/>
</radialGradient>
<radialGradient id="paint26_radial_938_25284" cx="0" cy="0" r="1" gradientUnits="userSpaceOnUse" gradientTransform="translate(22.5987 8.30591) scale(4.2322)">
<stop stop-color="#FFFF9A"/>
<stop offset="1" stop-color="#D9A435"/>
</radialGradient>
<radialGradient id="paint27_radial_938_25284" cx="0" cy="0" r="1" gradientUnits="userSpaceOnUse" gradientTransform="translate(29.5352 10.1102) scale(4.2322)">
<stop stop-color="#FFFF9A"/>
<stop offset="1" stop-color="#D9A435"/>
</radialGradient>
<radialGradient id="paint28_radial_938_25284" cx="0" cy="0" r="1" gradientUnits="userSpaceOnUse" gradientTransform="translate(33.0048 15.2375) scale(4.2322)">
<stop stop-color="#FFFF9A"/>
<stop offset="1" stop-color="#D9A435"/>
</radialGradient>
<radialGradient id="paint29_radial_938_25284" cx="0" cy="0" r="1" gradientUnits="userSpaceOnUse" gradientTransform="translate(34.6143 21.735) scale(4.2322)">
<stop stop-color="#FFFF9A"/>
<stop offset="1" stop-color="#D9A435"/>
</radialGradient>
<radialGradient id="paint30_radial_938_25284" cx="0" cy="0" r="1" gradientUnits="userSpaceOnUse" gradientTransform="translate(31.7724 27.4014) scale(4.2322)">
<stop stop-color="#FFFF9A"/>
<stop offset="1" stop-color="#D9A435"/>
</radialGradient>
<radialGradient id="paint31_radial_938_25284" cx="0" cy="0" r="1" gradientUnits="userSpaceOnUse" gradientTransform="translate(24.7725 26.731) scale(4.2322)">
<stop stop-color="#FFFF9A"/>
<stop offset="1" stop-color="#D9A435"/>
</radialGradient>
<radialGradient id="paint32_radial_938_25284" cx="0" cy="0" r="1" gradientUnits="userSpaceOnUse" gradientTransform="translate(17.7714 26.731) scale(4.2322)">
<stop stop-color="#FFFF9A"/>
<stop offset="1" stop-color="#D9A435"/>
</radialGradient>
<radialGradient id="paint33_radial_938_25284" cx="0" cy="0" r="1" gradientUnits="userSpaceOnUse" gradientTransform="translate(14.7714 20.7306) scale(4.2322)">
<stop stop-color="#FFFF9A"/>
<stop offset="1" stop-color="#D9A435"/>
</radialGradient>
<radialGradient id="paint34_radial_938_25284" cx="0" cy="0" r="1" gradientUnits="userSpaceOnUse" gradientTransform="translate(18.7715 14.7302) scale(4.2322)">
<stop stop-color="#FFFF9A"/>
<stop offset="1" stop-color="#D9A435"/>
</radialGradient>
<radialGradient id="paint35_radial_938_25284" cx="0" cy="0" r="1" gradientUnits="userSpaceOnUse" gradientTransform="translate(25.7724 14.7302) scale(4.2322)">
<stop stop-color="#FFFF9A"/>
<stop offset="1" stop-color="#D9A435"/>
</radialGradient>
<radialGradient id="paint36_radial_938_25284" cx="0" cy="0" r="1" gradientUnits="userSpaceOnUse" gradientTransform="translate(28.7724 20.7306) scale(4.2322)">
<stop stop-color="#FFFF9A"/>
<stop offset="1" stop-color="#D9A435"/>
</radialGradient>
<radialGradient id="paint37_radial_938_25284" cx="0" cy="0" r="1" gradientUnits="userSpaceOnUse" gradientTransform="translate(21.7725 20.7306) scale(4.2322)">
<stop stop-color="#FFFF9A"/>
<stop offset="1" stop-color="#D9A435"/>
</radialGradient>
</defs>
</svg>
