<svg width="38" height="23" viewBox="0 0 38 23" fill="none" xmlns="http://www.w3.org/2000/svg">
<g id="R-ICO-014678">
<g id="IVD">
<path d="M1.21875 11.2764C1.21875 5.75352 5.6959 1.27637 11.2188 1.27637H26.2188C31.7416 1.27637 36.2188 5.75352 36.2188 11.2764C36.2188 16.7992 31.7416 21.2764 26.2188 21.2764H11.2187C5.6959 21.2764 1.21875 16.7992 1.21875 11.2764Z" fill="url(#paint0_linear_938_24141)"/>
<path d="M32.4438 5.47775C30.8881 3.73654 28.6173 2.64601 26.2188 2.54282C21.2188 2.33563 16.2188 1.98696 11.2188 1.41637C11.2188 1.32301 11.2188 1.22964 11.2188 1.13628C16.2188 0.565695 21.2188 0.217016 26.2188 0.00982881C29.3024 -0.124513 32.4655 1.1586 34.6278 3.44235C36.6153 5.52004 37.712 8.42403 37.6379 11.2764C37.6079 12.8351 37.2492 14.3873 36.5975 15.7933C34.8029 19.8258 30.4019 22.3788 26.2191 22.0422C26.219 22.0422 26.2189 22.0422 26.2188 22.0422C22.3508 21.7985 18.4824 21.623 14.6145 21.7293C13.4826 21.7595 12.3507 21.8158 11.2187 21.8854C8.32502 22.0747 5.23561 21.0423 3.04934 18.8866C1.05695 16.9245 -0.0692234 14.0792 0.00340569 11.2764C0.0316428 9.74502 0.395132 8.22095 1.05282 6.85258C2.87215 2.92929 7.2711 0.558451 11.2188 1.13628C11.2188 1.22964 11.2188 1.32301 11.2188 1.41637C7.38229 1.8977 4.25852 4.4855 3.04067 7.71869C2.60308 8.85841 2.4032 10.0715 2.43401 11.2764C2.48406 13.4816 3.32054 15.6109 4.75359 17.2983C6.28528 19.1677 8.63036 20.5086 11.2187 20.6664C12.3507 20.7358 13.4826 20.792 14.6145 20.8221C18.4825 20.9284 22.3507 20.7543 26.2188 20.5106C26.2189 20.5106 26.219 20.5106 26.2191 20.5106C29.8201 20.27 32.9409 17.8649 34.1838 14.7415C34.6275 13.6393 34.8322 12.4541 34.7997 11.2764C34.7481 9.12031 33.8818 7.04964 32.4438 5.47775Z" fill="#E55681"/>
<text id="IVD_2" fill="white" xml:space="preserve" style="white-space: pre" font-family="Arial" font-size="12" font-weight="bold" letter-spacing="0em"><tspan x="8.71094" y="15.4365">IVD</tspan></text>
</g>
</g>
<defs>
<linearGradient id="paint0_linear_938_24141" x1="18.7188" y1="1.27637" x2="18.7188" y2="21.2764" gradientUnits="userSpaceOnUse">
<stop stop-color="#40887F"/>
<stop offset="1" stop-color="#E55681"/>
</linearGradient>
</defs>
</svg>
