<svg width="61" height="125" viewBox="0 0 61 125" fill="none" xmlns="http://www.w3.org/2000/svg">
<g id="R-ICO-013683">
<g id="R-ICO-013688">
<path id="path5779_1_" d="M14.41 96.0425C16.4681 96.0431 18.1369 94.575 18.1376 92.7635C18.1376 92.7629 18.1376 92.7621 18.1376 92.7614V23.2151C18.1018 21.4033 16.4039 19.9602 14.3456 19.9917C12.3378 20.0226 10.7187 21.4478 10.6836 23.2151V92.7614C10.6829 94.5729 12.352 96.0419 14.41 96.0425C14.4105 96.0425 14.4098 96.0425 14.41 96.0425Z" fill="url(#paint0_linear_938_22998)"/>
<path id="path5781_1_" d="M1.00533e-07 92.7614C-0.000929877 85.7559 6.45033 80.076 14.4093 80.0752C22.3683 80.0744 28.8212 85.7528 28.8221 92.7584V92.7614C28.8221 99.4132 25.47 110.047 25.47 115.069C25.5937 120.444 20.7436 124.889 14.6374 124.998C8.53092 125.107 3.48044 120.838 3.35676 115.463C3.35373 115.332 3.35373 115.2 3.35676 115.069C3.35211 110.047 1.00533e-07 99.4132 1.00533e-07 92.7614Z" fill="url(#paint1_radial_938_22998)"/>
<path id="path5783_1_" d="M30.0042 0.000400653C29.0786 -0.00860365 28.1593 0.134237 27.2933 0.421557C10.7457 5.668 5.96191 11.4666 5.96191 26.2764C5.96191 42.0943 10.9685 46.3869 27.0452 52.0494C27.9247 52.3606 28.5513 52.4216 29.4992 52.422C30.0128 52.4216 30.2032 52.4347 30.6617 52.3807C32.391 51.5996 21.0159 53.3718 28.3339 46.8441C34.09 40.0391 21.012 44.3908 29.1184 39.4826C29.5666 39.3236 29.8919 39.198 30.3034 39.0498C20.9941 35.7017 20.8702 34.8812 20.8702 26.2764C20.8702 17.7055 21.626 16.3119 30.3122 13.4348C29.6484 13.215 29.0461 13.0073 28.2853 12.7661C27.0678 12.3967 25.9797 11.7559 25.1271 10.9063L33.8338 7.60372C25.3394 6.10839 28.3121 3.11773 28.3121 3.11773C31.6002 2.06525 29.0126 1.20759 27.1824 0.786231C28.1505 0.329262 29.2216 0.0662959 30.3187 0.0161582C30.2141 0.00899573 30.109 0.00367495 30.0042 0.000400653Z" fill="url(#paint2_radial_938_22998)"/>
</g>
<g id="R-ICO-013684">
<path id="Vector" d="M45.6882 96.0101C43.622 96.0107 41.9466 94.541 41.9459 92.7274C41.9459 92.7268 41.9459 92.7282 41.9459 92.7274V23.1008C41.9097 21.287 43.5558 19.7909 45.6222 19.7593C47.6886 19.7275 49.3932 21.1723 49.4292 22.9861C49.4299 23.0244 49.4299 23.0625 49.4292 23.1008V92.7254C49.4299 94.5389 47.7544 96.0095 45.6882 96.0101C45.6887 96.0101 45.688 96.0101 45.6882 96.0101Z" fill="url(#paint3_linear_938_22998)"/>
<path id="Vector_2" d="M30.2502 0.00248282C29.0444 0.016824 28.1718 0.271072 27.1103 0.773421C28.9477 1.19526 31.5424 2.05409 28.2412 3.10775C28.2412 3.10775 25.2411 6.10156 33.7691 7.59878L25.0527 10.905C26.4334 12.5092 29.4743 13.1793 30.2436 13.4364C38.6181 16.236 39.2014 17.7062 39.2014 26.1656C39.2014 35.1405 39.6229 35.7765 29.0486 39.5135C20.9101 44.4272 34.0422 40.0708 28.2633 46.8833C20.9236 53.4663 32.283 51.6455 30.5938 52.4261C31.4186 52.3905 32.2309 52.2348 32.9975 51.9656C49.1381 46.2965 54.1642 41.9974 54.1642 26.1615C54.1642 11.3381 49.36 5.53366 32.7528 0.28152C31.8831 -0.00612198 31.1794 -0.00653161 30.2502 0.00248282Z" fill="url(#paint4_radial_938_22998)"/>
<path id="Vector_3" d="M31.126 92.7254C31.125 85.712 37.6018 80.0257 45.5923 80.0249C53.5828 80.0241 60.0612 85.7089 60.0621 92.7223V92.7254C60.0621 99.3846 56.6968 110.03 56.6968 115.058C56.8209 120.439 51.9517 124.889 45.8213 124.998C39.6907 125.107 34.6202 120.833 34.496 115.452C34.493 115.321 34.493 115.189 34.496 115.058C34.4913 110.03 31.126 99.3848 31.126 92.7254Z" fill="url(#paint5_radial_938_22998)"/>
</g>
</g>
<defs>
<linearGradient id="paint0_linear_938_22998" x1="10.6552" y1="58.0081" x2="35.5843" y2="58.0081" gradientUnits="userSpaceOnUse">
<stop stop-color="#349CA4"/>
<stop offset="0.263" stop-color="#7CBFC4"/>
<stop offset="1" stop-color="#28969E"/>
</linearGradient>
<radialGradient id="paint1_radial_938_22998" cx="0" cy="0" r="1" gradientUnits="userSpaceOnUse" gradientTransform="translate(11.2957 94.8738) rotate(180) scale(57.6527 44.668)">
<stop stop-color="#F4E3D7"/>
<stop offset="1" stop-color="#28969E"/>
</radialGradient>
<radialGradient id="paint2_radial_938_22998" cx="0" cy="0" r="1" gradientUnits="userSpaceOnUse" gradientTransform="translate(28.4546 23.9526) rotate(180) scale(88.7092 84.0568)">
<stop offset="0.479" stop-color="#43A3AA"/>
<stop offset="0.691" stop-color="#7CBFC4"/>
<stop offset="1" stop-color="#28969E"/>
</radialGradient>
<linearGradient id="paint3_linear_938_22998" x1="41.9459" y1="57.8756" x2="67.0486" y2="57.8756" gradientUnits="userSpaceOnUse">
<stop stop-color="#D38D5F"/>
<stop offset="0.263" stop-color="#F4E3D7"/>
<stop offset="1" stop-color="#D38D5F"/>
</linearGradient>
<radialGradient id="paint4_radial_938_22998" cx="0" cy="0" r="1" gradientUnits="userSpaceOnUse" gradientTransform="translate(26.9155 23.6602) scale(88.3165 83.2124)">
<stop offset="0.479" stop-color="#D38D5F"/>
<stop offset="0.691" stop-color="#F4E3D7"/>
<stop offset="1" stop-color="#D38D5F"/>
</radialGradient>
<radialGradient id="paint5_radial_938_22998" cx="0" cy="0" r="1" gradientUnits="userSpaceOnUse" gradientTransform="translate(42.4982 94.8407) rotate(180) scale(58.0452 44.7182)">
<stop stop-color="#F4E3D7"/>
<stop offset="1" stop-color="#D38D5F"/>
</radialGradient>
</defs>
</svg>
