<svg width="123" height="23" viewBox="0 0 123 23" fill="none" xmlns="http://www.w3.org/2000/svg">
<g id="R-ICO-012779">
<g id="GLYCO-LUTROPIN">
<path d="M0.731201 11.5C0.731201 5.97715 5.20835 1.5 10.7312 1.5H111.731C117.254 1.5 121.731 5.97715 121.731 11.5C121.731 17.0228 117.254 21.5 111.731 21.5H10.7312C5.20836 21.5 0.731201 17.0228 0.731201 11.5Z" fill="url(#paint0_linear_938_23351)"/>
<path d="M76.9393 2.99266C54.8699 2.87443 32.8006 2.52283 10.7312 1.64001C10.7312 1.54664 10.7312 1.45328 10.7312 1.35991C32.8006 0.477089 54.8699 0.125486 76.9393 0.00726104C87.974 -0.0305147 99.0094 0.0866973 110.044 0.183516C110.607 0.187679 111.169 0.192151 111.731 0.196923C117.762 0.0978805 123.072 5.59141 122.828 11.5C122.873 17.423 117.46 22.5439 111.732 22.2659C111.732 22.2659 111.732 22.2658 111.731 22.2658C100.697 22.0221 89.6614 21.8466 78.6271 21.953C67.5925 22.056 56.5568 22.4645 45.5221 22.6648C34.4878 22.8277 23.4535 22.7388 12.419 22.5842C11.8564 22.5763 11.2938 22.568 10.7312 22.5594C4.82686 22.6188 -0.290889 17.2055 0.0128399 11.5C0.031855 5.77003 5.33985 0.966345 10.7312 1.35991C10.7312 1.45328 10.7312 1.54664 10.7312 1.64001C5.46956 1.77449 1.1714 6.57648 1.44943 11.5C1.49408 16.4479 5.98243 20.6404 10.7312 20.4407C11.2938 20.4321 11.8564 20.4238 12.419 20.4159C23.4533 20.2613 34.4876 20.1724 45.5221 20.3353C56.5569 20.5356 67.5924 20.9428 78.6271 21.0457C89.6615 21.1521 100.697 20.978 111.731 20.7342C111.731 20.7342 111.732 20.7342 111.732 20.7342C116.657 20.7141 120.848 16.2295 120.634 11.5C120.65 6.75532 116.354 2.64301 111.731 2.80299C111.169 2.80777 110.607 2.81224 110.044 2.8164C99.0096 2.91322 87.974 3.03071 76.9393 2.99266Z" fill="#1A509E"/>
<text id="GLYCO-LUTROPIN_2" fill="white" xml:space="preserve" style="white-space: pre" font-family="Arial" font-size="12" font-weight="bold" letter-spacing="0em"><tspan x="7.75269" y="15.6602">GLYCO-LUTROPIN</tspan></text>
</g>
</g>
<defs>
<linearGradient id="paint0_linear_938_23351" x1="61.2312" y1="1.5" x2="61.2312" y2="21.5" gradientUnits="userSpaceOnUse">
<stop stop-color="#1A509E"/>
<stop offset="1" stop-color="#C19E4F"/>
</linearGradient>
</defs>
</svg>
