<svg width="100" height="100" viewBox="0 0 100 100" fill="none" xmlns="http://www.w3.org/2000/svg">
<g id="R-ICO-014138">
<g id="SCLERA">
<path id="Vector" d="M49.9914 99.9828C77.6009 99.9828 99.9828 77.6009 99.9828 49.9914C99.9828 22.3819 77.6009 0 49.9914 0C22.3819 0 0 22.3819 0 49.9914C0 77.6009 22.3819 99.9828 49.9914 99.9828Z" fill="url(#paint0_radial_938_24558)"/>
<path id="Vector_2" d="M49.9914 99.9828C77.6009 99.9828 99.9828 77.6009 99.9828 49.9914C99.9828 22.3819 77.6009 0 49.9914 0C22.3819 0 0 22.3819 0 49.9914C0 77.6009 22.3819 99.9828 49.9914 99.9828Z" fill="url(#paint1_radial_938_24558)"/>
</g>
<g id="IRIS">
<path id="BG" d="M61.166 47.9785C63.7534 62.3432 54.5017 76.0323 40.5018 78.554C26.5019 81.0756 13.0553 71.4749 10.468 57.1102C7.88069 42.7455 17.1323 29.0564 31.1322 26.5347C45.1321 24.013 58.5787 33.6138 61.166 47.9785Z" fill="url(#paint2_radial_938_24558)" stroke="#543927" stroke-miterlimit="10"/>
<path id="TEXTURE" d="M61.6001 52.6043L61.591 52.0571L46.7734 52.2987L61.5635 51.3945L61.5304 50.8484L47.2326 51.7225L61.4778 50.2347L61.4211 49.6908L47.1075 51.1857L61.3418 49.0736L61.2616 48.5323L48.2587 50.4617L61.1753 48.022L61.0738 47.4844L47.976 49.9583L60.9653 46.9637L60.8424 46.4304L46.6799 49.6955L60.6872 45.8138L60.5413 45.2864L46.3755 49.212L60.3546 44.662L60.1852 44.1416L46.5831 48.5689L59.9843 43.561L59.793 43.0486L45.0659 48.5519L59.5114 42.3432L59.2955 41.8404L45.2899 47.8601L59.0024 41.1973L58.763 40.7052L44.2446 47.7595L58.3919 39.9857L58.1285 39.5064L44.3499 47.0776L57.7464 38.8502L57.46 38.3837L43.7955 46.7757L57.0251 37.716L56.7157 37.2645L43.707 46.1729L56.2666 36.6455L55.9358 36.2095L42.666 46.2756L55.3851 35.5268L55.0319 35.109L42.8092 45.4383L54.5016 34.5196L54.1281 34.1199L41.4971 45.9151L53.4423 33.4354L53.0468 33.0571L41.2429 45.3892L52.3466 32.4335L51.9309 32.0776L41.4929 44.2565L51.3059 31.5796L50.8731 31.2446L41.2124 43.7247L50.2477 30.7976L49.7994 30.4839L40.2025 44.2146L49.0457 30.0038L48.5813 29.7147L39.626 44.1058L47.7761 29.2627L47.2962 28.9993L39.3734 43.4284L46.5262 28.6239L46.0335 28.3861L38.8755 43.2015L45.2435 28.0537L44.7391 27.8416L38.4027 42.9141L43.9426 27.5587L43.4281 27.3727L37.7684 43.0599L42.5723 27.1224L42.0487 26.9642L37.45 42.2211L41.272 26.7865L40.7408 26.6551L37.1483 41.1628L40.0633 26.5386L39.5268 26.4317L36.7026 40.6004L38.8915 26.3566L38.3507 26.2733L36.3642 39.2008L37.8284 26.2402L37.2844 26.1787L35.8574 38.8096L36.7878 26.1702L36.2422 26.1301L35.3943 37.6491L35.8243 26.1426L35.2777 26.1223L34.7707 39.6901L34.7102 26.1589L34.163 26.1616L34.2208 39.0749L33.6495 26.2207L33.1029 26.2447L33.7396 40.5729L32.4673 26.3419L31.9223 26.3906L33.1502 40.1251L31.3401 26.51L30.7977 26.5821L32.6171 40.2675L30.2177 26.7291L29.6791 26.8247L31.862 39.1416L29.2072 26.9719L28.6729 27.0884L31.3679 39.4423L28.196 27.2594L27.6665 27.3973L31.1388 40.7342L27.1051 27.622L26.582 27.7828L30.667 41.0618L26.0196 28.0393L25.5045 28.2231L30.0168 40.867L24.9907 28.4898L24.4836 28.6955L30.041 42.3812L23.8614 29.0492L23.365 29.2795L29.3448 42.1806L22.8084 29.6375L22.3233 29.8903L29.2739 43.2282L21.7056 30.3276L21.2337 30.6044L28.5909 43.1452L20.6815 31.0429L20.2235 31.3421L28.3058 43.7087L19.6692 31.8275L19.2267 32.1492L27.704 43.8111L18.7234 32.639L18.297 32.982L27.8346 44.8472L17.7452 33.5674L17.3375 33.9323L26.9919 44.7259L16.8735 34.4833L16.4845 34.868L27.5084 46.0272L15.9453 35.5661L15.5782 35.9717L26.9909 46.2967L15.0976 36.6701L14.7534 37.0954L25.8505 46.0775L14.3829 37.7054L14.0601 38.1473L25.3257 46.3719L13.7347 38.7463L13.4339 39.2031L25.8465 47.3693L13.0825 39.916L12.8068 40.3883L25.7529 47.948L12.4806 41.1388L12.2311 41.6256L25.0855 48.2204L11.9663 42.3309L11.7424 42.83L24.8661 48.7215L11.5118 43.5442L11.3141 44.0545L24.5929 49.2026L11.1207 44.7659L10.9497 45.2859L24.7566 49.8327L10.7792 46.0449L10.636 46.5728L23.9312 50.1758L10.5182 47.252L10.4017 47.7866L22.8762 50.5057L10.3283 48.3693L10.2363 48.9085L22.332 50.9678L10.1904 49.45L10.1225 49.9929L20.9437 51.3457L10.1036 50.4287L10.0576 50.9737L20.5659 51.8626L10.0539 51.3854L10.0293 51.9321L20.7861 52.4204L10.0384 52.3598L10.0352 52.907L21.4713 52.9714L10.06 53.3844L10.0798 53.9311L20.882 53.5401L10.1166 54.3612L10.1583 54.9068L22.3836 53.9743L10.2219 55.4515L10.2876 55.995L21.9608 54.5771L10.3638 56.4949L10.453 57.0345L22.1175 55.1056L10.5463 57.5371L10.659 58.0725L21.0167 55.896L10.7474 58.48L10.881 59.0106L21.3284 56.3818L10.9852 59.4279L11.1397 59.9526L22.6375 56.5665L11.2847 60.457L11.4621 60.9748L22.9692 57.0314L11.6302 61.4881L11.8306 61.9973L22.8021 57.6851L12.0045 62.4739L12.2262 62.9741L24.3153 57.6124L12.472 63.5653L12.7178 64.0542L24.1306 58.3178L12.9666 64.5934L13.2348 65.0706L25.1812 58.3551L13.5514 65.6832L13.8432 66.1459L25.1226 59.0386L14.1633 66.7078L14.4769 67.1561L25.6922 59.3078L14.8413 67.734L15.1769 68.1663L25.8166 59.9041L15.5499 68.7071L15.9063 69.1223L26.8494 59.7394L16.3704 69.7285L16.7482 70.1244L26.7531 60.5872L17.1895 70.6537L17.586 71.0304L28.0373 60.0296L18.1706 71.6564L18.5879 72.0107L28.32 60.5424L19.1853 72.5899L19.6213 72.9207L28.1397 61.686L20.1495 73.3925L20.6016 73.7008L28.453 62.1976L21.1317 74.1342L21.5982 74.42L29.4301 61.651L22.2495 74.8951L22.7304 75.1558L30.014 61.7218L23.4347 75.6138L23.929 75.8478L30.3061 62.3828L24.6049 76.2427L25.1109 76.4511L30.8143 62.5859L25.8115 76.8128L26.3277 76.9945L31.3051 62.8398L27.041 77.3178L27.5657 77.4728L31.9298 62.6549L28.3432 77.7736L28.8754 77.8997L32.2972 63.4757L29.5853 78.1364L30.1234 78.2358L32.6615 64.515L30.7464 78.4143L31.2883 78.4891L32.9487 66.4379L31.7622 78.6104L32.3067 78.6638L33.5588 65.8171L32.8411 78.7723L33.3872 78.8022L34.0711 66.4573L33.8798 78.8824L34.427 78.8909L34.6408 65.0019L35.0506 78.9545L35.5978 78.9385L35.2026 65.4813L36.1805 78.9721L36.726 78.9326L35.7427 65.3665L37.3186 78.9379L37.8621 78.8749L36.4301 66.5433L38.3547 78.8626L38.8955 78.7782L36.9422 66.2756L39.4031 78.7424L39.9401 78.6366L37.2469 64.993L40.5474 78.5607L41.0791 78.4314L37.7372 64.6932L41.7003 78.3229L42.2255 78.1701L38.3742 64.9249L42.8072 78.0413L43.3255 77.866L38.4393 63.4087L44.038 77.6641L44.5473 77.4642L39.1244 63.6567L45.2013 77.243L45.7009 77.0196L39.2592 62.6177L46.437 76.722L46.9248 76.4741L39.935 62.739L47.6013 76.1577L48.0764 75.8863L40.2553 62.1966L48.7681 75.5144L49.2292 75.2194L40.8604 62.1269L49.8744 74.8264L50.3206 74.5095L40.7917 61.0847L51.0348 74.0153L51.4638 73.6754L41.6268 61.2574L52.0848 73.1934L52.4962 72.8328L41.188 59.9263L53.2205 72.1974L53.6111 71.8143L41.7216 59.689L54.2753 71.1579L54.6445 70.7539L42.8438 59.9729L55.18 70.1634L55.5283 69.7418L43.3834 59.7093L56.0138 69.1468L56.3414 68.7087L42.9288 58.6867L56.868 67.9862L57.1715 67.531L43.0586 58.1155L57.6732 66.754L57.9516 66.2827L43.7381 57.8813L58.3775 65.5357L58.6308 65.0511L43.984 57.3928L59.0163 64.2808L59.2445 63.7833L44.2887 56.9304L59.584 63.0032L59.786 62.4945L44.1639 56.2919L60.0997 61.6518L60.2739 61.133L45.0145 56.0006L60.5143 60.3646L60.6629 59.8377L46.0782 55.7314L60.8379 59.1631L60.9619 58.6304L46.6531 55.3035L61.1505 58.0041L61.2509 57.466L48.0615 55.009L61.2835 56.929L61.3621 56.3877L48.4637 54.5148L61.4249 55.883L61.4823 55.3391L48.2788 53.9452L61.5264 54.8135L61.5622 54.2674L47.6341 53.3545L61.5868 53.6845L61.5996 53.1373L48.2577 52.8218L61.6001 52.6043Z" fill="url(#paint3_radial_938_24558)"/>
<path id="FG" d="M63.6187 47.5368C66.4564 63.2913 56.3096 78.3047 40.9553 81.0703C25.601 83.8359 10.8534 73.3064 8.01582 57.5519C5.17822 41.7974 15.3249 26.784 30.6792 24.0184C46.0335 21.2528 60.781 31.7823 63.6187 47.5368Z" fill="url(#paint4_radial_938_24558)"/>
<path id="SHINE" d="M21.0972 49.1953C25.2989 49.1953 28.7051 47.0184 28.7051 44.333C28.7051 41.6476 25.2989 39.4707 21.0972 39.4707C16.8954 39.4707 13.4893 41.6476 13.4893 44.333C13.4893 47.0184 16.8954 49.1953 21.0972 49.1953Z" fill="url(#paint5_radial_938_24558)"/>
</g>
<path id="PUPIL" d="M36.1057 61.3589C40.7273 60.5263 43.7813 56.0072 42.927 51.2652C42.0728 46.5233 37.6338 43.354 33.0122 44.1866C28.3906 45.0192 25.3366 49.5382 26.1908 54.2802C27.0451 59.0222 31.4841 62.1914 36.1057 61.3589Z" fill="black"/>
</g>
<defs>
<radialGradient id="paint0_radial_938_24558" cx="0" cy="0" r="1" gradientUnits="userSpaceOnUse" gradientTransform="translate(47.5554 46.6673) rotate(-10.2121) scale(52.0174)">
<stop offset="0.6745" stop-color="#D6D5DB"/>
<stop offset="0.7157" stop-color="#D4D1D5"/>
<stop offset="0.7698" stop-color="#CEC5C5"/>
<stop offset="0.8309" stop-color="#C5B1AA"/>
<stop offset="0.8758" stop-color="#BC9F91"/>
<stop offset="1" stop-color="#9C665C"/>
</radialGradient>
<radialGradient id="paint1_radial_938_24558" cx="0" cy="0" r="1" gradientUnits="userSpaceOnUse" gradientTransform="translate(35.6407 52.3483) rotate(-10.2121) scale(66.7474)">
<stop offset="0.3889" stop-color="#92A2B3"/>
<stop offset="0.3958" stop-color="#99A7B7"/>
<stop offset="0.4271" stop-color="#B4BBC7"/>
<stop offset="0.459" stop-color="#C7CAD2"/>
<stop offset="0.4916" stop-color="#D2D2D9"/>
<stop offset="0.526" stop-color="#D6D5DB"/>
<stop offset="0.7318" stop-color="#D6D5DB" stop-opacity="0"/>
</radialGradient>
<radialGradient id="paint2_radial_938_24558" cx="0" cy="0" r="1" gradientUnits="userSpaceOnUse" gradientTransform="translate(35.817 52.5443) scale(26.0992 26.0992)">
<stop offset="0.6917" stop-color="#543927"/>
<stop offset="1" stop-color="#80573B"/>
</radialGradient>
<radialGradient id="paint3_radial_938_24558" cx="0" cy="0" r="1" gradientUnits="userSpaceOnUse" gradientTransform="translate(35.8147 52.5472) scale(26.1071 26.1071)">
<stop offset="0.3455" stop-color="#535749"/>
<stop offset="0.3474" stop-color="#545749"/>
<stop offset="0.4399" stop-color="#7F654A"/>
<stop offset="0.5121" stop-color="#996D4B"/>
<stop offset="0.5549" stop-color="#A3704B"/>
<stop offset="0.5834" stop-color="#9B6A47"/>
<stop offset="0.6737" stop-color="#875C3E"/>
<stop offset="0.7348" stop-color="#80573B"/>
<stop offset="1" stop-color="#543927"/>
</radialGradient>
<radialGradient id="paint4_radial_938_24558" cx="0" cy="0" r="1" gradientUnits="userSpaceOnUse" gradientTransform="translate(35.8172 52.5443) scale(28.6242 28.6242)">
<stop offset="0.0535" stop-color="#543927" stop-opacity="0"/>
<stop offset="0.9225" stop-color="#543927"/>
<stop offset="0.9862" stop-color="#543927" stop-opacity="0"/>
</radialGradient>
<radialGradient id="paint5_radial_938_24558" cx="0" cy="0" r="1" gradientUnits="userSpaceOnUse" gradientTransform="translate(21.0972 44.3323) scale(7.4429 4.4516)">
<stop offset="0.05" stop-color="white"/>
<stop offset="0.8943" stop-color="white" stop-opacity="0"/>
</radialGradient>
</defs>
</svg>
