<svg width="56" height="24" viewBox="0 0 56 24" fill="none" xmlns="http://www.w3.org/2000/svg">
<g id="R-ICO-013803">
<g id="CHEMICAL_HEX">
<g id="LEFT_CORNER">
<mask id="mask0_938_24813" style="mask-type:luminance" maskUnits="userSpaceOnUse" x="0" y="0" width="10" height="24">
<rect id="MASK" width="10" height="24" transform="matrix(-1 0 0 1 10 0)" fill="white"/>
</mask>
<g mask="url(#mask0_938_24813)">
<g id="CORNER">
<mask id="path-2-outside-1_938_24813" maskUnits="userSpaceOnUse" x="0" y="0" width="12" height="24" fill="black">
<rect fill="white" width="12" height="24"/>
<path d="M2 12C2 12 6.04738 5.90524 8 2H10V22H8C6.04738 18.0948 2 12 2 12Z"/>
</mask>
<path d="M2 12C2 12 6.04738 5.90524 8 2H10V22H8C6.04738 18.0948 2 12 2 12Z" fill="#206277"/>
<path d="M2 12C2 12 6.04738 5.90524 8 2H10V22H8C6.04738 18.0948 2 12 2 12Z" stroke="#93C8D8" stroke-width="4" stroke-miterlimit="3.99933" stroke-linejoin="round" mask="url(#path-2-outside-1_938_24813)"/>
</g>
</g>
</g>
<g id="RIGHT CORNER">
<mask id="mask1_938_24813" style="mask-type:luminance" maskUnits="userSpaceOnUse" x="46" y="0" width="10" height="24">
<rect id="MASK_2" width="10" height="24" transform="matrix(1 -8.74228e-08 -8.74228e-08 -1 46 24)" fill="white"/>
</mask>
<g mask="url(#mask1_938_24813)">
<g id="CORNER_2">
<mask id="path-4-outside-2_938_24813" maskUnits="userSpaceOnUse" x="44" y="0" width="12" height="24" fill="black">
<rect fill="white" x="44" width="12" height="24"/>
<path d="M54 12C54 12 49.9526 5.90524 48 2H46V22H48C49.9526 18.0948 54 12 54 12Z"/>
</mask>
<path d="M54 12C54 12 49.9526 5.90524 48 2H46V22H48C49.9526 18.0948 54 12 54 12Z" fill="#206277"/>
<path d="M54 12C54 12 49.9526 5.90524 48 2H46V22H48C49.9526 18.0948 54 12 54 12Z" stroke="#93C8D8" stroke-width="4" stroke-miterlimit="3.99933" stroke-linejoin="round" mask="url(#path-4-outside-2_938_24813)"/>
</g>
</g>
</g>
<g id="centre">
<mask id="path-5-outside-3_938_24813" maskUnits="userSpaceOnUse" x="8" y="0" width="40" height="24" fill="black">
<rect fill="white" x="8" width="40" height="24"/>
<path d="M8 2H48V22H8V2Z"/>
</mask>
<path d="M8 2H48V22H8V2Z" fill="#206277"/>
<path d="M8 2V4H48V2V0H8V2ZM48 22V20H8V22V24H48V22Z" fill="#93C8D8" mask="url(#path-5-outside-3_938_24813)"/>
<text id="Chemical" fill="white" xml:space="preserve" style="white-space: pre" font-family="Arial" font-size="12" font-weight="bold" letter-spacing="0em"><tspan x="8.31836" y="16.1602">FADH2</tspan></text>
</g>
</g>
</g>
</svg>
