<svg width="24" height="153" viewBox="0 0 24 153" fill="none" xmlns="http://www.w3.org/2000/svg">
<g id="R-ICO-012846">
<path id="ICAM3" d="M13.8 152.7C10.5 151.3 8.9 149.7 8.7 147.8C8.4 144.1 13.6 140.5 19.4 136.7C20.6 136 21.2 135.3 21.2 134.5C21.4 132.9 19.2 130.7 17 128.5C14.1 125.6 10.8 122.3 10.8 118.5V67.5C9.8 68 8.7 68.3 7.6 68.3C3.4 68.3 0 64.9 0 60.7C0 56.5 3.4 53.1 7.6 53.1C8.8 53.1 9.8 53.4 10.8 53.9V50.4C9.8 50.9 8.7 51.2 7.6 51.2C3.4 51.2 0 47.8 0 43.6C0 39.4 3.4 36 7.6 36C8.8 36 9.8 36.3 10.8 36.8V33.3C9.8 33.8 8.7 34.1 7.6 34.1C3.4 34.1 0 30.7 0 26.5C0 22.3 3.4 18.9 7.6 18.9C8.8 18.9 9.8 19.2 10.8 19.7V16.2C9.8 16.7 8.7 17 7.6 17C3.4 17 0 13.6 0 9.4C0 5.2 3.4 1.8 7.6 1.8C8.8 1.8 9.8 2.1 10.8 2.6V0H12.7V4.4L11.1 5.2C10.1 4.3 8.8 3.8 7.5 3.8C4.4 3.8 1.8 6.3 1.8 9.5C1.8 12.7 4.3 15.2 7.5 15.2C8.8 15.2 10 14.7 11.1 13.8L12.7 14.2V21.3L11.1 22.1C10.1 21.2 8.8 20.7 7.5 20.7C4.4 20.7 1.8 23.2 1.8 26.4C1.8 29.6 4.3 32.1 7.5 32.1C8.8 32.1 10 31.6 11.1 30.7L12.7 31.5V38.6L11.1 39.4C10.1 38.5 8.8 38 7.5 38C4.4 38 1.8 40.5 1.8 43.7C1.8 46.9 4.3 49.4 7.5 49.4C8.8 49.4 10 48.9 11.1 48L12.7 48.8V55.9L11.1 56.7C10.1 55.8 8.8 55.3 7.5 55.3C4.4 55.3 1.8 57.8 1.8 61C1.8 64.2 4.3 66.7 7.5 66.7C8.8 66.7 10 66.2 11.1 65.3L12.7 66.1V118.8C12.7 121.9 15.7 124.8 18.3 127.4C20.9 130 23.4 132.5 23 135C22.9 136.4 22 137.6 20.3 138.6C16.8 140.8 10.2 145 10.5 147.8C10.6 149.3 12.7 150.4 14.5 151.1L13.8 152.7Z" fill="url(#paint0_linear_938_22942)"/>
</g>
<defs>
<linearGradient id="paint0_linear_938_22942" x1="0" y1="76.35" x2="23.1689" y2="76.35" gradientUnits="userSpaceOnUse">
<stop stop-color="#0EA660"/>
<stop offset="1" stop-color="#003B1E"/>
</linearGradient>
</defs>
</svg>
