<svg width="48" height="23" viewBox="0 0 48 23" fill="none" xmlns="http://www.w3.org/2000/svg">
<g id="R-ICO-013176">
<g id="PEX5">
<path d="M1.14355 11.4445C1.14355 5.92161 5.62071 1.44446 11.1436 1.44446H36.1436C41.6664 1.44446 46.1436 5.92161 46.1436 11.4445C46.1436 16.9673 41.6664 21.4445 36.1436 21.4445H11.1436C5.62071 21.4445 1.14355 16.9673 1.14355 11.4445Z" fill="url(#paint0_linear_938_23502)"/>
<path d="M38.8277 3.36878C37.9692 3.06926 37.0634 2.90698 36.1436 2.88728C27.8102 2.73203 19.4769 2.36687 11.1436 1.58446C11.1436 1.4911 11.1436 1.39773 11.1436 1.30437C19.4769 0.521958 27.8102 0.156798 36.1436 0.00155473C37.3659 -0.0189337 38.5965 0.159812 39.7688 0.535603C44.3897 1.97265 47.6621 6.68605 47.4936 11.4445C47.4824 12.051 47.4232 12.6557 47.3164 13.2513C46.4689 18.5933 41.2571 22.6016 36.144 22.2103C36.1438 22.2103 36.1437 22.2103 36.1436 22.2103C31.4423 21.9666 26.7406 21.7911 22.0394 21.8974C18.4075 21.977 14.7755 22.2389 11.1436 22.4463C9.96752 22.5079 8.77048 22.3763 7.62127 22.042C3.09108 20.7611 -0.200034 16.1176 0.00942338 11.4445C0.0249993 10.8494 0.0886902 10.257 0.199996 9.67488C1.09521 4.44914 6.31919 0.667697 11.1436 1.30437C11.1436 1.39773 11.1436 1.4911 11.1436 1.58446C6.45512 2.03894 2.79622 5.83236 2.34091 10.0186C2.28276 10.4917 2.26198 10.9683 2.2776 11.4445C2.36432 15.1701 4.89501 18.5597 8.35573 19.8312C9.23749 20.1724 10.1772 20.3818 11.1436 20.4426C14.7755 20.6496 18.4075 20.9107 22.0394 20.9902C26.7406 21.0965 31.4422 20.9224 36.1436 20.6787C36.1437 20.6787 36.1438 20.6787 36.1439 20.6787C40.5433 20.4689 44.2131 16.9032 44.7168 12.8338C44.7795 12.374 44.8049 11.9095 44.7936 11.4445C44.7478 7.80386 42.1978 4.48393 38.8277 3.36878Z" fill="#9E2000"/>
<text id="PEX5_2" fill="white" xml:space="preserve" style="white-space: pre" font-family="Arial" font-size="12" font-weight="bold" letter-spacing="0em"><tspan x="8.29785" y="15.6046">PEX5</tspan></text>
</g>
</g>
<defs>
<linearGradient id="paint0_linear_938_23502" x1="23.6436" y1="1.44446" x2="23.6436" y2="21.4445" gradientUnits="userSpaceOnUse">
<stop stop-color="#9E2000"/>
<stop offset="1" stop-color="#D69692"/>
</linearGradient>
</defs>
</svg>
