<svg width="132" height="151" viewBox="0 0 132 151" fill="none" xmlns="http://www.w3.org/2000/svg">
<g id="R-ICO-013286">
<g id="LEFT">
<path id="BG" d="M40.2154 7.97544C38.2654 6.84924 35.7751 7.51834 34.6509 9.46644L8.67346 54.4603C8.63096 54.5338 8.60866 54.6125 8.57126 54.6874C8.51106 54.8079 8.45366 54.9282 8.40556 55.0552C8.35266 55.1941 8.31206 55.3337 8.27516 55.4753C8.24686 55.5847 8.21956 55.6933 8.20026 55.8061C8.17126 55.9742 8.15706 56.1412 8.14946 56.31C8.14656 56.3726 8.13086 56.4314 8.13086 56.4947V146.293C8.13086 148.543 9.95436 150.366 12.2044 150.366C14.4544 150.366 16.2779 148.543 16.2779 146.293V57.5829L41.7063 13.5398C42.8313 11.5914 42.1638 9.10034 40.2154 7.97544Z" fill="url(#paint0_linear_938_23104)"/>
<path id="TM" d="M21.3469 62.5744H3.0941C1.3924 62.5744 0 61.1821 0 59.4803V53.4481C0 51.7463 1.3924 50.354 3.0941 50.354H21.3469C23.0487 50.354 24.441 51.7464 24.441 53.4481V59.4803C24.441 61.1821 23.0487 62.5744 21.3469 62.5744Z" fill="url(#paint1_linear_938_23104)"/>
<path id="Vector" d="M37.142 46.2841C38.6612 43.6528 33.5286 37.8454 25.6781 33.3129C17.8276 28.7804 10.2318 27.2391 8.71266 29.8704C7.19356 32.5017 12.3261 38.3091 20.1766 42.8416C28.0271 47.3741 35.6228 48.9154 37.142 46.2841Z" fill="url(#paint2_radial_938_23104)"/>
<path id="Vector_2" d="M42.6439 36.7555C44.1631 34.1242 39.0305 28.3168 31.18 23.7843C23.3295 19.2518 15.7338 17.7105 14.2146 20.3418C12.6954 22.9731 17.828 28.7805 25.6785 33.313C33.529 37.8455 41.1247 39.3868 42.6439 36.7555Z" fill="url(#paint3_radial_938_23104)"/>
<path id="Vector_3" d="M48.1449 27.2266C49.6641 24.5953 44.5315 18.7879 36.681 14.2554C28.8305 9.72295 21.2348 8.18165 19.7156 10.8129C18.1964 13.4442 23.329 19.2516 31.1795 23.7841C39.03 28.3166 46.6257 29.8579 48.1449 27.2266Z" fill="url(#paint4_radial_938_23104)"/>
<path id="Vector_4" d="M53.6469 17.6979C55.1661 15.0666 50.0335 9.25919 42.183 4.72669C34.3325 0.194188 26.7368 -1.34701 25.2176 1.28429C23.6984 3.91559 28.831 9.72299 36.6815 14.2555C44.532 18.788 52.1278 20.3292 53.6469 17.6979Z" fill="url(#paint5_radial_938_23104)"/>
</g>
<g id="RIGHT">
<path id="BG_2" d="M91.6859 7.97532C93.6359 6.84912 96.1262 7.51822 97.2504 9.46632L123.228 54.4603C123.27 54.5338 123.293 54.6125 123.33 54.6874C123.39 54.8079 123.448 54.9282 123.496 55.0552C123.549 55.1941 123.589 55.3337 123.626 55.4753C123.654 55.5847 123.682 55.6933 123.701 55.8061C123.73 55.9742 123.744 56.1412 123.752 56.31C123.755 56.3726 123.77 56.4314 123.77 56.4947V146.293C123.77 148.543 121.947 150.366 119.697 150.366C117.447 150.366 115.623 148.543 115.623 146.293V57.5828L90.1949 13.5397C89.07 11.5913 89.7375 9.10022 91.6859 7.97532Z" fill="url(#paint6_linear_938_23104)"/>
<path id="TM_2" d="M110.554 62.5743H128.807C130.509 62.5743 131.901 61.1819 131.901 59.4802V53.448C131.901 51.7462 130.509 50.3539 128.807 50.3539H110.554C108.852 50.3539 107.46 51.7463 107.46 53.448V59.4802C107.46 61.182 108.852 62.5743 110.554 62.5743Z" fill="url(#paint7_linear_938_23104)"/>
<path id="Vector_5" d="M123.503 29.8704C121.984 27.2391 114.389 28.7804 106.538 33.3129C98.6874 37.8454 93.5549 43.6528 95.074 46.2841C96.5932 48.9154 104.189 47.3741 112.039 42.8416C119.89 38.3091 125.022 32.5017 123.503 29.8704Z" fill="url(#paint8_radial_938_23104)"/>
<path id="Vector_6" d="M118.002 20.3418C116.483 17.7105 108.888 19.2518 101.037 23.7843C93.1863 28.3168 88.0538 34.1241 89.573 36.7554C91.0922 39.3867 98.6878 37.8454 106.538 33.3129C114.389 28.7804 119.522 22.973 118.002 20.3418Z" fill="url(#paint9_radial_938_23104)"/>
<path id="Vector_7" d="M112.5 10.8129C110.981 8.18165 103.386 9.72295 95.535 14.2554C87.6844 18.7879 82.5519 24.5953 84.0711 27.2266C85.5903 29.8579 93.1859 28.3166 101.036 23.7841C108.887 19.2516 114.02 13.4442 112.5 10.8129Z" fill="url(#paint10_radial_938_23104)"/>
<path id="Vector_8" d="M106.999 1.28426C105.48 -1.34704 97.8846 0.194262 90.034 4.72676C82.1834 9.25926 77.0509 15.0666 78.5701 17.6979C80.0893 20.3292 87.6849 18.7879 95.5355 14.2554C103.386 9.72286 108.519 3.91556 106.999 1.28426Z" fill="url(#paint11_radial_938_23104)"/>
</g>
</g>
<defs>
<linearGradient id="paint0_linear_938_23104" x1="25.1919" y1="7.42844" x2="25.1919" y2="150.366" gradientUnits="userSpaceOnUse">
<stop stop-color="#B38C4C"/>
<stop offset="1" stop-color="#291C0D"/>
</linearGradient>
<linearGradient id="paint1_linear_938_23104" x1="12.2205" y1="50.3539" x2="12.2205" y2="62.5744" gradientUnits="userSpaceOnUse">
<stop stop-color="#B38C4C"/>
<stop offset="1" stop-color="#6F4D24"/>
</linearGradient>
<radialGradient id="paint2_radial_938_23104" cx="0" cy="0" r="1" gradientTransform="matrix(14.3262 8.06824 -2.4088 4.27664 18.9829 35.0105)" gradientUnits="userSpaceOnUse">
<stop stop-color="#B38C4C"/>
<stop offset="1" stop-color="#291C0D"/>
</radialGradient>
<radialGradient id="paint3_radial_938_23104" cx="0" cy="0" r="1" gradientTransform="matrix(14.3262 8.06824 -2.4088 4.27664 24.485 25.4818)" gradientUnits="userSpaceOnUse">
<stop stop-color="#B38C4C"/>
<stop offset="1" stop-color="#291C0D"/>
</radialGradient>
<radialGradient id="paint4_radial_938_23104" cx="0" cy="0" r="1" gradientTransform="matrix(14.3262 8.06824 -2.4088 4.27664 29.986 15.9529)" gradientUnits="userSpaceOnUse">
<stop stop-color="#B38C4C"/>
<stop offset="1" stop-color="#291C0D"/>
</radialGradient>
<radialGradient id="paint5_radial_938_23104" cx="0" cy="0" r="1" gradientTransform="matrix(14.3262 8.06824 -2.4088 4.27664 35.488 6.42418)" gradientUnits="userSpaceOnUse">
<stop stop-color="#B38C4C"/>
<stop offset="1" stop-color="#291C0D"/>
</radialGradient>
<linearGradient id="paint6_linear_938_23104" x1="106.709" y1="7.42832" x2="106.709" y2="150.366" gradientUnits="userSpaceOnUse">
<stop stop-color="#B38C4C"/>
<stop offset="1" stop-color="#291C0D"/>
</linearGradient>
<linearGradient id="paint7_linear_938_23104" x1="119.68" y1="50.3538" x2="119.68" y2="62.5743" gradientUnits="userSpaceOnUse">
<stop stop-color="#B38C4C"/>
<stop offset="1" stop-color="#6F4D24"/>
</linearGradient>
<radialGradient id="paint8_radial_938_23104" cx="0" cy="0" r="1" gradientTransform="matrix(14.1502 -8.37242 2.49923 4.22403 109.392 36.7698)" gradientUnits="userSpaceOnUse">
<stop stop-color="#B38C4C"/>
<stop offset="1" stop-color="#291C0D"/>
</radialGradient>
<radialGradient id="paint9_radial_938_23104" cx="0" cy="0" r="1" gradientTransform="matrix(14.1502 -8.37242 2.49923 4.22403 103.891 27.2413)" gradientUnits="userSpaceOnUse">
<stop stop-color="#B38C4C"/>
<stop offset="1" stop-color="#291C0D"/>
</radialGradient>
<radialGradient id="paint10_radial_938_23104" cx="0" cy="0" r="1" gradientTransform="matrix(14.1502 -8.37242 2.49923 4.22403 98.3891 17.7129)" gradientUnits="userSpaceOnUse">
<stop stop-color="#B38C4C"/>
<stop offset="1" stop-color="#291C0D"/>
</radialGradient>
<radialGradient id="paint11_radial_938_23104" cx="0" cy="0" r="1" gradientTransform="matrix(14.1502 -8.37242 2.49923 4.22403 92.8881 8.18445)" gradientUnits="userSpaceOnUse">
<stop stop-color="#B38C4C"/>
<stop offset="1" stop-color="#291C0D"/>
</radialGradient>
</defs>
</svg>
