<svg width="63" height="100" viewBox="0 0 63 100" fill="none" xmlns="http://www.w3.org/2000/svg">
<g id="R-ICO-012457">
<path id="AVPR2" d="M57.2806 99.072C56.7279 99.072 56.2806 98.6247 56.2806 98.072C56.2806 97.5193 56.7279 97.072 57.2806 97.072C59.3197 97.072 60.2318 95.6003 60.2318 94.1423C60.2318 93.2859 59.9144 92.4548 59.3617 91.862C58.7211 91.1765 57.7836 90.8141 56.6508 90.8141C52.9985 90.8141 51.0873 88.1989 51.0873 85.6149C51.0873 83.1784 52.8285 80.5563 56.6508 80.5563C59.1391 80.5563 60.2524 79.0065 60.2524 77.4713C60.2524 75.943 59.1254 74.2984 56.6508 74.2984C54.6108 74.2984 53.3197 73.8775 52.5873 72.9752C51.599 71.7555 51.9496 70.0943 52.3217 68.3356C52.5434 67.2858 52.7729 66.1999 52.7729 65.0963C52.7729 64.9195 52.7749 47.3102 52.9643 36.6783C53.0707 30.753 53.393 12.7218 50.3227 9.59632C50.0581 9.32682 49.8647 9.29552 49.7426 9.29552C48.0981 9.29552 46.1371 14.0494 46.1371 36.6959L46.1029 38.7335C45.8539 54.2369 45.2845 66.0963 40.5316 66.0963C37.9808 66.0963 36.5316 62.8658 35.8324 55.6207C35.3012 50.1202 35.306 43.3785 35.309 37.962L35.31 36.6959C35.2885 35.4576 35.2739 34.1163 35.2592 32.7252C35.1772 25.1202 35.0072 9.29552 32.0883 9.29552C30.4433 9.29552 28.4828 14.0494 28.4828 36.6959C28.4828 54.8473 27.5453 66.0963 22.8773 66.0963C20.3265 66.0963 18.8773 62.8658 18.1776 55.6217C17.6468 50.1222 17.6512 43.3815 17.6551 37.965L17.6556 36.696C17.6302 35.2507 17.618 33.6687 17.6058 32.0241C17.5453 24.0138 17.4325 9.10372 14.4339 9.10372C12.7889 9.10372 10.8284 13.8576 10.8284 36.5041C10.8284 54.655 9.89088 65.905 5.22288 65.905C2.67208 65.905 1.22288 62.6745 0.523177 55.4304C-0.00762337 49.9309 -0.00322343 43.1897 0.000676568 37.7732L0.00117657 36.5042C0.122777 18.4738 0.190176 8.54562 5.11408 3.70822C7.83428 1.03582 11.9422 -0.0720812 18.8587 0.00361882C19.4109 0.00991882 19.8533 0.462119 19.8475 1.01482C19.8416 1.56312 19.3949 2.00362 18.8475 2.00362C18.8441 2.00362 18.8402 2.00362 18.8363 2.00362C12.5135 1.94402 8.82058 2.87082 6.51588 5.13452C2.18438 9.38982 2.11938 19.0231 2.00128 36.5109L2.00078 37.7746C1.99688 43.1476 1.99248 49.8351 2.51398 55.238C3.31038 63.487 4.91048 63.905 5.22298 63.905C6.86798 63.905 8.82848 59.1511 8.82848 36.5041C8.82848 18.3532 9.76598 7.10372 14.434 7.10372C19.06 7.10372 19.4955 17.426 19.6059 32.009C19.6181 33.6462 19.6298 35.2219 19.6557 36.6784L19.6552 37.9665C19.6513 43.3395 19.6469 50.0266 20.1684 55.4294C20.9648 63.6784 22.5649 64.0964 22.8774 64.0964C24.5224 64.0964 26.4829 59.3425 26.4829 36.696C26.4829 18.5451 27.4204 7.29562 32.0884 7.29562C36.6343 7.29562 37.0991 17.8264 37.2583 32.7038C37.2739 34.09 37.2876 35.4269 37.3101 36.6784L37.3091 37.9636C37.3062 43.3371 37.3013 50.0246 37.8228 55.4284C38.6197 63.6784 40.2193 64.0964 40.5318 64.0964C43.6949 64.0964 43.981 46.3005 44.1041 38.7014L44.1373 36.6785C44.1373 18.5452 45.0748 7.29572 49.7428 7.29572C50.4782 7.29572 51.1725 7.60672 51.7496 8.19462C54.3141 10.805 55.275 19.3342 54.9644 36.7141C54.7749 47.3279 54.773 64.9197 54.773 65.0964C54.773 66.4089 54.5103 67.6521 54.2789 68.7497C54.0084 70.028 53.7525 71.237 54.1412 71.7155C54.317 71.9333 54.8785 72.2985 56.651 72.2985C60.3287 72.2985 62.2526 74.901 62.2526 77.4714C62.2526 79.9987 60.3288 82.5564 56.651 82.5564C54.1891 82.5564 53.0875 84.0925 53.0875 85.615C53.0875 87.156 54.2027 88.8142 56.651 88.8142C58.8004 88.8142 60.1071 89.7292 60.8239 90.4978C61.7321 91.4705 62.2321 92.7654 62.2321 94.1423C62.2317 96.5915 60.5315 99.072 57.2806 99.072Z" fill="url(#paint0_linear_938_22959)"/>
</g>
<defs>
<linearGradient id="paint0_linear_938_22959" x1="7.65669e-05" y1="49.536" x2="62.2523" y2="49.536" gradientUnits="userSpaceOnUse">
<stop offset="0.1722" stop-color="#784F96"/>
<stop offset="1" stop-color="#FF8AB2"/>
</linearGradient>
</defs>
</svg>
