<svg width="113" height="93" viewBox="0 0 113 93" fill="none" xmlns="http://www.w3.org/2000/svg">
<g id="R-ICO-012444">
<g id="Cylinders">
<g id="Group">
<path id="Vector" d="M39.8659 60.555C39.7459 65.1783 55.7984 72.4553 56.2137 72.6764C56.2137 72.6764 83.503 67.1354 86.2169 62.6367C86.5636 62.062 86.7336 61.4902 86.7398 60.9282L86.74 8.01004L39.8652 7.63934L39.8659 60.555Z" fill="url(#paint0_linear_938_22829)"/>
</g>
<g id="Group_2">
<path id="Vector_2" d="M56.2134 72.6765C56.2134 72.6765 31.372 79.5208 18.648 78.6899C7.51451 77.9628 -0.0900938 74.564 0.00080615 70.7118V17.9009L56.2134 19.8291V72.6765Z" fill="url(#paint1_linear_938_22829)"/>
</g>
<g id="Group_3">
<path id="Vector_3" d="M56.2287 72.6519C56.2287 72.6519 71.1726 82.0944 83.8967 82.9253C96.6207 83.7562 109.136 80.7829 111.85 76.2842C112.238 75.6395 112.405 74.9984 112.367 74.3708V21.6728L56.2139 19.8291V72.6764" fill="url(#paint2_linear_938_22829)"/>
</g>
<g id="Group_4">
<path id="Vector_4" d="M25.6331 84.3891C25.582 88.2289 33.176 91.6121 44.2809 92.3373C57.005 93.1682 69.5199 90.1949 72.2338 85.6962C72.4178 85.3911 72.503 85.0675 72.5018 84.7291V31.9178L25.6328 31.5289L25.6331 84.3891Z" fill="url(#paint3_linear_938_22829)"/>
</g>
</g>
<g id="Tops">
<g id="Group_5">
<path id="Vector_5" d="M56.2134 19.8291C56.2134 19.8291 31.372 26.6734 18.648 25.8425C5.92397 25.0116 -2.19083 20.691 0.523071 16.1923C3.23697 11.6936 15.752 8.72034 28.476 9.55124C41.2 10.3821 56.2134 19.8291 56.2134 19.8291Z" fill="url(#paint4_linear_938_22829)"/>
<path id="Vector_6" d="M33.0064 18.279C31.8938 20.1233 26.7633 21.3422 21.5471 21.0015C16.3309 20.6609 13.0042 18.8896 14.1168 17.0454C15.2294 15.2012 20.3599 13.9822 25.5761 14.3229C30.7923 14.6636 34.119 16.4347 33.0064 18.279Z" fill="url(#paint5_radial_938_22829)"/>
</g>
<g id="Group_6">
<path id="Vector_7" d="M111.849 23.4369C109.136 27.9356 96.6205 30.9089 83.8965 30.078C71.1724 29.2471 56.2285 19.8046 56.2285 19.8046C56.2285 19.8046 81.0004 12.9558 93.7245 13.7867C106.449 14.6176 114.563 18.9382 111.849 23.4369Z" fill="url(#paint6_linear_938_22829)"/>
<path id="Vector_8" d="M98.2554 22.5491C97.1428 24.3934 92.0123 25.6123 86.7961 25.2716C81.5799 24.931 78.2532 23.1597 79.3658 21.3155C80.4784 19.4712 85.6089 18.2523 90.8251 18.593C96.0413 18.9337 99.368 20.7049 98.2554 22.5491Z" fill="url(#paint7_radial_938_22829)"/>
</g>
<g id="Group_7">
<path id="Vector_9" d="M72.2337 32.8489C69.5198 37.3476 57.0048 40.3209 44.2808 39.49C31.5567 38.6591 23.4419 34.3385 26.1559 29.8398C28.8699 25.3411 56.1591 19.8001 56.1591 19.8001C56.1591 19.8001 74.9476 28.3501 72.2337 32.8489Z" fill="url(#paint8_linear_938_22829)"/>
<path id="Vector_10" d="M58.6392 31.9611C57.5266 33.8054 52.3961 35.0243 47.1799 34.6836C41.9637 34.3429 38.637 32.5717 39.7496 30.7275C40.8622 28.8833 45.9927 27.6643 51.2089 28.005C56.4251 28.3456 59.7517 30.1168 58.6392 31.9611Z" fill="url(#paint9_radial_938_22829)"/>
</g>
<g id="Group_8">
<path id="Vector_11" d="M68.092 0.139236C80.8161 0.970136 88.9309 5.29074 86.2169 9.78944C83.5029 14.2881 56.2137 19.8291 56.2137 19.8291C55.7694 19.5925 37.4251 11.279 40.139 6.78034C42.8529 2.28164 55.3679 -0.691664 68.092 0.139236Z" fill="url(#paint10_linear_938_22829)"/>
<path id="Vector_12" d="M72.6226 8.90173C71.51 10.746 66.3795 11.9649 61.1633 11.6242C55.9471 11.2835 52.6204 9.51233 53.733 7.66813C54.8456 5.82383 59.9761 4.60493 65.1923 4.94563C70.4085 5.28623 73.7352 7.05743 72.6226 8.90173Z" fill="url(#paint11_radial_938_22829)"/>
</g>
</g>
</g>
<defs>
<linearGradient id="paint0_linear_938_22829" x1="86.74" y1="40.1579" x2="39.8652" y2="40.1579" gradientUnits="userSpaceOnUse">
<stop offset="0.0689" stop-color="#7D3162"/>
<stop offset="0.5389" stop-color="#CC70AB"/>
<stop offset="0.8151" stop-color="#E89ECC"/>
<stop offset="0.867" stop-color="#E497C7"/>
<stop offset="0.9432" stop-color="#D883B9"/>
<stop offset="1" stop-color="#CC70AB"/>
</linearGradient>
<linearGradient id="paint1_linear_938_22829" x1="56.2134" y1="48.3303" x2="6.70116e-06" y2="48.3303" gradientUnits="userSpaceOnUse">
<stop offset="0.0689" stop-color="#7D3162"/>
<stop offset="0.5389" stop-color="#CC70AB"/>
<stop offset="0.8151" stop-color="#E89ECC"/>
<stop offset="0.867" stop-color="#E497C7"/>
<stop offset="0.9432" stop-color="#D883B9"/>
<stop offset="1" stop-color="#CC70AB"/>
</linearGradient>
<linearGradient id="paint2_linear_938_22829" x1="112.373" y1="51.4469" x2="56.2139" y2="51.4469" gradientUnits="userSpaceOnUse">
<stop offset="0.0689" stop-color="#7D3162"/>
<stop offset="0.5389" stop-color="#CC70AB"/>
<stop offset="0.8151" stop-color="#E89ECC"/>
<stop offset="0.867" stop-color="#E497C7"/>
<stop offset="0.9432" stop-color="#D883B9"/>
<stop offset="1" stop-color="#CC70AB"/>
</linearGradient>
<linearGradient id="paint3_linear_938_22829" x1="72.5018" y1="62.0027" x2="25.6328" y2="62.0027" gradientUnits="userSpaceOnUse">
<stop offset="0.0689" stop-color="#7D3162"/>
<stop offset="0.5389" stop-color="#CC70AB"/>
<stop offset="0.8151" stop-color="#E89ECC"/>
<stop offset="0.867" stop-color="#E497C7"/>
<stop offset="0.9432" stop-color="#D883B9"/>
<stop offset="1" stop-color="#CC70AB"/>
</linearGradient>
<linearGradient id="paint4_linear_938_22829" x1="18.1996" y1="13.2585" x2="76.1281" y2="52.0005" gradientUnits="userSpaceOnUse">
<stop offset="0.2581" stop-color="#CC70AB"/>
<stop offset="0.4053" stop-color="#C66CA6"/>
<stop offset="0.5925" stop-color="#B75F97"/>
<stop offset="0.8002" stop-color="#9D4A7F"/>
<stop offset="1" stop-color="#7D3162"/>
</linearGradient>
<radialGradient id="paint5_radial_938_22829" cx="0" cy="0" r="1" gradientUnits="userSpaceOnUse" gradientTransform="translate(24.1432 25.9518) scale(25.8159 16.77)">
<stop offset="0.3" stop-color="#7D3162"/>
<stop offset="0.7" stop-color="#CC8DB5"/>
</radialGradient>
<linearGradient id="paint6_linear_938_22829" x1="35.6328" y1="-12.8013" x2="93.5613" y2="25.9407" gradientUnits="userSpaceOnUse">
<stop offset="0.2581" stop-color="#CC70AB"/>
<stop offset="0.4053" stop-color="#C66CA6"/>
<stop offset="0.5925" stop-color="#B75F97"/>
<stop offset="0.8002" stop-color="#9D4A7F"/>
<stop offset="1" stop-color="#7D3162"/>
</linearGradient>
<radialGradient id="paint7_radial_938_22829" cx="0" cy="0" r="1" gradientUnits="userSpaceOnUse" gradientTransform="translate(89.3922 30.222) scale(25.8159 16.77)">
<stop offset="0.3" stop-color="#7D3162"/>
<stop offset="0.7" stop-color="#CC8DB5"/>
</radialGradient>
<linearGradient id="paint8_linear_938_22829" x1="17.8871" y1="10.6761" x2="75.7552" y2="49.3777" gradientUnits="userSpaceOnUse">
<stop offset="0.2581" stop-color="#CC70AB"/>
<stop offset="0.4053" stop-color="#C66CA6"/>
<stop offset="0.5925" stop-color="#B75F97"/>
<stop offset="0.8002" stop-color="#9D4A7F"/>
<stop offset="1" stop-color="#7D3162"/>
</linearGradient>
<radialGradient id="paint9_radial_938_22829" cx="0" cy="0" r="1" gradientUnits="userSpaceOnUse" gradientTransform="translate(49.7759 39.6342) scale(25.8159 16.77)">
<stop offset="0.3" stop-color="#7D3162"/>
<stop offset="0.7" stop-color="#CC8DB5"/>
</radialGradient>
<linearGradient id="paint10_linear_938_22829" x1="35.9923" y1="-10.1568" x2="93.8604" y2="28.5448" gradientUnits="userSpaceOnUse">
<stop offset="0.2581" stop-color="#CC70AB"/>
<stop offset="0.4053" stop-color="#C66CA6"/>
<stop offset="0.5925" stop-color="#B75F97"/>
<stop offset="0.8002" stop-color="#9D4A7F"/>
<stop offset="1" stop-color="#7D3162"/>
</linearGradient>
<radialGradient id="paint11_radial_938_22829" cx="0" cy="0" r="1" gradientUnits="userSpaceOnUse" gradientTransform="translate(63.7593 16.5742) scale(25.8159 16.77)">
<stop offset="0.3" stop-color="#7D3162"/>
<stop offset="0.7" stop-color="#CC8DB5"/>
</radialGradient>
</defs>
</svg>
