<svg width="44" height="23" viewBox="0 0 44 23" fill="none" xmlns="http://www.w3.org/2000/svg">
<g id="R-ICO-012528">
<path id="CD3 Gamma chain" d="M2.4757 22.7357C1.1084 22.7357 0 21.8802 0 20.4385V2.2973C0 0.8596 1.1084 0 2.4757 0C3.843 0 4.951 0.8596 4.9514 2.2973V20.4385C4.9514 21.8802 3.843 22.7357 2.4757 22.7357Z" fill="url(#paint0_linear_938_22951)"/>
<path id="CD3 Epsilon chain" d="M7.42736 22.7357C6.06006 22.7357 4.95166 21.8802 4.95166 20.4384V2.2973C4.95176 0.8596 6.06016 0 7.42736 0C8.79456 0 9.90306 0.8596 9.90306 2.2973V20.4385C9.90306 21.8802 8.79466 22.7357 7.42736 22.7357Z" fill="url(#paint1_linear_938_22951)"/>
<path id="CD3 Epsilon chain_2" d="M26.4523 22.7357C25.085 22.7357 23.9766 21.8802 23.9766 20.4384V2.2973C23.9763 0.8596 25.0851 0 26.4523 0C27.8196 0 28.928 0.8596 28.928 2.2973V20.4385C28.928 21.8802 27.8196 22.7357 26.4523 22.7357Z" fill="url(#paint2_linear_938_22951)"/>
<path id="CD3 Delta chain" d="M31.4034 22.7357C30.0361 22.7357 28.9277 21.8802 28.9277 20.4384V2.2973C28.9274 0.8596 30.0361 0 31.4034 0C32.7707 0 33.8791 0.8596 33.8791 2.2973V20.4385C33.8791 21.8802 32.7711 22.7357 31.4034 22.7357Z" fill="url(#paint3_linear_938_22951)"/>
<path id="CD3 Zeta chain" d="M36.3556 22.7357C34.9883 22.7357 33.8799 21.8802 33.8799 20.4384V2.2973C33.8795 0.8596 34.9883 0 36.3556 0C37.7229 0 38.8313 0.8596 38.8313 2.2973V20.4385C38.8312 21.8802 37.7228 22.7357 36.3556 22.7357Z" fill="url(#paint4_linear_938_22951)"/>
<path id="CD3 Zeta chain_2" d="M41.3068 22.7357C39.9395 22.7357 38.8311 21.8802 38.8311 20.4384V2.2973C38.8308 0.8596 39.9396 0 41.3068 0C42.6741 0 43.7825 0.8596 43.7825 2.2973V20.4385C43.7825 21.8802 42.6741 22.7357 41.3068 22.7357Z" fill="url(#paint5_linear_938_22951)"/>
</g>
<defs>
<linearGradient id="paint0_linear_938_22951" x1="0" y1="11.3678" x2="4.9514" y2="11.3678" gradientUnits="userSpaceOnUse">
<stop stop-color="#09BF6D"/>
<stop offset="1" stop-color="#09586D"/>
</linearGradient>
<linearGradient id="paint1_linear_938_22951" x1="4.95176" y1="11.3678" x2="9.90306" y2="11.3678" gradientUnits="userSpaceOnUse">
<stop stop-color="#09BF6D"/>
<stop offset="1" stop-color="#09586D"/>
</linearGradient>
<linearGradient id="paint2_linear_938_22951" x1="23.9766" y1="11.3678" x2="28.928" y2="11.3678" gradientUnits="userSpaceOnUse">
<stop stop-color="#FF91FF"/>
<stop offset="1" stop-color="#0A6BDA"/>
</linearGradient>
<linearGradient id="paint3_linear_938_22951" x1="28.9277" y1="11.3678" x2="33.8791" y2="11.3678" gradientUnits="userSpaceOnUse">
<stop stop-color="#FF91FF"/>
<stop offset="1" stop-color="#0A6BDA"/>
</linearGradient>
<linearGradient id="paint4_linear_938_22951" x1="33.8799" y1="11.3678" x2="38.8312" y2="11.3678" gradientUnits="userSpaceOnUse">
<stop stop-color="#FF91FF"/>
<stop offset="1" stop-color="#0A6BDA"/>
</linearGradient>
<linearGradient id="paint5_linear_938_22951" x1="38.8312" y1="11.3678" x2="43.7825" y2="11.3678" gradientUnits="userSpaceOnUse">
<stop stop-color="#FF91FF"/>
<stop offset="1" stop-color="#0A6BDA"/>
</linearGradient>
</defs>
</svg>
