<svg width="25" height="101" viewBox="0 0 25 101" fill="none" xmlns="http://www.w3.org/2000/svg">
<g id="R-ICO-012768">
<path id="Vector" d="M22.9054 51.4182C22.9614 49.9809 24.1934 43.0555 23.9538 40.5355C23.7141 38.0155 24.021 36.9167 23.9538 35.0324C23.8865 33.1481 23.1019 27.5875 23.0347 23.3815C22.9674 19.1756 20.3765 18.9063 19.6026 18.8391C18.8287 18.7718 17.4039 18.2474 16.2793 17.426C14.9347 16.444 15.2894 13.1701 15.2894 13.1701C16.2227 11.826 16.4468 12.0127 16.4468 11.0794C16.4468 11.0794 17.3801 10.7808 17.3801 9.58605C17.3801 8.3914 17.5668 7.57006 16.8947 7.68204C16.8947 7.68204 18.5142 0.327393 12.4147 0.327393C6.3153 0.327393 7.99563 7.68204 7.99563 7.68204C7.32365 7.57006 7.51027 8.3914 7.51027 9.58605C7.51027 10.7807 8.44365 11.0794 8.44365 11.0794C8.44365 12.0127 8.66766 11.826 9.60098 13.1701C9.60098 13.1701 10.1434 16.5303 8.7558 17.4505C7.38586 18.359 6.82723 18.7718 6.05331 18.8391C5.27944 18.9065 2.24044 19.1756 2.17319 23.3816C2.10594 27.5875 0.425415 33.1481 0.358034 35.0324C0.290719 36.9167 0.597697 38.0155 0.358034 40.5355C0.118371 43.0555 1.35041 49.9808 1.4064 51.4182C1.46238 52.8555 0.622384 54.5915 1.01442 55.2635C1.4064 55.9355 1.9664 56.6823 1.9664 56.6823L3.03041 56.9435C3.03041 56.9435 3.42238 55.9916 3.14238 55.8235C2.86238 55.6555 3.85522 55.0624 3.72281 54.463C3.59041 53.8635 2.91843 52.1088 2.91843 51.4182C2.91843 50.7275 3.46324 44.1755 3.47084 42.7195C3.47843 41.2635 3.12726 37.6234 3.47084 35.7755C3.81442 33.9274 4.40697 28.1228 4.40697 28.1228C4.46439 28.4828 4.51318 28.8688 4.53786 29.2699C4.59771 30.2457 5.06885 38.052 5.06885 39.0278C5.06885 40.0036 4.91124 41.7533 4.62083 43.4232C4.40559 44.6609 3.94787 49.896 4.01519 53.1599C4.0825 56.4237 4.51914 67.5948 4.47435 69.1089C4.42962 70.6231 4.0258 73.5841 4.32865 74.0888C4.63144 74.5936 4.26251 80.6499 4.47435 83.4765C4.68618 86.3032 4.9208 90.8377 4.9208 90.8377C5.1471 92.7387 4.73981 94.0512 4.6945 94.4134C4.64918 94.7755 5.05661 95.907 4.33238 96.948C3.60822 97.989 2.86402 98.343 2.7842 98.9024C2.70424 99.4617 2.61106 99.9811 3.17041 99.8479C3.17041 99.8479 3.39678 100.221 3.74298 99.9544C3.74298 99.9544 4.1159 100.319 4.44881 100.05C4.44881 100.05 4.76482 100.447 5.28599 100.021C5.28599 100.021 5.38101 100.327 6.06012 100.327C6.73923 100.327 6.93908 99.8346 6.93908 99.8346C6.93908 99.8346 7.96446 99.6082 7.7115 98.1433C7.7115 98.1433 8.27084 98.0368 8.24413 97.2111C8.21754 96.3855 7.92451 96.5319 7.92451 95.7462C7.92451 94.9605 8.36396 94.5743 8.36396 94.1482C8.36396 93.7221 7.8293 93.2833 7.88457 92.1373C7.93983 90.9913 9.43308 86.6234 9.44303 82.1644C9.45024 78.9137 9.10652 75.7713 9.14018 74.5264C9.17384 73.2814 11.0351 66.4615 11.5062 62.9958C11.9772 59.53 12.0002 57.5342 12.0002 54.3713L12.1559 52.4261L12.3116 54.3713C12.3116 57.5342 12.3346 59.53 12.8057 62.9958C13.2768 66.4615 15.138 73.2814 15.1717 74.5264C15.2054 75.7713 14.8617 78.9137 14.8689 82.1644C14.8787 86.6234 16.3722 90.9914 16.4274 92.1373C16.4826 93.2833 15.9479 93.7221 15.9479 94.1482C15.9479 94.5744 16.3874 94.9606 16.3874 95.7462C16.3874 96.5319 16.0944 96.3855 16.0678 97.2111C16.0412 98.0368 16.6004 98.1433 16.6004 98.1433C16.3474 99.6082 17.3729 99.8346 17.3729 99.8346C17.3729 99.8346 17.5727 100.327 18.2518 100.327C18.931 100.327 19.026 100.021 19.026 100.021C19.5472 100.447 19.8632 100.05 19.8632 100.05C20.1961 100.319 20.569 99.9544 20.569 99.9544C20.9153 100.221 21.1417 99.8479 21.1417 99.8479C21.701 99.9811 21.6078 99.4617 21.5279 98.9024C21.448 98.343 20.7038 97.989 19.9796 96.948C19.2555 95.907 19.6628 94.7755 19.6175 94.4134C19.5723 94.0512 19.1648 92.7387 19.3912 90.8377C19.3912 90.8377 19.6258 86.3032 19.8376 83.4765C20.0494 80.6499 19.6805 74.5935 19.9834 74.0888C20.2861 73.5841 19.8825 70.6231 19.8376 69.1089C19.7928 67.5948 20.2295 56.4237 20.2968 53.1599C20.364 49.8961 19.8689 44.6668 19.6911 43.4232C19.4794 41.9427 19.2431 40.0036 19.2431 39.0278C19.2431 38.052 19.7142 30.2457 19.7741 29.2699C19.7987 28.8687 19.8468 28.4827 19.9043 28.1228C19.9043 28.1228 20.4975 33.9274 20.841 35.7755C21.1846 37.6235 20.8334 41.2635 20.841 42.7195C20.8486 44.1755 21.3934 50.7275 21.3934 51.4182C21.3934 52.1088 20.7215 53.8635 20.589 54.463C20.4565 55.0624 21.4494 55.6555 21.1694 55.8235C20.8894 55.9916 21.2814 56.9435 21.2814 56.9435L22.3454 56.6823C22.3454 56.6823 22.9054 55.9355 23.2974 55.2635C23.6894 54.5915 22.8494 52.8555 22.9054 51.4182Z" fill="white"/>
<path id="Vector_2" d="M15.2896 13.17C15.2896 13.17 14.9729 16.3939 16.2795 17.426C17.4374 18.3406 18.8289 18.7717 19.6028 18.8391C20.3766 18.9064 22.9675 19.1756 23.0349 23.3815C23.1022 27.5875 23.8866 33.1482 23.954 35.0325C24.0213 36.9168 23.7143 38.0156 23.954 40.5356C24.1936 43.0556 22.9616 49.9809 22.9056 51.4182C22.8496 52.8555 23.6896 54.5915 23.2976 55.2635C22.9056 55.9355 22.3456 56.6823 22.3456 56.6823L21.2816 56.9435C21.2816 56.9435 20.8896 55.9916 21.1696 55.8235C21.4496 55.6555 20.4567 55.0624 20.5892 54.4629C20.7216 53.8635 21.3936 52.1089 21.3936 51.4182C21.3936 50.7275 20.8488 44.1756 20.8412 42.7195C20.8336 41.2635 21.1848 37.6234 20.8412 35.7754C20.4976 33.9274 19.9051 28.1227 19.9051 28.1227" stroke="#0F82BC" stroke-width="0.654817" stroke-miterlimit="10" stroke-linecap="round" stroke-linejoin="round"/>
<path id="Vector_3" d="M16.4475 49.6073C15.9212 49.6458 14.9357 49.992 14.2261 50.4287C13.7492 50.7221 12.6277 52.4233 12.156 52.426C11.3193 52.431 10.5247 50.8094 10.3615 50.6527C10.1883 50.4865 8.94347 49.7381 8.36475 49.6035" stroke="#0F82BC" stroke-width="0.654817" stroke-miterlimit="10" stroke-linecap="round" stroke-linejoin="round"/>
<path id="Vector_4" d="M11.6406 41.7532C11.6388 42.2916 12.5809 42.2243 12.3118 41.7532" stroke="#0F82BC" stroke-width="0.654817" stroke-miterlimit="10" stroke-linecap="round" stroke-linejoin="round"/>
<path id="Vector_5" d="M9.60091 13.17C9.60091 13.17 10.1189 16.4943 8.7558 17.4504C7.48644 18.3407 6.82723 18.7717 6.05331 18.8391C5.27938 18.9064 2.2405 19.1756 2.17319 23.3815C2.10587 27.5875 0.425349 33.1482 0.358034 35.0325C0.290719 36.9168 0.597697 38.0156 0.358034 40.5356C0.118371 43.0556 1.35041 49.9809 1.4064 51.4182C1.46238 52.8555 0.622384 54.5915 1.01442 55.2635C1.4064 55.9355 1.9664 56.6823 1.9664 56.6823L3.03041 56.9435C3.03041 56.9435 3.42238 55.9916 3.14238 55.8235C2.86238 55.6555 3.85528 55.0624 3.72281 54.4629C3.59034 53.8635 2.91837 52.1089 2.91837 51.4182C2.91837 50.7275 3.46318 44.1756 3.47077 42.7195C3.47837 41.2635 3.12719 37.6234 3.47077 35.7754C3.81436 33.9274 4.4069 28.1227 4.4069 28.1227" stroke="#0F82BC" stroke-width="0.654817" stroke-miterlimit="10" stroke-linecap="round" stroke-linejoin="round"/>
<path id="Vector_6" d="M4.14445 26.7687C4.27902 27.408 4.47801 28.2941 4.53786 29.2699C4.59778 30.2457 5.06879 38.052 5.06879 39.0278C5.06879 40.0036 5.01235 41.7532 4.62076 43.4232C4.33395 44.6464 3.94781 49.896 4.01512 53.1599C4.08244 56.4238 4.51907 67.5948 4.47428 69.109C4.42949 70.6231 4.02573 73.5841 4.32852 74.0888C4.63137 74.5936 4.26245 80.65 4.47428 83.4766C4.68612 86.3033 4.92074 90.8377 4.92074 90.8377C5.14704 92.7387 4.73968 94.0513 4.69443 94.4134C4.64918 94.7755 5.05655 95.907 4.33232 96.948C3.60816 97.9891 2.86396 98.3431 2.78407 98.9024C2.70418 99.4618 2.61093 99.9811 3.17028 99.848C3.17028 99.848 3.39665 100.221 3.74292 99.9545C3.74292 99.9545 4.11577 100.319 4.44874 100.05C4.44874 100.05 4.76476 100.447 5.28593 100.021C5.28593 100.021 5.38094 100.327 6.06012 100.327C6.73929 100.327 6.93908 99.8347 6.93908 99.8347C6.93908 99.8347 7.96452 99.6083 7.7115 98.1434C7.7115 98.1434 8.27085 98.0369 8.2442 97.2112C8.21754 96.3856 7.92458 96.532 7.92458 95.7463C7.92458 94.9606 8.36403 94.5744 8.36403 94.1482C8.36403 93.7221 7.82937 93.2833 7.88463 92.1374C7.9399 90.9914 9.43321 86.6234 9.4431 82.1644C9.4503 78.9137 9.10659 75.7713 9.14025 74.5264C9.1739 73.2814 11.0352 66.4615 11.5062 62.9958C11.9773 59.53 12.0004 57.5342 12.0004 54.3713L12.1561 52.4261L12.3118 54.3713C12.3118 57.5342 12.3348 59.53 12.8059 62.9958C13.277 66.4615 15.1382 73.2814 15.1719 74.5264C15.2056 75.7714 14.8618 78.9137 14.869 82.1644C14.8789 86.6234 16.3723 90.9914 16.4275 92.1374C16.4827 93.2834 15.9481 93.7221 15.9481 94.1482C15.9481 94.5744 16.3876 94.9606 16.3876 95.7463C16.3876 96.532 16.0946 96.3856 16.0679 97.2112C16.0413 98.0369 16.6006 98.1434 16.6006 98.1434C16.3476 99.6083 17.3731 99.8347 17.3731 99.8347C17.3731 99.8347 17.5728 100.327 18.252 100.327C18.9312 100.327 19.0262 100.021 19.0262 100.021C19.5474 100.447 19.8634 100.05 19.8634 100.05C20.1963 100.32 20.5692 99.9545 20.5692 99.9545C20.9155 100.221 21.1419 99.848 21.1419 99.848C21.7012 99.9812 21.608 99.4618 21.5281 98.9024C21.4482 98.3431 20.704 97.9891 19.9798 96.948C19.2557 95.907 19.663 94.7755 19.6177 94.4134C19.5725 94.0513 19.1651 92.7387 19.3914 90.8377C19.3914 90.8377 19.626 86.3033 19.8379 83.4766C20.0497 80.65 19.6808 74.5936 19.9836 74.0888C20.2865 73.5841 19.8827 70.6231 19.8379 69.109C19.7931 67.5948 20.2298 56.4237 20.297 53.1599C20.3643 49.896 19.9022 44.6617 19.6914 43.4232C19.4716 42.1323 19.2434 40.0036 19.2434 39.0278C19.2434 38.052 19.7144 30.2457 19.7743 29.2699C19.8341 28.2941 20.0331 27.408 20.1677 26.7687" stroke="#0F82BC" stroke-width="0.654817" stroke-miterlimit="10" stroke-linecap="round" stroke-linejoin="round"/>
<path id="Vector_7" d="M12.4757 14.6633C11.1703 14.6633 10.5343 14.5139 9.60102 13.17C8.66771 11.826 8.4437 12.0127 8.4437 11.0794C8.4437 11.0794 7.51039 10.7807 7.51039 9.58605C7.51039 8.3914 7.3237 7.57006 7.99574 7.68204C7.99574 7.68204 6.31548 0.327393 12.4149 0.327393C18.5143 0.327393 16.8949 7.68204 16.8949 7.68204C17.5669 7.57006 17.3802 8.3914 17.3802 9.58605C17.3802 10.7807 16.4469 11.0794 16.4469 11.0794C16.4469 12.0127 16.2229 11.826 15.2896 13.17C14.3562 14.514 13.781 14.6633 12.4757 14.6633Z" stroke="#0F82BC" stroke-width="0.654817" stroke-miterlimit="10" stroke-linecap="round" stroke-linejoin="round"/>
<path id="Vector_8" d="M11.8662 10.4969C11.9458 10.4174 12.0851 10.5367 12.1647 10.6362C12.2442 10.7357 12.6285 10.75 12.7417 10.6362C12.8216 10.5559 12.9686 10.3841 13.1396 10.5295" stroke="#0F82BC" stroke-width="0.327409" stroke-miterlimit="10" stroke-linecap="round" stroke-linejoin="round"/>
<path id="Vector_9" d="M14.7603 8.39789C14.6216 8.46593 14.4406 8.51949 14.2271 8.50391C13.7134 8.46632 13.563 8.36607 13.4377 8.37857" stroke="#0F82BC" stroke-width="0.327409" stroke-miterlimit="10" stroke-linecap="round" stroke-linejoin="round"/>
<path id="Vector_10" d="M10.1304 8.39691C10.2522 8.4654 10.4194 8.51962 10.6341 8.50391C11.1479 8.46632 11.2982 8.36607 11.4235 8.37857" stroke="#0F82BC" stroke-width="0.327409" stroke-miterlimit="10" stroke-linecap="round" stroke-linejoin="round"/>
<path id="Vector_11" d="M13.5458 12.0216C13.3022 12.0121 13.0135 11.986 12.8791 12.013C12.6745 12.0539 12.7914 12.0948 12.5029 12.0948C12.2143 12.0948 12.245 11.9894 12.0609 12.0012C11.9303 12.0095 11.6353 12.0531 11.4236 12.0778" stroke="#0F82BC" stroke-width="0.327409" stroke-miterlimit="10" stroke-linecap="round" stroke-linejoin="round"/>
</g>
</svg>
