<svg width="66" height="37" viewBox="0 0 66 37" fill="none" xmlns="http://www.w3.org/2000/svg">
<g id="R-ICO-013415">
<g id="SURF complex">
<path d="M1.21777 11.4829C1.21777 5.96006 5.69493 1.48291 11.2178 1.48291H54.2178C59.7406 1.48291 64.2178 5.96006 64.2178 11.4829V25.4829C64.2178 31.0058 59.7406 35.4829 54.2178 35.4829H11.2178C5.69493 35.4829 1.21777 31.0058 1.21777 25.4829V11.4829Z" fill="url(#paint0_linear_938_23633)"/>
<path d="M55.2457 3.03688C54.9053 2.99274 54.5635 2.96896 54.2178 2.96534C39.8844 2.83772 25.5511 2.48161 11.2178 1.62292C11.2178 1.52955 11.2178 1.43619 11.2178 1.34282C25.5511 0.484128 39.8844 0.128012 54.2178 0.000393987C54.6809 -0.00315964 55.1415 0.0207555 55.602 0.0728279C61.2172 0.616865 65.8146 5.89415 65.6343 11.4829C65.6033 14.0177 65.5676 16.5526 65.5343 19.0874C65.5106 21.2192 65.4771 23.3511 65.4348 25.4829C65.4703 31.4775 59.9448 36.5991 54.2185 36.2488C54.2182 36.2488 54.218 36.2488 54.2178 36.2487C46.8499 36.005 39.4814 35.8296 32.1136 35.9359C25.1486 36.0332 18.1829 36.4036 11.2178 36.6131C10.7684 36.6252 10.3206 36.6102 9.87199 36.5673C4.40602 36.1302 -0.176396 30.9777 0.00492668 25.4829C0.0349789 22.9483 0.0803809 20.4137 0.133562 17.8791C0.178621 15.747 0.234575 13.615 0.303521 11.4829C0.334327 5.63937 5.82426 0.816378 11.2178 1.34282C11.2178 1.43619 11.2178 1.52955 11.2178 1.62292C5.95832 1.89024 1.842 6.67301 2.13188 11.4829C2.20083 13.615 2.2568 15.7471 2.3019 17.8791C2.35508 20.4137 2.40049 22.9483 2.43054 25.4829C2.41267 29.78 5.87922 33.7007 10.1502 34.2544C10.5029 34.3079 10.8579 34.3407 11.2178 34.3528C18.1829 34.5621 25.1485 34.9313 32.1136 35.0287C39.4815 35.135 46.8498 34.9609 54.2178 34.7172C54.218 34.7171 54.2182 34.7171 54.2184 34.7171C59.1449 34.625 63.2243 30.1411 63.0008 25.4829C62.9586 23.3511 62.925 21.2192 62.9014 19.0874C62.8681 16.5526 62.8323 14.0178 62.8013 11.4829C62.8201 7.27932 59.3676 3.48321 55.2457 3.03688Z" fill="#434A00"/>
<text id="SURF complex_2" fill="white" xml:space="preserve" style="white-space: pre" font-family="Arial" font-size="12" font-weight="bold" letter-spacing="0em"><tspan x="16.376" y="15.6431">SURF&#10;</tspan><tspan x="8.35449" y="29.6431">complex</tspan></text>
</g>
</g>
<defs>
<linearGradient id="paint0_linear_938_23633" x1="32.7178" y1="1.48291" x2="32.7178" y2="35.4829" gradientUnits="userSpaceOnUse">
<stop stop-color="#434A00"/>
<stop offset="1" stop-color="#BFD11C"/>
</linearGradient>
</defs>
</svg>
