<svg width="43" height="43" viewBox="0 0 43 43" fill="none" xmlns="http://www.w3.org/2000/svg">
<g id="R-ICO-012900">
<g id="BG">
<mask id="path-1-outside-1_938_24253" maskUnits="userSpaceOnUse" x="0" y="0" width="43" height="43" fill="black">
<rect fill="white" width="43" height="43"/>
<path d="M21.2515 1C10.0852 1 1 10.0851 1 21.2528C1 32.4205 10.0851 41.5043 21.2515 41.5043C32.4192 41.5043 41.5043 32.4192 41.5043 21.2528C41.5043 10.0864 32.4192 1 21.2515 1Z"/>
</mask>
<path d="M21.2515 1C10.0852 1 1 10.0851 1 21.2528C1 32.4205 10.0851 41.5043 21.2515 41.5043C32.4192 41.5043 41.5043 32.4192 41.5043 21.2528C41.5043 10.0864 32.4192 1 21.2515 1Z" fill="url(#paint0_radial_938_24253)"/>
<path d="M21.2515 1C10.0852 1 1 10.0851 1 21.2528C1 32.4205 10.0851 41.5043 21.2515 41.5043C32.4192 41.5043 41.5043 32.4192 41.5043 21.2528C41.5043 10.0864 32.4192 1 21.2515 1Z" stroke="#417799" stroke-width="2" mask="url(#path-1-outside-1_938_24253)"/>
</g>
<g id="Interferon_alpha">
<text id="IFN-" fill="white" xml:space="preserve" style="white-space: pre" font-family="Arial" font-size="12" font-weight="bold" letter-spacing="0em"><tspan x="9.00781" y="18.1602">IFN-</tspan></text>
<text id="alpha" fill="white" xml:space="preserve" style="white-space: pre" font-family="Arial" font-size="12" font-weight="bold" letter-spacing="0em"><tspan x="5" y="32.5601">alpha</tspan></text>
</g>
</g>
<defs>
<radialGradient id="paint0_radial_938_24253" cx="0" cy="0" r="1" gradientUnits="userSpaceOnUse" gradientTransform="translate(16.7793 13.0133) scale(19.3962)">
<stop stop-color="#AED69B"/>
<stop offset="1" stop-color="#5EA83B"/>
</radialGradient>
</defs>
</svg>
