<svg width="50" height="83" viewBox="0 0 50 83" fill="none" xmlns="http://www.w3.org/2000/svg">
<g id="R-ICO-013164">
<g id="LEFT">
<path id="Vector" d="M16.5684 82.2725H10.6588C8.96688 82.2725 7.59528 80.9009 7.59528 79.209V58.9719C7.59528 57.28 8.96688 55.9084 10.6588 55.9084H16.5684C18.2603 55.9084 19.6319 57.28 19.6319 58.9719V79.209C19.6319 80.9009 18.2604 82.2725 16.5684 82.2725Z" fill="url(#paint0_linear_938_23110)"/>
<path id="Vector_2" d="M16.5684 82.2725H10.6588C8.96688 82.2725 7.59528 80.9009 7.59528 79.209V58.9719C7.59528 57.28 8.96688 55.9084 10.6588 55.9084H16.5684C18.2603 55.9084 19.6319 57.28 19.6319 58.9719V79.209C19.6319 80.9009 18.2604 82.2725 16.5684 82.2725Z" fill="url(#paint1_linear_938_23110)"/>
<path id="Vector_3" d="M13.6136 59.4904C12.2327 59.4904 11.1136 58.3713 11.1136 56.9904V23.566C11.1136 22.1851 12.2327 21.066 13.6136 21.066C14.9945 21.066 16.1136 22.1851 16.1136 23.566V56.9904C16.1136 58.3712 14.9945 59.4904 13.6136 59.4904Z" fill="url(#paint2_linear_938_23110)"/>
<path id="Vector_4" d="M5.02376 0.821844C-1.03074 4.99744 -1.65784 12.1362 3.38776 19.4522C8.43316 26.7679 15.3289 28.7186 21.3834 24.543C23.2652 23.2452 23.5581 21.6507 22.2603 19.7689C21.696 18.9507 20.7912 18.9915 19.854 18.9586C18.9838 18.928 14.8846 19.441 12.1703 15.1133C9.54316 10.9247 10.5066 9.72074 11.4044 9.10154C13.3276 7.77524 13.7348 4.80614 11.9421 2.20674C10.1494 -0.392656 6.90556 -0.475956 5.02376 0.821844Z" fill="url(#paint3_radial_938_23110)"/>
<g id="Mask group">
<mask id="mask0_938_23110" style="mask-type:alpha" maskUnits="userSpaceOnUse" x="2" y="0" width="12" height="10">
<path id="MASK" d="M5.02399 0.821809C3.88879 1.60471 2.94439 2.49181 2.19239 3.46471L10.7186 9.80621C10.8998 9.49151 11.1548 9.27391 11.4047 9.10161C13.3279 7.77531 13.7351 4.80621 11.9424 2.20681C10.1497 -0.392591 6.90579 -0.475991 5.02399 0.821809Z" fill="url(#paint4_linear_938_23110)"/>
</mask>
<g mask="url(#mask0_938_23110)">
<path id="Vector_5" d="M5.02398 0.821809C3.88878 1.60471 2.94438 2.49181 2.19238 3.46471L10.7186 9.80621C10.8998 9.49151 11.1548 9.27391 11.4047 9.10161C13.3279 7.77531 13.7351 4.80621 11.9424 2.20681C10.1497 -0.392591 6.90578 -0.475991 5.02398 0.821809Z" fill="url(#paint5_radial_938_23110)"/>
</g>
</g>
</g>
<g id="RIGHT">
<path id="Vector_6" d="M32.4878 82.2727H38.3974C40.0893 82.2727 41.4609 80.9011 41.4609 79.2092V58.9721C41.4609 57.2802 40.0893 55.9086 38.3974 55.9086H32.4878C30.7959 55.9086 29.4243 57.2802 29.4243 58.9721V79.2092C29.4242 80.9011 30.7958 82.2727 32.4878 82.2727Z" fill="url(#paint6_linear_938_23110)"/>
<path id="Vector_7" d="M32.4878 82.2727H38.3974C40.0893 82.2727 41.4609 80.9011 41.4609 79.2092V58.9721C41.4609 57.2802 40.0893 55.9086 38.3974 55.9086H32.4878C30.7959 55.9086 29.4243 57.2802 29.4243 58.9721V79.2092C29.4242 80.9011 30.7958 82.2727 32.4878 82.2727Z" fill="url(#paint7_linear_938_23110)"/>
<path id="Vector_8" d="M35.4426 59.4906C36.8235 59.4906 37.9426 58.3715 37.9426 56.9906V23.5662C37.9426 22.1853 36.8235 21.0662 35.4426 21.0662C34.0617 21.0662 32.9426 22.1853 32.9426 23.5662V56.9906C32.9426 58.3714 34.0617 59.4906 35.4426 59.4906Z" fill="url(#paint8_linear_938_23110)"/>
<path id="Vector_9" d="M44.0324 0.821844C50.0869 4.99744 50.714 12.1362 45.6684 19.4522C40.623 26.7679 33.7273 28.7186 27.6728 24.543C25.791 23.2452 25.4981 21.6507 26.7959 19.7689C27.3602 18.9507 28.265 18.9915 29.2022 18.9586C30.0724 18.928 34.1716 19.441 36.8859 15.1133C39.513 10.9247 38.5496 9.72074 37.6518 9.10154C35.7286 7.77524 35.3214 4.80614 37.1141 2.20674C38.9068 -0.392656 42.1506 -0.475956 44.0324 0.821844Z" fill="url(#paint9_radial_938_23110)"/>
<g id="Mask group_2">
<mask id="mask1_938_23110" style="mask-type:alpha" maskUnits="userSpaceOnUse" x="35" y="0" width="12" height="10">
<path id="MASK_2" d="M44.0323 0.821809C45.1675 1.60471 46.1119 2.49181 46.8639 3.46471L38.3377 9.80621C38.1565 9.49151 37.9015 9.27391 37.6516 9.10161C35.7284 7.77531 35.3212 4.80621 37.1139 2.20681C38.9066 -0.392591 42.1505 -0.475991 44.0323 0.821809Z" fill="url(#paint10_linear_938_23110)"/>
</mask>
<g mask="url(#mask1_938_23110)">
<path id="Vector_10" d="M44.0323 0.821809C45.1675 1.60471 46.1119 2.49181 46.8639 3.46471L38.3377 9.80621C38.1565 9.49151 37.9015 9.27391 37.6516 9.10161C35.7284 7.77531 35.3212 4.80621 37.1139 2.20681C38.9066 -0.392591 42.1505 -0.475991 44.0323 0.821809Z" fill="url(#paint11_radial_938_23110)"/>
</g>
</g>
</g>
</g>
<defs>
<linearGradient id="paint0_linear_938_23110" x1="7.59528" y1="69.0904" x2="19.632" y2="69.0904" gradientUnits="userSpaceOnUse">
<stop stop-color="#763452"/>
<stop offset="0.0316" stop-color="#966169"/>
<stop offset="0.0653" stop-color="#B3897D"/>
<stop offset="0.0984" stop-color="#CAA88D"/>
<stop offset="0.1304" stop-color="#DABF99"/>
<stop offset="0.1607" stop-color="#E4CCA0"/>
<stop offset="0.1877" stop-color="#E7D1A2"/>
<stop offset="0.6987" stop-color="#E7D1A2"/>
<stop offset="0.746" stop-color="#E4CDA0"/>
<stop offset="0.7942" stop-color="#DBC19A"/>
<stop offset="0.8429" stop-color="#CDAC8F"/>
<stop offset="0.8918" stop-color="#B89081"/>
<stop offset="0.941" stop-color="#9D6B6E"/>
<stop offset="0.9898" stop-color="#7D3E57"/>
<stop offset="1" stop-color="#763452"/>
</linearGradient>
<linearGradient id="paint1_linear_938_23110" x1="13.6136" y1="82.2725" x2="13.6136" y2="55.9084" gradientUnits="userSpaceOnUse">
<stop stop-color="#763452"/>
<stop offset="0.0466" stop-color="#976169" stop-opacity="0.8299"/>
<stop offset="0.0955" stop-color="#B3897D" stop-opacity="0.6516"/>
<stop offset="0.1437" stop-color="#CAA88D" stop-opacity="0.4759"/>
<stop offset="0.1902" stop-color="#DABF99" stop-opacity="0.306"/>
<stop offset="0.2345" stop-color="#E4CCA0" stop-opacity="0.1443"/>
<stop offset="0.2741" stop-color="#E7D1A2" stop-opacity="0"/>
<stop offset="0.3162" stop-color="#E7D1A2" stop-opacity="0"/>
<stop offset="0.5616" stop-color="#E7D1A2" stop-opacity="0"/>
<stop offset="0.6393" stop-color="#D7BB97" stop-opacity="0.1419"/>
<stop offset="0.8016" stop-color="#AE827A" stop-opacity="0.438"/>
<stop offset="1" stop-color="#763452" stop-opacity="0.8"/>
</linearGradient>
<linearGradient id="paint2_linear_938_23110" x1="11.1136" y1="40.2782" x2="16.1136" y2="40.2782" gradientUnits="userSpaceOnUse">
<stop stop-color="#763452"/>
<stop offset="0.1008" stop-color="#9E6B6E"/>
<stop offset="0.1956" stop-color="#BD9784"/>
<stop offset="0.2801" stop-color="#D4B795"/>
<stop offset="0.3511" stop-color="#E2CA9E"/>
<stop offset="0.4" stop-color="#E7D1A2"/>
<stop offset="0.4856" stop-color="#E4CCA0"/>
<stop offset="0.5828" stop-color="#DABF99"/>
<stop offset="0.6855" stop-color="#C9A88D"/>
<stop offset="0.7922" stop-color="#B3887D"/>
<stop offset="0.9008" stop-color="#956068"/>
<stop offset="1" stop-color="#763452"/>
</linearGradient>
<radialGradient id="paint3_radial_938_23110" cx="0" cy="0" r="1" gradientUnits="userSpaceOnUse" gradientTransform="translate(15.6872 10.9844) rotate(-34.5912) scale(16.101)">
<stop offset="0.3064" stop-color="#763452"/>
<stop offset="0.3837" stop-color="#9E6B6E"/>
<stop offset="0.4565" stop-color="#BD9784"/>
<stop offset="0.5214" stop-color="#D4B795"/>
<stop offset="0.5759" stop-color="#E2CA9E"/>
<stop offset="0.6135" stop-color="#E7D1A2"/>
<stop offset="0.6675" stop-color="#E4CCA0"/>
<stop offset="0.7289" stop-color="#DABF99"/>
<stop offset="0.7938" stop-color="#C9A88D"/>
<stop offset="0.8611" stop-color="#B3887D"/>
<stop offset="0.9297" stop-color="#956068"/>
<stop offset="0.9924" stop-color="#763452"/>
</radialGradient>
<linearGradient id="paint4_linear_938_23110" x1="6.41592" y1="6.70283" x2="10.949" y2="1.20531" gradientUnits="userSpaceOnUse">
<stop stop-opacity="0"/>
<stop offset="0.9" stop-color="white"/>
</linearGradient>
<radialGradient id="paint5_radial_938_23110" cx="0" cy="0" r="1" gradientTransform="matrix(-4.49932 5.23897 4.04007 3.46962 7.08687 6.65369)" gradientUnits="userSpaceOnUse">
<stop offset="0.1997" stop-color="#E7D1A2"/>
<stop offset="0.4075" stop-color="#CDAC8F"/>
<stop offset="0.8678" stop-color="#8A5060"/>
<stop offset="1" stop-color="#763452"/>
</radialGradient>
<linearGradient id="paint6_linear_938_23110" x1="41.461" y1="69.0906" x2="29.4243" y2="69.0906" gradientUnits="userSpaceOnUse">
<stop stop-color="#763452"/>
<stop offset="0.0316" stop-color="#966169"/>
<stop offset="0.0653" stop-color="#B3897D"/>
<stop offset="0.0984" stop-color="#CAA88D"/>
<stop offset="0.1304" stop-color="#DABF99"/>
<stop offset="0.1607" stop-color="#E4CCA0"/>
<stop offset="0.1877" stop-color="#E7D1A2"/>
<stop offset="0.6987" stop-color="#E7D1A2"/>
<stop offset="0.746" stop-color="#E4CDA0"/>
<stop offset="0.7942" stop-color="#DBC19A"/>
<stop offset="0.8429" stop-color="#CDAC8F"/>
<stop offset="0.8918" stop-color="#B89081"/>
<stop offset="0.941" stop-color="#9D6B6E"/>
<stop offset="0.9898" stop-color="#7D3E57"/>
<stop offset="1" stop-color="#763452"/>
</linearGradient>
<linearGradient id="paint7_linear_938_23110" x1="35.4426" y1="82.2727" x2="35.4426" y2="55.9086" gradientUnits="userSpaceOnUse">
<stop stop-color="#763452"/>
<stop offset="0.0466" stop-color="#976169" stop-opacity="0.8299"/>
<stop offset="0.0955" stop-color="#B3897D" stop-opacity="0.6516"/>
<stop offset="0.1437" stop-color="#CAA88D" stop-opacity="0.4759"/>
<stop offset="0.1902" stop-color="#DABF99" stop-opacity="0.306"/>
<stop offset="0.2345" stop-color="#E4CCA0" stop-opacity="0.1443"/>
<stop offset="0.2741" stop-color="#E7D1A2" stop-opacity="0"/>
<stop offset="0.3162" stop-color="#E7D1A2" stop-opacity="0"/>
<stop offset="0.5616" stop-color="#E7D1A2" stop-opacity="0"/>
<stop offset="0.6393" stop-color="#D7BB97" stop-opacity="0.1419"/>
<stop offset="0.8016" stop-color="#AE827A" stop-opacity="0.438"/>
<stop offset="1" stop-color="#763452" stop-opacity="0.8"/>
</linearGradient>
<linearGradient id="paint8_linear_938_23110" x1="37.9426" y1="40.2784" x2="32.9426" y2="40.2784" gradientUnits="userSpaceOnUse">
<stop stop-color="#763452"/>
<stop offset="0.1008" stop-color="#9E6B6E"/>
<stop offset="0.1956" stop-color="#BD9784"/>
<stop offset="0.2801" stop-color="#D4B795"/>
<stop offset="0.3511" stop-color="#E2CA9E"/>
<stop offset="0.4" stop-color="#E7D1A2"/>
<stop offset="0.4856" stop-color="#E4CCA0"/>
<stop offset="0.5828" stop-color="#DABF99"/>
<stop offset="0.6855" stop-color="#C9A88D"/>
<stop offset="0.7922" stop-color="#B3887D"/>
<stop offset="0.9008" stop-color="#956068"/>
<stop offset="1" stop-color="#763452"/>
</linearGradient>
<radialGradient id="paint9_radial_938_23110" cx="0" cy="0" r="1" gradientUnits="userSpaceOnUse" gradientTransform="translate(33.3939 11.005) rotate(-145.409) scale(16.101)">
<stop offset="0.3064" stop-color="#763452"/>
<stop offset="0.3837" stop-color="#9E6B6E"/>
<stop offset="0.4565" stop-color="#BD9784"/>
<stop offset="0.5214" stop-color="#D4B795"/>
<stop offset="0.5759" stop-color="#E2CA9E"/>
<stop offset="0.6135" stop-color="#E7D1A2"/>
<stop offset="0.6675" stop-color="#E4CCA0"/>
<stop offset="0.7289" stop-color="#DABF99"/>
<stop offset="0.7938" stop-color="#C9A88D"/>
<stop offset="0.8611" stop-color="#B3887D"/>
<stop offset="0.9297" stop-color="#956068"/>
<stop offset="0.9924" stop-color="#763452"/>
</radialGradient>
<linearGradient id="paint10_linear_938_23110" x1="42.6404" y1="6.70283" x2="38.1074" y2="1.20531" gradientUnits="userSpaceOnUse">
<stop stop-opacity="0"/>
<stop offset="0.9" stop-color="white"/>
</linearGradient>
<radialGradient id="paint11_radial_938_23110" cx="0" cy="0" r="1" gradientTransform="matrix(4.49932 5.23897 -4.04007 3.46962 41.9633 6.61446)" gradientUnits="userSpaceOnUse">
<stop offset="0.1997" stop-color="#E7D1A2"/>
<stop offset="0.4075" stop-color="#CDAC8F"/>
<stop offset="0.8678" stop-color="#8A5060"/>
<stop offset="1" stop-color="#763452"/>
</radialGradient>
</defs>
</svg>
