<svg width="109" height="24" viewBox="0 0 109 24" fill="none" xmlns="http://www.w3.org/2000/svg">
<g id="R-ICO-012410">
<g id="ALDOSTERONE">
<g id="LEFT_CORNER">
<mask id="mask0_938_24629" style="mask-type:luminance" maskUnits="userSpaceOnUse" x="0" y="0" width="11" height="24">
<rect id="MASK" width="10" height="24" transform="matrix(-1 0 0 1 10.5 0)" fill="white"/>
</mask>
<g mask="url(#mask0_938_24629)">
<g id="CORNER">
<mask id="path-2-outside-1_938_24629" maskUnits="userSpaceOnUse" x="0.5" y="0" width="12" height="24" fill="black">
<rect fill="white" x="0.5" width="12" height="24"/>
<path d="M2.5 12C2.5 12 6.54738 5.90524 8.5 2H10.5V22H8.5C6.54738 18.0948 2.5 12 2.5 12Z"/>
</mask>
<path d="M2.5 12C2.5 12 6.54738 5.90524 8.5 2H10.5V22H8.5C6.54738 18.0948 2.5 12 2.5 12Z" fill="url(#paint0_linear_938_24629)"/>
<path d="M2.5 12C2.5 12 6.54738 5.90524 8.5 2H10.5V22H8.5C6.54738 18.0948 2.5 12 2.5 12Z" stroke="#CA154F" stroke-width="4" stroke-miterlimit="3.99933" stroke-linejoin="round" mask="url(#path-2-outside-1_938_24629)"/>
</g>
</g>
</g>
<g id="RIGHT CORNER">
<mask id="mask1_938_24629" style="mask-type:luminance" maskUnits="userSpaceOnUse" x="98" y="0" width="11" height="24">
<rect id="MASK_2" width="10" height="24" transform="matrix(1 -8.74228e-08 -8.74228e-08 -1 98.5 24)" fill="white"/>
</mask>
<g mask="url(#mask1_938_24629)">
<g id="CORNER_2">
<mask id="path-4-outside-2_938_24629" maskUnits="userSpaceOnUse" x="96.5" y="0" width="12" height="24" fill="black">
<rect fill="white" x="96.5" width="12" height="24"/>
<path d="M106.5 12C106.5 12 102.453 5.90524 100.5 2H98.5V22H100.5C102.453 18.0948 106.5 12 106.5 12Z"/>
</mask>
<path d="M106.5 12C106.5 12 102.453 5.90524 100.5 2H98.5V22H100.5C102.453 18.0948 106.5 12 106.5 12Z" fill="url(#paint1_linear_938_24629)"/>
<path d="M106.5 12C106.5 12 102.453 5.90524 100.5 2H98.5V22H100.5C102.453 18.0948 106.5 12 106.5 12Z" stroke="#CA154F" stroke-width="4" stroke-miterlimit="3.99933" stroke-linejoin="round" mask="url(#path-4-outside-2_938_24629)"/>
</g>
</g>
</g>
<g id="centre">
<mask id="path-5-outside-3_938_24629" maskUnits="userSpaceOnUse" x="8" y="0" width="93" height="24" fill="black">
<rect fill="white" x="8" width="93" height="24"/>
<path d="M8 2H101V22H8V2Z"/>
</mask>
<path d="M8 2H101V22H8V2Z" fill="url(#paint2_linear_938_24629)"/>
<path d="M8 2V4H101V2V0H8V2ZM101 22V20H8V22V24H101V22Z" fill="#CA154F" mask="url(#path-5-outside-3_938_24629)"/>
<text id="Chemical" fill="white" xml:space="preserve" style="white-space: pre" font-family="Arial" font-size="12" font-weight="bold" letter-spacing="0em"><tspan x="8.47461" y="16.1602">ALDOSTERONE</tspan></text>
</g>
</g>
</g>
<defs>
<linearGradient id="paint0_linear_938_24629" x1="6.5" y1="2" x2="6.5" y2="22" gradientUnits="userSpaceOnUse">
<stop stop-color="#CA154F"/>
<stop offset="1" stop-color="#43C0E1"/>
</linearGradient>
<linearGradient id="paint1_linear_938_24629" x1="102.5" y1="2" x2="102.5" y2="22" gradientUnits="userSpaceOnUse">
<stop stop-color="#CA154F"/>
<stop offset="1" stop-color="#43C0E1"/>
</linearGradient>
<linearGradient id="paint2_linear_938_24629" x1="54.5" y1="2" x2="54.5" y2="22" gradientUnits="userSpaceOnUse">
<stop stop-color="#CA154F"/>
<stop offset="1" stop-color="#43C0E1"/>
</linearGradient>
</defs>
</svg>
