<svg width="218" height="217" viewBox="0 0 218 217" fill="none" xmlns="http://www.w3.org/2000/svg">
<g id="R-ICO-014916">
<g id="FRAGMENTS">
<path id="Vector" d="M167.87 49.7836C135.434 17.3472 82.6554 17.3467 50.2191 49.7832L47.3625 35.0988L32.3796 31.9438C74.6523 -10.329 143.436 -10.329 185.709 31.9442L182.55 46.926L167.87 49.7836Z" fill="url(#paint0_linear_938_71747)"/>
<path id="Vector_2" d="M32.3796 185.274C-9.89354 143.001 -9.89354 74.217 32.3796 31.9438L47.3625 35.0988L50.219 49.7833C17.7825 82.2196 17.7825 134.998 50.219 167.435L35.5351 170.286L32.3796 185.274Z" fill="url(#paint1_linear_938_71747)"/>
<path id="Vector_3" d="M185.71 185.274C143.437 227.547 74.6528 227.547 32.3796 185.274L35.5351 170.286L50.2191 167.435C82.6556 199.871 135.434 199.871 167.871 167.435L170.722 182.113L185.71 185.274Z" fill="url(#paint2_linear_938_71747)"/>
<path id="Vector_4" d="M185.709 31.9437C227.982 74.2169 227.982 143.001 185.709 185.274L170.726 182.119L167.87 167.435C200.306 134.998 200.306 82.2195 167.87 49.783L182.554 46.9318L185.709 31.9437Z" fill="url(#paint3_linear_938_71747)"/>
</g>
<g id="TEXT">
<text id="M" fill="white" xml:space="preserve" style="white-space: pre" font-family="Arial" font-size="12.0001" font-weight="bold" letter-spacing="0em"><tspan x="101.722" y="17.8296">M</tspan></text>
<text id="S" fill="white" xml:space="preserve" style="white-space: pre" font-family="Arial" font-size="12.0001" font-weight="bold" letter-spacing="0em"><tspan x="102.718" y="206.239">S</tspan></text>
<text id="G1" fill="white" xml:space="preserve" style="white-space: pre" font-family="Arial" font-size="12.0001" font-weight="bold" letter-spacing="0em"><tspan x="196.785" y="112.064">G1</tspan></text>
<text id="G2" fill="white" xml:space="preserve" style="white-space: pre" font-family="Arial" font-size="12.0001" font-weight="bold" letter-spacing="0em"><tspan x="5.27222" y="112.063">G2</tspan></text>
</g>
<g id="CYCLE CHECKPOINTS">
<path id="Vector_5" d="M54.1647 15.1063C59.8894 11.7459 65.8886 8.93342 72.0763 6.68652L80.7347 30.3728C75.9876 32.0951 71.385 34.2513 66.9928 36.8276L54.1647 15.1063Z" fill="url(#paint4_linear_938_71747)"/>
<path id="Vector_6" d="M40.198 61.8879C37.3057 66.1474 34.8521 70.6179 32.8372 75.2353L9.7077 65.158C12.3307 59.1403 15.5253 53.3139 19.2914 47.7622L40.198 61.8879Z" fill="url(#paint5_linear_938_71747)"/>
<path id="Vector_7" d="M178.079 155.045C180.949 150.783 183.381 146.312 185.377 141.695L208.506 151.772C205.903 157.789 202.729 163.616 198.986 169.171L178.079 155.045Z" fill="url(#paint6_linear_938_71747)"/>
</g>
</g>
<defs>
<linearGradient id="paint0_linear_938_71747" x1="185.709" y1="25.0115" x2="32.3795" y2="25.0115" gradientUnits="userSpaceOnUse">
<stop stop-color="#F6783E"/>
<stop offset="0.1604" stop-color="#F67C43"/>
<stop offset="0.3589" stop-color="#F68652"/>
<stop offset="0.5773" stop-color="#F6976C"/>
<stop offset="0.8085" stop-color="#F6AF8E"/>
<stop offset="1" stop-color="#F6C7B1"/>
</linearGradient>
<linearGradient id="paint1_linear_938_71747" x1="25.4469" y1="31.9438" x2="25.4469" y2="185.274" gradientUnits="userSpaceOnUse">
<stop stop-color="#F6783E"/>
<stop offset="0.1604" stop-color="#F67C43"/>
<stop offset="0.3589" stop-color="#F68652"/>
<stop offset="0.5773" stop-color="#F6976C"/>
<stop offset="0.8085" stop-color="#F6AF8E"/>
<stop offset="1" stop-color="#F6C7B1"/>
</linearGradient>
<linearGradient id="paint2_linear_938_71747" x1="32.3795" y1="192.207" x2="185.71" y2="192.207" gradientUnits="userSpaceOnUse">
<stop stop-color="#F6783E"/>
<stop offset="0.1604" stop-color="#F67C43"/>
<stop offset="0.3589" stop-color="#F68652"/>
<stop offset="0.5773" stop-color="#F6976C"/>
<stop offset="0.8085" stop-color="#F6AF8E"/>
<stop offset="1" stop-color="#F6C7B1"/>
</linearGradient>
<linearGradient id="paint3_linear_938_71747" x1="192.642" y1="185.274" x2="192.642" y2="31.9437" gradientUnits="userSpaceOnUse">
<stop stop-color="#F6783E"/>
<stop offset="0.1604" stop-color="#F67C43"/>
<stop offset="0.3589" stop-color="#F68652"/>
<stop offset="0.5773" stop-color="#F6976C"/>
<stop offset="0.8085" stop-color="#F6AF8E"/>
<stop offset="1" stop-color="#F6C7B1"/>
</linearGradient>
<linearGradient id="paint4_linear_938_71747" x1="59.4223" y1="26.1172" x2="77.5382" y2="18.0385" gradientUnits="userSpaceOnUse">
<stop stop-color="#8776E3"/>
<stop offset="1" stop-color="#3A2C85"/>
</linearGradient>
<linearGradient id="paint5_linear_938_71747" x1="20.7689" y1="70.556" x2="30.2262" y2="53.6552" gradientUnits="userSpaceOnUse">
<stop stop-color="#8776E3"/>
<stop offset="1" stop-color="#3A2C85"/>
</linearGradient>
<linearGradient id="paint6_linear_938_71747" x1="188.946" y1="162.642" x2="197.739" y2="144.116" gradientUnits="userSpaceOnUse">
<stop stop-color="#3A2C85"/>
<stop offset="1" stop-color="#8776E3"/>
</linearGradient>
</defs>
</svg>
