<svg width="31" height="151" viewBox="0 0 31 151" fill="none" xmlns="http://www.w3.org/2000/svg">
<g id="R-ICO-013939">
<path id="BG" d="M30.1346 97.1175C30.1346 110.086 28.0358 150.049 15.0673 150.049C2.0988 150.049 0 110.086 0 97.1175C0 84.149 2.0988 65.2217 15.0673 65.2217C28.0358 65.2217 30.1346 84.149 30.1346 97.1175Z" fill="url(#paint0_radial_938_25205)"/>
<path id="Membrane" d="M15.0673 66.2217C21.4847 66.2217 29.1346 71.5818 29.1346 97.1175C29.1346 104.861 28.4396 117.665 26.4808 128.265C24.7287 137.746 21.3262 149.049 15.0673 149.049C8.8084 149.049 5.4059 137.746 3.6538 128.265C1.695 117.665 1 104.861 1 97.1175C1 71.5818 8.6499 66.2217 15.0673 66.2217ZM15.0673 65.2217C2.0988 65.2217 0 84.149 0 97.1175C0 110.086 2.0988 150.049 15.0673 150.049C28.0358 150.049 30.1346 110.086 30.1346 97.1175C30.1346 84.149 28.0358 65.2217 15.0673 65.2217Z" fill="#276FE2"/>
<g id="R-ICO-013121">
<g id="Nucleus">
<mask id="path-3-inside-1_938_25205" fill="white">
<path d="M17.4723 122.024C21.1229 122.024 24.0823 119.064 24.0823 115.414C24.0823 111.763 21.1229 108.804 17.4723 108.804C13.8217 108.804 10.8623 111.763 10.8623 115.414C10.8623 119.064 13.8217 122.024 17.4723 122.024Z"/>
</mask>
<path d="M17.4723 122.024C21.1229 122.024 24.0823 119.064 24.0823 115.414C24.0823 111.763 21.1229 108.804 17.4723 108.804C13.8217 108.804 10.8623 111.763 10.8623 115.414C10.8623 119.064 13.8217 122.024 17.4723 122.024Z" fill="url(#paint1_radial_938_25205)" stroke="#5656A5" stroke-width="0.9915" mask="url(#path-3-inside-1_938_25205)"/>
</g>
<g id="R-ICO-013619">
<g id="Nucleolus">
<mask id="path-4-inside-2_938_25205" fill="white">
<path d="M14.3638 119.442C15.0026 119.442 15.5205 118.925 15.5205 118.286C15.5205 117.647 15.0026 117.129 14.3638 117.129C13.7249 117.129 13.207 117.647 13.207 118.286C13.207 118.925 13.7249 119.442 14.3638 119.442Z"/>
</mask>
<path d="M14.3638 119.442C15.0026 119.442 15.5205 118.925 15.5205 118.286C15.5205 117.647 15.0026 117.129 14.3638 117.129C13.7249 117.129 13.207 117.647 13.207 118.286C13.207 118.925 13.7249 119.442 14.3638 119.442Z" fill="url(#paint2_radial_938_25205)" stroke="#4B4C96" stroke-width="0.23135" mask="url(#path-4-inside-2_938_25205)"/>
</g>
</g>
</g>
<path id="KINETOPLAST" d="M15.0671 89.2725C17.3154 89.2725 19.1381 88.2641 19.1381 87.0203C19.1381 85.7764 17.3154 84.7681 15.0671 84.7681C12.8187 84.7681 10.9961 85.7764 10.9961 87.0203C10.9961 88.2641 12.8187 89.2725 15.0671 89.2725Z" fill="url(#paint3_radial_938_25205)"/>
<path id="Flagellar pocket" d="M15.0671 80.8718C17.4438 80.8718 19.3705 78.3856 19.3705 75.3187C19.3705 72.2518 17.4438 69.7656 15.0671 69.7656C12.6904 69.7656 10.7637 72.2518 10.7637 75.3187C10.7637 78.3856 12.6904 80.8718 15.0671 80.8718Z" fill="url(#paint4_radial_938_25205)"/>
<path id="FLAGELLUM" d="M27.1123 0.0799367C23.0653 5.74574 20.8705 12.4369 19.38 19.1486C17.883 25.8867 17.0473 32.7625 16.5653 39.6563C16.0788 46.5538 16.0518 53.4793 16.1719 60.3982C16.2353 63.8593 16.3545 67.3182 16.5027 70.7884L16.6993 75.9924C16.7494 76.8141 16.7886 77.6353 16.9966 78.3753C17.2154 79.1194 17.4932 79.7573 18.3814 80.0628C20.3736 80.748 21.4331 82.9184 20.7479 84.9106C20.0627 86.9028 17.8923 87.9623 15.9001 87.2771C14.1447 86.6733 13.1134 84.9164 13.3619 83.1443L13.4962 82.1867C13.6751 80.9043 13.5378 79.8385 13.5201 78.8644C13.4835 77.8847 13.4398 76.9678 13.4501 76.0545C13.5059 74.2695 13.5033 72.5964 13.5149 70.8416C13.5346 67.3678 13.5471 63.8819 13.614 60.3976C13.7354 53.4273 14.1093 46.456 14.7564 39.5078C15.4192 32.5651 16.4215 25.6265 18.2112 18.8618C19.1258 15.4879 20.2293 12.158 21.6415 8.95784C23.0451 5.75964 24.7979 2.69164 27.0338 0.0179367C27.0515 -0.00326334 27.0831 -0.00606334 27.1043 0.0116367C27.1243 0.0287367 27.1273 0.0589367 27.1123 0.0799367Z" fill="url(#paint5_linear_938_25205)"/>
</g>
<defs>
<radialGradient id="paint0_radial_938_25205" cx="0" cy="0" r="1" gradientUnits="userSpaceOnUse" gradientTransform="translate(15.0673 107.631) scale(26.7694 37.8037)">
<stop stop-color="#A0C2F2"/>
<stop offset="1" stop-color="#21549B"/>
</radialGradient>
<radialGradient id="paint1_radial_938_25205" cx="0" cy="0" r="1" gradientUnits="userSpaceOnUse" gradientTransform="translate(15.7536 112.661) scale(8.68758)">
<stop stop-color="#AFBAF7"/>
<stop offset="0.3111" stop-color="#6D96CE"/>
<stop offset="0.8032" stop-color="#285FCC"/>
</radialGradient>
<radialGradient id="paint2_radial_938_25205" cx="0" cy="0" r="1" gradientUnits="userSpaceOnUse" gradientTransform="translate(14.3646 118.289) rotate(-15.5149) scale(1.43566)">
<stop stop-color="#B0B7DC"/>
<stop offset="0.3" stop-color="#B697C6"/>
<stop offset="0.8032" stop-color="#525281"/>
</radialGradient>
<radialGradient id="paint3_radial_938_25205" cx="0" cy="0" r="1" gradientUnits="userSpaceOnUse" gradientTransform="translate(15.0671 87.0172) scale(4.0749 2.2575)">
<stop stop-color="#3874FF"/>
<stop offset="1" stop-color="#002884"/>
</radialGradient>
<radialGradient id="paint4_radial_938_25205" cx="0" cy="0" r="1" gradientUnits="userSpaceOnUse" gradientTransform="translate(15.0671 75.3187) scale(4.9677)">
<stop stop-color="#FF389F"/>
<stop offset="1" stop-color="#840044"/>
</radialGradient>
<linearGradient id="paint5_linear_938_25205" x1="20.2234" y1="83.7884" x2="20.2234" y2="-2.61437" gradientUnits="userSpaceOnUse">
<stop offset="0.0006" stop-color="#03103D"/>
<stop offset="1" stop-color="#082799"/>
</linearGradient>
</defs>
</svg>
