<svg width="68" height="68" viewBox="0 0 68 68" fill="none" xmlns="http://www.w3.org/2000/svg">
<g id="R-ICO-013306">
<path id="50S" d="M49.2134 17.3899C67.9282 36.1047 56.5098 51.4501 49.2134 57.4787C38.1432 68.5489 22.0037 72.0825 9.12464 57.4787C-4.09036 42.4939 -1.94556 28.4601 9.12464 17.3899C20.1948 6.31973 38.1432 6.31973 49.2134 17.3899Z" fill="url(#paint0_radial_938_25277)"/>
<path id="30S" d="M58.8866 11.8659C69.284 27.723 71.2675 35.6835 60.1973 46.7537C46.2129 60.7381 34.3781 66.3078 18.6514 44.1858C9.58022 31.4259 2.81862 20.1106 20.1085 6.66489C32.4669 -2.94591 49.17 -2.95281 58.8866 11.8659Z" fill="url(#paint1_radial_938_25277)"/>
</g>
<defs>
<radialGradient id="paint0_radial_938_25277" cx="0" cy="0" r="1" gradientTransform="matrix(20.7515 31.2322 -23.3201 15.4943 28.848 29.2866)" gradientUnits="userSpaceOnUse">
<stop stop-color="#FFA3B5"/>
<stop offset="0.786" stop-color="#D85972"/>
<stop offset="1" stop-color="#873243"/>
</radialGradient>
<radialGradient id="paint1_radial_938_25277" cx="0" cy="0" r="1" gradientTransform="matrix(20.9758 33.4373 -30.2914 19.0061 44.6153 17.4884)" gradientUnits="userSpaceOnUse">
<stop stop-color="#FFA3B5"/>
<stop offset="0.786" stop-color="#D85972"/>
<stop offset="1" stop-color="#873243"/>
</radialGradient>
</defs>
</svg>
