<svg width="55" height="23" viewBox="0 0 55 23" fill="none" xmlns="http://www.w3.org/2000/svg">
<g id="R-ICO-013230">
<g id="PRKCI">
<path d="M1.09082 11.4988C1.09082 5.97593 5.56797 1.49878 11.0908 1.49878H43.0908C48.6137 1.49878 53.0908 5.97593 53.0908 11.4988C53.0908 17.0216 48.6137 21.4988 43.0908 21.4988H11.0908C5.56797 21.4988 1.09082 17.0216 1.09082 11.4988Z" fill="url(#paint0_linear_938_23535)"/>
<path d="M42.7992 2.99143C32.2297 2.87321 21.6603 2.52161 11.0908 1.63878C11.0908 1.54542 11.0908 1.45206 11.0908 1.35869C21.6603 0.475869 32.2297 0.124265 42.7992 0.00604033C42.8964 0.00534546 42.9936 0.00470304 43.0908 0.00411201C49.1808 -0.171681 54.5771 5.37343 54.4061 11.3337C54.4062 11.3887 54.4058 11.4437 54.405 11.4988C54.4679 17.556 48.8179 22.7034 43.0913 22.2646C43.0911 22.2646 43.091 22.2646 43.0908 22.2646C37.8062 22.0209 32.5211 21.8454 27.2366 21.9518C21.9519 22.0547 16.6667 22.4633 11.382 22.6636C11.2849 22.6666 11.1879 22.6695 11.0908 22.6723C5.16251 22.9825 -0.233474 17.5105 0.00777447 11.661C0.00843263 11.607 0.00948894 11.5529 0.0109456 11.4988C0.014858 5.55839 5.68855 0.67393 11.0908 1.35869C11.0908 1.45206 11.0908 1.54542 11.0908 1.63878C5.84009 2.06436 1.90742 6.78596 2.17061 11.4988C2.17207 11.5426 2.17383 11.5863 2.17589 11.6298C2.32039 16.3279 6.47079 20.2667 11.0908 20.3253C11.1879 20.3281 11.2849 20.331 11.382 20.334C16.6667 20.5344 21.9519 20.9415 27.2366 21.0445C32.5212 21.1508 37.8062 20.9767 43.0908 20.733C43.091 20.733 43.0911 20.733 43.0912 20.733C48.0176 20.5526 51.9728 16.0945 51.7767 11.4988C51.7759 11.4562 51.7749 11.4138 51.7735 11.3714C51.6998 6.78398 47.5492 2.9177 43.0908 2.99338C42.9936 2.99278 42.8964 2.99213 42.7992 2.99143Z" fill="#FF6369"/>
<text id="PRKCI_2" fill="white" xml:space="preserve" style="white-space: pre" font-family="Arial" font-size="12" font-weight="bold" letter-spacing="0em"><tspan x="8.41113" y="15.6589">PRKCI</tspan></text>
</g>
</g>
<defs>
<linearGradient id="paint0_linear_938_23535" x1="27.0908" y1="1.49878" x2="27.0908" y2="21.4988" gradientUnits="userSpaceOnUse">
<stop stop-color="#00587A"/>
<stop offset="1" stop-color="#FF6369"/>
</linearGradient>
</defs>
</svg>
