<svg width="127" height="51" viewBox="0 0 127 51" fill="none" xmlns="http://www.w3.org/2000/svg">
<g id="R-ICO-013480">
<path id="RIGHT" opacity="0.3" d="M114.369 49.62C120.534 49.62 125.532 38.6242 125.532 25.0601C125.532 11.4961 120.534 0.500244 114.369 0.500244C108.203 0.500244 103.205 11.4961 103.205 25.0601C103.205 38.6242 108.203 49.62 114.369 49.62Z" fill="#5EAF1E"/>
<g id="R-ICO-013884">
<path id="Vector" d="M44.5161 13.0598C35.2161 13.0598 35.0161 37.0598 26.9161 37.0598H24.0161C32.2161 37.0598 32.3161 13.0598 41.6161 13.0598H44.5161Z" fill="#B89310"/>
<path id="Vector_2" d="M79.6769 13.0598C70.3769 13.0598 70.21 37.0598 62.11 37.0598H59.21C67.41 37.0598 67.5038 13.0598 76.8038 13.0598H79.6769Z" fill="#B89310"/>
<path id="Vector_3" d="M114.864 13.0598C105.564 13.0598 105.471 37.0598 97.2706 37.0598H94.3706C102.571 37.0598 102.664 13.0598 111.964 13.0598H114.864Z" fill="#B89310"/>
<g id="Group">
<path id="Vector_4" d="M9.91602 37.0598C17.816 36.3598 18.216 13.1598 27.416 13.0598H30.316C21.016 13.0598 20.816 37.0598 12.616 37.0598H9.91602Z" fill="#0B6770"/>
<path id="Vector_5" d="M47.9098 37.0598C38.6098 37.0598 38.5161 13.0598 30.316 13.0598H27.416C35.616 13.0598 35.6098 37.0598 45.0098 37.0598H47.9098Z" fill="#0B6770"/>
<path id="Vector_6" d="M65.5036 13.0598C56.2036 13.0598 56.0098 37.0598 47.9098 37.0598H45.0098C53.2098 37.0598 53.3035 13.0598 62.6036 13.0598H65.5036Z" fill="#0B6770"/>
<path id="Vector_7" d="M83.0704 37.0598C73.7704 37.0598 73.7035 13.0598 65.5035 13.0598H62.6035C70.8035 13.0598 70.7704 37.0598 80.1704 37.0598H83.0704Z" fill="#0B6770"/>
<path id="Vector_8" d="M100.664 13.0598C91.3642 13.0598 91.1705 37.0598 83.0704 37.0598H80.1704C88.3704 37.0598 88.4642 13.0598 97.7642 13.0598H100.664Z" fill="#0B6770"/>
<path id="Vector_9" d="M116.216 36.2598C109.016 32.7598 108.164 13.0598 100.664 13.0598H97.7642C105.964 13.0598 106.116 37.0598 115.516 37.0598H116.116V36.2598H116.216Z" fill="#0B6770"/>
<path id="Vector_10" d="M9.81641 37.0599H12.2164C11.4164 37.0599 10.5164 36.9599 9.81641 36.5599V37.0599Z" fill="#A20E40"/>
</g>
<g id="Group_2">
<path id="Vector_11" d="M9.91621 19.3598C11.6162 15.7598 13.8162 13.0598 16.9162 13.0598H19.8162C14.8162 13.0598 12.0162 20.6598 9.61621 26.4598V20.1598L9.91621 19.3598Z" fill="#0B6770"/>
<path id="Vector_12" d="M37.416 37.0598C28.116 37.0598 28.016 13.0598 19.816 13.0598H16.916C25.116 13.0598 25.116 37.0598 34.516 37.0598H37.416Z" fill="#0B6770"/>
<path id="Vector_13" d="M55.0161 13.0598C45.7161 13.0598 45.5161 37.0598 37.4161 37.0598H34.5161C42.7161 37.0598 42.8098 13.0598 52.1099 13.0598H55.0161Z" fill="#0B6770"/>
<path id="Vector_14" d="M72.6037 37.0598C63.3037 37.0598 63.2162 13.0598 55.0162 13.0598H52.1099C60.3099 13.0598 60.3036 37.0598 69.7037 37.0598H72.6037Z" fill="#0B6770"/>
<path id="Vector_15" d="M90.1705 13.0598C80.8705 13.0598 80.7036 37.0598 72.6036 37.0598H69.7036C77.9036 37.0598 77.9705 13.0598 87.2705 13.0598H90.1705Z" fill="#0B6770"/>
<path id="Vector_16" d="M107.764 37.0598C98.4643 37.0598 98.2705 13.0598 90.1705 13.0598H87.2705C95.4705 13.0598 95.4643 37.0598 104.864 37.0598H107.764Z" fill="#0B6770"/>
<path id="Vector_17" d="M116.416 26.4598C114.316 31.9598 111.564 37.0598 107.764 37.0598H104.864C110.364 37.0598 112.416 26.9598 116.316 20.0598V26.4598H116.416Z" fill="#0B6770"/>
</g>
<path id="Vector_18" d="M9.61621 14.8598C14.5162 20.6598 16.3162 37.0598 24.0162 37.0598H26.9162C17.9162 37.0598 17.3162 14.6598 9.91621 13.0598H9.61621V14.8598Z" fill="#B89310"/>
<path id="Vector_19" d="M62.11 37.0598C52.81 37.0598 52.7162 13.0598 44.5162 13.0598H41.6162C49.8162 13.0598 49.8099 37.0598 59.21 37.0598H62.11Z" fill="#B89310"/>
<path id="Vector_20" d="M97.2706 37.0598C87.9706 37.0598 87.7768 13.0598 79.6768 13.0598H76.8037C85.0037 13.0598 84.9706 37.0598 94.3706 37.0598H97.2706Z" fill="#B89310"/>
<path id="Vector_21" d="M116.216 13.3598C116.016 13.1598 115.364 13.0598 114.864 13.0598H111.964C113.464 13.0598 115.216 13.8598 116.216 15.1598V13.3598Z" fill="#B89310"/>
</g>
<path id="TOP" opacity="0.51" d="M114.369 0.000244141H11.6683C18.2065 0.00544414 23.3272 11.0111 23.3272 25.06C23.3272 39.1118 18.2042 50.1196 11.6636 50.1196L114.369 50.1198C120.909 50.1198 126.032 39.1125 126.032 25.0602C126.032 11.2419 120.8 0.000244141 114.369 0.000244141Z" fill="url(#paint0_linear_938_24353)"/>
<path id="LEFT" opacity="0.3" d="M11.6682 0.0002L11.6636 0C5.123 0 0 11.0078 0 25.0601C0 39.1119 5.123 50.1197 11.6636 50.1197C18.2042 50.1197 23.3272 39.1119 23.3272 25.0601C23.3271 11.0112 18.2064 0.0055 11.6682 0.0002Z" fill="#5EAF1E"/>
</g>
<defs>
<linearGradient id="paint0_linear_938_24353" x1="11.6637" y1="25.0601" x2="126.032" y2="25.0601" gradientUnits="userSpaceOnUse">
<stop stop-color="#84E51E"/>
<stop offset="0.4822" stop-color="#3E910E"/>
<stop offset="0.8313" stop-color="#115A04"/>
<stop offset="1" stop-color="#004500"/>
</linearGradient>
</defs>
</svg>
