<svg width="44" height="23" viewBox="0 0 44 23" fill="none" xmlns="http://www.w3.org/2000/svg">
<g id="R-ICO-013132">
<g id="ORC">
<path d="M1.17383 11.3955C1.17383 5.87266 5.65098 1.39551 11.1738 1.39551H32.1738C37.6967 1.39551 42.1738 5.87266 42.1738 11.3955C42.1738 16.9184 37.6967 21.3955 32.1738 21.3955H11.1738C5.65098 21.3955 1.17383 16.9184 1.17383 11.3955Z" fill="url(#paint0_linear_938_23478)"/>
<path d="M36.4066 4.01396C35.1377 3.25572 33.6746 2.8301 32.1738 2.78769C25.1738 2.60921 18.1739 2.24289 11.1738 1.53551C11.1738 1.44215 11.1738 1.34878 11.1738 1.25542C18.1739 0.54804 25.1738 0.181722 32.1738 0.00324178C34.149 -0.0450732 36.1536 0.447984 37.8945 1.42577C41.4301 3.38337 43.6748 7.40404 43.5491 11.3955C43.5298 12.382 43.3827 13.364 43.1112 14.3096C41.8134 19.1461 36.913 22.5276 32.1742 22.1614C32.1741 22.1614 32.174 22.1614 32.1738 22.1613C27.8059 21.9176 23.4375 21.7422 19.0696 21.8485C16.4378 21.9105 13.8058 22.0835 11.1738 22.255C9.29082 22.3723 7.33728 21.9821 5.6162 21.0807C2.12654 19.2709 -0.141856 15.3171 0.00670147 11.3955C0.0305438 10.4269 0.183484 9.46442 0.460786 8.54152C1.79618 3.81921 6.70229 0.645584 11.1738 1.25542C11.1738 1.34878 11.1738 1.44215 11.1738 1.53551C6.82841 2.00239 3.37047 5.27908 2.55637 9.09849C2.3873 9.85397 2.31672 10.6256 2.34087 11.3955C2.41961 14.5051 4.15272 17.4166 6.77732 19.0612C8.06611 19.896 9.58061 20.4245 11.1738 20.5356C13.8058 20.7067 16.4378 20.8792 19.0696 20.9412C23.4376 21.0476 27.8058 20.8735 32.1738 20.6298C32.1739 20.6297 32.1741 20.6297 32.1742 20.6297C36.2521 20.4059 39.7146 17.3377 40.5667 13.6332C40.7417 12.9002 40.8182 12.1479 40.7986 11.3955C40.7427 8.35557 38.9854 5.51072 36.4066 4.01396Z" fill="#22134F"/>
<text id="ORC_2" fill="white" xml:space="preserve" style="white-space: pre" font-family="Arial" font-size="12" font-weight="bold" letter-spacing="0em"><tspan x="8.33203" y="15.5557">ORC</tspan></text>
</g>
</g>
<defs>
<linearGradient id="paint0_linear_938_23478" x1="21.6738" y1="1.39551" x2="21.6738" y2="21.3955" gradientUnits="userSpaceOnUse">
<stop stop-color="#22134F"/>
<stop offset="1" stop-color="#8699C7"/>
</linearGradient>
</defs>
</svg>
