<svg width="75" height="105" viewBox="0 0 75 105" fill="none" xmlns="http://www.w3.org/2000/svg">
<g id="R-ICO-014592">
<path id="BG" d="M74.6239 60.8124C74.1649 59.912 73.3021 59.3476 72.1942 59.2216C69.6517 58.9325 68.4442 61.3896 67.7201 62.8583C67.5888 63.1239 67.4686 63.37 67.3524 63.5712C66.1795 65.5868 65.0731 67.4081 63.9701 69.1366C59.8143 75.6522 54.0468 83.8134 46.2636 89.1425C38.4428 94.497 30.2182 94.703 23.7021 89.7079C17.601 85.0312 13.3193 76.999 12.5278 68.746C12.0957 64.244 13.0791 60.3183 15.2959 57.6913C17.1558 55.4882 19.8027 54.246 23.1641 53.9999C25.4707 53.8319 27.7701 54.0204 30.2032 54.2196C32.2926 54.3915 34.4527 54.5673 36.6256 54.4989C41.3575 54.3475 56.9811 52.8729 59.3512 40.2489C60.0743 36.3973 59.2189 32.6532 56.8771 29.4218C53.9782 25.4228 49.0929 22.6191 43.8087 21.9238C41.9547 21.6806 40.2164 21.8984 38.5362 22.1103C37.1417 22.2861 35.8243 22.4492 34.5455 22.3388C34.0518 22.2949 33.7105 22.12 33.4381 21.7704C32.7355 20.869 32.5231 18.786 32.8971 16.4667C33.421 13.2167 35.1207 9.10633 38.1871 8.21473C39.7945 7.74603 41.4972 8.57513 43.1051 9.47063C44.0406 10.0409 45.2023 10.162 46.2208 9.79383C47.1925 9.44223 47.9347 8.67763 48.2564 7.69523C49.2442 4.68153 45.6446 2.58783 44.2901 1.80073C40.1895 -0.586972 35.7213 -0.600672 31.7081 1.76263C25.9039 5.17863 21.8009 13.0419 21.9522 20.4608C22.064 25.954 24.5142 30.2577 28.8511 32.577C31.4566 33.9715 34.5445 33.8954 37.5274 33.825C41.3321 33.7293 44.6226 33.6541 46.3751 36.4275C47.1139 37.5955 46.818 38.113 46.7066 38.3074C45.3545 40.6746 37.3506 41.6717 33.439 41.5642C32.2867 41.5281 31.1455 41.4685 30.0132 41.408C25.0903 41.1502 19.999 40.8816 14.8433 42.7586C6.35101 45.8505 0.68941 53.8808 0.0678098 63.7158C-0.47179 72.2588 2.22841 81.5732 7.47551 89.2724C13.1337 97.5742 20.9296 102.801 29.4272 103.99C30.7114 104.17 31.9697 104.256 33.2036 104.256C51.8115 104.255 64.6865 84.7011 70.8999 72.5136C71.0034 72.3095 71.1826 71.995 71.4062 71.5995C73.6239 67.6757 75.8842 63.2841 74.6239 60.8124Z" fill="#EDE6B7"/>
<path id="Membrane" d="M33.1975 103.756C31.9871 103.756 30.7551 103.672 29.4963 103.495C11.6599 100.999 -0.488092 80.451 0.566608 63.7469C1.17551 54.1141 6.71111 46.2508 15.0139 43.2283C20.0754 41.3845 24.8904 41.6404 29.9866 41.908C31.1228 41.9676 32.2674 42.0281 33.4231 42.0633C36.8049 42.1678 45.5667 41.3094 47.1404 38.5555C47.3792 38.1385 47.6033 37.4354 46.7976 36.16C44.8933 33.1473 41.4734 33.2284 37.5149 33.325C34.5955 33.3943 31.5759 33.4676 29.0867 32.1365C24.9163 29.9051 22.5598 25.7547 22.4519 20.451C22.304 13.202 26.3035 5.52329 31.9612 2.19319C35.8689 -0.107605 40.0447 -0.0920054 44.0379 2.23229C45.4158 3.03309 48.6429 4.90999 47.7811 7.53989C47.5077 8.37389 46.8768 9.0243 46.0506 9.3231C45.1693 9.6444 44.1663 9.53499 43.3568 9.03889C41.6547 8.08969 39.8431 7.21369 38.0472 7.73419C34.7567 8.69119 32.9505 12.993 32.4032 16.3865C32.0887 18.3367 32.0922 20.8562 33.0438 22.0779C33.4032 22.5398 33.8666 22.781 34.5013 22.8367C35.8358 22.9558 37.1766 22.7859 38.598 22.6062C40.2479 22.3972 41.951 22.1824 43.7435 22.4197C48.8939 23.0974 53.6522 25.825 56.472 29.7156C58.7313 32.8328 59.557 36.4431 58.8597 40.157C56.5578 52.4139 41.2473 53.8514 36.6091 53.9989C34.467 54.0682 32.32 53.8925 30.2439 53.7216C27.8982 53.5273 25.4705 53.33 23.1272 53.5009C19.6267 53.7577 16.8635 55.0585 14.9138 57.3691C12.6091 60.0996 11.5847 64.1572 12.03 68.7939C12.8342 77.1796 17.1902 85.3457 23.3977 90.1044C30.0964 95.2401 38.5344 95.039 46.5461 89.5546C54.4035 84.1747 60.2102 75.9608 64.3913 69.4052C65.4982 67.6708 66.6081 65.8447 67.7844 63.8222C67.906 63.6132 68.0315 63.3564 68.1682 63.079C68.8777 61.6425 69.9553 59.4618 72.1374 59.7186C73.3371 59.8543 73.9094 60.5116 74.1784 61.0399C75.3259 63.2899 73.1242 67.5428 70.9704 71.3534C70.7424 71.7567 70.5602 72.078 70.4538 72.286C64.2951 84.367 51.5456 103.753 33.1975 103.756ZM24.7243 43.7225C21.6818 43.7225 18.7028 44.0135 15.6984 45.1073C8.03931 47.8963 3.12911 54.911 2.56271 63.8739C1.56271 79.704 12.9875 99.1649 29.7736 101.514C48.8883 104.181 62.3488 83.7821 68.672 71.3778C68.7867 71.1532 68.983 70.8055 69.2296 70.369C71.8321 65.7645 72.8981 62.9315 72.3966 61.9481C72.3639 61.8836 72.295 61.7489 71.9117 61.7049C71.1773 61.616 70.5719 62.7264 69.9615 63.9637C69.8028 64.286 69.6544 64.5848 69.5128 64.828C68.3229 66.8739 67.1988 68.7235 66.0777 70.4813C61.7946 77.1961 55.8318 85.6209 47.676 91.2049C39.0334 97.1209 29.5027 97.3035 22.1809 91.6922C15.5471 86.6063 10.8948 77.9051 10.0388 68.9852C9.54221 63.8075 10.7307 59.2235 13.3855 56.079C15.6628 53.3808 18.9807 51.7997 22.9807 51.5067C25.4817 51.3192 27.9856 51.5282 30.4075 51.7274C32.428 51.8944 34.5149 52.0614 36.5457 52.0008C40.8064 51.8641 54.8675 50.5809 56.8938 39.7879C57.4871 36.6277 56.781 33.5506 54.8523 30.8895C52.386 27.4862 48.0295 25.0008 43.4822 24.4022C41.9475 24.203 40.4422 24.3885 38.8479 24.5907C37.3845 24.7753 35.8738 24.9647 34.3264 24.829C33.1496 24.7255 32.1604 24.1991 31.4656 23.3075C29.8177 21.1913 30.1912 17.5399 30.4285 16.0682C31.0994 11.908 33.3064 7.03009 37.4886 5.81429C40.0311 5.07309 42.3646 6.19519 44.3514 7.30359L44.3949 7.32899C44.6864 7.51159 45.0609 7.55459 45.3695 7.44329C45.6244 7.35049 45.7963 7.17379 45.8807 6.91689C46.2381 5.82509 43.825 4.42179 43.0321 3.96079C38.8221 1.50959 35.2406 2.58479 32.9759 3.91689C27.9847 6.85439 24.3197 13.9452 24.4515 20.4101C24.5443 24.9599 26.5252 28.498 30.0301 30.373C32.0545 31.456 34.682 31.3906 37.4666 31.3261C41.4534 31.2265 45.9783 31.12 48.4881 35.0917C49.7625 37.1073 49.4031 38.6278 48.8773 39.5478C46.2367 44.1699 33.4842 44.0556 33.3612 44.0634C32.1908 44.0263 31.0316 43.9657 29.8812 43.9052C28.1325 43.8133 26.4187 43.7225 24.7243 43.7225Z" stroke="#AFA168" stroke-width="0.5" stroke-miterlimit="10"/>
<g id="ORGANELLES">
<path id="Vector" opacity="0.6" d="M21.567 94.2315C22.5585 94.0348 23.282 94.1421 23.9463 94.3439C24.6028 94.5534 25.1663 94.9168 25.7656 95.2281C26.3549 95.5579 26.9396 95.9057 27.5278 96.2952C28.1157 96.6891 28.7104 97.1047 29.3164 97.6416L29.336 97.6589C29.6864 97.9693 29.7188 98.505 29.4084 98.8554C29.294 98.9846 29.1494 99.0704 28.9942 99.1119C28.1667 99.3346 27.3444 99.3609 26.5386 99.2951C25.7331 99.225 24.9474 99.0429 24.1946 98.779C23.4518 98.4964 22.7016 98.2022 22.0765 97.6969C21.459 97.184 20.9327 96.5196 20.7085 95.5009C20.5831 94.9313 20.9433 94.3678 21.5129 94.2425C21.5183 94.2413 21.5238 94.2402 21.5292 94.239L21.567 94.2315Z" fill="#C9B181" stroke="#A88A56" stroke-width="0.25" stroke-miterlimit="10"/>
<path id="Vector_2" opacity="0.6" d="M10.1252 80.0443C11.4109 81.1563 12.3564 82.3419 13.2547 83.5488C14.1421 84.7571 14.9237 86.0197 15.8149 87.2137C16.697 88.4105 17.5873 89.6093 18.5552 90.7594C19.506 91.9295 20.5182 93.0561 21.5591 94.243L21.5669 94.252C21.8491 94.5738 21.817 95.0633 21.4952 95.3455C21.2743 95.5392 20.9734 95.5843 20.7158 95.4898C19.1509 94.9119 17.7151 94.0444 16.3835 93.0488C15.0687 92.0328 13.8411 90.8936 12.7702 89.6234C11.7084 88.35 10.7014 87.0159 9.96536 85.5286C9.24046 84.0397 8.72786 82.4303 8.72656 80.6706C8.72626 80.2071 9.10176 79.8311 9.56526 79.8308C9.77496 79.8306 9.96666 79.9074 10.1139 80.0344L10.1252 80.0443Z" fill="#DDB552" stroke="#CE9C2C" stroke-width="0.25" stroke-miterlimit="10"/>
<path id="Vector_3" opacity="0.6" d="M8.05113 74.1686C8.87723 74.4884 9.29093 74.8896 9.58023 75.3285C9.85883 75.769 9.94663 76.2665 10.0752 76.7563C10.1835 77.2525 10.2554 77.7641 10.2721 78.3057C10.2849 78.8493 10.261 79.4139 10.1134 80.0498L10.1094 80.067C9.99313 80.5682 9.49263 80.8801 8.99143 80.7638C8.90233 80.7431 8.81553 80.708 8.73973 80.6651C8.15863 80.3329 7.72073 79.9207 7.33933 79.4793C6.96193 79.036 6.65963 78.5547 6.41433 78.0508C6.18933 77.5404 5.94403 77.0306 5.91073 76.4572C5.88803 75.8822 6.01113 75.263 6.56863 74.5565C6.92243 74.1081 7.51753 73.9622 8.02383 74.1576L8.05113 74.1686Z" fill="#D4D87C" stroke="#C1C14D" stroke-width="0.25" stroke-miterlimit="10"/>
<path id="Vector_4" opacity="0.6" d="M7.09845 68.8726C7.85605 69.2491 8.19215 69.6402 8.39785 70.0492C8.59275 70.4581 8.58885 70.8934 8.62475 71.328C8.63965 71.7657 8.61435 72.2134 8.52795 72.6821C8.43735 73.152 8.30545 73.6372 8.03745 74.1721L8.02825 74.1905C7.78495 74.6762 7.19395 74.8726 6.70835 74.6292C6.66515 74.6076 6.61985 74.5799 6.58135 74.5532C6.08095 74.1996 5.73325 73.7922 5.44395 73.3655C5.15895 72.9376 4.95235 72.4849 4.80375 72.0191C4.67625 71.5502 4.52685 71.0786 4.59535 70.578C4.67455 70.0775 4.90305 69.5564 5.57305 69.0189C6.01065 68.6678 6.59505 68.6231 7.06675 68.8566L7.09845 68.8726Z" fill="#C9BD83" stroke="#AD9F63" stroke-width="0.25" stroke-miterlimit="10"/>
<path id="Vector_5" opacity="0.6" d="M11.9763 52.6835C11.4337 54.1931 10.8772 55.4125 10.3432 56.6543C9.80757 57.8831 9.24877 59.1033 8.85057 60.4215C8.44587 61.7313 8.08927 63.0916 7.83027 64.5021C7.54487 65.912 7.34317 67.3633 7.08447 68.8739L7.08247 68.8859C7.01007 69.3086 6.60867 69.5927 6.18597 69.5203C5.90067 69.4714 5.67817 69.2715 5.58617 69.0174C5.04397 67.5084 4.77247 65.9181 4.68107 64.3011C4.61647 62.6859 4.71907 61.0335 5.10067 59.4137C5.48807 57.8041 6.04587 56.1792 7.00077 54.7655C7.95407 53.3652 9.26367 52.1512 10.9219 51.5714C11.3596 51.4184 11.8385 51.6491 11.9915 52.0868C12.0576 52.2758 12.0521 52.4724 11.9894 52.6472L11.9763 52.6835Z" fill="#C9B181" stroke="#A88A56" stroke-width="0.25" stroke-miterlimit="10"/>
<path id="Vector_6" opacity="0.6" d="M28.6823 48.4757C27.1063 49.0355 25.6466 49.25 24.2109 49.4313C22.7799 49.6026 21.368 49.6728 19.9884 49.9257C18.6105 50.165 17.2491 50.4645 15.9286 50.9312C14.595 51.3754 13.3056 51.9671 11.9673 52.6736L11.9429 52.6865C11.5648 52.8861 11.0966 52.7414 10.897 52.3633C10.7618 52.1071 10.7854 51.8087 10.9317 51.5813C11.8367 50.1832 13.1105 49.0195 14.5327 48.1011C15.968 47.2019 17.5487 46.525 19.1787 46.128C20.8071 45.7353 22.4691 45.4964 24.1108 45.5933C25.7496 45.701 27.3661 46.0769 28.8488 46.9522C29.2486 47.1882 29.3814 47.7037 29.1454 48.1035C29.0413 48.2799 28.8828 48.4043 28.7038 48.468L28.6823 48.4757Z" fill="#DDB552" stroke="#CE9C2C" stroke-width="0.25" stroke-miterlimit="10"/>
<path id="Vector_7" opacity="0.6" d="M35.5841 5.68941C33.0189 7.49271 31.4506 10.3898 30.5121 13.3628C29.6156 16.3371 29.3624 19.6198 30.1684 22.2015C30.3953 22.8212 30.6599 23.3906 30.9759 23.8705C31.3135 24.3283 31.6829 24.7162 32.1225 24.9993C33.0082 25.5368 34.1829 25.7877 35.5637 25.7046L38.0802 25.4235C38.5557 25.3542 39.0455 25.3552 39.5316 25.3398C40.0192 25.3356 40.5017 25.2915 40.9946 25.3394C42.9511 25.3818 44.9394 25.7761 46.8368 26.4765C48.7268 27.2006 50.5313 28.2873 52.0247 29.7824C53.5136 31.2688 54.689 33.1852 55.1895 35.3599C55.6614 37.5399 55.3308 39.92 54.32 41.8662C53.3176 43.8277 51.7485 45.3285 50.0627 46.3738C46.6468 48.4493 42.9067 49.2007 39.3064 49.3922C35.6889 49.6031 32.1321 49.2526 28.6635 48.6491C28.1507 48.5599 27.8072 48.0718 27.8964 47.5589C27.9779 47.0905 28.3922 46.7633 28.8542 46.7783L28.8677 46.7788C32.2918 46.8857 35.6993 46.7919 38.9845 46.3074C42.2461 45.8136 45.453 44.8494 47.8554 43.1047C49.0463 42.2412 50.0019 41.1859 50.5057 40.0133C51.0181 38.8466 51.106 37.5962 50.7953 36.3942C50.1469 33.9603 47.8748 31.9312 45.1596 31.0298C43.8023 30.5629 42.3425 30.2587 40.8299 30.2529C40.458 30.2137 40.0735 30.2622 39.6951 30.2678C39.3153 30.2845 38.9365 30.2807 38.5538 30.3458L35.9053 30.6666C33.8466 30.8445 31.423 30.479 29.3867 29.1182C28.3774 28.4384 27.5489 27.5397 26.8989 26.5768C26.2622 25.6035 25.8549 24.5613 25.5698 23.526C24.56 19.3667 25.3739 15.4448 26.8916 11.9693C27.685 10.2372 28.7127 8.60741 30.0144 7.19491C31.2908 5.77471 32.9321 4.60331 34.7587 3.96081C35.2601 3.78441 35.8095 4.04791 35.9859 4.54931C36.1321 4.96511 35.976 5.41391 35.6324 5.65561L35.5841 5.68941Z" fill="#D8C67C" stroke="#C1AD59" stroke-width="0.25" stroke-miterlimit="10"/>
<path id="Vector_8" opacity="0.6" d="M29.4926 96.8367C31.6303 97.2033 33.7839 97.2411 35.93 97.0338C36.9896 96.8179 38.0694 96.7204 39.1024 96.3566C39.6196 96.1881 40.1561 96.0883 40.6676 95.8938L42.1991 95.2943C46.2688 93.6146 49.9552 90.8862 53.2837 87.7887L55.7142 85.3701L57.9971 82.7898C58.7756 81.9425 59.4524 81.0041 60.187 80.114L61.2689 78.7597L62.2804 77.3488C65.0362 73.6227 67.4702 69.6469 69.8572 65.6351L69.8637 65.6241C69.97 65.4455 70.2009 65.3869 70.3795 65.4931C70.5484 65.5936 70.6094 65.8071 70.5256 65.9809C68.4787 70.1964 66.4211 74.444 63.8399 78.4055C61.3174 82.3938 58.5479 86.2806 55.1935 89.7165C51.8681 93.1452 48.0782 96.3302 43.5147 98.3217C41.2751 99.3918 38.8187 100.013 36.3315 100.375C33.8219 100.636 31.2692 100.488 28.8173 99.9173C27.9693 99.72 27.4418 98.8726 27.639 98.0245C27.8289 97.2083 28.6211 96.689 29.4364 96.8271L29.4926 96.8367Z" fill="#D8C67C" stroke="#C1AD59" stroke-width="0.25" stroke-miterlimit="10"/>
</g>
</g>
</svg>
