<svg width="81" height="23" viewBox="0 0 81 23" fill="none" xmlns="http://www.w3.org/2000/svg">
<g id="R-ICO-013313">
<g id="RNA POL II">
<path d="M0.914307 11.5C0.914307 5.97715 5.39146 1.5 10.9143 1.5H68.9143C74.4372 1.5 78.9143 5.97715 78.9143 11.5C78.9143 17.0228 74.4372 21.5 68.9143 21.5H10.9143C5.39146 21.5 0.914307 17.0228 0.914307 11.5Z" fill="url(#paint0_linear_938_23581)"/>
<path d="M55.6226 2.99266C40.7198 2.87443 25.8171 2.52283 10.9143 1.64001C10.9143 1.54664 10.9143 1.45328 10.9143 1.35991C25.8171 0.477089 40.7198 0.125486 55.6226 0.00726104C60.053 -0.0151997 64.4837 0.017132 68.9143 0.0673909C72.3755 0.0768491 75.7594 1.79332 77.8226 4.52036C79.3571 6.50324 80.1811 9.01783 80.1278 11.5C80.1632 17.4924 74.6414 22.6138 68.915 22.2659C68.9148 22.2659 68.9145 22.2658 68.9143 22.2658C61.4631 22.0221 54.0112 21.8466 46.5602 21.953C39.1088 22.056 31.6568 22.4645 24.2054 22.6648C19.775 22.7616 15.3447 22.7695 10.9143 22.7274C7.51443 22.724 4.19077 21.0238 2.18922 18.3368C0.703383 16.3802 -0.0749837 13.9158 0.00576484 11.5C0.0367355 5.65979 5.52094 0.837953 10.9143 1.35991C10.9143 1.45328 10.9143 1.54664 10.9143 1.64001C5.65471 1.90284 1.53266 6.68677 1.8227 11.5C1.88877 13.5205 2.63412 15.4732 3.89517 16.9984C5.60434 19.094 8.25503 20.319 10.9143 20.2727C15.3446 20.2306 19.775 20.2384 24.2054 20.3353C31.6568 20.5356 39.1088 20.9428 46.5602 21.0457C54.0113 21.1521 61.463 20.978 68.9143 20.7342C68.9145 20.7342 68.9147 20.7342 68.9149 20.7342C73.8414 20.6445 77.9245 16.1604 77.7009 11.5C77.6623 9.54637 76.9629 7.64428 75.751 6.14542C74.1037 4.08943 71.5128 2.88021 68.9143 2.93261C64.4837 2.98292 60.053 3.01528 55.6226 2.99266Z" fill="url(#paint1_linear_938_23581)"/>
<text id="RNA POL II_2" fill="white" xml:space="preserve" style="white-space: pre" font-family="Arial" font-size="12" font-weight="bold" letter-spacing="0em"><tspan x="8.22095" y="15.6602">RNA POL II</tspan></text>
</g>
</g>
<defs>
<linearGradient id="paint0_linear_938_23581" x1="39.9143" y1="1.5" x2="39.9143" y2="21.5" gradientUnits="userSpaceOnUse">
<stop stop-color="#0E98A2"/>
<stop offset="1" stop-color="#042224"/>
</linearGradient>
<linearGradient id="paint1_linear_938_23581" x1="39.9143" y1="1.5" x2="39.9143" y2="21.5" gradientUnits="userSpaceOnUse">
<stop stop-color="#B78520"/>
<stop offset="1" stop-color="#A2317B"/>
</linearGradient>
</defs>
</svg>
