<svg width="117" height="23" viewBox="0 0 117 23" fill="none" xmlns="http://www.w3.org/2000/svg">
<g id="R-ICO-012581">
<g id="CORTICOTROPIN">
<path d="M0.75293 11.5C0.75293 5.97715 5.23008 1.5 10.7529 1.5H105.753C111.276 1.5 115.753 5.97715 115.753 11.5C115.753 17.0228 111.276 21.5 105.753 21.5H10.7529C5.23008 21.5 0.75293 17.0228 0.75293 11.5Z" fill="url(#paint0_linear_938_23251)"/>
<path d="M73.9611 2.99266C52.8916 2.87443 31.8224 2.52283 10.7529 1.64001C10.7529 1.54664 10.7529 1.45328 10.7529 1.35991C31.8224 0.477089 52.8916 0.125486 73.9611 0.00726104C84.4958 -0.0305147 95.0311 0.0866973 105.566 0.183516C105.628 0.183999 105.691 0.184486 105.753 0.184978C111.79 0.0821447 117.109 5.58429 116.863 11.5C116.906 17.4305 111.481 22.5508 105.754 22.2659C105.754 22.2659 105.753 22.2658 105.753 22.2658C95.2185 22.0221 84.6831 21.8466 74.1489 21.953C63.6142 22.056 53.0786 22.4645 42.5439 22.6648C32.0096 22.8277 21.4752 22.7388 10.9407 22.5842C10.8781 22.5833 10.8155 22.5824 10.7529 22.5814C4.83662 22.6438 -0.294227 17.2172 0.0134586 11.5C0.0351793 5.75785 5.36158 0.953716 10.7529 1.35991C10.7529 1.45328 10.7529 1.54664 10.7529 1.64001C5.49129 1.78711 1.21152 6.58866 1.49226 11.5C1.54088 16.4362 6.01616 20.6154 10.7529 20.4187C10.8155 20.4177 10.8781 20.4168 10.9407 20.4159C21.475 20.2613 32.0094 20.1724 42.5439 20.3353C53.0786 20.5356 63.6141 20.9428 74.1489 21.0457C84.6832 21.1521 95.2184 20.978 105.753 20.7342C105.753 20.7342 105.753 20.7342 105.754 20.7342C110.679 20.7073 114.859 16.222 114.643 11.5C114.655 6.76244 110.369 2.65874 105.753 2.81494C105.691 2.81543 105.628 2.81592 105.566 2.8164C95.0313 2.91322 84.4958 3.03071 73.9611 2.99266Z" fill="#1A9E9E"/>
<text id="CORTICOTROPIN_2" fill="white" xml:space="preserve" style="white-space: pre" font-family="Arial" font-size="12" font-weight="bold" letter-spacing="0em"><tspan x="7.88574" y="15.6602">CORTICOTROPIN</tspan></text>
</g>
</g>
<defs>
<linearGradient id="paint0_linear_938_23251" x1="58.2529" y1="1.5" x2="58.2529" y2="21.5" gradientUnits="userSpaceOnUse">
<stop stop-color="#1A9E9E"/>
<stop offset="1" stop-color="#DB5528"/>
</linearGradient>
</defs>
</svg>
