<svg width="40" height="23" viewBox="0 0 40 23" fill="none" xmlns="http://www.w3.org/2000/svg">
<g id="R-ICO-012490">
<g id="C3b">
<path d="M1.20435 11.3239C1.20435 5.80104 5.6815 1.32388 11.2043 1.32388H28.2043C33.7272 1.32388 38.2043 5.80104 38.2043 11.3239C38.2043 16.8467 33.7272 21.3239 28.2043 21.3239H11.2043C5.6815 21.3239 1.20435 16.8467 1.20435 11.3239Z" fill="url(#paint0_linear_938_23206)"/>
<path d="M33.8188 4.93206C32.3059 3.549 30.2991 2.7191 28.2043 2.64099C22.5377 2.44182 16.871 2.08384 11.2043 1.46389C11.2043 1.37052 11.2043 1.27716 11.2043 1.18379C16.871 0.563846 22.5377 0.205859 28.2043 0.0066936C30.9228 -0.0909523 33.7001 0.8849 35.79 2.68999C38.2687 4.80876 39.6983 8.093 39.6081 11.3239C39.5812 12.6919 39.304 14.0535 38.7961 15.3162C37.1435 19.6204 32.5714 22.4355 28.2047 22.0897C28.2046 22.0897 28.2045 22.0897 28.2043 22.0897C24.1697 21.846 20.1347 21.6705 16.1001 21.7769C14.4682 21.8185 12.8363 21.9101 11.2043 22.0178C8.63996 22.1897 5.928 21.4043 3.83494 19.7113C1.36561 17.7209 -0.0917667 14.4989 0.00443411 11.3239C0.0328963 9.97997 0.315704 8.6441 0.829768 7.41391C2.51109 3.22079 7.08348 0.596033 11.2043 1.18379C11.2043 1.27716 11.2043 1.37052 11.2043 1.46389C7.19961 1.94071 3.9598 4.74704 2.85868 8.17891C2.52374 9.19672 2.37426 10.2629 2.40418 11.3239C2.46563 13.8282 3.56269 16.2247 5.37318 17.9618C6.88279 19.457 8.95547 20.4772 11.2043 20.6292C12.8363 20.7366 14.4682 20.828 16.1001 20.8696C20.1348 20.976 24.1697 20.8018 28.2043 20.5581C28.2045 20.5581 28.2046 20.5581 28.2047 20.5581C31.9634 20.3227 35.2024 17.7074 36.3326 14.3872C36.6738 13.4017 36.829 12.361 36.8006 11.3239C36.7451 8.87516 35.6199 6.5407 33.8188 4.93206Z" fill="#5973B7"/>
<text id="C3b_2" fill="white" xml:space="preserve" style="white-space: pre" font-family="Arial" font-size="12" font-weight="bold" letter-spacing="0em"><tspan x="8.3606" y="15.484">C3b</tspan></text>
</g>
</g>
<defs>
<linearGradient id="paint0_linear_938_23206" x1="19.7043" y1="1.32388" x2="19.7043" y2="21.3239" gradientUnits="userSpaceOnUse">
<stop stop-color="#5973B7"/>
<stop offset="1" stop-color="#1F2E53"/>
</linearGradient>
</defs>
</svg>
