<svg width="114" height="115" viewBox="0 0 114 115" fill="none" xmlns="http://www.w3.org/2000/svg">
<g id="R-ICO-014581">
<g id="BG">
<path id="BG_2" d="M107.544 15.8061C106.614 15.3021 109.669 3.05032 102.353 2.95202C94.4441 2.84582 99.5685 14.3947 96.6141 15.4578C95.884 15.7205 95.1263 15.4723 94.5247 14.9328C93.5663 14.0734 95.3328 5.45762 92.173 3.88852C91.0598 3.33572 89.6187 2.95722 88.2525 3.06572C83.5735 3.43722 84.5057 7.98882 84.7389 9.68192C84.9862 11.4776 85.2928 14.3561 82.1567 14.1691C79.0391 12.9582 80.7037 6.60202 80.6 3.60942C80.5149 1.15322 73.6486 -0.954379 72.3229 4.28072C72.0234 5.46342 73.3749 14.6125 69.7041 14.0861C67.2819 13.7387 68.7139 6.06072 68.0445 3.98662C66.7191 -0.120379 60.5951 1.40072 60.1061 3.41202C59.3916 6.35162 60.926 14.9693 56.705 14.06C56.1585 13.9423 55.7521 13.5997 55.659 13.1916C55.3897 12.0116 55.84 6.46652 55.549 4.82322C54.723 0.158921 48.9051 -3.00618 46.9077 4.46152C46.29 6.77102 48.0081 13.6651 45.9119 14.1661C42.9339 14.8779 42.5301 14.239 42.5306 10.9119C42.5329 -3.24578 35.7804 2.69652 35.0347 3.74122C33.2938 6.18042 36.6107 16.2194 31.208 15.1427C30.6537 15.0322 30.2083 14.695 30.1257 14.2823C29.792 12.6147 30.4199 6.57702 29.3871 4.42702C26.975 -0.594079 23.112 2.69342 22.2612 4.06902C20.7182 6.56392 21.9561 14.0907 21.5845 14.8353C21.0762 15.8538 2.57492e-05 81.8013 29.3255 105.435C42.2112 115.82 67.6211 113.959 81.1788 108.176C132.67 86.2147 107.774 15.9307 107.544 15.8061Z" fill="url(#paint0_linear_938_25211)"/>
<path id="Mid texture" d="M101.544 20.3087C100.615 19.8047 103.669 7.55291 96.3529 7.45461C88.4444 7.34841 93.5688 18.8973 90.6144 19.9604C89.8843 20.2231 89.1266 19.9749 88.525 19.4354C87.5666 18.576 89.3331 9.96021 86.1733 8.39111C85.0601 7.83831 83.619 7.45981 82.2528 7.56831C77.5738 7.93981 78.506 12.4914 78.7392 14.1845C78.9865 15.9802 79.2931 18.8587 76.157 18.6717C73.0394 17.4608 74.704 11.1046 74.6003 8.11201C74.5152 5.65581 67.6489 3.54821 66.3232 8.78331C66.0237 9.96601 67.3752 19.1151 63.7044 18.5887C61.2822 18.2413 62.7142 10.5633 62.0448 8.48921C60.7194 4.38221 54.5954 5.90331 54.1064 7.91461C53.3917 10.8542 54.9261 19.4719 50.7051 18.5627C50.1586 18.445 49.7522 18.1024 49.6591 17.6943C49.3898 16.5143 49.8401 10.9692 49.5491 9.32591C48.7231 4.66161 42.9052 1.49651 40.9078 8.96421C40.2901 11.2737 42.0082 18.1678 39.912 18.6688C36.934 19.3806 36.5302 18.7417 36.5307 15.4146C36.533 1.25691 29.7805 7.19921 29.0348 8.24391C27.2939 10.6831 30.6108 20.7221 25.2082 19.6454C24.6539 19.5349 24.2085 19.1977 24.1259 18.785C23.7922 17.1174 24.4201 11.0797 23.3873 8.92971C20.9752 3.90861 17.1122 7.19611 16.2614 8.57171C14.7184 11.0666 15.9563 18.5934 15.5847 19.338C15.0764 20.3565 15.2692 24.569 23.3257 24.9015C41.2864 25.6428 82.4796 25.0031 97.4674 24.4266C102.649 24.2271 101.774 20.4332 101.544 20.3087Z" fill="url(#paint1_linear_938_25211)"/>
<path id="Front texture" d="M96.5437 24.8114C95.6142 24.3074 98.669 12.0556 91.3525 11.9573C89.2216 11.9287 86.6671 13.2302 86.0156 14.4608C84.2492 17.7974 86.1561 25.1392 83.5246 23.9381C82.3183 23.3875 84.3327 14.4629 81.1729 12.8938C80.0597 12.341 78.6186 11.9625 77.2524 12.071C75.2053 12.2335 72.6135 13.9209 72.186 15.0942C71.6364 16.6028 74.2927 23.3614 71.1566 23.1744C68.0391 21.9635 69.7037 15.6073 69.6 12.6147C69.5149 10.1585 61.9663 7.95856 59.7503 13.2811C59.2774 14.417 62.375 23.6178 58.7041 23.0914C56.2819 22.744 57.7139 15.066 57.0445 12.9919C55.7191 8.88486 49.0446 10.5649 47.5621 12.6827C45.7801 15.2284 49.9258 23.9747 45.7048 23.0654C45.1583 22.9477 44.7519 22.6051 44.6588 22.197C44.3895 21.017 44.8398 15.4719 44.5488 13.8286C44.0646 11.0947 41.8654 8.87576 39.7258 9.01126C39.0626 9.05326 37.9249 9.00536 36.804 9.65196C35.8842 10.1826 37.0079 22.6705 34.9117 23.1715C31.9337 23.8833 31.5299 23.2444 31.5304 19.9173C31.5327 5.75957 24.6357 11.4822 23.1953 12.675C20.8251 14.6376 25.6106 25.2248 20.2079 24.1481C19.6536 24.0376 19.2082 23.7004 19.1256 23.2877C18.7919 21.6201 19.4198 15.5824 18.387 13.4324C15.9749 8.41126 11.4554 11.7358 10.0434 13.2837C8.03048 15.4903 10.956 23.096 10.5844 23.8406C10.0761 24.8591 10.2689 29.0716 18.3254 29.4041C36.2861 30.1454 77.4793 29.5057 92.4671 28.9292C97.6483 28.7298 96.7734 24.9359 96.5437 24.8114Z" fill="url(#paint2_linear_938_25211)"/>
<path id="FRONT" d="M100.835 48.8634C100.251 37.0195 95.6035 29.8487 94.4687 29.0854C94.1831 28.8928 94.1958 27.9958 94.2514 25.9837C94.3491 22.4537 94.5131 16.5458 92.0053 14.1864C91.2963 13.5198 90.4028 13.1724 89.3495 13.1548C88.1693 13.1258 87.2494 13.4362 86.5399 14.0738C84.6297 15.7913 84.7015 19.578 84.765 22.9189C84.8177 25.7146 84.8636 28.1294 83.6693 28.6632C82.9296 28.9939 82.1122 28.7441 81.4266 27.9817C81.0584 27.5719 81.0619 26.054 81.0662 23.954C81.074 20.3941 81.0843 15.5195 79.1014 14.298C77.8748 13.5417 76.4769 13.1759 75.2655 13.2955C70.9579 13.7203 71.5404 18.6502 71.8202 21.0194L71.8627 21.3826C72.0185 22.7844 72.308 25.3936 71.0805 26.5193C70.6117 26.9493 69.9614 27.134 69.1459 27.076L69.0971 27.0628C66.6987 25.9064 67.0429 21.1382 67.3193 17.3066C67.4126 16.0165 67.5009 14.7976 67.4746 13.8611C67.4331 12.3635 65.6733 10.9274 63.709 10.7884C62.6763 10.7145 60.2119 10.9546 59.4453 14.7115C59.3784 15.0404 59.3974 15.9163 59.4219 17.0261C59.4912 20.1621 59.607 25.4113 57.9063 26.6952C57.5557 26.9608 57.1446 27.0531 56.6792 26.9705C55.0029 26.6715 55.0571 22.5391 55.105 18.894C55.1299 17.0147 55.1529 15.2392 54.9224 14.3518C54.3916 12.3124 52.9722 11.1745 51.045 11.2193C49.2237 11.265 47.4762 12.3705 47.2291 13.6324C47.0279 14.6596 47.006 16.2786 46.983 17.9934C46.9342 21.5858 46.879 25.6584 45.2428 26.7436C44.8063 27.0338 44.278 27.0989 43.6691 26.9362C43.0817 26.7788 42.6369 26.3206 42.5353 25.7683C42.4025 25.0454 42.4415 23.0509 42.4835 20.9394C42.5274 18.7162 42.5724 16.4175 42.4244 15.3789C41.9692 12.191 39.9746 9.55011 37.9775 9.49211C37.957 9.49211 37.9355 9.49121 37.914 9.49121C36.872 9.49121 35.0449 10.2281 34.0297 14.9365C33.8012 15.998 33.8969 17.8526 33.998 19.8155C34.1713 23.1757 34.351 26.6503 32.9506 27.0663C31.5854 27.47 30.8193 27.4999 30.3066 27.1666C29.5439 26.6697 29.4047 25.3471 29.4052 22.9208C29.4062 14.088 27.6899 11.8569 26.2494 11.5412C24.4818 11.1534 22.5165 13.4284 22.1449 14.0739C21.5223 15.1565 21.5624 17.5062 21.6049 19.9941C21.6625 23.4036 21.7226 26.9292 20.1357 28.0355C19.6235 28.3934 18.9643 28.477 18.1743 28.28C17.5605 28.1287 17.0889 27.6618 17.0019 27.1192C16.8789 26.3576 16.8847 24.8846 16.8915 23.1794C16.9032 20.243 16.9184 16.5891 16.2685 14.9103C15.4492 12.7936 14.4023 11.696 13.1567 11.6477C13.1274 11.6459 13.0981 11.6459 13.0693 11.6459C11.3618 11.6459 9.82273 13.5753 9.37503 14.4741C8.35503 16.5205 8.56743 21.4004 8.70803 24.6287C8.78033 26.2969 8.83303 27.5017 8.70173 27.8289C7.92433 29.7608 7.03953 30.7871 6.10253 31.8732C4.56933 33.6514 2.98383 35.4902 1.59323 41.5854C-0.748567 51.8438 0.261233 63.0316 0.929133 70.4337C1.01213 71.3518 1.09023 72.218 1.15713 73.0245C2.42963 88.365 7.39393 99.0349 16.3343 105.645C26.8343 113.409 42.7977 115.809 66.575 113.2C80.2869 111.694 90.1121 103.25 95.7771 88.102C101.152 73.7288 101.253 57.348 100.835 48.8634Z" fill="#CFE6F9"/>
<path id="Membrane" d="M37.9129 10.7297C38.8932 10.7297 40.6487 12.6469 41.0612 15.5367C41.1966 16.4855 41.15 18.8408 41.109 20.9189C41.0574 23.5335 41.0331 25.1763 41.1791 25.9705C41.366 26.9868 42.1899 27.8315 43.2782 28.1225C43.6227 28.2146 43.964 28.2613 44.2926 28.2613C48.2191 28.2613 48.2929 22.8137 48.358 18.0074C48.3805 16.3451 48.4018 14.775 48.5834 13.8479C48.6932 13.2875 49.8228 12.4564 51.1583 12.4565C52.3922 12.4566 53.2084 13.1894 53.5841 14.6343C53.7767 15.3751 53.7533 17.1561 53.7306 18.8786C53.6684 23.6051 53.6147 27.687 56.4133 28.1851C56.61 28.2201 56.8073 28.2378 56.9999 28.2378C57.7622 28.2378 58.4597 27.9672 59.0172 27.4551C60.8366 25.7839 60.8973 21.5569 60.7972 17.0018C60.7783 16.1452 60.757 15.1744 60.7982 14.9354C61.0207 13.8449 61.6565 12.0156 63.4143 12.0158C64.808 12.016 66.0773 13.0652 66.1004 13.8922C66.1249 14.7726 66.0389 15.9648 65.9478 17.2269C65.6299 21.6304 65.2696 26.6214 68.4485 28.1539L68.7232 28.2863L69.0336 28.3093C69.1739 28.3197 69.3089 28.3246 69.4397 28.3246C70.5408 28.3246 71.4818 27.9674 72.161 27.2916C73.6066 25.8532 73.4714 23.424 73.2313 21.26L73.1883 20.8884C72.679 16.5756 73.3243 14.7324 75.4154 14.5264C75.5193 14.5161 75.6239 14.5113 75.7288 14.5113C76.5458 14.5113 77.4923 14.8059 78.3258 15.3195C79.7086 16.1717 79.6973 21.4256 79.6919 23.9506C79.6857 26.8374 79.7091 28.0377 80.3586 28.7605C81.1023 29.5881 82.0451 30.0439 83.0134 30.0439C83.4508 30.0439 83.8772 29.9526 84.2804 29.7725C86.2538 28.8913 86.2036 26.2462 86.1399 22.8974C86.0842 19.9669 86.0148 16.3199 87.4969 14.9626C87.7642 14.7178 88.236 14.3924 89.2437 14.3924C89.2434 14.3924 89.244 14.3924 89.2437 14.3924L89.3247 14.3931C90.0171 14.4046 90.5535 14.6112 91.0127 15.0432C93.1249 17.0299 92.9637 22.8346 92.8772 25.9531C92.8037 28.6013 92.7789 29.4934 93.6248 30.0616C94.2615 30.5686 98.878 37.0665 99.4619 48.9182C99.8758 57.3171 99.7781 73.5248 94.4745 87.7068C88.993 102.365 79.5505 110.528 66.4093 111.971C60.3938 112.631 54.806 112.966 49.8011 112.966C34.6093 112.966 23.537 109.937 15.9515 103.708C8.10246 97.2617 3.71186 87.195 2.52886 72.9323C2.46176 72.1231 2.38326 71.254 2.30026 70.333C1.63856 63.0005 0.638561 51.9194 2.94046 41.8341C4.26696 36.0222 5.75256 34.2992 7.18916 32.6329C8.15006 31.5183 9.14376 30.3658 9.99476 28.2496C10.2078 27.7201 10.1854 26.9462 10.0823 24.5798C9.95496 21.6561 9.74196 16.7628 10.6296 14.9817C11.0507 14.1369 12.2617 12.8838 13.072 12.8838C13.5344 12.8838 14.276 13.5232 14.9706 15.3176C15.5429 16.7961 15.528 20.4836 15.517 23.1762C15.5096 25.0026 15.5037 26.4452 15.6411 27.2978C15.8085 28.3351 16.66 29.1893 17.8106 29.474C18.208 29.5723 18.5956 29.6221 18.9626 29.6221C19.8743 29.6221 20.6892 29.3176 21.3192 28.7415C23.101 27.1123 23.0422 23.6458 22.9798 19.9758C22.9456 17.959 22.903 15.4491 23.3665 14.6432C23.6938 14.0741 25.0444 12.7354 25.8387 12.7356C25.8606 12.7356 28.0318 13.0132 28.0304 22.9208C28.0302 24.5878 28.091 25.7988 28.3946 26.6837C28.9766 28.3804 30.4054 28.6337 31.2053 28.6337C31.7976 28.6337 32.4686 28.513 33.381 28.2424C35.7733 27.5328 35.5962 24.1019 35.372 19.7582C35.2789 17.9544 35.1826 16.0892 35.3801 15.1733C36.1361 11.6655 37.3278 10.7297 37.9129 10.7297ZM37.9129 9.37891C36.3383 9.37891 34.7684 10.9217 33.9077 14.9156C33.29 17.7817 35.0081 26.3374 32.9119 26.9591C32.2094 27.1675 31.65 27.2826 31.2055 27.2826C29.7658 27.2826 29.5302 26.0755 29.5306 22.9207C29.5318 13.7691 27.6999 11.385 25.8393 11.3846C24.1278 11.3842 22.392 13.4006 22.0348 14.0218C20.382 16.8957 23.2879 28.2711 18.9628 28.2711C18.7323 28.2711 18.4815 28.2388 18.2081 28.1712C17.6538 28.0341 17.2084 27.6156 17.1258 27.1034C16.7921 25.0339 17.4201 17.5411 16.3872 14.8729C15.4197 12.3734 14.2186 11.533 13.0722 11.533C11.3606 11.533 9.77076 13.4063 9.26126 14.4286C7.71826 17.5247 8.95616 26.8656 8.58456 27.7897C6.55126 32.8457 3.72046 31.708 1.47126 41.5622C-1.15904 53.0859 0.416061 65.5944 1.03306 73.0329C3.47296 102.449 19.4244 114.316 49.8012 114.316C54.979 114.316 60.5699 113.972 66.5909 113.311C97.8164 109.883 102.056 71.0939 100.96 48.8581C100.378 37.0286 95.7363 29.7967 94.5438 28.9944C93.6142 28.369 96.6691 13.1643 89.3525 13.0423C89.3168 13.0417 89.2799 13.0414 89.2447 13.0414C81.4887 13.0397 86.5551 27.2488 83.614 28.5621C83.4146 28.6511 83.2131 28.6929 83.0134 28.6929C82.4817 28.6929 81.9619 28.3973 81.5246 27.9106C80.5662 26.8441 82.3327 16.1518 79.1729 14.2046C78.1884 13.5979 76.9476 13.1604 75.7288 13.1604C75.5694 13.1604 75.4104 13.1679 75.2524 13.1835C70.5734 13.6445 71.5056 19.2932 71.7389 21.3943C71.9785 23.5532 72.2734 26.9738 69.4399 26.9738C69.3487 26.9738 69.2545 26.9703 69.1567 26.963C66.0392 25.4602 67.7038 17.5722 67.6001 13.8583C67.5538 12.1977 65.4941 10.6655 63.4147 10.6651C61.6773 10.6648 59.9265 11.734 59.323 14.6913C59.0318 16.1179 60.3004 26.8869 57 26.8869C56.9051 26.8869 56.8068 26.8781 56.7042 26.8598C54.282 26.4287 55.714 16.9002 55.0447 14.3262C54.4317 11.9691 52.7921 11.1058 51.1585 11.1056C49.2598 11.1054 47.3691 12.2714 47.1063 13.6131C46.4272 17.0797 47.7784 26.9104 44.2926 26.9104C44.1101 26.9104 43.915 26.8836 43.705 26.8275C43.1586 26.6814 42.7521 26.2562 42.6589 25.7498C42.3896 24.2854 42.8399 17.4039 42.5489 15.3645C42.0788 12.0707 39.9919 9.37891 37.9129 9.37891Z" fill="#528EBF"/>
</g>
<g id="R-ICO-013121" opacity="0.3">
<g id="Nucleus">
<mask id="path-6-inside-1_938_25211" fill="white">
<path d="M44.6666 105.744C54.2543 105.744 62.0266 97.9716 62.0266 88.3839C62.0266 78.7963 54.2543 71.0239 44.6666 71.0239C35.079 71.0239 27.3066 78.7963 27.3066 88.3839C27.3066 97.9716 35.079 105.744 44.6666 105.744Z"/>
</mask>
<path d="M44.6666 105.744C54.2543 105.744 62.0266 97.9716 62.0266 88.3839C62.0266 78.7963 54.2543 71.0239 44.6666 71.0239C35.079 71.0239 27.3066 78.7963 27.3066 88.3839C27.3066 97.9716 35.079 105.744 44.6666 105.744Z" fill="url(#paint3_radial_938_25211)" stroke="#5656A5" stroke-width="2.604" mask="url(#path-6-inside-1_938_25211)"/>
</g>
<g id="R-ICO-013619">
<g id="Nucleolus">
<mask id="path-7-inside-2_938_25211" fill="white">
<path d="M36.5028 98.9647C38.1807 98.9647 39.5408 97.6045 39.5408 95.9267C39.5408 94.2488 38.1807 92.8887 36.5028 92.8887C34.825 92.8887 33.4648 94.2488 33.4648 95.9267C33.4648 97.6045 34.825 98.9647 36.5028 98.9647Z"/>
</mask>
<path d="M36.5028 98.9647C38.1807 98.9647 39.5408 97.6045 39.5408 95.9267C39.5408 94.2488 38.1807 92.8887 36.5028 92.8887C34.825 92.8887 33.4648 94.2488 33.4648 95.9267C33.4648 97.6045 34.825 98.9647 36.5028 98.9647Z" fill="url(#paint4_radial_938_25211)" stroke="#4B4C96" stroke-width="0.6076" mask="url(#path-7-inside-2_938_25211)"/>
</g>
</g>
</g>
</g>
<defs>
<linearGradient id="paint0_linear_938_25211" x1="63.7708" y1="112.873" x2="63.7708" y2="2.6911e-05" gradientUnits="userSpaceOnUse">
<stop offset="0.1966" stop-color="#528EBF"/>
<stop offset="0.827" stop-color="#CFE6F9"/>
<stop offset="1" stop-color="#5EA3DB"/>
</linearGradient>
<linearGradient id="paint1_linear_938_25211" x1="58.5821" y1="25.236" x2="58.5821" y2="4.50261" gradientUnits="userSpaceOnUse">
<stop offset="0.1737" stop-color="#CFE6F9"/>
<stop offset="1" stop-color="#5898CC"/>
</linearGradient>
<linearGradient id="paint2_linear_938_25211" x1="53.0369" y1="29.7387" x2="53.0369" y2="9.00526" gradientUnits="userSpaceOnUse">
<stop offset="0.1737" stop-color="#CFE6F9"/>
<stop offset="1" stop-color="#528EBF"/>
</linearGradient>
<radialGradient id="paint3_radial_938_25211" cx="0" cy="0" r="1" gradientUnits="userSpaceOnUse" gradientTransform="translate(40.1527 81.1554) scale(22.8164)">
<stop stop-color="#AFBAF7"/>
<stop offset="0.3111" stop-color="#6D96CE"/>
<stop offset="0.8032" stop-color="#285FCC"/>
</radialGradient>
<radialGradient id="paint4_radial_938_25211" cx="0" cy="0" r="1" gradientUnits="userSpaceOnUse" gradientTransform="translate(36.505 95.9345) rotate(-15.5149) scale(3.77051)">
<stop stop-color="#B0B7DC"/>
<stop offset="0.3" stop-color="#B697C6"/>
<stop offset="0.8032" stop-color="#525281"/>
</radialGradient>
</defs>
</svg>
