<svg width="17" height="49" viewBox="0 0 17 49" fill="none" xmlns="http://www.w3.org/2000/svg">
<g id="R-ICO-014376">
<path id="CRD" d="M8.89709 22.8604C9.17349 22.8604 9.39709 22.6368 9.39709 22.3604C9.39709 22.1294 9.54942 20.7186 9.64602 20.3256C9.87452 19.3984 10.0405 18.7284 9.53272 18.4418C9.02682 18.1615 8.49662 18.6898 8.17822 19.0082C8.02002 19.1659 7.78662 19.2436 7.55322 19.2221C7.40282 19.2065 7.31492 19.1528 7.29052 19.1254C7.29932 19.122 7.32472 19.0566 7.43012 18.9506C7.54922 18.8319 7.71722 18.7543 7.91252 18.665C8.74752 18.2817 9.43892 17.7959 9.43892 15.7241C9.43892 15.4477 9.21532 15.2241 8.93892 15.2241C8.66252 15.2241 8.43892 15.4477 8.43892 15.7241C8.43892 17.3232 8.02192 17.5141 7.49462 17.7563C7.24852 17.8696 6.96922 17.998 6.72312 18.2436C6.23872 18.7275 6.26612 19.1694 6.32472 19.3901C6.42432 19.7592 6.74662 20.0503 7.18802 20.1684C7.71532 20.3095 8.30422 20.1855 8.73292 19.85C8.71242 19.9335 8.69292 20.0136 8.67532 20.0863C8.55332 20.578 8.39709 22.0078 8.39709 22.3604C8.39709 22.6368 8.62079 22.8604 8.89709 22.8604Z" fill="#A10079"/>
<g id="7 TM">
<path id="Vector" d="M7.95825 44.8169C6.85375 44.8169 5.95825 43.9214 5.95825 42.8169V22.8169C5.95825 21.7124 6.85375 20.8169 7.95825 20.8169C9.06275 20.8169 9.95825 21.7124 9.95825 22.8169V42.8169C9.95825 43.9214 9.06275 44.8169 7.95825 44.8169Z" fill="url(#paint0_linear_938_24438)"/>
<path id="Vector_2" d="M10.8127 45.395C9.70824 45.395 8.81274 44.4995 8.81274 43.395V23.395C8.81274 22.2905 9.70824 21.395 10.8127 21.395C11.9172 21.395 12.8127 22.2905 12.8127 23.395V43.395C12.8127 44.4995 11.9172 45.395 10.8127 45.395Z" fill="url(#paint1_linear_938_24438)"/>
<path id="Vector_3" d="M5.40552 45.7476C4.30102 45.7476 3.40552 44.8521 3.40552 43.7476V23.7476C3.40552 22.6431 4.30102 21.7476 5.40552 21.7476C6.51002 21.7476 7.40552 22.6431 7.40552 23.7476V43.7476C7.40552 44.8521 6.51002 45.7476 5.40552 45.7476Z" fill="url(#paint2_linear_938_24438)"/>
<path id="Vector_4" d="M11.8206 47.041C10.7161 47.041 9.82056 46.1455 9.82056 45.041V25.041C9.82056 23.9365 10.7161 23.041 11.8206 23.041C12.9251 23.041 13.8206 23.9365 13.8206 25.041V45.041C13.8206 46.1455 12.9251 47.041 11.8206 47.041Z" fill="url(#paint3_linear_938_24438)"/>
<path id="Vector_5" d="M5.07642 47.4722C3.97192 47.4722 3.07642 46.5767 3.07642 45.4722V25.4722C3.07642 24.3677 3.97192 23.4722 5.07642 23.4722C6.18092 23.4722 7.07642 24.3677 7.07642 25.4722V45.4722C7.07642 46.5767 6.18092 47.4722 5.07642 47.4722Z" fill="url(#paint4_linear_938_24438)"/>
<path id="Vector_6" d="M10.2228 48.519C9.11828 48.519 8.22278 47.6235 8.22278 46.519V26.519C8.22278 25.4145 9.11828 24.519 10.2228 24.519C11.3273 24.519 12.2228 25.4145 12.2228 26.519V46.519C12.2228 47.6235 11.3273 48.519 10.2228 48.519Z" fill="url(#paint5_linear_938_24438)"/>
<path id="Vector_7" d="M7.22095 48.7246C6.11645 48.7246 5.22095 47.8291 5.22095 46.7246V26.7246C5.22095 25.6201 6.11645 24.7246 7.22095 24.7246C8.32545 24.7246 9.22095 25.6201 9.22095 26.7246V46.7246C9.22095 47.8291 8.32545 48.7246 7.22095 48.7246Z" fill="url(#paint6_linear_938_24438)"/>
</g>
<g id="VFT">
<path id="Vector_8" d="M0.578312 5.44918C1.96681 2.09908 4.77391 0.286284 7.70201 0.00268377C8.24501 -0.0499162 8.48461 0.684984 8.00871 0.951384C7.21571 1.39538 6.44991 1.96918 5.74931 2.66988C2.61611 5.80298 3.25531 8.95938 5.59631 11.3003C7.93731 13.6412 11.0936 14.2804 14.2267 11.1473C14.9275 10.4465 15.5015 9.68048 15.9455 8.88728C16.2115 8.41198 16.9466 8.65028 16.8942 9.19248C16.7133 11.0657 15.9065 12.8895 14.4717 14.3242C10.4617 18.3342 3.41101 17.4506 0.741012 11.6731C-0.174188 9.69258 -0.256988 7.46478 0.578312 5.44918Z" fill="url(#paint7_radial_938_24438)"/>
<path id="Vector_9" d="M0.578312 5.44918C1.96681 2.09908 4.77391 0.286284 7.70201 0.00268377C8.24501 -0.0499162 8.48461 0.684984 8.00871 0.951384C7.21571 1.39538 6.44991 1.96918 5.74931 2.66988C2.61611 5.80298 3.25531 8.95938 5.59631 11.3003C7.93731 13.6412 11.0936 14.2804 14.2267 11.1473C14.9275 10.4465 15.5015 9.68048 15.9455 8.88728C16.2115 8.41198 16.9466 8.65028 16.8942 9.19248C16.7133 11.0657 15.9065 12.8895 14.4717 14.3242C10.4617 18.3342 3.41101 17.4506 0.741012 11.6731C-0.174188 9.69258 -0.256988 7.46478 0.578312 5.44918Z" fill="url(#paint8_radial_938_24438)"/>
</g>
</g>
<defs>
<linearGradient id="paint0_linear_938_24438" x1="5.95825" y1="32.8169" x2="9.95825" y2="32.8169" gradientUnits="userSpaceOnUse">
<stop stop-color="#3B002C"/>
<stop offset="0.0152" stop-color="#4A0037"/>
<stop offset="0.0539" stop-color="#69004F"/>
<stop offset="0.0943" stop-color="#820061"/>
<stop offset="0.1364" stop-color="#93006F"/>
<stop offset="0.1815" stop-color="#9E0076"/>
<stop offset="0.2349" stop-color="#A10079"/>
<stop offset="0.7697" stop-color="#3B002C"/>
</linearGradient>
<linearGradient id="paint1_linear_938_24438" x1="8.81274" y1="33.395" x2="12.8127" y2="33.395" gradientUnits="userSpaceOnUse">
<stop stop-color="#3B002C"/>
<stop offset="0.0152" stop-color="#4A0037"/>
<stop offset="0.0539" stop-color="#69004F"/>
<stop offset="0.0943" stop-color="#820061"/>
<stop offset="0.1364" stop-color="#93006F"/>
<stop offset="0.1815" stop-color="#9E0076"/>
<stop offset="0.2349" stop-color="#A10079"/>
<stop offset="1" stop-color="#3B002C"/>
</linearGradient>
<linearGradient id="paint2_linear_938_24438" x1="3.40542" y1="33.7476" x2="7.40542" y2="33.7476" gradientUnits="userSpaceOnUse">
<stop stop-color="#3B002C"/>
<stop offset="0.0152" stop-color="#4A0037"/>
<stop offset="0.0539" stop-color="#69004F"/>
<stop offset="0.0943" stop-color="#820061"/>
<stop offset="0.1364" stop-color="#93006F"/>
<stop offset="0.1815" stop-color="#9E0076"/>
<stop offset="0.2349" stop-color="#A10079"/>
<stop offset="1" stop-color="#3B002C"/>
</linearGradient>
<linearGradient id="paint3_linear_938_24438" x1="9.82056" y1="35.041" x2="13.8206" y2="35.041" gradientUnits="userSpaceOnUse">
<stop stop-color="#3B002C"/>
<stop offset="0.0152" stop-color="#4A0037"/>
<stop offset="0.0539" stop-color="#69004F"/>
<stop offset="0.0943" stop-color="#820061"/>
<stop offset="0.1364" stop-color="#93006F"/>
<stop offset="0.1815" stop-color="#9E0076"/>
<stop offset="0.2349" stop-color="#A10079"/>
<stop offset="1" stop-color="#3B002C"/>
</linearGradient>
<linearGradient id="paint4_linear_938_24438" x1="3.07632" y1="35.4722" x2="7.07632" y2="35.4722" gradientUnits="userSpaceOnUse">
<stop stop-color="#3B002C"/>
<stop offset="0.0152" stop-color="#4A0037"/>
<stop offset="0.0539" stop-color="#69004F"/>
<stop offset="0.0943" stop-color="#820061"/>
<stop offset="0.1364" stop-color="#93006F"/>
<stop offset="0.1815" stop-color="#9E0076"/>
<stop offset="0.2349" stop-color="#A10079"/>
<stop offset="1" stop-color="#3B002C"/>
</linearGradient>
<linearGradient id="paint5_linear_938_24438" x1="8.22278" y1="36.519" x2="12.2228" y2="36.519" gradientUnits="userSpaceOnUse">
<stop stop-color="#3B002C"/>
<stop offset="0.0152" stop-color="#4A0037"/>
<stop offset="0.0539" stop-color="#69004F"/>
<stop offset="0.0943" stop-color="#820061"/>
<stop offset="0.1364" stop-color="#93006F"/>
<stop offset="0.1815" stop-color="#9E0076"/>
<stop offset="0.2349" stop-color="#A10079"/>
<stop offset="1" stop-color="#3B002C"/>
</linearGradient>
<linearGradient id="paint6_linear_938_24438" x1="5.22095" y1="36.7246" x2="9.22095" y2="36.7246" gradientUnits="userSpaceOnUse">
<stop stop-color="#3B002C"/>
<stop offset="0.0152" stop-color="#4A0037"/>
<stop offset="0.0539" stop-color="#69004F"/>
<stop offset="0.0943" stop-color="#820061"/>
<stop offset="0.1364" stop-color="#93006F"/>
<stop offset="0.1815" stop-color="#9E0076"/>
<stop offset="0.2349" stop-color="#A10079"/>
<stop offset="1" stop-color="#3B002C"/>
</linearGradient>
<radialGradient id="paint7_radial_938_24438" cx="0" cy="0" r="1" gradientUnits="userSpaceOnUse" gradientTransform="translate(8.38116 8.44089) rotate(135) scale(8.32202)">
<stop offset="0.483" stop-color="#A10079"/>
<stop offset="0.999" stop-color="#3B002C"/>
</radialGradient>
<radialGradient id="paint8_radial_938_24438" cx="0" cy="0" r="1" gradientUnits="userSpaceOnUse" gradientTransform="translate(8.38116 8.44089) rotate(135) scale(8.32202)">
<stop offset="0.5427" stop-color="#3B002C"/>
<stop offset="1" stop-color="#A10079" stop-opacity="0"/>
</radialGradient>
</defs>
</svg>
