<svg width="35" height="125" viewBox="0 0 35 125" fill="none" xmlns="http://www.w3.org/2000/svg">
<g id="R-ICO-013684">
<path id="Vector" d="M20.6355 96.0101C18.5693 96.0107 16.8939 94.541 16.8932 92.7274C16.8932 92.7268 16.8932 92.7282 16.8932 92.7274V23.1008C16.857 21.287 18.503 19.7909 20.5694 19.7593C22.6359 19.7275 24.3405 21.1723 24.3764 22.9861C24.3771 23.0244 24.3771 23.0625 24.3764 23.1008V92.7254C24.3771 94.5389 22.7017 96.0095 20.6355 96.0101C20.636 96.0101 20.6353 96.0101 20.6355 96.0101Z" fill="url(#paint0_linear_938_22997)"/>
<path id="Vector_2" d="M5.19744 0.00248282C3.99162 0.016824 3.11911 0.271072 2.05755 0.773421C3.89498 1.19526 6.48962 2.05409 3.18844 3.10775C3.18844 3.10775 0.188365 6.10156 8.71639 7.59878L0 10.905C1.38065 12.5092 4.42157 13.1793 5.1909 13.4364C13.5653 16.236 14.1486 17.7062 14.1486 26.1656C14.1486 35.1405 14.5702 35.7765 3.99582 39.5135C-4.14264 44.4272 8.98949 40.0708 3.21061 46.8833C-4.1291 53.4663 7.23024 51.6455 5.54102 52.4261C6.36591 52.3905 7.17819 52.2348 7.94472 51.9656C24.0853 46.2965 29.1114 41.9974 29.1114 26.1615C29.1114 11.3381 24.3073 5.53366 7.70011 0.28152C6.8304 -0.00612198 6.12666 -0.00653161 5.19744 0.00248282Z" fill="url(#paint1_radial_938_22997)"/>
<path id="Vector_3" d="M6.07324 92.7254C6.07231 85.712 12.5491 80.0257 20.5396 80.0249C28.53 80.0241 35.0085 85.7089 35.0094 92.7223V92.7254C35.0094 99.3846 31.644 110.03 31.644 115.058C31.7682 120.439 26.8989 124.889 20.7685 124.998C14.6379 125.107 9.56746 120.833 9.44328 115.452C9.44024 115.321 9.44024 115.189 9.44328 115.058C9.43861 110.03 6.07324 99.3848 6.07324 92.7254Z" fill="url(#paint2_radial_938_22997)"/>
</g>
<defs>
<linearGradient id="paint0_linear_938_22997" x1="16.8931" y1="57.8756" x2="41.9959" y2="57.8756" gradientUnits="userSpaceOnUse">
<stop stop-color="#D38D5F"/>
<stop offset="0.263" stop-color="#F4E3D7"/>
<stop offset="1" stop-color="#D38D5F"/>
</linearGradient>
<radialGradient id="paint1_radial_938_22997" cx="0" cy="0" r="1" gradientUnits="userSpaceOnUse" gradientTransform="translate(1.86273 23.6602) scale(88.3165 83.2124)">
<stop offset="0.479" stop-color="#D38D5F"/>
<stop offset="0.691" stop-color="#F4E3D7"/>
<stop offset="1" stop-color="#D38D5F"/>
</radialGradient>
<radialGradient id="paint2_radial_938_22997" cx="0" cy="0" r="1" gradientUnits="userSpaceOnUse" gradientTransform="translate(17.4454 94.8407) rotate(180) scale(58.0452 44.7182)">
<stop stop-color="#F4E3D7"/>
<stop offset="1" stop-color="#D38D5F"/>
</radialGradient>
</defs>
</svg>
