<svg width="53" height="182" viewBox="0 0 53 182" fill="none" xmlns="http://www.w3.org/2000/svg">
<g id="R-ICO-012568">
<g id="BBSOME">
<path id="Vector" d="M38.4149 177.812C38.3937 180.008 32.471 181.731 25.1861 181.661C17.9012 181.591 12.013 179.753 12.0342 177.557L12.2628 153.899L38.6435 154.154L38.4149 177.812Z" fill="url(#paint0_linear_938_25282)"/>
<path id="Vector_2" d="M38.6435 154.154C38.6647 151.957 32.7764 150.12 25.4916 150.049C18.2068 149.979 12.284 151.702 12.2628 153.899C12.2416 156.095 18.1299 157.932 25.4147 158.003C32.6995 158.073 38.6222 156.35 38.6435 154.154Z" fill="url(#paint1_linear_938_25282)"/>
</g>
<path id="Vector_3" d="M29.5766 153.784C29.57 154.47 27.7199 155.009 25.4443 154.987C23.1687 154.965 21.3293 154.391 21.336 153.705L21.4246 144.54L29.6653 144.62L29.5766 153.784Z" fill="url(#paint2_linear_938_25282)"/>
<g id="BASAL BODY">
<path id="Vector_4" d="M38.7577 142.325C38.7365 144.521 32.8138 146.244 25.5289 146.174C18.2441 146.103 12.3557 144.266 12.377 142.07L12.6056 118.412L38.9863 118.667L38.7577 142.325Z" fill="url(#paint3_linear_938_25282)"/>
<path id="Vector_5" d="M38.9862 118.667C39.0074 116.47 33.1191 114.633 25.8343 114.562C18.5495 114.492 12.6267 116.215 12.6055 118.412C12.5843 120.608 18.4726 122.445 25.7574 122.516C33.0422 122.586 38.965 120.863 38.9862 118.667Z" fill="url(#paint4_linear_938_25282)"/>
</g>
<g id="AXONEMES">
<path id="AXONEME" d="M15.0495 118.199C14.7528 118.196 14.5146 117.941 14.5176 117.629L15.6316 2.33782C15.6346 2.02592 15.8778 1.77552 16.1744 1.77842C16.4711 1.78132 16.7093 2.03632 16.7063 2.34822L15.5923 117.64C15.5893 117.952 15.3462 118.202 15.0495 118.199Z" fill="url(#paint5_linear_938_25282)"/>
<path id="AXONEME_2" d="M18.6394 117.481C18.3427 117.478 18.1044 117.223 18.1074 116.911L19.2215 1.61942C19.2245 1.30752 19.4676 1.05712 19.7642 1.06002C20.0608 1.06292 20.2992 1.31792 20.2961 1.62982L19.1821 116.922C19.1791 117.233 18.9361 117.484 18.6394 117.481Z" fill="url(#paint6_linear_938_25282)"/>
<path id="AXONEME_3" d="M22.2302 116.763C21.9335 116.76 21.6953 116.505 21.6983 116.193L22.8123 0.901222C22.8153 0.589322 23.0585 0.338922 23.3551 0.341822C23.6518 0.344722 23.89 0.599722 23.887 0.911622L22.773 116.203C22.7701 116.515 22.5269 116.766 22.2302 116.763Z" fill="url(#paint7_linear_938_25282)"/>
<path id="AXONEME_4" d="M25.8161 116.421C25.5194 116.418 25.2812 116.163 25.2842 115.851L26.3982 0.559423C26.4011 0.247523 26.6443 -0.00277674 26.941 2.32644e-05C27.2377 0.00292326 27.4759 0.257923 27.4729 0.569823L26.3589 115.862C26.3559 116.173 26.1127 116.424 25.8161 116.421Z" fill="url(#paint8_linear_938_25282)"/>
<path id="AXONEME_5" d="M29.3952 116.832C29.0985 116.829 28.8603 116.574 28.8633 116.262L29.9773 0.970527C29.9803 0.658627 30.2235 0.408227 30.5201 0.411127C30.8168 0.414027 31.055 0.669027 31.052 0.980927L29.938 116.273C29.935 116.584 29.6918 116.835 29.3952 116.832Z" fill="url(#paint9_linear_938_25282)"/>
<path id="AXONEME_6" d="M32.9714 117.62C32.6747 117.617 32.4365 117.361 32.4395 117.05L33.5535 1.75793C33.5565 1.44603 33.7997 1.19563 34.0963 1.19853C34.393 1.20143 34.6312 1.45643 34.6282 1.76833L33.5142 117.06C33.5113 117.372 33.2681 117.622 32.9714 117.62Z" fill="url(#paint10_linear_938_25282)"/>
<path id="AXONEME_7" d="M36.5466 118.407C36.2499 118.404 36.0117 118.149 36.0147 117.837L37.1287 2.54552C37.1317 2.23362 37.3749 1.98322 37.6715 1.98612C37.9681 1.98902 38.2064 2.24402 38.2034 2.55592L37.0894 117.848C37.0865 118.159 36.8433 118.41 36.5466 118.407Z" fill="url(#paint11_linear_938_25282)"/>
<path id="AXONEME_8" d="M34.7409 119.895C34.4442 119.892 34.206 119.637 34.209 119.325L35.323 4.03382C35.326 3.72192 35.5692 3.47152 35.8658 3.47442C36.1625 3.47732 36.4007 3.73232 36.3977 4.04422L35.2837 119.336C35.2807 119.648 35.0376 119.898 34.7409 119.895Z" fill="url(#paint12_linear_938_25282)"/>
<path id="AXONEME_9" d="M16.8269 119.722C16.5302 119.719 16.2919 119.464 16.2949 119.152L17.4089 3.86072C17.4119 3.54882 17.6551 3.29842 17.9517 3.30132C18.2484 3.30422 18.4866 3.55922 18.4836 3.87112L17.3696 119.163C17.3667 119.474 17.1236 119.725 16.8269 119.722Z" fill="url(#paint13_linear_938_25282)"/>
<path id="AXONEME_10" d="M20.3981 120.886C20.1014 120.883 19.8632 120.628 19.8662 120.317L20.9802 5.02473C20.9832 4.71283 21.2264 4.46243 21.523 4.46533C21.8197 4.46823 22.0579 4.72323 22.0549 5.03513L20.9409 120.327C20.9379 120.639 20.6948 120.889 20.3981 120.886Z" fill="url(#paint14_linear_938_25282)"/>
<path id="AXONEME_11" d="M31.1472 120.99C30.8505 120.987 30.6123 120.732 30.6153 120.42L31.7293 5.12852C31.7323 4.81662 31.9755 4.56622 32.2721 4.56912C32.5688 4.57202 32.8071 4.82702 32.8041 5.13892L31.6901 120.431C31.6871 120.742 31.4439 120.993 31.1472 120.99Z" fill="url(#paint15_linear_938_25282)"/>
<path id="AXONEME_12" d="M27.5573 121.708C27.2606 121.705 27.0224 121.45 27.0254 121.139L28.1394 5.84672C28.1424 5.53482 28.3856 5.28442 28.6822 5.28732C28.9789 5.29022 29.2171 5.54522 29.2141 5.85712L28.1001 121.149C28.0971 121.461 27.854 121.711 27.5573 121.708Z" fill="url(#paint16_linear_938_25282)"/>
<path id="AXONEME_13" d="M23.9743 121.674C23.6776 121.671 23.4394 121.416 23.4424 121.104L24.5564 5.81213C24.5594 5.50023 24.8026 5.24983 25.0992 5.25273C25.3959 5.25563 25.6341 5.51063 25.6311 5.82253L24.5171 121.114C24.5142 121.426 24.271 121.677 23.9743 121.674Z" fill="url(#paint17_linear_938_25282)"/>
</g>
<g id="Group">
<g id="DYNEIN">
<path id="Vector_6" d="M38.7122 48.9008C38.5961 48.8997 38.4779 48.8754 38.3646 48.8255C37.916 48.6282 37.7119 48.105 37.9092 47.6564L41.2224 40.1192C41.4191 39.6714 41.9432 39.4671 42.3912 39.6641C42.8398 39.8614 43.0439 40.3846 42.8466 40.8332L39.5334 48.3704C39.3865 48.7054 39.0565 48.9041 38.7122 48.9008Z" fill="url(#paint18_linear_938_25282)"/>
<path id="Vector_7" d="M31.7806 54.7893C31.5529 54.5572 31.4003 54.2489 31.3657 53.9002C31.2853 53.0875 31.879 52.3635 32.6918 52.2832C33.9452 52.1597 35.0838 51.6271 35.9849 50.7432C36.8856 49.8597 37.44 48.7319 37.5882 47.4821C37.6843 46.6711 37.8281 46.0858 38.6389 46.182C39.4511 46.2785 40.0232 47.6058 39.9276 48.4156C39.703 50.3147 39.423 51.5133 38.0557 52.8544C36.688 54.1959 34.8862 55.0385 32.9824 55.2263C32.5184 55.2719 32.0835 55.0982 31.7806 54.7893Z" fill="url(#paint19_radial_938_25282)"/>
<path id="Vector_8" d="M31.8089 51.8321C31.5812 51.6 31.4286 51.2917 31.394 50.943C31.3136 50.1303 31.9073 49.4063 32.7201 49.326C33.9735 49.2025 35.1121 48.6699 36.0132 47.786C36.9139 46.9025 37.4683 45.7747 37.6165 44.5249C37.7126 43.7139 37.8564 43.1286 38.6672 43.2248C39.4794 43.3213 40.0515 44.6486 39.9559 45.4584C39.7313 47.3575 39.4513 48.5561 38.084 49.8972C36.7163 51.2387 34.9145 52.0813 33.0107 52.2691C32.5468 52.3146 32.1119 52.1409 31.8089 51.8321Z" fill="url(#paint20_radial_938_25282)"/>
</g>
<path id="IFT PARTICLE" d="M44.504 41.3846C48.3447 41.3846 51.4582 38.2711 51.4582 34.4304C51.4582 30.5897 48.3447 27.4762 44.504 27.4762C40.6633 27.4762 37.5498 30.5897 37.5498 34.4304C37.5498 38.2711 40.6633 41.3846 44.504 41.3846Z" fill="url(#paint21_radial_938_25282)"/>
<path id="CARGO" d="M49.2753 30.1299C49.1683 29.6243 49.7207 29.218 50.1578 29.4937C50.7904 29.8927 51.3314 30.4222 51.7789 31.0477C52.4594 32.0095 52.8792 33.2475 52.8626 34.5134C52.8472 35.7794 52.3992 37.0005 51.7027 37.9459C51.2433 38.5631 50.6929 39.0842 50.0518 39.4743C49.6108 39.7426 49.0656 39.3307 49.178 38.8268C49.3301 38.1451 49.4878 37.5327 49.6033 36.9462C49.7894 36.0519 49.888 35.256 49.9065 34.4741C49.9145 33.6918 49.835 32.8981 49.6681 32.004C49.5658 31.4198 49.419 30.809 49.2753 30.1299Z" fill="url(#paint22_radial_938_25282)"/>
</g>
<g id="Group_2">
<g id="DYNEIN_2">
<path id="Vector_9" d="M38.4847 72.5588C38.3686 72.5577 38.2504 72.5334 38.1371 72.4835C37.6885 72.2862 37.4844 71.763 37.6817 71.3144L40.9949 63.7772C41.1916 63.3294 41.7157 63.1251 42.1637 63.3221C42.6123 63.5194 42.8164 64.0426 42.6191 64.4912L39.3059 72.0284C39.1589 72.3634 38.8289 72.5621 38.4847 72.5588Z" fill="url(#paint23_linear_938_25282)"/>
<path id="Vector_10" d="M31.5522 78.4473C31.3245 78.2152 31.1719 77.9069 31.1372 77.5582C31.0568 76.7455 31.6505 76.0215 32.4633 75.9412C33.7167 75.8177 34.8553 75.2851 35.7564 74.4012C36.6571 73.5177 37.2115 72.3899 37.3598 71.1401C37.4559 70.3291 37.5997 69.7438 38.4105 69.84C39.2228 69.9365 39.7948 71.2638 39.6992 72.0736C39.4746 73.9727 39.1946 75.1713 37.8273 76.5124C36.4596 77.8539 34.6578 78.6965 32.754 78.8843C32.29 78.9299 31.8551 78.7562 31.5522 78.4473Z" fill="url(#paint24_radial_938_25282)"/>
<path id="Vector_11" d="M31.5805 75.4901C31.3528 75.258 31.2002 74.9497 31.1655 74.601C31.0851 73.7883 31.6788 73.0643 32.4916 72.984C33.745 72.8605 34.8836 72.3279 35.7847 71.444C36.6854 70.5605 37.2398 69.4327 37.388 68.1829C37.4841 67.3719 37.6279 66.7866 38.4387 66.8828C39.2509 66.9793 39.823 68.3066 39.7274 69.1164C39.5028 71.0155 39.2228 72.2141 37.8555 73.5552C36.4878 74.8967 34.686 75.7393 32.7822 75.9271C32.3183 75.9726 31.8834 75.7989 31.5805 75.4901Z" fill="url(#paint25_radial_938_25282)"/>
</g>
<path id="IFT PARTICLE_2" d="M44.2755 65.0426C48.1162 65.0426 51.2297 61.9291 51.2297 58.0884C51.2297 54.2477 48.1162 51.1342 44.2755 51.1342C40.4348 51.1342 37.3213 54.2477 37.3213 58.0884C37.3213 61.9291 40.4348 65.0426 44.2755 65.0426Z" fill="url(#paint26_radial_938_25282)"/>
<path id="CARGO_2" d="M49.0468 53.7879C48.9398 53.2823 49.4922 52.876 49.9293 53.1517C50.5619 53.5507 51.1029 54.0802 51.5504 54.7057C52.2309 55.6675 52.6507 56.9055 52.6341 58.1714C52.6187 59.4374 52.1707 60.6585 51.4742 61.6039C51.0148 62.2211 50.4644 62.7422 49.8233 63.1323C49.3823 63.4006 48.8371 62.9887 48.9495 62.4848C49.1016 61.8031 49.2593 61.1907 49.3748 60.6042C49.5609 59.7099 49.6595 58.914 49.678 58.1321C49.686 57.3498 49.6065 56.5561 49.4396 55.662C49.3373 55.0778 49.1905 54.467 49.0468 53.7879Z" fill="url(#paint27_radial_938_25282)"/>
</g>
<g id="Group_3">
<g id="DYNEIN_3">
<path id="Vector_12" d="M38.2562 96.2168C38.1401 96.2157 38.0219 96.1914 37.9086 96.1415C37.46 95.9442 37.2559 95.421 37.4532 94.9724L40.7664 87.4352C40.9631 86.9874 41.4872 86.7831 41.9352 86.9801C42.3838 87.1774 42.5879 87.7006 42.3906 88.1492L39.0774 95.6864C38.9304 96.0214 38.6004 96.2201 38.2562 96.2168Z" fill="url(#paint28_linear_938_25282)"/>
<path id="Vector_13" d="M31.3236 102.105C31.0959 101.873 30.9433 101.565 30.9087 101.216C30.8283 100.404 31.422 99.6796 32.2348 99.5993C33.4882 99.4758 34.6268 98.9432 35.5279 98.0593C36.4287 97.1758 36.983 96.048 37.1313 94.7982C37.2274 93.9872 37.3712 93.4019 38.182 93.4981C38.9943 93.5946 39.5663 94.9219 39.4707 95.7317C39.2461 97.6308 38.9661 98.8294 37.5988 100.171C36.2311 101.512 34.4293 102.355 32.5255 102.542C32.0615 102.588 31.6265 102.414 31.3236 102.105Z" fill="url(#paint29_radial_938_25282)"/>
<path id="Vector_14" d="M31.3519 99.1481C31.1242 98.916 30.9716 98.6077 30.937 98.259C30.8566 97.4463 31.4503 96.7223 32.2631 96.642C33.5165 96.5185 34.6551 95.9859 35.5562 95.102C36.4569 94.2185 37.0113 93.0907 37.1595 91.8409C37.2556 91.0299 37.3994 90.4446 38.2102 90.5408C39.0224 90.6373 39.5945 91.9646 39.4989 92.7744C39.2743 94.6735 38.9943 95.8721 37.627 97.2132C36.2593 98.5547 34.4575 99.3973 32.5537 99.5851C32.0897 99.6306 31.6548 99.4569 31.3519 99.1481Z" fill="url(#paint30_radial_938_25282)"/>
</g>
<path id="IFT PARTICLE_3" d="M44.047 88.7006C47.8877 88.7006 51.0012 85.5871 51.0012 81.7464C51.0012 77.9057 47.8877 74.7922 44.047 74.7922C40.2063 74.7922 37.0928 77.9057 37.0928 81.7464C37.0928 85.5871 40.2063 88.7006 44.047 88.7006Z" fill="url(#paint31_radial_938_25282)"/>
<path id="CARGO_3" d="M48.8183 77.446C48.7113 76.9404 49.2637 76.5341 49.7008 76.8098C50.3334 77.2088 50.8744 77.7383 51.3219 78.3638C52.0024 79.3256 52.4222 80.5636 52.4056 81.8295C52.3902 83.0955 51.9422 84.3166 51.2457 85.262C50.7863 85.8792 50.2359 86.4003 49.5948 86.7904C49.1538 87.0587 48.6086 86.6468 48.721 86.1429C48.8731 85.4612 49.0308 84.8488 49.1463 84.2624C49.3324 83.3681 49.431 82.5722 49.4495 81.7903C49.4575 81.008 49.378 80.2143 49.2111 79.3202C49.1088 78.7358 48.962 78.125 48.8183 77.446Z" fill="url(#paint32_radial_938_25282)"/>
</g>
<g id="Group_4">
<g id="KINESIN">
<path id="Vector_15" d="M14.3265 48.6651C14.4426 48.6662 14.5612 48.6443 14.6755 48.5966C15.1279 48.4081 15.342 47.8888 15.1534 47.4365L11.9865 39.8367C11.7985 39.3852 11.2784 39.1708 10.8267 39.3591C10.3743 39.5476 10.1602 40.0669 10.3488 40.5192L13.5157 48.119C13.6562 48.4568 13.9823 48.6618 14.3265 48.6651Z" fill="url(#paint33_linear_938_25282)"/>
<path id="Vector_16" d="M21.1437 54.6865C21.3758 54.4588 21.5344 54.1536 21.5758 53.8056C21.6719 52.9946 21.0923 52.2593 20.2812 52.1633C19.0304 52.0156 17.9024 51.4611 17.0184 50.5599C16.1349 49.6592 15.6025 48.5208 15.4784 47.2684C15.398 46.4557 15.2656 45.8677 14.453 45.9483C13.639 46.0291 13.0415 47.3451 13.1214 48.1566C13.3093 50.0597 13.5661 51.2634 14.9072 52.6307C16.2487 53.9984 18.0339 54.8756 19.9338 55.1002C20.3967 55.1547 20.8349 54.9895 21.1437 54.6865Z" fill="url(#paint34_radial_938_25282)"/>
<path id="Vector_17" d="M21.172 51.7293C21.4041 51.5016 21.5627 51.1964 21.6041 50.8484C21.7002 50.0374 21.1206 49.3021 20.3095 49.2061C19.0587 49.0584 17.9307 48.5039 17.0467 47.6027C16.1632 46.702 15.6308 45.5636 15.5067 44.3112C15.4263 43.4985 15.2939 42.9105 14.4813 42.9911C13.6673 43.0719 13.0698 44.3879 13.1497 45.1994C13.3376 47.1024 13.5944 48.3062 14.9355 49.6735C16.277 51.0412 18.0622 51.9184 19.9621 52.143C20.425 52.1975 20.8632 52.0322 21.172 51.7293Z" fill="url(#paint35_radial_938_25282)"/>
</g>
<path id="IFT PARTICLE_4" d="M8.81553 41.0398C12.6562 41.0398 15.7697 37.9263 15.7697 34.0856C15.7697 30.2449 12.6562 27.1314 8.81553 27.1314C4.97483 27.1314 1.86133 30.2449 1.86133 34.0856C1.86133 37.9263 4.97483 41.0398 8.81553 41.0398Z" fill="url(#paint36_radial_938_25282)"/>
<path id="CARGO_4" d="M4.12867 29.6937C4.24537 29.1902 3.70097 28.7734 3.25857 29.0406C2.61837 29.4273 2.06727 29.9462 1.60767 30.563C0.908675 31.5115 0.465075 32.7411 0.457175 34.0071C0.448075 35.2732 0.872375 36.5027 1.55057 37.4614C1.99797 38.0874 2.53817 38.619 3.17167 39.0214C3.60747 39.2982 4.16048 38.8968 4.05787 38.3909C3.91887 37.7064 3.77307 37.091 3.66887 36.5025C3.50007 35.6048 3.41687 34.8071 3.41347 34.025C3.42057 33.2427 3.51537 32.4507 3.69957 31.5599C3.81327 30.9777 3.97187 30.3699 4.12867 29.6937Z" fill="url(#paint37_radial_938_25282)"/>
</g>
<g id="Group_5">
<g id="KINESIN_2">
<path id="Vector_18" d="M14.098 72.3231C14.2141 72.3242 14.3327 72.3023 14.447 72.2546C14.8994 72.066 15.1135 71.5468 14.9249 71.0945L11.758 63.4947C11.57 63.0432 11.0499 62.8288 10.5982 63.0171C10.1458 63.2056 9.93168 63.7249 10.1203 64.1772L13.2872 71.777C13.4277 72.1148 13.7538 72.3198 14.098 72.3231Z" fill="url(#paint38_linear_938_25282)"/>
<path id="Vector_19" d="M20.9152 78.3446C21.1473 78.1169 21.3059 77.8117 21.3473 77.4637C21.4434 76.6527 20.8638 75.9174 20.0527 75.8214C18.8019 75.6737 17.6739 75.1192 16.7899 74.218C15.9064 73.3173 15.374 72.1789 15.2499 70.9265C15.1695 70.1138 15.0371 69.5258 14.2245 69.6063C13.4105 69.6871 12.813 71.0031 12.8929 71.8146C13.0808 73.7177 13.3376 74.9214 14.6787 76.2887C16.0202 77.6564 17.8054 78.5336 19.7053 78.7582C20.1682 78.8128 20.6064 78.6475 20.9152 78.3446Z" fill="url(#paint39_radial_938_25282)"/>
<path id="Vector_20" d="M20.9435 75.3873C21.1756 75.1596 21.3342 74.8544 21.3756 74.5064C21.4717 73.6954 20.8921 72.9601 20.081 72.8641C18.8302 72.7164 17.7022 72.1619 16.8182 71.2607C15.9347 70.3599 15.4023 69.2216 15.2782 67.9692C15.1978 67.1565 15.0654 66.5685 14.2528 66.649C13.4388 66.7298 12.8413 68.0458 12.9212 68.8573C13.1091 70.7604 13.3659 71.9641 14.707 73.3314C16.0485 74.6991 17.8337 75.5763 19.7336 75.8009C20.1965 75.8555 20.6347 75.6902 20.9435 75.3873Z" fill="url(#paint40_radial_938_25282)"/>
</g>
<path id="IFT PARTICLE_5" d="M8.58701 64.6978C12.4277 64.6978 15.5412 61.5843 15.5412 57.7436C15.5412 53.9029 12.4277 50.7894 8.58701 50.7894C4.74631 50.7894 1.63281 53.9029 1.63281 57.7436C1.63281 61.5843 4.74631 64.6978 8.58701 64.6978Z" fill="url(#paint41_radial_938_25282)"/>
<path id="CARGO_5" d="M3.90016 53.3517C4.01686 52.8482 3.47246 52.4314 3.03006 52.6986C2.38986 53.0853 1.83876 53.6042 1.37916 54.221C0.680159 55.1695 0.236559 56.3991 0.228659 57.6651C0.219559 58.9312 0.643859 60.1607 1.32206 61.1194C1.76946 61.7454 2.30966 62.277 2.94316 62.6794C3.37896 62.9562 3.93196 62.5548 3.82936 62.0489C3.69046 61.3643 3.54456 60.749 3.44046 60.1605C3.27166 59.2628 3.18846 58.4651 3.18506 57.683C3.19216 56.9007 3.28696 56.1087 3.47116 55.2179C3.58476 54.6357 3.74336 54.0279 3.90016 53.3517Z" fill="url(#paint42_radial_938_25282)"/>
</g>
<g id="Group_6">
<g id="KINESIN_3">
<path id="Vector_21" d="M13.8695 95.9812C13.9856 95.9823 14.1042 95.9604 14.2185 95.9127C14.6709 95.7242 14.885 95.2049 14.6964 94.7526L11.5295 87.1528C11.3415 86.7013 10.8214 86.4869 10.3697 86.6752C9.91727 86.8637 9.70317 87.383 9.89177 87.8353L13.0587 95.4351C13.1991 95.7728 13.5252 95.9778 13.8695 95.9812Z" fill="url(#paint43_linear_938_25282)"/>
<path id="Vector_22" d="M20.6867 102.003C20.9188 101.775 21.0774 101.47 21.1188 101.122C21.2149 100.311 20.6353 99.5754 19.8242 99.4794C18.5734 99.3317 17.4454 98.7772 16.5614 97.876C15.6779 96.9753 15.1455 95.8369 15.0214 94.5845C14.941 93.7718 14.8086 93.1838 13.996 93.2644C13.182 93.3452 12.5845 94.6612 12.6644 95.4727C12.8523 97.3758 13.1091 98.5795 14.4502 99.9468C15.7917 101.315 17.5769 102.192 19.4768 102.416C19.9396 102.471 20.3778 102.306 20.6867 102.003Z" fill="url(#paint44_radial_938_25282)"/>
<path id="Vector_23" d="M20.715 99.0454C20.9471 98.8177 21.1057 98.5124 21.1471 98.1644C21.2432 97.3534 20.6636 96.6182 19.8525 96.5222C18.6017 96.3745 17.4737 95.8199 16.5897 94.9187C15.7062 94.018 15.1738 92.8796 15.0497 91.6272C14.9693 90.8145 14.8369 90.2265 14.0243 90.3071C13.2103 90.3879 12.6128 91.704 12.6927 92.5155C12.8806 94.4185 13.1374 95.6223 14.4785 96.9896C15.82 98.3573 17.6052 99.2344 19.5051 99.459C19.968 99.5135 20.4062 99.3484 20.715 99.0454Z" fill="url(#paint45_radial_938_25282)"/>
</g>
<path id="IFT PARTICLE_6" d="M8.3585 88.3558C12.1992 88.3558 15.3127 85.2423 15.3127 81.4016C15.3127 77.5609 12.1992 74.4474 8.3585 74.4474C4.5178 74.4474 1.4043 77.5609 1.4043 81.4016C1.4043 85.2423 4.5178 88.3558 8.3585 88.3558Z" fill="url(#paint46_radial_938_25282)"/>
<path id="CARGO_6" d="M3.67164 77.0097C3.78834 76.5062 3.24394 76.0894 2.80154 76.3566C2.16134 76.7433 1.61024 77.2622 1.15064 77.879C0.451643 78.8275 0.00804351 80.0571 0.000143511 81.3231C-0.00895649 82.5892 0.415344 83.8187 1.09354 84.7774C1.54094 85.4034 2.08114 85.935 2.71464 86.3374C3.15044 86.6142 3.70344 86.2128 3.60084 85.7069C3.46194 85.0223 3.31604 84.407 3.21194 83.8185C3.04314 82.9208 2.95994 82.1231 2.95654 81.341C2.96364 80.5587 3.05844 79.7667 3.24264 78.8759C3.35634 78.2938 3.51484 77.6859 3.67164 77.0097Z" fill="url(#paint47_radial_938_25282)"/>
</g>
</g>
<defs>
<linearGradient id="paint0_linear_938_25282" x1="12.1167" y1="167.754" x2="38.4987" y2="168.01" gradientUnits="userSpaceOnUse">
<stop stop-color="#FCDBDB"/>
<stop offset="0.2575" stop-color="#FCE5E5"/>
<stop offset="1" stop-color="#B88181"/>
</linearGradient>
<linearGradient id="paint1_linear_938_25282" x1="11.9765" y1="153.692" x2="38.1909" y2="154.345" gradientUnits="userSpaceOnUse">
<stop stop-color="#FCDBDB"/>
<stop offset="1" stop-color="#B88181"/>
</linearGradient>
<linearGradient id="paint2_linear_938_25282" x1="21.3628" y1="149.781" x2="29.6038" y2="149.861" gradientUnits="userSpaceOnUse">
<stop stop-color="#B0C3FC"/>
<stop offset="0.015" stop-color="#B5C7FC"/>
<stop offset="0.1087" stop-color="#CFDBFC"/>
<stop offset="0.1925" stop-color="#DFE7FC"/>
<stop offset="0.2575" stop-color="#E5EBFC"/>
<stop offset="0.3451" stop-color="#DFE6FA"/>
<stop offset="0.4638" stop-color="#CED7F3"/>
<stop offset="0.6004" stop-color="#B1BFE8"/>
<stop offset="0.7504" stop-color="#899DD8"/>
<stop offset="0.9095" stop-color="#5772C5"/>
<stop offset="1" stop-color="#3757B8"/>
</linearGradient>
<linearGradient id="paint3_linear_938_25282" x1="12.4609" y1="132.266" x2="38.8429" y2="132.522" gradientUnits="userSpaceOnUse">
<stop stop-color="#FCDBDB"/>
<stop offset="0.2575" stop-color="#FCE5E5"/>
<stop offset="1" stop-color="#B88181"/>
</linearGradient>
<linearGradient id="paint4_linear_938_25282" x1="12.5949" y1="118.448" x2="38.9769" y2="118.704" gradientUnits="userSpaceOnUse">
<stop stop-color="#FCDBDB"/>
<stop offset="1" stop-color="#B88181"/>
</linearGradient>
<linearGradient id="paint5_linear_938_25282" x1="15.0662" y1="60.017" x2="16.1411" y2="60.0274" gradientUnits="userSpaceOnUse">
<stop stop-color="#D7A8A8"/>
<stop offset="1" stop-color="#B88181"/>
</linearGradient>
<linearGradient id="paint6_linear_938_25282" x1="18.6563" y1="59.2988" x2="19.7312" y2="59.3092" gradientUnits="userSpaceOnUse">
<stop stop-color="#D7A8A8"/>
<stop offset="1" stop-color="#B88181"/>
</linearGradient>
<linearGradient id="paint7_linear_938_25282" x1="22.2473" y1="58.5807" x2="23.3222" y2="58.5911" gradientUnits="userSpaceOnUse">
<stop stop-color="#D7A8A8"/>
<stop offset="1" stop-color="#B88181"/>
</linearGradient>
<linearGradient id="paint8_linear_938_25282" x1="25.8334" y1="58.2391" x2="26.9082" y2="58.2495" gradientUnits="userSpaceOnUse">
<stop stop-color="#D7A8A8"/>
<stop offset="1" stop-color="#B88181"/>
</linearGradient>
<linearGradient id="paint9_linear_938_25282" x1="29.4127" y1="58.6502" x2="30.4875" y2="58.6607" gradientUnits="userSpaceOnUse">
<stop stop-color="#D7A8A8"/>
<stop offset="1" stop-color="#B88181"/>
</linearGradient>
<linearGradient id="paint10_linear_938_25282" x1="32.989" y1="59.4378" x2="34.0638" y2="59.4482" gradientUnits="userSpaceOnUse">
<stop stop-color="#D7A8A8"/>
<stop offset="1" stop-color="#B88181"/>
</linearGradient>
<linearGradient id="paint11_linear_938_25282" x1="36.5644" y1="60.2255" x2="37.6392" y2="60.236" gradientUnits="userSpaceOnUse">
<stop stop-color="#D7A8A8"/>
<stop offset="1" stop-color="#B88181"/>
</linearGradient>
<linearGradient id="paint12_linear_938_25282" x1="34.7586" y1="61.7138" x2="35.8334" y2="61.7242" gradientUnits="userSpaceOnUse">
<stop stop-color="#FCDBDB"/>
<stop offset="1" stop-color="#B88181"/>
</linearGradient>
<linearGradient id="paint13_linear_938_25282" x1="16.8436" y1="61.54" x2="17.9185" y2="61.5504" gradientUnits="userSpaceOnUse">
<stop stop-color="#FCDBDB"/>
<stop offset="1" stop-color="#B88181"/>
</linearGradient>
<linearGradient id="paint14_linear_938_25282" x1="20.415" y1="62.7043" x2="21.4898" y2="62.7148" gradientUnits="userSpaceOnUse">
<stop stop-color="#FCDBDB"/>
<stop offset="1" stop-color="#B88181"/>
</linearGradient>
<linearGradient id="paint15_linear_938_25282" x1="31.1646" y1="62.8086" x2="32.2394" y2="62.819" gradientUnits="userSpaceOnUse">
<stop stop-color="#FCDBDB"/>
<stop offset="1" stop-color="#B88181"/>
</linearGradient>
<linearGradient id="paint16_linear_938_25282" x1="27.5745" y1="63.5266" x2="28.6494" y2="63.5371" gradientUnits="userSpaceOnUse">
<stop stop-color="#FCDBDB"/>
<stop offset="1" stop-color="#B88181"/>
</linearGradient>
<linearGradient id="paint17_linear_938_25282" x1="23.9914" y1="63.4919" x2="25.0663" y2="63.5023" gradientUnits="userSpaceOnUse">
<stop stop-color="#FCDBDB"/>
<stop offset="1" stop-color="#B88181"/>
</linearGradient>
<linearGradient id="paint18_linear_938_25282" x1="39.4813" y1="43.8763" x2="41.165" y2="44.6367" gradientUnits="userSpaceOnUse">
<stop stop-color="#803F3F"/>
<stop offset="0.0313" stop-color="#8F4B4B"/>
<stop offset="0.1151" stop-color="#B16767"/>
<stop offset="0.2003" stop-color="#CC7D7D"/>
<stop offset="0.2866" stop-color="#E08D8D"/>
<stop offset="0.3745" stop-color="#EB9696"/>
<stop offset="0.4667" stop-color="#EF9999"/>
<stop offset="0.6116" stop-color="#D58484"/>
<stop offset="0.9202" stop-color="#924E4E"/>
<stop offset="1" stop-color="#803F3F"/>
</linearGradient>
<radialGradient id="paint19_radial_938_25282" cx="0" cy="0" r="1" gradientTransform="matrix(4.10821 4.18859 -5.68942 5.58088 33.6419 48.734)" gradientUnits="userSpaceOnUse">
<stop offset="0.3428" stop-color="#3F8045"/>
<stop offset="0.3641" stop-color="#4B8F51"/>
<stop offset="0.4213" stop-color="#67B16D"/>
<stop offset="0.4795" stop-color="#7DCC82"/>
<stop offset="0.5384" stop-color="#8DE092"/>
<stop offset="0.5985" stop-color="#96EB9B"/>
<stop offset="0.6614" stop-color="#99EF9E"/>
<stop offset="0.7534" stop-color="#84D589"/>
<stop offset="0.9493" stop-color="#4E9254"/>
<stop offset="1" stop-color="#3F8045"/>
</radialGradient>
<radialGradient id="paint20_radial_938_25282" cx="0" cy="0" r="1" gradientTransform="matrix(4.10821 4.18859 -5.68943 5.58088 33.6703 45.7765)" gradientUnits="userSpaceOnUse">
<stop offset="0.3428" stop-color="#3F8045"/>
<stop offset="0.3641" stop-color="#4B8F51"/>
<stop offset="0.4213" stop-color="#67B16D"/>
<stop offset="0.4795" stop-color="#7DCC82"/>
<stop offset="0.5384" stop-color="#8DE092"/>
<stop offset="0.5985" stop-color="#96EB9B"/>
<stop offset="0.6614" stop-color="#99EF9E"/>
<stop offset="0.7534" stop-color="#84D589"/>
<stop offset="0.9493" stop-color="#4E9254"/>
<stop offset="1" stop-color="#3F8045"/>
</radialGradient>
<radialGradient id="paint21_radial_938_25282" cx="0" cy="0" r="1" gradientUnits="userSpaceOnUse" gradientTransform="translate(44.0261 36.7752) rotate(0.555752) scale(8.08448)">
<stop stop-color="#EFCAE9"/>
<stop offset="0.0499" stop-color="#E6BFE2"/>
<stop offset="0.2569" stop-color="#C696C9"/>
<stop offset="0.4598" stop-color="#AD76B5"/>
<stop offset="0.6548" stop-color="#9B5FA7"/>
<stop offset="0.8388" stop-color="#90529F"/>
<stop offset="1" stop-color="#8C4D9C"/>
</radialGradient>
<radialGradient id="paint22_radial_938_25282" cx="0" cy="0" r="1" gradientTransform="matrix(5.096 0.0494312 -0.0805167 8.32024 47.7427 34.4095)" gradientUnits="userSpaceOnUse">
<stop offset="0.4132" stop-color="#8A7229"/>
<stop offset="0.4143" stop-color="#8B732A"/>
<stop offset="0.486" stop-color="#B69C4B"/>
<stop offset="0.5506" stop-color="#D5B963"/>
<stop offset="0.6051" stop-color="#E8CB72"/>
<stop offset="0.6429" stop-color="#EFD277"/>
<stop offset="0.6915" stop-color="#E9CC72"/>
<stop offset="0.7565" stop-color="#D8BC65"/>
<stop offset="0.8308" stop-color="#BCA250"/>
<stop offset="0.9115" stop-color="#957D32"/>
<stop offset="0.9328" stop-color="#8A7229"/>
</radialGradient>
<linearGradient id="paint23_linear_938_25282" x1="39.2528" y1="67.5355" x2="40.9365" y2="68.2958" gradientUnits="userSpaceOnUse">
<stop stop-color="#803F3F"/>
<stop offset="0.0313" stop-color="#8F4B4B"/>
<stop offset="0.1151" stop-color="#B16767"/>
<stop offset="0.2003" stop-color="#CC7D7D"/>
<stop offset="0.2866" stop-color="#E08D8D"/>
<stop offset="0.3745" stop-color="#EB9696"/>
<stop offset="0.4667" stop-color="#EF9999"/>
<stop offset="0.6116" stop-color="#D58484"/>
<stop offset="0.9202" stop-color="#924E4E"/>
<stop offset="1" stop-color="#803F3F"/>
</linearGradient>
<radialGradient id="paint24_radial_938_25282" cx="0" cy="0" r="1" gradientTransform="matrix(4.10821 4.1886 -5.68942 5.58088 33.413 72.3927)" gradientUnits="userSpaceOnUse">
<stop offset="0.3428" stop-color="#3F8045"/>
<stop offset="0.3641" stop-color="#4B8F51"/>
<stop offset="0.4213" stop-color="#67B16D"/>
<stop offset="0.4795" stop-color="#7DCC82"/>
<stop offset="0.5384" stop-color="#8DE092"/>
<stop offset="0.5985" stop-color="#96EB9B"/>
<stop offset="0.6614" stop-color="#99EF9E"/>
<stop offset="0.7534" stop-color="#84D589"/>
<stop offset="0.9493" stop-color="#4E9254"/>
<stop offset="1" stop-color="#3F8045"/>
</radialGradient>
<radialGradient id="paint25_radial_938_25282" cx="0" cy="0" r="1" gradientTransform="matrix(4.10821 4.1886 -5.68942 5.58088 33.4414 69.4353)" gradientUnits="userSpaceOnUse">
<stop offset="0.3428" stop-color="#3F8045"/>
<stop offset="0.3641" stop-color="#4B8F51"/>
<stop offset="0.4213" stop-color="#67B16D"/>
<stop offset="0.4795" stop-color="#7DCC82"/>
<stop offset="0.5384" stop-color="#8DE092"/>
<stop offset="0.5985" stop-color="#96EB9B"/>
<stop offset="0.6614" stop-color="#99EF9E"/>
<stop offset="0.7534" stop-color="#84D589"/>
<stop offset="0.9493" stop-color="#4E9254"/>
<stop offset="1" stop-color="#3F8045"/>
</radialGradient>
<radialGradient id="paint26_radial_938_25282" cx="0" cy="0" r="1" gradientUnits="userSpaceOnUse" gradientTransform="translate(43.5396 60.493) rotate(0.555752) scale(8.08448)">
<stop stop-color="#EFCAE9"/>
<stop offset="0.0499" stop-color="#E6BFE2"/>
<stop offset="0.2569" stop-color="#C696C9"/>
<stop offset="0.4598" stop-color="#AD76B5"/>
<stop offset="0.6548" stop-color="#9B5FA7"/>
<stop offset="0.8388" stop-color="#90529F"/>
<stop offset="1" stop-color="#8C4D9C"/>
</radialGradient>
<radialGradient id="paint27_radial_938_25282" cx="0" cy="0" r="1" gradientTransform="matrix(5.096 0.0494312 -0.0805167 8.32024 47.5137 58.0675)" gradientUnits="userSpaceOnUse">
<stop offset="0.4132" stop-color="#8A7229"/>
<stop offset="0.4143" stop-color="#8B732A"/>
<stop offset="0.486" stop-color="#B69C4B"/>
<stop offset="0.5506" stop-color="#D5B963"/>
<stop offset="0.6051" stop-color="#E8CB72"/>
<stop offset="0.6429" stop-color="#EFD277"/>
<stop offset="0.6915" stop-color="#E9CC72"/>
<stop offset="0.7565" stop-color="#D8BC65"/>
<stop offset="0.8308" stop-color="#BCA250"/>
<stop offset="0.9115" stop-color="#957D32"/>
<stop offset="0.9328" stop-color="#8A7229"/>
</radialGradient>
<linearGradient id="paint28_linear_938_25282" x1="39.0234" y1="91.1946" x2="40.7071" y2="91.9549" gradientUnits="userSpaceOnUse">
<stop stop-color="#803F3F"/>
<stop offset="0.0313" stop-color="#8F4B4B"/>
<stop offset="0.1151" stop-color="#B16767"/>
<stop offset="0.2003" stop-color="#CC7D7D"/>
<stop offset="0.2866" stop-color="#E08D8D"/>
<stop offset="0.3745" stop-color="#EB9696"/>
<stop offset="0.4667" stop-color="#EF9999"/>
<stop offset="0.6116" stop-color="#D58484"/>
<stop offset="0.9202" stop-color="#924E4E"/>
<stop offset="1" stop-color="#803F3F"/>
</linearGradient>
<radialGradient id="paint29_radial_938_25282" cx="0" cy="0" r="1" gradientTransform="matrix(4.10821 4.18859 -5.68942 5.58088 33.1839 96.0514)" gradientUnits="userSpaceOnUse">
<stop offset="0.3428" stop-color="#3F8045"/>
<stop offset="0.3641" stop-color="#4B8F51"/>
<stop offset="0.4213" stop-color="#67B16D"/>
<stop offset="0.4795" stop-color="#7DCC82"/>
<stop offset="0.5384" stop-color="#8DE092"/>
<stop offset="0.5985" stop-color="#96EB9B"/>
<stop offset="0.6614" stop-color="#99EF9E"/>
<stop offset="0.7534" stop-color="#84D589"/>
<stop offset="0.9493" stop-color="#4E9254"/>
<stop offset="1" stop-color="#3F8045"/>
</radialGradient>
<radialGradient id="paint30_radial_938_25282" cx="0" cy="0" r="1" gradientTransform="matrix(4.10821 4.18859 -5.68942 5.58088 33.2122 93.094)" gradientUnits="userSpaceOnUse">
<stop offset="0.3428" stop-color="#3F8045"/>
<stop offset="0.3641" stop-color="#4B8F51"/>
<stop offset="0.4213" stop-color="#67B16D"/>
<stop offset="0.4795" stop-color="#7DCC82"/>
<stop offset="0.5384" stop-color="#8DE092"/>
<stop offset="0.5985" stop-color="#96EB9B"/>
<stop offset="0.6614" stop-color="#99EF9E"/>
<stop offset="0.7534" stop-color="#84D589"/>
<stop offset="0.9493" stop-color="#4E9254"/>
<stop offset="1" stop-color="#3F8045"/>
</radialGradient>
<radialGradient id="paint31_radial_938_25282" cx="0" cy="0" r="1" gradientUnits="userSpaceOnUse" gradientTransform="translate(43.1441 84.1359) rotate(0.555752) scale(8.08448)">
<stop stop-color="#EFCAE9"/>
<stop offset="0.0499" stop-color="#E6BFE2"/>
<stop offset="0.2569" stop-color="#C696C9"/>
<stop offset="0.4598" stop-color="#AD76B5"/>
<stop offset="0.6548" stop-color="#9B5FA7"/>
<stop offset="0.8388" stop-color="#90529F"/>
<stop offset="1" stop-color="#8C4D9C"/>
</radialGradient>
<radialGradient id="paint32_radial_938_25282" cx="0" cy="0" r="1" gradientTransform="matrix(5.096 0.0494312 -0.0805168 8.32024 47.2846 81.7254)" gradientUnits="userSpaceOnUse">
<stop offset="0.4132" stop-color="#8A7229"/>
<stop offset="0.4143" stop-color="#8B732A"/>
<stop offset="0.486" stop-color="#B69C4B"/>
<stop offset="0.5506" stop-color="#D5B963"/>
<stop offset="0.6051" stop-color="#E8CB72"/>
<stop offset="0.6429" stop-color="#EFD277"/>
<stop offset="0.6915" stop-color="#E9CC72"/>
<stop offset="0.7565" stop-color="#D8BC65"/>
<stop offset="0.8308" stop-color="#BCA250"/>
<stop offset="0.9115" stop-color="#957D32"/>
<stop offset="0.9328" stop-color="#8A7229"/>
</radialGradient>
<linearGradient id="paint33_linear_938_25282" x1="13.5942" y1="43.5872" x2="11.896" y2="44.3148" gradientUnits="userSpaceOnUse">
<stop stop-color="#803F3F"/>
<stop offset="0.0313" stop-color="#8F4B4B"/>
<stop offset="0.1151" stop-color="#B16767"/>
<stop offset="0.2003" stop-color="#CC7D7D"/>
<stop offset="0.2866" stop-color="#E08D8D"/>
<stop offset="0.3745" stop-color="#EB9696"/>
<stop offset="0.4667" stop-color="#EF9999"/>
<stop offset="0.6116" stop-color="#D58484"/>
<stop offset="0.9202" stop-color="#924E4E"/>
<stop offset="1" stop-color="#803F3F"/>
</linearGradient>
<radialGradient id="paint34_radial_938_25282" cx="0" cy="0" r="1" gradientTransform="matrix(-4.18859 4.10821 5.58088 5.68942 19.3911 48.526)" gradientUnits="userSpaceOnUse">
<stop offset="0.3428" stop-color="#3F5280"/>
<stop offset="0.3641" stop-color="#4B5F8F"/>
<stop offset="0.4213" stop-color="#677DB1"/>
<stop offset="0.4795" stop-color="#7D94CC"/>
<stop offset="0.5384" stop-color="#8DA5E0"/>
<stop offset="0.5985" stop-color="#96AFEB"/>
<stop offset="0.6614" stop-color="#99B2EF"/>
<stop offset="0.7534" stop-color="#849BD5"/>
<stop offset="0.9493" stop-color="#4E6292"/>
<stop offset="1" stop-color="#3F5280"/>
</radialGradient>
<radialGradient id="paint35_radial_938_25282" cx="0" cy="0" r="1" gradientTransform="matrix(-4.18859 4.10821 5.58088 5.68942 19.4193 45.5688)" gradientUnits="userSpaceOnUse">
<stop offset="0.3428" stop-color="#3F5280"/>
<stop offset="0.3641" stop-color="#4B5F8F"/>
<stop offset="0.4213" stop-color="#677DB1"/>
<stop offset="0.4795" stop-color="#7D94CC"/>
<stop offset="0.5384" stop-color="#8DA5E0"/>
<stop offset="0.5985" stop-color="#96AFEB"/>
<stop offset="0.6614" stop-color="#99B2EF"/>
<stop offset="0.7534" stop-color="#849BD5"/>
<stop offset="0.9493" stop-color="#4E6292"/>
<stop offset="1" stop-color="#3F5280"/>
</radialGradient>
<radialGradient id="paint36_radial_938_25282" cx="0" cy="0" r="1" gradientUnits="userSpaceOnUse" gradientTransform="translate(8.29156 36.2936) rotate(-179.444) scale(8.08448)">
<stop stop-color="#EFCAE9"/>
<stop offset="0.0499" stop-color="#E6BFE2"/>
<stop offset="0.2569" stop-color="#C696C9"/>
<stop offset="0.4598" stop-color="#AD76B5"/>
<stop offset="0.6548" stop-color="#9B5FA7"/>
<stop offset="0.8388" stop-color="#90529F"/>
<stop offset="1" stop-color="#8C4D9C"/>
</radialGradient>
<radialGradient id="paint37_radial_938_25282" cx="0" cy="0" r="1" gradientTransform="matrix(-5.096 -0.0494312 -0.0805168 8.32024 5.5313 33.962)" gradientUnits="userSpaceOnUse">
<stop offset="0.4132" stop-color="#8A7229"/>
<stop offset="0.4143" stop-color="#8B732A"/>
<stop offset="0.486" stop-color="#B69C4B"/>
<stop offset="0.5506" stop-color="#D5B963"/>
<stop offset="0.6051" stop-color="#E8CB72"/>
<stop offset="0.6429" stop-color="#EFD277"/>
<stop offset="0.6915" stop-color="#E9CC72"/>
<stop offset="0.7565" stop-color="#D8BC65"/>
<stop offset="0.8308" stop-color="#BCA250"/>
<stop offset="0.9115" stop-color="#957D32"/>
<stop offset="0.9328" stop-color="#8A7229"/>
</radialGradient>
<linearGradient id="paint38_linear_938_25282" x1="13.3648" y1="67.2464" x2="11.6666" y2="67.9739" gradientUnits="userSpaceOnUse">
<stop stop-color="#803F3F"/>
<stop offset="0.0313" stop-color="#8F4B4B"/>
<stop offset="0.1151" stop-color="#B16767"/>
<stop offset="0.2003" stop-color="#CC7D7D"/>
<stop offset="0.2866" stop-color="#E08D8D"/>
<stop offset="0.3745" stop-color="#EB9696"/>
<stop offset="0.4667" stop-color="#EF9999"/>
<stop offset="0.6116" stop-color="#D58484"/>
<stop offset="0.9202" stop-color="#924E4E"/>
<stop offset="1" stop-color="#803F3F"/>
</linearGradient>
<radialGradient id="paint39_radial_938_25282" cx="0" cy="0" r="1" gradientTransform="matrix(-4.18859 4.10821 5.58088 5.68942 19.1635 72.1831)" gradientUnits="userSpaceOnUse">
<stop offset="0.3428" stop-color="#3F5280"/>
<stop offset="0.3641" stop-color="#4B5F8F"/>
<stop offset="0.4213" stop-color="#677DB1"/>
<stop offset="0.4795" stop-color="#7D94CC"/>
<stop offset="0.5384" stop-color="#8DA5E0"/>
<stop offset="0.5985" stop-color="#96AFEB"/>
<stop offset="0.6614" stop-color="#99B2EF"/>
<stop offset="0.7534" stop-color="#849BD5"/>
<stop offset="0.9493" stop-color="#4E6292"/>
<stop offset="1" stop-color="#3F5280"/>
</radialGradient>
<radialGradient id="paint40_radial_938_25282" cx="0" cy="0" r="1" gradientTransform="matrix(-4.18859 4.10821 5.58088 5.68942 19.1917 69.2259)" gradientUnits="userSpaceOnUse">
<stop offset="0.3428" stop-color="#3F5280"/>
<stop offset="0.3641" stop-color="#4B5F8F"/>
<stop offset="0.4213" stop-color="#677DB1"/>
<stop offset="0.4795" stop-color="#7D94CC"/>
<stop offset="0.5384" stop-color="#8DA5E0"/>
<stop offset="0.5985" stop-color="#96AFEB"/>
<stop offset="0.6614" stop-color="#99B2EF"/>
<stop offset="0.7534" stop-color="#849BD5"/>
<stop offset="0.9493" stop-color="#4E6292"/>
<stop offset="1" stop-color="#3F5280"/>
</radialGradient>
<radialGradient id="paint41_radial_938_25282" cx="0" cy="0" r="1" gradientUnits="userSpaceOnUse" gradientTransform="translate(8.13698 60.0439) rotate(-179.444) scale(8.08448 8.08448)">
<stop stop-color="#EFCAE9"/>
<stop offset="0.0499" stop-color="#E6BFE2"/>
<stop offset="0.2569" stop-color="#C696C9"/>
<stop offset="0.4598" stop-color="#AD76B5"/>
<stop offset="0.6548" stop-color="#9B5FA7"/>
<stop offset="0.8388" stop-color="#90529F"/>
<stop offset="1" stop-color="#8C4D9C"/>
</radialGradient>
<radialGradient id="paint42_radial_938_25282" cx="0" cy="0" r="1" gradientTransform="matrix(-5.096 -0.0494312 -0.0805168 8.32024 5.30217 57.6201)" gradientUnits="userSpaceOnUse">
<stop offset="0.4132" stop-color="#8A7229"/>
<stop offset="0.4143" stop-color="#8B732A"/>
<stop offset="0.486" stop-color="#B69C4B"/>
<stop offset="0.5506" stop-color="#D5B963"/>
<stop offset="0.6051" stop-color="#E8CB72"/>
<stop offset="0.6429" stop-color="#EFD277"/>
<stop offset="0.6915" stop-color="#E9CC72"/>
<stop offset="0.7565" stop-color="#D8BC65"/>
<stop offset="0.8308" stop-color="#BCA250"/>
<stop offset="0.9115" stop-color="#957D32"/>
<stop offset="0.9328" stop-color="#8A7229"/>
</radialGradient>
<linearGradient id="paint43_linear_938_25282" x1="13.1353" y1="90.9055" x2="11.4371" y2="91.633" gradientUnits="userSpaceOnUse">
<stop stop-color="#803F3F"/>
<stop offset="0.0313" stop-color="#8F4B4B"/>
<stop offset="0.1151" stop-color="#B16767"/>
<stop offset="0.2003" stop-color="#CC7D7D"/>
<stop offset="0.2866" stop-color="#E08D8D"/>
<stop offset="0.3745" stop-color="#EB9696"/>
<stop offset="0.4667" stop-color="#EF9999"/>
<stop offset="0.6116" stop-color="#D58484"/>
<stop offset="0.9202" stop-color="#924E4E"/>
<stop offset="1" stop-color="#803F3F"/>
</linearGradient>
<radialGradient id="paint44_radial_938_25282" cx="0" cy="0" r="1" gradientTransform="matrix(-4.18859 4.10821 5.58088 5.68942 18.9359 95.8402)" gradientUnits="userSpaceOnUse">
<stop offset="0.3428" stop-color="#3F5280"/>
<stop offset="0.3641" stop-color="#4B5F8F"/>
<stop offset="0.4213" stop-color="#677DB1"/>
<stop offset="0.4795" stop-color="#7D94CC"/>
<stop offset="0.5384" stop-color="#8DA5E0"/>
<stop offset="0.5985" stop-color="#96AFEB"/>
<stop offset="0.6614" stop-color="#99B2EF"/>
<stop offset="0.7534" stop-color="#849BD5"/>
<stop offset="0.9493" stop-color="#4E6292"/>
<stop offset="1" stop-color="#3F5280"/>
</radialGradient>
<radialGradient id="paint45_radial_938_25282" cx="0" cy="0" r="1" gradientTransform="matrix(-4.18859 4.10821 5.58088 5.68943 18.964 92.8831)" gradientUnits="userSpaceOnUse">
<stop offset="0.3428" stop-color="#3F5280"/>
<stop offset="0.3641" stop-color="#4B5F8F"/>
<stop offset="0.4213" stop-color="#677DB1"/>
<stop offset="0.4795" stop-color="#7D94CC"/>
<stop offset="0.5384" stop-color="#8DA5E0"/>
<stop offset="0.5985" stop-color="#96AFEB"/>
<stop offset="0.6614" stop-color="#99B2EF"/>
<stop offset="0.7534" stop-color="#849BD5"/>
<stop offset="0.9493" stop-color="#4E6292"/>
<stop offset="1" stop-color="#3F5280"/>
</radialGradient>
<radialGradient id="paint46_radial_938_25282" cx="0" cy="0" r="1" gradientUnits="userSpaceOnUse" gradientTransform="translate(8.49688 83.6768) rotate(-179.444) scale(8.08448 8.08448)">
<stop stop-color="#EFCAE9"/>
<stop offset="0.0499" stop-color="#E6BFE2"/>
<stop offset="0.2569" stop-color="#C696C9"/>
<stop offset="0.4598" stop-color="#AD76B5"/>
<stop offset="0.6548" stop-color="#9B5FA7"/>
<stop offset="0.8388" stop-color="#90529F"/>
<stop offset="1" stop-color="#8C4D9C"/>
</radialGradient>
<radialGradient id="paint47_radial_938_25282" cx="0" cy="0" r="1" gradientTransform="matrix(-5.096 -0.0494312 -0.0805168 8.32024 5.07304 81.2779)" gradientUnits="userSpaceOnUse">
<stop offset="0.4132" stop-color="#8A7229"/>
<stop offset="0.4143" stop-color="#8B732A"/>
<stop offset="0.486" stop-color="#B69C4B"/>
<stop offset="0.5506" stop-color="#D5B963"/>
<stop offset="0.6051" stop-color="#E8CB72"/>
<stop offset="0.6429" stop-color="#EFD277"/>
<stop offset="0.6915" stop-color="#E9CC72"/>
<stop offset="0.7565" stop-color="#D8BC65"/>
<stop offset="0.8308" stop-color="#BCA250"/>
<stop offset="0.9115" stop-color="#957D32"/>
<stop offset="0.9328" stop-color="#8A7229"/>
</radialGradient>
</defs>
</svg>
