<svg width="106" height="30" viewBox="0 0 106 30" fill="none" xmlns="http://www.w3.org/2000/svg">
<g id="R-ICO-013792">
<g id="Abstract" clip-path="url(#clip0_938_24986)">
<path id="bg" d="M53 0.5C67.603 0.5 80.8053 2.1753 90.3408 4.87402C95.1119 6.22433 98.9362 7.82376 101.557 9.57715C104.196 11.3429 105.5 13.1849 105.5 15C105.5 16.8151 104.196 18.6571 101.557 20.4229C98.9362 22.1762 95.1119 23.7757 90.3408 25.126C80.8053 27.8247 67.603 29.5 53 29.5C38.397 29.5 25.1947 27.8247 15.6592 25.126C10.8881 23.7757 7.06379 22.1762 4.44336 20.4229C1.8045 18.6571 0.5 16.8151 0.5 15C0.5 13.1849 1.8045 11.3429 4.44336 9.57715C7.06379 7.82376 10.8881 6.22433 15.6592 4.87402C25.1947 2.1753 38.397 0.5 53 0.5Z" fill="#F97400" stroke="#F97400"/>
<text id="label" fill="white" xml:space="preserve" style="white-space: pre" font-family="Arial" font-size="12" font-weight="bold" letter-spacing="0em"><tspan x="4.04492" y="19.1484">PHOSPHOLIPIDS</tspan></text>
</g>
</g>
<defs>
<clipPath id="clip0_938_24986">
<rect width="106" height="30" fill="white"/>
</clipPath>
</defs>
</svg>
