<svg width="135" height="23" viewBox="0 0 135 23" fill="none" xmlns="http://www.w3.org/2000/svg">
<g id="R-ICO-012619">
<g id="DES-ACYL GHRELIN">
<path d="M0.692383 11.5C0.692383 5.97715 5.16954 1.5 10.6924 1.5H123.692C129.215 1.5 133.692 5.97715 133.692 11.5C133.692 17.0228 129.215 21.5 123.692 21.5H10.6924C5.16954 21.5 0.692383 17.0228 0.692383 11.5Z" fill="url(#paint0_linear_938_23267)"/>
<path d="M82.9005 2.99266C58.831 2.87443 34.7618 2.52283 10.6924 1.64001C10.6924 1.54664 10.6924 1.45328 10.6924 1.35991C34.7618 0.477089 58.831 0.125486 82.9005 0.00726104C94.9352 -0.0305147 106.971 0.0866973 119.006 0.183516C120.568 0.194123 122.13 0.206726 123.692 0.221217C129.71 0.127344 135.004 5.60413 134.766 11.5C134.816 17.4095 129.422 22.532 123.693 22.2659C123.693 22.2659 123.693 22.2658 123.692 22.2658C111.658 22.0221 99.6225 21.8466 87.5883 21.953C75.5537 22.056 63.518 22.4645 51.4833 22.6648C39.449 22.8277 27.4147 22.7388 15.3803 22.5842C13.8177 22.564 12.255 22.5416 10.6924 22.5168C4.8112 22.5721 -0.283688 17.1845 0.0122694 11.5C0.0256826 5.79205 5.30093 0.988428 10.6924 1.35991C10.6924 1.45328 10.6924 1.54664 10.6924 1.64001C5.43083 1.75241 1.09994 6.55446 1.37237 11.5C1.40925 16.4688 5.92039 20.6871 10.6924 20.4833C12.255 20.4585 13.8177 20.4361 15.3803 20.4159C27.4145 20.2613 39.4488 20.1724 51.4833 20.3353C63.518 20.5356 75.5536 20.9428 87.5883 21.0457C99.6227 21.1521 111.658 20.978 123.692 20.7342C123.693 20.7342 123.693 20.7342 123.693 20.7342C128.618 20.7259 132.828 16.2429 132.619 11.5C132.64 6.74261 128.328 2.61356 123.692 2.77871C122.13 2.79319 120.568 2.80579 119.006 2.8164C106.971 2.91322 94.9352 3.03071 82.9005 2.99266Z" fill="#DBA628"/>
<text id="DES-ACYL GHRELIN_2" fill="white" xml:space="preserve" style="white-space: pre" font-family="Arial" font-size="12" font-weight="bold" letter-spacing="0em"><tspan x="7.93652" y="15.6602">DES-ACYL GHRELIN</tspan></text>
</g>
</g>
<defs>
<linearGradient id="paint0_linear_938_23267" x1="67.1924" y1="1.5" x2="67.1924" y2="21.5" gradientUnits="userSpaceOnUse">
<stop stop-color="#DBA628"/>
<stop offset="1" stop-color="#A32702"/>
</linearGradient>
</defs>
</svg>
