<svg width="96" height="39" viewBox="0 0 96 39" fill="none" xmlns="http://www.w3.org/2000/svg">
<g id="R-ICO-012616">
<g id="BG">
<path id="Vector" d="M89.2156 10.0967C86.0184 7.43955 81.8303 5.91565 77.7251 5.91565C73.6805 5.91565 70.4019 9.19435 70.4019 13.2388C70.4019 17.2833 73.6806 20.562 77.7251 20.562C78.8569 20.562 80.4314 21.4465 80.4314 22.3171C80.4314 23.0839 80.2667 23.2071 80.1465 23.2971C79.7765 23.5739 77.5029 23.8974 76.3076 23.8974C72.263 23.8974 68.9844 27.1761 68.9844 31.2206C68.9844 35.2651 72.2631 38.5438 76.3076 38.5438C87.5946 38.5438 95.0779 31.7193 95.0779 22.3171C95.0778 17.5782 92.996 13.2383 89.2156 10.0967Z" fill="url(#paint0_radial_938_24310)"/>
<path id="Vector_2" d="M34.8302 6.22595C34.7813 6.22605 28.3093 6.22665 21.4609 6.22595C2.2609 6.22395 0 18.4697 0 22.3173C0 32.0232 6.8617 38.5441 18.7703 38.544C22.8149 38.544 26.0935 35.2653 26.0935 31.2208C26.0935 27.1763 22.8148 23.8976 18.7703 23.8976C17.1845 23.8976 14.9273 23.4907 14.8015 23.3435C14.8001 23.3412 14.6465 23.087 14.6465 22.3174C14.6465 22.233 14.6513 22.173 14.6562 22.1342C15.1224 21.6779 16.114 20.2515 21.6496 20.2515C28.6891 20.2515 34.6237 20.2515 34.8303 20.2515C37.6595 20.2515 39.5451 16.9836 39.4469 12.9405C39.3487 8.89735 36.7047 6.22395 34.8302 6.22595Z" fill="url(#paint1_radial_938_24310)"/>
</g>
<g id="R-ICO-012509">
<g id="PROTEIN">
<path d="M23.5718 1.5H62.5718C68.0946 1.5 72.5718 5.97715 72.5718 11.5C72.5718 17.0228 68.0946 21.5 62.5718 21.5H23.5718V1.5Z" fill="url(#paint2_linear_938_24310)"/>
<path d="M30.2177 0.0073446C41.0024 0.125569 51.7871 0.477173 62.5718 1.35999C62.5718 1.45336 62.5718 1.54672 62.5718 1.64009C51.7871 2.52291 41.0024 2.87451 30.2177 2.99274C28.0024 3.00826 25.7871 2.99762 23.5718 2.97298L25.0448 1.5C25.0094 4.67719 24.9453 7.85441 24.8883 11.0316C24.8354 14.521 24.7329 18.0105 24.5943 21.5L23.5718 20.4775C25.4745 20.553 27.3772 20.6393 29.2799 20.7341C34.6723 20.9779 40.0651 21.1534 45.4574 21.047C50.8497 20.944 56.2425 20.5355 61.6349 20.3352C61.9472 20.3257 62.2595 20.3172 62.5718 20.3094C67.0852 20.2706 71.1889 16.507 71.4779 11.919C71.4888 11.7804 71.4967 11.6407 71.5014 11.5C71.7676 6.7816 67.8233 2.05454 62.5718 1.64009C62.5718 1.54672 62.5718 1.45336 62.5718 1.35999C67.9732 0.686417 73.6349 5.56537 73.642 11.5C73.6468 11.6737 73.6474 11.8467 73.6439 12.019C73.6812 17.7454 68.3757 22.9635 62.5718 22.6905C62.2595 22.6828 61.9472 22.6742 61.6349 22.6647C56.2425 22.4644 50.8498 22.0572 45.4574 21.9543C40.0651 21.8479 34.6723 22.0221 29.2799 22.2658C27.3772 22.3607 25.4745 22.447 23.5718 22.5225C22.9935 22.5359 22.5627 22.0783 22.5492 21.5C22.4107 18.0105 22.3083 14.521 22.2554 11.0316C22.1983 7.85446 22.1341 4.67722 22.0988 1.5C22.0794 0.666958 22.7387 0.0462906 23.5718 0.0269799C25.7871 0.00232852 28.0025 -0.00828922 30.2177 0.0073446Z" fill="#FF7400"/>
<text id="P" fill="white" xml:space="preserve" style="white-space: pre" font-family="Arial" font-size="12" font-weight="bold" letter-spacing="0em"><tspan x="30.728" y="15.6602">CARD</tspan></text>
</g>
</g>
<g id="Helicase">
<path id="Vector_3" d="M75.2204 38.5736H19.4011C15.3565 38.5736 12.0779 35.2949 12.0779 31.2504C12.0779 27.2059 15.3566 23.9272 19.4011 23.9272H75.2204C79.265 23.9272 82.5436 27.2059 82.5436 31.2504C82.5436 35.2949 79.265 38.5736 75.2204 38.5736Z" fill="url(#paint3_linear_938_24310)"/>
<text id="HELICASE" fill="white" xml:space="preserve" style="white-space: pre" font-family="Arial" font-size="12" font-weight="bold" letter-spacing="0em"><tspan x="17.0779" y="35.0873">HELICASE</tspan></text>
</g>
</g>
<defs>
<radialGradient id="paint0_radial_938_24310" cx="0" cy="0" r="1" gradientUnits="userSpaceOnUse" gradientTransform="translate(69.0779 18.7179) scale(25 20.2241)">
<stop offset="0.5107" stop-color="#B8871E"/>
<stop offset="0.7932" stop-color="#755613"/>
<stop offset="0.8415" stop-color="#6E5112"/>
<stop offset="0.9108" stop-color="#5B430F"/>
<stop offset="0.9716" stop-color="#45330B"/>
</radialGradient>
<radialGradient id="paint1_radial_938_24310" cx="0" cy="0" r="1" gradientUnits="userSpaceOnUse" gradientTransform="translate(21.6416 18.9065) scale(22.8367 19.9935)">
<stop offset="0.5107" stop-color="#B8871E"/>
<stop offset="0.7932" stop-color="#755613"/>
<stop offset="0.8415" stop-color="#6E5112"/>
<stop offset="0.9108" stop-color="#5B430F"/>
<stop offset="0.9716" stop-color="#45330B"/>
</radialGradient>
<linearGradient id="paint2_linear_938_24310" x1="48.0718" y1="1.5" x2="48.0718" y2="21.5" gradientUnits="userSpaceOnUse">
<stop stop-color="#FF7400"/>
<stop offset="1" stop-color="#7F1600"/>
</linearGradient>
<linearGradient id="paint3_linear_938_24310" x1="47.3108" y1="38.4995" x2="47.3108" y2="23.8709" gradientUnits="userSpaceOnUse">
<stop stop-color="#012807"/>
<stop offset="1" stop-color="#025E11"/>
</linearGradient>
</defs>
</svg>
