<svg width="97" height="23" viewBox="0 0 97 23" fill="none" xmlns="http://www.w3.org/2000/svg">
<g id="R-ICO-013702">
<g id="ARHGEF11,12">
<path d="M0.829376 11.5C0.829376 5.97715 5.30653 1.5 10.8294 1.5H85.8294C91.3522 1.5 95.8294 5.97715 95.8294 11.5C95.8294 17.0228 91.3522 21.5 85.8294 21.5H10.8294C5.30653 21.5 0.829376 17.0228 0.829376 11.5Z" fill="url(#paint0_linear_938_23775)"/>
<path d="M64.0376 2.99266C46.3015 2.87443 28.5655 2.52283 10.8294 1.64001C10.8294 1.54664 10.8294 1.45328 10.8294 1.35991C28.5655 0.477089 46.3015 0.125486 64.0376 0.00726104C71.3013 -0.0236807 78.5654 0.0493603 85.8294 0.130005C87.6511 0.145043 89.4695 0.607672 91.0699 1.46777C94.7267 3.37924 97.1057 7.42944 96.9893 11.5C97.0263 17.4602 91.557 22.5792 85.8302 22.2659C85.8299 22.2659 85.8297 22.2658 85.8294 22.2658C76.9616 22.0221 68.0929 21.8466 59.2253 21.953C50.3572 22.056 41.4884 22.4645 32.6204 22.6648C25.3568 22.7982 18.0931 22.7627 10.8294 22.6606C9.04085 22.6407 7.25957 22.1786 5.69726 21.3268C2.12845 19.4267 -0.152126 15.4475 0.00792319 11.5C0.0371863 5.71042 5.43756 0.901223 10.8294 1.35991C10.8294 1.45328 10.8294 1.54664 10.8294 1.64001C5.56822 1.83959 1.36238 6.6361 1.65068 11.5C1.73217 14.854 3.7832 17.9783 6.7025 19.4056C7.98272 20.0453 9.40649 20.3637 10.8294 20.3395C18.093 20.2374 25.3567 20.2019 32.6204 20.3353C41.4885 20.5356 50.3572 20.9428 59.2253 21.0457C68.093 21.1521 76.9615 20.978 85.8294 20.7342C85.8296 20.7342 85.8298 20.7342 85.8301 20.7342C90.756 20.679 94.8914 16.1925 94.6695 11.5C94.6316 8.2697 92.6798 5.21691 89.8492 3.80053C88.6067 3.16868 87.2196 2.8505 85.8294 2.86993C78.5655 2.95064 71.3013 3.02383 64.0376 2.99266Z" fill="#C2B64A"/>
<text id="ARHGEF11,12_2" fill="white" xml:space="preserve" style="white-space: pre" font-family="Arial" font-size="12" font-weight="bold" letter-spacing="0em"><tspan x="8.28641" y="15.6602">ARHGEF11,12</tspan></text>
</g>
</g>
<defs>
<linearGradient id="paint0_linear_938_23775" x1="48.3294" y1="1.5" x2="48.3294" y2="21.5" gradientUnits="userSpaceOnUse">
<stop stop-color="#C2B64A"/>
<stop offset="1" stop-color="#0F542D"/>
</linearGradient>
</defs>
</svg>
