<svg width="77" height="68" viewBox="0 0 77 68" fill="none" xmlns="http://www.w3.org/2000/svg">
<g id="R-ICO-013552" opacity="0.8">
<path id="Vector" d="M76.1002 53.948L76.0965 53.9459C76.1673 53.2806 76.1467 52.6665 76.0923 52.2249C75.5358 47.9663 70.5564 41.4059 60.9798 36.4462C45.2816 28.3808 39.2396 21.5862 32.0769 13.686C29.949 11.344 27.802 8.91966 25.266 6.37056C20.7639 1.86636 16.551 0.469263 13.8098 0.137963C6.28759 -0.935337 0.908989 4.43366 0.111389 9.99336C0.0997891 10.0774 0.107689 10.171 0.101489 10.2576L0.0878891 10.2498C-0.806811 24.3085 5.04879 34.5752 21.3599 48.4482C31.855 57.3746 47.4379 66.6392 57.2145 67.7781C68.1221 69.0487 74.9274 63.7158 76.0531 54.2722C76.0668 54.1833 76.0814 54.096 76.0915 54.0086C76.0936 53.9879 76.0981 53.9688 76.1002 53.948Z" fill="#AD342D"/>
<path id="Vector_2" d="M13.8104 0.137963C6.28815 -0.935337 0.909554 4.43366 0.111954 9.99336C-1.04185 18.362 24.4835 40.0222 46.4752 51.9333C54.2473 56.1466 61.0247 58.6604 65.9915 59.0091C67.8328 59.1384 72.0069 59.0305 74.1643 57.562C76.1796 56.1902 76.2506 53.5034 76.0929 52.2249C75.5364 47.9663 70.557 41.406 60.9804 36.4461C45.2822 28.3807 39.2402 21.5861 32.0775 13.6859C29.9496 11.3439 27.8026 8.91956 25.2666 6.37046C20.7645 1.86636 16.5517 0.469263 13.8104 0.137963Z" fill="url(#paint0_linear_938_25645)"/>
<path id="Vector_3" d="M27.2176 11.366C25.4534 11.2111 20.7708 12.7538 18.2305 13.5984C13.5479 15.1411 12.0028 15.6198 10.2286 15.1116C9.60227 14.8955 9.02337 14.5727 8.66247 14.2591C7.24717 12.8155 9.58847 12.0442 15.4372 10.2514C18.262 9.39155 22.831 7.97985 23.1618 7.23345C22.8864 6.97765 22.611 6.72185 22.4873 6.49945C19.7804 3.83465 17.189 2.28785 14.5804 1.90775C9.29687 1.17185 3.93557 5.37415 3.28967 10.9674C2.99897 13.1273 4.76787 16.4046 8.30197 20.4614C9.94257 20.3939 13.7154 19.2749 16.2557 18.4304C22.019 16.5797 24.8156 15.9088 27.1307 16.5753C27.8233 16.767 28.5541 17.1232 29.0195 17.577C30.9474 19.3677 27.7336 20.1027 22.9555 21.2342C18.3765 22.2925 11.3326 23.8998 13.944 26.1534C18.4361 30.3043 23.9907 34.6894 30.0761 38.8795C31.6222 39.0253 35.5176 37.5041 37.8207 36.5683C43.1095 34.535 46.9386 33.0382 50.1281 34.99C50.7925 35.3706 51.1061 35.7909 51.2016 36.2021C51.4689 37.3535 49.393 38.0273 45.4402 39.3018C44.2268 39.6586 42.8144 40.0885 41.5538 40.5518C39.1653 41.4298 37.2321 42.4082 37.5466 43.453C37.6702 43.6753 37.8129 43.9799 38.5628 44.4184C41.2396 46.0231 43.7456 47.512 46.2134 48.8365C56.5971 54.4815 64.8329 57.0777 69.2983 56.1505C73.631 55.272 74.0516 51.1898 70.4592 46.2619C70.4401 46.1797 70.2883 46.1462 70.2883 46.1462C68.8368 45.7871 64.6387 47.8659 62.6391 48.8686C58.8863 50.6944 56.8205 51.7215 54.5045 50.4305C53.8401 50.0499 53.3747 49.5961 53.2129 49.2093C52.6038 47.8264 54.8688 46.7261 58.906 44.885C61.1237 43.8913 65.6063 41.7973 64.96 40.8744C63.3839 39.6685 61.5424 38.5601 59.5681 37.5006C53.9209 34.5777 49.1462 31.6911 44.8832 28.5272C44.6269 28.3536 44.456 28.2379 44.1524 28.171C41.6383 27.5777 36.9085 29.227 33.7901 30.3733C29.9419 31.7878 27.7996 32.486 25.8073 31.9687C25.1147 31.777 24.4694 31.4786 23.9376 31.0492C21.3643 28.9601 25.2035 27.8167 30.436 26.1612C32.7109 25.4142 38.7587 23.5482 37.8279 22.6407C34.6938 19.6866 32.0814 16.8086 29.2791 13.7326C28.5856 12.9162 27.9111 12.1822 27.2176 11.366Z" fill="#AD342D"/>
</g>
<defs>
<linearGradient id="paint0_linear_938_25645" x1="12.1535" y1="29.8239" x2="44.3352" y2="1.89918" gradientUnits="userSpaceOnUse">
<stop stop-color="#D86E66"/>
<stop offset="0.2704" stop-color="#CE625A"/>
<stop offset="0.7579" stop-color="#B3423B"/>
<stop offset="1" stop-color="#A33029"/>
</linearGradient>
</defs>
</svg>
