<svg width="50" height="23" viewBox="0 0 50 23" fill="none" xmlns="http://www.w3.org/2000/svg">
<g id="R-ICO-012667">
<g id="eIF5B">
<path d="M1.12891 11.4629C1.12891 5.94007 5.60606 1.46292 11.1289 1.46292H38.1289C43.6518 1.46292 48.1289 5.94007 48.1289 11.4629C48.1289 16.9858 43.6518 21.4629 38.1289 21.4629H11.1289C5.60606 21.4629 1.12891 16.9858 1.12891 11.4629Z" fill="url(#paint0_linear_938_23296)"/>
<path d="M39.9946 3.16046C39.386 3.01517 38.76 2.93629 38.1289 2.92463C29.1289 2.78115 20.1289 2.419 11.1289 1.60293C11.1289 1.50956 11.1289 1.4162 11.1289 1.32283C20.1289 0.506759 29.1289 0.144611 38.1289 0.00112939C38.9707 -0.0107641 39.8176 0.0708083 40.646 0.24699C45.7881 1.2807 49.6616 6.31712 49.4676 11.4629C49.4601 11.881 49.4301 12.2962 49.3774 12.7091C48.7898 18.289 43.4324 22.6341 38.1294 22.2288C38.1292 22.2288 38.1291 22.2288 38.1289 22.2288C33.261 21.985 28.3926 21.8096 23.5247 21.9159C19.3929 22.0033 15.2608 22.3108 11.1289 22.5243C10.3158 22.5625 9.4924 22.5088 8.68295 22.3587C3.65556 21.4804 -0.233486 16.5154 0.0108429 11.4629C0.0217093 11.053 0.0551927 10.6463 0.111207 10.2425C0.752196 4.77932 6.12551 0.671206 11.1289 1.32283C11.1289 1.4162 11.1289 1.50956 11.1289 1.60293C6.26646 2.05071 2.51675 6.11959 2.26663 10.4789C2.24252 10.8061 2.23604 11.1338 2.24689 11.4629C2.33368 15.5019 5.32675 19.1102 9.19131 20.0853C9.81902 20.2568 10.4688 20.3636 11.1289 20.4015C15.2608 20.6147 19.3929 20.9213 23.5247 21.0087C28.3926 21.115 33.2609 20.9409 38.1289 20.6972C38.129 20.6972 38.1292 20.6972 38.1293 20.6971C42.6918 20.4949 46.4561 16.664 46.7603 12.422C46.7878 12.1036 46.7977 11.7841 46.7903 11.4629C46.7538 7.51703 43.7444 3.98004 39.9946 3.16046Z" fill="#C97800"/>
<text id="eIF5B_2" fill="white" xml:space="preserve" style="white-space: pre" font-family="Arial" font-size="12" font-weight="bold" letter-spacing="0em"><tspan x="8.27539" y="15.6231">eIF5B</tspan></text>
</g>
</g>
<defs>
<linearGradient id="paint0_linear_938_23296" x1="24.6289" y1="1.46292" x2="24.6289" y2="21.4629" gradientUnits="userSpaceOnUse">
<stop stop-color="#C97800"/>
<stop offset="1" stop-color="#104B85"/>
</linearGradient>
</defs>
</svg>
