<svg width="17" height="156" viewBox="0 0 17 156" fill="none" xmlns="http://www.w3.org/2000/svg">
<g id="R-ICO-013318">
<path id="BG" d="M8.2106 0.0141602C3.845 0.0141602 0 3.54236 0 8.02596C0 10.4402 1.0422 12.6105 2.7011 14.1125C3.5743 14.9032 3.5743 16.257 2.7011 17.0476C1.0422 18.5497 0 20.72 0 23.1341C0 25.5482 1.0422 27.7186 2.7011 29.2206C3.5743 30.0113 3.5743 31.3651 2.7011 32.1557C1.0422 33.6578 0 35.8281 0 38.2423C0 40.6565 1.0422 42.8268 2.7011 44.3288C3.5743 45.1195 3.5743 46.4733 2.7011 47.2639C1.0422 48.766 0 50.9363 0 53.3505C0 55.7647 1.0422 57.935 2.7011 59.437C3.5743 60.2276 3.5743 61.5815 2.7011 62.3721C1.0422 63.8742 0 66.0445 0 68.4587C0 71.426 1.5756 74.0228 3.9346 75.4648C4.5373 75.8332 4.9268 76.4667 4.9268 77.1731V151.791C4.9268 151.791 4.8475 155.075 8.2105 155.075C11.5735 155.075 11.4956 151.791 11.4956 151.791V77.1728C11.4956 76.4664 11.885 75.833 12.4877 75.4645C14.8465 74.0225 16.422 71.4257 16.422 68.4586C16.422 66.0444 15.3798 63.8741 13.7209 62.3721C12.8477 61.5815 12.8477 60.2276 13.7209 59.437C15.3798 57.935 16.422 55.7647 16.422 53.3505C16.422 50.9363 15.3798 48.766 13.7209 47.264C12.8477 46.4733 12.8477 45.1195 13.7209 44.3289C15.3798 42.8269 16.422 40.6566 16.422 38.2424C16.422 35.8282 15.3798 33.6579 13.7209 32.1559C12.8477 31.3652 12.8477 30.0114 13.7209 29.2208C15.3798 27.7188 16.422 25.5485 16.422 23.1343C16.422 20.7215 15.3809 18.5522 13.7237 17.0503C12.8685 16.2752 12.8378 14.9447 13.6769 14.1523C14.8876 13.0089 16.422 11.0081 16.422 8.02616C16.422 3.38136 12.5763 0.0141602 8.2106 0.0141602Z" fill="url(#paint0_linear_938_24365)"/>
<g id="ECD">
<path id="Vector" d="M8.211 76.7305C12.7458 76.7305 16.422 73.0543 16.422 68.5195C16.422 63.9847 12.7458 60.3085 8.211 60.3085C3.67619 60.3085 0 63.9847 0 68.5195C0 73.0543 3.67619 76.7305 8.211 76.7305Z" fill="url(#paint1_radial_938_24365)"/>
<path id="Vector_2" d="M8.211 61.5114C12.7458 61.5114 16.422 57.8352 16.422 53.3004C16.422 48.7655 12.7458 45.0894 8.211 45.0894C3.67619 45.0894 0 48.7655 0 53.3004C0 57.8352 3.67619 61.5114 8.211 61.5114Z" fill="url(#paint2_radial_938_24365)"/>
<path id="Vector_3" d="M8.211 46.4557C12.7458 46.4557 16.422 42.7795 16.422 38.2447C16.422 33.7099 12.7458 30.0337 8.211 30.0337C3.67619 30.0337 0 33.7099 0 38.2447C0 42.7795 3.67619 46.4557 8.211 46.4557Z" fill="url(#paint3_radial_938_24365)"/>
<path id="Vector_4" d="M8.211 31.3178C12.7458 31.3178 16.422 27.6416 16.422 23.1068C16.422 18.5719 12.7458 14.8958 8.211 14.8958C3.67619 14.8958 0 18.5719 0 23.1068C0 27.6416 3.67619 31.3178 8.211 31.3178Z" fill="url(#paint4_radial_938_24365)"/>
<path id="Vector_5" d="M16.422 8.026C16.422 3.4912 12.7458 0 8.211 0C3.6762 0 0 3.4912 0 8.026C0 12.5608 3.6762 16.237 8.211 16.237C12.7458 16.237 16.422 12.5608 16.422 8.026Z" fill="url(#paint5_radial_938_24365)"/>
</g>
</g>
<defs>
<linearGradient id="paint0_linear_938_24365" x1="4.5982" y1="77.5447" x2="11.6943" y2="77.5447" gradientUnits="userSpaceOnUse">
<stop stop-color="#472E07"/>
<stop offset="0.3586" stop-color="#B0720F"/>
<stop offset="1" stop-color="#472E07"/>
</linearGradient>
<radialGradient id="paint1_radial_938_24365" cx="0" cy="0" r="1" gradientUnits="userSpaceOnUse" gradientTransform="translate(5.0908 66.7131) scale(8.211)">
<stop stop-color="#B0720F"/>
<stop offset="1" stop-color="#472E07"/>
</radialGradient>
<radialGradient id="paint2_radial_938_24365" cx="0" cy="0" r="1" gradientUnits="userSpaceOnUse" gradientTransform="translate(5.0908 51.3297) scale(8.211 8.211)">
<stop stop-color="#B0720F"/>
<stop offset="1" stop-color="#472E07"/>
</radialGradient>
<radialGradient id="paint3_radial_938_24365" cx="0" cy="0" r="1" gradientUnits="userSpaceOnUse" gradientTransform="translate(5.4193 35.9457) scale(8.211)">
<stop stop-color="#B0720F"/>
<stop offset="1" stop-color="#472E07"/>
</radialGradient>
<radialGradient id="paint4_radial_938_24365" cx="0" cy="0" r="1" gradientUnits="userSpaceOnUse" gradientTransform="translate(5.5835 20.6435) scale(8.211)">
<stop stop-color="#B0720F"/>
<stop offset="1" stop-color="#472E07"/>
</radialGradient>
<radialGradient id="paint5_radial_938_24365" cx="0" cy="0" r="1" gradientUnits="userSpaceOnUse" gradientTransform="translate(5.5835 5.6552) scale(8.1649)">
<stop stop-color="#B0720F"/>
<stop offset="1" stop-color="#472E07"/>
</radialGradient>
</defs>
</svg>
