<svg width="58" height="23" viewBox="0 0 58 23" fill="none" xmlns="http://www.w3.org/2000/svg">
<g id="R-ICO-014495">
<g id="PLCG2">
<path d="M1.06207 11.5022C1.06207 5.97935 5.53923 1.5022 11.0621 1.5022H46.0621C51.5849 1.5022 56.0621 5.97935 56.0621 11.5022C56.0621 17.025 51.5849 21.5022 46.0621 21.5022H11.0621C5.53923 21.5022 1.06207 17.025 1.06207 11.5022Z" fill="url(#paint0_linear_938_24065)"/>
<path d="M44.2704 2.99485C33.2009 2.87663 22.1315 2.52502 11.0621 1.6422C11.0621 1.54884 11.0621 1.45547 11.0621 1.36211C22.1315 0.479287 33.2009 0.127683 44.2704 0.0094583C44.8676 0.0053823 45.4649 0.00311065 46.0621 0.00242329C51.84 -0.123661 57.0454 4.83555 57.3339 10.4909C57.3593 10.8278 57.3694 11.1638 57.3643 11.5022C57.4197 17.5511 51.789 22.6925 46.0626 22.2681C46.0624 22.2681 46.0622 22.268 46.0621 22.268C40.5275 22.0243 34.9924 21.8488 29.4579 21.9552C23.9232 22.0581 18.388 22.4667 12.8532 22.667C12.2562 22.6846 11.6591 22.6992 11.0621 22.7112C5.424 22.9414 0.239854 18.0451 0.0216539 12.4935C0.000776768 12.1629 -0.00493097 11.8336 0.00422215 11.5022C0.014946 5.5747 5.66165 0.702643 11.0621 1.36211C11.0621 1.45547 11.0621 1.54884 11.0621 1.6422C5.8095 2.0425 1.84987 6.77644 2.11982 11.5022C2.12902 11.7714 2.14957 12.037 2.1815 12.3018C2.65186 16.7367 6.68675 20.2766 11.0621 20.2933C11.6591 20.3053 12.2562 20.3199 12.8532 20.3375C18.388 20.5378 23.9232 20.945 29.4579 21.0479C34.9925 21.1543 40.5274 20.9802 46.0621 20.7364C46.0622 20.7364 46.0624 20.7364 46.0625 20.7364C50.9891 20.5703 54.9635 16.1062 54.7599 11.5022C54.7548 11.2403 54.7386 10.9817 54.7113 10.7235C54.3118 6.39217 50.2977 2.91455 46.0621 3.00196C45.4649 3.00125 44.8676 2.99896 44.2704 2.99485Z" fill="#8D7B00"/>
<text id="PLCG2_2" fill="white" xml:space="preserve" style="white-space: pre" font-family="Arial" font-size="12" font-weight="bold" letter-spacing="0em"><tspan x="8.54645" y="15.6624">PLCG2</tspan></text>
</g>
</g>
<defs>
<linearGradient id="paint0_linear_938_24065" x1="28.5621" y1="1.5022" x2="28.5621" y2="21.5022" gradientUnits="userSpaceOnUse">
<stop stop-color="#8D7B00"/>
<stop offset="1" stop-color="#D9D636"/>
</linearGradient>
</defs>
</svg>
