<svg width="121" height="81" viewBox="0 0 121 81" fill="none" xmlns="http://www.w3.org/2000/svg">
<g id="R-ICO-014847">
<g id="Group" opacity="0.8">
<g id="R-ICO-012564">
<path id="Vector" d="M31.0685 66.3275C30.994 66.4548 30.9084 66.5771 30.7994 66.6861L39.5082 75.3947C40.2018 76.0883 40.2018 77.213 39.5082 77.9066C38.8147 78.6002 37.7044 78.6161 37.0108 77.9225L28.2869 69.1985C26.9019 67.8135 26.8535 65.6083 28.2385 64.2233L28.6014 63.8604L31.0685 66.3275Z" fill="url(#paint0_linear_938_25825)"/>
<path id="Vector_2" d="M28.5761 63.8604L28.2623 63.5466C26.8774 62.1616 26.8774 59.908 28.2623 58.523L33.2763 53.5077C33.9698 52.8141 35.0716 52.8384 35.7653 53.5319C36.4588 54.2255 36.4588 55.3501 35.7653 56.0437L30.7742 61.0348C30.8832 61.1438 30.9688 61.266 31.0436 61.393L28.5761 63.8604Z" fill="url(#paint1_linear_938_25825)"/>
</g>
<g id="R-ICO-012564_2">
<path id="Vector_3" d="M31.0664 56.1009C30.9919 56.2282 30.9065 56.3505 30.7975 56.4595L39.5062 65.1682C40.1997 65.8618 40.1997 66.9864 39.5062 67.68C38.8126 68.3736 37.7025 68.3895 37.0089 67.6959L28.2849 58.9719C26.9 57.5869 26.8516 55.3817 28.2365 53.9967L28.5994 53.6338L31.0664 56.1009Z" fill="url(#paint2_linear_938_25825)"/>
<path id="Vector_4" d="M28.5995 53.6339L28.2857 53.3201C26.9008 51.9351 26.9008 49.6815 28.2857 48.2965L33.2997 43.2812C33.9933 42.5876 35.0951 42.6119 35.7887 43.3054C36.4822 43.999 36.4822 45.1236 35.7887 45.8172L30.7976 50.8083C30.9066 50.9173 30.9922 51.0395 31.0669 51.1665L28.5995 53.6339Z" fill="url(#paint3_linear_938_25825)"/>
</g>
<g id="R-ICO-012564_3">
<path id="Vector_5" d="M31.0664 45.8747C30.9919 46.002 30.9065 46.1243 30.7975 46.2333L39.5062 54.9421C40.1997 55.6357 40.1997 56.7603 39.5062 57.4539C38.8126 58.1475 37.7025 58.1634 37.0089 57.4698L28.2849 48.7458C26.9 47.3608 26.8516 45.1556 28.2365 43.7706L28.5994 43.4077L31.0664 45.8747Z" fill="url(#paint4_linear_938_25825)"/>
<path id="Vector_6" d="M28.5995 43.4078L28.2857 43.094C26.9008 41.709 26.9008 39.4554 28.2857 38.0704L33.2997 33.0551C33.9933 32.3615 35.0951 32.3858 35.7887 33.0793C36.4823 33.7728 36.4822 34.8975 35.7887 35.5911L30.7976 40.5822C30.9066 40.6912 30.9922 40.8134 31.0669 40.9404L28.5995 43.4078Z" fill="url(#paint5_linear_938_25825)"/>
</g>
<g id="R-ICO-012564_4">
<path id="Vector_7" d="M31.3065 15.1966C31.232 15.3239 31.1467 15.4462 31.0377 15.5552L39.7463 24.2639C40.4398 24.9575 40.4398 26.0821 39.7463 26.7757C39.0528 27.4693 37.9426 27.4852 37.249 26.7916L28.5251 18.0676C27.1401 16.6826 27.0918 14.4774 28.4767 13.0924L28.8397 12.7295L31.3065 15.1966Z" fill="url(#paint6_linear_938_25825)"/>
<path id="Vector_8" d="M28.7949 12.7297L28.4811 12.4159C27.0961 11.0309 27.0961 8.77726 28.4811 7.39226L33.495 2.37687C34.1885 1.68327 35.2905 1.70756 35.9841 2.40116C36.6777 3.09476 36.6777 4.21937 35.9841 4.91297L30.9929 9.90406C31.1019 10.0131 31.1875 10.1353 31.2623 10.2623L28.7949 12.7297Z" fill="url(#paint7_linear_938_25825)"/>
</g>
<g id="R-ICO-012564_5">
<path id="Vector_9" d="M31.2967 25.4227C31.2222 25.55 31.1369 25.6723 31.0279 25.7813L39.7366 34.49C40.4301 35.1836 40.4301 36.3082 39.7366 37.0018C39.043 37.6954 37.9328 37.7113 37.2393 37.0177L28.5154 28.2937C27.1304 26.9087 27.0821 24.7035 28.467 23.3185L28.8299 22.9556L31.2967 25.4227Z" fill="url(#paint8_linear_938_25825)"/>
<path id="Vector_10" d="M28.8301 22.9557L28.5163 22.6419C27.1313 21.2569 27.1313 19.0033 28.5163 17.6183L33.5302 12.6029C34.2237 11.9093 35.3256 11.9336 36.0192 12.6271C36.7127 13.3207 36.7127 14.4453 36.0192 15.1389L31.0281 20.13C31.1371 20.239 31.2227 20.3612 31.2975 20.4882L28.8301 22.9557Z" fill="url(#paint9_linear_938_25825)"/>
</g>
<g id="R-ICO-012564_6">
<path id="Vector_11" d="M31.2967 35.6487C31.2222 35.776 31.1369 35.8983 31.0279 36.0073L39.7366 44.716C40.4301 45.4096 40.4301 46.5342 39.7366 47.2278C39.043 47.9214 37.9328 47.9373 37.2393 47.2437L28.5154 38.5197C27.1304 37.1347 27.0821 34.9295 28.467 33.5445L28.8299 33.1816L31.2967 35.6487Z" fill="url(#paint10_linear_938_25825)"/>
<path id="Vector_12" d="M28.8301 33.1818L28.5163 32.868C27.1313 31.483 27.1313 29.2294 28.5163 27.8444L33.5302 22.829C34.2237 22.1354 35.3256 22.1597 36.0192 22.8533C36.7128 23.5469 36.7127 24.6715 36.0192 25.3651L31.0281 30.3562C31.1371 30.4652 31.2227 30.5874 31.2975 30.7144L28.8301 33.1818Z" fill="url(#paint11_linear_938_25825)"/>
</g>
<g id="R-ICO-013391">
<g id="LEFT">
<path id="Vector_13" d="M28.5757 63.8579C28.5757 63.8579 8.30566 64.4929 8.30566 40.1503C8.30566 15.8078 23.7136 12.7295 28.7938 12.7295" stroke="#395B2C" stroke-miterlimit="10" stroke-linecap="round" stroke-linejoin="round" stroke-dasharray="4 4"/>
<path id="Vector_14" d="M28.5987 53.6322C25.6203 53.6322 8.30566 52.3879 8.30566 40.1503C8.30566 27.9126 17.4462 22.9551 28.8288 22.9551" stroke="#395B2C" stroke-miterlimit="10" stroke-linecap="round" stroke-linejoin="round" stroke-dasharray="4 4"/>
<path id="Vector_15" d="M28.5987 43.4064C24.6388 43.4064 8.30566 43.4237 8.30566 40.1501C8.30566 36.8766 11.2301 33.1807 28.8288 33.1807" stroke="#395B2C" stroke-miterlimit="10" stroke-linecap="round" stroke-linejoin="round" stroke-dasharray="4 4"/>
</g>
</g>
<path id="CENTROSOME" d="M8.30585 43.1536C9.96386 43.1536 11.3079 41.8095 11.3079 40.1515C11.3079 38.4935 9.96386 37.1494 8.30585 37.1494C6.64783 37.1494 5.30371 38.4935 5.30371 40.1515C5.30371 41.8095 6.64783 43.1536 8.30585 43.1536Z" fill="url(#paint12_radial_938_25825)"/>
</g>
<g id="Group_2" opacity="0.8">
<g id="R-ICO-012564_7">
<path id="Vector_16" d="M89.1738 66.3275C89.2483 66.4548 89.3338 66.5771 89.4428 66.6861L80.734 75.3947C80.0405 76.0883 80.0405 77.213 80.734 77.9066C81.4276 78.6002 82.5377 78.6161 83.2313 77.9225L91.9552 69.1985C93.3402 67.8135 93.3886 65.6083 92.0036 64.2233L91.6407 63.8604L89.1738 66.3275Z" fill="url(#paint13_linear_938_25825)"/>
<path id="Vector_17" d="M91.6654 63.8604L91.9792 63.5466C93.3641 62.1616 93.3641 59.908 91.9792 58.523L86.9652 53.5077C86.2717 52.8141 85.1698 52.8384 84.4762 53.5319C83.7826 54.2254 83.7827 55.3501 84.4762 56.0437L89.4674 61.0348C89.3584 61.1438 89.2728 61.266 89.198 61.393L91.6654 63.8604Z" fill="url(#paint14_linear_938_25825)"/>
</g>
<g id="R-ICO-012564_8">
<path id="Vector_18" d="M89.1758 56.1009C89.2503 56.2282 89.3356 56.3505 89.4446 56.4595L80.7359 65.1682C80.0424 65.8618 80.0424 66.9864 80.7359 67.68C81.4294 68.3736 82.5397 68.3895 83.2333 67.6959L91.9573 58.9719C93.3422 57.5869 93.3906 55.3817 92.0057 53.9967L91.6427 53.6338L89.1758 56.1009Z" fill="url(#paint15_linear_938_25825)"/>
<path id="Vector_19" d="M91.6429 53.6339L91.9567 53.3201C93.3417 51.9351 93.3417 49.6815 91.9567 48.2965L86.9428 43.2812C86.2492 42.5876 85.1474 42.6119 84.4538 43.3054C83.7602 43.999 83.7602 45.1236 84.4538 45.8172L89.4449 50.8083C89.3359 50.9173 89.2503 51.0395 89.1755 51.1665L91.6429 53.6339Z" fill="url(#paint16_linear_938_25825)"/>
</g>
<g id="R-ICO-012564_9">
<path id="Vector_20" d="M89.1758 45.8747C89.2503 46.002 89.3356 46.1243 89.4446 46.2333L80.7359 54.9421C80.0424 55.6357 80.0424 56.7603 80.7359 57.4539C81.4294 58.1475 82.5397 58.1634 83.2333 57.4698L91.9573 48.7458C93.3422 47.3608 93.3906 45.1556 92.0057 43.7706L91.6427 43.4077L89.1758 45.8747Z" fill="url(#paint17_linear_938_25825)"/>
<path id="Vector_21" d="M91.6429 43.4078L91.9567 43.094C93.3417 41.709 93.3417 39.4554 91.9567 38.0704L86.9428 33.0551C86.2492 32.3615 85.1474 32.3858 84.4538 33.0793C83.7602 33.7729 83.7602 34.8975 84.4538 35.5911L89.4449 40.5822C89.3359 40.6912 89.2503 40.8134 89.1755 40.9404L91.6429 43.4078Z" fill="url(#paint18_linear_938_25825)"/>
</g>
<g id="R-ICO-012564_10">
<path id="Vector_22" d="M88.9355 15.1966C89.01 15.3239 89.0955 15.4462 89.2045 15.5552L80.4958 24.2639C79.8022 24.9575 79.8022 26.0821 80.4958 26.7757C81.1893 27.4693 82.2995 27.4852 82.9931 26.7916L91.7171 18.0676C93.102 16.6826 93.1504 14.4774 91.7654 13.0924L91.4025 12.7295L88.9355 15.1966Z" fill="url(#paint19_linear_938_25825)"/>
<path id="Vector_23" d="M91.4475 12.7297L91.7613 12.4159C93.1462 11.0309 93.1462 8.77726 91.7613 7.39226L86.7474 2.37687C86.0539 1.68327 84.952 1.70756 84.2584 2.40116C83.5649 3.09476 83.5649 4.21937 84.2584 4.91297L89.2495 9.90406C89.1405 10.0131 89.0549 10.1353 88.9801 10.2623L91.4475 12.7297Z" fill="url(#paint20_linear_938_25825)"/>
</g>
<g id="R-ICO-012564_11">
<path id="Vector_24" d="M88.9453 25.4227C89.0198 25.55 89.1052 25.6723 89.2142 25.7813L80.5055 34.49C79.812 35.1836 79.812 36.3082 80.5055 37.0018C81.199 37.6954 82.3092 37.7113 83.0028 37.0177L91.7267 28.2937C93.1117 26.9087 93.16 24.7035 91.7751 23.3185L91.4122 22.9556L88.9453 25.4227Z" fill="url(#paint21_linear_938_25825)"/>
<path id="Vector_25" d="M91.4124 22.9557L91.7263 22.6419C93.1113 21.2569 93.1113 19.0033 91.7263 17.6183L86.7123 12.6029C86.0188 11.9093 84.9169 11.9336 84.2233 12.6271C83.5297 13.3207 83.5297 14.4453 84.2233 15.1389L89.2144 20.13C89.1054 20.239 89.0199 20.3612 88.9451 20.4882L91.4124 22.9557Z" fill="url(#paint22_linear_938_25825)"/>
</g>
<g id="R-ICO-012564_12">
<path id="Vector_26" d="M89.9453 35.6487C90.0198 35.776 90.1052 35.8983 90.2142 36.0073L81.5055 44.716C80.812 45.4096 80.812 46.5342 81.5055 47.2278C82.199 47.9214 83.3093 47.9373 84.0028 47.2437L92.7267 38.5197C94.1117 37.1347 94.16 34.9295 92.7751 33.5445L92.4122 33.1816L89.9453 35.6487Z" fill="url(#paint23_linear_938_25825)"/>
<path id="Vector_27" d="M92.4124 33.1818L92.7263 32.868C94.1113 31.483 94.1113 29.2294 92.7263 27.8444L87.7123 22.829C87.0188 22.1354 85.9169 22.1597 85.2233 22.8533C84.5297 23.5469 84.5297 24.6715 85.2233 25.3651L90.2144 30.3562C90.1054 30.4652 90.0199 30.5874 89.9451 30.7144L92.4124 33.1818Z" fill="url(#paint24_linear_938_25825)"/>
</g>
<g id="R-ICO-013391_2">
<g id="RIGHT">
<path id="Vector_28" d="M91.6664 63.8579C91.6664 63.8579 111.936 64.4929 111.936 40.1503C111.936 15.8078 96.5285 12.7295 91.4482 12.7295" stroke="#5B2C2C" stroke-miterlimit="10" stroke-linecap="round" stroke-linejoin="round" stroke-dasharray="4 4"/>
<path id="Vector_29" d="M91.6432 53.6322C94.6217 53.6322 111.936 52.3879 111.936 40.1503C111.936 27.9126 102.796 22.9551 91.4131 22.9551" stroke="#5B2C2C" stroke-miterlimit="10" stroke-linecap="round" stroke-linejoin="round" stroke-dasharray="4 4"/>
<path id="Vector_30" d="M91.6432 43.4064C95.6031 43.4064 111.936 43.4237 111.936 40.1501C111.936 36.8766 109.012 33.1807 91.4131 33.1807" stroke="#5B2C2C" stroke-miterlimit="10" stroke-linecap="round" stroke-linejoin="round" stroke-dasharray="4 4"/>
</g>
</g>
<path id="CENTROSOME_2" d="M111.937 43.1536C113.595 43.1536 114.939 41.8095 114.939 40.1515C114.939 38.4935 113.595 37.1494 111.937 37.1494C110.279 37.1494 108.935 38.4935 108.935 40.1515C108.935 41.8095 110.279 43.1536 111.937 43.1536Z" fill="url(#paint25_radial_938_25825)"/>
</g>
<g id="TOP" opacity="0.7">
<path id="BG" opacity="0.5" d="M80.1279 0.219238C72.8312 0.219238 65.9966 2.18044 60.105 5.59004C54.2133 2.18044 47.3786 0.219238 40.082 0.219238C17.9653 0.219238 0.0361328 18.1484 0.0361328 40.2651C0.0361328 62.3818 17.9653 80.311 40.082 80.311C47.3787 80.311 54.2134 78.3498 60.105 74.9402C65.9967 78.3498 72.8313 80.311 80.1279 80.311C102.245 80.311 120.174 62.3818 120.174 40.2651C120.174 18.1483 102.245 0.219238 80.1279 0.219238Z" fill="url(#paint26_linear_938_25825)"/>
<g id="INNER SHADOWS">
<g id="RIGHT_2">
<mask id="mask0_938_25825" style="mask-type:alpha" maskUnits="userSpaceOnUse" x="40" y="0" width="81" height="81">
<path id="MASK" d="M80.0918 80.0918C102.209 80.0918 120.138 62.1627 120.138 40.0459C120.138 17.9292 102.209 0 80.0918 0C57.9751 0 40.0459 17.9292 40.0459 40.0459C40.0459 62.1627 57.9751 80.0918 80.0918 80.0918Z" fill="url(#paint27_radial_938_25825)"/>
</mask>
<g mask="url(#mask0_938_25825)">
<path id="Vector_31" d="M80.0918 80.0918C102.209 80.0918 120.138 62.1627 120.138 40.0459C120.138 17.9292 102.209 0 80.0918 0C57.9751 0 40.0459 17.9292 40.0459 40.0459C40.0459 62.1627 57.9751 80.0918 80.0918 80.0918Z" fill="url(#paint28_radial_938_25825)"/>
</g>
</g>
<g id="LEFT_2">
<mask id="mask1_938_25825" style="mask-type:alpha" maskUnits="userSpaceOnUse" x="0" y="0" width="81" height="81">
<path id="MASK_2" d="M40.0459 80.311C62.1626 80.311 80.0918 62.3819 80.0918 40.2651C80.0918 18.1484 62.1626 0.219238 40.0459 0.219238C17.9292 0.219238 0 18.1484 0 40.2651C0 62.3819 17.9292 80.311 40.0459 80.311Z" fill="url(#paint29_radial_938_25825)"/>
</mask>
<g mask="url(#mask1_938_25825)">
<path id="Vector_32" d="M40.0459 80.311C62.1626 80.311 80.0918 62.3819 80.0918 40.2651C80.0918 18.1484 62.1626 0.219238 40.0459 0.219238C17.9292 0.219238 0 18.1484 0 40.2651C0 62.3819 17.9292 80.311 40.0459 80.311Z" fill="url(#paint30_radial_938_25825)"/>
</g>
</g>
</g>
<g id="LIGHTS" opacity="0.7">
<path id="LEFT_3" d="M40.0488 80.311C62.1656 80.311 80.0947 62.3819 80.0947 40.2651C80.0947 18.1484 62.1656 0.219238 40.0488 0.219238C17.9321 0.219238 0.00292969 18.1484 0.00292969 40.2651C0.00292969 62.3819 17.9321 80.311 40.0488 80.311Z" fill="url(#paint31_radial_938_25825)"/>
<path id="RIGHT_3" d="M80.0918 80.311C102.209 80.311 120.138 62.3819 120.138 40.2651C120.138 18.1484 102.209 0.219238 80.0918 0.219238C57.9751 0.219238 40.0459 18.1484 40.0459 40.2651C40.0459 62.3819 57.9751 80.311 80.0918 80.311Z" fill="url(#paint32_radial_938_25825)"/>
</g>
</g>
</g>
<defs>
<linearGradient id="paint0_linear_938_25825" x1="33.6317" y1="63.8569" x2="33.6317" y2="78.4311" gradientUnits="userSpaceOnUse">
<stop stop-color="#E36023"/>
<stop offset="0.0795" stop-color="#D7591F"/>
<stop offset="0.3452" stop-color="#B34613"/>
<stop offset="0.595" stop-color="#9A380A"/>
<stop offset="0.8204" stop-color="#8A2F05"/>
<stop offset="1" stop-color="#852C03"/>
</linearGradient>
<linearGradient id="paint1_linear_938_25825" x1="36.2932" y1="58.4355" x2="27.2314" y2="58.4355" gradientUnits="userSpaceOnUse">
<stop stop-color="#E36023"/>
<stop offset="0.9995" stop-color="#852C03"/>
</linearGradient>
<linearGradient id="paint2_linear_938_25825" x1="33.6297" y1="53.6306" x2="33.6297" y2="68.2048" gradientUnits="userSpaceOnUse">
<stop stop-color="#E36023"/>
<stop offset="0.0795" stop-color="#D7591F"/>
<stop offset="0.3452" stop-color="#B34613"/>
<stop offset="0.595" stop-color="#9A380A"/>
<stop offset="0.8204" stop-color="#8A2F05"/>
<stop offset="1" stop-color="#852C03"/>
</linearGradient>
<linearGradient id="paint3_linear_938_25825" x1="36.3167" y1="48.209" x2="27.255" y2="48.209" gradientUnits="userSpaceOnUse">
<stop stop-color="#E36023"/>
<stop offset="0.9995" stop-color="#852C03"/>
</linearGradient>
<linearGradient id="paint4_linear_938_25825" x1="33.6297" y1="43.4045" x2="33.6297" y2="57.9787" gradientUnits="userSpaceOnUse">
<stop stop-color="#E36023"/>
<stop offset="0.0795" stop-color="#D7591F"/>
<stop offset="0.3452" stop-color="#B34613"/>
<stop offset="0.595" stop-color="#9A380A"/>
<stop offset="0.8204" stop-color="#8A2F05"/>
<stop offset="1" stop-color="#852C03"/>
</linearGradient>
<linearGradient id="paint5_linear_938_25825" x1="36.3167" y1="37.9829" x2="27.2551" y2="37.983" gradientUnits="userSpaceOnUse">
<stop stop-color="#E36023"/>
<stop offset="0.9995" stop-color="#852C03"/>
</linearGradient>
<linearGradient id="paint6_linear_938_25825" x1="33.8702" y1="12.7256" x2="33.8702" y2="27.2998" gradientUnits="userSpaceOnUse">
<stop stop-color="#8776E3"/>
<stop offset="0.9995" stop-color="#170385"/>
</linearGradient>
<linearGradient id="paint7_linear_938_25825" x1="36.5125" y1="7.30517" x2="27.4507" y2="7.30517" gradientUnits="userSpaceOnUse">
<stop stop-color="#8776E3"/>
<stop offset="0.9995" stop-color="#170385"/>
</linearGradient>
<linearGradient id="paint8_linear_938_25825" x1="33.8605" y1="22.9518" x2="33.8605" y2="37.526" gradientUnits="userSpaceOnUse">
<stop stop-color="#8776E3"/>
<stop offset="0.9995" stop-color="#170385"/>
</linearGradient>
<linearGradient id="paint9_linear_938_25825" x1="36.5476" y1="17.531" x2="27.4859" y2="17.5309" gradientUnits="userSpaceOnUse">
<stop stop-color="#8776E3"/>
<stop offset="0.9995" stop-color="#170385"/>
</linearGradient>
<linearGradient id="paint10_linear_938_25825" x1="33.8605" y1="33.1778" x2="33.8605" y2="47.7519" gradientUnits="userSpaceOnUse">
<stop stop-color="#8776E3"/>
<stop offset="0.9995" stop-color="#170385"/>
</linearGradient>
<linearGradient id="paint11_linear_938_25825" x1="36.5476" y1="27.7569" x2="27.4859" y2="27.757" gradientUnits="userSpaceOnUse">
<stop stop-color="#8776E3"/>
<stop offset="0.9995" stop-color="#170385"/>
</linearGradient>
<radialGradient id="paint12_radial_938_25825" cx="0" cy="0" r="1" gradientUnits="userSpaceOnUse" gradientTransform="translate(7.45422 38.9998) rotate(-90) scale(3.0021 3.00211)">
<stop stop-color="#87A76B"/>
<stop offset="0.9995" stop-color="#395B2C"/>
</radialGradient>
<linearGradient id="paint13_linear_938_25825" x1="86.6136" y1="63.8569" x2="86.6136" y2="78.4311" gradientUnits="userSpaceOnUse">
<stop stop-color="#E36023"/>
<stop offset="0.0795" stop-color="#D7591F"/>
<stop offset="0.3452" stop-color="#B34613"/>
<stop offset="0.595" stop-color="#9A380A"/>
<stop offset="0.8204" stop-color="#8A2F05"/>
<stop offset="1" stop-color="#852C03"/>
</linearGradient>
<linearGradient id="paint14_linear_938_25825" x1="83.9515" y1="58.4355" x2="93.0131" y2="58.4355" gradientUnits="userSpaceOnUse">
<stop stop-color="#E36023"/>
<stop offset="0.9995" stop-color="#852C03"/>
</linearGradient>
<linearGradient id="paint15_linear_938_25825" x1="86.6156" y1="53.6306" x2="86.6156" y2="68.2047" gradientUnits="userSpaceOnUse">
<stop stop-color="#E36023"/>
<stop offset="0.0795" stop-color="#D7591F"/>
<stop offset="0.3452" stop-color="#B34613"/>
<stop offset="0.595" stop-color="#9A380A"/>
<stop offset="0.8204" stop-color="#8A2F05"/>
<stop offset="1" stop-color="#852C03"/>
</linearGradient>
<linearGradient id="paint16_linear_938_25825" x1="83.929" y1="48.209" x2="92.9906" y2="48.209" gradientUnits="userSpaceOnUse">
<stop stop-color="#E36023"/>
<stop offset="0.9995" stop-color="#852C03"/>
</linearGradient>
<linearGradient id="paint17_linear_938_25825" x1="86.6156" y1="43.4045" x2="86.6156" y2="57.9787" gradientUnits="userSpaceOnUse">
<stop stop-color="#E36023"/>
<stop offset="0.0795" stop-color="#D7591F"/>
<stop offset="0.3452" stop-color="#B34613"/>
<stop offset="0.595" stop-color="#9A380A"/>
<stop offset="0.8204" stop-color="#8A2F05"/>
<stop offset="1" stop-color="#852C03"/>
</linearGradient>
<linearGradient id="paint18_linear_938_25825" x1="83.9289" y1="37.983" x2="92.9907" y2="37.983" gradientUnits="userSpaceOnUse">
<stop stop-color="#E36023"/>
<stop offset="0.9995" stop-color="#852C03"/>
</linearGradient>
<linearGradient id="paint19_linear_938_25825" x1="86.375" y1="12.7257" x2="86.375" y2="27.2999" gradientUnits="userSpaceOnUse">
<stop stop-color="#8776E3"/>
<stop offset="0.9995" stop-color="#170385"/>
</linearGradient>
<linearGradient id="paint20_linear_938_25825" x1="83.7333" y1="7.30517" x2="92.795" y2="7.3051" gradientUnits="userSpaceOnUse">
<stop stop-color="#8776E3"/>
<stop offset="0.9995" stop-color="#170385"/>
</linearGradient>
<linearGradient id="paint21_linear_938_25825" x1="86.3846" y1="22.9518" x2="86.3846" y2="37.526" gradientUnits="userSpaceOnUse">
<stop stop-color="#8776E3"/>
<stop offset="0.9995" stop-color="#170385"/>
</linearGradient>
<linearGradient id="paint22_linear_938_25825" x1="83.698" y1="17.5309" x2="92.7597" y2="17.531" gradientUnits="userSpaceOnUse">
<stop stop-color="#8776E3"/>
<stop offset="0.9995" stop-color="#170385"/>
</linearGradient>
<linearGradient id="paint23_linear_938_25825" x1="87.3847" y1="33.1778" x2="87.3847" y2="47.7519" gradientUnits="userSpaceOnUse">
<stop stop-color="#8776E3"/>
<stop offset="0.9995" stop-color="#170385"/>
</linearGradient>
<linearGradient id="paint24_linear_938_25825" x1="84.6981" y1="27.7569" x2="93.7598" y2="27.757" gradientUnits="userSpaceOnUse">
<stop stop-color="#8776E3"/>
<stop offset="0.9995" stop-color="#170385"/>
</linearGradient>
<radialGradient id="paint25_radial_938_25825" cx="0" cy="0" r="1" gradientUnits="userSpaceOnUse" gradientTransform="translate(112.788 38.9998) rotate(-90) scale(3.0021 3.00211)">
<stop stop-color="#A76B6B"/>
<stop offset="0.9995" stop-color="#5B2C2C"/>
</radialGradient>
<linearGradient id="paint26_linear_938_25825" x1="60.1049" y1="0.554438" x2="60.1049" y2="79.5225" gradientUnits="userSpaceOnUse">
<stop stop-color="#998ABD"/>
<stop offset="0.5" stop-color="#70658A"/>
<stop offset="1" stop-color="#372E4A"/>
</linearGradient>
<radialGradient id="paint27_radial_938_25825" cx="0" cy="0" r="1" gradientUnits="userSpaceOnUse" gradientTransform="translate(40.0459 40.0459) scale(80.0918 80.0918)">
<stop offset="0.448073" stop-opacity="0"/>
<stop offset="0.554029" stop-color="white"/>
</radialGradient>
<radialGradient id="paint28_radial_938_25825" cx="0" cy="0" r="1" gradientUnits="userSpaceOnUse" gradientTransform="translate(68.5669 26.732) scale(56.5851 56.5851)">
<stop offset="0.5669" stop-color="#CACACC" stop-opacity="0"/>
<stop offset="0.6219" stop-color="#BAB8BC" stop-opacity="0.1271"/>
<stop offset="0.7331" stop-color="#908791" stop-opacity="0.3838"/>
<stop offset="0.8886" stop-color="#4D3B4C" stop-opacity="0.7429"/>
<stop offset="1" stop-color="#1A0018"/>
</radialGradient>
<radialGradient id="paint29_radial_938_25825" cx="0" cy="0" r="1" gradientUnits="userSpaceOnUse" gradientTransform="translate(80.0918 40.2651) rotate(180) scale(80.0918 87.0172)">
<stop offset="0.448812" stop-opacity="0"/>
<stop offset="0.55" stop-color="white"/>
</radialGradient>
<radialGradient id="paint30_radial_938_25825" cx="0" cy="0" r="1" gradientUnits="userSpaceOnUse" gradientTransform="translate(28.521 26.9512) scale(56.5851)">
<stop offset="0.5669" stop-color="#CACACC" stop-opacity="0"/>
<stop offset="0.6219" stop-color="#BAB8BC" stop-opacity="0.1271"/>
<stop offset="0.7331" stop-color="#908791" stop-opacity="0.3838"/>
<stop offset="0.8886" stop-color="#4D3B4C" stop-opacity="0.7429"/>
<stop offset="1" stop-color="#1A0018"/>
</radialGradient>
<radialGradient id="paint31_radial_938_25825" cx="0" cy="0" r="1" gradientUnits="userSpaceOnUse" gradientTransform="translate(28.7315 20.2946) scale(40.5623)">
<stop stop-color="#FDFDFF"/>
<stop offset="1" stop-color="#CACACC" stop-opacity="0"/>
</radialGradient>
<radialGradient id="paint32_radial_938_25825" cx="0" cy="0" r="1" gradientUnits="userSpaceOnUse" gradientTransform="translate(69.5987 20.039) scale(25.4528)">
<stop stop-color="#FDFDFF"/>
<stop offset="1" stop-color="#CACACC" stop-opacity="0"/>
</radialGradient>
</defs>
</svg>
