<svg width="157" height="172" viewBox="0 0 157 172" fill="none" xmlns="http://www.w3.org/2000/svg">
<g id="R-ICO-013191">
<g id="Platelet dense tubular network">
<mask id="path-1-inside-1_938_25712" fill="white">
<path d="M130.7 164.663C139.195 157.03 144.809 147.272 136.269 131.973C124.813 111.449 113.017 126.586 102.794 135.894C96.4489 141.67 84.4854 143.353 85.4955 134.971C88.5013 110.03 165.832 76.4184 155.764 58.4565C145.209 39.626 91.6607 98.8777 79.8103 77.5958C67.9598 56.314 151.733 37.2717 115.67 3.94181C100.879 -9.72819 81.8845 16.1654 72.565 20.9459C63.2456 25.7264 47.0987 43.3559 43.3163 45.8799C29.6707 54.9845 15.7327 54.0218 7.78454 58.3616C0.24474 62.4756 -4.35936 71.5165 6.13014 94.9973C25.4124 138.16 72.9484 99.0284 78.3609 109.046C84.8405 121.038 55.9837 132.886 56.7474 149.488C57.9621 175.896 82.7152 133.87 95.702 158.52C95.9248 158.943 96.1239 159.356 96.3085 159.764C102.974 173.986 117.442 172.818 123.74 169.744C127.39 167.963 130.7 164.663 130.7 164.663Z"/>
</mask>
<path d="M130.7 164.663C139.195 157.03 144.809 147.272 136.269 131.973C124.813 111.449 113.017 126.586 102.794 135.894C96.4489 141.67 84.4854 143.353 85.4955 134.971C88.5013 110.03 165.832 76.4184 155.764 58.4565C145.209 39.626 91.6607 98.8777 79.8103 77.5958C67.9598 56.314 151.733 37.2717 115.67 3.94181C100.879 -9.72819 81.8845 16.1654 72.565 20.9459C63.2456 25.7264 47.0987 43.3559 43.3163 45.8799C29.6707 54.9845 15.7327 54.0218 7.78454 58.3616C0.24474 62.4756 -4.35936 71.5165 6.13014 94.9973C25.4124 138.16 72.9484 99.0284 78.3609 109.046C84.8405 121.038 55.9837 132.886 56.7474 149.488C57.9621 175.896 82.7152 133.87 95.702 158.52C95.9248 158.943 96.1239 159.356 96.3085 159.764C102.974 173.986 117.442 172.818 123.74 169.744C127.39 167.963 130.7 164.663 130.7 164.663Z" fill="url(#paint0_linear_938_25712)" stroke="#B862C4" stroke-width="6" mask="url(#path-1-inside-1_938_25712)"/>
</g>
</g>
<defs>
<linearGradient id="paint0_linear_938_25712" x1="60.664" y1="-34.295" x2="94.1041" y2="232.19" gradientUnits="userSpaceOnUse">
<stop offset="0.1776" stop-color="#9D61A1"/>
<stop offset="1" stop-color="#FF8600"/>
</linearGradient>
</defs>
</svg>
