<svg width="56" height="23" viewBox="0 0 56 23" fill="none" xmlns="http://www.w3.org/2000/svg">
<g id="R-ICO-013455">
<g id="TRAF3">
<path d="M1.07666 11.5006C1.07666 5.97776 5.55381 1.50061 11.0767 1.50061H44.0767C49.5995 1.50061 54.0767 5.97776 54.0767 11.5006C54.0767 17.0235 49.5995 21.5006 44.0767 21.5006H11.0767C5.55381 21.5006 1.07666 17.0235 1.07666 11.5006Z" fill="url(#paint0_linear_938_23651)"/>
<path d="M43.285 2.99327C32.5489 2.87504 21.8128 2.52344 11.0767 1.64062C11.0767 1.54725 11.0767 1.45389 11.0767 1.36052C21.8128 0.4777 32.5489 0.126096 43.285 0.00787139C43.5489 0.00601447 43.8128 0.0045321 44.0767 0.00340331C50.0625 -0.154111 55.3967 5.19024 55.3844 11.0533C55.3882 11.2019 55.3891 11.351 55.3869 11.5006C55.4471 17.555 49.8036 22.7003 44.0772 22.2665C44.077 22.2665 44.0768 22.2665 44.0767 22.2664C38.7087 22.0227 33.3403 21.8473 27.9725 21.9536C22.6044 22.0566 17.2359 22.4651 11.8678 22.6654C11.6041 22.6734 11.3404 22.6808 11.0767 22.6876C5.24462 22.9687 -0.0814581 17.6939 0.000988841 11.9394C-0.000861645 11.7936 0.000186682 11.6473 0.00417495 11.5006C0.0105249 5.56454 5.67504 0.684453 11.0767 1.36052C11.0767 1.45389 11.0767 1.54725 11.0767 1.64062C5.82528 2.05751 1.88344 6.78345 2.14905 11.5006C2.15304 11.6195 2.15927 11.7376 2.16768 11.8549C2.42466 16.4677 6.53922 20.2707 11.0767 20.3137C11.3404 20.3205 11.6041 20.3279 11.8678 20.3359C17.2359 20.5362 22.6044 20.9434 27.9725 21.0464C33.3404 21.1527 38.7087 20.9786 44.0767 20.7349C44.0768 20.7348 44.0769 20.7348 44.0771 20.7348C49.0036 20.5594 52.9653 16.0991 52.7665 11.5006C52.7643 11.385 52.76 11.27 52.7536 11.1558C52.5674 6.65132 48.4603 2.91727 44.0767 2.99777C43.8128 2.99663 43.5489 2.99514 43.285 2.99327Z" fill="#95A551"/>
<text id="TRAF3_2" fill="white" xml:space="preserve" style="white-space: pre" font-family="Arial" font-size="12" font-weight="bold" letter-spacing="0em"><tspan x="8.229" y="15.6608">TRAF3</tspan></text>
</g>
</g>
<defs>
<linearGradient id="paint0_linear_938_23651" x1="27.5767" y1="1.50061" x2="27.5767" y2="21.5006" gradientUnits="userSpaceOnUse">
<stop stop-color="#95A551"/>
<stop offset="1" stop-color="#1C2106"/>
</linearGradient>
</defs>
</svg>
