<svg width="56" height="23" viewBox="0 0 56 23" fill="none" xmlns="http://www.w3.org/2000/svg">
<g id="R-ICO-012432">
<g id="APAF1">
<path d="M1.07617 11.5006C1.07617 5.97776 5.55332 1.5006 11.0762 1.5006H44.0762C49.599 1.5006 54.0762 5.97776 54.0762 11.5006C54.0762 17.0234 49.599 21.5006 44.0762 21.5006H11.0762C5.55332 21.5006 1.07617 17.0234 1.07617 11.5006Z" fill="url(#paint0_linear_938_23180)"/>
<path d="M43.2845 2.99326C32.5484 2.87503 21.8123 2.52343 11.0762 1.64061C11.0762 1.54724 11.0762 1.45388 11.0762 1.36051C21.8123 0.477692 32.5484 0.126089 43.2845 0.00786376C43.5484 0.00600684 43.8123 0.00452447 44.0762 0.00339568C50.062 -0.154118 55.3962 5.19023 55.384 11.0533C55.3877 11.2018 55.3886 11.351 55.3864 11.5006C55.4466 17.555 49.8032 22.7003 44.0767 22.2665C44.0765 22.2665 44.0763 22.2664 44.0762 22.2664C38.7082 22.0227 33.3398 21.8472 27.972 21.9536C22.6039 22.0566 17.2354 22.4651 11.8674 22.6654C11.6036 22.6734 11.3399 22.6808 11.0762 22.6876C5.24413 22.9687 -0.0819464 17.6939 0.00050056 11.9393C-0.00134993 11.7936 -0.0003016 11.6473 0.00368667 11.5006C0.0100366 5.56454 5.67455 0.684446 11.0762 1.36051C11.0762 1.45388 11.0762 1.54724 11.0762 1.64061C5.82479 2.0575 1.88296 6.78344 2.14856 11.5006C2.15256 11.6195 2.15878 11.7375 2.16719 11.8549C2.42417 16.4677 6.53873 20.2707 11.0762 20.3137C11.3399 20.3205 11.6036 20.3279 11.8674 20.3359C17.2354 20.5362 22.6039 20.9434 27.972 21.0463C33.3399 21.1527 38.7082 20.9786 44.0762 20.7348C44.0763 20.7348 44.0765 20.7348 44.0766 20.7348C49.0031 20.5593 52.9648 16.0991 52.766 11.5006C52.7639 11.385 52.7595 11.27 52.7531 11.1558C52.5669 6.65131 48.4598 2.91726 44.0762 2.99776C43.8123 2.99662 43.5484 2.99513 43.2845 2.99326Z" fill="#B80000"/>
<text id="APAF1_2" fill="white" xml:space="preserve" style="white-space: pre" font-family="Arial" font-size="12" font-weight="bold" letter-spacing="0em"><tspan x="8.33984" y="15.6608">APAF1</tspan></text>
</g>
</g>
<defs>
<linearGradient id="paint0_linear_938_23180" x1="27.5762" y1="1.5006" x2="27.5762" y2="21.5006" gradientUnits="userSpaceOnUse">
<stop stop-color="#B80000"/>
<stop offset="1" stop-color="#42004A"/>
</linearGradient>
</defs>
</svg>
