<svg width="60" height="63" viewBox="0 0 60 63" fill="none" xmlns="http://www.w3.org/2000/svg">
<g id="R-ICO-014509">
<path id="BG" d="M57.8652 31.8139C56.7052 30.3339 54.8752 29.4139 53.0252 29.4239L44.0652 29.7739C39.1852 29.9939 34.2852 30.1439 29.4052 30.1539C28.0752 27.0639 26.6252 24.0439 25.2252 20.9839C25.0552 20.6339 25.1452 20.2039 25.4452 19.9439C28.4552 17.2739 31.5052 14.6339 34.6452 12.1239L37.2653 10.0239C38.2153 9.2439 38.8952 8.1539 39.1853 6.9539C39.4553 5.7539 39.3253 4.4639 38.8053 3.3139C38.2853 2.1839 37.3753 1.2039 36.2253 0.633902C35.0853 0.0439022 33.7353 -0.146098 32.4553 0.113902C31.8153 0.243802 31.1853 0.473902 30.6153 0.813902C30.0153 1.1939 29.6253 1.5139 29.1653 1.8439C27.3553 3.1639 25.5653 4.5039 23.7953 5.8639C22.0153 7.2239 20.2253 8.5538 18.4653 9.9439L15.8153 12.0039L14.4953 13.0339L13.8353 13.5439C13.5653 13.7639 13.2853 14.0139 13.0453 14.2739C12.0553 15.3439 11.4453 16.7539 11.3453 18.2039C11.2853 18.9339 11.3553 19.6739 11.5453 20.3839C11.7753 21.1639 11.9853 21.5939 12.1853 22.1239L14.7153 28.3439C14.9353 28.8739 15.1653 29.4039 15.3853 29.9339C13.0553 29.8539 10.7253 29.7639 8.39518 29.6839L6.15518 29.6039C5.25518 29.5839 4.35518 29.7739 3.52518 30.1539C1.86518 30.9139 0.615178 32.4839 0.175178 34.2839C-0.274822 36.0739 0.155178 38.0839 1.31518 39.5739C2.44518 41.0739 4.32518 41.9939 6.22518 42.0239C11.0652 42.0739 15.8952 42.1839 20.7252 42.2139C22.3752 45.7539 24.1152 49.2539 25.8052 52.7839C26.7752 54.8039 29.0652 59.7339 29.0652 59.7339C29.9152 61.5139 31.7352 62.7438 33.8452 62.7438C35.3352 62.7438 36.6852 62.1238 37.6452 61.1238H37.6552C39.6852 58.9538 44.9752 53.2438 47.0452 51.1038C49.0952 48.9438 51.1852 46.8238 53.2052 44.6438C54.2151 43.5538 55.2252 42.4638 56.2052 41.3438L57.7052 39.6538C58.3152 38.9438 58.7552 38.0738 58.9752 37.1538C59.4352 35.3239 59.0352 33.2939 57.8652 31.8139ZM39.0405 42.036C38.1037 43.1771 37.2045 44.3555 36.3052 45.5339L35.6652 46.3639C35.1852 44.9539 34.6952 43.5439 34.1952 42.1439C35.7997 42.1291 37.4043 42.1144 39.0405 42.036Z" fill="#77002F"/>
<g id="Group">
<path id="Vector" d="M24.7206 18.5157C24.7206 18.5157 32.5166 12.6849 36.6847 9.26029C38.5241 7.73639 38.78 5.00989 37.2561 3.17049C35.7323 1.33099 33.0058 1.07519 31.1663 2.59909L15.5689 16.0462L15.5782 16.0567C14.8648 16.6818 14.4052 17.589 14.4052 18.6121C14.4052 19.0464 14.4863 19.4616 14.6343 19.8436L18.8452 30.0338L26.6352 30.1538C26.6352 30.1538 23.8775 22.6332 23.6329 21.9664C23.3884 21.2996 22.9947 20.4415 22.8502 20.2159C22.5349 19.7234 22.1358 19.2504 21.6153 19.061C21.3561 18.9664 21.2224 18.6795 21.3165 18.4201C21.3203 18.41 21.3244 18.3996 21.3288 18.3897C21.4338 18.1505 21.7083 18.0306 21.9575 18.1213C22.317 18.2522 22.6356 18.4447 22.9168 18.7031C23.3618 19.1118 24.1369 18.9347 24.7206 18.5157Z" fill="#B9005A"/>
<path id="Vector_2" d="M56.4851 35.5703C56.4851 33.4969 54.8043 31.8161 52.7309 31.8161C36.069 30.9632 20.4118 30.7899 6.2704 31.6417C4.1868 31.6417 2.4978 33.3308 2.4978 35.4143C2.4978 37.4978 4.1875 39.238 6.2704 39.1869C18.7667 38.8807 30.7583 39.0547 42.7453 39.2942C43.5388 39.3101 44.2396 38.7687 44.5604 38.4586C45.2134 37.8274 46.2689 36.9462 47.4786 36.9031C47.7436 36.8936 47.9678 37.0924 47.9939 37.3523C47.9949 37.363 47.9956 37.3742 47.9962 37.385C48.0058 37.6608 47.7901 37.8926 47.5143 37.9026C46.6785 37.9322 45.9045 38.6638 45.3538 39.1896L45.2295 39.3022L35.1552 49.6638L31.2869 53.6657C30.8188 54.2662 30.2837 55.0835 30.3379 55.9181C30.3555 56.1935 30.1465 56.4313 29.8711 56.4493C29.8604 56.4498 29.8491 56.4503 29.8384 56.4503C29.5772 56.4503 29.357 56.2472 29.3399 55.9825C29.2471 54.5479 30.3526 53.2115 30.8838 52.5694L34.3753 48.0437H34.3861L32.9293 44.8576C32.1592 42.7526 29.8285 41.6705 27.7235 42.4405C25.6186 43.2106 24.5364 45.5413 25.3065 47.6462L29.1692 59.1055L29.1842 59.0824C29.4131 59.7968 29.79 60.4739 30.357 61.0409C32.259 62.9429 35.3429 62.9429 37.2449 61.0409L55.6739 37.9013L55.6498 37.9045C56.1644 37.2622 56.4851 36.4576 56.4851 35.5703Z" fill="#B9005A"/>
</g>
<g id="SHINE">
<path id="Vector_3" d="M36.399 52.846C36.1539 52.846 35.9078 52.7562 35.7149 52.5755C35.3121 52.1976 35.2916 51.5648 35.6695 51.1624L46.1075 40.0286C46.4845 39.6253 47.1178 39.6048 47.5211 39.9827C47.9239 40.3606 47.9444 40.9934 47.5665 41.3958L37.1285 52.5296C36.9318 52.7395 36.6656 52.846 36.399 52.846Z" fill="#FF9AC7"/>
<path id="Vector_4" d="M26.9577 47.3644C26.9157 47.3644 26.8737 47.3615 26.8312 47.3566C26.2833 47.2873 25.8952 46.7873 25.964 46.2394C26.1237 44.9728 26.8346 44.3107 27.403 43.9787C28.5592 43.3029 29.965 43.4689 30.8176 43.8176C31.3288 44.0266 31.5739 44.6106 31.365 45.1213C31.1565 45.633 30.5725 45.8791 30.0608 45.6692C29.596 45.4797 28.8806 45.4329 28.4119 45.7053C28.243 45.8049 28.011 45.9934 27.9485 46.4895C27.885 46.9953 27.4543 47.3644 26.9577 47.3644Z" fill="#FF9AC7"/>
<path id="Vector_5" d="M17.3986 20.5724C17.0187 20.5724 16.6554 20.3546 16.488 19.9865C15.4123 17.6213 16.2341 16.4592 17.2829 15.5549L30.4128 5.0139C30.8435 4.6701 31.4729 4.7375 31.8186 5.1682C32.1643 5.5989 32.0955 6.2287 31.6648 6.5744L18.5618 17.093C18.0003 17.5774 17.7054 17.8323 18.3084 19.1584C18.5374 19.6613 18.3147 20.2541 17.8123 20.4826C17.6779 20.5441 17.5372 20.5724 17.3986 20.5724Z" fill="#FF9AC7"/>
<path id="Vector_6" d="M39.3204 32.5266H7.49555C6.11155 32.5751 4.74325 32.9669 4.10125 35.4847C4.00135 35.8767 4.14835 36.2739 4.44455 36.5117C4.55275 36.5985 4.68005 36.6645 4.82325 36.7005C5.35815 36.8369 5.90285 36.514 6.03915 35.9785C6.39915 34.5669 6.78875 34.5527 7.52985 34.5265L39.3204 34.5266C39.8726 34.5266 40.3204 34.0793 40.3204 33.5266C40.3204 32.9739 39.8727 32.5266 39.3204 32.5266Z" fill="#FF9AC7"/>
</g>
</g>
</svg>
