<svg width="77" height="62" viewBox="0 0 77 62" fill="none" xmlns="http://www.w3.org/2000/svg">
<g id="R-ICO-012627">
<path id="BG" d="M2.5 2.5V47.5C2.5 47.5 2.5 52.5 6.9931 52.5C11.4862 52.5 11.4862 47.5 11.4862 47.5V7.5C11.4862 7.5 11.4862 2.5 15.9793 2.5C20.4724 2.5 20.4724 7.5 20.4724 7.5V47.5C20.4724 47.5 20.4724 52.5 24.9655 52.5C29.4586 52.5 29.4586 47.5 29.4586 47.5V7.5C29.4586 7.5 29.4586 2.5 33.9517 2.5C38.4448 2.5 38.4448 7.5 38.4448 7.5V47.5C38.4448 47.5 38.4448 52.5 42.9379 52.5C47.431 52.5 47.431 47.5 47.431 47.5V7.5C47.431 7.5 47.431 2.5 51.9241 2.5C56.4172 2.5 56.4172 7.5 56.4172 7.5V47.5C56.4172 47.5 56.4172 52.5 60.9103 52.5C65.4034 52.5 65.4034 47.5 65.4034 47.5V7.5C65.4034 7.5 65.4034 2.5 69.8965 2.5C74.3896 2.5 74.3896 7.5 74.3896 7.5C74.3896 7.5 74.3896 47.5 74.3896 52.5C74.3896 57.5 69.8965 59.4631 65.4034 59.4631L60.9103 59.5001" stroke="url(#paint0_linear_938_24311)" stroke-width="5" stroke-miterlimit="10" stroke-linecap="round" stroke-linejoin="round"/>
<path id="OUTLINE" d="M1.24658 2.5V47.5C1.24658 47.5 1.24658 52.5 5.73968 52.5C10.2328 52.5 10.2328 47.5 10.2328 47.5V7.5C10.2328 7.5 10.2328 2.5 14.7259 2.5C19.219 2.5 19.219 7.5 19.219 7.5V47.5C19.219 47.5 19.219 52.5 23.7121 52.5C28.2052 52.5 28.2052 47.5 28.2052 47.5V7.5C28.2052 7.5 28.2052 2.5 32.6983 2.5C37.1914 2.5 37.1914 7.5 37.1914 7.5V47.5C37.1914 47.5 37.1914 52.5 41.6845 52.5C46.1776 52.5 46.1776 47.5 46.1776 47.5V7.5C46.1776 7.5 46.1776 2.5 50.6707 2.5C55.1638 2.5 55.1638 7.5 55.1638 7.5V47.5C55.1638 47.5 55.1638 52.5 59.6569 52.5C64.15 52.5 64.15 47.5 64.15 47.5V7.5C64.15 7.5 64.15 2.5 68.6431 2.5C73.1362 2.5 73.1362 7.5 73.1362 7.5C73.1362 7.5 73.1362 47.5 73.1362 52.5C73.1362 57.5 68.6431 59.4631 64.15 59.4631L59.6569 59.5001" stroke="url(#paint1_linear_938_24311)" stroke-width="1.5" stroke-miterlimit="10" stroke-linecap="round" stroke-linejoin="round"/>
</g>
<defs>
<linearGradient id="paint0_linear_938_24311" x1="38.4449" y1="62.0001" x2="38.4449" y2="-1.59468e-06" gradientUnits="userSpaceOnUse">
<stop stop-color="#172780"/>
<stop offset="1" stop-color="#4259DB"/>
</linearGradient>
<linearGradient id="paint1_linear_938_24311" x1="37.1914" y1="60.2501" x2="37.1914" y2="1.75" gradientUnits="userSpaceOnUse">
<stop offset="0.6161" stop-color="#96A2E8"/>
<stop offset="0.8228" stop-color="#CED2E8"/>
<stop offset="1" stop-color="#96A2E8"/>
</linearGradient>
</defs>
</svg>
