<svg width="110" height="24" viewBox="0 0 110 24" fill="none" xmlns="http://www.w3.org/2000/svg">
<g id="R-ICO-013864">
<g id="CHEMICAL_HEX">
<g id="LEFT_CORNER">
<mask id="mask0_938_24982" style="mask-type:luminance" maskUnits="userSpaceOnUse" x="0" y="0" width="10" height="24">
<rect id="MASK" width="10" height="24" transform="matrix(-1 0 0 1 10 0)" fill="white"/>
</mask>
<g mask="url(#mask0_938_24982)">
<g id="CORNER">
<mask id="path-2-outside-1_938_24982" maskUnits="userSpaceOnUse" x="0" y="0" width="12" height="24" fill="black">
<rect fill="white" width="12" height="24"/>
<path d="M2 12C2 12 6.04738 5.90524 8 2H10V22H8C6.04738 18.0948 2 12 2 12Z"/>
</mask>
<path d="M2 12C2 12 6.04738 5.90524 8 2H10V22H8C6.04738 18.0948 2 12 2 12Z" fill="#D3691A"/>
<path d="M2 12C2 12 6.04738 5.90524 8 2H10V22H8C6.04738 18.0948 2 12 2 12Z" stroke="#EBF700" stroke-width="4" stroke-miterlimit="3.99933" stroke-linejoin="round" mask="url(#path-2-outside-1_938_24982)"/>
</g>
</g>
</g>
<g id="RIGHT CORNER">
<mask id="mask1_938_24982" style="mask-type:luminance" maskUnits="userSpaceOnUse" x="100" y="0" width="10" height="24">
<rect id="MASK_2" width="10" height="24" transform="matrix(1 -8.74228e-08 -8.74228e-08 -1 100 24)" fill="white"/>
</mask>
<g mask="url(#mask1_938_24982)">
<g id="CORNER_2">
<mask id="path-4-outside-2_938_24982" maskUnits="userSpaceOnUse" x="98" y="0" width="12" height="24" fill="black">
<rect fill="white" x="98" width="12" height="24"/>
<path d="M108 12C108 12 103.953 5.90524 102 2H100V22H102C103.953 18.0948 108 12 108 12Z"/>
</mask>
<path d="M108 12C108 12 103.953 5.90524 102 2H100V22H102C103.953 18.0948 108 12 108 12Z" fill="#D3691A"/>
<path d="M108 12C108 12 103.953 5.90524 102 2H100V22H102C103.953 18.0948 108 12 108 12Z" stroke="#EBF700" stroke-width="4" stroke-miterlimit="3.99933" stroke-linejoin="round" mask="url(#path-4-outside-2_938_24982)"/>
</g>
</g>
</g>
<g id="centre">
<mask id="path-5-outside-3_938_24982" maskUnits="userSpaceOnUse" x="8" y="0" width="94" height="24" fill="black">
<rect fill="white" x="8" width="94" height="24"/>
<path d="M8 2H102V22H8V2Z"/>
</mask>
<path d="M8 2H102V22H8V2Z" fill="#D3691A"/>
<path d="M8 2V4H102V2V0H8V2ZM102 22V20H8V22V24H102V22Z" fill="#EBF700" mask="url(#path-5-outside-3_938_24982)"/>
<text id="Chemical" fill="white" xml:space="preserve" style="white-space: pre" font-family="Arial" font-size="12" font-weight="bold" letter-spacing="0em"><tspan x="8.3125" y="16.1602">PLASMALOGEN</tspan></text>
</g>
</g>
</g>
</svg>
