<svg width="66" height="37" viewBox="0 0 66 37" fill="none" xmlns="http://www.w3.org/2000/svg">
<g id="R-ICO-012643">
<g id="DTM complex">
<path d="M1.21826 11.4828C1.21826 5.96 5.69541 1.48285 11.2183 1.48285H54.2183C59.7411 1.48285 64.2183 5.96 64.2183 11.4828V25.4828C64.2183 31.0057 59.7411 35.4828 54.2183 35.4828H11.2183C5.69541 35.4828 1.21826 31.0057 1.21826 25.4828V11.4828Z" fill="url(#paint0_linear_938_23278)"/>
<path d="M55.2462 3.03682C54.9058 2.99268 54.564 2.9689 54.2183 2.96528C39.8849 2.83766 25.5516 2.48155 11.2183 1.62285C11.2183 1.52949 11.2183 1.43612 11.2183 1.34276C25.5516 0.484067 39.8849 0.127951 54.2183 0.000332952C54.6814 -0.00322068 55.142 0.0206945 55.6025 0.0727669C61.2177 0.616803 65.8151 5.89408 65.6348 11.4828C65.6038 14.0177 65.5681 16.5525 65.5347 19.0873C65.5111 21.2192 65.4775 23.351 65.4353 25.4828C65.4708 31.4774 59.9453 36.5991 54.2189 36.2487C54.2187 36.2487 54.2185 36.2487 54.2183 36.2487C46.8504 36.005 39.4818 35.8295 32.1141 35.9358C25.149 36.0332 18.1834 36.4035 11.2183 36.613C10.7689 36.6251 10.3211 36.6102 9.87248 36.5673C4.40651 36.1301 -0.175908 30.9776 0.00541496 25.4828C0.0354671 22.9483 0.0808692 20.4136 0.13405 17.879C0.179109 15.747 0.235063 13.6149 0.304009 11.4828C0.334815 5.63931 5.82475 0.816317 11.2183 1.34276C11.2183 1.43612 11.2183 1.52949 11.2183 1.62285C5.95881 1.89018 1.84248 6.67295 2.13237 11.4828C2.20132 13.6149 2.25729 15.747 2.30239 17.879C2.35557 20.4136 2.40097 22.9482 2.43103 25.4828C2.41316 29.7799 5.8797 33.7007 10.1507 34.2544C10.5034 34.3078 10.8584 34.3406 11.2183 34.3528C18.1834 34.5621 25.149 34.9312 32.1141 35.0286C39.482 35.1349 46.8503 34.9608 54.2183 34.7171C54.2185 34.7171 54.2187 34.7171 54.2188 34.7171C59.1453 34.6249 63.2248 30.1411 63.0013 25.4828C62.959 23.351 62.9255 21.2191 62.9019 19.0873C62.8686 16.5525 62.8328 14.0177 62.8018 11.4828C62.8206 7.27926 59.368 3.48315 55.2462 3.03682Z" fill="#543A09"/>
<text id="DTM complex_2" fill="white" xml:space="preserve" style="white-space: pre" font-family="Arial" font-size="12" font-weight="bold" letter-spacing="0em"><tspan x="19.7163" y="15.643">DTM&#10;</tspan><tspan x="8.35498" y="29.643">complex</tspan></text>
</g>
</g>
<defs>
<linearGradient id="paint0_linear_938_23278" x1="32.7183" y1="1.48285" x2="32.7183" y2="35.4828" gradientUnits="userSpaceOnUse">
<stop stop-color="#543A09"/>
<stop offset="1" stop-color="#F3C964"/>
</linearGradient>
</defs>
</svg>
