<svg width="60" height="23" viewBox="0 0 60 23" fill="none" xmlns="http://www.w3.org/2000/svg">
<g id="R-ICO-012979">
<g id="MAP2K">
<path d="M1.04785 11.5012C1.04785 5.97837 5.525 1.50122 11.0479 1.50122H48.0479C53.5707 1.50122 58.0479 5.97837 58.0479 11.5012C58.0479 17.0241 53.5707 21.5012 48.0479 21.5012H11.0479C5.525 21.5012 1.04785 17.0241 1.04785 11.5012Z" fill="url(#paint0_linear_938_23417)"/>
<path d="M45.2562 2.99388C33.8534 2.87565 22.4507 2.52405 11.0479 1.64123C11.0479 1.54786 11.0479 1.4545 11.0479 1.36113C22.4507 0.47831 33.8534 0.126707 45.2562 0.00848174C46.1867 0.00231636 47.1173 0.000279427 48.0479 0.00160873C53.6184 -0.0984919 58.6891 4.49469 59.2557 9.92792C59.3218 10.4517 59.3502 10.9751 59.342 11.5012C59.3934 17.5447 53.7747 22.6827 48.0484 22.2671C48.0482 22.2671 48.048 22.2671 48.0479 22.2671C42.3466 22.0233 36.6448 21.8479 30.9437 21.9542C25.2423 22.0572 19.5404 22.4657 13.839 22.666C12.9086 22.6926 11.9782 22.7125 11.0479 22.7265C5.60509 22.914 0.566245 18.3777 0.0701465 13.043C0.0114299 12.529 -0.0100218 12.016 0.00441754 11.5012C0.0189101 5.58217 5.64849 0.7173 11.0479 1.36113C11.0479 1.4545 11.0479 1.54786 11.0479 1.64123C5.79423 2.02589 1.81747 6.76699 2.09117 11.5012C2.10572 11.9207 2.14781 12.3336 2.21775 12.7439C2.88574 16.9929 6.83114 20.2797 11.0479 20.2761C11.9782 20.29 12.9086 20.3099 13.839 20.3365C19.5404 20.5368 25.2423 20.944 30.9437 21.047C36.6449 21.1533 42.3465 20.9792 48.0479 20.7355C48.048 20.7355 48.0482 20.7355 48.0483 20.7354C52.9749 20.5782 56.9614 16.1107 56.7538 11.5012C56.7455 11.0934 56.7104 10.6913 56.648 10.291C56.051 6.14029 52.1369 2.90979 48.0479 3.00085C47.1173 3.00215 46.1867 3.00009 45.2562 2.99388Z" fill="#2764E0"/>
<text id="MAP2K_2" fill="white" xml:space="preserve" style="white-space: pre" font-family="Arial" font-size="12" font-weight="bold" letter-spacing="0em"><tspan x="8.53613" y="15.6614">MAP2K</tspan></text>
</g>
</g>
<defs>
<linearGradient id="paint0_linear_938_23417" x1="29.5479" y1="1.50122" x2="29.5479" y2="21.5012" gradientUnits="userSpaceOnUse">
<stop stop-color="#2764E0"/>
<stop offset="1" stop-color="#9D4B6A"/>
</linearGradient>
</defs>
</svg>
