<svg width="105" height="24" viewBox="0 0 105 24" fill="none" xmlns="http://www.w3.org/2000/svg">
<g id="R-ICO-014808">
<g id="BASE/SMALL-MOLECULE_THERAPEUTIC">
<g id="LEFT_ELEMENT">
<mask id="mask0_938_22928" style="mask-type:alpha" maskUnits="userSpaceOnUse" x="0" y="0" width="8" height="24">
<rect id="MASK" width="8" height="24" transform="matrix(-1 0 0 1 8 0)" fill="white"/>
</mask>
<g mask="url(#mask0_938_22928)">
<g id="LEFT_CORNER">
<mask id="path-2-outside-1_938_22928" maskUnits="userSpaceOnUse" x="0" y="-1" width="10" height="26" fill="black">
<rect fill="white" y="-1" width="10" height="26"/>
<path d="M2 12C2 12 6.04738 5.90524 8 2V22C6.04738 18.0948 2 12 2 12Z"/>
</mask>
<path d="M2 12C2 12 6.04738 5.90524 8 2V22C6.04738 18.0948 2 12 2 12Z" fill="url(#paint0_linear_938_22928)"/>
<path d="M2 12C2 12 6.04738 5.90524 8 2V22C6.04738 18.0948 2 12 2 12Z" stroke="#946BE6" stroke-width="4" stroke-miterlimit="3.99933" stroke-linejoin="round" mask="url(#path-2-outside-1_938_22928)"/>
</g>
</g>
</g>
<g id="CENTRE shape">
<mask id="path-3-outside-2_938_22928" maskUnits="userSpaceOnUse" x="8" y="0" width="65" height="24" fill="black">
<rect fill="white" x="8" width="65" height="24"/>
<path d="M8 2H73V22H8V2Z"/>
</mask>
<path d="M8 2H73V22H8V2Z" fill="url(#paint1_linear_938_22928)"/>
<path d="M8 2V4H73V2V0H8V2ZM73 22V20H8V22V24H73V22Z" fill="#946BE6" mask="url(#path-3-outside-2_938_22928)"/>
<text id="Chemical" fill="white" xml:space="preserve" style="white-space: pre" font-family="Arial" font-size="12" font-weight="bold" letter-spacing="0em"><tspan x="8.25586" y="16.1602">NERATINIB</tspan></text>
</g>
<g id="RIGHT_ELEMENT">
<mask id="mask1_938_22928" style="mask-type:alpha" maskUnits="userSpaceOnUse" x="73" y="0" width="32" height="24">
<path id="MASK_2" d="M73 24L105 24L105 -8.90181e-07L73 1.90735e-06L73 24Z" fill="white"/>
</mask>
<g mask="url(#mask1_938_22928)">
<g id="Mask group">
<g id="ELEMENT">
<g id="BG">
<mask id="path-7-outside-3_938_22928" maskUnits="userSpaceOnUse" x="71" y="-1.74846e-07" width="34" height="24" fill="black">
<rect fill="white" x="71" y="-1.74846e-07" width="34" height="24"/>
<path d="M103 12C103 12 98.9526 18.0948 97 22L73 21.9999L73 2L97 2C98.9526 5.90524 103 12 103 12Z"/>
</mask>
<path d="M103 12C103 12 98.9526 18.0948 97 22L73 21.9999L73 2L97 2C98.9526 5.90524 103 12 103 12Z" fill="#946BE6"/>
<path d="M103 12C103 12 98.9526 18.0948 97 22L73 21.9999L73 2L97 2C98.9526 5.90524 103 12 103 12Z" stroke="#946BE6" stroke-width="4" stroke-miterlimit="3.99933" stroke-linejoin="round" mask="url(#path-7-outside-3_938_22928)"/>
</g>
<g id="RX">
<path id="Vector" d="M82 22V14H85.3071C86.1387 14 86.743 14.0718 87.1199 14.2155C87.4968 14.3592 87.7984 14.6148 88.0249 14.9822C88.2514 15.3496 88.3647 15.7698 88.3647 16.2428C88.3647 16.843 88.193 17.3388 87.8497 17.7298C87.5064 18.1209 86.9933 18.3675 86.3103 18.4693C86.6501 18.6731 86.9305 18.8968 87.1517 19.1405C87.3728 19.3842 87.671 19.8172 88.0461 20.4393L88.9963 22H87.1172L85.9812 20.2592C85.5778 19.6371 85.3017 19.2451 85.1531 19.0832C85.0044 18.9214 84.847 18.8104 84.6807 18.7504C84.5144 18.6904 84.2507 18.6603 83.8898 18.6603H83.5713V22H82ZM83.5713 17.3834H84.7338C85.4875 17.3834 85.9583 17.3506 86.1458 17.2851C86.3333 17.2196 86.4802 17.1068 86.5864 16.9468C86.6925 16.7867 86.7456 16.5866 86.7456 16.3465C86.7456 16.0773 86.6758 15.8599 86.536 15.6944C86.3962 15.5289 86.1989 15.4243 85.9441 15.3806C85.8167 15.3625 85.4345 15.3533 84.7975 15.3533H83.5713V17.3834Z" fill="white"/>
<path id="Vector_2" d="M88.9961 21.9999L91.0291 19.0149L89.0811 16.2046H90.9018L91.8998 17.798L92.9509 16.2046H94.7027L92.7917 18.9495L94.8778 22H93.0464L91.8998 20.2047L90.7426 21.9999H88.9961Z" fill="white"/>
</g>
</g>
<g id="RIGHT_ELEMENT_2">
<mask id="mask2_938_22928" style="mask-type:alpha" maskUnits="userSpaceOnUse" x="73" y="0" width="8" height="24">
<rect id="MASK_3" x="73" width="8" height="24" fill="white"/>
</mask>
<g mask="url(#mask2_938_22928)">
<g id="LEFT_CORNER_2">
<mask id="path-11-outside-4_938_22928" maskUnits="userSpaceOnUse" x="71" y="-1" width="10" height="26" fill="black">
<rect fill="white" x="71" y="-1" width="10" height="26"/>
<path d="M79 12C79 12 74.9526 5.90524 73 2V22C74.9526 18.0948 79 12 79 12Z"/>
</mask>
<path d="M79 12C79 12 74.9526 5.90524 73 2V22C74.9526 18.0948 79 12 79 12Z" fill="url(#paint2_linear_938_22928)"/>
<path d="M79 12C79 12 74.9526 5.90524 73 2V22C74.9526 18.0948 79 12 79 12Z" stroke="#946BE6" stroke-width="4" stroke-miterlimit="3.99933" stroke-linejoin="round" mask="url(#path-11-outside-4_938_22928)"/>
</g>
</g>
</g>
</g>
</g>
</g>
</g>
</g>
<defs>
<linearGradient id="paint0_linear_938_22928" x1="5" y1="2" x2="5" y2="22" gradientUnits="userSpaceOnUse">
<stop stop-color="#BCA73B"/>
<stop offset="1" stop-color="#56962B"/>
</linearGradient>
<linearGradient id="paint1_linear_938_22928" x1="40.5" y1="2" x2="40.5" y2="22" gradientUnits="userSpaceOnUse">
<stop stop-color="#BCA73B"/>
<stop offset="1" stop-color="#56962B"/>
</linearGradient>
<linearGradient id="paint2_linear_938_22928" x1="76" y1="2" x2="76" y2="22" gradientUnits="userSpaceOnUse">
<stop stop-color="#BCA73B"/>
<stop offset="1" stop-color="#56962B"/>
</linearGradient>
</defs>
</svg>
