<svg width="39" height="23" viewBox="0 0 39 23" fill="none" xmlns="http://www.w3.org/2000/svg">
<g id="R-ICO-014392">
<g id="MPI">
<path d="M1.21167 11.3013C1.21167 5.77842 5.68882 1.30127 11.2117 1.30127H27.2117C32.7345 1.30127 37.2117 5.77842 37.2117 11.3013C37.2117 16.8241 32.7345 21.3013 27.2117 21.3013H11.2117C5.68882 21.3013 1.21167 16.8241 1.21167 11.3013Z" fill="url(#paint0_linear_938_24015)"/>
<path d="M33.1388 5.19846C31.5974 3.63941 29.4575 2.68424 27.2117 2.59436C21.8783 2.39091 16.545 2.03706 11.2117 1.44127C11.2117 1.34791 11.2117 1.25455 11.2117 1.16118C16.545 0.565394 21.8783 0.211548 27.2117 0.00809717C30.1134 -0.106715 33.0838 1.0173 35.219 3.05708C37.448 5.16464 38.7052 8.26044 38.623 11.3013C38.5945 12.7646 38.278 14.2215 37.7002 15.5573C35.9737 19.7258 31.4867 22.4082 27.212 22.0671C27.2119 22.0671 27.2118 22.0671 27.2117 22.0671C23.2604 21.8234 19.3087 21.6479 15.3575 21.7542C13.9756 21.7903 12.5936 21.8636 11.2117 21.9524C8.48172 22.1345 5.5805 21.2295 3.4326 19.31C1.20547 17.3247 -0.0804172 14.2895 0.00390875 11.3013C0.0325356 9.86364 0.354334 8.43378 0.938213 7.13301C2.69138 3.07469 7.17751 0.578468 11.2117 1.16118C11.2117 1.25455 11.2117 1.34791 11.2117 1.44127C7.29116 1.92038 4.10889 4.61615 2.94721 7.94885C2.56252 9.02853 2.38876 10.1682 2.41935 11.3013C2.4752 13.6553 3.43742 15.9195 5.05585 17.6391C6.58449 19.3186 8.79407 20.4925 11.2117 20.6492C12.5936 20.7378 13.9756 20.811 15.3575 20.847C19.3088 20.9533 23.2603 20.7792 27.2117 20.5355C27.2118 20.5355 27.2119 20.5355 27.212 20.5355C30.8918 20.2975 34.0721 17.7885 35.2608 14.5666C35.6518 13.5218 35.8308 12.4088 35.8003 11.3013C35.7466 8.9996 34.7554 6.79583 33.1388 5.19846Z" fill="#EDE3B8"/>
<text id="MPI_2" fill="white" xml:space="preserve" style="white-space: pre" font-family="Arial" font-size="12" font-weight="bold" letter-spacing="0em"><tspan x="8.54175" y="15.4614">MPI</tspan></text>
</g>
</g>
<defs>
<linearGradient id="paint0_linear_938_24015" x1="19.2117" y1="1.30127" x2="19.2117" y2="21.3013" gradientUnits="userSpaceOnUse">
<stop stop-color="#D86B1E"/>
<stop offset="1" stop-color="#EDE3B8"/>
</linearGradient>
</defs>
</svg>
