<svg width="30" height="71" viewBox="0 0 30 71" fill="none" xmlns="http://www.w3.org/2000/svg">
<g id="R-ICO-013393">
<path id="BG" d="M17.5352 70.0988H11.5459C8.12944 70.0988 4.05664 68.5744 4.05664 61.3097V8.34973H9.05664V61.3097C9.05664 65.0988 12.1554 65.0988 13.546 65.0988H15.535C17.14 65.0988 20.0244 65.0988 20.0244 61.3097V8.34973H25.0244V61.3097C25.0245 63.4836 25.0245 70.0988 17.5352 70.0988Z" fill="#396B22"/>
<path id="LINE" d="M6.20547 8.30322V60.9905C6.20547 60.9905 5.42297 67.1203 11.2001 67.1203C12.9172 67.1203 15.655 67.1203 17.5357 67.1203C21.2095 67.1203 21.8889 64.6518 21.8889 60.9905C21.8889 57.3291 21.8889 8.30322 21.8889 8.30322" stroke="#6AD936" stroke-miterlimit="1" stroke-linecap="round"/>
<path id="LEFT" d="M6.5569 16.6064C2.9352 16.6064 0 13.6705 0 10.0495V6.5569C0 2.9359 2.9352 0 6.5569 0C10.1786 0 13.1138 2.9359 13.1138 6.5569V10.0495C13.1138 13.6705 10.1786 16.6064 6.5569 16.6064Z" fill="url(#paint0_radial_938_24376)"/>
<path id="RIGHT" d="M22.5247 16.6064C26.1464 16.6064 29.0816 13.6705 29.0816 10.0495V6.5569C29.0816 2.9359 26.1463 0 22.5247 0C18.903 0 15.9678 2.9359 15.9678 6.5569V10.0495C15.9678 13.6705 18.903 16.6064 22.5247 16.6064Z" fill="url(#paint1_radial_938_24376)"/>
</g>
<defs>
<radialGradient id="paint0_radial_938_24376" cx="0" cy="0" r="1" gradientUnits="userSpaceOnUse" gradientTransform="translate(5.2318 5.8926) scale(10.6036)">
<stop stop-color="#6AD936"/>
<stop offset="0.0143" stop-color="#68D635"/>
<stop offset="0.1889" stop-color="#57AF2E"/>
<stop offset="0.3624" stop-color="#4A9229"/>
<stop offset="0.5325" stop-color="#417C25"/>
<stop offset="0.6976" stop-color="#3B6F23"/>
<stop offset="0.8521" stop-color="#396B22"/>
</radialGradient>
<radialGradient id="paint1_radial_938_24376" cx="0" cy="0" r="1" gradientUnits="userSpaceOnUse" gradientTransform="translate(23.8497 5.8926) rotate(180) scale(10.6036)">
<stop offset="0.0005" stop-color="#6AD936"/>
<stop offset="0.0136" stop-color="#69D635"/>
<stop offset="0.1887" stop-color="#58B02E"/>
<stop offset="0.3627" stop-color="#4A9229"/>
<stop offset="0.5332" stop-color="#417C25"/>
<stop offset="0.6984" stop-color="#3B6F23"/>
<stop offset="0.8526" stop-color="#396B22"/>
</radialGradient>
</defs>
</svg>
