<svg width="147" height="23" viewBox="0 0 147 23" fill="none" xmlns="http://www.w3.org/2000/svg">
<g id="R-ICO-013356">
<g id="SIALYLTRANSFERASE">
<path d="M0.658203 11.5C0.658203 5.97715 5.13536 1.5 10.6582 1.5H135.658C141.181 1.5 145.658 5.97715 145.658 11.5C145.658 17.0228 141.181 21.5 135.658 21.5H10.6582C5.13535 21.5 0.658203 17.0228 0.658203 11.5Z" fill="url(#paint0_linear_938_23600)"/>
<path d="M88.8662 2.99266C62.7968 2.87443 36.7276 2.52283 10.6582 1.64001C10.6582 1.54664 10.6582 1.45328 10.6582 1.35991C36.7276 0.477089 62.7968 0.125486 88.8662 0.00726104C101.901 -0.0305147 114.936 0.0866973 127.971 0.183516C130.534 0.199578 133.096 0.220217 135.658 0.245056C141.662 0.154151 146.945 5.61515 146.712 11.5C146.765 17.3978 141.388 22.522 135.659 22.2659C135.659 22.2659 135.659 22.2658 135.658 22.2658C122.624 22.0221 109.588 21.8466 96.5542 21.953C83.5195 22.056 70.4837 22.4645 57.4491 22.6648C44.4148 22.8277 31.3806 22.7388 18.3462 22.5842C15.7835 22.5536 13.2209 22.518 10.6582 22.4766C4.7989 22.5295 -0.276749 17.1661 0.0117731 11.5C0.0195603 5.81141 5.26655 1.00709 10.6582 1.35991C10.6582 1.45328 10.6582 1.54664 10.6582 1.64001C5.39683 1.73375 1.03771 6.5351 1.30451 11.5C1.33396 16.4872 5.86426 20.7297 10.6582 20.5235C13.2209 20.4822 15.7835 20.4465 18.3462 20.4159C31.3804 20.2613 44.4146 20.1724 57.4491 20.3353C70.4838 20.5356 83.5195 20.9428 96.5542 21.0457C109.588 21.1521 122.624 20.978 135.658 20.7342C135.659 20.7342 135.659 20.7342 135.659 20.7342C140.583 20.7358 144.81 16.2546 144.605 11.5C144.631 6.73159 140.308 2.58676 135.658 2.75487C133.096 2.7797 130.534 2.80034 127.971 2.8164C114.937 2.91322 101.901 3.03071 88.8662 2.99266Z" fill="#177596"/>
<text id="SIALYLTRANSFERASE_2" fill="white" xml:space="preserve" style="white-space: pre" font-family="Arial" font-size="12" font-weight="bold" letter-spacing="0em"><tspan x="7.78516" y="15.6602">SIALYLTRANSFERASE</tspan></text>
</g>
</g>
<defs>
<linearGradient id="paint0_linear_938_23600" x1="73.1582" y1="1.5" x2="73.1582" y2="21.5" gradientUnits="userSpaceOnUse">
<stop stop-color="#177596"/>
<stop offset="1" stop-color="#004D00"/>
</linearGradient>
</defs>
</svg>
