<svg width="31" height="43" viewBox="0 0 31 43" fill="none" xmlns="http://www.w3.org/2000/svg">
<g id="R-ICO-013113">
<g id="Group">
<path id="Vector" d="M15.2243 6.0452C15.2243 9.3839 12.5178 16.1987 9.17909 16.1987C5.84039 16.1987 3.13379 9.3839 3.13379 6.0452C3.13379 2.7065 5.84039 0 9.17909 0C12.5178 0 15.2243 2.7065 15.2243 6.0452Z" fill="url(#paint0_radial_938_23046)"/>
<path id="Vector_2" d="M3.13379 36.1094C3.13379 32.7707 5.84029 15.6852 9.17899 15.6852C12.5177 15.6852 15.2242 32.7707 15.2242 36.1094C15.2242 39.4481 12.5177 42.1546 9.17899 42.1546C5.84029 42.1546 3.13379 39.4481 3.13379 36.1094Z" fill="url(#paint1_radial_938_23046)"/>
<path id="Vector_3" d="M4.8663 9.7326C7.55388 9.7326 9.7326 7.55388 9.7326 4.8663C9.7326 2.17872 7.55388 0 4.8663 0C2.17872 0 0 2.17872 0 4.8663C0 7.55388 2.17872 9.7326 4.8663 9.7326Z" fill="url(#paint2_radial_938_23046)"/>
</g>
<g id="Group_2">
<path id="Vector_4" d="M30.6304 6.0452C30.6304 9.3839 27.9239 16.1987 24.5852 16.1987C21.2465 16.1987 18.54 9.3839 18.54 6.0452C18.54 2.7065 21.2465 0 24.5852 0C27.9239 0 30.6304 2.7065 30.6304 6.0452Z" fill="url(#paint3_radial_938_23046)"/>
<path id="Vector_5" d="M18.54 36.1094C18.54 32.7707 21.2465 15.6852 24.5852 15.6852C27.9239 15.6852 30.6304 32.7707 30.6304 36.1094C30.6304 39.4481 27.9239 42.1546 24.5852 42.1546C21.2465 42.1546 18.54 39.4481 18.54 36.1094Z" fill="url(#paint4_radial_938_23046)"/>
<path id="Vector_6" d="M20.2726 9.7326C22.9601 9.7326 25.1388 7.55388 25.1388 4.8663C25.1388 2.17872 22.9601 0 20.2726 0C17.585 0 15.4062 2.17872 15.4062 4.8663C15.4062 7.55388 17.585 9.7326 20.2726 9.7326Z" fill="url(#paint5_radial_938_23046)"/>
</g>
</g>
<defs>
<radialGradient id="paint0_radial_938_23046" cx="0" cy="0" r="1" gradientUnits="userSpaceOnUse" gradientTransform="translate(9.17909 8.0994) scale(7.1465)">
<stop stop-color="#CF84AF"/>
<stop offset="1" stop-color="#323E6E"/>
</radialGradient>
<radialGradient id="paint1_radial_938_23046" cx="0" cy="0" r="1" gradientUnits="userSpaceOnUse" gradientTransform="translate(9.17909 28.9201) scale(5.444 11.8505)">
<stop stop-color="#CF84AF"/>
<stop offset="1" stop-color="#323E6E"/>
</radialGradient>
<radialGradient id="paint2_radial_938_23046" cx="0" cy="0" r="1" gradientUnits="userSpaceOnUse" gradientTransform="translate(3.7095 3.32402) scale(4.9738 5.51147)">
<stop stop-color="#CF84AF"/>
<stop offset="1" stop-color="#6E3254"/>
</radialGradient>
<radialGradient id="paint3_radial_938_23046" cx="0" cy="0" r="1" gradientUnits="userSpaceOnUse" gradientTransform="translate(24.5852 8.0994) scale(7.1465)">
<stop stop-color="#CF84AF"/>
<stop offset="1" stop-color="#323E6E"/>
</radialGradient>
<radialGradient id="paint4_radial_938_23046" cx="0" cy="0" r="1" gradientUnits="userSpaceOnUse" gradientTransform="translate(24.5852 28.9201) scale(5.444 11.8505)">
<stop stop-color="#CF84AF"/>
<stop offset="1" stop-color="#323E6E"/>
</radialGradient>
<radialGradient id="paint5_radial_938_23046" cx="0" cy="0" r="1" gradientUnits="userSpaceOnUse" gradientTransform="translate(19.1158 3.32402) scale(4.9738 5.51147)">
<stop stop-color="#CF84AF"/>
<stop offset="1" stop-color="#6E3254"/>
</radialGradient>
</defs>
</svg>
