<svg width="53" height="23" viewBox="0 0 53 23" fill="none" xmlns="http://www.w3.org/2000/svg">
<g id="R-ICO-012453">
<g id="ATRIP">
<path d="M1.1084 11.4849C1.1084 5.96202 5.58555 1.48487 11.1084 1.48487H41.1084C46.6312 1.48487 51.1084 5.96202 51.1084 11.4849C51.1084 17.0077 46.6312 21.4849 41.1084 21.4849H11.1084C5.58555 21.4849 1.1084 17.0077 1.1084 11.4849Z" fill="url(#paint0_linear_938_23189)"/>
<path d="M41.7127 2.99859C41.5107 2.98176 41.3119 2.97198 41.1084 2.96896C31.1084 2.84279 21.1084 2.48733 11.1084 1.62487C11.1084 1.53151 11.1084 1.43814 11.1084 1.34478C21.1084 0.482321 31.1084 0.126857 41.1084 0.000685811C41.381 -0.00224817 41.6486 0.00418425 41.9211 0.0204804C47.7755 0.272078 52.6719 5.75032 52.4316 11.4849C52.4294 11.6191 52.4248 11.7527 52.4179 11.8858C52.2619 17.7977 46.6988 22.6801 41.1089 22.2507C41.1087 22.2507 41.1086 22.2507 41.1084 22.2507C35.9905 22.007 30.8721 21.8315 25.7542 21.9378C20.8724 22.0361 15.9902 22.4123 11.1084 22.6207C10.8438 22.6307 10.5835 22.6314 10.3181 22.6221C4.61426 22.5179 -0.290787 17.1135 0.0136024 11.4849C0.0170941 11.3535 0.0229121 11.2227 0.0310128 11.0926C0.249329 5.2969 5.83445 0.667809 11.1084 1.34478C11.1084 1.43814 11.1084 1.53151 11.1084 1.62487C5.98306 2.06133 2.10898 6.56603 2.19804 11.1681C2.19794 11.2733 2.19962 11.3789 2.20311 11.4849C2.28474 16.0027 6.05408 19.9023 10.4809 20.2982C10.6902 20.3221 10.8967 20.339 11.1084 20.3491C15.9902 20.5574 20.8724 20.9324 25.7542 21.0306C30.8721 21.1369 35.9904 20.9628 41.1084 20.7191C41.1085 20.7191 41.1087 20.7191 41.1088 20.7191C45.9178 20.5294 49.8126 16.2791 49.7866 11.794C49.788 11.6913 49.7875 11.5883 49.7853 11.4849C49.7678 7.07277 45.9889 3.2468 41.7127 2.99859Z" fill="#44A7D4"/>
<text id="ATRIP_2" fill="white" xml:space="preserve" style="white-space: pre" font-family="Arial" font-size="12" font-weight="bold" letter-spacing="0em"><tspan x="8.54199" y="15.645">ATRIP</tspan></text>
</g>
</g>
<defs>
<linearGradient id="paint0_linear_938_23189" x1="26.1084" y1="1.48487" x2="26.1084" y2="21.4849" gradientUnits="userSpaceOnUse">
<stop stop-color="#44A7D4"/>
<stop offset="1" stop-color="#53001F"/>
</linearGradient>
</defs>
</svg>
