<svg width="179" height="54" viewBox="0 0 179 54" fill="none" xmlns="http://www.w3.org/2000/svg">
<g id="R-ICO-013801">
<g id="Mask group">
<mask id="mask0_938_22835" style="mask-type:alpha" maskUnits="userSpaceOnUse" x="0" y="2" width="179" height="49">
<path id="MASK" d="M178.793 2.14282H0V50.9865H178.793V2.14282Z" fill="url(#paint0_linear_938_22835)"/>
</mask>
<g mask="url(#mask0_938_22835)">
<g id="MEMBRANE">
<path id="MEMBRANE BG" d="M178.793 6.42871H0V46.7005H178.793V6.42871Z" fill="#EDD468"/>
<path id="LINE DOWN" d="M178.793 46.7004H0" stroke="#C9A30B" stroke-width="6" stroke-miterlimit="10"/>
<g id="Dots DOWN">
<path id="Vector" d="M4.2859 50.9864C6.65294 50.9864 8.5718 49.0675 8.5718 46.7005C8.5718 44.3334 6.65294 42.4146 4.2859 42.4146C1.91886 42.4146 0 44.3334 0 46.7005C0 49.0675 1.91886 50.9864 4.2859 50.9864Z" fill="#EBBD00"/>
<path id="Vector_2" d="M15.6336 50.9864C18.0006 50.9864 19.9195 49.0675 19.9195 46.7005C19.9195 44.3334 18.0006 42.4146 15.6336 42.4146C13.2665 42.4146 11.3477 44.3334 11.3477 46.7005C11.3477 49.0675 13.2665 50.9864 15.6336 50.9864Z" fill="#EBBD00"/>
<path id="Vector_3" d="M26.9822 50.9864C29.3492 50.9864 31.2681 49.0675 31.2681 46.7005C31.2681 44.3334 29.3492 42.4146 26.9822 42.4146C24.6152 42.4146 22.6963 44.3334 22.6963 46.7005C22.6963 49.0675 24.6152 50.9864 26.9822 50.9864Z" fill="#EBBD00"/>
<path id="Vector_4" d="M38.3298 50.9864C40.6969 50.9864 42.6157 49.0675 42.6157 46.7005C42.6157 44.3334 40.6969 42.4146 38.3298 42.4146C35.9628 42.4146 34.0439 44.3334 34.0439 46.7005C34.0439 49.0675 35.9628 50.9864 38.3298 50.9864Z" fill="#EBBD00"/>
<path id="Vector_5" d="M49.6785 50.9864C52.0455 50.9864 53.9644 49.0675 53.9644 46.7005C53.9644 44.3334 52.0455 42.4146 49.6785 42.4146C47.3114 42.4146 45.3926 44.3334 45.3926 46.7005C45.3926 49.0675 47.3114 50.9864 49.6785 50.9864Z" fill="#EBBD00"/>
<path id="Vector_6" d="M61.0261 50.9864C63.3932 50.9864 65.312 49.0675 65.312 46.7005C65.312 44.3334 63.3932 42.4146 61.0261 42.4146C58.6591 42.4146 56.7402 44.3334 56.7402 46.7005C56.7402 49.0675 58.6591 50.9864 61.0261 50.9864Z" fill="#EBBD00"/>
<path id="Vector_7" d="M72.3748 50.9864C74.7418 50.9864 76.6607 49.0675 76.6607 46.7005C76.6607 44.3334 74.7418 42.4146 72.3748 42.4146C70.0077 42.4146 68.0889 44.3334 68.0889 46.7005C68.0889 49.0675 70.0077 50.9864 72.3748 50.9864Z" fill="#EBBD00"/>
<path id="Vector_8" d="M83.7224 50.9864C86.0895 50.9864 88.0083 49.0675 88.0083 46.7005C88.0083 44.3334 86.0895 42.4146 83.7224 42.4146C81.3554 42.4146 79.4365 44.3334 79.4365 46.7005C79.4365 49.0675 81.3554 50.9864 83.7224 50.9864Z" fill="#EBBD00"/>
<path id="Vector_9" d="M95.0711 50.9864C97.4381 50.9864 99.357 49.0675 99.357 46.7005C99.357 44.3334 97.4381 42.4146 95.0711 42.4146C92.704 42.4146 90.7852 44.3334 90.7852 46.7005C90.7852 49.0675 92.704 50.9864 95.0711 50.9864Z" fill="#EBBD00"/>
<path id="Vector_10" d="M106.419 50.9864C108.786 50.9864 110.705 49.0675 110.705 46.7005C110.705 44.3334 108.786 42.4146 106.419 42.4146C104.052 42.4146 102.133 44.3334 102.133 46.7005C102.133 49.0675 104.052 50.9864 106.419 50.9864Z" fill="#EBBD00"/>
<path id="Vector_11" d="M117.767 50.9864C120.134 50.9864 122.053 49.0675 122.053 46.7005C122.053 44.3334 120.134 42.4146 117.767 42.4146C115.4 42.4146 113.481 44.3334 113.481 46.7005C113.481 49.0675 115.4 50.9864 117.767 50.9864Z" fill="#EBBD00"/>
<path id="Vector_12" d="M129.115 50.9864C131.482 50.9864 133.401 49.0675 133.401 46.7005C133.401 44.3334 131.482 42.4146 129.115 42.4146C126.748 42.4146 124.829 44.3334 124.829 46.7005C124.829 49.0675 126.748 50.9864 129.115 50.9864Z" fill="#EBBD00"/>
<path id="Vector_13" d="M140.464 50.9864C142.831 50.9864 144.75 49.0675 144.75 46.7005C144.75 44.3334 142.831 42.4146 140.464 42.4146C138.097 42.4146 136.178 44.3334 136.178 46.7005C136.178 49.0675 138.097 50.9864 140.464 50.9864Z" fill="#EBBD00"/>
<path id="Vector_14" d="M151.811 50.9864C154.178 50.9864 156.097 49.0675 156.097 46.7005C156.097 44.3334 154.178 42.4146 151.811 42.4146C149.444 42.4146 147.525 44.3334 147.525 46.7005C147.525 49.0675 149.444 50.9864 151.811 50.9864Z" fill="#EBBD00"/>
<path id="Vector_15" d="M163.159 50.9864C165.526 50.9864 167.445 49.0675 167.445 46.7005C167.445 44.3334 165.526 42.4146 163.159 42.4146C160.792 42.4146 158.873 44.3334 158.873 46.7005C158.873 49.0675 160.792 50.9864 163.159 50.9864Z" fill="#EBBD00"/>
<path id="Vector_16" d="M174.508 50.9864C176.875 50.9864 178.793 49.0675 178.793 46.7005C178.793 44.3334 176.875 42.4146 174.508 42.4146C172.141 42.4146 170.222 44.3334 170.222 46.7005C170.222 49.0675 172.141 50.9864 174.508 50.9864Z" fill="#EBBD00"/>
</g>
<path id="LINE UP" d="M0 6.42871H178.793" stroke="#C9A30B" stroke-width="6" stroke-miterlimit="10"/>
<g id="Dots UP">
<path id="Vector_17" d="M4.2859 10.7146C6.65294 10.7146 8.5718 8.79576 8.5718 6.42872C8.5718 4.06169 6.65294 2.14282 4.2859 2.14282C1.91886 2.14282 0 4.06169 0 6.42872C0 8.79576 1.91886 10.7146 4.2859 10.7146Z" fill="#EBBD00"/>
<path id="Vector_18" d="M15.6336 10.7146C18.0006 10.7146 19.9195 8.79576 19.9195 6.42872C19.9195 4.06169 18.0006 2.14282 15.6336 2.14282C13.2665 2.14282 11.3477 4.06169 11.3477 6.42872C11.3477 8.79576 13.2665 10.7146 15.6336 10.7146Z" fill="#EBBD00"/>
<path id="Vector_19" d="M26.9822 10.7146C29.3492 10.7146 31.2681 8.79576 31.2681 6.42872C31.2681 4.06169 29.3492 2.14282 26.9822 2.14282C24.6152 2.14282 22.6963 4.06169 22.6963 6.42872C22.6963 8.79576 24.6152 10.7146 26.9822 10.7146Z" fill="#EBBD00"/>
<path id="Vector_20" d="M38.3298 10.7146C40.6969 10.7146 42.6157 8.79576 42.6157 6.42872C42.6157 4.06169 40.6969 2.14282 38.3298 2.14282C35.9628 2.14282 34.0439 4.06169 34.0439 6.42872C34.0439 8.79576 35.9628 10.7146 38.3298 10.7146Z" fill="#EBBD00"/>
<path id="Vector_21" d="M49.6785 10.7146C52.0455 10.7146 53.9644 8.79576 53.9644 6.42872C53.9644 4.06169 52.0455 2.14282 49.6785 2.14282C47.3114 2.14282 45.3926 4.06169 45.3926 6.42872C45.3926 8.79576 47.3114 10.7146 49.6785 10.7146Z" fill="#EBBD00"/>
<path id="Vector_22" d="M61.0261 10.7146C63.3932 10.7146 65.312 8.79576 65.312 6.42872C65.312 4.06169 63.3932 2.14282 61.0261 2.14282C58.6591 2.14282 56.7402 4.06169 56.7402 6.42872C56.7402 8.79576 58.6591 10.7146 61.0261 10.7146Z" fill="#EBBD00"/>
<path id="Vector_23" d="M72.3748 10.7146C74.7418 10.7146 76.6607 8.79576 76.6607 6.42872C76.6607 4.06169 74.7418 2.14282 72.3748 2.14282C70.0077 2.14282 68.0889 4.06169 68.0889 6.42872C68.0889 8.79576 70.0077 10.7146 72.3748 10.7146Z" fill="#EBBD00"/>
<path id="Vector_24" d="M83.7224 10.7146C86.0895 10.7146 88.0083 8.79576 88.0083 6.42872C88.0083 4.06169 86.0895 2.14282 83.7224 2.14282C81.3554 2.14282 79.4365 4.06169 79.4365 6.42872C79.4365 8.79576 81.3554 10.7146 83.7224 10.7146Z" fill="#EBBD00"/>
<path id="Vector_25" d="M95.0711 10.7146C97.4381 10.7146 99.357 8.79576 99.357 6.42872C99.357 4.06169 97.4381 2.14282 95.0711 2.14282C92.704 2.14282 90.7852 4.06169 90.7852 6.42872C90.7852 8.79576 92.704 10.7146 95.0711 10.7146Z" fill="#EBBD00"/>
<path id="Vector_26" d="M106.419 10.7146C108.786 10.7146 110.705 8.79576 110.705 6.42872C110.705 4.06169 108.786 2.14282 106.419 2.14282C104.052 2.14282 102.133 4.06169 102.133 6.42872C102.133 8.79576 104.052 10.7146 106.419 10.7146Z" fill="#EBBD00"/>
<path id="Vector_27" d="M117.767 10.7146C120.134 10.7146 122.053 8.79576 122.053 6.42872C122.053 4.06169 120.134 2.14282 117.767 2.14282C115.4 2.14282 113.481 4.06169 113.481 6.42872C113.481 8.79576 115.4 10.7146 117.767 10.7146Z" fill="#EBBD00"/>
<path id="Vector_28" d="M129.115 10.7146C131.482 10.7146 133.401 8.79576 133.401 6.42872C133.401 4.06169 131.482 2.14282 129.115 2.14282C126.748 2.14282 124.829 4.06169 124.829 6.42872C124.829 8.79576 126.748 10.7146 129.115 10.7146Z" fill="#EBBD00"/>
<path id="Vector_29" d="M140.464 10.7146C142.831 10.7146 144.75 8.79576 144.75 6.42872C144.75 4.06169 142.831 2.14282 140.464 2.14282C138.097 2.14282 136.178 4.06169 136.178 6.42872C136.178 8.79576 138.097 10.7146 140.464 10.7146Z" fill="#EBBD00"/>
<path id="Vector_30" d="M151.811 10.7146C154.178 10.7146 156.097 8.79576 156.097 6.42872C156.097 4.06169 154.178 2.14282 151.811 2.14282C149.444 2.14282 147.525 4.06169 147.525 6.42872C147.525 8.79576 149.444 10.7146 151.811 10.7146Z" fill="#EBBD00"/>
<path id="Vector_31" d="M163.159 10.7146C165.526 10.7146 167.445 8.79576 167.445 6.42872C167.445 4.06169 165.526 2.14282 163.159 2.14282C160.792 2.14282 158.873 4.06169 158.873 6.42872C158.873 8.79576 160.792 10.7146 163.159 10.7146Z" fill="#EBBD00"/>
<path id="Vector_32" d="M174.508 10.7146C176.875 10.7146 178.793 8.79576 178.793 6.42872C178.793 4.06169 176.875 2.14282 174.508 2.14282C172.141 2.14282 170.222 4.06169 170.222 6.42872C170.222 8.79576 172.141 10.7146 174.508 10.7146Z" fill="#EBBD00"/>
</g>
</g>
</g>
</g>
<g id="ETC">
<path id="I_1_" d="M46.1415 53.1296H30.5195C28.8117 53.1296 27.493 51.6502 27.681 49.9527C28.0433 46.6814 28.411 40.0416 28.411 26.5648C28.411 13.088 28.0433 6.4482 27.681 3.1769C27.4931 1.4794 28.8117 0 30.5196 0H46.1416C47.8494 0 49.1681 1.4794 48.9801 3.1769C48.6178 6.4482 48.2501 13.088 48.2501 26.5648C48.2501 40.0416 48.6178 46.6814 48.9801 49.9527C49.168 51.6502 47.8494 53.1296 46.1415 53.1296Z" fill="url(#paint1_linear_938_22835)"/>
<path id="II_2_" d="M80.1854 53.1296H64.5634C62.8556 53.1296 61.5369 51.6502 61.7249 49.9527C62.0872 46.6814 62.4549 40.0416 62.4549 26.5648C62.4549 13.088 62.0872 6.4482 61.7249 3.1769C61.537 1.4794 62.8556 0 64.5635 0H80.1855C81.8933 0 83.212 1.4794 83.024 3.1769C82.6617 6.4482 82.294 13.088 82.294 26.5648C82.294 40.0416 82.6617 46.6814 83.024 49.9527C83.2119 51.6502 81.8933 53.1296 80.1854 53.1296Z" fill="url(#paint2_linear_938_22835)"/>
<path id="III_2_" d="M114.23 53.1296H98.6083C96.9005 53.1296 95.5818 51.6502 95.7698 49.9527C96.1321 46.6814 96.4998 40.0416 96.4998 26.5648C96.4998 13.088 96.1321 6.4482 95.7698 3.1769C95.5819 1.4794 96.9005 0 98.6084 0H114.23C115.938 0 117.257 1.4794 117.069 3.1769C116.707 6.4482 116.339 13.088 116.339 26.5648C116.339 40.0416 116.707 46.6814 117.069 49.9527C117.257 51.6502 115.938 53.1296 114.23 53.1296Z" fill="url(#paint3_linear_938_22835)"/>
<path id="IV_1_" d="M148.274 53.1296H132.652C130.944 53.1296 129.626 51.6502 129.814 49.9527C130.176 46.6814 130.544 40.0416 130.544 26.5648C130.544 13.088 130.176 6.4482 129.814 3.1769C129.626 1.4794 130.944 0 132.652 0H148.274C149.982 0 151.301 1.4794 151.113 3.1769C150.751 6.4482 150.383 13.088 150.383 26.5648C150.383 40.0416 150.751 46.6814 151.113 49.9527C151.301 51.6502 149.982 53.1296 148.274 53.1296Z" fill="url(#paint4_linear_938_22835)"/>
</g>
</g>
<defs>
<linearGradient id="paint0_linear_938_22835" x1="0" y1="26.5646" x2="178.793" y2="26.5646" gradientUnits="userSpaceOnUse">
<stop stop-opacity="0"/>
<stop offset="0.15" stop-color="white"/>
<stop offset="0.85" stop-color="white"/>
<stop offset="1" stop-opacity="0"/>
</linearGradient>
<linearGradient id="paint1_linear_938_22835" x1="38.3305" y1="0" x2="38.3305" y2="53.1296" gradientUnits="userSpaceOnUse">
<stop stop-color="#0CC69A"/>
<stop offset="1" stop-color="#06624C"/>
</linearGradient>
<linearGradient id="paint2_linear_938_22835" x1="72.3744" y1="0" x2="72.3744" y2="53.1296" gradientUnits="userSpaceOnUse">
<stop stop-color="#2788A9"/>
<stop offset="1" stop-color="#134354"/>
</linearGradient>
<linearGradient id="paint3_linear_938_22835" x1="106.419" y1="0" x2="106.419" y2="53.1296" gradientUnits="userSpaceOnUse">
<stop stop-color="#2788A9"/>
<stop offset="0.0005" stop-color="#424AB7"/>
<stop offset="1" stop-color="#20245A"/>
</linearGradient>
<linearGradient id="paint4_linear_938_22835" x1="140.463" y1="0" x2="140.463" y2="53.1296" gradientUnits="userSpaceOnUse">
<stop stop-color="#5D0CC6"/>
<stop offset="1" stop-color="#2E0662"/>
</linearGradient>
</defs>
</svg>
