<svg width="52" height="136" viewBox="0 0 52 136" fill="none" xmlns="http://www.w3.org/2000/svg">
<g id="R-ICO-012717">
<path id="Vector" d="M23.8708 135.2C22.8061 135.2 21.9433 134.337 21.9433 133.272V117.026C21.2453 117.139 20.5737 117.198 19.9341 117.198C16.3715 117.198 14.0693 114.896 14.0693 111.333C14.0693 108.1 16.7001 105.469 19.9341 105.469C23.1676 105.469 25.7984 108.1 25.7984 111.333V111.86C34.4449 108.093 45.0351 98.1297 45.0351 93.5078V57.9261C45.0351 47.7643 41.9789 44.5628 38.4404 40.8557C34.044 36.2499 29.0606 31.0293 29.0606 13.4179C29.0606 12.3532 29.9234 11.4904 30.9881 11.4904C32.0528 11.4904 32.9156 12.3533 32.9156 13.4179C32.9156 29.4847 37.1419 33.9124 41.2288 38.194C44.9955 42.1399 48.8901 46.2197 48.8901 57.9261V93.5078C48.8901 100.485 36.0475 112.182 25.7983 115.973V133.272C25.7984 134.337 24.9355 135.2 23.8708 135.2ZM19.9341 109.324C18.8261 109.324 17.9244 110.225 17.9244 111.333C17.9244 113.104 18.9402 113.343 19.9341 113.343C20.565 113.343 21.2377 113.268 21.9433 113.126V111.333C21.9433 110.225 21.0421 109.324 19.9341 109.324Z" fill="url(#paint0_linear_938_23003)"/>
<path id="Vector_2" d="M1.92751 135.2C0.86282 135.2 0 134.337 0 133.272C0 118.872 3.26064 111.956 13.9551 103.674L16.4112 101.778C24.3281 95.6778 26.6106 93.8015 26.6106 91.1582C26.6106 90.167 26.2936 89.806 25.5282 88.9336C24.2689 87.4989 22.5443 85.5337 22.5514 80.3971V57.9261C22.5514 46.2196 26.446 42.1398 30.2123 38.194C34.2993 33.9124 38.5256 29.4847 38.5256 13.4179C38.5256 12.3532 39.3885 11.4904 40.4531 11.4904C41.5178 11.4904 42.3806 12.3533 42.3806 13.4179C42.3806 31.0293 37.3976 36.2499 33.0011 40.8557C29.4623 44.5628 26.4064 47.7643 26.4064 57.9261V80.3998C26.4012 84.0843 27.3846 85.2047 28.4255 86.3906C29.3343 87.4263 30.4656 88.7149 30.4656 91.1582C30.4656 95.8156 27.0401 98.455 18.7641 104.832L16.3155 106.722C7.52825 113.527 3.85495 118.72 3.85495 133.272C3.85509 134.337 2.9922 135.2 1.92751 135.2Z" fill="url(#paint1_linear_938_23003)"/>
<g id="Group">
<path id="Vector_3" d="M47.7035 26.8362C40.8539 26.8362 36.5986 21.6946 36.5986 13.4179C36.5986 5.14151 40.8539 0 47.7035 0C49.8324 0 51.5585 1.72614 51.5585 3.85509C51.5585 5.98404 49.8324 7.71018 47.7035 7.71018C46.6877 7.71018 44.3088 7.71018 44.3088 13.4179C44.3088 19.126 46.6878 19.126 47.7035 19.126C49.8324 19.126 51.5585 20.8521 51.5585 22.9811C51.5585 25.11 49.8324 26.8362 47.7035 26.8362Z" fill="url(#paint2_radial_938_23003)"/>
<path id="Vector_4" d="M23.7389 0C30.5885 0 34.8437 5.14151 34.8437 13.4183C34.8437 21.6947 30.5884 26.8362 23.7389 26.8362C21.6099 26.8362 19.8838 25.11 19.8838 22.9811C19.8838 20.8521 21.6099 19.126 23.7389 19.126C24.7546 19.126 27.1335 19.126 27.1335 13.4183C27.1335 7.71018 24.7546 7.71018 23.7389 7.71018C21.6099 7.71018 19.8838 5.98404 19.8838 3.85509C19.8838 1.72614 21.6099 0 23.7389 0Z" fill="url(#paint3_radial_938_23003)"/>
<path id="Vector_5" d="M44.4533 80.5859C50.8827 82.9481 53.1038 89.2417 50.2495 97.0107C47.3952 104.779 41.6279 108.138 35.1985 105.776C33.2002 105.042 32.1752 102.826 32.9094 100.828C33.6436 98.8294 35.8591 97.8044 37.8574 98.5386C38.8108 98.8888 41.0439 99.7093 43.0122 94.3517C44.9807 88.9938 42.7477 88.1733 41.7943 87.8231C39.7959 87.0889 38.771 84.8733 39.5051 82.875C40.2394 80.8767 42.4549 79.8517 44.4533 80.5859Z" fill="url(#paint4_radial_938_23003)"/>
<path id="Vector_6" d="M8.56231 118.456C4.69765 112.801 6.54175 106.387 13.3753 101.717C20.2085 97.0473 26.8543 97.6597 30.719 103.315C31.9202 105.073 31.469 107.472 29.7112 108.673C27.9535 109.874 25.5544 109.423 24.3532 107.665C23.7802 106.826 22.4379 104.862 17.7255 108.083C13.0127 111.303 14.3549 113.267 14.928 114.106C16.1292 115.864 15.678 118.263 13.9202 119.464C12.1625 120.665 9.76345 120.214 8.56231 118.456Z" fill="url(#paint5_radial_938_23003)"/>
</g>
</g>
<defs>
<linearGradient id="paint0_linear_938_23003" x1="48.8902" y1="73.3451" x2="14.0693" y2="73.3451" gradientUnits="userSpaceOnUse">
<stop stop-color="#48B6FF"/>
<stop offset="1" stop-color="#270F85"/>
</linearGradient>
<linearGradient id="paint1_linear_938_23003" x1="42.3807" y1="73.3451" x2="0" y2="73.3451" gradientUnits="userSpaceOnUse">
<stop stop-color="#48B6FF"/>
<stop offset="1" stop-color="#270F85"/>
</linearGradient>
<radialGradient id="paint2_radial_938_23003" cx="0" cy="0" r="1" gradientUnits="userSpaceOnUse" gradientTransform="translate(49.8703 13.4181) scale(14.984)">
<stop stop-color="#48B6FF"/>
<stop offset="1" stop-color="#BB3B9B"/>
</radialGradient>
<radialGradient id="paint3_radial_938_23003" cx="0" cy="0" r="1" gradientUnits="userSpaceOnUse" gradientTransform="translate(21.572 13.4181) rotate(180) scale(14.984 14.984)">
<stop stop-color="#48B6FF"/>
<stop offset="1" stop-color="#BB3B9B"/>
</radialGradient>
<radialGradient id="paint4_radial_938_23003" cx="0" cy="0" r="1" gradientUnits="userSpaceOnUse" gradientTransform="translate(37.7894 92.4114) rotate(-159.825) scale(14.9849 14.9849)">
<stop stop-color="#48B6FF"/>
<stop offset="1" stop-color="#BB3B9B"/>
</radialGradient>
<radialGradient id="paint5_radial_938_23003" cx="0" cy="0" r="1" gradientUnits="userSpaceOnUse" gradientTransform="translate(20.8625 112.692) rotate(55.652) scale(14.9836)">
<stop stop-color="#48B6FF"/>
<stop offset="1" stop-color="#BB3B9B"/>
</radialGradient>
</defs>
</svg>
