<svg width="44" height="41" viewBox="0 0 44 41" fill="none" xmlns="http://www.w3.org/2000/svg">
<g id="R-ICO-013425">
<g id="R-ICO-013428">
<path id="TCR" d="M11.9315 20.471V36.09H9.90723V4.848H11.9315C11.9315 2.003 14.1795 0 16.9427 0C19.7049 0 21.9529 2.003 21.9529 4.885V4.849H23.9772V36.09H21.9529V20.467L11.9315 20.471Z" fill="url(#paint0_linear_938_23087)"/>
</g>
<g id="R-ICO-012528">
<path id="CD3 Gamma chain" d="M2.4757 40.4129C1.1084 40.4129 0 39.5574 0 38.1157V19.9745C0 18.5368 1.1084 17.6772 2.4757 17.6772C3.843 17.6772 4.951 18.5368 4.9514 19.9745V38.1157C4.9514 39.5574 3.843 40.4129 2.4757 40.4129Z" fill="url(#paint1_linear_938_23087)"/>
<path id="CD3 Epsilon chain" d="M7.42785 40.4129C6.06055 40.4129 4.95215 39.5574 4.95215 38.1156V19.9745C4.95225 18.5368 6.06065 17.6772 7.42785 17.6772C8.79505 17.6772 9.90355 18.5368 9.90355 19.9745V38.1157C9.90355 39.5574 8.79515 40.4129 7.42785 40.4129Z" fill="url(#paint2_linear_938_23087)"/>
<path id="CD3 Epsilon chain_2" d="M26.4523 40.4129C25.085 40.4129 23.9766 39.5574 23.9766 38.1156V19.9745C23.9763 18.5368 25.0851 17.6772 26.4523 17.6772C27.8196 17.6772 28.928 18.5368 28.928 19.9745V38.1157C28.928 39.5574 27.8196 40.4129 26.4523 40.4129Z" fill="url(#paint3_linear_938_23087)"/>
<path id="CD3 Delta chain" d="M31.4034 40.4129C30.0361 40.4129 28.9277 39.5574 28.9277 38.1156V19.9745C28.9274 18.5368 30.0361 17.6772 31.4034 17.6772C32.7707 17.6772 33.8791 18.5368 33.8791 19.9745V38.1157C33.8791 39.5574 32.7711 40.4129 31.4034 40.4129Z" fill="url(#paint4_linear_938_23087)"/>
<path id="CD3 Zeta chain" d="M36.3556 40.4129C34.9883 40.4129 33.8799 39.5574 33.8799 38.1156V19.9745C33.8795 18.5368 34.9883 17.6772 36.3556 17.6772C37.7229 17.6772 38.8313 18.5368 38.8313 19.9745V38.1157C38.8312 39.5574 37.7228 40.4129 36.3556 40.4129Z" fill="url(#paint5_linear_938_23087)"/>
<path id="CD3 Zeta chain_2" d="M41.3068 40.4129C39.9395 40.4129 38.8311 39.5574 38.8311 38.1156V19.9745C38.8308 18.5368 39.9396 17.6772 41.3068 17.6772C42.6741 17.6772 43.7825 18.5368 43.7825 19.9745V38.1157C43.7825 39.5574 42.6741 40.4129 41.3068 40.4129Z" fill="url(#paint6_linear_938_23087)"/>
</g>
</g>
<defs>
<linearGradient id="paint0_linear_938_23087" x1="16.9422" y1="0.1725" x2="16.9422" y2="36.2625" gradientUnits="userSpaceOnUse">
<stop offset="0.0015" stop-color="#7000BF"/>
<stop offset="0.2061" stop-color="#95219F"/>
<stop offset="0.4273" stop-color="#B73E84"/>
<stop offset="0.639" stop-color="#CF536F"/>
<stop offset="0.835" stop-color="#DD6063"/>
<stop offset="1" stop-color="#E2645F"/>
</linearGradient>
<linearGradient id="paint1_linear_938_23087" x1="0" y1="29.045" x2="4.9514" y2="29.045" gradientUnits="userSpaceOnUse">
<stop stop-color="#09BF6D"/>
<stop offset="1" stop-color="#09586D"/>
</linearGradient>
<linearGradient id="paint2_linear_938_23087" x1="4.95225" y1="29.045" x2="9.90355" y2="29.045" gradientUnits="userSpaceOnUse">
<stop stop-color="#09BF6D"/>
<stop offset="1" stop-color="#09586D"/>
</linearGradient>
<linearGradient id="paint3_linear_938_23087" x1="23.9766" y1="29.045" x2="28.928" y2="29.045" gradientUnits="userSpaceOnUse">
<stop stop-color="#FF91FF"/>
<stop offset="1" stop-color="#0A6BDA"/>
</linearGradient>
<linearGradient id="paint4_linear_938_23087" x1="28.9277" y1="29.045" x2="33.8791" y2="29.045" gradientUnits="userSpaceOnUse">
<stop stop-color="#FF91FF"/>
<stop offset="1" stop-color="#0A6BDA"/>
</linearGradient>
<linearGradient id="paint5_linear_938_23087" x1="33.8799" y1="29.045" x2="38.8312" y2="29.045" gradientUnits="userSpaceOnUse">
<stop stop-color="#FF91FF"/>
<stop offset="1" stop-color="#0A6BDA"/>
</linearGradient>
<linearGradient id="paint6_linear_938_23087" x1="38.8312" y1="29.045" x2="43.7825" y2="29.045" gradientUnits="userSpaceOnUse">
<stop stop-color="#FF91FF"/>
<stop offset="1" stop-color="#0A6BDA"/>
</linearGradient>
</defs>
</svg>
