<svg width="36" height="136" viewBox="0 0 36 136" fill="none" xmlns="http://www.w3.org/2000/svg">
<g id="R-ICO-012655">
<path id="Vector" d="M29.2468 135.202C30.3513 135.202 31.2468 134.307 31.2468 133.202V129.828C31.2468 126.289 29.6736 124.509 28.4089 123.079C27.299 121.823 26.4968 120.916 26.4968 118.703C26.4968 116.422 27.3337 115.444 28.4919 114.089C29.7194 112.654 31.2468 110.868 31.2468 107.578V59.5771C31.2468 50.3354 25.8908 44.4062 21.1657 39.1752C20.1911 38.0961 19.2702 37.0771 18.4054 36.0439C13.8654 30.6176 13.8688 21.9169 13.8717 14.9262V14.4076C13.8717 13.3031 12.9762 12.4076 11.8717 12.4076C10.7672 12.4076 9.87172 13.3031 9.87172 14.4076V14.9247C9.86882 22.5634 9.86492 32.0697 15.338 38.6102C16.2511 39.702 17.2403 40.7972 18.1974 41.8563C22.6461 46.7816 27.2467 51.8744 27.2467 59.577V107.578C27.2467 109.391 26.5328 110.226 25.4518 111.489C24.1354 113.029 22.4967 114.944 22.4967 118.703C22.4967 122.43 24.1129 124.258 25.4117 125.728C26.5167 126.978 27.2467 127.803 27.2467 129.828V133.202C27.2468 134.307 28.1423 135.202 29.2468 135.202Z" fill="url(#paint0_linear_938_23002)"/>
<path id="Vector_2" d="M5.87109 135.202C4.76659 135.202 3.87109 134.307 3.87109 133.202V129.828C3.87109 126.289 5.44429 124.509 6.70899 123.079C7.81889 121.823 8.62109 120.916 8.62109 118.703C8.62109 116.422 7.78419 115.444 6.62599 114.089C5.39849 112.654 3.87109 110.868 3.87109 107.578V59.5771C3.87109 50.3354 9.22709 44.4062 13.9522 39.1752C14.9268 38.0961 15.8477 37.0771 16.7125 36.0439C21.2525 30.6176 21.2491 21.9169 21.2462 14.9262V14.4076C21.2462 13.3031 22.1417 12.4076 23.2462 12.4076C24.3507 12.4076 25.2462 13.3031 25.2462 14.4076V14.9247C25.2491 22.5634 25.253 32.0697 19.7799 38.6102C18.8668 39.702 17.8776 40.7972 16.9205 41.8563C12.4718 46.7816 7.87119 51.8744 7.87119 59.577V107.578C7.87119 109.391 8.58509 110.226 9.66609 111.489C10.9825 113.029 12.6212 114.944 12.6212 118.703C12.6212 122.43 11.005 124.258 9.70619 125.728C8.60119 126.978 7.87119 127.803 7.87119 129.828V133.202C7.87109 134.307 6.97559 135.202 5.87109 135.202Z" fill="url(#paint1_linear_938_23002)"/>
<path id="Vector_3" d="M30.4249 28.8156C23.0701 28.8156 18.501 23.2949 18.501 14.4076C18.501 5.5207 23.0701 0 30.4249 0C32.7109 0 34.5643 1.8534 34.5643 4.1394C34.5643 6.4254 32.7108 8.2788 30.4249 8.2788C29.3343 8.2788 26.7799 8.2788 26.7799 14.4075C26.7799 20.5366 29.3343 20.5366 30.4249 20.5366C32.7109 20.5366 34.5643 22.39 34.5643 24.676C34.5643 26.962 32.7109 28.8156 30.4249 28.8156Z" fill="url(#paint2_radial_938_23002)"/>
<path id="Vector_4" d="M4.69311 0C12.0479 0 16.617 5.5207 16.617 14.408C16.617 23.2948 12.0479 28.8156 4.69311 28.8156C2.40711 28.8156 0.553711 26.9622 0.553711 24.6762C0.553711 22.3902 2.40711 20.5368 4.69311 20.5368C5.78371 20.5368 8.33811 20.5368 8.33811 14.4081C8.33811 8.279 5.78371 8.279 4.69311 8.279C2.40711 8.279 0.553711 6.4256 0.553711 4.1396C0.553711 1.8536 2.40711 0 4.69311 0Z" fill="url(#paint3_radial_938_23002)"/>
<path id="Vector_5" d="M11.9239 108.821C4.5691 108.821 0 103.3 0 94.4126C0 85.5258 4.5691 80.005 11.9239 80.005C14.2099 80.005 16.0633 81.8584 16.0633 84.1444C16.0633 86.4304 14.2099 88.2838 11.9239 88.2838C10.8333 88.2838 8.2789 88.2838 8.2789 94.4125C8.2789 100.542 10.8333 100.542 11.9239 100.542C14.2099 100.542 16.0633 102.395 16.0633 104.681C16.0634 106.967 14.2099 108.821 11.9239 108.821Z" fill="url(#paint4_radial_938_23002)"/>
<path id="Vector_6" d="M23.1941 80.005C30.5489 80.005 35.118 85.5257 35.118 94.413C35.118 103.3 30.5489 108.821 23.1941 108.821C20.9081 108.821 19.0547 106.967 19.0547 104.681C19.0547 102.395 20.9081 100.542 23.1941 100.542C24.2847 100.542 26.8391 100.542 26.8391 94.4131C26.8391 88.284 24.2847 88.284 23.1941 88.284C20.9081 88.284 19.0547 86.4306 19.0547 84.1446C19.0547 81.8585 20.9082 80.005 23.1941 80.005Z" fill="url(#paint5_radial_938_23002)"/>
</g>
<defs>
<linearGradient id="paint0_linear_938_23002" x1="20.5592" y1="13.8506" x2="20.5592" y2="136.118" gradientUnits="userSpaceOnUse">
<stop stop-color="#C8B6FF"/>
<stop offset="1" stop-color="#270F85"/>
</linearGradient>
<linearGradient id="paint1_linear_938_23002" x1="14.5587" y1="13.8506" x2="14.5587" y2="136.118" gradientUnits="userSpaceOnUse">
<stop stop-color="#C8B6FF"/>
<stop offset="1" stop-color="#270F85"/>
</linearGradient>
<radialGradient id="paint2_radial_938_23002" cx="0" cy="0" r="1" gradientUnits="userSpaceOnUse" gradientTransform="translate(32.7516 14.4077) scale(16.0892)">
<stop stop-color="#2C2E99"/>
<stop offset="1" stop-color="#BB7A9B"/>
</radialGradient>
<radialGradient id="paint3_radial_938_23002" cx="0" cy="0" r="1" gradientUnits="userSpaceOnUse" gradientTransform="translate(2.36651 14.4077) rotate(180) scale(16.0892 16.0892)">
<stop stop-color="#2C2E99"/>
<stop offset="1" stop-color="#BB7A9B"/>
</radialGradient>
<radialGradient id="paint4_radial_938_23002" cx="0" cy="0" r="1" gradientUnits="userSpaceOnUse" gradientTransform="translate(14.2506 94.4127) scale(16.0892 16.0892)">
<stop stop-color="#2C2E99"/>
<stop offset="1" stop-color="#BB7A9B"/>
</radialGradient>
<radialGradient id="paint5_radial_938_23002" cx="0" cy="0" r="1" gradientUnits="userSpaceOnUse" gradientTransform="translate(20.8675 94.4128) rotate(180) scale(16.0892 16.0892)">
<stop stop-color="#2C2E99"/>
<stop offset="1" stop-color="#BB7A9B"/>
</radialGradient>
</defs>
</svg>
