<svg width="184" height="37" viewBox="0 0 184 37" fill="none" xmlns="http://www.w3.org/2000/svg">
<g id="R-ICO-013638">
<g id="CHROMATIN ORGANIZATION PROTEIN">
<path d="M0.814453 11.5C0.814453 5.97715 5.29161 1.5 10.8145 1.5H172.814C178.337 1.5 182.814 5.97715 182.814 11.5V25.5C182.814 31.0228 178.337 35.5 172.814 35.5H10.8145C5.2916 35.5 0.814453 31.0228 0.814453 25.5V11.5Z" fill="url(#paint0_linear_938_23735)"/>
<path d="M114.522 2.99266C79.9529 2.87443 45.3838 2.52283 10.8145 1.64001C10.8145 1.54664 10.8145 1.45328 10.8145 1.35991C45.3838 0.477089 79.9529 0.125486 114.522 0.00726104C131.807 -0.0305147 149.093 0.0866973 166.378 0.183516C168.523 0.193658 170.669 0.205627 172.814 0.219325C178.829 0.110002 184.166 5.56169 183.965 11.5C183.918 16.1667 183.864 20.8333 183.804 25.5C183.873 31.3613 178.545 36.4923 172.816 36.2659C172.816 36.2659 172.815 36.2658 172.814 36.2658C155.53 36.0221 138.244 35.8466 120.961 35.953C103.676 36.056 86.3898 36.4645 69.1051 36.6648C51.8211 36.8277 34.537 36.7388 17.2527 36.5842C15.1066 36.5649 12.9605 36.5435 10.8145 36.52C4.9363 36.6011 -0.225286 31.2532 0.00771022 25.5C0.0840235 20.8333 0.172517 16.1666 0.274894 11.5C0.261082 5.8726 5.42168 1.06213 10.8145 1.35991C10.8145 1.45328 10.8145 1.54664 10.8145 1.64001C5.55416 1.67872 1.1087 6.47394 1.3539 11.5C1.45626 16.1666 1.54474 20.8333 1.62105 25.5C1.595 30.4002 6.03942 34.6581 10.8145 34.4801C12.9605 34.4566 15.1066 34.4352 17.2527 34.4159C34.5367 34.2613 51.8208 34.1724 69.1051 34.3353C86.3898 34.5356 103.676 34.9428 120.961 35.0457C138.245 35.1521 155.53 34.978 172.814 34.7342C172.815 34.7342 172.815 34.7342 172.816 34.7342C177.739 34.7651 182.015 30.2909 181.825 25.5C181.765 20.8333 181.711 16.1667 181.664 11.5C181.722 6.78504 177.453 2.63089 172.814 2.7806C170.669 2.79429 168.523 2.80626 166.378 2.8164C149.093 2.91322 131.807 3.03071 114.522 2.99266Z" fill="#0052AF"/>
<text id="CHROMATIN ORGANIZATION PROTEIN_2" fill="white" xml:space="preserve" style="white-space: pre" font-family="Arial" font-size="12" font-weight="bold" letter-spacing="0em"><tspan x="7.98438" y="15.6602">CHROMATIN ORGANIZATION&#10;</tspan><tspan x="65.1309" y="29.6602">PROTEIN</tspan></text>
</g>
</g>
<defs>
<linearGradient id="paint0_linear_938_23735" x1="91.8145" y1="1.5" x2="91.8145" y2="35.5" gradientUnits="userSpaceOnUse">
<stop stop-color="#03363B"/>
<stop offset="1" stop-color="#06A2B2"/>
</linearGradient>
</defs>
</svg>
