<svg width="44" height="57" viewBox="0 0 44 57" fill="none" xmlns="http://www.w3.org/2000/svg">
<g id="R-ICO-013582">
<path id="Vector" d="M41.309 0.4482C26.8858 0.2785 26.5548 28.4199 26.5548 28.4199C26.5548 28.4199 26.2238 56.5651 40.647 56.7348C40.647 56.7348 28.3768 53.3907 21.6328 53.3114C14.8888 53.2321 2.54333 56.2866 2.54333 56.2866C16.9665 56.4562 17.2976 28.311 17.2976 28.311C17.2976 28.311 17.6285 0.1696 3.20534 0C3.20534 0 15.4403 3.3437 22.2195 3.4234C28.9988 3.5029 41.309 0.4482 41.309 0.4482Z" fill="url(#paint0_linear_938_22871)"/>
<path id="Vector_2" d="M14.0085 28.2761C14.2656 6.41598 4.48631 9.14538 3.09791 9.12908C1.70951 9.11278 0.796908 7.61208 0.838408 4.08348C0.871608 1.26488 1.39371 -0.0176212 3.20531 0.00367882C17.6285 0.173279 17.2976 28.3148 17.2976 28.3148C17.2976 28.3148 16.9666 56.46 2.54331 56.2904C0.733508 56.2691 -0.0312924 54.9056 0.00110761 52.1567C0.0335076 49.4078 1.26231 47.1451 2.65071 47.1614C4.03901 47.1777 13.7514 50.1361 14.0085 28.2761Z" fill="#D7B532"/>
<path id="Vector_3" d="M29.842 28.4622C30.0991 6.60209 39.8115 9.56079 41.2 9.57709C42.5885 9.59339 43.5361 8.11459 43.5776 4.58599C43.6107 1.76739 43.1189 0.472991 41.3074 0.451691C26.8841 0.282091 26.5531 28.4235 26.5531 28.4235C26.5531 28.4235 26.2221 56.5687 40.6453 56.7384C42.4551 56.7597 43.2517 55.4145 43.2841 52.6656C43.3165 49.9167 42.1411 47.6257 40.7527 47.6094C39.3642 47.593 29.5849 50.3223 29.842 28.4622Z" fill="#D7B532"/>
</g>
<defs>
<linearGradient id="paint0_linear_938_22871" x1="21.6767" y1="53.1865" x2="22.2642" y2="3.40044" gradientUnits="userSpaceOnUse">
<stop stop-color="#D2B18A"/>
<stop offset="0.0308" stop-color="#CDAA81"/>
<stop offset="0.1698" stop-color="#BA8F5B"/>
<stop offset="0.2988" stop-color="#AC7B40"/>
<stop offset="0.4128" stop-color="#A46F30"/>
<stop offset="0.5" stop-color="#A16B2A"/>
<stop offset="0.5872" stop-color="#A46F30"/>
<stop offset="0.7012" stop-color="#AC7B40"/>
<stop offset="0.8302" stop-color="#BA8F5B"/>
<stop offset="0.9692" stop-color="#CDAA81"/>
<stop offset="1" stop-color="#D2B18A"/>
</linearGradient>
</defs>
</svg>
