<svg width="51" height="54" viewBox="0 0 51 54" fill="none" xmlns="http://www.w3.org/2000/svg">
<g id="R-ICO-013555">
<path id="Vector" d="M42.3594 0.1741C42.3594 0.0779 42.6028 0 42.903 0H44.337C44.6372 0 44.8806 0.0779 44.8806 0.1741L44.8809 2.5167L44.8806 6.3207C44.8806 6.4501 44.6372 6.555 44.337 6.555H42.903C42.6028 6.555 42.3594 6.4501 42.3594 6.3207L42.3596 3.1317L42.3594 0.1741Z" fill="url(#paint0_linear_938_25756)"/>
<path id="Vector_2" d="M37.3594 0.1741C37.3594 0.0779 37.6028 0 37.903 0H39.337C39.6372 0 39.8806 0.0779 39.8806 0.1741L39.8809 2.5166L39.8807 6.3208C39.8807 6.4502 39.6373 6.5551 39.3371 6.5551H37.903C37.6028 6.5551 37.3594 6.4502 37.3594 6.3208L37.3596 3.1318L37.3594 0.1741Z" fill="url(#paint1_linear_938_25756)"/>
<path id="Vector_3" d="M14.0865 41.0345C14.218 40.903 14.4966 40.9685 14.7089 41.1808L15.7229 42.1948C15.9352 42.4071 16.0007 42.6857 15.8693 42.8172L12.667 46.0199L7.46609 51.2204C7.28919 51.3973 6.97369 51.3687 6.76139 51.1564L5.74739 50.1424C5.53509 49.9301 5.50649 49.6146 5.68339 49.4377L10.0434 45.0779L14.0865 41.0345Z" fill="url(#paint2_linear_938_25756)"/>
<path id="Vector_4" d="M5.80111 40.8349L9.84421 36.7916C9.97571 36.6601 10.2543 36.7257 10.4666 36.938L11.4806 37.952C11.6929 38.1643 11.7584 38.4429 11.627 38.5744L8.42481 41.777L3.22391 46.9775C3.04701 47.1544 2.73151 47.1258 2.51921 46.9135L1.50521 45.8995C1.29291 45.6872 1.26431 45.3717 1.44121 45.1948L5.80111 40.8349Z" fill="url(#paint3_linear_938_25756)"/>
<path id="Vector_5" d="M50.7626 7.18972C27.2213 4.66272 9.76262 19.5791 6.52832 28.1474L7.34152 25.7558C10.4293 16.2458 19.3462 3.48522 46.6566 6.19892L50.7626 7.18972Z" fill="url(#paint4_linear_938_25756)"/>
<path id="Vector_6" d="M6.91175 35.6502C4.06115 35.0462 5.17115 31.3537 6.52915 28.1473L7.34235 25.7557C3.49475 31.399 1.43325 35.7938 7.03475 35.6681L6.91175 35.6502Z" fill="url(#paint5_linear_938_25756)"/>
<g id="Group">
<path id="Vector_7" d="M15.3923 49.2091C7.5211 57.0802 0 42.5616 0 42.5616L0.0179 42.6846C0.0179 42.6846 3.1394 61.462 14.2411 50.3603L15.3923 49.2091Z" fill="url(#paint6_linear_938_25756)"/>
<path id="Vector_8" d="M13.5586 51.0426C21.4298 43.1714 6.91113 35.6503 6.91113 35.6503L7.03413 35.6682C7.03413 35.6682 25.8115 38.7897 14.7098 49.8914L13.5586 51.0426Z" fill="url(#paint7_linear_938_25756)"/>
</g>
</g>
<defs>
<linearGradient id="paint0_linear_938_25756" x1="43.6203" y1="3.27414e-07" x2="43.6203" y2="6.555" gradientUnits="userSpaceOnUse">
<stop stop-color="#5B9A53"/>
<stop offset="0.4336" stop-color="#5A9852"/>
<stop offset="0.5898" stop-color="#559150"/>
<stop offset="0.7011" stop-color="#4D864B"/>
<stop offset="0.7911" stop-color="#417544"/>
<stop offset="0.8682" stop-color="#325F3C"/>
<stop offset="0.9352" stop-color="#204431"/>
<stop offset="0.9956" stop-color="#0A2525"/>
<stop offset="1" stop-color="#082224"/>
</linearGradient>
<linearGradient id="paint1_linear_938_25756" x1="38.6203" y1="3.27553e-07" x2="38.6203" y2="6.555" gradientUnits="userSpaceOnUse">
<stop stop-color="#5B9A53"/>
<stop offset="0.4336" stop-color="#5A9852"/>
<stop offset="0.5898" stop-color="#559150"/>
<stop offset="0.7011" stop-color="#4D864B"/>
<stop offset="0.7911" stop-color="#417544"/>
<stop offset="0.8682" stop-color="#325F3C"/>
<stop offset="0.9352" stop-color="#204431"/>
<stop offset="0.9956" stop-color="#0A2525"/>
<stop offset="1" stop-color="#082224"/>
</linearGradient>
<linearGradient id="paint2_linear_938_25756" x1="15.2223" y1="41.6669" x2="6.26149" y2="50.6277" gradientUnits="userSpaceOnUse">
<stop stop-color="#5B9A53"/>
<stop offset="0.4336" stop-color="#5A9852"/>
<stop offset="0.5898" stop-color="#559150"/>
<stop offset="0.7011" stop-color="#4D864B"/>
<stop offset="0.7911" stop-color="#417544"/>
<stop offset="0.8682" stop-color="#325F3C"/>
<stop offset="0.9352" stop-color="#204431"/>
<stop offset="0.9956" stop-color="#0A2525"/>
<stop offset="1" stop-color="#082224"/>
</linearGradient>
<linearGradient id="paint3_linear_938_25756" x1="10.9799" y1="37.4239" x2="2.01914" y2="46.3847" gradientUnits="userSpaceOnUse">
<stop stop-color="#5B9A53"/>
<stop offset="0.4336" stop-color="#5A9852"/>
<stop offset="0.5898" stop-color="#559150"/>
<stop offset="0.7011" stop-color="#4D864B"/>
<stop offset="0.7911" stop-color="#417544"/>
<stop offset="0.8682" stop-color="#325F3C"/>
<stop offset="0.9352" stop-color="#204431"/>
<stop offset="0.9956" stop-color="#0A2525"/>
<stop offset="1" stop-color="#082224"/>
</linearGradient>
<linearGradient id="paint4_linear_938_25756" x1="13.3679" y1="34.2138" x2="51.3434" y2="14.8312" gradientUnits="userSpaceOnUse">
<stop stop-color="#110F23"/>
<stop offset="0.0941" stop-color="#343090"/>
<stop offset="0.1173" stop-color="#3B3793"/>
<stop offset="0.1501" stop-color="#4D499C"/>
<stop offset="0.1888" stop-color="#6B68AA"/>
<stop offset="0.2315" stop-color="#9592BD"/>
<stop offset="0.2725" stop-color="#C4C1D3"/>
<stop offset="0.3098" stop-color="#C1BED2"/>
<stop offset="0.3354" stop-color="#B8B5CE"/>
<stop offset="0.3574" stop-color="#A9A6C6"/>
<stop offset="0.3774" stop-color="#9490BC"/>
<stop offset="0.396" stop-color="#7874B0"/>
<stop offset="0.4135" stop-color="#5652A0"/>
<stop offset="0.4279" stop-color="#343090"/>
<stop offset="0.5065" stop-color="#2D2979"/>
<stop offset="0.652" stop-color="#211E54"/>
<stop offset="0.7874" stop-color="#181639"/>
<stop offset="0.9076" stop-color="#131129"/>
<stop offset="1" stop-color="#110F23"/>
</linearGradient>
<linearGradient id="paint5_linear_938_25756" x1="3.37385" y1="35.0862" x2="10.0207" y2="27.4745" gradientUnits="userSpaceOnUse">
<stop stop-color="#110F23"/>
<stop offset="0.0941" stop-color="#343090"/>
<stop offset="0.1173" stop-color="#3B3793"/>
<stop offset="0.1501" stop-color="#4D499C"/>
<stop offset="0.1888" stop-color="#6B68AA"/>
<stop offset="0.2315" stop-color="#9592BD"/>
<stop offset="0.2725" stop-color="#C4C1D3"/>
<stop offset="0.3098" stop-color="#C1BED2"/>
<stop offset="0.3354" stop-color="#B8B5CE"/>
<stop offset="0.3574" stop-color="#A9A6C6"/>
<stop offset="0.3774" stop-color="#9490BC"/>
<stop offset="0.396" stop-color="#7874B0"/>
<stop offset="0.4135" stop-color="#5652A0"/>
<stop offset="0.4279" stop-color="#343090"/>
<stop offset="0.5065" stop-color="#2D2979"/>
<stop offset="0.652" stop-color="#211E54"/>
<stop offset="0.7874" stop-color="#181639"/>
<stop offset="0.9076" stop-color="#131129"/>
<stop offset="1" stop-color="#110F23"/>
</linearGradient>
<linearGradient id="paint6_linear_938_25756" x1="-0.917097" y1="43.303" x2="12.1767" y2="52.4333" gradientUnits="userSpaceOnUse">
<stop stop-color="#110F23"/>
<stop offset="0.0941" stop-color="#343090"/>
<stop offset="0.1173" stop-color="#3B3793"/>
<stop offset="0.1501" stop-color="#4D499C"/>
<stop offset="0.1888" stop-color="#6B68AA"/>
<stop offset="0.2315" stop-color="#9592BD"/>
<stop offset="0.2725" stop-color="#C4C1D3"/>
<stop offset="0.3098" stop-color="#C1BED2"/>
<stop offset="0.3354" stop-color="#B8B5CE"/>
<stop offset="0.3574" stop-color="#A9A6C6"/>
<stop offset="0.3774" stop-color="#9490BC"/>
<stop offset="0.396" stop-color="#7874B0"/>
<stop offset="0.4135" stop-color="#5652A0"/>
<stop offset="0.4279" stop-color="#343090"/>
<stop offset="0.5065" stop-color="#2D2979"/>
<stop offset="0.652" stop-color="#211E54"/>
<stop offset="0.7874" stop-color="#181639"/>
<stop offset="0.9076" stop-color="#131129"/>
<stop offset="1" stop-color="#110F23"/>
</linearGradient>
<linearGradient id="paint7_linear_938_25756" x1="17.8659" y1="47.8326" x2="4.90761" y2="36.6737" gradientUnits="userSpaceOnUse">
<stop stop-color="#110F23"/>
<stop offset="0.0941" stop-color="#343090"/>
<stop offset="0.1173" stop-color="#3B3793"/>
<stop offset="0.1501" stop-color="#4D499C"/>
<stop offset="0.1888" stop-color="#6B68AA"/>
<stop offset="0.2315" stop-color="#9592BD"/>
<stop offset="0.2725" stop-color="#C4C1D3"/>
<stop offset="0.3098" stop-color="#C1BED2"/>
<stop offset="0.3354" stop-color="#B8B5CE"/>
<stop offset="0.3574" stop-color="#A9A6C6"/>
<stop offset="0.3774" stop-color="#9490BC"/>
<stop offset="0.396" stop-color="#7874B0"/>
<stop offset="0.4135" stop-color="#5652A0"/>
<stop offset="0.4279" stop-color="#343090"/>
<stop offset="0.5065" stop-color="#2D2979"/>
<stop offset="0.652" stop-color="#211E54"/>
<stop offset="0.7874" stop-color="#181639"/>
<stop offset="0.9076" stop-color="#131129"/>
<stop offset="1" stop-color="#110F23"/>
</linearGradient>
</defs>
</svg>
