<svg width="57" height="31" viewBox="0 0 57 31" fill="none" xmlns="http://www.w3.org/2000/svg">
<g id="R-ICO-014842">
<g id="PROTEIN">
<path d="M15.1895 13.3799C15.1895 7.85704 19.6666 3.37988 25.1895 3.37988H45.1895C50.7123 3.37988 55.1895 7.85704 55.1895 13.3799C55.1895 18.9027 50.7123 23.3799 45.1895 23.3799H25.1895C19.6666 23.3799 15.1895 18.9027 15.1895 13.3799Z" fill="url(#paint0_linear_938_24206)"/>
<path d="M49.7856 6.21948C48.4382 5.31881 46.8368 4.80579 45.1895 4.75601C38.5228 4.57198 31.8561 4.20668 25.1895 3.51989C25.1895 3.42652 25.1895 3.33316 25.1895 3.23979C31.8561 2.553 38.5228 2.1877 45.1895 2.00368C47.3509 1.94533 49.5501 2.54321 51.401 3.7089C54.666 5.73882 56.688 9.57953 56.5715 13.3799C56.5502 14.4619 56.3747 15.5382 56.0506 16.5668C54.6551 21.272 49.8355 24.5064 45.1898 24.1457C45.1897 24.1457 45.1896 24.1457 45.1895 24.1457C40.9048 23.902 36.6198 23.7265 32.3353 23.8329C29.9534 23.8901 27.5714 24.0418 25.1895 24.1996C23.1342 24.3316 20.9898 23.8551 19.155 22.7749C15.9258 20.8888 13.8791 17.114 14.014 13.3799C14.0395 12.3173 14.221 11.2622 14.5511 10.2586C15.9818 5.66699 20.8057 2.63588 25.1895 3.23979C25.1895 3.33316 25.1895 3.42652 25.1895 3.51989C20.9294 3.98947 17.5246 7.14432 16.6319 10.8683C16.4264 11.6917 16.3389 12.5367 16.3648 13.3799C16.4399 16.3369 17.9994 19.123 20.4156 20.8159C21.7791 21.8022 23.4358 22.4365 25.1895 22.5597C27.5714 22.7171 29.9534 22.8684 32.3353 22.9256C36.6199 23.032 40.9048 22.8578 45.1895 22.6141C45.1896 22.6141 45.1897 22.6141 45.1898 22.6141C49.1877 22.3872 52.5957 19.4363 53.524 15.8265C53.7356 15.028 53.8292 14.2039 53.8074 13.3799C53.7507 10.4889 52.166 7.76852 49.7856 6.21948Z" fill="#BE9D75"/>
</g>
<g id="PROTEIN_2">
<path d="M12.1895 16.3799C12.1895 10.857 16.6666 6.37988 22.1895 6.37988H42.1895C47.7123 6.37988 52.1895 10.857 52.1895 16.3799C52.1895 21.9027 47.7123 26.3799 42.1895 26.3799H22.1895C16.6666 26.3799 12.1895 21.9027 12.1895 16.3799Z" fill="url(#paint1_linear_938_24206)"/>
<path d="M46.7856 9.21948C45.4382 8.31881 43.8368 7.80579 42.1895 7.75601C35.5228 7.57198 28.8561 7.20668 22.1895 6.51989C22.1895 6.42652 22.1895 6.33316 22.1895 6.23979C28.8561 5.553 35.5228 5.1877 42.1895 5.00368C44.3509 4.94533 46.5501 5.54321 48.401 6.7089C51.666 8.73882 53.688 12.5795 53.5715 16.3799C53.5502 17.4619 53.3747 18.5382 53.0506 19.5668C51.6551 24.272 46.8355 27.5064 42.1898 27.1457C42.1897 27.1457 42.1896 27.1457 42.1895 27.1457C37.9048 26.902 33.6198 26.7265 29.3353 26.8329C26.9534 26.8901 24.5714 27.0418 22.1895 27.1996C20.1342 27.3316 17.9898 26.8551 16.155 25.7749C12.9258 23.8888 10.8791 20.114 11.014 16.3799C11.0395 15.3173 11.221 14.2622 11.5511 13.2586C12.9818 8.66699 17.8057 5.63588 22.1895 6.23979C22.1895 6.33316 22.1895 6.42652 22.1895 6.51989C17.9294 6.98947 14.5246 10.1443 13.6319 13.8683C13.4264 14.6917 13.3389 15.5367 13.3648 16.3799C13.4399 19.3369 14.9994 22.123 17.4156 23.8159C18.7791 24.8022 20.4358 25.4365 22.1895 25.5597C24.5714 25.7171 26.9534 25.8684 29.3353 25.9256C33.6199 26.032 37.9048 25.8578 42.1895 25.6141C42.1896 25.6141 42.1897 25.6141 42.1898 25.6141C46.1877 25.3872 49.5957 22.4363 50.524 18.8265C50.7356 18.028 50.8292 17.2039 50.8074 16.3799C50.7507 13.4889 49.166 10.7685 46.7856 9.21948Z" fill="#BE9D75"/>
</g>
<g id="PROTEIN_3">
<path d="M9.18945 19.3799C9.18945 13.857 13.6666 9.37988 19.1895 9.37988H39.1895C44.7123 9.37988 49.1895 13.857 49.1895 19.3799C49.1895 24.9027 44.7123 29.3799 39.1895 29.3799H19.1895C13.6666 29.3799 9.18945 24.9027 9.18945 19.3799Z" fill="url(#paint2_linear_938_24206)"/>
<path d="M43.7856 12.2195C42.4382 11.3188 40.8368 10.8058 39.1895 10.756C32.5228 10.572 25.8561 10.2067 19.1895 9.51989C19.1895 9.42652 19.1895 9.33316 19.1895 9.23979C25.8561 8.553 32.5228 8.1877 39.1895 8.00368C41.3509 7.94533 43.5501 8.54321 45.401 9.7089C48.666 11.7388 50.688 15.5795 50.5715 19.3799C50.5502 20.4619 50.3747 21.5382 50.0506 22.5668C48.6551 27.272 43.8355 30.5064 39.1898 30.1457C39.1897 30.1457 39.1896 30.1457 39.1895 30.1457C34.9048 29.902 30.6198 29.7265 26.3353 29.8329C23.9534 29.8901 21.5714 30.0418 19.1895 30.1996C17.1342 30.3316 14.9898 29.8551 13.155 28.7749C9.92584 26.8888 7.87912 23.114 8.01402 19.3799C8.03951 18.3173 8.22097 17.2622 8.55106 16.2586C9.98179 11.667 14.8057 8.63588 19.1895 9.23979C19.1895 9.33316 19.1895 9.42652 19.1895 9.51989C14.9294 9.98947 11.5246 13.1443 10.6319 16.8683C10.4264 17.6917 10.3389 18.5367 10.3648 19.3799C10.4399 22.3369 11.9994 25.123 14.4156 26.8159C15.7791 27.8022 17.4358 28.4365 19.1895 28.5597C21.5714 28.7171 23.9534 28.8684 26.3353 28.9256C30.6199 29.032 34.9048 28.8578 39.1895 28.6141C39.1896 28.6141 39.1897 28.6141 39.1898 28.6141C43.1877 28.3872 46.5957 25.4363 47.524 21.8265C47.7356 21.028 47.8292 20.2039 47.8074 19.3799C47.7507 16.4889 46.166 13.7685 43.7856 12.2195Z" fill="#BE9D75"/>
</g>
<g id="PROTEIN_4">
<path d="M7.18945 11.3799C7.18945 5.85704 11.6666 1.37988 17.1895 1.37988H37.1895C42.7123 1.37988 47.1895 5.85704 47.1895 11.3799C47.1895 16.9027 42.7123 21.3799 37.1895 21.3799H17.1895C11.6666 21.3799 7.18945 16.9027 7.18945 11.3799Z" fill="url(#paint3_linear_938_24206)"/>
<path d="M41.7856 4.21948C40.4382 3.31881 38.8368 2.80579 37.1895 2.75601C30.5228 2.57198 23.8561 2.20668 17.1895 1.51989C17.1895 1.42652 17.1895 1.33316 17.1895 1.23979C23.8561 0.552997 30.5228 0.187703 37.1895 0.00367701C39.3509 -0.0546674 41.5501 0.543214 43.401 1.7089C46.666 3.73882 48.688 7.57953 48.5715 11.3799C48.5502 12.4619 48.3747 13.5382 48.0506 14.5668C46.6551 19.272 41.8355 22.5064 37.1898 22.1457C37.1897 22.1457 37.1896 22.1457 37.1895 22.1457C32.9048 21.902 28.6198 21.7265 24.3353 21.8329C21.9534 21.8901 19.5714 22.0418 17.1895 22.1996C15.1342 22.3316 12.9898 21.8551 11.155 20.7749C7.92584 18.8888 5.87912 15.114 6.01402 11.3799C6.03951 10.3173 6.22097 9.26219 6.55106 8.25864C7.98179 3.66699 12.8057 0.635882 17.1895 1.23979C17.1895 1.33316 17.1895 1.42652 17.1895 1.51989C12.9294 1.98947 9.52456 5.14432 8.63194 8.86826C8.42639 9.69168 8.33887 10.5367 8.3648 11.3799C8.43992 14.3369 9.99941 17.123 12.4156 18.8159C13.7791 19.8022 15.4358 20.4365 17.1895 20.5597C19.5714 20.7171 21.9534 20.8684 24.3353 20.9256C28.6199 21.032 32.9048 20.8578 37.1895 20.6141C37.1896 20.6141 37.1897 20.6141 37.1898 20.6141C41.1877 20.3872 44.5957 17.4363 45.524 13.8265C45.7356 13.028 45.8292 12.2039 45.8074 11.3799C45.7507 8.48889 44.166 5.76852 41.7856 4.21948Z" fill="#BE9D75"/>
</g>
<g id="PROTEIN_5">
<path d="M4.18945 14.3799C4.18945 8.85704 8.66661 4.37988 14.1895 4.37988H34.1895C39.7123 4.37988 44.1895 8.85704 44.1895 14.3799C44.1895 19.9027 39.7123 24.3799 34.1895 24.3799H14.1895C8.66661 24.3799 4.18945 19.9027 4.18945 14.3799Z" fill="url(#paint4_linear_938_24206)"/>
<path d="M38.7856 7.21948C37.4382 6.31881 35.8368 5.80579 34.1895 5.75601C27.5228 5.57198 20.8561 5.20668 14.1895 4.51989C14.1895 4.42652 14.1895 4.33316 14.1895 4.23979C20.8561 3.553 27.5228 3.1877 34.1895 3.00368C36.3509 2.94533 38.5501 3.54321 40.401 4.7089C43.666 6.73882 45.688 10.5795 45.5715 14.3799C45.5502 15.4619 45.3747 16.5382 45.0506 17.5668C43.6551 22.272 38.8355 25.5064 34.1898 25.1457C34.1897 25.1457 34.1896 25.1457 34.1895 25.1457C29.9048 24.902 25.6198 24.7265 21.3353 24.8329C18.9534 24.8901 16.5714 25.0418 14.1895 25.1996C12.1342 25.3316 9.98977 24.8551 8.15502 23.7749C4.92584 21.8888 2.87912 18.114 3.01402 14.3799C3.03951 13.3173 3.22097 12.2622 3.55106 11.2586C4.98179 6.66699 9.80571 3.63588 14.1895 4.23979C14.1895 4.33316 14.1895 4.42652 14.1895 4.51989C9.92936 4.98947 6.52456 8.14432 5.63194 11.8683C5.42639 12.6917 5.33887 13.5367 5.3648 14.3799C5.43992 17.3369 6.99941 20.123 9.41563 21.8159C10.7791 22.8022 12.4358 23.4365 14.1895 23.5597C16.5714 23.7171 18.9534 23.8684 21.3353 23.9256C25.6199 24.032 29.9048 23.8578 34.1895 23.6141C34.1896 23.6141 34.1897 23.6141 34.1898 23.6141C38.1877 23.3872 41.5957 20.4363 42.524 16.8265C42.7356 16.028 42.8292 15.2039 42.8074 14.3799C42.7507 11.4889 41.166 8.76852 38.7856 7.21948Z" fill="#BE9D75"/>
</g>
<g id="PROTEIN_6">
<path d="M1.18945 17.3799C1.18945 11.857 5.66661 7.37988 11.1895 7.37988H30.1895C35.7123 7.37988 40.1895 11.857 40.1895 17.3799C40.1895 22.9027 35.7123 27.3799 30.1895 27.3799H11.1895C5.6666 27.3799 1.18945 22.9027 1.18945 17.3799Z" fill="url(#paint5_linear_938_24206)"/>
<path d="M35.1375 10.4586C33.7229 9.40573 31.9841 8.79631 30.1895 8.73827C23.8561 8.5489 17.5228 8.18529 11.1895 7.51989C11.1895 7.42652 11.1895 7.33316 11.1895 7.23979C17.5228 6.5744 23.8561 6.21078 30.1895 6.02141C32.5364 5.95154 34.93 6.66483 36.8762 8.03169C39.8741 10.1124 41.6858 13.769 41.5786 17.3799C41.5554 18.5572 41.3486 19.7287 40.9676 20.8374C39.4803 25.4104 34.7424 28.5012 30.1898 28.1457C30.1897 28.1457 30.1896 28.1457 30.1895 28.1457C25.9882 27.902 21.7865 27.7265 17.5852 27.8329C15.4534 27.8851 13.3214 28.016 11.1895 28.1585C8.96365 28.305 6.62854 27.7336 4.69339 26.4613C1.72189 24.5198 -0.115651 20.928 0.00576329 17.3799C0.0325673 16.2236 0.245303 15.0748 0.632336 13.9936C2.1526 9.5335 6.8934 6.64158 11.1895 7.23979C11.1895 7.33316 11.1895 7.42652 11.1895 7.51989C7.01456 7.99207 3.66393 11.0277 2.6972 14.6555C2.45194 15.5448 2.34552 16.4639 2.37306 17.3799C2.44425 20.1859 3.83975 22.8433 6.05015 24.5676C7.47583 25.7151 9.27354 26.4664 11.1895 26.6007C13.3214 26.7428 15.4534 26.8734 17.5852 26.9256C21.7865 27.032 25.9881 26.8578 30.1895 26.6141C30.1896 26.6141 30.1897 26.6141 30.1898 26.6141C34.1079 26.3842 37.4604 23.548 38.4604 20.0337C38.7119 19.1717 38.8244 18.2752 38.8004 17.3799C38.7433 14.6363 37.3216 12.0436 35.1375 10.4586Z" fill="#BE9D75"/>
<text id="P" fill="white" xml:space="preserve" style="white-space: pre" font-family="Arial" font-size="12" font-weight="bold" letter-spacing="0em"><tspan x="8.34961" y="21.54">VCP</tspan></text>
</g>
</g>
<defs>
<linearGradient id="paint0_linear_938_24206" x1="35.1895" y1="3.37988" x2="35.1895" y2="23.3799" gradientUnits="userSpaceOnUse">
<stop stop-color="#BE9D75"/>
<stop offset="1" stop-color="#454CF4"/>
</linearGradient>
<linearGradient id="paint1_linear_938_24206" x1="32.1895" y1="6.37988" x2="32.1895" y2="26.3799" gradientUnits="userSpaceOnUse">
<stop stop-color="#BE9D75"/>
<stop offset="1" stop-color="#454CF4"/>
</linearGradient>
<linearGradient id="paint2_linear_938_24206" x1="29.1895" y1="9.37988" x2="29.1895" y2="29.3799" gradientUnits="userSpaceOnUse">
<stop stop-color="#BE9D75"/>
<stop offset="1" stop-color="#454CF4"/>
</linearGradient>
<linearGradient id="paint3_linear_938_24206" x1="27.1895" y1="1.37988" x2="27.1895" y2="21.3799" gradientUnits="userSpaceOnUse">
<stop stop-color="#BE9D75"/>
<stop offset="1" stop-color="#454CF4"/>
</linearGradient>
<linearGradient id="paint4_linear_938_24206" x1="24.1895" y1="4.37988" x2="24.1895" y2="24.3799" gradientUnits="userSpaceOnUse">
<stop stop-color="#BE9D75"/>
<stop offset="1" stop-color="#454CF4"/>
</linearGradient>
<linearGradient id="paint5_linear_938_24206" x1="20.6895" y1="7.37988" x2="20.6895" y2="27.3799" gradientUnits="userSpaceOnUse">
<stop stop-color="#BE9D75"/>
<stop offset="1" stop-color="#454CF4"/>
</linearGradient>
</defs>
</svg>
