<svg width="112" height="112" viewBox="0 0 112 112" fill="none" xmlns="http://www.w3.org/2000/svg">
<g id="R-ICO-012689">
<path id="BG" d="M104.36 103.542C88.5872 119.314 54.1907 110.491 27.5333 83.8333C0.875908 57.1759 -7.94779 22.7794 7.82491 7.00667C23.5976 -8.76603 54.6071 3.44467 81.2645 30.1021C107.922 56.7595 120.133 87.7689 104.36 103.542Z" fill="url(#paint0_radial_941_72934)"/>
<path id="TOP" d="M75.8956 78.4647C80.0141 74.3462 73.7283 61.3829 61.8558 49.5105C49.9833 37.6381 37.0201 31.3521 32.9016 35.4707C28.7831 39.5893 35.0689 52.5525 46.9414 64.4249C58.8139 76.2973 71.7771 82.5832 75.8956 78.4647Z" fill="url(#paint1_radial_941_72934)"/>
<g id="SHINE">
<mask id="mask0_941_72934" style="mask-type:alpha" maskUnits="userSpaceOnUse" x="11" y="15" width="85" height="86">
<path id="MASK" d="M94.68 93.2646C93.4445 92.0291 91.6041 91.86 90.577 92.8871C87.8204 95.6437 80.8381 94.7079 71.8991 90.3844C62.3221 85.752 51.6248 77.8907 42.55 68.8159C22.2484 48.5143 12.9406 26.3288 18.4796 20.7897C19.5067 19.7626 19.3376 17.9222 18.1021 16.6867C16.867 15.4516 15.0262 15.2821 13.9991 16.3092C4.60566 25.7026 19.2524 52.9693 38.8253 72.5422C48.4713 82.1882 59.9043 90.5747 70.1928 95.5512C81.7893 101.16 90.62 101.805 95.0575 97.3676C96.0846 96.3405 95.9151 94.4997 94.68 93.2646Z" fill="url(#paint2_radial_941_72934)"/>
</mask>
<g mask="url(#mask0_941_72934)">
<path id="SHINE_2" d="M94.68 93.2646C93.4445 92.0291 91.6041 91.86 90.577 92.8871C87.8204 95.6437 80.8381 94.7079 71.8991 90.3844C62.3221 85.752 51.6248 77.8907 42.55 68.8159C22.2484 48.5143 12.9406 26.3288 18.4796 20.7897C19.5067 19.7626 19.3376 17.9222 18.1021 16.6867C16.867 15.4516 15.0262 15.2821 13.9991 16.3092C4.60566 25.7026 19.2524 52.9693 38.8253 72.5422C48.4713 82.1882 59.9043 90.5747 70.1928 95.5512C81.7893 101.16 90.62 101.805 95.0575 97.3676C96.0846 96.3405 95.9151 94.4997 94.68 93.2646Z" fill="url(#paint3_radial_941_72934)"/>
</g>
</g>
<g id="SHADOW">
<mask id="mask1_941_72934" style="mask-type:alpha" maskUnits="userSpaceOnUse" x="25" y="25" width="62" height="61">
<path id="MASK_2" d="M85.5388 80.656C84.6542 79.7714 83.3441 79.6427 82.618 80.3688C80.6693 82.3175 75.6975 81.6201 69.3183 78.5036C62.4838 75.1645 54.8376 69.5232 48.3403 63.0258C33.8048 48.4904 27.0823 32.6644 30.9979 28.7487C31.724 28.0226 31.5953 26.7125 30.7107 25.8279C29.8264 24.9436 28.516 24.8146 27.7899 25.5407C21.1496 32.181 31.6935 51.6462 45.7072 65.66C52.6135 72.5663 60.7855 78.5847 68.1278 82.1718C76.4035 86.2147 82.689 86.7137 85.8259 83.5767C86.5521 82.8507 86.4231 81.5403 85.5388 80.656Z" fill="url(#paint4_radial_941_72934)"/>
</mask>
<g mask="url(#mask1_941_72934)">
<path id="SHADOW_2" d="M85.5388 80.656C84.6542 79.7714 83.3441 79.6427 82.618 80.3688C80.6693 82.3175 75.6975 81.6201 69.3183 78.5036C62.4838 75.1645 54.8376 69.5232 48.3403 63.0258C33.8048 48.4904 27.0823 32.6644 30.9979 28.7487C31.724 28.0226 31.5953 26.7125 30.7107 25.8279C29.8264 24.9436 28.516 24.8146 27.7899 25.5407C21.1496 32.181 31.6935 51.6462 45.7072 65.66C52.6135 72.5663 60.7855 78.5847 68.1278 82.1718C76.4035 86.2147 82.689 86.7137 85.8259 83.5767C86.5521 82.8507 86.4231 81.5403 85.5388 80.656Z" fill="url(#paint5_radial_941_72934)"/>
</g>
</g>
</g>
<defs>
<radialGradient id="paint0_radial_941_72934" cx="0" cy="0" r="1" gradientUnits="userSpaceOnUse" gradientTransform="translate(58.33 52.1926) rotate(45) scale(77.6272 33.3739)">
<stop stop-color="#D27C8E"/>
<stop offset="0.1111" stop-color="#D27488"/>
<stop offset="0.2738" stop-color="#D26D82"/>
<stop offset="0.3544" stop-color="#CD657B"/>
<stop offset="0.4765" stop-color="#C05067"/>
<stop offset="0.5436" stop-color="#B7425A"/>
<stop offset="0.6538" stop-color="#B14057"/>
<stop offset="0.8029" stop-color="#A0394E"/>
<stop offset="0.954" stop-color="#873042"/>
</radialGradient>
<radialGradient id="paint1_radial_941_72934" cx="0" cy="0" r="1" gradientUnits="userSpaceOnUse" gradientTransform="translate(33.1599 76.8819) rotate(-45) scale(40.5192 84.3391)">
<stop offset="0.5422" stop-color="#B7425A" stop-opacity="0.9"/>
<stop offset="0.6518" stop-color="#BB4860" stop-opacity="0.6409"/>
<stop offset="0.7999" stop-color="#C65970" stop-opacity="0.2908"/>
<stop offset="0.923" stop-color="#D26D82" stop-opacity="0"/>
</radialGradient>
<radialGradient id="paint2_radial_941_72934" cx="0" cy="0" r="1" gradientUnits="userSpaceOnUse" gradientTransform="translate(36.8322 71.8651) rotate(-45.4441) scale(29.6724 155.151)">
<stop offset="0.646982" stop-color="white"/>
<stop offset="0.9" stop-opacity="0"/>
</radialGradient>
<radialGradient id="paint3_radial_941_72934" cx="0" cy="0" r="1" gradientUnits="userSpaceOnUse" gradientTransform="translate(58.0911 53.2719) rotate(45) scale(59.8687 26.6281)">
<stop offset="0.8434" stop-color="#EB94A6" stop-opacity="0"/>
<stop offset="0.91" stop-color="#EB94A6" stop-opacity="0.6"/>
<stop offset="1" stop-color="#EB94A6" stop-opacity="0"/>
</radialGradient>
<radialGradient id="paint4_radial_941_72934" cx="0" cy="0" r="1" gradientUnits="userSpaceOnUse" gradientTransform="translate(44.6407 67.2776) rotate(-44.2686) scale(31.607 96.3569)">
<stop offset="0.44679" stop-color="white"/>
<stop offset="0.7" stop-opacity="0"/>
</radialGradient>
<radialGradient id="paint5_radial_941_72934" cx="0" cy="0" r="1" gradientUnits="userSpaceOnUse" gradientTransform="translate(59.3587 52.0269) rotate(45) scale(42.8669 18.8192)">
<stop offset="0.8384" stop-color="#B7425A" stop-opacity="0"/>
<stop offset="0.8765" stop-color="#9C384C" stop-opacity="0.5198"/>
<stop offset="0.9117" stop-color="#873042"/>
<stop offset="0.9354" stop-color="#8D3245" stop-opacity="0.7316"/>
<stop offset="0.9658" stop-color="#9D384D" stop-opacity="0.387"/>
<stop offset="0.9998" stop-color="#B7425A" stop-opacity="0.01"/>
<stop offset="1" stop-color="#B7425A" stop-opacity="0"/>
</radialGradient>
</defs>
</svg>
