<svg width="94" height="42" viewBox="0 0 94 42" fill="none" xmlns="http://www.w3.org/2000/svg">
<g id="R-ICO-014178">
<path id="Vector" d="M79.1107 38.2816C77.7318 38.2816 76.8741 36.8454 75.6354 36.4163C74.9152 36.1668 74.3291 36.1382 73.6307 35.7485C72.8612 35.3191 72.4775 34.8323 71.5319 34.7827C70.0087 34.7028 68.5926 36.3144 67.0734 35.5674C65.8842 34.9826 65.8292 33.2191 64.628 32.6599C63.05 31.9253 62.4575 33.4969 61.2942 34.0828C59.7328 34.8692 58.3448 33.7741 56.7856 33.7782C54.8807 33.7832 54.7903 35.4145 53.2211 35.9032C51.3502 36.4858 51.0842 34.5736 49.8273 33.8527C48.4611 33.0691 47.1573 34.0152 45.8206 34.312C44.8737 34.5223 44.3818 34.4259 43.6091 35.0628C43.071 35.5064 42.8741 36.3327 42.2464 36.6966C40.7271 37.5774 40.122 36.4627 39.1672 35.5184C37.9599 34.3244 36.7155 34.368 35.0425 34.2263C33.343 34.0823 31.8458 34.4637 30.251 34.9663C28.788 35.4273 28.5919 35.9692 27.9517 37.4117C27.513 38.4001 27.1419 39.9192 25.7982 39.7833C24.3344 39.6352 24.1864 37.5659 22.992 36.986C20.4778 35.7653 18.5078 40.0233 17.0324 36.1748C16.4171 34.5699 16.0517 29.9564 13.6017 31.9154C12.7497 32.5967 12.4586 34.1428 11.3093 34.4666C10.6726 34.646 7.30647 34.5057 6.76587 34.1245C4.69547 32.6644 9.05657 29.8896 7.91227 28.0727C6.96677 26.5714 1.93677 27.5659 1.59407 25.655C1.20567 23.4889 6.64847 24.3008 6.36727 22.0037C6.21407 20.7526 4.34807 20.6777 3.61847 19.9365C3.12157 19.4316 3.22337 19.1362 2.94167 18.5214C2.63347 17.8489 2.03017 17.2009 1.78087 16.5142C0.847071 13.942 5.83357 14.3295 7.41907 13.8668C10.2285 13.0469 7.93277 10.9561 6.78057 9.33223C6.42807 8.83543 5.03157 7.31323 5.21087 6.60413C5.52357 5.36693 7.41757 6.09203 8.32127 6.26633C9.83687 6.55863 10.6775 6.86963 11.8199 5.71153C12.7722 4.74613 13.3629 2.71153 14.982 2.84723C16.1938 2.94883 17.0148 4.50833 18.1427 4.94143C18.8609 5.21723 19.4521 5.26953 20.1474 5.62263C20.8852 5.99723 21.4458 6.83613 22.4236 6.56713C24.7365 5.93093 23.8121 2.09543 26.4381 1.48513C27.7255 1.18593 29.8795 0.971229 31.068 1.55483C31.6473 1.83923 32.029 2.41663 32.6311 2.68213C33.4978 3.06433 34.0771 2.84573 34.8123 3.49263C35.6928 4.26733 35.8708 5.43593 36.9234 6.09663C37.496 6.45603 37.948 6.22623 38.521 6.75033C39.0054 7.19333 39.1822 7.94273 39.5301 8.47793C41.3531 11.2822 42.3 8.77773 42.7925 6.70833C43.0763 5.51573 43.3776 0.837529 45.1415 0.922029C47.2709 1.02413 46.4827 5.81723 48.5976 6.16613C50.7056 6.51383 51.7892 0.691929 53.7283 4.18083C54.3535 5.30563 54.6655 10.1262 56.5952 9.75433C58.1564 9.45343 58.421 4.60693 58.9348 3.43863C59.4952 2.16433 59.8012 1.90483 61.2455 2.13023C62.2875 2.29283 64.0008 2.49763 64.7779 3.17073C65.8698 4.11653 65.9695 9.17113 68.1151 8.35843C70.0276 7.63403 69.3266 3.38193 70.6748 2.06993C72.5879 0.208229 73.1754 4.60993 73.4752 5.84503C73.6955 6.75233 73.8288 8.27833 74.4739 9.00793C75.5198 10.1909 76.2621 9.32493 77.4165 8.65503C78.6134 7.96043 80.0589 7.43243 81.3344 6.82853C83.2734 5.91043 84.8085 7.18983 86.5522 8.10033C88.3043 9.01523 92.5867 8.74273 91.799 11.465C91.428 12.7471 90.399 14.1376 89.8221 15.3402C89.1162 16.8118 88.2928 16.6643 87.0927 17.6842C84.3254 20.0361 89.598 20.2893 90.6728 21.4577C91.101 21.9231 90.8988 22.2853 91.1831 22.7601C91.5569 23.3844 92.0864 23.6389 92.5047 24.1932C93.5418 25.5673 93.0335 26.1301 91.6811 26.8839C90.6189 27.4759 89.0172 27.7222 88.1367 28.59C86.8033 29.9041 87.4787 32.0848 85.7376 33.2447C84.3753 34.1522 82.88 33.9181 81.7861 35.2479C81.1174 36.0606 80.3965 38.2816 79.1107 38.2816Z" fill="#A87A29"/>
<path id="Vector_2" d="M79.1109 38.4317C77.7313 38.4361 77.1538 37.1743 76.015 36.665C75.4664 36.4196 74.8061 36.5799 74.2324 36.3438C73.7469 36.144 73.4232 35.693 72.9648 35.4702C70.4305 34.2384 68.0393 37.3837 65.9727 34.8999C64.9552 33.6769 64.6924 32.2847 62.8514 33.2709C61.5824 33.9507 61.4529 34.8578 59.7385 34.8711C58.6748 34.8793 57.5677 34.1748 56.5147 34.3637C55.0642 34.6239 54.6907 36.2452 53.2656 36.6391C51.4395 37.1439 50.9895 35.7517 49.7843 34.9614C48.707 34.2551 48.3718 34.4998 47.2301 34.8539C46.2027 35.1725 45.187 35.2065 44.3519 35.8322C43.173 36.7155 43.2563 38.0216 41.4043 38.1781C39.2663 38.3587 38.6524 36.102 36.8791 35.7183C35.8623 35.4983 34.4367 35.3951 33.3969 35.5351C32.6734 35.6325 30.1922 36.2418 29.9656 36.4135C29.2833 36.5014 28.4443 40.7019 26.7552 41.1967C25.7603 41.4882 24.8106 41.2063 24.0026 40.5507C23.4899 40.1347 23.1063 38.9506 22.5702 38.6635C21.2506 37.9568 20.0586 39.7771 18.3787 39.5741C14.823 39.1444 15.9401 34.6939 14.1685 32.6914C14.2746 32.8457 14.8215 32.9502 14.9443 32.8416C13.9524 33.7192 13.5129 35.2552 12.2302 35.8223C11.2577 36.2523 9.68983 35.8989 8.61913 35.8965C7.04943 35.8929 5.12773 35.736 4.66233 33.9192C4.19923 32.1113 5.86173 30.1188 6.53753 28.5743C6.47213 28.7698 6.72333 29.1396 6.86673 29.2336C5.01763 28.0213 1.47953 28.7662 0.306835 26.5007C-1.23077 23.5304 3.42743 22.6592 5.05603 21.8358C4.91433 21.878 4.95103 22.3069 4.98063 22.3608C4.39163 21.2895 2.47413 21.2826 1.83443 19.9318C1.62913 19.4983 1.72463 18.9895 1.53423 18.5807C1.19263 17.8476 0.549135 17.4276 0.314535 16.5929C-0.960166 12.0577 5.98163 13.9106 7.89013 12.3502C7.70663 12.5317 7.61673 12.7501 7.62033 13.0052C7.23243 10.8904 2.50843 7.77379 4.38893 5.45479C5.99783 3.47069 8.69343 6.05939 10.4913 5.47209C11.3461 5.19289 12.0586 3.50019 12.6807 2.88889C14.3837 1.21539 15.6327 1.89579 17.2293 3.20929C18.3373 4.12089 19.6777 4.45479 20.9633 5.18429C22.0238 5.78609 21.9891 5.92369 22.7552 5.28829C23.969 4.28149 23.5813 2.05709 25.1106 1.13589C26.0976 0.541386 27.8577 0.624486 28.9823 0.609086C30.9093 0.582586 31.5878 1.53099 33.188 2.29159C34.0165 2.68529 34.6361 2.58559 35.3358 3.30759C35.9234 3.91399 36.0967 4.93719 36.7952 5.44699C37.9756 6.30859 38.7208 6.18809 39.6337 7.64679C40.4884 9.01249 40.9234 10.0857 41.8562 8.33809C42.5837 6.97509 43.0418 -1.73581 46.1484 0.978386C47.2609 1.95029 47.1018 4.95589 48.4421 5.53249C49.7125 6.07899 50.2145 3.86609 50.9227 3.23179C54.6295 -0.0884142 56.136 9.12479 56.2974 9.00189C57.3663 8.64299 57.6736 3.93229 58.1217 2.89469C59.0417 0.764586 60.3025 0.935986 62.2676 1.33509C63.1612 1.51659 64.5065 1.54449 65.2615 2.09379C66.8518 3.25109 66.7633 5.79499 67.8898 7.27869C67.8473 7.16979 67.4104 7.31859 67.4534 7.30939C67.1739 6.92359 69.3304 1.56139 69.7064 1.13309C73.6832 -3.39731 74.7236 7.02779 75.6939 8.41379C75.5723 8.36859 75.4465 8.33959 75.3163 8.32669C76.4394 8.13269 77.4858 7.11689 78.6244 6.72359C79.2398 6.51099 79.6273 6.38099 80.2327 6.04129C83.0197 4.47719 84.5041 5.70559 87.1824 7.07779C88.855 7.93479 92.6215 7.93639 93.038 10.2204C93.3353 11.8511 91.657 13.3227 91.025 14.6651C90.5878 15.5938 90.5103 16.5189 89.6764 17.2209C89.2638 17.5683 86.9021 18.1767 86.9388 18.9154C86.9798 19.7395 89.9543 20.2629 90.5276 20.6926C91.5273 21.4418 91.6668 22.4334 92.3321 23.4268C93.0709 24.5301 94.0722 25.1162 93.1115 26.4178C92.1358 27.7399 89.7928 27.6399 88.5709 28.6462C87.2598 29.726 87.7311 31.5235 86.6222 32.784C85.4913 34.0694 83.562 33.7947 82.3255 34.8492C81.2756 35.7448 80.7633 38.3629 79.1109 38.4317ZM79.1109 38.1317C80.6704 38.0728 81.7227 34.676 83.1664 33.9618C84.1068 33.4966 85.2313 33.5252 86.0319 32.7624C86.9313 31.9055 86.8307 30.8577 87.1929 29.7685C87.9297 27.5528 90.2356 27.6831 91.8744 26.3614C93.228 25.2696 92.5321 25.1607 91.475 23.9468C90.1939 22.4757 90.8033 21.9847 88.843 21.2455C87.3301 20.675 84.4966 19.9126 85.9237 17.7435C86.7125 16.5446 88.2961 16.4353 88.9657 15.2114C89.5013 14.2324 91.0262 11.7318 91.0295 10.568C91.027 10.605 91.0393 10.635 91.0662 10.6578C89.4464 10.4799 87.3197 9.83059 85.8813 9.06469C84.7896 8.48339 83.4838 8.18029 82.4222 7.57439C82.4341 7.58159 81.0672 8.63959 80.7638 8.79379C80.1548 9.10329 79.5155 9.08209 78.9265 9.31509C78.2262 9.59209 77.7651 10.1785 77.0884 10.5261C75.2266 11.4826 73.7511 10.7423 72.9377 8.87779C72.3252 7.47379 72.3815 3.59639 71.1176 2.69849C71.2541 2.88039 71.7065 2.81949 71.8252 2.73259C70.5106 4.06409 70.7881 6.87499 69.7143 8.42319C66.4458 13.1359 64.9836 5.28309 63.8436 3.78069C63.8463 3.77649 63.9394 3.80199 63.9308 3.78049C62.6186 3.74389 61.4628 3.04299 60.1677 3.02099C58.6445 3.45689 59.2715 9.39319 57.0962 10.4057C53.587 12.0391 54.3954 4.86079 52.8559 3.93339C50.986 2.80689 49.763 9.40499 47.1233 5.47149C46.6879 4.82269 46.1172 1.41399 45.0423 1.38629C44.0649 1.36109 43.6526 4.88909 43.5052 5.55639C43.2335 6.78559 42.9864 9.80209 41.523 10.2425C39.5053 10.8498 39.2647 8.05399 38.2114 7.14309C37.1144 6.19449 36.0906 6.25449 35.1235 4.92369C34.0757 3.48179 33.4556 3.74619 31.947 2.95429C30.3841 2.13389 29.8672 1.83219 28.0123 2.01419C27.114 2.10229 26.2526 1.96339 25.6149 2.55839C24.5348 3.56629 24.7893 5.63559 23.6807 6.71239C22.4165 7.94049 21.1825 7.19119 19.8551 6.49899C18.382 5.73089 17.2237 5.50609 15.8149 4.49069C14.6501 3.65109 14.6878 3.67169 13.7684 4.83729C12.7679 6.10569 12.1894 7.52949 10.4268 7.72339C9.92904 7.77829 6.36903 7.50469 6.04413 7.12769C6.24213 7.10859 6.49443 6.57159 6.40853 6.45639C7.52643 7.95729 10.6384 11.3288 10.1688 13.2896C9.48063 16.1636 4.68933 15.1406 2.63563 16.23C2.80193 16.2049 2.93843 15.6258 2.92673 15.5445C3.18483 16.6661 4.08993 17.6536 4.41763 18.8679C4.41283 18.8184 4.40403 18.7696 4.39133 18.7216C5.81273 19.9933 8.92843 20.6076 7.57853 23.3003C7.13103 24.1929 3.85173 26.2466 2.94113 25.9414C3.20583 25.7191 3.06913 25.0165 2.78903 24.837C4.59313 26.2803 8.24683 25.1139 9.43804 27.5912C10.2788 29.3399 8.57843 31.9228 7.78443 33.397C7.82133 33.24 7.58403 32.622 7.37693 32.6497C8.65453 32.6656 10.3464 32.3854 11.5555 32.9281C11.3382 32.8311 10.9393 32.8263 10.7562 32.9902C12.1026 31.4582 13.3852 28.7101 15.876 30.0198C18.389 31.3411 17.1964 34.9327 18.9305 36.5874C18.8016 36.4965 18.6567 36.447 18.4956 36.439C20.385 36.4688 21.582 34.5396 23.6732 35.5924C24.6717 36.0951 25.5178 37.3714 26.0561 38.3162C25.9794 38.2922 25.9 38.336 25.8341 38.3692C27.1012 36.3683 27.2192 34.2757 29.81 33.5732C32.3902 32.8736 34.9077 32.5748 37.588 33.1678C39.2816 33.5425 39.2941 34.3864 40.5191 35.2924C41.9686 36.3644 41.9116 35.0059 43.1149 34.0759C44.7098 32.8432 48.9276 32.2331 50.5045 33.3425C52.0751 34.4475 51.9409 36.0957 53.9856 34.4266C55.3519 33.3113 56.0864 33.0065 57.8553 33.3467C59.016 33.5699 59.9445 34.1679 61.1416 33.6286C62.8262 32.8697 63.3856 31.2075 65.3509 32.8337C66.5849 33.8548 66.3237 35.4501 68.2146 35.4584C69.6125 35.4645 70.6208 34.2674 72.1325 34.6445C73.2718 34.9287 74.4011 35.7995 75.497 36.2095C76.6794 36.6518 77.8549 38.1127 79.1109 38.1317Z" fill="#705C09"/>
</g>
</svg>
