<svg width="90" height="95" viewBox="0 0 90 95" fill="none" xmlns="http://www.w3.org/2000/svg">
<g id="R-ICO-013420">
<g id="BG">
<path id="BG_2" d="M82.0938 68.7085C79.3558 73.9395 72.7708 80.8105 68.7458 84.5665C61.5938 91.2685 56.3558 89.3755 46.6538 92.7565C38.2869 95.6665 29.4748 92.7365 21.5508 88.5895C12.9368 84.0805 8.32483 76.7335 4.61483 68.1915C1.00283 59.8615 0.016825 51.3995 1.77982 41.8935C2.67882 37.0455 2.47182 31.2015 4.90082 26.5615C8.78382 19.1425 14.9318 13.1325 21.8638 11.9385C26.6429 11.1235 32.7998 4.62154 37.9728 3.22854C47.9387 0.546539 56.7569 -1.64646 65.3478 4.88454C69.7918 8.26754 75.9499 9.72854 79.5947 14.8405C83.4518 20.2715 86.9857 28.4005 88.0907 35.1315C88.9067 40.0605 86.7177 46.5725 85.9268 51.7165C85.115 57.0735 84.7719 63.5905 82.0938 68.7085Z" fill="url(#paint0_radial_938_25217)"/>
<path id="MEMBRANE" d="M82.4948 68.9185C82.6918 68.5415 82.8588 68.1475 83.0358 67.7595C83.0428 67.7465 83.0487 67.7345 83.0558 67.7215C83.0758 67.6835 83.0918 67.6285 83.1118 67.5905C83.1738 67.4465 83.2399 67.3205 83.2919 67.1715C84.2909 64.9875 84.9449 62.6855 85.4219 60.4205C85.951 57.9575 86.2509 55.5035 86.628 53.1055C86.961 50.7165 87.488 48.3815 88.0371 45.9295C88.5351 43.4995 89.0402 41.0075 89.1421 38.4815C89.1851 37.2225 89.1321 35.9455 88.9071 34.7215C88.6931 33.5525 88.4051 32.4245 88.0771 31.3235C87.4392 29.2115 86.6521 27.1815 85.7491 25.2505C84.1821 21.3545 82.1821 17.5365 79.9941 14.4525C79.9521 14.3825 79.8861 14.3325 79.8441 14.2625C78.8591 12.7375 77.6261 11.4355 76.2651 10.3545C73.4621 8.11851 70.2161 6.75651 67.3861 4.92251C66.0151 4.06051 64.576 2.87551 62.982 2.08851C61.384 1.28451 59.694 0.655505 57.91 0.331505C56.2931 0.0135053 54.6259 -0.0574947 52.948 0.0415053C49.524 -0.0044947 46.04 0.639505 42.4919 1.50551C41.1289 1.70551 39.7699 1.97151 38.4189 2.27351C36.9578 2.53451 35.4158 3.20151 34.0449 3.94151C32.6509 4.70151 31.3369 5.58351 30.0399 6.45851C28.7569 7.35651 27.4869 8.2305 26.2229 9.04251C24.9629 9.87251 23.6719 10.5595 22.4009 10.9835L21.9169 11.1305L21.3749 11.2635C21.0099 11.3605 20.6378 11.4705 20.279 11.6035C19.586 11.8495 18.905 12.1495 18.248 12.4785C14.026 14.2575 10.001 17.7895 6.776 22.5745C5.906 23.7855 5.092 25.0415 4.346 26.3655C3.503 27.9265 2.934 29.6155 2.541 31.2675C1.742 34.5975 1.591 37.8675 1.054 40.9985C0.426 44.1785 0.009 47.5805 0 50.8275C0.012 54.0855 0.363 57.2975 1.072 60.3275C1.797 63.3505 2.806 66.2335 4.073 68.8985C5.249 71.4365 6.569 73.8735 8.078 76.1525C10.92 80.8925 14.765 85.3715 20.45 88.5875C20.46 88.5925 20.471 88.5985 20.481 88.6035C22.9581 90.1085 25.521 91.4495 28.232 92.5325C30.924 93.6525 33.789 94.4155 36.77 94.8065C39.764 95.1235 42.93 94.9865 46.078 94.0075C46.89 93.7595 47.593 93.5185 48.323 93.2755C49.057 93.0505 49.801 92.8315 50.532 92.6375C52.011 92.2415 53.501 91.9485 55.006 91.6305C57.99 91.0135 61.169 90.4505 64.2 88.7685C65.712 87.9585 67.129 86.9055 68.414 85.7035C69.642 84.5845 70.747 83.4005 71.869 82.2095C75.0909 78.9325 80.1059 73.4836 82.4948 68.9185ZM63.7209 87.3036C60.9429 88.6536 57.9809 89.1536 54.9469 89.6636C53.4319 89.9276 51.9069 90.2356 50.3709 90.6166C49.603 90.8076 48.8309 91.0286 48.0699 91.2546C47.3129 91.4986 46.5219 91.7576 45.828 91.9556C42.9709 92.8796 40.03 93.0386 37.1801 92.7966C34.3201 92.5496 31.5511 91.8526 28.8501 90.9516C26.2852 90.0416 23.7282 89.0396 21.2931 87.8296C15.6091 84.7106 11.7661 80.2806 8.9341 75.5946C7.6241 73.1626 6.4651 70.6176 5.3931 68.0066C3.2061 62.6166 1.8151 56.7306 1.8711 50.5116C1.8681 47.3866 2.2231 44.3036 2.7991 41.0486C3.2521 37.7286 3.3671 34.5536 3.9521 31.4316C4.2451 29.8706 4.7051 28.3656 5.3731 26.9366C6.0521 25.5136 6.8471 24.1196 7.7121 22.7936C10.7901 18.3656 14.5691 15.1046 18.5181 13.4706C19.1371 13.2656 19.7461 13.1036 20.3721 12.9836L21.3921 12.8126C21.7141 12.7726 22.087 12.7116 22.4841 12.6306C25.606 11.9256 28.2441 9.94261 30.8161 8.26061C32.0921 7.37461 33.3631 6.50161 34.6381 5.74361C35.9231 4.94261 37.1541 4.36861 38.5301 3.91961L42.6711 2.54661C45.9751 1.74461 49.2221 1.15361 52.4071 1.15461C54.123 1.28361 55.7891 1.53061 57.3821 1.99561C58.999 2.48961 60.5491 3.10861 61.9921 3.95961C63.4711 4.7656 64.7271 5.82361 66.2511 6.84561C69.269 8.74561 72.4832 9.99461 75.3221 11.8336C76.6842 12.7386 77.97 13.7636 79.0661 15.0266C79.1081 15.0966 79.1732 15.1466 79.2151 15.2166C81.3611 18.2306 83.3261 21.9666 84.8471 25.7736C85.5451 27.8216 86.1491 29.8996 86.6451 32.0336C86.892 33.1396 87.1012 34.2426 87.267 35.3546C87.425 36.4306 87.434 37.5406 87.342 38.6936C87.191 40.9856 86.702 43.3726 86.18 45.7746C85.681 48.1566 85.126 50.6696 84.835 53.1286C84.5509 55.5756 84.293 57.9716 83.961 60.3606C83.603 62.6726 83.137 64.9916 82.2809 67.2026C82.0949 67.6336 81.9019 68.0776 81.685 68.4926C79.658 72.3656 75.368 77.3296 71.295 81.4296C68.8739 83.7206 66.4559 86.0115 63.7209 87.3036Z" fill="#272E87"/>
</g>
<g id="Nucleus">
<path id="Vector" d="M56.6964 38.0454C63.3962 38.0454 68.8274 32.6142 68.8274 25.9144C68.8274 19.2147 63.3962 13.7834 56.6964 13.7834C49.9967 13.7834 44.5654 19.2147 44.5654 25.9144C44.5654 32.6142 49.9967 38.0454 56.6964 38.0454Z" fill="url(#paint1_radial_938_25217)"/>
<path id="Vector_2" d="M56.6961 38.4435C49.7851 38.4435 44.167 32.8255 44.167 25.9145C44.167 19.0035 49.785 13.3855 56.6961 13.3855C63.6072 13.3855 69.2252 19.0035 69.2252 25.9145C69.2251 32.8255 63.6071 38.4435 56.6961 38.4435ZM56.6961 14.1675C50.2201 14.1675 44.9501 19.4375 44.9501 25.9135C44.9501 32.3895 50.2201 37.6595 56.6961 37.6595C63.1721 37.6595 68.4421 32.3895 68.4421 25.9135C68.443 19.4385 63.172 14.1675 56.6961 14.1675Z" fill="#935491"/>
</g>
</g>
<defs>
<radialGradient id="paint0_radial_938_25217" cx="0" cy="0" r="1" gradientTransform="matrix(40.3934 34.1745 -27.467 43.8099 24.0346 26.9447)" gradientUnits="userSpaceOnUse">
<stop offset="0.0005" stop-color="#C6CCE0"/>
<stop offset="1" stop-color="#B873BB"/>
</radialGradient>
<radialGradient id="paint1_radial_938_25217" cx="0" cy="0" r="1" gradientUnits="userSpaceOnUse" gradientTransform="translate(52.7342 22.9906) scale(12.0115 16.6455)">
<stop offset="0.0005" stop-color="#C6CCE0"/>
<stop offset="0.0496" stop-color="#C7C4D8"/>
<stop offset="0.2196" stop-color="#C9B0C4"/>
<stop offset="0.4109" stop-color="#CAA1B5"/>
<stop offset="0.639" stop-color="#CB99AD"/>
<stop offset="1" stop-color="#CB96AA"/>
</radialGradient>
</defs>
</svg>
