<svg width="52" height="23" viewBox="0 0 52 23" fill="none" xmlns="http://www.w3.org/2000/svg">
<g id="R-ICO-012916">
<g id="PROTEIN">
<path d="M1.47339 1.5H40.4734C45.9962 1.5 50.4734 5.97715 50.4734 11.5C50.4734 17.0228 45.9962 21.5 40.4734 21.5H1.47339V1.5Z" fill="url(#paint0_linear_938_23145)"/>
<path d="M8.11932 0.0073446C18.904 0.125569 29.6887 0.477173 40.4734 1.35999C40.4734 1.45336 40.4734 1.54672 40.4734 1.64009C29.6887 2.52291 18.904 2.87451 8.11932 2.99274C5.90406 3.00826 3.68873 2.99762 1.47339 2.97298L2.94637 1.5C2.91104 4.67719 2.84692 7.85441 2.78987 11.0316C2.737 14.521 2.63451 18.0105 2.49594 21.5L1.47339 20.4775C3.37608 20.553 5.2788 20.6393 7.18151 20.7341C12.5739 20.9779 17.9667 21.1534 23.359 21.047C28.7514 20.944 34.1442 20.5355 39.5365 20.3352C39.8488 20.3257 40.1611 20.3172 40.4734 20.3094C44.9868 20.2706 49.0905 16.507 49.3795 11.919C49.3904 11.7804 49.3983 11.6407 49.403 11.5C49.6692 6.7816 45.7249 2.05454 40.4734 1.64009C40.4734 1.54672 40.4734 1.45336 40.4734 1.35999C45.8748 0.686417 51.5365 5.56537 51.5436 11.5C51.5484 11.6737 51.549 11.8467 51.5456 12.019C51.5828 17.7454 46.2773 22.9635 40.4734 22.6905C40.1611 22.6828 39.8488 22.6742 39.5365 22.6647C34.1441 22.4644 28.7514 22.0572 23.359 21.9543C17.9667 21.8479 12.574 22.0221 7.18151 22.2658C5.27881 22.3607 3.37611 22.447 1.47339 22.5225C0.895115 22.5359 0.464266 22.0783 0.450861 21.5C0.312288 18.0105 0.209864 14.521 0.156988 11.0316C0.0999439 7.85446 0.0357234 4.67722 0.000368595 1.5C-0.018942 0.666958 0.640346 0.0462906 1.47339 0.0269799C3.68873 0.00232852 5.90406 -0.00828922 8.11932 0.0073446Z" fill="#A4EF84"/>
<text id="P" fill="white" xml:space="preserve" style="white-space: pre" font-family="Arial" font-size="12" font-weight="bold" letter-spacing="0em"><tspan x="8.9519" y="15.6602">ISG15</tspan></text>
</g>
</g>
<defs>
<linearGradient id="paint0_linear_938_23145" x1="25.9734" y1="1.5" x2="25.9734" y2="21.5" gradientUnits="userSpaceOnUse">
<stop stop-color="#A4EF84"/>
<stop offset="1" stop-color="#244117"/>
</linearGradient>
</defs>
</svg>
