<svg width="97" height="108" viewBox="0 0 97 108" fill="none" xmlns="http://www.w3.org/2000/svg">
<g id="R-ICO-013958">
<path id="BG" d="M84.652 105.645C84.5789 104.978 84.4731 104.304 84.2029 103.686C83.8909 102.971 83.3636 102.499 82.8393 101.945C81.7735 100.818 80.5836 99.9429 80.1212 98.397C79.7505 97.1574 79.627 95.7358 79.95 94.4741C80.3275 92.9995 80.7062 91.5825 80.3385 90.0533C80.7833 90.6177 81.238 91.1768 81.7514 91.6809C82.2771 92.1971 82.944 92.5263 83.4686 93.0217C83.9497 93.4759 84.1632 94.139 84.3902 94.7402C84.6574 95.4478 84.9058 96.1174 85.0412 96.8663C85.3875 98.7823 86.0392 101.452 88.3504 101.851C88.7206 101.915 89.3044 101.821 89.2104 101.32C89.1205 100.841 88.3593 100.675 88.0004 100.515C86.7199 99.9431 86.1467 98.7263 85.8496 97.427C85.6096 96.3778 85.6159 95.3072 85.1007 94.3377C84.8089 93.7885 84.5041 93.2457 84.2046 92.7005C84.2312 92.7049 84.2587 92.7091 84.2852 92.7135C85.5992 92.9326 86.8405 93.1396 87.9227 92.4385C88.7466 91.9048 89.9073 93.5643 90.1316 93.9024C90.2848 94.1328 90.5984 94.198 90.8305 94.0438C91.0626 93.8899 91.126 93.577 90.9721 93.3449C89.768 91.5292 88.4568 90.8907 87.3744 91.5919C86.6206 92.0804 85.6152 91.9127 84.4511 91.7186C84.0461 91.651 83.6271 91.5816 83.196 91.5361C82.9863 91.446 82.77 91.3551 82.6012 91.2183C81.4078 90.2512 80.8149 88.6579 80.2559 87.279C80.5927 87.4879 81.0336 87.7152 82.3461 87.7091C83.6586 87.703 86.1846 86.9995 87.5988 85.9562C88.2018 86.0489 88.8348 86.439 89.502 86.8539C90.5048 87.4774 91.5421 88.1223 92.6873 87.8432C94.462 87.4106 96.1145 86.2716 96.184 86.2235C96.4125 86.0646 96.4691 85.7506 96.3104 85.522C96.1523 85.2937 95.8375 85.2366 95.6087 85.3951C95.5931 85.4059 94.0373 86.4762 92.4483 86.8634C91.7148 87.0423 90.8986 86.5349 90.0344 85.9976C89.5203 85.6779 88.9947 85.3528 88.4451 85.1452C88.5983 84.9469 88.7272 84.7367 88.8247 84.513C88.988 84.1381 89.1372 83.7441 89.2814 83.363C89.939 81.626 90.56 79.9854 92.6352 79.2053C92.8959 79.1074 93.0278 78.8165 92.9297 78.5558C92.8321 78.2956 92.5407 78.1634 92.2803 78.2613C89.7781 79.2019 89.013 81.2229 88.3381 83.0061C88.1917 83.3926 88.0534 83.7578 87.8999 84.1101C87.1653 85.7962 83.6997 86.682 81.5889 86.7499C81.533 86.7517 79.9732 86.1557 79.3438 85.6185C80.1553 85.7094 81.0095 85.5813 82.3122 84.2504C83.9702 82.5565 84.2874 79.6244 84.3068 76.6304C84.3131 75.6531 84.4179 74.963 84.6044 74.3744C85.0488 73.6307 85.4742 72.8766 85.815 72.0938C85.9607 71.7592 86.3979 71.2459 86.1979 70.8958C85.9253 70.4185 85.215 70.5839 84.9269 70.9333C84.6326 71.2901 84.4649 71.9206 84.298 72.3431C84.1861 72.6263 84.0846 72.9134 83.9887 73.2023C83.5736 74.0642 83.3086 75.0249 83.2982 76.6237C83.2803 79.3946 83.09 82.1748 81.6184 83.5184C80.5547 84.4896 79.4714 85.0546 78.3258 84.6679C77.5176 84.3951 76.7814 83.4893 76.1443 82.928C75.3843 82.2584 74.6259 81.5862 73.8396 80.9473C71.2125 78.8129 68.0332 77.5174 64.6638 77.1503C61.0139 76.7526 57.2676 76.9431 53.6007 76.8454C51.4658 76.7886 49.5278 76.2428 47.4586 75.7427C46.5698 75.5279 45.8874 75.315 45.0657 74.8757C44.259 74.4444 43.5878 73.9476 42.8683 73.3945C41.166 72.0861 39.3007 70.8745 38.1368 69.012C37.2651 67.6171 36.4612 66.1014 35.7317 64.6274C35.102 63.355 34.7161 61.883 34.3576 60.5111C33.9167 58.8237 33.6694 57.0294 34.0839 55.3061C34.2802 54.4901 35.2272 53.716 35.9119 53.2603C36.3875 52.9437 36.9125 52.7328 37.4517 52.5519C38.2237 52.293 39.108 52.0019 39.801 51.7602C40.7682 51.4228 41.9613 51.1915 42.9374 51.6115C44.5432 52.3025 44.4741 54.6299 42.9222 55.3854C42.2257 55.7245 41.544 55.4181 40.9389 55.255C40.0886 55.0259 39.2999 55.387 38.7562 56.0476C38.7723 56.0639 38.7883 56.0801 38.8044 56.0964C39.3898 55.6295 40.3093 55.6752 40.9245 55.7366C41.8483 55.8288 42.9871 56.5113 43.1547 57.4874C43.333 58.5259 42.8516 59.8236 42.4578 60.7621C42.1548 61.4843 41.5422 62.3114 40.8621 62.8135C40.8708 62.8341 40.8795 62.8547 40.8881 62.8753C42.2849 62.6517 42.76 61.2472 43.1347 60.1485C43.6186 61.7868 44.7855 63.049 45.1197 64.6723C45.7937 63.8749 44.6999 62.4326 44.3169 61.7494C43.9641 61.12 43.6044 60.4659 43.4573 59.7525C43.3055 59.0166 43.5036 58.057 43.5842 57.3031C43.7256 55.9802 44.403 54.5242 45.9651 54.564C47.0705 54.5921 48.3097 56.8998 48.2875 56.8998C48.6827 57.4989 48.8988 58.3094 49.1044 58.8785C49.5527 60.1192 49.7937 61.3209 50.4723 62.4806C51.093 63.5413 50.5816 64.7874 50.3827 65.9018C50.2958 66.3886 49.9239 67.6574 50.4073 68.0253C50.6309 67.4366 50.7052 67.0111 50.7301 66.4601C50.7796 65.365 51.2568 64.3977 51.1559 63.2704C51.9584 63.9963 52.9721 64.4438 53.7637 65.1745C54.1883 65.5665 54.6668 66.3206 54.8926 66.9119C54.9148 66.909 54.937 66.9062 54.9593 66.9033C55.2052 64.7492 52.5447 64.0885 51.2883 62.8263C50.522 62.0565 50.1066 60.9328 49.7994 59.9109C49.666 59.4671 49.5261 59.0028 49.4509 58.5448C49.4288 58.4102 49.3734 58.089 49.4493 57.9619C49.6238 57.6697 50.3699 57.9141 50.5824 57.9728C51.16 58.1324 51.699 58.3109 52.2992 58.391C53.1891 58.5097 54.12 58.6045 54.971 58.9157C55.7255 59.1916 56.299 59.7442 56.63 60.4689C56.8867 61.0309 57.3043 61.7703 57.553 62.4246C57.5752 62.4215 57.5974 62.4183 57.6196 62.4152C57.7274 61.1147 56.8819 59.5596 55.7771 58.8607C54.0844 57.79 51.8698 58.3076 50.1497 57.2907C49.6418 56.9904 48.7419 56.4389 48.7021 55.747C48.6413 54.6899 50.2424 54.5598 50.9196 54.328C51.3668 54.1749 51.6907 54.1591 52.1053 53.9708C52.5117 53.7863 52.8739 53.5112 53.2631 53.2939C54.1555 52.7958 55.1309 52.5715 56.0926 53.03C56.1045 53.0105 56.1164 52.9909 56.1283 52.9714C54.103 51.4303 51.9624 53.8427 49.9954 54.1596C48.5822 54.3873 47.455 53.4597 46.9486 52.1994C46.4304 50.9095 45.9607 49.1389 46.6542 47.8392C47.3491 46.5367 49.1083 45.9575 50.4791 45.8117C51.7911 45.6722 53.2185 45.8462 54.4905 46.1541C57.4868 46.8792 60.5447 48.3546 62.3248 50.9522C63.2349 52.2803 63.8589 53.8982 64.1213 55.4929C64.3233 56.72 64.7198 58.2303 65.6556 59.226C65.6738 59.212 65.6919 59.198 65.7101 59.184C65.3671 58.6381 65.1078 58.0422 64.9186 57.4267C64.824 57.1191 64.7476 56.8067 64.687 56.4907C64.6417 56.2542 64.4365 55.5862 64.5395 55.3731C64.8409 54.7494 66.8089 55.5575 67.4427 55.3604C67.3975 55.344 68.857 55.0476 69.0386 55.0532C69.4171 55.0649 69.7877 55.1496 70.0994 55.3763C70.116 55.361 70.1326 55.3458 70.1492 55.3305C69.6909 54.5807 68.8972 54.4793 68.1873 54.6817C67.4425 54.894 67.0349 54.8574 66.3177 54.6538C65.9506 54.5496 65.3404 54.4966 65.0597 54.2477C64.6791 53.9102 64.3873 53.2286 64.1165 52.7964C63.9126 52.4709 63.8184 52.1434 63.6962 51.7747C63.5712 51.3975 63.2907 50.8942 63.3336 50.498C63.399 49.8945 63.8397 49.2048 64.3815 49.0138C65.3954 48.6563 66.4336 48.3764 67.4401 47.8787C68.0012 47.6013 68.4169 47.3884 69.0481 47.3154C69.6265 47.2486 70.2324 47.2439 70.7847 47.4515C71.6323 47.77 72.2566 48.696 73.3208 48.7994C73.3273 48.7778 73.3338 48.7562 73.3403 48.7346C72.5679 48.3283 72.0147 47.553 71.2792 47.2205C70.4261 46.8348 69.5835 46.8044 68.6649 46.9514C69.1892 46.2822 69.6091 45.5694 69.813 44.7387C69.9941 44.0011 70.2376 43.1996 70.7035 42.5818C71.2408 41.8693 72.1592 41.7777 72.9492 41.4528C71.7291 41.1111 70.7192 41.6577 70.1081 42.7581C69.1918 44.408 69.2462 46.5045 67.3554 47.4584C66.4886 47.8957 65.4507 48.4398 64.4658 48.5034C63.6327 48.5571 62.7639 48.3556 61.9794 48.0938C60.8918 47.7308 59.125 47.0199 58.5952 45.9497C58.2553 45.2631 58.5324 44.6644 59.0925 44.2418C59.758 43.7397 60.227 42.8517 60.4349 42.0631C60.8565 41.8847 61.2503 41.5558 61.7342 41.5422C62.1995 41.5291 62.5551 41.8262 62.9851 41.9419C63.2567 42.015 63.5123 41.9616 63.7805 41.9943C63.9645 42.0167 64.0908 42.1119 64.2859 42.118C64.6063 42.1279 65.3652 41.6965 65.066 41.3033C64.9434 41.1422 64.2108 41.1075 64.0209 41.2166C63.8424 41.3191 63.4359 41.594 63.3113 41.577C62.8275 41.5109 62.4299 41.1913 61.9378 41.1413C61.4219 41.0889 60.9977 41.301 60.5581 41.5415C60.7101 40.8466 61.1149 40.077 61.6638 39.5614C62.1856 39.0711 62.9249 38.7654 63.6146 38.8278C63.6174 38.805 63.6201 38.7822 63.6229 38.7594C62.9391 38.6547 62.5891 38.3224 61.8713 38.5133C61.123 38.7123 60.3697 39.4004 60.2319 40.1967C60.2004 40.3786 60.2597 40.4565 60.2748 40.6096C60.2911 40.774 60.2566 40.9912 60.2091 41.2009C60.0796 41.7728 59.974 42.3275 59.6701 42.8355C59.4307 43.2356 59.2279 43.6162 58.853 43.9048C58.2396 44.3769 57.4988 44.7387 56.7511 44.9325C55.7994 45.1792 55.2147 44.9814 54.3681 44.5307C52.6299 43.6052 51.3397 42.0611 50.5744 40.2606C49.7087 38.2238 50.5659 33.3031 50.6257 33.3517C50.8606 32.8592 51.0896 32.3798 51.4259 31.9446C51.6423 31.6645 51.9261 31.4621 52.1437 31.1891C52.5518 30.6769 53.6708 30.9944 54.2109 31.0483C54.5122 31.0784 54.9514 30.9876 55.2373 31.0658C55.2917 31.0807 55.3929 31.2207 55.4825 31.2498C55.9119 31.3893 56.3602 31.4094 56.79 31.5738C57.1964 31.7291 57.2152 31.6082 57.6082 31.8139C57.6221 31.796 57.636 31.7782 57.6499 31.7603C57.5669 31.668 57.4146 31.5419 57.3662 31.4274C57.3521 31.3942 57.4945 31.2863 57.4781 31.2552C57.3729 31.0553 57.0218 30.8386 56.8438 30.7348C56.5149 30.543 56.0255 30.3653 55.6378 30.3956C55.4262 30.4121 55.4087 30.5054 55.2529 30.5703C55.033 30.662 54.7907 30.6726 54.5064 30.6571C53.803 30.6189 52.4895 30.4255 52.0728 29.7848C51.5413 28.9676 52.806 28.2144 53.3531 27.8405C54.6695 26.941 57.0718 25.2558 58.7082 26.2523C59.5091 26.7401 60.181 27.7714 60.7757 28.5087C61.0998 28.9105 61.3916 29.2135 61.6262 29.6601C62.0005 30.3728 62.5044 30.9081 62.9942 31.5567C63.1886 31.8141 63.2582 32.2717 63.307 32.6216C63.335 32.8227 63.396 33.1973 63.3488 33.3979C63.4775 33.1619 63.7471 33.2049 63.9148 32.9879C64.126 32.7145 64.1639 32.1739 63.9979 31.8771C63.8865 31.6779 63.8117 31.7174 63.6451 31.5893C63.5217 31.4944 63.3818 31.3808 63.2483 31.2074C62.9691 30.8447 62.6572 30.5072 62.3794 30.144C62.1204 29.8055 61.6261 29.0328 61.9442 28.5963C62.2448 28.1838 62.7311 28.737 63.0264 28.9275C63.5341 29.2549 63.9782 29.7835 64.4998 30.0372C65.0214 30.2909 66.9916 30.6514 67.349 29.6053C66.6766 29.494 65.8612 29.3568 65.1219 29.3004C65.0102 29.2991 64.5224 29.2841 64.3699 29.211C64.1507 29.1059 63.9358 28.9915 63.725 28.8704C63.2323 28.5873 62.7357 28.272 62.3084 27.8965C61.6124 27.285 60.9648 26.5897 60.0929 26.221C59.6691 26.0418 58.8804 26.0635 58.8629 25.4378C58.8528 25.0761 59.2542 24.6915 59.5221 24.5111C59.9592 24.2167 60.5738 24.227 61.0806 24.0417C61.383 23.9311 61.6351 23.7342 61.9251 23.6131C62.2573 23.4744 62.339 23.5356 62.7211 23.5704C63.3419 23.627 63.9595 23.4854 64.5605 23.3406C66.0877 22.9726 68.2812 22.4169 68.6444 20.6829C68.1573 20.805 67.8872 21.1928 67.6265 21.5292C67.2054 22.0725 66.2991 22.4325 65.615 22.6294C64.8944 22.8368 62.5342 23.731 61.9173 22.8808C61.563 22.3926 62.143 21.5667 62.2923 21.0928C62.4976 20.4409 62.7012 19.774 62.8541 19.1083C63.105 18.0155 63.5954 16.8542 64.4409 16.0096C64.4263 15.992 64.4117 15.9744 64.397 15.9567C63.3853 16.65 62.7374 17.4524 62.4584 18.6395C62.3874 19.4393 62.0713 20.3821 61.9776 20.7002C61.69 21.6769 61.3124 22.2737 60.5491 22.9492C58.9412 24.3721 56.6499 25.4726 54.5119 25.8084C53.2426 26.0078 53.2618 23.7024 53.2457 22.8147C53.2288 21.8819 53.2828 21.0812 53.7803 20.2362C54.2715 19.4019 55.2368 19.0154 55.6079 18.1044C55.5882 18.0929 55.5686 18.0813 55.5489 18.0698C54.6937 19.1411 52.8627 19.7314 52.7844 21.3082C52.7332 22.3387 53.0489 23.6432 52.8354 24.7441C52.7238 25.3198 52.3142 25.9063 51.8631 26.2634C51.2261 26.7676 50.2901 26.6906 49.5142 26.7598C48.1168 26.8845 46.2926 27.0861 45.1368 26.0933C43.9907 25.1088 42.942 23.7029 42.1866 22.4044C41.4906 21.208 40.9284 19.8365 40.792 18.4486C40.4525 14.9946 45.0154 14.6354 47.4799 14.1296C49.1567 13.7855 50.8989 12.9987 52.4266 14.0831C52.9485 14.4535 53.3974 14.9812 53.7804 15.4312C54.0607 15.7605 54.4738 16.023 54.95 15.7443C54.2928 15.2377 53.8839 14.8565 53.2973 14.2776C52.7419 13.7295 52.0505 13.2246 51.2625 13.0991C51.8958 12.6043 52.8581 11.9173 52.8603 11.0154C52.8386 11.0101 52.8169 11.0047 52.7952 10.9994C52.4496 11.6577 51.9289 12.1612 51.2812 12.5184C51.0127 12.6665 50.7301 12.7854 50.4471 12.9026C50.3369 12.9482 48.3165 13.5355 47.4217 13.7189C47.7815 13.1075 47.8759 12.3801 47.958 11.6881C48.0026 11.3123 47.9797 10.7953 48.1278 10.4436C48.2499 10.1538 48.5002 10.0839 48.6716 9.7526C48.8768 9.3559 48.9209 8.5923 48.2385 8.9279C48.0145 9.038 47.7646 9.3698 47.6985 9.6139C47.6309 9.8635 47.7371 10.0701 47.7363 10.2971C47.734 10.955 47.5639 11.7526 47.4396 12.4009C47.3741 12.7426 47.2904 13.0895 47.1244 13.3977C46.9115 13.7932 46.7245 13.8615 46.3009 13.9495C44.8495 14.2511 43.3056 14.5206 41.9956 15.2542C42.9808 13.8763 42.6741 12.1101 42.0431 10.6626C41.4766 9.363 41.046 7.9272 41.2538 6.4973C41.3316 5.9623 41.3614 5.7005 41.8727 5.488C42.1646 5.3667 42.4658 5.2553 42.7773 5.1967C43.2147 5.1144 43.6455 5.1756 44.0856 5.1828C45.0417 5.1983 46.3022 5.1738 46.6613 4.1314C46.2438 4.013 45.7941 4.4575 45.5187 4.5861C45.2696 4.7025 44.9503 4.7477 44.6541 4.7628C43.5879 4.8171 42.7332 4.6793 41.7053 5.1094C42.1332 4.2637 42.6932 3.8807 43.2413 3.1244C43.9017 2.2131 44.2992 1.1394 44.2455 0.0031C44.2235 0.002 44.2006 0.001 44.1777 0C43.8704 2.2614 41.7168 3.528 41.0271 5.5969C40.6561 6.7099 40.7406 7.9427 41.0415 9.0587C41.2995 10.0152 41.7882 10.8848 42.045 11.8322C42.3265 12.8707 42.3139 14.0722 41.6829 14.983C41.4172 15.3666 41.0335 15.8356 40.528 15.8508C39.9662 15.8677 39.5138 15.3331 39.1615 14.9643C38.3629 14.1283 37.564 13.1685 37.1027 12.1007C36.6541 11.0623 36.9679 9.9937 37.2509 8.9502C37.4625 8.1699 37.5708 7.2686 37.4716 6.492C37.3536 5.5673 36.9015 4.0605 35.7884 3.9285C35.7806 3.9494 35.7728 3.9704 35.765 3.9913C36.9777 4.8097 36.865 6.102 36.9823 7.3469C37.062 8.1935 36.8965 9.5052 35.6918 9.5739C34.3876 9.6483 33.2993 9.0504 32.126 8.6024C31.3141 8.2924 30.2765 8.037 29.5894 7.4951C29.0466 7.067 28.9142 6.478 28.7053 5.8555C28.6829 5.8591 28.6605 5.8628 28.6381 5.8664C28.6368 6.9063 28.9941 7.6557 29.945 8.1143C30.0927 8.1855 30.2425 8.2521 30.3918 8.3198C31.3725 8.7643 32.3644 9.3034 33.3791 9.6672C34.5075 10.0717 35.5963 11.244 36.4338 12.2132C37.5296 13.4813 38.4216 14.9434 38.2547 16.7096C38.0876 18.4777 37.354 20.1603 36.1844 21.4889C34.787 23.0762 33.2074 23.7484 31.1552 24.0871C29.417 24.3741 27.7022 24.2957 26.0798 23.5749C24.4031 22.83 23.5677 21.2887 23.3886 19.4949C23.2821 18.4285 23.792 17.5855 24.443 16.7779C25.0179 16.0646 25.9435 15.0702 26.9316 15.091C27.8302 15.1099 31.607 16.4244 31.4714 14.6688C31.311 14.7028 31.2512 14.9354 31.0506 15.014C30.9209 15.0649 30.616 15.0697 30.5363 15.0772C30.039 15.1242 29.4207 15.0603 28.8746 14.965C28.2681 14.8592 27.6769 14.722 27.0616 14.6845C26.2901 14.6374 25.7222 15.0133 25.139 15.4893C25.7045 15.1288 25.1291 13.7935 24.9113 13.3708C24.5013 12.575 23.7583 11.6986 22.8066 11.6008C22.7997 11.6222 22.7928 11.6437 22.7859 11.6651C24.6898 12.7542 25.2414 14.6476 24.067 16.4808C23.6 17.2097 22.9663 18.1052 22.9553 19.101C22.9435 20.1637 23.3137 21.4424 23.887 22.3291C23.7371 22.2618 23.3311 22.6154 23.1356 22.6386C22.7509 22.6843 22.3117 22.5249 21.9681 22.3707C21.1145 21.9875 20.4032 20.9325 20.0446 20.0914C19.7821 19.4758 19.5338 18.8549 19.2622 18.2431C19.047 17.7583 18.8196 17.3076 18.5316 16.8617C18.2926 16.4918 17.9674 16.1773 17.9301 15.834C17.7343 14.0321 18.7497 12.266 18.2857 10.4631C18.099 9.7378 17.6655 8.8828 17.3425 8.3228C17.0775 7.8632 16.7006 7.316 16.2134 7.0685C16.1509 7.6219 16.5753 8.1856 16.8955 8.5938C17.3052 9.116 17.6921 9.8292 17.8792 10.5464C18.3058 12.1815 17.5638 13.9342 17.519 15.5883C17.0893 15.1551 16.7824 14.7423 16.1313 14.5507C15.5923 14.392 15.0205 14.4081 14.4682 14.473C14.4673 14.4957 14.4664 14.5184 14.4654 14.5411C15.6263 14.7771 16.705 15.2857 17.4691 16.1355C18.26 17.015 18.7443 18.063 19.2012 19.14C19.3593 19.5126 19.5081 19.8891 19.667 20.2614C19.7743 20.5128 19.8786 20.715 20.029 20.9435C20.2809 21.3262 20.1539 21.3407 19.7921 21.5878C19.0845 22.0709 18.2435 22.1869 17.4413 22.1294C16.1564 22.0373 14.9538 21.6563 13.7374 21.2586C13.1505 21.0667 12.5649 20.8702 11.9889 20.6473C11.3 20.3807 10.8423 19.9297 10.3814 19.3519C9.577 18.3435 9.1475 17.0939 8.9949 15.8189C8.8463 14.5773 10.4384 13.7758 11.0672 12.8866C11.3079 12.5463 11.6048 12.0571 11.6206 11.6179C11.6489 10.8327 11.137 11.5153 11.0114 11.8634C10.8548 12.2977 10.8089 12.6153 10.3944 12.9996C9.769 13.5793 9.2203 14.1541 8.7867 14.8987C8.2976 13.3938 7.2917 12.62 5.6989 12.6856C5.6952 12.7078 5.6914 12.7299 5.6877 12.7521C7.0702 13.2954 8.1218 13.832 8.4849 15.3682C8.8882 17.0745 9.118 18.5727 10.3321 19.933C8.8528 19.4413 7.0479 19.8677 5.6409 20.4189C5.1105 20.6267 4.4577 20.8865 4.0471 21.1575C3.3747 21.6015 3.0498 22.3907 2.1875 22.5649C2.1888 22.5876 2.19 22.6104 2.1913 22.6331C3.1456 22.7166 3.8035 22.081 4.4833 21.5194C5.0816 21.0251 6.0501 20.6677 6.8826 20.4596C6.4722 21.3442 6.901 22.3743 6.4026 23.2477C6.3218 23.3893 6.2188 23.4706 6.1315 23.5469C5.9228 23.7294 5.6678 23.947 5.4639 24.2145C6.5021 24.5369 7.026 23.0742 7.1035 22.2737C7.176 21.5253 6.8734 20.4164 7.8638 20.2649C8.5047 20.1669 9.1136 20.0659 9.7578 20.2031C10.4951 20.3601 11.1416 20.762 11.8376 21.035C12.647 21.3525 13.335 21.7301 13.9779 22.3264C14.4693 22.7823 14.5809 23.104 14.3774 23.6337C14.122 24.2983 13.8461 24.8612 13.939 25.5773C13.9619 25.5761 13.9847 25.5749 14.0076 25.5737C14.0353 24.5116 14.6778 23.917 15.6251 23.59C16.1043 23.4246 16.61 23.3038 17.1027 23.1833C17.3795 23.1156 18.0429 23.1249 18.1917 23.0029C20.9169 23.5387 23.5009 24.9209 25.9175 26.2518C27.6375 27.1991 28.4201 29.2222 27.6192 31.0448C26.6977 33.1421 24.6543 34.9449 22.5132 35.7031C21.4117 36.0932 20.2256 36.4856 19.0368 36.3899C17.8952 36.298 16.8899 35.5534 16.0637 34.815C15.2049 34.0475 14.5479 32.9392 13.8733 31.9478C13.4691 31.3537 12.6481 29.8564 11.7502 30.0436C13.4228 30.9261 13.7444 33.2205 15.0688 34.4913C15.3257 34.7378 16.154 35.2226 16.179 35.6377C16.2196 36.3099 15.2275 36.8307 14.751 37.0138C13.1207 37.6404 10.9401 37.7044 9.2521 37.2539C7.1473 36.6922 6.4891 34.7569 5.2364 33.1939C4.3983 32.1482 2.7968 31.9881 1.4232 32.0788C1.4214 32.1015 1.4197 32.1242 1.4179 32.1469C2.4348 32.3725 3.5089 32.5895 4.4099 33.1381C5.0589 33.5332 5.5186 34.1187 5.9315 34.8211C6.4636 35.7265 6.9624 36.578 7.8778 37.1541C8.1501 37.3255 8.639 37.3811 8.7133 37.6902C8.7829 37.9798 8.4299 38.3024 8.241 38.4569C7.5936 38.9863 6.5546 39.4055 5.7655 39.6576C5.0993 39.8705 4.5362 39.786 3.8565 39.6984C2.3772 39.5081 1.0915 39.3684 0 40.6061C0.7075 40.373 1.5118 40.0544 2.1856 40.0124C2.9813 39.9628 3.7618 40.1397 4.548 40.2132C6.2959 40.3766 7.5516 38.9752 9.1161 38.5634C9.9361 38.3476 11.2538 38.2329 11.7418 39.0773C12.0566 39.622 11.8096 39.8406 11.6186 40.398C11.4545 40.8769 11.3335 41.3699 11.2589 41.8707C11.1228 42.7843 11.2178 43.9359 10.4724 44.646C9.9846 45.1107 8.9396 45.3965 8.2545 45.4897C8.2548 45.5125 8.255 45.5354 8.2553 45.5582C9.0253 45.6417 10.1271 45.7272 10.7107 45.0987C11.0524 44.7308 11.39 43.9441 11.5179 43.3904C12.0561 44.4154 12.9122 46.0118 12.4634 47.1918C12.3159 47.5797 12.0793 47.694 11.9876 48.1591C11.9019 48.594 11.9922 49.0533 12.2914 49.3897C12.4322 49.1874 12.4093 48.531 12.5223 48.22C12.6348 47.9107 12.6697 47.7372 12.7929 47.4609C13.0784 46.821 13.0081 46.1563 12.8222 45.4862C12.6776 44.965 12.4678 44.4477 12.2497 43.9537C12.0345 43.4662 11.6382 42.9628 11.6098 42.4492C11.5579 41.5103 11.9956 40.1054 12.579 39.3959C14.0444 37.6137 16.3756 37.1305 18.6125 37.3239C18.8723 37.3464 19.2049 37.3588 19.3435 37.491C19.6527 37.7857 19.414 38.1291 19.2127 38.5283C18.7896 39.3674 17.869 40.1099 17.8679 41.1172L17.9341 41.1307C18.3885 40.0551 19.2949 39.3471 20.1887 38.6496C20.8275 38.1511 21.4046 37.5842 22.3098 37.4719C24.4768 37.203 25.9896 39.0073 27.0751 40.5961C28.0056 41.958 28.8021 43.7275 28.3556 45.4056C27.8097 47.4576 25.3848 48.2411 23.5536 47.555C22.9452 47.3271 22.549 47.0125 21.9701 46.7968C21.0358 46.4485 20.0153 46.4744 19.0525 46.6859C19.054 46.7086 19.0554 46.7314 19.0569 46.7541C20.113 46.8441 21.138 47.1159 22.1353 47.4627C22.4172 47.5607 22.4212 47.5611 22.6898 47.641C23.0727 47.7549 24.0353 48.0132 24.1911 48.3452C24.523 49.0523 23.5349 49.9857 23.13 50.3681C22.1657 51.2789 21.048 52.0084 19.9096 52.6807C17.8994 53.8678 15.8707 54.3592 13.5456 54.2298C12.6197 54.1783 11.6411 54.229 10.794 54.5109C9.8939 54.8105 9.2083 55.6381 8.5921 56.3845C8.6085 56.4005 8.6248 56.4165 8.6412 56.4325C9.8806 55.3592 11.2178 54.6028 12.8581 54.6144C14.2544 54.6242 16.6225 54.558 17.3914 55.9951C16.9661 57.2463 16.8086 59.0055 15.856 60.0035C15.7113 59.9728 15.3691 60.3482 15.1796 60.4718C14.8502 60.6867 14.498 60.8639 14.1492 61.0448C16.5804 61.6512 17.1159 58.2146 17.6274 56.6013C17.8531 55.8895 18.1073 55.1844 18.4345 54.5123C18.7456 53.8732 19.0722 53.5382 19.7326 53.368C20.4873 53.1735 21.2623 53.2934 21.7935 53.8991C21.8033 53.8735 21.8132 53.848 21.823 53.8224C21.7579 54.7958 21.7293 55.8624 21.1717 56.7377C21.1884 56.753 21.2052 56.7682 21.2219 56.7835C21.8642 56.2823 22.1476 55.7988 22.17 55.0506C22.1954 54.2005 22.0452 52.9742 22.7184 52.3272C24.0548 51.043 26.1012 50.2405 27.9574 50.3991C29.3149 50.5151 30.4069 51.4242 30.7187 52.775C31.2148 54.9242 31.3236 57.1491 31.7176 59.3173C32.8614 62.5632 34.9439 69.7667 40.6029 73.7554C43.1449 75.5471 45.7535 77.003 48.8121 77.7018C52.589 78.5647 56.6129 78.3317 60.4597 78.2532C61.4933 78.2321 62.5355 78.1491 63.5556 78.3442C64.4661 78.5183 65.3723 78.7188 66.2802 78.9061C67.4652 79.1505 68.6279 79.5234 69.7274 80.0345C70.2533 80.2789 70.7145 80.6495 71.1927 80.9795C72.0211 81.5509 72.8495 82.1223 73.6779 82.6938C74.1537 83.022 74.7359 83.3239 75.1619 83.7175C75.6401 84.1593 76.2974 85.2067 76.3358 85.8353C76.3805 86.5666 76.0978 87.4507 75.7202 88.0651C74.8832 89.4268 73.2924 89.8831 71.8003 90.0818C69.7702 90.3522 67.7306 90.0209 65.7097 90.3592C64.7062 90.5272 63.7068 90.7633 62.7618 91.1462C62.1208 91.4059 61.0156 91.7639 60.8076 92.5105C60.5645 93.3825 61.5731 93.0912 62.0156 92.8607C62.8072 92.4483 63.4722 91.876 64.3242 91.5616C66.1366 90.8928 68.24 90.8875 70.1312 91.1361C69.495 91.7777 68.8219 92.489 68.4259 93.3129C68.1016 93.9878 68.1122 94.5974 67.3179 94.8811C66.0727 95.3258 64.4928 95.3475 63.4811 96.3029C63.1775 96.5896 62.7694 97.022 62.8608 97.4774C63.0677 98.5082 64.1396 97.0857 64.378 96.8529C64.8274 96.4139 65.2937 96.2321 65.9123 96.2522C66.7075 96.2781 67.4886 96.0948 68.0537 95.4728C67.9708 96.4001 68.0335 97.3488 68.3414 98.2324C68.5118 98.7215 69.1535 100.385 69.9244 99.8895C70.5737 99.4723 69.53 98.3081 69.3395 97.8443C69.0123 97.0475 68.8758 96.1885 68.8685 95.3303C68.8623 94.5965 68.8873 93.9134 69.3135 93.2907C69.8001 92.5799 70.5116 92.0395 71.1947 91.5306C72.0243 90.9125 73.018 90.5446 74.0169 90.2979C74.8232 90.0988 75.489 89.7798 76.0393 89.1453C76.4441 88.6785 76.9233 87.611 77.5449 87.4573C78.3803 87.2507 78.8108 88.5041 79.0202 89.0975C79.5154 90.5009 79.5106 92.038 79.2155 93.4837C78.8922 95.0675 78.0747 96.4711 76.605 97.2584C74.7814 98.2353 72.4436 98.8594 71.8923 101.15C71.7235 101.852 71.4585 103.545 72.158 104.043C73.075 104.695 72.9129 102.883 72.9184 102.508C72.9348 101.394 73.0094 100.435 73.8525 99.6213C74.4907 99.0055 75.3163 98.6279 76.1137 98.2651C75.1967 99.9171 74.9426 101.887 75.3015 103.734C75.437 104.431 77.0026 108.454 77.937 107.314C78.1805 107.016 77.9038 106.478 77.7556 106.209C77.4188 105.597 76.9866 105.046 76.6757 104.416C76.23 103.512 76.0048 102.501 75.9983 101.493C75.9921 100.52 76.2188 99.5638 76.6379 98.6865C77.1416 97.6321 78.3938 97.3292 78.9615 96.3121C78.8469 99.0361 80.5186 100.768 82.2796 102.626C82.625 102.99 83.1225 103.365 83.2409 103.878C83.3414 104.314 83.3003 104.833 83.3389 105.279C83.3717 105.658 83.4161 106.132 83.7986 106.338C84.2752 106.593 84.686 106.114 84.652 105.645Z" fill="url(#paint0_radial_938_25181)"/>
<g id="R-ICO-013121" opacity="0.75">
<g id="Nucleus">
<mask id="path-2-inside-1_938_25181" fill="white">
<path d="M41.248 39.4647C44.1226 39.4647 46.453 37.1343 46.453 34.2597C46.453 31.385 44.1226 29.0547 41.248 29.0547C38.3733 29.0547 36.043 31.385 36.043 34.2597C36.043 37.1343 38.3733 39.4647 41.248 39.4647Z"/>
</mask>
<path d="M41.248 39.4647C44.1226 39.4647 46.453 37.1343 46.453 34.2597C46.453 31.385 44.1226 29.0547 41.248 29.0547C38.3733 29.0547 36.043 31.385 36.043 34.2597C36.043 37.1343 38.3733 39.4647 41.248 39.4647Z" fill="url(#paint1_radial_938_25181)" stroke="#5656A5" stroke-width="0.78075" mask="url(#path-2-inside-1_938_25181)"/>
</g>
</g>
<path id="FG" opacity="0.5" d="M84.652 105.645C84.5789 104.978 84.4731 104.304 84.2029 103.686C83.8909 102.971 83.3636 102.499 82.8393 101.945C81.7735 100.818 80.5836 99.9429 80.1212 98.397C79.7505 97.1574 79.627 95.7358 79.95 94.4741C80.3275 92.9995 80.7062 91.5825 80.3385 90.0533C80.7833 90.6177 81.238 91.1768 81.7514 91.6809C82.2771 92.1971 82.944 92.5263 83.4686 93.0217C83.9497 93.4759 84.1632 94.139 84.3902 94.7402C84.6574 95.4478 84.9058 96.1174 85.0412 96.8663C85.3875 98.7823 86.0392 101.452 88.3504 101.851C88.7206 101.915 89.3044 101.821 89.2104 101.32C89.1205 100.841 88.3593 100.675 88.0004 100.515C86.7199 99.9431 86.1467 98.7263 85.8496 97.427C85.6096 96.3778 85.6159 95.3072 85.1007 94.3377C84.8089 93.7885 84.5041 93.2457 84.2046 92.7005C84.2312 92.7049 84.2587 92.7091 84.2852 92.7135C85.5992 92.9326 86.8405 93.1396 87.9227 92.4385C88.7466 91.9048 89.9073 93.5643 90.1316 93.9024C90.2848 94.1328 90.5984 94.198 90.8305 94.0438C91.0626 93.8899 91.126 93.577 90.9721 93.3449C89.768 91.5292 88.4568 90.8907 87.3744 91.5919C86.6206 92.0804 85.6152 91.9127 84.4511 91.7186C84.0461 91.651 83.6271 91.5816 83.196 91.5361C82.9863 91.446 82.77 91.3551 82.6012 91.2183C81.4078 90.2512 80.8149 88.6579 80.2559 87.279C80.5927 87.4879 81.0336 87.7152 82.3461 87.7091C83.6586 87.703 86.1846 86.9995 87.5988 85.9562C88.2018 86.0489 88.8348 86.439 89.502 86.8539C90.5048 87.4774 91.5421 88.1223 92.6873 87.8432C94.462 87.4106 96.1145 86.2716 96.184 86.2235C96.4125 86.0646 96.4691 85.7506 96.3104 85.522C96.1523 85.2937 95.8375 85.2366 95.6087 85.3951C95.5931 85.4059 94.0373 86.4762 92.4483 86.8634C91.7148 87.0423 90.8986 86.5349 90.0344 85.9976C89.5203 85.6779 88.9947 85.3528 88.4451 85.1452C88.5983 84.9469 88.7272 84.7367 88.8247 84.513C88.988 84.1381 89.1372 83.7441 89.2814 83.363C89.939 81.626 90.56 79.9854 92.6352 79.2053C92.8959 79.1074 93.0278 78.8165 92.9297 78.5558C92.8321 78.2956 92.5407 78.1634 92.2803 78.2613C89.7781 79.2019 89.013 81.2229 88.3381 83.0061C88.1917 83.3926 88.0534 83.7578 87.8999 84.1101C87.1653 85.7962 83.6997 86.682 81.5889 86.7499C81.533 86.7517 79.9732 86.1557 79.3438 85.6185C80.1553 85.7094 81.0095 85.5813 82.3122 84.2504C83.9702 82.5565 84.2874 79.6244 84.3068 76.6304C84.3131 75.6531 84.4179 74.963 84.6044 74.3744C85.0488 73.6307 85.4742 72.8766 85.815 72.0938C85.9607 71.7592 86.3979 71.2459 86.1979 70.8958C85.9253 70.4185 85.215 70.5839 84.9269 70.9333C84.6326 71.2901 84.4649 71.9206 84.298 72.3431C84.1861 72.6263 84.0846 72.9134 83.9887 73.2023C83.5736 74.0642 83.3086 75.0249 83.2982 76.6237C83.2803 79.3946 83.09 82.1748 81.6184 83.5184C80.5547 84.4896 79.4714 85.0546 78.3258 84.6679C77.5176 84.3951 76.7814 83.4893 76.1443 82.928C75.3843 82.2584 74.6259 81.5862 73.8396 80.9473C71.2125 78.8129 68.0332 77.5174 64.6638 77.1503C61.0139 76.7526 57.2676 76.9431 53.6007 76.8454C51.4658 76.7886 49.5278 76.2428 47.4586 75.7427C46.5698 75.5279 45.8874 75.315 45.0657 74.8757C44.259 74.4444 43.5878 73.9476 42.8683 73.3945C41.166 72.0861 39.3007 70.8745 38.1368 69.012C37.2651 67.6171 36.4612 66.1014 35.7317 64.6274C35.102 63.355 34.7161 61.883 34.3576 60.5111C33.9167 58.8237 33.6694 57.0294 34.0839 55.3061C34.2802 54.4901 35.2272 53.716 35.9119 53.2603C36.3875 52.9437 36.9125 52.7328 37.4517 52.5519C38.2237 52.293 39.108 52.0019 39.801 51.7602C40.7682 51.4228 41.9613 51.1915 42.9374 51.6115C44.5432 52.3025 44.4741 54.6299 42.9222 55.3854C42.2257 55.7245 41.544 55.4181 40.9389 55.255C40.0886 55.0259 39.2999 55.387 38.7562 56.0476C38.7723 56.0639 38.7883 56.0801 38.8044 56.0964C39.3898 55.6295 40.3093 55.6752 40.9245 55.7366C41.8483 55.8288 42.9871 56.5113 43.1547 57.4874C43.333 58.5259 42.8516 59.8236 42.4578 60.7621C42.1548 61.4843 41.5422 62.3114 40.8621 62.8135C40.8708 62.8341 40.8795 62.8547 40.8881 62.8753C42.2849 62.6517 42.76 61.2472 43.1347 60.1485C43.6186 61.7868 44.7855 63.049 45.1197 64.6723C45.7937 63.8749 44.6999 62.4326 44.3169 61.7494C43.9641 61.12 43.6044 60.4659 43.4573 59.7525C43.3055 59.0166 43.5036 58.057 43.5842 57.3031C43.7256 55.9802 44.403 54.5242 45.9651 54.564C47.0705 54.5921 48.3097 56.8998 48.2875 56.8998C48.6827 57.4989 48.8988 58.3094 49.1044 58.8785C49.5527 60.1192 49.7937 61.3209 50.4723 62.4806C51.093 63.5413 50.5816 64.7874 50.3827 65.9018C50.2958 66.3886 49.9239 67.6574 50.4073 68.0253C50.6309 67.4366 50.7052 67.0111 50.7301 66.4601C50.7796 65.365 51.2568 64.3977 51.1559 63.2704C51.9584 63.9963 52.9721 64.4438 53.7637 65.1745C54.1883 65.5665 54.6668 66.3206 54.8926 66.9119C54.9148 66.909 54.937 66.9062 54.9593 66.9033C55.2052 64.7492 52.5447 64.0885 51.2883 62.8263C50.522 62.0565 50.1066 60.9328 49.7994 59.9109C49.666 59.4671 49.5261 59.0028 49.4509 58.5448C49.4288 58.4102 49.3734 58.089 49.4493 57.9619C49.6238 57.6697 50.3699 57.9141 50.5824 57.9728C51.16 58.1324 51.699 58.3109 52.2992 58.391C53.1891 58.5097 54.12 58.6045 54.971 58.9157C55.7255 59.1916 56.299 59.7442 56.63 60.4689C56.8867 61.0309 57.3043 61.7703 57.553 62.4246C57.5752 62.4215 57.5974 62.4183 57.6196 62.4152C57.7274 61.1147 56.8819 59.5596 55.7771 58.8607C54.0844 57.79 51.8698 58.3076 50.1497 57.2907C49.6418 56.9904 48.7419 56.4389 48.7021 55.747C48.6413 54.6899 50.2424 54.5598 50.9196 54.328C51.3668 54.1749 51.6907 54.1591 52.1053 53.9708C52.5117 53.7863 52.8739 53.5112 53.2631 53.2939C54.1555 52.7958 55.1309 52.5715 56.0926 53.03C56.1045 53.0105 56.1164 52.9909 56.1283 52.9714C54.103 51.4303 51.9624 53.8427 49.9954 54.1596C48.5822 54.3873 47.455 53.4597 46.9486 52.1994C46.4304 50.9095 45.9607 49.1389 46.6542 47.8392C47.3491 46.5367 49.1083 45.9575 50.4791 45.8117C51.7911 45.6722 53.2185 45.8462 54.4905 46.1541C57.4868 46.8792 60.5447 48.3546 62.3248 50.9522C63.2349 52.2803 63.8589 53.8982 64.1213 55.4929C64.3233 56.72 64.7198 58.2303 65.6556 59.226C65.6738 59.212 65.6919 59.198 65.7101 59.184C65.3671 58.6381 65.1078 58.0422 64.9186 57.4267C64.824 57.1191 64.7476 56.8067 64.687 56.4907C64.6417 56.2542 64.4365 55.5862 64.5395 55.3731C64.8409 54.7494 66.8089 55.5575 67.4427 55.3604C67.3975 55.344 68.857 55.0476 69.0386 55.0532C69.4171 55.0649 69.7877 55.1496 70.0994 55.3763C70.116 55.361 70.1326 55.3458 70.1492 55.3305C69.6909 54.5807 68.8972 54.4793 68.1873 54.6817C67.4425 54.894 67.0349 54.8574 66.3177 54.6538C65.9506 54.5496 65.3404 54.4966 65.0597 54.2477C64.6791 53.9102 64.3873 53.2286 64.1165 52.7964C63.9126 52.4709 63.8184 52.1434 63.6962 51.7747C63.5712 51.3975 63.2907 50.8942 63.3336 50.498C63.399 49.8945 63.8397 49.2048 64.3815 49.0138C65.3954 48.6563 66.4336 48.3764 67.4401 47.8787C68.0012 47.6013 68.4169 47.3884 69.0481 47.3154C69.6265 47.2486 70.2324 47.2439 70.7847 47.4515C71.6323 47.77 72.2566 48.696 73.3208 48.7994C73.3273 48.7778 73.3338 48.7562 73.3403 48.7346C72.5679 48.3283 72.0147 47.553 71.2792 47.2205C70.4261 46.8348 69.5835 46.8044 68.6649 46.9514C69.1892 46.2822 69.6091 45.5694 69.813 44.7387C69.9941 44.0011 70.2376 43.1996 70.7035 42.5818C71.2408 41.8693 72.1592 41.7777 72.9492 41.4528C71.7291 41.1111 70.7192 41.6577 70.1081 42.7581C69.1918 44.408 69.2462 46.5045 67.3554 47.4584C66.4886 47.8957 65.4507 48.4398 64.4658 48.5034C63.6327 48.5571 62.7639 48.3556 61.9794 48.0938C60.8918 47.7308 59.125 47.0199 58.5952 45.9497C58.2553 45.2631 58.5324 44.6644 59.0925 44.2418C59.758 43.7397 60.227 42.8517 60.4349 42.0631C60.8565 41.8847 61.2503 41.5558 61.7342 41.5422C62.1995 41.5291 62.5551 41.8262 62.9851 41.9419C63.2567 42.015 63.5123 41.9616 63.7805 41.9943C63.9645 42.0167 64.0908 42.1119 64.2859 42.118C64.6063 42.1279 65.3652 41.6965 65.066 41.3033C64.9434 41.1422 64.2108 41.1075 64.0209 41.2166C63.8424 41.3191 63.4359 41.594 63.3113 41.577C62.8275 41.5109 62.4299 41.1913 61.9378 41.1413C61.4219 41.0889 60.9977 41.301 60.5581 41.5415C60.7101 40.8466 61.1149 40.077 61.6638 39.5614C62.1856 39.0711 62.9249 38.7654 63.6146 38.8278C63.6174 38.805 63.6201 38.7822 63.6229 38.7594C62.9391 38.6547 62.5891 38.3224 61.8713 38.5133C61.123 38.7123 60.3697 39.4004 60.2319 40.1967C60.2004 40.3786 60.2597 40.4565 60.2748 40.6096C60.2911 40.774 60.2566 40.9912 60.2091 41.2009C60.0796 41.7728 59.974 42.3275 59.6701 42.8355C59.4307 43.2356 59.2279 43.6162 58.853 43.9048C58.2396 44.3769 57.4988 44.7387 56.7511 44.9325C55.7994 45.1792 55.2147 44.9814 54.3681 44.5307C52.6299 43.6052 51.3397 42.0611 50.5744 40.2606C49.7087 38.2238 50.5659 33.3031 50.6257 33.3517C50.8606 32.8592 51.0896 32.3798 51.4259 31.9446C51.6423 31.6645 51.9261 31.4621 52.1437 31.1891C52.5518 30.6769 53.6708 30.9944 54.2109 31.0483C54.5122 31.0784 54.9514 30.9876 55.2373 31.0658C55.2917 31.0807 55.3929 31.2207 55.4825 31.2498C55.9119 31.3893 56.3602 31.4094 56.79 31.5738C57.1964 31.7291 57.2152 31.6082 57.6082 31.8139C57.6221 31.796 57.636 31.7782 57.6499 31.7603C57.5669 31.668 57.4146 31.5419 57.3662 31.4274C57.3521 31.3942 57.4945 31.2863 57.4781 31.2552C57.3729 31.0553 57.0218 30.8386 56.8438 30.7348C56.5149 30.543 56.0255 30.3653 55.6378 30.3956C55.4262 30.4121 55.4087 30.5054 55.2529 30.5703C55.033 30.662 54.7907 30.6726 54.5064 30.6571C53.803 30.6189 52.4895 30.4255 52.0728 29.7848C51.5413 28.9676 52.806 28.2144 53.3531 27.8405C54.6695 26.941 57.0718 25.2558 58.7082 26.2523C59.5091 26.7401 60.181 27.7714 60.7757 28.5087C61.0998 28.9105 61.3916 29.2135 61.6262 29.6601C62.0005 30.3728 62.5044 30.9081 62.9942 31.5567C63.1886 31.8141 63.2582 32.2717 63.307 32.6216C63.335 32.8227 63.396 33.1973 63.3488 33.3979C63.4775 33.1619 63.7471 33.2049 63.9148 32.9879C64.126 32.7145 64.1639 32.1739 63.9979 31.8771C63.8865 31.6779 63.8117 31.7174 63.6451 31.5893C63.5217 31.4944 63.3818 31.3808 63.2483 31.2074C62.9691 30.8447 62.6572 30.5072 62.3794 30.144C62.1204 29.8055 61.6261 29.0328 61.9442 28.5963C62.2448 28.1838 62.7311 28.737 63.0264 28.9275C63.5341 29.2549 63.9782 29.7835 64.4998 30.0372C65.0214 30.2909 66.9916 30.6514 67.349 29.6053C66.6766 29.494 65.8612 29.3568 65.1219 29.3004C65.0102 29.2991 64.5224 29.2841 64.3699 29.211C64.1507 29.1059 63.9358 28.9915 63.725 28.8704C63.2323 28.5873 62.7357 28.272 62.3084 27.8965C61.6124 27.285 60.9648 26.5897 60.0929 26.221C59.6691 26.0418 58.8804 26.0635 58.8629 25.4378C58.8528 25.0761 59.2542 24.6915 59.5221 24.5111C59.9592 24.2167 60.5738 24.227 61.0806 24.0417C61.383 23.9311 61.6351 23.7342 61.9251 23.6131C62.2573 23.4744 62.339 23.5356 62.7211 23.5704C63.3419 23.627 63.9595 23.4854 64.5605 23.3406C66.0877 22.9726 68.2812 22.4169 68.6444 20.6829C68.1573 20.805 67.8872 21.1928 67.6265 21.5292C67.2054 22.0725 66.2991 22.4325 65.615 22.6294C64.8944 22.8368 62.5342 23.731 61.9173 22.8808C61.563 22.3926 62.143 21.5667 62.2923 21.0928C62.4976 20.4409 62.7012 19.774 62.8541 19.1083C63.105 18.0155 63.5954 16.8542 64.4409 16.0096C64.4263 15.992 64.4117 15.9744 64.397 15.9567C63.3853 16.65 62.7374 17.4524 62.4584 18.6395C62.3874 19.4393 62.0713 20.3821 61.9776 20.7002C61.69 21.6769 61.3124 22.2737 60.5491 22.9492C58.9412 24.3721 56.6499 25.4726 54.5119 25.8084C53.2426 26.0078 53.2618 23.7024 53.2457 22.8147C53.2288 21.8819 53.2828 21.0812 53.7803 20.2362C54.2715 19.4019 55.2368 19.0154 55.6079 18.1044C55.5882 18.0929 55.5686 18.0813 55.5489 18.0698C54.6937 19.1411 52.8627 19.7314 52.7844 21.3082C52.7332 22.3387 53.0489 23.6432 52.8354 24.7441C52.7238 25.3198 52.3142 25.9063 51.8631 26.2634C51.2261 26.7676 50.2901 26.6906 49.5142 26.7598C48.1168 26.8845 46.2926 27.0861 45.1368 26.0933C43.9907 25.1088 42.942 23.7029 42.1866 22.4044C41.4906 21.208 40.9284 19.8365 40.792 18.4486C40.4525 14.9946 45.0154 14.6354 47.4799 14.1296C49.1567 13.7855 50.8989 12.9987 52.4266 14.0831C52.9485 14.4535 53.3974 14.9812 53.7804 15.4312C54.0607 15.7605 54.4738 16.023 54.95 15.7443C54.2928 15.2377 53.8839 14.8565 53.2973 14.2776C52.7419 13.7295 52.0505 13.2246 51.2625 13.0991C51.8958 12.6043 52.8581 11.9173 52.8603 11.0154C52.8386 11.0101 52.8169 11.0047 52.7952 10.9994C52.4496 11.6577 51.9289 12.1612 51.2812 12.5184C51.0127 12.6665 50.7301 12.7854 50.4471 12.9026C50.3369 12.9482 48.3165 13.5355 47.4217 13.7189C47.7815 13.1075 47.8759 12.3801 47.958 11.6881C48.0026 11.3123 47.9797 10.7953 48.1278 10.4436C48.2499 10.1538 48.5002 10.0839 48.6716 9.7526C48.8768 9.3559 48.9209 8.5923 48.2385 8.9279C48.0145 9.038 47.7646 9.3698 47.6985 9.6139C47.6309 9.8635 47.7371 10.0701 47.7363 10.2971C47.734 10.955 47.5639 11.7526 47.4396 12.4009C47.3741 12.7426 47.2904 13.0895 47.1244 13.3977C46.9115 13.7932 46.7245 13.8615 46.3009 13.9495C44.8495 14.2511 43.3056 14.5206 41.9956 15.2542C42.9808 13.8763 42.6741 12.1101 42.0431 10.6626C41.4766 9.363 41.046 7.9272 41.2538 6.4973C41.3316 5.9623 41.3614 5.7005 41.8727 5.488C42.1646 5.3667 42.4658 5.2553 42.7773 5.1967C43.2147 5.1144 43.6455 5.1756 44.0856 5.1828C45.0417 5.1983 46.3022 5.1738 46.6613 4.1314C46.2438 4.013 45.7941 4.4575 45.5187 4.5861C45.2696 4.7025 44.9503 4.7477 44.6541 4.7628C43.5879 4.8171 42.7332 4.6793 41.7053 5.1094C42.1332 4.2637 42.6932 3.8807 43.2413 3.1244C43.9017 2.2131 44.2992 1.1394 44.2455 0.0031C44.2235 0.002 44.2006 0.001 44.1777 0C43.8704 2.2614 41.7168 3.528 41.0271 5.5969C40.6561 6.7099 40.7406 7.9427 41.0415 9.0587C41.2995 10.0152 41.7882 10.8848 42.045 11.8322C42.3265 12.8707 42.3139 14.0722 41.6829 14.983C41.4172 15.3666 41.0335 15.8356 40.528 15.8508C39.9662 15.8677 39.5138 15.3331 39.1615 14.9643C38.3629 14.1283 37.564 13.1685 37.1027 12.1007C36.6541 11.0623 36.9679 9.9937 37.2509 8.9502C37.4625 8.1699 37.5708 7.2686 37.4716 6.492C37.3536 5.5673 36.9015 4.0605 35.7884 3.9285C35.7806 3.9494 35.7728 3.9704 35.765 3.9913C36.9777 4.8097 36.865 6.102 36.9823 7.3469C37.062 8.1935 36.8965 9.5052 35.6918 9.5739C34.3876 9.6483 33.2993 9.0504 32.126 8.6024C31.3141 8.2924 30.2765 8.037 29.5894 7.4951C29.0466 7.067 28.9142 6.478 28.7053 5.8555C28.6829 5.8591 28.6605 5.8628 28.6381 5.8664C28.6368 6.9063 28.9941 7.6557 29.945 8.1143C30.0927 8.1855 30.2425 8.2521 30.3918 8.3198C31.3725 8.7643 32.3644 9.3034 33.3791 9.6672C34.5075 10.0717 35.5963 11.244 36.4338 12.2132C37.5296 13.4813 38.4216 14.9434 38.2547 16.7096C38.0876 18.4777 37.354 20.1603 36.1844 21.4889C34.787 23.0762 33.2074 23.7484 31.1552 24.0871C29.417 24.3741 27.7022 24.2957 26.0798 23.5749C24.4031 22.83 23.5677 21.2887 23.3886 19.4949C23.2821 18.4285 23.792 17.5855 24.443 16.7779C25.0179 16.0646 25.9435 15.0702 26.9316 15.091C27.8302 15.1099 31.607 16.4244 31.4714 14.6688C31.311 14.7028 31.2512 14.9354 31.0506 15.014C30.9209 15.0649 30.616 15.0697 30.5363 15.0772C30.039 15.1242 29.4207 15.0603 28.8746 14.965C28.2681 14.8592 27.6769 14.722 27.0616 14.6845C26.2901 14.6374 25.7222 15.0133 25.139 15.4893C25.7045 15.1288 25.1291 13.7935 24.9113 13.3708C24.5013 12.575 23.7583 11.6986 22.8066 11.6008C22.7997 11.6222 22.7928 11.6437 22.7859 11.6651C24.6898 12.7542 25.2414 14.6476 24.067 16.4808C23.6 17.2097 22.9663 18.1052 22.9553 19.101C22.9435 20.1637 23.3137 21.4424 23.887 22.3291C23.7371 22.2618 23.3311 22.6154 23.1356 22.6386C22.7509 22.6843 22.3117 22.5249 21.9681 22.3707C21.1145 21.9875 20.4032 20.9325 20.0446 20.0914C19.7821 19.4758 19.5338 18.8549 19.2622 18.2431C19.047 17.7583 18.8196 17.3076 18.5316 16.8617C18.2926 16.4918 17.9674 16.1773 17.9301 15.834C17.7343 14.0321 18.7497 12.266 18.2857 10.4631C18.099 9.7378 17.6655 8.8828 17.3425 8.3228C17.0775 7.8632 16.7006 7.316 16.2134 7.0685C16.1509 7.6219 16.5753 8.1856 16.8955 8.5938C17.3052 9.116 17.6921 9.8292 17.8792 10.5464C18.3058 12.1815 17.5638 13.9342 17.519 15.5883C17.0893 15.1551 16.7824 14.7423 16.1313 14.5507C15.5923 14.392 15.0205 14.4081 14.4682 14.473C14.4673 14.4957 14.4664 14.5184 14.4654 14.5411C15.6263 14.7771 16.705 15.2857 17.4691 16.1355C18.26 17.015 18.7443 18.063 19.2012 19.14C19.3593 19.5126 19.5081 19.8891 19.667 20.2614C19.7743 20.5128 19.8786 20.715 20.029 20.9435C20.2809 21.3262 20.1539 21.3407 19.7921 21.5878C19.0845 22.0709 18.2435 22.1869 17.4413 22.1294C16.1564 22.0373 14.9538 21.6563 13.7374 21.2586C13.1505 21.0667 12.5649 20.8702 11.9889 20.6473C11.3 20.3807 10.8423 19.9297 10.3814 19.3519C9.577 18.3435 9.1475 17.0939 8.9949 15.8189C8.8463 14.5773 10.4384 13.7758 11.0672 12.8866C11.3079 12.5463 11.6048 12.0571 11.6206 11.6179C11.6489 10.8327 11.137 11.5153 11.0114 11.8634C10.8548 12.2977 10.8089 12.6153 10.3944 12.9996C9.769 13.5793 9.2203 14.1541 8.7867 14.8987C8.2976 13.3938 7.2917 12.62 5.6989 12.6856C5.6952 12.7078 5.6914 12.7299 5.6877 12.7521C7.0702 13.2954 8.1218 13.832 8.4849 15.3682C8.8882 17.0745 9.118 18.5727 10.3321 19.933C8.8528 19.4413 7.0479 19.8677 5.6409 20.4189C5.1105 20.6267 4.4577 20.8865 4.0471 21.1575C3.3747 21.6015 3.0498 22.3907 2.1875 22.5649C2.1888 22.5876 2.19 22.6104 2.1913 22.6331C3.1456 22.7166 3.8035 22.081 4.4833 21.5194C5.0816 21.0251 6.0501 20.6677 6.8826 20.4596C6.4722 21.3442 6.901 22.3743 6.4026 23.2477C6.3218 23.3893 6.2188 23.4706 6.1315 23.5469C5.9228 23.7294 5.6678 23.947 5.4639 24.2145C6.5021 24.5369 7.026 23.0742 7.1035 22.2737C7.176 21.5253 6.8734 20.4164 7.8638 20.2649C8.5047 20.1669 9.1136 20.0659 9.7578 20.2031C10.4951 20.3601 11.1416 20.762 11.8376 21.035C12.647 21.3525 13.335 21.7301 13.9779 22.3264C14.4693 22.7823 14.5809 23.104 14.3774 23.6337C14.122 24.2983 13.8461 24.8612 13.939 25.5773C13.9619 25.5761 13.9847 25.5749 14.0076 25.5737C14.0353 24.5116 14.6778 23.917 15.6251 23.59C16.1043 23.4246 16.61 23.3038 17.1027 23.1833C17.3795 23.1156 18.0429 23.1249 18.1917 23.0029C20.9169 23.5387 23.5009 24.9209 25.9175 26.2518C27.6375 27.1991 28.4201 29.2222 27.6192 31.0448C26.6977 33.1421 24.6543 34.9449 22.5132 35.7031C21.4117 36.0932 20.2256 36.4856 19.0368 36.3899C17.8952 36.298 16.8899 35.5534 16.0637 34.815C15.2049 34.0475 14.5479 32.9392 13.8733 31.9478C13.4691 31.3537 12.6481 29.8564 11.7502 30.0436C13.4228 30.9261 13.7444 33.2205 15.0688 34.4913C15.3257 34.7378 16.154 35.2226 16.179 35.6377C16.2196 36.3099 15.2275 36.8307 14.751 37.0138C13.1207 37.6404 10.9401 37.7044 9.2521 37.2539C7.1473 36.6922 6.4891 34.7569 5.2364 33.1939C4.3983 32.1482 2.7968 31.9881 1.4232 32.0788C1.4214 32.1015 1.4197 32.1242 1.4179 32.1469C2.4348 32.3725 3.5089 32.5895 4.4099 33.1381C5.0589 33.5332 5.5186 34.1187 5.9315 34.8211C6.4636 35.7265 6.9624 36.578 7.8778 37.1541C8.1501 37.3255 8.639 37.3811 8.7133 37.6902C8.7829 37.9798 8.4299 38.3024 8.241 38.4569C7.5936 38.9863 6.5546 39.4055 5.7655 39.6576C5.0993 39.8705 4.5362 39.786 3.8565 39.6984C2.3772 39.5081 1.0915 39.3684 0 40.6061C0.7075 40.373 1.5118 40.0544 2.1856 40.0124C2.9813 39.9628 3.7618 40.1397 4.548 40.2132C6.2959 40.3766 7.5516 38.9752 9.1161 38.5634C9.9361 38.3476 11.2538 38.2329 11.7418 39.0773C12.0566 39.622 11.8096 39.8406 11.6186 40.398C11.4545 40.8769 11.3335 41.3699 11.2589 41.8707C11.1228 42.7843 11.2178 43.9359 10.4724 44.646C9.9846 45.1107 8.9396 45.3965 8.2545 45.4897C8.2548 45.5125 8.255 45.5354 8.2553 45.5582C9.0253 45.6417 10.1271 45.7272 10.7107 45.0987C11.0524 44.7308 11.39 43.9441 11.5179 43.3904C12.0561 44.4154 12.9122 46.0118 12.4634 47.1918C12.3159 47.5797 12.0793 47.694 11.9876 48.1591C11.9019 48.594 11.9922 49.0533 12.2914 49.3897C12.4322 49.1874 12.4093 48.531 12.5223 48.22C12.6348 47.9107 12.6697 47.7372 12.7929 47.4609C13.0784 46.821 13.0081 46.1563 12.8222 45.4862C12.6776 44.965 12.4678 44.4477 12.2497 43.9537C12.0345 43.4662 11.6382 42.9628 11.6098 42.4492C11.5579 41.5103 11.9956 40.1054 12.579 39.3959C14.0444 37.6137 16.3756 37.1305 18.6125 37.3239C18.8723 37.3464 19.2049 37.3588 19.3435 37.491C19.6527 37.7857 19.414 38.1291 19.2127 38.5283C18.7896 39.3674 17.869 40.1099 17.8679 41.1172L17.9341 41.1307C18.3885 40.0551 19.2949 39.3471 20.1887 38.6496C20.8275 38.1511 21.4046 37.5842 22.3098 37.4719C24.4768 37.203 25.9896 39.0073 27.0751 40.5961C28.0056 41.958 28.8021 43.7275 28.3556 45.4056C27.8097 47.4576 25.3848 48.2411 23.5536 47.555C22.9452 47.3271 22.549 47.0125 21.9701 46.7968C21.0358 46.4485 20.0153 46.4744 19.0525 46.6859C19.054 46.7086 19.0554 46.7314 19.0569 46.7541C20.113 46.8441 21.138 47.1159 22.1353 47.4627C22.4172 47.5607 22.4212 47.5611 22.6898 47.641C23.0727 47.7549 24.0353 48.0132 24.1911 48.3452C24.523 49.0523 23.5349 49.9857 23.13 50.3681C22.1657 51.2789 21.048 52.0084 19.9096 52.6807C17.8994 53.8678 15.8707 54.3592 13.5456 54.2298C12.6197 54.1783 11.6411 54.229 10.794 54.5109C9.8939 54.8105 9.2083 55.6381 8.5921 56.3845C8.6085 56.4005 8.6248 56.4165 8.6412 56.4325C9.8806 55.3592 11.2178 54.6028 12.8581 54.6144C14.2544 54.6242 16.6225 54.558 17.3914 55.9951C16.9661 57.2463 16.8086 59.0055 15.856 60.0035C15.7113 59.9728 15.3691 60.3482 15.1796 60.4718C14.8502 60.6867 14.498 60.8639 14.1492 61.0448C16.5804 61.6512 17.1159 58.2146 17.6274 56.6013C17.8531 55.8895 18.1073 55.1844 18.4345 54.5123C18.7456 53.8732 19.0722 53.5382 19.7326 53.368C20.4873 53.1735 21.2623 53.2934 21.7935 53.8991C21.8033 53.8735 21.8132 53.848 21.823 53.8224C21.7579 54.7958 21.7293 55.8624 21.1717 56.7377C21.1884 56.753 21.2052 56.7682 21.2219 56.7835C21.8642 56.2823 22.1476 55.7988 22.17 55.0506C22.1954 54.2005 22.0452 52.9742 22.7184 52.3272C24.0548 51.043 26.1012 50.2405 27.9574 50.3991C29.3149 50.5151 30.4069 51.4242 30.7187 52.775C31.2148 54.9242 31.3236 57.1491 31.7176 59.3173C32.8614 62.5632 34.9439 69.7667 40.6029 73.7554C43.1449 75.5471 45.7535 77.003 48.8121 77.7018C52.589 78.5647 56.6129 78.3317 60.4597 78.2532C61.4933 78.2321 62.5355 78.1491 63.5556 78.3442C64.4661 78.5183 65.3723 78.7188 66.2802 78.9061C67.4652 79.1505 68.6279 79.5234 69.7274 80.0345C70.2533 80.2789 70.7145 80.6495 71.1927 80.9795C72.0211 81.5509 72.8495 82.1223 73.6779 82.6938C74.1537 83.022 74.7359 83.3239 75.1619 83.7175C75.6401 84.1593 76.2974 85.2067 76.3358 85.8353C76.3805 86.5666 76.0978 87.4507 75.7202 88.0651C74.8832 89.4268 73.2924 89.8831 71.8003 90.0818C69.7702 90.3522 67.7306 90.0209 65.7097 90.3592C64.7062 90.5272 63.7068 90.7633 62.7618 91.1462C62.1208 91.4059 61.0156 91.7639 60.8076 92.5105C60.5645 93.3825 61.5731 93.0912 62.0156 92.8607C62.8072 92.4483 63.4722 91.876 64.3242 91.5616C66.1366 90.8928 68.24 90.8875 70.1312 91.1361C69.495 91.7777 68.8219 92.489 68.4259 93.3129C68.1016 93.9878 68.1122 94.5974 67.3179 94.8811C66.0727 95.3258 64.4928 95.3475 63.4811 96.3029C63.1775 96.5896 62.7694 97.022 62.8608 97.4774C63.0677 98.5082 64.1396 97.0857 64.378 96.8529C64.8274 96.4139 65.2937 96.2321 65.9123 96.2522C66.7075 96.2781 67.4886 96.0948 68.0537 95.4728C67.9708 96.4001 68.0335 97.3488 68.3414 98.2324C68.5118 98.7215 69.1535 100.385 69.9244 99.8895C70.5737 99.4723 69.53 98.3081 69.3395 97.8443C69.0123 97.0475 68.8758 96.1885 68.8685 95.3303C68.8623 94.5965 68.8873 93.9134 69.3135 93.2907C69.8001 92.5799 70.5116 92.0395 71.1947 91.5306C72.0243 90.9125 73.018 90.5446 74.0169 90.2979C74.8232 90.0988 75.489 89.7798 76.0393 89.1453C76.4441 88.6785 76.9233 87.611 77.5449 87.4573C78.3803 87.2507 78.8108 88.5041 79.0202 89.0975C79.5154 90.5009 79.5106 92.038 79.2155 93.4837C78.8922 95.0675 78.0747 96.4711 76.605 97.2584C74.7814 98.2353 72.4436 98.8594 71.8923 101.15C71.7235 101.852 71.4585 103.545 72.158 104.043C73.075 104.695 72.9129 102.883 72.9184 102.508C72.9348 101.394 73.0094 100.435 73.8525 99.6213C74.4907 99.0055 75.3163 98.6279 76.1137 98.2651C75.1967 99.9171 74.9426 101.887 75.3015 103.734C75.437 104.431 77.0026 108.454 77.937 107.314C78.1805 107.016 77.9038 106.478 77.7556 106.209C77.4188 105.597 76.9866 105.046 76.6757 104.416C76.23 103.512 76.0048 102.501 75.9983 101.493C75.9921 100.52 76.2188 99.5638 76.6379 98.6865C77.1416 97.6321 78.3938 97.3292 78.9615 96.3121C78.8469 99.0361 80.5186 100.768 82.2796 102.626C82.625 102.99 83.1225 103.365 83.2409 103.878C83.3414 104.314 83.3003 104.833 83.3389 105.279C83.3717 105.658 83.4161 106.132 83.7986 106.338C84.2752 106.593 84.686 106.114 84.652 105.645Z" fill="#6BA9DD"/>
<g id="Myelin shealths">
<path id="Path_12_" d="M36.3887 64.3325C34.8637 62.6083 33.537 64.2359 33.6852 65.1134C33.8172 66.1374 34.9449 68.3727 35.9687 69.7651C37.2426 71.5868 38.738 70.3081 38.5868 69.1081C38.5565 68.02 37.0265 65.1585 36.3887 64.3325Z" fill="url(#paint2_radial_938_25181)"/>
<path id="Path_11_" d="M40.5047 70.7826C38.4922 69.7499 38.0205 71.7432 38.5064 72.5001C39.0383 73.3983 40.9192 75.0498 42.3663 75.9602C44.2033 77.1757 44.9624 75.4427 44.3421 74.3888C43.871 73.3939 41.3892 71.3115 40.5047 70.7826Z" fill="url(#paint3_radial_938_25181)"/>
<path id="Path_10_" d="M46.9559 75.0642C44.6618 75.0624 45.0199 77.1539 45.7772 77.6292C46.6341 78.2148 49.0532 78.8587 50.7701 79.0171C52.9735 79.2741 52.9882 77.2884 51.9863 76.5996C51.1475 75.8943 47.9943 75.1352 46.9559 75.0642Z" fill="url(#paint4_radial_938_25181)"/>
<path id="Path_9_" d="M54.6589 76.1873C52.4246 76.7296 53.2499 78.6003 54.0956 78.8653C55.0634 79.2097 57.5658 79.2383 59.2736 78.9793C61.4777 78.6972 61.0396 76.8369 59.907 76.4304C58.9296 75.9697 55.6861 76.0075 54.6589 76.1873Z" fill="url(#paint5_radial_938_25181)"/>
<path id="Path_8_" d="M62.9917 76.3986C60.7116 76.6641 61.311 78.6594 62.1189 79.0342C63.0387 79.5047 65.5178 79.8501 67.2424 79.8043C69.462 79.7979 69.2455 77.8622 68.1696 77.308C67.254 76.7188 64.0319 76.3468 62.9917 76.3986Z" fill="url(#paint6_radial_938_25181)"/>
<path id="Path_7_" d="M71.7158 78.7241C69.547 77.9203 69.0731 80.021 69.6046 80.7348C70.1874 81.5875 72.2251 83.0416 73.7872 83.7913C75.7711 84.8044 76.5564 82.934 75.8766 81.933C75.3572 80.9736 72.6701 79.1542 71.7158 78.7241Z" fill="url(#paint7_radial_938_25181)"/>
<path id="Path_5_" d="M34.1097 56.7808C32.9474 54.7807 31.0641 56.1467 30.979 57.0462C30.8356 58.0881 31.4273 60.5208 32.1421 62.0968C33.0065 64.1464 34.9744 63.1587 35.1462 61.9384C35.4169 60.8521 34.5665 57.7215 34.1097 56.7808Z" fill="url(#paint8_radial_938_25181)"/>
</g>
</g>
<defs>
<radialGradient id="paint0_radial_938_25181" cx="0" cy="0" r="1" gradientUnits="userSpaceOnUse" gradientTransform="translate(37.6777 38.8166) scale(14.6271)">
<stop stop-color="#CACACC" stop-opacity="0"/>
<stop offset="1" stop-color="#468ED7"/>
</radialGradient>
<radialGradient id="paint1_radial_938_25181" cx="0" cy="0" r="1" gradientUnits="userSpaceOnUse" gradientTransform="translate(39.8946 32.0924) scale(6.84098)">
<stop stop-color="#AFBAF7"/>
<stop offset="0.3111" stop-color="#6D96CE"/>
<stop offset="0.8032" stop-color="#285FCC"/>
</radialGradient>
<radialGradient id="paint2_radial_938_25181" cx="0" cy="0" r="1" gradientTransform="matrix(2.45306 2.79458 0.860825 -1.54887 35.9076 64.8438)" gradientUnits="userSpaceOnUse">
<stop stop-color="#D5F6FF"/>
<stop offset="1" stop-color="#464646"/>
</radialGradient>
<radialGradient id="paint3_radial_938_25181" cx="0" cy="0" r="1" gradientTransform="matrix(4.08031 2.97572 0.641191 -1.43857 40.2548 71.4066)" gradientUnits="userSpaceOnUse">
<stop stop-color="#D5F6FF"/>
<stop offset="1" stop-color="#464646"/>
</radialGradient>
<radialGradient id="paint4_radial_938_25181" cx="0" cy="0" r="1" gradientTransform="matrix(6.27874 1.48737 0.308324 -1.596 47.4387 75.6561)" gradientUnits="userSpaceOnUse">
<stop stop-color="#D5F6FF"/>
<stop offset="1" stop-color="#464646"/>
</radialGradient>
<radialGradient id="paint5_radial_938_25181" cx="0" cy="0" r="1" gradientTransform="matrix(7.77141 -0.616229 -0.346115 -1.55222 56.0951 76.7787)" gradientUnits="userSpaceOnUse">
<stop stop-color="#D5F6FF"/>
<stop offset="1" stop-color="#464646"/>
</radialGradient>
<radialGradient id="paint6_radial_938_25181" cx="0" cy="0" r="1" gradientTransform="matrix(5.52138 0.652905 0.148235 -1.58722 63.3977 77.0039)" gradientUnits="userSpaceOnUse">
<stop stop-color="#D5F6FF"/>
<stop offset="1" stop-color="#464646"/>
</radialGradient>
<radialGradient id="paint7_radial_938_25181" cx="0" cy="0" r="1" gradientTransform="matrix(3.25072 1.82735 0.631012 -1.57244 71.2956 79.285)" gradientUnits="userSpaceOnUse">
<stop stop-color="#D5F6FF"/>
<stop offset="1" stop-color="#464646"/>
</radialGradient>
<radialGradient id="paint8_radial_938_25181" cx="0" cy="0" r="1" gradientTransform="matrix(0.842975 3.97614 1.78733 -0.3093 33.3772 57.1409)" gradientUnits="userSpaceOnUse">
<stop stop-color="#D5F6FF"/>
<stop offset="1" stop-color="#464646"/>
</radialGradient>
</defs>
</svg>
