<svg width="40" height="23" viewBox="0 0 40 23" fill="none" xmlns="http://www.w3.org/2000/svg">
<g id="R-ICO-014081">
<g id="C2b">
<path d="M1.20441 11.324C1.20441 5.80113 5.68156 1.32397 11.2044 1.32397H28.2044C33.7273 1.32397 38.2044 5.80113 38.2044 11.324C38.2044 16.8468 33.7273 21.324 28.2044 21.324H11.2044C5.68156 21.324 1.20441 16.8468 1.20441 11.324Z" fill="url(#paint0_linear_938_23855)"/>
<path d="M33.8188 4.93216C32.306 3.54909 30.2991 2.71919 28.2044 2.64108C22.5377 2.44192 16.8711 2.08393 11.2044 1.46398C11.2044 1.37062 11.2044 1.27725 11.2044 1.18389C16.8711 0.563937 22.5377 0.20595 28.2044 0.00678515C30.9229 -0.0908607 33.7002 0.884991 35.79 2.69008C38.2688 4.80885 39.6983 8.09309 39.6082 11.324C39.5813 12.692 39.3041 14.0536 38.7962 15.3163C37.1436 19.6205 32.5714 22.4356 28.2048 22.0898C28.2047 22.0898 28.2045 22.0898 28.2044 22.0898C24.1698 21.8461 20.1348 21.6706 16.1002 21.7769C14.4683 21.8186 12.8364 21.9102 11.2044 22.0179C8.64002 22.1898 5.92806 21.4044 3.835 19.7113C1.36567 17.721 -0.0917057 14.4989 0.00449514 11.324C0.0329573 9.98007 0.315765 8.64419 0.829829 7.414C2.51116 3.22088 7.08354 0.596125 11.2044 1.18389C11.2044 1.27725 11.2044 1.37062 11.2044 1.46398C7.19967 1.9408 3.95986 4.74713 2.85874 8.179C2.5238 9.19681 2.37432 10.263 2.40424 11.324C2.4657 13.8283 3.56275 16.2248 5.37324 17.9619C6.88285 19.4571 8.95553 20.4773 11.2044 20.6293C12.8364 20.7367 14.4683 20.8281 16.1002 20.8697C20.1348 20.976 24.1697 20.8019 28.2044 20.5582C28.2045 20.5582 28.2046 20.5582 28.2047 20.5582C31.9634 20.3228 35.2025 17.7075 36.3326 14.3873C36.6739 13.4018 36.829 12.3611 36.8007 11.324C36.7452 8.87525 35.62 6.54079 33.8188 4.93216Z" fill="#D55394"/>
<text id="C2b_2" fill="white" xml:space="preserve" style="white-space: pre" font-family="Arial" font-size="12" font-weight="bold" letter-spacing="0em"><tspan x="8.36066" y="15.4841">C2b</tspan></text>
</g>
</g>
<defs>
<linearGradient id="paint0_linear_938_23855" x1="19.7044" y1="1.32397" x2="19.7044" y2="21.324" gradientUnits="userSpaceOnUse">
<stop stop-color="#D55394"/>
<stop offset="1" stop-color="#53203A"/>
</linearGradient>
</defs>
</svg>
