<svg width="38" height="23" viewBox="0 0 38 23" fill="none" xmlns="http://www.w3.org/2000/svg">
<g id="R-ICO-012857">
<g id="IKK">
<path d="M1.21875 11.2761C1.21875 5.75328 5.6959 1.27612 11.2188 1.27612H26.2188C31.7416 1.27612 36.2188 5.75328 36.2188 11.2761C36.2188 16.799 31.7416 21.2761 26.2188 21.2761H11.2187C5.6959 21.2761 1.21875 16.799 1.21875 11.2761Z" fill="url(#paint0_linear_938_23384)"/>
<path d="M32.4438 5.4775C30.8881 3.7363 28.6173 2.64577 26.2188 2.54258C21.2188 2.33539 16.2188 1.98671 11.2188 1.41613C11.2188 1.32276 11.2188 1.2294 11.2188 1.13603C16.2188 0.565451 21.2188 0.216772 26.2188 0.00958467C29.3024 -0.124757 32.4655 1.15836 34.6278 3.4421C36.6153 5.51979 37.712 8.42378 37.6379 11.2761C37.6079 12.8349 37.2492 14.3871 36.5975 15.793C34.8029 19.8256 30.4019 22.3786 26.2191 22.042C26.219 22.042 26.2189 22.042 26.2188 22.042C22.3508 21.7982 18.4824 21.6228 14.6145 21.7291C13.4826 21.7592 12.3507 21.8155 11.2187 21.8851C8.32502 22.0745 5.23561 21.0421 3.04934 18.8863C1.05695 16.9242 -0.0692234 14.079 0.00340569 11.2761C0.0316428 9.74477 0.395132 8.22071 1.05282 6.85233C2.87215 2.92904 7.2711 0.558207 11.2188 1.13603C11.2188 1.2294 11.2188 1.32276 11.2188 1.41613C7.38229 1.89745 4.25852 4.48526 3.04067 7.71845C2.60308 8.85816 2.4032 10.0712 2.43401 11.2761C2.48406 13.4814 3.32054 15.6106 4.75359 17.2981C6.28528 19.1675 8.63036 20.5084 11.2187 20.6661C12.3507 20.7356 13.4826 20.7917 14.6145 20.8219C18.4825 20.9282 22.3507 20.7541 26.2188 20.5104C26.2189 20.5104 26.219 20.5104 26.2191 20.5103C29.8201 20.2697 32.9409 17.8646 34.1838 14.7413C34.6275 13.639 34.8322 12.4539 34.7997 11.2761C34.7481 9.12007 33.8818 7.0494 32.4438 5.4775Z" fill="#FC5841"/>
<text id="IKK_2" fill="white" xml:space="preserve" style="white-space: pre" font-family="Arial" font-size="12" font-weight="bold" letter-spacing="0em"><tspan x="8.37695" y="15.4363">IKK</tspan></text>
</g>
</g>
<defs>
<linearGradient id="paint0_linear_938_23384" x1="18.7188" y1="1.27612" x2="18.7188" y2="21.2761" gradientUnits="userSpaceOnUse">
<stop stop-color="#FC5841"/>
<stop offset="1" stop-color="#102670"/>
</linearGradient>
</defs>
</svg>
