<svg width="34" height="24" viewBox="0 0 34 24" fill="none" xmlns="http://www.w3.org/2000/svg">
<g id="R-ICO-013527">
<g id="CHEMICAL_OCT">
<g id="Rectangle 2">
<mask id="path-1-outside-1_938_25023" maskUnits="userSpaceOnUse" x="8.37988" y="0" width="18" height="24" fill="black">
<rect fill="white" x="8.37988" width="18" height="24"/>
<path d="M8.37988 2H25.6208V22H8.37988V2Z"/>
</mask>
<path d="M8.37988 2H25.6208V22H8.37988V2Z" fill="#4D9AB5"/>
<path d="M8.37988 2V4H25.6208V2V0H8.37988V2ZM25.6208 22V20H8.37988V22V24H25.6208V22Z" fill="#0052AF" mask="url(#path-1-outside-1_938_25023)"/>
</g>
<g id="LEFT CORNER">
<mask id="mask0_938_25023" style="mask-type:luminance" maskUnits="userSpaceOnUse" x="0" y="0" width="10" height="24">
<rect id="MASK" width="10" height="24" transform="matrix(-1 8.74228e-08 8.74228e-08 1 10 0)" fill="white"/>
</mask>
<g mask="url(#mask0_938_25023)">
<g id="CORNER">
<mask id="path-4-outside-2_938_25023" maskUnits="userSpaceOnUse" x="-1.74846e-07" y="-9.61651e-07" width="13" height="24" fill="black">
<rect fill="white" x="-1.74846e-07" y="-9.61651e-07" width="13" height="24"/>
<path d="M8 22L2 16L2 8L8 2L11 2L11 22L8 22Z"/>
</mask>
<path d="M8 22L2 16L2 8L8 2L11 2L11 22L8 22Z" fill="#4D9AB5"/>
<path d="M8 22L2 16L2 8L8 2L11 2L11 22L8 22Z" stroke="#0052AF" stroke-width="4" stroke-miterlimit="3.99933" stroke-linejoin="round" mask="url(#path-4-outside-2_938_25023)"/>
</g>
</g>
</g>
<g id="RIGHT CORNER">
<mask id="mask1_938_25023" style="mask-type:luminance" maskUnits="userSpaceOnUse" x="24" y="0" width="10" height="24">
<rect id="MASK_2" x="24.1553" width="9.84445" height="24" fill="white"/>
</mask>
<g mask="url(#mask1_938_25023)">
<g id="CORNER_2">
<mask id="path-6-outside-3_938_25023" maskUnits="userSpaceOnUse" x="21" y="-7.76718e-07" width="13" height="24" fill="black">
<rect fill="white" x="21" y="-7.76718e-07" width="13" height="24"/>
<path d="M26 22L32 16L32 8L26 2L23 2L23 22L26 22Z"/>
</mask>
<path d="M26 22L32 16L32 8L26 2L23 2L23 22L26 22Z" fill="#4D9AB5"/>
<path d="M26 22L32 16L32 8L26 2L23 2L23 22L26 22Z" stroke="#0052AF" stroke-width="4" stroke-miterlimit="3.99933" stroke-linejoin="round" mask="url(#path-6-outside-3_938_25023)"/>
</g>
</g>
</g>
<g id="Ch">
<text fill="white" xml:space="preserve" style="white-space: pre" font-family="Arial" font-size="12" font-weight="bold" letter-spacing="0em"><tspan x="4.261" y="16.1602">H</tspan><tspan x="17.1567" y="16.1602"> O</tspan></text>
<text fill="white" xml:space="preserve" style="white-space: pre" font-family="Arial" font-size="12" font-weight="bold" letter-spacing="0em"><tspan x="12.9329" y="16.1602">&#x2082;</tspan></text>
</g>
</g>
</g>
</svg>
