<svg width="100" height="24" viewBox="0 0 100 24" fill="none" xmlns="http://www.w3.org/2000/svg">
<g id="R-ICO-014826">
<g id="BASE/SMALL-MOLECULE_THERAPEUTIC">
<g id="LEFT_ELEMENT">
<mask id="mask0_938_22932" style="mask-type:alpha" maskUnits="userSpaceOnUse" x="0" y="0" width="8" height="24">
<rect id="MASK" width="8" height="24" transform="matrix(-1 0 0 1 8 0)" fill="white"/>
</mask>
<g mask="url(#mask0_938_22932)">
<g id="LEFT_CORNER">
<mask id="path-2-outside-1_938_22932" maskUnits="userSpaceOnUse" x="0" y="-1" width="10" height="26" fill="black">
<rect fill="white" y="-1" width="10" height="26"/>
<path d="M2 12C2 12 6.04738 5.90524 8 2V22C6.04738 18.0948 2 12 2 12Z"/>
</mask>
<path d="M2 12C2 12 6.04738 5.90524 8 2V22C6.04738 18.0948 2 12 2 12Z" fill="url(#paint0_linear_938_22932)"/>
<path d="M2 12C2 12 6.04738 5.90524 8 2V22C6.04738 18.0948 2 12 2 12Z" stroke="#946BE6" stroke-width="4" stroke-miterlimit="3.99933" stroke-linejoin="round" mask="url(#path-2-outside-1_938_22932)"/>
</g>
</g>
</g>
<g id="CENTRE shape">
<g clip-path="url(#clip0_938_22932)">
<mask id="path-3-outside-2_938_22932" maskUnits="userSpaceOnUse" x="8" y="0" width="60" height="24" fill="black">
<rect fill="white" x="8" width="60" height="24"/>
<path d="M8 2H68V22H8V2Z"/>
</mask>
<path d="M8 2H68V22H8V2Z" fill="url(#paint1_linear_938_22932)"/>
<text id="Chemical" fill="white" xml:space="preserve" style="white-space: pre" font-family="Arial" font-size="12" font-weight="bold" letter-spacing="0em"><tspan x="8.31055" y="16.1602">SAPITINIB</tspan></text>
</g>
<path d="M8 2V4H68V2V0H8V2ZM68 22V20H8V22V24H68V22Z" fill="#946BE6" mask="url(#path-3-outside-2_938_22932)"/>
</g>
<g id="RIGHT_ELEMENT">
<mask id="mask1_938_22932" style="mask-type:alpha" maskUnits="userSpaceOnUse" x="68" y="0" width="32" height="24">
<path id="MASK_2" d="M68 24L100 24L100 -8.90181e-07L68 1.90735e-06L68 24Z" fill="white"/>
</mask>
<g mask="url(#mask1_938_22932)">
<g id="Mask group">
<g id="ELEMENT">
<g id="BG">
<mask id="path-7-outside-3_938_22932" maskUnits="userSpaceOnUse" x="66" y="-1.74846e-07" width="34" height="24" fill="black">
<rect fill="white" x="66" y="-1.74846e-07" width="34" height="24"/>
<path d="M98 12C98 12 93.9526 18.0948 92 22L68 21.9999L68 2L92 2C93.9526 5.90524 98 12 98 12Z"/>
</mask>
<path d="M98 12C98 12 93.9526 18.0948 92 22L68 21.9999L68 2L92 2C93.9526 5.90524 98 12 98 12Z" fill="#946BE6"/>
<path d="M98 12C98 12 93.9526 18.0948 92 22L68 21.9999L68 2L92 2C93.9526 5.90524 98 12 98 12Z" stroke="#946BE6" stroke-width="4" stroke-miterlimit="3.99933" stroke-linejoin="round" mask="url(#path-7-outside-3_938_22932)"/>
</g>
<g id="RX">
<path id="Vector" d="M77 22V14H80.3071C81.1387 14 81.743 14.0718 82.1199 14.2155C82.4968 14.3592 82.7984 14.6148 83.0249 14.9822C83.2514 15.3496 83.3647 15.7698 83.3647 16.2428C83.3647 16.843 83.193 17.3388 82.8497 17.7298C82.5064 18.1209 81.9933 18.3675 81.3103 18.4693C81.6501 18.6731 81.9305 18.8968 82.1517 19.1405C82.3728 19.3842 82.671 19.8172 83.0461 20.4393L83.9963 22H82.1172L80.9812 20.2592C80.5778 19.6371 80.3017 19.2451 80.1531 19.0832C80.0044 18.9214 79.847 18.8104 79.6807 18.7504C79.5144 18.6904 79.2507 18.6603 78.8898 18.6603H78.5713V22H77ZM78.5713 17.3834H79.7338C80.4875 17.3834 80.9583 17.3506 81.1458 17.2851C81.3333 17.2196 81.4802 17.1068 81.5864 16.9468C81.6925 16.7867 81.7456 16.5866 81.7456 16.3465C81.7456 16.0773 81.6758 15.8599 81.536 15.6944C81.3962 15.5289 81.1989 15.4243 80.9441 15.3806C80.8167 15.3625 80.4345 15.3533 79.7975 15.3533H78.5713V17.3834Z" fill="white"/>
<path id="Vector_2" d="M83.9961 21.9999L86.0291 19.0149L84.0811 16.2046H85.9018L86.8998 17.798L87.9509 16.2046H89.7027L87.7917 18.9495L89.8778 22H88.0464L86.8998 20.2047L85.7426 21.9999H83.9961Z" fill="white"/>
</g>
</g>
<g id="RIGHT_ELEMENT_2">
<mask id="mask2_938_22932" style="mask-type:alpha" maskUnits="userSpaceOnUse" x="68" y="0" width="8" height="24">
<rect id="MASK_3" x="68" width="8" height="24" fill="white"/>
</mask>
<g mask="url(#mask2_938_22932)">
<g id="LEFT_CORNER_2">
<mask id="path-11-outside-4_938_22932" maskUnits="userSpaceOnUse" x="66" y="-1" width="10" height="26" fill="black">
<rect fill="white" x="66" y="-1" width="10" height="26"/>
<path d="M74 12C74 12 69.9526 5.90524 68 2V22C69.9526 18.0948 74 12 74 12Z"/>
</mask>
<path d="M74 12C74 12 69.9526 5.90524 68 2V22C69.9526 18.0948 74 12 74 12Z" fill="url(#paint2_linear_938_22932)"/>
<path d="M74 12C74 12 69.9526 5.90524 68 2V22C69.9526 18.0948 74 12 74 12Z" stroke="#946BE6" stroke-width="4" stroke-miterlimit="3.99933" stroke-linejoin="round" mask="url(#path-11-outside-4_938_22932)"/>
</g>
</g>
</g>
</g>
</g>
</g>
</g>
</g>
<defs>
<linearGradient id="paint0_linear_938_22932" x1="5" y1="2" x2="5" y2="22" gradientUnits="userSpaceOnUse">
<stop stop-color="#F9FFC0"/>
<stop offset="1" stop-color="#AA5027"/>
</linearGradient>
<linearGradient id="paint1_linear_938_22932" x1="38" y1="2" x2="38" y2="22" gradientUnits="userSpaceOnUse">
<stop stop-color="#F9FFC0"/>
<stop offset="1" stop-color="#AA5027"/>
</linearGradient>
<linearGradient id="paint2_linear_938_22932" x1="71" y1="2" x2="71" y2="22" gradientUnits="userSpaceOnUse">
<stop stop-color="#F9FFC0"/>
<stop offset="1" stop-color="#AA5027"/>
</linearGradient>
<clipPath id="clip0_938_22932">
<path d="M8 2H68V22H8V2Z" fill="white"/>
</clipPath>
</defs>
</svg>
