<svg width="136" height="24" viewBox="0 0 136 24" fill="none" xmlns="http://www.w3.org/2000/svg">
<g id="R-ICO-012561">
<g id="CHEMICAL_HEX">
<g id="LEFT_CORNER">
<mask id="mask0_938_24726" style="mask-type:luminance" maskUnits="userSpaceOnUse" x="0" y="0" width="10" height="24">
<rect id="MASK" width="10" height="24" transform="matrix(-1 0 0 1 10 0)" fill="white"/>
</mask>
<g mask="url(#mask0_938_24726)">
<g id="CORNER">
<mask id="path-2-outside-1_938_24726" maskUnits="userSpaceOnUse" x="0" y="0" width="12" height="24" fill="black">
<rect fill="white" width="12" height="24"/>
<path d="M2 12C2 12 6.04738 5.90524 8 2H10V22H8C6.04738 18.0948 2 12 2 12Z"/>
</mask>
<path d="M2 12C2 12 6.04738 5.90524 8 2H10V22H8C6.04738 18.0948 2 12 2 12Z" fill="url(#paint0_linear_938_24726)"/>
<path d="M2 12C2 12 6.04738 5.90524 8 2H10V22H8C6.04738 18.0948 2 12 2 12Z" stroke="#CA7A00" stroke-width="4" stroke-miterlimit="3.99933" stroke-linejoin="round" mask="url(#path-2-outside-1_938_24726)"/>
</g>
</g>
</g>
<g id="RIGHT CORNER">
<mask id="mask1_938_24726" style="mask-type:luminance" maskUnits="userSpaceOnUse" x="126" y="0" width="10" height="24">
<rect id="MASK_2" width="10" height="24" transform="matrix(1 -8.74228e-08 -8.74228e-08 -1 126 24)" fill="white"/>
</mask>
<g mask="url(#mask1_938_24726)">
<g id="CORNER_2">
<mask id="path-4-outside-2_938_24726" maskUnits="userSpaceOnUse" x="124" y="0" width="12" height="24" fill="black">
<rect fill="white" x="124" width="12" height="24"/>
<path d="M134 12C134 12 129.953 5.90524 128 2H126V22H128C129.953 18.0948 134 12 134 12Z"/>
</mask>
<path d="M134 12C134 12 129.953 5.90524 128 2H126V22H128C129.953 18.0948 134 12 134 12Z" fill="url(#paint1_linear_938_24726)"/>
<path d="M134 12C134 12 129.953 5.90524 128 2H126V22H128C129.953 18.0948 134 12 134 12Z" stroke="#CA7A00" stroke-width="4" stroke-miterlimit="3.99933" stroke-linejoin="round" mask="url(#path-4-outside-2_938_24726)"/>
</g>
</g>
</g>
<g id="centre">
<g clip-path="url(#clip0_938_24726)">
<mask id="path-5-outside-3_938_24726" maskUnits="userSpaceOnUse" x="8" y="0" width="120" height="24" fill="black">
<rect fill="white" x="8" width="120" height="24"/>
<path d="M8 2H128V22H8V2Z"/>
</mask>
<path d="M8 2H128V22H8V2Z" fill="url(#paint2_linear_938_24726)"/>
<text id="Chemical" fill="white" xml:space="preserve" style="white-space: pre" font-family="Arial" font-size="12" font-weight="bold" letter-spacing="0em"><tspan x="8.29883" y="16.1602">CHOLECALCIFEROL</tspan></text>
</g>
<path d="M8 2V4H128V2V0H8V2ZM128 22V20H8V22V24H128V22Z" fill="#CA7A00" mask="url(#path-5-outside-3_938_24726)"/>
</g>
</g>
</g>
<defs>
<linearGradient id="paint0_linear_938_24726" x1="6" y1="2" x2="6" y2="22" gradientUnits="userSpaceOnUse">
<stop stop-color="#CA7A00"/>
<stop offset="1" stop-color="#0085FF"/>
</linearGradient>
<linearGradient id="paint1_linear_938_24726" x1="130" y1="2" x2="130" y2="22" gradientUnits="userSpaceOnUse">
<stop stop-color="#CA7A00"/>
<stop offset="1" stop-color="#0085FF"/>
</linearGradient>
<linearGradient id="paint2_linear_938_24726" x1="68" y1="2" x2="68" y2="22" gradientUnits="userSpaceOnUse">
<stop stop-color="#CA7A00"/>
<stop offset="1" stop-color="#0085FF"/>
</linearGradient>
<clipPath id="clip0_938_24726">
<path d="M8 2H128V22H8V2Z" fill="white"/>
</clipPath>
</defs>
</svg>
