<svg width="73" height="23" viewBox="0 0 73 23" fill="none" xmlns="http://www.w3.org/2000/svg">
<g id="R-ICO-013710">
<g id="RPS6KA5">
<path d="M0.961304 11.5C0.961304 5.97715 5.43846 1.5 10.9613 1.5H60.9613C66.4842 1.5 70.9613 5.97715 70.9613 11.5C70.9613 17.0228 66.4842 21.5 60.9613 21.5H10.9613C5.43846 21.5 0.961304 17.0228 0.961304 11.5Z" fill="url(#paint0_linear_938_23781)"/>
<path d="M51.6696 2.99266C38.1001 2.87443 24.5308 2.52283 10.9613 1.64001C10.9613 1.54664 10.9613 1.45328 10.9613 1.35991C24.5308 0.477089 38.1001 0.125486 51.6696 0.00726104C54.7668 -0.00998318 57.864 0.00506949 60.9613 0.035736C65.2134 0.026093 69.284 2.64709 71.08 6.4282C71.8525 8.00336 72.2368 9.76139 72.2039 11.5C72.2415 17.5103 66.6881 22.6352 60.9619 22.2659C60.9617 22.2659 60.9615 22.2658 60.9613 22.2658C54.1768 22.0221 47.3916 21.8466 40.6072 21.953C33.8224 22.056 27.0371 22.4645 20.2524 22.6648C17.1554 22.7392 14.0584 22.761 10.9613 22.7482C6.7879 22.7808 2.77865 20.1881 1.05043 16.4682C0.309105 14.9174 -0.0474746 13.1953 0.00509495 11.5C0.0334467 5.63198 5.56646 0.798965 10.9613 1.35991C10.9613 1.45328 10.9613 1.54664 10.9613 1.64001C5.70319 1.94182 1.62991 6.71462 1.91737 11.5C1.96617 12.9051 2.33552 14.2772 2.98816 15.4951C4.52678 18.4202 7.72009 20.3018 10.9613 20.2519C14.0583 20.239 17.1554 20.2609 20.2524 20.3353C27.0372 20.5356 33.8224 20.9428 40.6072 21.0457C47.3917 21.1521 54.1767 20.978 60.9613 20.7342C60.9615 20.7342 60.9617 20.7342 60.9618 20.7342C65.8885 20.6231 69.9401 16.1425 69.7188 11.5C69.6896 10.1386 69.3482 8.80279 68.7271 7.6096C67.2566 4.74521 64.1242 2.89138 60.9613 2.96429C57.864 2.99499 54.7668 3.01003 51.6696 2.99266Z" fill="#F9934E"/>
<text id="RPS6KA5_2" fill="white" xml:space="preserve" style="white-space: pre" font-family="Arial" font-size="12" font-weight="bold" letter-spacing="0em"><tspan x="8.2699" y="15.6602">RPS6KA5</tspan></text>
</g>
</g>
<defs>
<linearGradient id="paint0_linear_938_23781" x1="35.9613" y1="1.5" x2="35.9613" y2="21.5" gradientUnits="userSpaceOnUse">
<stop stop-color="#F9934E"/>
<stop offset="1" stop-color="#AB3C8C"/>
</linearGradient>
</defs>
</svg>
