<svg width="37" height="39" viewBox="0 0 37 39" fill="none" xmlns="http://www.w3.org/2000/svg">
<g id="R-ICO-013928">
<path id="BG" d="M10.7239 1.82133C22.8101 -1.83267 33.4961 -0.441774 35.6178 10.1664C37.7395 20.7746 37.0322 38.3243 24.0195 38.8847C11.0068 39.445 1.10587 36.573 0.115765 23.9355C-0.874335 11.298 4.64187 3.66013 10.7239 1.82133Z" fill="#70AEE0"/>
<g id="R-ICO-013121">
<g id="Nucleus">
<mask id="path-2-inside-1_938_25218" fill="white">
<path d="M19.1026 19.6602C22.3252 19.6602 24.9376 17.0478 24.9376 13.8252C24.9376 10.6027 22.3252 7.99023 19.1026 7.99023C15.88 7.99023 13.2676 10.6027 13.2676 13.8252C13.2676 17.0478 15.88 19.6602 19.1026 19.6602Z"/>
</mask>
<path d="M19.1026 19.6602C22.3252 19.6602 24.9376 17.0478 24.9376 13.8252C24.9376 10.6027 22.3252 7.99023 19.1026 7.99023C15.88 7.99023 13.2676 10.6027 13.2676 13.8252C13.2676 17.0478 15.88 19.6602 19.1026 19.6602Z" fill="url(#paint0_radial_938_25218)" stroke="#5656A5" stroke-width="0.87525" mask="url(#path-2-inside-1_938_25218)"/>
</g>
</g>
<path id="FG" opacity="0.6" d="M10.7239 1.82133C22.8101 -1.83267 33.4961 -0.441774 35.6178 10.1664C37.7395 20.7746 37.0322 38.3243 24.0195 38.8847C11.0068 39.445 1.10587 36.573 0.115765 23.9355C-0.874335 11.298 4.64187 3.66013 10.7239 1.82133Z" fill="#69B2ED"/>
</g>
<defs>
<radialGradient id="paint0_radial_938_25218" cx="0" cy="0" r="1" gradientUnits="userSpaceOnUse" gradientTransform="translate(17.5854 11.3956) scale(7.66899)">
<stop stop-color="#AFBAF7"/>
<stop offset="0.3111" stop-color="#6D96CE"/>
<stop offset="0.8032" stop-color="#285FCC"/>
</radialGradient>
</defs>
</svg>
