<svg width="37" height="23" viewBox="0 0 37 23" fill="none" xmlns="http://www.w3.org/2000/svg">
<g id="R-ICO-012491">
<g id="C5">
<path d="M1.22534 11.2484C1.22534 5.72554 5.7025 1.24838 11.2253 1.24838H25.2253C30.7482 1.24838 35.2253 5.72554 35.2253 11.2484C35.2253 16.7712 30.7482 21.2484 25.2253 21.2484H11.2253C5.70249 21.2484 1.22534 16.7712 1.22534 11.2484Z" fill="#54A0D3"/>
<path d="M31.7329 5.76836C30.1773 3.83974 27.7796 2.60382 25.2253 2.48526C20.5587 2.27502 15.892 1.93266 11.2253 1.38839C11.2253 1.29502 11.2253 1.20166 11.2253 1.10829C15.892 0.564024 20.5587 0.221663 25.2253 0.0114191C28.4913 -0.144749 31.8444 1.30801 34.0153 3.84401C35.7706 5.87345 36.7188 8.58511 36.6523 11.2484C36.6211 12.9039 36.2171 14.5506 35.4877 16.0234C33.6311 19.9195 29.3167 22.3466 25.2257 22.0142C25.2256 22.0142 25.2255 22.0142 25.2253 22.0142C21.4407 21.7705 17.6557 21.595 13.8711 21.7014C12.9892 21.7254 12.1073 21.7659 11.2253 21.8166C8.16788 22.0088 4.89385 20.842 2.68585 18.4411C0.919685 16.5203 -0.0587406 13.8652 0.00276709 11.2484C0.0300368 9.62198 0.438105 8.00443 1.17337 6.57179C3.05295 2.784 7.36419 0.535085 11.2253 1.10829C11.2253 1.20166 11.2253 1.29502 11.2253 1.38839C7.47289 1.87176 4.40827 4.35449 3.13881 7.4876C2.64538 8.68528 2.41739 9.97075 2.44783 11.2484C2.49165 13.3048 3.21165 15.2985 4.46692 16.9396C5.9853 19.0035 8.46276 20.5249 11.2253 20.6791C12.1073 20.7296 12.9892 20.7701 13.8711 20.7941C17.6558 20.9005 21.4406 20.7263 25.2253 20.4826C25.2254 20.4826 25.2255 20.4826 25.2256 20.4826C28.748 20.2396 31.8086 17.9356 33.1012 14.9113C33.6006 13.7537 33.8328 12.4971 33.7984 11.2484C33.7496 9.23807 32.9991 7.30086 31.7329 5.76836Z" fill="#1F3F53"/>
<text id="C5_2" fill="white" xml:space="preserve" style="white-space: pre" font-family="Arial" font-size="12" font-weight="bold" letter-spacing="0em"><tspan x="10.5496" y="15.4085">C5</tspan></text>
</g>
</g>
</svg>
