<svg width="92" height="155" viewBox="0 0 92 155" fill="none" xmlns="http://www.w3.org/2000/svg">
<g id="R-ICO-012789">
<g id="BOTTOM_bonds">
<path id="Vector" d="M66.6458 117.474C66.7135 121.113 66.5877 124.892 64.7491 128.596C64.2776 129.51 63.6289 130.395 62.7917 131.152C61.9584 131.923 60.8797 132.469 59.7411 132.8C58.5841 133.074 57.3918 133.083 56.2739 132.869C55.1771 132.63 54.1287 132.232 53.2244 131.686C51.3862 130.612 49.9352 129.138 48.8285 127.511C47.7066 125.888 46.8938 124.125 46.2706 122.336C45.6535 120.543 45.2125 118.719 44.9171 116.882C44.6434 115.04 44.5834 113.189 44.5762 111.35C44.5741 110.816 45.0047 110.382 45.538 110.38C46.0631 110.378 46.4919 110.795 46.507 111.317L46.5079 111.35C46.6048 114.803 47.2976 118.255 48.8023 121.275C50.2892 124.275 52.6072 126.842 55.162 128.223C57.7412 129.634 60.2889 129.476 62.2509 127.003C63.1988 125.807 63.859 124.238 64.2659 122.599C64.681 120.952 64.8672 119.215 64.9556 117.474L64.957 117.447C64.9807 116.981 65.3777 116.622 65.8438 116.646C66.2892 116.669 66.6365 117.035 66.6458 117.474Z" fill="#682547"/>
<path id="Vector_2" d="M46.3629 127.468C47.5703 130.932 47.2819 134.539 46.5362 137.982C45.7736 141.44 44.402 144.754 42.668 147.857C41.7919 149.406 40.8488 150.929 39.6013 152.31C38.944 152.979 38.2321 153.637 37.2544 154.086C36.9903 154.177 36.743 154.288 36.461 154.346C36.1627 154.376 35.8778 154.453 35.5678 154.413C34.955 154.371 34.3249 154.136 33.8909 153.768C32.9979 153.042 32.5025 152.128 32.1998 151.258C31.8632 150.378 31.6797 149.496 31.5246 148.618C31.2336 146.863 31.1518 145.124 31.0842 143.387C31.0637 142.861 31.4735 142.418 31.9994 142.397C32.5253 142.377 32.9682 142.787 32.9886 143.312C32.9892 143.329 32.9895 143.345 32.9893 143.361L32.9889 143.387C32.9629 145.049 33.0206 146.716 33.2809 148.32C33.4295 149.114 33.6061 149.902 33.8877 150.608C34.1362 151.335 34.5478 151.955 34.9872 152.278C35.4259 152.578 35.8516 152.584 36.4327 152.3C36.9971 152.011 37.5486 151.486 38.0508 150.921C39.0417 149.735 39.8256 148.29 40.4214 146.78C41.6207 143.738 42.1326 140.456 42.6657 137.245C43.1863 134.003 43.4837 130.805 44.7218 127.469L44.7279 127.452C44.8949 127.002 45.395 126.773 45.8449 126.94C46.096 127.033 46.2798 127.234 46.3629 127.468Z" fill="#682547"/>
<path id="Vector_3" d="M86.9044 127.468C86.9263 129.593 86.813 131.731 86.4505 133.849C86.0594 135.958 85.5053 138.049 84.7403 140.085C83.2582 144.174 80.732 147.968 77.2662 150.787C75.5422 152.203 73.5736 153.356 71.4084 154.127C69.2562 154.881 66.8217 155.267 64.4014 154.622C63.7971 154.504 63.2284 154.197 62.6649 153.948C62.1417 153.6 61.5933 153.291 61.1708 152.832C60.2372 152.007 59.6177 150.953 59.1375 149.901C58.2552 147.749 58.0897 145.529 58.082 143.386C58.0801 142.853 58.5109 142.419 59.0443 142.417C59.5718 142.415 60.002 142.837 60.0132 143.362L60.0137 143.386C60.0546 145.357 60.3804 147.326 61.1791 148.963C61.9818 150.589 63.3541 151.733 65.0114 151.929C66.6521 152.225 68.4516 151.678 70.091 150.896C71.748 150.101 73.2821 148.978 74.7181 147.745C76.1559 146.506 77.4703 145.106 78.7001 143.622C79.9264 142.137 81.0995 140.564 82.0508 138.843C82.9991 137.124 83.7798 135.291 84.3176 133.375C84.8124 131.452 85.1358 129.473 85.2142 127.468L85.2151 127.444C85.2334 126.978 85.6262 126.614 86.0925 126.633C86.5441 126.651 86.899 127.022 86.9044 127.468Z" fill="#682547"/>
<path id="Vector_4" d="M26.1287 117.474C26.24 121.168 25.9102 124.906 24.9733 128.611C24.4973 130.458 23.8499 132.3 22.8947 134.024C21.9367 135.742 20.6753 137.337 19.0894 138.657C17.4974 139.943 15.565 141.043 13.2866 141.269C12.1684 141.423 10.9634 141.24 9.8772 140.854C8.7637 140.475 7.8431 139.73 7.0923 138.948C5.6386 137.299 4.9282 135.36 4.5214 133.482C4.1276 131.587 4.0642 129.701 4.0586 127.839C4.057 127.306 4.488 126.872 5.0214 126.871C5.5468 126.869 5.9755 127.288 5.9896 127.81L5.9904 127.839C6.0361 129.586 6.2443 131.323 6.7023 132.942C7.1458 134.554 7.922 136.055 9.0186 136.992C10.1182 137.931 11.4444 138.145 12.7511 137.812C14.0647 137.488 15.3567 136.653 16.5134 135.639C17.6809 134.615 18.7136 133.361 19.654 132.01C20.5981 130.66 21.4566 129.197 22.1748 127.638C23.6351 124.515 24.2646 120.994 24.4384 117.474L24.4392 117.458C24.4622 116.992 24.8589 116.633 25.3253 116.656C25.768 116.677 26.1144 117.039 26.1287 117.474Z" fill="#682547"/>
</g>
<g id="Group">
<path id="Vector_5" d="M0 41.6593V127.839C0 128.977 2.2498 129.9 5.0251 129.9C7.8004 129.9 10.0502 128.977 10.0502 127.839V41.6593H0Z" fill="url(#paint0_linear_938_22993)"/>
<path id="Vector_6" d="M5.0251 43.72C7.80039 43.72 10.0502 42.7974 10.0502 41.6593C10.0502 40.5212 7.80039 39.5986 5.0251 39.5986C2.24981 39.5986 0 40.5212 0 41.6593C0 42.7974 2.24981 43.72 5.0251 43.72Z" fill="url(#paint1_linear_938_22993)"/>
</g>
<g id="Group_2">
<path id="Vector_7" d="M81.0347 41.6593V127.839C81.0347 128.977 83.2845 129.9 86.0598 129.9C88.8351 129.9 91.0849 128.977 91.0849 127.839V41.6593H81.0347Z" fill="url(#paint2_linear_938_22993)"/>
<path id="Vector_8" d="M86.0598 43.72C88.8351 43.72 91.0849 42.7974 91.0849 41.6593C91.0849 40.5212 88.8351 39.5986 86.0598 39.5986C83.2845 39.5986 81.0347 40.5212 81.0347 41.6593C81.0347 42.7974 83.2845 43.72 86.0598 43.72Z" fill="url(#paint3_linear_938_22993)"/>
</g>
<g id="Group_3">
<path id="Vector_9" d="M40.5171 25.1697V111.35C40.5171 112.488 42.7669 113.41 45.5422 113.41C48.3175 113.41 50.5673 112.488 50.5673 111.35V25.1697H40.5171Z" fill="url(#paint4_linear_938_22993)"/>
<path id="Vector_10" d="M45.5422 27.2304C48.3175 27.2304 50.5673 26.3078 50.5673 25.1697C50.5673 24.0316 48.3175 23.109 45.5422 23.109C42.7669 23.109 40.5171 24.0316 40.5171 25.1697C40.5171 26.3078 42.7669 27.2304 45.5422 27.2304Z" fill="url(#paint5_linear_938_22993)"/>
</g>
<g id="Group_4">
<path id="Vector_11" d="M20.2588 31.2944V117.474C20.2588 118.612 22.5086 119.535 25.2839 119.535C28.0592 119.535 30.309 118.612 30.309 117.474V31.2944H20.2588Z" fill="url(#paint6_linear_938_22993)"/>
<path id="Vector_12" d="M25.2839 33.3551C28.0592 33.3551 30.309 32.4325 30.309 31.2944C30.309 30.1563 28.0592 29.2337 25.2839 29.2337C22.5086 29.2337 20.2588 30.1563 20.2588 31.2944C20.2588 32.4325 22.5086 33.3551 25.2839 33.3551Z" fill="url(#paint7_linear_938_22993)"/>
</g>
<g id="Group_5">
<path id="Vector_13" d="M60.7759 31.2944V117.474C60.7759 118.612 63.0257 119.535 65.801 119.535C68.5763 119.535 70.8261 118.612 70.8261 117.474V31.2944H60.7759Z" fill="url(#paint8_linear_938_22993)"/>
<path id="Vector_14" d="M65.801 33.3551C68.5763 33.3551 70.8261 32.4325 70.8261 31.2944C70.8261 30.1563 68.5763 29.2337 65.801 29.2337C63.0257 29.2337 60.7759 30.1563 60.7759 31.2944C60.7759 32.4325 63.0257 33.3551 65.801 33.3551Z" fill="url(#paint9_linear_938_22993)"/>
</g>
<g id="Group_6">
<path id="Vector_15" d="M27.0117 57.2066V143.386C27.0117 144.524 29.2615 145.447 32.0368 145.447C34.8121 145.447 37.0619 144.524 37.0619 143.386V57.2066H27.0117Z" fill="url(#paint10_linear_938_22993)"/>
<path id="Vector_16" d="M32.0368 59.2673C34.8121 59.2673 37.0619 58.3447 37.0619 57.2066C37.0619 56.0685 34.8121 55.1459 32.0368 55.1459C29.2615 55.1459 27.0117 56.0685 27.0117 57.2066C27.0117 58.3447 29.2615 59.2673 32.0368 59.2673Z" fill="url(#paint11_linear_938_22993)"/>
</g>
<g id="Group_7">
<path id="Vector_17" d="M54.0229 57.2066V143.386C54.0229 144.524 56.2727 145.447 59.048 145.447C61.8233 145.447 64.0731 144.524 64.0731 143.386V57.2066H54.0229Z" fill="url(#paint12_linear_938_22993)"/>
<path id="Vector_18" d="M59.048 59.2673C61.8233 59.2673 64.0731 58.3447 64.0731 57.2066C64.0731 56.0685 61.8233 55.1459 59.048 55.1459C56.2728 55.1459 54.0229 56.0685 54.0229 57.2066C54.0229 58.3447 56.2728 59.2673 59.048 59.2673Z" fill="url(#paint13_linear_938_22993)"/>
</g>
<g id="TOP_bonds">
<path id="Vector_19" d="M85.2145 41.6593C85.0407 38.1397 84.4112 34.6183 82.9509 31.4956C82.2327 29.9367 81.3742 28.4739 80.4301 27.1235C79.4897 25.7733 78.457 24.5186 77.2895 23.4952C76.1329 22.4807 74.8408 21.6456 73.5273 21.3217C72.2206 20.9884 70.8944 21.2026 69.7948 22.1418C68.6983 23.079 67.9221 24.5797 67.4786 26.1915C67.0206 27.8104 66.8124 29.5476 66.7667 31.2945L66.766 31.3226C66.7521 31.8557 66.3086 32.2766 65.7754 32.2627C65.2502 32.249 64.8339 31.817 64.835 31.2945C64.8406 29.4325 64.904 27.5469 65.2978 25.6516C65.7046 23.7739 66.415 21.8345 67.8686 20.1858C68.6193 19.4038 69.54 18.6586 70.6534 18.28C71.7396 17.8938 72.9446 17.7106 74.0628 17.8644C76.3413 18.0905 78.2736 19.191 79.8656 20.477C81.4515 21.7966 82.7128 23.3914 83.6708 25.1096C84.6259 26.8337 85.2733 28.6757 85.7493 30.5231C86.6862 34.2277 87.016 37.9655 86.9047 41.6594C86.8906 42.1261 86.5009 42.493 86.0342 42.479C85.5912 42.4657 85.2381 42.1138 85.2154 41.679L85.2145 41.6593Z" fill="#682547"/>
<path id="Vector_20" d="M58.2026 57.2066C58.1206 55.2985 57.824 53.4153 57.2852 51.637C56.7343 49.863 55.8314 48.2356 54.6818 46.9087C53.5198 45.5857 52.1061 44.5842 50.5788 43.9492C49.0585 43.3004 47.4284 42.9583 45.768 42.9607C42.4662 42.9682 39.0124 44.3416 36.6259 47.02C34.1974 49.6781 33.1016 53.4583 33.002 57.2066L33.0013 57.2339C32.9871 57.767 32.5435 58.1877 32.0103 58.1736C31.4856 58.1597 31.0698 57.7284 31.0703 57.2066C31.0738 55.1592 31.2512 53.0852 31.7915 51.0589C32.3417 49.043 33.2059 47.0669 34.4596 45.3073C35.7212 43.5629 37.3272 41.9956 39.2612 40.8835C41.1859 39.7782 43.3962 39.0463 45.6803 38.9936C47.9533 38.9247 50.2741 39.4367 52.2816 40.5348C54.3005 41.6217 55.9266 43.3019 57.073 45.1599C58.2371 47.0183 58.9691 49.0479 59.3989 51.084C59.8283 53.1261 59.9103 55.1805 59.8928 57.2067C59.8888 57.6733 59.5073 58.0483 59.0407 58.0443C58.5895 58.0404 58.2239 57.6835 58.2039 57.238L58.2026 57.2066Z" fill="#682547"/>
<path id="Vector_21" d="M3.78957 41.6593C4.16207 35.1985 6.24757 29.0093 9.59687 23.6304C11.2471 20.924 13.2125 18.4212 15.3633 16.0901C17.5361 13.7743 19.9259 11.6747 22.4151 9.65178C27.411 5.68938 33.1203 2.07278 39.804 0.622279C43.1183 -0.063221 46.6649 -0.290321 50.1265 0.499979C53.5488 1.28418 56.9384 3.04518 59.0436 5.92818C59.5589 6.63388 59.4046 7.62368 58.6989 8.13898C58.3219 8.41428 57.8639 8.49848 57.4404 8.40958L57.3262 8.38508C54.3214 7.74118 51.7572 7.31008 49.0689 7.12168C46.4079 6.92968 43.6797 6.88488 40.8819 7.19338C35.3211 7.79078 29.4044 9.24798 24.1424 12.21C21.4999 13.661 19.0882 15.5252 16.9023 17.6138C14.6967 19.6871 12.7473 22.0343 11.0992 24.5739C7.83327 29.6474 5.88587 35.6852 6.26017 41.6593C6.30287 42.3415 5.78447 42.9293 5.10227 42.972C4.42007 43.0147 3.83237 42.4963 3.78957 41.8141C3.78657 41.7664 3.78637 41.7192 3.78867 41.6726L3.78957 41.6593Z" fill="#682547"/>
</g>
</g>
<defs>
<linearGradient id="paint0_linear_938_22993" x1="0" y1="85.7796" x2="10.0502" y2="85.7796" gradientUnits="userSpaceOnUse">
<stop stop-color="#692446"/>
<stop offset="0.0273" stop-color="#7B3758"/>
<stop offset="0.0778" stop-color="#965374"/>
<stop offset="0.1283" stop-color="#AA6888"/>
<stop offset="0.1782" stop-color="#B67494"/>
<stop offset="0.2271" stop-color="#BA7898"/>
<stop offset="1" stop-color="#69153E"/>
</linearGradient>
<linearGradient id="paint1_linear_938_22993" x1="1.563" y1="36.6441" x2="7.27251" y2="44.915" gradientUnits="userSpaceOnUse">
<stop stop-color="#692446"/>
<stop offset="0.0273" stop-color="#7B3758"/>
<stop offset="0.0778" stop-color="#965374"/>
<stop offset="0.1283" stop-color="#AA6888"/>
<stop offset="0.1782" stop-color="#B67494"/>
<stop offset="0.2271" stop-color="#BA7898"/>
<stop offset="1" stop-color="#69153E"/>
</linearGradient>
<linearGradient id="paint2_linear_938_22993" x1="81.0347" y1="85.7796" x2="91.0849" y2="85.7796" gradientUnits="userSpaceOnUse">
<stop stop-color="#692446"/>
<stop offset="0.0273" stop-color="#7B3758"/>
<stop offset="0.0778" stop-color="#965374"/>
<stop offset="0.1283" stop-color="#AA6888"/>
<stop offset="0.1782" stop-color="#B67494"/>
<stop offset="0.2271" stop-color="#BA7898"/>
<stop offset="1" stop-color="#69153E"/>
</linearGradient>
<linearGradient id="paint3_linear_938_22993" x1="82.5977" y1="36.6441" x2="88.3072" y2="44.915" gradientUnits="userSpaceOnUse">
<stop stop-color="#692446"/>
<stop offset="0.0273" stop-color="#7B3758"/>
<stop offset="0.0778" stop-color="#965374"/>
<stop offset="0.1283" stop-color="#AA6888"/>
<stop offset="0.1782" stop-color="#B67494"/>
<stop offset="0.2271" stop-color="#BA7898"/>
<stop offset="1" stop-color="#69153E"/>
</linearGradient>
<linearGradient id="paint4_linear_938_22993" x1="40.5171" y1="69.29" x2="50.5672" y2="69.29" gradientUnits="userSpaceOnUse">
<stop stop-color="#692446"/>
<stop offset="0.0273" stop-color="#7B3758"/>
<stop offset="0.0778" stop-color="#965374"/>
<stop offset="0.1283" stop-color="#AA6888"/>
<stop offset="0.1782" stop-color="#B67494"/>
<stop offset="0.2271" stop-color="#BA7898"/>
<stop offset="1" stop-color="#69153E"/>
</linearGradient>
<linearGradient id="paint5_linear_938_22993" x1="42.0801" y1="20.1546" x2="47.7897" y2="28.4254" gradientUnits="userSpaceOnUse">
<stop stop-color="#692446"/>
<stop offset="0.0273" stop-color="#7B3758"/>
<stop offset="0.0778" stop-color="#965374"/>
<stop offset="0.1283" stop-color="#AA6888"/>
<stop offset="0.1782" stop-color="#B67494"/>
<stop offset="0.2271" stop-color="#BA7898"/>
<stop offset="1" stop-color="#69153E"/>
</linearGradient>
<linearGradient id="paint6_linear_938_22993" x1="20.2588" y1="75.4147" x2="30.309" y2="75.4147" gradientUnits="userSpaceOnUse">
<stop stop-color="#692446"/>
<stop offset="0.0273" stop-color="#7B3758"/>
<stop offset="0.0778" stop-color="#965374"/>
<stop offset="0.1283" stop-color="#AA6888"/>
<stop offset="0.1782" stop-color="#B67494"/>
<stop offset="0.2271" stop-color="#BA7898"/>
<stop offset="1" stop-color="#69153E"/>
</linearGradient>
<linearGradient id="paint7_linear_938_22993" x1="21.8218" y1="26.2793" x2="27.5314" y2="34.5501" gradientUnits="userSpaceOnUse">
<stop stop-color="#692446"/>
<stop offset="0.0273" stop-color="#7B3758"/>
<stop offset="0.0778" stop-color="#965374"/>
<stop offset="0.1283" stop-color="#AA6888"/>
<stop offset="0.1782" stop-color="#B67494"/>
<stop offset="0.2271" stop-color="#BA7898"/>
<stop offset="1" stop-color="#69153E"/>
</linearGradient>
<linearGradient id="paint8_linear_938_22993" x1="60.7759" y1="75.4147" x2="70.826" y2="75.4147" gradientUnits="userSpaceOnUse">
<stop stop-color="#692446"/>
<stop offset="0.0273" stop-color="#7B3758"/>
<stop offset="0.0778" stop-color="#965374"/>
<stop offset="0.1283" stop-color="#AA6888"/>
<stop offset="0.1782" stop-color="#B67494"/>
<stop offset="0.2271" stop-color="#BA7898"/>
<stop offset="1" stop-color="#69153E"/>
</linearGradient>
<linearGradient id="paint9_linear_938_22993" x1="62.3389" y1="26.2793" x2="68.0484" y2="34.5501" gradientUnits="userSpaceOnUse">
<stop stop-color="#692446"/>
<stop offset="0.0273" stop-color="#7B3758"/>
<stop offset="0.0778" stop-color="#965374"/>
<stop offset="0.1283" stop-color="#AA6888"/>
<stop offset="0.1782" stop-color="#B67494"/>
<stop offset="0.2271" stop-color="#BA7898"/>
<stop offset="1" stop-color="#69153E"/>
</linearGradient>
<linearGradient id="paint10_linear_938_22993" x1="27.0117" y1="101.327" x2="37.0619" y2="101.327" gradientUnits="userSpaceOnUse">
<stop stop-color="#692446"/>
<stop offset="0.0273" stop-color="#7B3758"/>
<stop offset="0.0778" stop-color="#965374"/>
<stop offset="0.1283" stop-color="#AA6888"/>
<stop offset="0.1782" stop-color="#B67494"/>
<stop offset="0.2271" stop-color="#BA7898"/>
<stop offset="1" stop-color="#69153E"/>
</linearGradient>
<linearGradient id="paint11_linear_938_22993" x1="28.5747" y1="52.1915" x2="34.2842" y2="60.4623" gradientUnits="userSpaceOnUse">
<stop stop-color="#692446"/>
<stop offset="0.0273" stop-color="#7B3758"/>
<stop offset="0.0778" stop-color="#965374"/>
<stop offset="0.1283" stop-color="#AA6888"/>
<stop offset="0.1782" stop-color="#B67494"/>
<stop offset="0.2271" stop-color="#BA7898"/>
<stop offset="1" stop-color="#69153E"/>
</linearGradient>
<linearGradient id="paint12_linear_938_22993" x1="54.0229" y1="101.327" x2="64.0731" y2="101.327" gradientUnits="userSpaceOnUse">
<stop stop-color="#692446"/>
<stop offset="0.0273" stop-color="#7B3758"/>
<stop offset="0.0778" stop-color="#965374"/>
<stop offset="0.1283" stop-color="#AA6888"/>
<stop offset="0.1782" stop-color="#B67494"/>
<stop offset="0.2271" stop-color="#BA7898"/>
<stop offset="1" stop-color="#69153E"/>
</linearGradient>
<linearGradient id="paint13_linear_938_22993" x1="55.5859" y1="52.1915" x2="61.2954" y2="60.4623" gradientUnits="userSpaceOnUse">
<stop stop-color="#692446"/>
<stop offset="0.0273" stop-color="#7B3758"/>
<stop offset="0.0778" stop-color="#965374"/>
<stop offset="0.1283" stop-color="#AA6888"/>
<stop offset="0.1782" stop-color="#B67494"/>
<stop offset="0.2271" stop-color="#BA7898"/>
<stop offset="1" stop-color="#69153E"/>
</linearGradient>
</defs>
</svg>
