<svg width="68" height="23" viewBox="0 0 68 23" fill="none" xmlns="http://www.w3.org/2000/svg">
<g id="R-ICO-014579">
<g id="ZFP36L2">
<path d="M0.993164 11.5C0.993164 5.97715 5.47032 1.5 10.9932 1.5H55.9932C61.516 1.5 65.9932 5.97715 65.9932 11.5C65.9932 17.0228 61.516 21.5 55.9932 21.5H10.9932C5.47032 21.5 0.993164 17.0228 0.993164 11.5Z" fill="url(#paint0_linear_938_24100)"/>
<path d="M49.2015 2.99266C36.4653 2.87443 23.7293 2.52283 10.9932 1.64001C10.9932 1.54664 10.9932 1.45328 10.9932 1.35991C23.7293 0.477089 36.4653 0.125486 49.2015 0.00726104C51.4653 -0.00616825 53.7292 -1.00136e-05 55.9932 0.017856C60.7468 -0.0145621 65.2229 3.28591 66.666 7.72984C67.0803 8.94439 67.2775 10.2265 67.2551 11.5C67.2961 17.5225 61.7199 22.6511 55.9938 22.2659C55.9936 22.2659 55.9934 22.2658 55.9932 22.2658C49.6253 22.0221 43.2568 21.8466 36.889 21.953C30.521 22.056 24.1524 22.4645 17.7843 22.6648C15.5206 22.7227 13.2569 22.7488 10.9932 22.7514C6.33279 22.8245 1.9128 19.5617 0.539495 15.1934C0.14635 13.9992 -0.0322133 12.7433 0.00481915 11.5C0.0296191 5.61319 5.59697 0.770431 10.9932 1.35991C10.9932 1.45328 10.9932 1.54664 10.9932 1.64001C5.73639 1.97034 1.69744 6.73344 1.98137 11.5C2.01746 12.5241 2.22138 13.5287 2.58398 14.471C3.8754 17.9208 7.38425 20.2926 10.9932 20.2487C13.2569 20.2513 15.5206 20.2774 17.7843 20.3353C24.1524 20.5356 30.5209 20.9428 36.889 21.0457C43.2569 21.1521 49.6252 20.978 55.9932 20.7342C55.9933 20.7342 55.9935 20.7342 55.9937 20.7342C60.9204 20.6073 64.9493 16.1303 64.7313 11.5C64.7098 10.5065 64.5247 9.52841 64.1835 8.60679C62.9624 5.23235 59.5092 2.89754 55.9932 2.98218C53.7292 3.00005 51.4653 3.00618 49.2015 2.99266Z" fill="#695062"/>
<text id="ZFP36L2_2" fill="white" xml:space="preserve" style="white-space: pre" font-family="Arial" font-size="12" font-weight="bold" letter-spacing="0em"><tspan x="8.46777" y="15.6602">ZFP36L2</tspan></text>
</g>
</g>
<defs>
<linearGradient id="paint0_linear_938_24100" x1="33.4932" y1="1.5" x2="33.4932" y2="21.5" gradientUnits="userSpaceOnUse">
<stop stop-color="#695062"/>
<stop offset="1" stop-color="#C98500"/>
</linearGradient>
</defs>
</svg>
