<svg width="40" height="148" viewBox="0 0 40 148" fill="none" xmlns="http://www.w3.org/2000/svg">
<g id="R-ICO-012943">
<g id="Group">
<path id="BG" d="M9.82559 147.391C8.01649 147.391 6.55029 145.925 6.55029 144.116V5.89548C6.55029 4.08638 8.01649 2.62018 9.82559 2.62018C11.6347 2.62018 13.1009 4.08638 13.1009 5.89548V144.116C13.1009 145.925 11.6347 147.391 9.82559 147.391Z" fill="url(#paint0_linear_938_24325)"/>
<g id="Group 7">
<path id="Vector" d="M17.6248 104.845H2.0268C0.912 104.845 0 103.933 0 102.818C0 101.703 0.9121 100.791 2.0268 100.791H17.6247C18.7395 100.791 19.6515 101.703 19.6515 102.818C19.6516 103.933 18.7395 104.845 17.6248 104.845Z" fill="url(#paint1_linear_938_24325)"/>
<path id="Vector_2" d="M17.6248 98.764H2.0268C0.9121 98.764 0 97.852 0 96.7372C0 95.6224 0.9121 94.7104 2.0268 94.7104H17.6247C18.7395 94.7104 19.6515 95.6225 19.6515 96.7372C19.6516 97.852 18.7395 98.764 17.6248 98.764Z" fill="url(#paint2_linear_938_24325)"/>
<path id="Vector_3" d="M17.6248 92.6832H2.0268C0.9121 92.6832 0 91.7711 0 90.6564C0 89.5416 0.9121 88.6296 2.0268 88.6296H17.6247C18.7395 88.6296 19.6515 89.5417 19.6515 90.6564C19.6516 91.7711 18.7395 92.6832 17.6248 92.6832Z" fill="url(#paint3_linear_938_24325)"/>
<path id="Vector_4" d="M17.6248 86.6022H2.0268C0.9121 86.6022 0 85.6902 0 84.5754C0 83.4606 0.9121 82.5486 2.0268 82.5486H17.6247C18.7395 82.5486 19.6515 83.4607 19.6515 84.5754C19.6516 85.6902 18.7395 86.6022 17.6248 86.6022Z" fill="url(#paint4_linear_938_24325)"/>
<path id="Vector_5" d="M17.6248 80.5215H2.0268C0.9121 80.5215 0 79.6094 0 78.4946C0 77.3798 0.9121 76.4678 2.0268 76.4678H17.6247C18.7395 76.4678 19.6515 77.3799 19.6515 78.4946C19.6516 79.6094 18.7395 80.5215 17.6248 80.5215Z" fill="url(#paint5_linear_938_24325)"/>
</g>
<g id="Group 8">
<path id="BG_2" d="M9.82608 70.7456C8.01698 70.7456 6.55078 69.2794 6.55078 67.4703V5.89542C6.55078 4.08632 8.01698 2.62012 9.82608 2.62012C11.6352 2.62012 13.1014 4.08632 13.1014 5.89542V67.4704C13.1014 69.2794 11.6352 70.7456 9.82608 70.7456Z" fill="#111D33"/>
<path id="Vector_6" d="M9.82616 70.7456C13.0822 70.7456 15.7217 68.1061 15.7217 64.8501C15.7217 61.5941 13.0822 58.9546 9.82616 58.9546C6.57017 58.9546 3.93066 61.5941 3.93066 64.8501C3.93066 68.1061 6.57017 70.7456 9.82616 70.7456Z" fill="url(#paint6_radial_938_24325)"/>
<path id="Vector_7" d="M9.82616 58.9548C13.0822 58.9548 15.7217 56.3153 15.7217 53.0593C15.7217 49.8033 13.0822 47.1638 9.82616 47.1638C6.57017 47.1638 3.93066 49.8033 3.93066 53.0593C3.93066 56.3153 6.57017 58.9548 9.82616 58.9548Z" fill="url(#paint7_radial_938_24325)"/>
<path id="Vector_8" d="M9.82616 47.1638C13.0822 47.1638 15.7217 44.5243 15.7217 41.2683C15.7217 38.0123 13.0822 35.3728 9.82616 35.3728C6.57017 35.3728 3.93066 38.0123 3.93066 41.2683C3.93066 44.5243 6.57017 47.1638 9.82616 47.1638Z" fill="url(#paint8_radial_938_24325)"/>
<path id="Vector_9" d="M9.82616 35.3728C13.0822 35.3728 15.7217 32.7333 15.7217 29.4773C15.7217 26.2213 13.0822 23.5818 9.82616 23.5818C6.57017 23.5818 3.93066 26.2213 3.93066 29.4773C3.93066 32.7333 6.57017 35.3728 9.82616 35.3728Z" fill="url(#paint9_radial_938_24325)"/>
<path id="Vector_10" d="M9.82616 23.582C13.0822 23.582 15.7217 20.9425 15.7217 17.6865C15.7217 14.4305 13.0822 11.791 9.82616 11.791C6.57017 11.791 3.93066 14.4305 3.93066 17.6865C3.93066 20.9425 6.57017 23.582 9.82616 23.582Z" fill="url(#paint10_radial_938_24325)"/>
<path id="Vector_11" d="M9.82616 11.791C13.0822 11.791 15.7217 9.15149 15.7217 5.8955C15.7217 2.63951 13.0822 0 9.82616 0C6.57017 0 3.93066 2.63951 3.93066 5.8955C3.93066 9.15149 6.57017 11.791 9.82616 11.791Z" fill="url(#paint11_radial_938_24325)"/>
</g>
</g>
<g id="Group_2">
<path id="BG_3" d="M29.4784 147.391C27.6693 147.391 26.2031 145.925 26.2031 144.116V5.89548C26.2031 4.08638 27.6693 2.62018 29.4784 2.62018C31.2875 2.62018 32.7537 4.08638 32.7537 5.89548V144.116C32.7537 145.925 31.2875 147.391 29.4784 147.391Z" fill="url(#paint12_linear_938_24325)"/>
<g id="Group 5">
<path id="Vector_12" d="M37.2776 104.845H21.6796C20.5648 104.845 19.6528 103.933 19.6528 102.818C19.6528 101.703 20.5649 100.791 21.6796 100.791H37.2775C38.3922 100.791 39.3043 101.703 39.3043 102.818C39.3044 103.933 38.3923 104.845 37.2776 104.845Z" fill="url(#paint13_linear_938_24325)"/>
<path id="Vector_13" d="M37.2776 98.764H21.6796C20.5648 98.764 19.6528 97.8519 19.6528 96.7372C19.6528 95.6224 20.5649 94.7104 21.6796 94.7104H37.2775C38.3922 94.7104 39.3043 95.6225 39.3043 96.7372C39.3044 97.852 38.3923 98.764 37.2776 98.764Z" fill="url(#paint14_linear_938_24325)"/>
<path id="Vector_14" d="M37.2776 92.6832H21.6796C20.5648 92.6832 19.6528 91.7711 19.6528 90.6564C19.6528 89.5416 20.5649 88.6296 21.6796 88.6296H37.2775C38.3922 88.6296 39.3043 89.5417 39.3043 90.6564C39.3044 91.7711 38.3923 92.6832 37.2776 92.6832Z" fill="url(#paint15_linear_938_24325)"/>
<path id="Vector_15" d="M37.2776 86.6022H21.6796C20.5648 86.6022 19.6528 85.6901 19.6528 84.5754C19.6528 83.4606 20.5649 82.5486 21.6796 82.5486H37.2775C38.3922 82.5486 39.3043 83.4607 39.3043 84.5754C39.3044 85.6902 38.3923 86.6022 37.2776 86.6022Z" fill="url(#paint16_linear_938_24325)"/>
<path id="Vector_16" d="M37.2776 80.5216H21.6796C20.5648 80.5216 19.6528 79.6095 19.6528 78.4948C19.6528 77.38 20.5649 76.468 21.6796 76.468H37.2775C38.3922 76.468 39.3043 77.3801 39.3043 78.4948C39.3044 79.6095 38.3923 80.5216 37.2776 80.5216Z" fill="url(#paint17_linear_938_24325)"/>
</g>
<g id="Group 6">
<path id="BG_4" d="M29.4784 70.7456C27.6693 70.7456 26.2031 69.2794 26.2031 67.4703V5.89542C26.2031 4.08632 27.6693 2.62012 29.4784 2.62012C31.2875 2.62012 32.7537 4.08632 32.7537 5.89542V67.4704C32.7537 69.2794 31.2875 70.7456 29.4784 70.7456Z" fill="#111D33"/>
<path id="Vector_17" d="M29.4785 70.7456C32.7345 70.7456 35.374 68.1061 35.374 64.8501C35.374 61.5941 32.7345 58.9546 29.4785 58.9546C26.2225 58.9546 23.583 61.5941 23.583 64.8501C23.583 68.1061 26.2225 70.7456 29.4785 70.7456Z" fill="url(#paint18_radial_938_24325)"/>
<path id="Vector_18" d="M29.4785 58.9548C32.7345 58.9548 35.374 56.3153 35.374 53.0593C35.374 49.8033 32.7345 47.1638 29.4785 47.1638C26.2225 47.1638 23.583 49.8033 23.583 53.0593C23.583 56.3153 26.2225 58.9548 29.4785 58.9548Z" fill="url(#paint19_radial_938_24325)"/>
<path id="Vector_19" d="M29.4785 47.1638C32.7345 47.1638 35.374 44.5243 35.374 41.2683C35.374 38.0123 32.7345 35.3728 29.4785 35.3728C26.2225 35.3728 23.583 38.0123 23.583 41.2683C23.583 44.5243 26.2225 47.1638 29.4785 47.1638Z" fill="url(#paint20_radial_938_24325)"/>
<path id="Vector_20" d="M29.4785 35.3728C32.7345 35.3728 35.374 32.7333 35.374 29.4773C35.374 26.2213 32.7345 23.5818 29.4785 23.5818C26.2225 23.5818 23.583 26.2213 23.583 29.4773C23.583 32.7333 26.2225 35.3728 29.4785 35.3728Z" fill="url(#paint21_radial_938_24325)"/>
<path id="Vector_21" d="M29.4785 23.582C32.7345 23.582 35.374 20.9425 35.374 17.6865C35.374 14.4305 32.7345 11.791 29.4785 11.791C26.2225 11.791 23.583 14.4305 23.583 17.6865C23.583 20.9425 26.2225 23.582 29.4785 23.582Z" fill="url(#paint22_radial_938_24325)"/>
<path id="Vector_22" d="M29.4785 11.791C32.7345 11.791 35.374 9.15149 35.374 5.8955C35.374 2.63951 32.7345 0 29.4785 0C26.2225 0 23.583 2.63951 23.583 5.8955C23.583 9.15149 26.2225 11.791 29.4785 11.791Z" fill="url(#paint23_radial_938_24325)"/>
</g>
</g>
</g>
<defs>
<linearGradient id="paint0_linear_938_24325" x1="6.55029" y1="75.0056" x2="13.1009" y2="75.0056" gradientUnits="userSpaceOnUse">
<stop stop-color="#111D33"/>
<stop offset="0.3934" stop-color="#0F47B0"/>
<stop offset="0.4692" stop-color="#0F3F9A"/>
<stop offset="0.6371" stop-color="#10316E"/>
<stop offset="0.7875" stop-color="#11264E"/>
<stop offset="0.9136" stop-color="#111F3A"/>
<stop offset="1" stop-color="#111D33"/>
</linearGradient>
<linearGradient id="paint1_linear_938_24325" x1="9.8258" y1="104.845" x2="9.8258" y2="100.791" gradientUnits="userSpaceOnUse">
<stop stop-color="#111D33"/>
<stop offset="1" stop-color="#0F47B0"/>
</linearGradient>
<linearGradient id="paint2_linear_938_24325" x1="9.8258" y1="98.764" x2="9.8258" y2="94.7104" gradientUnits="userSpaceOnUse">
<stop stop-color="#111D33"/>
<stop offset="1" stop-color="#0F47B0"/>
</linearGradient>
<linearGradient id="paint3_linear_938_24325" x1="9.8258" y1="92.6832" x2="9.8258" y2="88.6296" gradientUnits="userSpaceOnUse">
<stop stop-color="#111D33"/>
<stop offset="1" stop-color="#0F47B0"/>
</linearGradient>
<linearGradient id="paint4_linear_938_24325" x1="9.8258" y1="86.6022" x2="9.8258" y2="82.5486" gradientUnits="userSpaceOnUse">
<stop stop-color="#111D33"/>
<stop offset="1" stop-color="#0F47B0"/>
</linearGradient>
<linearGradient id="paint5_linear_938_24325" x1="9.8258" y1="80.5215" x2="9.8258" y2="76.4678" gradientUnits="userSpaceOnUse">
<stop stop-color="#111D33"/>
<stop offset="1" stop-color="#0F47B0"/>
</linearGradient>
<radialGradient id="paint6_radial_938_24325" cx="0" cy="0" r="1" gradientUnits="userSpaceOnUse" gradientTransform="translate(7.61136 63.417) scale(5.8955 5.8955)">
<stop stop-color="#0F47B0"/>
<stop offset="1" stop-color="#111D33"/>
</radialGradient>
<radialGradient id="paint7_radial_938_24325" cx="0" cy="0" r="1" gradientUnits="userSpaceOnUse" gradientTransform="translate(7.61136 51.6262) scale(5.8955)">
<stop stop-color="#0F47B0"/>
<stop offset="1" stop-color="#111D33"/>
</radialGradient>
<radialGradient id="paint8_radial_938_24325" cx="0" cy="0" r="1" gradientUnits="userSpaceOnUse" gradientTransform="translate(7.61136 39.8352) scale(5.8955)">
<stop stop-color="#0F47B0"/>
<stop offset="1" stop-color="#111D33"/>
</radialGradient>
<radialGradient id="paint9_radial_938_24325" cx="0" cy="0" r="1" gradientUnits="userSpaceOnUse" gradientTransform="translate(7.61136 28.0442) scale(5.8955)">
<stop stop-color="#0F47B0"/>
<stop offset="1" stop-color="#111D33"/>
</radialGradient>
<radialGradient id="paint10_radial_938_24325" cx="0" cy="0" r="1" gradientUnits="userSpaceOnUse" gradientTransform="translate(7.61136 16.2534) scale(5.8955)">
<stop stop-color="#0F47B0"/>
<stop offset="1" stop-color="#111D33"/>
</radialGradient>
<radialGradient id="paint11_radial_938_24325" cx="0" cy="0" r="1" gradientUnits="userSpaceOnUse" gradientTransform="translate(7.61136 4.4624) scale(5.8955)">
<stop stop-color="#0F47B0"/>
<stop offset="1" stop-color="#111D33"/>
</radialGradient>
<linearGradient id="paint12_linear_938_24325" x1="26.2031" y1="75.0056" x2="32.7537" y2="75.0056" gradientUnits="userSpaceOnUse">
<stop stop-color="#111D33"/>
<stop offset="0.3934" stop-color="#0F47B0"/>
<stop offset="0.4692" stop-color="#0F3F9A"/>
<stop offset="0.6371" stop-color="#10316E"/>
<stop offset="0.7875" stop-color="#11264E"/>
<stop offset="0.9136" stop-color="#111F3A"/>
<stop offset="1" stop-color="#111D33"/>
</linearGradient>
<linearGradient id="paint13_linear_938_24325" x1="29.4786" y1="104.845" x2="29.4786" y2="100.791" gradientUnits="userSpaceOnUse">
<stop stop-color="#111D33"/>
<stop offset="1" stop-color="#0F47B0"/>
</linearGradient>
<linearGradient id="paint14_linear_938_24325" x1="29.4786" y1="98.764" x2="29.4786" y2="94.7103" gradientUnits="userSpaceOnUse">
<stop stop-color="#111D33"/>
<stop offset="1" stop-color="#0F47B0"/>
</linearGradient>
<linearGradient id="paint15_linear_938_24325" x1="29.4786" y1="92.6832" x2="29.4786" y2="88.6295" gradientUnits="userSpaceOnUse">
<stop stop-color="#111D33"/>
<stop offset="1" stop-color="#0F47B0"/>
</linearGradient>
<linearGradient id="paint16_linear_938_24325" x1="29.4786" y1="86.6022" x2="29.4786" y2="82.5485" gradientUnits="userSpaceOnUse">
<stop stop-color="#111D33"/>
<stop offset="1" stop-color="#0F47B0"/>
</linearGradient>
<linearGradient id="paint17_linear_938_24325" x1="29.4786" y1="80.5216" x2="29.4786" y2="76.4679" gradientUnits="userSpaceOnUse">
<stop stop-color="#111D33"/>
<stop offset="1" stop-color="#0F47B0"/>
</linearGradient>
<radialGradient id="paint18_radial_938_24325" cx="0" cy="0" r="1" gradientUnits="userSpaceOnUse" gradientTransform="translate(27.2637 63.417) scale(5.8955 5.8955)">
<stop stop-color="#0F47B0"/>
<stop offset="1" stop-color="#111D33"/>
</radialGradient>
<radialGradient id="paint19_radial_938_24325" cx="0" cy="0" r="1" gradientUnits="userSpaceOnUse" gradientTransform="translate(27.2637 51.6262) scale(5.8955)">
<stop stop-color="#0F47B0"/>
<stop offset="1" stop-color="#111D33"/>
</radialGradient>
<radialGradient id="paint20_radial_938_24325" cx="0" cy="0" r="1" gradientUnits="userSpaceOnUse" gradientTransform="translate(27.2637 39.8352) scale(5.8955)">
<stop stop-color="#0F47B0"/>
<stop offset="1" stop-color="#111D33"/>
</radialGradient>
<radialGradient id="paint21_radial_938_24325" cx="0" cy="0" r="1" gradientUnits="userSpaceOnUse" gradientTransform="translate(27.2637 28.0442) scale(5.8955)">
<stop stop-color="#0F47B0"/>
<stop offset="1" stop-color="#111D33"/>
</radialGradient>
<radialGradient id="paint22_radial_938_24325" cx="0" cy="0" r="1" gradientUnits="userSpaceOnUse" gradientTransform="translate(27.2637 16.2534) scale(5.8955)">
<stop stop-color="#0F47B0"/>
<stop offset="1" stop-color="#111D33"/>
</radialGradient>
<radialGradient id="paint23_radial_938_24325" cx="0" cy="0" r="1" gradientUnits="userSpaceOnUse" gradientTransform="translate(27.2637 4.4624) scale(5.8955)">
<stop stop-color="#0F47B0"/>
<stop offset="1" stop-color="#111D33"/>
</radialGradient>
</defs>
</svg>
