<svg width="145" height="116" viewBox="0 0 145 116" fill="none" xmlns="http://www.w3.org/2000/svg">
<g id="R-ICO-013073">
<path id="Vector" d="M140.938 39.4026C143.788 49.8326 145.928 61.7326 141.588 71.8026C136.358 83.9426 122.838 91.3326 109.728 99.5326C102.518 104.043 94.6775 110.273 85.7375 112.723C72.0775 116.453 57.2575 113.003 45.0575 110.713C34.3675 108.703 25.9875 108.493 18.2575 102.623C9.83754 96.2326 6.12754 87.0926 3.36754 76.9926C0.607536 66.9026 -0.842464 57.1426 3.14754 47.3526C7.40754 36.9226 16.2975 30.3326 26.5175 22.5226C35.1475 15.9226 44.3875 7.55264 56.1175 4.34264C69.3675 0.722645 82.5375 0.182645 94.4575 2.25264C107.038 4.43264 118.898 7.06264 127.308 14.4626C134.178 20.5126 138.518 30.5526 140.938 39.4026Z" fill="url(#paint0_radial_938_25242)"/>
<path id="Vector_2" d="M144.707 58.6825C144.827 56.9125 144.647 55.1525 144.357 53.4125C144.187 52.4525 143.977 51.4925 143.707 50.5525C143.497 49.1525 143.247 47.7725 142.967 46.4225C142.907 44.4225 142.597 42.4525 142.167 40.5325C141.867 39.2725 141.437 38.0325 140.987 36.8025C140.547 35.5725 140.007 34.3725 139.377 33.2225C139.297 33.0725 139.227 32.9225 139.147 32.7725C138.607 31.3125 137.987 29.7925 137.287 28.2425C137.067 27.4625 136.857 26.6725 136.557 25.9225C136.317 25.3125 136.037 24.7125 135.687 24.1525C135.357 23.5825 134.997 23.0325 134.617 22.5025C134.177 21.9025 133.707 21.3325 133.187 20.7925C132.507 19.7625 131.767 18.7725 130.997 17.8125C129.887 15.8925 128.417 14.1625 126.717 12.7225C125.597 11.8025 124.377 11.0025 123.107 10.3225C121.857 9.59247 120.517 9.05247 119.157 8.59247C119.047 8.55247 118.937 8.51247 118.827 8.48247C117.127 7.66247 115.357 6.95247 113.527 6.30247C112.797 5.92247 112.067 5.54247 111.307 5.22247C110.647 4.96247 109.977 4.72247 109.277 4.56247C108.587 4.38247 107.897 4.23247 107.197 4.11247C106.447 3.98247 105.687 3.89247 104.917 3.83247C102.127 3.18247 99.2575 2.62247 96.3575 2.10247C94.4675 1.65247 92.5675 1.20247 90.6275 0.912468C86.4475 0.212468 82.1975 -0.0275317 77.9575 0.00246834C73.7175 0.0924683 69.4875 0.562468 65.3275 1.33247C63.2475 1.71247 61.1775 2.16247 59.1375 2.72247C57.0975 3.24247 55.0775 3.90247 53.0875 4.67247C52.8675 4.75247 52.6675 4.86247 52.4575 4.94247C46.9575 6.96247 41.9775 10.0625 37.3875 13.3825C35.3475 14.7225 33.3375 16.0925 31.3875 17.5225C29.6975 18.7725 28.0475 20.0525 26.4075 21.3525C24.7675 22.6425 23.1075 23.9325 21.4875 25.2725C19.7575 26.6925 18.0575 28.1525 16.4275 29.6825C13.9775 31.7425 11.7175 33.8425 9.69746 36.0725C7.04746 38.4725 4.76747 41.3325 3.07747 44.5625C1.97747 46.6925 1.22747 48.9825 0.687465 51.3025C0.127465 53.6225 -0.0625347 56.0125 0.0174653 58.3725C0.0274653 58.5725 0.0374653 58.7825 0.0474653 58.9825C-0.0625347 62.1525 0.227465 65.2925 0.737465 68.3825C0.847465 69.7125 0.967465 71.0525 1.19747 72.3725C1.59747 74.6825 2.24747 76.9325 3.00747 79.1425C3.42747 80.3325 3.87747 81.5025 4.38747 82.6625C5.09747 84.7825 5.89747 86.8725 6.83747 88.9125C8.01747 92.2825 9.73746 95.4925 12.0375 98.3125C13.5575 100.182 15.3875 101.782 17.3175 103.202C19.2575 104.632 21.4275 105.742 23.6875 106.512C23.8975 106.582 24.0975 106.642 24.3075 106.712C27.1575 107.882 30.1275 108.622 33.2675 109.222C34.6075 109.592 35.9475 109.962 37.2975 110.262C39.5875 110.752 41.8875 111.052 44.1975 111.362C45.4575 111.532 46.7275 111.682 47.9975 111.802C50.7475 112.332 53.5775 112.872 56.4575 113.352C61.8175 114.592 67.3075 115.392 72.8775 115.412C76.5775 115.392 80.2975 114.972 83.9075 114.082C85.7075 113.642 87.4975 113.062 89.2075 112.342C90.9275 111.632 92.5475 110.742 94.1375 109.822C94.3975 109.672 94.6475 109.512 94.9075 109.352C98.3575 107.492 101.657 105.302 104.897 103.152C105.647 102.652 106.377 102.162 107.107 101.692C108.997 100.592 110.907 99.5325 112.827 98.4625C115.977 96.6525 119.057 94.6925 122.057 92.5925C123.627 91.4925 125.157 90.3325 126.637 89.1125C128.807 87.5425 130.847 85.9125 132.727 84.2025C134.907 82.6825 136.867 80.8425 138.547 78.7425C140.707 75.9125 142.337 72.5925 142.987 69.0825C143.027 68.8925 143.047 68.7125 143.087 68.5225C143.707 66.3325 144.087 64.0825 144.257 61.8125C144.447 60.7825 144.637 59.7425 144.707 58.6825ZM142.067 68.4525C142.027 68.5625 141.987 68.6725 141.937 68.7825C141.247 70.3525 140.477 71.8425 139.647 73.3025C138.797 74.7425 137.837 76.1225 136.837 77.4725C135.357 79.5425 133.697 81.5025 132.007 83.5125C130.257 85.1025 128.367 86.6125 126.357 88.0825C124.647 89.1725 122.927 90.2425 121.197 91.3125C118.107 93.2125 114.977 95.0525 111.947 97.0625C110.437 98.0925 108.947 99.1325 107.457 100.202C107.187 100.402 106.907 100.602 106.637 100.802C105.887 101.302 105.127 101.802 104.337 102.322C101.277 104.362 98.1574 106.432 94.9074 108.222C94.4774 108.432 94.0574 108.652 93.6274 108.852C91.9874 109.612 90.3074 110.252 88.6274 110.852C86.9374 111.432 85.2274 111.862 83.4774 112.242C79.9874 112.962 76.4174 113.202 72.8474 113.282C67.4374 113.392 62.0074 112.912 56.5474 112.352C53.6874 111.872 50.8774 111.332 48.1574 110.812C48.1374 110.812 48.1174 110.802 48.0974 110.802C44.6374 109.782 41.1174 109.042 37.5574 108.612C36.1574 108.462 34.7574 108.362 33.3674 108.222C30.3374 107.642 27.4674 106.922 24.7374 105.812C24.5274 105.712 24.3174 105.622 24.1174 105.512C22.0874 104.422 20.2274 103.132 18.4674 101.722C16.7174 100.272 15.1274 98.6625 13.6674 96.9425C11.3874 94.3725 9.49736 91.4725 7.71737 88.4225C6.81737 86.4625 6.04737 84.4525 5.35737 82.4125C5.06737 81.1725 4.77737 79.9425 4.49737 78.7125C3.96737 76.4725 3.43737 74.2325 2.82737 72.0125C2.43737 70.6225 2.01737 69.2425 1.66737 67.8325C1.20737 64.9725 0.967365 62.0725 1.04737 59.1525C1.06737 58.9125 1.08737 58.6725 1.11737 58.4225C1.42737 56.1525 1.90737 53.9325 2.51737 51.7625C2.83737 50.6825 3.18737 49.6125 3.62737 48.5825C4.03737 47.5325 4.48737 46.5125 4.98737 45.5025C6.42737 42.4525 8.29736 39.6225 10.3474 36.8325C12.3274 34.6425 14.5374 32.5725 16.9374 30.5425C22.0974 26.6525 27.4374 23.0025 32.4174 18.8125C34.4174 17.1325 36.4074 15.4325 38.4574 13.8225C42.6974 10.7725 47.1674 8.02247 52.1174 6.11247C52.5674 5.96247 53.0074 5.81247 53.4674 5.67247C55.4374 5.07247 57.4774 4.66247 59.5174 4.23247C61.5474 3.80247 63.6074 3.48247 65.6474 3.15247C69.7474 2.54247 73.8874 2.25247 78.0274 2.10247C82.1674 1.97247 86.3074 2.07247 90.4474 2.44247C92.5174 2.61247 94.5774 2.86247 96.6574 3.17247C96.8874 3.20247 97.1174 3.22247 97.3474 3.26247C99.8174 3.71247 102.257 4.20247 104.647 4.75247C105.377 5.05247 106.107 5.31247 106.837 5.58247C108.167 6.02247 109.477 6.48247 110.837 6.77247C111.667 6.95247 112.527 7.08247 113.367 7.25247C115.047 7.85247 116.687 8.51247 118.267 9.26247C118.407 9.35247 118.557 9.44247 118.697 9.53247L122.127 11.8825C123.257 12.6625 124.317 13.5325 125.397 14.3425C127.027 15.5525 128.557 16.8825 130.127 18.2625C130.957 19.2725 131.737 20.3325 132.457 21.4225C132.737 22.0425 133.027 22.6525 133.307 23.2625C133.867 24.4125 134.417 25.5525 135.087 26.6325C135.477 27.2425 135.907 27.8425 136.317 28.4525C137.067 30.0925 137.727 31.7125 138.287 33.2525C138.307 33.3525 138.337 33.4525 138.357 33.5525C138.617 34.8225 138.867 36.0825 139.187 37.3125C139.487 38.5525 139.747 39.8025 140.107 41.0325C140.667 42.8825 141.257 44.7125 141.987 46.5325C142.277 47.9225 142.527 49.3425 142.747 50.7825C142.767 51.7025 142.797 52.6225 142.827 53.5325C142.897 55.2425 142.937 56.9425 143.057 58.6425C143.127 59.6325 143.227 60.6325 143.267 61.6325C143.097 63.9725 142.707 66.2425 142.067 68.4525Z" fill="#7539BC"/>
<g id="Nucleus">
<g id="BG">
<path id="Vector_3" d="M58.2373 93.3327C58.2373 93.3327 57.7073 91.3827 56.7173 90.7627C55.9373 90.2627 55.0973 90.0327 54.4973 90.4827C54.0773 90.7927 53.7373 91.3727 53.7373 91.3727L54.0073 86.8927C54.0073 86.8927 54.0973 87.6627 55.1373 88.0027C55.6773 88.1827 56.0973 88.2627 56.5573 88.0527C57.3573 87.6727 57.8273 86.1327 57.8273 86.1327L58.2373 93.3327Z" fill="url(#paint1_linear_938_25242)"/>
<path id="Vector_4" d="M76.1973 80.0126C76.1973 80.0126 79.4273 84.0626 82.5973 82.3126C86.6773 80.0526 84.3573 74.8826 84.3573 74.8826C84.2873 74.2726 84.2473 73.6626 84.2473 73.0326L91.5873 86.1126C91.5873 86.1126 88.3073 83.5626 84.2473 85.4026C80.1873 87.2426 80.4873 90.7226 80.4873 90.7226L76.1973 80.0126Z" fill="url(#paint2_linear_938_25242)"/>
<path id="Vector_5" d="M69.017 100.673C75.4125 100.673 80.597 95.4881 80.597 89.0927C80.597 82.6972 75.4125 77.5127 69.017 77.5127C62.6216 77.5127 57.437 82.6972 57.437 89.0927C57.437 95.4881 62.6216 100.673 69.017 100.673Z" fill="url(#paint3_radial_938_25242)"/>
<path id="Vector_6" d="M99.5671 88.3426C108.028 88.3426 114.887 81.4836 114.887 73.0226C114.887 64.5616 108.028 57.7026 99.5671 57.7026C91.1061 57.7026 84.2471 64.5616 84.2471 73.0226C84.2471 81.4836 91.1061 88.3426 99.5671 88.3426Z" fill="url(#paint4_radial_938_25242)"/>
<path id="Vector_7" d="M41.9872 100.523C48.6809 100.523 54.1072 95.0963 54.1072 88.4026C54.1072 81.7089 48.6809 76.2826 41.9872 76.2826C35.2935 76.2826 29.8672 81.7089 29.8672 88.4026C29.8672 95.0963 35.2935 100.523 41.9872 100.523Z" fill="url(#paint5_radial_938_25242)"/>
</g>
<g id="SHADE" opacity="0.5">
<path id="Vector_8" d="M58.2373 93.3327C58.2373 93.3327 57.7073 91.3827 56.7173 90.7627C55.9373 90.2627 55.0973 90.0327 54.4973 90.4827C54.0773 90.7927 53.7373 91.3727 53.7373 91.3727L54.0073 86.8927C54.0073 86.8927 54.0973 87.6627 55.1373 88.0027C55.6773 88.1827 56.0973 88.2627 56.5573 88.0527C57.3573 87.6727 57.8273 86.1327 57.8273 86.1327L58.2373 93.3327Z" fill="url(#paint6_linear_938_25242)"/>
<path id="Vector_9" d="M76.1973 80.0126C76.1973 80.0126 79.4273 84.0626 82.5973 82.3126C86.6773 80.0526 84.3573 74.8826 84.3573 74.8826C84.2873 74.2726 84.2473 73.6626 84.2473 73.0326L91.5873 86.1126C91.5873 86.1126 88.3073 83.5626 84.2473 85.4026C80.1873 87.2426 80.4873 90.7226 80.4873 90.7226L76.1973 80.0126Z" fill="url(#paint7_linear_938_25242)"/>
<path id="Vector_10" d="M69.017 100.673C75.4125 100.673 80.597 95.4881 80.597 89.0927C80.597 82.6972 75.4125 77.5127 69.017 77.5127C62.6216 77.5127 57.437 82.6972 57.437 89.0927C57.437 95.4881 62.6216 100.673 69.017 100.673Z" fill="url(#paint8_radial_938_25242)"/>
<path id="Vector_11" d="M99.5671 88.3426C108.028 88.3426 114.887 81.4836 114.887 73.0226C114.887 64.5616 108.028 57.7026 99.5671 57.7026C91.1061 57.7026 84.2471 64.5616 84.2471 73.0226C84.2471 81.4836 91.1061 88.3426 99.5671 88.3426Z" fill="url(#paint9_radial_938_25242)"/>
<path id="Vector_12" d="M41.9872 100.523C48.6809 100.523 54.1072 95.0963 54.1072 88.4026C54.1072 81.7089 48.6809 76.2826 41.9872 76.2826C35.2935 76.2826 29.8672 81.7089 29.8672 88.4026C29.8672 95.0963 35.2935 100.523 41.9872 100.523Z" fill="url(#paint10_radial_938_25242)"/>
</g>
</g>
<g id="GRANULES">
<path id="Vector_13" d="M69.0171 33.4627C70.6629 33.4627 71.9971 32.1285 71.9971 30.4827C71.9971 28.8369 70.6629 27.5027 69.0171 27.5027C67.3713 27.5027 66.0371 28.8369 66.0371 30.4827C66.0371 32.1285 67.3713 33.4627 69.0171 33.4627Z" fill="url(#paint11_radial_938_25242)"/>
<path id="Vector_14" d="M81.0171 31.4627C82.6629 31.4627 83.9971 30.1285 83.9971 28.4827C83.9971 26.8369 82.6629 25.5027 81.0171 25.5027C79.3713 25.5027 78.0371 26.8369 78.0371 28.4827C78.0371 30.1285 79.3713 31.4627 81.0171 31.4627Z" fill="url(#paint12_radial_938_25242)"/>
<path id="Vector_15" d="M91.5874 20.4527C93.2332 20.4527 94.5674 19.1185 94.5674 17.4727C94.5674 15.8269 93.2332 14.4927 91.5874 14.4927C89.9416 14.4927 88.6074 15.8269 88.6074 17.4727C88.6074 19.1185 89.9416 20.4527 91.5874 20.4527Z" fill="url(#paint13_radial_938_25242)"/>
<path id="Vector_16" d="M96.5874 33.4627C98.2332 33.4627 99.5674 32.1285 99.5674 30.4827C99.5674 28.8369 98.2332 27.5027 96.5874 27.5027C94.9416 27.5027 93.6074 28.8369 93.6074 30.4827C93.6074 32.1285 94.9416 33.4627 96.5874 33.4627Z" fill="url(#paint14_radial_938_25242)"/>
<path id="Vector_17" d="M63.0576 65.3627C64.7034 65.3627 66.0376 64.0285 66.0376 62.3827C66.0376 60.7369 64.7034 59.4027 63.0576 59.4027C61.4118 59.4027 60.0776 60.7369 60.0776 62.3827C60.0776 64.0285 61.4118 65.3627 63.0576 65.3627Z" fill="url(#paint15_radial_938_25242)"/>
<path id="Vector_18" d="M43.5674 30.4827C45.2132 30.4827 46.5474 29.1485 46.5474 27.5027C46.5474 25.8569 45.2132 24.5227 43.5674 24.5227C41.9216 24.5227 40.5874 25.8569 40.5874 27.5027C40.5874 29.1485 41.9216 30.4827 43.5674 30.4827Z" fill="url(#paint16_radial_938_25242)"/>
<path id="Vector_19" d="M20.5874 62.3826C22.2332 62.3826 23.5674 61.0484 23.5674 59.4026C23.5674 57.7568 22.2332 56.4226 20.5874 56.4226C18.9416 56.4226 17.6074 57.7568 17.6074 59.4026C17.6074 61.0484 18.9416 62.3826 20.5874 62.3826Z" fill="url(#paint17_radial_938_25242)"/>
<path id="Vector_20" d="M41.9873 69.5226C43.6331 69.5226 44.9673 68.1884 44.9673 66.5426C44.9673 64.8968 43.6331 63.5626 41.9873 63.5626C40.3415 63.5626 39.0073 64.8968 39.0073 66.5426C39.0073 68.1884 40.3415 69.5226 41.9873 69.5226Z" fill="url(#paint18_radial_938_25242)"/>
<path id="Vector_21" d="M26.5474 48.5026C28.1932 48.5026 29.5274 47.1684 29.5274 45.5226C29.5274 43.8768 28.1932 42.5426 26.5474 42.5426C24.9016 42.5426 23.5674 43.8768 23.5674 45.5226C23.5674 47.1684 24.9016 48.5026 26.5474 48.5026Z" fill="url(#paint19_radial_938_25242)"/>
<path id="Vector_22" d="M64.0376 19.4327C65.6834 19.4327 67.0176 18.0985 67.0176 16.4527C67.0176 14.8068 65.6834 13.4727 64.0376 13.4727C62.3918 13.4727 61.0576 14.8068 61.0576 16.4527C61.0576 18.0985 62.3918 19.4327 64.0376 19.4327Z" fill="url(#paint20_radial_938_25242)"/>
<path id="Vector_23" d="M69.5171 75.4827C71.1629 75.4827 72.4971 74.1485 72.4971 72.5027C72.4971 70.8569 71.1629 69.5227 69.5171 69.5227C67.8713 69.5227 66.5371 70.8569 66.5371 72.5027C66.5371 74.1485 67.8713 75.4827 69.5171 75.4827Z" fill="url(#paint21_radial_938_25242)"/>
<path id="Vector_24" d="M123.938 38.5026C125.583 38.5026 126.918 37.1684 126.918 35.5226C126.918 33.8768 125.583 32.5426 123.938 32.5426C122.292 32.5426 120.958 33.8768 120.958 35.5226C120.958 37.1684 122.292 38.5026 123.938 38.5026Z" fill="url(#paint22_radial_938_25242)"/>
<path id="Vector_25" d="M123.938 54.4627C125.583 54.4627 126.918 53.1285 126.918 51.4827C126.918 49.8369 125.583 48.5027 123.938 48.5027C122.292 48.5027 120.958 49.8369 120.958 51.4827C120.958 53.1285 122.292 54.4627 123.938 54.4627Z" fill="url(#paint23_radial_938_25242)"/>
<path id="Vector_26" d="M108.597 23.4327C110.243 23.4327 111.577 22.0985 111.577 20.4527C111.577 18.8068 110.243 17.4727 108.597 17.4727C106.951 17.4727 105.617 18.8068 105.617 20.4527C105.617 22.0985 106.951 23.4327 108.597 23.4327Z" fill="url(#paint24_radial_938_25242)"/>
</g>
</g>
<defs>
<radialGradient id="paint0_radial_938_25242" cx="0" cy="0" r="1" gradientUnits="userSpaceOnUse" gradientTransform="translate(62.0794 29.9619) scale(90.0247 90.0247)">
<stop offset="0.0014" stop-color="#FFD1DC"/>
<stop offset="1" stop-color="#9744B2"/>
</radialGradient>
<linearGradient id="paint1_linear_938_25242" x1="53.8857" y1="89.7327" x2="58.0221" y2="89.7327" gradientUnits="userSpaceOnUse">
<stop stop-color="#7F4891"/>
<stop offset="0.5202" stop-color="#CCA4CE"/>
<stop offset="0.5474" stop-color="#C79ECA"/>
<stop offset="0.8543" stop-color="#9360A1"/>
<stop offset="1" stop-color="#7F4891"/>
</linearGradient>
<linearGradient id="paint2_linear_938_25242" x1="78.0204" y1="84.2285" x2="88.1755" y2="79.4512" gradientUnits="userSpaceOnUse">
<stop stop-color="#7F4891"/>
<stop offset="0.5202" stop-color="#CCA4CE"/>
<stop offset="0.5474" stop-color="#C79ECA"/>
<stop offset="0.8543" stop-color="#9360A1"/>
<stop offset="1" stop-color="#7F4891"/>
</linearGradient>
<radialGradient id="paint3_radial_938_25242" cx="0" cy="0" r="1" gradientUnits="userSpaceOnUse" gradientTransform="translate(66.3856 85.57) scale(14.416 14.1825)">
<stop stop-color="#FFCCDC"/>
<stop offset="0.0094" stop-color="#FDCADB"/>
<stop offset="0.3453" stop-color="#C793BB"/>
<stop offset="0.6341" stop-color="#A06AA4"/>
<stop offset="0.8618" stop-color="#885196"/>
<stop offset="1" stop-color="#7F4891"/>
</radialGradient>
<radialGradient id="paint4_radial_938_25242" cx="0" cy="0" r="1" gradientUnits="userSpaceOnUse" gradientTransform="translate(96.0848 68.3665) scale(19.0644 18.7556)">
<stop stop-color="#FFCCDC"/>
<stop offset="0.0094" stop-color="#FDCADB"/>
<stop offset="0.3453" stop-color="#C793BB"/>
<stop offset="0.6341" stop-color="#A06AA4"/>
<stop offset="0.8618" stop-color="#885196"/>
<stop offset="1" stop-color="#7F4891"/>
</radialGradient>
<radialGradient id="paint5_radial_938_25242" cx="0" cy="0" r="1" gradientUnits="userSpaceOnUse" gradientTransform="translate(39.2317 84.7159) scale(15.086 14.8416)">
<stop stop-color="#FFCCDC"/>
<stop offset="0.0094" stop-color="#FDCADB"/>
<stop offset="0.3453" stop-color="#C793BB"/>
<stop offset="0.6341" stop-color="#A06AA4"/>
<stop offset="0.8618" stop-color="#885196"/>
<stop offset="1" stop-color="#7F4891"/>
</radialGradient>
<linearGradient id="paint6_linear_938_25242" x1="56.3285" y1="86.2118" x2="55.9951" y2="92.2118" gradientUnits="userSpaceOnUse">
<stop stop-color="#370F49"/>
<stop offset="0.003" stop-color="#3A124B"/>
<stop offset="0.0551" stop-color="#60386E"/>
<stop offset="0.1103" stop-color="#81598B"/>
<stop offset="0.1697" stop-color="#9D75A4"/>
<stop offset="0.234" stop-color="#B28AB7"/>
<stop offset="0.3054" stop-color="#C199C4"/>
<stop offset="0.3899" stop-color="#C9A1CC"/>
<stop offset="0.5202" stop-color="#CCA4CE"/>
<stop offset="0.7058" stop-color="#8D6596"/>
<stop offset="1" stop-color="#4F275F"/>
</linearGradient>
<linearGradient id="paint7_linear_938_25242" x1="81.2798" y1="79.4312" x2="85.7798" y2="87.9312" gradientUnits="userSpaceOnUse">
<stop stop-color="#370F49"/>
<stop offset="0.0136" stop-color="#3F1750"/>
<stop offset="0.0958" stop-color="#6A4276"/>
<stop offset="0.1793" stop-color="#8D6596"/>
<stop offset="0.2632" stop-color="#A981AF"/>
<stop offset="0.3476" stop-color="#BC94C0"/>
<stop offset="0.4328" stop-color="#C8A0CB"/>
<stop offset="0.5202" stop-color="#CCA4CE"/>
<stop offset="0.7058" stop-color="#8D6596"/>
<stop offset="1" stop-color="#4F275F"/>
</linearGradient>
<radialGradient id="paint8_radial_938_25242" cx="0" cy="0" r="1" gradientUnits="userSpaceOnUse" gradientTransform="translate(69.0523 88.7366) scale(11.7045 11.5149)">
<stop stop-color="#370F49"/>
<stop offset="0.1947" stop-color="#3A124B"/>
<stop offset="0.34" stop-color="#441B52"/>
<stop offset="0.4693" stop-color="#542A5E"/>
<stop offset="0.5891" stop-color="#6A406F"/>
<stop offset="0.7027" stop-color="#885B84"/>
<stop offset="0.8114" stop-color="#AC7D9F"/>
<stop offset="0.9142" stop-color="#D6A5BE"/>
<stop offset="1" stop-color="#FFCCDC"/>
</radialGradient>
<radialGradient id="paint9_radial_938_25242" cx="0" cy="0" r="1" gradientUnits="userSpaceOnUse" gradientTransform="translate(99.2297 72.6998) scale(15.0266 14.7832)">
<stop stop-color="#370F49"/>
<stop offset="0.1947" stop-color="#3A124B"/>
<stop offset="0.34" stop-color="#441B52"/>
<stop offset="0.4693" stop-color="#542A5E"/>
<stop offset="0.5891" stop-color="#6A406F"/>
<stop offset="0.7027" stop-color="#885B84"/>
<stop offset="0.8114" stop-color="#AC7D9F"/>
<stop offset="0.9142" stop-color="#D6A5BE"/>
<stop offset="1" stop-color="#FFCCDC"/>
</radialGradient>
<radialGradient id="paint10_radial_938_25242" cx="0" cy="0" r="1" gradientUnits="userSpaceOnUse" gradientTransform="translate(41.7317 87.7158) scale(12.1951 11.9975)">
<stop stop-color="#370F49"/>
<stop offset="0.1947" stop-color="#3A124B"/>
<stop offset="0.34" stop-color="#441B52"/>
<stop offset="0.4693" stop-color="#542A5E"/>
<stop offset="0.5891" stop-color="#6A406F"/>
<stop offset="0.7027" stop-color="#885B84"/>
<stop offset="0.8114" stop-color="#AC7D9F"/>
<stop offset="0.9142" stop-color="#D6A5BE"/>
<stop offset="1" stop-color="#FFCCDC"/>
</radialGradient>
<radialGradient id="paint11_radial_938_25242" cx="0" cy="0" r="1" gradientUnits="userSpaceOnUse" gradientTransform="translate(68.0319 29.7699) scale(2.5991 3.60189)">
<stop offset="0.0005" stop-color="#FFD1DC"/>
<stop offset="0.103" stop-color="#E3B5C8"/>
<stop offset="0.2292" stop-color="#C99BB5"/>
<stop offset="0.3677" stop-color="#B486A6"/>
<stop offset="0.5227" stop-color="#A5779C"/>
<stop offset="0.7076" stop-color="#9D6F96"/>
<stop offset="1" stop-color="#9A6C94"/>
</radialGradient>
<radialGradient id="paint12_radial_938_25242" cx="0" cy="0" r="1" gradientUnits="userSpaceOnUse" gradientTransform="translate(80.0324 27.7697) scale(2.5991 3.60189)">
<stop offset="0.0005" stop-color="#FFD1DC"/>
<stop offset="0.103" stop-color="#E3B5C8"/>
<stop offset="0.2292" stop-color="#C99BB5"/>
<stop offset="0.3677" stop-color="#B486A6"/>
<stop offset="0.5227" stop-color="#A5779C"/>
<stop offset="0.7076" stop-color="#9D6F96"/>
<stop offset="1" stop-color="#9A6C94"/>
</radialGradient>
<radialGradient id="paint13_radial_938_25242" cx="0" cy="0" r="1" gradientUnits="userSpaceOnUse" gradientTransform="translate(90.6028 16.7665) scale(2.5991 3.60189)">
<stop offset="0.0005" stop-color="#FFD1DC"/>
<stop offset="0.103" stop-color="#E3B5C8"/>
<stop offset="0.2292" stop-color="#C99BB5"/>
<stop offset="0.3677" stop-color="#B486A6"/>
<stop offset="0.5227" stop-color="#A5779C"/>
<stop offset="0.7076" stop-color="#9D6F96"/>
<stop offset="1" stop-color="#9A6C94"/>
</radialGradient>
<radialGradient id="paint14_radial_938_25242" cx="0" cy="0" r="1" gradientUnits="userSpaceOnUse" gradientTransform="translate(95.5978 29.7699) scale(2.5991 3.60189)">
<stop offset="0.0005" stop-color="#FFD1DC"/>
<stop offset="0.103" stop-color="#E3B5C8"/>
<stop offset="0.2292" stop-color="#C99BB5"/>
<stop offset="0.3677" stop-color="#B486A6"/>
<stop offset="0.5227" stop-color="#A5779C"/>
<stop offset="0.7076" stop-color="#9D6F96"/>
<stop offset="1" stop-color="#9A6C94"/>
</radialGradient>
<radialGradient id="paint15_radial_938_25242" cx="0" cy="0" r="1" gradientUnits="userSpaceOnUse" gradientTransform="translate(62.071 61.6785) scale(2.5991 3.60189)">
<stop offset="0.0005" stop-color="#FFD1DC"/>
<stop offset="0.103" stop-color="#E3B5C8"/>
<stop offset="0.2292" stop-color="#C99BB5"/>
<stop offset="0.3677" stop-color="#B486A6"/>
<stop offset="0.5227" stop-color="#A5779C"/>
<stop offset="0.7076" stop-color="#9D6F96"/>
<stop offset="1" stop-color="#9A6C94"/>
</radialGradient>
<radialGradient id="paint16_radial_938_25242" cx="0" cy="0" r="1" gradientUnits="userSpaceOnUse" gradientTransform="translate(42.5799 26.7891) scale(2.5991 3.60189)">
<stop offset="0.0005" stop-color="#FFD1DC"/>
<stop offset="0.103" stop-color="#E3B5C8"/>
<stop offset="0.2292" stop-color="#C99BB5"/>
<stop offset="0.3677" stop-color="#B486A6"/>
<stop offset="0.5227" stop-color="#A5779C"/>
<stop offset="0.7076" stop-color="#9D6F96"/>
<stop offset="1" stop-color="#9A6C94"/>
</radialGradient>
<radialGradient id="paint17_radial_938_25242" cx="0" cy="0" r="1" gradientUnits="userSpaceOnUse" gradientTransform="translate(19.6036 58.6977) scale(2.5991 3.60189)">
<stop offset="0.0005" stop-color="#FFD1DC"/>
<stop offset="0.103" stop-color="#E3B5C8"/>
<stop offset="0.2292" stop-color="#C99BB5"/>
<stop offset="0.3677" stop-color="#B486A6"/>
<stop offset="0.5227" stop-color="#A5779C"/>
<stop offset="0.7076" stop-color="#9D6F96"/>
<stop offset="1" stop-color="#9A6C94"/>
</radialGradient>
<radialGradient id="paint18_radial_938_25242" cx="0" cy="0" r="1" gradientUnits="userSpaceOnUse" gradientTransform="translate(41.0008 65.8314) scale(2.5991 3.60189)">
<stop offset="0.0005" stop-color="#FFD1DC"/>
<stop offset="0.103" stop-color="#E3B5C8"/>
<stop offset="0.2292" stop-color="#C99BB5"/>
<stop offset="0.3677" stop-color="#B486A6"/>
<stop offset="0.5227" stop-color="#A5779C"/>
<stop offset="0.7076" stop-color="#9D6F96"/>
<stop offset="1" stop-color="#9A6C94"/>
</radialGradient>
<radialGradient id="paint19_radial_938_25242" cx="0" cy="0" r="1" gradientUnits="userSpaceOnUse" gradientTransform="translate(25.5649 44.81) scale(2.5991 3.60189)">
<stop offset="0.0005" stop-color="#FFD1DC"/>
<stop offset="0.103" stop-color="#E3B5C8"/>
<stop offset="0.2292" stop-color="#C99BB5"/>
<stop offset="0.3677" stop-color="#B486A6"/>
<stop offset="0.5227" stop-color="#A5779C"/>
<stop offset="0.7076" stop-color="#9D6F96"/>
<stop offset="1" stop-color="#9A6C94"/>
</radialGradient>
<radialGradient id="paint20_radial_938_25242" cx="0" cy="0" r="1" gradientUnits="userSpaceOnUse" gradientTransform="translate(63.0515 15.7469) scale(2.5991 3.60189)">
<stop offset="0.0005" stop-color="#FFD1DC"/>
<stop offset="0.103" stop-color="#E3B5C8"/>
<stop offset="0.2292" stop-color="#C99BB5"/>
<stop offset="0.3677" stop-color="#B486A6"/>
<stop offset="0.5227" stop-color="#A5779C"/>
<stop offset="0.7076" stop-color="#9D6F96"/>
<stop offset="1" stop-color="#9A6C94"/>
</radialGradient>
<radialGradient id="paint21_radial_938_25242" cx="0" cy="0" r="1" gradientUnits="userSpaceOnUse" gradientTransform="translate(68.5319 71.7931) scale(2.5991 3.60189)">
<stop offset="0.0005" stop-color="#FFD1DC"/>
<stop offset="0.103" stop-color="#E3B5C8"/>
<stop offset="0.2292" stop-color="#C99BB5"/>
<stop offset="0.3677" stop-color="#B486A6"/>
<stop offset="0.5227" stop-color="#A5779C"/>
<stop offset="0.7076" stop-color="#9D6F96"/>
<stop offset="1" stop-color="#9A6C94"/>
</radialGradient>
<radialGradient id="paint22_radial_938_25242" cx="0" cy="0" r="1" gradientUnits="userSpaceOnUse" gradientTransform="translate(122.953 34.8091) scale(2.5991 3.60189)">
<stop offset="0.0005" stop-color="#FFD1DC"/>
<stop offset="0.103" stop-color="#E3B5C8"/>
<stop offset="0.2292" stop-color="#C99BB5"/>
<stop offset="0.3677" stop-color="#B486A6"/>
<stop offset="0.5227" stop-color="#A5779C"/>
<stop offset="0.7076" stop-color="#9D6F96"/>
<stop offset="1" stop-color="#9A6C94"/>
</radialGradient>
<radialGradient id="paint23_radial_938_25242" cx="0" cy="0" r="1" gradientUnits="userSpaceOnUse" gradientTransform="translate(122.953 50.7717) scale(2.5991 3.60189)">
<stop offset="0.0005" stop-color="#FFD1DC"/>
<stop offset="0.103" stop-color="#E3B5C8"/>
<stop offset="0.2292" stop-color="#C99BB5"/>
<stop offset="0.3677" stop-color="#B486A6"/>
<stop offset="0.5227" stop-color="#A5779C"/>
<stop offset="0.7076" stop-color="#9D6F96"/>
<stop offset="1" stop-color="#9A6C94"/>
</radialGradient>
<radialGradient id="paint24_radial_938_25242" cx="0" cy="0" r="1" gradientUnits="userSpaceOnUse" gradientTransform="translate(107.61 19.7473) scale(2.5991 3.60189)">
<stop offset="0.0005" stop-color="#FFD1DC"/>
<stop offset="0.103" stop-color="#E3B5C8"/>
<stop offset="0.2292" stop-color="#C99BB5"/>
<stop offset="0.3677" stop-color="#B486A6"/>
<stop offset="0.5227" stop-color="#A5779C"/>
<stop offset="0.7076" stop-color="#9D6F96"/>
<stop offset="1" stop-color="#9A6C94"/>
</radialGradient>
</defs>
</svg>
