<svg width="17" height="165" viewBox="0 0 17 165" fill="none" xmlns="http://www.w3.org/2000/svg">
<g id="R-ICO-013092">
<g id="PEST">
<path id="Vector" d="M14.8848 164.773H1.2519C0.5605 164.773 0 164.213 0 163.521V153.658C0 152.967 0.5605 152.406 1.2519 152.406H14.8849C15.5763 152.406 16.1368 152.967 16.1368 153.658V163.521C16.1367 164.213 15.5762 164.773 14.8848 164.773Z" fill="url(#paint0_linear_938_24339)"/>
<path id="Vector_2" d="M14.8848 164.773H1.2519C0.5605 164.773 0 164.213 0 163.521V153.658C0 152.967 0.5605 152.406 1.2519 152.406H14.8849C15.5763 152.406 16.1368 152.967 16.1368 153.658V163.521C16.1367 164.213 15.5762 164.773 14.8848 164.773Z" fill="url(#paint1_linear_938_24339)"/>
</g>
<g id="ANKYRIN">
<path id="Vector_3" d="M14.1367 152.407H2C0.8954 152.407 0 151.511 0 150.407V122.843C0 121.738 0.8954 120.843 2 120.843H14.1367C15.2413 120.843 16.1367 121.738 16.1367 122.843V150.407C16.1367 151.511 15.2413 152.407 14.1367 152.407Z" fill="url(#paint2_linear_938_24339)"/>
<path id="Vector_4" d="M14.1367 152.407H2C0.8954 152.407 0 151.511 0 150.407V122.843C0 121.738 0.8954 120.843 2 120.843H14.1367C15.2413 120.843 16.1367 121.738 16.1367 122.843V150.407C16.1367 151.511 15.2413 152.407 14.1367 152.407Z" fill="url(#paint3_linear_938_24339)"/>
</g>
<path id="RAM" d="M8.0683 120.843C12.5243 120.843 16.1366 118.486 16.1366 115.578C16.1366 112.67 12.5243 110.313 8.0683 110.313C3.6123 110.313 0 112.67 0 115.578C0 118.486 3.6123 120.843 8.0683 120.843Z" fill="url(#paint4_radial_938_24339)"/>
<g id="TM">
<path id="Vector_5" d="M14.1367 110.313H2C0.8954 110.313 0 109.417 0 108.313V105.604C0 104.5 0.8954 103.604 2 103.604H14.1367C15.2413 103.604 16.1367 104.5 16.1367 105.604V108.313C16.1367 109.417 15.2413 110.313 14.1367 110.313Z" fill="url(#paint5_linear_938_24339)"/>
<path id="Vector_6" d="M14.1367 110.313H2C0.8954 110.313 0 109.417 0 108.313V105.604C0 104.5 0.8954 103.604 2 103.604H14.1367C15.2413 103.604 16.1367 104.5 16.1367 105.604V108.313C16.1367 109.417 15.2413 110.313 14.1367 110.313Z" fill="url(#paint6_linear_938_24339)"/>
</g>
<g id="HD">
<path id="HD_2" d="M8.0681 89.6755H3.6084V98.9629H8.0681V89.6755Z" fill="url(#paint7_linear_938_24339)"/>
<path id="HD_3" d="M12.5276 94.3169H8.06787V103.604H12.5276V94.3169Z" fill="url(#paint8_linear_938_24339)"/>
</g>
<g id="LNR">
<g id="Group">
<path id="Vector_7" d="M14.1367 89.6756H2C0.8954 89.6756 0 88.7802 0 87.6756V84.9672C0 83.8626 0.8954 82.9672 2 82.9672H14.1367C15.2413 82.9672 16.1367 83.8626 16.1367 84.9672V87.6756C16.1367 88.7802 15.2413 89.6756 14.1367 89.6756Z" fill="url(#paint9_linear_938_24339)"/>
<path id="Vector_8" d="M14.1367 89.6756H2C0.8954 89.6756 0 88.7802 0 87.6756V84.9672C0 83.8626 0.8954 82.9672 2 82.9672H14.1367C15.2413 82.9672 16.1367 83.8626 16.1367 84.9672V87.6756C16.1367 88.7802 15.2413 89.6756 14.1367 89.6756Z" fill="url(#paint10_linear_938_24339)"/>
</g>
<g id="Group_2">
<path id="Vector_9" d="M14.1367 82.9672H2C0.8954 82.9672 0 82.0718 0 80.9672V78.2588C0 77.1542 0.8954 76.2588 2 76.2588H14.1367C15.2413 76.2588 16.1367 77.1542 16.1367 78.2588V80.9672C16.1367 82.0717 15.2413 82.9672 14.1367 82.9672Z" fill="url(#paint11_linear_938_24339)"/>
<path id="Vector_10" d="M14.1367 82.9672H2C0.8954 82.9672 0 82.0718 0 80.9672V78.2588C0 77.1542 0.8954 76.2588 2 76.2588H14.1367C15.2413 76.2588 16.1367 77.1542 16.1367 78.2588V80.9672C16.1367 82.0717 15.2413 82.9672 14.1367 82.9672Z" fill="url(#paint12_linear_938_24339)"/>
</g>
<g id="Group_3">
<path id="Vector_11" d="M14.1367 76.2588H2C0.8954 76.2588 0 75.3634 0 74.2588V71.5504C0 70.4458 0.8954 69.5504 2 69.5504H14.1367C15.2413 69.5504 16.1367 70.4458 16.1367 71.5504V74.2588C16.1367 75.3634 15.2413 76.2588 14.1367 76.2588Z" fill="url(#paint13_linear_938_24339)"/>
<path id="Vector_12" d="M14.1367 76.2588H2C0.8954 76.2588 0 75.3634 0 74.2588V71.5504C0 70.4458 0.8954 69.5504 2 69.5504H14.1367C15.2413 69.5504 16.1367 70.4458 16.1367 71.5504V74.2588C16.1367 75.3634 15.2413 76.2588 14.1367 76.2588Z" fill="url(#paint14_linear_938_24339)"/>
</g>
</g>
<g id="EGFR">
<path id="BG" d="M14.1367 69.5504H2C0.8954 69.5504 0 68.655 0 67.5504V2C0 0.8954 0.8954 0 2 0H14.1367C15.2413 0 16.1367 0.8954 16.1367 2V67.5504C16.1367 68.655 15.2413 69.5504 14.1367 69.5504Z" fill="url(#paint15_linear_938_24339)"/>
<g id="LINES">
<path id="Vector_13" d="M0 7.72778H16.1367" stroke="#F294FF" stroke-miterlimit="10"/>
<path id="Vector_14" d="M0 15.4556H16.1367" stroke="#F294FF" stroke-miterlimit="10"/>
<path id="Vector_15" d="M0 23.1835H16.1367" stroke="#F294FF" stroke-miterlimit="10"/>
<path id="Vector_16" d="M0 30.9113H16.1367" stroke="#F294FF" stroke-miterlimit="10"/>
<path id="Vector_17" d="M0 38.639H16.1367" stroke="#F294FF" stroke-miterlimit="10"/>
<path id="Vector_18" d="M0 46.3669H16.1367" stroke="#F294FF" stroke-miterlimit="10"/>
<path id="Vector_19" d="M0 54.0947H16.1367" stroke="#F294FF" stroke-miterlimit="10"/>
<path id="Vector_20" d="M0 61.8226H16.1367" stroke="#F294FF" stroke-miterlimit="10"/>
</g>
<path id="SHINE_SHADE" d="M14.1367 69.5504H2C0.8954 69.5504 0 68.655 0 67.5504V2C0 0.8954 0.8954 0 2 0H14.1367C15.2413 0 16.1367 0.8954 16.1367 2V67.5504C16.1367 68.655 15.2413 69.5504 14.1367 69.5504Z" fill="url(#paint16_linear_938_24339)"/>
<path id="TOP" d="M14.1367 69.5504H2C0.8954 69.5504 0 68.655 0 67.5504V2C0 0.8954 0.8954 0 2 0H14.1367C15.2413 0 16.1367 0.8954 16.1367 2V67.5504C16.1367 68.655 15.2413 69.5504 14.1367 69.5504Z" fill="url(#paint17_linear_938_24339)"/>
</g>
</g>
<defs>
<linearGradient id="paint0_linear_938_24339" x1="0" y1="158.59" x2="16.1367" y2="158.59" gradientUnits="userSpaceOnUse">
<stop stop-color="#BD48CC"/>
<stop offset="0.1985" stop-color="#EDADF5"/>
<stop offset="0.4998" stop-color="#BD48CC"/>
<stop offset="1" stop-color="#5C2363"/>
</linearGradient>
<linearGradient id="paint1_linear_938_24339" x1="8.0683" y1="152.407" x2="8.0683" y2="164.773" gradientUnits="userSpaceOnUse">
<stop offset="0.7753" stop-color="#B947C8" stop-opacity="0"/>
<stop offset="1" stop-color="#5C2363"/>
</linearGradient>
<linearGradient id="paint2_linear_938_24339" x1="0" y1="136.625" x2="16.1367" y2="136.625" gradientUnits="userSpaceOnUse">
<stop stop-color="#CC4853"/>
<stop offset="0.1985" stop-color="#F5ADB3"/>
<stop offset="0.4998" stop-color="#CC4853"/>
<stop offset="1" stop-color="#632328"/>
</linearGradient>
<linearGradient id="paint3_linear_938_24339" x1="8.0683" y1="120.843" x2="8.0683" y2="152.407" gradientUnits="userSpaceOnUse">
<stop offset="0.7753" stop-color="#C84752" stop-opacity="0"/>
<stop offset="1" stop-color="#632328"/>
</linearGradient>
<radialGradient id="paint4_radial_938_24339" cx="0" cy="0" r="1" gradientUnits="userSpaceOnUse" gradientTransform="translate(5.5348 114.408) scale(10.9452 6.27051)">
<stop stop-color="#FFCCDE"/>
<stop offset="1" stop-color="#823A54"/>
</radialGradient>
<linearGradient id="paint5_linear_938_24339" x1="0" y1="106.959" x2="16.1367" y2="106.959" gradientUnits="userSpaceOnUse">
<stop stop-color="#CC4857"/>
<stop offset="0.1985" stop-color="#F5ADB5"/>
<stop offset="0.4998" stop-color="#CC4857"/>
<stop offset="1" stop-color="#63232A"/>
</linearGradient>
<linearGradient id="paint6_linear_938_24339" x1="8.0683" y1="103.604" x2="8.0683" y2="110.313" gradientUnits="userSpaceOnUse">
<stop offset="0.3658" stop-color="#C84756" stop-opacity="0"/>
<stop offset="1" stop-color="#63232A"/>
</linearGradient>
<linearGradient id="paint7_linear_938_24339" x1="3.5858" y1="94.3082" x2="8.0908" y2="94.3303" gradientUnits="userSpaceOnUse">
<stop stop-color="#C8479B"/>
<stop offset="1" stop-color="#702857"/>
</linearGradient>
<linearGradient id="paint8_linear_938_24339" x1="8.04517" y1="98.9496" x2="12.5503" y2="98.9717" gradientUnits="userSpaceOnUse">
<stop stop-color="#C8479B"/>
<stop offset="1" stop-color="#702857"/>
</linearGradient>
<linearGradient id="paint9_linear_938_24339" x1="0" y1="86.3215" x2="16.1367" y2="86.3215" gradientUnits="userSpaceOnUse">
<stop stop-color="#FF76C8"/>
<stop offset="0.1985" stop-color="#F5C9DA"/>
<stop offset="0.4998" stop-color="#FF76C8"/>
<stop offset="1" stop-color="#63233C"/>
</linearGradient>
<linearGradient id="paint10_linear_938_24339" x1="8.0683" y1="82.9673" x2="8.0683" y2="89.6757" gradientUnits="userSpaceOnUse">
<stop offset="0.3658" stop-color="#C84779" stop-opacity="0"/>
<stop offset="1" stop-color="#63233C"/>
</linearGradient>
<linearGradient id="paint11_linear_938_24339" x1="0" y1="79.613" x2="16.1367" y2="79.613" gradientUnits="userSpaceOnUse">
<stop stop-color="#FF76C8"/>
<stop offset="0.1985" stop-color="#F5C9DA"/>
<stop offset="0.4998" stop-color="#FF76C8"/>
<stop offset="1" stop-color="#63233C"/>
</linearGradient>
<linearGradient id="paint12_linear_938_24339" x1="8.0683" y1="76.2588" x2="8.0683" y2="82.9672" gradientUnits="userSpaceOnUse">
<stop offset="0.3658" stop-color="#C84779" stop-opacity="0"/>
<stop offset="1" stop-color="#63233C"/>
</linearGradient>
<linearGradient id="paint13_linear_938_24339" x1="0" y1="72.9046" x2="16.1367" y2="72.9046" gradientUnits="userSpaceOnUse">
<stop stop-color="#FF76C8"/>
<stop offset="0.1985" stop-color="#F5C9DA"/>
<stop offset="0.4998" stop-color="#FF76C8"/>
<stop offset="1" stop-color="#63233C"/>
</linearGradient>
<linearGradient id="paint14_linear_938_24339" x1="8.0683" y1="69.5504" x2="8.0683" y2="76.2588" gradientUnits="userSpaceOnUse">
<stop offset="0.3658" stop-color="#C84779" stop-opacity="0"/>
<stop offset="0.4782" stop-color="#C34576" stop-opacity="0.1772"/>
<stop offset="0.6116" stop-color="#B5406D" stop-opacity="0.3875"/>
<stop offset="0.7556" stop-color="#9D385F" stop-opacity="0.6146"/>
<stop offset="0.9061" stop-color="#7C2C4B" stop-opacity="0.8519"/>
<stop offset="1" stop-color="#63233C"/>
</linearGradient>
<linearGradient id="paint15_linear_938_24339" x1="-0.1604" y1="34.7349" x2="16.2971" y2="34.8156" gradientUnits="userSpaceOnUse">
<stop stop-color="#BD48CC"/>
<stop offset="0.23" stop-color="#B947C8"/>
<stop offset="1" stop-color="#5C2363"/>
</linearGradient>
<linearGradient id="paint16_linear_938_24339" x1="-0.1604" y1="34.7349" x2="16.2971" y2="34.8156" gradientUnits="userSpaceOnUse">
<stop stop-color="#EDADF5" stop-opacity="0"/>
<stop offset="0.1985" stop-color="#EDADF5"/>
<stop offset="0.4878" stop-color="#EDADF5" stop-opacity="0"/>
<stop offset="0.7099" stop-color="#5C2363" stop-opacity="0"/>
<stop offset="1" stop-color="#5C2363"/>
</linearGradient>
<linearGradient id="paint17_linear_938_24339" x1="8.0683" y1="0" x2="8.0683" y2="69.5504" gradientUnits="userSpaceOnUse">
<stop offset="0.7753" stop-color="#B947C8" stop-opacity="0"/>
<stop offset="1" stop-color="#5C2363"/>
</linearGradient>
</defs>
</svg>
