<svg width="43" height="137" viewBox="0 0 43 137" fill="none" xmlns="http://www.w3.org/2000/svg">
<g id="R-ICO-014061">
<g id="R-ICO-012683">
<path id="Vector" d="M4.79232 135.2C3.73995 135.2 2.88672 134.347 2.88672 133.294V99.7085C2.88672 91.8875 7.41624 87.5808 11.7969 83.416C16.0343 79.3876 20.0371 75.5824 20.0371 68.5034V41.9994C20.0371 33.2172 22.5261 29.2105 24.7211 25.6762C26.6816 22.521 28.3741 19.7961 28.3741 13.7276C28.3741 12.6753 29.2274 11.822 30.2797 11.822C31.3321 11.822 32.1853 12.6753 32.1853 13.7276C32.1853 20.8838 30.0369 24.3424 27.9592 27.6875C25.8451 31.0902 23.8483 34.3045 23.8483 41.9995V68.5034C23.8483 77.2177 18.8415 81.978 14.4236 86.1781C10.2784 90.1195 6.69792 93.5228 6.69792 99.7085V133.294C6.69792 134.347 5.84469 135.2 4.79232 135.2Z" fill="url(#paint0_linear_938_23009)"/>
<path id="Vector_2" d="M38.4558 27.4555C31.4482 27.4555 27.0947 22.1954 27.0947 13.7276C27.0947 5.26013 31.4482 0 38.4558 0C40.6339 0 42.3998 1.76592 42.3998 3.94402C42.3998 6.12212 40.6339 7.88804 38.4558 7.88804C37.4167 7.88804 34.9829 7.88804 34.9829 13.7275C34.9829 19.5673 37.4167 19.5673 38.4558 19.5673C40.6339 19.5673 42.3998 21.3332 42.3998 23.5113C42.3998 25.6894 40.6339 27.4555 38.4558 27.4555Z" fill="url(#paint1_radial_938_23009)"/>
<path id="Vector_3" d="M11.3644 124.109C4.35678 124.111 0.00209692 118.852 7.56843e-07 110.384C-0.0020954 101.917 4.35011 96.6555 11.3578 96.6538C13.5359 96.6532 15.3023 98.4188 15.3027 100.597C15.3032 102.775 13.5378 104.541 11.3597 104.542C10.3205 104.542 7.88671 104.543 7.88804 110.382C7.88947 116.222 10.3233 116.221 11.3624 116.221C13.5405 116.221 15.3069 117.986 15.3074 120.164C15.3079 122.342 13.5425 124.109 11.3644 124.109Z" fill="url(#paint2_radial_938_23009)"/>
</g>
<g id="R-ICO-012655">
<path id="Vector_4" d="M28.2327 136.033C29.2786 136.033 30.1265 135.185 30.1265 134.139V130.945C30.1265 127.593 28.6368 125.908 27.4393 124.553C26.3884 123.364 25.6287 122.505 25.6287 120.41C25.6287 118.25 26.4212 117.323 27.518 116.041C28.6804 114.682 30.1267 112.991 30.1267 109.875V64.4218C30.1267 55.6706 25.0549 50.0561 20.5806 45.1026C19.6577 44.0808 18.7857 43.1159 17.9668 42.1374C13.6677 36.9992 13.6709 28.7602 13.6736 22.1405V21.6495C13.6736 20.6036 12.8257 19.7556 11.7797 19.7556C10.7338 19.7556 9.88587 20.6036 9.88587 21.6495V22.1392C9.88316 29.3725 9.87951 38.3744 15.0621 44.5678C15.9267 45.6017 16.8635 46.6388 17.7698 47.6416C21.9824 52.3054 26.3389 57.128 26.3389 64.4218V109.875C26.3389 111.592 25.6629 112.383 24.6393 113.579C23.3928 115.037 21.8411 116.851 21.8411 120.41C21.8411 123.939 23.3715 125.67 24.6014 127.062C25.6478 128.245 26.339 129.027 26.339 130.945V134.139C26.3388 135.185 27.1867 136.033 28.2327 136.033Z" fill="url(#paint3_linear_938_23009)"/>
<path id="Vector_5" d="M4.98222 8.00659C11.9466 8.00659 16.2733 13.2344 16.2733 21.6499C16.2733 30.0652 11.9466 35.2928 4.98222 35.2928C2.81753 35.2928 1.0625 33.5378 1.0625 31.3731C1.0625 29.2084 2.81753 27.4534 4.98222 27.4534C6.01501 27.4534 8.43388 27.4534 8.43388 21.6499C8.43388 15.846 6.01501 15.846 4.98222 15.846C2.81753 15.846 1.0625 14.091 1.0625 11.9263C1.0625 9.76162 2.81753 8.00659 4.98222 8.00659Z" fill="url(#paint4_radial_938_23009)"/>
<path id="Vector_6" d="M22.5018 83.7654C29.4662 83.7654 33.7928 88.9932 33.7928 97.4087C33.7928 105.824 29.4662 111.052 22.5018 111.052C20.3371 111.052 18.582 109.297 18.582 107.132C18.582 104.967 20.3371 103.212 22.5018 103.212C23.5345 103.212 25.9534 103.212 25.9534 97.4087C25.9534 91.6048 23.5345 91.6048 22.5018 91.6048C20.3371 91.6048 18.582 89.8498 18.582 87.6851C18.582 85.5205 20.3372 83.7654 22.5018 83.7654Z" fill="url(#paint5_radial_938_23009)"/>
</g>
</g>
<defs>
<linearGradient id="paint0_linear_938_23009" x1="-11.141" y1="81.1948" x2="46.213" y2="65.8269" gradientUnits="userSpaceOnUse">
<stop stop-color="#006B57"/>
<stop offset="1" stop-color="#51E8CC"/>
</linearGradient>
<radialGradient id="paint1_radial_938_23009" cx="0" cy="0" r="1" gradientUnits="userSpaceOnUse" gradientTransform="translate(40.6726 13.7278) scale(15.3298)">
<stop stop-color="#82E8FF"/>
<stop offset="1" stop-color="#005791"/>
</radialGradient>
<radialGradient id="paint2_radial_938_23009" cx="0" cy="0" r="1" gradientUnits="userSpaceOnUse" gradientTransform="translate(13.5976 110.349) scale(15.3298 15.3298)">
<stop stop-color="#82E8FF"/>
<stop offset="1" stop-color="#005791"/>
</radialGradient>
<linearGradient id="paint3_linear_938_23009" x1="11.0117" y1="80.3046" x2="33.693" y2="74.2272" gradientUnits="userSpaceOnUse">
<stop stop-color="#270F85"/>
<stop offset="1" stop-color="#C8B6FF"/>
</linearGradient>
<radialGradient id="paint4_radial_938_23009" cx="0" cy="0" r="1" gradientUnits="userSpaceOnUse" gradientTransform="translate(2.779 21.6496) rotate(180) scale(15.2353)">
<stop stop-color="#2C2E99"/>
<stop offset="1" stop-color="#BB7A9B"/>
</radialGradient>
<radialGradient id="paint5_radial_938_23009" cx="0" cy="0" r="1" gradientUnits="userSpaceOnUse" gradientTransform="translate(20.2987 97.4086) rotate(180) scale(15.2353)">
<stop stop-color="#2C2E99"/>
<stop offset="1" stop-color="#BB7A9B"/>
</radialGradient>
</defs>
</svg>
