<svg width="65" height="61" viewBox="0 0 65 61" fill="none" xmlns="http://www.w3.org/2000/svg">
<g id="R-ICO-013998">
<g id="BOTTOM">
<path id="Vector" d="M32.5802 30.0297C32.4597 30.009 32.361 29.9458 32.2731 29.8465C32.1848 29.7583 32.1072 29.6536 32.0355 29.5047C31.8923 29.2189 31.7692 28.7786 31.6438 28.3099C31.3915 27.3587 31.1598 26.0727 30.7955 24.7988C30.424 23.5241 29.9178 22.3105 28.8926 21.4958C28.3888 21.1149 27.7598 20.8663 26.983 20.8021C26.233 20.7828 25.3183 20.9364 24.3771 21.4525C23.8693 21.6956 23.4213 22.0078 22.9541 22.3009C23.5707 21.8974 24.1533 21.7319 24.7061 21.7821C25.2531 21.8252 25.724 22.0236 26.1686 22.3703C27.0523 23.0595 27.7433 24.1799 28.411 25.3033C29.0756 26.4343 29.7223 27.6207 30.3104 28.4481C30.6087 28.8975 30.888 29.2591 31.1634 29.4994C31.4408 29.7855 31.7094 29.9015 32.0423 29.9495C32.2224 29.9392 32.4002 30.0016 32.5802 30.0297Z" fill="url(#paint0_linear_938_25733)"/>
<path id="Vector_2" d="M26.2597 33.4863C26.1017 33.7628 25.8575 33.9147 25.496 33.9792C25.1538 34.0517 24.7271 34.0506 24.2203 34.0024C23.2037 33.9074 21.9293 33.6316 20.6356 33.4674C19.3484 33.3103 17.9619 33.2458 16.8578 33.7872C16.3159 34.06 15.766 34.468 15.4181 35.0961C15.235 35.4078 15.0784 35.7688 14.9558 36.1805C14.8544 36.5947 14.8018 37.0625 14.7882 37.5784C14.7635 38.1136 14.8294 38.6499 14.8562 39.1852C14.7272 37.7407 15.4659 36.9085 16.4377 36.4698C17.444 36.0282 18.7716 35.9314 20.079 35.8421C21.3788 35.7563 22.7077 35.6911 23.7535 35.4737C24.2594 35.3614 24.7306 35.2218 25.0959 35.0115C25.4404 34.7938 25.7515 34.5292 25.9239 34.1192C26.0424 33.9117 26.1363 33.6906 26.2597 33.4863Z" fill="url(#paint1_linear_938_25733)"/>
<path id="Vector_3" d="M26.2522 41.7424C26.4362 42.024 26.4257 42.3378 26.3182 42.6867C26.2281 43.0277 26.0124 43.4099 25.721 43.8264C25.1438 44.6565 24.2341 45.6305 23.4285 46.6506C21.8112 48.654 20.433 51.2611 23.363 53.6232L24.5494 54.4761C22.3628 52.9552 23.8267 50.6328 25.1476 48.3836C25.8252 47.2475 26.4659 46.1189 26.8066 45.0877C26.9883 44.5671 27.0916 44.0795 27.064 43.6374C27.0354 43.1938 26.9569 42.7655 26.6474 42.3852C26.5196 42.1681 26.3881 41.9541 26.2522 41.7424Z" fill="url(#paint2_linear_938_25733)"/>
<path id="Vector_4" d="M34.0347 47.5911C35.3451 47.8628 35.2584 50.4517 35.5962 53.0414C35.766 54.3397 36.0427 55.6473 36.7979 56.6429C37.1748 57.1332 37.6692 57.4893 38.3205 57.7339C38.645 57.8506 39.0104 57.9433 39.4106 57.9759C39.8057 57.9878 40.2398 57.9555 40.7105 57.8723C41.1974 57.7813 41.693 57.713 42.1599 57.5661C39.5307 58.147 38.7646 55.5578 38.0363 53.0242C37.6701 51.7529 37.3039 50.4909 36.8153 49.5481C36.5721 49.0502 36.3018 48.6306 35.9775 48.3363C35.6483 48.068 35.2806 47.8268 34.7998 47.7485C34.542 47.7112 34.2816 47.6837 34.0347 47.5911Z" fill="url(#paint3_linear_938_25733)"/>
<path id="Vector_5" d="M43.6338 45.8524C43.9595 45.6436 44.3113 45.6317 44.6798 45.7197C45.0413 45.797 45.4346 46.005 45.8553 46.2937C46.6978 46.8706 47.6414 47.7765 48.6564 48.6265C49.6809 49.4827 50.741 50.2353 51.9267 50.4814C53.1179 50.7415 54.3912 50.3947 55.5961 49.0277L56.4729 47.9217C56.0837 48.4174 55.6469 48.7063 55.1855 48.8313C54.7135 48.9482 54.2015 48.8903 53.6873 48.7365C52.6544 48.4237 51.5643 47.6981 50.4644 46.9852C49.3743 46.2785 48.2462 45.5511 47.2123 45.1754C46.6936 44.9851 46.2099 44.8962 45.7411 44.9197C45.2582 44.9255 44.8063 45.0612 44.3731 45.3969L43.6338 45.8524Z" fill="url(#paint4_linear_938_25733)"/>
<path id="Vector_6" d="M50.5278 37.7247C50.7003 37.3704 50.9352 37.1341 51.2784 36.9845C51.6231 36.8361 52.069 36.7733 52.5837 36.7589C53.6153 36.7294 54.9192 36.9038 56.2156 36.9814C57.5207 37.058 58.8501 37.0423 59.9569 36.5321C60.2331 36.4044 60.4968 36.2459 60.7391 36.0501C60.9647 35.8509 61.1698 35.6141 61.349 35.3352C61.5282 35.0563 61.6816 34.7351 61.8034 34.3688C61.9312 34.0031 62.0175 33.5914 62.0217 33.1296L62.0651 31.6951C62.0247 34.3013 59.2855 34.4217 56.6888 34.5863C55.3645 34.6656 54.0967 34.7632 53.0136 35.0653C51.9427 35.3759 51.2107 35.8816 50.8382 36.9047L50.7059 37.322L50.5278 37.7247Z" fill="url(#paint5_linear_938_25733)"/>
<path id="Vector_7" d="M51.1126 27.2623C50.9334 26.5048 51.3492 25.8808 52.1322 25.2225C52.915 24.5669 54.0441 23.9081 55.1398 23.1675C55.6873 22.7962 56.2258 22.4026 56.7038 21.9671C57.1682 21.5385 57.5631 21.073 57.8405 20.5471C58.3833 19.5127 58.5046 18.1526 57.5234 16.6905L56.7858 15.5376C58.1117 17.6265 56.1153 19.2468 54.0752 20.9699C53.0632 21.8253 52.0566 22.6963 51.4244 23.5857C50.8308 24.47 50.4552 25.3855 50.8707 26.414C50.9714 26.693 51.0283 26.9806 51.1126 27.2623Z" fill="url(#paint6_linear_938_25733)"/>
<path id="Vector_8" d="M45.1179 17.7013C44.5255 17.1799 44.6365 16.3683 44.9842 15.414C45.3302 14.4669 45.9765 13.3376 46.5507 12.1547C47.1197 10.9736 47.6257 9.72 47.5809 8.5064C47.5471 7.9156 47.3743 7.3329 47.0082 6.7778C46.8241 6.5028 46.5976 6.2247 46.3077 5.9764C46.0102 5.7419 45.6582 5.5208 45.2488 5.3189C44.8206 5.1173 44.4053 4.8841 43.9639 4.7146C46.3011 5.7958 45.3962 8.2908 44.5263 10.7903C44.0933 12.0385 43.6688 13.2947 43.5678 14.3641C43.5188 14.8968 43.5174 15.4322 43.6549 15.8808C43.7856 16.3408 44.0622 16.7046 44.4571 17.1023L45.1179 17.7013Z" fill="url(#paint7_linear_938_25733)"/>
<path id="Vector_9" d="M35.5291 12.992C33.9689 12.8029 33.8697 10.2553 33.4208 7.65841C33.1959 6.37191 32.878 5.03641 32.1525 4.10051C31.4348 3.17591 30.2646 2.52931 28.5095 2.78941C28.0529 2.84071 27.6004 2.90971 27.1548 3.00881C28.3579 2.76511 29.1693 3.37411 29.7203 4.26261C30.2772 5.16181 30.6178 6.43191 30.9791 7.71081C31.3374 8.98451 31.7128 10.2595 32.2626 11.1992C32.5383 11.6568 32.8537 12.0791 33.2369 12.3733C33.6194 12.6779 34.0767 12.8093 34.6324 12.896L35.5291 12.992Z" fill="url(#paint8_linear_938_25733)"/>
<path id="Vector_10" d="M24.4448 14.5354C22.9297 15.1726 21.5787 13.0596 19.8775 11.0132C19.0317 10.001 18.1036 9.01705 17.0168 8.56465C16.4707 8.33365 15.8785 8.22645 15.2338 8.29765C14.5947 8.37625 13.9295 8.67975 13.217 9.19415C12.8414 9.45245 12.5043 9.76625 12.1504 10.0556C13.0777 9.24325 14.0749 9.38435 14.9969 9.89355C15.9313 10.4162 16.8401 11.3373 17.7814 12.2674C18.7223 13.201 19.6813 14.126 20.6347 14.6723C21.5822 15.2002 22.5451 15.4329 23.5859 14.9122L24.4448 14.5354Z" fill="url(#paint9_linear_938_25733)"/>
<path id="Vector_11" d="M15.5194 21.3838C15.2826 21.7102 14.9521 21.8634 14.5727 21.9213C14.2043 21.9847 13.7605 21.9362 13.2628 21.8209C12.2668 21.5909 11.0607 21.0856 9.80947 20.6558C8.54657 20.2225 7.28027 19.8926 6.09257 20.0858C5.50437 20.1852 4.92147 20.4099 4.41777 20.8358C3.93427 21.271 3.50577 21.898 3.17337 22.7436L2.75537 24.0973C2.94267 23.4932 3.22687 23.0579 3.63407 22.7837C4.04537 22.5102 4.53267 22.378 5.06957 22.3396C6.14317 22.2638 7.41817 22.5546 8.69747 22.83C9.96657 23.1041 11.2967 23.3913 12.3869 23.3667C12.9417 23.3588 13.4151 23.2642 13.8579 23.0752C14.3092 22.8892 14.6864 22.5897 14.9767 22.1095L15.5194 21.3838Z" fill="url(#paint10_linear_938_25733)"/>
<path id="Vector_12" d="M11.9536 31.5093C11.9487 31.9071 11.7799 32.2183 11.4911 32.4844C11.2218 32.7512 10.8429 32.9714 10.371 33.1675C9.43184 33.5611 8.15914 33.8515 6.89434 34.2289C5.63684 34.6073 4.34844 35.0854 3.52184 35.9151C2.69874 36.7341 2.16934 37.9891 2.65724 39.6772L3.00894 40.9965C2.37634 38.6112 4.78464 37.6688 7.24484 36.6454C9.70904 35.6069 12.0458 34.5889 11.9365 32.4022L11.9536 31.5093Z" fill="url(#paint11_linear_938_25733)"/>
</g>
<g id="TOP">
<path id="Vector_13" d="M32.042 29.9493C32.2819 29.9372 32.4879 29.8659 32.7162 29.6032C32.9439 29.3416 33.1827 29.0125 33.4435 28.5868C33.9659 27.7432 34.5606 26.5574 35.2629 25.4508C35.9659 24.3562 36.798 23.301 37.9809 22.7889C38.5501 22.5579 39.2029 22.4684 39.9436 22.587C40.3092 22.6492 40.661 22.7872 41.0457 22.9724C41.4202 23.1634 41.8399 23.3997 42.1912 23.7366L43.3245 24.7728C42.3166 23.834 41.3094 23.8012 40.309 24.2905C39.327 24.766 38.4016 25.6894 37.4776 26.6085C36.5464 27.5473 35.615 28.5095 34.7871 29.1356C34.3722 29.4475 33.9739 29.7475 33.6167 29.8798C33.4383 29.9345 33.2602 30.0274 33.0908 30.0459C32.9206 30.0704 32.7546 30.0428 32.5799 30.0296C32.3999 30.0016 32.2221 29.9392 32.042 29.9493Z" fill="url(#paint12_linear_938_25733)"/>
<path id="Vector_14" d="M25.9237 34.1191C26.477 33.0358 24.5096 31.4558 22.7641 29.4664C21.8928 28.4695 21.096 27.3832 20.919 26.1532C20.8166 25.5276 20.8968 24.8859 21.2073 24.2223C21.354 23.8839 21.5708 23.5525 21.8676 23.2354C22.1635 22.9181 22.4973 22.5778 22.9537 22.3008C23.4209 22.0076 23.8689 21.6955 24.3767 21.4524C23.0588 22.1687 22.7508 23.2151 22.9535 24.2877C23.1484 25.3636 23.7937 26.4866 24.4645 27.6359C25.1407 28.784 25.7945 29.8922 26.1999 30.8941C26.4112 31.4042 26.5098 31.833 26.5536 32.2767C26.5696 32.493 26.5519 32.6949 26.4976 32.8888C26.4611 33.0966 26.386 33.2941 26.2594 33.486C26.1361 33.6904 26.0422 33.9115 25.9237 34.1191Z" fill="url(#paint13_linear_938_25733)"/>
<path id="Vector_15" d="M26.6472 42.3851C26.3021 41.815 25.5314 41.8249 24.5554 41.9815C23.5617 42.1487 22.3013 42.5318 21.0123 42.8085C19.736 43.0742 18.4111 43.2324 17.2226 42.8018C16.0857 42.3672 15.0476 41.2631 14.8562 39.1849C14.8294 38.6496 14.7634 38.1133 14.7882 37.5781C14.806 39.023 15.5487 39.789 16.5944 40.1263C17.6342 40.4712 18.9294 40.4527 20.2474 40.4281C21.5723 40.3969 22.903 40.357 23.9354 40.5028C24.4754 40.5705 24.9559 40.6786 25.3222 40.8722C25.4951 40.9721 25.7031 41.0775 25.8501 41.2213C26.0161 41.3598 26.1056 41.5428 26.252 41.7421C26.388 41.9539 26.5195 42.1679 26.6472 42.3851Z" fill="url(#paint14_linear_938_25733)"/>
<path id="Vector_16" d="M34.7999 47.7482C34.6277 47.7219 34.4662 47.7399 34.3099 47.7951C34.1582 47.8283 34.0118 47.8987 33.8667 48.0035C33.577 48.2124 33.2928 48.5521 33.003 48.9739C32.4231 49.8147 31.8282 51.0044 31.1559 52.1081C30.4762 53.2213 29.6966 54.2988 28.6108 54.8929C28.3394 55.0411 28.0486 55.1592 27.737 55.2386C27.4376 55.2991 27.1183 55.3197 26.7787 55.293C26.4392 55.2663 26.0792 55.1923 25.7004 55.0645C25.3178 54.9408 24.9215 54.7583 24.5492 54.476L23.3628 53.6231C25.4892 55.2058 27.2296 53.0616 28.8841 51.0655C29.3033 50.5608 29.7233 50.0565 30.1434 49.5998C30.5606 49.1496 30.9834 48.734 31.4136 48.3752C31.8405 48.0264 32.2625 47.7624 32.6853 47.6378C32.7913 47.6062 32.8968 47.5857 33.0041 47.5708C33.1149 47.5428 33.2263 47.5237 33.3388 47.5147C33.564 47.4968 33.7935 47.519 34.0347 47.5911C34.2817 47.6835 34.5421 47.711 34.7999 47.7482Z" fill="url(#paint15_linear_938_25733)"/>
<path id="Vector_17" d="M44.3732 45.3965C43.7136 45.7898 43.6882 46.5953 43.8688 47.5987C44.047 48.5892 44.4818 49.8159 44.833 51.084C45.1751 52.3424 45.4567 53.6926 45.1612 54.8546C44.8681 56.0058 44.0127 57.0971 42.1597 57.5657C41.6928 57.7126 41.1972 57.7809 40.7104 57.8719C41.3675 57.763 41.844 57.5015 42.16 57.1055C42.482 56.7234 42.662 56.2528 42.7477 55.7252C42.9168 54.6668 42.7259 53.3945 42.5362 52.0733C42.3468 50.7629 42.1686 49.4439 42.2637 48.3699C42.3159 47.8462 42.4196 47.3393 42.6298 46.9108C42.8403 46.4816 43.172 46.1714 43.6337 45.8521L44.3732 45.3965Z" fill="url(#paint16_linear_938_25733)"/>
<path id="Vector_18" d="M50.8377 36.9045C50.7329 37.2804 50.7537 37.6165 50.9098 37.9569C51.0689 38.2977 51.3607 38.6409 51.7363 38.993C52.4887 39.699 53.5806 40.4323 54.6051 41.2323C55.6351 42.0384 56.6232 42.928 57.1213 44.0367C57.38 44.597 57.4855 45.1945 57.3893 45.8412C57.2885 46.4826 57.0535 47.2231 56.4727 47.9213L55.5959 49.0273C57.2087 47.0412 55.221 45.2245 53.3503 43.3958C52.3984 42.4719 51.5047 41.5585 50.9071 40.6115C50.3109 39.659 50.1146 38.7675 50.5274 37.7244L50.7054 37.3217L50.8377 36.9045Z" fill="url(#paint17_linear_938_25733)"/>
<path id="Vector_19" d="M50.8706 26.4138C51.2843 27.8918 53.8894 27.5053 56.488 27.5085C57.7966 27.5091 59.1245 27.603 60.2024 28.1766C60.4697 28.3204 60.7298 28.493 60.954 28.7035C61.1675 28.9157 61.3582 29.1642 61.5206 29.4532C61.8261 30.0312 62.101 30.7725 62.065 31.6948L62.0216 33.1293C62.1387 30.5262 59.4072 30.292 56.8284 29.9856C55.509 29.8349 54.2536 29.6617 53.1948 29.2863C52.1178 28.9067 51.4628 28.3361 51.1125 27.2621C51.0282 26.9805 50.9713 26.6929 50.8706 26.4138Z" fill="url(#paint18_linear_938_25733)"/>
<path id="Vector_20" d="M44.4575 17.1019C45.0382 17.6299 45.8357 17.4665 46.7666 17.0804C47.6999 16.667 48.7693 15.9231 49.8918 15.237C51.0155 14.5525 52.1947 13.9271 53.3905 13.801C54.574 13.6794 55.7368 14.1522 56.7858 15.5375L57.5234 16.6904C57.1953 16.1749 56.8025 15.8588 56.3642 15.704C55.9063 15.5684 55.41 15.5837 54.8875 15.6978C53.8429 15.9267 52.6895 16.545 51.5171 17.1378C50.3418 17.7351 49.167 18.2986 48.0797 18.5044C46.9617 18.7376 45.9602 18.5568 45.1182 17.7009L44.4575 17.1019Z" fill="url(#paint19_linear_938_25733)"/>
<path id="Vector_21" d="M34.6328 12.8959C35.032 12.9413 35.3637 12.8132 35.6638 12.56C35.9609 12.3166 36.2203 11.9697 36.4705 11.5221C36.9704 10.6343 37.41 9.40438 37.9363 8.19258C38.2004 7.58708 38.4883 6.98558 38.8282 6.43758C39.165 5.90468 39.5541 5.42788 40.0263 5.05918C40.498 4.69038 41.054 4.42998 41.7147 4.33018C42.3649 4.26308 43.1153 4.38288 43.9643 4.71428C44.4056 4.88378 44.821 5.11698 45.2492 5.31858C44.116 4.73038 43.171 5.10548 42.4078 5.83988C41.6388 6.58118 41.0045 7.72068 40.3498 8.85008C39.6951 9.98928 39.0131 11.1482 38.2516 11.9338C37.4905 12.6968 36.6542 13.189 35.5293 12.9919L34.6328 12.8959Z" fill="url(#paint20_linear_938_25733)"/>
<path id="Vector_22" d="M23.5854 14.912C25.082 14.2327 24.4066 11.7854 24.0352 9.16821C23.8556 7.87531 23.7398 6.50321 24.1343 5.39781C24.5221 4.28951 25.4123 3.32431 27.1548 3.00871C27.6004 2.90961 28.0529 2.84061 28.5095 2.78931C27.8974 2.85591 27.4518 3.10961 27.1325 3.46551C26.8118 3.81761 26.6158 4.26911 26.5014 4.78631C26.2734 5.82091 26.3623 7.11371 26.4295 8.44131C26.4973 9.76151 26.5404 11.0906 26.2973 12.1619C26.1731 12.6888 25.9845 13.1714 25.6943 13.5857C25.4068 14.0069 24.9869 14.2703 24.4447 14.5353L23.5854 14.912Z" fill="url(#paint21_linear_938_25733)"/>
<path id="Vector_23" d="M14.977 22.1092C15.4625 21.4697 15.2111 20.7074 14.6633 19.8289C14.1339 18.9672 13.2684 17.996 12.4597 16.9599C11.6554 15.9245 10.8982 14.8098 10.6736 13.6253C10.5723 13.0448 10.6044 12.4457 10.8254 11.8343C11.0353 11.2103 11.4714 10.6192 12.1503 10.0553C12.5042 9.76595 12.8413 9.45215 13.2169 9.19385C11.2842 10.7459 12.7707 12.9183 14.1845 15.1481C14.8911 16.2625 15.5816 17.3952 15.8976 18.438C16.0462 18.9518 16.154 19.4849 16.0979 19.9669C16.0457 20.4535 15.8477 20.9043 15.5196 21.3834L14.977 22.1092Z" fill="url(#paint22_linear_938_25733)"/>
<path id="Vector_24" d="M11.9364 32.402C11.9569 31.6112 11.3111 31.1429 10.3482 30.7464C9.42067 30.3568 8.15427 30.0644 6.89777 29.683C5.64177 29.2986 4.39377 28.8212 3.51817 27.9638C3.09897 27.5378 2.79787 27.018 2.63897 26.3743C2.56067 26.0528 2.52037 25.701 2.52417 25.318C2.53837 24.9377 2.62817 24.534 2.75547 24.0971L3.17347 22.7434C2.78917 23.9537 3.21147 24.8337 4.01957 25.5043C4.85337 26.1849 6.07587 26.6889 7.28347 27.2125C8.49387 27.7337 9.70267 28.2739 10.5511 28.9349C10.9898 29.2681 11.3684 29.6353 11.6039 30.051C11.8374 30.4675 11.9377 30.9334 11.9536 31.5091L11.9364 32.402Z" fill="url(#paint23_linear_938_25733)"/>
</g>
<g id="R-ICO-013977">
<path id="Vector_25" d="M43.3247 27.7859C44.9816 27.7859 46.3247 26.4427 46.3247 24.7859C46.3247 23.129 44.9816 21.7859 43.3247 21.7859C41.6679 21.7859 40.3247 23.129 40.3247 24.7859C40.3247 26.4427 41.6679 27.7859 43.3247 27.7859Z" fill="url(#paint24_radial_938_25733)"/>
<path id="Vector_26" d="M32.3398 32.8762C33.9967 32.8762 35.3398 31.5331 35.3398 29.8762C35.3398 28.2194 33.9967 26.8762 32.3398 26.8762C30.683 26.8762 29.3398 28.2194 29.3398 29.8762C29.3398 31.5331 30.683 32.8762 32.3398 32.8762Z" fill="url(#paint25_radial_938_25733)"/>
<path id="Vector_27" d="M23.7183 24.9248C25.3751 24.9248 26.7183 23.5817 26.7183 21.9248C26.7183 20.268 25.3751 18.9248 23.7183 18.9248C22.0614 18.9248 20.7183 20.268 20.7183 21.9248C20.7183 23.5817 22.0614 24.9248 23.7183 24.9248Z" fill="url(#paint26_radial_938_25733)"/>
<path id="Vector_28" d="M26.0239 36.7629C27.6808 36.7629 29.0239 35.4198 29.0239 33.7629C29.0239 32.1061 27.6808 30.7629 26.0239 30.7629C24.3671 30.7629 23.0239 32.1061 23.0239 33.7629C23.0239 35.4198 24.3671 36.7629 26.0239 36.7629Z" fill="url(#paint27_radial_938_25733)"/>
<path id="Vector_29" d="M14.8794 41.3765C16.5362 41.3765 17.8794 40.0333 17.8794 38.3765C17.8794 36.7196 16.5362 35.3765 14.8794 35.3765C13.2225 35.3765 11.8794 36.7196 11.8794 38.3765C11.8794 40.0333 13.2225 41.3765 14.8794 41.3765Z" fill="url(#paint28_radial_938_25733)"/>
<path id="Vector_30" d="M26.3628 45.104C28.0196 45.104 29.3628 43.7609 29.3628 42.104C29.3628 40.4471 28.0196 39.104 26.3628 39.104C24.7059 39.104 23.3628 40.4471 23.3628 42.104C23.3628 43.7609 24.7059 45.104 26.3628 45.104Z" fill="url(#paint29_radial_938_25733)"/>
<path id="Vector_31" d="M23.9712 56.9783C25.628 56.9783 26.9712 55.6351 26.9712 53.9783C26.9712 52.3214 25.628 50.9783 23.9712 50.9783C22.3143 50.9783 20.9712 52.3214 20.9712 53.9783C20.9712 55.6351 22.3143 56.9783 23.9712 56.9783Z" fill="url(#paint30_radial_938_25733)"/>
<path id="Vector_32" d="M34.4238 50.7903C36.0807 50.7903 37.4238 49.4471 37.4238 47.7903C37.4238 46.1334 36.0807 44.7903 34.4238 44.7903C32.767 44.7903 31.4238 46.1334 31.4238 47.7903C31.4238 49.4471 32.767 50.7903 34.4238 50.7903Z" fill="url(#paint31_radial_938_25733)"/>
<path id="Vector_33" d="M41.4624 60.6414C43.1193 60.6414 44.4624 59.2982 44.4624 57.6414C44.4624 55.9845 43.1193 54.6414 41.4624 54.6414C39.8055 54.6414 38.4624 55.9845 38.4624 57.6414C38.4624 59.2982 39.8055 60.6414 41.4624 60.6414Z" fill="url(#paint32_radial_938_25733)"/>
<path id="Vector_34" d="M44.061 48.7026C45.7179 48.7026 47.061 47.3595 47.061 45.7026C47.061 44.0458 45.7179 42.7026 44.061 42.7026C42.4042 42.7026 41.061 44.0458 41.061 45.7026C41.061 47.3595 42.4042 48.7026 44.061 48.7026Z" fill="url(#paint33_radial_938_25733)"/>
<path id="Vector_35" d="M55.9878 51.3967C57.6446 51.3967 58.9878 50.0536 58.9878 48.3967C58.9878 46.7399 57.6446 45.3967 55.9878 45.3967C54.3309 45.3967 52.9878 46.7399 52.9878 48.3967C52.9878 50.0536 54.3309 51.3967 55.9878 51.3967Z" fill="url(#paint34_radial_938_25733)"/>
<path id="Vector_36" d="M50.7798 40.3838C52.4366 40.3838 53.7798 39.0406 53.7798 37.3838C53.7798 35.7269 52.4366 34.3838 50.7798 34.3838C49.1229 34.3838 47.7798 35.7269 47.7798 37.3838C47.7798 39.0406 49.1229 40.3838 50.7798 40.3838Z" fill="url(#paint35_radial_938_25733)"/>
<path id="Vector_37" d="M61.9312 35.4768C63.588 35.4768 64.9312 34.1337 64.9312 32.4768C64.9312 30.82 63.588 29.4768 61.9312 29.4768C60.2743 29.4768 58.9312 30.82 58.9312 32.4768C58.9312 34.1337 60.2743 35.4768 61.9312 35.4768Z" fill="url(#paint36_radial_938_25733)"/>
<path id="Vector_38" d="M51.0903 29.8643C52.7472 29.8643 54.0903 28.5211 54.0903 26.8643C54.0903 25.2074 52.7472 23.8643 51.0903 23.8643C49.4335 23.8643 48.0903 25.2074 48.0903 26.8643C48.0903 28.5211 49.4335 29.8643 51.0903 29.8643Z" fill="url(#paint37_radial_938_25733)"/>
<path id="Vector_39" d="M57.0728 19.1904C58.7296 19.1904 60.0728 17.8473 60.0728 16.1904C60.0728 14.5336 58.7296 13.1904 57.0728 13.1904C55.4159 13.1904 54.0728 14.5336 54.0728 16.1904C54.0728 17.8473 55.4159 19.1904 57.0728 19.1904Z" fill="url(#paint38_radial_938_25733)"/>
<path id="Vector_40" d="M44.832 20.3496C46.4889 20.3496 47.832 19.0065 47.832 17.3496C47.832 15.6928 46.4889 14.3496 44.832 14.3496C43.1752 14.3496 41.832 15.6928 41.832 17.3496C41.832 19.0065 43.1752 20.3496 44.832 20.3496Z" fill="url(#paint39_radial_938_25733)"/>
<path id="Vector_41" d="M44.584 8.11328C46.2408 8.11328 47.584 6.77014 47.584 5.11328C47.584 3.45643 46.2408 2.11328 44.584 2.11328C42.9271 2.11328 41.584 3.45643 41.584 5.11328C41.584 6.77014 42.9271 8.11328 44.584 8.11328Z" fill="url(#paint40_radial_938_25733)"/>
<path id="Vector_42" d="M35.1099 15.8564C36.7667 15.8564 38.1099 14.5133 38.1099 12.8564C38.1099 11.1996 36.7667 9.85645 35.1099 9.85645C33.453 9.85645 32.1099 11.1996 32.1099 12.8564C32.1099 14.5133 33.453 15.8564 35.1099 15.8564Z" fill="url(#paint41_radial_938_25733)"/>
<path id="Vector_43" d="M27.8545 6C29.5113 6 30.8545 4.65685 30.8545 3C30.8545 1.34315 29.5113 0 27.8545 0C26.1976 0 24.8545 1.34315 24.8545 3C24.8545 4.65685 26.1976 6 27.8545 6Z" fill="url(#paint42_radial_938_25733)"/>
<path id="Vector_44" d="M23.959 17.6294C25.6158 17.6294 26.959 16.2862 26.959 14.6294C26.959 12.9725 25.6158 11.6294 23.959 11.6294C22.3021 11.6294 20.959 12.9725 20.959 14.6294C20.959 16.2862 22.3021 17.6294 23.959 17.6294Z" fill="url(#paint43_radial_938_25733)"/>
<path id="Vector_45" d="M12.7563 12.6704C14.4132 12.6704 15.7563 11.3273 15.7563 9.67041C15.7563 8.01356 14.4132 6.67041 12.7563 6.67041C11.0995 6.67041 9.75635 8.01356 9.75635 9.67041C9.75635 11.3273 11.0995 12.6704 12.7563 12.6704Z" fill="url(#paint44_radial_938_25733)"/>
<path id="Vector_46" d="M15.1504 24.7112C16.8072 24.7112 18.1504 23.368 18.1504 21.7112C18.1504 20.0543 16.8072 18.7112 15.1504 18.7112C13.4935 18.7112 12.1504 20.0543 12.1504 21.7112C12.1504 23.368 13.4935 24.7112 15.1504 24.7112Z" fill="url(#paint45_radial_938_25733)"/>
<path id="Vector_47" d="M3.03223 26.4846C4.68908 26.4846 6.03223 25.1415 6.03223 23.4846C6.03223 21.8278 4.68908 20.4846 3.03223 20.4846C1.37537 20.4846 0.0322266 21.8278 0.0322266 23.4846C0.0322266 25.1415 1.37537 26.4846 3.03223 26.4846Z" fill="url(#paint46_radial_938_25733)"/>
<path id="Vector_48" d="M11.7827 34.9883C13.4396 34.9883 14.7827 33.6451 14.7827 31.9883C14.7827 30.3314 13.4396 28.9883 11.7827 28.9883C10.1259 28.9883 8.78271 30.3314 8.78271 31.9883C8.78271 33.6451 10.1259 34.9883 11.7827 34.9883Z" fill="url(#paint47_radial_938_25733)"/>
<path id="Vector_49" d="M3 43.9966C4.65685 43.9966 6 42.6534 6 40.9966C6 39.3397 4.65685 37.9966 3 37.9966C1.34315 37.9966 0 39.3397 0 40.9966C0 42.6534 1.34315 43.9966 3 43.9966Z" fill="url(#paint48_radial_938_25733)"/>
</g>
</g>
<defs>
<linearGradient id="paint0_linear_938_25733" x1="25.7132" y1="20.8306" x2="29.9712" y2="30.2589" gradientUnits="userSpaceOnUse">
<stop stop-color="#042224"/>
<stop offset="0.0941" stop-color="#0E98A2"/>
<stop offset="0.1138" stop-color="#159BA4"/>
<stop offset="0.1418" stop-color="#27A2AA"/>
<stop offset="0.1748" stop-color="#46ADB5"/>
<stop offset="0.2114" stop-color="#70BDC3"/>
<stop offset="0.2507" stop-color="#A6D1D5"/>
<stop offset="0.2725" stop-color="#C7DEE0"/>
<stop offset="0.3067" stop-color="#C4DDDF"/>
<stop offset="0.3301" stop-color="#BBDADC"/>
<stop offset="0.3502" stop-color="#ACD4D7"/>
<stop offset="0.3686" stop-color="#96CCD0"/>
<stop offset="0.3857" stop-color="#7AC1C6"/>
<stop offset="0.4019" stop-color="#58B4BB"/>
<stop offset="0.417" stop-color="#30A5AD"/>
<stop offset="0.4279" stop-color="#0E98A2"/>
<stop offset="1" stop-color="#042224"/>
</linearGradient>
<linearGradient id="paint1_linear_938_25733" x1="15.1889" y1="35.4409" x2="24.6171" y2="37.0123" gradientUnits="userSpaceOnUse">
<stop stop-color="#042224"/>
<stop offset="0.0941" stop-color="#0E98A2"/>
<stop offset="0.1138" stop-color="#159BA4"/>
<stop offset="0.1418" stop-color="#27A2AA"/>
<stop offset="0.1748" stop-color="#46ADB5"/>
<stop offset="0.2114" stop-color="#70BDC3"/>
<stop offset="0.2507" stop-color="#A6D1D5"/>
<stop offset="0.2725" stop-color="#C7DEE0"/>
<stop offset="0.3067" stop-color="#C4DDDF"/>
<stop offset="0.3301" stop-color="#BBDADC"/>
<stop offset="0.3502" stop-color="#ACD4D7"/>
<stop offset="0.3686" stop-color="#96CCD0"/>
<stop offset="0.3857" stop-color="#7AC1C6"/>
<stop offset="0.4019" stop-color="#58B4BB"/>
<stop offset="0.417" stop-color="#30A5AD"/>
<stop offset="0.4279" stop-color="#0E98A2"/>
<stop offset="1" stop-color="#042224"/>
</linearGradient>
<linearGradient id="paint2_linear_938_25733" x1="21.8957" y1="52.2871" x2="28.2319" y2="44.7344" gradientUnits="userSpaceOnUse">
<stop stop-color="#042224"/>
<stop offset="0.0941" stop-color="#0E98A2"/>
<stop offset="0.1138" stop-color="#159BA4"/>
<stop offset="0.1418" stop-color="#27A2AA"/>
<stop offset="0.1748" stop-color="#46ADB5"/>
<stop offset="0.2114" stop-color="#70BDC3"/>
<stop offset="0.2507" stop-color="#A6D1D5"/>
<stop offset="0.2725" stop-color="#C7DEE0"/>
<stop offset="0.3067" stop-color="#C4DDDF"/>
<stop offset="0.3301" stop-color="#BBDADC"/>
<stop offset="0.3502" stop-color="#ACD4D7"/>
<stop offset="0.3686" stop-color="#96CCD0"/>
<stop offset="0.3857" stop-color="#7AC1C6"/>
<stop offset="0.4019" stop-color="#58B4BB"/>
<stop offset="0.417" stop-color="#30A5AD"/>
<stop offset="0.4279" stop-color="#0E98A2"/>
<stop offset="1" stop-color="#042224"/>
</linearGradient>
<linearGradient id="paint3_linear_938_25733" x1="38.8572" y1="58.1702" x2="37.4379" y2="47.7282" gradientUnits="userSpaceOnUse">
<stop stop-color="#042224"/>
<stop offset="0.0941" stop-color="#0E98A2"/>
<stop offset="0.1138" stop-color="#159BA4"/>
<stop offset="0.1418" stop-color="#27A2AA"/>
<stop offset="0.1748" stop-color="#46ADB5"/>
<stop offset="0.2114" stop-color="#70BDC3"/>
<stop offset="0.2507" stop-color="#A6D1D5"/>
<stop offset="0.2725" stop-color="#C7DEE0"/>
<stop offset="0.3067" stop-color="#C4DDDF"/>
<stop offset="0.3301" stop-color="#BBDADC"/>
<stop offset="0.3502" stop-color="#ACD4D7"/>
<stop offset="0.3686" stop-color="#96CCD0"/>
<stop offset="0.3857" stop-color="#7AC1C6"/>
<stop offset="0.4019" stop-color="#58B4BB"/>
<stop offset="0.417" stop-color="#30A5AD"/>
<stop offset="0.4279" stop-color="#0E98A2"/>
<stop offset="1" stop-color="#042224"/>
</linearGradient>
<linearGradient id="paint4_linear_938_25733" x1="54.0988" y1="50.6277" x2="46.6981" y2="43.7846" gradientUnits="userSpaceOnUse">
<stop stop-color="#042224"/>
<stop offset="0.0941" stop-color="#0E98A2"/>
<stop offset="0.1138" stop-color="#159BA4"/>
<stop offset="0.1418" stop-color="#27A2AA"/>
<stop offset="0.1748" stop-color="#46ADB5"/>
<stop offset="0.2114" stop-color="#70BDC3"/>
<stop offset="0.2507" stop-color="#A6D1D5"/>
<stop offset="0.2725" stop-color="#C7DEE0"/>
<stop offset="0.3067" stop-color="#C4DDDF"/>
<stop offset="0.3301" stop-color="#BBDADC"/>
<stop offset="0.3502" stop-color="#ACD4D7"/>
<stop offset="0.3686" stop-color="#96CCD0"/>
<stop offset="0.3857" stop-color="#7AC1C6"/>
<stop offset="0.4019" stop-color="#58B4BB"/>
<stop offset="0.417" stop-color="#30A5AD"/>
<stop offset="0.4279" stop-color="#0E98A2"/>
<stop offset="1" stop-color="#042224"/>
</linearGradient>
<linearGradient id="paint5_linear_938_25733" x1="61.8991" y1="35.17" x2="51.4063" y2="34.3083" gradientUnits="userSpaceOnUse">
<stop stop-color="#042224"/>
<stop offset="0.0941" stop-color="#0E98A2"/>
<stop offset="0.1138" stop-color="#159BA4"/>
<stop offset="0.1418" stop-color="#27A2AA"/>
<stop offset="0.1748" stop-color="#46ADB5"/>
<stop offset="0.2114" stop-color="#70BDC3"/>
<stop offset="0.2507" stop-color="#A6D1D5"/>
<stop offset="0.2725" stop-color="#C7DEE0"/>
<stop offset="0.3067" stop-color="#C4DDDF"/>
<stop offset="0.3301" stop-color="#BBDADC"/>
<stop offset="0.3502" stop-color="#ACD4D7"/>
<stop offset="0.3686" stop-color="#96CCD0"/>
<stop offset="0.3857" stop-color="#7AC1C6"/>
<stop offset="0.4019" stop-color="#58B4BB"/>
<stop offset="0.417" stop-color="#30A5AD"/>
<stop offset="0.4279" stop-color="#0E98A2"/>
<stop offset="1" stop-color="#042224"/>
</linearGradient>
<linearGradient id="paint6_linear_938_25733" x1="58.59" y1="18.7363" x2="50.0235" y2="23.6532" gradientUnits="userSpaceOnUse">
<stop stop-color="#042224"/>
<stop offset="0.0941" stop-color="#0E98A2"/>
<stop offset="0.1138" stop-color="#159BA4"/>
<stop offset="0.1418" stop-color="#27A2AA"/>
<stop offset="0.1748" stop-color="#46ADB5"/>
<stop offset="0.2114" stop-color="#70BDC3"/>
<stop offset="0.2507" stop-color="#A6D1D5"/>
<stop offset="0.2725" stop-color="#C7DEE0"/>
<stop offset="0.3067" stop-color="#C4DDDF"/>
<stop offset="0.3301" stop-color="#BBDADC"/>
<stop offset="0.3502" stop-color="#ACD4D7"/>
<stop offset="0.3686" stop-color="#96CCD0"/>
<stop offset="0.3857" stop-color="#7AC1C6"/>
<stop offset="0.4019" stop-color="#58B4BB"/>
<stop offset="0.417" stop-color="#30A5AD"/>
<stop offset="0.4279" stop-color="#0E98A2"/>
<stop offset="1" stop-color="#042224"/>
</linearGradient>
<linearGradient id="paint7_linear_938_25733" x1="47.5116" y1="7.0156" x2="42.0879" y2="14.6698" gradientUnits="userSpaceOnUse">
<stop stop-color="#042224"/>
<stop offset="0.0941" stop-color="#0E98A2"/>
<stop offset="0.1138" stop-color="#159BA4"/>
<stop offset="0.1418" stop-color="#27A2AA"/>
<stop offset="0.1748" stop-color="#46ADB5"/>
<stop offset="0.2114" stop-color="#70BDC3"/>
<stop offset="0.2507" stop-color="#A6D1D5"/>
<stop offset="0.2725" stop-color="#C7DEE0"/>
<stop offset="0.3067" stop-color="#C4DDDF"/>
<stop offset="0.3301" stop-color="#BBDADC"/>
<stop offset="0.3502" stop-color="#ACD4D7"/>
<stop offset="0.3686" stop-color="#96CCD0"/>
<stop offset="0.3857" stop-color="#7AC1C6"/>
<stop offset="0.4019" stop-color="#58B4BB"/>
<stop offset="0.417" stop-color="#30A5AD"/>
<stop offset="0.4279" stop-color="#0E98A2"/>
<stop offset="1" stop-color="#042224"/>
</linearGradient>
<linearGradient id="paint8_linear_938_25733" x1="30.7211" y1="2.57561" x2="31.887" y2="12.7642" gradientUnits="userSpaceOnUse">
<stop stop-color="#042224"/>
<stop offset="0.0941" stop-color="#0E98A2"/>
<stop offset="0.1138" stop-color="#159BA4"/>
<stop offset="0.1418" stop-color="#27A2AA"/>
<stop offset="0.1748" stop-color="#46ADB5"/>
<stop offset="0.2114" stop-color="#70BDC3"/>
<stop offset="0.2507" stop-color="#A6D1D5"/>
<stop offset="0.2725" stop-color="#C7DEE0"/>
<stop offset="0.3067" stop-color="#C4DDDF"/>
<stop offset="0.3301" stop-color="#BBDADC"/>
<stop offset="0.3502" stop-color="#ACD4D7"/>
<stop offset="0.3686" stop-color="#96CCD0"/>
<stop offset="0.3857" stop-color="#7AC1C6"/>
<stop offset="0.4019" stop-color="#58B4BB"/>
<stop offset="0.417" stop-color="#30A5AD"/>
<stop offset="0.4279" stop-color="#0E98A2"/>
<stop offset="1" stop-color="#042224"/>
</linearGradient>
<linearGradient id="paint9_linear_938_25733" x1="15.4827" y1="7.71135" x2="20.8051" y2="16.3792" gradientUnits="userSpaceOnUse">
<stop stop-color="#042224"/>
<stop offset="0.0941" stop-color="#0E98A2"/>
<stop offset="0.1138" stop-color="#159BA4"/>
<stop offset="0.1418" stop-color="#27A2AA"/>
<stop offset="0.1748" stop-color="#46ADB5"/>
<stop offset="0.2114" stop-color="#70BDC3"/>
<stop offset="0.2507" stop-color="#A6D1D5"/>
<stop offset="0.2725" stop-color="#C7DEE0"/>
<stop offset="0.3067" stop-color="#C4DDDF"/>
<stop offset="0.3301" stop-color="#BBDADC"/>
<stop offset="0.3502" stop-color="#ACD4D7"/>
<stop offset="0.3686" stop-color="#96CCD0"/>
<stop offset="0.3857" stop-color="#7AC1C6"/>
<stop offset="0.4019" stop-color="#58B4BB"/>
<stop offset="0.417" stop-color="#30A5AD"/>
<stop offset="0.4279" stop-color="#0E98A2"/>
<stop offset="1" stop-color="#042224"/>
</linearGradient>
<linearGradient id="paint10_linear_938_25733" x1="4.24587" y1="20.3084" x2="13.4208" y2="24.8705" gradientUnits="userSpaceOnUse">
<stop stop-color="#042224"/>
<stop offset="0.0941" stop-color="#0E98A2"/>
<stop offset="0.1138" stop-color="#159BA4"/>
<stop offset="0.1418" stop-color="#27A2AA"/>
<stop offset="0.1748" stop-color="#46ADB5"/>
<stop offset="0.2114" stop-color="#70BDC3"/>
<stop offset="0.2507" stop-color="#A6D1D5"/>
<stop offset="0.2725" stop-color="#C7DEE0"/>
<stop offset="0.3067" stop-color="#C4DDDF"/>
<stop offset="0.3301" stop-color="#BBDADC"/>
<stop offset="0.3502" stop-color="#ACD4D7"/>
<stop offset="0.3686" stop-color="#96CCD0"/>
<stop offset="0.3857" stop-color="#7AC1C6"/>
<stop offset="0.4019" stop-color="#58B4BB"/>
<stop offset="0.417" stop-color="#30A5AD"/>
<stop offset="0.4279" stop-color="#0E98A2"/>
<stop offset="1" stop-color="#042224"/>
</linearGradient>
<linearGradient id="paint11_linear_938_25733" x1="2.13334" y1="38.2129" x2="11.815" y2="34.6646" gradientUnits="userSpaceOnUse">
<stop stop-color="#042224"/>
<stop offset="0.0941" stop-color="#0E98A2"/>
<stop offset="0.1138" stop-color="#159BA4"/>
<stop offset="0.1418" stop-color="#27A2AA"/>
<stop offset="0.1748" stop-color="#46ADB5"/>
<stop offset="0.2114" stop-color="#70BDC3"/>
<stop offset="0.2507" stop-color="#A6D1D5"/>
<stop offset="0.2725" stop-color="#C7DEE0"/>
<stop offset="0.3067" stop-color="#C4DDDF"/>
<stop offset="0.3301" stop-color="#BBDADC"/>
<stop offset="0.3502" stop-color="#ACD4D7"/>
<stop offset="0.3686" stop-color="#96CCD0"/>
<stop offset="0.3857" stop-color="#7AC1C6"/>
<stop offset="0.4019" stop-color="#58B4BB"/>
<stop offset="0.417" stop-color="#30A5AD"/>
<stop offset="0.4279" stop-color="#0E98A2"/>
<stop offset="1" stop-color="#042224"/>
</linearGradient>
<linearGradient id="paint12_linear_938_25733" x1="33.4205" y1="31.1954" x2="40.6892" y2="23.4817" gradientUnits="userSpaceOnUse">
<stop stop-color="#0D6A71"/>
<stop offset="0.0919" stop-color="#1398A2"/>
<stop offset="0.2499" stop-color="#C7DEE0"/>
<stop offset="0.5868" stop-color="#0E98A2"/>
<stop offset="0.6531" stop-color="#0C8189"/>
<stop offset="0.8143" stop-color="#084E53"/>
<stop offset="0.9347" stop-color="#052E31"/>
<stop offset="1" stop-color="#042224"/>
</linearGradient>
<linearGradient id="paint13_linear_938_25733" x1="27.8951" y1="32.8685" x2="22.3323" y2="23.5972" gradientUnits="userSpaceOnUse">
<stop stop-color="#0D6A71"/>
<stop offset="0.0919" stop-color="#1398A2"/>
<stop offset="0.2499" stop-color="#C7DEE0"/>
<stop offset="0.5868" stop-color="#0E98A2"/>
<stop offset="0.6531" stop-color="#0C8189"/>
<stop offset="0.8143" stop-color="#084E53"/>
<stop offset="0.9347" stop-color="#052E31"/>
<stop offset="1" stop-color="#042224"/>
</linearGradient>
<linearGradient id="paint14_linear_938_25733" x1="25.9632" y1="38.9402" x2="15.876" y2="40.9428" gradientUnits="userSpaceOnUse">
<stop stop-color="#0D6A71"/>
<stop offset="0.0919" stop-color="#1398A2"/>
<stop offset="0.2499" stop-color="#C7DEE0"/>
<stop offset="0.5868" stop-color="#0E98A2"/>
<stop offset="0.6531" stop-color="#0C8189"/>
<stop offset="0.8143" stop-color="#084E53"/>
<stop offset="0.9347" stop-color="#052E31"/>
<stop offset="1" stop-color="#042224"/>
</linearGradient>
<linearGradient id="paint15_linear_938_25733" x1="33.4917" y1="46.3478" x2="25.778" y2="54.6549" gradientUnits="userSpaceOnUse">
<stop stop-color="#0D6A71"/>
<stop offset="0.0919" stop-color="#1398A2"/>
<stop offset="0.2499" stop-color="#C7DEE0"/>
<stop offset="0.5868" stop-color="#0E98A2"/>
<stop offset="0.6531" stop-color="#0C8189"/>
<stop offset="0.8143" stop-color="#084E53"/>
<stop offset="0.9347" stop-color="#052E31"/>
<stop offset="1" stop-color="#042224"/>
</linearGradient>
<linearGradient id="paint16_linear_938_25733" x1="40.7555" y1="46.6635" x2="44.1673" y2="56.1573" gradientUnits="userSpaceOnUse">
<stop stop-color="#0D6A71"/>
<stop offset="0.0919" stop-color="#1398A2"/>
<stop offset="0.2499" stop-color="#C7DEE0"/>
<stop offset="0.5868" stop-color="#0E98A2"/>
<stop offset="0.6531" stop-color="#0C8189"/>
<stop offset="0.8143" stop-color="#084E53"/>
<stop offset="0.9347" stop-color="#052E31"/>
<stop offset="1" stop-color="#042224"/>
</linearGradient>
<linearGradient id="paint17_linear_938_25733" x1="48.7194" y1="39.782" x2="57.1006" y2="45.7156" gradientUnits="userSpaceOnUse">
<stop stop-color="#0D6A71"/>
<stop offset="0.0919" stop-color="#1398A2"/>
<stop offset="0.2499" stop-color="#C7DEE0"/>
<stop offset="0.5868" stop-color="#0E98A2"/>
<stop offset="0.6531" stop-color="#0C8189"/>
<stop offset="0.8143" stop-color="#084E53"/>
<stop offset="0.9347" stop-color="#052E31"/>
<stop offset="1" stop-color="#042224"/>
</linearGradient>
<linearGradient id="paint18_linear_938_25733" x1="50.6526" y1="29.4564" x2="61.5556" y2="30.0497" gradientUnits="userSpaceOnUse">
<stop stop-color="#0D6A71"/>
<stop offset="0.0919" stop-color="#1398A2"/>
<stop offset="0.2499" stop-color="#C7DEE0"/>
<stop offset="0.5868" stop-color="#0E98A2"/>
<stop offset="0.6531" stop-color="#0C8189"/>
<stop offset="0.8143" stop-color="#084E53"/>
<stop offset="0.9347" stop-color="#052E31"/>
<stop offset="1" stop-color="#042224"/>
</linearGradient>
<linearGradient id="paint19_linear_938_25733" x1="46.3898" y1="20.0165" x2="54.9194" y2="14.2312" gradientUnits="userSpaceOnUse">
<stop stop-color="#0D6A71"/>
<stop offset="0.0919" stop-color="#1398A2"/>
<stop offset="0.2499" stop-color="#C7DEE0"/>
<stop offset="0.5868" stop-color="#0E98A2"/>
<stop offset="0.6531" stop-color="#0C8189"/>
<stop offset="0.8143" stop-color="#084E53"/>
<stop offset="0.9347" stop-color="#052E31"/>
<stop offset="1" stop-color="#042224"/>
</linearGradient>
<linearGradient id="paint20_linear_938_25733" x1="37.2295" y1="14.2468" x2="42.1989" y2="4.82718" gradientUnits="userSpaceOnUse">
<stop stop-color="#0D6A71"/>
<stop offset="0.0919" stop-color="#1398A2"/>
<stop offset="0.2499" stop-color="#C7DEE0"/>
<stop offset="0.5868" stop-color="#0E98A2"/>
<stop offset="0.6531" stop-color="#0C8189"/>
<stop offset="0.8143" stop-color="#084E53"/>
<stop offset="0.9347" stop-color="#052E31"/>
<stop offset="1" stop-color="#042224"/>
</linearGradient>
<linearGradient id="paint21_linear_938_25733" x1="26.6332" y1="14.5412" x2="25.5948" y2="4.45401" gradientUnits="userSpaceOnUse">
<stop stop-color="#0D6A71"/>
<stop offset="0.0919" stop-color="#1398A2"/>
<stop offset="0.2499" stop-color="#C7DEE0"/>
<stop offset="0.5868" stop-color="#0E98A2"/>
<stop offset="0.6531" stop-color="#0C8189"/>
<stop offset="0.8143" stop-color="#084E53"/>
<stop offset="0.9347" stop-color="#052E31"/>
<stop offset="1" stop-color="#042224"/>
</linearGradient>
<linearGradient id="paint22_linear_938_25733" x1="17.7089" y1="19.7349" x2="10.8853" y2="12.0211" gradientUnits="userSpaceOnUse">
<stop stop-color="#0D6A71"/>
<stop offset="0.0919" stop-color="#1398A2"/>
<stop offset="0.2499" stop-color="#C7DEE0"/>
<stop offset="0.5868" stop-color="#0E98A2"/>
<stop offset="0.6531" stop-color="#0C8189"/>
<stop offset="0.8143" stop-color="#084E53"/>
<stop offset="0.9347" stop-color="#052E31"/>
<stop offset="1" stop-color="#042224"/>
</linearGradient>
<linearGradient id="paint23_linear_938_25733" x1="12.9852" y1="29.4221" x2="2.74967" y2="25.9361" gradientUnits="userSpaceOnUse">
<stop stop-color="#0D6A71"/>
<stop offset="0.0919" stop-color="#1398A2"/>
<stop offset="0.2499" stop-color="#C7DEE0"/>
<stop offset="0.5868" stop-color="#0E98A2"/>
<stop offset="0.6531" stop-color="#0C8189"/>
<stop offset="0.8143" stop-color="#084E53"/>
<stop offset="0.9347" stop-color="#052E31"/>
<stop offset="1" stop-color="#042224"/>
</linearGradient>
<radialGradient id="paint24_radial_938_25733" cx="0" cy="0" r="1" gradientUnits="userSpaceOnUse" gradientTransform="translate(43.3247 24.7859) rotate(180) scale(3)">
<stop stop-color="#E0D4C7"/>
<stop offset="0.4297" stop-color="#E08113"/>
<stop offset="0.6324" stop-color="#B36810"/>
<stop offset="0.878" stop-color="#834C0C"/>
<stop offset="1" stop-color="#70410B"/>
</radialGradient>
<radialGradient id="paint25_radial_938_25733" cx="0" cy="0" r="1" gradientUnits="userSpaceOnUse" gradientTransform="translate(32.3398 29.8762) rotate(180) scale(3)">
<stop stop-color="#E0D4C7"/>
<stop offset="0.4297" stop-color="#E08113"/>
<stop offset="0.6324" stop-color="#B36810"/>
<stop offset="0.878" stop-color="#834C0C"/>
<stop offset="1" stop-color="#70410B"/>
</radialGradient>
<radialGradient id="paint26_radial_938_25733" cx="0" cy="0" r="1" gradientUnits="userSpaceOnUse" gradientTransform="translate(23.7183 21.9248) rotate(180) scale(3)">
<stop stop-color="#E0D4C7"/>
<stop offset="0.4297" stop-color="#E08113"/>
<stop offset="0.6324" stop-color="#B36810"/>
<stop offset="0.878" stop-color="#834C0C"/>
<stop offset="1" stop-color="#70410B"/>
</radialGradient>
<radialGradient id="paint27_radial_938_25733" cx="0" cy="0" r="1" gradientUnits="userSpaceOnUse" gradientTransform="translate(26.0239 33.7629) rotate(180) scale(3)">
<stop stop-color="#E0D4C7"/>
<stop offset="0.4297" stop-color="#E08113"/>
<stop offset="0.6324" stop-color="#B36810"/>
<stop offset="0.878" stop-color="#834C0C"/>
<stop offset="1" stop-color="#70410B"/>
</radialGradient>
<radialGradient id="paint28_radial_938_25733" cx="0" cy="0" r="1" gradientUnits="userSpaceOnUse" gradientTransform="translate(14.8794 38.3765) rotate(180) scale(3)">
<stop stop-color="#E0D4C7"/>
<stop offset="0.4297" stop-color="#E08113"/>
<stop offset="0.6324" stop-color="#B36810"/>
<stop offset="0.878" stop-color="#834C0C"/>
<stop offset="1" stop-color="#70410B"/>
</radialGradient>
<radialGradient id="paint29_radial_938_25733" cx="0" cy="0" r="1" gradientUnits="userSpaceOnUse" gradientTransform="translate(26.3628 42.104) rotate(180) scale(3)">
<stop stop-color="#E0D4C7"/>
<stop offset="0.4297" stop-color="#E08113"/>
<stop offset="0.6324" stop-color="#B36810"/>
<stop offset="0.878" stop-color="#834C0C"/>
<stop offset="1" stop-color="#70410B"/>
</radialGradient>
<radialGradient id="paint30_radial_938_25733" cx="0" cy="0" r="1" gradientUnits="userSpaceOnUse" gradientTransform="translate(23.9712 53.9783) rotate(180) scale(3)">
<stop stop-color="#E0D4C7"/>
<stop offset="0.4297" stop-color="#E08113"/>
<stop offset="0.6324" stop-color="#B36810"/>
<stop offset="0.878" stop-color="#834C0C"/>
<stop offset="1" stop-color="#70410B"/>
</radialGradient>
<radialGradient id="paint31_radial_938_25733" cx="0" cy="0" r="1" gradientUnits="userSpaceOnUse" gradientTransform="translate(34.4238 47.7903) rotate(180) scale(3)">
<stop stop-color="#E0D4C7"/>
<stop offset="0.4297" stop-color="#E08113"/>
<stop offset="0.6324" stop-color="#B36810"/>
<stop offset="0.878" stop-color="#834C0C"/>
<stop offset="1" stop-color="#70410B"/>
</radialGradient>
<radialGradient id="paint32_radial_938_25733" cx="0" cy="0" r="1" gradientUnits="userSpaceOnUse" gradientTransform="translate(41.4624 57.6414) rotate(180) scale(3)">
<stop stop-color="#E0D4C7"/>
<stop offset="0.4297" stop-color="#E08113"/>
<stop offset="0.6324" stop-color="#B36810"/>
<stop offset="0.878" stop-color="#834C0C"/>
<stop offset="1" stop-color="#70410B"/>
</radialGradient>
<radialGradient id="paint33_radial_938_25733" cx="0" cy="0" r="1" gradientUnits="userSpaceOnUse" gradientTransform="translate(44.061 45.7026) rotate(180) scale(3)">
<stop stop-color="#E0D4C7"/>
<stop offset="0.4297" stop-color="#E08113"/>
<stop offset="0.6324" stop-color="#B36810"/>
<stop offset="0.878" stop-color="#834C0C"/>
<stop offset="1" stop-color="#70410B"/>
</radialGradient>
<radialGradient id="paint34_radial_938_25733" cx="0" cy="0" r="1" gradientUnits="userSpaceOnUse" gradientTransform="translate(55.9878 48.3967) rotate(180) scale(3)">
<stop stop-color="#E0D4C7"/>
<stop offset="0.4297" stop-color="#E08113"/>
<stop offset="0.6324" stop-color="#B36810"/>
<stop offset="0.878" stop-color="#834C0C"/>
<stop offset="1" stop-color="#70410B"/>
</radialGradient>
<radialGradient id="paint35_radial_938_25733" cx="0" cy="0" r="1" gradientUnits="userSpaceOnUse" gradientTransform="translate(50.7798 37.3838) rotate(180) scale(3)">
<stop stop-color="#E0D4C7"/>
<stop offset="0.4297" stop-color="#E08113"/>
<stop offset="0.6324" stop-color="#B36810"/>
<stop offset="0.878" stop-color="#834C0C"/>
<stop offset="1" stop-color="#70410B"/>
</radialGradient>
<radialGradient id="paint36_radial_938_25733" cx="0" cy="0" r="1" gradientUnits="userSpaceOnUse" gradientTransform="translate(61.9312 32.4768) rotate(180) scale(3)">
<stop stop-color="#E0D4C7"/>
<stop offset="0.4297" stop-color="#E08113"/>
<stop offset="0.6324" stop-color="#B36810"/>
<stop offset="0.878" stop-color="#834C0C"/>
<stop offset="1" stop-color="#70410B"/>
</radialGradient>
<radialGradient id="paint37_radial_938_25733" cx="0" cy="0" r="1" gradientUnits="userSpaceOnUse" gradientTransform="translate(51.0903 26.8643) rotate(180) scale(3)">
<stop stop-color="#E0D4C7"/>
<stop offset="0.4297" stop-color="#E08113"/>
<stop offset="0.6324" stop-color="#B36810"/>
<stop offset="0.878" stop-color="#834C0C"/>
<stop offset="1" stop-color="#70410B"/>
</radialGradient>
<radialGradient id="paint38_radial_938_25733" cx="0" cy="0" r="1" gradientUnits="userSpaceOnUse" gradientTransform="translate(57.0728 16.1904) rotate(180) scale(3)">
<stop stop-color="#E0D4C7"/>
<stop offset="0.4297" stop-color="#E08113"/>
<stop offset="0.6324" stop-color="#B36810"/>
<stop offset="0.878" stop-color="#834C0C"/>
<stop offset="1" stop-color="#70410B"/>
</radialGradient>
<radialGradient id="paint39_radial_938_25733" cx="0" cy="0" r="1" gradientUnits="userSpaceOnUse" gradientTransform="translate(44.832 17.3496) rotate(180) scale(3)">
<stop stop-color="#E0D4C7"/>
<stop offset="0.4297" stop-color="#E08113"/>
<stop offset="0.6324" stop-color="#B36810"/>
<stop offset="0.878" stop-color="#834C0C"/>
<stop offset="1" stop-color="#70410B"/>
</radialGradient>
<radialGradient id="paint40_radial_938_25733" cx="0" cy="0" r="1" gradientUnits="userSpaceOnUse" gradientTransform="translate(44.584 5.11328) rotate(180) scale(3)">
<stop stop-color="#E0D4C7"/>
<stop offset="0.4297" stop-color="#E08113"/>
<stop offset="0.6324" stop-color="#B36810"/>
<stop offset="0.878" stop-color="#834C0C"/>
<stop offset="1" stop-color="#70410B"/>
</radialGradient>
<radialGradient id="paint41_radial_938_25733" cx="0" cy="0" r="1" gradientUnits="userSpaceOnUse" gradientTransform="translate(35.1099 12.8564) rotate(180) scale(3)">
<stop stop-color="#E0D4C7"/>
<stop offset="0.4297" stop-color="#E08113"/>
<stop offset="0.6324" stop-color="#B36810"/>
<stop offset="0.878" stop-color="#834C0C"/>
<stop offset="1" stop-color="#70410B"/>
</radialGradient>
<radialGradient id="paint42_radial_938_25733" cx="0" cy="0" r="1" gradientUnits="userSpaceOnUse" gradientTransform="translate(27.8545 3) rotate(180) scale(3)">
<stop stop-color="#E0D4C7"/>
<stop offset="0.4297" stop-color="#E08113"/>
<stop offset="0.6324" stop-color="#B36810"/>
<stop offset="0.878" stop-color="#834C0C"/>
<stop offset="1" stop-color="#70410B"/>
</radialGradient>
<radialGradient id="paint43_radial_938_25733" cx="0" cy="0" r="1" gradientUnits="userSpaceOnUse" gradientTransform="translate(23.959 14.6294) rotate(180) scale(3)">
<stop stop-color="#E0D4C7"/>
<stop offset="0.4297" stop-color="#E08113"/>
<stop offset="0.6324" stop-color="#B36810"/>
<stop offset="0.878" stop-color="#834C0C"/>
<stop offset="1" stop-color="#70410B"/>
</radialGradient>
<radialGradient id="paint44_radial_938_25733" cx="0" cy="0" r="1" gradientUnits="userSpaceOnUse" gradientTransform="translate(12.7563 9.67041) rotate(180) scale(3)">
<stop stop-color="#E0D4C7"/>
<stop offset="0.4297" stop-color="#E08113"/>
<stop offset="0.6324" stop-color="#B36810"/>
<stop offset="0.878" stop-color="#834C0C"/>
<stop offset="1" stop-color="#70410B"/>
</radialGradient>
<radialGradient id="paint45_radial_938_25733" cx="0" cy="0" r="1" gradientUnits="userSpaceOnUse" gradientTransform="translate(15.1504 21.7112) rotate(180) scale(3)">
<stop stop-color="#E0D4C7"/>
<stop offset="0.4297" stop-color="#E08113"/>
<stop offset="0.6324" stop-color="#B36810"/>
<stop offset="0.878" stop-color="#834C0C"/>
<stop offset="1" stop-color="#70410B"/>
</radialGradient>
<radialGradient id="paint46_radial_938_25733" cx="0" cy="0" r="1" gradientUnits="userSpaceOnUse" gradientTransform="translate(3.03223 23.4846) rotate(180) scale(3)">
<stop stop-color="#E0D4C7"/>
<stop offset="0.4297" stop-color="#E08113"/>
<stop offset="0.6324" stop-color="#B36810"/>
<stop offset="0.878" stop-color="#834C0C"/>
<stop offset="1" stop-color="#70410B"/>
</radialGradient>
<radialGradient id="paint47_radial_938_25733" cx="0" cy="0" r="1" gradientUnits="userSpaceOnUse" gradientTransform="translate(11.7827 31.9883) rotate(180) scale(3)">
<stop stop-color="#E0D4C7"/>
<stop offset="0.4297" stop-color="#E08113"/>
<stop offset="0.6324" stop-color="#B36810"/>
<stop offset="0.878" stop-color="#834C0C"/>
<stop offset="1" stop-color="#70410B"/>
</radialGradient>
<radialGradient id="paint48_radial_938_25733" cx="0" cy="0" r="1" gradientUnits="userSpaceOnUse" gradientTransform="translate(3 40.9966) rotate(180) scale(3)">
<stop stop-color="#E0D4C7"/>
<stop offset="0.4297" stop-color="#E08113"/>
<stop offset="0.6324" stop-color="#B36810"/>
<stop offset="0.878" stop-color="#834C0C"/>
<stop offset="1" stop-color="#70410B"/>
</radialGradient>
</defs>
</svg>
