<svg width="42" height="29" viewBox="0 0 42 29" fill="none" xmlns="http://www.w3.org/2000/svg">
<g id="R-ICO-012648">
<g id="BG">
<path id="Vector" d="M2.01385 21.2601C1.28105 21.0191 0.778453 20.6801 0.437153 20.2245C-0.0184466 19.6153 -0.123747 18.8391 0.148653 18.0949C0.442853 17.2892 1.34535 16.8622 2.13885 17.1705C2.68335 17.3696 3.04895 17.8417 3.13735 18.3756C5.08375 18.9463 12.038 18.4958 17.2119 18.16C31.3795 17.2422 40.098 16.9661 41.7282 20.872C42.0585 21.6628 41.6851 22.5716 40.8938 22.9017C40.1034 23.2327 39.1944 22.8597 38.8641 22.0673C37.9656 19.926 24.0856 20.8248 17.4128 21.2575C8.75775 21.819 4.28475 22.0086 2.01385 21.2601Z" fill="url(#paint0_radial_938_24312)"/>
<path id="Vector_2" d="M3.8948 13.1175C2.8589 12.7761 2.1235 12.2188 1.6852 11.3893C1.2844 10.6317 1.5742 9.69258 2.3321 9.29248C3.0878 8.89258 4.0228 9.17998 4.4254 9.93228C5.4769 11.2448 14.5581 9.78728 19.4371 9.00328C29.3112 7.41558 35.5007 6.60608 38.2114 8.77338C39.0072 9.40908 39.461 10.2788 39.5246 11.2881C39.5783 12.1435 38.9279 12.8808 38.0724 12.9345C37.2174 12.99 36.4801 12.3384 36.4264 11.483C36.419 11.3619 36.3961 11.2959 36.2732 11.1974C34.4428 9.73088 26.0546 11.0833 19.9298 12.0678C12.1519 13.3181 6.8239 14.0829 3.8948 13.1175Z" fill="url(#paint1_radial_938_24312)"/>
</g>
<g id="FG">
<path id="Vector_3" d="M6.33188 28.1905C5.63908 27.9622 5.18338 27.2678 5.27998 26.5178C5.38988 25.6679 6.16788 25.0679 7.01798 25.1774C22.3944 27.1621 37.0277 23.8372 38.7704 21.7563C38.6373 21.0513 39.0097 20.3251 39.6985 20.0377C40.4893 19.709 41.3986 20.081 41.7283 20.8721C42.0915 21.7423 41.9416 22.7104 41.3173 23.5281C38.4384 27.3005 21.8623 30.2229 6.62048 28.2559C6.52058 28.2426 6.42398 28.2209 6.33188 28.1905Z" fill="url(#paint2_radial_938_24312)"/>
<path id="Vector_4" d="M1.10549 20.1394C1.08819 20.1337 1.07139 20.1282 1.05449 20.1215C0.249286 19.8275 -0.146014 18.8999 0.148486 18.0948C1.24149 15.1061 7.03269 14.6563 18.0327 14.0615C24.2817 13.7237 35.9133 13.0945 36.4759 10.9853C36.6972 10.1572 37.5477 9.66524 38.3755 9.88584C39.1943 10.1014 39.6958 10.9571 39.475 11.7854C38.4078 15.7836 30.7257 16.4836 18.2006 17.1609C12.5701 17.4653 4.06219 17.9256 3.02629 19.2336C2.73839 20.0218 1.89569 20.3999 1.10549 20.1394Z" fill="url(#paint3_radial_938_24312)"/>
<path id="Vector_5" d="M2.57136 12.1382C2.20336 12.0169 1.88046 11.7589 1.68526 11.3893C0.908462 9.91946 1.18606 8.34286 2.44726 7.06286C7.29246 2.14656 34.339 -0.735137 36.1461 0.163163C36.7491 0.470363 37.0875 1.13826 36.976 1.80576C36.85 2.56416 36.3088 3.01666 35.3674 3.15056C35.1189 3.18626 34.8834 3.17296 34.6528 3.08526C29.8433 3.21766 6.90186 5.62036 4.43566 9.51226C4.34016 9.66326 4.31836 9.72946 4.42896 9.93926C4.82976 10.6969 4.53996 11.636 3.78206 12.0361C3.39366 12.2417 2.95806 12.2657 2.57136 12.1382Z" fill="url(#paint4_radial_938_24312)"/>
</g>
</g>
<defs>
<radialGradient id="paint0_radial_938_24312" cx="0" cy="0" r="1" gradientUnits="userSpaceOnUse" gradientTransform="translate(20.9438 20.0664) rotate(18.2411) scale(15.243)">
<stop stop-color="#00A0EC"/>
<stop offset="0.3177" stop-color="#007FBC"/>
<stop offset="0.6126" stop-color="#006697"/>
<stop offset="0.8499" stop-color="#005780"/>
<stop offset="1" stop-color="#005178"/>
</radialGradient>
<radialGradient id="paint1_radial_938_24312" cx="0" cy="0" r="1" gradientUnits="userSpaceOnUse" gradientTransform="translate(20.637 10.6561) rotate(18.2411) scale(13.9702)">
<stop stop-color="#00A0EC"/>
<stop offset="0.3177" stop-color="#007FBC"/>
<stop offset="0.6126" stop-color="#006697"/>
<stop offset="0.8499" stop-color="#005780"/>
<stop offset="1" stop-color="#005178"/>
</radialGradient>
<radialGradient id="paint2_radial_938_24312" cx="0" cy="0" r="1" gradientUnits="userSpaceOnUse" gradientTransform="translate(23.6679 24.129) rotate(18.2411) scale(13.5379 13.5379)">
<stop offset="0.0005" stop-color="#42C2FF"/>
<stop offset="0.4381" stop-color="#00A0EC"/>
<stop offset="1" stop-color="#005178"/>
</radialGradient>
<radialGradient id="paint3_radial_938_24312" cx="0" cy="0" r="1" gradientUnits="userSpaceOnUse" gradientTransform="translate(19.7852 15.0253) rotate(18.2411) scale(14.6201)">
<stop offset="0.0005" stop-color="#42C2FF"/>
<stop offset="0.4381" stop-color="#00A0EC"/>
<stop offset="1" stop-color="#005178"/>
</radialGradient>
<radialGradient id="paint4_radial_938_24312" cx="0" cy="0" r="1" gradientTransform="matrix(20.8833 -2.69727 0.846451 6.54842 17.4467 3.92572)" gradientUnits="userSpaceOnUse">
<stop offset="0.0005" stop-color="#42C2FF"/>
<stop offset="0.4381" stop-color="#00A0EC"/>
<stop offset="1" stop-color="#005178"/>
</radialGradient>
</defs>
</svg>
