<svg width="105" height="37" viewBox="0 0 105 37" fill="none" xmlns="http://www.w3.org/2000/svg">
<g id="R-ICO-013635">
<g id="SUMOYLATION PROTEIN">
<path d="M1.05225 11.5C1.05225 5.97715 5.5294 1.5 11.0522 1.5H93.0522C98.5751 1.5 103.052 5.97715 103.052 11.5V25.5C103.052 31.0228 98.5751 35.5 93.0522 35.5H11.0522C5.5294 35.5 1.05225 31.0228 1.05225 25.5V11.5Z" fill="url(#paint0_linear_938_23732)"/>
<path d="M74.7604 2.99266C53.5243 2.87443 32.2883 2.52283 11.0522 1.64001C11.0522 1.54664 11.0522 1.45328 11.0522 1.35991C32.2883 0.477089 53.5243 0.125486 74.7604 0.00726104C80.8575 -0.0144306 86.9549 0.0149823 93.0522 0.0622931C98.2807 0.00998783 103.133 4.01644 104.112 9.09107C104.278 9.88383 104.357 10.6937 104.351 11.5C104.308 16.1667 104.243 20.8333 104.16 25.5C104.203 31.4293 98.7808 36.5496 93.0532 36.2659C93.0529 36.2659 93.0526 36.2658 93.0522 36.2658C82.4345 36.0221 71.8157 35.8466 61.1982 35.953C50.5802 36.056 39.9612 36.4645 29.3432 36.6648C23.2462 36.7583 17.1493 36.7688 11.0522 36.7316C5.91668 36.792 1.1516 32.8365 0.220187 27.8607C0.0620036 27.0829 -0.0105187 26.2893 0.00131106 25.5C0.077628 20.8334 0.180205 16.1667 0.316393 11.5C0.337671 5.75994 5.6609 0.955904 11.0522 1.35991C11.0522 1.45328 11.0522 1.54664 11.0522 1.64001C5.7906 1.78493 1.50767 6.58657 1.78796 11.5C1.92413 16.1667 2.02671 20.8334 2.10307 25.5C2.1147 26.1421 2.19366 26.78 2.3392 27.4008C3.21216 31.3718 7.05307 34.368 11.0522 34.2685C17.1492 34.2312 23.2462 34.2418 29.3432 34.3353C39.9613 34.5356 50.5801 34.9428 61.1982 35.0457C71.8159 35.1521 82.4343 34.978 93.0522 34.7342C93.0525 34.7342 93.0528 34.7342 93.0531 34.7342C97.9782 34.7084 102.16 30.2233 101.945 25.5C101.862 20.8333 101.797 16.1666 101.754 11.5C101.747 10.8755 101.675 10.2545 101.538 9.64922C100.714 5.7764 96.9593 2.82997 93.0522 2.93771C86.9549 2.98507 80.8575 3.01451 74.7604 2.99266Z" fill="#0052AF"/>
<text id="SUMOYLATION PROTEIN_2" fill="white" xml:space="preserve" style="white-space: pre" font-family="Arial" font-size="12" font-weight="bold" letter-spacing="0em"><tspan x="8.14209" y="15.6602">SUMOYLATION&#10;</tspan><tspan x="25.3687" y="29.6602">PROTEIN</tspan></text>
</g>
</g>
<defs>
<linearGradient id="paint0_linear_938_23732" x1="52.0522" y1="1.5" x2="52.0522" y2="35.5" gradientUnits="userSpaceOnUse">
<stop stop-color="#FFA0CC"/>
<stop offset="1" stop-color="#06A2B2"/>
</linearGradient>
</defs>
</svg>
