<svg width="39" height="48" viewBox="0 0 39 48" fill="none" xmlns="http://www.w3.org/2000/svg">
<g id="R-ICO-012796">
<path id="Vector" d="M20.9229 10.8454C22.5687 10.8454 23.9029 9.51118 23.9029 7.86538C23.9029 6.21957 22.5687 4.88538 20.9229 4.88538C19.2771 4.88538 17.9429 6.21957 17.9429 7.86538C17.9429 9.51118 19.2771 10.8454 20.9229 10.8454Z" fill="url(#paint0_radial_938_25624)"/>
<path id="Vector_2" d="M5.95998 23.6579C7.60579 23.6579 8.93998 22.3237 8.93998 20.6779C8.93998 19.0321 7.60579 17.6979 5.95998 17.6979C4.31417 17.6979 2.97998 19.0321 2.97998 20.6779C2.97998 22.3237 4.31417 23.6579 5.95998 23.6579Z" fill="url(#paint1_radial_938_25624)"/>
<path id="Vector_3" d="M2.98 44.4138C4.62581 44.4138 5.96 43.0796 5.96 41.4338C5.96 39.788 4.62581 38.4538 2.98 38.4538C1.33419 38.4538 0 39.788 0 41.4338C0 43.0796 1.33419 44.4138 2.98 44.4138Z" fill="url(#paint2_radial_938_25624)"/>
<path id="Vector_4" d="M7.98 5.96C9.62581 5.96 10.96 4.62581 10.96 2.98C10.96 1.33419 9.62581 0 7.98 0C6.33419 0 5 1.33419 5 2.98C5 4.62581 6.33419 5.96 7.98 5.96Z" fill="url(#paint3_radial_938_25624)"/>
<path id="Vector_5" d="M14.9629 35.453C16.6087 35.453 17.9429 34.1188 17.9429 32.473C17.9429 30.8272 16.6087 29.493 14.9629 29.493C13.3171 29.493 11.9829 30.8272 11.9829 32.473C11.9829 34.1188 13.3171 35.453 14.9629 35.453Z" fill="url(#paint4_radial_938_25624)"/>
<path id="Vector_6" d="M35.3301 20.6779C36.9759 20.6779 38.3101 19.3437 38.3101 17.6979C38.3101 16.0521 36.9759 14.7179 35.3301 14.7179C33.6843 14.7179 32.3501 16.0521 32.3501 17.6979C32.3501 19.3437 33.6843 20.6779 35.3301 20.6779Z" fill="url(#paint5_radial_938_25624)"/>
<path id="Vector_7" d="M19.9898 21.6626C21.6356 21.6626 22.9698 20.3284 22.9698 18.6826C22.9698 17.0368 21.6356 15.7026 19.9898 15.7026C18.344 15.7026 17.0098 17.0368 17.0098 18.6826C17.0098 20.3284 18.344 21.6626 19.9898 21.6626Z" fill="url(#paint6_radial_938_25624)"/>
<path id="Vector_8" d="M19.9898 47.3939C21.6356 47.3939 22.9698 46.0597 22.9698 44.4139C22.9698 42.7681 21.6356 41.4339 19.9898 41.4339C18.344 41.4339 17.0098 42.7681 17.0098 44.4139C17.0098 46.0597 18.344 47.3939 19.9898 47.3939Z" fill="url(#paint7_radial_938_25624)"/>
</g>
<defs>
<radialGradient id="paint0_radial_938_25624" cx="0" cy="0" r="1" gradientUnits="userSpaceOnUse" gradientTransform="translate(19.9376 7.15255) scale(2.5991 3.60189)">
<stop offset="0.0005" stop-color="#FFD1DC"/>
<stop offset="0.103" stop-color="#E3B5C8"/>
<stop offset="0.2292" stop-color="#C99BB5"/>
<stop offset="0.3677" stop-color="#B486A6"/>
<stop offset="0.5227" stop-color="#A5779C"/>
<stop offset="0.7076" stop-color="#9D6F96"/>
<stop offset="1" stop-color="#9A6C94"/>
</radialGradient>
<radialGradient id="paint1_radial_938_25624" cx="0" cy="0" r="1" gradientUnits="userSpaceOnUse" gradientTransform="translate(4.97517 19.9649) scale(2.5991 3.60189)">
<stop offset="0.0005" stop-color="#FFD1DC"/>
<stop offset="0.103" stop-color="#E3B5C8"/>
<stop offset="0.2292" stop-color="#C99BB5"/>
<stop offset="0.3677" stop-color="#B486A6"/>
<stop offset="0.5227" stop-color="#A5779C"/>
<stop offset="0.7076" stop-color="#9D6F96"/>
<stop offset="1" stop-color="#9A6C94"/>
</radialGradient>
<radialGradient id="paint2_radial_938_25624" cx="0" cy="0" r="1" gradientUnits="userSpaceOnUse" gradientTransform="translate(1.99539 40.7276) scale(2.5991 3.60189)">
<stop offset="0.0005" stop-color="#FFD1DC"/>
<stop offset="0.103" stop-color="#E3B5C8"/>
<stop offset="0.2292" stop-color="#C99BB5"/>
<stop offset="0.3677" stop-color="#B486A6"/>
<stop offset="0.5227" stop-color="#A5779C"/>
<stop offset="0.7076" stop-color="#9D6F96"/>
<stop offset="1" stop-color="#9A6C94"/>
</radialGradient>
<radialGradient id="paint3_radial_938_25624" cx="0" cy="0" r="1" gradientUnits="userSpaceOnUse" gradientTransform="translate(6.99044 2.2672) scale(2.5991 3.60189)">
<stop offset="0.0005" stop-color="#FFD1DC"/>
<stop offset="0.103" stop-color="#E3B5C8"/>
<stop offset="0.2292" stop-color="#C99BB5"/>
<stop offset="0.3677" stop-color="#B486A6"/>
<stop offset="0.5227" stop-color="#A5779C"/>
<stop offset="0.7076" stop-color="#9D6F96"/>
<stop offset="1" stop-color="#9A6C94"/>
</radialGradient>
<radialGradient id="paint4_radial_938_25624" cx="0" cy="0" r="1" gradientUnits="userSpaceOnUse" gradientTransform="translate(13.9769 31.7671) scale(2.5991 3.60189)">
<stop offset="0.0005" stop-color="#FFD1DC"/>
<stop offset="0.103" stop-color="#E3B5C8"/>
<stop offset="0.2292" stop-color="#C99BB5"/>
<stop offset="0.3677" stop-color="#B486A6"/>
<stop offset="0.5227" stop-color="#A5779C"/>
<stop offset="0.7076" stop-color="#9D6F96"/>
<stop offset="1" stop-color="#9A6C94"/>
</radialGradient>
<radialGradient id="paint5_radial_938_25624" cx="0" cy="0" r="1" gradientUnits="userSpaceOnUse" gradientTransform="translate(34.3456 16.9845) scale(2.5991 3.60189)">
<stop offset="0.0005" stop-color="#FFD1DC"/>
<stop offset="0.103" stop-color="#E3B5C8"/>
<stop offset="0.2292" stop-color="#C99BB5"/>
<stop offset="0.3677" stop-color="#B486A6"/>
<stop offset="0.5227" stop-color="#A5779C"/>
<stop offset="0.7076" stop-color="#9D6F96"/>
<stop offset="1" stop-color="#9A6C94"/>
</radialGradient>
<radialGradient id="paint6_radial_938_25624" cx="0" cy="0" r="1" gradientUnits="userSpaceOnUse" gradientTransform="translate(19.0053 17.9716) scale(2.5991 3.60189)">
<stop offset="0.0005" stop-color="#FFD1DC"/>
<stop offset="0.103" stop-color="#E3B5C8"/>
<stop offset="0.2292" stop-color="#C99BB5"/>
<stop offset="0.3677" stop-color="#B486A6"/>
<stop offset="0.5227" stop-color="#A5779C"/>
<stop offset="0.7076" stop-color="#9D6F96"/>
<stop offset="1" stop-color="#9A6C94"/>
</radialGradient>
<radialGradient id="paint7_radial_938_25624" cx="0" cy="0" r="1" gradientUnits="userSpaceOnUse" gradientTransform="translate(19.0026 43.7085) scale(2.5991 3.60189)">
<stop offset="0.0005" stop-color="#FFD1DC"/>
<stop offset="0.103" stop-color="#E3B5C8"/>
<stop offset="0.2292" stop-color="#C99BB5"/>
<stop offset="0.3677" stop-color="#B486A6"/>
<stop offset="0.5227" stop-color="#A5779C"/>
<stop offset="0.7076" stop-color="#9D6F96"/>
<stop offset="1" stop-color="#9A6C94"/>
</radialGradient>
</defs>
</svg>
