<svg width="68" height="168" viewBox="0 0 68 168" fill="none" xmlns="http://www.w3.org/2000/svg">
<g id="R-ICO-012471">
<path id="BG" d="M63.5588 108.057C55.0142 141.207 31.7459 155.385 16.4264 163.714L13.364 165.513C9.48493 167.626 5.92913 166.597 3.15323 163.231C2.21863 162.098 1.33623 160.053 1.20753 158.806C0.953827 156.349 1.89693 152.355 4.47003 150.954L6.65803 149.644C26.1516 139.047 55.6094 123.032 49.0108 59.1279C45.8993 28.9959 48.8701 6.94335 49.3378 5.21555C50.3719 1.39555 54.9852 -0.814252 59.6411 0.280048C64.2969 1.37375 67.2284 5.35625 66.2007 9.17875C66.0921 9.58045 63.3336 30.8118 66.2193 58.7587C67.2929 69.1561 67.4658 78.4515 66.9193 86.7913C66.9193 86.7913 65.9784 98.6696 63.5588 108.057Z" fill="url(#paint0_radial_938_24567)"/>
<g id="HOLE">
<path id="Vector" d="M9.38983 166.839C14.0201 166.567 17.5484 162.51 17.2706 157.777C16.9928 153.045 13.014 149.428 8.38378 149.7C3.75354 149.972 0.225213 154.029 0.503026 158.762C0.78084 163.494 4.7596 167.111 9.38983 166.839Z" fill="#FF8C7A" stroke="#FF8C7A" stroke-width="0.25" stroke-miterlimit="10"/>
<path id="Vector_2" d="M8.48132 151.343C12.2222 151.123 15.4367 154.045 15.6612 157.869C15.8857 161.692 13.0351 164.97 9.29422 165.19C5.55332 165.409 2.33882 162.488 2.11432 158.664C1.88992 154.84 4.74052 151.563 8.48132 151.343Z" fill="url(#paint1_radial_938_24567)"/>
</g>
<g id="Mask group">
<mask id="mask0_938_24567" style="mask-type:alpha" maskUnits="userSpaceOnUse" x="14" y="116" width="35" height="35">
<path id="MASK" d="M14.9917 149.124C15.0525 149.473 15.2246 149.817 15.5124 150.119C16.3453 150.992 17.8311 151.179 18.8297 150.537L19.6548 150.009C26.1185 145.886 39.5687 137.308 48.5731 118.897C49.0501 117.916 48.4608 116.748 47.2513 116.287C46.0434 115.827 44.6732 116.25 44.1931 117.232C35.6365 134.732 22.8139 142.909 16.6515 146.84L15.814 147.375C15.1607 147.796 14.8768 148.466 14.9917 149.124Z" fill="url(#paint2_linear_938_24567)"/>
</mask>
<g mask="url(#mask0_938_24567)">
<path id="SHINE" d="M14.9917 149.124C15.0525 149.473 15.2246 149.817 15.5124 150.119C16.3453 150.992 17.8311 151.179 18.8297 150.537L19.6548 150.009C26.1185 145.886 39.5687 137.308 48.5731 118.897C49.0501 117.916 48.4608 116.748 47.2513 116.287C46.0434 115.827 44.6732 116.25 44.1931 117.232C35.6365 134.732 22.8139 142.909 16.6515 146.84L15.814 147.375C15.1607 147.796 14.8768 148.466 14.9917 149.124Z" fill="url(#paint3_radial_938_24567)"/>
</g>
</g>
</g>
<defs>
<radialGradient id="paint0_radial_938_24567" cx="0" cy="0" r="1" gradientTransform="matrix(-10.4453 -101.114 -120.944 2.59609 46.626 62.9084)" gradientUnits="userSpaceOnUse">
<stop stop-color="#FF8C7A"/>
<stop offset="0.2539" stop-color="#FC8978"/>
<stop offset="0.4251" stop-color="#F38072"/>
<stop offset="0.5718" stop-color="#E47167"/>
<stop offset="0.7049" stop-color="#CF5C57"/>
<stop offset="0.8286" stop-color="#B34043"/>
<stop offset="0.9439" stop-color="#911E2B"/>
<stop offset="1" stop-color="#7E0B1D"/>
</radialGradient>
<radialGradient id="paint1_radial_938_24567" cx="0" cy="0" r="1" gradientTransform="matrix(-1.04426 -17.8011 -17.4142 1.02312 12.3552 156.086)" gradientUnits="userSpaceOnUse">
<stop stop-color="#400611"/>
<stop offset="1" stop-color="#E37C6D"/>
</radialGradient>
<linearGradient id="paint2_linear_938_24567" x1="15.6278" y1="150.187" x2="46.152" y2="116.101" gradientUnits="userSpaceOnUse">
<stop stop-opacity="0"/>
<stop offset="0.15" stop-color="white"/>
<stop offset="0.85" stop-color="white"/>
<stop offset="1" stop-opacity="0"/>
</linearGradient>
<radialGradient id="paint3_radial_938_24567" cx="0" cy="0" r="1" gradientUnits="userSpaceOnUse" gradientTransform="translate(-9.36519 94.8682) scale(62.8017)">
<stop offset="0.9255" stop-color="#FFCEC9" stop-opacity="0"/>
<stop offset="0.9562" stop-color="#FFCEC9"/>
<stop offset="0.9821" stop-color="#FFCEC9" stop-opacity="0"/>
</radialGradient>
</defs>
</svg>
