<svg width="149" height="53" viewBox="0 0 149 53" fill="none" xmlns="http://www.w3.org/2000/svg">
<g id="R-ICO-013154">
<g id="Pathogen 01">
<mask id="path-1-inside-1_938_25235" fill="white">
<path d="M51.5122 51.3122C38.5922 49.8622 24.4722 47.1622 13.1522 42.1822C2.02217 37.2822 -3.02783 24.2822 1.87217 13.1522C6.77217 2.02217 19.7722 -3.02783 30.9022 1.87217C40.0322 5.89217 58.0522 8.57217 77.9122 8.86217C100.342 9.19217 114.262 6.40217 117.172 5.08217C128.202 -0.0278282 141.292 4.77217 146.412 15.8022C151.522 26.8422 146.722 39.9322 135.692 45.0422C119.282 52.6522 89.4822 53.0722 77.4422 52.9022C70.7322 52.8022 61.4822 52.4321 51.5122 51.3122Z"/>
</mask>
<path d="M51.5122 51.3122C38.5922 49.8622 24.4722 47.1622 13.1522 42.1822C2.02217 37.2822 -3.02783 24.2822 1.87217 13.1522C6.77217 2.02217 19.7722 -3.02783 30.9022 1.87217C40.0322 5.89217 58.0522 8.57217 77.9122 8.86217C100.342 9.19217 114.262 6.40217 117.172 5.08217C128.202 -0.0278282 141.292 4.77217 146.412 15.8022C151.522 26.8422 146.722 39.9322 135.692 45.0422C119.282 52.6522 89.4822 53.0722 77.4422 52.9022C70.7322 52.8022 61.4822 52.4321 51.5122 51.3122Z" fill="url(#paint0_radial_938_25235)" stroke="#964A7B" stroke-width="4" mask="url(#path-1-inside-1_938_25235)"/>
</g>
</g>
<defs>
<radialGradient id="paint0_radial_938_25235" cx="0" cy="0" r="1" gradientUnits="userSpaceOnUse" gradientTransform="translate(78.7344 -165.429) scale(225.805 225.805)">
<stop offset="0.7273" stop-color="#E97BE4"/>
<stop offset="0.8064" stop-color="#E3B8DE"/>
<stop offset="0.8206" stop-color="#E3A7D2"/>
<stop offset="0.8399" stop-color="#E298C7"/>
<stop offset="0.8627" stop-color="#E290C1"/>
<stop offset="0.8974" stop-color="#E28DBF"/>
<stop offset="1" stop-color="#E97BE4"/>
</radialGradient>
</defs>
</svg>
