<svg width="103" height="23" viewBox="0 0 103 23" fill="none" xmlns="http://www.w3.org/2000/svg">
<g id="R-ICO-012389">
<g id="ACYLGHRELIN">
<path d="M0.803711 11.5C0.803711 5.97715 5.28086 1.5 10.8037 1.5H91.8037C97.3266 1.5 101.804 5.97715 101.804 11.5C101.804 17.0228 97.3266 21.5 91.8037 21.5H10.8037C5.28086 21.5 0.803711 17.0228 0.803711 11.5Z" fill="url(#paint0_linear_938_23166)"/>
<path d="M67.0119 2.99266C48.2758 2.87443 29.5398 2.52283 10.8037 1.64001C10.8037 1.54664 10.8037 1.45328 10.8037 1.35991C29.5398 0.477089 48.2758 0.125486 67.0119 0.00726104C75.2756 -0.0260615 83.5398 0.0612165 91.8037 0.148713C93.0561 0.159841 94.3057 0.377917 95.4857 0.796392C99.9477 2.31185 103.095 6.86296 102.947 11.5C102.986 17.4505 97.5316 22.5696 91.8046 22.2659C91.8043 22.2659 91.804 22.2658 91.8037 22.2658C82.4359 22.0221 73.0672 21.8466 63.6996 21.953C54.3316 22.056 44.9628 22.4645 35.5947 22.6648C27.3311 22.8085 19.0675 22.7563 10.8037 22.6358C9.57494 22.6203 8.35122 22.4006 7.19808 21.9843C2.83718 20.4683 -0.188282 15.9918 0.00892532 11.5C0.0362918 5.72587 5.41213 0.918951 10.8037 1.35991C10.8037 1.45328 10.8037 1.54664 10.8037 1.64001C5.54231 1.82187 1.31196 6.62064 1.59835 11.5C1.67591 15.3355 4.36898 18.8349 7.90313 19.9337C8.83997 20.2369 9.82092 20.3806 10.8037 20.3643C19.0673 20.2438 27.331 20.1916 35.5947 20.3353C44.9628 20.5356 54.3316 20.9428 63.6996 21.0457C73.0674 21.1521 82.4358 20.978 91.8037 20.7342C91.804 20.7342 91.8042 20.7342 91.8045 20.7342C96.7301 20.6885 100.881 16.2022 100.66 11.5C100.632 7.81043 98.0619 4.38612 94.6294 3.28614C93.7191 2.98486 92.7634 2.83924 91.8037 2.85121C83.5399 2.93876 75.2756 3.02622 67.0119 2.99266Z" fill="#A32702"/>
<text id="ACYLGHRELIN_2" fill="white" xml:space="preserve" style="white-space: pre" font-family="Arial" font-size="12" font-weight="bold" letter-spacing="0em"><tspan x="7.94434" y="15.6602">ACYLGHRELIN</tspan></text>
</g>
</g>
<defs>
<linearGradient id="paint0_linear_938_23166" x1="51.3037" y1="1.5" x2="51.3037" y2="21.5" gradientUnits="userSpaceOnUse">
<stop stop-color="#A32702"/>
<stop offset="1" stop-color="#DBA628"/>
</linearGradient>
</defs>
</svg>
