<svg width="64" height="23" viewBox="0 0 64 23" fill="none" xmlns="http://www.w3.org/2000/svg">
<g id="R-ICO-014060">
<g id="SNAP25">
<path d="M1.01953 11.5C1.01953 5.97715 5.49668 1.5 11.0195 1.5H52.0195C57.5424 1.5 62.0195 5.97715 62.0195 11.5C62.0195 17.0228 57.5424 21.5 52.0195 21.5H11.0195C5.49668 21.5 1.01953 17.0228 1.01953 11.5Z" fill="url(#paint0_linear_938_23844)"/>
<path d="M47.2279 2.99266C35.1584 2.87443 23.089 2.52283 11.0195 1.64001C11.0195 1.54664 11.0195 1.45328 11.0195 1.35991C23.089 0.477089 35.1584 0.125486 47.2279 0.00726104C48.8251 -0.00273693 50.4223 -0.00187826 52.0195 0.00658572C57.18 -0.0532221 61.962 3.85956 63.0153 8.81501C63.2188 9.69605 63.3125 10.6008 63.2975 11.5C63.3427 17.5328 57.7463 22.6654 52.0201 22.2659C52.0199 22.2659 52.0197 22.2658 52.0195 22.2658C45.985 22.0221 39.9498 21.8466 33.9154 21.953C27.8806 22.056 21.8454 22.4645 15.8107 22.6648C14.2136 22.7079 12.6166 22.7334 11.0195 22.7447C5.96735 22.8651 1.23237 18.9987 0.249615 14.1306C0.059918 13.2652 -0.0213817 12.3788 0.0041858 11.5C0.0246751 5.59739 5.62194 0.744758 11.0195 1.35991C11.0195 1.45328 11.0195 1.54664 11.0195 1.64001C5.76415 1.99601 1.75509 6.74928 2.03475 11.5C2.06002 12.22 2.16798 12.9314 2.3564 13.6176C3.37088 17.4766 7.11032 20.2854 11.0195 20.2554C12.6166 20.2667 14.2136 20.2922 15.8107 20.3353C21.8454 20.5356 27.8806 20.9428 33.9154 21.0457C39.9499 21.1521 45.9849 20.978 52.0195 20.7342C52.0197 20.7342 52.0199 20.7342 52.02 20.7342C56.9467 20.593 60.9554 16.1201 60.7417 11.5C60.7269 10.8007 60.6315 10.108 60.4571 9.43776C59.5136 5.66579 55.8207 2.90284 52.0195 2.99345C50.4223 3.0019 48.8251 3.00273 47.2279 2.99266Z" fill="#5300D1"/>
<text id="SNAP25_2" fill="white" xml:space="preserve" style="white-space: pre" font-family="Arial" font-size="12" font-weight="bold" letter-spacing="0em"><tspan x="8.16406" y="15.6602">SNAP25</tspan></text>
</g>
</g>
<defs>
<linearGradient id="paint0_linear_938_23844" x1="31.5195" y1="1.5" x2="31.5195" y2="21.5" gradientUnits="userSpaceOnUse">
<stop stop-color="#5300D1"/>
<stop offset="1" stop-color="#DD1643"/>
</linearGradient>
</defs>
</svg>
