<svg width="74" height="74" viewBox="0 0 74 74" fill="none" xmlns="http://www.w3.org/2000/svg">
<g id="R-ICO-014861">
<g id="CONTENT" opacity="0.8">
<g id="R-ICO-013121" opacity="0.79">
<path id="Vector" d="M35.692 61.4754C49.6295 61.4754 60.928 50.1769 60.928 36.2394C60.928 22.302 49.6295 11.0034 35.692 11.0034C21.7546 11.0034 10.4561 22.302 10.4561 36.2394C10.4561 50.1769 21.7546 61.4754 35.692 61.4754Z" fill="url(#paint0_radial_938_25826)"/>
<path id="Vector_2" d="M30.4632 61.8754C16.3271 58.9921 7.17287 45.1467 10.0562 31.0106C12.9395 16.8745 26.7849 7.72023 40.9211 10.6035C55.0572 13.4868 64.2114 27.3322 61.3281 41.4684C58.4447 55.6045 44.5993 64.7587 30.4632 61.8754ZM40.5501 12.4216C27.4139 9.74233 14.5536 18.2452 11.8743 31.3813C9.19488 44.5175 17.6979 57.3778 30.834 60.0572C43.9702 62.7365 56.8305 54.2336 59.5098 41.0974C62.1892 27.9613 53.6863 15.101 40.5501 12.4216Z" fill="#5656A5"/>
</g>
<g id="Genetic data">
<path id="Vector_3" d="M31.0133 17.6706C31.126 17.1183 31.618 16.7056 32.2026 16.7125C32.8646 16.7208 33.3952 17.2641 33.3872 17.9262C33.3538 20.7542 34.3662 25.8552 41.5211 28.2364C45.8449 29.6752 46.6923 32.3754 46.8126 33.8564C47.0303 36.5333 45.28 39.3976 42.5588 40.8265C41.6013 41.3292 41.5767 41.7846 41.5678 41.9374C41.513 42.958 43.0407 45.052 46.5789 47.4277C48.128 48.4695 47.6144 49.6619 47.4963 49.8912C46.4307 51.9534 40.7163 51.6412 37.5308 50.4321C33.8649 49.0414 32.235 46.3585 33.0664 43.1004C33.2293 42.458 33.8817 42.07 34.5238 42.2328C35.1655 42.3956 35.5498 43.0444 35.3915 43.6894C34.9918 45.2659 35.446 46.4573 36.8331 47.4031C39.0384 48.9078 42.6702 49.1394 44.489 48.8985C41.8302 47.0041 39.0339 44.3829 39.173 41.8083C39.2192 40.9118 39.6531 39.6442 41.4439 38.7028C43.3093 37.7232 44.5615 35.766 44.4221 34.0508C44.2622 32.0789 42.3442 31.0383 40.7636 30.512C31.842 27.5426 30.9559 20.7009 30.9891 17.8975C30.9902 17.8205 30.9984 17.744 31.0133 17.6706Z" fill="url(#paint1_linear_938_25826)"/>
<path id="Vector_4" d="M15.2868 35.4591C15.5602 35.2929 15.8512 35.1279 16.1599 34.9644C16.727 34.664 17.4273 34.8756 17.7235 35.4372C18.021 35.998 17.8114 36.687 17.2348 36.998C15.0329 38.1633 14.4753 39.0532 14.4942 39.3944C14.5077 39.6468 14.9274 40.0579 15.8352 40.4068C18.9904 41.6197 25.5278 41.2558 29.0109 37.8922C35.5724 31.5681 42.0983 35.4492 47.8576 38.8755C48.6475 39.3451 49.43 39.8112 50.2058 40.246C52.0775 41.2955 53.5947 41.5231 54.2785 40.8482C55.1269 40.0058 55.1467 37.5438 53.5131 34.639C52.424 32.7029 50.9606 31.91 49.6696 31.2101C48.5064 30.5793 47.4069 29.9834 47.0393 28.7013C46.7306 27.6256 47.0438 26.3396 48.0545 24.5322C48.3646 23.9749 49.0717 23.7681 49.6314 24.0744C50.1899 24.3802 50.3893 25.0808 50.0766 25.6397C49.214 27.1824 49.1992 27.8121 49.2675 28.0496C49.372 28.4123 50.0298 28.7694 50.7924 29.1824C52.1994 29.9449 54.1254 30.9894 55.5372 33.4985C57.5546 37.0842 57.7032 40.691 55.9074 42.4736C55.0361 43.3379 52.9847 44.4611 49.0548 42.2577C48.2625 41.8133 47.4625 41.3375 46.6557 40.8576C41.1191 37.5645 35.8947 34.4501 30.6154 39.5415C26.3096 43.6978 18.6373 43.9639 14.983 42.5589C12.6363 41.657 12.2199 40.2785 12.1806 39.5367C12.1053 38.1274 13.1494 36.7582 15.2868 35.4591Z" fill="url(#paint2_linear_938_25826)"/>
</g>
</g>
<g id="TOP" opacity="0.7">
<path id="BG" opacity="0.5" d="M36.9254 73.8508C57.3187 73.8508 73.8508 57.3187 73.8508 36.9254C73.8508 16.5321 57.3187 0 36.9254 0C16.5321 0 0 16.5321 0 36.9254C0 57.3187 16.5321 73.8508 36.9254 73.8508Z" fill="url(#paint3_linear_938_25826)"/>
<path id="SHADOW" d="M36.9254 73.8508C57.3187 73.8508 73.8508 57.3187 73.8508 36.9254C73.8508 16.5321 57.3187 0 36.9254 0C16.5321 0 0 16.5321 0 36.9254C0 57.3187 16.5321 73.8508 36.9254 73.8508Z" fill="url(#paint4_radial_938_25826)"/>
<path id="LIGHT" opacity="0.7" d="M36.9254 73.8508C57.3187 73.8508 73.8508 57.3187 73.8508 36.9254C73.8508 16.5321 57.3187 0 36.9254 0C16.5321 0 0 16.5321 0 36.9254C0 57.3187 16.5321 73.8508 36.9254 73.8508Z" fill="url(#paint5_radial_938_25826)"/>
</g>
</g>
<defs>
<radialGradient id="paint0_radial_938_25826" cx="0" cy="0" r="1" gradientUnits="userSpaceOnUse" gradientTransform="translate(31.299 24.6459) rotate(11.5313) scale(33.1674 33.1674)">
<stop stop-color="#AFBAF7"/>
<stop offset="0.3111" stop-color="#6D96CE"/>
<stop offset="0.8032" stop-color="#285FCC"/>
</radialGradient>
<linearGradient id="paint1_linear_938_25826" x1="42.3153" y1="18.7333" x2="35.8867" y2="50.2424" gradientUnits="userSpaceOnUse">
<stop stop-color="#E36023"/>
<stop offset="0.0795" stop-color="#D7591F"/>
<stop offset="0.3452" stop-color="#B34613"/>
<stop offset="0.595" stop-color="#9A380A"/>
<stop offset="0.8204" stop-color="#8A2F05"/>
<stop offset="1" stop-color="#852C03"/>
</linearGradient>
<linearGradient id="paint2_linear_938_25826" x1="52.6111" y1="28.6797" x2="18.0031" y2="49.7148" gradientUnits="userSpaceOnUse">
<stop stop-color="#8776E3"/>
<stop offset="0.9995" stop-color="#170385"/>
</linearGradient>
<linearGradient id="paint3_linear_938_25826" x1="44.2159" y1="1.08206" x2="29.6602" y2="72.4257" gradientUnits="userSpaceOnUse">
<stop stop-color="#998ABD"/>
<stop offset="0.5" stop-color="#70658A"/>
<stop offset="1" stop-color="#372E4A"/>
</linearGradient>
<radialGradient id="paint4_radial_938_25826" cx="0" cy="0" r="1" gradientUnits="userSpaceOnUse" gradientTransform="translate(28.9383 22.8059) rotate(11.5313) scale(52.1749 52.175)">
<stop offset="0.5669" stop-color="#CACACC" stop-opacity="0"/>
<stop offset="0.6219" stop-color="#BAB8BC" stop-opacity="0.1271"/>
<stop offset="0.7331" stop-color="#908791" stop-opacity="0.3838"/>
<stop offset="0.8886" stop-color="#4D3B4C" stop-opacity="0.7429"/>
<stop offset="1" stop-color="#1A0018"/>
</radialGradient>
<radialGradient id="paint5_radial_938_25826" cx="0" cy="0" r="1" gradientUnits="userSpaceOnUse" gradientTransform="translate(28.9383 22.8059) rotate(11.5313) scale(52.1749 52.175)">
<stop stop-color="#FDFDFF"/>
<stop offset="1" stop-color="#CACACC" stop-opacity="0"/>
</radialGradient>
</defs>
</svg>
