<svg width="17" height="89" viewBox="0 0 17 89" fill="none" xmlns="http://www.w3.org/2000/svg">
<g id="R-ICO-014810">
<path id="DNA damaged base 2" d="M9.7355 0.412788L9.7148 0.389188C9.2605 -0.129812 8.4531 -0.129712 7.999 0.389388L6.7379 1.83089C6.1268 2.52929 5.6044 3.83669 5.3619 5.13999L0 39.3531L5.7638 84.5421C5.7638 86.6081 6.7753 88.2829 8.0231 88.2829H13.9835C15.2312 88.2829 16.2428 86.608 16.2428 84.5419L10.4803 39.3533L16.2434 4.91009C16.2434 3.68039 15.8785 2.52929 15.2672 1.83089L14.0218 0.407988C13.5676 -0.111012 12.7601 -0.110913 12.306 0.408188L12.3024 0.412388C11.5966 1.21929 10.4415 1.21939 9.7355 0.412788Z" fill="#8C4F20"/>
</g>
</svg>
