<svg width="94" height="24" viewBox="0 0 94 24" fill="none" xmlns="http://www.w3.org/2000/svg">
<g id="R-ICO-014813">
<g id="BASE/CHEMICAL_OCT">
<g id="Rectangle 2">
<mask id="path-1-outside-1_938_25046" maskUnits="userSpaceOnUse" x="8.37939" y="0" width="78" height="24" fill="black">
<rect fill="white" x="8.37939" width="78" height="24"/>
<path d="M8.37939 2H85.6203V22H8.37939V2Z"/>
</mask>
<path d="M8.37939 2H85.6203V22H8.37939V2Z" fill="url(#paint0_linear_938_25046)"/>
<path d="M8.37939 2V4H85.6203V2V0H8.37939V2ZM85.6203 22V20H8.37939V22V24H85.6203V22Z" fill="#6AD3C2" mask="url(#path-1-outside-1_938_25046)"/>
</g>
<g id="LEFT CORNER">
<mask id="mask0_938_25046" style="mask-type:luminance" maskUnits="userSpaceOnUse" x="0" y="0" width="10" height="24">
<rect id="MASK" width="10" height="24" transform="matrix(-1 8.74228e-08 8.74228e-08 1 10 0)" fill="white"/>
</mask>
<g mask="url(#mask0_938_25046)">
<g id="CORNER">
<mask id="path-4-outside-2_938_25046" maskUnits="userSpaceOnUse" x="-1.74846e-07" y="-9.61651e-07" width="13" height="24" fill="black">
<rect fill="white" x="-1.74846e-07" y="-9.61651e-07" width="13" height="24"/>
<path d="M8 22L2 16L2 8L8 2L11 2L11 22L8 22Z"/>
</mask>
<path d="M8 22L2 16L2 8L8 2L11 2L11 22L8 22Z" fill="url(#paint1_linear_938_25046)"/>
<path d="M8 22L2 16L2 8L8 2L11 2L11 22L8 22Z" stroke="#6AD3C2" stroke-width="4" stroke-miterlimit="3.99933" stroke-linejoin="round" mask="url(#path-4-outside-2_938_25046)"/>
</g>
</g>
</g>
<g id="RIGHT CORNER">
<mask id="mask1_938_25046" style="mask-type:luminance" maskUnits="userSpaceOnUse" x="84" y="0" width="10" height="24">
<rect id="MASK_2" x="84.1558" width="9.84445" height="24" fill="white"/>
</mask>
<g mask="url(#mask1_938_25046)">
<g id="CORNER_2">
<mask id="path-6-outside-3_938_25046" maskUnits="userSpaceOnUse" x="81" y="-7.76718e-07" width="13" height="24" fill="black">
<rect fill="white" x="81" y="-7.76718e-07" width="13" height="24"/>
<path d="M86 22L92 16L92 8L86 2L83 2L83 22L86 22Z"/>
</mask>
<path d="M86 22L92 16L92 8L86 2L83 2L83 22L86 22Z" fill="url(#paint2_linear_938_25046)"/>
<path d="M86 22L92 16L92 8L86 2L83 2L83 22L86 22Z" stroke="#6AD3C2" stroke-width="4" stroke-miterlimit="3.99933" stroke-linejoin="round" mask="url(#path-6-outside-3_938_25046)"/>
</g>
</g>
</g>
<text id="Ch" fill="white" xml:space="preserve" style="white-space: pre" font-family="Arial" font-size="12" font-weight="bold" letter-spacing="0em"><tspan x="8.14243" y="16.1602">DOPAMINIUM</tspan></text>
</g>
</g>
<defs>
<linearGradient id="paint0_linear_938_25046" x1="34.1264" y1="2" x2="34.1264" y2="22" gradientUnits="userSpaceOnUse">
<stop stop-color="#6AD3C2"/>
<stop offset="1" stop-color="#DCE04F"/>
</linearGradient>
<linearGradient id="paint1_linear_938_25046" x1="5" y1="2" x2="5" y2="22" gradientUnits="userSpaceOnUse">
<stop stop-color="#6AD3C2"/>
<stop offset="1" stop-color="#DCE04F"/>
</linearGradient>
<linearGradient id="paint2_linear_938_25046" x1="89" y1="2" x2="89" y2="22" gradientUnits="userSpaceOnUse">
<stop stop-color="#6AD3C2"/>
<stop offset="1" stop-color="#DCE04F"/>
</linearGradient>
</defs>
</svg>
