<svg width="129" height="35" viewBox="0 0 129 35" fill="none" xmlns="http://www.w3.org/2000/svg">
<g id="R-ICO-013241">
<g id="LEFT">
<g id="BOTTOM">
<g id="Vector">
<mask id="path-1-outside-1_938_24352" maskUnits="userSpaceOnUse" x="0" y="23.0001" width="12" height="12" fill="black">
<rect fill="white" y="23.0001" width="12" height="12"/>
<path d="M2.6 24.0001C1.7 24.0001 1 24.7001 1 25.6001V31.7001C1 32.6001 1.7 33.3001 2.6 33.3001H8.7C9.6 33.3001 10.3 32.6001 10.3 31.7001V25.6001C10.3 24.7001 9.6 24.0001 8.7 24.0001H2.6Z"/>
</mask>
<path d="M2.6 24.0001C1.7 24.0001 1 24.7001 1 25.6001V31.7001C1 32.6001 1.7 33.3001 2.6 33.3001H8.7C9.6 33.3001 10.3 32.6001 10.3 31.7001V25.6001C10.3 24.7001 9.6 24.0001 8.7 24.0001H2.6Z" fill="white"/>
<path d="M2.6 24.0001C1.7 24.0001 1 24.7001 1 25.6001V31.7001C1 32.6001 1.7 33.3001 2.6 33.3001H8.7C9.6 33.3001 10.3 32.6001 10.3 31.7001V25.6001C10.3 24.7001 9.6 24.0001 8.7 24.0001H2.6Z" stroke="#0B6770" stroke-width="2" mask="url(#path-1-outside-1_938_24352)"/>
</g>
<text id="N" fill="black" xml:space="preserve" style="white-space: pre" font-family="Arial" font-size="5.8329" font-weight="bold" letter-spacing="0em"><tspan x="3.31055" y="30.2507">N</tspan></text>
</g>
<g id="CENTRE">
<g id="Vector_2">
<mask id="path-3-outside-2_938_24352" maskUnits="userSpaceOnUse" x="0" y="11.7408" width="12" height="12" fill="black">
<rect fill="white" y="11.7408" width="12" height="12"/>
<path d="M2.6 12.7408C1.7 12.7408 1 13.4408 1 14.3408V20.4408C1 21.3408 1.7 22.0408 2.6 22.0408H8.7C9.6 22.0408 10.3 21.3408 10.3 20.4408V14.3408C10.3 13.4408 9.6 12.7408 8.7 12.7408H2.6Z"/>
</mask>
<path d="M2.6 12.7408C1.7 12.7408 1 13.4408 1 14.3408V20.4408C1 21.3408 1.7 22.0408 2.6 22.0408H8.7C9.6 22.0408 10.3 21.3408 10.3 20.4408V14.3408C10.3 13.4408 9.6 12.7408 8.7 12.7408H2.6Z" fill="white"/>
<path d="M2.6 12.7408C1.7 12.7408 1 13.4408 1 14.3408V20.4408C1 21.3408 1.7 22.0408 2.6 22.0408H8.7C9.6 22.0408 10.3 21.3408 10.3 20.4408V14.3408C10.3 13.4408 9.6 12.7408 8.7 12.7408H2.6Z" stroke="#0B6770" stroke-width="2" mask="url(#path-3-outside-2_938_24352)"/>
</g>
<text id="N_2" fill="black" xml:space="preserve" style="white-space: pre" font-family="Arial" font-size="5.8329" font-weight="bold" letter-spacing="0em"><tspan x="3.31055" y="18.7468">N</tspan></text>
</g>
<g id="TOP">
<g id="Vector_3">
<mask id="path-5-outside-3_938_24352" maskUnits="userSpaceOnUse" x="0" y="0.00012207" width="12" height="12" fill="black">
<rect fill="white" y="0.00012207" width="12" height="12"/>
<path d="M2.6 1.00012C1.7 1.00012 1 1.70012 1 2.60012V8.70012C1 9.60012 1.7 10.3001 2.6 10.3001H8.7C9.6 10.3001 10.3 9.60012 10.3 8.70012V2.60012C10.3 1.70012 9.6 1.00012 8.7 1.00012H2.6Z"/>
</mask>
<path d="M2.6 1.00012C1.7 1.00012 1 1.70012 1 2.60012V8.70012C1 9.60012 1.7 10.3001 2.6 10.3001H8.7C9.6 10.3001 10.3 9.60012 10.3 8.70012V2.60012C10.3 1.70012 9.6 1.00012 8.7 1.00012H2.6Z" fill="white"/>
<path d="M2.6 1.00012C1.7 1.00012 1 1.70012 1 2.60012V8.70012C1 9.60012 1.7 10.3001 2.6 10.3001H8.7C9.6 10.3001 10.3 9.60012 10.3 8.70012V2.60012C10.3 1.70012 9.6 1.00012 8.7 1.00012H2.6Z" stroke="#B89310" stroke-width="2" mask="url(#path-5-outside-3_938_24352)"/>
</g>
<text id="N_3" fill="black" xml:space="preserve" style="white-space: pre" font-family="Arial" font-size="5.8329" font-weight="bold" letter-spacing="0em"><tspan x="3.31055" y="7.24285">N</tspan></text>
</g>
</g>
<g id="R-ICO-013884">
<path id="Vector_4" d="M45.7012 5.15015C36.4012 5.15015 36.2012 29.1501 28.1012 29.1501H25.2012C33.4012 29.1501 33.5012 5.15015 42.8012 5.15015H45.7012Z" fill="#B89310"/>
<path id="Vector_5" d="M80.8614 5.15015C71.5614 5.15015 71.3945 29.1501 63.2945 29.1501H60.3945C68.5945 29.1501 68.6883 5.15015 77.9883 5.15015H80.8614Z" fill="#B89310"/>
<path id="Vector_6" d="M116.048 5.15015C106.748 5.15015 106.655 29.1501 98.4547 29.1501H95.5547C103.755 29.1501 103.848 5.15015 113.148 5.15015H116.048Z" fill="#B89310"/>
<g id="Group">
<path id="Vector_7" d="M11.1006 29.1501C19.0006 28.4501 19.4006 5.25015 28.6006 5.15015H31.5006C22.2006 5.15015 22.0006 29.1501 13.8006 29.1501H11.1006Z" fill="#0B6770"/>
<path id="Vector_8" d="M49.0944 29.1501C39.7944 29.1501 39.7007 5.15015 31.5006 5.15015H28.6006C36.8006 5.15015 36.7944 29.1501 46.1944 29.1501H49.0944Z" fill="#0B6770"/>
<path id="Vector_9" d="M66.6881 5.15015C57.3881 5.15015 57.1943 29.1501 49.0943 29.1501H46.1943C54.3943 29.1501 54.488 5.15015 63.7881 5.15015H66.6881Z" fill="#0B6770"/>
<path id="Vector_10" d="M84.255 29.1501C74.955 29.1501 74.8881 5.15015 66.6881 5.15015H63.7881C71.9881 5.15015 71.955 29.1501 81.355 29.1501H84.255Z" fill="#0B6770"/>
<path id="Vector_11" d="M101.849 5.15015C92.5493 5.15015 92.3556 29.1501 84.2555 29.1501H81.3555C89.5555 29.1501 89.6493 5.15015 98.9493 5.15015H101.849Z" fill="#0B6770"/>
<path id="Vector_12" d="M117.401 28.3501C110.201 24.8501 109.349 5.15015 101.849 5.15015H98.9492C107.149 5.15015 107.301 29.1501 116.701 29.1501H117.301V28.3501H117.401Z" fill="#0B6770"/>
<path id="Vector_13" d="M11.001 29.1501H13.401C12.601 29.1501 11.701 29.0501 11.001 28.6501V29.1501Z" fill="#A20E40"/>
</g>
<g id="Group_2">
<path id="Vector_14" d="M11.1008 11.4501C12.8008 7.85015 15.0008 5.15015 18.1008 5.15015H21.0008C16.0008 5.15015 13.2008 12.7501 10.8008 18.5501V12.2501L11.1008 11.4501Z" fill="#0B6770"/>
<path id="Vector_15" d="M38.6006 29.1501C29.3006 29.1501 29.2006 5.15015 21.0006 5.15015H18.1006C26.3006 5.15015 26.3006 29.1501 35.7006 29.1501H38.6006Z" fill="#0B6770"/>
<path id="Vector_16" d="M56.2012 5.15015C46.9012 5.15015 46.7012 29.1501 38.6012 29.1501H35.7012C43.9012 29.1501 43.9949 5.15015 53.295 5.15015H56.2012Z" fill="#0B6770"/>
<path id="Vector_17" d="M73.7887 29.1501C64.4887 29.1501 64.4012 5.15015 56.2012 5.15015H53.2949C61.4949 5.15015 61.4886 29.1501 70.8887 29.1501H73.7887Z" fill="#0B6770"/>
<path id="Vector_18" d="M91.3556 5.15015C82.0556 5.15015 81.8887 29.1501 73.7887 29.1501H70.8887C79.0887 29.1501 79.1556 5.15015 88.4556 5.15015H91.3556Z" fill="#0B6770"/>
<path id="Vector_19" d="M108.949 29.1501C99.6489 29.1501 99.4551 5.15015 91.3551 5.15015H88.4551C96.6551 5.15015 96.6489 29.1501 106.049 29.1501H108.949Z" fill="#0B6770"/>
<path id="Vector_20" d="M117.601 18.5501C115.501 24.0501 112.749 29.1501 108.949 29.1501H106.049C111.549 29.1501 113.601 19.0501 117.501 12.1501V18.5501H117.601Z" fill="#0B6770"/>
</g>
<path id="Vector_21" d="M10.8008 6.95015C15.7008 12.7501 17.5008 29.1501 25.2008 29.1501H28.1008C19.1008 29.1501 18.5008 6.75015 11.1008 5.15015H10.8008V6.95015Z" fill="#B89310"/>
<path id="Vector_22" d="M63.2946 29.1501C53.9946 29.1501 53.9008 5.15015 45.7008 5.15015H42.8008C51.0008 5.15015 50.9945 29.1501 60.3946 29.1501H63.2946Z" fill="#B89310"/>
<path id="Vector_23" d="M98.4552 29.1501C89.1552 29.1501 88.9614 5.15015 80.8614 5.15015H77.9883C86.1883 5.15015 86.1552 29.1501 95.5552 29.1501H98.4552Z" fill="#B89310"/>
<path id="Vector_24" d="M117.4 5.45015C117.2 5.25015 116.548 5.15015 116.048 5.15015H113.148C114.648 5.15015 116.4 5.95015 117.4 7.25015V5.45015Z" fill="#B89310"/>
</g>
<g id="RIGHT">
<g id="BOTTOM_2">
<g id="Vector_25">
<mask id="path-28-outside-4_938_24352" maskUnits="userSpaceOnUse" x="116.849" y="23" width="12" height="12" fill="black">
<rect fill="white" x="116.849" y="23" width="12" height="12"/>
<path d="M119.449 24C118.549 24 117.849 24.7 117.849 25.6V31.7C117.849 32.6 118.549 33.3 119.449 33.3H125.549C126.449 33.3 127.149 32.6 127.149 31.7V25.6C127.149 24.7 126.449 24 125.549 24H119.449Z"/>
</mask>
<path d="M119.449 24C118.549 24 117.849 24.7 117.849 25.6V31.7C117.849 32.6 118.549 33.3 119.449 33.3H125.549C126.449 33.3 127.149 32.6 127.149 31.7V25.6C127.149 24.7 126.449 24 125.549 24H119.449Z" fill="white"/>
<path d="M119.449 24C118.549 24 117.849 24.7 117.849 25.6V31.7C117.849 32.6 118.549 33.3 119.449 33.3H125.549C126.449 33.3 127.149 32.6 127.149 31.7V25.6C127.149 24.7 126.449 24 125.549 24H119.449Z" stroke="#0B6770" stroke-width="2" mask="url(#path-28-outside-4_938_24352)"/>
</g>
<text id="C" fill="black" xml:space="preserve" style="white-space: pre" font-family="Arial" font-size="5.8329" font-weight="bold" letter-spacing="0em"><tspan x="120.293" y="30.2507">C</tspan></text>
</g>
<g id="CENTRE_2">
<g id="Vector_26">
<mask id="path-30-outside-5_938_24352" maskUnits="userSpaceOnUse" x="116.849" y="11.7407" width="12" height="12" fill="black">
<rect fill="white" x="116.849" y="11.7407" width="12" height="12"/>
<path d="M119.449 12.7407C118.549 12.7407 117.849 13.4407 117.849 14.3407V20.4407C117.849 21.3407 118.549 22.0407 119.449 22.0407H125.549C126.449 22.0407 127.149 21.3407 127.149 20.4407V14.3407C127.149 13.4407 126.449 12.7407 125.549 12.7407H119.449Z"/>
</mask>
<path d="M119.449 12.7407C118.549 12.7407 117.849 13.4407 117.849 14.3407V20.4407C117.849 21.3407 118.549 22.0407 119.449 22.0407H125.549C126.449 22.0407 127.149 21.3407 127.149 20.4407V14.3407C127.149 13.4407 126.449 12.7407 125.549 12.7407H119.449Z" fill="white"/>
<path d="M119.449 12.7407C118.549 12.7407 117.849 13.4407 117.849 14.3407V20.4407C117.849 21.3407 118.549 22.0407 119.449 22.0407H125.549C126.449 22.0407 127.149 21.3407 127.149 20.4407V14.3407C127.149 13.4407 126.449 12.7407 125.549 12.7407H119.449Z" stroke="#0B6770" stroke-width="2" mask="url(#path-30-outside-5_938_24352)"/>
</g>
<text id="C_2" fill="black" xml:space="preserve" style="white-space: pre" font-family="Arial" font-size="5.8329" font-weight="bold" letter-spacing="0em"><tspan x="120.293" y="18.7468">C</tspan></text>
</g>
<g id="TOP_2">
<g id="Vector_27">
<mask id="path-32-outside-6_938_24352" maskUnits="userSpaceOnUse" x="116.849" y="0" width="12" height="12" fill="black">
<rect fill="white" x="116.849" width="12" height="12"/>
<path d="M119.449 1C118.549 1 117.849 1.7 117.849 2.6V8.7C117.849 9.6 118.549 10.3 119.449 10.3H125.549C126.449 10.3 127.149 9.6 127.149 8.7V2.6C127.149 1.7 126.449 1 125.549 1H119.449Z"/>
</mask>
<path d="M119.449 1C118.549 1 117.849 1.7 117.849 2.6V8.7C117.849 9.6 118.549 10.3 119.449 10.3H125.549C126.449 10.3 127.149 9.6 127.149 8.7V2.6C127.149 1.7 126.449 1 125.549 1H119.449Z" fill="white"/>
<path d="M119.449 1C118.549 1 117.849 1.7 117.849 2.6V8.7C117.849 9.6 118.549 10.3 119.449 10.3H125.549C126.449 10.3 127.149 9.6 127.149 8.7V2.6C127.149 1.7 126.449 1 125.549 1H119.449Z" stroke="#B89310" stroke-width="2" mask="url(#path-32-outside-6_938_24352)"/>
</g>
<text id="C_3" fill="black" xml:space="preserve" style="white-space: pre" font-family="Arial" font-size="5.8329" font-weight="bold" letter-spacing="0em"><tspan x="120.293" y="7.24285">C</tspan></text>
</g>
</g>
</g>
</svg>
