<svg width="77" height="77" viewBox="0 0 77 77" fill="none" xmlns="http://www.w3.org/2000/svg">
<g id="R-ICO-012566">
<path id="BG" d="M38.0179 76.0358C59.0146 76.0358 76.0358 59.0146 76.0358 38.0179C76.0358 17.0212 59.0146 0 38.0179 0C17.0212 0 0 17.0212 0 38.0179C0 59.0146 17.0212 76.0358 38.0179 76.0358Z" fill="url(#paint0_radial_938_25283)"/>
<g id="Group">
<path id="Vector" d="M59.324 66.6162C61.6614 66.6162 63.5562 64.7214 63.5562 62.384C63.5562 60.0466 61.6614 58.1518 59.324 58.1518C56.9866 58.1518 55.0918 60.0466 55.0918 62.384C55.0918 64.7214 56.9866 66.6162 59.324 66.6162Z" fill="url(#paint1_radial_938_25283)"/>
<path id="Vector_2" d="M55.0916 69.8986C57.429 69.8986 59.3238 68.0038 59.3238 65.6664C59.3238 63.329 57.429 61.4342 55.0916 61.4342C52.7542 61.4342 50.8594 63.329 50.8594 65.6664C50.8594 68.0038 52.7542 69.8986 55.0916 69.8986Z" fill="url(#paint2_radial_938_25283)"/>
<path id="Vector_3" d="M48.5886 72.9637C50.926 72.9637 52.8208 71.0689 52.8208 68.7315C52.8208 66.3941 50.926 64.4993 48.5886 64.4993C46.2513 64.4993 44.3564 66.3941 44.3564 68.7315C44.3564 71.0689 46.2513 72.9637 48.5886 72.9637Z" fill="url(#paint3_radial_938_25283)"/>
<path id="Vector_4" d="M41.5486 74.2573C43.886 74.2573 45.7808 72.3625 45.7808 70.0251C45.7808 67.6877 43.886 65.7929 41.5486 65.7929C39.2112 65.7929 37.3164 67.6877 37.3164 70.0251C37.3164 72.3625 39.2112 74.2573 41.5486 74.2573Z" fill="url(#paint4_radial_938_25283)"/>
<path id="Vector_5" d="M33.9314 73.6373C36.2688 73.6373 38.1636 71.7425 38.1636 69.4051C38.1636 67.0677 36.2688 65.1729 33.9314 65.1729C31.594 65.1729 29.6992 67.0677 29.6992 69.4051C29.6992 71.7425 31.594 73.6373 33.9314 73.6373Z" fill="url(#paint5_radial_938_25283)"/>
<path id="Vector_6" d="M27.4392 72.0031C29.7766 72.0031 31.6714 70.1083 31.6714 67.7709C31.6714 65.4335 29.7766 63.5387 27.4392 63.5387C25.1019 63.5387 23.207 65.4335 23.207 67.7709C23.207 70.1083 25.1019 72.0031 27.4392 72.0031Z" fill="url(#paint6_radial_938_25283)"/>
<path id="Vector_7" d="M21.0896 69.4051C23.427 69.4051 25.3218 67.5103 25.3218 65.1729C25.3218 62.8355 23.427 60.9407 21.0896 60.9407C18.7522 60.9407 16.8574 62.8355 16.8574 65.1729C16.8574 67.5103 18.7522 69.4051 21.0896 69.4051Z" fill="url(#paint7_radial_938_25283)"/>
<path id="Vector_8" d="M15.1316 64.4993C17.469 64.4993 19.3638 62.6045 19.3638 60.2671C19.3638 57.9297 17.469 56.0349 15.1316 56.0349C12.7942 56.0349 10.8994 57.9297 10.8994 60.2671C10.8994 62.6045 12.7942 64.4993 15.1316 64.4993Z" fill="url(#paint8_radial_938_25283)"/>
<path id="Vector_9" d="M10.2176 58.9247C12.5549 58.9247 14.4498 57.0299 14.4498 54.6925C14.4498 52.3551 12.5549 50.4603 10.2176 50.4603C7.88017 50.4603 5.98535 52.3551 5.98535 54.6925C5.98535 57.0299 7.88017 58.9247 10.2176 58.9247Z" fill="url(#paint9_radial_938_25283)"/>
<path id="Vector_10" d="M7.24099 52.5232C9.57837 52.5232 11.4732 50.6284 11.4732 48.291C11.4732 45.9536 9.57837 44.0588 7.24099 44.0588C4.90361 44.0588 3.00879 45.9536 3.00879 48.291C3.00879 50.6284 4.90361 52.5232 7.24099 52.5232Z" fill="url(#paint10_radial_938_25283)"/>
<path id="Vector_11" d="M5.63064 45.0011C7.96802 45.0011 9.86284 43.1063 9.86284 40.7689C9.86284 38.4315 7.96802 36.5367 5.63064 36.5367C3.29326 36.5367 1.39844 38.4315 1.39844 40.7689C1.39844 43.1063 3.29326 45.0011 5.63064 45.0011Z" fill="url(#paint11_radial_938_25283)"/>
<path id="Vector_12" d="M5.63064 37.0178C7.96802 37.0178 9.86284 35.123 9.86284 32.7856C9.86284 30.4482 7.96802 28.5534 5.63064 28.5534C3.29326 28.5534 1.39844 30.4482 1.39844 32.7856C1.39844 35.123 3.29326 37.0178 5.63064 37.0178Z" fill="url(#paint12_radial_938_25283)"/>
<path id="Vector_13" d="M7.7615 29.8168C10.0989 29.8168 11.9937 27.922 11.9937 25.5846C11.9937 23.2472 10.0989 21.3524 7.7615 21.3524C5.42412 21.3524 3.5293 23.2472 3.5293 25.5846C3.5293 27.922 5.42412 29.8168 7.7615 29.8168Z" fill="url(#paint13_radial_938_25283)"/>
<path id="Vector_14" d="M10.8992 23.0603C13.2366 23.0603 15.1314 21.1655 15.1314 18.8281C15.1314 16.4907 13.2366 14.5959 10.8992 14.5959C8.56181 14.5959 6.66699 16.4907 6.66699 18.8281C6.66699 21.1655 8.56181 23.0603 10.8992 23.0603Z" fill="url(#paint14_radial_938_25283)"/>
<path id="Vector_15" d="M15.1316 17.911C17.469 17.911 19.3638 16.0162 19.3638 13.6788C19.3638 11.3414 17.469 9.44659 15.1316 9.44659C12.7942 9.44659 10.8994 11.3414 10.8994 13.6788C10.8994 16.0162 12.7942 17.911 15.1316 17.911Z" fill="url(#paint15_radial_938_25283)"/>
<path id="Vector_16" d="M20.4578 13.6788C22.7952 13.6788 24.69 11.784 24.69 9.44662C24.69 7.10924 22.7952 5.21442 20.4578 5.21442C18.1204 5.21442 16.2256 7.10924 16.2256 9.44662C16.2256 11.784 18.1204 13.6788 20.4578 13.6788Z" fill="url(#paint16_radial_938_25283)"/>
<path id="Vector_17" d="M26.8133 10.2278C29.1506 10.2278 31.0455 8.33301 31.0455 5.99563C31.0455 3.65825 29.1506 1.76343 26.8133 1.76343C24.4759 1.76343 22.5811 3.65825 22.5811 5.99563C22.5811 8.33301 24.4759 10.2278 26.8133 10.2278Z" fill="url(#paint17_radial_938_25283)"/>
<path id="Vector_18" d="M33.7859 8.86272C36.1233 8.86272 38.0181 6.96789 38.0181 4.63052C38.0181 2.29314 36.1233 0.398315 33.7859 0.398315C31.4485 0.398315 29.5537 2.29314 29.5537 4.63052C29.5537 6.96789 31.4485 8.86272 33.7859 8.86272Z" fill="url(#paint18_radial_938_25283)"/>
<path id="Vector_19" d="M40.7859 8.86272C43.1233 8.86272 45.0181 6.96789 45.0181 4.63052C45.0181 2.29314 43.1233 0.398315 40.7859 0.398315C38.4485 0.398315 36.5537 2.29314 36.5537 4.63052C36.5537 6.96789 38.4485 8.86272 40.7859 8.86272Z" fill="url(#paint19_radial_938_25283)"/>
<path id="Vector_20" d="M48.0183 10.2278C50.3557 10.2278 52.2505 8.33301 52.2505 5.99563C52.2505 3.65825 50.3557 1.76343 48.0183 1.76343C45.681 1.76343 43.7861 3.65825 43.7861 5.99563C43.7861 8.33301 45.681 10.2278 48.0183 10.2278Z" fill="url(#paint20_radial_938_25283)"/>
<path id="Vector_21" d="M54.5789 13.0949C56.9163 13.0949 58.8111 11.2001 58.8111 8.86269C58.8111 6.52531 56.9163 4.63049 54.5789 4.63049C52.2415 4.63049 50.3467 6.52531 50.3467 8.86269C50.3467 11.2001 52.2415 13.0949 54.5789 13.0949Z" fill="url(#paint21_radial_938_25283)"/>
<path id="Vector_22" d="M59.9246 17.3271C62.262 17.3271 64.1568 15.4323 64.1568 13.0949C64.1568 10.7575 62.262 8.86267 59.9246 8.86267C57.5872 8.86267 55.6924 10.7575 55.6924 13.0949C55.6924 15.4323 57.5872 17.3271 59.9246 17.3271Z" fill="url(#paint22_radial_938_25283)"/>
<path id="Vector_23" d="M65.0867 22.553C67.4241 22.553 69.3189 20.6582 69.3189 18.3208C69.3189 15.9834 67.4241 14.0886 65.0867 14.0886C62.7493 14.0886 60.8545 15.9834 60.8545 18.3208C60.8545 20.6582 62.7493 22.553 65.0867 22.553Z" fill="url(#paint23_radial_938_25283)"/>
<path id="Vector_24" d="M68.6756 29.5579C71.0129 29.5579 72.9078 27.6631 72.9078 25.3257C72.9078 22.9883 71.0129 21.0935 68.6756 21.0935C66.3382 21.0935 64.4434 22.9883 64.4434 25.3257C64.4434 27.6631 66.3382 29.5579 68.6756 29.5579Z" fill="url(#paint24_radial_938_25283)"/>
<path id="Vector_25" d="M70.4119 37.0178C72.7493 37.0178 74.6441 35.123 74.6441 32.7856C74.6441 30.4482 72.7493 28.5534 70.4119 28.5534C68.0745 28.5534 66.1797 30.4482 66.1797 32.7856C66.1797 35.123 68.0745 37.0178 70.4119 37.0178Z" fill="url(#paint25_radial_938_25283)"/>
<path id="Vector_26" d="M71.0252 44.2213C73.3625 44.2213 75.2574 42.3265 75.2574 39.9891C75.2574 37.6517 73.3625 35.7569 71.0252 35.7569C68.6878 35.7569 66.793 37.6517 66.793 39.9891C66.793 42.3265 68.6878 44.2213 71.0252 44.2213Z" fill="url(#paint26_radial_938_25283)"/>
<path id="Vector_27" d="M69.3181 51.4826C71.6555 51.4826 73.5503 49.5878 73.5503 47.2504C73.5503 44.913 71.6555 43.0182 69.3181 43.0182C66.9808 43.0182 65.0859 44.913 65.0859 47.2504C65.0859 49.5878 66.9808 51.4826 69.3181 51.4826Z" fill="url(#paint27_radial_938_25283)"/>
<path id="Vector_28" d="M66.1795 58.1518C68.5168 58.1518 70.4117 56.257 70.4117 53.9196C70.4117 51.5822 68.5168 49.6874 66.1795 49.6874C63.8421 49.6874 61.9473 51.5822 61.9473 53.9196C61.9473 56.257 63.8421 58.1518 66.1795 58.1518Z" fill="url(#paint28_radial_938_25283)"/>
<path id="Vector_29" d="M62.4578 63.5387C64.7952 63.5387 66.69 61.6439 66.69 59.3065C66.69 56.9691 64.7952 55.0743 62.4578 55.0743C60.1204 55.0743 58.2256 56.9691 58.2256 59.3065C58.2256 61.6439 60.1204 63.5387 62.4578 63.5387Z" fill="url(#paint29_radial_938_25283)"/>
<path id="Vector_30" d="M57.0535 62.384C59.3909 62.384 61.2857 60.4892 61.2857 58.1518C61.2857 55.8144 59.3909 53.9196 57.0535 53.9196C54.7161 53.9196 52.8213 55.8144 52.8213 58.1518C52.8213 60.4892 54.7161 62.384 57.0535 62.384Z" fill="url(#paint30_radial_938_25283)"/>
<path id="Vector_31" d="M62.2461 59.5567C62.2461 55.0975 59.7144 53.1649 55.0671 53.1649C50.4198 53.1649 46.6523 56.7798 46.6523 61.239C46.6523 65.6982 49.184 67.6308 53.8313 67.6308C58.4786 67.6308 62.2461 64.0159 62.2461 59.5567Z" fill="url(#paint31_radial_938_25283)"/>
<path id="Vector_32" d="M45.2498 68.7315C47.5872 68.7315 49.482 66.8367 49.482 64.4993C49.482 62.1619 47.5872 60.2671 45.2498 60.2671C42.9124 60.2671 41.0176 62.1619 41.0176 64.4993C41.0176 66.8367 42.9124 68.7315 45.2498 68.7315Z" fill="url(#paint32_radial_938_25283)"/>
<path id="Vector_33" d="M38.1629 69.4051C40.5002 69.4051 42.3951 67.5103 42.3951 65.1729C42.3951 62.8355 40.5002 60.9407 38.1629 60.9407C35.8255 60.9407 33.9307 62.8355 33.9307 65.1729C33.9307 67.5103 35.8255 69.4051 38.1629 69.4051Z" fill="url(#paint33_radial_938_25283)"/>
<path id="Vector_34" d="M30.7859 68.7315C33.1233 68.7315 35.0181 66.8367 35.0181 64.4993C35.0181 62.1619 33.1233 60.2671 30.7859 60.2671C28.4485 60.2671 26.5537 62.1619 26.5537 64.4993C26.5537 66.8367 28.4485 68.7315 30.7859 68.7315Z" fill="url(#paint34_radial_938_25283)"/>
<path id="Vector_35" d="M24.0525 65.6664C26.3899 65.6664 28.2847 63.7716 28.2847 61.4342C28.2847 59.0968 26.3899 57.202 24.0525 57.202C21.7151 57.202 19.8203 59.0968 19.8203 61.4342C19.8203 63.7716 21.7151 65.6664 24.0525 65.6664Z" fill="url(#paint35_radial_938_25283)"/>
<path id="Vector_36" d="M18.6824 61.4342C21.0198 61.4342 22.9146 59.5394 22.9146 57.202C22.9146 54.8646 21.0198 52.9698 18.6824 52.9698C16.345 52.9698 14.4502 54.8646 14.4502 57.202C14.4502 59.5394 16.345 61.4342 18.6824 61.4342Z" fill="url(#paint36_radial_938_25283)"/>
<path id="Vector_37" d="M13.7332 55.7148C16.0706 55.7148 17.9654 53.82 17.9654 51.4826C17.9654 49.1452 16.0706 47.2504 13.7332 47.2504C11.3958 47.2504 9.50098 49.1452 9.50098 51.4826C9.50098 53.82 11.3958 55.7148 13.7332 55.7148Z" fill="url(#paint37_radial_938_25283)"/>
<path id="Vector_38" d="M10.8992 48.2911C13.2366 48.2911 15.1314 46.3963 15.1314 44.0589C15.1314 41.7215 13.2366 39.8267 10.8992 39.8267C8.56181 39.8267 6.66699 41.7215 6.66699 44.0589C6.66699 46.3963 8.56181 48.2911 10.8992 48.2911Z" fill="url(#paint38_radial_938_25283)"/>
<path id="Vector_39" d="M9.86306 41.25C12.2004 41.25 14.0953 39.3552 14.0953 37.0178C14.0953 34.6804 12.2004 32.7856 9.86306 32.7856C7.52568 32.7856 5.63086 34.6804 5.63086 37.0178C5.63086 39.3552 7.52568 41.25 9.86306 41.25Z" fill="url(#paint39_radial_938_25283)"/>
<path id="Vector_40" d="M10.8992 33.7901C13.2366 33.7901 15.1314 31.8953 15.1314 29.5579C15.1314 27.2205 13.2366 25.3257 10.8992 25.3257C8.56181 25.3257 6.66699 27.2205 6.66699 29.5579C6.66699 31.8953 8.56181 33.7901 10.8992 33.7901Z" fill="url(#paint40_radial_938_25283)"/>
<path id="Vector_41" d="M15.1317 32.5281C19.2559 32.5281 22.5993 28.8538 22.5993 24.3212C22.5993 19.7887 19.2559 16.1143 15.1317 16.1143C11.0074 16.1143 7.66406 19.7887 7.66406 24.3212C7.66406 28.8538 11.0074 32.5281 15.1317 32.5281Z" fill="url(#paint41_radial_938_25283)"/>
<path id="Vector_42" d="M17.9656 21.5593C20.303 21.5593 22.1978 19.6645 22.1978 17.3271C22.1978 14.9897 20.303 13.0949 17.9656 13.0949C15.6282 13.0949 13.7334 14.9897 13.7334 17.3271C13.7334 19.6645 15.6282 21.5593 17.9656 21.5593Z" fill="url(#paint42_radial_938_25283)"/>
<path id="Vector_43" d="M23.2068 17.3271C25.5442 17.3271 27.439 15.4323 27.439 13.0949C27.439 10.7575 25.5442 8.86267 23.2068 8.86267C20.8694 8.86267 18.9746 10.7575 18.9746 13.0949C18.9746 15.4323 20.8694 17.3271 23.2068 17.3271Z" fill="url(#paint43_radial_938_25283)"/>
<path id="Vector_44" d="M29.7849 14.46C32.1223 14.46 34.0171 12.5652 34.0171 10.2278C34.0171 7.89043 32.1223 5.99561 29.7849 5.99561C27.4476 5.99561 25.5527 7.89043 25.5527 10.2278C25.5527 12.5652 27.4476 14.46 29.7849 14.46Z" fill="url(#paint44_radial_938_25283)"/>
<path id="Vector_45" d="M36.7859 13.0949C39.1233 13.0949 41.0181 11.2001 41.0181 8.86269C41.0181 6.52531 39.1233 4.63049 36.7859 4.63049C34.4485 4.63049 32.5537 6.52531 32.5537 8.86269C32.5537 11.2001 34.4485 13.0949 36.7859 13.0949Z" fill="url(#paint45_radial_938_25283)"/>
<path id="Vector_46" d="M43.7859 13.6788C46.1233 13.6788 48.0181 11.784 48.0181 9.44662C48.0181 7.10924 46.1233 5.21442 43.7859 5.21442C41.4485 5.21442 39.5537 7.10924 39.5537 9.44662C39.5537 11.784 41.4485 13.6788 43.7859 13.6788Z" fill="url(#paint46_radial_938_25283)"/>
<path id="Vector_47" d="M50.8592 16.0583C53.1965 16.0583 55.0914 14.1635 55.0914 11.8261C55.0914 9.48869 53.1965 7.59387 50.8592 7.59387C48.5218 7.59387 46.627 9.48869 46.627 11.8261C46.627 14.1635 48.5218 16.0583 50.8592 16.0583Z" fill="url(#paint47_radial_938_25283)"/>
<path id="Vector_48" d="M57.0535 20.7019C59.3909 20.7019 61.2857 18.8071 61.2857 16.4697C61.2857 14.1323 59.3909 12.2375 57.0535 12.2375C54.7161 12.2375 52.8213 14.1323 52.8213 16.4697C52.8213 18.8071 54.7161 20.7019 57.0535 20.7019Z" fill="url(#paint48_radial_938_25283)"/>
<path id="Vector_49" d="M61.947 26.7852C64.2844 26.7852 66.1792 24.8904 66.1792 22.553C66.1792 20.2156 64.2844 18.3208 61.947 18.3208C59.6097 18.3208 57.7148 20.2156 57.7148 22.553C57.7148 24.8904 59.6097 26.7852 61.947 26.7852Z" fill="url(#paint49_radial_938_25283)"/>
<path id="Vector_50" d="M65.0867 34.5051C67.4241 34.5051 69.3189 32.6103 69.3189 30.2729C69.3189 27.9355 67.4241 26.0407 65.0867 26.0407C62.7493 26.0407 60.8545 27.9355 60.8545 30.2729C60.8545 32.6103 62.7493 34.5051 65.0867 34.5051Z" fill="url(#paint50_radial_938_25283)"/>
<path id="Vector_51" d="M66.0086 41.25C68.3459 41.25 70.2408 39.3552 70.2408 37.0178C70.2408 34.6804 68.3459 32.7856 66.0086 32.7856C63.6712 32.7856 61.7764 34.6804 61.7764 37.0178C61.7764 39.3552 63.6712 41.25 66.0086 41.25Z" fill="url(#paint51_radial_938_25283)"/>
<path id="Vector_52" d="M65.4861 47.9208C67.8235 47.9208 69.7183 46.026 69.7183 43.6886C69.7183 41.3512 67.8235 39.4564 65.4861 39.4564C63.1487 39.4564 61.2539 41.3512 61.2539 43.6886C61.2539 46.026 63.1487 47.9208 65.4861 47.9208Z" fill="url(#paint52_radial_938_25283)"/>
<path id="Vector_53" d="M63.0437 54.3622C65.3811 54.3622 67.2759 52.4674 67.2759 50.13C67.2759 47.7926 65.3811 45.8978 63.0437 45.8978C60.7063 45.8978 58.8115 47.7926 58.8115 50.13C58.8115 52.4674 60.7063 54.3622 63.0437 54.3622Z" fill="url(#paint53_radial_938_25283)"/>
<path id="Vector_54" d="M58.8113 59.9469C61.1487 59.9469 63.0435 58.0521 63.0435 55.7147C63.0435 53.3773 61.1487 51.4825 58.8113 51.4825C56.4739 51.4825 54.5791 53.3773 54.5791 55.7147C54.5791 58.0521 56.4739 59.9469 58.8113 59.9469Z" fill="url(#paint54_radial_938_25283)"/>
<path id="Vector_55" d="M52.8211 59.3065C55.1584 59.3065 57.0533 57.4117 57.0533 55.0743C57.0533 52.7369 55.1584 50.8421 52.8211 50.8421C50.4837 50.8421 48.5889 52.7369 48.5889 55.0743C48.5889 57.4117 50.4837 59.3065 52.8211 59.3065Z" fill="url(#paint55_radial_938_25283)"/>
<path id="Vector_56" d="M35.9031 17.911C38.2405 17.911 40.1353 16.0162 40.1353 13.6788C40.1353 11.3414 38.2405 9.44659 35.9031 9.44659C33.5657 9.44659 31.6709 11.3414 31.6709 13.6788C31.6709 16.0162 33.5657 17.911 35.9031 17.911Z" fill="url(#paint56_radial_938_25283)"/>
<path id="Vector_57" d="M29.7849 19.343C32.1223 19.343 34.0171 17.4482 34.0171 15.1108C34.0171 12.7734 32.1223 10.8786 29.7849 10.8786C27.4476 10.8786 25.5527 12.7734 25.5527 15.1108C25.5527 17.4482 27.4476 19.343 29.7849 19.343Z" fill="url(#paint57_radial_938_25283)"/>
<path id="Vector_58" d="M24.6902 22.1432C27.0276 22.1432 28.9224 20.2484 28.9224 17.911C28.9224 15.5736 27.0276 13.6788 24.6902 13.6788C22.3528 13.6788 20.458 15.5736 20.458 17.911C20.458 20.2484 22.3528 22.1432 24.6902 22.1432Z" fill="url(#paint58_radial_938_25283)"/>
<path id="Vector_59" d="M47.7146 62.384C50.052 62.384 51.9468 60.4892 51.9468 58.1518C51.9468 55.8144 50.052 53.9196 47.7146 53.9196C45.3772 53.9196 43.4824 55.8144 43.4824 58.1518C43.4824 60.4892 45.3772 62.384 47.7146 62.384Z" fill="url(#paint59_radial_938_25283)"/>
<path id="Vector_60" d="M42.2498 64.4993C44.5872 64.4993 46.482 62.6045 46.482 60.2671C46.482 57.9297 44.5872 56.0349 42.2498 56.0349C39.9124 56.0349 38.0176 57.9297 38.0176 60.2671C38.0176 62.6045 39.9124 64.4993 42.2498 64.4993Z" fill="url(#paint60_radial_938_25283)"/>
<path id="Vector_61" d="M35.2781 64.4993C37.6155 64.4993 39.5103 62.6045 39.5103 60.2671C39.5103 57.9297 37.6155 56.0349 35.2781 56.0349C32.9407 56.0349 31.0459 57.9297 31.0459 60.2671C31.0459 62.6045 32.9407 64.4993 35.2781 64.4993Z" fill="url(#paint61_radial_938_25283)"/>
<path id="Vector_62" d="M29.5535 63.1569C31.8909 63.1569 33.7857 61.2621 33.7857 58.9247C33.7857 56.5873 31.8909 54.6925 29.5535 54.6925C27.2161 54.6925 25.3213 56.5873 25.3213 58.9247C25.3213 61.2621 27.2161 63.1569 29.5535 63.1569Z" fill="url(#paint62_radial_938_25283)"/>
<path id="Vector_63" d="M24.6902 60.2671C27.0276 60.2671 28.9224 58.3723 28.9224 56.0349C28.9224 53.6975 27.0276 51.8027 24.6902 51.8027C22.3528 51.8027 20.458 53.6975 20.458 56.0349C20.458 58.3723 22.3528 60.2671 24.6902 60.2671Z" fill="url(#paint63_radial_938_25283)"/>
<path id="Vector_64" d="M20.4578 56.3852C22.7952 56.3852 24.69 54.4904 24.69 52.153C24.69 49.8156 22.7952 47.9208 20.4578 47.9208C18.1204 47.9208 16.2256 49.8156 16.2256 52.153C16.2256 54.4904 18.1204 56.3852 20.4578 56.3852Z" fill="url(#paint64_radial_938_25283)"/>
<path id="Vector_65" d="M16.8572 50.8421C19.1946 50.8421 21.0894 48.9473 21.0894 46.6099C21.0894 44.2725 19.1946 42.3777 16.8572 42.3777C14.5198 42.3777 12.625 44.2725 12.625 46.6099C12.625 48.9473 14.5198 50.8421 16.8572 50.8421Z" fill="url(#paint65_radial_938_25283)"/>
<path id="Vector_66" d="M15.1316 44.2213C17.469 44.2213 19.3638 42.3265 19.3638 39.9891C19.3638 37.6517 17.469 35.7569 15.1316 35.7569C12.7942 35.7569 10.8994 37.6517 10.8994 39.9891C10.8994 42.3265 12.7942 44.2213 15.1316 44.2213Z" fill="url(#paint66_radial_938_25283)"/>
<path id="Vector_67" d="M15.1316 38.0223C17.469 38.0223 19.3638 36.1275 19.3638 33.7901C19.3638 31.4527 17.469 29.5579 15.1316 29.5579C12.7942 29.5579 10.8994 31.4527 10.8994 33.7901C10.8994 36.1275 12.7942 38.0223 15.1316 38.0223Z" fill="url(#paint67_radial_938_25283)"/>
<path id="Vector_68" d="M16.2263 32.7856C18.5637 32.7856 20.4585 30.8908 20.4585 28.5534C20.4585 26.216 18.5637 24.3212 16.2263 24.3212C13.889 24.3212 11.9941 26.216 11.9941 28.5534C11.9941 30.8908 13.889 32.7856 16.2263 32.7856Z" fill="url(#paint68_radial_938_25283)"/>
<path id="Vector_69" d="M19.8211 27.2925C22.1584 27.2925 24.0533 25.3977 24.0533 23.0603C24.0533 20.7229 22.1584 18.8281 19.8211 18.8281C17.4837 18.8281 15.5889 20.7229 15.5889 23.0603C15.5889 25.3977 17.4837 27.2925 19.8211 27.2925Z" fill="url(#paint69_radial_938_25283)"/>
<path id="Vector_70" d="M43.0769 18.6922C45.4143 18.6922 47.3091 16.7974 47.3091 14.46C47.3091 12.1226 45.4143 10.2278 43.0769 10.2278C40.7395 10.2278 38.8447 12.1226 38.8447 14.46C38.8447 16.7974 40.7395 18.6922 43.0769 18.6922Z" fill="url(#paint70_radial_938_25283)"/>
<path id="Vector_71" d="M49.2508 20.7019C51.5881 20.7019 53.483 18.8071 53.483 16.4697C53.483 14.1323 51.5881 12.2375 49.2508 12.2375C46.9134 12.2375 45.0186 14.1323 45.0186 16.4697C45.0186 18.8071 46.9134 20.7019 49.2508 20.7019Z" fill="url(#paint71_radial_938_25283)"/>
<path id="Vector_72" d="M60.8544 20.7019C60.8544 16.097 57.067 13.6788 52.8211 13.6788C48.5752 13.6788 45.7949 16.097 45.7949 20.7019C45.7949 25.3068 50.3335 27.7736 54.5795 27.7736C58.8255 27.7736 60.8544 25.3068 60.8544 20.7019Z" fill="url(#paint72_radial_938_25283)"/>
<path id="Vector_73" d="M58.8113 31.0174C61.1487 31.0174 63.0435 29.1226 63.0435 26.7852C63.0435 24.4478 61.1487 22.553 58.8113 22.553C56.4739 22.553 54.5791 24.4478 54.5791 26.7852C54.5791 29.1226 56.4739 31.0174 58.8113 31.0174Z" fill="url(#paint73_radial_938_25283)"/>
<path id="Vector_74" d="M60.8543 39.094C63.1916 39.094 65.0865 37.1992 65.0865 34.8618C65.0865 32.5244 63.1916 30.6296 60.8543 30.6296C58.5169 30.6296 56.6221 32.5244 56.6221 34.8618C56.6221 37.1992 58.5169 39.094 60.8543 39.094Z" fill="url(#paint74_radial_938_25283)"/>
<path id="Vector_75" d="M60.8543 46.9149C63.1916 46.9149 65.0865 45.0201 65.0865 42.6827C65.0865 40.3453 63.1916 38.4505 60.8543 38.4505C58.5169 38.4505 56.6221 40.3453 56.6221 42.6827C56.6221 45.0201 58.5169 46.9149 60.8543 46.9149Z" fill="url(#paint75_radial_938_25283)"/>
<path id="Vector_76" d="M57.7146 53.9196C60.052 53.9196 61.9468 52.0248 61.9468 49.6874C61.9468 47.35 60.052 45.4552 57.7146 45.4552C55.3772 45.4552 53.4824 47.35 53.4824 49.6874C53.4824 52.0248 55.3772 53.9196 57.7146 53.9196Z" fill="url(#paint76_radial_938_25283)"/>
<path id="Vector_77" d="M45.781 57.202C48.1184 57.202 50.0132 55.3072 50.0132 52.9698C50.0132 50.6324 48.1184 48.7376 45.781 48.7376C43.4436 48.7376 41.5488 50.6324 41.5488 52.9698C41.5488 55.3072 43.4436 57.202 45.781 57.202Z" fill="url(#paint77_radial_938_25283)"/>
<path id="Vector_78" d="M39.2498 58.9247C41.5872 58.9247 43.482 57.0299 43.482 54.6925C43.482 52.3551 41.5872 50.4603 39.2498 50.4603C36.9124 50.4603 35.0176 52.3551 35.0176 54.6925C35.0176 57.0299 36.9124 58.9247 39.2498 58.9247Z" fill="url(#paint78_radial_938_25283)"/>
<path id="Vector_79" d="M33.1121 58.1518C35.4495 58.1518 37.3443 56.257 37.3443 53.9196C37.3443 51.5822 35.4495 49.6874 33.1121 49.6874C30.7747 49.6874 28.8799 51.5822 28.8799 53.9196C28.8799 56.257 30.7747 58.1518 33.1121 58.1518Z" fill="url(#paint79_radial_938_25283)"/>
<path id="Vector_80" d="M28.2849 55.7148C30.6223 55.7148 32.5171 53.82 32.5171 51.4826C32.5171 49.1452 30.6223 47.2504 28.2849 47.2504C25.9476 47.2504 24.0527 49.1452 24.0527 51.4826C24.0527 53.82 25.9476 55.7148 28.2849 55.7148Z" fill="url(#paint80_radial_938_25283)"/>
<path id="Vector_81" d="M24.6902 52.5232C27.0276 52.5232 28.9224 50.6284 28.9224 48.291C28.9224 45.9536 27.0276 44.0588 24.6902 44.0588C22.3528 44.0588 20.458 45.9536 20.458 48.291C20.458 50.6284 22.3528 52.5232 24.6902 52.5232Z" fill="url(#paint81_radial_938_25283)"/>
<path id="Vector_82" d="M21.7361 47.9208C24.0735 47.9208 25.9683 46.026 25.9683 43.6886C25.9683 41.3512 24.0735 39.4564 21.7361 39.4564C19.3987 39.4564 17.5039 41.3512 17.5039 43.6886C17.5039 46.026 19.3987 47.9208 21.7361 47.9208Z" fill="url(#paint82_radial_938_25283)"/>
<path id="Vector_83" d="M20.4578 41.25C22.7952 41.25 24.69 39.3552 24.69 37.0178C24.69 34.6804 22.7952 32.7856 20.4578 32.7856C18.1204 32.7856 16.2256 34.6804 16.2256 37.0178C16.2256 39.3552 18.1204 41.25 20.4578 41.25Z" fill="url(#paint83_radial_938_25283)"/>
<path id="Vector_84" d="M21.7361 34.8618C24.0735 34.8618 25.9683 32.967 25.9683 30.6296C25.9683 28.2922 24.0735 26.3974 21.7361 26.3974C19.3987 26.3974 17.5039 28.2922 17.5039 30.6296C17.5039 32.967 19.3987 34.8618 21.7361 34.8618Z" fill="url(#paint84_radial_938_25283)"/>
<path id="Vector_85" d="M25.3211 29.1663C27.6584 29.1663 29.5533 27.2715 29.5533 24.9341C29.5533 22.5967 27.6584 20.7019 25.3211 20.7019C22.9837 20.7019 21.0889 22.5967 21.0889 24.9341C21.0889 27.2715 22.9837 29.1663 25.3211 29.1663Z" fill="url(#paint85_radial_938_25283)"/>
<path id="Vector_86" d="M29.5535 25.5846C31.8909 25.5846 33.7857 23.6898 33.7857 21.3524C33.7857 19.015 31.8909 17.1202 29.5535 17.1202C27.2161 17.1202 25.3213 19.015 25.3213 21.3524C25.3213 23.6898 27.2161 25.5846 29.5535 25.5846Z" fill="url(#paint86_radial_938_25283)"/>
<path id="Vector_87" d="M35.2498 23.5752C37.5872 23.5752 39.482 21.6804 39.482 19.343C39.482 17.0056 37.5872 15.1108 35.2498 15.1108C32.9124 15.1108 31.0176 17.0056 31.0176 19.343C31.0176 21.6804 32.9124 23.5752 35.2498 23.5752Z" fill="url(#paint87_radial_938_25283)"/>
<path id="Vector_88" d="M41.0183 23.8852C43.3557 23.8852 45.2505 21.9904 45.2505 19.653C45.2505 17.3156 43.3557 15.4208 41.0183 15.4208C38.681 15.4208 36.7861 17.3156 36.7861 19.653C36.7861 21.9904 38.681 23.8852 41.0183 23.8852Z" fill="url(#paint88_radial_938_25283)"/>
<path id="Vector_89" d="M46.6277 26.0408C48.9651 26.0408 50.8599 24.146 50.8599 21.8086C50.8599 19.4712 48.9651 17.5764 46.6277 17.5764C44.2903 17.5764 42.3955 19.4712 42.3955 21.8086C42.3955 24.146 44.2903 26.0408 46.6277 26.0408Z" fill="url(#paint89_radial_938_25283)"/>
<path id="Vector_90" d="M51.4607 29.8168C53.7981 29.8168 55.6929 27.922 55.6929 25.5846C55.6929 23.2472 53.7981 21.3524 51.4607 21.3524C49.1233 21.3524 47.2285 23.2472 47.2285 25.5846C47.2285 27.922 49.1233 29.8168 51.4607 29.8168Z" fill="url(#paint90_radial_938_25283)"/>
<path id="Vector_91" d="M54.5789 35.2496C56.9163 35.2496 58.8111 33.3548 58.8111 31.0174C58.8111 28.68 56.9163 26.7852 54.5789 26.7852C52.2415 26.7852 50.3467 28.68 50.3467 31.0174C50.3467 33.3548 52.2415 35.2496 54.5789 35.2496Z" fill="url(#paint91_radial_938_25283)"/>
<path id="Vector_92" d="M55.6922 41.25C58.0295 41.25 59.9244 39.3552 59.9244 37.0178C59.9244 34.6804 58.0295 32.7856 55.6922 32.7856C53.3548 32.7856 51.46 34.6804 51.46 37.0178C51.46 39.3552 53.3548 41.25 55.6922 41.25Z" fill="url(#paint92_radial_938_25283)"/>
<path id="Vector_93" d="M54.5789 47.2504C56.9163 47.2504 58.8111 45.3556 58.8111 43.0182C58.8111 40.6808 56.9163 38.786 54.5789 38.786C52.2415 38.786 50.3467 40.6808 50.3467 43.0182C50.3467 45.3556 52.2415 47.2504 54.5789 47.2504Z" fill="url(#paint93_radial_938_25283)"/>
<path id="Vector_94" d="M50.8592 53.4654C53.1965 53.4654 55.0914 51.5706 55.0914 49.2332C55.0914 46.8958 53.1965 45.001 50.8592 45.001C48.5218 45.001 46.627 46.8958 46.627 49.2332C46.627 51.5706 48.5218 53.4654 50.8592 53.4654Z" fill="url(#paint94_radial_938_25283)"/>
<path id="Vector_95" d="M43.4822 52.153C45.8196 52.153 47.7144 50.2582 47.7144 47.9208C47.7144 45.5834 45.8196 43.6886 43.4822 43.6886C41.1448 43.6886 39.25 45.5834 39.25 47.9208C39.25 50.2582 41.1448 52.153 43.4822 52.153Z" fill="url(#paint95_radial_938_25283)"/>
<path id="Vector_96" d="M37.3445 53.4654C39.6819 53.4654 41.5767 51.5706 41.5767 49.2332C41.5767 46.8958 39.6819 45.001 37.3445 45.001C35.0071 45.001 33.1123 46.8958 33.1123 49.2332C33.1123 51.5706 35.0071 53.4654 37.3445 53.4654Z" fill="url(#paint96_radial_938_25283)"/>
<path id="Vector_97" d="M31.0457 52.5232C33.3831 52.5232 35.2779 50.6284 35.2779 48.291C35.2779 45.9536 33.3831 44.0588 31.0457 44.0588C28.7083 44.0588 26.8135 45.9536 26.8135 48.291C26.8135 50.6284 28.7083 52.5232 31.0457 52.5232Z" fill="url(#paint97_radial_938_25283)"/>
<path id="Vector_98" d="M34.018 43.0182C34.018 40.6808 27.6591 35.7569 25.3217 35.7569C22.9843 35.7569 20.7364 40.7076 21.0895 43.0182C21.7364 47.2504 25.9685 49.2333 28.8806 48.858C31.1988 48.5592 34.018 45.3555 34.018 43.0182Z" fill="url(#paint98_radial_938_25283)"/>
<path id="Vector_99" d="M24.6902 41.25C27.0276 41.25 28.9224 39.3552 28.9224 37.0178C28.9224 34.6804 27.0276 32.7856 24.6902 32.7856C22.3528 32.7856 20.458 34.6804 20.458 37.0178C20.458 39.3552 22.3528 41.25 24.6902 41.25Z" fill="url(#paint99_radial_938_25283)"/>
<path id="Vector_100" d="M27.4392 35.2496C29.7766 35.2496 31.6714 33.3548 31.6714 31.0174C31.6714 28.68 29.7766 26.7852 27.4392 26.7852C25.1019 26.7852 23.207 28.68 23.207 31.0174C23.207 33.3548 25.1019 35.2496 27.4392 35.2496Z" fill="url(#paint100_radial_938_25283)"/>
<path id="Vector_101" d="M32.1883 30.273C34.5256 30.273 36.4205 28.3782 36.4205 26.0408C36.4205 23.7034 34.5256 21.8086 32.1883 21.8086C29.8509 21.8086 27.9561 23.7034 27.9561 26.0408C27.9561 28.3782 29.8509 30.273 32.1883 30.273Z" fill="url(#paint101_radial_938_25283)"/>
<path id="Vector_102" d="M38.8445 28.8253C41.1819 28.8253 43.0767 26.9305 43.0767 24.5931C43.0767 22.2557 41.1819 20.3609 38.8445 20.3609C36.5071 20.3609 34.6123 22.2557 34.6123 24.5931C34.6123 26.9305 36.5071 28.8253 38.8445 28.8253Z" fill="url(#paint102_radial_938_25283)"/>
<path id="Vector_103" d="M45.781 30.6296C48.1184 30.6296 50.0132 28.7348 50.0132 26.3974C50.0132 24.06 48.1184 22.1652 45.781 22.1652C43.4436 22.1652 41.5488 24.06 41.5488 26.3974C41.5488 28.7348 43.4436 30.6296 45.781 30.6296Z" fill="url(#paint103_radial_938_25283)"/>
<path id="Vector_104" d="M49.2508 35.7569C51.5881 35.7569 53.483 33.8621 53.483 31.5247C53.483 29.1873 51.5881 27.2925 49.2508 27.2925C46.9134 27.2925 45.0186 29.1873 45.0186 31.5247C45.0186 33.8621 46.9134 35.7569 49.2508 35.7569Z" fill="url(#paint104_radial_938_25283)"/>
<path id="Vector_105" d="M50.8592 42.2544C53.1965 42.2544 55.0914 40.3596 55.0914 38.0222C55.0914 35.6848 53.1965 33.79 50.8592 33.79C48.5218 33.79 46.627 35.6848 46.627 38.0222C46.627 40.3596 48.5218 42.2544 50.8592 42.2544Z" fill="url(#paint105_radial_938_25283)"/>
<path id="Vector_106" d="M48.0183 47.9208C50.3557 47.9208 52.2505 46.026 52.2505 43.6886C52.2505 41.3512 50.3557 39.4564 48.0183 39.4564C45.681 39.4564 43.7861 41.3512 43.7861 43.6886C43.7861 46.026 45.681 47.9208 48.0183 47.9208Z" fill="url(#paint106_radial_938_25283)"/>
<path id="Vector_107" d="M41.0183 47.2504C43.3557 47.2504 45.2505 45.3556 45.2505 43.0182C45.2505 40.6808 43.3557 38.786 41.0183 38.786C38.681 38.786 36.7861 40.6808 36.7861 43.0182C36.7861 45.3556 38.681 47.2504 41.0183 47.2504Z" fill="url(#paint107_radial_938_25283)"/>
<path id="Vector_108" d="M34.0174 47.2504C36.3547 47.2504 38.2496 45.3556 38.2496 43.0182C38.2496 40.6808 36.3547 38.786 34.0174 38.786C31.68 38.786 29.7852 40.6808 29.7852 43.0182C29.7852 45.3556 31.68 47.2504 34.0174 47.2504Z" fill="url(#paint108_radial_938_25283)"/>
<path id="Vector_109" d="M31.0174 41.25C33.3547 41.25 35.2496 39.3552 35.2496 37.0178C35.2496 34.6804 33.3547 32.7856 31.0174 32.7856C28.68 32.7856 26.7852 34.6804 26.7852 37.0178C26.7852 39.3552 28.68 41.25 31.0174 41.25Z" fill="url(#paint109_radial_938_25283)"/>
<path id="Vector_110" d="M35.0174 35.2496C37.3547 35.2496 39.2496 33.3548 39.2496 31.0174C39.2496 28.68 37.3547 26.7852 35.0174 26.7852C32.68 26.7852 30.7852 28.68 30.7852 31.0174C30.7852 33.3548 32.68 35.2496 35.0174 35.2496Z" fill="url(#paint110_radial_938_25283)"/>
<path id="Vector_111" d="M42.0183 35.2496C44.3557 35.2496 46.2505 33.3548 46.2505 31.0174C46.2505 28.68 44.3557 26.7852 42.0183 26.7852C39.681 26.7852 37.7861 28.68 37.7861 31.0174C37.7861 33.3548 39.681 35.2496 42.0183 35.2496Z" fill="url(#paint111_radial_938_25283)"/>
<path id="Vector_112" d="M45.0183 41.25C47.3557 41.25 49.2505 39.3552 49.2505 37.0178C49.2505 34.6804 47.3557 32.7856 45.0183 32.7856C42.681 32.7856 40.7861 34.6804 40.7861 37.0178C40.7861 39.3552 42.681 41.25 45.0183 41.25Z" fill="url(#paint112_radial_938_25283)"/>
<path id="Vector_113" d="M38.0183 41.25C40.3557 41.25 42.2505 39.3552 42.2505 37.0178C42.2505 34.6804 40.3557 32.7856 38.0183 32.7856C35.681 32.7856 33.7861 34.6804 33.7861 37.0178C33.7861 39.3552 35.681 41.25 38.0183 41.25Z" fill="url(#paint113_radial_938_25283)"/>
</g>
</g>
<defs>
<radialGradient id="paint0_radial_938_25283" cx="0" cy="0" r="1" gradientUnits="userSpaceOnUse" gradientTransform="translate(31.0017 21.6468) scale(38.0179)">
<stop stop-color="#FFFF9A"/>
<stop offset="1" stop-color="#D9A435"/>
</radialGradient>
<radialGradient id="paint1_radial_938_25283" cx="0" cy="0" r="1" gradientUnits="userSpaceOnUse" gradientTransform="translate(58.543 60.5615) scale(4.2322 4.2322)">
<stop stop-color="#FFFF5C"/>
<stop offset="1" stop-color="#D9A435"/>
</radialGradient>
<radialGradient id="paint2_radial_938_25283" cx="0" cy="0" r="1" gradientUnits="userSpaceOnUse" gradientTransform="translate(54.3106 63.8439) scale(4.2322 4.2322)">
<stop stop-color="#FFFF5C"/>
<stop offset="1" stop-color="#D9A435"/>
</radialGradient>
<radialGradient id="paint3_radial_938_25283" cx="0" cy="0" r="1" gradientUnits="userSpaceOnUse" gradientTransform="translate(47.8075 66.9091) scale(4.2322)">
<stop stop-color="#FFFF5C"/>
<stop offset="1" stop-color="#D9A435"/>
</radialGradient>
<radialGradient id="paint4_radial_938_25283" cx="0" cy="0" r="1" gradientUnits="userSpaceOnUse" gradientTransform="translate(40.7675 68.2026) scale(4.2322)">
<stop stop-color="#FFFF5C"/>
<stop offset="1" stop-color="#D9A435"/>
</radialGradient>
<radialGradient id="paint5_radial_938_25283" cx="0" cy="0" r="1" gradientUnits="userSpaceOnUse" gradientTransform="translate(33.1503 67.5826) scale(4.2322)">
<stop stop-color="#FFFF5C"/>
<stop offset="1" stop-color="#D9A435"/>
</radialGradient>
<radialGradient id="paint6_radial_938_25283" cx="0" cy="0" r="1" gradientUnits="userSpaceOnUse" gradientTransform="translate(26.6581 65.9484) scale(4.2322 4.2322)">
<stop stop-color="#FFFF5C"/>
<stop offset="1" stop-color="#D9A435"/>
</radialGradient>
<radialGradient id="paint7_radial_938_25283" cx="0" cy="0" r="1" gradientUnits="userSpaceOnUse" gradientTransform="translate(20.3085 63.3504) scale(4.2322 4.2322)">
<stop stop-color="#FFFF5C"/>
<stop offset="1" stop-color="#D9A435"/>
</radialGradient>
<radialGradient id="paint8_radial_938_25283" cx="0" cy="0" r="1" gradientUnits="userSpaceOnUse" gradientTransform="translate(14.3506 58.4447) scale(4.2322 4.2322)">
<stop stop-color="#FFFF5C"/>
<stop offset="1" stop-color="#D9A435"/>
</radialGradient>
<radialGradient id="paint9_radial_938_25283" cx="0" cy="0" r="1" gradientUnits="userSpaceOnUse" gradientTransform="translate(9.43645 52.8701) scale(4.2322)">
<stop stop-color="#FFFF5C"/>
<stop offset="1" stop-color="#D9A435"/>
</radialGradient>
<radialGradient id="paint10_radial_938_25283" cx="0" cy="0" r="1" gradientUnits="userSpaceOnUse" gradientTransform="translate(6.45989 46.4686) scale(4.2322)">
<stop stop-color="#FFFF5C"/>
<stop offset="1" stop-color="#D9A435"/>
</radialGradient>
<radialGradient id="paint11_radial_938_25283" cx="0" cy="0" r="1" gradientUnits="userSpaceOnUse" gradientTransform="translate(4.84954 38.9464) scale(4.2322)">
<stop stop-color="#FFFF5C"/>
<stop offset="1" stop-color="#D9A435"/>
</radialGradient>
<radialGradient id="paint12_radial_938_25283" cx="0" cy="0" r="1" gradientUnits="userSpaceOnUse" gradientTransform="translate(4.84954 30.9632) scale(4.2322)">
<stop stop-color="#FFFF5C"/>
<stop offset="1" stop-color="#D9A435"/>
</radialGradient>
<radialGradient id="paint13_radial_938_25283" cx="0" cy="0" r="1" gradientUnits="userSpaceOnUse" gradientTransform="translate(6.9805 23.7622) scale(4.2322)">
<stop stop-color="#FFFF5C"/>
<stop offset="1" stop-color="#D9A435"/>
</radialGradient>
<radialGradient id="paint14_radial_938_25283" cx="0" cy="0" r="1" gradientUnits="userSpaceOnUse" gradientTransform="translate(10.1182 17.0057) scale(4.2322)">
<stop stop-color="#FFFF5C"/>
<stop offset="1" stop-color="#D9A435"/>
</radialGradient>
<radialGradient id="paint15_radial_938_25283" cx="0" cy="0" r="1" gradientUnits="userSpaceOnUse" gradientTransform="translate(14.3506 11.8564) scale(4.2322)">
<stop stop-color="#FFFF5C"/>
<stop offset="1" stop-color="#D9A435"/>
</radialGradient>
<radialGradient id="paint16_radial_938_25283" cx="0" cy="0" r="1" gradientUnits="userSpaceOnUse" gradientTransform="translate(19.6768 7.62422) scale(4.2322)">
<stop stop-color="#FFFF5C"/>
<stop offset="1" stop-color="#D9A435"/>
</radialGradient>
<radialGradient id="paint17_radial_938_25283" cx="0" cy="0" r="1" gradientUnits="userSpaceOnUse" gradientTransform="translate(26.0322 4.17323) scale(4.2322)">
<stop stop-color="#FFFF5C"/>
<stop offset="1" stop-color="#D9A435"/>
</radialGradient>
<radialGradient id="paint18_radial_938_25283" cx="0" cy="0" r="1" gradientUnits="userSpaceOnUse" gradientTransform="translate(33.0048 2.80812) scale(4.2322)">
<stop stop-color="#FFFF5C"/>
<stop offset="1" stop-color="#D9A435"/>
</radialGradient>
<radialGradient id="paint19_radial_938_25283" cx="0" cy="0" r="1" gradientUnits="userSpaceOnUse" gradientTransform="translate(40.0049 2.80812) scale(4.2322 4.2322)">
<stop stop-color="#FFFF5C"/>
<stop offset="1" stop-color="#D9A435"/>
</radialGradient>
<radialGradient id="paint20_radial_938_25283" cx="0" cy="0" r="1" gradientUnits="userSpaceOnUse" gradientTransform="translate(47.2372 4.17323) scale(4.2322)">
<stop stop-color="#FFFF5C"/>
<stop offset="1" stop-color="#D9A435"/>
</radialGradient>
<radialGradient id="paint21_radial_938_25283" cx="0" cy="0" r="1" gradientUnits="userSpaceOnUse" gradientTransform="translate(53.7978 7.04029) scale(4.2322)">
<stop stop-color="#FFFF5C"/>
<stop offset="1" stop-color="#D9A435"/>
</radialGradient>
<radialGradient id="paint22_radial_938_25283" cx="0" cy="0" r="1" gradientUnits="userSpaceOnUse" gradientTransform="translate(59.1435 11.2725) scale(4.2322 4.2322)">
<stop stop-color="#FFFF5C"/>
<stop offset="1" stop-color="#D9A435"/>
</radialGradient>
<radialGradient id="paint23_radial_938_25283" cx="0" cy="0" r="1" gradientUnits="userSpaceOnUse" gradientTransform="translate(64.3056 16.4984) scale(4.2322 4.2322)">
<stop stop-color="#FFFF5C"/>
<stop offset="1" stop-color="#D9A435"/>
</radialGradient>
<radialGradient id="paint24_radial_938_25283" cx="0" cy="0" r="1" gradientUnits="userSpaceOnUse" gradientTransform="translate(67.8945 23.5032) scale(4.2322)">
<stop stop-color="#FFFF5C"/>
<stop offset="1" stop-color="#D9A435"/>
</radialGradient>
<radialGradient id="paint25_radial_938_25283" cx="0" cy="0" r="1" gradientUnits="userSpaceOnUse" gradientTransform="translate(69.6309 30.9632) scale(4.2322)">
<stop stop-color="#FFFF5C"/>
<stop offset="1" stop-color="#D9A435"/>
</radialGradient>
<radialGradient id="paint26_radial_938_25283" cx="0" cy="0" r="1" gradientUnits="userSpaceOnUse" gradientTransform="translate(70.2442 38.1666) scale(4.2322 4.2322)">
<stop stop-color="#FFFF5C"/>
<stop offset="1" stop-color="#D9A435"/>
</radialGradient>
<radialGradient id="paint27_radial_938_25283" cx="0" cy="0" r="1" gradientUnits="userSpaceOnUse" gradientTransform="translate(68.537 45.4279) scale(4.2322 4.2322)">
<stop stop-color="#FFFF5C"/>
<stop offset="1" stop-color="#D9A435"/>
</radialGradient>
<radialGradient id="paint28_radial_938_25283" cx="0" cy="0" r="1" gradientUnits="userSpaceOnUse" gradientTransform="translate(65.3984 52.0971) scale(4.2322)">
<stop stop-color="#FFFF5C"/>
<stop offset="1" stop-color="#D9A435"/>
</radialGradient>
<radialGradient id="paint29_radial_938_25283" cx="0" cy="0" r="1" gradientUnits="userSpaceOnUse" gradientTransform="translate(61.6768 57.4841) scale(4.2322)">
<stop stop-color="#FFFF5C"/>
<stop offset="1" stop-color="#D9A435"/>
</radialGradient>
<radialGradient id="paint30_radial_938_25283" cx="0" cy="0" r="1" gradientUnits="userSpaceOnUse" gradientTransform="translate(56.2724 56.3293) scale(4.2322 4.2322)">
<stop stop-color="#FFFF5C"/>
<stop offset="1" stop-color="#D9A435"/>
</radialGradient>
<radialGradient id="paint31_radial_938_25283" cx="0" cy="0" r="1" gradientUnits="userSpaceOnUse" gradientTransform="translate(53.0128 57.2856) scale(7.64442 7.33492)">
<stop offset="0.0002" stop-color="#9AFFEC"/>
<stop offset="1" stop-color="#358AD9"/>
</radialGradient>
<radialGradient id="paint32_radial_938_25283" cx="0" cy="0" r="1" gradientUnits="userSpaceOnUse" gradientTransform="translate(44.4688 62.6769) scale(4.2322)">
<stop stop-color="#FFFF5C"/>
<stop offset="1" stop-color="#D9A435"/>
</radialGradient>
<radialGradient id="paint33_radial_938_25283" cx="0" cy="0" r="1" gradientUnits="userSpaceOnUse" gradientTransform="translate(37.3818 63.3504) scale(4.2322 4.2322)">
<stop stop-color="#FFFF5C"/>
<stop offset="1" stop-color="#D9A435"/>
</radialGradient>
<radialGradient id="paint34_radial_938_25283" cx="0" cy="0" r="1" gradientUnits="userSpaceOnUse" gradientTransform="translate(30.0048 62.6769) scale(4.2322)">
<stop stop-color="#FFFF5C"/>
<stop offset="1" stop-color="#D9A435"/>
</radialGradient>
<radialGradient id="paint35_radial_938_25283" cx="0" cy="0" r="1" gradientUnits="userSpaceOnUse" gradientTransform="translate(23.2715 59.6117) scale(4.2322)">
<stop stop-color="#FFFF5C"/>
<stop offset="1" stop-color="#D9A435"/>
</radialGradient>
<radialGradient id="paint36_radial_938_25283" cx="0" cy="0" r="1" gradientUnits="userSpaceOnUse" gradientTransform="translate(17.9013 55.3795) scale(4.2322)">
<stop stop-color="#FFFF5C"/>
<stop offset="1" stop-color="#D9A435"/>
</radialGradient>
<radialGradient id="paint37_radial_938_25283" cx="0" cy="0" r="1" gradientUnits="userSpaceOnUse" gradientTransform="translate(12.9522 49.6601) scale(4.2322)">
<stop stop-color="#FFFF5C"/>
<stop offset="1" stop-color="#D9A435"/>
</radialGradient>
<radialGradient id="paint38_radial_938_25283" cx="0" cy="0" r="1" gradientUnits="userSpaceOnUse" gradientTransform="translate(10.1182 42.2364) scale(4.2322)">
<stop stop-color="#FFFF5C"/>
<stop offset="1" stop-color="#D9A435"/>
</radialGradient>
<radialGradient id="paint39_radial_938_25283" cx="0" cy="0" r="1" gradientUnits="userSpaceOnUse" gradientTransform="translate(9.08196 35.1953) scale(4.2322)">
<stop stop-color="#FFFF5C"/>
<stop offset="1" stop-color="#D9A435"/>
</radialGradient>
<radialGradient id="paint40_radial_938_25283" cx="0" cy="0" r="1" gradientUnits="userSpaceOnUse" gradientTransform="translate(10.1182 27.7354) scale(4.2322)">
<stop stop-color="#FFFF5C"/>
<stop offset="1" stop-color="#D9A435"/>
</radialGradient>
<radialGradient id="paint41_radial_938_25283" cx="0" cy="0" r="1" gradientUnits="userSpaceOnUse" gradientTransform="translate(13.7548 20.7929) scale(7.46772 8.20708)">
<stop offset="0.0002" stop-color="#9AFFEC"/>
<stop offset="1" stop-color="#358AD9"/>
</radialGradient>
<radialGradient id="paint42_radial_938_25283" cx="0" cy="0" r="1" gradientUnits="userSpaceOnUse" gradientTransform="translate(17.1846 15.5047) scale(4.2322)">
<stop stop-color="#FFFF5C"/>
<stop offset="1" stop-color="#D9A435"/>
</radialGradient>
<radialGradient id="paint43_radial_938_25283" cx="0" cy="0" r="1" gradientUnits="userSpaceOnUse" gradientTransform="translate(22.4257 11.2725) scale(4.2322)">
<stop stop-color="#FFFF5C"/>
<stop offset="1" stop-color="#D9A435"/>
</radialGradient>
<radialGradient id="paint44_radial_938_25283" cx="0" cy="0" r="1" gradientUnits="userSpaceOnUse" gradientTransform="translate(29.0039 8.40541) scale(4.2322)">
<stop stop-color="#FFFF5C"/>
<stop offset="1" stop-color="#D9A435"/>
</radialGradient>
<radialGradient id="paint45_radial_938_25283" cx="0" cy="0" r="1" gradientUnits="userSpaceOnUse" gradientTransform="translate(36.0048 7.04029) scale(4.2322)">
<stop stop-color="#FFFF5C"/>
<stop offset="1" stop-color="#D9A435"/>
</radialGradient>
<radialGradient id="paint46_radial_938_25283" cx="0" cy="0" r="1" gradientUnits="userSpaceOnUse" gradientTransform="translate(43.0048 7.62422) scale(4.2322)">
<stop stop-color="#FFFF5C"/>
<stop offset="1" stop-color="#D9A435"/>
</radialGradient>
<radialGradient id="paint47_radial_938_25283" cx="0" cy="0" r="1" gradientUnits="userSpaceOnUse" gradientTransform="translate(50.0782 10.0037) scale(4.2322)">
<stop stop-color="#FFFF5C"/>
<stop offset="1" stop-color="#D9A435"/>
</radialGradient>
<radialGradient id="paint48_radial_938_25283" cx="0" cy="0" r="1" gradientUnits="userSpaceOnUse" gradientTransform="translate(56.2724 14.6473) scale(4.2322)">
<stop stop-color="#FFFF5C"/>
<stop offset="1" stop-color="#D9A435"/>
</radialGradient>
<radialGradient id="paint49_radial_938_25283" cx="0" cy="0" r="1" gradientUnits="userSpaceOnUse" gradientTransform="translate(61.1659 20.7306) scale(4.2322)">
<stop stop-color="#FFFF5C"/>
<stop offset="1" stop-color="#D9A435"/>
</radialGradient>
<radialGradient id="paint50_radial_938_25283" cx="0" cy="0" r="1" gradientUnits="userSpaceOnUse" gradientTransform="translate(64.3056 28.4505) scale(4.2322 4.2322)">
<stop stop-color="#FFFF5C"/>
<stop offset="1" stop-color="#D9A435"/>
</radialGradient>
<radialGradient id="paint51_radial_938_25283" cx="0" cy="0" r="1" gradientUnits="userSpaceOnUse" gradientTransform="translate(65.2275 35.1953) scale(4.2322 4.2322)">
<stop stop-color="#FFFF5C"/>
<stop offset="1" stop-color="#D9A435"/>
</radialGradient>
<radialGradient id="paint52_radial_938_25283" cx="0" cy="0" r="1" gradientUnits="userSpaceOnUse" gradientTransform="translate(64.7051 41.8661) scale(4.2322)">
<stop stop-color="#FFFF5C"/>
<stop offset="1" stop-color="#D9A435"/>
</radialGradient>
<radialGradient id="paint53_radial_938_25283" cx="0" cy="0" r="1" gradientUnits="userSpaceOnUse" gradientTransform="translate(62.2626 48.3076) scale(4.2322)">
<stop stop-color="#FFFF5C"/>
<stop offset="1" stop-color="#D9A435"/>
</radialGradient>
<radialGradient id="paint54_radial_938_25283" cx="0" cy="0" r="1" gradientUnits="userSpaceOnUse" gradientTransform="translate(58.0302 53.8923) scale(4.2322)">
<stop stop-color="#FFFF5C"/>
<stop offset="1" stop-color="#D9A435"/>
</radialGradient>
<radialGradient id="paint55_radial_938_25283" cx="0" cy="0" r="1" gradientUnits="userSpaceOnUse" gradientTransform="translate(52.04 53.2519) scale(4.2322)">
<stop stop-color="#FFFF5C"/>
<stop offset="1" stop-color="#D9A435"/>
</radialGradient>
<radialGradient id="paint56_radial_938_25283" cx="0" cy="0" r="1" gradientUnits="userSpaceOnUse" gradientTransform="translate(35.122 11.8564) scale(4.2322)">
<stop stop-color="#FFFF5C"/>
<stop offset="1" stop-color="#D9A435"/>
</radialGradient>
<radialGradient id="paint57_radial_938_25283" cx="0" cy="0" r="1" gradientUnits="userSpaceOnUse" gradientTransform="translate(29.0039 13.2884) scale(4.2322)">
<stop stop-color="#FFFF5C"/>
<stop offset="1" stop-color="#D9A435"/>
</radialGradient>
<radialGradient id="paint58_radial_938_25283" cx="0" cy="0" r="1" gradientUnits="userSpaceOnUse" gradientTransform="translate(23.9091 16.0886) scale(4.2322)">
<stop stop-color="#FFFF5C"/>
<stop offset="1" stop-color="#D9A435"/>
</radialGradient>
<radialGradient id="paint59_radial_938_25283" cx="0" cy="0" r="1" gradientUnits="userSpaceOnUse" gradientTransform="translate(46.9336 56.3293) scale(4.2322 4.2322)">
<stop stop-color="#FFFF5C"/>
<stop offset="1" stop-color="#D9A435"/>
</radialGradient>
<radialGradient id="paint60_radial_938_25283" cx="0" cy="0" r="1" gradientUnits="userSpaceOnUse" gradientTransform="translate(41.4688 58.4447) scale(4.2322 4.2322)">
<stop stop-color="#FFFF5C"/>
<stop offset="1" stop-color="#D9A435"/>
</radialGradient>
<radialGradient id="paint61_radial_938_25283" cx="0" cy="0" r="1" gradientUnits="userSpaceOnUse" gradientTransform="translate(34.497 58.4447) scale(4.2322)">
<stop stop-color="#FFFF5C"/>
<stop offset="1" stop-color="#D9A435"/>
</radialGradient>
<radialGradient id="paint62_radial_938_25283" cx="0" cy="0" r="1" gradientUnits="userSpaceOnUse" gradientTransform="translate(28.7724 57.1023) scale(4.2322 4.2322)">
<stop stop-color="#FFFF5C"/>
<stop offset="1" stop-color="#D9A435"/>
</radialGradient>
<radialGradient id="paint63_radial_938_25283" cx="0" cy="0" r="1" gradientUnits="userSpaceOnUse" gradientTransform="translate(23.9091 54.2125) scale(4.2322)">
<stop stop-color="#FFFF5C"/>
<stop offset="1" stop-color="#D9A435"/>
</radialGradient>
<radialGradient id="paint64_radial_938_25283" cx="0" cy="0" r="1" gradientUnits="userSpaceOnUse" gradientTransform="translate(19.6768 50.3305) scale(4.2322)">
<stop stop-color="#FFFF5C"/>
<stop offset="1" stop-color="#D9A435"/>
</radialGradient>
<radialGradient id="paint65_radial_938_25283" cx="0" cy="0" r="1" gradientUnits="userSpaceOnUse" gradientTransform="translate(16.0761 44.7875) scale(4.2322 4.2322)">
<stop stop-color="#FFFF5C"/>
<stop offset="1" stop-color="#D9A435"/>
</radialGradient>
<radialGradient id="paint66_radial_938_25283" cx="0" cy="0" r="1" gradientUnits="userSpaceOnUse" gradientTransform="translate(14.3506 38.1666) scale(4.2322 4.2322)">
<stop stop-color="#FFFF5C"/>
<stop offset="1" stop-color="#D9A435"/>
</radialGradient>
<radialGradient id="paint67_radial_938_25283" cx="0" cy="0" r="1" gradientUnits="userSpaceOnUse" gradientTransform="translate(14.3506 31.9676) scale(4.2322)">
<stop stop-color="#FFFF5C"/>
<stop offset="1" stop-color="#D9A435"/>
</radialGradient>
<radialGradient id="paint68_radial_938_25283" cx="0" cy="0" r="1" gradientUnits="userSpaceOnUse" gradientTransform="translate(15.4453 26.731) scale(4.2322)">
<stop stop-color="#FFFF5C"/>
<stop offset="1" stop-color="#D9A435"/>
</radialGradient>
<radialGradient id="paint69_radial_938_25283" cx="0" cy="0" r="1" gradientUnits="userSpaceOnUse" gradientTransform="translate(19.0401 21.2379) scale(4.2322)">
<stop stop-color="#FFFF5C"/>
<stop offset="1" stop-color="#D9A435"/>
</radialGradient>
<radialGradient id="paint70_radial_938_25283" cx="0" cy="0" r="1" gradientUnits="userSpaceOnUse" gradientTransform="translate(42.2959 12.6376) scale(4.2322)">
<stop stop-color="#FFFF5C"/>
<stop offset="1" stop-color="#D9A435"/>
</radialGradient>
<radialGradient id="paint71_radial_938_25283" cx="0" cy="0" r="1" gradientUnits="userSpaceOnUse" gradientTransform="translate(48.4697 14.6473) scale(4.2322)">
<stop stop-color="#FFFF5C"/>
<stop offset="1" stop-color="#D9A435"/>
</radialGradient>
<radialGradient id="paint72_radial_938_25283" cx="0" cy="0" r="1" gradientUnits="userSpaceOnUse" gradientTransform="translate(51.9295 17.6883) scale(6.93612 7.52263)">
<stop offset="0.0002" stop-color="#9AFFEC"/>
<stop offset="1" stop-color="#358AD9"/>
</radialGradient>
<radialGradient id="paint73_radial_938_25283" cx="0" cy="0" r="1" gradientUnits="userSpaceOnUse" gradientTransform="translate(58.0302 24.9628) scale(4.2322)">
<stop stop-color="#FFFF5C"/>
<stop offset="1" stop-color="#D9A435"/>
</radialGradient>
<radialGradient id="paint74_radial_938_25283" cx="0" cy="0" r="1" gradientUnits="userSpaceOnUse" gradientTransform="translate(60.0732 33.0393) scale(4.2322)">
<stop stop-color="#FFFF5C"/>
<stop offset="1" stop-color="#D9A435"/>
</radialGradient>
<radialGradient id="paint75_radial_938_25283" cx="0" cy="0" r="1" gradientUnits="userSpaceOnUse" gradientTransform="translate(60.0732 40.8603) scale(4.2322)">
<stop stop-color="#FFFF5C"/>
<stop offset="1" stop-color="#D9A435"/>
</radialGradient>
<radialGradient id="paint76_radial_938_25283" cx="0" cy="0" r="1" gradientUnits="userSpaceOnUse" gradientTransform="translate(56.9335 47.865) scale(4.2322)">
<stop stop-color="#FFFF5C"/>
<stop offset="1" stop-color="#D9A435"/>
</radialGradient>
<radialGradient id="paint77_radial_938_25283" cx="0" cy="0" r="1" gradientUnits="userSpaceOnUse" gradientTransform="translate(44.9999 51.1473) scale(4.2322)">
<stop stop-color="#FFFF5C"/>
<stop offset="1" stop-color="#D9A435"/>
</radialGradient>
<radialGradient id="paint78_radial_938_25283" cx="0" cy="0" r="1" gradientUnits="userSpaceOnUse" gradientTransform="translate(38.4687 52.8701) scale(4.2322)">
<stop stop-color="#FFFF5C"/>
<stop offset="1" stop-color="#D9A435"/>
</radialGradient>
<radialGradient id="paint79_radial_938_25283" cx="0" cy="0" r="1" gradientUnits="userSpaceOnUse" gradientTransform="translate(32.3311 52.0971) scale(4.2322 4.2322)">
<stop stop-color="#FFFF5C"/>
<stop offset="1" stop-color="#D9A435"/>
</radialGradient>
<radialGradient id="paint80_radial_938_25283" cx="0" cy="0" r="1" gradientUnits="userSpaceOnUse" gradientTransform="translate(27.5039 49.6601) scale(4.2322)">
<stop stop-color="#FFFF5C"/>
<stop offset="1" stop-color="#D9A435"/>
</radialGradient>
<radialGradient id="paint81_radial_938_25283" cx="0" cy="0" r="1" gradientUnits="userSpaceOnUse" gradientTransform="translate(23.9091 46.4686) scale(4.2322)">
<stop stop-color="#FFFF5C"/>
<stop offset="1" stop-color="#D9A435"/>
</radialGradient>
<radialGradient id="paint82_radial_938_25283" cx="0" cy="0" r="1" gradientUnits="userSpaceOnUse" gradientTransform="translate(20.9551 41.8661) scale(4.2322)">
<stop stop-color="#FFFF5C"/>
<stop offset="1" stop-color="#D9A435"/>
</radialGradient>
<radialGradient id="paint83_radial_938_25283" cx="0" cy="0" r="1" gradientUnits="userSpaceOnUse" gradientTransform="translate(19.6768 35.1953) scale(4.2322)">
<stop stop-color="#FFFF5C"/>
<stop offset="1" stop-color="#D9A435"/>
</radialGradient>
<radialGradient id="paint84_radial_938_25283" cx="0" cy="0" r="1" gradientUnits="userSpaceOnUse" gradientTransform="translate(20.9551 28.8071) scale(4.2322)">
<stop stop-color="#FFFF5C"/>
<stop offset="1" stop-color="#D9A435"/>
</radialGradient>
<radialGradient id="paint85_radial_938_25283" cx="0" cy="0" r="1" gradientUnits="userSpaceOnUse" gradientTransform="translate(24.54 23.1117) scale(4.2322)">
<stop stop-color="#FFFF5C"/>
<stop offset="1" stop-color="#D9A435"/>
</radialGradient>
<radialGradient id="paint86_radial_938_25283" cx="0" cy="0" r="1" gradientUnits="userSpaceOnUse" gradientTransform="translate(28.7724 19.53) scale(4.2322)">
<stop stop-color="#FFFF5C"/>
<stop offset="1" stop-color="#D9A435"/>
</radialGradient>
<radialGradient id="paint87_radial_938_25283" cx="0" cy="0" r="1" gradientUnits="userSpaceOnUse" gradientTransform="translate(34.4688 17.5206) scale(4.2322)">
<stop stop-color="#FFFF5C"/>
<stop offset="1" stop-color="#D9A435"/>
</radialGradient>
<radialGradient id="paint88_radial_938_25283" cx="0" cy="0" r="1" gradientUnits="userSpaceOnUse" gradientTransform="translate(40.2373 17.8306) scale(4.2322 4.2322)">
<stop stop-color="#FFFF5C"/>
<stop offset="1" stop-color="#D9A435"/>
</radialGradient>
<radialGradient id="paint89_radial_938_25283" cx="0" cy="0" r="1" gradientUnits="userSpaceOnUse" gradientTransform="translate(45.8467 19.9861) scale(4.2322)">
<stop stop-color="#FFFF5C"/>
<stop offset="1" stop-color="#D9A435"/>
</radialGradient>
<radialGradient id="paint90_radial_938_25283" cx="0" cy="0" r="1" gradientUnits="userSpaceOnUse" gradientTransform="translate(50.6797 23.7622) scale(4.2322)">
<stop stop-color="#FFFF5C"/>
<stop offset="1" stop-color="#D9A435"/>
</radialGradient>
<radialGradient id="paint91_radial_938_25283" cx="0" cy="0" r="1" gradientUnits="userSpaceOnUse" gradientTransform="translate(53.7978 29.195) scale(4.2322)">
<stop stop-color="#FFFF5C"/>
<stop offset="1" stop-color="#D9A435"/>
</radialGradient>
<radialGradient id="paint92_radial_938_25283" cx="0" cy="0" r="1" gradientUnits="userSpaceOnUse" gradientTransform="translate(54.9112 35.1953) scale(4.2322)">
<stop stop-color="#FFFF5C"/>
<stop offset="1" stop-color="#D9A435"/>
</radialGradient>
<radialGradient id="paint93_radial_938_25283" cx="0" cy="0" r="1" gradientUnits="userSpaceOnUse" gradientTransform="translate(53.7978 41.1957) scale(4.2322)">
<stop stop-color="#FFFF5C"/>
<stop offset="1" stop-color="#D9A435"/>
</radialGradient>
<radialGradient id="paint94_radial_938_25283" cx="0" cy="0" r="1" gradientUnits="userSpaceOnUse" gradientTransform="translate(50.0782 47.4108) scale(4.2322)">
<stop stop-color="#FFFF5C"/>
<stop offset="1" stop-color="#D9A435"/>
</radialGradient>
<radialGradient id="paint95_radial_938_25283" cx="0" cy="0" r="1" gradientUnits="userSpaceOnUse" gradientTransform="translate(42.7012 46.0983) scale(4.2322 4.2322)">
<stop stop-color="#FFFF5C"/>
<stop offset="1" stop-color="#D9A435"/>
</radialGradient>
<radialGradient id="paint96_radial_938_25283" cx="0" cy="0" r="1" gradientUnits="userSpaceOnUse" gradientTransform="translate(36.5635 47.4108) scale(4.2322 4.2322)">
<stop stop-color="#FFFF5C"/>
<stop offset="1" stop-color="#D9A435"/>
</radialGradient>
<radialGradient id="paint97_radial_938_25283" cx="0" cy="0" r="1" gradientUnits="userSpaceOnUse" gradientTransform="translate(30.2646 46.4686) scale(4.2322)">
<stop stop-color="#FFFF5C"/>
<stop offset="1" stop-color="#D9A435"/>
</radialGradient>
<radialGradient id="paint98_radial_938_25283" cx="0" cy="0" r="1" gradientUnits="userSpaceOnUse" gradientTransform="translate(26.339 39.4994) scale(6.5364)">
<stop offset="0.0002" stop-color="#9AFFEC"/>
<stop offset="1" stop-color="#358AD9"/>
</radialGradient>
<radialGradient id="paint99_radial_938_25283" cx="0" cy="0" r="1" gradientUnits="userSpaceOnUse" gradientTransform="translate(23.9091 35.1953) scale(4.2322)">
<stop stop-color="#FFFF5C"/>
<stop offset="1" stop-color="#D9A435"/>
</radialGradient>
<radialGradient id="paint100_radial_938_25283" cx="0" cy="0" r="1" gradientUnits="userSpaceOnUse" gradientTransform="translate(26.6581 29.195) scale(4.2322)">
<stop stop-color="#FFFF5C"/>
<stop offset="1" stop-color="#D9A435"/>
</radialGradient>
<radialGradient id="paint101_radial_938_25283" cx="0" cy="0" r="1" gradientUnits="userSpaceOnUse" gradientTransform="translate(31.4073 24.2183) scale(4.2322)">
<stop stop-color="#FFFF5C"/>
<stop offset="1" stop-color="#D9A435"/>
</radialGradient>
<radialGradient id="paint102_radial_938_25283" cx="0" cy="0" r="1" gradientUnits="userSpaceOnUse" gradientTransform="translate(38.0635 22.7707) scale(4.2322)">
<stop stop-color="#FFFF5C"/>
<stop offset="1" stop-color="#D9A435"/>
</radialGradient>
<radialGradient id="paint103_radial_938_25283" cx="0" cy="0" r="1" gradientUnits="userSpaceOnUse" gradientTransform="translate(44.9999 24.575) scale(4.2322)">
<stop stop-color="#FFFF5C"/>
<stop offset="1" stop-color="#D9A435"/>
</radialGradient>
<radialGradient id="paint104_radial_938_25283" cx="0" cy="0" r="1" gradientUnits="userSpaceOnUse" gradientTransform="translate(48.4697 29.7022) scale(4.2322)">
<stop stop-color="#FFFF5C"/>
<stop offset="1" stop-color="#D9A435"/>
</radialGradient>
<radialGradient id="paint105_radial_938_25283" cx="0" cy="0" r="1" gradientUnits="userSpaceOnUse" gradientTransform="translate(50.0782 36.1998) scale(4.2322 4.2322)">
<stop stop-color="#FFFF5C"/>
<stop offset="1" stop-color="#D9A435"/>
</radialGradient>
<radialGradient id="paint106_radial_938_25283" cx="0" cy="0" r="1" gradientUnits="userSpaceOnUse" gradientTransform="translate(47.2372 41.8661) scale(4.2322 4.2322)">
<stop stop-color="#FFFF5C"/>
<stop offset="1" stop-color="#D9A435"/>
</radialGradient>
<radialGradient id="paint107_radial_938_25283" cx="0" cy="0" r="1" gradientUnits="userSpaceOnUse" gradientTransform="translate(40.2373 41.1957) scale(4.2322 4.2322)">
<stop stop-color="#FFFF5C"/>
<stop offset="1" stop-color="#D9A435"/>
</radialGradient>
<radialGradient id="paint108_radial_938_25283" cx="0" cy="0" r="1" gradientUnits="userSpaceOnUse" gradientTransform="translate(33.2364 41.1957) scale(4.2322)">
<stop stop-color="#FFFF5C"/>
<stop offset="1" stop-color="#D9A435"/>
</radialGradient>
<radialGradient id="paint109_radial_938_25283" cx="0" cy="0" r="1" gradientUnits="userSpaceOnUse" gradientTransform="translate(30.2364 35.1953) scale(4.2322)">
<stop stop-color="#FFFF5C"/>
<stop offset="1" stop-color="#D9A435"/>
</radialGradient>
<radialGradient id="paint110_radial_938_25283" cx="0" cy="0" r="1" gradientUnits="userSpaceOnUse" gradientTransform="translate(34.2363 29.195) scale(4.2322)">
<stop stop-color="#FFFF5C"/>
<stop offset="1" stop-color="#D9A435"/>
</radialGradient>
<radialGradient id="paint111_radial_938_25283" cx="0" cy="0" r="1" gradientUnits="userSpaceOnUse" gradientTransform="translate(41.2373 29.195) scale(4.2322)">
<stop stop-color="#FFFF5C"/>
<stop offset="1" stop-color="#D9A435"/>
</radialGradient>
<radialGradient id="paint112_radial_938_25283" cx="0" cy="0" r="1" gradientUnits="userSpaceOnUse" gradientTransform="translate(44.2372 35.1953) scale(4.2322)">
<stop stop-color="#FFFF5C"/>
<stop offset="1" stop-color="#D9A435"/>
</radialGradient>
<radialGradient id="paint113_radial_938_25283" cx="0" cy="0" r="1" gradientUnits="userSpaceOnUse" gradientTransform="translate(37.2372 35.1953) scale(4.2322 4.2322)">
<stop stop-color="#FFFF5C"/>
<stop offset="1" stop-color="#D9A435"/>
</radialGradient>
</defs>
</svg>
