<svg width="92" height="99" viewBox="0 0 92 99" fill="none" xmlns="http://www.w3.org/2000/svg">
<g id="R-ICO-012968">
<path id="Vector" d="M57.1469 11.5002C57.1469 17.2107 52.6035 23.5544 51.8747 34.0906C50.7756 49.9825 52.562 68.1814 45.6467 68.1814C38.7314 68.1814 40.5179 49.9829 39.4187 34.0912C38.6899 23.5548 34.1465 17.2107 34.1465 11.5002C34.1465 5.1488 39.2953 0 45.6467 0C51.9981 0 57.1469 5.1488 57.1469 11.5002Z" fill="url(#paint0_radial_938_24328)"/>
<g id="Group">
<path id="Vector_2" d="M71.6059 13.0147C71.6059 19.578 66.3052 25.8262 65.5765 36.3624C64.4774 52.2543 66.2638 69.696 59.3485 69.696C52.4332 69.696 54.2197 51.4975 53.1205 35.6058C52.3917 25.0694 48.6055 18.7253 48.6055 13.0148C48.6055 6.66339 53.7543 1.51459 60.1057 1.51459C66.4571 1.51459 71.6059 6.66329 71.6059 13.0147Z" fill="url(#paint1_radial_938_24328)"/>
<path id="Vector_3" d="M19.6885 13.0147C19.6885 19.578 24.9892 25.8262 25.7179 36.3624C26.817 52.2543 25.0306 69.696 31.9459 69.696C38.8612 69.696 37.0747 51.4975 38.1739 35.6058C38.9027 25.0694 42.6889 18.7253 42.6889 13.0148C42.6889 6.66339 37.5401 1.51459 31.1887 1.51459C24.8373 1.51459 19.6885 6.66329 19.6885 13.0147Z" fill="url(#paint2_radial_938_24328)"/>
</g>
<g id="Group_2">
<path id="Vector_4" d="M81.4496 16.0437C81.4496 23.4598 75.3917 29.6124 74.6629 40.1486C73.5638 56.0405 75.3502 72.7249 68.4349 72.7249C61.5196 72.7249 63.3061 54.5264 62.2069 38.6347C61.4781 28.0983 58.4492 21.7542 58.4492 16.0437C58.4492 9.69232 63.598 4.54352 69.9494 4.54352C76.3008 4.54352 81.4496 9.69232 81.4496 16.0437Z" fill="url(#paint3_radial_938_24328)"/>
<path id="Vector_5" d="M9.84375 16.0437C9.84375 23.4598 15.9017 29.6124 16.6305 40.1486C17.7296 56.0405 15.9432 72.7249 22.8585 72.7249C29.7738 72.7249 27.9872 54.5264 29.0864 38.6347C29.8152 28.0983 32.8442 21.7542 32.8442 16.0437C32.8442 9.69232 27.6953 4.54352 21.3439 4.54352C14.9925 4.54352 9.84375 9.69232 9.84375 16.0437Z" fill="url(#paint4_radial_938_24328)"/>
</g>
<g id="Group_3">
<path id="Vector_6" d="M88.2651 20.5871C88.2651 28.856 81.4499 34.9131 80.7212 45.4493C79.6221 61.3412 81.4084 77.2684 74.4931 77.2684C67.5778 77.2684 69.3644 59.0699 68.2652 43.1782C67.5364 32.6418 65.2646 26.2977 65.2646 20.5872C65.2646 14.2358 70.4135 9.08698 76.7649 9.08698C83.1163 9.08688 88.2651 14.2357 88.2651 20.5871Z" fill="url(#paint5_radial_938_24328)"/>
<path id="Vector_7" d="M3.0293 20.5871C3.0293 28.856 9.8445 34.9131 10.5732 45.4493C11.6723 61.3412 9.8859 77.2684 16.8012 77.2684C23.7165 77.2684 21.93 59.0699 23.0292 43.1782C23.758 32.6418 26.0297 26.2977 26.0297 20.5872C26.0297 14.2358 20.8809 9.08698 14.5295 9.08698C8.1781 9.08698 3.0293 14.2357 3.0293 20.5871Z" fill="url(#paint6_radial_938_24328)"/>
</g>
<g id="Group_4">
<path id="Vector_8" d="M91.2933 25.1306C91.2933 34.2523 83.7209 40.2138 82.9922 50.75C81.8931 66.6419 83.6795 81.8119 76.7642 81.8119C69.8489 81.8119 71.6354 63.6134 70.5362 47.7217C69.8074 37.1853 68.293 30.8412 68.293 25.1307C68.293 18.7793 73.4418 13.6305 79.7932 13.6305C86.1446 13.6305 91.2933 18.7792 91.2933 25.1306Z" fill="url(#paint7_radial_938_24328)"/>
<path id="Vector_9" d="M0 25.1306C0 34.2523 7.5724 40.2138 8.3011 50.75C9.4002 66.6419 7.6138 81.8119 14.5291 81.8119C21.4444 81.8119 19.6579 63.6134 20.7571 47.7217C21.4859 37.1853 23.0003 30.8412 23.0003 25.1307C23.0003 18.7793 17.8515 13.6305 11.5001 13.6305C5.1487 13.6305 0 18.7792 0 25.1306Z" fill="url(#paint8_radial_938_24328)"/>
</g>
<g id="Group_5">
<path id="Vector_10" d="M88.2651 31.1885C88.2651 39.4574 81.4499 45.5145 80.7212 56.0507C79.6221 71.9426 81.4084 87.8698 74.4931 87.8698C67.5778 87.8698 69.3644 69.6713 68.2652 53.7796C67.5364 43.2432 65.2646 36.8991 65.2646 31.1886C65.2646 24.8372 70.4135 19.6884 76.7649 19.6884C83.1163 19.6883 88.2651 24.8371 88.2651 31.1885Z" fill="url(#paint9_radial_938_24328)"/>
<path id="Vector_11" d="M3.0293 31.1885C3.0293 39.4574 9.8445 45.5145 10.5732 56.0507C11.6723 71.9426 9.8859 87.8698 16.8012 87.8698C23.7165 87.8698 21.93 69.6713 23.0292 53.7796C23.758 43.2432 26.0297 36.8991 26.0297 31.1886C26.0297 24.8372 20.8809 19.6884 14.5295 19.6884C8.1781 19.6884 3.0293 24.8371 3.0293 31.1885Z" fill="url(#paint10_radial_938_24328)"/>
</g>
<g id="Group_6">
<path id="Vector_12" d="M81.4496 35.7319C81.4496 43.148 75.3917 49.3006 74.6629 59.8368C73.5638 75.7287 75.3502 92.4131 68.4349 92.4131C61.5196 92.4131 63.3061 74.2146 62.2069 58.3229C61.4781 47.7865 58.4492 41.4424 58.4492 35.7319C58.4492 29.3805 63.598 24.2317 69.9494 24.2317C76.3008 24.2317 81.4496 29.3806 81.4496 35.7319Z" fill="url(#paint11_radial_938_24328)"/>
<path id="Vector_13" d="M9.84375 35.7319C9.84375 43.148 15.9017 49.3006 16.6305 59.8368C17.7296 75.7287 15.9432 92.4131 22.8585 92.4131C29.7738 92.4131 27.9872 74.2146 29.0864 58.3229C29.8152 47.7865 32.8442 41.4424 32.8442 35.7319C32.8442 29.3805 27.6953 24.2317 21.3439 24.2317C14.9925 24.2317 9.84375 29.3806 9.84375 35.7319Z" fill="url(#paint12_radial_938_24328)"/>
</g>
<g id="Group_7">
<path id="Vector_14" d="M70.0912 38.7608C70.0912 45.3241 64.7905 51.5723 64.0618 62.1085C62.9627 78.0004 64.7491 95.4421 57.8338 95.4421C50.9185 95.4421 52.705 77.2436 51.6058 61.3519C50.877 50.8155 47.0908 44.4714 47.0908 38.7609C47.0908 32.4095 52.2396 27.2607 58.591 27.2607C64.9424 27.2606 70.0912 32.4094 70.0912 38.7608Z" fill="url(#paint13_radial_938_24328)"/>
<path id="Vector_15" d="M21.2031 38.7608C21.2031 45.3241 26.5038 51.5723 27.2325 62.1085C28.3316 78.0004 26.5452 95.4421 33.4605 95.4421C40.3758 95.4421 38.5893 77.2436 39.6885 61.3519C40.4173 50.8155 44.2035 44.4714 44.2035 38.7609C44.2035 32.4095 39.0547 27.2607 32.7033 27.2607C26.3519 27.2607 21.2031 32.4094 21.2031 38.7608Z" fill="url(#paint14_radial_938_24328)"/>
</g>
<path id="Vector_16" d="M57.1469 41.7899C57.1469 47.5004 52.6035 53.8441 51.8747 64.3803C50.7756 80.2722 52.562 98.4711 45.6467 98.4711C38.7314 98.4711 40.5179 80.2726 39.4187 64.3809C38.6899 53.8445 34.1465 47.5004 34.1465 41.7899C34.1465 35.4385 39.2953 30.2897 45.6467 30.2897C51.9981 30.2897 57.1469 35.4385 57.1469 41.7899Z" fill="url(#paint15_radial_938_24328)"/>
</g>
<defs>
<radialGradient id="paint0_radial_938_24328" cx="0" cy="0" r="1" gradientUnits="userSpaceOnUse" gradientTransform="translate(46.2458 4.2161) rotate(180) scale(66.3237 66.3237)">
<stop stop-color="#52C4D4"/>
<stop offset="0.1431" stop-color="#2D6C75"/>
<stop offset="0.2966" stop-color="#204E54"/>
<stop offset="0.4454" stop-color="#2D6C75"/>
<stop offset="1" stop-color="#1F4D53"/>
</radialGradient>
<radialGradient id="paint1_radial_938_24328" cx="0" cy="0" r="1" gradientUnits="userSpaceOnUse" gradientTransform="translate(60.7048 5.73069) rotate(180) scale(66.3237 66.3237)">
<stop stop-color="#52C4D4"/>
<stop offset="0.1431" stop-color="#2D6C75"/>
<stop offset="0.2966" stop-color="#204E54"/>
<stop offset="0.4454" stop-color="#2D6C75"/>
<stop offset="1" stop-color="#1F4D53"/>
</radialGradient>
<radialGradient id="paint2_radial_938_24328" cx="0" cy="0" r="1" gradientUnits="userSpaceOnUse" gradientTransform="translate(31.7878 5.73069) rotate(180) scale(66.3237 66.3237)">
<stop stop-color="#52C4D4"/>
<stop offset="0.1431" stop-color="#2D6C75"/>
<stop offset="0.2966" stop-color="#204E54"/>
<stop offset="0.4454" stop-color="#2D6C75"/>
<stop offset="1" stop-color="#1F4D53"/>
</radialGradient>
<radialGradient id="paint3_radial_938_24328" cx="0" cy="0" r="1" gradientUnits="userSpaceOnUse" gradientTransform="translate(70.5485 8.75962) rotate(180) scale(66.3237 66.3237)">
<stop stop-color="#52C4D4"/>
<stop offset="0.1431" stop-color="#2D6C75"/>
<stop offset="0.2966" stop-color="#204E54"/>
<stop offset="0.4454" stop-color="#2D6C75"/>
<stop offset="1" stop-color="#1F4D53"/>
</radialGradient>
<radialGradient id="paint4_radial_938_24328" cx="0" cy="0" r="1" gradientUnits="userSpaceOnUse" gradientTransform="translate(21.943 8.75962) rotate(180) scale(66.3237 66.3237)">
<stop stop-color="#52C4D4"/>
<stop offset="0.1431" stop-color="#2D6C75"/>
<stop offset="0.2966" stop-color="#204E54"/>
<stop offset="0.4454" stop-color="#2D6C75"/>
<stop offset="1" stop-color="#1F4D53"/>
</radialGradient>
<radialGradient id="paint5_radial_938_24328" cx="0" cy="0" r="1" gradientUnits="userSpaceOnUse" gradientTransform="translate(77.364 13.3031) rotate(180) scale(66.3237 66.3237)">
<stop stop-color="#52C4D4"/>
<stop offset="0.1431" stop-color="#2D6C75"/>
<stop offset="0.2966" stop-color="#204E54"/>
<stop offset="0.4454" stop-color="#2D6C75"/>
<stop offset="1" stop-color="#1F4D53"/>
</radialGradient>
<radialGradient id="paint6_radial_938_24328" cx="0" cy="0" r="1" gradientUnits="userSpaceOnUse" gradientTransform="translate(15.1286 13.3031) rotate(180) scale(66.3237 66.3237)">
<stop stop-color="#52C4D4"/>
<stop offset="0.1431" stop-color="#2D6C75"/>
<stop offset="0.2966" stop-color="#204E54"/>
<stop offset="0.4454" stop-color="#2D6C75"/>
<stop offset="1" stop-color="#1F4D53"/>
</radialGradient>
<radialGradient id="paint7_radial_938_24328" cx="0" cy="0" r="1" gradientUnits="userSpaceOnUse" gradientTransform="translate(80.3922 17.8466) rotate(180) scale(66.3234 66.3237)">
<stop stop-color="#52C4D4"/>
<stop offset="0.1431" stop-color="#2D6C75"/>
<stop offset="0.2966" stop-color="#204E54"/>
<stop offset="0.4454" stop-color="#2D6C75"/>
<stop offset="1" stop-color="#1F4D53"/>
</radialGradient>
<radialGradient id="paint8_radial_938_24328" cx="0" cy="0" r="1" gradientUnits="userSpaceOnUse" gradientTransform="translate(12.0992 17.8466) rotate(180) scale(66.3234 66.3237)">
<stop stop-color="#52C4D4"/>
<stop offset="0.1431" stop-color="#2D6C75"/>
<stop offset="0.2966" stop-color="#204E54"/>
<stop offset="0.4454" stop-color="#2D6C75"/>
<stop offset="1" stop-color="#1F4D53"/>
</radialGradient>
<radialGradient id="paint9_radial_938_24328" cx="0" cy="0" r="1" gradientUnits="userSpaceOnUse" gradientTransform="translate(77.364 23.9045) rotate(180) scale(66.3237 66.3237)">
<stop stop-color="#52C4D4"/>
<stop offset="0.1431" stop-color="#2D6C75"/>
<stop offset="0.2966" stop-color="#204E54"/>
<stop offset="0.4454" stop-color="#2D6C75"/>
<stop offset="1" stop-color="#1F4D53"/>
</radialGradient>
<radialGradient id="paint10_radial_938_24328" cx="0" cy="0" r="1" gradientUnits="userSpaceOnUse" gradientTransform="translate(15.1286 23.9045) rotate(180) scale(66.3237 66.3237)">
<stop stop-color="#52C4D4"/>
<stop offset="0.1431" stop-color="#2D6C75"/>
<stop offset="0.2966" stop-color="#204E54"/>
<stop offset="0.4454" stop-color="#2D6C75"/>
<stop offset="1" stop-color="#1F4D53"/>
</radialGradient>
<radialGradient id="paint11_radial_938_24328" cx="0" cy="0" r="1" gradientUnits="userSpaceOnUse" gradientTransform="translate(70.5485 28.4478) rotate(180) scale(66.3237 66.3237)">
<stop stop-color="#52C4D4"/>
<stop offset="0.1431" stop-color="#2D6C75"/>
<stop offset="0.2966" stop-color="#204E54"/>
<stop offset="0.4454" stop-color="#2D6C75"/>
<stop offset="1" stop-color="#1F4D53"/>
</radialGradient>
<radialGradient id="paint12_radial_938_24328" cx="0" cy="0" r="1" gradientUnits="userSpaceOnUse" gradientTransform="translate(21.943 28.4478) rotate(180) scale(66.3237 66.3237)">
<stop stop-color="#52C4D4"/>
<stop offset="0.1431" stop-color="#2D6C75"/>
<stop offset="0.2966" stop-color="#204E54"/>
<stop offset="0.4454" stop-color="#2D6C75"/>
<stop offset="1" stop-color="#1F4D53"/>
</radialGradient>
<radialGradient id="paint13_radial_938_24328" cx="0" cy="0" r="1" gradientUnits="userSpaceOnUse" gradientTransform="translate(59.1901 31.4768) rotate(180) scale(66.3237 66.3237)">
<stop stop-color="#52C4D4"/>
<stop offset="0.1431" stop-color="#2D6C75"/>
<stop offset="0.2966" stop-color="#204E54"/>
<stop offset="0.4454" stop-color="#2D6C75"/>
<stop offset="1" stop-color="#1F4D53"/>
</radialGradient>
<radialGradient id="paint14_radial_938_24328" cx="0" cy="0" r="1" gradientUnits="userSpaceOnUse" gradientTransform="translate(33.3024 31.4768) rotate(180) scale(66.3237 66.3237)">
<stop stop-color="#52C4D4"/>
<stop offset="0.1431" stop-color="#2D6C75"/>
<stop offset="0.2966" stop-color="#204E54"/>
<stop offset="0.4454" stop-color="#2D6C75"/>
<stop offset="1" stop-color="#1F4D53"/>
</radialGradient>
<radialGradient id="paint15_radial_938_24328" cx="0" cy="0" r="1" gradientUnits="userSpaceOnUse" gradientTransform="translate(46.2458 34.5058) rotate(180) scale(66.3237 66.3237)">
<stop stop-color="#52C4D4"/>
<stop offset="0.1431" stop-color="#2D6C75"/>
<stop offset="0.2966" stop-color="#204E54"/>
<stop offset="0.4454" stop-color="#2D6C75"/>
<stop offset="1" stop-color="#1F4D53"/>
</radialGradient>
</defs>
</svg>
