<svg width="182" height="163" viewBox="0 0 182 163" fill="none" xmlns="http://www.w3.org/2000/svg">
<g id="R-ICO-014858">
<g id="R-ICO-013593">
<path id="Vector" d="M103.468 4.69434C102.232 11.509 100.259 26.0042 107.806 37.018C112.418 43.7486 122.051 55.8089 123.817 53.1402C136.058 34.6391 113.273 5.2363 113.273 5.2363L103.468 4.69434Z" fill="url(#paint0_radial_938_25761)" stroke="#C263B9" stroke-width="1.01787" stroke-miterlimit="10" stroke-linecap="round" stroke-linejoin="round"/>
<path id="Vector_2" d="M123.173 35.9682C122.099 44.5348 118.844 55.3156 123.601 54.1678C133.175 51.8581 134.623 31.6245 134.623 31.6245L123.173 35.9682Z" fill="url(#paint1_radial_938_25761)" stroke="#C263B9" stroke-width="1.01787" stroke-miterlimit="10" stroke-linecap="round" stroke-linejoin="round"/>
<path id="Vector_3" d="M134.623 31.6247C136.08 22.7222 123.684 9.50306 119.025 5.36479C114.365 1.22647 97.127 1.45224 105.905 8.10134C114.683 14.7504 123.405 28.7515 123.172 35.9684C123.045 39.9008 133.166 40.5272 134.623 31.6247Z" fill="url(#paint2_radial_938_25761)" stroke="#C263B9" stroke-width="1.01787" stroke-miterlimit="10" stroke-linecap="round" stroke-linejoin="round"/>
</g>
<g id="R-ICO-013593_2">
<path id="Vector_4" d="M135.179 49.6635C132.821 66.05 127.815 80.7174 137.168 75.7256C141.758 73.2754 155.133 55.294 155.553 52.0827C156.137 47.6169 151.304 49.5838 151.454 45.7471C152.057 30.3165 151.369 22.7705 151.369 22.7705C148.369 37.3632 148.74 44.526 135.179 49.6635Z" fill="url(#paint3_radial_938_25761)" stroke="#C263B9" stroke-width="1.01787" stroke-miterlimit="10" stroke-linecap="round" stroke-linejoin="round"/>
<path id="Vector_5" d="M137.628 73.4985C134.184 89.069 136.833 97.0701 141.466 94.7015C147.263 91.7382 151.878 87.08 160.606 64.7981C168.082 45.7131 168.877 32.5752 168.877 32.5752C165.877 47.1678 151.189 68.361 137.628 73.4985Z" fill="url(#paint4_radial_938_25761)" stroke="#C263B9" stroke-width="1.01787" stroke-miterlimit="10" stroke-linecap="round" stroke-linejoin="round"/>
<path id="Vector_6" d="M4.38116 107.785C2.13522 117.699 -5.39664 141.916 9.68199 148.499C31.3674 157.967 99.2139 154.711 117.294 109.624C127.475 84.2362 134.646 60.1611 134.646 60.1611C102.046 86.5644 39.5538 104.903 4.38116 107.785Z" fill="url(#paint5_radial_938_25761)" stroke="#C263B9" stroke-width="1.01787" stroke-miterlimit="10" stroke-linecap="round" stroke-linejoin="round"/>
<path id="Vector_7" d="M31.2781 119.922C29.7253 135.994 27.553 144.697 35.4539 154.764C43.3549 164.831 51.3466 162.951 64.0761 157.039C72.7462 153.012 80.7583 132.747 95.4188 128.847C103.389 126.727 94.8661 143.505 107.302 135.144C121.415 125.655 126.608 87.0781 126.608 87.0781C92.2413 107.965 66.4508 117.04 31.2781 119.922Z" fill="url(#paint6_radial_938_25761)" stroke="#C263B9" stroke-width="1.01787" stroke-miterlimit="10" stroke-linecap="round" stroke-linejoin="round"/>
<path id="Vector_8" d="M122.968 91.6463C131.725 85.4919 123.547 81.2671 110.565 88.6069C97.5831 95.9467 88.9582 100.859 72.0896 105.877C52.962 111.567 35.4507 106.872 50.7195 102.486C65.9883 98.1006 95.7602 90.3742 115.161 77.5868C145.514 57.5801 135.082 52.2476 121.749 62.4245C98.1378 80.4463 83.7568 88.5268 15.2691 103.138C-4.60018 107.377 6.93941 111.861 16.8187 109.413C38.6631 104.002 50.4277 111.916 42.4963 113.54C26.8625 116.74 28.4466 123.154 40.7156 121.371C62.306 118.233 97.1085 109.821 122.968 91.6463Z" fill="url(#paint7_radial_938_25761)" stroke="#C263B9" stroke-width="1.01787" stroke-miterlimit="10" stroke-linecap="round" stroke-linejoin="round"/>
<path id="Vector_9" d="M169.079 24.7804L168.877 32.5752C169.555 25.5421 170.188 30.7968 174.39 31.0053C181.726 31.3692 180.418 22.252 180.418 22.252C176.019 23.4544 169.119 21.0164 169.079 24.7804Z" fill="url(#paint8_radial_938_25761)" stroke="#C263B9" stroke-width="1.01787" stroke-miterlimit="10" stroke-linecap="round" stroke-linejoin="round"/>
<path id="Vector_10" d="M154.853 42.2374C155.652 52.663 162.582 24.4471 162.731 20.6104C163.334 5.17975 158.898 1.82275 158.898 1.82275C155.898 16.4155 154.415 36.5272 154.853 42.2374Z" fill="url(#paint9_radial_938_25761)" stroke="#C263B9" stroke-width="1.01787" stroke-miterlimit="10" stroke-linecap="round" stroke-linejoin="round"/>
<path id="Vector_11" d="M148.736 74.6382C156.024 71.2002 162.204 59.8436 166.083 47.332C168.19 40.5345 168.949 32.6222 168.986 25.4672C168.986 25.4657 168.987 25.465 168.987 25.4636C169 24.2398 169.803 22.5109 172.655 25.2231C175.507 27.9354 178.987 27.2526 180.297 23.9947C181.608 20.7366 176.573 17.7394 172.182 19.0988C170.065 19.754 169.139 18.7987 168.733 17.5062C168.641 16.1845 168.528 14.9287 168.399 13.7575C168.399 13.7543 168.399 13.7501 168.399 13.747C168.254 12.4325 168.09 11.2223 167.915 10.1446C166.551 1.76367 156.732 -4.91689 158.911 6.85976C161.313 19.8364 158.53 33.8561 156.926 39.5193C155.322 45.1825 148.475 44.146 150.267 39.5598C152.059 34.9736 151.893 25.4077 151.136 21.1158C150.38 16.8238 143.632 17.2263 143.641 22.6696C143.656 32.0325 138.277 43.9187 135.661 48.3269C133.046 52.7352 141.89 52.0675 144.733 48.4341C147.576 44.8007 156.053 49.3278 152.911 53.4915C149.768 57.6552 146.676 65.519 140.085 70.1635C133.494 74.8079 141.448 78.0762 148.736 74.6382Z" fill="url(#paint10_radial_938_25761)" stroke="#C263B9" stroke-width="1.01787" stroke-miterlimit="10" stroke-linecap="round" stroke-linejoin="round"/>
</g>
</g>
<defs>
<radialGradient id="paint0_radial_938_25761" cx="0" cy="0" r="1" gradientUnits="userSpaceOnUse" gradientTransform="translate(99.1982 -4.13384) rotate(-0.881405) scale(31.9657 59.0223)">
<stop stop-color="#B4CED0"/>
<stop offset="1" stop-color="#C263B9"/>
</radialGradient>
<radialGradient id="paint1_radial_938_25761" cx="0" cy="0" r="1" gradientTransform="matrix(4.3707 1.30802 -5.76039 19.2457 129.381 35.4562)" gradientUnits="userSpaceOnUse">
<stop stop-color="#B4CED0"/>
<stop offset="0.1756" stop-color="#B8AFC9"/>
<stop offset="0.4053" stop-color="#BC8EC2"/>
<stop offset="0.6251" stop-color="#BF76BD"/>
<stop offset="0.8286" stop-color="#C168BA"/>
<stop offset="1" stop-color="#C263B9"/>
</radialGradient>
<radialGradient id="paint2_radial_938_25761" cx="0" cy="0" r="1" gradientTransform="matrix(163.988 52.9456 -283.317 98.9841 -125.302 72.5891)" gradientUnits="userSpaceOnUse">
<stop offset="0.7247" stop-color="#C263B9"/>
<stop offset="1" stop-color="#B4CED0"/>
</radialGradient>
<radialGradient id="paint3_radial_938_25761" cx="0" cy="0" r="1" gradientUnits="userSpaceOnUse" gradientTransform="translate(104.279 36.9078) rotate(-2.10901) scale(45.6243 45.6242)">
<stop offset="0.2615" stop-color="#B4CED0"/>
<stop offset="1" stop-color="#C263B9"/>
</radialGradient>
<radialGradient id="paint4_radial_938_25761" cx="0" cy="0" r="1" gradientUnits="userSpaceOnUse" gradientTransform="translate(101.153 61.0173) rotate(-2.10901) scale(62.1087 62.1087)">
<stop offset="0.2615" stop-color="#B4CED0"/>
<stop offset="1" stop-color="#C263B9"/>
</radialGradient>
<radialGradient id="paint5_radial_938_25761" cx="0" cy="0" r="1" gradientUnits="userSpaceOnUse" gradientTransform="translate(14.6297 89.0843) rotate(24.5217) scale(95.4734 95.4734)">
<stop stop-color="#B4CED0"/>
<stop offset="0.1673" stop-color="#B8B3CA"/>
<stop offset="0.4638" stop-color="#BD88C1"/>
<stop offset="0.6954" stop-color="#C16DBB"/>
<stop offset="0.8321" stop-color="#C263B9"/>
</radialGradient>
<radialGradient id="paint6_radial_938_25761" cx="0" cy="0" r="1" gradientUnits="userSpaceOnUse" gradientTransform="translate(49.7132 86.1664) rotate(6.02189) scale(78.9578 78.9579)">
<stop stop-color="#B4CED0"/>
<stop offset="1" stop-color="#C263B9"/>
</radialGradient>
<radialGradient id="paint7_radial_938_25761" cx="0" cy="0" r="1" gradientTransform="matrix(33.792 136.825 -220.589 31.0596 -12.6394 0.695115)" gradientUnits="userSpaceOnUse">
<stop offset="0.7247" stop-color="#C263B9"/>
<stop offset="1" stop-color="#B4CED0"/>
</radialGradient>
<radialGradient id="paint8_radial_938_25761" cx="0" cy="0" r="1" gradientUnits="userSpaceOnUse" gradientTransform="translate(175.895 23.9698) rotate(-2.109) scale(6.3482 6.34818)">
<stop offset="0.2615" stop-color="#B4CED0"/>
<stop offset="1" stop-color="#C263B9"/>
</radialGradient>
<radialGradient id="paint9_radial_938_25761" cx="0" cy="0" r="1" gradientUnits="userSpaceOnUse" gradientTransform="translate(171.047 8.70601) rotate(-2.10901) scale(26.2092 26.2093)">
<stop offset="0.2615" stop-color="#B4CED0"/>
<stop offset="1" stop-color="#C263B9"/>
</radialGradient>
<radialGradient id="paint10_radial_938_25761" cx="0" cy="0" r="1" gradientTransform="matrix(128.129 127.879 -183.222 60.6265 -43.9 -7.90146)" gradientUnits="userSpaceOnUse">
<stop offset="0.7247" stop-color="#C263B9"/>
<stop offset="1" stop-color="#B4CED0"/>
</radialGradient>
</defs>
</svg>
