<svg width="69" height="65" viewBox="0 0 69 65" fill="none" xmlns="http://www.w3.org/2000/svg">
<g id="R-ICO-014834">
<path id="Vector" d="M67.5946 31.4807C67.5946 34.1911 66.7639 39.3084 66.6681 41.907C66.3592 49.9264 62.6318 49.9104 58.4144 54.1864C54.7295 57.9139 51.2736 59.341 46.1776 61.0237C42.8655 62.1206 36.5021 63.7341 32.8172 63.7341C28.8288 63.7341 23.8499 65.0121 20.3035 63.7341C15.6282 62.0514 13.8177 58.5795 10.3671 55.1396C6.416 51.2044 5.0368 51.6145 3.434 46.1138C2.5608 43.1264 0.5 35.7087 0.5 32.4445C0.5 25.3357 3.2477 21.0491 7.0178 15.6229C9.3289 12.3001 11.6878 8.7111 15.0159 6.4107C17.7636 4.515 21.2994 4.1902 24.5582 3.1784C27.7106 2.1987 30.5701 0.5 34.042 0.5C38.9197 0.5 43.5524 3.1359 47.7325 5.0103C50.8583 6.4108 53.7284 6.677 56.2631 8.9135C60.6775 12.8167 62.1525 15.0585 64.0269 20.7829C65.1132 24.063 67.5946 27.8331 67.5946 31.4807Z" fill="url(#paint0_radial_938_25243)" stroke="#282E81" stroke-miterlimit="10"/>
<g id="Nucleus">
<path id="Vector_2" d="M42.8313 56.3994C47.0636 56.3994 50.4946 52.9684 50.4946 48.7361C50.4946 44.5037 47.0636 41.0728 42.8313 41.0728C38.5989 41.0728 35.168 44.5037 35.168 48.7361C35.168 52.9684 38.5989 56.3994 42.8313 56.3994Z" fill="url(#paint1_radial_938_25243)"/>
<path id="Vector_3" d="M42.8313 56.7294C38.4227 56.7294 34.8345 53.1412 34.8345 48.7326C34.8345 44.324 38.4227 40.7358 42.8313 40.7358C47.2399 40.7358 50.8281 44.324 50.8281 48.7326C50.8282 53.1445 47.2399 56.7294 42.8313 56.7294ZM42.8313 41.4061C38.7895 41.4061 35.5015 44.6942 35.5015 48.736C35.5015 52.7778 38.7896 56.0659 42.8313 56.0659C46.873 56.0659 50.1611 52.7778 50.1611 48.736C50.1611 44.6942 46.8731 41.4061 42.8313 41.4061Z" fill="#BB8091"/>
</g>
</g>
<defs>
<radialGradient id="paint0_radial_938_25243" cx="0" cy="0" r="1" gradientUnits="userSpaceOnUse" gradientTransform="translate(23.0914 24.695) scale(32.4515 44.9713)">
<stop offset="0.0005" stop-color="#FCF0D3"/>
<stop offset="0.103" stop-color="#EDDEBB"/>
<stop offset="0.2553" stop-color="#DBC99E"/>
<stop offset="0.4068" stop-color="#CEB98A"/>
<stop offset="0.556" stop-color="#C6B07D"/>
<stop offset="0.7" stop-color="#C3AD79"/>
</radialGradient>
<radialGradient id="paint1_radial_938_25243" cx="0" cy="0" r="1" gradientUnits="userSpaceOnUse" gradientTransform="translate(40.3292 46.8895) scale(7.583 10.5085)">
<stop offset="0.0005" stop-color="#F7D2DB"/>
<stop offset="0.049" stop-color="#EBC1CB"/>
<stop offset="0.1593" stop-color="#D4A2AC"/>
<stop offset="0.2787" stop-color="#C08793"/>
<stop offset="0.4083" stop-color="#B17480"/>
<stop offset="0.5534" stop-color="#A86573"/>
<stop offset="0.7263" stop-color="#A25D6B"/>
<stop offset="1" stop-color="#A05B68"/>
</radialGradient>
</defs>
</svg>
