<svg width="54" height="23" viewBox="0 0 54 23" fill="none" xmlns="http://www.w3.org/2000/svg">
<g id="R-ICO-012821">
<g id="PROTEIN">
<path d="M1.05957 11.5C1.05957 5.97715 5.53672 1.5 11.0596 1.5H52.0596V21.5H11.0596C5.53672 21.5 1.05957 17.0228 1.05957 11.5Z" fill="url(#paint0_linear_938_23147)"/>
<path d="M44.4136 2.99266C33.2956 2.87443 22.1776 2.52283 11.0596 1.64001C11.0596 1.54664 11.0596 1.45328 11.0596 1.35991C22.1776 0.477089 33.2956 0.125486 44.4136 0.00726104C46.9622 -0.0100576 49.5109 0.00520003 52.0596 0.0361338C52.8874 0.0547494 53.5421 0.672122 53.5234 1.5C53.4869 4.51052 53.4285 7.52108 53.3761 10.5316C53.3223 14.1877 53.2173 17.8438 53.0753 21.5C53.0624 22.0744 52.634 22.5286 52.0596 22.5157C50.1569 22.4418 48.2542 22.3579 46.3515 22.2659C40.7924 22.0221 35.2329 21.8466 29.674 21.953C24.1149 22.056 18.5555 22.4645 12.9965 22.6648C12.3508 22.6837 11.7052 22.6993 11.0596 22.7117C5.44985 22.9351 0.2868 18.0929 0.0265538 12.5714C0.00141323 12.2149 -0.00609827 11.858 0.00383461 11.5C0.0151427 5.57374 5.65931 0.702782 11.0596 1.35991C11.0596 1.45328 11.0596 1.54664 11.0596 1.64001C5.80684 2.03797 1.84467 6.773 2.1152 11.5C2.12516 11.7909 2.14846 12.0787 2.18496 12.3642C2.68521 16.7729 6.70752 20.2749 11.0596 20.2884C11.7052 20.3008 12.3508 20.3163 12.9965 20.3353C18.5555 20.5356 24.1149 20.9428 29.674 21.0457C35.233 21.1521 40.7924 20.9779 46.3515 20.7342C48.2542 20.6422 50.1569 20.5582 52.0596 20.4843L51.0439 21.5C50.9018 17.8438 50.7969 14.1877 50.7432 10.5316C50.6907 7.52112 50.6322 4.51055 50.5957 1.5L52.0596 2.9639C49.5109 2.99486 46.9622 3.0101 44.4136 2.99266Z" fill="#0D50BC"/>
<text id="P" fill="white" xml:space="preserve" style="white-space: pre" font-family="Arial" font-size="12" font-weight="bold" letter-spacing="0em"><tspan x="8.55371" y="15.6602">Hh-Np</tspan></text>
</g>
</g>
<defs>
<linearGradient id="paint0_linear_938_23147" x1="26.5596" y1="1.5" x2="26.5596" y2="21.5" gradientUnits="userSpaceOnUse">
<stop stop-color="#4DC7B4"/>
<stop offset="1" stop-color="#0D50BC"/>
</linearGradient>
</defs>
</svg>
