<svg width="50" height="24" viewBox="0 0 50 24" fill="none" xmlns="http://www.w3.org/2000/svg">
<g id="R-ICO-013818">
<g id="CHEMICAL_OCT">
<g id="Rectangle 2">
<mask id="path-1-outside-1_938_24977" maskUnits="userSpaceOnUse" x="8.37953" y="0" width="34" height="24" fill="black">
<rect fill="white" x="8.37953" width="34" height="24"/>
<path d="M8.37953 2H41.6205V22H8.37953V2Z"/>
</mask>
<path d="M8.37953 2H41.6205V22H8.37953V2Z" fill="#DD6819"/>
<path d="M8.37953 2V4H41.6205V2V0H8.37953V2ZM41.6205 22V20H8.37953V22V24H41.6205V22Z" fill="url(#paint0_linear_938_24977)" mask="url(#path-1-outside-1_938_24977)"/>
</g>
<g id="LEFT CORNER">
<mask id="mask0_938_24977" style="mask-type:luminance" maskUnits="userSpaceOnUse" x="0" y="0" width="10" height="24">
<rect id="MASK" width="10" height="24" transform="matrix(-1 8.74228e-08 8.74228e-08 1 10 0)" fill="white"/>
</mask>
<g mask="url(#mask0_938_24977)">
<g id="CORNER">
<mask id="path-4-outside-2_938_24977" maskUnits="userSpaceOnUse" x="-1.74846e-07" y="-9.61651e-07" width="13" height="24" fill="black">
<rect fill="white" x="-1.74846e-07" y="-9.61651e-07" width="13" height="24"/>
<path d="M8 22L2 16L2 8L8 2L11 2L11 22L8 22Z"/>
</mask>
<path d="M8 22L2 16L2 8L8 2L11 2L11 22L8 22Z" fill="#DD6819"/>
<path d="M8 22L2 16L2 8L8 2L11 2L11 22L8 22Z" stroke="url(#paint1_linear_938_24977)" stroke-width="4" stroke-miterlimit="3.99933" stroke-linejoin="round" mask="url(#path-4-outside-2_938_24977)"/>
</g>
</g>
</g>
<g id="RIGHT CORNER">
<mask id="mask1_938_24977" style="mask-type:luminance" maskUnits="userSpaceOnUse" x="40" y="0" width="10" height="24">
<rect id="MASK_2" x="40.1555" width="9.84445" height="24" fill="white"/>
</mask>
<g mask="url(#mask1_938_24977)">
<g id="CORNER_2">
<mask id="path-6-outside-3_938_24977" maskUnits="userSpaceOnUse" x="37" y="-7.76718e-07" width="13" height="24" fill="black">
<rect fill="white" x="37" y="-7.76718e-07" width="13" height="24"/>
<path d="M42 22L48 16L48 8L42 2L39 2L39 22L42 22Z"/>
</mask>
<path d="M42 22L48 16L48 8L42 2L39 2L39 22L42 22Z" fill="#DD6819"/>
<path d="M42 22L48 16L48 8L42 2L39 2L39 22L42 22Z" stroke="url(#paint2_linear_938_24977)" stroke-width="4" stroke-miterlimit="3.99933" stroke-linejoin="round" mask="url(#path-6-outside-3_938_24977)"/>
</g>
</g>
</g>
<text id="Ch" fill="white" xml:space="preserve" style="white-space: pre" font-family="Arial" font-size="12" font-weight="bold" letter-spacing="0em"><tspan x="5.70104" y="16.1602">PUFAs</tspan></text>
</g>
</g>
<defs>
<linearGradient id="paint0_linear_938_24977" x1="25" y1="2" x2="25" y2="22" gradientUnits="userSpaceOnUse">
<stop stop-color="#DD6819"/>
<stop offset="1" stop-color="#C7007B"/>
</linearGradient>
<linearGradient id="paint1_linear_938_24977" x1="6.5" y1="2" x2="6.5" y2="22" gradientUnits="userSpaceOnUse">
<stop stop-color="#DD6819"/>
<stop offset="1" stop-color="#C7007B"/>
</linearGradient>
<linearGradient id="paint2_linear_938_24977" x1="43.5" y1="2" x2="43.5" y2="22" gradientUnits="userSpaceOnUse">
<stop stop-color="#DD6819"/>
<stop offset="1" stop-color="#C7007B"/>
</linearGradient>
</defs>
</svg>
