<svg width="82" height="82" viewBox="0 0 82 82" fill="none" xmlns="http://www.w3.org/2000/svg">
<g id="R-ICO-014567">
<g id="BG">
<mask id="path-1-inside-1_938_25149" fill="white">
<path d="M40.752 81.504C63.2587 81.504 81.504 63.2587 81.504 40.752C81.504 18.2453 63.2587 0 40.752 0C18.2453 0 0 18.2453 0 40.752C0 63.2587 18.2453 81.504 40.752 81.504Z"/>
</mask>
<path d="M40.752 81.504C63.2587 81.504 81.504 63.2587 81.504 40.752C81.504 18.2453 63.2587 0 40.752 0C18.2453 0 0 18.2453 0 40.752C0 63.2587 18.2453 81.504 40.752 81.504Z" fill="url(#paint0_radial_938_25149)" stroke="#A89582" stroke-width="2" mask="url(#path-1-inside-1_938_25149)"/>
</g>
<path id="NUCLEUS" d="M21.1857 50.1204C25.4142 50.1204 28.8421 46.6925 28.8421 42.464C28.8421 38.2355 25.4142 34.8076 21.1857 34.8076C16.9572 34.8076 13.5293 38.2355 13.5293 42.464C13.5293 46.6925 16.9572 50.1204 21.1857 50.1204Z" fill="#D8BCA3" stroke="#BAA89B" stroke-miterlimit="10"/>
<path id="Mitochondrion" d="M61.6257 49.9838C59.8991 51.0176 58.7708 52.1376 59.0564 54.2575C59.4371 57.084 62.0371 59.0667 64.8636 58.686C66.9835 58.4005 68.2023 57.8388 69.3258 56.1692C71.2994 53.2363 73.5714 46.9396 72.1564 41.8693C71.5168 39.5775 69.6697 37.857 67.3115 38.1746C64.9533 38.4922 63.2992 40.6613 63.6168 43.0195C63.7157 43.754 64.1605 44.3308 64.4022 44.9797C64.9599 46.477 63.5082 48.8566 61.6257 49.9838Z" fill="#D8A398" stroke="#BA8579" stroke-miterlimit="10"/>
<g id="LIPID DROPLETS">
<path id="STORAGE_6_" opacity="0.5" d="M26.7873 57.8911C28.9012 58.2308 30.3369 60.2362 29.9939 62.3701C29.6509 64.504 27.6592 65.9585 25.5453 65.6188C23.4314 65.279 21.9957 63.2736 22.3387 61.1397C22.6817 59.0057 24.6734 57.5513 26.7873 57.8911Z" fill="url(#paint1_radial_938_25149)"/>
<path id="STORAGE_5_" opacity="0.5" d="M49.4079 39.5399C51.5218 39.8796 52.9575 41.8851 52.6145 44.0189C52.2716 46.1529 50.2799 47.6073 48.1659 47.2676C46.052 46.9279 44.6163 44.9225 44.9593 42.7886C45.3023 40.6547 47.294 39.2002 49.4079 39.5399Z" fill="url(#paint2_radial_938_25149)"/>
<path id="STORAGE_4_" opacity="0.5" d="M47.4831 15.0485C49.597 15.3882 51.0327 17.3936 50.6897 19.5275C50.3468 21.6614 48.3551 23.1159 46.2411 22.7762C44.1272 22.4365 42.6915 20.4311 43.0345 18.2972C43.3775 16.1633 45.3692 14.7087 47.4831 15.0485Z" fill="url(#paint3_radial_938_25149)"/>
<path id="STORAGE_3_" opacity="0.5" d="M41.3728 61.8041C43.4867 62.1438 44.9224 64.1492 44.5794 66.2831C44.2365 68.417 42.2448 69.8716 40.1308 69.5318C38.0169 69.1921 36.5812 67.1867 36.9242 65.0528C37.2672 62.9188 39.2589 61.4643 41.3728 61.8041Z" fill="url(#paint4_radial_938_25149)"/>
<path id="STORAGE_2_" opacity="0.5" d="M23.4211 14.9301C25.535 15.2698 26.9707 17.2752 26.6277 19.4091C26.2847 21.543 24.293 22.9975 22.1791 22.6578C20.0652 22.3181 18.6295 20.3127 18.9725 18.1788C19.3155 16.0449 21.3072 14.5904 23.4211 14.9301Z" fill="url(#paint5_radial_938_25149)"/>
<path id="STORAGE_1_" opacity="0.5" d="M62.5471 22.5854C64.661 22.9251 66.0967 24.9305 65.7537 27.0644C65.4107 29.1983 63.419 30.6528 61.3051 30.3131C59.1912 29.9734 57.7555 27.968 58.0985 25.8341C58.4415 23.7002 60.4332 22.2457 62.5471 22.5854Z" fill="url(#paint6_radial_938_25149)"/>
</g>
</g>
<defs>
<radialGradient id="paint0_radial_938_25149" cx="0" cy="0" r="1" gradientUnits="userSpaceOnUse" gradientTransform="translate(40.7594 40.755) rotate(-62.2689) scale(40.7501)">
<stop stop-color="#E5DBCE"/>
<stop offset="1" stop-color="#CCB9A1"/>
</radialGradient>
<radialGradient id="paint1_radial_938_25149" cx="0" cy="0" r="1" gradientTransform="matrix(0.620939 -3.86399 3.82752 0.615069 26.1706 61.7607)" gradientUnits="userSpaceOnUse">
<stop offset="0.0003" stop-color="#F9FF8B"/>
<stop offset="1" stop-color="#F9682E"/>
</radialGradient>
<radialGradient id="paint2_radial_938_25149" cx="0" cy="0" r="1" gradientTransform="matrix(0.620939 -3.86399 3.82751 0.615069 48.7905 43.4084)" gradientUnits="userSpaceOnUse">
<stop offset="0.0003" stop-color="#F9FF8B"/>
<stop offset="1" stop-color="#F9682E"/>
</radialGradient>
<radialGradient id="paint3_radial_938_25149" cx="0" cy="0" r="1" gradientTransform="matrix(0.620939 -3.86399 3.82751 0.615069 46.8656 18.9162)" gradientUnits="userSpaceOnUse">
<stop offset="0.0003" stop-color="#F9FF8B"/>
<stop offset="1" stop-color="#F9682E"/>
</radialGradient>
<radialGradient id="paint4_radial_938_25149" cx="0" cy="0" r="1" gradientTransform="matrix(0.620939 -3.86399 3.82752 0.615069 40.7557 65.6735)" gradientUnits="userSpaceOnUse">
<stop offset="0.0003" stop-color="#F9FF8B"/>
<stop offset="1" stop-color="#F9682E"/>
</radialGradient>
<radialGradient id="paint5_radial_938_25149" cx="0" cy="0" r="1" gradientTransform="matrix(0.620939 -3.86399 3.82752 0.615069 22.8042 18.7983)" gradientUnits="userSpaceOnUse">
<stop offset="0.0003" stop-color="#F9FF8B"/>
<stop offset="1" stop-color="#F9682E"/>
</radialGradient>
<radialGradient id="paint6_radial_938_25149" cx="0" cy="0" r="1" gradientTransform="matrix(0.620939 -3.86399 3.82752 0.615069 61.9293 26.4529)" gradientUnits="userSpaceOnUse">
<stop offset="0.0003" stop-color="#F9FF8B"/>
<stop offset="1" stop-color="#F9682E"/>
</radialGradient>
</defs>
</svg>
