<svg width="67" height="23" viewBox="0 0 67 23" fill="none" xmlns="http://www.w3.org/2000/svg">
<g id="R-ICO-013315">
<g id="RNASEL">
<path d="M0.999756 11.5C0.999756 5.97715 5.47691 1.5 10.9998 1.5H54.9998C60.5226 1.5 64.9998 5.97715 64.9998 11.5C64.9998 17.0228 60.5226 21.5 54.9998 21.5H10.9998C5.47691 21.5 0.999756 17.0228 0.999756 11.5Z" fill="url(#paint0_linear_938_23583)"/>
<path d="M48.7081 2.99266C36.1386 2.87443 23.5692 2.52283 10.9998 1.64001C10.9998 1.54664 10.9998 1.45328 10.9998 1.35991C23.5692 0.477089 36.1386 0.125486 48.7081 0.00726104C50.8053 -0.00534451 52.9025 -0.000691772 54.9998 0.0147026C59.8549 -0.0235513 64.4087 3.42387 65.7636 7.998C66.1184 9.13181 66.2862 10.3199 66.2657 11.5C66.3076 17.525 60.7265 22.6545 55.0003 22.2659C55.0001 22.2659 55 22.2658 54.9998 22.2658C48.7152 22.0221 42.43 21.8466 36.1456 21.953C29.8609 22.056 23.5756 22.4645 17.2909 22.6648C15.1939 22.7192 13.0968 22.7455 10.9998 22.7507C6.24129 22.834 1.74175 19.4263 0.457005 14.9307C0.121408 13.8163 -0.0293698 12.6525 0.00476688 11.5C0.0286255 5.60931 5.60324 0.764268 10.9998 1.35991C10.9998 1.45328 10.9998 1.54664 10.9998 1.64001C5.7433 1.9765 1.71161 6.73733 1.99461 11.5C2.028 12.448 2.20514 13.3797 2.51904 14.2601C3.7479 17.8135 7.31618 20.2907 10.9998 20.2494C13.0968 20.2546 15.1938 20.2809 17.2909 20.3353C23.5756 20.5356 29.8609 20.9428 36.1456 21.0457C42.4301 21.1521 48.7151 20.978 54.9998 20.7342C54.9999 20.7342 55.0001 20.7342 55.0003 20.7342C59.927 20.6039 63.951 16.1278 63.7339 11.5C63.7141 10.58 63.5542 9.67292 63.2597 8.81213C62.1014 5.33698 58.587 2.89889 54.9998 2.98534C52.9025 3.00073 50.8053 3.00535 48.7081 2.99266Z" fill="#BF7F22"/>
<text id="RNASEL_2" fill="white" xml:space="preserve" style="white-space: pre" font-family="Arial" font-size="12" font-weight="bold" letter-spacing="0em"><tspan x="8.32007" y="15.6602">RNASEL</tspan></text>
</g>
</g>
<defs>
<linearGradient id="paint0_linear_938_23583" x1="32.9998" y1="1.5" x2="32.9998" y2="21.5" gradientUnits="userSpaceOnUse">
<stop stop-color="#BF7F22"/>
<stop offset="1" stop-color="#C4B600"/>
</linearGradient>
</defs>
</svg>
