<svg width="82" height="23" viewBox="0 0 82 23" fill="none" xmlns="http://www.w3.org/2000/svg">
<g id="R-ICO-012542">
<g id="CDK5RAP1">
<path d="M0.908691 11.5C0.908691 5.97715 5.38584 1.5 10.9087 1.5H69.9087C75.4315 1.5 79.9087 5.97715 79.9087 11.5C79.9087 17.0228 75.4315 21.5 69.9087 21.5H10.9087C5.38584 21.5 0.908691 17.0228 0.908691 11.5Z" fill="url(#paint0_linear_938_23238)"/>
<path d="M56.117 2.99266C41.0475 2.87443 25.9782 2.52283 10.9087 1.64001C10.9087 1.54664 10.9087 1.45328 10.9087 1.35991C25.9782 0.477089 41.0475 0.125486 56.117 0.00726104C60.7141 -0.0157869 65.3114 0.01886 69.9087 0.0713686C73.2719 0.0821879 76.5673 1.70044 78.6397 4.30012C80.2831 6.31627 81.175 8.92471 81.1187 11.5C81.154 17.4903 75.6358 22.6114 69.9094 22.2659C69.9092 22.2659 69.9089 22.2658 69.9087 22.2658C62.3742 22.0221 54.8389 21.8466 47.3046 21.953C39.7698 22.056 32.2345 22.4645 24.6998 22.6648C20.1028 22.7642 15.5057 22.7698 10.9087 22.724C7.60493 22.7178 4.36907 21.1145 2.35724 18.5526C0.764828 16.5625 -0.0788647 14.0058 0.00579089 11.5C0.0368865 5.66308 5.51547 0.842338 10.9087 1.35991C10.9087 1.45328 10.9087 1.54664 10.9087 1.64001C5.64895 1.89846 1.52128 6.68348 1.81144 11.5C1.87929 13.598 2.682 15.6226 4.02937 17.1721C5.74132 19.1677 8.32203 20.3214 10.9087 20.2761C15.5057 20.2302 20.1027 20.2359 24.6998 20.3353C32.2345 20.5356 39.7698 20.9428 47.3046 21.0457C54.8391 21.1521 62.3741 20.978 69.9087 20.7342C69.9089 20.7342 69.9091 20.7342 69.9093 20.7342C74.8357 20.6469 78.9224 16.1625 78.6987 11.5C78.6593 9.47192 77.9052 7.4996 76.6092 5.97621C74.958 4.01786 72.4364 2.87866 69.9087 2.92863C65.3114 2.98119 60.7141 3.01587 56.117 2.99266Z" fill="#00806A"/>
<text id="CDK5RAP1_2" fill="white" xml:space="preserve" style="white-space: pre" font-family="Arial" font-size="12" font-weight="bold" letter-spacing="0em"><tspan x="8.04736" y="15.6602">CDK5RAP1</tspan></text>
</g>
</g>
<defs>
<linearGradient id="paint0_linear_938_23238" x1="40.4087" y1="1.5" x2="40.4087" y2="21.5" gradientUnits="userSpaceOnUse">
<stop stop-color="#00806A"/>
<stop offset="1" stop-color="#FF987B"/>
</linearGradient>
</defs>
</svg>
