<svg width="36" height="20" viewBox="0 0 36 20" fill="none" xmlns="http://www.w3.org/2000/svg">
<g id="R-ICO-013588">
<path id="Vector" d="M17.5081 9.9186C27.1776 9.9186 35.0162 7.69825 35.0162 4.9593C35.0162 2.22035 27.1776 0 17.5081 0C7.83864 0 0 2.22035 0 4.9593C0 7.69825 7.83864 9.9186 17.5081 9.9186Z" fill="url(#paint0_radial_938_24388)"/>
<path id="Vector_2" d="M17.5081 19.7809C27.1776 19.7809 35.0162 17.5606 35.0162 14.8216C35.0162 12.0827 27.1776 9.8623 17.5081 9.8623C7.83864 9.8623 0 12.0827 0 14.8216C0 17.5606 7.83864 19.7809 17.5081 19.7809Z" fill="url(#paint1_radial_938_24388)"/>
</g>
<defs>
<radialGradient id="paint0_radial_938_24388" cx="0" cy="0" r="1" gradientUnits="userSpaceOnUse" gradientTransform="translate(13.9401 3.6094) rotate(-90) scale(11.0335 16.1707)">
<stop stop-color="#C5B2FF"/>
<stop offset="0.036" stop-color="#BAA7F6"/>
<stop offset="0.1994" stop-color="#8F7AD0"/>
<stop offset="0.3639" stop-color="#6B54B0"/>
<stop offset="0.527" stop-color="#4F3798"/>
<stop offset="0.6882" stop-color="#3B2386"/>
<stop offset="0.8469" stop-color="#2F167C"/>
<stop offset="1" stop-color="#2B1278"/>
</radialGradient>
<radialGradient id="paint1_radial_938_24388" cx="0" cy="0" r="1" gradientUnits="userSpaceOnUse" gradientTransform="translate(13.9401 13.4717) rotate(-90) scale(11.0335 16.1707)">
<stop stop-color="#C5B2FF"/>
<stop offset="0.036" stop-color="#BAA7F6"/>
<stop offset="0.1994" stop-color="#8F7AD0"/>
<stop offset="0.3639" stop-color="#6B54B0"/>
<stop offset="0.527" stop-color="#4F3798"/>
<stop offset="0.6882" stop-color="#3B2386"/>
<stop offset="0.8469" stop-color="#2F167C"/>
<stop offset="1" stop-color="#2B1278"/>
</radialGradient>
</defs>
</svg>
