<svg width="38" height="23" viewBox="0 0 38 23" fill="none" xmlns="http://www.w3.org/2000/svg">
<g id="R-ICO-014817">
<g id="PROTEIN">
<path d="M1.5 1.48779H26.5C32.0228 1.48779 36.5 5.96495 36.5 11.4878C36.5 17.0106 32.0228 21.4878 26.5 21.4878H1.5V1.48779Z" fill="url(#paint0_linear_938_23148)"/>
<path d="M0.0073446 1.84191C0.00899577 1.72387 0.0106925 1.60583 0.0124356 1.48779C-0.0124456 0.646667 0.658874 0.0251096 1.5 0.000228524C9.83335 0.123287 18.1666 0.477296 26.5 1.34779C26.5 1.44115 26.5 1.53452 26.5 1.62788C18.1666 2.49837 9.83335 2.85238 1.5 2.97544L2.98765 1.48779C2.98939 1.60583 2.99109 1.72387 2.99274 1.84191C3.03051 6.0676 2.9133 10.2936 2.81648 14.5193C2.77157 16.8421 2.69086 19.165 2.58264 21.4878L1.5 20.4052C3.40273 20.4938 5.30547 20.6009 7.20823 20.7219C11.4339 20.9657 15.66 21.1411 19.8856 21.0348C22.0904 20.9811 24.2952 20.8442 26.5 20.6971C28.3683 20.5656 30.125 19.8494 31.534 18.7497C33.8041 17.0327 35.2463 14.3378 35.3187 11.4878C35.3458 10.5931 35.245 9.69523 35.0118 8.82541C34.0659 5.1692 30.6997 2.09941 26.5 1.62788C26.5 1.53452 26.5 1.44115 26.5 1.34779C30.8216 0.748028 35.5865 3.67991 37.0815 8.17879C37.4513 9.23697 37.6548 10.3589 37.6812 11.4878C37.8065 15.0901 35.9094 18.7354 32.8631 20.6629C30.9557 21.878 28.6762 22.4211 26.5 22.2791C24.2952 22.1323 22.0904 21.9958 19.8856 21.9421C15.66 21.8357 11.434 22.0098 7.20823 22.2536C5.30549 22.3747 3.40274 22.4818 1.5 22.5704C0.88785 22.5885 0.435496 22.0999 0.417388 21.4878C0.309181 19.165 0.228514 16.8421 0.183599 14.5193C0.0867809 10.2936 -0.0307111 6.06761 0.0073446 1.84191Z" fill="#4E9F54"/>
<text id="P" fill="white" xml:space="preserve" style="white-space: pre" font-family="Arial" font-size="12" font-weight="bold" letter-spacing="0em"><tspan x="8.65234" y="15.6479">F5a</tspan></text>
</g>
</g>
<defs>
<linearGradient id="paint0_linear_938_23148" x1="19" y1="1.48779" x2="19" y2="21.4878" gradientUnits="userSpaceOnUse">
<stop stop-color="#4E9F54"/>
<stop offset="1" stop-color="#3C5F5C"/>
</linearGradient>
</defs>
</svg>
