<svg width="78" height="23" viewBox="0 0 78 23" fill="none" xmlns="http://www.w3.org/2000/svg">
<g id="R-ICO-012589">
<g id="CSNK1D,E">
<path d="M0.931641 11.5C0.931641 5.97715 5.40879 1.5 10.9316 1.5H65.9316C71.4545 1.5 75.9316 5.97715 75.9316 11.5C75.9316 17.0228 71.4545 21.5 65.9316 21.5H10.9316C5.40879 21.5 0.931641 17.0228 0.931641 11.5Z" fill="url(#paint0_linear_938_23256)"/>
<path d="M54.1399 2.99266C39.7371 2.87443 25.3344 2.52283 10.9316 1.64001C10.9316 1.54664 10.9316 1.45328 10.9316 1.35991C25.3344 0.477089 39.7371 0.125486 54.1399 0.00726104C58.0704 -0.0133567 62.001 0.0121951 65.9316 0.0554016C69.6871 0.0594231 73.3342 2.09005 75.3382 5.20692C76.5624 7.06411 77.201 9.29733 77.1558 11.5C77.1916 17.4989 71.6586 22.6213 65.9323 22.2659C65.9321 22.2659 65.9319 22.2658 65.9316 22.2658C58.7304 22.0221 51.5286 21.8466 44.3275 21.953C37.1261 22.056 29.9241 22.4645 22.7227 22.6648C18.7924 22.7537 14.862 22.7676 10.9316 22.7368C7.24334 22.7438 3.65804 20.7336 1.7184 17.6643C0.536124 15.8334 -0.0639896 13.6452 0.00575745 11.5C0.0361084 5.64968 5.5378 0.824183 10.9316 1.35991C10.9316 1.45328 10.9316 1.54664 10.9316 1.64001C5.67252 1.91661 1.56794 6.69689 1.85738 11.5C1.91743 13.2884 2.50533 15.0255 3.51956 16.4571C5.19618 18.8591 8.05509 20.3123 10.9316 20.2633C14.862 20.2325 18.7923 20.2464 22.7227 20.3353C29.9241 20.5356 37.1261 20.9428 44.3275 21.0457C51.5287 21.1521 58.7303 20.978 65.9316 20.7342C65.9318 20.7342 65.932 20.7342 65.9322 20.7342C70.8588 20.637 74.9307 16.1539 74.7076 11.5C74.6721 9.76949 74.1229 8.07785 73.1511 6.6727C71.539 4.31781 68.7415 2.88454 65.9316 2.94461C62.001 2.98786 58.0704 3.01343 54.1399 2.99266Z" fill="#AD84BC"/>
<text id="CSNK1D,E_2" fill="white" xml:space="preserve" style="white-space: pre" font-family="Arial" font-size="12" font-weight="bold" letter-spacing="0em"><tspan x="8.07422" y="15.6602">CSNK1D,E</tspan></text>
</g>
</g>
<defs>
<linearGradient id="paint0_linear_938_23256" x1="38.4316" y1="1.5" x2="38.4316" y2="21.5" gradientUnits="userSpaceOnUse">
<stop stop-color="#AD84BC"/>
<stop offset="1" stop-color="#244765"/>
</linearGradient>
</defs>
</svg>
