<svg width="48" height="23" viewBox="0 0 48 23" fill="none" xmlns="http://www.w3.org/2000/svg">
<g id="R-ICO-013697">
<g id="SPT1">
<path d="M1.14355 11.4446C1.14355 5.92173 5.62071 1.44458 11.1436 1.44458H36.1436C41.6664 1.44458 46.1436 5.92173 46.1436 11.4446C46.1436 16.9674 41.6664 21.4446 36.1436 21.4446H11.1436C5.62071 21.4446 1.14355 16.9674 1.14355 11.4446Z" fill="url(#paint0_linear_938_23770)"/>
<path d="M38.8277 3.3689C37.9692 3.06938 37.0634 2.9071 36.1436 2.8874C27.8102 2.73216 19.4769 2.367 11.1436 1.58459C11.1436 1.49122 11.1436 1.39786 11.1436 1.30449C19.4769 0.52208 27.8102 0.15692 36.1436 0.0016768C37.3659 -0.0188116 38.5965 0.159934 39.7688 0.535725C44.3897 1.97277 47.6621 6.68617 47.4936 11.4446C47.4824 12.0512 47.4232 12.6559 47.3164 13.2514C46.4689 18.5934 41.2571 22.6017 36.144 22.2104C36.1438 22.2104 36.1437 22.2104 36.1436 22.2104C31.4423 21.9667 26.7406 21.7912 22.0394 21.8976C18.4075 21.9771 14.7755 22.239 11.1436 22.4464C9.96752 22.508 8.77048 22.3764 7.62127 22.0421C3.09108 20.7612 -0.200034 16.1177 0.00942338 11.4446C0.0249993 10.8495 0.0886902 10.2571 0.199996 9.675C1.09521 4.44926 6.31919 0.667819 11.1436 1.30449C11.1436 1.39786 11.1436 1.49122 11.1436 1.58459C6.45512 2.03907 2.79622 5.83248 2.34091 10.0188C2.28276 10.4918 2.26198 10.9684 2.2776 11.4446C2.36432 15.1702 4.89501 18.5599 8.35573 19.8313C9.23749 20.1725 10.1772 20.3819 11.1436 20.4427C14.7755 20.6497 18.4075 20.9108 22.0394 20.9903C26.7406 21.0966 31.4422 20.9225 36.1436 20.6788C36.1437 20.6788 36.1438 20.6788 36.1439 20.6788C40.5433 20.469 44.2131 16.9033 44.7168 12.8339C44.7795 12.3741 44.8049 11.9096 44.7936 11.4446C44.7478 7.80399 42.1978 4.48405 38.8277 3.3689Z" fill="#974FB2"/>
<text id="SPT1_2" fill="white" xml:space="preserve" style="white-space: pre" font-family="Arial" font-size="12" font-weight="bold" letter-spacing="0em"><tspan x="8.63184" y="15.6047">SPT1</tspan></text>
</g>
</g>
<defs>
<linearGradient id="paint0_linear_938_23770" x1="23.6436" y1="1.44458" x2="23.6436" y2="21.4446" gradientUnits="userSpaceOnUse">
<stop stop-color="#974FB2"/>
<stop offset="1" stop-color="#C4A762"/>
</linearGradient>
</defs>
</svg>
