<svg width="104" height="104" viewBox="0 0 104 104" fill="none" xmlns="http://www.w3.org/2000/svg">
<g id="R-ICO-012437">
<g id="ARMS">
<g id="Group">
<path id="Vector" d="M53.2265 39.065C51.7906 39.0588 50.6316 37.8897 50.6377 36.4538C50.6403 35.8456 50.8561 35.2576 51.2474 34.792C56.8134 28.232 52.0474 17.557 49.7774 15.062C48.8608 13.9567 49.0138 12.3176 50.1191 11.401C51.1516 10.5448 52.666 10.6145 53.6154 11.562C57.1754 15.468 62.8774 29.112 55.2074 38.152C54.7135 38.7328 53.989 39.0667 53.2265 39.065Z" fill="#2C52F7"/>
<path id="Vector_2" d="M50.9551 13.308C54.0611 16.716 59.0361 28.748 52.4861 36.468" stroke="#A6B8FF" stroke-width="2" stroke-linecap="round" stroke-linejoin="round"/>
</g>
<g id="Group_2">
<path id="Vector_3" d="M42.1205 43.948C41.2189 45.0656 39.582 45.2407 38.4644 44.3391C37.9885 43.9552 37.6632 43.4159 37.5455 42.816C35.9095 34.37 24.6015 31.407 21.2335 31.616C19.8062 31.7732 18.5217 30.7435 18.3645 29.3162C18.2073 27.8889 19.237 26.6044 20.6643 26.4472C20.7441 26.4384 20.8242 26.4333 20.9045 26.432C26.1785 26.102 40.3905 30.192 42.6445 41.828C42.7904 42.5773 42.5987 43.3529 42.1205 43.948Z" fill="#2C52F7"/>
<path id="Vector_4" d="M20.6045 29.607C25.2045 29.315 37.7045 32.961 39.6305 42.9" stroke="#A6B8FF" stroke-width="2" stroke-linecap="round" stroke-linejoin="round"/>
</g>
<g id="Group_3">
<path id="Vector_5" d="M38.9846 55.681C39.2939 57.0832 38.4079 58.4707 37.0057 58.78C36.4088 58.9117 35.7845 58.8288 35.2426 58.546C27.6256 54.546 18.2426 61.524 16.3096 64.288C15.5414 65.5012 13.9351 65.8618 12.722 65.0936C11.5088 64.3254 11.1482 62.7191 11.9164 61.506C11.96 61.4372 12.0068 61.3704 12.0566 61.306C15.0906 56.979 27.1566 48.436 37.6566 53.947C38.333 54.3013 38.8188 54.9357 38.9846 55.681Z" fill="#2C52F7"/>
<path id="Vector_6" d="M14.3447 63.521C16.9917 59.745 27.6447 52.264 36.6117 56.971" stroke="#A6B8FF" stroke-width="2" stroke-linecap="round" stroke-linejoin="round"/>
</g>
<g id="Group_4">
<path id="Vector_7" d="M46.1667 65.45C47.454 66.0863 47.9817 67.6456 47.3455 68.9329C47.0745 69.4812 46.6189 69.9164 46.0587 70.162C38.1717 73.598 37.7417 85.279 38.6837 88.52C39.0206 89.9159 38.1621 91.3205 36.7663 91.6574C35.4606 91.9726 34.1297 91.2412 33.6957 89.97C32.2207 84.895 33.1157 70.134 43.9837 65.4C44.6833 65.0945 45.4819 65.1128 46.1667 65.45Z" fill="#2C52F7"/>
<path id="Vector_8" d="M36.856 89.572C35.569 85.144 36.406 72.151 45.687 68.108" stroke="#A6B8FF" stroke-width="2" stroke-linecap="round" stroke-linejoin="round"/>
</g>
<g id="Group_5">
<path id="Vector_9" d="M58.3423 65.938C59.6415 65.3264 61.1905 65.8838 61.8021 67.183C62.0626 67.7363 62.1197 68.3637 61.9633 68.955C59.7443 77.267 68.6213 84.873 71.7443 86.155C73.0982 86.6334 73.808 88.1187 73.3296 89.4727C72.8512 90.8267 71.3659 91.5364 70.0119 91.058C69.9315 91.0296 69.8525 90.9972 69.7753 90.961C64.8843 88.961 53.8873 79.071 56.9443 67.617C57.1403 66.8787 57.6518 66.2644 58.3423 65.938Z" fill="#2C52F7"/>
<path id="Vector_10" d="M71.4308 88.238C67.1638 86.49 57.5138 77.749 60.1248 67.967" stroke="#A6B8FF" stroke-width="2" stroke-linecap="round" stroke-linejoin="round"/>
</g>
<g id="Group_6">
<path id="Vector_11" d="M66.295 56.736C66.6274 55.3391 68.0293 54.4761 69.4262 54.8084C70.0213 54.95 70.5474 55.2968 70.912 55.788C76.025 62.707 87.507 60.513 90.455 58.87C91.675 58.1127 93.2779 58.4878 94.0352 59.7078C94.7925 60.9278 94.4174 62.5307 93.1974 63.288C93.1281 63.331 93.0569 63.3707 92.9839 63.407C88.3669 65.98 73.7839 68.407 66.7349 58.875C66.2806 58.2615 66.1196 57.479 66.295 56.736Z" fill="#2C52F7"/>
<path id="Vector_12" d="M91.8893 60.417C87.8613 62.662 75.0103 64.752 68.9893 56.61" stroke="#A6B8FF" stroke-width="2" stroke-linecap="round" stroke-linejoin="round"/>
</g>
<g id="Group_7">
<path id="Vector_13" d="M64.0578 44.774C63.1733 43.6428 63.3733 42.0088 64.5046 41.1243C64.9856 40.7482 65.5836 40.5534 66.1938 40.574C74.7938 40.888 80.2318 30.542 80.7848 27.213C81.0868 25.8092 82.4696 24.916 83.8735 25.218C85.1843 25.5 86.0657 26.7325 85.9088 28.064C85.0428 33.278 77.8508 46.198 66.0088 45.764C65.2443 45.7379 64.5303 45.3756 64.0578 44.774Z" fill="#2C52F7"/>
<path id="Vector_14" d="M82.8876 27.054C82.1326 31.603 75.7576 42.954 65.6396 42.586" stroke="#A6B8FF" stroke-width="2" stroke-linecap="round" stroke-linejoin="round"/>
</g>
</g>
<g id="HD2">
<path id="Vector_15" d="M56.6313 9.868C59.3562 9.868 61.5653 7.65897 61.5653 4.934C61.5653 2.20903 59.3562 0 56.6313 0C53.9063 0 51.6973 2.20903 51.6973 4.934C51.6973 7.65897 53.9063 9.868 56.6313 9.868Z" fill="url(#paint0_radial_938_25563)"/>
<path id="Vector_16" d="M17.6215 24.8743C20.3465 24.8743 22.5555 22.6653 22.5555 19.9403C22.5555 17.2153 20.3465 15.0063 17.6215 15.0063C14.8965 15.0063 12.6875 17.2153 12.6875 19.9403C12.6875 22.6653 14.8965 24.8743 17.6215 24.8743Z" fill="url(#paint1_radial_938_25563)"/>
<path id="Vector_17" d="M4.934 64.7445C7.65897 64.7445 9.868 62.5355 9.868 59.8105C9.868 57.0856 7.65897 54.8765 4.934 54.8765C2.20903 54.8765 0 57.0856 0 59.8105C0 62.5355 2.20903 64.7445 4.934 64.7445Z" fill="url(#paint2_radial_938_25563)"/>
<path id="Vector_18" d="M28.0697 99.5212C30.7947 99.5212 33.0037 97.3122 33.0037 94.5872C33.0037 91.8622 30.7947 89.6532 28.0697 89.6532C25.3448 89.6532 23.1357 91.8622 23.1357 94.5872C23.1357 97.3122 25.3448 99.5212 28.0697 99.5212Z" fill="url(#paint3_radial_938_25563)"/>
<path id="Vector_19" d="M69.8901 103.169C72.615 103.169 74.8241 100.96 74.8241 98.2349C74.8241 95.5099 72.615 93.3009 69.8901 93.3009C67.1651 93.3009 64.9561 95.5099 64.9561 98.2349C64.9561 100.96 67.1651 103.169 69.8901 103.169Z" fill="url(#paint4_radial_938_25563)"/>
<path id="Vector_20" d="M98.7426 72.7924C101.468 72.7924 103.677 70.5833 103.677 67.8584C103.677 65.1334 101.468 62.9244 98.7426 62.9244C96.0176 62.9244 93.8086 65.1334 93.8086 67.8584C93.8086 70.5833 96.0176 72.7924 98.7426 72.7924Z" fill="url(#paint5_radial_938_25563)"/>
<path id="Vector_21" d="M92.978 31.2674C95.7029 31.2674 97.9119 29.0584 97.9119 26.3334C97.9119 23.6084 95.7029 21.3994 92.978 21.3994C90.253 21.3994 88.0439 23.6084 88.0439 26.3334C88.0439 29.0584 90.253 31.2674 92.978 31.2674Z" fill="url(#paint6_radial_938_25563)"/>
</g>
<g id="Beta-propeller domains">
<path id="Vector_22" d="M49.2102 18.963C53.6798 18.963 57.3032 15.3396 57.3032 10.87C57.3032 6.40034 53.6798 2.77698 49.2102 2.77698C44.7405 2.77698 41.1172 6.40034 41.1172 10.87C41.1172 15.3396 44.7405 18.963 49.2102 18.963Z" fill="url(#paint7_radial_938_25563)"/>
<path id="Vector_23" d="M17.6263 37.5829C22.0966 37.5829 25.7204 33.9591 25.7204 29.4888C25.7204 25.0186 22.0966 21.3947 17.6263 21.3947C13.1561 21.3947 9.53223 25.0186 9.53223 29.4888C9.53223 33.9591 13.1561 37.5829 17.6263 37.5829Z" fill="url(#paint8_radial_938_25563)"/>
<path id="Vector_24" d="M12.3469 73.8486C16.8165 73.8486 20.4399 70.2252 20.4399 65.7556C20.4399 61.286 16.8165 57.6626 12.3469 57.6626C7.87727 57.6626 4.25391 61.286 4.25391 65.7556C4.25391 70.2252 7.87727 73.8486 12.3469 73.8486Z" fill="url(#paint9_radial_938_25563)"/>
<path id="Vector_25" d="M37.3469 100.62C41.8165 100.62 45.4399 96.9969 45.4399 92.5273C45.4399 88.0577 41.8165 84.4343 37.3469 84.4343C32.8773 84.4343 29.2539 88.0577 29.2539 92.5273C29.2539 96.9969 32.8773 100.62 37.3469 100.62Z" fill="url(#paint10_radial_938_25563)"/>
<path id="Vector_26" d="M74.051 97.7856C78.5207 97.7856 82.144 94.1622 82.144 89.6926C82.144 85.223 78.5207 81.5996 74.051 81.5996C69.5814 81.5996 65.958 85.223 65.958 89.6926C65.958 94.1622 69.5814 97.7856 74.051 97.7856Z" fill="url(#paint11_radial_938_25563)"/>
<path id="Vector_27" d="M94.6614 67.3693C99.131 67.3693 102.754 63.7459 102.754 59.2763C102.754 54.8066 99.131 51.1833 94.6614 51.1833C90.1917 51.1833 86.5684 54.8066 86.5684 59.2763C86.5684 63.7459 90.1917 67.3693 94.6614 67.3693Z" fill="url(#paint12_radial_938_25563)"/>
<path id="Vector_28" d="M83.7219 32.2689C88.1915 32.2689 91.8149 28.6455 91.8149 24.1759C91.8149 19.7062 88.1915 16.0829 83.7219 16.0829C79.2523 16.0829 75.6289 19.7062 75.6289 24.1759C75.6289 28.6455 79.2523 32.2689 83.7219 32.2689Z" fill="url(#paint13_radial_938_25563)"/>
</g>
<g id="NOD (nucleotide-binding ogliomerization domain) hub">
<path id="Vector_29" d="M52.2179 45.392C55.9724 45.392 59.0159 42.7147 59.0159 39.412C59.0159 36.1093 55.9724 33.432 52.2179 33.432C48.4635 33.432 45.4199 36.1093 45.4199 39.412C45.4199 42.7147 48.4635 45.392 52.2179 45.392Z" fill="url(#paint14_radial_938_25563)"/>
<path id="Vector_30" d="M37.0946 41.2105C39.4432 38.2814 43.4359 37.5817 46.0126 39.6477C48.5893 41.7137 48.7742 45.763 46.4255 48.6922C44.0769 51.6213 40.0842 52.321 37.5075 50.255C34.9308 48.189 34.746 44.1396 37.0946 41.2105Z" fill="url(#paint15_radial_938_25563)"/>
<path id="Vector_31" d="M38.0592 49.9538C41.2822 49.2327 44.5594 51.6183 45.3791 55.2822C46.1988 58.9461 44.2506 62.5007 41.0276 63.2218C37.8046 63.9429 34.5274 61.5573 33.7077 57.8934C32.888 54.2295 34.8362 50.6749 38.0592 49.9538Z" fill="url(#paint16_radial_938_25563)"/>
<path id="Vector_32" d="M41.1216 62.5849C42.577 59.6202 46.4889 58.558 49.8591 60.2124C53.2294 61.8668 54.7817 65.6114 53.3263 68.5761C51.8709 71.5408 47.959 72.603 44.5888 70.9486C41.2185 69.2941 39.6662 65.5496 41.1216 62.5849Z" fill="url(#paint17_radial_938_25563)"/>
<path id="Vector_33" d="M56.5422 59.7879C59.9346 58.1793 63.8317 59.2945 65.2468 62.2787C66.6618 65.2629 65.0588 68.986 61.6665 70.5946C58.2742 72.2032 54.377 71.088 52.9619 68.1038C51.5469 65.1197 53.1498 61.3965 56.5422 59.7879Z" fill="url(#paint18_radial_938_25563)"/>
<path id="Vector_34" d="M60.3657 54.3091C61.2245 50.6542 64.527 48.3038 67.7421 49.0592C70.9572 49.8146 72.8675 53.3899 72.0087 57.0448C71.1499 60.6997 67.8473 63.0501 64.6322 62.2947C61.4171 61.5392 59.5069 57.964 60.3657 54.3091Z" fill="url(#paint19_radial_938_25563)"/>
<path id="Vector_35" d="M58.9543 38.8577C61.549 36.8144 65.5354 37.549 67.8583 40.4986C70.1812 43.4482 69.9608 47.4958 67.3661 49.5391C64.7714 51.5824 60.785 50.8478 58.4621 47.8982C56.1393 44.9486 56.3596 40.901 58.9543 38.8577Z" fill="url(#paint20_radial_938_25563)"/>
</g>
</g>
<defs>
<radialGradient id="paint0_radial_938_25563" cx="0" cy="0" r="1" gradientUnits="userSpaceOnUse" gradientTransform="translate(55.9293 3.53) scale(4.934)">
<stop stop-color="#ACF7DE"/>
<stop offset="1" stop-color="#1DA075"/>
</radialGradient>
<radialGradient id="paint1_radial_938_25563" cx="0" cy="0" r="1" gradientUnits="userSpaceOnUse" gradientTransform="translate(16.0845 19.6104) rotate(-51.2758) scale(4.93422)">
<stop stop-color="#ACF7DE"/>
<stop offset="1" stop-color="#1DA075"/>
</radialGradient>
<radialGradient id="paint2_radial_938_25563" cx="0" cy="0" r="1" gradientUnits="userSpaceOnUse" gradientTransform="translate(3.70763 60.8024) rotate(-102.609) scale(4.93409)">
<stop stop-color="#ACF7DE"/>
<stop offset="1" stop-color="#1DA075"/>
</radialGradient>
<radialGradient id="paint3_radial_938_25563" cx="0" cy="0" r="1" gradientUnits="userSpaceOnUse" gradientTransform="translate(28.074 96.1739) rotate(-153.853) scale(4.9342)">
<stop stop-color="#ACF7DE"/>
<stop offset="1" stop-color="#1DA075"/>
</radialGradient>
<radialGradient id="paint4_radial_938_25563" cx="0" cy="0" r="1" gradientUnits="userSpaceOnUse" gradientTransform="translate(71.1083 99.2212) rotate(154.634) scale(4.93405)">
<stop stop-color="#ACF7DE"/>
<stop offset="1" stop-color="#1DA075"/>
</radialGradient>
<radialGradient id="paint5_radial_938_25563" cx="0" cy="0" r="1" gradientUnits="userSpaceOnUse" gradientTransform="translate(100.28 67.4812) rotate(103.221) scale(4.93401)">
<stop stop-color="#ACF7DE"/>
<stop offset="1" stop-color="#1DA075"/>
</radialGradient>
<radialGradient id="paint6_radial_938_25563" cx="0" cy="0" r="1" gradientUnits="userSpaceOnUse" gradientTransform="translate(93.6407 24.9068) rotate(51.7778) scale(4.93389)">
<stop stop-color="#ACF7DE"/>
<stop offset="1" stop-color="#1DA075"/>
</radialGradient>
<radialGradient id="paint7_radial_938_25563" cx="0" cy="0" r="1" gradientUnits="userSpaceOnUse" gradientTransform="translate(47.3382 8.29698) scale(8.093)">
<stop stop-color="#D8BA5D"/>
<stop offset="1" stop-color="#756532"/>
</radialGradient>
<radialGradient id="paint8_radial_938_25563" cx="0" cy="0" r="1" gradientUnits="userSpaceOnUse" gradientTransform="translate(14.4468 29.3376) rotate(-51.2507) scale(8.09412)">
<stop stop-color="#D8BA5D"/>
<stop offset="1" stop-color="#756532"/>
</radialGradient>
<radialGradient id="paint9_radial_938_25563" cx="0" cy="0" r="1" gradientUnits="userSpaceOnUse" gradientTransform="translate(10.2354 68.1458) rotate(-102.609) scale(8.09314)">
<stop stop-color="#D8BA5D"/>
<stop offset="1" stop-color="#756532"/>
</radialGradient>
<radialGradient id="paint10_radial_938_25563" cx="0" cy="0" r="1" gradientUnits="userSpaceOnUse" gradientTransform="translate(37.8862 95.68) rotate(-153.853) scale(8.09333 8.09333)">
<stop stop-color="#D8BA5D"/>
<stop offset="1" stop-color="#756532"/>
</radialGradient>
<radialGradient id="paint11_radial_938_25563" cx="0" cy="0" r="1" gradientUnits="userSpaceOnUse" gradientTransform="translate(76.8269 91.2345) rotate(154.634) scale(8.09308 8.09308)">
<stop stop-color="#D8BA5D"/>
<stop offset="1" stop-color="#756532"/>
</radialGradient>
<radialGradient id="paint12_radial_938_25563" cx="0" cy="0" r="1" gradientUnits="userSpaceOnUse" gradientTransform="translate(97.6034 58.0287) rotate(103.221) scale(8.09302 8.09303)">
<stop stop-color="#D8BA5D"/>
<stop offset="1" stop-color="#756532"/>
</radialGradient>
<radialGradient id="paint13_radial_938_25563" cx="0" cy="0" r="1" gradientUnits="userSpaceOnUse" gradientTransform="translate(84.58 21.1064) rotate(51.7778) scale(8.09283)">
<stop stop-color="#D8BA5D"/>
<stop offset="1" stop-color="#756532"/>
</radialGradient>
<radialGradient id="paint14_radial_938_25563" cx="0" cy="0" r="1" gradientTransform="matrix(6.79957 0.072144 0.072144 -4.66231 50.5926 37.5062)" gradientUnits="userSpaceOnUse">
<stop stop-color="#D8707F"/>
<stop offset="1" stop-color="#75323C"/>
</radialGradient>
<radialGradient id="paint15_radial_938_25563" cx="0" cy="0" r="1" gradientTransform="matrix(4.3097 -5.2602 -3.59187 -2.97323 39.2974 45.1256)" gradientUnits="userSpaceOnUse">
<stop stop-color="#D8707F"/>
<stop offset="1" stop-color="#75323C"/>
</radialGradient>
<radialGradient id="paint16_radial_938_25563" cx="0" cy="0" r="1" gradientTransform="matrix(-1.41402 -6.65168 -4.56581 0.947792 38.1303 58.5745)" gradientUnits="userSpaceOnUse">
<stop stop-color="#D8707F"/>
<stop offset="1" stop-color="#75323C"/>
</radialGradient>
<radialGradient id="paint17_radial_938_25563" cx="0" cy="0" r="1" gradientTransform="matrix(-6.07182 -3.06071 -2.11923 4.15369 47.7534 67.9416)" gradientUnits="userSpaceOnUse">
<stop stop-color="#D8707F"/>
<stop offset="1" stop-color="#75323C"/>
</radialGradient>
<radialGradient id="paint18_radial_938_25563" cx="0" cy="0" r="1" gradientTransform="matrix(-6.17462 2.84788 1.93256 4.24387 61.2761 66.3918)" gradientUnits="userSpaceOnUse">
<stop stop-color="#D8707F"/>
<stop offset="1" stop-color="#75323C"/>
</radialGradient>
<radialGradient id="paint19_radial_938_25563" cx="0" cy="0" r="1" gradientTransform="matrix(-1.62595 6.60298 4.52253 1.13627 68.5272 54.7152)" gradientUnits="userSpaceOnUse">
<stop stop-color="#D8707F"/>
<stop offset="1" stop-color="#75323C"/>
</radialGradient>
<radialGradient id="paint20_radial_938_25563" cx="0" cy="0" r="1" gradientTransform="matrix(4.15008 5.38645 3.7073 -2.82805 63.7884 41.744)" gradientUnits="userSpaceOnUse">
<stop stop-color="#D8707F"/>
<stop offset="1" stop-color="#75323C"/>
</radialGradient>
</defs>
</svg>
