<svg width="44" height="57" viewBox="0 0 44 57" fill="none" xmlns="http://www.w3.org/2000/svg">
<g id="R-ICO-013251">
<path id="Vector" d="M21.6822 53.1721C14.9025 53.1471 2.39648 56.3219 2.39648 56.3219C16.8206 56.3751 16.9244 28.2319 16.9244 28.2319C16.9244 28.2319 17.0282 0.0848621 2.60408 0.0317621C2.60408 0.0317621 14.9009 3.27666 21.6454 3.30156C28.3898 3.26676 40.6818 0.00366211 40.6818 0.00366211C26.2578 0.0781621 26.4031 28.225 26.4031 28.225C26.4031 28.225 26.5485 56.368 40.9725 56.2935C40.9725 56.2935 28.4618 53.1371 21.6822 53.1721Z" fill="url(#paint0_linear_938_22847)"/>
<g id="Group">
<path id="Vector_2" d="M29.6916 28.2043C29.8045 50.0656 39.5362 47.171 40.9247 47.1639C42.3132 47.1567 43.2511 48.6418 43.2693 52.1707C43.2839 54.9894 42.7835 56.2806 40.9718 56.29C26.5478 56.3645 26.4024 28.2214 26.4024 28.2214C26.4024 28.2214 26.2571 0.0745477 40.6811 4.77092e-05C42.491 -0.00925229 43.2787 1.34105 43.2929 4.09015C43.3071 6.83925 42.1167 9.12235 40.7282 9.12955C39.3398 9.13675 29.5787 6.34305 29.6916 28.2043Z" fill="url(#paint1_linear_938_22847)"/>
<path id="Vector_3" d="M13.6371 28.2162C13.5565 50.0777 3.82046 47.1975 2.43196 47.1924C1.04346 47.1873 0.107764 48.6737 0.0947636 52.2025C0.0843636 55.0213 0.586663 56.3117 2.39826 56.3184C16.8224 56.3716 16.9262 28.2284 16.9262 28.2284C16.9262 28.2284 17.03 0.081423 2.60586 0.028223C0.795964 0.021523 0.0101636 1.37312 6.36297e-05 4.12222C-0.0100364 6.87132 1.18366 9.15272 2.57216 9.15782C3.96066 9.16292 13.7177 6.35482 13.6371 28.2162Z" fill="url(#paint2_linear_938_22847)"/>
</g>
</g>
<defs>
<linearGradient id="paint0_linear_938_22847" x1="21.8864" y1="3.21778" x2="21.7016" y2="53.1579" gradientUnits="userSpaceOnUse">
<stop stop-color="#8AD29A"/>
<stop offset="0.0308" stop-color="#81CD92"/>
<stop offset="0.1696" stop-color="#5BBA70"/>
<stop offset="0.2985" stop-color="#40AC58"/>
<stop offset="0.4124" stop-color="#30A449"/>
<stop offset="0.4995" stop-color="#2AA144"/>
<stop offset="0.5867" stop-color="#30A449"/>
<stop offset="0.7009" stop-color="#40AC58"/>
<stop offset="0.83" stop-color="#5BBA70"/>
<stop offset="0.9692" stop-color="#81CD92"/>
<stop offset="1" stop-color="#8AD29A"/>
</linearGradient>
<linearGradient id="paint1_linear_938_22847" x1="26.4024" y1="28.145" x2="43.2931" y2="28.145" gradientUnits="userSpaceOnUse">
<stop stop-color="#00E031"/>
<stop offset="0.171" stop-color="#02DA31"/>
<stop offset="0.3948" stop-color="#07CA31"/>
<stop offset="0.6479" stop-color="#0EAF31"/>
<stop offset="0.9206" stop-color="#198932"/>
<stop offset="1" stop-color="#1D7D32"/>
</linearGradient>
<linearGradient id="paint2_linear_938_22847" x1="-3.63703e-05" y1="28.1733" x2="16.9262" y2="28.1733" gradientUnits="userSpaceOnUse">
<stop stop-color="#1D7D32"/>
<stop offset="0.0794" stop-color="#198932"/>
<stop offset="0.3521" stop-color="#0EAF31"/>
<stop offset="0.6052" stop-color="#07CA31"/>
<stop offset="0.829" stop-color="#02DA31"/>
<stop offset="1" stop-color="#00E031"/>
</linearGradient>
</defs>
</svg>
