<svg width="57" height="109" viewBox="0 0 57 109" fill="none" xmlns="http://www.w3.org/2000/svg">
<g id="R-ICO-013284">
<g id="Group">
<path id="BG" d="M21.4768 107.66C19.2062 107.66 17.3652 105.82 17.3652 103.549V35.362L25.5885 31.4231V103.549C25.5884 105.82 23.7474 107.66 21.4768 107.66Z" fill="url(#paint0_linear_938_23105)"/>
<path id="BG_2" d="M2.8672 1.15307C5.0443 -0.103228 7.7514 0.510672 8.9137 2.52487L24.9373 30.2322L25.5884 31.423L17.3651 35.362L1.0294 7.07467C-0.132995 5.06047 0.690105 2.40937 2.8672 1.15307Z" fill="url(#paint1_linear_938_23105)"/>
<g id="Mask group">
<mask id="mask0_938_23105" style="mask-type:alpha" maskUnits="userSpaceOnUse" x="17" y="100" width="9" height="8">
<path id="MASK" d="M17.3652 100.479V103.652C17.3652 105.866 19.2058 107.66 21.4768 107.66C23.7478 107.66 25.5884 105.866 25.5884 103.652V100.479" fill="url(#paint2_linear_938_23105)"/>
</mask>
<g mask="url(#mask0_938_23105)">
<path id="Vector" d="M17.3652 100.479V103.652C17.3652 105.866 19.2058 107.66 21.4768 107.66C23.7478 107.66 25.5884 105.866 25.5884 103.652V100.479" fill="url(#paint3_radial_938_23105)"/>
</g>
</g>
<path id="OUTLINE" d="M21.4839 108.161C21.3316 108.161 21.1787 108.154 21.0249 108.139C18.6919 107.916 16.8647 105.822 16.8647 103.372V35.9459C16.8647 35.6515 16.7871 35.3608 16.6401 35.1064L0.596217 7.32475C-0.0365832 6.22855 -0.170883 4.93465 0.218317 3.68165C0.603117 2.44235 1.45512 1.39065 2.61722 0.720249C3.77932 0.0488493 5.11622 -0.162051 6.38142 0.125049C7.66122 0.415049 8.71442 1.17875 9.34672 2.27495L25.355 29.979C25.835 30.7305 26.0884 31.585 26.0884 32.4502V103.549C26.0884 104.845 25.5376 106.089 24.5777 106.962C23.7183 107.744 22.6333 108.161 21.4839 108.161ZM5.26472 1.00045C4.52742 1.00045 3.78762 1.19965 3.11722 1.58635C2.17342 2.13085 1.48292 2.97995 1.17342 3.97805C0.868217 4.96195 0.970717 5.97265 1.46242 6.82475L17.5063 34.6064C17.7407 35.0131 17.8647 35.4761 17.8647 35.9459V103.372C17.8647 105.312 19.2944 106.969 21.1196 107.144C22.1567 107.24 23.1425 106.915 23.9052 106.222C24.6572 105.539 25.0883 104.564 25.0883 103.549V32.4501C25.0883 31.7729 24.8871 31.1015 24.5068 30.5087C24.5029 30.5024 24.4985 30.4955 24.4946 30.4887L8.48052 2.77495C7.98882 1.92285 7.16512 1.32815 6.16022 1.10005C5.86532 1.03325 5.56502 1.00045 5.26472 1.00045Z" fill="#6E6EC7"/>
</g>
<g id="Group_2">
<path id="BG_3" d="M34.723 107.66C36.9936 107.66 38.8346 105.82 38.8346 103.549V35.362L30.6113 31.4231V103.549C30.6114 105.82 32.4524 107.66 34.723 107.66Z" fill="url(#paint4_linear_938_23105)"/>
<path id="BG_4" d="M53.3325 1.15307C51.1554 -0.103228 48.4483 0.510672 47.286 2.52487L31.2624 30.2322L30.6113 31.423L38.8346 35.3619L55.1703 7.07467C56.3327 5.06047 55.5096 2.40937 53.3325 1.15307Z" fill="url(#paint5_linear_938_23105)"/>
<g id="Mask group_2">
<mask id="mask1_938_23105" style="mask-type:alpha" maskUnits="userSpaceOnUse" x="30" y="100" width="9" height="8">
<path id="MASK_2" d="M38.8345 100.479V103.652C38.8345 105.866 36.9939 107.66 34.7229 107.66C32.4519 107.66 30.6113 105.866 30.6113 103.652V100.479" fill="url(#paint6_linear_938_23105)"/>
</mask>
<g mask="url(#mask1_938_23105)">
<path id="Vector_2" d="M38.8345 100.479V103.652C38.8345 105.866 36.9939 107.66 34.7229 107.66C32.4519 107.66 30.6113 105.866 30.6113 103.652V100.479" fill="url(#paint7_radial_938_23105)"/>
</g>
</g>
<path id="OUTLINE_2" d="M31.622 106.962C30.662 106.089 30.1113 104.845 30.1113 103.549V32.4501C30.1113 31.5849 30.3647 30.7304 30.8447 29.9789L46.853 2.27495C47.4853 1.17875 48.5385 0.415049 49.8183 0.125049C51.0834 -0.162051 52.4204 0.0488493 53.5825 0.720249C54.7446 1.39065 55.5967 2.44245 55.9814 3.68165C56.3706 4.93455 56.2363 6.22855 55.6035 7.32475L39.5595 35.1064C39.4125 35.3608 39.3349 35.6514 39.3349 35.9459V103.372C39.3349 105.822 37.5078 107.916 35.1747 108.139C35.0209 108.154 34.8681 108.161 34.7157 108.161C33.5664 108.161 32.4814 107.744 31.622 106.962ZM50.0395 1.10005C49.0346 1.32805 48.2109 1.92285 47.7192 2.77485L31.705 30.4887C31.7011 30.4955 31.6967 30.5024 31.6928 30.5087C31.3124 31.1015 31.1113 31.7729 31.1113 32.4501V103.549C31.1113 104.564 31.5425 105.538 32.2944 106.222C33.0571 106.915 34.0429 107.24 35.08 107.143C36.9052 106.969 38.3349 105.312 38.3349 103.372V35.9459C38.3349 35.4762 38.4589 35.0132 38.6933 34.6064L54.7373 6.82475C55.229 5.97265 55.3315 4.96195 55.0264 3.97805C54.7168 2.98005 54.0264 2.13085 53.0826 1.58645C52.4122 1.19975 51.6724 1.00055 50.9351 1.00055C50.6347 1.00045 50.3344 1.03325 50.0395 1.10005Z" fill="#6E6EC7"/>
</g>
</g>
<defs>
<linearGradient id="paint0_linear_938_23105" x1="25.5884" y1="69.5418" x2="17.3651" y2="69.5418" gradientUnits="userSpaceOnUse">
<stop stop-color="#D2D2D2"/>
<stop offset="1" stop-color="#5B5B5B"/>
</linearGradient>
<linearGradient id="paint1_linear_938_23105" x1="8.31861" y1="19.6702" x2="16.2292" y2="15.1052" gradientUnits="userSpaceOnUse">
<stop stop-color="#5B5B5B"/>
<stop offset="1" stop-color="#D2D2D2"/>
</linearGradient>
<linearGradient id="paint2_linear_938_23105" x1="21.4768" y1="107.66" x2="21.4768" y2="100.479" gradientUnits="userSpaceOnUse">
<stop offset="0.25" stop-color="white"/>
<stop offset="1" stop-opacity="0"/>
</linearGradient>
<radialGradient id="paint3_radial_938_23105" cx="0" cy="0" r="1" gradientUnits="userSpaceOnUse" gradientTransform="translate(21.6896 95.5645) rotate(180) scale(5.6312 12.7631)">
<stop stop-color="#D2D2D2"/>
<stop offset="0.4695" stop-color="#939393"/>
<stop offset="0.8194" stop-color="#6A6A6A"/>
<stop offset="1" stop-color="#5B5B5B"/>
</radialGradient>
<linearGradient id="paint4_linear_938_23105" x1="30.6114" y1="69.5418" x2="38.8347" y2="69.5418" gradientUnits="userSpaceOnUse">
<stop stop-color="#D2D2D2"/>
<stop offset="1" stop-color="#5B5B5B"/>
</linearGradient>
<linearGradient id="paint5_linear_938_23105" x1="47.8875" y1="19.7037" x2="39.9769" y2="15.1388" gradientUnits="userSpaceOnUse">
<stop stop-color="#5B5B5B"/>
<stop offset="1" stop-color="#D2D2D2"/>
</linearGradient>
<linearGradient id="paint6_linear_938_23105" x1="34.7229" y1="107.66" x2="34.7229" y2="100.479" gradientUnits="userSpaceOnUse">
<stop offset="0.25" stop-color="white"/>
<stop offset="1" stop-opacity="0"/>
</linearGradient>
<radialGradient id="paint7_radial_938_23105" cx="0" cy="0" r="1" gradientUnits="userSpaceOnUse" gradientTransform="translate(34.5101 95.5645) scale(5.6312 12.7631)">
<stop stop-color="#D2D2D2"/>
<stop offset="0.4695" stop-color="#939393"/>
<stop offset="0.8194" stop-color="#6A6A6A"/>
<stop offset="1" stop-color="#5B5B5B"/>
</radialGradient>
</defs>
</svg>
