<svg width="121" height="99" viewBox="0 0 121 99" fill="none" xmlns="http://www.w3.org/2000/svg">
<g id="R-ICO-012425">
<g id="YELLOW">
<path id="Vector" d="M39.2424 36.0094L28.4824 29.7994C28.5824 31.1494 28.2724 32.4994 27.5824 33.6994C26.9023 34.8794 25.8824 35.8094 24.6924 36.4094L35.4324 42.6094C37.1924 43.6294 39.6324 42.9594 40.6324 41.2194C41.1524 40.3294 41.2824 39.3094 41.0224 38.3294C40.7524 37.3394 40.1224 36.5194 39.2424 36.0094Z" fill="#FFB700"/>
<path id="Vector_2" d="M93.4023 33.6994C92.7123 32.4994 92.4023 31.1494 92.5023 29.7994L81.7423 36.0094C80.8623 36.5194 80.2323 37.3394 79.9623 38.3294C79.7024 39.3094 79.8324 40.3294 80.3423 41.2194C81.3523 42.9595 83.7923 43.6294 85.5423 42.6094L96.2923 36.3994C95.1023 35.8094 94.0823 34.8794 93.4023 33.6994Z" fill="#FFB700"/>
</g>
<g id="GREEN">
<path id="Vector_3" d="M55.1722 25.3894L37.0822 14.9494C37.1622 16.2494 36.8822 17.5894 36.1822 18.8094C35.4922 20.0094 34.4622 20.9494 33.2422 21.5294L48.7122 30.4595C49.1722 30.7295 49.4622 31.2194 49.4622 31.7595V92.0895C49.4622 94.1895 51.1722 95.8995 53.2723 95.8995C55.3723 95.8995 57.0823 94.1895 57.0823 92.0895V28.6895C57.0822 27.3394 56.3522 26.0694 55.1722 25.3894Z" fill="#3BA33B"/>
<path id="Vector_4" d="M84.8023 18.8094C84.1023 17.5894 83.8223 16.2494 83.9023 14.9494L65.8123 25.3894C64.6323 26.0694 63.9023 27.3394 63.9023 28.6894V92.0894C63.9023 94.1894 65.6123 95.8994 67.7123 95.8994C69.8123 95.8994 71.5224 94.1894 71.5224 92.0894V31.7594C71.5224 31.2194 71.8124 30.7294 72.2724 30.4594L87.7424 21.5293C86.5223 20.9494 85.4923 20.0094 84.8023 18.8094Z" fill="#3BA33B"/>
</g>
<g id="RED">
<path id="Vector_5" d="M23.5928 26.9893L23.4828 26.9293L20.3928 25.1393L18.7228 24.1693L8.71276 18.3893C8.11276 18.0493 7.46275 17.8793 6.81275 17.8793C5.49275 17.8793 4.21275 18.5693 3.51275 19.7893C2.46276 21.5993 3.08276 23.9393 4.90276 24.9893L14.9328 30.7893L16.6228 31.7593L19.7828 33.5893C19.8428 33.6193 19.8928 33.6493 19.9528 33.6693C21.7028 34.5693 24.0028 33.8893 24.9828 32.1893C25.4928 31.3093 25.6328 30.2893 25.3728 29.3093C25.1028 28.3194 24.4728 27.4994 23.5928 26.9893Z" fill="#FF6561"/>
<path id="Vector_6" d="M117.473 19.7793C116.773 18.5693 115.493 17.8793 114.173 17.8793C113.523 17.8793 112.873 18.0493 112.273 18.3893L102.263 24.1693L100.593 25.1393L97.5032 26.9293L97.3932 26.9893C96.5132 27.4993 95.8831 28.3193 95.6131 29.3093C95.3531 30.2893 95.4932 31.3093 96.0032 32.1893C96.9832 33.8993 99.2932 34.5693 101.033 33.6693C101.093 33.6493 101.143 33.6193 101.203 33.5893L104.363 31.7593L106.053 30.7893L116.083 24.9893C117.903 23.9394 118.523 21.5993 117.473 19.7793Z" fill="#FF6561"/>
<path id="Vector_7" d="M32.2827 12.1794C32.2527 12.1494 32.2127 12.1294 32.1827 12.1094L28.9927 10.2694L27.2927 9.28936L17.2727 3.51936C16.6927 3.17936 16.0427 3.00936 15.3827 3.00936C15.0427 3.00936 14.7127 3.04936 14.3827 3.13936C13.4027 3.39936 12.5827 4.03936 12.0727 4.91936C11.0227 6.73936 11.6527 9.06936 13.4727 10.1194L23.4827 15.8894L25.1827 16.8594L28.2127 18.6094L28.3827 18.7094C30.1427 19.7394 32.5727 19.0594 33.5827 17.3094C34.6127 15.5194 34.0227 13.2494 32.2827 12.1794Z" fill="#FF6561"/>
<path id="Vector_8" d="M97.5028 15.8894L107.513 10.1194C109.333 9.06936 109.963 6.73936 108.913 4.91936C108.403 4.03936 107.583 3.39936 106.603 3.13936C106.273 3.04936 105.943 3.00936 105.603 3.00936C104.943 3.00936 104.293 3.17936 103.713 3.51936L93.7029 9.28936L91.9929 10.2694L88.8029 12.1094C88.7729 12.1294 88.7329 12.1494 88.7029 12.1794C86.9628 13.2494 86.3729 15.5194 87.4029 17.3094C88.4129 19.0594 90.8429 19.7294 92.6029 18.7094L92.7729 18.6094L95.8029 16.8594L97.5028 15.8894Z" fill="#FF6561"/>
</g>
<g id="BLUE">
<path id="Vector_9" d="M40.7424 33.4093L25.1224 24.3893C24.9924 24.3093 24.8524 24.2393 24.7124 24.1693L10.2124 15.7893C6.96237 13.9093 2.79237 15.0293 0.912373 18.2793C-0.967627 21.5393 0.152373 25.7094 3.40237 27.5793L18.2824 36.1793C18.2924 36.1893 18.3024 36.1893 18.3124 36.1893C18.3624 36.2293 18.4224 36.2593 18.4724 36.2793L33.9324 45.2094C34.9724 45.8094 36.1424 46.1194 37.3324 46.1194C39.7624 46.1194 42.0324 44.8194 43.2324 42.7194C44.1524 41.1394 44.3924 39.3094 43.9224 37.5494C43.4524 35.7893 42.3224 34.3194 40.7424 33.4093ZM19.9524 33.6693C19.8924 33.6493 19.8424 33.6193 19.7824 33.5893L16.6224 31.7593L14.9324 30.7893L4.90237 24.9893C3.08247 23.9393 2.46237 21.5993 3.51237 19.7893C4.21237 18.5693 5.49237 17.8793 6.81237 17.8793C7.46237 17.8793 8.11237 18.0493 8.71237 18.3893L18.7224 24.1693L20.3924 25.1393L23.4824 26.9293L23.5924 26.9893C24.4724 27.4993 25.1024 28.3193 25.3724 29.3093C25.6324 30.2893 25.4924 31.3093 24.9824 32.1893C24.0024 33.8894 21.7024 34.5694 19.9524 33.6693ZM40.6324 41.2193C39.6324 42.9594 37.1924 43.6293 35.4324 42.6093L24.6924 36.4093C25.8824 35.8093 26.9024 34.8793 27.5824 33.6993C28.2724 32.4993 28.5824 31.1493 28.4824 29.7993L39.2424 36.0093C40.1224 36.5193 40.7524 37.3393 41.0224 38.3293C41.2824 39.3094 41.1524 40.3294 40.6324 41.2193Z" fill="#3855FC"/>
<path id="Vector_10" d="M120.072 18.2793C118.192 15.0293 114.022 13.9093 110.772 15.7893L96.272 24.1693C96.132 24.2393 95.992 24.3093 95.862 24.3893L80.242 33.4093C78.662 34.3193 77.532 35.7893 77.062 37.5493C76.592 39.3093 76.832 41.1393 77.742 42.7193C78.952 44.8193 81.222 46.1193 83.652 46.1193C84.842 46.1193 86.012 45.8093 87.052 45.2093L102.512 36.2792C102.562 36.2592 102.622 36.2292 102.672 36.1892C102.682 36.1892 102.692 36.1892 102.702 36.1792L117.582 27.5792C120.832 25.7094 121.952 21.5393 120.072 18.2793ZM85.542 42.6093C83.792 43.6293 81.352 42.9593 80.342 41.2193C79.8321 40.3293 79.702 39.3093 79.962 38.3293C80.232 37.3393 80.862 36.5193 81.742 36.0093L92.502 29.7993C92.402 31.1493 92.712 32.4993 93.402 33.6993C94.0821 34.8793 95.102 35.8093 96.292 36.3993L85.542 42.6093ZM116.082 24.9893L106.052 30.7893L104.362 31.7593L101.202 33.5893C101.142 33.6193 101.092 33.6493 101.032 33.6693C99.292 34.5693 96.982 33.8993 96.002 32.1893C95.492 31.3093 95.352 30.2893 95.612 29.3093C95.882 28.3193 96.512 27.4993 97.392 26.9893L97.502 26.9293L100.592 25.1393L102.262 24.1693L112.272 18.3893C112.872 18.0493 113.522 17.8793 114.172 17.8793C115.492 17.8793 116.772 18.5693 117.472 19.7793C118.522 21.5993 117.902 23.9394 116.082 24.9893Z" fill="#3855FC"/>
<path id="Vector_11" d="M56.6724 22.7893L33.8924 9.63926C33.8224 9.58926 33.7524 9.54926 33.6824 9.50926L18.7724 0.919261C17.2024 0.00926054 15.3624 -0.240739 13.6024 0.239261C11.8524 0.709261 10.3824 1.83926 9.47243 3.41926C8.56243 4.98926 8.32243 6.82926 8.79243 8.58926C9.26243 10.3393 10.3924 11.8093 11.9724 12.7192L26.7324 21.2292C26.7724 21.2592 26.8224 21.2892 26.8724 21.3192L46.4624 32.6292V92.0892C46.4624 95.8392 49.5124 98.8992 53.2725 98.8992C57.0225 98.8992 60.0825 95.8392 60.0825 92.0892V28.6892C60.0824 26.2694 58.7724 24.0094 56.6724 22.7893ZM28.3824 18.7094L28.2124 18.6094L25.1824 16.8594L23.4824 15.8894L13.4724 10.1194C11.6524 9.06936 11.0224 6.73936 12.0724 4.91936C12.5824 4.03936 13.4024 3.39936 14.3824 3.13936C14.7124 3.04936 15.0424 3.00936 15.3824 3.00936C16.0424 3.00936 16.6924 3.17936 17.2724 3.51936L27.2924 9.28936L28.9924 10.2694L32.1824 12.1094C32.2124 12.1294 32.2524 12.1494 32.2824 12.1794C34.0225 13.2494 34.6124 15.5194 33.5824 17.3094C32.5724 19.0594 30.1424 19.7393 28.3824 18.7094ZM57.0824 92.0894C57.0824 94.1894 55.3724 95.8994 53.2724 95.8994C51.1724 95.8994 49.4623 94.1894 49.4623 92.0894V31.7594C49.4623 31.2194 49.1723 30.7294 48.7123 30.4594L33.2423 21.5293C34.4623 20.9493 35.4923 20.0093 36.1823 18.8093C36.8823 17.5893 37.1623 16.2493 37.0823 14.9493L55.1723 25.3893C56.3523 26.0693 57.0823 27.3393 57.0823 28.6893L57.0824 92.0894Z" fill="#3855FC"/>
<path id="Vector_12" d="M94.3323 21.1794L109.012 12.7194C110.592 11.8094 111.722 10.3395 112.192 8.58946C112.662 6.82946 112.422 4.98946 111.512 3.41946C110.602 1.83946 109.132 0.709461 107.382 0.239461C105.622 -0.230539 103.782 0.00946051 102.212 0.919461L87.3023 9.50946C87.2323 9.54946 87.1623 9.58946 87.0923 9.63946L64.3123 22.7895C62.2123 24.0095 60.9023 26.2695 60.9023 28.6895V92.0895C60.9023 95.8395 63.9623 98.8995 67.7123 98.8995C71.4723 98.8995 74.5224 95.8395 74.5224 92.0895V32.6295L94.1124 21.3195C94.1923 21.2793 94.2623 21.2293 94.3323 21.1794ZM72.2723 30.4594C71.8123 30.7294 71.5223 31.2193 71.5223 31.7594V92.0894C71.5223 94.1894 69.8123 95.8994 67.7122 95.8994C65.6122 95.8994 63.9022 94.1894 63.9022 92.0894V28.6894C63.9022 27.3394 64.6322 26.0694 65.8122 25.3894L83.9022 14.9494C83.8222 16.2494 84.1022 17.5894 84.8022 18.8094C85.4922 20.0094 86.5222 20.9494 87.7422 21.5294L72.2723 30.4594ZM92.6023 18.7094C90.8423 19.7294 88.4123 19.0594 87.4023 17.3094C86.3723 15.5194 86.9623 13.2494 88.7023 12.1794C88.7323 12.1494 88.7723 12.1294 88.8023 12.1094L91.9923 10.2694L93.7023 9.28936L103.712 3.51936C104.292 3.17936 104.942 3.00936 105.602 3.00936C105.942 3.00936 106.272 3.04936 106.602 3.13936C107.582 3.39936 108.402 4.03936 108.912 4.91936C109.962 6.73936 109.332 9.06936 107.512 10.1194L97.5022 15.8894L95.8022 16.8594L92.7722 18.6094L92.6023 18.7094Z" fill="#3855FC"/>
</g>
</g>
</svg>
