<svg width="46" height="160" viewBox="0 0 46 160" fill="none" xmlns="http://www.w3.org/2000/svg">
<g id="R-ICO-012705">
<path id="Vector" d="M10.9512 61.8891H6.95117V131.56H10.9512V61.8891Z" fill="url(#paint0_linear_938_23016)"/>
<path id="Vector_2" d="M8.9507 64.7024C4.0068 64.7024 0 61.2732 0 57.0438V49.4601C0 45.2307 4.0068 41.8015 8.9507 41.8015C13.8946 41.8015 17.9014 45.2307 17.9014 49.4601V57.0438C17.9014 61.2732 13.8945 64.7024 8.9507 64.7024Z" fill="url(#paint1_radial_938_23016)"/>
<path id="Vector_3" d="M8.9507 43.8016C4.0068 43.8016 0 40.3725 0 36.143V28.5593C0 24.3299 4.0068 20.9007 8.9507 20.9007C13.8946 20.9007 17.9014 24.3299 17.9014 28.5593V36.143C17.9014 40.3725 13.8945 43.8016 8.9507 43.8016Z" fill="url(#paint2_radial_938_23016)"/>
<path id="Vector_4" d="M15.1194 116.294H2.78223V159.61H15.1194V116.294Z" fill="url(#paint3_linear_938_23016)"/>
<path id="Vector_5" d="M38.9521 61.8891H34.9521V131.56H38.9521V61.8891Z" fill="url(#paint4_linear_938_23016)"/>
<path id="Vector_6" d="M36.9527 64.7024C32.0088 64.7024 28.002 61.2732 28.002 57.0438V49.4601C28.002 45.2307 32.0088 41.8015 36.9527 41.8015C41.8966 41.8015 45.9034 45.2307 45.9034 49.4601V57.0438C45.9034 61.2732 41.8966 64.7024 36.9527 64.7024Z" fill="url(#paint5_radial_938_23016)"/>
<path id="Vector_7" d="M36.9527 43.8016C32.0088 43.8016 28.002 40.3724 28.002 36.143V28.5593C28.002 24.3299 32.0088 20.9007 36.9527 20.9007C41.8966 20.9007 45.9034 24.3299 45.9034 28.5593V36.143C45.9034 40.3725 41.8966 43.8016 36.9527 43.8016Z" fill="url(#paint6_radial_938_23016)"/>
<path id="Vector_8" d="M43.1214 116.294H30.7842V159.61H43.1214V116.294Z" fill="url(#paint7_linear_938_23016)"/>
<path id="Vector_9" d="M24.9512 61.8891H20.9512V131.56H24.9512V61.8891Z" fill="url(#paint8_linear_938_23016)"/>
<path id="Vector_10" d="M22.9517 64.7024C18.0078 64.7024 14.001 61.2732 14.001 57.0438V49.4601C14.001 45.2307 18.0078 41.8015 22.9517 41.8015C27.8956 41.8015 31.9024 45.2307 31.9024 49.4601V57.0438C31.9024 61.2732 27.8955 64.7024 22.9517 64.7024Z" fill="url(#paint9_radial_938_23016)"/>
<path id="Vector_11" d="M22.9517 43.8016C18.0078 43.8016 14.001 40.3724 14.001 36.143V28.5593C14.001 24.3299 18.0078 20.9007 22.9517 20.9007C27.8956 20.9007 31.9024 24.3299 31.9024 28.5593V36.143C31.9024 40.3725 27.8955 43.8016 22.9517 43.8016Z" fill="url(#paint10_radial_938_23016)"/>
<path id="Vector_12" d="M8.9507 22.9009C4.0068 22.9009 0 19.4717 0 15.2423V7.6586C0 3.4292 4.0068 0 8.9507 0C13.8946 0 17.9014 3.4292 17.9014 7.6586V15.2423C17.9014 19.4717 13.8945 22.9009 8.9507 22.9009Z" fill="url(#paint11_radial_938_23016)"/>
<path id="Vector_13" d="M36.9527 22.9009C32.0088 22.9009 28.002 19.4717 28.002 15.2423V7.6586C28.0021 3.4292 32.0089 0 36.9527 0C41.8965 0 45.9034 3.4292 45.9034 7.6586V15.2423C45.9034 19.4717 41.8966 22.9009 36.9527 22.9009Z" fill="url(#paint12_radial_938_23016)"/>
<path id="Vector_14" d="M22.9517 22.9009C18.0078 22.9009 14.001 19.4717 14.001 15.2423V7.6586C14.001 3.4292 18.0078 0 22.9517 0C27.8956 0 31.9024 3.4292 31.9024 7.6586V15.2423C31.9024 19.4717 27.8955 22.9009 22.9517 22.9009Z" fill="url(#paint13_radial_938_23016)"/>
<path id="Vector_15" d="M29.1204 116.294H16.7832V159.61H29.1204V116.294Z" fill="url(#paint14_linear_938_23016)"/>
</g>
<defs>
<linearGradient id="paint0_linear_938_23016" x1="6.95117" y1="96.7246" x2="10.9512" y2="96.7246" gradientUnits="userSpaceOnUse">
<stop stop-color="#143D3D"/>
<stop offset="0.0444" stop-color="#164343"/>
<stop offset="0.1047" stop-color="#1D5454"/>
<stop offset="0.174" stop-color="#297171"/>
<stop offset="0.2501" stop-color="#389999"/>
<stop offset="0.3308" stop-color="#4CCBCB"/>
<stop offset="0.3513" stop-color="#52D9D9"/>
<stop offset="0.3937" stop-color="#43B4B4"/>
<stop offset="0.4432" stop-color="#358F8F"/>
<stop offset="0.4953" stop-color="#297171"/>
<stop offset="0.5502" stop-color="#205A5A"/>
<stop offset="0.6088" stop-color="#194A4A"/>
<stop offset="0.674" stop-color="#154040"/>
<stop offset="0.7585" stop-color="#143D3D"/>
</linearGradient>
<radialGradient id="paint1_radial_938_23016" cx="0" cy="0" r="1" gradientUnits="userSpaceOnUse" gradientTransform="translate(7.1368 49.9156) scale(16.2198 13.8779)">
<stop stop-color="#36D9D9"/>
<stop offset="0.0061" stop-color="#36D7D7"/>
<stop offset="0.153" stop-color="#2BA8A8"/>
<stop offset="0.3" stop-color="#238282"/>
<stop offset="0.4447" stop-color="#1C6464"/>
<stop offset="0.5865" stop-color="#184E4E"/>
<stop offset="0.7239" stop-color="#154141"/>
<stop offset="0.8521" stop-color="#143D3D"/>
</radialGradient>
<radialGradient id="paint2_radial_938_23016" cx="0" cy="0" r="1" gradientUnits="userSpaceOnUse" gradientTransform="translate(7.1368 29.0151) scale(16.2198 13.8779)">
<stop stop-color="#36D9D9"/>
<stop offset="0.0061" stop-color="#36D7D7"/>
<stop offset="0.153" stop-color="#2BA8A8"/>
<stop offset="0.3" stop-color="#238282"/>
<stop offset="0.4447" stop-color="#1C6464"/>
<stop offset="0.5865" stop-color="#184E4E"/>
<stop offset="0.7239" stop-color="#154141"/>
<stop offset="0.8521" stop-color="#143D3D"/>
</radialGradient>
<linearGradient id="paint3_linear_938_23016" x1="2.78223" y1="137.952" x2="15.1194" y2="137.952" gradientUnits="userSpaceOnUse">
<stop stop-color="#143D3D"/>
<stop offset="0.0444" stop-color="#164343"/>
<stop offset="0.1047" stop-color="#1D5454"/>
<stop offset="0.174" stop-color="#297171"/>
<stop offset="0.2501" stop-color="#389999"/>
<stop offset="0.3308" stop-color="#4CCBCB"/>
<stop offset="0.3513" stop-color="#52D9D9"/>
<stop offset="0.3937" stop-color="#43B4B4"/>
<stop offset="0.4432" stop-color="#358F8F"/>
<stop offset="0.4953" stop-color="#297171"/>
<stop offset="0.5502" stop-color="#205A5A"/>
<stop offset="0.6088" stop-color="#194A4A"/>
<stop offset="0.674" stop-color="#154040"/>
<stop offset="0.7585" stop-color="#143D3D"/>
</linearGradient>
<linearGradient id="paint4_linear_938_23016" x1="34.9522" y1="96.7246" x2="38.9522" y2="96.7246" gradientUnits="userSpaceOnUse">
<stop stop-color="#143D3D"/>
<stop offset="0.0444" stop-color="#164343"/>
<stop offset="0.1047" stop-color="#1D5454"/>
<stop offset="0.174" stop-color="#297171"/>
<stop offset="0.2501" stop-color="#389999"/>
<stop offset="0.3308" stop-color="#4CCBCB"/>
<stop offset="0.3513" stop-color="#52D9D9"/>
<stop offset="0.3937" stop-color="#43B4B4"/>
<stop offset="0.4432" stop-color="#358F8F"/>
<stop offset="0.4953" stop-color="#297171"/>
<stop offset="0.5502" stop-color="#205A5A"/>
<stop offset="0.6088" stop-color="#194A4A"/>
<stop offset="0.674" stop-color="#154040"/>
<stop offset="0.7585" stop-color="#143D3D"/>
</linearGradient>
<radialGradient id="paint5_radial_938_23016" cx="0" cy="0" r="1" gradientUnits="userSpaceOnUse" gradientTransform="translate(35.1394 49.9156) scale(16.2198 13.8779)">
<stop stop-color="#36D9D9"/>
<stop offset="0.0061" stop-color="#36D7D7"/>
<stop offset="0.153" stop-color="#2BA8A8"/>
<stop offset="0.3" stop-color="#238282"/>
<stop offset="0.4447" stop-color="#1C6464"/>
<stop offset="0.5865" stop-color="#184E4E"/>
<stop offset="0.7239" stop-color="#154141"/>
<stop offset="0.8521" stop-color="#143D3D"/>
</radialGradient>
<radialGradient id="paint6_radial_938_23016" cx="0" cy="0" r="1" gradientUnits="userSpaceOnUse" gradientTransform="translate(35.1394 29.0151) scale(16.2198 13.8779)">
<stop stop-color="#36D9D9"/>
<stop offset="0.0061" stop-color="#36D7D7"/>
<stop offset="0.153" stop-color="#2BA8A8"/>
<stop offset="0.3" stop-color="#238282"/>
<stop offset="0.4447" stop-color="#1C6464"/>
<stop offset="0.5865" stop-color="#184E4E"/>
<stop offset="0.7239" stop-color="#154141"/>
<stop offset="0.8521" stop-color="#143D3D"/>
</radialGradient>
<linearGradient id="paint7_linear_938_23016" x1="30.7842" y1="137.952" x2="43.1214" y2="137.952" gradientUnits="userSpaceOnUse">
<stop stop-color="#143D3D"/>
<stop offset="0.0444" stop-color="#164343"/>
<stop offset="0.1047" stop-color="#1D5454"/>
<stop offset="0.174" stop-color="#297171"/>
<stop offset="0.2501" stop-color="#389999"/>
<stop offset="0.3308" stop-color="#4CCBCB"/>
<stop offset="0.3513" stop-color="#52D9D9"/>
<stop offset="0.3937" stop-color="#43B4B4"/>
<stop offset="0.4432" stop-color="#358F8F"/>
<stop offset="0.4953" stop-color="#297171"/>
<stop offset="0.5502" stop-color="#205A5A"/>
<stop offset="0.6088" stop-color="#194A4A"/>
<stop offset="0.674" stop-color="#154040"/>
<stop offset="0.7585" stop-color="#143D3D"/>
</linearGradient>
<linearGradient id="paint8_linear_938_23016" x1="20.9512" y1="96.7246" x2="24.9512" y2="96.7246" gradientUnits="userSpaceOnUse">
<stop stop-color="#143D3D"/>
<stop offset="0.0444" stop-color="#164343"/>
<stop offset="0.1047" stop-color="#1D5454"/>
<stop offset="0.174" stop-color="#297171"/>
<stop offset="0.2501" stop-color="#389999"/>
<stop offset="0.3308" stop-color="#4CCBCB"/>
<stop offset="0.3513" stop-color="#52D9D9"/>
<stop offset="0.3937" stop-color="#43B4B4"/>
<stop offset="0.4432" stop-color="#358F8F"/>
<stop offset="0.4953" stop-color="#297171"/>
<stop offset="0.5502" stop-color="#205A5A"/>
<stop offset="0.6088" stop-color="#194A4A"/>
<stop offset="0.674" stop-color="#154040"/>
<stop offset="0.7585" stop-color="#143D3D"/>
</linearGradient>
<radialGradient id="paint9_radial_938_23016" cx="0" cy="0" r="1" gradientUnits="userSpaceOnUse" gradientTransform="translate(21.138 49.9156) scale(16.2198 13.8779)">
<stop stop-color="#36D9D9"/>
<stop offset="0.0061" stop-color="#36D7D7"/>
<stop offset="0.153" stop-color="#2BA8A8"/>
<stop offset="0.3" stop-color="#238282"/>
<stop offset="0.4447" stop-color="#1C6464"/>
<stop offset="0.5865" stop-color="#184E4E"/>
<stop offset="0.7239" stop-color="#154141"/>
<stop offset="0.8521" stop-color="#143D3D"/>
</radialGradient>
<radialGradient id="paint10_radial_938_23016" cx="0" cy="0" r="1" gradientUnits="userSpaceOnUse" gradientTransform="translate(21.138 29.0151) scale(16.2198 13.8779)">
<stop stop-color="#36D9D9"/>
<stop offset="0.0061" stop-color="#36D7D7"/>
<stop offset="0.153" stop-color="#2BA8A8"/>
<stop offset="0.3" stop-color="#238282"/>
<stop offset="0.4447" stop-color="#1C6464"/>
<stop offset="0.5865" stop-color="#184E4E"/>
<stop offset="0.7239" stop-color="#154141"/>
<stop offset="0.8521" stop-color="#143D3D"/>
</radialGradient>
<radialGradient id="paint11_radial_938_23016" cx="0" cy="0" r="1" gradientUnits="userSpaceOnUse" gradientTransform="translate(7.1368 8.11472) scale(16.2198 13.8779)">
<stop stop-color="#36D9D9"/>
<stop offset="0.0061" stop-color="#36D7D7"/>
<stop offset="0.153" stop-color="#2BA8A8"/>
<stop offset="0.3" stop-color="#238282"/>
<stop offset="0.4447" stop-color="#1C6464"/>
<stop offset="0.5865" stop-color="#184E4E"/>
<stop offset="0.7239" stop-color="#154141"/>
<stop offset="0.8521" stop-color="#143D3D"/>
</radialGradient>
<radialGradient id="paint12_radial_938_23016" cx="0" cy="0" r="1" gradientUnits="userSpaceOnUse" gradientTransform="translate(35.1394 8.11472) scale(16.2198 13.8779)">
<stop stop-color="#36D9D9"/>
<stop offset="0.0061" stop-color="#36D7D7"/>
<stop offset="0.153" stop-color="#2BA8A8"/>
<stop offset="0.3" stop-color="#238282"/>
<stop offset="0.4447" stop-color="#1C6464"/>
<stop offset="0.5865" stop-color="#184E4E"/>
<stop offset="0.7239" stop-color="#154141"/>
<stop offset="0.8521" stop-color="#143D3D"/>
</radialGradient>
<radialGradient id="paint13_radial_938_23016" cx="0" cy="0" r="1" gradientUnits="userSpaceOnUse" gradientTransform="translate(21.138 8.11472) scale(16.2198 13.8779)">
<stop stop-color="#36D9D9"/>
<stop offset="0.0061" stop-color="#36D7D7"/>
<stop offset="0.153" stop-color="#2BA8A8"/>
<stop offset="0.3" stop-color="#238282"/>
<stop offset="0.4447" stop-color="#1C6464"/>
<stop offset="0.5865" stop-color="#184E4E"/>
<stop offset="0.7239" stop-color="#154141"/>
<stop offset="0.8521" stop-color="#143D3D"/>
</radialGradient>
<linearGradient id="paint14_linear_938_23016" x1="16.7832" y1="137.952" x2="29.1204" y2="137.952" gradientUnits="userSpaceOnUse">
<stop stop-color="#143D3D"/>
<stop offset="0.0444" stop-color="#164343"/>
<stop offset="0.1047" stop-color="#1D5454"/>
<stop offset="0.174" stop-color="#297171"/>
<stop offset="0.2501" stop-color="#389999"/>
<stop offset="0.3308" stop-color="#4CCBCB"/>
<stop offset="0.3513" stop-color="#52D9D9"/>
<stop offset="0.3937" stop-color="#43B4B4"/>
<stop offset="0.4432" stop-color="#358F8F"/>
<stop offset="0.4953" stop-color="#297171"/>
<stop offset="0.5502" stop-color="#205A5A"/>
<stop offset="0.6088" stop-color="#194A4A"/>
<stop offset="0.674" stop-color="#154040"/>
<stop offset="0.7585" stop-color="#143D3D"/>
</linearGradient>
</defs>
</svg>
