<svg width="170" height="116" viewBox="0 0 170 116" fill="none" xmlns="http://www.w3.org/2000/svg">
<g id="R-ICO-013926">
<path id="BG" d="M169.301 46.1769C168.982 43.879 167.255 42.029 164.984 41.5519L153.363 39.1095C151.097 38.63 148.768 39.6315 147.551 41.6056C146.333 43.5807 146.485 46.1071 147.933 47.9205L150.045 50.5697C136.994 66.1315 109.688 80.9516 78.1391 91.1402C98.6594 76.7529 113.875 58.3247 125.319 42.3278L130.637 41.5889C132.935 41.2696 134.785 39.543 135.263 37.2725C135.739 35.0025 134.741 32.6768 132.766 31.4595L122.657 25.2281C120.683 24.0113 118.158 24.1636 116.343 25.6094C114.529 27.0552 113.817 29.4839 114.564 31.6802L116.125 36.2698C102.922 54.6705 84.4567 76.3888 58.3153 90.3391C69.8799 76.8542 77.3957 59.9876 84.0968 44.922C88.3121 35.4448 92.3225 26.4299 96.8376 19.2655L100.85 20.003C101.183 20.0645 101.515 20.0943 101.845 20.0943C103.777 20.0943 105.601 19.0728 106.598 17.3604C107.765 15.3555 107.548 12.8335 106.056 11.0572L98.4201 1.96351C96.9289 0.186611 94.4816 -0.462289 92.3058 0.339511C90.129 1.14171 88.6896 3.22381 88.7081 5.54361L88.7554 11.5586C83.2841 19.7364 78.7828 29.8037 74.046 40.4518C60.3615 71.2169 46.2121 103.03 5.29306 104.569C2.25786 104.683 -0.110237 107.237 0.00396277 110.272C0.115263 113.237 2.55376 115.565 5.49616 115.565C5.56646 115.565 5.63676 115.564 5.70706 115.561C67.4246 113.24 137.826 85.5431 160.719 54.7911L166.41 51.8039C168.464 50.7257 169.62 48.4747 169.301 46.1769Z" fill="#FFA600"/>
<g id="SHINE" opacity="0.6">
<path id="Vector" d="M63.8624 93.5948C63.3448 93.5948 62.8399 93.3258 62.5626 92.8443C62.1485 92.127 62.3937 91.2095 63.1114 90.7955C82.1495 79.8038 98.8468 64.0904 115.66 41.3448C116.152 40.6788 117.092 40.5382 117.758 41.0303C118.424 41.5224 118.565 42.4619 118.072 43.128C101.24 65.9 83.753 82.3419 64.6114 93.3932C64.3751 93.5299 64.1172 93.5948 63.8624 93.5948Z" fill="white"/>
<path id="Vector_2" d="M55.762 84.1202C55.4397 84.1202 55.1145 84.0167 54.8401 83.8028C54.1868 83.293 54.0706 82.3507 54.5803 81.6973C64.0051 69.6198 70.4592 55.11 76.7005 41.0773C80.389 32.7863 83.8714 24.9552 87.7679 18.1212C88.1781 17.4005 89.0941 17.1495 89.8138 17.5607C90.5335 17.9709 90.7845 18.8869 90.3734 19.6066C86.5521 26.3107 83.098 34.0758 79.4418 42.2965C73.1272 56.4943 66.5969 71.1754 56.9456 83.5431C56.6497 83.922 56.2083 84.1202 55.762 84.1202Z" fill="white"/>
<path id="Vector_3" d="M72.1198 99.024C71.4733 99.024 70.8757 98.6021 70.6823 97.9498C70.4469 97.1554 70.9001 96.3209 71.694 96.0855C105.968 85.9258 135.245 70.3853 150.01 54.5137C150.578 53.9058 151.525 53.8736 152.131 54.437C152.737 55.001 152.771 55.9502 152.208 56.5566C136.867 73.0468 107.832 88.5024 72.5474 98.9614C72.405 99.004 72.2614 99.024 72.1198 99.024Z" fill="white"/>
</g>
</g>
</svg>
