<svg width="40" height="42" viewBox="0 0 40 42" fill="none" xmlns="http://www.w3.org/2000/svg">
<g id="R-ICO-012958" opacity="0.8">
<g id="BG">
<mask id="path-1-inside-1_938_25652" fill="white">
<path d="M39.6352 18.5399C39.6352 17.2278 38.9954 16.0701 38.0189 15.3687C38.3168 14.8153 38.4871 14.18 38.4871 13.5038C38.4871 11.7682 37.3704 10.2996 35.8311 9.8054C35.8339 9.7436 35.8403 9.6826 35.8403 9.62C35.8403 7.5928 34.3164 5.9315 32.3753 5.7604C32.3753 5.757 32.3758 5.7539 32.3758 5.7505C32.3758 3.6095 30.6768 1.8738 28.5809 1.8738C27.7663 1.8738 27.0136 2.1384 26.3954 2.5846C25.7116 1.566 24.5649 0.8971 23.2645 0.8971C22.4287 0.8971 21.6585 1.1765 21.0315 1.6442C20.3443 0.6507 19.2136 0 17.9322 0C16.362 0 15.0147 0.9743 14.4376 2.3634C13.8915 2.0525 13.2634 1.8738 12.5938 1.8738C10.8265 1.8738 9.3458 3.1096 8.9235 4.7802C8.8818 4.7788 8.841 4.7738 8.7989 4.7738C6.7043 4.7738 5.0061 6.5074 5.0041 8.6468C3.2309 8.9726 1.8843 10.5534 1.8843 12.4587C1.8843 12.7641 1.9224 13.0598 1.9878 13.3448C1.095 14.0541 0.5183 15.159 0.5183 16.4038C0.5183 17.0439 0.6728 17.6462 0.9417 18.1783C0.3571 18.8602 0 19.7509 0 20.7286C0 22.0538 0.6519 23.2226 1.645 23.9217C1.3679 24.46 1.2092 25.072 1.2092 25.7225C1.2092 27.2892 2.1208 28.6355 3.43 29.2468C3.4197 29.363 3.4126 29.4802 3.4126 29.5991C3.4126 31.3775 4.5863 32.8725 6.1845 33.3292C6.1827 33.3782 6.1772 33.4263 6.1772 33.4758C6.1772 35.6168 7.8763 37.3524 9.9721 37.3524C9.9983 37.3524 10.0236 37.349 10.0496 37.3484C10.4041 39.1141 11.9337 40.4421 13.767 40.4421C14.4219 40.4421 15.0381 40.2726 15.5758 39.9742C16.2693 40.7438 17.2607 41.2291 18.3655 41.2291C19.4336 41.2291 20.3971 40.7767 21.0867 40.0511C21.5868 40.299 22.146 40.4421 22.7392 40.4421C24.37 40.4421 25.7565 39.3892 26.2933 37.9142C26.8653 38.2673 27.5335 38.4742 28.2505 38.4742C29.8293 38.4742 31.1821 37.4889 31.7539 36.0877C31.9567 36.1219 32.1635 36.1442 32.3758 36.1442C34.4717 36.1442 36.1707 34.4086 36.1707 32.2675C36.1707 32.0019 36.1442 31.7426 36.0944 31.492C37.4955 30.9219 38.4871 29.5265 38.4871 27.892C38.4871 27.2865 38.3473 26.7157 38.105 26.2052C39.0321 25.4984 39.6352 24.3725 39.6352 23.0999C39.6352 22.2466 39.3621 21.4602 38.9047 20.8199C39.3621 20.1796 39.6352 19.3933 39.6352 18.5399Z"/>
</mask>
<path d="M39.6352 18.5399C39.6352 17.2278 38.9954 16.0701 38.0189 15.3687C38.3168 14.8153 38.4871 14.18 38.4871 13.5038C38.4871 11.7682 37.3704 10.2996 35.8311 9.8054C35.8339 9.7436 35.8403 9.6826 35.8403 9.62C35.8403 7.5928 34.3164 5.9315 32.3753 5.7604C32.3753 5.757 32.3758 5.7539 32.3758 5.7505C32.3758 3.6095 30.6768 1.8738 28.5809 1.8738C27.7663 1.8738 27.0136 2.1384 26.3954 2.5846C25.7116 1.566 24.5649 0.8971 23.2645 0.8971C22.4287 0.8971 21.6585 1.1765 21.0315 1.6442C20.3443 0.6507 19.2136 0 17.9322 0C16.362 0 15.0147 0.9743 14.4376 2.3634C13.8915 2.0525 13.2634 1.8738 12.5938 1.8738C10.8265 1.8738 9.3458 3.1096 8.9235 4.7802C8.8818 4.7788 8.841 4.7738 8.7989 4.7738C6.7043 4.7738 5.0061 6.5074 5.0041 8.6468C3.2309 8.9726 1.8843 10.5534 1.8843 12.4587C1.8843 12.7641 1.9224 13.0598 1.9878 13.3448C1.095 14.0541 0.5183 15.159 0.5183 16.4038C0.5183 17.0439 0.6728 17.6462 0.9417 18.1783C0.3571 18.8602 0 19.7509 0 20.7286C0 22.0538 0.6519 23.2226 1.645 23.9217C1.3679 24.46 1.2092 25.072 1.2092 25.7225C1.2092 27.2892 2.1208 28.6355 3.43 29.2468C3.4197 29.363 3.4126 29.4802 3.4126 29.5991C3.4126 31.3775 4.5863 32.8725 6.1845 33.3292C6.1827 33.3782 6.1772 33.4263 6.1772 33.4758C6.1772 35.6168 7.8763 37.3524 9.9721 37.3524C9.9983 37.3524 10.0236 37.349 10.0496 37.3484C10.4041 39.1141 11.9337 40.4421 13.767 40.4421C14.4219 40.4421 15.0381 40.2726 15.5758 39.9742C16.2693 40.7438 17.2607 41.2291 18.3655 41.2291C19.4336 41.2291 20.3971 40.7767 21.0867 40.0511C21.5868 40.299 22.146 40.4421 22.7392 40.4421C24.37 40.4421 25.7565 39.3892 26.2933 37.9142C26.8653 38.2673 27.5335 38.4742 28.2505 38.4742C29.8293 38.4742 31.1821 37.4889 31.7539 36.0877C31.9567 36.1219 32.1635 36.1442 32.3758 36.1442C34.4717 36.1442 36.1707 34.4086 36.1707 32.2675C36.1707 32.0019 36.1442 31.7426 36.0944 31.492C37.4955 30.9219 38.4871 29.5265 38.4871 27.892C38.4871 27.2865 38.3473 26.7157 38.105 26.2052C39.0321 25.4984 39.6352 24.3725 39.6352 23.0999C39.6352 22.2466 39.3621 21.4602 38.9047 20.8199C39.3621 20.1796 39.6352 19.3933 39.6352 18.5399Z" fill="url(#paint0_radial_938_25652)" stroke="#F9B25C" stroke-width="2" stroke-miterlimit="10" mask="url(#path-1-inside-1_938_25652)"/>
</g>
<g id="DROPLETS">
<path id="STORAGE_192_" opacity="0.75" d="M18.1794 9.43578C20.0011 9.43578 21.4779 7.9272 21.4779 6.06628C21.4779 4.20535 20.0011 2.69678 18.1794 2.69678C16.3576 2.69678 14.8809 4.20535 14.8809 6.06628C14.8809 7.9272 16.3576 9.43578 18.1794 9.43578Z" fill="url(#paint1_radial_938_25652)"/>
<path id="STORAGE_191_" opacity="0.75" d="M22.8141 10.2156C24.6358 10.2156 26.1126 8.70699 26.1126 6.84606C26.1126 4.98514 24.6358 3.47656 22.8141 3.47656C20.9924 3.47656 19.5156 4.98514 19.5156 6.84606C19.5156 8.70699 20.9924 10.2156 22.8141 10.2156Z" fill="url(#paint2_radial_938_25652)"/>
<path id="STORAGE_190_" opacity="0.75" d="M27.4352 11.0644C29.2569 11.0644 30.7337 9.55586 30.7337 7.69494C30.7337 5.83402 29.2569 4.32544 27.4352 4.32544C25.6135 4.32544 24.1367 5.83402 24.1367 7.69494C24.1367 9.55586 25.6135 11.0644 27.4352 11.0644Z" fill="url(#paint3_radial_938_25652)"/>
<path id="STORAGE_189_" opacity="0.75" d="M30.446 14.4277C32.2677 14.4277 33.7445 12.9191 33.7445 11.0582C33.7445 9.1973 32.2677 7.68872 30.446 7.68872C28.6242 7.68872 27.1475 9.1973 27.1475 11.0582C27.1475 12.9191 28.6242 14.4277 30.446 14.4277Z" fill="url(#paint4_radial_938_25652)"/>
<path id="STORAGE_188_" opacity="0.75" d="M32.7467 17.8035C34.5685 17.8035 36.0452 16.2949 36.0452 14.434C36.0452 12.573 34.5685 11.0645 32.7467 11.0645C30.925 11.0645 29.4482 12.573 29.4482 14.434C29.4482 16.2949 30.925 17.8035 32.7467 17.8035Z" fill="url(#paint5_radial_938_25652)"/>
<path id="STORAGE_187_" opacity="0.75" d="M33.7448 22.1809C35.5665 22.1809 37.0433 20.6723 37.0433 18.8114C37.0433 16.9505 35.5665 15.4419 33.7448 15.4419C31.9231 15.4419 30.4463 16.9505 30.4463 18.8114C30.4463 20.6723 31.9231 22.1809 33.7448 22.1809Z" fill="url(#paint6_radial_938_25652)"/>
<path id="STORAGE_186_" opacity="0.75" d="M33.7448 26.1443C35.5665 26.1443 37.0433 24.6357 37.0433 22.7748C37.0433 20.9138 35.5665 19.4053 33.7448 19.4053C31.9231 19.4053 30.4463 20.9138 30.4463 22.7748C30.4463 24.6357 31.9231 26.1443 33.7448 26.1443Z" fill="url(#paint7_radial_938_25652)"/>
<path id="STORAGE_185_" opacity="0.75" d="M32.7467 30.3096C34.5685 30.3096 36.0452 28.801 36.0452 26.9401C36.0452 25.0791 34.5685 23.5706 32.7467 23.5706C30.925 23.5706 29.4482 25.0791 29.4482 26.9401C29.4482 28.801 30.925 30.3096 32.7467 30.3096Z" fill="url(#paint8_radial_938_25652)"/>
<path id="STORAGE_184_" opacity="0.75" d="M30.7331 34.1127C32.5548 34.1127 34.0316 32.6041 34.0316 30.7432C34.0316 28.8822 32.5548 27.3737 30.7331 27.3737C28.9114 27.3737 27.4346 28.8822 27.4346 30.7432C27.4346 32.6041 28.9114 34.1127 30.7331 34.1127Z" fill="url(#paint9_radial_938_25652)"/>
<path id="STORAGE_183_" opacity="0.75" d="M27.1471 36.1379C28.9688 36.1379 30.4456 34.6293 30.4456 32.7684C30.4456 30.9075 28.9688 29.3989 27.1471 29.3989C25.3254 29.3989 23.8486 30.9075 23.8486 32.7684C23.8486 34.6293 25.3254 36.1379 27.1471 36.1379Z" fill="url(#paint10_radial_938_25652)"/>
<path id="STORAGE_182_" opacity="0.75" d="M22.3571 37.8484C24.1788 37.8484 25.6556 36.3398 25.6556 34.4789C25.6556 32.618 24.1788 31.1094 22.3571 31.1094C20.5354 31.1094 19.0586 32.618 19.0586 34.4789C19.0586 36.3398 20.5354 37.8484 22.3571 37.8484Z" fill="url(#paint11_radial_938_25652)"/>
<path id="STORAGE_181_" opacity="0.75" d="M18.5553 38.5323C20.377 38.5323 21.8538 37.0238 21.8538 35.1628C21.8538 33.3019 20.377 31.7933 18.5553 31.7933C16.7336 31.7933 15.2568 33.3019 15.2568 35.1628C15.2568 37.0238 16.7336 38.5323 18.5553 38.5323Z" fill="url(#paint12_radial_938_25652)"/>
<path id="STORAGE_180_" opacity="0.75" d="M14.5592 37.8484C16.381 37.8484 17.8577 36.3398 17.8577 34.4789C17.8577 32.618 16.381 31.1094 14.5592 31.1094C12.7375 31.1094 11.2607 32.618 11.2607 34.4789C11.2607 36.3398 12.7375 37.8484 14.5592 37.8484Z" fill="url(#paint13_radial_938_25652)"/>
<path id="STORAGE_179_" opacity="0.75" d="M11.2604 35.1628C13.0821 35.1628 14.5589 33.6543 14.5589 31.7933C14.5589 29.9324 13.0821 28.4238 11.2604 28.4238C9.4387 28.4238 7.96191 29.9324 7.96191 31.7933C7.96191 33.6543 9.4387 35.1628 11.2604 35.1628Z" fill="url(#paint14_radial_938_25652)"/>
<path id="STORAGE_178_" opacity="0.75" d="M8.85709 31.7933C10.6788 31.7933 12.1556 30.2847 12.1556 28.4238C12.1556 26.5629 10.6788 25.0543 8.85709 25.0543C7.03538 25.0543 5.55859 26.5629 5.55859 28.4238C5.55859 30.2847 7.03538 31.7933 8.85709 31.7933Z" fill="url(#paint15_radial_938_25652)"/>
<path id="STORAGE_177_" opacity="0.75" d="M6.94205 28.4238C8.76377 28.4238 10.2406 26.9152 10.2406 25.0543C10.2406 23.1934 8.76377 21.6848 6.94205 21.6848C5.12034 21.6848 3.64355 23.1934 3.64355 25.0543C3.64355 26.9152 5.12034 28.4238 6.94205 28.4238Z" fill="url(#paint16_radial_938_25652)"/>
<path id="STORAGE_176_" opacity="0.75" d="M5.89127 24.0832C7.71298 24.0832 9.18977 22.5747 9.18977 20.7137C9.18977 18.8528 7.71298 17.3442 5.89127 17.3442C4.06956 17.3442 2.59277 18.8528 2.59277 20.7137C2.59277 22.5747 4.06956 24.0832 5.89127 24.0832Z" fill="url(#paint17_radial_938_25652)"/>
<path id="STORAGE_175_" opacity="0.75" d="M6.34147 20.3241C8.16318 20.3241 9.63997 18.8155 9.63997 16.9546C9.63997 15.0937 8.16318 13.5851 6.34147 13.5851C4.51976 13.5851 3.04297 15.0937 3.04297 16.9546C3.04297 18.8155 4.51976 20.3241 6.34147 20.3241Z" fill="url(#paint18_radial_938_25652)"/>
<path id="STORAGE_174_" opacity="0.75" d="M7.52897 16.8951C9.35068 16.8951 10.8275 15.3866 10.8275 13.5256C10.8275 11.6647 9.35068 10.1561 7.52897 10.1561C5.70726 10.1561 4.23047 11.6647 4.23047 13.5256C4.23047 15.3866 5.70726 16.8951 7.52897 16.8951Z" fill="url(#paint19_radial_938_25652)"/>
<path id="STORAGE_173_" opacity="0.75" d="M10.2409 13.5851C12.0626 13.5851 13.5394 12.0765 13.5394 10.2156C13.5394 8.35465 12.0626 6.84607 10.2409 6.84607C8.41917 6.84607 6.94238 8.35465 6.94238 10.2156C6.94238 12.0765 8.41917 13.5851 10.2409 13.5851Z" fill="url(#paint20_radial_938_25652)"/>
<path id="STORAGE_172_" opacity="0.75" d="M13.5387 11.0644C15.3604 11.0644 16.8372 9.55586 16.8372 7.69494C16.8372 5.83402 15.3604 4.32544 13.5387 4.32544C11.717 4.32544 10.2402 5.83402 10.2402 7.69494C10.2402 9.55586 11.717 11.0644 13.5387 11.0644Z" fill="url(#paint21_radial_938_25652)"/>
<path id="STORAGE_171_" opacity="0.75" d="M16.7516 12.0464C18.5733 12.0464 20.0501 10.5378 20.0501 8.67687C20.0501 6.81595 18.5733 5.30737 16.7516 5.30737C14.9299 5.30737 13.4531 6.81595 13.4531 8.67687C13.4531 10.5378 14.9299 12.0464 16.7516 12.0464Z" fill="url(#paint22_radial_938_25652)"/>
<path id="STORAGE_170_" opacity="0.75" d="M21.4772 12.3883C23.2989 12.3883 24.7757 10.8797 24.7757 9.01879C24.7757 7.15787 23.2989 5.64929 21.4772 5.64929C19.6555 5.64929 18.1787 7.15787 18.1787 9.01879C18.1787 10.8797 19.6555 12.3883 21.4772 12.3883Z" fill="url(#paint23_radial_938_25652)"/>
<path id="STORAGE_169_" opacity="0.75" d="M24.776 14.4277C26.5978 14.4277 28.0745 12.9191 28.0745 11.0582C28.0745 9.1973 26.5978 7.68872 24.776 7.68872C22.9543 7.68872 21.4775 9.1973 21.4775 11.0582C21.4775 12.9191 22.9543 14.4277 24.776 14.4277Z" fill="url(#paint24_radial_938_25652)"/>
<path id="STORAGE_168_" opacity="0.75" d="M27.4352 17.3442C29.2569 17.3442 30.7337 15.8356 30.7337 13.9747C30.7337 12.1138 29.2569 10.6052 27.4352 10.6052C25.6135 10.6052 24.1367 12.1138 24.1367 13.9747C24.1367 15.8356 25.6135 17.3442 27.4352 17.3442Z" fill="url(#paint25_radial_938_25652)"/>
<path id="STORAGE_167_" opacity="0.75" d="M28.9538 21.7912C30.7755 21.7912 32.2523 20.2827 32.2523 18.4217C32.2523 16.5608 30.7755 15.0522 28.9538 15.0522C27.1321 15.0522 25.6553 16.5608 25.6553 18.4217C25.6553 20.2827 27.1321 21.7912 28.9538 21.7912Z" fill="url(#paint26_radial_938_25652)"/>
<path id="STORAGE_166_" opacity="0.75" d="M28.9538 26.1443C30.7755 26.1443 32.2523 24.6357 32.2523 22.7748C32.2523 20.9138 30.7755 19.4053 28.9538 19.4053C27.1321 19.4053 25.6553 20.9138 25.6553 22.7748C25.6553 24.6357 27.1321 26.1443 28.9538 26.1443Z" fill="url(#paint27_radial_938_25652)"/>
<path id="STORAGE_165_" opacity="0.75" d="M27.1471 30.7432C28.9688 30.7432 30.4456 29.2346 30.4456 27.3736C30.4456 25.5127 28.9688 24.0042 27.1471 24.0042C25.3254 24.0042 23.8486 25.5127 23.8486 27.3736C23.8486 29.2346 25.3254 30.7432 27.1471 30.7432Z" fill="url(#paint28_radial_938_25652)"/>
<path id="STORAGE_164_" d="M23.3483 32.8834C25.17 32.8834 26.6468 31.3748 26.6468 29.5139C26.6468 27.653 25.17 26.1444 23.3483 26.1444C21.5266 26.1444 20.0498 27.653 20.0498 29.5139C20.0498 31.3748 21.5266 32.8834 23.3483 32.8834Z" fill="url(#paint29_radial_938_25652)"/>
<path id="STORAGE_163_" opacity="0.75" d="M18.5553 33.6791C20.377 33.6791 21.8538 32.1705 21.8538 30.3096C21.8538 28.4486 20.377 26.9401 18.5553 26.9401C16.7336 26.9401 15.2568 28.4486 15.2568 30.3096C15.2568 32.1705 16.7336 33.6791 18.5553 33.6791Z" fill="url(#paint30_radial_938_25652)"/>
<path id="STORAGE_162_" opacity="0.75" d="M14.8805 32.1288C16.7022 32.1288 18.179 30.6202 18.179 28.7593C18.179 26.8983 16.7022 25.3898 14.8805 25.3898C13.0588 25.3898 11.582 26.8983 11.582 28.7593C11.582 30.6202 13.0588 32.1288 14.8805 32.1288Z" fill="url(#paint31_radial_938_25652)"/>
<path id="STORAGE_161_" opacity="0.75" d="M11.5817 28.7591C13.4034 28.7591 14.8802 27.2506 14.8802 25.3896C14.8802 23.5287 13.4034 22.0201 11.5817 22.0201C9.75999 22.0201 8.2832 23.5287 8.2832 25.3896C8.2832 27.2506 9.75999 28.7591 11.5817 28.7591Z" fill="url(#paint32_radial_938_25652)"/>
<path id="STORAGE_160_" opacity="0.75" d="M10.2409 25.0543C12.0626 25.0543 13.5394 23.5457 13.5394 21.6848C13.5394 19.8239 12.0626 18.3153 10.2409 18.3153C8.41917 18.3153 6.94238 19.8239 6.94238 21.6848C6.94238 23.5457 8.41917 25.0543 10.2409 25.0543Z" fill="url(#paint33_radial_938_25652)"/>
<path id="STORAGE_159_" opacity="0.75" d="M10.2409 21.1731C12.0626 21.1731 13.5394 19.6645 13.5394 17.8036C13.5394 15.9427 12.0626 14.4341 10.2409 14.4341C8.41917 14.4341 6.94238 15.9427 6.94238 17.8036C6.94238 19.6645 8.41917 21.1731 10.2409 21.1731Z" fill="url(#paint34_radial_938_25652)"/>
<path id="STORAGE_158_" opacity="0.75" d="M12.1559 17.7973C13.9776 17.7973 15.4544 16.2888 15.4544 14.4278C15.4544 12.5669 13.9776 11.0583 12.1559 11.0583C10.3342 11.0583 8.85742 12.5669 8.85742 14.4278C8.85742 16.2888 10.3342 17.7973 12.1559 17.7973Z" fill="url(#paint35_radial_938_25652)"/>
<path id="STORAGE_157_" opacity="0.75" d="M14.8805 15.7578C16.7022 15.7578 18.179 14.2492 18.179 12.3883C18.179 10.5274 16.7022 9.0188 14.8805 9.0188C13.0588 9.0188 11.582 10.5274 11.582 12.3883C11.582 14.2492 13.0588 15.7578 14.8805 15.7578Z" fill="url(#paint36_radial_938_25652)"/>
<path id="STORAGE_156_" opacity="0.75" d="M18.5553 15.4159C20.377 15.4159 21.8538 13.9073 21.8538 12.0464C21.8538 10.1855 20.377 8.67688 18.5553 8.67688C16.7336 8.67688 15.2568 10.1855 15.2568 12.0464C15.2568 13.9073 16.7336 15.4159 18.5553 15.4159Z" fill="url(#paint37_radial_938_25652)"/>
<path id="STORAGE_155_" opacity="0.75" d="M22.3571 16.1748C24.1788 16.1748 25.6556 14.6662 25.6556 12.8053C25.6556 10.9444 24.1788 9.43579 22.3571 9.43579C20.5354 9.43579 19.0586 10.9444 19.0586 12.8053C19.0586 14.6662 20.5354 16.1748 22.3571 16.1748Z" fill="url(#paint38_radial_938_25652)"/>
<path id="STORAGE_154_" opacity="0.75" d="M25.153 19.5444C26.9747 19.5444 28.4515 18.0358 28.4515 16.1749C28.4515 14.314 26.9747 12.8054 25.153 12.8054C23.3313 12.8054 21.8545 14.314 21.8545 16.1749C21.8545 18.0358 23.3313 19.5444 25.153 19.5444Z" fill="url(#paint39_radial_938_25652)"/>
<path id="STORAGE_153_" opacity="0.75" d="M25.6559 23.5704C27.4776 23.5704 28.9544 22.0618 28.9544 20.2009C28.9544 18.34 27.4776 16.8314 25.6559 16.8314C23.8342 16.8314 22.3574 18.34 22.3574 20.2009C22.3574 22.0618 23.8342 23.5704 25.6559 23.5704Z" fill="url(#paint40_radial_938_25652)"/>
<path id="STORAGE_152_" opacity="0.75" d="M24.1364 27.3736C25.9581 27.3736 27.4349 25.8651 27.4349 24.0041C27.4349 22.1432 25.9581 20.6346 24.1364 20.6346C22.3147 20.6346 20.8379 22.1432 20.8379 24.0041C20.8379 25.8651 22.3147 27.3736 24.1364 27.3736Z" fill="url(#paint41_radial_938_25652)"/>
<path id="STORAGE_151_" opacity="0.75" d="M20.0505 28.7591C21.8722 28.7591 23.349 27.2506 23.349 25.3896C23.349 23.5287 21.8722 22.0201 20.0505 22.0201C18.2287 22.0201 16.752 23.5287 16.752 25.3896C16.752 27.2506 18.2287 28.7591 20.0505 28.7591Z" fill="url(#paint42_radial_938_25652)"/>
<path id="STORAGE_150_" opacity="0.75" d="M16.7516 26.9399C18.5733 26.9399 20.0501 25.4314 20.0501 23.5704C20.0501 21.7095 18.5733 20.2009 16.7516 20.2009C14.9299 20.2009 13.4531 21.7095 13.4531 23.5704C13.4531 25.4314 14.9299 26.9399 16.7516 26.9399Z" fill="url(#paint43_radial_938_25652)"/>
<path id="STORAGE_149_" opacity="0.75" d="M15.2575 24.5426C17.0792 24.5426 18.556 23.034 18.556 21.1731C18.556 19.3122 17.0792 17.8036 15.2575 17.8036C13.4358 17.8036 11.959 19.3122 11.959 21.1731C11.959 23.034 13.4358 24.5426 15.2575 24.5426Z" fill="url(#paint44_radial_938_25652)"/>
<path id="STORAGE_148_" opacity="0.75" d="M15.4548 21.1731C17.2765 21.1731 18.7533 19.6645 18.7533 17.8036C18.7533 15.9427 17.2765 14.4341 15.4548 14.4341C13.633 14.4341 12.1562 15.9427 12.1562 17.8036C12.1562 19.6645 13.633 21.1731 15.4548 21.1731Z" fill="url(#paint45_radial_938_25652)"/>
<path id="STORAGE_147_" opacity="0.75" d="M18.5553 19.5444C20.377 19.5444 21.8538 18.0358 21.8538 16.1749C21.8538 14.314 20.377 12.8054 18.5553 12.8054C16.7336 12.8054 15.2568 14.314 15.2568 16.1749C15.2568 18.0358 16.7336 19.5444 18.5553 19.5444Z" fill="url(#paint46_radial_938_25652)"/>
<path id="STORAGE_146_" opacity="0.75" d="M20.8376 21.6848C22.6593 21.6848 24.1361 20.1762 24.1361 18.3153C24.1361 16.4544 22.6593 14.9458 20.8376 14.9458C19.0159 14.9458 17.5391 16.4544 17.5391 18.3153C17.5391 20.1762 19.0159 21.6848 20.8376 21.6848Z" fill="url(#paint47_radial_938_25652)"/>
<path id="STORAGE_145_" opacity="0.75" d="M19.5153 24.0832C21.337 24.0832 22.8138 22.5747 22.8138 20.7137C22.8138 18.8528 21.337 17.3442 19.5153 17.3442C17.6936 17.3442 16.2168 18.8528 16.2168 20.7137C16.2168 22.5747 17.6936 24.0832 19.5153 24.0832Z" fill="url(#paint48_radial_938_25652)"/>
</g>
<g id="SHINE">
<path id="STORAGE_144_" opacity="0.75" d="M17.4821 8.04198C19.3038 8.04198 20.7806 6.5334 20.7806 4.67248C20.7806 2.81156 19.3038 1.30298 17.4821 1.30298C15.6604 1.30298 14.1836 2.81156 14.1836 4.67248C14.1836 6.5334 15.6604 8.04198 17.4821 8.04198Z" fill="url(#paint49_radial_938_25652)"/>
<path id="STORAGE_143_" opacity="0.75" d="M22.1169 8.82176C23.9386 8.82176 25.4154 7.31319 25.4154 5.45226C25.4154 3.59134 23.9386 2.08276 22.1169 2.08276C20.2951 2.08276 18.8184 3.59134 18.8184 5.45226C18.8184 7.31319 20.2951 8.82176 22.1169 8.82176Z" fill="url(#paint50_radial_938_25652)"/>
<path id="STORAGE_142_" opacity="0.75" d="M26.738 9.67064C28.5597 9.67064 30.0365 8.16206 30.0365 6.30114C30.0365 4.44022 28.5597 2.93164 26.738 2.93164C24.9162 2.93164 23.4395 4.44022 23.4395 6.30114C23.4395 8.16206 24.9162 9.67064 26.738 9.67064Z" fill="url(#paint51_radial_938_25652)"/>
<path id="STORAGE_141_" opacity="0.75" d="M29.7487 13.0339C31.5704 13.0339 33.0472 11.5253 33.0472 9.66442C33.0472 7.8035 31.5704 6.29492 29.7487 6.29492C27.927 6.29492 26.4502 7.8035 26.4502 9.66442C26.4502 11.5253 27.927 13.0339 29.7487 13.0339Z" fill="url(#paint52_radial_938_25652)"/>
<path id="STORAGE_140_" opacity="0.75" d="M32.0495 16.4097C33.8712 16.4097 35.348 14.9011 35.348 13.0402C35.348 11.1792 33.8712 9.67065 32.0495 9.67065C30.2278 9.67065 28.751 11.1792 28.751 13.0402C28.751 14.9011 30.2278 16.4097 32.0495 16.4097Z" fill="url(#paint53_radial_938_25652)"/>
<path id="STORAGE_139_" opacity="0.75" d="M33.0475 20.787C34.8692 20.787 36.346 19.2784 36.346 17.4175C36.346 15.5565 34.8692 14.048 33.0475 14.048C31.2258 14.048 29.749 15.5565 29.749 17.4175C29.749 19.2784 31.2258 20.787 33.0475 20.787Z" fill="url(#paint54_radial_938_25652)"/>
<path id="STORAGE_138_" opacity="0.75" d="M33.0475 24.7505C34.8692 24.7505 36.346 23.2419 36.346 21.381C36.346 19.5201 34.8692 18.0115 33.0475 18.0115C31.2258 18.0115 29.749 19.5201 29.749 21.381C29.749 23.2419 31.2258 24.7505 33.0475 24.7505Z" fill="url(#paint55_radial_938_25652)"/>
<path id="STORAGE_137_" opacity="0.75" d="M32.0495 28.9158C33.8712 28.9158 35.348 27.4072 35.348 25.5463C35.348 23.6853 33.8712 22.1768 32.0495 22.1768C30.2278 22.1768 28.751 23.6853 28.751 25.5463C28.751 27.4072 30.2278 28.9158 32.0495 28.9158Z" fill="url(#paint56_radial_938_25652)"/>
<path id="STORAGE_136_" opacity="0.75" d="M30.0358 32.7189C31.8575 32.7189 33.3343 31.2103 33.3343 29.3494C33.3343 27.4884 31.8575 25.9799 30.0358 25.9799C28.2141 25.9799 26.7373 27.4884 26.7373 29.3494C26.7373 31.2103 28.2141 32.7189 30.0358 32.7189Z" fill="url(#paint57_radial_938_25652)"/>
<path id="STORAGE_135_" opacity="0.75" d="M26.4499 34.7441C28.2716 34.7441 29.7484 33.2355 29.7484 31.3746C29.7484 29.5137 28.2716 28.0051 26.4499 28.0051C24.6282 28.0051 23.1514 29.5137 23.1514 31.3746C23.1514 33.2355 24.6282 34.7441 26.4499 34.7441Z" fill="url(#paint58_radial_938_25652)"/>
<path id="STORAGE_134_" opacity="0.75" d="M21.6598 36.4546C23.4815 36.4546 24.9583 34.946 24.9583 33.0851C24.9583 31.2242 23.4815 29.7156 21.6598 29.7156C19.8381 29.7156 18.3613 31.2242 18.3613 33.0851C18.3613 34.946 19.8381 36.4546 21.6598 36.4546Z" fill="url(#paint59_radial_938_25652)"/>
<path id="STORAGE_133_" opacity="0.75" d="M17.8581 37.1385C19.6798 37.1385 21.1566 35.63 21.1566 33.769C21.1566 31.9081 19.6798 30.3995 17.8581 30.3995C16.0364 30.3995 14.5596 31.9081 14.5596 33.769C14.5596 35.63 16.0364 37.1385 17.8581 37.1385Z" fill="url(#paint60_radial_938_25652)"/>
<path id="STORAGE_132_" opacity="0.5" d="M13.862 36.4546C15.6837 36.4546 17.1605 34.946 17.1605 33.0851C17.1605 31.2242 15.6837 29.7156 13.862 29.7156C12.0403 29.7156 10.5635 31.2242 10.5635 33.0851C10.5635 34.946 12.0403 36.4546 13.862 36.4546Z" fill="url(#paint61_radial_938_25652)"/>
<path id="STORAGE_131_" opacity="0.5" d="M10.5631 33.769C12.3849 33.769 13.8616 32.2605 13.8616 30.3995C13.8616 28.5386 12.3849 27.03 10.5631 27.03C8.74144 27.03 7.26465 28.5386 7.26465 30.3995C7.26465 32.2605 8.74144 33.769 10.5631 33.769Z" fill="url(#paint62_radial_938_25652)"/>
<path id="STORAGE_130_" opacity="0.5" d="M8.15983 30.3995C9.98154 30.3995 11.4583 28.8909 11.4583 27.03C11.4583 25.1691 9.98154 23.6605 8.15983 23.6605C6.33812 23.6605 4.86133 25.1691 4.86133 27.03C4.86133 28.8909 6.33812 30.3995 8.15983 30.3995Z" fill="url(#paint63_radial_938_25652)"/>
<path id="STORAGE_129_" opacity="0.5" d="M6.24479 27.03C8.0665 27.03 9.54329 25.5214 9.54329 23.6605C9.54329 21.7996 8.0665 20.291 6.24479 20.291C4.42308 20.291 2.94629 21.7996 2.94629 23.6605C2.94629 25.5214 4.42308 27.03 6.24479 27.03Z" fill="url(#paint64_radial_938_25652)"/>
<path id="STORAGE_128_" opacity="0.5" d="M5.19401 22.6893C7.01572 22.6893 8.49251 21.1807 8.49251 19.3198C8.49251 17.4589 7.01572 15.9503 5.19401 15.9503C3.3723 15.9503 1.89551 17.4589 1.89551 19.3198C1.89551 21.1807 3.3723 22.6893 5.19401 22.6893Z" fill="url(#paint65_radial_938_25652)"/>
<path id="STORAGE_127_" opacity="0.5" d="M5.6442 18.9303C7.46591 18.9303 8.9427 17.4217 8.9427 15.5608C8.9427 13.6999 7.46591 12.1913 5.6442 12.1913C3.82249 12.1913 2.3457 13.6999 2.3457 15.5608C2.3457 17.4217 3.82249 18.9303 5.6442 18.9303Z" fill="url(#paint66_radial_938_25652)"/>
<path id="STORAGE_126_" opacity="0.75" d="M6.8317 15.5013C8.65341 15.5013 10.1302 13.9928 10.1302 12.1318C10.1302 10.2709 8.65341 8.76233 6.8317 8.76233C5.00999 8.76233 3.5332 10.2709 3.5332 12.1318C3.5332 13.9928 5.00999 15.5013 6.8317 15.5013Z" fill="url(#paint67_radial_938_25652)"/>
<path id="STORAGE_125_" opacity="0.75" d="M9.54362 12.1913C11.3653 12.1913 12.8421 10.6827 12.8421 8.82177C12.8421 6.96085 11.3653 5.45227 9.54362 5.45227C7.72191 5.45227 6.24512 6.96085 6.24512 8.82177C6.24512 10.6827 7.72191 12.1913 9.54362 12.1913Z" fill="url(#paint68_radial_938_25652)"/>
<path id="STORAGE_124_" opacity="0.75" d="M12.8415 9.67064C14.6632 9.67064 16.14 8.16206 16.14 6.30114C16.14 4.44022 14.6632 2.93164 12.8415 2.93164C11.0198 2.93164 9.54297 4.44022 9.54297 6.30114C9.54297 8.16206 11.0198 9.67064 12.8415 9.67064Z" fill="url(#paint69_radial_938_25652)"/>
<path id="STORAGE_123_" opacity="0.75" d="M16.0544 10.6526C17.8761 10.6526 19.3529 9.144 19.3529 7.28307C19.3529 5.42215 17.8761 3.91357 16.0544 3.91357C14.2326 3.91357 12.7559 5.42215 12.7559 7.28307C12.7559 9.144 14.2326 10.6526 16.0544 10.6526Z" fill="url(#paint70_radial_938_25652)"/>
<path id="STORAGE_122_" opacity="0.75" d="M20.7799 10.9945C22.6017 10.9945 24.0784 9.48592 24.0784 7.62499C24.0784 5.76407 22.6017 4.25549 20.7799 4.25549C18.9582 4.25549 17.4814 5.76407 17.4814 7.62499C17.4814 9.48592 18.9582 10.9945 20.7799 10.9945Z" fill="url(#paint71_radial_938_25652)"/>
<path id="STORAGE_121_" opacity="0.75" d="M24.0788 13.0339C25.9005 13.0339 27.3773 11.5253 27.3773 9.66442C27.3773 7.8035 25.9005 6.29492 24.0788 6.29492C22.2571 6.29492 20.7803 7.8035 20.7803 9.66442C20.7803 11.5253 22.2571 13.0339 24.0788 13.0339Z" fill="url(#paint72_radial_938_25652)"/>
<path id="STORAGE_120_" opacity="0.5" d="M26.738 15.9504C28.5597 15.9504 30.0365 14.4418 30.0365 12.5809C30.0365 10.72 28.5597 9.21143 26.738 9.21143C24.9162 9.21143 23.4395 10.72 23.4395 12.5809C23.4395 14.4418 24.9162 15.9504 26.738 15.9504Z" fill="url(#paint73_radial_938_25652)"/>
<path id="STORAGE_119_" opacity="0.5" d="M28.2565 20.3974C30.0782 20.3974 31.555 18.8889 31.555 17.0279C31.555 15.167 30.0782 13.6584 28.2565 13.6584C26.4348 13.6584 24.958 15.167 24.958 17.0279C24.958 18.8889 26.4348 20.3974 28.2565 20.3974Z" fill="url(#paint74_radial_938_25652)"/>
<path id="STORAGE_118_" opacity="0.5" d="M28.2565 24.7505C30.0782 24.7505 31.555 23.2419 31.555 21.381C31.555 19.5201 30.0782 18.0115 28.2565 18.0115C26.4348 18.0115 24.958 19.5201 24.958 21.381C24.958 23.2419 26.4348 24.7505 28.2565 24.7505Z" fill="url(#paint75_radial_938_25652)"/>
<path id="STORAGE_117_" opacity="0.5" d="M26.4499 29.3494C28.2716 29.3494 29.7484 27.8408 29.7484 25.9799C29.7484 24.1189 28.2716 22.6104 26.4499 22.6104C24.6282 22.6104 23.1514 24.1189 23.1514 25.9799C23.1514 27.8408 24.6282 29.3494 26.4499 29.3494Z" fill="url(#paint76_radial_938_25652)"/>
<path id="STORAGE_116_" opacity="0.5" d="M22.651 31.4896C24.4728 31.4896 25.9495 29.981 25.9495 28.1201C25.9495 26.2592 24.4728 24.7506 22.651 24.7506C20.8293 24.7506 19.3525 26.2592 19.3525 28.1201C19.3525 29.981 20.8293 31.4896 22.651 31.4896Z" fill="url(#paint77_radial_938_25652)"/>
<path id="STORAGE_115_" opacity="0.5" d="M17.8581 32.2853C19.6798 32.2853 21.1566 30.7767 21.1566 28.9158C21.1566 27.0548 19.6798 25.5463 17.8581 25.5463C16.0364 25.5463 14.5596 27.0548 14.5596 28.9158C14.5596 30.7767 16.0364 32.2853 17.8581 32.2853Z" fill="url(#paint78_radial_938_25652)"/>
<path id="STORAGE_114_" opacity="0.5" d="M14.1833 30.7348C16.005 30.7348 17.4818 29.2263 17.4818 27.3654C17.4818 25.5044 16.005 23.9958 14.1833 23.9958C12.3616 23.9958 10.8848 25.5044 10.8848 27.3654C10.8848 29.2263 12.3616 30.7348 14.1833 30.7348Z" fill="url(#paint79_radial_938_25652)"/>
<path id="STORAGE_113_" opacity="0.5" d="M10.8844 27.3653C12.7061 27.3653 14.1829 25.8568 14.1829 23.9958C14.1829 22.1349 12.7061 20.6263 10.8844 20.6263C9.06273 20.6263 7.58594 22.1349 7.58594 23.9958C7.58594 25.8568 9.06273 27.3653 10.8844 27.3653Z" fill="url(#paint80_radial_938_25652)"/>
<path id="STORAGE_112_" opacity="0.5" d="M9.54362 23.6605C11.3653 23.6605 12.8421 22.1519 12.8421 20.291C12.8421 18.4301 11.3653 16.9215 9.54362 16.9215C7.72191 16.9215 6.24512 18.4301 6.24512 20.291C6.24512 22.1519 7.72191 23.6605 9.54362 23.6605Z" fill="url(#paint81_radial_938_25652)"/>
<path id="STORAGE_111_" opacity="0.75" d="M9.54362 19.7793C11.3653 19.7793 12.8421 18.2707 12.8421 16.4098C12.8421 14.5489 11.3653 13.0403 9.54362 13.0403C7.72191 13.0403 6.24512 14.5489 6.24512 16.4098C6.24512 18.2707 7.72191 19.7793 9.54362 19.7793Z" fill="url(#paint82_radial_938_25652)"/>
<path id="STORAGE_110_" opacity="0.75" d="M11.4587 16.4036C13.2804 16.4036 14.7572 14.895 14.7572 13.034C14.7572 11.1731 13.2804 9.66455 11.4587 9.66455C9.63695 9.66455 8.16016 11.1731 8.16016 13.034C8.16016 14.895 9.63695 16.4036 11.4587 16.4036Z" fill="url(#paint83_radial_938_25652)"/>
<path id="STORAGE_109_" opacity="0.75" d="M14.1833 14.364C16.005 14.364 17.4818 12.8554 17.4818 10.9945C17.4818 9.13358 16.005 7.625 14.1833 7.625C12.3616 7.625 10.8848 9.13358 10.8848 10.9945C10.8848 12.8554 12.3616 14.364 14.1833 14.364Z" fill="url(#paint84_radial_938_25652)"/>
<path id="STORAGE_108_" opacity="0.75" d="M17.8581 14.0221C19.6798 14.0221 21.1566 12.5135 21.1566 10.6526C21.1566 8.79166 19.6798 7.28308 17.8581 7.28308C16.0364 7.28308 14.5596 8.79166 14.5596 10.6526C14.5596 12.5135 16.0364 14.0221 17.8581 14.0221Z" fill="url(#paint85_radial_938_25652)"/>
<path id="STORAGE_107_" opacity="0.75" d="M21.6598 14.781C23.4815 14.781 24.9583 13.2724 24.9583 11.4115C24.9583 9.55057 23.4815 8.04199 21.6598 8.04199C19.8381 8.04199 18.3613 9.55057 18.3613 11.4115C18.3613 13.2724 19.8381 14.781 21.6598 14.781Z" fill="url(#paint86_radial_938_25652)"/>
<path id="STORAGE_106_" opacity="0.5" d="M24.4557 18.1506C26.2774 18.1506 27.7542 16.642 27.7542 14.7811C27.7542 12.9202 26.2774 11.4116 24.4557 11.4116C22.634 11.4116 21.1572 12.9202 21.1572 14.7811C21.1572 16.642 22.634 18.1506 24.4557 18.1506Z" fill="url(#paint87_radial_938_25652)"/>
<path id="STORAGE_105_" opacity="0.5" d="M24.9587 22.1766C26.7804 22.1766 28.2572 20.668 28.2572 18.8071C28.2572 16.9462 26.7804 15.4376 24.9587 15.4376C23.1369 15.4376 21.6602 16.9462 21.6602 18.8071C21.6602 20.668 23.1369 22.1766 24.9587 22.1766Z" fill="url(#paint88_radial_938_25652)"/>
<path id="STORAGE_104_" opacity="0.75" d="M23.4391 25.9797C25.2608 25.9797 26.7376 24.4711 26.7376 22.6102C26.7376 20.7493 25.2608 19.2407 23.4391 19.2407C21.6174 19.2407 20.1406 20.7493 20.1406 22.6102C20.1406 24.4711 21.6174 25.9797 23.4391 25.9797Z" fill="url(#paint89_radial_938_25652)"/>
<path id="STORAGE_103_" opacity="0.5" d="M19.3532 27.3653C21.1749 27.3653 22.6517 25.8568 22.6517 23.9958C22.6517 22.1349 21.1749 20.6263 19.3532 20.6263C17.5315 20.6263 16.0547 22.1349 16.0547 23.9958C16.0547 25.8568 17.5315 27.3653 19.3532 27.3653Z" fill="url(#paint90_radial_938_25652)"/>
<path id="STORAGE_102_" opacity="0.5" d="M16.0544 25.5461C17.8761 25.5461 19.3529 24.0376 19.3529 22.1766C19.3529 20.3157 17.8761 18.8071 16.0544 18.8071C14.2326 18.8071 12.7559 20.3157 12.7559 22.1766C12.7559 24.0376 14.2326 25.5461 16.0544 25.5461Z" fill="url(#paint91_radial_938_25652)"/>
<path id="STORAGE_101_" opacity="0.5" d="M14.5602 23.1488C16.3819 23.1488 17.8587 21.6402 17.8587 19.7793C17.8587 17.9184 16.3819 16.4098 14.5602 16.4098C12.7385 16.4098 11.2617 17.9184 11.2617 19.7793C11.2617 21.6402 12.7385 23.1488 14.5602 23.1488Z" fill="url(#paint92_radial_938_25652)"/>
<path id="STORAGE_100_" opacity="0.75" d="M14.7575 19.7793C16.5792 19.7793 18.056 18.2707 18.056 16.4098C18.056 14.5489 16.5792 13.0403 14.7575 13.0403C12.9358 13.0403 11.459 14.5489 11.459 16.4098C11.459 18.2707 12.9358 19.7793 14.7575 19.7793Z" fill="url(#paint93_radial_938_25652)"/>
<path id="STORAGE_99_" opacity="0.75" d="M17.8581 18.1506C19.6798 18.1506 21.1566 16.642 21.1566 14.7811C21.1566 12.9202 19.6798 11.4116 17.8581 11.4116C16.0364 11.4116 14.5596 12.9202 14.5596 14.7811C14.5596 16.642 16.0364 18.1506 17.8581 18.1506Z" fill="url(#paint94_radial_938_25652)"/>
<path id="STORAGE_98_" opacity="0.75" d="M20.1403 20.291C21.962 20.291 23.4388 18.7824 23.4388 16.9215C23.4388 15.0606 21.962 13.552 20.1403 13.552C18.3186 13.552 16.8418 15.0606 16.8418 16.9215C16.8418 18.7824 18.3186 20.291 20.1403 20.291Z" fill="url(#paint95_radial_938_25652)"/>
<path id="STORAGE_2_" opacity="0.75" d="M18.818 22.6893C20.6397 22.6893 22.1165 21.1807 22.1165 19.3198C22.1165 17.4589 20.6397 15.9503 18.818 15.9503C16.9963 15.9503 15.5195 17.4589 15.5195 19.3198C15.5195 21.1807 16.9963 22.6893 18.818 22.6893Z" fill="url(#paint96_radial_938_25652)"/>
</g>
</g>
<defs>
<radialGradient id="paint0_radial_938_25652" cx="0" cy="0" r="1" gradientUnits="userSpaceOnUse" gradientTransform="translate(19.8176 20.6146) scale(20.22 20.22)">
<stop offset="0.0003" stop-color="#F9FF8B"/>
<stop offset="0.35" stop-color="#F9DF77"/>
<stop offset="0.7812" stop-color="#F9B25C"/>
<stop offset="0.8216" stop-color="#F9AE59"/>
<stop offset="0.8625" stop-color="#F9A252"/>
<stop offset="0.9036" stop-color="#F98D45"/>
<stop offset="0.9448" stop-color="#F97134"/>
<stop offset="0.9561" stop-color="#F9682E"/>
</radialGradient>
<radialGradient id="paint1_radial_938_25652" cx="0" cy="0" r="1" gradientUnits="userSpaceOnUse" gradientTransform="translate(18.1781 6.06627) scale(3.29839 3.36955)">
<stop offset="0.0003" stop-color="#F9FF8B"/>
<stop offset="1" stop-color="#F9682E"/>
</radialGradient>
<radialGradient id="paint2_radial_938_25652" cx="0" cy="0" r="1" gradientUnits="userSpaceOnUse" gradientTransform="translate(22.8129 6.84605) scale(3.29839 3.36955)">
<stop offset="0.0003" stop-color="#F9FF8B"/>
<stop offset="1" stop-color="#F9682E"/>
</radialGradient>
<radialGradient id="paint3_radial_938_25652" cx="0" cy="0" r="1" gradientUnits="userSpaceOnUse" gradientTransform="translate(27.434 7.69493) scale(3.29839 3.36955)">
<stop offset="0.0003" stop-color="#F9FF8B"/>
<stop offset="1" stop-color="#F9682E"/>
</radialGradient>
<radialGradient id="paint4_radial_938_25652" cx="0" cy="0" r="1" gradientUnits="userSpaceOnUse" gradientTransform="translate(30.4447 11.0582) scale(3.29839 3.36955)">
<stop offset="0.0003" stop-color="#F9FF8B"/>
<stop offset="1" stop-color="#F9682E"/>
</radialGradient>
<radialGradient id="paint5_radial_938_25652" cx="0" cy="0" r="1" gradientUnits="userSpaceOnUse" gradientTransform="translate(32.7455 14.4339) scale(3.29839 3.36955)">
<stop offset="0.0003" stop-color="#F9FF8B"/>
<stop offset="1" stop-color="#F9682E"/>
</radialGradient>
<radialGradient id="paint6_radial_938_25652" cx="0" cy="0" r="1" gradientUnits="userSpaceOnUse" gradientTransform="translate(33.7436 18.8114) scale(3.29839 3.36955)">
<stop offset="0.0003" stop-color="#F9FF8B"/>
<stop offset="1" stop-color="#F9682E"/>
</radialGradient>
<radialGradient id="paint7_radial_938_25652" cx="0" cy="0" r="1" gradientUnits="userSpaceOnUse" gradientTransform="translate(33.7436 22.7748) scale(3.29839 3.36955)">
<stop offset="0.0003" stop-color="#F9FF8B"/>
<stop offset="1" stop-color="#F9682E"/>
</radialGradient>
<radialGradient id="paint8_radial_938_25652" cx="0" cy="0" r="1" gradientUnits="userSpaceOnUse" gradientTransform="translate(32.7455 26.94) scale(3.29839 3.36955)">
<stop offset="0.0003" stop-color="#F9FF8B"/>
<stop offset="1" stop-color="#F9682E"/>
</radialGradient>
<radialGradient id="paint9_radial_938_25652" cx="0" cy="0" r="1" gradientUnits="userSpaceOnUse" gradientTransform="translate(30.7318 30.7431) scale(3.29839 3.36955)">
<stop offset="0.0003" stop-color="#F9FF8B"/>
<stop offset="1" stop-color="#F9682E"/>
</radialGradient>
<radialGradient id="paint10_radial_938_25652" cx="0" cy="0" r="1" gradientUnits="userSpaceOnUse" gradientTransform="translate(27.1459 32.7684) scale(3.29839 3.36955)">
<stop offset="0.0003" stop-color="#F9FF8B"/>
<stop offset="1" stop-color="#F9682E"/>
</radialGradient>
<radialGradient id="paint11_radial_938_25652" cx="0" cy="0" r="1" gradientUnits="userSpaceOnUse" gradientTransform="translate(22.3559 34.4789) scale(3.29839 3.36955)">
<stop offset="0.0003" stop-color="#F9FF8B"/>
<stop offset="1" stop-color="#F9682E"/>
</radialGradient>
<radialGradient id="paint12_radial_938_25652" cx="0" cy="0" r="1" gradientUnits="userSpaceOnUse" gradientTransform="translate(18.5541 35.1628) scale(3.29839 3.36955)">
<stop offset="0.0003" stop-color="#F9FF8B"/>
<stop offset="1" stop-color="#F9682E"/>
</radialGradient>
<radialGradient id="paint13_radial_938_25652" cx="0" cy="0" r="1" gradientUnits="userSpaceOnUse" gradientTransform="translate(14.558 34.4789) scale(3.29839 3.36955)">
<stop offset="0.0003" stop-color="#F9FF8B"/>
<stop offset="1" stop-color="#F9682E"/>
</radialGradient>
<radialGradient id="paint14_radial_938_25652" cx="0" cy="0" r="1" gradientUnits="userSpaceOnUse" gradientTransform="translate(11.2592 31.7933) scale(3.29839 3.36955)">
<stop offset="0.0003" stop-color="#F9FF8B"/>
<stop offset="1" stop-color="#F9682E"/>
</radialGradient>
<radialGradient id="paint15_radial_938_25652" cx="0" cy="0" r="1" gradientUnits="userSpaceOnUse" gradientTransform="translate(8.85586 28.4238) scale(3.29839 3.36955)">
<stop offset="0.0003" stop-color="#F9FF8B"/>
<stop offset="1" stop-color="#F9682E"/>
</radialGradient>
<radialGradient id="paint16_radial_938_25652" cx="0" cy="0" r="1" gradientUnits="userSpaceOnUse" gradientTransform="translate(6.94082 25.0543) scale(3.29839 3.36955)">
<stop offset="0.0003" stop-color="#F9FF8B"/>
<stop offset="1" stop-color="#F9682E"/>
</radialGradient>
<radialGradient id="paint17_radial_938_25652" cx="0" cy="0" r="1" gradientUnits="userSpaceOnUse" gradientTransform="translate(5.89004 20.7137) scale(3.29839 3.36955)">
<stop offset="0.0003" stop-color="#F9FF8B"/>
<stop offset="1" stop-color="#F9682E"/>
</radialGradient>
<radialGradient id="paint18_radial_938_25652" cx="0" cy="0" r="1" gradientUnits="userSpaceOnUse" gradientTransform="translate(6.34023 16.9546) scale(3.29839 3.36955)">
<stop offset="0.0003" stop-color="#F9FF8B"/>
<stop offset="1" stop-color="#F9682E"/>
</radialGradient>
<radialGradient id="paint19_radial_938_25652" cx="0" cy="0" r="1" gradientUnits="userSpaceOnUse" gradientTransform="translate(7.52773 13.5256) scale(3.29839 3.36955)">
<stop offset="0.0003" stop-color="#F9FF8B"/>
<stop offset="1" stop-color="#F9682E"/>
</radialGradient>
<radialGradient id="paint20_radial_938_25652" cx="0" cy="0" r="1" gradientUnits="userSpaceOnUse" gradientTransform="translate(10.2396 10.2156) scale(3.29839 3.36955)">
<stop offset="0.0003" stop-color="#F9FF8B"/>
<stop offset="1" stop-color="#F9682E"/>
</radialGradient>
<radialGradient id="paint21_radial_938_25652" cx="0" cy="0" r="1" gradientUnits="userSpaceOnUse" gradientTransform="translate(13.5375 7.69493) scale(3.29839 3.36955)">
<stop offset="0.0003" stop-color="#F9FF8B"/>
<stop offset="1" stop-color="#F9682E"/>
</radialGradient>
<radialGradient id="paint22_radial_938_25652" cx="0" cy="0" r="1" gradientUnits="userSpaceOnUse" gradientTransform="translate(16.7504 8.67686) scale(3.29839 3.36955)">
<stop offset="0.0003" stop-color="#F9FF8B"/>
<stop offset="1" stop-color="#F9682E"/>
</radialGradient>
<radialGradient id="paint23_radial_938_25652" cx="0" cy="0" r="1" gradientUnits="userSpaceOnUse" gradientTransform="translate(21.476 9.01878) scale(3.29839 3.36955)">
<stop offset="0.0003" stop-color="#F9FF8B"/>
<stop offset="1" stop-color="#F9682E"/>
</radialGradient>
<radialGradient id="paint24_radial_938_25652" cx="0" cy="0" r="1" gradientUnits="userSpaceOnUse" gradientTransform="translate(24.7748 11.0582) scale(3.29839 3.36955)">
<stop offset="0.0003" stop-color="#F9FF8B"/>
<stop offset="1" stop-color="#F9682E"/>
</radialGradient>
<radialGradient id="paint25_radial_938_25652" cx="0" cy="0" r="1" gradientUnits="userSpaceOnUse" gradientTransform="translate(27.434 13.9747) scale(3.29839 3.36955)">
<stop offset="0.0003" stop-color="#F9FF8B"/>
<stop offset="1" stop-color="#F9682E"/>
</radialGradient>
<radialGradient id="paint26_radial_938_25652" cx="0" cy="0" r="1" gradientUnits="userSpaceOnUse" gradientTransform="translate(28.9525 18.4217) scale(3.29839 3.36955)">
<stop offset="0.0003" stop-color="#F9FF8B"/>
<stop offset="1" stop-color="#F9682E"/>
</radialGradient>
<radialGradient id="paint27_radial_938_25652" cx="0" cy="0" r="1" gradientUnits="userSpaceOnUse" gradientTransform="translate(28.9525 22.7748) scale(3.29839 3.36955)">
<stop offset="0.0003" stop-color="#F9FF8B"/>
<stop offset="1" stop-color="#F9682E"/>
</radialGradient>
<radialGradient id="paint28_radial_938_25652" cx="0" cy="0" r="1" gradientUnits="userSpaceOnUse" gradientTransform="translate(27.1459 27.3736) scale(3.29839 3.36955)">
<stop offset="0.0003" stop-color="#F9FF8B"/>
<stop offset="1" stop-color="#F9682E"/>
</radialGradient>
<radialGradient id="paint29_radial_938_25652" cx="0" cy="0" r="1" gradientUnits="userSpaceOnUse" gradientTransform="translate(23.3471 29.5139) scale(3.29839 3.36955)">
<stop offset="0.0003" stop-color="#F9FF8B"/>
<stop offset="1" stop-color="#F9682E"/>
</radialGradient>
<radialGradient id="paint30_radial_938_25652" cx="0" cy="0" r="1" gradientUnits="userSpaceOnUse" gradientTransform="translate(18.5541 30.3096) scale(3.29839 3.36955)">
<stop offset="0.0003" stop-color="#F9FF8B"/>
<stop offset="1" stop-color="#F9682E"/>
</radialGradient>
<radialGradient id="paint31_radial_938_25652" cx="0" cy="0" r="1" gradientUnits="userSpaceOnUse" gradientTransform="translate(14.8793 28.7593) scale(3.29839 3.36955)">
<stop offset="0.0003" stop-color="#F9FF8B"/>
<stop offset="1" stop-color="#F9682E"/>
</radialGradient>
<radialGradient id="paint32_radial_938_25652" cx="0" cy="0" r="1" gradientUnits="userSpaceOnUse" gradientTransform="translate(11.5805 25.3896) scale(3.29839 3.36955)">
<stop offset="0.0003" stop-color="#F9FF8B"/>
<stop offset="1" stop-color="#F9682E"/>
</radialGradient>
<radialGradient id="paint33_radial_938_25652" cx="0" cy="0" r="1" gradientUnits="userSpaceOnUse" gradientTransform="translate(10.2396 21.6848) scale(3.29839 3.36955)">
<stop offset="0.0003" stop-color="#F9FF8B"/>
<stop offset="1" stop-color="#F9682E"/>
</radialGradient>
<radialGradient id="paint34_radial_938_25652" cx="0" cy="0" r="1" gradientUnits="userSpaceOnUse" gradientTransform="translate(10.2396 17.8036) scale(3.29839 3.36955)">
<stop offset="0.0003" stop-color="#F9FF8B"/>
<stop offset="1" stop-color="#F9682E"/>
</radialGradient>
<radialGradient id="paint35_radial_938_25652" cx="0" cy="0" r="1" gradientUnits="userSpaceOnUse" gradientTransform="translate(12.1547 14.4278) scale(3.29839 3.36955)">
<stop offset="0.0003" stop-color="#F9FF8B"/>
<stop offset="1" stop-color="#F9682E"/>
</radialGradient>
<radialGradient id="paint36_radial_938_25652" cx="0" cy="0" r="1" gradientUnits="userSpaceOnUse" gradientTransform="translate(14.8793 12.3883) scale(3.29839 3.36955)">
<stop offset="0.0003" stop-color="#F9FF8B"/>
<stop offset="1" stop-color="#F9682E"/>
</radialGradient>
<radialGradient id="paint37_radial_938_25652" cx="0" cy="0" r="1" gradientUnits="userSpaceOnUse" gradientTransform="translate(18.5541 12.0464) scale(3.29839 3.36955)">
<stop offset="0.0003" stop-color="#F9FF8B"/>
<stop offset="1" stop-color="#F9682E"/>
</radialGradient>
<radialGradient id="paint38_radial_938_25652" cx="0" cy="0" r="1" gradientUnits="userSpaceOnUse" gradientTransform="translate(22.3559 12.8053) scale(3.29839 3.36955)">
<stop offset="0.0003" stop-color="#F9FF8B"/>
<stop offset="1" stop-color="#F9682E"/>
</radialGradient>
<radialGradient id="paint39_radial_938_25652" cx="0" cy="0" r="1" gradientUnits="userSpaceOnUse" gradientTransform="translate(25.1518 16.1749) scale(3.29839 3.36955)">
<stop offset="0.0003" stop-color="#F9FF8B"/>
<stop offset="1" stop-color="#F9682E"/>
</radialGradient>
<radialGradient id="paint40_radial_938_25652" cx="0" cy="0" r="1" gradientUnits="userSpaceOnUse" gradientTransform="translate(25.6547 20.2009) scale(3.29839 3.36955)">
<stop offset="0.0003" stop-color="#F9FF8B"/>
<stop offset="1" stop-color="#F9682E"/>
</radialGradient>
<radialGradient id="paint41_radial_938_25652" cx="0" cy="0" r="1" gradientUnits="userSpaceOnUse" gradientTransform="translate(24.1352 24.0041) scale(3.29839 3.36955)">
<stop offset="0.0003" stop-color="#F9FF8B"/>
<stop offset="1" stop-color="#F9682E"/>
</radialGradient>
<radialGradient id="paint42_radial_938_25652" cx="0" cy="0" r="1" gradientUnits="userSpaceOnUse" gradientTransform="translate(20.0492 25.3896) scale(3.29839 3.36955)">
<stop offset="0.0003" stop-color="#F9FF8B"/>
<stop offset="1" stop-color="#F9682E"/>
</radialGradient>
<radialGradient id="paint43_radial_938_25652" cx="0" cy="0" r="1" gradientUnits="userSpaceOnUse" gradientTransform="translate(16.7504 23.5704) scale(3.29839 3.36955)">
<stop offset="0.0003" stop-color="#F9FF8B"/>
<stop offset="1" stop-color="#F9682E"/>
</radialGradient>
<radialGradient id="paint44_radial_938_25652" cx="0" cy="0" r="1" gradientUnits="userSpaceOnUse" gradientTransform="translate(15.2562 21.1731) scale(3.29839 3.36955)">
<stop offset="0.0003" stop-color="#F9FF8B"/>
<stop offset="1" stop-color="#F9682E"/>
</radialGradient>
<radialGradient id="paint45_radial_938_25652" cx="0" cy="0" r="1" gradientUnits="userSpaceOnUse" gradientTransform="translate(15.4535 17.8036) scale(3.29839 3.36955)">
<stop offset="0.0003" stop-color="#F9FF8B"/>
<stop offset="1" stop-color="#F9682E"/>
</radialGradient>
<radialGradient id="paint46_radial_938_25652" cx="0" cy="0" r="1" gradientUnits="userSpaceOnUse" gradientTransform="translate(18.5541 16.1749) scale(3.29839 3.36955)">
<stop offset="0.0003" stop-color="#F9FF8B"/>
<stop offset="1" stop-color="#F9682E"/>
</radialGradient>
<radialGradient id="paint47_radial_938_25652" cx="0" cy="0" r="1" gradientUnits="userSpaceOnUse" gradientTransform="translate(20.8363 18.3153) scale(3.29839 3.36955)">
<stop offset="0.0003" stop-color="#F9FF8B"/>
<stop offset="1" stop-color="#F9682E"/>
</radialGradient>
<radialGradient id="paint48_radial_938_25652" cx="0" cy="0" r="1" gradientUnits="userSpaceOnUse" gradientTransform="translate(19.5141 20.7137) scale(3.29839 3.36955)">
<stop offset="0.0003" stop-color="#F9FF8B"/>
<stop offset="1" stop-color="#F9682E"/>
</radialGradient>
<radialGradient id="paint49_radial_938_25652" cx="0" cy="0" r="1" gradientUnits="userSpaceOnUse" gradientTransform="translate(17.4809 4.67248) scale(3.29839 3.36955)">
<stop stop-color="white"/>
<stop offset="0.6274" stop-color="#F9FF8B" stop-opacity="0"/>
</radialGradient>
<radialGradient id="paint50_radial_938_25652" cx="0" cy="0" r="1" gradientUnits="userSpaceOnUse" gradientTransform="translate(22.1157 5.45226) scale(3.29839 3.36955)">
<stop stop-color="white"/>
<stop offset="0.6274" stop-color="#F9FF8B" stop-opacity="0"/>
</radialGradient>
<radialGradient id="paint51_radial_938_25652" cx="0" cy="0" r="1" gradientUnits="userSpaceOnUse" gradientTransform="translate(26.7368 6.30114) scale(3.29839 3.36955)">
<stop stop-color="white"/>
<stop offset="0.6274" stop-color="#F9FF8B" stop-opacity="0"/>
</radialGradient>
<radialGradient id="paint52_radial_938_25652" cx="0" cy="0" r="1" gradientUnits="userSpaceOnUse" gradientTransform="translate(29.7475 9.66442) scale(3.29839 3.36955)">
<stop stop-color="white"/>
<stop offset="0.6274" stop-color="#F9FF8B" stop-opacity="0"/>
</radialGradient>
<radialGradient id="paint53_radial_938_25652" cx="0" cy="0" r="1" gradientUnits="userSpaceOnUse" gradientTransform="translate(32.0483 13.0402) scale(3.29839 3.36955)">
<stop stop-color="white"/>
<stop offset="0.6274" stop-color="#F9FF8B" stop-opacity="0"/>
</radialGradient>
<radialGradient id="paint54_radial_938_25652" cx="0" cy="0" r="1" gradientUnits="userSpaceOnUse" gradientTransform="translate(33.0464 17.4175) scale(3.29839 3.36955)">
<stop stop-color="white"/>
<stop offset="0.6274" stop-color="#F9FF8B" stop-opacity="0"/>
</radialGradient>
<radialGradient id="paint55_radial_938_25652" cx="0" cy="0" r="1" gradientUnits="userSpaceOnUse" gradientTransform="translate(33.0464 21.381) scale(3.29839 3.36955)">
<stop stop-color="white"/>
<stop offset="0.6274" stop-color="#F9FF8B" stop-opacity="0"/>
</radialGradient>
<radialGradient id="paint56_radial_938_25652" cx="0" cy="0" r="1" gradientUnits="userSpaceOnUse" gradientTransform="translate(32.0483 25.5463) scale(3.29839 3.36955)">
<stop stop-color="white"/>
<stop offset="0.6274" stop-color="#F9FF8B" stop-opacity="0"/>
</radialGradient>
<radialGradient id="paint57_radial_938_25652" cx="0" cy="0" r="1" gradientUnits="userSpaceOnUse" gradientTransform="translate(30.0347 29.3494) scale(3.29839 3.36955)">
<stop stop-color="white"/>
<stop offset="0.6274" stop-color="#F9FF8B" stop-opacity="0"/>
</radialGradient>
<radialGradient id="paint58_radial_938_25652" cx="0" cy="0" r="1" gradientUnits="userSpaceOnUse" gradientTransform="translate(26.4487 31.3746) scale(3.29839 3.36955)">
<stop stop-color="white"/>
<stop offset="0.6274" stop-color="#F9FF8B" stop-opacity="0"/>
</radialGradient>
<radialGradient id="paint59_radial_938_25652" cx="0" cy="0" r="1" gradientUnits="userSpaceOnUse" gradientTransform="translate(21.6587 33.0851) scale(3.29839 3.36955)">
<stop stop-color="white"/>
<stop offset="0.6274" stop-color="#F9FF8B" stop-opacity="0"/>
</radialGradient>
<radialGradient id="paint60_radial_938_25652" cx="0" cy="0" r="1" gradientUnits="userSpaceOnUse" gradientTransform="translate(17.8569 33.769) scale(3.29839 3.36955)">
<stop stop-color="white"/>
<stop offset="0.6274" stop-color="#F9FF8B" stop-opacity="0"/>
</radialGradient>
<radialGradient id="paint61_radial_938_25652" cx="0" cy="0" r="1" gradientUnits="userSpaceOnUse" gradientTransform="translate(13.8608 33.0851) scale(3.29839 3.36955)">
<stop stop-color="white"/>
<stop offset="0.6274" stop-color="#F9FF8B" stop-opacity="0"/>
</radialGradient>
<radialGradient id="paint62_radial_938_25652" cx="0" cy="0" r="1" gradientUnits="userSpaceOnUse" gradientTransform="translate(10.562 30.3995) scale(3.29839 3.36955)">
<stop stop-color="white"/>
<stop offset="0.6274" stop-color="#F9FF8B" stop-opacity="0"/>
</radialGradient>
<radialGradient id="paint63_radial_938_25652" cx="0" cy="0" r="1" gradientUnits="userSpaceOnUse" gradientTransform="translate(8.15868 27.03) scale(3.29839 3.36955)">
<stop stop-color="white"/>
<stop offset="0.6274" stop-color="#F9FF8B" stop-opacity="0"/>
</radialGradient>
<radialGradient id="paint64_radial_938_25652" cx="0" cy="0" r="1" gradientUnits="userSpaceOnUse" gradientTransform="translate(6.24364 23.6605) scale(3.29839 3.36955)">
<stop stop-color="white"/>
<stop offset="0.6274" stop-color="#F9FF8B" stop-opacity="0"/>
</radialGradient>
<radialGradient id="paint65_radial_938_25652" cx="0" cy="0" r="1" gradientUnits="userSpaceOnUse" gradientTransform="translate(5.19286 19.3198) scale(3.29839 3.36955)">
<stop stop-color="white"/>
<stop offset="0.6274" stop-color="#F9FF8B" stop-opacity="0"/>
</radialGradient>
<radialGradient id="paint66_radial_938_25652" cx="0" cy="0" r="1" gradientUnits="userSpaceOnUse" gradientTransform="translate(5.64306 15.5608) scale(3.29839 3.36955)">
<stop stop-color="white"/>
<stop offset="0.6274" stop-color="#F9FF8B" stop-opacity="0"/>
</radialGradient>
<radialGradient id="paint67_radial_938_25652" cx="0" cy="0" r="1" gradientUnits="userSpaceOnUse" gradientTransform="translate(6.83056 12.1318) scale(3.29839 3.36955)">
<stop stop-color="white"/>
<stop offset="0.6274" stop-color="#F9FF8B" stop-opacity="0"/>
</radialGradient>
<radialGradient id="paint68_radial_938_25652" cx="0" cy="0" r="1" gradientUnits="userSpaceOnUse" gradientTransform="translate(9.54247 8.82177) scale(3.29839 3.36955)">
<stop stop-color="white"/>
<stop offset="0.6274" stop-color="#F9FF8B" stop-opacity="0"/>
</radialGradient>
<radialGradient id="paint69_radial_938_25652" cx="0" cy="0" r="1" gradientUnits="userSpaceOnUse" gradientTransform="translate(12.8403 6.30114) scale(3.29839 3.36955)">
<stop stop-color="white"/>
<stop offset="0.6274" stop-color="#F9FF8B" stop-opacity="0"/>
</radialGradient>
<radialGradient id="paint70_radial_938_25652" cx="0" cy="0" r="1" gradientUnits="userSpaceOnUse" gradientTransform="translate(16.0532 7.28307) scale(3.29839 3.36955)">
<stop stop-color="white"/>
<stop offset="0.6274" stop-color="#F9FF8B" stop-opacity="0"/>
</radialGradient>
<radialGradient id="paint71_radial_938_25652" cx="0" cy="0" r="1" gradientUnits="userSpaceOnUse" gradientTransform="translate(20.7788 7.62499) scale(3.29839 3.36955)">
<stop stop-color="white"/>
<stop offset="0.6274" stop-color="#F9FF8B" stop-opacity="0"/>
</radialGradient>
<radialGradient id="paint72_radial_938_25652" cx="0" cy="0" r="1" gradientUnits="userSpaceOnUse" gradientTransform="translate(24.0776 9.66442) scale(3.29839 3.36955)">
<stop stop-color="white"/>
<stop offset="0.6274" stop-color="#F9FF8B" stop-opacity="0"/>
</radialGradient>
<radialGradient id="paint73_radial_938_25652" cx="0" cy="0" r="1" gradientUnits="userSpaceOnUse" gradientTransform="translate(26.7368 12.5809) scale(3.29839 3.36955)">
<stop stop-color="white"/>
<stop offset="0.6274" stop-color="#F9FF8B" stop-opacity="0"/>
</radialGradient>
<radialGradient id="paint74_radial_938_25652" cx="0" cy="0" r="1" gradientUnits="userSpaceOnUse" gradientTransform="translate(28.2554 17.0279) scale(3.29839 3.36955)">
<stop stop-color="white"/>
<stop offset="0.6274" stop-color="#F9FF8B" stop-opacity="0"/>
</radialGradient>
<radialGradient id="paint75_radial_938_25652" cx="0" cy="0" r="1" gradientUnits="userSpaceOnUse" gradientTransform="translate(28.2554 21.381) scale(3.29839 3.36955)">
<stop stop-color="white"/>
<stop offset="0.6274" stop-color="#F9FF8B" stop-opacity="0"/>
</radialGradient>
<radialGradient id="paint76_radial_938_25652" cx="0" cy="0" r="1" gradientUnits="userSpaceOnUse" gradientTransform="translate(26.4487 25.9799) scale(3.29839 3.36955)">
<stop stop-color="white"/>
<stop offset="0.6274" stop-color="#F9FF8B" stop-opacity="0"/>
</radialGradient>
<radialGradient id="paint77_radial_938_25652" cx="0" cy="0" r="1" gradientUnits="userSpaceOnUse" gradientTransform="translate(22.6499 28.1201) scale(3.29839 3.36955)">
<stop stop-color="white"/>
<stop offset="0.6274" stop-color="#F9FF8B" stop-opacity="0"/>
</radialGradient>
<radialGradient id="paint78_radial_938_25652" cx="0" cy="0" r="1" gradientUnits="userSpaceOnUse" gradientTransform="translate(17.8569 28.9158) scale(3.29839 3.36955)">
<stop stop-color="white"/>
<stop offset="0.6274" stop-color="#F9FF8B" stop-opacity="0"/>
</radialGradient>
<radialGradient id="paint79_radial_938_25652" cx="0" cy="0" r="1" gradientUnits="userSpaceOnUse" gradientTransform="translate(14.1821 27.3653) scale(3.29839 3.36955)">
<stop stop-color="white"/>
<stop offset="0.6274" stop-color="#F9FF8B" stop-opacity="0"/>
</radialGradient>
<radialGradient id="paint80_radial_938_25652" cx="0" cy="0" r="1" gradientUnits="userSpaceOnUse" gradientTransform="translate(10.8833 23.9958) scale(3.29839 3.36955)">
<stop stop-color="white"/>
<stop offset="0.6274" stop-color="#F9FF8B" stop-opacity="0"/>
</radialGradient>
<radialGradient id="paint81_radial_938_25652" cx="0" cy="0" r="1" gradientUnits="userSpaceOnUse" gradientTransform="translate(9.54247 20.291) scale(3.29839 3.36955)">
<stop stop-color="white"/>
<stop offset="0.6274" stop-color="#F9FF8B" stop-opacity="0"/>
</radialGradient>
<radialGradient id="paint82_radial_938_25652" cx="0" cy="0" r="1" gradientUnits="userSpaceOnUse" gradientTransform="translate(9.54247 16.4098) scale(3.29839 3.36955)">
<stop stop-color="white"/>
<stop offset="0.6274" stop-color="#F9FF8B" stop-opacity="0"/>
</radialGradient>
<radialGradient id="paint83_radial_938_25652" cx="0" cy="0" r="1" gradientUnits="userSpaceOnUse" gradientTransform="translate(11.4575 13.0341) scale(3.29839 3.36955)">
<stop stop-color="white"/>
<stop offset="0.6274" stop-color="#F9FF8B" stop-opacity="0"/>
</radialGradient>
<radialGradient id="paint84_radial_938_25652" cx="0" cy="0" r="1" gradientUnits="userSpaceOnUse" gradientTransform="translate(14.1821 10.9945) scale(3.29839 3.36955)">
<stop stop-color="white"/>
<stop offset="0.6274" stop-color="#F9FF8B" stop-opacity="0"/>
</radialGradient>
<radialGradient id="paint85_radial_938_25652" cx="0" cy="0" r="1" gradientUnits="userSpaceOnUse" gradientTransform="translate(17.8569 10.6526) scale(3.29839 3.36955)">
<stop stop-color="white"/>
<stop offset="0.6274" stop-color="#F9FF8B" stop-opacity="0"/>
</radialGradient>
<radialGradient id="paint86_radial_938_25652" cx="0" cy="0" r="1" gradientUnits="userSpaceOnUse" gradientTransform="translate(21.6587 11.4115) scale(3.29839 3.36955)">
<stop stop-color="white"/>
<stop offset="0.6274" stop-color="#F9FF8B" stop-opacity="0"/>
</radialGradient>
<radialGradient id="paint87_radial_938_25652" cx="0" cy="0" r="1" gradientUnits="userSpaceOnUse" gradientTransform="translate(24.4546 14.7811) scale(3.29839 3.36955)">
<stop stop-color="white"/>
<stop offset="0.6274" stop-color="#F9FF8B" stop-opacity="0"/>
</radialGradient>
<radialGradient id="paint88_radial_938_25652" cx="0" cy="0" r="1" gradientUnits="userSpaceOnUse" gradientTransform="translate(24.9575 18.8071) scale(3.29839 3.36955)">
<stop stop-color="white"/>
<stop offset="0.6274" stop-color="#F9FF8B" stop-opacity="0"/>
</radialGradient>
<radialGradient id="paint89_radial_938_25652" cx="0" cy="0" r="1" gradientUnits="userSpaceOnUse" gradientTransform="translate(23.438 22.6102) scale(3.29839 3.36955)">
<stop stop-color="white"/>
<stop offset="0.6274" stop-color="#F9FF8B" stop-opacity="0"/>
</radialGradient>
<radialGradient id="paint90_radial_938_25652" cx="0" cy="0" r="1" gradientUnits="userSpaceOnUse" gradientTransform="translate(19.352 23.9958) scale(3.29839 3.36955)">
<stop stop-color="white"/>
<stop offset="0.6274" stop-color="#F9FF8B" stop-opacity="0"/>
</radialGradient>
<radialGradient id="paint91_radial_938_25652" cx="0" cy="0" r="1" gradientUnits="userSpaceOnUse" gradientTransform="translate(16.0532 22.1766) scale(3.29839 3.36955)">
<stop stop-color="white"/>
<stop offset="0.6274" stop-color="#F9FF8B" stop-opacity="0"/>
</radialGradient>
<radialGradient id="paint92_radial_938_25652" cx="0" cy="0" r="1" gradientUnits="userSpaceOnUse" gradientTransform="translate(14.5591 19.7793) scale(3.29839 3.36955)">
<stop stop-color="white"/>
<stop offset="0.6274" stop-color="#F9FF8B" stop-opacity="0"/>
</radialGradient>
<radialGradient id="paint93_radial_938_25652" cx="0" cy="0" r="1" gradientUnits="userSpaceOnUse" gradientTransform="translate(14.7563 16.4098) scale(3.29839 3.36955)">
<stop stop-color="white"/>
<stop offset="0.6274" stop-color="#F9FF8B" stop-opacity="0"/>
</radialGradient>
<radialGradient id="paint94_radial_938_25652" cx="0" cy="0" r="1" gradientUnits="userSpaceOnUse" gradientTransform="translate(17.8569 14.7811) scale(3.29839 3.36955)">
<stop stop-color="white"/>
<stop offset="0.6274" stop-color="#F9FF8B" stop-opacity="0"/>
</radialGradient>
<radialGradient id="paint95_radial_938_25652" cx="0" cy="0" r="1" gradientUnits="userSpaceOnUse" gradientTransform="translate(20.1392 16.9215) scale(3.29839 3.36955)">
<stop stop-color="white"/>
<stop offset="0.6274" stop-color="#F9FF8B" stop-opacity="0"/>
</radialGradient>
<radialGradient id="paint96_radial_938_25652" cx="0" cy="0" r="1" gradientUnits="userSpaceOnUse" gradientTransform="translate(18.8169 19.3198) scale(3.29839 3.36955)">
<stop stop-color="white"/>
<stop offset="0.6274" stop-color="#F9FF8B" stop-opacity="0"/>
</radialGradient>
</defs>
</svg>
