<svg width="55" height="23" viewBox="0 0 55 23" fill="none" xmlns="http://www.w3.org/2000/svg">
<g id="R-ICO-014672">
<g id="IKBKE">
<path d="M1.09082 11.4985C1.09082 5.97569 5.56797 1.49854 11.0908 1.49854H43.0908C48.6137 1.49854 53.0908 5.97569 53.0908 11.4985C53.0908 17.0214 48.6137 21.4985 43.0908 21.4985H11.0908C5.56797 21.4985 1.09082 17.0214 1.09082 11.4985Z" fill="url(#paint0_linear_938_24140)"/>
<path d="M42.7992 2.99119C32.2297 2.87297 21.6603 2.52136 11.0908 1.63854C11.0908 1.54518 11.0908 1.45181 11.0908 1.35845C21.6603 0.475625 32.2297 0.124021 42.7992 0.00579619C42.8964 0.00510132 42.9936 0.0044589 43.0908 0.00386786C49.1808 -0.171925 54.5771 5.37319 54.4061 11.3335C54.4062 11.3884 54.4058 11.4434 54.405 11.4985C54.4679 17.5557 48.8179 22.7032 43.0913 22.2644C43.0911 22.2644 43.091 22.2644 43.0908 22.2644C37.8062 22.0207 32.5211 21.8452 27.2366 21.9515C21.9519 22.0545 16.6667 22.463 11.382 22.6634C11.2849 22.6663 11.1879 22.6693 11.0908 22.6721C5.16251 22.9823 -0.233474 17.5103 0.00777447 11.6608C0.00843263 11.6068 0.00948894 11.5527 0.0109456 11.4985C0.014858 5.55814 5.68855 0.673686 11.0908 1.35845C11.0908 1.45181 11.0908 1.54518 11.0908 1.63854C5.84009 2.06412 1.90742 6.78572 2.17061 11.4985C2.17207 11.5423 2.17383 11.586 2.17589 11.6296C2.32039 16.3276 6.47079 20.2664 11.0908 20.3251C11.1879 20.3279 11.2849 20.3308 11.382 20.3338C16.6667 20.5341 21.9519 20.9413 27.2366 21.0443C32.5212 21.1506 37.8062 20.9765 43.0908 20.7328C43.091 20.7328 43.0911 20.7328 43.0912 20.7328C48.0176 20.5523 51.9728 16.0943 51.7767 11.4985C51.7759 11.456 51.7749 11.4136 51.7735 11.3712C51.6998 6.78373 47.5492 2.91746 43.0908 2.99313C42.9936 2.99254 42.8964 2.99189 42.7992 2.99119Z" fill="#CF002D"/>
<text id="IKBKE_2" fill="white" xml:space="preserve" style="white-space: pre" font-family="Arial" font-size="12" font-weight="bold" letter-spacing="0em"><tspan x="8.41113" y="15.6587">IKBKE</tspan></text>
</g>
</g>
<defs>
<linearGradient id="paint0_linear_938_24140" x1="27.0908" y1="1.49854" x2="27.0908" y2="21.4985" gradientUnits="userSpaceOnUse">
<stop stop-color="#00E7A8"/>
<stop offset="1" stop-color="#CF002D"/>
</linearGradient>
</defs>
</svg>
