<svg width="102" height="24" viewBox="0 0 102 24" fill="none" xmlns="http://www.w3.org/2000/svg">
<g id="R-ICO-014370">
<g id="MASITINIB">
<g id="LEFT_ELEMENT">
<mask id="mask0_938_22906" style="mask-type:luminance" maskUnits="userSpaceOnUse" x="0" y="0" width="8" height="24">
<rect id="MASK" width="8" height="24" transform="matrix(-1 0 0 1 8 0)" fill="white"/>
</mask>
<g mask="url(#mask0_938_22906)">
<g id="LEFT_CORNER">
<mask id="path-2-outside-1_938_22906" maskUnits="userSpaceOnUse" x="0" y="-1" width="10" height="26" fill="black">
<rect fill="white" y="-1" width="10" height="26"/>
<path d="M2 12C2 12 6.04738 5.90524 8 2V22C6.04738 18.0948 2 12 2 12Z"/>
</mask>
<path d="M2 12C2 12 6.04738 5.90524 8 2V22C6.04738 18.0948 2 12 2 12Z" fill="url(#paint0_linear_938_22906)"/>
<path d="M2 12C2 12 6.04738 5.90524 8 2V22C6.04738 18.0948 2 12 2 12Z" stroke="#946BE6" stroke-width="4" stroke-miterlimit="3.99933" stroke-linejoin="round" mask="url(#path-2-outside-1_938_22906)"/>
</g>
</g>
</g>
<g id="CENTRE shape">
<mask id="path-3-outside-2_938_22906" maskUnits="userSpaceOnUse" x="8" y="0" width="62" height="24" fill="black">
<rect fill="white" x="8" width="62" height="24"/>
<path d="M8 2H70V22H8V2Z"/>
</mask>
<path d="M8 2H70V22H8V2Z" fill="url(#paint1_linear_938_22906)"/>
<path d="M8 2V4H70V2V0H8V2ZM70 22V20H8V22V24H70V22Z" fill="#946BE6" mask="url(#path-3-outside-2_938_22906)"/>
<text id="Chemical" fill="white" xml:space="preserve" style="white-space: pre" font-family="Arial" font-size="12" font-weight="bold" letter-spacing="0em"><tspan x="8.31445" y="16.1602">MASITINIB</tspan></text>
</g>
<g id="RIGHT_ELEMENT">
<mask id="mask1_938_22906" style="mask-type:luminance" maskUnits="userSpaceOnUse" x="70" y="0" width="32" height="24">
<path id="MASK_2" d="M70 24L102 24L102 -8.90181e-07L70 1.90735e-06L70 24Z" fill="white"/>
</mask>
<g mask="url(#mask1_938_22906)">
<g id="Mask group">
<g id="ELEMENT">
<g id="BG">
<mask id="path-7-outside-3_938_22906" maskUnits="userSpaceOnUse" x="68" y="-1.74846e-07" width="34" height="24" fill="black">
<rect fill="white" x="68" y="-1.74846e-07" width="34" height="24"/>
<path d="M100 12C100 12 95.9526 18.0948 94 22L70 21.9999L70 2L94 2C95.9526 5.90524 100 12 100 12Z"/>
</mask>
<path d="M100 12C100 12 95.9526 18.0948 94 22L70 21.9999L70 2L94 2C95.9526 5.90524 100 12 100 12Z" fill="#946BE6"/>
<path d="M100 12C100 12 95.9526 18.0948 94 22L70 21.9999L70 2L94 2C95.9526 5.90524 100 12 100 12Z" stroke="#946BE6" stroke-width="4" stroke-miterlimit="3.99933" stroke-linejoin="round" mask="url(#path-7-outside-3_938_22906)"/>
</g>
<g id="RX">
<path id="Vector" d="M79 22V14H82.3071C83.1387 14 83.743 14.0718 84.1199 14.2155C84.4968 14.3592 84.7984 14.6148 85.0249 14.9822C85.2514 15.3496 85.3647 15.7698 85.3647 16.2428C85.3647 16.843 85.193 17.3388 84.8497 17.7298C84.5064 18.1209 83.9933 18.3675 83.3103 18.4693C83.6501 18.6731 83.9305 18.8968 84.1517 19.1405C84.3728 19.3842 84.671 19.8172 85.0461 20.4393L85.9963 22H84.1172L82.9812 20.2592C82.5778 19.6371 82.3017 19.2451 82.1531 19.0832C82.0044 18.9214 81.847 18.8104 81.6807 18.7504C81.5144 18.6904 81.2507 18.6603 80.8898 18.6603H80.5713V22H79ZM80.5713 17.3834H81.7338C82.4875 17.3834 82.9583 17.3506 83.1458 17.2851C83.3333 17.2196 83.4802 17.1068 83.5864 16.9468C83.6925 16.7867 83.7456 16.5866 83.7456 16.3465C83.7456 16.0773 83.6758 15.8599 83.536 15.6944C83.3962 15.5289 83.1989 15.4243 82.9441 15.3806C82.8167 15.3625 82.4345 15.3533 81.7975 15.3533H80.5713V17.3834Z" fill="white"/>
<path id="Vector_2" d="M85.9963 21.9999L88.0294 19.0149L86.0813 16.2046H87.9021L88.9001 17.798L89.9512 16.2046H91.7029L89.7919 18.9495L91.878 22H90.0467L88.9001 20.2047L87.7428 21.9999H85.9963Z" fill="white"/>
</g>
</g>
<g id="RIGHT_ELEMENT_2">
<mask id="mask2_938_22906" style="mask-type:alpha" maskUnits="userSpaceOnUse" x="70" y="0" width="8" height="24">
<rect id="MASK_3" x="70" width="8" height="24" fill="white"/>
</mask>
<g mask="url(#mask2_938_22906)">
<g id="LEFT_CORNER_2">
<mask id="path-11-outside-4_938_22906" maskUnits="userSpaceOnUse" x="68" y="-1" width="10" height="26" fill="black">
<rect fill="white" x="68" y="-1" width="10" height="26"/>
<path d="M76 12C76 12 71.9526 5.90524 70 2V22C71.9526 18.0948 76 12 76 12Z"/>
</mask>
<path d="M76 12C76 12 71.9526 5.90524 70 2V22C71.9526 18.0948 76 12 76 12Z" fill="url(#paint2_linear_938_22906)"/>
<path d="M76 12C76 12 71.9526 5.90524 70 2V22C71.9526 18.0948 76 12 76 12Z" stroke="#946BE6" stroke-width="4" stroke-miterlimit="3.99933" stroke-linejoin="round" mask="url(#path-11-outside-4_938_22906)"/>
</g>
</g>
</g>
</g>
</g>
</g>
</g>
</g>
<defs>
<linearGradient id="paint0_linear_938_22906" x1="5" y1="2" x2="5" y2="22" gradientUnits="userSpaceOnUse">
<stop stop-color="#96CDD2"/>
<stop offset="1" stop-color="#477EFF"/>
</linearGradient>
<linearGradient id="paint1_linear_938_22906" x1="39" y1="2" x2="39" y2="22" gradientUnits="userSpaceOnUse">
<stop stop-color="#96CDD2"/>
<stop offset="1" stop-color="#477EFF"/>
</linearGradient>
<linearGradient id="paint2_linear_938_22906" x1="73" y1="2" x2="73" y2="22" gradientUnits="userSpaceOnUse">
<stop stop-color="#96CDD2"/>
<stop offset="1" stop-color="#477EFF"/>
</linearGradient>
</defs>
</svg>
