<svg width="41" height="23" viewBox="0 0 41 23" fill="none" xmlns="http://www.w3.org/2000/svg">
<g id="R-ICO-014722">
<g id="NS5">
<path d="M1.19727 11.3442C1.19727 5.82139 5.67442 1.34424 11.1973 1.34424H29.1973C34.7201 1.34424 39.1973 5.82139 39.1973 11.3442C39.1973 16.8671 34.7201 21.3442 29.1973 21.3442H11.1973C5.67442 21.3442 1.19727 16.8671 1.19727 11.3442Z" fill="url(#paint0_linear_938_24165)"/>
<path d="M34.4851 4.67935C33.0147 3.46533 31.1416 2.75058 29.1973 2.68303C23.1973 2.48859 17.1973 2.12738 11.1973 1.48424C11.1973 1.39088 11.1973 1.29751 11.1973 1.20415C17.1973 0.561016 23.1973 0.199805 29.1973 0.00536501C31.7308 -0.0773827 34.3158 0.761595 36.3424 2.34204C39.0777 4.45211 40.6921 7.92318 40.5936 11.3442C40.5684 12.6173 40.3282 13.8822 39.8856 15.0704C38.3128 19.5092 33.6572 22.4606 29.1976 22.1101C29.1975 22.1101 29.1974 22.1101 29.1973 22.1101C25.0793 21.8664 20.961 21.6909 16.8431 21.7972C14.9612 21.8443 13.0792 21.9551 11.1973 22.0808C8.8009 22.2406 6.27777 21.5665 4.25587 20.0895C1.53806 18.1135 -0.103132 14.706 0.00539804 11.3442C0.0333287 10.0937 0.279383 8.85308 0.728155 7.69487C2.33174 3.36811 6.98888 0.611221 11.1973 1.20415C11.1973 1.29751 11.1973 1.39088 11.1973 1.48424C7.10753 1.95876 3.81174 4.87858 2.77568 8.40854C2.48697 9.3639 2.36025 10.3553 2.38905 11.3442C2.45566 13.9994 3.6971 16.5268 5.70522 18.2657C7.18024 19.5833 9.11559 20.4628 11.1973 20.607C13.0792 20.7323 14.9612 20.8429 16.8431 20.89C20.961 20.9963 25.0792 20.8222 29.1973 20.5785C29.1974 20.5785 29.1975 20.5785 29.1976 20.5785C33.0359 20.3458 36.3322 17.6212 37.3994 14.2038C37.6944 13.2783 37.827 12.3109 37.801 11.3442C37.7443 8.74809 36.4757 6.28405 34.4851 4.67935Z" fill="#00A2B7"/>
<text id="NS5_2" fill="white" xml:space="preserve" style="white-space: pre" font-family="Arial" font-size="12" font-weight="bold" letter-spacing="0em"><tspan x="8.51953" y="15.5044">NS5</tspan></text>
</g>
</g>
<defs>
<linearGradient id="paint0_linear_938_24165" x1="20.1973" y1="1.34424" x2="20.1973" y2="21.3442" gradientUnits="userSpaceOnUse">
<stop stop-color="#D3C6CC"/>
<stop offset="1" stop-color="#00A2B7"/>
</linearGradient>
</defs>
</svg>
