<svg width="45" height="50" viewBox="0 0 45 50" fill="none" xmlns="http://www.w3.org/2000/svg">
<g id="R-ICO-014573">
<path id="Vector" d="M43.9854 15.5124C39.9834 11.5114 36.75 12.0007 35.1778 12.654C31.8438 14.0349 30.1534 18.1442 30.1534 24.8679C30.1534 25.7048 29.8272 26.2449 29.127 26.5681C28.1036 27.0408 26.754 26.8259 26.1856 26.3425C25.9483 26.1384 25.6319 25.7644 25.6319 24.8679C25.6319 23.1003 26.0997 21.3679 26.5967 19.5281C27.7696 15.1804 29.2295 9.77127 23.4248 3.96657C17.3868 -2.07253 8.43166 -0.593034 3.59966 4.23997C-0.153241 7.99197 -1.73534 14.2244 2.64556 20.157C-0.435541 24.5896 -0.243141 29.3816 0.977559 32.3299C2.42486 35.8221 5.52546 37.907 9.27146 37.907C11.9141 37.907 13.5186 38.5027 13.5186 46.7517C13.5186 48.406 14.8643 49.7517 16.5186 49.7517C18.1729 49.7517 19.5186 48.406 19.5186 46.7517C19.5186 41.9333 19.5186 31.907 9.27146 31.907C7.94336 31.907 7.04296 31.2937 6.52046 30.033C5.96966 28.7029 5.97656 26.5935 7.01946 24.535C10.3066 27.1014 13.2256 27.8748 15.7158 26.8358C18.0967 25.8495 19.5185 23.3397 19.5185 20.121C19.5185 16.9335 18.0947 14.4423 15.7089 13.454C13.1816 12.411 10.2353 13.1933 6.93936 15.7753C6.30656 14.6991 5.98036 13.6191 5.98426 12.5878C5.98916 11.1337 6.64926 9.67567 7.84166 8.48227C9.28406 7.04087 11.2948 6.13657 13.3505 6.00177C15.6112 5.86507 17.58 6.60527 19.1825 8.20877C22.5331 11.5594 21.9188 13.8348 20.8026 17.9695C20.2538 20.0007 19.6317 22.3045 19.6317 24.8679C19.6317 27.3298 20.5497 29.4158 22.284 30.8991C23.7528 32.1569 25.7059 32.8493 27.782 32.8493C31.8396 32.8493 36.1531 30.0524 36.1531 24.8679C36.1531 19.3122 37.4392 18.2331 37.4129 18.2146C37.5916 18.2341 38.4471 18.4587 39.743 19.7546C40.9129 20.9245 42.8153 20.9245 43.9852 19.7546C45.1551 18.5847 45.1553 16.6824 43.9854 15.5124ZM11.125 20.1247C12.3516 19.2399 13.0645 19.0602 13.3438 19.0251C13.419 19.1989 13.5186 19.5534 13.5186 20.1208C13.5186 20.6989 13.4219 21.0671 13.3438 21.2536C13.0479 21.2077 12.334 21.0036 11.125 20.1247Z" fill="#2EAECC"/>
<path id="Vector_2" d="M7.01967 24.5349C6.72457 25.1365 6.44157 25.8047 6.27057 26.7614C6.07157 28.7143 6.53863e-05 25.5797 1.12467 22.9586C1.44847 22.1196 2.08607 20.8803 2.64567 20.157C3.10667 20.6876 6.54077 24.1005 7.01967 24.5349Z" fill="url(#paint0_radial_938_24446)"/>
<path id="Vector_3" d="M11.125 20.1246C11.373 19.8935 12.0754 19.513 12.5049 19.2941C13.3826 17.6019 11.125 13.7948 9.43855 14.1268C9.04105 14.3096 7.24345 15.473 6.93945 15.775C7.46205 16.7255 10.6927 19.908 11.125 20.1246Z" fill="url(#paint1_radial_938_24446)"/>
</g>
<defs>
<radialGradient id="paint0_radial_938_24446" cx="0" cy="0" r="1" gradientUnits="userSpaceOnUse" gradientTransform="translate(5.18585 22.6948) rotate(-45) scale(4.23776 7.72338)">
<stop stop-color="#0D2A63"/>
<stop offset="0.118" stop-color="#14477A"/>
<stop offset="0.2978" stop-color="#1D6C97"/>
<stop offset="0.4778" stop-color="#2589AE"/>
<stop offset="0.6558" stop-color="#2A9DBF"/>
<stop offset="0.831" stop-color="#2DAAC9"/>
<stop offset="1" stop-color="#2EAECC"/>
</radialGradient>
<radialGradient id="paint1_radial_938_24446" cx="0" cy="0" r="1" gradientTransform="matrix(3.55373 4.8254 -2.37315 1.7475 9.56918 18.6332)" gradientUnits="userSpaceOnUse">
<stop stop-color="#0D2A63"/>
<stop offset="0.118" stop-color="#14477A"/>
<stop offset="0.2978" stop-color="#1D6C97"/>
<stop offset="0.4778" stop-color="#2589AE"/>
<stop offset="0.6558" stop-color="#2A9DBF"/>
<stop offset="0.831" stop-color="#2DAAC9"/>
<stop offset="1" stop-color="#2EAECC"/>
</radialGradient>
</defs>
</svg>
