<svg width="89" height="23" viewBox="0 0 89 23" fill="none" xmlns="http://www.w3.org/2000/svg">
<g id="R-ICO-013034">
<g id="Mx GTPases">
<path d="M0.871826 11.5C0.871826 5.97715 5.34898 1.5 10.8718 1.5H76.8718C82.3947 1.5 86.8718 5.97715 86.8718 11.5C86.8718 17.0228 82.3947 21.5 76.8718 21.5H10.8718C5.34898 21.5 0.871826 17.0228 0.871826 11.5Z" fill="url(#paint0_linear_938_23441)"/>
<path d="M59.5801 2.99266C43.3439 2.87443 27.1079 2.52283 10.8718 1.64001C10.8718 1.54664 10.8718 1.45328 10.8718 1.35991C27.1079 0.477089 43.3439 0.125486 59.5801 0.00726104C65.3438 -0.0195595 71.1079 0.0317479 76.8718 0.0984139C79.5556 0.114634 82.2159 1.13302 84.2168 2.89082C86.6911 5.01839 88.1379 8.27287 88.0587 11.5C88.0941 17.4763 82.5992 22.596 76.8726 22.2659C76.8723 22.2659 76.8721 22.2658 76.8718 22.2658C68.754 22.0221 60.6354 21.8466 52.5177 21.953C44.3997 22.056 36.2809 22.4645 28.1629 22.6648C22.3992 22.7804 16.6355 22.7692 10.8718 22.6976C8.2355 22.6793 5.62691 21.6681 3.67823 19.933C1.27105 17.8279 -0.107769 14.6353 0.00653541 11.5C0.037587 5.68497 5.47939 0.870499 10.8718 1.35991C10.8718 1.45328 10.8718 1.54664 10.8718 1.64001C5.61129 1.87031 1.44686 6.66157 1.73697 11.5C1.81454 14.143 3.08406 16.6618 5.08615 18.284C6.71212 19.62 8.7929 20.339 10.8718 20.3025C16.6355 20.2309 22.3992 20.2196 28.1629 20.3353C36.281 20.5356 44.3997 20.9428 52.5177 21.0457C60.6355 21.1521 68.7539 20.978 76.8718 20.7342C76.872 20.7342 76.8723 20.7342 76.8725 20.7342C81.7987 20.6623 85.9085 16.1764 85.685 11.5C85.6425 8.94937 84.4415 6.49292 82.5071 4.89308C80.9333 3.5793 78.9038 2.86706 76.8718 2.90155C71.1079 2.96828 65.3438 3.01967 59.5801 2.99266Z" fill="#D7411F"/>
<text id="Mx GTPases_2" fill="white" xml:space="preserve" style="white-space: pre" font-family="Arial" font-size="12" font-weight="bold" letter-spacing="0em"><tspan x="8.16479" y="15.6602">Mx GTPases</tspan></text>
</g>
</g>
<defs>
<linearGradient id="paint0_linear_938_23441" x1="43.8718" y1="1.5" x2="43.8718" y2="21.5" gradientUnits="userSpaceOnUse">
<stop stop-color="#45ABFF"/>
<stop offset="1" stop-color="#D7411F"/>
</linearGradient>
</defs>
</svg>
