<svg width="94" height="23" viewBox="0 0 94 23" fill="none" xmlns="http://www.w3.org/2000/svg">
<g id="R-ICO-014296">
<g id="CDK5R1(p25)">
<path d="M0.847656 11.5C0.847656 5.97715 5.32481 1.5 10.8477 1.5H81.8477C87.3705 1.5 91.8477 5.97715 91.8477 11.5C91.8477 17.0228 87.3705 21.5 81.8477 21.5H10.8477C5.32481 21.5 0.847656 17.0228 0.847656 11.5Z" fill="url(#paint0_linear_938_23955)"/>
<path d="M62.0559 2.99266C44.9864 2.87443 27.9171 2.52283 10.8477 1.64001C10.8477 1.54664 10.8477 1.45328 10.8477 1.35991C27.9171 0.477089 44.9864 0.125486 62.0559 0.00726104C68.653 -0.0219384 75.2504 0.0414646 81.8477 0.116472C84.0505 0.132817 86.2465 0.813647 88.063 2.04182C91.1845 4.10268 93.118 7.80573 93.0192 11.5C93.0554 17.4671 87.5752 22.5863 81.8484 22.2659C81.8482 22.2659 81.8479 22.2658 81.8477 22.2658C73.3132 22.0221 64.7779 21.8466 56.2435 21.953C47.7088 22.056 39.1734 22.4645 30.6387 22.6648C24.0417 22.7907 17.4447 22.7662 10.8477 22.6772C8.68433 22.6566 6.53242 21.9788 4.76066 20.7646C1.71799 18.7209 -0.131323 15.0854 0.00731516 11.5C0.037562 5.69946 5.45561 0.88824 10.8477 1.35991C10.8477 1.45328 10.8477 1.54664 10.8477 1.64001C5.58673 1.85257 1.39856 6.64707 1.68785 11.5C1.7688 14.536 3.44655 17.397 5.95283 18.9534C7.41531 19.8773 9.13315 20.3526 10.8477 20.3229C17.4446 20.2339 24.0416 20.2094 30.6387 20.3353C39.1734 20.5356 47.7088 20.9428 56.2435 21.0457C64.778 21.1521 73.313 20.978 81.8477 20.7342C81.8479 20.7342 81.8481 20.7342 81.8483 20.7342C86.7744 20.6719 90.899 16.1856 90.6762 11.5C90.635 8.57345 89.0422 5.78044 86.6153 4.24095C85.1974 3.33064 83.5232 2.85792 81.8477 2.88348C75.2504 2.95855 68.6529 3.02207 62.0559 2.99266Z" fill="#325F75"/>
<text id="CDK5R1(p25)_2" fill="white" xml:space="preserve" style="white-space: pre" font-family="Arial" font-size="12" font-weight="bold" letter-spacing="0em"><tspan x="7.98047" y="15.6602">CDK5R1(p25)</tspan></text>
</g>
</g>
<defs>
<linearGradient id="paint0_linear_938_23955" x1="46.3477" y1="1.5" x2="46.3477" y2="21.5" gradientUnits="userSpaceOnUse">
<stop stop-color="#325F75"/>
<stop offset="1" stop-color="#C570D8"/>
</linearGradient>
</defs>
</svg>
