<svg width="53" height="23" viewBox="0 0 53 23" fill="none" xmlns="http://www.w3.org/2000/svg">
<g id="R-ICO-013298">
<g id="RHOA">
<path d="M1.10828 11.4849C1.10828 5.96202 5.58543 1.48486 11.1083 1.48486H41.1083C46.6311 1.48486 51.1083 5.96202 51.1083 11.4849C51.1083 17.0077 46.6311 21.4849 41.1083 21.4849H11.1083C5.58543 21.4849 1.10828 17.0077 1.10828 11.4849Z" fill="url(#paint0_linear_938_23570)"/>
<path d="M41.7125 2.99858C41.5106 2.98175 41.3117 2.97197 41.1083 2.96896C31.1083 2.84279 21.1083 2.48733 11.1083 1.62487C11.1083 1.5315 11.1083 1.43814 11.1083 1.34477C21.1083 0.482317 31.1083 0.126853 41.1083 0.000681996C41.3809 -0.00225198 41.6485 0.00418043 41.921 0.0204766C47.7753 0.272074 52.6717 5.75032 52.4315 11.4849C52.4292 11.6191 52.4247 11.7527 52.4178 11.8858C52.2618 17.7977 46.6987 22.6801 41.1087 22.2507C41.1086 22.2507 41.1084 22.2507 41.1083 22.2507C35.9903 22.007 30.8719 21.8315 25.7541 21.9378C20.8723 22.0361 15.9901 22.4123 11.1083 22.6207C10.8436 22.6307 10.5834 22.6314 10.318 22.6221C4.61414 22.5179 -0.290909 17.1135 0.0134803 11.4849C0.0169721 11.3535 0.0227901 11.2227 0.0308907 11.0926C0.249207 5.29689 5.83432 0.667805 11.1083 1.34477C11.1083 1.43814 11.1083 1.5315 11.1083 1.62487C5.98294 2.06133 2.10886 6.56602 2.19791 11.1681C2.19781 11.2733 2.1995 11.3789 2.20299 11.4849C2.28462 16.0027 6.05396 19.9023 10.4807 20.2982C10.69 20.3221 10.8966 20.339 11.1083 20.3491C15.9901 20.5574 20.8723 20.9324 25.7541 21.0306C30.872 21.1369 35.9903 20.9628 41.1083 20.7191C41.1084 20.7191 41.1085 20.7191 41.1087 20.7191C45.9177 20.5294 49.8125 16.2791 49.7865 11.7939C49.7878 11.6913 49.7874 11.5883 49.7851 11.4849C49.7677 7.07277 45.9888 3.2468 41.7125 2.99858Z" fill="#1C474A"/>
<text id="RHOA_2" fill="white" xml:space="preserve" style="white-space: pre" font-family="Arial" font-size="12" font-weight="bold" letter-spacing="0em"><tspan x="8.43054" y="15.645">RHOA</tspan></text>
</g>
</g>
<defs>
<linearGradient id="paint0_linear_938_23570" x1="26.1083" y1="1.48486" x2="26.1083" y2="21.4849" gradientUnits="userSpaceOnUse">
<stop stop-color="#1C474A"/>
<stop offset="1" stop-color="#94881D"/>
</linearGradient>
</defs>
</svg>
