<svg width="46" height="51" viewBox="0 0 46 51" fill="none" xmlns="http://www.w3.org/2000/svg">
<g id="R-ICO-014208">
<g id="Group">
<path id="Vector" d="M41.663 2.1811C41.5786 1.5208 41.2437 0.9319 40.7168 0.5235C40.2756 0.1811 39.7474 0 39.1905 0C38.4131 0 37.6956 0.3519 37.2177 0.9653L26.5517 14.7198C25.9203 15.5355 25.8757 16.6243 26.3536 17.4734C25.2787 17.7506 24.4795 18.7195 24.4795 19.8792V47.6034C24.4795 48.9778 25.5973 50.0963 26.9724 50.0963C28.3475 50.0963 29.4653 48.9778 29.4653 47.6034V19.8792C29.4653 19.4343 29.3387 19.0223 29.1338 18.6603C29.6675 18.5263 30.1457 18.2227 30.4933 17.7757L41.1579 4.0219C41.5677 3.4956 41.746 2.8421 41.663 2.1811Z" fill="url(#paint0_linear_938_22958)"/>
<path id="Vector_2" d="M44.6568 3.58063C44.2157 3.23823 43.6874 3.05713 43.1292 3.05713C42.3518 3.05713 41.6343 3.40903 41.1577 4.02173L30.4917 17.7762C29.6503 18.8627 29.8491 20.4311 30.9355 21.2746C31.3766 21.6163 31.9049 21.7974 32.4617 21.7974C33.2391 21.7974 33.9566 21.4455 34.4331 20.8321L45.0993 7.07763C45.9407 5.99123 45.7419 4.42203 44.6568 3.58063Z" fill="#00A277"/>
</g>
<g id="Group_2">
<path id="Vector_3" d="M19.269 17.4761C19.7482 16.627 19.7047 15.5367 19.0716 14.7192L8.40423 0.965332C7.92903 0.351932 7.21023 0.000732422 6.43283 0.000732422C5.87593 0.000732422 5.34773 0.181132 4.90663 0.523532C4.38103 0.931332 4.04473 1.52013 3.96033 2.18113C3.87733 2.84213 4.05563 3.49563 4.46413 4.02193L15.1301 17.7751C15.4749 18.2203 15.9504 18.5226 16.4817 18.6577C16.2758 19.0203 16.1485 19.4333 16.1485 19.8793V47.6035C16.1485 48.9779 17.2663 50.0964 18.6414 50.0964C20.0165 50.0964 21.1343 48.9779 21.1343 47.6035V19.8792C21.1342 18.7227 20.3391 17.7563 19.269 17.4761Z" fill="url(#paint1_linear_938_22958)"/>
<path id="Vector_4" d="M15.1311 17.7758L4.46384 4.02197C3.98864 3.40857 3.26984 3.05737 2.49374 3.05737C1.93554 3.05737 1.40724 3.23847 0.967543 3.58017C0.440543 3.98787 0.104243 4.57677 0.0198431 5.23777C-0.0632569 5.89877 0.116543 6.55227 0.523643 7.07847L11.1896 20.8317C11.6661 21.4457 12.385 21.7977 13.1624 21.7977C13.7124 21.7977 14.2543 21.6119 14.6886 21.2742C15.2141 20.8664 15.5504 20.2776 15.6348 19.6173C15.7179 18.9562 15.5395 18.302 15.1311 17.7758Z" fill="#00A277"/>
</g>
</g>
<defs>
<linearGradient id="paint0_linear_938_22958" x1="33.0812" y1="49.7796" x2="33.0812" y2="0.240402" gradientUnits="userSpaceOnUse">
<stop stop-color="#011F72"/>
<stop offset="0.4972" stop-color="#673EB2"/>
</linearGradient>
<linearGradient id="paint1_linear_938_22958" x1="12.5373" y1="49.7796" x2="12.5373" y2="0.241032" gradientUnits="userSpaceOnUse">
<stop stop-color="#011F72"/>
<stop offset="0.4972" stop-color="#673EB2"/>
</linearGradient>
</defs>
</svg>
