<svg width="59" height="23" viewBox="0 0 59 23" fill="none" xmlns="http://www.w3.org/2000/svg">
<g id="R-ICO-012461">
<g id="BARD1">
<path d="M1.05469 11.5019C1.05469 5.97909 5.53184 1.50194 11.0547 1.50194H47.0547C52.5775 1.50194 57.0547 5.97909 57.0547 11.5019C57.0547 17.0248 52.5775 21.5019 47.0547 21.5019H11.0547C5.53184 21.5019 1.05469 17.0248 1.05469 11.5019Z" fill="url(#paint0_linear_938_23192)"/>
<path d="M44.763 2.99459C33.5269 2.87637 22.2908 2.52476 11.0547 1.64194C11.0547 1.54858 11.0547 1.45521 11.0547 1.36185C22.2908 0.479027 33.5269 0.127424 44.763 0.0091989C45.5269 0.00406265 46.2908 0.00179172 47.0547 0.00194514C52.7289 -0.110423 57.8674 4.66301 58.298 10.2093C58.3414 10.6393 58.3595 11.0698 58.3529 11.5019C58.4062 17.5481 52.7815 22.6878 47.0552 22.2678C47.055 22.2678 47.0549 22.2678 47.0547 22.2678C41.4368 22.0241 35.8183 21.8486 30.2005 21.9549C24.5825 22.0579 18.9639 22.4664 13.3459 22.6668C12.5821 22.6889 11.8184 22.7064 11.0547 22.7197C5.51408 22.9275 0.402366 18.2139 0.042183 12.7688C0.00480223 12.3469 -0.00772572 11.925 0.0040741 11.5019C0.0167533 5.57868 5.65481 0.710316 11.0547 1.36185C11.0547 1.45521 11.0547 1.54858 11.0547 1.64194C5.80157 2.03431 1.83329 6.77193 2.10519 11.5019C2.11704 11.8461 2.14752 12.186 2.19659 12.5234C2.7679 16.8665 6.75902 20.2783 11.0547 20.2843C11.8184 20.2976 12.5821 20.3151 13.3459 20.3372C18.9639 20.5375 24.5824 20.9447 30.2005 21.0477C35.8184 21.154 41.4367 20.9799 47.0547 20.7362C47.0548 20.7362 47.055 20.7362 47.0551 20.7362C51.9817 20.5746 55.9622 16.1087 55.7566 11.5019C55.7499 11.1672 55.7251 10.8362 55.682 10.5072C55.1817 6.26499 51.2169 2.91243 47.0547 3.00193C46.2908 3.00207 45.5269 2.99977 44.763 2.99459Z" fill="#734EA8"/>
<text id="BARD1_2" fill="white" xml:space="preserve" style="white-space: pre" font-family="Arial" font-size="12" font-weight="bold" letter-spacing="0em"><tspan x="8.37109" y="15.6621">BARD1</tspan></text>
</g>
</g>
<defs>
<linearGradient id="paint0_linear_938_23192" x1="29.0547" y1="1.50194" x2="29.0547" y2="21.5019" gradientUnits="userSpaceOnUse">
<stop stop-color="#FFBAAD"/>
<stop offset="1" stop-color="#734EA8"/>
</linearGradient>
</defs>
</svg>
